<?xml version="1.0" encoding="UTF-8"?><svg height="500" viewBox="0 0 500 500" width="500" xmlns="http://www.w3.org/2000/svg"><g fill="none" fill-rule="evenodd"><path d="M0 0h500v500H0z"/><path d="M203.003 109.223h93.643V21.928h-93.643z" fill="#2869aa"/><path d="M202.864 32.228h93.458v-14.2h-93.458z" fill="#e0e0e0"/><g fill="#1874ce"><path d="M87.548 75.258S46.785 148.058 29 203.029c4.445 13.376 45.208 40.86 85.232 37.886 13.34-36.4 24.46-52 24.46-52s2.963-95.085-51.144-113.655M411.473 75.258s40.762 72.8 58.547 127.77c-4.445 13.376-45.208 40.86-85.232 37.886-13.34-36.4-24.46-52-24.46-52s-2.963-95.085 51.145-113.655"/><path d="M249.511 57.703c-50.082 0-47.798-39.47-48.742-39.14-7.516 2.618-24.133 14.936-52.439 25.495-31.873 11.885-52.626 19.315-60.782 31.2 11.114 8.915 46.694 28.97 46.694 120.345v271.14s49.658 14.855 114.885 14.855c68.929 0 115.648-14.855 115.648-14.855v-271.14c0-91.375 35.58-111.43 46.7-120.345-8.157-11.885-28.91-19.315-60.783-31.2-28.36-10.577-44.982-22.92-52.478-25.511-.927-.318 4.177 39.156-48.703 39.156z"/></g><path d="M307.852 23.345C302.08 20.105 298.124 18 295.844 18c0 0 5.881 32.495-46.335 32.495-48.52 0-46.336-32.495-46.336-32.495-2.28 0-6.235 2.105-12.002 5.345 0 0 7.368 40.38 58.402 40.38 51.479 0 58.279-35.895 58.279-40.38z" fill="#fff"/><g fill-rule="nonzero"><path d="M288.945 147.544l-.037-.035c5.774-6.135 6.016-11.252 3.115-15.51a10.965 10.965 0 0 0-1.22-1.494 6.357 6.357 0 0 0-.495-.465l-.876-.698 3.06-7.545 1.51.93c.038.024.144.083.312.166.3.15.651.3 1.049.442 3.993 1.428 8.347.82 12.576-3.396l1.06-1.057 1.06 1.056c4.23 4.217 8.583 4.825 12.577 3.397a9.759 9.759 0 0 0 1.049-.442c.168-.083.274-.142.311-.165l1.51-.931 3.06 7.545-.875.698c-.08.064-.256.221-.495.465-.413.423-.83.923-1.22 1.494-2.885 4.235-2.661 9.32 3.023 15.41.139.097.206.215.33.434.12.287.12.287.146.426.024.182.024.182.025.259-.002.104-.002.104-.006.155-.008.085-.008.085-.018.157-.013.1-.034.221-.06.356-.063.331-.155.717-.272 1.133a17.418 17.418 0 0 1-1.415 3.508c-1.81 3.369-4.588 5.864-8.482 6.892-2.074.547-3.822 1.232-5.274 2.02-1.307.709-2.293 1.454-3.005 2.183-.157.16-.813.91-1.969 2.248-1.153-1.337-1.807-2.085-1.961-2.245-.703-.724-1.676-1.464-2.965-2.168-1.46-.798-3.222-1.489-5.318-2.037-3.896-1.02-6.668-3.513-8.474-6.89a17.621 17.621 0 0 1-1.412-3.507 15.13 15.13 0 0 1-.274-1.123 9.346 9.346 0 0 1-.061-.334l-.017-.11-.008-.063c-.003-.024-.003-.024-.006-.076-.003-.04-.003-.04-.003-.139.006-.093.006-.093.015-.161l.062-.265z" fill="#fff"/><path d="M299.135 159.278c-7.892-2.065-9.147-10.741-9.135-10.741 11.108-11.802 1.243-19.67 1.243-19.67l1.973-4.862s7.892 4.863 15.783-3.005c7.892 7.868 15.784 3.005 15.784 3.005l.24.59z" fill="#145eb4"/></g><path d="M413.584 238.323c-9.287 2.238-19.064 3.316-28.798 2.592-8.197-22.369-15.557-36.883-20.012-44.748v270.577s-21.102 6.71-55.867 11.11l-.544-.059c1.881-54.795 5.722-166.47 8.277-240.705 2.055-59.755 31.084-95.29 60.099-117.44-2.676 6.78-5.072 14.606-7 23.667 7.354 11.852 24.436 42.069 43.831 94.964l.014.042zM190.717 477.795c-34.248-4.401-56.477-11.05-56.477-11.05V196.171c-4.456 7.867-11.813 22.38-20.01 44.743-9.632.716-19.308-.332-28.51-2.523.005-.033.012-.065.02-.097 19.377-52.848 36.305-83.066 43.61-94.944-1.93-9.075-4.328-16.912-7.007-23.701 29.015 22.15 58.044 57.685 60.1 117.44 2.554 74.235 6.395 185.91 8.276 240.705z" fill="#000" fill-opacity=".08"/></g></svg>