<?xml version="1.0" encoding="UTF-8"?><svg width="500" height="500" viewBox="0 0 500 500" fill="none" xmlns="http://www.w3.org/2000/svg"><path fill-rule="evenodd" clip-rule="evenodd" d="M203.003 109.223h93.643V21.928h-93.643v87.295z" fill="#D9D9D9"/><path fill-rule="evenodd" clip-rule="evenodd" d="M202.864 32.228h93.458v-14.2h-93.458v14.2z" fill="#393939"/><path fill-rule="evenodd" clip-rule="evenodd" d="M87.5475 75.2585S46.7848 148.058 29 203.028c4.4449 13.375 45.2077 40.86 85.232 37.885 13.34-36.4 24.46-52 24.46-52s2.963-95.0845-51.1445-113.6545zm323.9255 0s40.762 72.7995 58.547 127.7695c-4.445 13.375-45.208 40.86-85.232 37.885-13.34-36.4-24.46-52-24.46-52s-2.963-95.0845 51.145-113.6545z" fill="#3D3D3D"/><path fill-rule="evenodd" clip-rule="evenodd" d="M249.511 57.7025c-50.082 0-47.798-39.4691-48.742-39.14-7.516 2.6187-24.133 14.9368-52.439 25.495-31.873 11.885-52.6259 19.315-60.7825 31.2 11.1149 8.915 46.6945 28.9695 46.6945 120.3445v271.14s49.658 14.856 114.885 14.856c68.929 0 115.648-14.856 115.648-14.856v-271.14c0-91.375 35.58-111.4295 46.7-120.3445-8.157-11.885-28.91-19.315-60.783-31.2-28.36-10.5767-44.982-22.9195-52.478-25.5087-.927-.3203 4.177 39.1537-48.703 39.1537z" fill="#DF3F3F"/><path fill-rule="evenodd" clip-rule="evenodd" d="M249.511 396c38.42 0 76.841-.744 115.264-2.233v63.992C326.209 459.253 287.788 460 249.511 460c-38.424 0-76.847-.753-115.269-2.258V393.75c38.278 1.5 76.701 2.25 115.269 2.25zm115.264-143v64H134.242v-64h230.533zM249.511 110c43.354 0 86.71.948 130.068 2.843l-.471 1.016c-6.638 14.515-12.042 34.496-13.76 62.4-38.757-1.505-77.37-2.259-115.837-2.259-38.616 0-77.231.76-115.844 2.281-1.753-28.558-7.369-48.818-14.217-63.415 43.168-1.91 86.522-2.866 130.061-2.866z" fill="#3D3D3D"/><path fill-rule="evenodd" clip-rule="evenodd" d="M467.353 195.129c.936 2.667 1.827 5.303 2.667 7.899-4.445 13.375-45.207 40.86-85.232 37.885-.958-2.613-1.904-5.119-2.835-7.519 20.795-1.358 37.993-5.637 51.594-12.837 13.428-7.109 24.697-15.585 33.806-25.428zm-435.6983.036c9.1031 9.828 20.3606 18.291 33.7724 25.392 13.6109 7.205 30.8241 11.485 51.6389 12.84-.931 2.399-1.877 4.904-2.834 7.517-40.0243 2.975-80.7871-24.51-85.232-37.885.8363-2.585 1.7234-5.21 2.6547-7.864z" fill="#DF3F3F"/><path fill-rule="evenodd" clip-rule="evenodd" d="M307.852 23.345C302.08 20.105 298.124 18 295.844 18c0 0 5.881 32.495-46.335 32.495-48.521 0-46.336-32.495-46.336-32.495-2.279 0-6.235 2.105-12.002 5.345 0 0 7.368 40.38 58.402 40.38 51.479 0 58.279-35.895 58.279-40.38z" fill="#3D3D3D"/><path fill-rule="evenodd" clip-rule="evenodd" d="M413.584 238.323c-9.287 2.238-19.064 3.316-28.798 2.592-8.197-22.369-15.557-36.883-20.012-44.748v270.577s-21.102 6.71-55.867 11.111l-.544-.06c1.881-54.795 5.722-166.47 8.277-240.705 2.055-59.755 31.084-95.29 60.099-117.44-2.676 6.781-5.072 14.606-7 23.667 7.354 11.852 24.436 42.069 43.831 94.964.005.014.01.028.014.042zM190.717 477.795c-34.248-4.401-56.477-11.051-56.477-11.051V196.172c-4.456 7.867-11.813 22.379-20.009 44.743-9.633.716-19.3091-.332-28.511-2.523a1.01 1.01 0 01.0199-.097c19.3771-52.848 36.3051-83.066 43.6101-94.944-1.929-9.075-4.328-16.912-7.007-23.701 29.015 22.15 58.044 57.685 60.099 117.44 2.555 74.235 6.396 185.91 8.277 240.705h-.002z" fill="#000" fill-opacity=".1"/><path d="M309 169c-8.132-5.372-22.254-19.189-20.911-44.302C299.374 125.587 309 117 309 117s9.626 8.587 20.911 7.698c1.343 25.113-12.779 38.93-20.911 44.302z" fill="#F2F2F2"/><path d="M326.326 141.582C320.974 142.287 314.259 143 309 143s-11.974-.713-17.325-1.418c-1.171-4.368-1.845-9.38-1.767-15.144 10.303.825 19.092-7.117 19.092-7.117s8.789 7.942 19.092 7.117c.078 5.764-.596 10.776-1.766 15.144z" fill="#E64338"/><path d="M291.675 141.582c3.564 13.304 11.736 20.642 17.325 25.096 5.801-4.622 14.382-12.35 17.709-26.63-.121.52-.249 1.031-.383 1.534-5.352.704-12.067 1.417-17.326 1.417s-11.974-.713-17.325-1.417z" fill="#3D3D3D"/><rect opacity=".6" x="296" y="128" width="26" height="26" rx="12" fill="#F2F2F2"/></svg>