<?xml version="1.0" encoding="UTF-8"?><svg width="500" height="500" viewBox="0 0 500 500" xmlns="http://www.w3.org/2000/svg"><g fill="none" fill-rule="evenodd"><path d="M0 0h500v500H0z"/><path fill="#C5541E" d="M203.0033 109.223h93.6432V21.928h-93.6432z"/><path fill="#E0E0E0" d="M202.8636 27.028h93.4586v-9h-93.4586z"/><path d="M87.5475 75.2585s-40.7627 72.8-58.5475 127.77c4.445 13.375 45.2077 40.86 85.2322 37.885 13.3398-36.4 24.4596-52 24.4596-52s2.9633-95.085-51.1443-113.655m323.9252 0s40.7628 72.8 58.5475 127.77c-4.445 13.375-45.2077 40.86-85.2321 37.885-13.3399-36.4-24.4597-52-24.4597-52s-2.9633-95.085 51.1443-113.655" fill="#FC7331"/><path d="M249.5111 57.7025c-50.0817 0-47.7981-39.469-48.7426-39.14-7.5158 2.6187-24.1326 14.9368-52.4385 25.495-31.8729 11.885-52.626 19.315-60.7825 31.2 11.1149 8.915 46.6944 28.97 46.6944 120.345v271.14s49.6576 14.855 114.885 14.855c68.9291 0 115.6484-14.855 115.6484-14.855v-271.14c0-91.375 35.5795-111.43 46.6994-120.345-8.1566-11.885-28.9096-19.315-60.7825-31.2-28.3599-10.5767-44.9818-22.9194-52.478-25.5106-.9273-.3184 4.1773 39.1556-48.703 39.1556z" fill="#FC7331"/><path d="M467.4614 195.302c.936 2.6666 1.8273 5.303 2.6674 7.8996-4.445 13.375-45.2077 40.86-85.2322 37.885a426.405 426.405 0 00-2.8354-7.5199c20.7951-1.3576 37.9933-5.6366 51.5945-12.837 13.4282-7.109 24.6968-15.5848 33.8057-25.4277zm-435.8067 0c9.1031 9.8275 20.3606 18.2914 33.7724 25.3916 13.611 7.2056 30.824 11.4856 51.6393 12.84a426.4198 426.4198 0 00-2.8342 7.5169c-40.0245 2.975-80.7873-24.51-85.2322-37.885.8363-2.5849 1.7234-5.2092 2.6547-7.8635z" fill="#45B55F"/><path d="M174.4037 32.4004c6.7562-3.393 12.314-6.5264 16.7699-9.0289l2.1376 6.6309c-8.9005 5.1427-22.4569 13.3251-41.5948 20.7108-28.2116 10.8825-47.4053 18.03-56.4937 28.2824l-7.6098-3.9754C95.8152 63.191 116.5424 55.769 148.33 43.9157c10.1562-3.7883 18.8076-7.8032 26.0737-11.5153zm150.1027-.0568c7.289 3.728 15.9767 7.7645 26.1848 11.5721 31.7886 11.8536 52.5161 19.2757 60.7179 31.1057l-7.4944 4.1061c-9.0402-10.3232-28.2774-17.4851-56.6099-28.4143-18.71-7.2205-32.0852-15.2026-40.9908-20.3613l1.5406-6.9804c4.4326 2.489 9.9481 5.6005 16.6518 8.9721z" fill="#F2F2F2"/><path d="M293.8907 36.9557C341.4061 48.0872 369 76.3371 369 105.242v41.277c-2.0522 10.5821-3.4767 22.7728-4 36.846v-78.123c0-17.1288-10.617-34.0605-29.8476-46.8864-11.9204-7.9502-26.607-14.004-43.3966-17.7955a33.1668 33.1668 0 002.1349-3.6043zM130 146.3992v-41.1573c0-29.0891 27.947-57.5149 76.0206-68.4925a36.813 36.813 0 002.2191 3.5953c-17.2092 3.7735-32.2384 9.9068-44.3922 18.012C144.617 71.1815 134 88.113 134 105.242v77.5148c-.5434-13.8695-1.965-25.9003-4-36.3575z" fill="#F2F2F2" fill-rule="nonzero"/><path d="M307.8516 23.345c-5.772-3.24-9.728-5.345-12.0078-5.345 0 0 5.8817 32.495-46.3352 32.495-48.5202 0-46.3352-32.495-46.3352-32.495-2.2798 0-6.2358 2.105-12.0028 5.345 0 0 7.3683 40.38 58.4029 40.38 51.4785 0 58.2781-35.895 58.2781-40.38z" fill="#FC7331"/><path d="M413.5843 238.3227c-9.2877 2.2382-19.0646 3.3161-28.7978 2.5926-8.1978-22.369-15.5572-36.883-20.0128-44.7484v270.5774s-21.1022 6.7098-55.8664 11.1104c-.1817-.0197-.363-.0396-.544-.0597 1.8808-54.795 5.7221-166.47 8.2763-240.705 2.0554-59.755 31.0847-95.29 60.099-117.44-2.6753 6.7806-5.0714 14.6063-6.9991 23.6673 7.354 11.8514 24.4358 42.0687 43.8307 94.964.005.014.0097.0277.014.0414zM190.7166 477.7953c-34.2478-4.4014-56.4763-11.051-56.4763-11.051V196.1721c-4.4558 7.8668-11.8138 22.3792-20.0097 44.7432-9.633.716-19.3087-.3323-28.5106-2.5238a1.113 1.113 0 01.0199-.0967c19.3773-52.8475 36.3054-83.0661 43.6098-94.9437-1.929-9.0753-4.3277-16.912-7.0064-23.7011 29.0144 22.15 58.0437 57.685 60.099 117.44 2.5543 74.235 6.3956 185.91 8.2763 240.7053h-.002z" fill-opacity=".07" fill="#000"/><path fill="#DA6127" d="M202.8666 32.298h93.4586v-7.1h-93.4586z"/><path d="M295.8468 18.0265c1.7847 0 4.5968 1.29 8.503 3.4048-7.1737 24.4814-25.348 36.7213-54.5219 36.7213-29.263 0-47.5089-12.3148-54.7376-36.9443 3.6898-1.9827 6.3654-3.1818 8.0861-3.1818 0 0-2.185 32.495 46.3352 32.495 52.2169 0 46.3352-32.495 46.3352-32.495z" fill="#F2F2F2"/><g transform="translate(291 120)"><path d="M2 2C7.3333.6667 12.6667 0 18 0c5.3333 0 10.6667.6667 16 2l2 25c0 4-6 10.3333-18 19C6 37.3333 0 31 0 27L2 2z" fill="#129C43"/><path d="M2.8889 2.8696C7.9259 1.6232 12.9629 1 18 1c5.037 0 10.074.6232 15.1111 1.8696L35 26.239c0 3.7393-5.6667 9.6596-17 17.761C6.6667 35.8986 1 29.9783 1 26.2391L2.8889 2.8696z" fill="#F2F2F2"/><path d="M3.7778 3.7391C8.5185 2.5797 13.2593 2 18 2s9.4815.5797 14.2222 1.7391L34 25.4783C34 28.9565 28.6667 34.4638 18 42 7.3333 34.4638 2 28.9565 2 25.4783L3.7778 3.739z" fill="#ED5E2D"/><path d="M3.7778 3.7391C8.5185 2.5797 13.2593 2 18 2s9.4815.5797 14.2222 1.7391L34 25.4783C34 28.9565 28.6667 34.4638 18 42 7.3333 34.4638 2 28.9565 2 25.4783L3.7778 3.739z" fill="#ED5E2D"/><path d="M18 7.5c4.564.001 9.1278.5311 13.6915 1.5905L33 25.3043C33 28.6087 28 33.8406 18 41 8 33.8406 3 28.6087 3 25.3043c.5818-7.2087 1.018-12.6152 1.309-16.2196C8.8724 8.0273 13.436 7.499 18 7.5z" fill="#F2F2F2"/><path d="M16.5001 8.0206v30.866c-1.2626-.95-2.4294-1.8622-3.5006-2.7367l.001-27.9189A54.144 54.144 0 0116.5 8.0206zm6.5005.2127l.001 27.9158c-1.0713.8745-2.2381 1.7867-3.5006 2.7367l-.0001-30.8646a54.1512 54.1512 0 013.4997.2121zm-12.9997.3592L9.9994 33.573C5.9998 29.9286 4 27.0734 4 25.0071L5.2217 9.5137a56.88 56.88 0 014.7792-.9212zm20.7778.9268L32 25.007c0 2.0661-1.9995 4.921-5.9984 8.5649L26.0003 8.596a56.903 56.903 0 014.7784.9232z" fill="#ED5E2D"/><path fill="#F2F2F2" d="M8 12h20v10H8z"/><path fill="#0B672A" opacity=".4" d="M9 13h18v8H9z"/><circle fill="#F2F2F2" cx="18" cy="30.5" r="4.5"/><circle fill="#ED5E2D" opacity=".7" cx="18" cy="30.5" r="3.5"/></g></g></svg>