<?xml version="1.0" encoding="UTF-8"?><svg width="500" height="500" viewBox="0 0 500 500" xmlns="http://www.w3.org/2000/svg"><g fill="none" fill-rule="evenodd"><path d="M0 0h500v500H0z"/><path fill="#1A583B" d="M203.0033 109.223h93.6432V21.928h-93.6432z"/><path fill="#206947" d="M202.8636 32.228h93.4586v-14.2h-93.4586z"/><path d="M87.5475 75.2585s-40.7627 72.8-58.5475 127.77c4.445 13.375 45.2077 40.86 85.2322 37.885 13.3398-36.4 24.4596-52 24.4596-52s2.9633-95.085-51.1443-113.655m323.9252 0s40.7628 72.8 58.5475 127.77c-4.445 13.375-45.2077 40.86-85.2321 37.885-13.3399-36.4-24.4597-52-24.4597-52s-2.9633-95.085 51.1443-113.655" fill="#22704C"/><path d="M249.5111 57.7025c-50.0817 0-47.7981-39.469-48.7426-39.14-7.5158 2.6187-24.1326 14.9368-52.4385 25.495-31.8729 11.885-52.626 19.315-60.7825 31.2 11.1149 8.915 46.6944 28.97 46.6944 120.345v271.14s49.6576 14.855 114.885 14.855c68.9291 0 115.6484-14.855 115.6484-14.855v-271.14c0-91.375 35.5795-111.43 46.6994-120.345-8.1566-11.885-28.9096-19.315-60.7825-31.2-28.3599-10.5767-44.9818-22.9194-52.478-25.5106-.9273-.3184 4.1773 39.1556-48.703 39.1556z" fill="#22704C"/><path d="M467.4614 195.302c.936 2.6666 1.8273 5.303 2.6674 7.8996-4.445 13.375-45.2077 40.86-85.2322 37.885a426.405 426.405 0 00-2.8354-7.5199c20.7951-1.3576 37.9933-5.6366 51.5945-12.837 13.4282-7.109 24.6968-15.5848 33.8057-25.4277zm-435.8067 0c9.1031 9.8275 20.3606 18.2914 33.7724 25.3916 13.611 7.2056 30.824 11.4856 51.6393 12.84a426.4198 426.4198 0 00-2.8342 7.5169c-40.0245 2.975-80.7873-24.51-85.2322-37.885.8363-2.5849 1.7234-5.2092 2.6547-7.8635z" fill="#52D764"/><path d="M307.8516 23.345c-5.772-3.24-9.728-5.345-12.0078-5.345 0 0 5.8817 32.495-46.3352 32.495-48.5202 0-46.3352-32.495-46.3352-32.495-2.2798 0-6.2358 2.105-12.0028 5.345 0 0 7.3683 40.38 58.4029 40.38 51.4785 0 58.2781-35.895 58.2781-40.38z" fill="#2D7F59"/><path d="M413.5843 238.3227c-9.2877 2.2382-19.0646 3.3161-28.7978 2.5926-8.1978-22.369-15.5572-36.883-20.0128-44.7484v270.5774s-21.1022 6.7098-55.8664 11.1104c-.1817-.0197-.363-.0396-.544-.0597 1.8808-54.795 5.7221-166.47 8.2763-240.705 2.0554-59.755 31.0847-95.29 60.099-117.44-2.6753 6.7806-5.0714 14.6063-6.9991 23.6673 7.354 11.8514 24.4358 42.0687 43.8307 94.964.005.014.0097.0277.014.0414zM190.7166 477.7953c-34.2478-4.4014-56.4763-11.051-56.4763-11.051V196.1721c-4.4558 7.8668-11.8138 22.3792-20.0097 44.7432-9.633.716-19.3087-.3323-28.5106-2.5238a1.113 1.113 0 01.0199-.0967c19.3773-52.8475 36.3054-83.0661 43.6098-94.9437-1.929-9.0753-4.3277-16.912-7.0064-23.7011 29.0144 22.15 58.0437 57.685 60.099 117.44 2.5543 74.235 6.3956 185.91 8.2763 240.7053h-.002z" fill-opacity=".06" fill="#000"/><g transform="translate(291 122)"><path d="M0 4c6-2.6667 12-4 18-4s12 1.3333 18 4c0 18-6 30.6667-18 38C6 34.6667 0 22 0 4z" fill="#CCB347"/><path d="M2 5.619C7.3333 3.2063 12.6667 2 18 2c5.3333 0 10.6667 1.2063 16 3.619C34 21.9048 28.6667 33.365 18 40 7.3333 33.365 2 21.9048 2 5.619z" fill="#FFF"/><path d="M19.75 7l.0012 30.8154A31.2283 31.2283 0 0118 39V7h1.75zm3.5 0l.0011 27.8299a29.0407 29.0407 0 01-1.75 1.611L21.5 7h1.75zm3.5 0l.0011 23.59a29.1214 29.1214 0 01-1.7495 2.3247L25 7h1.75zm3.5 0l.0016 16.7284c-.512 1.3772-1.0954 2.689-1.7504 3.9353L28.5 7h1.75zM32 7l.997-.0004.003-.571c0 3.9818-.333 7.6592-.9991 11.032L32 7z" fill="#CCB347"/><circle fill="#FFF" cx="18" cy="21" r="8"/><circle fill="#519245" opacity=".8" cx="18" cy="21" r="7"/><path d="M18 3c5 0 10 1.1429 15 3.4286 0 2.0696-.09 4.057-.27 5.9622C27.8199 10.13 22.91 9 18 9s-9.8198 1.13-14.7297 3.39C3.09 10.4857 3 8.4983 3 6.4287 8 4.1429 13 3 18 3z" fill="#519245"/></g></g></svg>