<?xml version="1.0" encoding="utf-8"?><svg width="500" height="500" viewBox="0 0 500 500" fill="none" xmlns="http://www.w3.org/2000/svg"><path fill-rule="evenodd" clip-rule="evenodd" d="M203.004 109.223h93.643V21.928h-93.643v87.295Z" fill="#C8C8C8"/><path fill-rule="evenodd" clip-rule="evenodd" d="M202.863 32.228h93.459v-14.2h-93.459v14.2Z" fill="#164DA1"/><path fill-rule="evenodd" clip-rule="evenodd" d="M87.547 75.258S46.785 148.06 29 203.03c4.445 13.375 45.208 40.86 85.232 37.885 13.34-36.4 24.46-52 24.46-52S141.655 93.83 87.547 75.26m323.925-.002s40.763 72.801 58.548 127.771c-4.445 13.375-45.208 40.86-85.233 37.885-13.339-36.4-24.459-52-24.459-52s-2.964-95.085 51.144-113.655" fill="#F2F2F2"/><path fill-rule="evenodd" clip-rule="evenodd" d="M249.51 57.703c-50.081 0-47.798-39.47-48.742-39.14-7.516 2.618-24.133 14.936-52.439 25.494-31.873 11.886-52.626 19.316-60.782 31.2 11.115 8.915 46.694 28.97 46.694 120.345v271.14s49.658 14.856 114.885 14.856c68.929 0 115.649-14.856 115.649-14.856v-271.14c0-91.375 35.579-111.43 46.699-120.345-8.157-11.885-28.91-19.315-60.782-31.2-28.36-10.576-44.982-22.919-52.479-25.508-.927-.32 4.178 39.154-48.703 39.154Z" fill="#F2F2F2"/><path fill-rule="evenodd" clip-rule="evenodd" d="M265.462 56.275c15.676-3.094 23.748-10.752 27.937-18.367v441.644a478.805 478.805 0 0 1-27.937 1.768V56.275Zm58.867-23.88c7.325 3.753 16.071 7.824 26.363 11.662l1.574.587v425.441c-6.829 1.636-16.283 3.656-27.937 5.545V32.395Zm-89.797 448.958c-9.8-.327-19.156-.961-27.937-1.79V37.808c4.477 7.684 12.681 15.434 27.937 18.511v425.034Zm-58.867-5.74c-11.439-1.847-20.935-3.817-27.936-5.43V44.282l.601-.225c10.751-4.01 19.815-8.274 27.335-12.163v443.719Z" fill="#1855B0"/><path fill-rule="evenodd" clip-rule="evenodd" d="M68.73 110.93c10.64-21.093 18.83-35.72 18.83-35.72 8.157-11.886 28.91-19.316 60.783-31.2 28.008-10.448 44.571-22.618 52.198-25.41.186.63.31 3.354 1.13 7.092-7.518 3.04-23.336 14.847-49.942 25.115-30.81 11.885-50.864 19.315-58.747 31.2 0 0-7.812 14.495-17.944 35.245l-6.307-6.322Zm361.561 0-6.308 6.322c-10.132-20.75-17.944-35.245-17.944-35.245-7.882-11.885-27.937-19.315-58.747-31.2-26.606-10.268-42.424-22.075-49.942-25.115.82-3.738.944-6.462 1.13-7.092 7.627 2.792 24.19 14.962 52.198 25.41 31.873 11.884 52.626 19.314 60.782 31.2 0 0 8.191 14.628 18.831 35.72Z" fill="#1855B0"/><path fill-rule="evenodd" clip-rule="evenodd" d="M307.851 23.345c-5.772-3.24-9.728-5.345-12.008-5.345 0 0 5.882 32.495-46.335 32.495-48.52 0-46.335-32.495-46.335-32.495-2.28 0-6.236 2.105-12.003 5.345 0 0 7.368 40.38 58.403 40.38 51.478 0 58.278-35.895 58.278-40.38Z" fill="#1855B0"/><path fill-rule="evenodd" clip-rule="evenodd" d="M413.585 238.323c-9.288 2.238-19.065 3.316-28.798 2.592-8.198-22.369-15.557-36.883-20.013-44.748v270.577s-21.102 6.71-55.866 11.111l-.544-.06c1.881-54.795 5.722-166.47 8.276-240.705 2.056-59.755 31.085-95.29 60.099-117.44-2.675 6.781-5.071 14.606-6.999 23.667 7.354 11.852 24.436 42.069 43.831 94.964l.014.042ZM190.717 477.795c-34.248-4.401-56.476-11.051-56.476-11.051V196.172c-4.456 7.867-11.814 22.379-20.01 44.743-9.633.716-19.308-.332-28.51-2.524a.82.82 0 0 1 .02-.096c19.377-52.848 36.305-83.066 43.609-94.944-1.929-9.075-4.327-16.912-7.006-23.701 29.014 22.15 58.044 57.685 60.099 117.44 2.554 74.235 6.396 185.91 8.276 240.705h-.002Z" fill="#000" fill-opacity=".1"/><path fill-rule="evenodd" clip-rule="evenodd" d="M310 164c12.15 0 22-9.85 22-22s-9.85-22-22-22-22 9.85-22 22 9.85 22 22 22Z" fill="#F2F2F2"/><path fill-rule="evenodd" clip-rule="evenodd" d="M310 163c11.598 0 21-9.402 21-21s-9.402-21-21-21-21 9.402-21 21 9.402 21 21 21Z" fill="#124694"/><path fill-rule="evenodd" clip-rule="evenodd" d="M310 157c8.284 0 15-6.716 15-15 0-8.284-6.716-15-15-15-8.284 0-15 6.716-15 15 0 8.284 6.716 15 15 15Z" fill="#F2F2F2"/><path d="m310 128 3.045 9.809 10.27-.135-8.389 5.927 3.303 9.725L310 147.18l-8.229 6.146 3.303-9.725-8.389-5.927 10.27.135L310 128Z" fill="#1855B0"/></svg>