<?xml version="1.0" encoding="UTF-8"?><svg height="500" viewBox="0 0 500 500" width="500" xmlns="http://www.w3.org/2000/svg"><g fill="none" fill-rule="evenodd"><path d="M203.006 109.193h93.643V21.898h-93.643z" fill="silver"/><path d="M202.867 32.198h93.458v-14.2h-93.458z" fill="#ae0018"/><g fill="#f2f2f2"><path d="M87.55 75.26s-40.762 72.8-58.547 127.77c4.445 13.375 45.208 40.86 85.232 37.885 13.34-36.4 24.46-52 24.46-52S141.658 93.83 87.55 75.26M411.476 75.26s40.762 72.8 58.547 127.77c-4.445 13.375-45.208 40.86-85.232 37.885-13.34-36.4-24.46-52-24.46-52S357.368 93.83 411.476 75.26"/><path d="M249.514 57.706c-50.082 0-47.798-39.47-48.742-39.14-7.516 2.618-24.133 14.936-52.439 25.495-31.873 11.885-52.626 19.315-60.782 31.2 11.114 8.915 46.694 28.97 46.694 120.345v271.14S183.903 481.6 249.13 481.6c68.929 0 115.648-14.855 115.648-14.855v-271.14c0-91.375 35.58-111.43 46.7-120.345-8.157-11.885-28.91-19.315-60.783-31.2-28.36-10.577-44.982-22.92-52.478-25.511-.927-.318 4.177 39.156-48.703 39.156z"/></g><path d="M75.025 117.298c10.132-20.75 17.944-35.245 17.944-35.245 7.882-11.885 27.937-19.315 58.747-31.2 29.359-11.33 45.835-24.635 52.265-25.865-.678-4.5-.798-6.882-.804-6.97-5.927 0-22.98 14.025-54.853 25.91-31.868 11.89-52.62 19.315-60.772 31.2 0 0-8.232 14.76-18.858 35.825C49.557 149.176 36.326 179.867 29 203.027c.3 1.058 1.008 2.41 2.123 4.056s2.05 2.777 2.807 3.396c8.386-23.684 22.084-54.745 41.095-93.18zM423.965 117.322c-10.132-20.75-17.958-35.269-17.958-35.269-7.882-11.885-27.936-19.315-58.747-31.2-29.358-11.33-45.149-24.497-51.58-25.727.68-4.5.326-6.505.19-7.038 5.926 0 22.91 13.955 54.783 25.84 31.867 11.89 52.62 19.315 60.772 31.2 0 0 8.231 14.76 18.857 35.825 18.39 36.305 31.635 66.996 39.738 92.074-.491 1.317-.977 2.346-1.457 3.088-.481.741-1.276 1.804-2.385 3.188-18.428-43.992-32.498-74.652-42.213-91.98z" fill="#c6001b"/><path d="M249.576 63.752c51.479 0 58.279-35.895 58.279-40.38-5.772-3.24-9.728-5.345-12.008-5.345 0 0 5.881 32.495-46.335 32.495-48.52 0-46.336-32.495-46.336-32.495-2.28 0-6.235 2.105-12.002 5.345 0 0 7.368 40.38 58.402 40.38" fill="#c6001b"/><ellipse cx="250.759" cy="192.03" fill="#f8bb00" rx="24.944" ry="25"/><path d="M205.06 197.36l26.233-9.57a8.985 8.985 0 0 1 11.524 5.374l.004.01a9 9 0 0 1-5.375 11.527l-26.233 9.57a8.985 8.985 0 0 1-11.524-5.375l-.004-.01a9 9 0 0 1 5.375-11.527zM296.458 197.395l-26.232-9.57a8.985 8.985 0 0 0-11.524 5.374l-.004.01a9 9 0 0 0 5.375 11.527l26.233 9.57a8.985 8.985 0 0 0 11.524-5.374l.004-.01a9 9 0 0 0-5.376-11.527z" fill="#d51425"/><g transform="translate(283.5 116)"><path d="M25 48c11.598 0 21-9.402 21-21V1H4v26c0 11.598 9.402 21 21 21z" fill="#fff"/><g fill-rule="nonzero"><path d="M25 49c12.15 0 22-9.85 22-22V0H3v27c0 12.15 9.85 22 22 22z" fill="#001f47"/><path d="M46 1v26c0 11.598-9.402 21-21 21S4 38.598 4 27V1z" fill="#fff"/><path d="M25 46c10.493 0 19-8.507 19-19V3H6v24c0 10.493 8.507 19 19 19z" fill="#001f47"/><path d="M42 5v22c0 9.389-7.611 17-17 17S8 36.389 8 27V5z" fill="#fff"/></g><circle cx="25.5" cy="24" fill="#f8bb00" r="10"/><path d="M3.814 25.707l11.866-4.319a4.059 4.059 0 0 1 2.776 7.628L6.59 33.336a4.059 4.059 0 0 1-2.776-7.629zM46.456 25.707L34.59 21.388a4.059 4.059 0 0 0-2.776 7.628l11.866 4.32a4.059 4.059 0 1 0 2.776-7.629z" fill="#d51425"/></g><path d="M413.584 238.323c-9.287 2.238-19.064 3.316-28.798 2.592-8.197-22.369-15.557-36.883-20.012-44.748v270.577s-21.102 6.71-55.867 11.11l-.544-.059c1.881-54.795 5.722-166.47 8.277-240.705 2.055-59.755 31.084-95.29 60.099-117.44-2.676 6.78-5.072 14.606-7 23.667 7.354 11.852 24.436 42.069 43.831 94.964l.014.042zM190.717 477.795c-34.248-4.401-56.477-11.05-56.477-11.05V196.171c-4.456 7.867-11.813 22.38-20.01 44.743-9.632.716-19.308-.332-28.51-2.523.005-.033.012-.065.02-.097 19.377-52.848 36.305-83.066 43.61-94.944-1.93-9.075-4.328-16.912-7.007-23.701 29.015 22.15 58.044 57.685 60.1 117.44 2.554 74.235 6.395 185.91 8.276 240.705z" fill="#000" fill-opacity=".06"/></g></svg>