<svg xmlns="http://www.w3.org/2000/svg" width="500" height="500" fill="none" viewBox="0 0 500 500"><path fill="#D1AE15" fill-rule="evenodd" d="M203 109.22h93.65v-87.3H203v87.3Z" clip-rule="evenodd"/><path fill="#E5C01A" fill-rule="evenodd" d="M202.86 32.23h93.46v-14.2h-93.46v14.2Z" clip-rule="evenodd"/><path fill="#FFD620" fill-rule="evenodd" d="M87.55 75.26S46.78 148.06 29 203.03c4.44 13.37 45.2 40.86 85.23 37.88 13.34-36.4 24.46-52 24.46-52s2.97-95.08-51.14-113.65M411.47 75.26s40.76 72.8 58.55 127.77c-4.44 13.37-45.2 40.86-85.23 37.88-13.34-36.4-24.46-52-24.46-52s-2.97-95.08 51.14-113.65" clip-rule="evenodd"/><path fill="#FFD620" fill-rule="evenodd" d="M249.51 57.7c-50.08 0-47.8-39.47-48.74-39.14-7.52 2.62-24.14 14.94-52.44 25.5-31.87 11.88-52.63 19.31-60.78 31.2 11.11 8.91 46.7 28.97 46.7 120.34v271.14s49.65 14.86 114.88 14.86c68.93 0 115.64-14.86 115.64-14.86V195.6c0-91.37 35.58-111.43 46.7-120.34-8.15-11.89-28.9-19.32-60.78-31.2-28.36-10.58-44.98-22.92-52.48-25.51-.92-.32 4.18 39.15-48.7 39.15Z" clip-rule="evenodd"/><path fill="#3D3D3D" fill-rule="evenodd" d="M200.53 18.5c.18.64.3 9.36 1.13 13.1-7.52 3.04-23.34 14.85-49.94 25.11-30.81 11.89-50.87 19.32-58.75 31.2 0 0-7.81 14.5-17.94 35.25l-6.31-12.32c10.64-21.1 18.83-35.72 18.83-35.72 8.15-11.89 28.9-19.32 60.78-31.2 28-10.45 44.57-22.62 52.2-25.41ZM298.5 18.5c7.62 2.8 24.18 14.97 52.2 25.42 31.86 11.88 52.62 19.31 60.77 31.2 0 0 8.2 14.62 18.83 35.72l-6.3 12.32c-10.14-20.75-17.95-35.25-17.95-35.25-7.88-11.88-27.94-19.31-58.75-31.2-26.6-10.26-42.42-22.07-49.94-25.11.82-3.74.95-12.46 1.13-13.1Z" clip-rule="evenodd"/><path fill="#3D3D3D" fill-rule="evenodd" d="M167 36.15V474.1a408.97 408.97 0 0 1-22-4.59V45.27l3.33-1.24c6.9-2.58 13.12-5.26 18.67-7.88Zm46 9.7v434.24a473.72 473.72 0 0 1-22-2.3V23.48c4.2-2.36 7.43-4.12 9.77-4.94.6-.2-.1 15.72 12.23 27.31Zm48 11.12v424.45a484.36 484.36 0 0 1-22 .03V57.03c3.22.42 6.72.64 10.51.64a89 89 0 0 0 11.49-.7Zm48-32.96v453.8c-6.83.87-14.18 1.64-22 2.26V46.1c12.5-11.62 10.62-27.78 11.22-27.57 2.52.87 6.08 2.85 10.78 5.5Zm46 21.62V469.4a359.56 359.56 0 0 1-22 4.72V36.6c5.3 2.47 11.19 5 17.7 7.42l4.3 1.6Z" clip-rule="evenodd"/><path fill="#FFD620" fill-rule="evenodd" d="M307.85 23.34c-5.77-3.23-9.73-5.34-12-5.34 0 0 5.88 32.5-46.34 32.5-48.52 0-46.34-32.5-46.34-32.5-2.28 0-6.23 2.1-12 5.34 0 0 7.37 40.39 58.4 40.39 51.48 0 58.28-35.9 58.28-40.38Z" clip-rule="evenodd"/><path fill="#000" fill-opacity=".1" fill-rule="evenodd" d="M413.58 238.32a93.8 93.8 0 0 1-28.8 2.6c-8.2-22.37-15.55-36.89-20-44.75v270.57s-21.1 6.71-55.87 11.12c-.18-.03-.37-.04-.55-.06l8.28-240.71c2.06-59.75 31.09-95.29 60.1-117.44a148.7 148.7 0 0 0-7 23.67c7.35 11.85 24.44 42.07 43.83 94.96l.01.04ZM190.72 477.8c-34.25-4.4-56.48-11.06-56.48-11.06V196.18c-4.46 7.87-11.81 22.38-20 44.75-9.64.71-19.32-.34-28.52-2.53l.02-.1c19.38-52.84 36.3-83.06 43.61-94.94a148.62 148.62 0 0 0-7-23.7c29 22.15 58.04 57.69 60.1 117.44l8.27 240.7Z" clip-rule="evenodd"/><path fill="#F2F2F2" fill-rule="evenodd" d="M292.05 138.76c-.18.3-.4.68-.65 1.15l-.51.9-.1.14-.46.8c-.4.69-.77 1.46-1.03 2.44-.53 1.94-.55 4.44.2 8.4.69 3.52 2.47 5.71 4.78 7.1 2.15 1.29 4.7 1.84 6.86 2.3l.13.03c1.54.34 2.88.63 4.04 1.08 1.13.44 1.94.97 2.47 1.68l1.36 1.8 1.35-1.8a5.37 5.37 0 0 1 2.47-1.68c1.16-.45 2.5-.74 4.04-1.07l.13-.03c2.16-.47 4.72-1.02 6.86-2.31 2.31-1.39 4.1-3.58 4.77-7.1.76-3.96.75-6.46.22-8.4-.27-.98-.65-1.75-1.03-2.44l-.48-.8-.09-.15c-.18-.3-.35-.59-.51-.9-.25-.47-.47-.83-.65-1.14-.54-.92-.77-1.3-.77-2.43 0-2.54.57-3.87 1.13-4.61a4.54 4.54 0 0 1 2.01-1.43l1.68-.72-4.77-9.18-1.51.82c-3.69 1.99-9.3 3.21-14.96 3.2-5.67-.03-11.21-1.3-14.74-3.2l-1.52-.82-4.77 9.18 1.68.72c.74.32 1.44.68 2.01 1.43.56.74 1.14 2.07 1.14 4.6 0 1.13-.23 1.52-.78 2.44Zm32.8 1.02.52.93.65 1.13c1.26 2.08 2.34 3.87 1.08 10.42-1.17 6.1-5.95 7.13-10.46 8.1-2.35.52-4.64 1.01-6.28 2.2-.46.34-.88.73-1.22 1.2 1.59-2.11 4.48-2.74 7.5-3.4 4.5-.97 9.29-2 10.46-8.1 1.25-6.55.18-8.34-1.08-10.42l-.65-1.13c-.18-.34-.36-.64-.53-.93a5.86 5.86 0 0 1-1.1-3.45c0-5.59 2.56-6.9 4.18-7.6l-3.13-6.02 3.13 6.02c-.4.18-.87.39-1.33.7-1.4.92-2.84 2.7-2.84 6.9 0 1.61.47 2.41 1.1 3.45Zm-34.5-11.05Z" clip-rule="evenodd"/><path fill="#3D3D3D" d="M301.63 160.37c3.02.65 5.92 1.28 7.5 3.39 1.6-2.11 4.5-2.74 7.51-3.4 4.5-.97 9.29-2 10.46-8.1 1.25-6.55.18-8.34-1.08-10.42l-.65-1.13c-.18-.34-.36-.64-.53-.93-.62-1.04-1.1-1.84-1.1-3.45 0-2.96 3.04-6.5 3.95-7.6l-35.07 27.16c2.04 2.97 5.6 3.74 9.01 4.48ZM290.79 149.85c-.58-4.63.37-6.21 1.46-8.01.21-.36.44-.73.65-1.13.18-.34.36-.64.53-.93a5.86 5.86 0 0 0 1.1-3.45c0-5.59-2.56-6.9-4.18-7.6l3.13-6.02s7.8 3.4 15.78 3.39c7.9-.02 15.46-3.4 15.46-3.4l-33.93 27.15Z"/><path fill="#FFD620" d="M294.44 156.11c1.97 1.98 4.87 2.61 7.64 3.21.54.12 1.08.22 1.6.31 2.23.41 4.25.78 5.46 2.39 1.2-1.6 3.22-1.98 5.45-2.39l1.6-.3c4.22-.92 8.72-1.9 9.81-7.62 1.19-6.16.18-7.83-1-9.79-.2-.34-.41-.68-.62-1.06-.17-.32-.34-.6-.5-.87-.57-.98-1.02-1.73-1.02-3.24 0-1.05.08-2 .24-2.84l-28.66 22.2Z"/><path fill="#3D3D3D" d="M318.78 126.1a31.45 31.45 0 0 1-9.65 1.27c-9.5 0-15.25-3.42-15.25-3.42l-2.14 4.32c1.52.66 3.67 3.23 3.67 8.48a5.5 5.5 0 0 1-1.03 3.24l-.5.87c-.2.38-.4.72-.6 1.06a8.65 8.65 0 0 0-1.54 5.55l27.04-21.37ZM303.2 149.33l-5.02 3.89v5.1c1.26.43 2.6.72 3.9 1 .38.08.75.16 1.11.22v-10.2ZM313.21 159.9c-1.66.35-3.12.85-4.07 2.12a4.32 4.32 0 0 0-.94-.91v-15.66l5.01-3.88v18.33ZM323.24 156.65c-1.41 1.14-3.18 1.75-5.01 2.2v-21.17l4.87-3.77c-.16.84-.24 1.79-.24 2.84 0 .86.14 1.48.38 2.03v17.87Z"/></svg>