<svg xmlns="http://www.w3.org/2000/svg" width="500" height="500" fill="none" viewBox="0 0 500 500"><path fill="#05301B" fill-rule="evenodd" d="M203 109.22h93.65v-87.3H203v87.3Z" clip-rule="evenodd"/><path fill="#155132" fill-rule="evenodd" d="M202.86 32.23h93.46v-14.2h-93.46v14.2Z" clip-rule="evenodd"/><path fill="#428F64" fill-rule="evenodd" d="M87.55 75.26S46.78 148.06 29 203.03c4.44 13.37 45.2 40.86 85.23 37.88 13.34-36.4 24.46-52 24.46-52s2.97-95.08-51.14-113.65M411.47 75.26s40.76 72.8 58.55 127.77c-4.44 13.37-45.2 40.86-85.23 37.88-13.34-36.4-24.46-52-24.46-52s-2.97-95.08 51.14-113.65" clip-rule="evenodd"/><path fill="#428F64" fill-rule="evenodd" d="M249.96 58.16c-50.08 0-47.8-39.47-48.74-39.14-7.51 2.61-24.13 14.93-52.44 25.5C116.91 56.4 96.16 63.81 88 75.71c11.11 8.9 46.7 28.96 46.7 120.34V467.2s49.65 14.85 114.88 14.85c68.93 0 115.65-14.85 115.65-14.85V196.06c0-91.38 35.58-111.43 46.7-120.35-8.16-11.88-28.91-19.31-60.79-31.2-28.35-10.58-44.98-22.92-52.47-25.5-.93-.33 4.17 39.15-48.7 39.15Z" clip-rule="evenodd"/><path fill="#1D7649" fill-rule="evenodd" d="M293.87 37.26c45.26 11.34 71.5 39.34 71.5 67.98v72.91c-.3 5.5-.45 11.3-.45 17.42v271.14s-46.72 14.86-115.65 14.86c-65.23 0-114.89-14.86-114.89-14.86V195.57c0-6.26-.16-12.19-.48-17.8v-72.53c0-28.83 26.6-57.02 72.42-68.2 5.6 10.13 17.5 20.63 43.33 20.63 27.09 0 38.96-10.35 44.22-20.41Z" clip-rule="evenodd"/><path fill="#136B3F" fill-rule="evenodd" d="M307.85 23.34c-5.77-3.23-9.73-5.34-12-5.34 0 0 5.88 32.5-46.34 32.5-48.52 0-46.34-32.5-46.34-32.5-2.28 0-6.23 2.1-12 5.34 0 0 7.37 40.39 58.4 40.39 51.48 0 58.28-35.9 58.28-40.38Z" clip-rule="evenodd"/><path fill="#000" fill-opacity=".06" fill-rule="evenodd" d="M413.58 238.32a93.8 93.8 0 0 1-28.8 2.6c-8.2-22.37-15.55-36.89-20-44.75v270.57s-21.1 6.71-55.87 11.12c-.18-.03-.37-.04-.55-.06l8.28-240.71c2.06-59.75 31.09-95.29 60.1-117.44a148.7 148.7 0 0 0-7 23.67c7.35 11.85 24.44 42.07 43.83 94.96l.01.04ZM190.72 477.8c-34.25-4.4-56.48-11.06-56.48-11.06V196.18c-4.46 7.87-11.81 22.38-20 44.75-9.64.71-19.32-.34-28.52-2.53l.02-.1c19.38-52.84 36.3-83.06 43.61-94.94a148.62 148.62 0 0 0-7-23.7c29 22.15 58.04 57.69 60.1 117.44l8.27 240.7Z" clip-rule="evenodd"/><path fill="#D9D9D9" fill-rule="evenodd" d="m327.12 151.53-9.8-27.2c-1.35-3.71-4.35-5.5-7.29-5.5-2.94 0-5.94 1.79-7.28 5.5l-9.81 27.2c-2.14 5.92 1.86 12.08 7.28 12.08h19.62c5.43 0 9.42-6.16 7.28-12.08ZM318.25 124c-2.96-8.22-13.48-8.22-16.44 0l-9.8 27.19c-2.33 6.43 1.95 13.42 8.21 13.42h19.62c6.26 0 10.54-6.99 8.22-13.42l-9.8-27.19Z" clip-rule="evenodd"/><path fill="#D9D9D9" fill-rule="evenodd" d="m302.11 133.16 6.2 6.14v10.5h2.14v-10.5l6.21-6.14h-14.55Zm8.34 28.66h-2.13v-5.31h2.13v5.31Z" clip-rule="evenodd"/><path fill="#D2423A" d="m315.33 131.89-1.96-6.96-2.52 2.79-.43-1.88-6.97 6.05h11.88Z"/><path fill="#E6A784" fill-rule="evenodd" d="m310.42 125.84-6.97 6.05h11.88l-1.96-6.96-2.52 2.79-.43-1.88Zm2.8-.24-2.56 2.82-.45-1.96-5.87 5.1h10.55l-1.68-5.96Z" clip-rule="evenodd"/><path fill="#D9D9D9" d="M298.81 155.22h21.22v-4.14H298.8v4.14Z" opacity=".3"/></svg>