<svg xmlns="http://www.w3.org/2000/svg" width="501" height="500" fill="none"><path fill="#C0AE0E" fill-rule="evenodd" d="M203.5 109.2h93.65V21.9H203.5v87.3Z" clip-rule="evenodd"/><path fill="#091667" fill-rule="evenodd" d="M203.37 32.2h93.45V18h-93.45v14.2Z" clip-rule="evenodd"/><path fill="#FDE61A" fill-rule="evenodd" d="M88.05 75.26S47.3 148.06 29.5 203.03c4.45 13.38 45.21 40.86 85.23 37.88 13.34-36.4 24.46-52 24.46-52s2.97-95.08-51.14-113.65m323.93 0s40.76 72.8 58.54 127.77c-4.44 13.38-45.2 40.86-85.23 37.88-13.34-36.4-24.46-52-24.46-52s-2.96-95.08 51.15-113.65" clip-rule="evenodd"/><path fill="#FDE61A" fill-rule="evenodd" d="M250.01 57.7c-50.08 0-47.8-39.46-48.74-39.13-7.51 2.61-24.13 14.93-52.44 25.5-31.87 11.88-52.62 19.3-60.78 31.2 11.12 8.9 46.7 28.96 46.7 120.34v271.14s49.65 14.85 114.88 14.85c68.93 0 115.65-14.85 115.65-14.85V195.6c0-91.38 35.58-111.43 46.7-120.35-8.16-11.88-28.91-19.31-60.79-31.2-28.35-10.58-44.98-22.92-52.47-25.5-.93-.33 4.17 39.15-48.7 39.15Z" clip-rule="evenodd"/><path fill="#1832DB" fill-rule="evenodd" d="M467.96 195.3c.94 2.67 1.83 5.3 2.67 7.9-4.45 13.38-45.2 40.86-85.23 37.89-.96-2.62-1.9-5.12-2.84-7.52 20.8-1.36 38-5.64 51.6-12.84 13.42-7.1 24.7-15.58 33.8-25.43Zm-435.81 0c9.1 9.83 20.37 18.3 33.78 25.4 13.6 7.2 30.82 11.48 51.64 12.83-.93 2.4-1.88 4.9-2.84 7.52-40.02 2.97-80.79-24.51-85.23-37.89.84-2.58 1.72-5.2 2.65-7.86ZM250.08 63.75c51.47 0 58.28-35.9 58.28-40.38-5.78-3.24-9.73-5.34-12.01-5.34 0 0 5.88 32.5-46.34 32.5-48.52 0-46.33-32.5-46.33-32.5-2.28 0-6.24 2.1-12 5.34 0 0 7.36 40.38 58.4 40.38" clip-rule="evenodd"/><path fill="#000" fill-opacity=".06" fill-rule="evenodd" d="M414.28 237.84a93.79 93.79 0 0 1-28.8 2.6c-8.2-22.38-15.56-36.9-20.01-44.76v270.58s-21.1 6.7-55.87 11.11l-.54-.06 8.27-240.7c2.06-59.76 31.09-95.3 60.1-117.45a148.5 148.5 0 0 0-7 23.67c7.36 11.85 24.44 42.07 43.83 94.97l.02.04ZM191.4 477.3c-34.25-4.4-56.48-11.05-56.48-11.05V195.69c-4.45 7.86-11.8 22.38-20 44.74a93.6 93.6 0 0 1-28.52-2.52l.02-.1c19.38-52.85 36.3-83.07 43.61-94.94a148.63 148.63 0 0 0-7-23.7c29.01 22.14 58.04 57.68 60.1 117.43 2.55 74.24 6.4 185.91 8.27 240.71Z" clip-rule="evenodd"/><path fill="#1832DB" fill-rule="evenodd" d="M309.1 165a22 22 0 1 0 0-44 22 22 0 0 0 0 44Z" clip-rule="evenodd"/><path fill="#FDE61A" fill-rule="evenodd" d="M309.1 162.93a19.93 19.93 0 1 0 0-39.86 19.93 19.93 0 0 0 0 39.86Z" clip-rule="evenodd"/><path fill="#1832DB" fill-rule="evenodd" d="M309.1 157.33a14.33 14.33 0 1 0 0-28.66 14.33 14.33 0 0 0 0 28.66Z" clip-rule="evenodd"/><path fill="#FDE61A" d="m309.1 133.5 8.23 14.25h-16.44l8.22-14.24Z"/></svg>