<?xml version="1.0" encoding="UTF-8"?><svg width="500" height="500" viewBox="0 0 500 500" xmlns="http://www.w3.org/2000/svg"><g fill="none" fill-rule="evenodd"><path d="M0 0h500v500H0z"/><path fill="#CCC5C5" d="M203.0033 109.223h93.6432V21.928h-93.6432z"/><path fill="#DED9D9" d="M202.8636 32.228h93.4586v-14.2h-93.4586z"/><path d="M87.5475 75.2585s-40.7627 72.8-58.5475 127.77c4.445 13.375 45.2077 40.86 85.2322 37.885 13.3398-36.4 24.4596-52 24.4596-52s2.9633-95.085-51.1443-113.655m323.9252 0s40.7628 72.8 58.5475 127.77c-4.445 13.375-45.2077 40.86-85.2321 37.885-13.3399-36.4-24.4597-52-24.4597-52s-2.9633-95.085 51.1443-113.655" fill="#EFEAEA"/><path d="M249.5111 57.7025c-50.0817 0-47.7981-39.469-48.7426-39.14-7.5158 2.6187-24.1326 14.9368-52.4385 25.495-31.8729 11.885-52.626 19.315-60.7825 31.2 11.1149 8.915 46.6944 28.97 46.6944 120.345v271.14s49.6576 14.855 114.885 14.855c68.9291 0 115.6484-14.855 115.6484-14.855v-271.14c0-91.375 35.5795-111.43 46.6994-120.345-8.1566-11.885-28.9096-19.315-60.7825-31.2-28.3599-10.5767-44.9818-22.9194-52.478-25.5106-.9273-.3184 4.1773 39.1556-48.703 39.1556z" fill="#EFEAEA"/><path d="M249.5111 475.044c38.3757 0 76.797-5.01 115.2642-15.0297v6.7282l-.8844.27c-6.7328 2.0117-51.3492 14.585-114.764 14.585-58.7046 0-104.7978-12.0326-113.4294-14.439l-1.4557-.416v-6.9061c38.244 10.1384 76.667 15.2075 115.2693 15.2075zM96.6454 79.7885c8.5392-11.2398 28.6595-18.5704 59.0414-30.0765 19.3017-7.312 33.0832-15.4682 42.191-20.662a4.556 4.556 0 01-.0095-.0504c1.2123-.6917 2.3432-1.3316 3.3942-1.9104l1.7304 3.2145c-9.03 5.0642-23.4589 13.9728-44.3618 21.8915-29.8633 11.3097-49.8123 18.5852-58.594 29.5043a52.2183 52.2183 0 00-3.3917-1.9109zm-6.7003-2.8755c8.031-11.886 28.4648-19.316 59.8474-31.201 19.3016-7.312 33.0831-15.4682 42.191-20.6621-.0065-.0333-.0095-.0504-.0095-.0504l.024-.0137 1.7377 3.2283c-9.1025 5.2076-22.5213 12.9811-40.999 19.981-30.4584 11.535-50.6033 18.8736-59.1056 30.1614l-3.686-1.4435zm312.2365 2.878a52.2193 52.2193 0 00-3.3914 1.9112c-8.7805-10.9206-28.7303-18.1964-58.5962-29.507-20.2041-7.654-34.3598-16.2329-43.438-21.371l1.5843-3.304c.8258.4607 1.6978.9552 2.6164 1.4793 0 0-.003.017-.0095.0504 9.1079 5.1939 22.8894 13.35 42.191 20.6621 30.3843 11.507 50.5052 18.8378 59.0434 30.079zm6.6994-2.876a52.1448 52.1448 0 00-3.6853 1.4438c-8.5014-11.2891-28.647-18.6279-59.1074-30.1637-18.2754-6.9233-31.6021-14.6034-40.6985-19.8092l1.413-3.4139.0483.0275s-.003.017-.0095.0504c9.1079 5.1939 22.8894 13.35 42.191 20.6621 31.3825 11.885 51.8163 19.315 59.8473 31.2v.001s.0011.0007.0011.002zM116.9912 233.5907c-.4942 1.2757-26.7292 0-48.9796-9.1396-17.7376-7.2858-37.3351-26.4929-36.4308-29.0753 1.0476-2.9914 2.1515-6.0213 3.3024-9.0761 10.2695 10.9648 22.741 19.7944 37.4143 26.4888 14.6578 6.6873 30.5526 11.1238 47.6844 13.3096a390.5104 390.5104 0 00-2.9907 7.4926zm309.8978-20.8022c14.6734-6.6944 27.1448-15.524 37.4144-26.4888 1.1364 3.0165 2.1222 6.0475 3.1587 9.0023.082.2358-15.1617 18.6261-32.849 27.0537-15.1375 7.2127-51.4063 13.8533-52.263 11.6349a391.4817 391.4817 0 00-3.1454-7.8925c17.1318-2.1858 33.0266-6.6223 47.6843-13.3096z" fill="#A51F1F"/><path d="M467.4614 195.302c.936 2.6666 1.8273 5.303 2.6674 7.8996-4.445 13.375-45.2077 40.86-85.2322 37.885a426.405 426.405 0 00-2.8354-7.5199c20.7951-1.3576 37.9933-5.6366 51.5945-12.837 13.4282-7.109 24.6968-15.5848 33.8057-25.4277zm-435.8067 0c9.1031 9.8275 20.3606 18.2914 33.7724 25.3916 13.611 7.2056 30.824 11.4856 51.6393 12.84a426.4198 426.4198 0 00-2.8342 7.5169c-40.0245 2.975-80.7873-24.51-85.2322-37.885.8363-2.5849 1.7234-5.2092 2.6547-7.8635z" fill="#F2F2F2"/><path d="M307.8516 23.345c-1.4296-.8025-2.7478-1.5354-3.9567-2.1838-3.672-1.9698-2.1694 35.1535-54.3863 35.1535-48.5202 0-50.6537-37.1503-54.2593-35.2205-1.2422.6649-2.601 1.4206-4.0787 2.2508 0 0 7.3683 40.38 58.4029 40.38 51.4785 0 58.2781-35.895 58.2781-40.38z" fill="#A51F1F"/><path fill="#8C1616" d="M202.8666 32.198h93.4586v-7h-93.4586z"/><path d="M195.0901 21.2077c3.6892-1.9817 6.3654-3.1812 8.0863-3.1812 0 0-2.185 32.495 46.3352 32.495 52.2169 0 46.3352-32.495 46.3352-32.495 1.785 0 4.5974 1.2903 8.5043 3.4054-7.1745 24.4805-25.3489 36.7207-54.5232 36.7207-29.2633 0-47.5092-12.315-54.7378-36.9449z" fill="#EFEAEA"/><path d="M413.5843 238.3227c-9.2877 2.2382-19.0646 3.3161-28.7978 2.5926-8.1978-22.369-15.5572-36.883-20.0128-44.7484v270.5774s-21.1022 6.7098-55.8664 11.1104c-.1817-.0197-.363-.0396-.544-.0597 1.8808-54.795 5.7221-166.47 8.2763-240.705 2.0554-59.755 31.0847-95.29 60.099-117.44-2.6753 6.7806-5.0714 14.6063-6.9991 23.6673 7.354 11.8514 24.4358 42.0687 43.8307 94.964.005.014.0097.0277.014.0414zM190.7166 477.7953c-34.2478-4.4014-56.4763-11.051-56.4763-11.051V196.1721c-4.4558 7.8668-11.8138 22.3792-20.0097 44.7432-9.633.716-19.3087-.3323-28.5106-2.5238a1.113 1.113 0 01.0199-.0967c19.3773-52.8475 36.3054-83.0661 43.6098-94.9437-1.929-9.0753-4.3277-16.912-7.0064-23.7011 29.0144 22.15 58.0437 57.685 60.099 117.44 2.5543 74.235 6.3956 185.91 8.2763 240.7053h-.002z" fill-opacity=".07" fill="#000"/><g transform="translate(287.6233 120)"><path d="M1.0815 22.307C-.2515 16.72-.85 9.2843 2.2858 3 8.6494 1 15.013 0 21.3767 0l.83.0057C28.2937.0888 34.3807 1.087 40.4676 3c3.1359 6.2844 2.5373 13.72 1.2042 19.307-3.35 9.4582-10.5003 17.9382-19.2286 23.0317-.153.0893-.5085.3097-1.0665.6613l-.7543-.5403C11.6252 40.3802 4.4584 31.8405 1.0815 22.307z" fill="#000"/><path d="M21.3767 0l.83.0057C27.4155.0768 32.6242.818 37.833 2.229c1.9491 5.6413 2.0524 15.2803.3104 20.1983-2.71 7.6511-8.43 14.5273-15.4366 18.7609l-.631.3765a75.3688 75.3688 0 00-.699.4364l-.6232-.4463c-7.433-4.1963-13.3539-11.2513-16.1435-19.1274-1.7419-4.9177-1.6388-14.5559.3093-20.1982C10.4055.743 15.8911 0 21.3767 0z" fill="#FFF"/><path d="M21.3767 0l.83.0057c4.4173.0603 8.8345.6025 13.2517 1.6265 1.2599 5.6047 1.2232 15.128-.1095 18.8907-2.2551 6.3668-7.0115 13.0458-12.839 16.6175l-.6615.3986a80.3573 80.3573 0 00-.4717.2954l-.5193-.372c-6.1941-3.497-11.1282-10.3761-13.453-16.9395-1.3326-3.7626-1.3693-13.286-.11-18.8915C11.9894.544 16.683 0 21.3768 0z" fill="#00AA50"/><path d="M21.3767 32.2876c3.1859 2.0921 6.9649 3.6667 11.337 4.7237-2.8293 3.0873-6.082 5.7856-9.6065 7.9315l-.988.5926c-.185.1144-.4325.2693-.7425.4646l-.7543-.5403c-3.9358-2.222-7.5214-5.1062-10.5927-8.446 4.1852-1.0109 7.8268-2.4957 10.9253-4.4544l.4217-.2717z" fill="#C9152F"/><circle fill="#FAC702" opacity=".7735" cx="21.3767" cy="39" r="4"/><path d="M21.3767 0l.83.0057c3.718.0508 7.436.443 11.154 1.1765 1.6615 13.874-2.3333 24.2419-11.984 31.1054l-.3622-.2611C11.626 25.162 7.752 14.8808 9.3925 1.1828 13.3881.394 17.3824 0 21.3766 0z" fill="#FFF"/><path d="M21.3767 0l.83.0057c3.718.0508 7.436.443 11.154 1.1765.2651 2.2137.3862 4.3381.3633 6.3733C29.608 6.5185 25.4923 6 21.3767 6c-4.116 0-8.232.5186-12.348 1.5558-.0225-2.0342.0986-4.159.3637-6.373C13.3882.394 17.3824 0 21.3767 0z" fill="#C9152F"/></g></g></svg>