<svg xmlns="http://www.w3.org/2000/svg" width="501" height="501" fill="none"><path fill="#FE678A" fill-rule="evenodd" d="M203.86 109.22h93.64v-87.3h-93.64v87.3Z" clip-rule="evenodd"/><path fill="#0D0D0D" fill-rule="evenodd" d="M203.72 32.22h93.46v-14.2h-93.46v14.2Z" clip-rule="evenodd"/><path fill="#FE95AD" fill-rule="evenodd" d="M88.4 75.29s-40.76 72.8-58.55 127.77c4.45 13.37 45.21 40.85 85.23 37.88 13.35-36.4 24.46-52 24.46-52s2.97-95.08-51.14-113.65Zm323.93 0s40.76 72.8 58.54 127.77c-4.44 13.37-45.2 40.85-85.23 37.88-13.34-36.4-24.46-52-24.46-52s-2.96-95.08 51.15-113.65Z" clip-rule="evenodd"/><path fill="#FE95AD" fill-rule="evenodd" d="M250.36 57.73c-50.08 0-47.8-39.47-48.74-39.14-7.51 2.62-24.13 14.94-52.44 25.5-31.87 11.88-52.62 19.31-60.78 31.2 11.12 8.91 46.7 28.97 46.7 120.34v271.14s49.65 14.86 114.88 14.86c68.93 0 115.65-14.86 115.65-14.86V195.63c0-91.37 35.58-111.43 46.7-120.34-8.16-11.89-28.91-19.32-60.78-31.2-28.37-10.58-44.99-22.92-52.48-25.51-.93-.32 4.17 39.15-48.7 39.15Z" clip-rule="evenodd"/><path fill="#2D2D2D" fill-rule="evenodd" d="M468.31 195.33c.94 2.66 1.83 5.3 2.67 7.9-4.45 13.37-45.21 40.86-85.23 37.88a434.6 434.6 0 0 0-2.84-7.52c20.8-1.36 38-5.63 51.6-12.84 13.42-7.1 24.7-15.58 33.8-25.42Zm-435.81 0c9.1 9.82 20.36 18.29 33.78 25.39 13.6 7.2 30.82 11.48 51.64 12.84-.94 2.4-1.88 4.9-2.84 7.52-40.02 2.97-80.79-24.51-85.23-37.89.84-2.58 1.72-5.2 2.65-7.86ZM250.43 63.78c51.47 0 58.27-35.9 58.27-40.38-5.77-3.24-9.72-5.35-12-5.35 0 0 5.88 32.5-46.34 32.5-48.52 0-46.33-32.5-46.33-32.5-2.28 0-6.24 2.1-12 5.35 0 0 7.36 40.38 58.4 40.38Z" clip-rule="evenodd"/><path fill="#000" fill-opacity=".06" fill-rule="evenodd" d="M414.43 238.35a93.73 93.73 0 0 1-28.8 2.6c-8.2-22.38-15.55-36.9-20-44.76v270.58s-21.1 6.71-55.87 11.11l-.55-.06 8.28-240.7c2.06-59.76 31.08-95.3 60.1-117.44a148.55 148.55 0 0 0-7 23.66c7.35 11.85 24.44 42.07 43.83 94.97a1 1 0 0 1 .01.04ZM191.57 477.82c-34.25-4.4-56.48-11.05-56.48-11.05V196.2c-4.46 7.87-11.81 22.38-20.01 44.74a93.6 93.6 0 0 1-28.51-2.52l.02-.1c19.38-52.85 36.3-83.07 43.61-94.94a148.63 148.63 0 0 0-7-23.7c29 22.15 58.04 57.68 60.1 117.44l8.27 240.7Z" clip-rule="evenodd"/><path fill="#2D2D2D" d="m293.17 148.98 34.03-25.7h.3v17.75h-.02v.55c.07 5.63.17 13.36-17.63 21.28-10.89-4.84-15.08-9.62-16.68-13.88Z"/><path fill="#FFCC15" fill-rule="evenodd" d="M331.85 118.4h-44v22.13h.02v.69l-.02 1.31c0 6.88 1.16 15.95 22 25.22 20.84-9.27 22-18.34 22-25.22l-.01-1.31-.01-.69h.02V118.4Zm-2 20.13V120.4h-40v18.13h.04l-.02 2.02v.69c-.05 3.5-.07 7.14 2.34 11.14 2.38 3.93 7.29 8.46 17.64 13.18 10.35-4.72 15.26-9.25 17.64-13.18 2.41-4 2.4-7.65 2.35-11.14l-.01-.7-.02-2h.04Z" clip-rule="evenodd"/><path fill="#FFCC15" d="m316.5 140-7.67-17.52-16.55 11.21 15.26 5.73 5.01 4.72-2.22 7.6 12.33-12.32-6.17.58Z"/><path fill="#F0F0F0" d="m313.27 140.02-16.07-6.8 10.7-7.25 5.38 14.05Z"/></svg>