<?xml version="1.0" encoding="UTF-8"?><svg width="500" height="500" viewBox="0 0 500 500" xmlns="http://www.w3.org/2000/svg"><g fill="none" fill-rule="evenodd"><path d="M0 0h500v500H0z"/><path fill="#D9B21F" d="M203.0033 109.223h93.6432V21.928h-93.6432z"/><path fill="#09471F" d="M202.8636 32.228h93.4586v-14.2h-93.4586z"/><path d="M87.5475 75.2585s-40.7627 72.8-58.5475 127.77c4.445 13.375 45.2077 40.86 85.2322 37.885 13.3398-36.4 24.4596-52 24.4596-52s2.9633-95.085-51.1443-113.655m323.9252 0s40.7628 72.8 58.5475 127.77c-4.445 13.375-45.2077 40.86-85.2321 37.885-13.3399-36.4-24.4597-52-24.4597-52s-2.9633-95.085 51.1443-113.655" fill="#F1C72A"/><path d="M249.5111 57.7025c-50.0817 0-47.7981-39.469-48.7426-39.14-7.5158 2.6187-24.1326 14.9368-52.4385 25.495-31.8729 11.885-52.626 19.315-60.7825 31.2 11.1149 8.915 46.6944 28.97 46.6944 120.345v271.14s49.6576 14.855 114.885 14.855c68.9291 0 115.6484-14.855 115.6484-14.855v-271.14c0-91.375 35.5795-111.43 46.6994-120.345-8.1566-11.885-28.9096-19.315-60.7825-31.2-28.3599-10.5767-44.9818-22.9194-52.478-25.5106-.9273-.3184 4.1773 39.1556-48.703 39.1556z" fill="#F1C72A"/><path d="M470.1288 203.2016c-4.445 13.375-45.2077 40.86-85.2322 37.885a426.405 426.405 0 00-2.8354-7.5199c20.7951-1.3576 37.9933-5.6366 51.5945-12.837 13.4282-7.109 24.6968-15.5848 33.8057-25.4277.936 2.6666 1.8273 5.303 2.6674 7.8996zM31.6547 195.302c9.1031 9.8275 20.3606 18.2914 33.7724 25.3916 13.611 7.2056 30.824 11.4856 51.6393 12.84a426.4198 426.4198 0 00-2.8342 7.5169c-40.0245 2.975-80.7873-24.51-85.2322-37.885.8363-2.5849 1.7234-5.2092 2.6547-7.8635zM307.8516 23.345c-5.772-3.24-9.728-5.345-12.0078-5.345 0 0 5.8817 32.495-46.3352 32.495-48.5202 0-46.3352-32.495-46.3352-32.495-2.2798 0-6.2358 2.105-12.0028 5.345 0 0 7.3683 40.38 58.4029 40.38 51.4785 0 58.2781-35.895 58.2781-40.38z" fill="#0E5B29"/><path d="M413.5843 238.3227c-9.2877 2.2382-19.0646 3.3161-28.7978 2.5926-8.1978-22.369-15.5572-36.883-20.0128-44.7484v270.5774s-21.1022 6.7098-55.8664 11.1104c-.1817-.0197-.363-.0396-.544-.0597 1.8808-54.795 5.7221-166.47 8.2763-240.705 2.0554-59.755 31.0847-95.29 60.099-117.44-2.6753 6.7806-5.0714 14.6063-6.9991 23.6673 7.354 11.8514 24.4358 42.0687 43.8307 94.964.005.014.0097.0277.014.0414zM190.7166 477.7953c-34.2478-4.4014-56.4763-11.051-56.4763-11.051V196.1721c-4.4558 7.8668-11.8138 22.3792-20.0097 44.7432-9.633.716-19.3087-.3323-28.5106-2.5238a1.113 1.113 0 01.0199-.0967c19.3773-52.8475 36.3054-83.0661 43.6098-94.9437-1.929-9.0753-4.3277-16.912-7.0064-23.7011 29.0144 22.15 58.0437 57.685 60.099 117.44 2.5543 74.235 6.3956 185.91 8.2763 240.7053h-.002z" fill-opacity=".06" fill="#000"/><path d="M309.0024 164c-.0016-.8873-.5079-1.5093-1.5188-1.866-.404-.0717-.912-.1147-1.7984-.154l-2.5689-.0982-.7309-.0348c-1.5035-.0786-2.5202-.1813-3.7117-.3794l-.6267-.1108c-4.4978-.8521-7.7855-2.8228-9.645-6.5155-2.8283-6.3953-2.4889-15.563.9287-27.5328l.4703-1.6186 1.0705.106c3.1132.308 6.001.1107 8.6697-.5875 1.1312-.296 1.955-.7184 3.0084-1.4756l1.2908-.9612c1.7165-1.2399 3.0698-1.7716 5.162-1.7716l.4033.008c1.8909.0764 3.1466.5996 4.7503 1.7574l.5817.4331c.1774.1338.3715.2803.449.3379l.2685.1964c1.0534.7572 1.8772 1.1796 3.0084 1.4756 2.6686.6982 5.5565.8955 8.6697.5874l1.0705-.1059.4703 1.6186c3.4176 11.9697 3.7566 21.1384.901 27.5913-1.8325 3.6356-5.1196 5.605-9.6173 6.457l-.5611.0998c-1.4043.2363-2.552.3399-4.5082.4252l-2.339.0885c-.8516.0346-1.3753.0703-1.7825.1257-1.178.382-1.7662 1.0167-1.7646 1.904z" fill="#D3AD1D" fill-rule="nonzero"/><path d="M289.317 154.4814c-2.7653-6.2537-2.3742-15.4622 1.1734-27.6254 3.307.3273 6.391.1165 9.252-.6321C304.034 125.1009 304.6294 122 309 122l.3556.007c4.051.1637 4.7296 3.125 8.902 4.2169 2.861.7486 5.945.9594 9.252.632 3.5476 12.1633 3.9387 21.3718 1.1734 27.6255-4.6232 9.1734-19.3838 4.9096-19.6785 7.4398L309 162c0-2.6965-15.0131 1.7474-19.683-7.5186z" fill="#FCC251"/><path d="M317.9954 143.7983c.1663 0 .1714 1.3138 0 3.0277-.1634 1.6334-.4326 3.5562-.4937 4.5337-.014.2224-1.1721.2973-1.2914.6403h1.344c.3753-.1009.6614-2.1155 1.0235-4.4338.291-1.8635.829-3.7515.9634-3.7679.2574-.0313.5502-.0801.8685-.1409.101-.0193.4536.9213.4536 2.4673v5.0306c0 .3368-1.322.3941-1.3718.8447h1.8348c.2673 0 .5518-3.5113.607-4.8734.0754-1.8651-.0815-3.7105.0754-3.7465 1.9995-.4584 4.5716-1.124 5.4913-.897-1.2495-4.0867-5.5754-5.9293-8.2878-5.9293-2.7123 0-2.7563 1.2894-3.225.7289-.4688-.5606 1.567-3.8088.4687-6.3141-.2028-.4627-.9746-.9686-1.8535-.9686-.1948 0-.4694.4045-.6814.5556-.212.1512-.325.463 0 .413.6543-.1008 1.368-.205 1.6341.377.266.5818 0 1.8502-.7611 3.3186-.7612 1.4684-1.294 2.3806-1.294 3.845 0 1.4644 1.783 5.2891 4.4954 5.2891z" fill="#7B7B7B"/><path d="M295.1305 147.0598c-1.246 2.3569-2.0563 4.0632-4.7845 4.0632-2.7281 0 1.7533 2.1006 4.7845-.7947 4.3175-3.993 1.5974-.9973 1.5974.562s5.2818 1.3318 5.2818.2041c0-1.1277-3.5404.2245-2.8027-1.5682.9642-2.2844 2.8432-2.9388 2.8432-3.8354 0-.8967-1.705-2.6713-.7017-4.3048 1.0032-1.6335 2.1688 2.0235 2.1856 0 .0168-2.0234-1.4839-1.419-1.4839-3.0744 0-1.965.6612-2.7757 1.4839-2.7757.9352 0 .9659-.2996.9659-.5314 0-.6567-.842-.4782-1.6003-1.063-.7762-.5987-.6868-.7632-1.2461-1.1407-.4196-.283-1.1443-.526-1.4017-.8961-.4828-.6938-1.921-2.7733-1.921-1.501 0 1.2724 1.117 1.2724 1.117 1.9242 0 .4097-.572 1.1395-.572 2.238 0 2.2395 0 3.2853-1.5677 5.934-1.5677 2.6487-1.533 5.3405-2.1777 6.56z" fill="#8D6811"/><path fill="#484848" d="M291.5 152h36v1h-36z"/><path fill="#8B9F2C" d="M296.5 153h26v3h-26z"/><path d="M302.65 146.507l.4285-8.5714H314.22l.4286 8.5714c.0423.8355-1.8552 1.9419-5.6924 3.3193l-.307.1093-.6058-.2175c-3.6369-1.3272-5.4347-2.3976-5.3935-3.211z" fill="#F6F6F6"/><path fill="#FFE682" fill-rule="nonzero" d="M309.6695 131.5358l.6968 2.2642-1.8465-1.386-1.8475 1.386.6977-2.2642-1.9881-1.4259 2.4272.0047.7107-2.3146.7105 2.3146 2.4245-.0047z"/></g></svg>