<?xml version="1.0" encoding="UTF-8"?><svg height="500" viewBox="0 0 500 500" width="500" xmlns="http://www.w3.org/2000/svg"><g fill="none" fill-rule="evenodd"><path d="M0 0h500v500H0z"/><path d="M203.086 109.195h93.643V21.9h-93.643z" fill="#698fb6"/><g fill="#7ca6d1"><path d="M87.548 75.26S46.785 148.06 29 203.03c4.445 13.375 45.208 40.86 85.232 37.885 13.34-36.4 24.46-52 24.46-52S141.655 93.83 87.548 75.26M411.473 75.26s40.763 72.8 58.548 127.77c-4.445 13.375-45.208 40.86-85.232 37.885-13.34-36.4-24.46-52-24.46-52S357.366 93.83 411.473 75.26"/><path d="M249.514 57.706c-50.082 0-47.799-39.47-48.743-39.14-7.516 2.618-24.133 14.936-52.439 25.495-31.872 11.885-52.625 19.315-60.782 31.2 11.115 8.915 46.694 28.97 46.694 120.345v271.14S183.902 481.6 249.13 481.6c68.93 0 115.649-14.855 115.649-14.855v-271.14c0-91.375 35.58-111.43 46.7-120.345-8.157-11.885-28.91-19.315-60.783-31.2-28.36-10.577-44.982-22.92-52.478-25.511-.928-.318 4.177 39.156-48.703 39.156z"/></g><path d="M203 32h94V18h-94z" fill="#749cc4"/><path d="M309 23.377c-5.837-3.26-9.838-5.377-12.144-5.377 0 0 5.949 32.69-46.859 32.69C200.93 50.69 203.14 18 203.14 18c-2.306 0-6.307 2.118-12.139 5.377 0 0 7.452 40.623 59.063 40.623C302.123 64 309 27.89 309 23.377z" fill="#7ca6d1"/><g><path d="M309 165c-12.15 0-22-9.85-22-22s9.85-22 22-22 22 9.85 22 22-9.85 22-22 22zm0-10c6.627 0 12-5.373 12-12s-5.373-12-12-12-12 5.373-12 12 5.373 12 12 12z" fill="#00235e"/><path d="M309 163c-11.046 0-20-8.954-20-20s8.954-20 20-20 20 8.954 20 20-8.954 20-20 20zm0-6c7.732 0 14-6.268 14-14s-6.268-14-14-14-14 6.268-14 14 6.268 14 14 14z" fill="#fff"/><path d="M298.378 133.486l.087-.743.745-.07c4.277-.397 7.505-.596 9.696-.596 2.15 0 5.377.199 9.695.597l.747.068.085.746c1.378 12.047-2.05 20.116-10.026 23.981l-.407.197-.405-.2c-8.294-4.1-11.596-12.168-10.217-23.98z" fill="#00235e" fill-rule="nonzero"/><path d="M299.295 133.593c4.251-.395 7.455-.593 9.61-.593 2.116 0 5.32.198 9.611.593 1.337 11.691-1.835 19.373-9.516 23.046-7.807-3.91-11.042-11.592-9.705-23.046z" fill="#ffc857"/></g><path d="M413.584 238.323c-9.287 2.238-19.064 3.316-28.798 2.592-8.197-22.369-15.557-36.883-20.012-44.748v270.577s-21.102 6.71-55.867 11.11l-.544-.059c1.881-54.795 5.722-166.47 8.277-240.705 2.055-59.755 31.084-95.29 60.099-117.44-2.676 6.78-5.072 14.606-7 23.667 7.354 11.852 24.436 42.069 43.831 94.964l.014.042zM190.717 477.795c-34.248-4.401-56.477-11.05-56.477-11.05V196.171c-4.456 7.867-11.813 22.38-20.01 44.743-9.632.716-19.308-.332-28.51-2.523.005-.033.012-.065.02-.097 19.377-52.848 36.305-83.066 43.61-94.944-1.93-9.075-4.328-16.912-7.007-23.701 29.015 22.15 58.044 57.685 60.1 117.44 2.554 74.235 6.395 185.91 8.276 240.705z" fill="#000" fill-opacity=".06"/></g></svg>