<?xml version="1.0" encoding="UTF-8"?><svg height="500" viewBox="0 0 500 500" width="500" xmlns="http://www.w3.org/2000/svg"><g fill="none" fill-rule="evenodd"><path d="M0 0h500v500H0z"/><path d="M203.006 108.993h93.643V21.885h-93.643z" fill="#d9d9d9"/><path d="M202.867 32.17h93.458V18h-93.458z" fill="#e3e3e3"/><g fill="#0759af"><path d="M87.55 75.26s-40.762 72.8-58.547 127.771c4.445 13.375 45.208 40.86 85.232 37.886 13.34-36.4 24.46-52 24.46-52S141.658 93.83 87.55 75.26M411.476 75.26s40.762 72.8 58.547 127.771c-4.445 13.375-45.208 40.86-85.232 37.886-13.34-36.4-24.46-52-24.46-52S357.368 93.83 411.476 75.26"/><path d="M249.514 57.706c-50.082 0-47.799-39.47-48.743-39.14-7.516 2.618-24.133 14.936-52.439 25.495-31.872 11.885-52.625 19.315-60.782 31.2 11.115 8.915 46.694 28.97 46.694 120.344v271.14S183.902 481.6 249.13 481.6c68.93 0 115.649-14.855 115.649-14.855v-271.14c0-91.374 35.58-111.43 46.7-120.344-8.157-11.885-28.91-19.315-60.783-31.2-28.36-10.577-44.982-22.92-52.478-25.511-.928-.318 4.177 39.156-48.703 39.156z"/></g><path d="M293.733 37.26c45.26 11.336 71.506 39.337 71.506 67.982v72.909c-.301 5.5-.46 11.3-.46 17.421v271.14s-46.72 14.855-115.649 14.855c-65.227 0-114.885-14.855-114.885-14.855v-271.14c0-6.261-.167-12.188-.482-17.799v-72.531c0-28.836 26.598-57.02 72.417-68.202 5.595 10.126 17.495 20.632 43.334 20.632 27.082 0 38.955-10.352 44.22-20.411z" fill="#f2f2f2"/><path d="M167.71 474.227a409.424 409.424 0 0 1-15.71-3.294V65.3c9.572-9.582 22.723-17.816 39-23.7v436.2a469.028 469.028 0 0 1-23.29-3.573zM270 55.168v425.946a480.75 480.75 0 0 1-20.87.454c-6.545 0-12.933-.15-19.13-.42V55.184c5.411 1.565 11.85 2.49 19.514 2.49 8.118 0 14.87-.93 20.486-2.505zm78 11.148v404.731c-9.507 2.144-22.76 4.706-39 6.765V41.962c16.385 6.069 29.543 14.537 39 24.354z" fill="#0759af"/><path d="M270.004 55.167v425.947c-6.696.29-13.663.454-20.874.454-6.545 0-12.933-.15-19.13-.42l-.002-425.965c5.412 1.565 11.85 2.49 19.516 2.49 8.12 0 14.873-.931 20.49-2.506zm77.998 11.151l.003 404.728c-9.507 2.144-22.76 4.706-39.003 6.765L309 41.963c16.386 6.068 29.545 14.537 39.002 24.355zM191 41.6L191 477.799a469.047 469.047 0 0 1-23.255-3.566 408.865 408.865 0 0 1-15.748-3.3l.002-405.632C161.571 55.72 174.723 47.484 191 41.6z" fill="#0759af"/><path d="M307.855 23.356c-5.05-2.83-8.71-4.79-11.074-5.237-.338-.064.27 6.538-3.246 13.805-4.255 8.799-15.427 18.524-44.023 18.524-26.367 0-37.76-9.575-42.668-18.32-4.123-7.346-4.61-14.028-5.175-13.878-2.366.625-5.84 2.496-10.495 5.106 0 0 7.368 40.293 58.402 40.293 51.479 0 58.279-35.818 58.279-40.293z" fill="#f2f2f2"/><circle cx="309" cy="143" fill="#f2f2f2" r="24"/><path d="M318.294 113.512c1.302 1.925 1 4.38-.446 5.884-.612.637-1.835 1.74-1.908 1.82-.171.186-.238.321-.32.71l-.322 1.513-1.502-.367c-1.15-.28-2.766-.45-4.76-.499-2.066.049-3.676.218-4.814.498l-1.504.371-.322-1.516c-.082-.389-.15-.524-.321-.71-.072-.08-1.295-1.183-1.908-1.82-1.446-1.503-1.751-3.957-.455-5.882 1.456-2.163 4.588-3.336 9.288-3.336s7.833 1.173 9.294 3.334z" fill="#f2f2f2" fill-rule="nonzero"/><circle cx="309" cy="143" fill="#ab873d" r="22"/><circle cx="309" cy="143" fill="#f2f2f2" r="20"/><circle cx="309" cy="143" fill="#ab873d" r="15"/><circle cx="309" cy="143" fill="#f2f2f2" r="13"/><path d="M309 111.678c9.41 0 9.473 4.905 7.767 6.678-1.706 1.774-2.3 1.774-2.615 3.259-1.27-.31-2.987-.49-5.152-.541-2.165.05-3.877.23-5.137.541-.315-1.485-.909-1.485-2.615-3.259-1.705-1.773-1.657-6.678 7.752-6.678z" fill="#c76146"/><path d="M305.002 130.617L338 143l-32.998 12.379c-3.291-.792-9.06-4.8-9.06-12.381s6.007-11.608 9.06-12.38z" fill="#ab873d"/><path d="M303.024 131.998L335.97 143l-32.947 10.998c-2.975-.704-7.024-4.265-7.024-11s4.265-10.313 7.024-11z" fill="#fff"/><path d="M303 132.004l.024-.006 5.976 1.996V140h17.988l8.983 3-8.988 3H309v6.003l-5.976 1.995a5.554 5.554 0 0 1-.024-.006V146h-6.708a14.98 14.98 0 0 1-.292-3.002c0-1.08.11-2.08.305-2.998H303z" fill="#801674"/><path d="M413.584 238.323c-9.287 2.238-19.064 3.316-28.798 2.592-8.197-22.369-15.557-36.883-20.012-44.748v270.577s-21.102 6.71-55.867 11.11l-.544-.059c1.881-54.795 5.722-166.47 8.277-240.705 2.055-59.755 31.084-95.29 60.099-117.44-2.676 6.78-5.072 14.606-7 23.667 7.354 11.852 24.436 42.069 43.831 94.964l.014.042zM190.717 477.795c-34.248-4.401-56.477-11.05-56.477-11.05V196.171c-4.456 7.867-11.813 22.38-20.01 44.743-9.632.716-19.308-.332-28.51-2.523.005-.033.012-.065.02-.097 19.377-52.848 36.305-83.066 43.61-94.944-1.93-9.075-4.328-16.912-7.007-23.701 29.015 22.15 58.044 57.685 60.1 117.44 2.554 74.235 6.395 185.91 8.276 240.705z" fill="#000" fill-opacity=".1"/></g></svg>