<?xml version="1.0" encoding="UTF-8"?><svg height="500" viewBox="0 0 500 500" width="500" xmlns="http://www.w3.org/2000/svg"><g fill="none" fill-rule="evenodd"><path d="M0 0h500v500H0z"/><path d="M203.086 109.195h93.643V21.9h-93.643z" fill="#d9d9d9"/><path d="M202.946 32.2h93.459V18h-93.459z" fill="#980d14"/><path d="M87.548 75.26S46.785 148.06 29 203.03c4.445 13.375 45.208 40.86 85.232 37.885 13.34-36.4 24.46-52 24.46-52S141.655 93.83 87.548 75.26M411.473 75.26s40.763 72.8 58.548 127.77c-4.445 13.375-45.208 40.86-85.232 37.885-13.34-36.4-24.46-52-24.46-52S357.366 93.83 411.473 75.26" fill="#f2f2f2"/><path d="M249.514 57.706c-50.082 0-47.799-39.47-48.743-39.14-7.516 2.618-24.133 14.936-52.439 25.495-31.872 11.885-52.625 19.315-60.782 31.2 11.115 8.915 46.694 28.97 46.694 120.345v271.14S183.902 481.6 249.13 481.6c68.93 0 115.649-14.855 115.649-14.855v-271.14c0-91.375 35.58-111.43 46.7-120.345-8.157-11.885-28.91-19.315-60.783-31.2-28.36-10.577-44.982-22.92-52.478-25.511-.928-.318 4.177 39.156-48.703 39.156z" fill="#f2f2f2"/><g fill="#b21119"><path d="M364.783 196.15v270.564s-2.615.832-7.52 2.102V198.029c1.66-.659 3.102-1.134 4.324-1.427.79-.19 1.855-.34 3.196-.451zM141.75 468.72c-4.86-1.215-7.5-2.004-7.5-2.004V196.153c1.332.111 2.39.26 3.175.449 1.222.293 2.664.768 4.325 1.427zM467.461 195.302a338.826 338.826 0 0 1 2.668 7.9c-4.445 13.375-45.208 40.86-85.232 37.885a426.405 426.405 0 0 0-2.836-7.52c20.795-1.358 37.993-5.637 51.595-12.837 13.428-7.11 24.696-15.585 33.805-25.428zM31.655 195.302c9.103 9.828 20.36 18.291 33.772 25.392 13.611 7.205 30.824 11.485 51.64 12.84a426.42 426.42 0 0 0-2.835 7.516C74.208 244.025 33.445 216.54 29 203.165c.836-2.584 1.723-5.209 2.655-7.863zM249.656 63.754c51.479 0 58.278-35.895 58.278-40.38-5.772-3.24-9.728-5.345-12.007-5.345 0 0 5.881 32.495-46.336 32.495-48.52 0-46.335-32.495-46.335-32.495-2.28 0-6.236 2.105-12.003 5.345 0 0 7.369 40.38 58.403 40.38"/></g><g><path d="M323.333 122.665l3.145-2.165-.011 3.814c-.059 20.456-5.501 33.782-16.547 39.682l-.942.504-.943-.504c-11.046-5.9-16.488-19.225-16.547-39.682l-.01-3.814 3.144 2.165a11.607 11.607 0 0 0 6.61 2.051c2.397 0 4.68-.722 6.61-2.051l1.136-.781 1.134.781a11.607 11.607 0 0 0 6.611 2.051c2.397 0 4.68-.722 6.61-2.05z" fill="#c89200" fill-rule="nonzero"/><path d="M324.5 124.5c-.057 19.836-5.223 32.503-15.5 38-10.277-5.497-15.443-18.163-15.5-38a13.603 13.603 0 0 0 7.75 2.408c2.877 0 5.547-.889 7.75-2.408a13.605 13.605 0 0 0 7.75 2.408c2.877 0 5.547-.889 7.75-2.408z" fill="#d8061b"/><path d="M323.894 135.201c-1.64 13.765-6.604 22.865-14.894 27.299-8.302-4.44-13.27-13.56-14.902-27.36z" fill="#fff"/><path d="M307.5 135.167l3 .006v26.45c-.487.31-.987.603-1.5.877a23.052 23.052 0 0 1-1.5-.876zm-6-.012l3 .006v24.186a24.297 24.297 0 0 1-3-3.24zm12 .024l3 .006v20.921a24.3 24.3 0 0 1-3 3.24zm-18-.036l3 .006v16.129c-1.225-2.462-2.225-5.24-3-8.333zm24 .048l3 .006v7.747c-.774 3.093-1.774 5.87-3 8.332z" fill="#d8061b"/></g><path d="M413.584 238.323c-9.287 2.238-19.064 3.316-28.798 2.592-8.197-22.369-15.557-36.883-20.012-44.748v270.577s-21.102 6.71-55.867 11.11l-.544-.059c1.881-54.795 5.722-166.47 8.277-240.705 2.055-59.755 31.084-95.29 60.099-117.44-2.676 6.78-5.072 14.606-7 23.667 7.354 11.852 24.436 42.069 43.831 94.964l.014.042zM190.717 477.795c-34.248-4.401-56.477-11.05-56.477-11.05V196.171c-4.456 7.867-11.813 22.38-20.01 44.743-9.632.716-19.308-.332-28.51-2.523.005-.033.012-.065.02-.097 19.377-52.848 36.305-83.066 43.61-94.944-1.93-9.075-4.328-16.912-7.007-23.701 29.015 22.15 58.044 57.685 60.1 117.44 2.554 74.235 6.395 185.91 8.276 240.705z" fill="#000" fill-opacity=".06"/></g></svg>