<svg xmlns="http://www.w3.org/2000/svg" width="501" height="501" fill="none"><path fill="#D9D9D9" fill-rule="evenodd" d="M203.72 110.17h93.64V22.88H203.7v87.3Z" clip-rule="evenodd"/><path fill="#E0E0E0" fill-rule="evenodd" d="M203.57 33.18h93.46v-14.2h-93.46v14.2Z" clip-rule="evenodd"/><path fill="#A23043" fill-rule="evenodd" d="M88.26 76.21S47.5 149.01 29.7 203.98c4.45 13.38 45.2 40.86 85.23 37.89 13.34-36.4 24.46-52 24.46-52s2.97-95.09-51.14-113.66Zm323.92 0s40.77 72.8 58.55 127.77c-4.44 13.38-45.2 40.86-85.23 37.89-13.34-36.4-24.46-52-24.46-52s-2.97-95.09 51.14-113.66Z" clip-rule="evenodd"/><path fill="#A23043" fill-rule="evenodd" d="M250.22 58.65c-50.08 0-47.8-39.46-48.74-39.14-7.52 2.62-24.13 14.94-52.44 25.5-31.87 11.88-52.63 19.31-60.78 31.2 11.11 8.91 46.7 28.97 46.7 120.35v271.13s49.65 14.86 114.88 14.86c68.93 0 115.65-14.86 115.65-14.86V196.56c0-91.38 35.57-111.44 46.7-120.35-8.16-11.89-28.92-19.32-60.79-31.2-28.36-10.58-44.98-22.92-52.48-25.5-.92-.33 4.18 39.14-48.7 39.14Z" clip-rule="evenodd"/><path fill="#F2F2F2" fill-rule="evenodd" d="M269.71 56.42v425.72c-6.39.26-13.02.4-19.87.4-6.2 0-12.25-.12-18.13-.37V56.44a71.36 71.36 0 0 0 18.51 2.21c7.65 0 14.08-.82 19.5-2.23Zm40 422.37V25l3.3 1.86a270.17 270.17 0 0 0 34.7 16.75v428.65l-1.8.4c-9.25 2-21.5 4.28-36.2 6.14Zm-118-454.34v454.33l-2-.26a454.19 454.19 0 0 1-36-6.21V43.21c17.06-6.77 29.5-13.99 38-18.76Z" clip-rule="evenodd"/><path fill="#31724F" fill-rule="evenodd" d="M265.71 57.32v424.97a480.68 480.68 0 0 1-30 .03V57.36a76 76 0 0 0 14.51 1.3 83.1 83.1 0 0 0 15.5-1.34Zm48 420.95V27.25l1.66.92c7.32 4.07 16.7 9 28.34 13.82v431.13l-1.48.3c-7.8 1.62-17.4 3.34-28.52 4.85Zm-126-451.57v451.55l-2.17-.3a456.48 456.48 0 0 1-27.83-4.8V41.58l1.75-.74A283.76 283.76 0 0 0 187.7 26.7Z" clip-rule="evenodd"/><path fill="#A23043" fill-rule="evenodd" d="M75.98 117.85C86.11 97.1 93.92 82.61 93.92 82.61c7.89-11.89 27.94-19.32 58.75-31.2 19.14-7.39 32.8-15.61 41.78-20.78l-2.15-6.84c-9.25 5.16-23.3 13.34-43.02 20.7-31.87 11.88-52.62 19.3-60.77 31.2 0 0-8.23 14.75-18.86 35.82 0 0-28.7 57.33-39.7 92.07 0 0 .46 1.6 2.13 4.06 1.67 2.47 2.8 3.4 2.8 3.4 12.58-35.53 41.1-93.19 41.1-93.19Zm348.94.03C414.8 97.13 406.96 82.6 406.96 82.6c-7.88-11.89-27.93-19.32-58.74-31.2-19.04-7.35-32.37-15.47-41.15-20.6l1.66-6.92c9.23 5.15 23.22 13.26 42.88 20.6 31.87 11.88 52.62 19.3 60.77 31.2 0 0 8.23 14.75 18.86 35.82 0 0 27.58 54.46 39.74 92.07 0 0-.74 1.98-1.46 3.1a55.68 55.68 0 0 1-2.39 3.18c-27.64-65.99-42.2-91.98-42.2-91.98Z" clip-rule="evenodd"/><path fill="#F2F2F2" fill-rule="evenodd" d="M308.56 24.3c-5.77-3.24-9.73-5.35-12-5.35 0 0 5.88 32.5-46.34 32.5-48.52 0-46.34-32.5-46.34-32.5-2.28 0-6.23 2.1-12 5.35 0 0 7.37 40.38 58.4 40.38 51.48 0 58.28-35.9 58.28-40.38Z" clip-rule="evenodd"/><path fill="#000" fill-opacity=".1" fill-rule="evenodd" d="M414.3 239.28a93.8 93.8 0 0 1-28.8 2.59c-8.2-22.37-15.56-36.88-20.01-44.75V467.7s-21.1 6.7-55.87 11.1l-.55-.05 8.28-240.7c2.06-59.76 31.09-95.3 60.1-117.45a148.66 148.66 0 0 0-7 23.67c7.36 11.85 24.44 42.07 43.83 94.96a1 1 0 0 1 .02.05ZM191.43 478.75c-34.25-4.4-56.48-11.05-56.48-11.05V197.13c-4.45 7.86-11.81 22.37-20 44.74a93.89 93.89 0 0 1-28.52-2.53l.02-.1c19.38-52.84 36.3-83.06 43.61-94.94a148.6 148.6 0 0 0-7-23.7c29 22.15 58.04 57.69 60.1 117.44l8.27 240.7Z" clip-rule="evenodd"/><path fill="#FFC351" d="M309.71 165.95c-8.05-6.57-20.23-18.11-20-39.68 14.06 0 20-4.32 20-4.32s5.95 4.32 20 4.32c0 21.57-11.94 33.11-20 39.68Z"/><path fill="#31724F" fill-rule="evenodd" d="m391.66 88.98 58.55 135.05a122.5 122.5 0 0 1-27.17 12.76l-50.66-116.87c4.46-11.59 10.66-22.54 19.28-30.94Z" clip-rule="evenodd"/><path fill="#F2F2F2" fill-rule="evenodd" d="m394.8 86.14 58.8 135.65c-1.1.75-2.22 1.5-3.39 2.24L391.66 88.98a56.04 56.04 0 0 1 3.13-2.84Zm24.4 151.83-48.8-112.55c.62-1.84 1.28-3.68 1.98-5.5l50.66 116.87c-1.27.41-2.55.8-3.84 1.18Z" clip-rule="evenodd"/><path fill="#31724F" fill-rule="evenodd" d="M51 224.51a122.71 122.71 0 0 0 27.26 12.56l50.26-115.94c-4.38-11.73-10.5-22.87-19.06-31.47L51 224.5Z" clip-rule="evenodd"/><path fill="#F2F2F2" fill-rule="evenodd" d="M47.6 222.3c1.1.75 2.23 1.48 3.4 2.21l58.47-134.85c-1-1-2.04-1.98-3.1-2.91L47.6 222.31Zm82.86-95.6c-.6-1.86-1.25-3.73-1.94-5.57L78.26 237.07c1.27.4 2.56.79 3.86 1.15l48.34-111.52Z" clip-rule="evenodd"/><path fill="#CA3B2F" d="M303.71 158.45a42.77 42.77 0 0 1-9.29-14.5 43.58 43.58 0 0 1-2.7-16.07c5.17 0 9.13-.66 12-1.44v32Z"/><path fill="#F2F2F2" d="M303.71 158.45v-32c4.14-1.13 6-2.5 6-2.5s1.87 1.37 6 2.5v31.97c-2.07 2.19-4.14 4-6 5.53l-.04-.04-.52-.43-.05-.04a64.81 64.81 0 0 1-5.39-5Z"/><path fill="#3D8F4E" d="M315.71 158.42v-31.98c2.87.78 6.82 1.44 12 1.44 0 14.6-5.96 24.15-12 30.54Z"/><path fill="#FFC351" d="m309.58 131.95 2.22 6.83h7.2l-5.81 4.23 2.21 6.83-5.8-4.22-5.82 4.22L306 143l-5.8-4.23h7.18l2.21-6.83Z"/></svg>