<?xml version="1.0" encoding="UTF-8"?><svg height="500" viewBox="0 0 500 500" width="500" xmlns="http://www.w3.org/2000/svg"><g fill="none" fill-rule="evenodd"><path d="M0 0h500v500H0z"/><path d="M203.003 109.223h93.643V21.928h-93.643z" fill="#0a489c"/><path d="M202.864 32.228h93.458v-14.2h-93.458z" fill="#e3e3e3"/><path d="M87.548 75.258S46.785 148.058 29 203.029c4.445 13.376 45.208 40.86 85.232 37.886 13.34-36.4 24.46-52 24.46-52s2.963-95.085-51.144-113.655" fill="#d02b24"/><path d="M411.473 75.258s40.762 72.8 58.547 127.77c-4.445 13.376-45.208 40.86-85.232 37.886-13.34-36.4-24.46-52-24.46-52s-2.963-95.085 51.145-113.655" fill="#0c51ae"/><path d="M249.511 57.703l-.384 423.894c68.929 0 115.648-14.855 115.648-14.855v-271.14c0-91.375 35.58-111.43 46.7-120.345-8.157-11.885-28.91-19.315-60.783-31.2-28.36-10.576-44.982-22.919-52.478-25.512-.927-.316 4.177 39.157-48.703 39.157z" fill="#0c51ae"/><path d="M200.769 18.56c.944-.327-1.34 39.142 48.742 39.142h.493L250 481.597h-.873c-64.575 0-113.89-14.56-114.87-14.851l-.015-.004v-271.14c0-91.375-35.58-111.43-46.694-120.345 8.156-11.885 28.91-19.315 60.782-31.2 28.306-10.559 44.923-22.877 52.439-25.498z" fill="#d02b24"/><g fill="#f2f2f2"><path d="M202.215 24.577l1.749 3.198c-9.027 4.858-24.145 14.369-46.657 22.766-31.873 11.885-52.626 19.315-60.78 31.201-.003 0-11.08 19.783-24.205 46.512a52.893 52.893 0 0 1-3.11-2.238c13.177-26.854 24.322-46.757 24.322-46.757h.002c8.155-11.886 28.908-19.316 60.78-31.201 19.604-7.313 33.602-15.47 42.852-20.663-.008-.033-.01-.05-.01-.05a189.648 189.648 0 0 1 5.057-2.768z"/><path d="M192.451 26.846c-9.233 5.204-22.705 12.822-41.13 19.695-31.874 11.885-52.627 19.315-60.781 31.201-.002 0-11.08 19.783-24.205 46.512a52.82 52.82 0 0 1-3.11-2.238c13.178-26.854 24.323-46.758 24.323-46.758 8.156-11.885 28.91-19.315 60.782-31.2 19.604-7.313 33.601-15.47 42.851-20.663l-.01-.05zM299.093 25.807c.87.478 1.79.992 2.763 1.538l-.01.05c9.25 5.194 23.247 13.35 42.85 20.662 31.874 11.885 52.627 19.315 60.781 31.202h.002s11.145 19.903 24.323 46.757a52.819 52.819 0 0 1-3.11 2.238c-13.125-26.729-24.203-46.512-24.203-46.512h-.002c-8.155-11.886-28.908-19.316-60.78-31.201-20.712-7.726-35.165-16.394-44.374-21.514z"/><path d="M307.843 23.345l-.011.05c9.25 5.194 23.247 13.35 42.851 20.662 31.873 11.885 52.626 19.315 60.78 31.202.003 0 11.147 19.903 24.325 46.757a52.819 52.819 0 0 1-3.11 2.238c-13.125-26.729-24.203-46.512-24.203-46.512-8.156-11.886-28.91-19.316-60.782-31.201-18.267-6.814-31.666-14.36-40.892-19.56z"/><path d="M307.852 23.345C302.08 20.105 298.124 18 295.844 18c0 0 5.881 32.495-46.335 32.495-48.52 0-46.336-32.495-46.336-32.495-2.28 0-6.235 2.105-12.002 5.345 0 0 7.368 40.38 58.402 40.38 51.479 0 58.279-35.895 58.279-40.38z"/></g><path d="M413.584 238.323c-9.287 2.238-19.064 3.316-28.798 2.592-8.197-22.369-15.557-36.883-20.012-44.748v270.577s-21.102 6.71-55.867 11.11l-.544-.059c1.881-54.795 5.722-166.47 8.277-240.705 2.055-59.755 31.084-95.29 60.099-117.44-2.676 6.78-5.072 14.606-7 23.667 7.354 11.852 24.436 42.069 43.831 94.964l.014.042zM190.717 477.795c-34.248-4.401-56.477-11.05-56.477-11.05V196.171c-4.456 7.867-11.813 22.38-20.01 44.743-9.632.716-19.308-.332-28.51-2.523.005-.033.012-.065.02-.097 19.377-52.848 36.305-83.066 43.61-94.944-1.93-9.075-4.328-16.912-7.007-23.701 29.015 22.15 58.044 57.685 60.1 117.44 2.554 74.235 6.395 185.91 8.276 240.705z" fill="#000" fill-opacity=".1"/><path d="M295.691 129c4.437 1.451 8.873 2.176 13.309 2.176s8.872-.725 13.309-2.176c2.535 14.51-1.902 26.843-13.309 37-11.407-10.157-15.844-22.49-13.309-37z" fill="#fcc500"/><path d="M297.333 131.455c3.975.99 7.865 1.486 11.667 1.486s7.71-.495 11.724-1.486c1.517 12.43-2.39 23.279-11.724 32.545-9.333-9.301-13.222-20.15-11.667-32.545z" fill="#e50022"/><path d="M309 132.941c3.802 0 7.71-.495 11.724-1.486 1.517 12.43-2.39 23.279-11.724 32.545z" fill="#073987"/><g fill="#fcc500"><path d="M304 124.5l-1.763.927.336-1.963-1.426-1.391 1.971-.287L304 120l.882 1.786 1.971.287-1.426 1.39.336 1.964zM314 124.5l-1.763.927.336-1.963-1.426-1.391 1.971-.287L314 120l.882 1.786 1.971.287-1.426 1.39.336 1.964z"/></g></g></svg>