<?xml version="1.0" encoding="UTF-8"?><svg width="500" height="500" viewBox="0 0 500 500" fill="none" xmlns="http://www.w3.org/2000/svg"><path fill-rule="evenodd" clip-rule="evenodd" d="M203.003 109.223h93.644V21.928h-93.644v87.295z" fill="#C92F2F"/><path fill-rule="evenodd" clip-rule="evenodd" d="M202.864 32.2281h93.458v-14.2h-93.458v14.2z" fill="#363636"/><path fill-rule="evenodd" clip-rule="evenodd" d="M87.5475 75.2585S46.7848 148.059 29 203.029c4.4449 13.375 45.2077 40.86 85.232 37.885 13.34-36.4 24.46-52 24.46-52s2.963-95.0855-51.1445-113.6555zm323.9255 0s40.763 72.8005 58.547 127.7705c-4.445 13.375-45.207 40.86-85.232 37.885-13.34-36.4-24.46-52-24.46-52s-2.963-95.0855 51.145-113.6555z" fill="#E03535"/><path fill-rule="evenodd" clip-rule="evenodd" d="M249.511 57.7025c-50.082 0-47.798-39.4691-48.742-39.14-7.516 2.6187-24.133 14.9368-52.439 25.495-31.873 11.885-52.6258 19.315-60.7824 31.2 11.1149 8.915 46.6944 28.9695 46.6944 120.3445v271.14s49.658 14.856 114.885 14.856c68.929 0 115.648-14.856 115.648-14.856v-271.14c0-91.375 35.58-111.4295 46.7-120.3445-8.157-11.885-28.91-19.315-60.783-31.2-28.36-10.5767-44.982-22.9195-52.478-25.5087-.927-.3203 4.178 39.1537-48.703 39.1537z" fill="#E03535"/><path fill-rule="evenodd" clip-rule="evenodd" d="M294.068 36.6268c11.218-.3004 23.34-.7005 36.367-1.2006 5.949 2.8568 12.684 5.807 20.257 8.6312 15.217 5.6741 27.899 10.3328 37.886 14.9456-46.36 2.6846-92.72 4.0269-139.08 4.0269-46.352 0-92.704-1.3419-139.057-4.0256 9.988-4.6132 22.671-9.2723 37.889-14.9469 7.575-2.8255 14.313-5.7771 20.263-8.635 13.411.5145 25.862.9235 37.355 1.227 5.497 10.2537 17.366 21.053 43.563 21.053 27.677 0 39.47-10.8136 44.557-21.0756zM391.95 92.991c-5.078 6.1838-10.278 14.329-14.752 25.285a2564.3762 2564.3762 0 01-127.7 3.182c-42.559 0-85.119-1.06-127.678-3.181-4.474-10.957-9.674-19.1032-14.753-25.2873 61.575 2.9007 109.084 4.3511 142.526 4.3511 33.437 0 80.889-1.4499 142.357-4.3498zm-27.175 120.268v26.29c-38.425 1.844-76.851 2.767-115.277 2.767-38.419 0-76.837-.922-115.256-2.766v-26.294c48.556 2.223 87.006 3.334 115.351 3.334 28.332 0 66.726-1.11 115.182-3.331zm0 60.429v26.29a2404.5558 2404.5558 0 01-115.277 2.766c-38.419 0-76.837-.922-115.256-2.765v-26.295c48.556 2.223 87.006 3.335 115.351 3.335 28.332 0 66.726-1.111 115.182-3.331zm0 60.428v26.29a2403.2544 2403.2544 0 01-115.277 2.767c-38.419 0-76.837-.922-115.256-2.766v-26.294c48.556 2.223 87.006 3.334 115.351 3.334 28.332 0 66.726-1.11 115.182-3.331zm0 60.245v24.647a2564.176 2564.176 0 01-115.277 2.593c-38.419 0-76.837-.864-115.256-2.592v-24.651c48.556 2.084 87.006 3.126 115.351 3.126 28.332 0 66.726-1.041 115.182-3.123zm0 58.612v13.769s-46.719 14.855-115.648 14.855c-65.227 0-114.885-14.855-114.885-14.855V452.97c48.556 2.223 87.006 3.334 115.351 3.334 28.332 0 66.726-1.11 115.182-3.331zM133.83 179.102c-.237-4.593-.572-8.978-.996-13.164-.408-4.282-.957-8.734-1.701-13.254 50.026 2.318 89.513 3.478 118.46 3.478 28.899 0 68.268-1.156 118.106-3.466-1.446 8.113-2.355 16.918-2.727 26.415a2403.6973 2403.6973 0 01-115.474 2.776c-38.556 0-77.112-.928-115.668-2.785z" fill="#000" fill-opacity=".0502"/><path fill-rule="evenodd" clip-rule="evenodd" d="M202.215 24.5769l1.749 3.1977c-9.027 4.8589-24.145 14.369-46.657 22.7661-31.873 11.885-52.626 19.315-60.7807 31.2017-.002-.0007-11.0795 19.7836-24.2046 46.5116a52.8817 52.8817 0 01-3.11-2.238c13.1778-26.8539 24.3224-46.7574 24.3224-46.7574l.002.0007c8.1549-11.8867 28.9079-19.3167 60.7809-31.2017 19.604-7.3124 33.601-15.4689 42.851-20.6628a.8994.8994 0 01-.011-.0497c1.876-1.054 3.56-1.9878 5.058-2.7682z" fill="#3D3D3D"/><path fill-rule="evenodd" clip-rule="evenodd" d="M203.173 18s-.082 1.2286.141 3.2081c-7.716 2.9303-24.233 14.9778-51.994 25.3325-31.873 11.885-52.6257 19.315-60.7802 31.2017l-.0021-.0007S79.4602 97.5254 66.3351 124.254a53.0455 53.0455 0 01-3.11-2.238C76.403 95.1619 87.5475 75.2585 87.5475 75.2585l.002.0007c8.1546-11.8867 28.9075-19.3167 60.7805-31.2017 19.604-7.3124 33.601-15.4689 42.851-20.6627a1.6007 1.6007 0 01-.01-.0498c5.767-3.24 9.723-5.345 12.002-5.345zm95.92 7.8074c.87.4771 1.791.9912 2.763 1.5375 0 0-.003.017-.011.0498 9.251 5.1938 23.248 13.3504 42.852 20.6627 31.873 11.885 52.626 19.315 60.78 31.2017.001-.0002.002-.0005.002-.0007 0 0 11.145 19.9034 24.323 46.7566a52.7987 52.7987 0 01-3.11 2.239c-13.126-26.729-24.203-46.5125-24.203-46.5125-.001.0003-.001.0005-.002.0007-8.155-11.8867-28.908-19.3167-60.781-31.2017-20.711-7.7254-35.164-16.3931-44.373-21.5139l1.76-3.2192z" fill="#3D3D3D"/><path fill-rule="evenodd" clip-rule="evenodd" d="M295.84 18c2.28 0 6.236 2.105 12.003 5.345 0 0-.004.017-.011.0498 9.25 5.1938 23.247 13.3503 42.851 20.6627 31.873 11.885 52.626 19.315 60.781 31.2017 0-.0002.001-.0005.002-.0007 0 0 11.144 19.9034 24.322 46.7575a52.9116 52.9116 0 01-3.11 2.238c-13.125-26.7286-24.203-46.5124-24.203-46.5124 0 .0002-.001.0005-.002.0007-8.154-11.8867-28.907-19.3167-60.78-31.2017-27.76-10.3547-44.278-22.4022-51.994-25.3325.223-1.9795.141-3.2081.141-3.2081z" fill="#3D3D3D"/><path fill-rule="evenodd" clip-rule="evenodd" d="M307.852 23.345C302.08 20.105 298.124 18 295.844 18c0 0 5.882 32.495-46.335 32.495-48.521 0-46.336-32.495-46.336-32.495-2.279 0-6.235 2.105-12.002 5.345 0 0 7.368 40.38 58.403 40.38 51.478 0 58.278-35.895 58.278-40.38z" fill="#3D3D3D"/><path fill-rule="evenodd" clip-rule="evenodd" d="M290.749 164.697H285.5v-7.818h5.249c6.07 0 11.573 1.145 17.137 1.288l1.114.015c5.947 0 11.777-1.303 18.251-1.303h5.249v7.818h-5.249c-7.721 0-11.354 1.303-18.251 1.303-6.897 0-10.53-1.303-18.251-1.303zm9.112-41.394S304.431 122 309 122c4.569 0 9.139 1.303 9.139 1.303v7.818h-18.278v-7.818z" fill="#FFEB00"/><path d="M309 161.848c9.941 0 18-8.058 18-18 0-9.941-8.059-18-18-18s-18 8.059-18 18c0 9.942 8.059 18 18 18z" fill="#000"/><path fill-rule="evenodd" clip-rule="evenodd" d="M309 159.485c8.652 0 15.667-7.001 15.667-15.636 0-8.636-7.015-15.637-15.667-15.637-8.653 0-15.667 7.001-15.667 15.637 0 8.635 7.014 15.636 15.667 15.636z" fill="#fff"/><path fill-rule="evenodd" clip-rule="evenodd" d="M413.584 238.323c-9.287 2.238-19.064 3.316-28.798 2.592-8.197-22.369-15.557-36.883-20.012-44.748v270.577s-21.102 6.71-55.867 11.111l-.544-.06c1.881-54.795 5.722-166.47 8.277-240.705 2.055-59.755 31.084-95.29 60.099-117.44-2.676 6.781-5.072 14.606-7 23.667 7.354 11.852 24.436 42.069 43.831 94.964.005.014.01.028.014.042zM190.717 477.795c-34.248-4.401-56.477-11.051-56.477-11.051V196.172c-4.456 7.867-11.813 22.379-20.009 44.743-9.633.716-19.3091-.332-28.511-2.524a1.056 1.056 0 01.0199-.096c19.3771-52.848 36.3051-83.066 43.6101-94.944-1.929-9.075-4.328-16.912-7.007-23.701 29.015 22.15 58.044 57.685 60.099 117.44 2.555 74.235 6.396 185.91 8.277 240.705h-.002z" fill="#000" fill-opacity=".1"/></svg>