<svg xmlns="http://www.w3.org/2000/svg" width="501" height="501" fill="none"><g fill-rule="evenodd" clip-path="url(#a)" clip-rule="evenodd"><path fill="#074519" d="M203.5 109.82h93.64v-87.3h-93.65v87.3Z"/><path fill="#021708" d="M203.35 32.83h93.46v-14.2h-93.46v14.2Z"/><path fill="#F2F2F2" d="M88.04 75.89s-40.77 72.8-58.55 127.77c4.44 13.37 45.2 40.86 85.23 37.88 13.34-36.4 24.46-52 24.46-52s2.96-95.08-51.14-113.65Zm323.92 0s40.76 72.8 58.55 127.77c-4.45 13.37-45.2 40.86-85.23 37.88-13.34-36.4-24.46-52-24.46-52s-2.96-95.08 51.14-113.65Z"/><path fill="#F2F2F2" d="M250 58.33c-50.08 0-47.8-39.47-48.74-39.14-7.52 2.62-24.13 14.94-52.44 25.5C116.95 56.57 96.2 64 88.04 75.89c11.11 8.91 46.7 28.97 46.7 120.34v271.14s49.65 14.86 114.88 14.86c68.93 0 115.65-14.86 115.65-14.86V196.23c0-91.37 35.58-111.43 46.7-120.34-8.16-11.89-28.91-19.32-60.79-31.2-28.36-10.58-44.98-22.92-52.47-25.51-.93-.32 4.17 39.15-48.7 39.15Z"/><path fill="#0D812E" d="M294.22 37.89c45.26 11.33 71.5 39.34 71.5 67.98v72.9c-.3 5.5-.45 11.3-.45 17.43v271.14s-46.72 14.86-115.65 14.86c-65.23 0-114.89-14.86-114.89-14.86V196.2c0-6.26-.16-12.19-.48-17.8v-72.53c0-28.84 26.6-57.02 72.42-68.2 5.6 10.12 17.5 20.63 43.33 20.63 27.08 0 38.96-10.35 44.22-20.41Z"/><path fill="#F1F1F1" d="M365.84 196.52V467.1s-2.61.83-7.52 2.1V198.4c1.66-.66 3.1-1.13 4.33-1.43.79-.18 1.85-.34 3.2-.45ZM142.81 469.1c-4.86-1.21-7.5-2-7.5-2V196.53c1.33.1 2.39.26 3.17.44 1.23.3 2.67.77 4.33 1.43v270.7Zm59.32-441.7 1.73 3.22c-9 5.06-23.4 13.97-44.26 21.89-29.8 11.31-49.7 18.59-58.46 29.5a49.92 49.92 0 0 0-3.39-1.9c8.52-11.24 28.6-18.58 58.91-30.08 19.26-7.32 33-15.47 42.1-20.67l-.01-.05c1.2-.69 2.34-1.33 3.38-1.9ZM91.07 77.23c8-11.89 28.4-19.32 59.7-31.2 19.27-7.32 33.02-15.47 42.1-20.67v-.05l.02-.01 1.73 3.23c-9.08 5.2-22.47 12.98-40.9 19.98-30.4 11.54-50.5 18.88-58.98 30.17a49.1 49.1 0 0 0-3.67-1.45ZM299 27.83l2.6 1.48v.05c9.08 5.2 22.83 13.35 42.09 20.67 30.32 11.5 50.4 18.84 58.91 30.08a55.7 55.7 0 0 0-3.39 1.9c-8.75-10.91-28.66-18.19-58.46-29.5-19.87-7.54-33.87-15.98-42.94-21.15l-.4-.22 1.58-3.3Zm8.44-2.54.04.02v.05c9.08 5.2 22.83 13.35 42.09 20.67 31 11.76 51.3 19.16 59.47 30.84l.24.36c-1.26.44-2.48.92-3.68 1.45-8.47-11.3-28.57-18.63-58.97-30.17-17.93-6.81-31.1-14.35-40.15-19.55l-.46-.26 1.42-3.41Z"/><path fill="#0D812E" d="M250.06 64.38c51.48 0 58.28-35.9 58.28-40.38-5.77-3.24-9.72-5.35-12-5.35 0 0 5.88 32.5-46.34 32.5-48.52 0-46.34-32.5-46.34-32.5-2.28 0-6.23 2.1-12 5.35 0 0 7.37 40.38 58.4 40.38Z"/><path fill="#F2F2F2" d="M200.63 42.8c3.39-1.77 6.88-3.36 10.47-4.76 6.27 6.95 17.78 13.11 38.9 13.11 22.55 0 34.27-6.06 40.3-12.95a107.5 107.5 0 0 1 10.45 4.81c-7.58 10.52-22.38 21.37-50.69 21.37-26.68 0-41.43-11.04-49.43-21.58Z"/><path fill="#0D812E" d="M467.81 195.59a338 338 0 0 1 2.67 7.9c-4.45 13.37-45.21 40.86-85.23 37.88-.96-2.61-1.9-5.12-2.84-7.52 20.8-1.35 38-5.63 51.6-12.83 13.42-7.11 24.7-15.59 33.8-25.43Zm-435.81 0c9.1 9.83 20.36 18.29 33.77 25.39 13.62 7.2 30.83 11.49 51.64 12.84-.93 2.4-1.87 4.9-2.83 7.52-40.02 2.97-80.79-24.51-85.23-37.89.83-2.58 1.72-5.2 2.65-7.86Z"/><path fill="#000" fill-opacity=".1" d="M413.93 238.95a93.8 93.8 0 0 1-28.8 2.6c-8.2-22.38-15.55-36.89-20.01-44.76v270.58s-21.1 6.71-55.87 11.11l-.54-.06 8.28-240.7c2.05-59.76 31.08-95.3 60.1-117.44a148.7 148.7 0 0 0-7 23.66c7.35 11.86 24.43 42.07 43.83 94.97l.01.04ZM191.06 478.42c-34.25-4.4-56.47-11.05-56.47-11.05V196.8c-4.46 7.87-11.82 22.38-20.01 44.74a93.5 93.5 0 0 1-28.51-2.52c0-.03 0-.06.02-.1 19.37-52.84 36.3-83.06 43.6-94.94a148.74 148.74 0 0 0-7-23.7c29.01 22.15 58.04 57.68 60.1 117.44l8.28 240.7Z"/><path fill="#F2F2F2" d="M309.71 167.6a22 22 0 1 0 0-44 22 22 0 0 0 0 44Z"/><path fill="#0D812E" d="M309.71 165.73a20.14 20.14 0 1 0 0-40.27 20.14 20.14 0 0 0 0 40.27Z"/></g><defs><clipPath id="a"><path fill="#fff" d="M.35.63h500v500H.35z"/></clipPath></defs></svg>