<svg xmlns="http://www.w3.org/2000/svg" width="500" height="500" fill="none" viewBox="0 0 500 500"><g clip-path="url(#clip0_5839_4460)"><path fill="#AC96C8" fill-rule="evenodd" d="M203 109.22h93.65v-87.3H203v87.3Z" clip-rule="evenodd"/><path fill="#3E1F65" fill-rule="evenodd" d="M202.86 32.23h93.46v-14.2h-93.46v14.2Z" clip-rule="evenodd"/><path fill="#592E91" fill-rule="evenodd" d="M87.55 75.26S46.78 148.06 29 203.03c4.44 13.37 45.2 40.86 85.23 37.88 13.34-36.4 24.46-52 24.46-52s2.97-95.08-51.14-113.65M411.47 75.26s40.76 72.8 58.55 127.77c-4.44 13.37-45.2 40.86-85.23 37.88-13.34-36.4-24.46-52-24.46-52s-2.96-95.08 51.14-113.65" clip-rule="evenodd"/><path fill="#592E91" fill-rule="evenodd" d="M249.51 57.7c-50.08 0-47.8-39.47-48.74-39.14-7.52 2.62-24.13 14.94-52.44 25.5-31.87 11.88-52.63 19.31-60.78 31.2 11.11 8.91 46.7 28.97 46.7 120.34v271.14s49.65 14.86 114.88 14.86c68.93 0 115.64-14.86 115.64-14.86V195.6c0-91.37 35.59-111.43 46.7-120.34-8.15-11.89-28.9-19.32-60.78-31.2-28.36-10.58-44.98-22.92-52.48-25.51-.92-.32 4.18 39.15-48.7 39.15Z" clip-rule="evenodd"/><path fill="#502982" fill-rule="evenodd" d="M307.85 23.34c-5.77-3.23-9.73-5.34-12-5.34 0 0 5.88 32.5-46.34 32.5-48.52 0-46.34-32.5-46.34-32.5-2.28 0-6.23 2.1-12 5.34 0 0 7.37 40.39 58.4 40.39 51.48 0 58.28-35.9 58.28-40.38Z" clip-rule="evenodd"/><path fill="#000" fill-opacity=".1" fill-rule="evenodd" d="M413.58 238.32a93.79 93.79 0 0 1-28.8 2.6c-8.2-22.37-15.55-36.89-20-44.75v270.57s-21.1 6.71-55.87 11.12c-.18-.03-.37-.04-.55-.06l8.28-240.71c2.06-59.75 31.09-95.29 60.1-117.44a148.6 148.6 0 0 0-7 23.67c7.35 11.85 24.44 42.07 43.83 94.96l.01.04ZM190.72 477.8c-34.25-4.4-56.48-11.06-56.48-11.06V196.18c-4.46 7.87-11.81 22.38-20 44.75-9.64.71-19.32-.34-28.52-2.53l.02-.1c19.38-52.84 36.3-83.06 43.61-94.94a148.72 148.72 0 0 0-7-23.7c29 22.15 58.04 57.69 60.1 117.44l8.27 240.7Z" clip-rule="evenodd"/><path fill="#AB87D9" d="m293.15 126.5.04.08c.7 16.9 9.84 26.36 15 29.18l.96.52.96-.52c5.16-2.81 14.3-12.29 15-29.18l.04-.08 2.5-5 4.5 6.5c.83 8-1.4 25.5-17 31.5l6 3v6.5c-1.83-2.5-6.8-7.8-12-9-5.2 1.2-10.17 6.5-12 9v-6.5l6-3c-15.6-6-17.83-23.5-17-31.5l4.5-6.5 2.5 5Z"/><path fill="#fff" fill-rule="evenodd" d="m293.92 121.86-.74.58-.02.94c-.41 18.9 9.56 29.4 15.03 32.38l.96.52.96-.52c5.47-2.99 15.44-13.47 15.03-32.38l-.02-.94-.74-.58c-2.56-2.03-7.52-5.86-15.23-5.86-7.71 0-12.67 3.83-15.23 5.86Zm1.23 2.14.01-.58c2.5-1.97 7-5.42 13.99-5.42 7 0 11.5 3.45 13.99 5.42.4 18.15-9.16 27.95-13.99 30.58a19.51 19.51 0 0 1-4.28-3.34c-4.64-4.64-9.86-13.37-9.72-26.66Z" clip-rule="evenodd"/><path fill="#fff" d="M303.88 146.49A29.98 29.98 0 0 0 309 152c3.81-3.07 11.06-11.55 11.92-23.91l-17.04 18.4ZM297.08 128h23.84c.07-1.03.1-2.1.07-3.18-2.14-1.75-6-4.82-11.99-4.82-6 0-9.85 3.07-11.99 4.82-.03 1.09 0 2.15.07 3.18Z"/></g><defs><clipPath id="clip0_5839_4460"><path fill="#fff" d="M0 0h500v500H0z"/></clipPath></defs></svg>