<?xml version="1.0" encoding="UTF-8"?><svg height="500" viewBox="0 0 500 500" width="500" xmlns="http://www.w3.org/2000/svg"><g fill="none" fill-rule="evenodd"><path d="M0 0h500v500H0z"/><path d="M203.006 109.193h93.643V21.898h-93.643z" fill="#ba4b09"/><path d="M202.867 32.198h93.458v-14.2h-93.458z" fill="#363636"/><g fill="#e05e11"><path d="M87.55 75.26s-40.762 72.8-58.547 127.77c4.445 13.375 45.208 40.86 85.232 37.885 13.34-36.4 24.46-52 24.46-52S141.658 93.83 87.55 75.26M411.476 75.26s40.762 72.8 58.547 127.77c-4.445 13.375-45.208 40.86-85.232 37.885-13.34-36.4-24.46-52-24.46-52S357.368 93.83 411.476 75.26"/><path d="M249.514 57.706c-50.082 0-47.798-39.47-48.742-39.14-7.516 2.618-24.133 14.936-52.439 25.495-31.873 11.885-52.626 19.315-60.782 31.2 11.114 8.915 46.694 28.97 46.694 120.345v271.14S183.903 481.6 249.13 481.6c68.929 0 115.648-14.855 115.648-14.855v-271.14c0-91.375 35.58-111.43 46.7-120.345-8.157-11.885-28.91-19.315-60.783-31.2-28.36-10.577-44.982-22.92-52.478-25.511-.927-.318 4.177 39.156-48.703 39.156z"/></g><path d="M467.461 195.302a338.826 338.826 0 0 1 2.668 7.9c-4.445 13.375-45.208 40.86-85.232 37.885a426.405 426.405 0 0 0-2.836-7.52c20.795-1.358 37.993-5.637 51.595-12.837 13.428-7.11 24.696-15.585 33.805-25.428zM31.655 195.302c9.103 9.828 20.36 18.291 33.772 25.392 13.611 7.205 30.824 11.485 51.64 12.84a426.42 426.42 0 0 0-2.835 7.516C74.208 244.025 33.445 216.54 29 203.165c.836-2.584 1.723-5.209 2.655-7.863z" fill="#c4530f"/><path d="M249.576 63.752c51.479 0 58.279-35.895 58.279-40.38-5.772-3.24-9.728-5.345-12.008-5.345 0 0 5.881 32.495-46.335 32.495-48.52 0-46.336-32.495-46.336-32.495-2.28 0-6.235 2.105-12.002 5.345 0 0 7.368 40.38 58.402 40.38" fill="#3d3d3d"/><path d="M309 118.055c5.69 0 11.267-1.019 16.73-3.055l6.928 6.528c-8.775 8.119 5.654 30.113-1.971 37.862S309 164.89 309 171c0-6.11-14.062-3.862-21.687-11.61s6.804-29.743-1.971-37.862L292.27 115c5.463 2.036 11.04 3.055 16.73 3.055z" fill="#fff"/><path d="M309 119.836c5.235 0 10.354-.945 15.357-2.836l5.741 5.126c-7.074 7.135 5.834 28.898-1.18 36.093-7.015 7.195-19.918 4.639-19.918 10.311 0-5.672-12.854-3.116-19.869-10.311-7.015-7.195 5.894-28.958-1.18-36.093l5.74-5.126c4.972 1.89 10.074 2.836 15.309 2.836z" fill="#000"/><path d="M329.054 138c.065.333.132.666.2 1h-40.458l.199-1zm.604 3c.135.669.268 1.336.396 2h-42.06c.129-.664.262-1.331.397-2zm.763 4c.237 1.373.431 2.716.546 4h-43.886c.116-1.284.31-2.627.547-4h42.793zm.657 6c.05 2.969-.491 5.506-2.16 7.219-7.015 7.195-19.918 4.639-19.918 10.311 0-5.672-12.854-3.116-19.869-10.311-1.67-1.713-2.21-4.25-2.16-7.219z" fill="#f78200"/><path d="M413.584 238.323c-9.287 2.238-19.064 3.316-28.798 2.592-8.197-22.369-15.557-36.883-20.012-44.748v270.577s-21.102 6.71-55.867 11.11l-.544-.059c1.881-54.795 5.722-166.47 8.277-240.705 2.055-59.755 31.084-95.29 60.099-117.44-2.676 6.78-5.072 14.606-7 23.667 7.354 11.852 24.436 42.069 43.831 94.964l.014.042zM190.717 477.795c-34.248-4.401-56.477-11.05-56.477-11.05V196.171c-4.456 7.867-11.813 22.38-20.01 44.743-9.632.716-19.308-.332-28.51-2.523.005-.033.012-.065.02-.097 19.377-52.848 36.305-83.066 43.61-94.944-1.93-9.075-4.328-16.912-7.007-23.701 29.015 22.15 58.044 57.685 60.1 117.44 2.554 74.235 6.395 185.91 8.276 240.705z" fill="#000" fill-opacity=".1"/></g></svg>