<svg width="500" height="500" viewBox="0 0 500 500" fill="none" xmlns="http://www.w3.org/2000/svg"><path fill-rule="evenodd" clip-rule="evenodd" d="M203 109.22h93.65v-87.3H203v87.3Z" fill="#C8C8C8"/><path fill-rule="evenodd" clip-rule="evenodd" d="M202.86 32.23h93.46v-14.2h-93.46v14.2Z" fill="#DCDCDC"/><path fill-rule="evenodd" clip-rule="evenodd" d="M87.55 75.26S46.78 148.06 29 203.03c4.44 13.37 45.2 40.86 85.23 37.88 13.34-36.4 24.46-52 24.46-52s2.97-95.08-51.14-113.65Zm323.92 0s40.76 72.8 58.55 127.77c-4.44 13.37-45.2 40.86-85.23 37.88-13.34-36.4-24.46-52-24.46-52s-2.97-95.08 51.14-113.65Z" fill="#F2F2F2"/><path fill-rule="evenodd" clip-rule="evenodd" d="M249.51 57.7c-50.08 0-47.8-39.47-48.74-39.14-7.52 2.62-24.14 14.94-52.44 25.5-31.87 11.88-52.63 19.31-60.78 31.2 11.11 8.91 46.7 28.97 46.7 120.34v271.14s49.65 14.86 114.88 14.86c68.93 0 115.64-14.86 115.64-14.86V195.6c0-91.37 35.58-111.43 46.7-120.34-8.15-11.89-28.9-19.32-60.78-31.2-28.36-10.58-44.98-22.92-52.48-25.51-.92-.32 4.18 39.15-48.7 39.15Z" fill="#F2F2F2"/><path fill-rule="evenodd" clip-rule="evenodd" d="M174.4 32.4c6.76-3.4 12.32-6.53 16.77-9.03l2.14 6.63c-8.9 5.15-22.46 13.33-41.6 20.71-28.2 10.89-47.4 18.03-56.49 28.29l-7.6-3.98c8.2-11.83 28.92-19.25 60.71-31.1A246.3 246.3 0 0 0 174.4 32.4Zm150.1-.06a245.77 245.77 0 0 0 26.2 11.58c31.78 11.85 52.5 19.27 60.71 31.1-.41.23-2.9 1.6-7.5 4.1-9.04-10.32-28.27-17.48-56.6-28.4-18.71-7.23-32.09-15.2-41-20.37l1.55-6.98c4.43 2.5 9.94 5.6 16.65 8.97ZM467.46 195.3c.94 2.67 1.83 5.3 2.67 7.9-4.45 13.38-45.21 40.86-85.23 37.89-.96-2.62-1.9-5.12-2.84-7.52 20.8-1.36 38-5.64 51.6-12.84 13.42-7.1 24.7-15.58 33.8-25.43Zm-435.81 0c9.1 9.83 20.37 18.3 33.78 25.4 13.6 7.2 30.82 11.48 51.64 12.83-.93 2.4-1.88 4.9-2.84 7.52-40.02 2.97-80.79-24.51-85.23-37.89.84-2.58 1.72-5.2 2.65-7.86Z" fill="#4562AA"/><path fill-rule="evenodd" clip-rule="evenodd" d="M307.85 23.34c-5.77-3.23-9.73-5.34-12-5.34 0 0 5.88 32.5-46.34 32.5-48.52 0-46.34-32.5-46.34-32.5-2.28 0-6.23 2.1-12 5.34 0 0 7.37 40.39 58.4 40.39 51.48 0 58.28-35.9 58.28-40.38Z" fill="#E7E7E7"/><path fill-rule="evenodd" clip-rule="evenodd" d="M413.58 238.32a93.76 93.76 0 0 1-28.8 2.6c-8.2-22.37-15.55-36.89-20-44.75v270.57s-21.1 6.71-55.87 11.12a5.14 5.14 0 0 0-.55-.06l8.28-240.71c2.06-59.75 31.09-95.29 60.1-117.44a148.7 148.7 0 0 0-7 23.67c7.35 11.85 24.44 42.07 43.83 94.96l.01.04ZM190.72 477.8c-34.25-4.4-56.48-11.06-56.48-11.06V196.17c-4.46 7.87-11.81 22.38-20 44.75a93.6 93.6 0 0 1-28.52-2.53l.02-.1c19.38-52.84 36.3-83.06 43.61-94.94a148.64 148.64 0 0 0-7-23.7c29 22.15 58.04 57.69 60.1 117.44l8.27 240.7Z" fill="#000" fill-opacity=".06"/><path fill-rule="evenodd" clip-rule="evenodd" d="M309 166a23 23 0 1 0 0-46 23 23 0 0 0 0 46Z" fill="#fff"/></svg>