<?xml version="1.0" encoding="UTF-8"?><svg width="500" height="500" viewBox="0 0 500 500" xmlns="http://www.w3.org/2000/svg"><g fill="none" fill-rule="evenodd"><path d="M0 0h500v500H0z"/><path fill="#D9D9D9" d="M203.0033 109.223h93.6432V21.928h-93.6432z"/><path fill="#054A21" d="M202.8636 32.228h93.4586v-14.2h-93.4586z"/><path d="M87.5475 75.2585s-40.7627 72.8-58.5475 127.77c4.445 13.375 45.2077 40.86 85.2322 37.885 13.3398-36.4 24.4596-52 24.4596-52s2.9633-95.085-51.1443-113.655m323.9252 0s40.7628 72.8 58.5475 127.77c-4.445 13.375-45.2077 40.86-85.2321 37.885-13.3399-36.4-24.4597-52-24.4597-52s-2.9633-95.085 51.1443-113.655" fill="#F2F2F2"/><path d="M249.5111 57.7025c-50.0817 0-47.7981-39.469-48.7426-39.14-7.5158 2.6187-24.1326 14.9368-52.4385 25.495-31.8729 11.885-52.626 19.315-60.7825 31.2 11.1149 8.915 46.6944 28.97 46.6944 120.345v271.14s49.6576 14.855 114.885 14.855c68.9291 0 115.6484-14.855 115.6484-14.855v-271.14c0-91.375 35.5795-111.43 46.6994-120.345-8.1566-11.885-28.9096-19.315-60.7825-31.2-28.3599-10.5767-44.9818-22.9194-52.478-25.5106-.9273-.3184 4.1773 39.1556-48.703 39.1556z" fill="#F2F2F2"/><path d="M467.3529 195.129c.9359 2.6665 1.8272 5.303 2.6673 7.8995-4.445 13.375-45.2077 40.86-85.2321 37.885a426.4238 426.4238 0 00-2.8354-7.5198c20.795-1.3576 37.9932-5.6366 51.5944-12.8371 13.4282-7.109 24.6968-15.5848 33.8058-25.4277zm-435.6982.036c9.1031 9.8275 20.3606 18.2914 33.7724 25.3916 13.611 7.2056 30.824 11.4856 51.6393 12.84a426.4196 426.4196 0 00-2.8342 7.5169c-40.0245 2.975-80.7873-24.51-85.2322-37.885.8363-2.5849 1.7234-5.2092 2.6547-7.8635zM250 402c38.2583 0 76.5167-.9758 114.775-2.9274v51.9996A2252.959 2252.959 0 01250 453.9992c-38.586 0-77.1721-.9925-115.7582-2.9773v-51.9997A2252.6053 2252.6053 0 00250 402zm114.7747-117.0005v52h-230.533v-52h230.533zM250 168c38.5753 0 77.1507.992 115.726 2.9761-.616 7.5726-.9507 15.764-.9507 24.6264l-.0003 27.3249A2252.5616 2252.5616 0 00250 220c-38.586 0-77.1721.9926-115.7582 2.9778l.0001-27.3753c0-8.8425-.3332-17.0171-.9452-24.5784C172.1964 169.009 211.0982 168 250 168zm0-102.7415c35.0817 0 70.1357 3.247 105.162 9.7412 6.602 9.481 10.0773 19.819 10.0773 30.2422v7.7577c-38.2655-6.6667-76.737-10-115.4144-10-38.6774 0-77.365 3.3333-116.0629 10v-7.7577c0-10.4234 3.4757-20.7615 10.0782-30.2423 35.6915-6.494 71.078-9.7411 106.1598-9.7411zm57.8516-41.9135c-5.772-3.24-9.728-5.345-12.0078-5.345 0 0 5.8817 32.495-46.3352 32.495-48.5202 0-46.3352-32.495-46.3352-32.495-2.2798 0-6.2358 2.105-12.0028 5.345 0 0 7.3683 40.38 58.4029 40.38 51.4785 0 58.2781-35.895 58.2781-40.38z" fill="#075C29"/><path d="M413.5843 238.3227c-9.2877 2.2382-19.0646 3.3161-28.7978 2.5926-8.1978-22.369-15.5572-36.883-20.0128-44.7484v270.5774s-21.1022 6.7098-55.8664 11.1104c-.1817-.0197-.363-.0396-.544-.0597 1.8808-54.795 5.7221-166.47 8.2763-240.705 2.0554-59.755 31.0847-95.29 60.099-117.44-2.6753 6.7806-5.0714 14.6063-6.9991 23.6673 7.354 11.8514 24.4358 42.0687 43.8307 94.964.005.014.0097.0277.014.0414zM190.7166 477.7953c-34.2478-4.4014-56.4763-11.051-56.4763-11.051V196.1721c-4.4558 7.8668-11.8138 22.3792-20.0097 44.7432-9.633.716-19.3087-.3323-28.5106-2.5238a1.113 1.113 0 01.0199-.0967c19.3773-52.8475 36.3054-83.0661 43.6098-94.9437-1.929-9.0753-4.3277-16.912-7.0064-23.7011 29.0144 22.15 58.0437 57.685 60.099 117.44 2.5543 74.235 6.3956 185.91 8.2763 240.7053h-.002z" fill-opacity=".06" fill="#000"/><g transform="translate(291 118)"><g transform="translate(6.2296)"><path d="M.7704 9.4786c2.75-1.051 6.4167-1.5765 11-1.5765s8.25.5255 11 1.5765l-2.3529 4.4235c-2.7077-1.1323-5.5896-1.6985-8.6455-1.6985-3.056 0-5.9337.5662-8.6333 1.6985L.7704 9.4786z" fill="#C0920C"/><path d="M11.7704 0c.4142 0 1 .1764 1 .3939-.1323.6716-.2121 1.21-.2394 1.615l.0116-.001.0112.0013c2.0726.321 3.6322.9927 4.671 1.9966.3734-.02.8695.0178 1.029.0403 3.7277.526 5.1715 2.4758 4.2438 5.6621-.0587.2015-.317.328-.577.2825-.26-.0454-.4232-.2456-.3645-.4471.7912-2.7175-.2586-4.2347-3.23-4.7242l-.4637-.0645c.9914 1.4388 1.1744 3.3857.5325 5.8045-.0808.3043-.4363.4953-.7941.4266-.3579-.0686-.5825-.371-.5018-.6752 1.1007-4.1476-.3872-6.4436-4.5785-7.157V9.606c0 .2175-.3359.3939-.75.3939-.3729 0-.6821-.1428-.7403-.33l-.0098-.0639-.0008-6.2384c-3.4227.899-4.5858 3.1445-3.5778 6.943.0808.3044-.1439.6067-.5017.6753-.3579.0687-.7134-.1223-.7942-.4266-.6425-2.4211-.4585-4.3694.5365-5.809L6.11 4.774a1.925 1.925 0 00-.1075.0092c-3.524.4457-4.7838 1.9703-3.8773 4.7606.0655.2014-.1166.4016-.4067.447-.29.0455-.5782-.081-.6437-.2824-1.035-3.1857.5758-5.135 4.7348-5.661l.1606-.0148c.3136-.0235.919-.0481 1.3408-.0198.8683-.8443 2.1054-1.4542 3.705-1.819-.0154-.4284-.0977-1.0285-.2456-1.7998 0-.2175.5858-.3939 1-.3939z" fill="#C0920C" fill-rule="nonzero"/><circle fill="#D8D8D8" cx="1.7802" cy="9.5127" r="1"/><circle fill="#D8D8D8" cx="11.7708" cy="8.4643" r="1"/><circle fill="#D8D8D8" cx="6.1164" cy="8.7549" r="1"/><circle fill="#D8D8D8" cx="17.4454" cy="8.7549" r="1"/><circle fill="#D8D8D8" cx="21.7704" cy="9.5127" r="1"/></g><circle fill="#072507" cx="18" cy="29" r="18"/><circle fill="#F2F2F2" cx="18" cy="29" r="16"/><rect fill="#AFAFAF" x="10" y="22" width="16" height="14" rx="1"/><path fill="#072507" d="M3.513 27.1801l3.227-2.7557.7888-4.1997-2.9189-.111-2.6674 4.62zm29.0054 0l-3.2268-2.7557-.789-4.1997 2.919-.111 2.6674 4.62zM22.0315 15.5833l-4 1.4167L14 15.5833 15.3633 13h5.3348zM5.5887 35.748l3.8301 1.8267 1.849 3.8524-2.7907.8627-3.7723-3.7723zm24.8541 0l-3.8301 1.8267-1.849 3.8524 2.7907.8627 3.7723-3.7723z"/></g></g></svg>