<?xml version="1.0" encoding="UTF-8"?><svg height="500" viewBox="0 0 500 500" width="500" xmlns="http://www.w3.org/2000/svg"><g fill="none" fill-rule="evenodd"><path d="M0 0h500v500H0z"/><path d="M203.006 109.193h93.643V21.898h-93.643z" fill="#253572"/><path d="M202.867 32.198h93.458v-14.2h-93.458z" fill="#e3e3e3"/><g fill="#2f4592"><path d="M87.55 75.26s-40.762 72.8-58.547 127.77c4.445 13.375 45.208 40.86 85.232 37.885 13.34-36.4 24.46-52 24.46-52S141.658 93.83 87.55 75.26M411.476 75.26s40.762 72.8 58.547 127.77c-4.445 13.375-45.208 40.86-85.232 37.885-13.34-36.4-24.46-52-24.46-52S357.368 93.83 411.476 75.26"/><path d="M249.514 57.706c-50.082 0-47.798-39.47-48.742-39.14-7.516 2.618-24.133 14.936-52.439 25.495-31.873 11.885-52.626 19.315-60.782 31.2 11.114 8.915 46.694 28.97 46.694 120.345v271.14S183.903 481.6 249.13 481.6c68.929 0 115.648-14.855 115.648-14.855v-271.14c0-91.375 35.58-111.43 46.7-120.345-8.157-11.885-28.91-19.315-60.783-31.2-28.36-10.577-44.982-22.92-52.478-25.511-.927-.318 4.177 39.156-48.703 39.156z"/></g><path d="M470.129 203.202c-4.445 13.375-45.208 40.86-85.232 37.885a426.404 426.404 0 0 0-2.836-7.52c20.795-1.358 37.993-5.637 51.595-12.837 13.428-7.11 24.696-15.585 33.805-25.428a337.728 337.728 0 0 1 2.668 7.9zM65.427 220.694c13.611 7.205 30.824 11.485 51.64 12.84-.932 2.4-1.878 4.904-2.835 7.516-40.024 2.975-80.787-24.51-85.232-37.885a338.673 338.673 0 0 1 2.654-7.862c9.104 9.827 20.361 18.29 33.773 25.39z" fill="#f2f2f2"/><path d="M307.855 23.372c-5.772-3.24-8.728-4.345-11.008-4.345 0 0 4.881 35.335-47.335 35.335-32.347 0-48.126-11.779-47.336-35.335 2.28 0-5.235 1.105-11.002 4.345 0 0 7.368 40.38 58.402 40.38 51.479 0 58.279-35.895 58.279-40.38z" fill="#2f4592"/><path d="M295.847 18.026c1.785 0 4.597 1.29 8.503 3.405-7.174 24.482-25.348 36.722-54.522 36.722-29.263 0-47.509-12.315-54.738-36.945 3.69-1.982 6.366-3.181 8.086-3.181 0 0-2.185 32.495 46.336 32.495 52.216 0 46.335-32.495 46.335-32.495z" fill="#f2f2f2"/><g><path d="M295 121h7v3.52h3.5V121h7v3.52h3.5V121h7v34.32c0 1.995-4.667 5.221-14 9.68-9.333-4.46-14-7.686-14-9.68V121z" fill="#cc3f3f"/><g fill="#eab2b2"><path d="M320.375 155.102c-1.56 1.591-5.206 3.717-10.938 6.378-7.875-3.657-11.812-6.303-11.812-7.938V130.68h13.736a5.698 5.698 0 0 1 4.236 9.51 9.763 9.763 0 0 1 4.778 8.398v.045z"/><path d="M319.496 135.316a7.04 7.04 0 0 0-7.036-7.276h-14.835v-5.28h2.734v3.238h6.912v-3.238h3.53v3.238h6.84v-3.238h2.734v12.338c-.296.075-.589.147-.879.218z"/></g></g><path d="M413.584 238.323c-9.287 2.238-19.064 3.316-28.798 2.592-8.197-22.369-15.557-36.883-20.012-44.748v270.577s-21.102 6.71-55.867 11.11l-.544-.059c1.881-54.795 5.722-166.47 8.277-240.705 2.055-59.755 31.084-95.29 60.099-117.44-2.676 6.78-5.072 14.606-7 23.667 7.354 11.852 24.436 42.069 43.831 94.964l.014.042zM190.717 477.795c-34.248-4.401-56.477-11.05-56.477-11.05V196.171c-4.456 7.867-11.813 22.38-20.01 44.743-9.632.716-19.308-.332-28.51-2.523.005-.033.012-.065.02-.097 19.377-52.848 36.305-83.066 43.61-94.944-1.93-9.075-4.328-16.912-7.007-23.701 29.015 22.15 58.044 57.685 60.1 117.44 2.554 74.235 6.395 185.91 8.276 240.705z" fill="#000" fill-opacity=".1"/></g></svg>