<?xml version="1.0" encoding="UTF-8"?><svg height="500" viewBox="0 0 500 500" width="500" xmlns="http://www.w3.org/2000/svg"><g fill="none" fill-rule="evenodd"><path d="M0 0h500v500H0z"/><path d="M203.607 109.223h93.432V21.928h-93.432z" fill="#61a0c9"/><path d="M203.468 32.228h93.248v-14.2h-93.248z" fill="#e0e0e0"/><g fill="#68abd6"><path d="M87.548 75.258S46.785 148.058 29 203.029c4.445 13.376 45.208 40.86 85.232 37.886 13.34-36.4 24.46-52 24.46-52s2.963-95.085-51.144-113.655M411.473 75.258s40.762 72.8 58.547 127.77c-4.445 13.376-45.208 40.86-85.232 37.886-13.34-36.4-24.46-52-24.46-52s-2.963-95.085 51.145-113.655"/><path d="M249.511 57.703c-50.082 0-47.798-39.47-48.742-39.14-7.516 2.618-24.133 14.936-52.439 25.495-31.873 11.885-52.626 19.315-60.782 31.2 11.114 8.915 46.694 28.97 46.694 120.345v271.14s49.658 14.855 114.885 14.855c68.929 0 115.648-14.855 115.648-14.855v-271.14c0-91.375 35.58-111.43 46.7-120.345-8.157-11.885-28.91-19.315-60.783-31.2-28.36-10.577-44.982-22.92-52.478-25.511-.927-.318 4.177 39.156-48.703 39.156z"/></g><path d="M467.353 195.129a338.826 338.826 0 0 1 2.667 7.9c-4.445 13.375-45.208 40.86-85.232 37.885a426.424 426.424 0 0 0-2.835-7.52c20.795-1.358 37.993-5.637 51.594-12.837 13.428-7.11 24.697-15.585 33.806-25.428zM31.655 195.165c9.103 9.828 20.36 18.291 33.772 25.392 13.611 7.205 30.824 11.485 51.64 12.84a426.42 426.42 0 0 0-2.835 7.517c-40.024 2.975-80.787-24.51-85.232-37.885.836-2.585 1.723-5.21 2.655-7.864z" fill="#f2f2f2"/><path d="M308.22 23.345c-5.76-3.24-9.707-5.345-11.982-5.345 0 0 5.869 32.495-46.23 32.495-48.411 0-46.231-32.495-46.231-32.495-2.275 0-6.222 2.105-11.976 5.345 0 0 7.352 40.38 58.271 40.38 51.363 0 58.147-35.895 58.147-40.38z" fill="#f1f1f1"/><g><path d="M297.5 134h23v14.547c0 7.324-3.833 12.142-11.5 14.453-7.667-2.312-11.5-7.13-11.5-14.453z" fill="#fff"/><path d="M309 137l-32-14h25.575a2 2 0 0 1 1.416.588c2.062 2.07 3.731 3.104 5.009 3.104 1.281 0 2.982-1.04 5.102-3.12a2 2 0 0 1 1.4-.572H341z" fill="#f1cf59"/></g><path d="M413.584 238.323c-9.287 2.238-19.064 3.316-28.798 2.592-8.197-22.369-15.557-36.883-20.012-44.748v270.577s-21.102 6.71-55.867 11.11l-.544-.059c1.881-54.795 5.722-166.47 8.277-240.705 2.055-59.755 31.084-95.29 60.099-117.44-2.676 6.78-5.072 14.606-7 23.667 7.354 11.852 24.436 42.069 43.831 94.964l.014.042zM190.717 477.795c-34.248-4.401-56.477-11.05-56.477-11.05V196.171c-4.456 7.867-11.813 22.38-20.01 44.743-9.632.716-19.308-.332-28.51-2.523.005-.033.012-.065.02-.097 19.377-52.848 36.305-83.066 43.61-94.944-1.93-9.075-4.328-16.912-7.007-23.701 29.015 22.15 58.044 57.685 60.1 117.44 2.554 74.235 6.395 185.91 8.276 240.705z" fill="#000" fill-opacity=".06"/></g></svg>