<?xml version="1.0" encoding="UTF-8"?><svg height="500" viewBox="0 0 500 500" width="500" xmlns="http://www.w3.org/2000/svg"><g fill="none" fill-rule="evenodd"><path d="M0 0h500v500H0z"/><path d="M203.086 109.195h93.643V21.9h-93.643z" fill="#e3e3e3"/><path d="M202.946 32.2h93.459V18h-93.459z" fill="#f08e2c"/><g fill="#f2f2f2"><path d="M87.548 75.26S46.785 148.06 29 203.03c4.445 13.375 45.208 40.86 85.232 37.885 13.34-36.4 24.46-52 24.46-52S141.655 93.83 87.548 75.26M411.473 75.26s40.763 72.8 58.548 127.77c-4.445 13.375-45.208 40.86-85.232 37.885-13.34-36.4-24.46-52-24.46-52S357.366 93.83 411.473 75.26"/><path d="M249.514 57.706c-50.082 0-47.799-39.47-48.743-39.14-7.516 2.618-24.133 14.936-52.439 25.495-31.872 11.885-52.625 19.315-60.782 31.2 11.115 8.915 46.694 28.97 46.694 120.345v271.14S183.902 481.6 249.13 481.6c68.93 0 115.649-14.855 115.649-14.855v-271.14c0-91.375 35.58-111.43 46.7-120.345-8.157-11.885-28.91-19.315-60.783-31.2-28.36-10.577-44.982-22.92-52.478-25.511-.928-.318 4.177 39.156-48.703 39.156z"/></g><path d="M467.461 195.302a338.826 338.826 0 0 1 2.668 7.9c-4.445 13.375-45.208 40.86-85.232 37.885a426.405 426.405 0 0 0-2.836-7.52c20.795-1.358 37.993-5.637 51.595-12.837 13.428-7.11 24.696-15.585 33.805-25.428zM31.655 195.302c9.103 9.828 20.36 18.291 33.772 25.392 13.611 7.205 30.824 11.485 51.64 12.84a426.42 426.42 0 0 0-2.835 7.516C74.208 244.025 33.445 216.54 29 203.165c.836-2.584 1.723-5.209 2.655-7.863zM249.656 63.754c51.479 0 58.278-35.895 58.278-40.38-5.772-3.24-9.728-5.345-12.007-5.345 0 0 5.881 32.495-46.336 32.495-48.52 0-46.335-32.495-46.335-32.495-2.28 0-6.236 2.105-12.003 5.345 0 0 7.369 40.38 58.403 40.38" fill="#ff972f"/><g fill-rule="nonzero"><path d="M323.16 130.494c-2.384-4.109-5.075-6.318-6.912-7.447-.183-.113-1.136 3.588-2.465 3.113-3.823-1.365.179-4.83-2.203-5.864-.43-.187-1.782.244-2.58.247s-2.162-.43-2.597-.237c-2.392 1.06 1.658 4.653-2.172 5.854-1.66.521-2.627-3.294-2.81-3.18-1.876 1.136-4.618 3.363-7.028 7.513A17.572 17.572 0 0 0 292 139.22v.458c.017 1.1.118 1.953.2 2.48.878 5.306 3.133 10.458 6.703 15.31.055.075 5.857 7.531 9.873 7.531 4.344 0 9.649-7.223 9.87-7.528 3.56-4.836 5.81-9.988 6.688-15.3.125-.666.204-1.575.218-2.502v-.458c-.03-2.147-.47-5.402-2.392-8.718z" fill="#000"/><path d="M293.525 139.564c.072 1.461.132 2.352.183 2.671.797 4.824 2.848 9.508 6.093 13.918.05.069 5.324 6.847 8.975 6.847 3.949 0 8.772-6.566 8.973-6.844 3.236-4.396 5.282-9.08 6.08-13.91.075-.403.141-1.3.198-2.69z" fill="#ffe016"/><path d="M293.525 139.564c.072 1.461.132 2.352.183 2.671.797 4.824 2.848 9.508 6.093 13.918.05.069 5.324 6.847 8.975 6.847v-23.436h-15.25z" fill="#ef321e"/></g><path d="M413.584 238.323c-9.287 2.238-19.064 3.316-28.798 2.592-8.197-22.369-15.557-36.883-20.012-44.748v270.577s-21.102 6.71-55.867 11.11l-.544-.059c1.881-54.795 5.722-166.47 8.277-240.705 2.055-59.755 31.084-95.29 60.099-117.44-2.676 6.78-5.072 14.606-7 23.667 7.354 11.852 24.436 42.069 43.831 94.964l.014.042zM190.717 477.795c-34.248-4.401-56.477-11.05-56.477-11.05V196.171c-4.456 7.867-11.813 22.38-20.01 44.743-9.632.716-19.308-.332-28.51-2.523.005-.033.012-.065.02-.097 19.377-52.848 36.305-83.066 43.61-94.944-1.93-9.075-4.328-16.912-7.007-23.701 29.015 22.15 58.044 57.685 60.1 117.44 2.554 74.235 6.395 185.91 8.276 240.705z" fill="#000" fill-opacity=".06"/></g></svg>