<?xml version="1.0" encoding="UTF-8"?><svg height="500" viewBox="0 0 500 500" width="500" xmlns="http://www.w3.org/2000/svg"><g fill="none" fill-rule="evenodd"><path d="M0 0h500v500H0z"/><path d="M203.006 109.193h93.643V21.898h-93.643z" fill="#c46900"/><path d="M202.867 32.198h93.458v-14.2h-93.458z" fill="#d87300"/><path d="M87.55 75.26s-40.762 72.8-58.547 127.77c4.445 13.375 45.208 40.86 85.232 37.885 13.34-36.4 24.46-52 24.46-52S141.658 93.83 87.55 75.26" fill="#f18100"/><path d="M411.476 75.26s40.762 72.8 58.547 127.77c-4.445 13.375-45.208 40.86-85.232 37.885-13.34-36.4-24.46-52-24.46-52S357.368 93.83 411.476 75.26" fill="#b63027"/><path d="M249.514 57.696c-50.082 0-47.798-39.469-48.742-39.14-7.516 2.619-24.133 14.937-52.439 25.495-31.873 11.885-52.626 19.315-60.782 31.2 11.114 8.915 46.694 28.97 46.694 120.345v271.14s50.53 14.854 115.758 14.854l110.3-14.854z" fill="#f18100"/><path d="M250.003 481.582V57.686c52.36-.242 47.29-39.471 48.214-39.156 7.496 2.593 24.118 14.936 52.478 25.513 31.873 11.885 52.626 19.315 60.783 31.2-11.12 8.915-46.7 28.97-46.7 120.345v271.14s-46.325 14.73-114.775 14.854z" fill="#b63027"/><path d="M250.003 63.752L250 50.522c-48.52 0-46.824-32.495-46.824-32.495-2.28 0-6.235 2.105-12.002 5.345 0 0 7.368 40.38 58.402 40.38" fill="#f18100"/><path d="M307.855 23.372c-5.772-3.24-9.728-5.345-12.008-5.345 0 0 6.37 32.495-45.847 32.495l.003 13.23c51.479 0 57.852-35.895 57.852-40.38z" fill="#b63027"/><path d="M467.461 195.302a338.826 338.826 0 0 1 2.668 7.9c-4.445 13.375-45.208 40.86-85.232 37.885a426.405 426.405 0 0 0-2.836-7.52c20.795-1.358 37.993-5.637 51.595-12.837 13.428-7.11 24.696-15.585 33.805-25.428z" fill="#f18100"/><path d="M31.655 195.302c9.103 9.828 20.36 18.291 33.772 25.392 13.611 7.205 30.824 11.485 51.64 12.84a426.42 426.42 0 0 0-2.835 7.516C74.208 244.025 33.445 216.54 29 203.165c.836-2.584 1.723-5.209 2.655-7.863z" fill="#b63027"/><ellipse cx="314.902" cy="147" fill="#fff" rx="17" ry="22"/><g fill="#ffa149"><path d="M302.75 126.397l-1.064 1.685-.69-1.87-1.93-.49 1.564-1.234-.13-1.988 1.657 1.106 1.85-.737-.54 1.917 1.274 1.532zM311.03 122.554l-1.487 1.326-.148-1.987-1.721-1.004 1.844-.755.423-1.947 1.288 1.52 1.982-.199-1.048 1.695.802 1.823zM320.605 121.893l-.148 1.987-1.487-1.326-1.935.472.802-1.823-1.048-1.695 1.982.2 1.288-1.52.423 1.946 1.844.755zM328.75 126.397l-1.064 1.685-.69-1.87-1.93-.49 1.564-1.234-.13-1.988 1.657 1.106 1.85-.737-.54 1.917 1.274 1.532z"/></g><path d="M413.584 238.323c-9.287 2.238-19.064 3.316-28.798 2.592-8.197-22.369-15.557-36.883-20.012-44.748v270.577s-21.102 6.71-55.867 11.11l-.544-.059c1.881-54.795 5.722-166.47 8.277-240.705 2.055-59.755 31.084-95.29 60.099-117.44-2.676 6.78-5.072 14.606-7 23.667 7.354 11.852 24.436 42.069 43.831 94.964l.014.042zM190.717 477.795c-34.248-4.401-56.477-11.05-56.477-11.05V196.171c-4.456 7.867-11.813 22.38-20.01 44.743-9.632.716-19.308-.332-28.51-2.523.005-.033.012-.065.02-.097 19.377-52.848 36.305-83.066 43.61-94.944-1.93-9.075-4.328-16.912-7.007-23.701 29.015 22.15 58.044 57.685 60.1 117.44 2.554 74.235 6.395 185.91 8.276 240.705z" fill="#000" fill-opacity=".1"/></g></svg>