<?xml version="1.0" encoding="utf-8"?><svg width="500" height="500" viewBox="0 0 500 500" fill="none" xmlns="http://www.w3.org/2000/svg"><path fill-rule="evenodd" clip-rule="evenodd" d="M203.006 109.193h93.643V21.8979h-93.643v87.2951z" fill="#BFBFBF"/><path fill-rule="evenodd" clip-rule="evenodd" d="M202.866 32.198h93.459v-14.2h-93.459v14.2z" fill="#E3E3E3"/><path fill-rule="evenodd" clip-rule="evenodd" d="M87.5505 75.26s-40.7628 72.8-58.5476 127.77c4.445 13.375 45.2078 40.86 85.2321 37.885 13.34-36.4 24.46-52 24.46-52S141.658 93.83 87.5505 75.26zm323.9255 0s40.763 72.8 58.547 127.77c-4.445 13.375-45.207 40.86-85.232 37.885-13.34-36.4-24.459-52-24.459-52S357.368 93.83 411.476 75.26z" fill="#F2F2F2"/><path fill-rule="evenodd" clip-rule="evenodd" d="M75.0249 117.299c10.132-20.7504 17.9444-35.2455 17.9444-35.2455 7.8817-11.885 27.9367-19.3151 58.7467-31.2001 19.136-7.385 32.799-15.6089 41.775-20.7812l-2.144-6.8368c-9.249 5.163-23.298 13.3378-43.023 20.6929-31.868 11.8901-52.6209 19.3151-60.7725 31.2002 0 0-8.2313 14.7601-18.8573 35.8255 0 0-28.7057 57.334-39.6942 92.074 0 0 .4501 1.587 2.123 4.055 1.6729 2.468 2.8066 3.396 2.8066 3.396 12.5793-35.526 41.0953-93.18 41.0953-93.18zm348.9391.023c-10.132-20.7499-17.957-35.2689-17.957-35.2689C398.124 70.168 378.07 62.738 347.26 50.853c-19.037-7.3466-32.369-15.4656-41.144-20.6018l1.659-6.9143c9.229 5.1456 23.222 13.262 42.877 20.591 31.868 11.8901 52.621 19.3151 60.772 31.2002 0 0 8.232 14.76 18.858 35.8249 0 0 27.583 54.457 39.738 92.074 0 0-.737 1.976-1.458 3.088s-2.385 3.188-2.385 3.188c-27.641-65.988-42.213-91.981-42.213-91.981z" fill="#3D3D3D"/><path fill-rule="evenodd" clip-rule="evenodd" d="M249.514 57.7057c-50.081 0-47.798-39.4691-48.742-39.14-7.516 2.6186-24.133 14.9368-52.439 25.495-31.873 11.885-52.6257 19.315-60.7822 31.2 11.1148 8.915 46.6942 28.9703 46.6942 120.3453v271.14s49.658 14.855 114.885 14.855c68.929 0 115.649-14.855 115.649-14.855v-271.14c0-91.375 35.579-111.4303 46.699-120.3453-8.157-11.885-28.91-19.315-60.783-31.2-28.359-10.5767-44.981-22.9195-52.478-25.5087-.927-.3203 4.178 39.1537-48.703 39.1537z" fill="#F2F2F2"/><path fill-rule="evenodd" clip-rule="evenodd" d="M167 36.1523V474.099c-9.044-1.638-16.499-3.273-22-4.587V45.2696c1.097-.4088 2.208-.8227 3.333-1.2421 6.906-2.5758 13.115-5.2563 18.667-7.8752zm45.997 9.6911V480.093c-7.76-.626-15.121-1.414-22-2.294V23.4699c4.197-2.3583 7.429-4.1202 9.775-4.9375.601-.2095-.106 15.713 12.225 27.311zm48 11.1285V481.421c-3.876.096-7.834.146-11.867.146-3.422 0-6.801-.04-10.133-.118V57.0258c3.221.4196 6.718.6467 10.517.6467 4.179 0 7.996-.2466 11.483-.7006zm48-32.9577V477.812c-6.825.865-14.177 1.642-22 2.261V46.0886c12.511-11.6196 10.626-27.7752 11.22-27.5698 2.525.8721 6.085 2.8506 10.78 5.4954zm46 21.6163V469.388c-5.351 1.336-12.781 3.025-22 4.716V36.6077c5.303 2.4734 11.191 4.9931 17.698 7.4198 1.457.5433 2.891 1.0774 4.302 1.603zM113.823 94.4356c7.258 9.1944 12.408 20.3524 16.06 31.7334L78.5799 236.438c-9.412-2.901-18.145-6.894-25.5916-11.248L113.823 94.4355v.0001zm271.468 0v-.0001L446.126 225.19c-7.447 4.354-16.18 8.347-25.592 11.248L369.23 126.169c3.653-11.381 8.803-22.539 16.061-31.7334z" fill="#3D3D3D"/><path fill-rule="evenodd" clip-rule="evenodd" d="M249.577 63.7516c51.478 0 58.278-35.895 58.278-40.38-5.772-3.24-9.728-5.345-12.008-5.345 0 0 5.882 32.495-46.335 32.495-48.52 0-46.335-32.495-46.335-32.495-2.28 0-6.236 2.105-12.003 5.345 0 0 7.368 40.38 58.403 40.38z" fill="#F2F2F2"/><path fill-rule="evenodd" clip-rule="evenodd" d="M413.585 238.323c-9.288 2.238-19.065 3.316-28.798 2.592-8.198-22.369-15.557-36.883-20.013-44.748v270.577s-21.102 6.71-55.866 11.111l-.544-.06c1.881-54.795 5.722-166.47 8.276-240.705 2.056-59.755 31.085-95.29 60.099-117.44-2.675 6.781-5.071 14.606-6.999 23.667 7.354 11.852 24.436 42.069 43.831 94.964.005.014.01.028.014.042zM190.717 477.795c-34.248-4.401-56.476-11.051-56.476-11.051V196.172c-4.456 7.867-11.814 22.379-20.01 44.743-9.633.716-19.3084-.332-28.5103-2.524a1.056 1.056 0 01.0199-.096c19.3774-52.848 36.3054-83.066 43.6094-94.944-1.929-9.075-4.327-16.912-7.006-23.701 29.014 22.15 58.044 57.685 60.099 117.44 2.554 74.235 6.396 185.91 8.276 240.705h-.002z" fill="#000" fill-opacity=".08"/><path fill-rule="evenodd" clip-rule="evenodd" d="M309.05 122c-2.702 3.283-3.896 4.589-9.791 4.279-.304 4.572-1.97 6.875-7.375 8.333.934 3.665 1.987 7.792-2.883 9.892.76 6.139 4.594 8.596 4.594 8.596 1.608 8.294 14 9 15.455 11.73 1.545-2.73 12.715-3.403 14.329-11.73 0 0 4.955-2.457 5.715-8.596-4.87-2.1-3.817-6.227-2.883-9.892-5.405-1.458-7.071-3.761-7.375-8.333-5.839.31-7.106-.957-9.786-4.279z" fill="#F2F2F2"/><path fill-rule="evenodd" clip-rule="evenodd" d="M309.004 124c-2.427 2.989-3.499 4.178-8.792 3.897-.273 4.162-1.769 6.259-6.623 7.587.84 3.338 1.785 7.096-2.588 9.008.682 5.589 4.125 7.827 4.125 7.827 1.443 7.553 12.571 8.195 13.878 10.681 1.386-2.486 11.416-3.098 12.866-10.681 0 0 4.449-2.238 5.131-7.827-4.373-1.912-3.428-5.67-2.588-9.008-4.854-1.328-6.35-3.425-6.623-7.587-5.243.281-6.38-.872-8.786-3.897z" fill="#3D3D3D"/><circle cx="309.001" cy="144" r="9" fill="#F2F2F2"/></svg>