<?xml version="1.0" encoding="UTF-8"?><svg width="500" height="500" viewBox="0 0 500 500" fill="none" xmlns="http://www.w3.org/2000/svg"><path fill-rule="evenodd" clip-rule="evenodd" d="M203.006 109.193h93.643V21.8979h-93.643v87.2951z" fill="#D9D9D9"/><path fill-rule="evenodd" clip-rule="evenodd" d="M202.866 32.198h93.459v-14.2h-93.459v14.2z" fill="#E35536"/><path fill-rule="evenodd" clip-rule="evenodd" d="M87.5505 75.26s-40.7628 72.8-58.5476 127.77c4.445 13.375 45.2078 40.86 85.2321 37.885 13.34-36.4 24.46-52 24.46-52S141.658 93.83 87.5505 75.26zm323.9255 0s40.763 72.8 58.547 127.77c-4.445 13.375-45.207 40.86-85.232 37.885-13.34-36.4-24.459-52-24.459-52S357.368 93.83 411.476 75.26z" fill="#3D3D3D"/><path fill-rule="evenodd" clip-rule="evenodd" d="M249.514 57.7057c-50.081 0-47.798-39.4691-48.742-39.14-7.516 2.6186-24.133 14.9368-52.439 25.495-31.873 11.885-52.6257 19.315-60.7822 31.2 11.1148 8.915 46.6942 28.9703 46.6942 120.3453v271.14s49.658 14.855 114.885 14.855c68.929 0 115.649-14.855 115.649-14.855v-271.14c0-91.375 35.579-111.4303 46.699-120.3453-8.157-11.885-28.91-19.315-60.783-31.2-28.359-10.5767-44.981-22.9195-52.478-25.5087-.927-.3203 4.178 39.1537-48.703 39.1537z" fill="#3D3D3D"/><path fill-rule="evenodd" clip-rule="evenodd" d="M293.733 37.2608c45.26 11.3355 71.506 39.3368 71.506 67.9812v72.909c-.301 5.499-.461 11.3-.461 17.422v271.14s-46.719 14.855-115.648 14.855c-65.228 0-114.885-14.855-114.885-14.855v-271.14c0-6.262-.167-12.189-.482-17.8v-72.531c0-28.836 26.598-57.0201 72.416-68.202 5.596 10.1263 17.496 20.6327 43.335 20.6327 27.081 0 38.955-10.353 44.219-20.4119zM119.982 226.098c-1.849 4.494-3.775 9.427-5.75 14.816-40.0243 2.975-80.7871-24.51-85.232-37.885 1.7572-5.431 3.7388-11.037 5.8832-16.729 10.2695 10.965 22.7409 19.794 37.4143 26.489 14.6578 6.687 30.5525 11.124 47.6845 13.309zm259.223 0c17.132-2.185 33.027-6.622 47.684-13.309 14.674-6.695 27.145-15.524 37.415-26.489 2.144 5.692 4.126 11.298 5.883 16.729-4.445 13.375-45.208 40.86-85.232 37.885-1.975-5.389-3.901-10.322-5.75-14.816z" fill="#F55F3E"/><path fill-rule="evenodd" clip-rule="evenodd" d="M249.577 63.7516c51.478 0 58.278-35.895 58.278-40.38-5.772-3.24-9.728-5.345-12.008-5.345 0 0 5.882 32.495-46.335 32.495-48.52 0-46.335-32.495-46.335-32.495-2.28 0-6.236 2.105-12.003 5.345 0 0 7.368 40.38 58.403 40.38z" fill="#F55F3E"/><path fill-rule="evenodd" clip-rule="evenodd" d="M413.584 238.323c-9.288 2.238-19.065 3.316-28.798 2.592-8.198-22.369-15.557-36.883-20.013-44.748v270.577s-21.102 6.71-55.866 11.111l-.544-.06c1.881-54.795 5.722-166.47 8.276-240.705 2.056-59.755 31.085-95.29 60.099-117.44-2.675 6.781-5.071 14.606-6.999 23.667 7.354 11.852 24.436 42.069 43.831 94.964.005.014.01.028.014.042zM190.716 477.795c-34.248-4.401-56.476-11.051-56.476-11.051V196.172c-4.456 7.867-11.814 22.379-20.01 44.743-9.633.716-19.3084-.332-28.5103-2.524a1.056 1.056 0 01.0199-.096c19.3774-52.848 36.3054-83.066 43.6094-94.944-1.928-9.075-4.327-16.912-7.006-23.701 29.014 22.15 58.044 57.685 60.099 117.44 2.554 74.235 6.396 185.91 8.276 240.705h-.002z" fill="#000" fill-opacity=".1"/><path d="M296 122.913S302 121 309 121s13 1.913 13 1.913 2 4.783 2 17.217c0 12.435-15 24.87-15 24.87s-15-13.391-15-24.87c0-11.478 2-17.217 2-17.217z" fill="#3D3D3D"/><path d="M322 137.652C323 149.826 309 159 309 159s-14-9.957-13-21.348h26z" fill="#FF8946"/><path fill="#5D5D5D" d="M296 132h26v4h-26z"/><path d="M296 123.48s6.5 0 13-1 13 1 13 1v7h-26v-7z" fill="#3D3D3D"/><path d="M312 123.48c2.5 0 10 .52 10 .52v-.52s-6.5-2-13-1c-1.353.208-2.706.373-4 .503-1.049.106-2.059.189-3 .255-3.476.242-6 .242-6 .242v7h9v-2.365c2.385-.282 5.692-.615 8-.615 2.653 0 6.625.22 9 .368v-1.618c-2.473-.297-6.643-.75-9-.75-2.062 0-5.513.347-8 .632v-2.015c2.38-.29 5.541-.637 7-.637zm10 7v-.786c-2.468-.005-6.788.033-9.177.317-.79.093-1.779.263-2.837.469H322z" fill="#E4E4E4"/><circle cx="298" cy="124.75" r=".5" fill="#3D3D3D"/><circle cx="298" cy="129.25" r=".5" fill="#3D3D3D"/><circle cx="299" cy="127" r=".5" fill="#3D3D3D"/><circle cx="300.5" cy="124.75" r=".5" fill="#3D3D3D"/><circle cx="300.5" cy="129.25" r=".5" fill="#3D3D3D"/><circle cx="302" cy="127" r=".5" fill="#3D3D3D"/><circle cx="303" cy="124.75" r=".5" fill="#3D3D3D"/><circle cx="303" cy="129.25" r=".5" fill="#3D3D3D"/></svg>