<?xml version="1.0" encoding="utf-8"?><svg width="500" height="500" viewBox="0 0 500 500" fill="none" xmlns="http://www.w3.org/2000/svg"><path fill-rule="evenodd" clip-rule="evenodd" d="M203.003 109.223h93.644V21.928h-93.644v87.295Z" fill="#CFCFCF"/><path fill-rule="evenodd" clip-rule="evenodd" d="M202.864 32.228h93.458v-14.2h-93.458v14.2Z" fill="#3053AD"/><path fill-rule="evenodd" clip-rule="evenodd" d="M87.547 75.258S46.785 148.058 29 203.028c4.445 13.375 45.208 40.86 85.232 37.885 13.34-36.4 24.46-52 24.46-52s2.963-95.085-51.145-113.655Zm323.925 0s40.763 72.8 58.548 127.77c-4.445 13.375-45.208 40.86-85.232 37.885-13.34-36.4-24.46-52-24.46-52s-2.963-95.085 51.144-113.655Z" fill="#F2F2F2"/><path fill-rule="evenodd" clip-rule="evenodd" d="M249.511 57.703c-50.082 0-47.798-39.47-48.743-39.14-7.516 2.618-24.132 14.936-52.438 25.494-31.873 11.886-52.626 19.316-60.783 31.2 11.115 8.915 46.695 28.97 46.695 120.345v271.14s49.657 14.856 114.885 14.856c68.929 0 115.648-14.856 115.648-14.856v-271.14c0-91.375 35.58-111.43 46.699-120.345-8.156-11.885-28.909-19.315-60.782-31.2-28.36-10.576-44.982-22.919-52.478-25.508-.927-.32 4.177 39.154-48.703 39.154Z" fill="#F2F2F2"/><path fill-rule="evenodd" clip-rule="evenodd" d="M467.353 195.129a339.495 339.495 0 0 1 2.667 7.899c-4.445 13.375-45.208 40.86-85.232 37.885a431.342 431.342 0 0 0-2.835-7.519c20.795-1.358 37.993-5.637 51.594-12.837 13.428-7.109 24.697-15.585 33.806-25.428Zm-435.698.036c9.103 9.828 20.36 18.291 33.772 25.392 13.611 7.205 30.824 11.485 51.639 12.84a420.297 420.297 0 0 0-2.834 7.517c-40.024 2.975-80.787-24.51-85.232-37.885.836-2.585 1.723-5.21 2.655-7.864Zm276.196-171.82c-5.772-3.24-9.728-5.345-12.007-5.345 0 0 5.881 32.495-46.336 32.495-48.52 0-46.335-32.495-46.335-32.495-2.28 0-6.236 2.105-12.003 5.345 0 0 7.369 40.38 58.403 40.38 51.479 0 58.278-35.895 58.278-40.38Z" fill="#3B60C1"/><path fill-rule="evenodd" clip-rule="evenodd" d="M413.584 238.323c-9.287 2.238-19.064 3.316-28.797 2.592-8.198-22.369-15.558-36.883-20.013-44.748v270.577s-21.102 6.71-55.866 11.111l-.544-.06c1.88-54.795 5.722-166.47 8.276-240.705 2.055-59.755 31.085-95.29 60.099-117.44-2.675 6.781-5.072 14.606-6.999 23.667 7.354 11.852 24.435 42.069 43.83 94.964l.014.042ZM190.717 477.795c-34.248-4.401-56.476-11.051-56.476-11.051V196.172c-4.456 7.867-11.814 22.379-20.01 44.743-9.633.716-19.309-.332-28.51-2.524a.547.547 0 0 1 .02-.096c19.376-52.848 36.305-83.066 43.609-94.944-1.929-9.075-4.328-16.912-7.006-23.701 29.014 22.15 58.043 57.685 60.099 117.44 2.554 74.235 6.395 185.91 8.276 240.705h-.002Z" fill="#000" fill-opacity=".06"/><path d="M291 120h36v31.6a4.03 4.03 0 0 1-1.898 3.415C320.97 157.599 311.339 163.711 309 166c-2.339-2.289-11.97-8.401-16.102-10.985A4.03 4.03 0 0 1 291 151.6V120Z" fill="#3B60C1"/><path d="M293 122h32v28.69a4.023 4.023 0 0 1-1.852 3.386c-3.759 2.417-12.1 7.865-14.148 9.924-2.048-2.059-10.389-7.507-14.148-9.924A4.023 4.023 0 0 1 293 150.69V122Z" fill="#F2F2F2"/><path d="M295 124h28v25.787c0 1.35-.679 2.608-1.804 3.356-3.369 2.243-10.436 7.028-12.196 8.857-1.76-1.829-8.827-6.614-12.196-8.857a4.032 4.032 0 0 1-1.804-3.356V124Z" fill="#3B60C1"/><path fill="#C2CDEA" d="M296 125h26v6h-26z"/><path d="M310.692 140.293 314 135l-5 2.4-5-2.4 3.308 5.293a5.02 5.02 0 0 0-2.806 2.521L300 140l2.4 5-2.4 5 4.502-2.814a5.02 5.02 0 0 0 2.806 2.521L304 155l5-2.4 5 2.4-3.308-5.293a5.02 5.02 0 0 0 2.806-2.521L318 150l-2.4-5 2.4-5-4.502 2.814a5.02 5.02 0 0 0-2.806-2.521Z" fill="#F2F2F2"/></svg>