<?xml version="1.0" encoding="UTF-8"?><svg width="500" height="500" viewBox="0 0 500 500" fill="none" xmlns="http://www.w3.org/2000/svg"><path fill-rule="evenodd" clip-rule="evenodd" d="M203.006 109.193h93.643V21.8979h-93.643v87.2951z" fill="#D0D0D0"/><path fill-rule="evenodd" clip-rule="evenodd" d="M202.866 32.198h93.459v-14.2h-93.459v14.2z" fill="#E3E3E3"/><path fill-rule="evenodd" clip-rule="evenodd" d="M87.5505 75.2603S46.7877 148.06 29.0029 203.03c4.445 13.375 45.2078 40.86 85.2321 37.885 13.34-36.4 24.46-52 24.46-52s2.963-95.0847-51.1445-113.6547zm323.9255 0S452.239 148.06 470.023 203.03c-4.445 13.375-45.207 40.86-85.232 37.885-13.34-36.4-24.459-52-24.459-52s-2.964-95.0847 51.144-113.6547z" fill="#F2F2F2"/><path fill-rule="evenodd" clip-rule="evenodd" d="M249.514 57.7054c-50.081 0-47.798-39.4691-48.742-39.14-7.516 2.6187-24.133 14.9368-52.439 25.495-31.873 11.885-52.6257 19.315-60.7822 31.2 11.1148 8.915 46.6942 28.9696 46.6942 120.3446v271.14S183.903 481.6 249.13 481.6c68.929 0 115.649-14.855 115.649-14.855v-271.14c0-91.375 35.579-111.4296 46.699-120.3446-8.157-11.885-28.91-19.315-60.783-31.2-28.359-10.5767-44.981-22.9194-52.478-25.5087-.927-.3202 4.178 39.1537-48.703 39.1537z" fill="#F2F2F2"/><path fill-rule="evenodd" clip-rule="evenodd" d="M202.866 32.1982h93.459v-7h-93.459v7z" fill="#303030"/><path fill-rule="evenodd" clip-rule="evenodd" d="M100.037 81.6994a52.1423 52.1423 0 00-3.3914-1.9109c8.5394-11.2398 28.6594-18.5704 59.0414-30.0765 19.302-7.312 33.083-15.4682 42.191-20.6621a18.7098 18.7098 0 01-.009-.0504c1.212-.6917 2.343-1.3316 3.394-1.9104l1.73 3.2145c-9.03 5.0642-23.459 13.9728-44.362 21.8915-29.863 11.3097-49.812 18.5852-58.594 29.5043zM89.9453 76.913c8.0311-11.886 28.4647-19.316 59.8477-31.201 19.301-7.312 33.083-15.4682 42.191-20.6621a1.8087 1.8087 0 01-.01-.0504l.024-.0137 1.738 3.2283c-9.103 5.2076-22.521 12.9811-40.999 19.981-30.458 11.5351-50.603 18.8736-59.1057 30.1614l-3.686-1.4435zm312.2357 2.8782a52.1624 52.1624 0 00-3.391 1.9112c-8.781-10.9206-28.73-18.1965-58.596-29.5071-20.204-7.6539-34.36-16.2328-43.438-21.3709l1.584-3.304c.826.4607 1.698.9551 2.617 1.4793 0 0-.004.017-.01.0504 9.108 5.1938 22.889 13.35 42.191 20.6621 30.384 11.5069 50.505 18.8378 59.043 30.079zm6.7-2.876c-1.26.4392-2.488.9212-3.686 1.4437-8.501-11.2891-28.646-18.6278-59.107-30.1636-18.275-6.9233-31.602-14.6034-40.698-19.8092l1.413-3.4139.048.0275s-.003.017-.01.0504c9.108 5.1938 22.89 13.35 42.191 20.6621 31.383 11.885 51.817 19.315 59.848 31.2v.001s0 .0007.001.002z" fill="#3D3D3D"/><path fill-rule="evenodd" clip-rule="evenodd" d="M249.577 63.7514c51.478 0 58.278-35.895 58.278-40.38-5.772-3.24-9.728-5.345-12.008-5.345 0 0 5.882 32.495-46.335 32.495-48.52 0-46.335-32.495-46.335-32.495-2.28 0-6.236 2.105-12.003 5.345 0 0 7.368 40.38 58.403 40.38z" fill="#3D3D3D"/><path fill-rule="evenodd" clip-rule="evenodd" d="M413.584 238.323c-9.288 2.238-19.065 3.316-28.798 2.592-8.198-22.369-15.557-36.883-20.013-44.748v270.577s-21.102 6.71-55.866 11.111l-.544-.06c1.881-54.795 5.722-166.47 8.276-240.705 2.056-59.755 31.085-95.29 60.099-117.44-2.675 6.781-5.071 14.606-6.999 23.667 7.354 11.852 24.436 42.069 43.831 94.964.005.014.01.028.014.042zM190.716 477.795c-34.248-4.401-56.476-11.051-56.476-11.051V196.172c-4.456 7.867-11.814 22.379-20.01 44.743-9.633.716-19.3084-.332-28.5103-2.524a1.056 1.056 0 01.0199-.096c19.3774-52.848 36.3054-83.066 43.6094-94.944-1.928-9.075-4.327-16.912-7.006-23.701 29.014 22.15 58.044 57.685 60.099 117.44 2.554 74.235 6.396 185.91 8.276 240.705h-.002z" fill="#000" fill-opacity=".06"/><path fill-rule="evenodd" clip-rule="evenodd" d="M293.003 120.998s7.995-2 15.997-2c8.001 0 16.003 2 16.003 2V147c0 10-16.003 19.998-16.003 19.998S293.003 157 293.003 147v-26.002z" fill="#000"/><path fill-rule="evenodd" clip-rule="evenodd" d="M301 121.613c.737-.122 3.968-.62 8-.615 4.033.005 7.213.504 8 .636L316.996 159c-3.965 3.973-7.996 5.998-7.996 5.998s-3.996-1.995-8-5.998v-37.387z" fill="#fff"/><path d="M303.003 140.998l8.183-8 3.817 3.221m-12-2.221l8.183-8 3.817 3.221" stroke="#CD0000" stroke-width="2"/><path d="M314.483 150.445c.341-.764.52-1.594.52-2.447 0-3.314-2.686-6-6-6s-6 2.686-6 6 2.686 6 6 6c1.041 0 2.045-.266 2.934-.765l-1.404-1.473c-.591.333-.834.238-1.53.238-2.209 0-4-1.791-4-4s1.791-4 4-4 4 1.791 4 4c0 .571.068.711-.159 1.219l1.639 1.228z" fill="#CD0000"/></svg>