<?xml version="1.0" encoding="UTF-8"?><svg width="500" height="500" viewBox="0 0 500 500" fill="none" xmlns="http://www.w3.org/2000/svg"><path fill-rule="evenodd" clip-rule="evenodd" d="M203.003 109.223h93.644V21.928h-93.644v87.295z" fill="#BCBFC7"/><path fill-rule="evenodd" clip-rule="evenodd" d="M202.864 32.228h93.458v-14.2h-93.458v14.2z" fill="#D6DAE3"/><path fill-rule="evenodd" clip-rule="evenodd" d="M87.5475 75.2585S46.7848 148.058 29 203.028c4.4449 13.375 45.2077 40.86 85.232 37.885 13.34-36.4 24.46-52 24.46-52s2.963-95.0845-51.1445-113.6545zm323.9245 0s40.763 72.7995 58.548 127.7695c-4.445 13.375-45.208 40.86-85.232 37.885-13.34-36.4-24.46-52-24.46-52s-2.963-95.0845 51.144-113.6545z" fill="#203A76"/><path fill-rule="evenodd" clip-rule="evenodd" d="M249.511 57.7025c-50.082 0-47.798-39.4691-48.743-39.14-7.516 2.6187-24.132 14.9368-52.438 25.495-31.873 11.885-52.6261 19.315-60.7826 31.2 11.1148 8.915 46.6946 28.9695 46.6946 120.3445v271.14s49.657 14.856 114.885 14.856c68.929 0 115.648-14.856 115.648-14.856v-271.14c0-91.375 35.58-111.4295 46.699-120.3445-8.156-11.885-28.909-19.315-60.782-31.2-28.36-10.5767-44.982-22.9195-52.478-25.5087-.927-.3203 4.177 39.1537-48.703 39.1537z" fill="#203A76"/><path fill-rule="evenodd" clip-rule="evenodd" d="M249.509 50.495c23.731 0 35.462-6.7117 41.199-14.0345l3.192.8393c29.537 7.3957 50.982 21.917 62.326 39.0953l-3.269 393.5169c-17.021 4.118-51.384 10.876-95.941 11.621-2.595.042-5.226.065-7.889.065-47.614 0-86.932-7.916-104.694-12.191l-.672-393.4418c11.242-16.7321 32.103-30.8938 60.711-38.3223l5.219-1.3266c6.037 7.3787 17.622 14.1787 39.818 14.1787z" fill="#E4E7EE"/><path fill-rule="evenodd" clip-rule="evenodd" d="M249.511 57.7025c-50.082 0-47.798-39.4691-48.743-39.14-7.516 2.6187-24.132 14.9368-52.438 25.495-31.873 11.885-52.6261 19.315-60.7826 31.2 11.1148 8.915 46.6946 28.9695 46.6946 120.3445v271.14s49.657 14.856 114.885 14.856c68.929 0 115.648-14.856 115.648-14.856v-271.14c0-91.375 35.58-111.4295 46.699-120.3445-8.156-11.885-28.909-19.315-60.782-31.2-28.36-10.5767-44.982-22.9195-52.478-25.5087-.927-.3203 4.177 39.1537-48.703 39.1537z" fill="#203A76"/><path fill-rule="evenodd" clip-rule="evenodd" d="M470.129 203.202c-4.445 13.375-45.208 40.86-85.233 37.885-.957-2.614-1.903-5.12-2.835-7.52 20.795-1.358 37.993-5.637 51.594-12.837 13.429-7.109 24.697-15.585 33.806-25.428.936 2.667 1.828 5.303 2.668 7.9zm-438.4743-7.9c9.1031 9.828 20.3606 18.291 33.7724 25.392 13.6109 7.205 30.8241 11.485 51.6389 12.84-.931 2.399-1.877 4.904-2.834 7.516-40.0243 2.975-80.7871-24.51-85.232-37.885.8363-2.584 1.7234-5.209 2.6547-7.863z" fill="#203A76"/><path fill-rule="evenodd" clip-rule="evenodd" d="M307.851 23.345c-5.772-3.24-9.728-5.345-12.007-5.345 0 0 5.881 32.495-46.336 32.495-48.52 0-46.335-32.495-46.335-32.495-2.28 0-6.236 2.105-12.003 5.345 0 0 7.369 40.38 58.403 40.38 51.479 0 58.278-35.895 58.278-40.38z" fill="#E4E7EE"/><path fill-rule="evenodd" clip-rule="evenodd" d="M413.584 238.323c-9.287 2.238-19.064 3.316-28.797 2.592-8.198-22.369-15.558-36.883-20.013-44.748v270.577s-21.102 6.71-55.866 11.111l-.544-.06c1.88-54.795 5.722-166.47 8.276-240.705 2.055-59.755 31.085-95.29 60.099-117.44-2.675 6.781-5.072 14.606-6.999 23.667 7.354 11.852 24.435 42.069 43.83 94.964.005.014.01.028.014.042zM190.717 477.795c-34.248-4.401-56.476-11.051-56.476-11.051V196.172c-4.456 7.867-11.814 22.379-20.01 44.743-9.633.716-19.3089-.332-28.5108-2.523.0051-.032.0117-.065.0199-.097 19.3769-52.848 36.3059-83.066 43.6099-94.944-1.929-9.075-4.328-16.912-7.006-23.701 29.014 22.15 58.043 57.685 60.099 117.44 2.554 74.235 6.395 185.91 8.276 240.705h-.002z" fill="#000" fill-opacity=".1"/><path fill="#E4E7EE" d="M284 118h50v50h-50z"/><path d="M305.208 161.75v-2.414l-4.168-.493v-14.337h16.86v14.337l-3.927.493v2.414h14.67v-2.414l-3.784-.493v-30.645l3.784-.592v-2.463h-14.622v2.463l3.879.592v13.253h-16.86v-13.253l4.12-.592v-2.463h-14.814v2.463l3.784.592v30.645l-3.88.493v2.414h14.958z" fill="#203A76"/><path fill-rule="evenodd" clip-rule="evenodd" d="M321.5 155.5c.74 0 1.339-.6 1.339-1.339 0-.74-.599-1.34-1.339-1.34s-1.339.6-1.339 1.34c0 .739.599 1.339 1.339 1.339zm0-5.357c.74 0 1.339-.6 1.339-1.339 0-.74-.599-1.34-1.339-1.34s-1.339.6-1.339 1.34c0 .739.599 1.339 1.339 1.339zm0-5.357c.74 0 1.339-.6 1.339-1.34 0-.739-.599-1.339-1.339-1.339s-1.339.6-1.339 1.339c0 .74.599 1.34 1.339 1.34zm0-5.357c.74 0 1.339-.6 1.339-1.34 0-.739-.599-1.339-1.339-1.339s-1.339.6-1.339 1.339c0 .74.599 1.34 1.339 1.34zm0-5.358c.74 0 1.339-.599 1.339-1.339 0-.739-.599-1.339-1.339-1.339s-1.339.6-1.339 1.339c0 .74.599 1.339 1.339 1.339z" fill="#E4E7EE"/><path fill="#E4E7EE" d="M296.5 127.821h1.7857v31.25H296.5z"/></svg>