<?xml version="1.0" encoding="UTF-8"?><svg height="500" viewBox="0 0 500 500" width="500" xmlns="http://www.w3.org/2000/svg"><g fill="none" fill-rule="evenodd"><path d="M0 0h500v500H0z"/><path d="M203.006 109.193h93.643V21.898h-93.643z" fill="#8a282a"/><path d="M202.867 32.198h93.458v-14.2h-93.458z" fill="#9b292b"/><g fill="#bd3d3f"><path d="M87.55 75.26s-40.762 72.8-58.547 127.77c4.445 13.375 45.208 40.86 85.232 37.885 13.34-36.4 24.46-52 24.46-52S141.658 93.83 87.55 75.26M411.476 75.26s40.762 72.8 58.547 127.77c-4.445 13.375-45.208 40.86-85.232 37.885-13.34-36.4-24.46-52-24.46-52S357.368 93.83 411.476 75.26"/><path d="M249.514 57.706c-50.082 0-47.798-39.47-48.742-39.14-7.516 2.618-24.133 14.936-52.439 25.495-31.873 11.885-52.626 19.315-60.782 31.2 11.114 8.915 46.694 28.97 46.694 120.345v271.14S183.903 481.6 249.13 481.6c68.929 0 115.648-14.855 115.648-14.855v-271.14c0-91.375 35.58-111.43 46.7-120.345-8.157-11.885-28.91-19.315-60.783-31.2-28.36-10.577-44.982-22.92-52.478-25.511-.927-.318 4.177 39.156-48.703 39.156z"/></g><path d="M470.129 203.202c-4.445 13.375-45.208 40.86-85.232 37.885a426.404 426.404 0 0 0-2.836-7.52c20.795-1.358 37.993-5.637 51.595-12.837 13.428-7.11 24.696-15.585 33.805-25.428a337.728 337.728 0 0 1 2.668 7.9zM65.427 220.694c13.611 7.205 30.824 11.485 51.64 12.84-.932 2.4-1.878 4.904-2.835 7.516-40.024 2.975-80.787-24.51-85.232-37.885a338.673 338.673 0 0 1 2.654-7.862c9.104 9.827 20.361 18.29 33.773 25.39zM249.576 63.752c51.479 0 58.279-35.895 58.279-40.38-5.772-3.24-9.728-5.345-12.008-5.345 0 0 5.881 32.495-46.335 32.495-48.52 0-46.336-32.495-46.336-32.495-2.28 0-6.235 2.105-12.002 5.345 0 0 7.368 40.38 58.402 40.38" fill="#ad2e30"/><path d="M283 117c15.333-.667 24-2.667 26-6 2 3.333 10.667 5.333 26 6 0 20.667-8.667 38-26 52-17.333-14-26-31.333-26-52z" fill="#fff"/><path d="M285 118.586c14.154-.62 22.154-2.483 24-5.586 1.846 3.103 9.846 4.966 24 5.586 0 19.242-8 35.38-24 48.414-16-13.034-24-29.172-24-48.414z" fill="#be2f28"/><path d="M287 120.172c12.974-.574 20.308-2.298 22-5.172 1.692 2.874 9.026 4.598 22 5.172 0 17.817-7.333 32.759-22 44.828-14.667-12.069-22-27.011-22-44.828z" fill="#fff"/><circle cx="309" cy="143" fill="#b8b8b8" r="12"/><path d="M301.611 135c2.463 1.37 4.926 2.056 7.389 2.056s4.926-.686 7.389-2.056c0 4.926-2.463 11.593-7.389 20-4.926-8.407-7.389-15.074-7.389-20z" fill="#fff"/><path d="M301.611 135c2.463 1.37 4.926 2.056 7.389 2.056V155c-4.926-8.407-7.389-15.074-7.389-20z" fill="#b72329"/><path d="M309 132.34c-1.136.006-1.672-.62-1.609-1.877-7.516-1.828-12.706-4.109-15.569-6.842h10.366a5 5 0 0 1 3.19 1.15c.677.56 1.48.841 2.41.841.369-.204.369-.586 0-1.144-.627-.95-.732-.818-1.765-1.628.37-.147.826-.175 1.368-.086.929.196 1.89 1.148 2.883 2.857.928-.01 1.728-.291 2.4-.846a5 5 0 0 1 3.183-1.144h10.32c-2.862 2.733-8.048 5.012-15.556 6.837.055 1.249-.485 1.876-1.621 1.882z" fill="#d29b09"/><path d="M310.998 131.655c1.236-.052 2.14-.116 4.519-.304 2.132-.168 3.211-.243 4.503-.298 2.71-.115 4.933.845 6.621 2.864l.117.14v5.278l-.905-1.25c-1.271-1.755-3.184-2.583-5.797-2.488-1.43.052-2.521.13-4.538.305l-.674.059c-2.417.208-3.907.293-5.844.293-1.514 0-2.673-.108-4.762-.39a91.488 91.488 0 0 0-1.372-.18c-1.865-.228-3.228-.27-4.777-.088-2.566.303-4.56 1.157-5.998 2.555l-.849.825v-4.91l.106-.136c1.21-1.55 3.42-2.494 6.611-2.871 2.335-.276 3.938-.179 6.942.252l.91.13c1.293.177 2.214.258 3.189.258.639 0 1.299-.015 1.998-.044zm14.76 2.767c-1.47-1.684-3.355-2.469-5.695-2.37-1.277.055-2.347.129-4.467.296-2.392.19-3.303.253-4.556.306-.713.03-1.387.045-2.04.045-1.029 0-1.99-.085-3.325-.268l-.916-.13c-2.925-.42-4.454-.512-6.683-.249-2.85.337-4.79 1.136-5.834 2.364v2.292c1.504-1.131 3.417-1.832 5.73-2.105 1.64-.194 3.078-.148 5.015.088.369.046.455.057 1.384.182 2.048.276 3.171.38 4.629.38 1.902 0 3.367-.082 5.758-.288l.673-.059c2.033-.177 3.138-.256 4.589-.309 2.384-.086 4.308.538 5.738 1.873z" fill="#000" fill-rule="nonzero"/><path d="M291.742 134.238c1.114-1.426 3.206-2.32 6.276-2.682 4.605-.545 7.368.643 10.982.643v3.555c-4.282 0-6.964-1.127-10.97-.654-2.67.315-4.765 1.213-6.288 2.692z" fill="#00774b"/><path d="M326.258 134.238c-1.588-1.898-3.66-2.793-6.217-2.685-3.835.163-7.408.646-11.041.646v3.555c4.306 0 6.88-.505 11.038-.657 2.772-.1 4.845.798 6.22 2.695z" fill="#b72329"/><path d="M413.584 238.323c-9.287 2.238-19.064 3.316-28.798 2.592-8.197-22.369-15.557-36.883-20.012-44.748v270.577s-21.102 6.71-55.867 11.11l-.544-.059c1.881-54.795 5.722-166.47 8.277-240.705 2.055-59.755 31.084-95.29 60.099-117.44-2.676 6.78-5.072 14.606-7 23.667 7.354 11.852 24.436 42.069 43.831 94.964l.014.042zM190.717 477.795c-34.248-4.401-56.477-11.05-56.477-11.05V196.171c-4.456 7.867-11.813 22.38-20.01 44.743-9.632.716-19.308-.332-28.51-2.523.005-.033.012-.065.02-.097 19.377-52.848 36.305-83.066 43.61-94.944-1.93-9.075-4.328-16.912-7.007-23.701 29.015 22.15 58.044 57.685 60.1 117.44 2.554 74.235 6.395 185.91 8.276 240.705z" fill="#000" fill-opacity=".1"/></g></svg>