<?xml version="1.0" encoding="utf-8"?><svg width="500" height="500" viewBox="0 0 500 500" fill="none" xmlns="http://www.w3.org/2000/svg"><path fill-rule="evenodd" clip-rule="evenodd" d="M203.006 109.193h93.643V21.898h-93.643v87.295z" fill="#BABABA"/><path fill-rule="evenodd" clip-rule="evenodd" d="M202.866 31.198h93.459v-13.2h-93.459v13.2z" fill="#D9D9D9"/><path fill-rule="evenodd" clip-rule="evenodd" d="M87.5505 75.26s-40.7628 72.8-58.5476 127.77c4.445 13.375 45.2078 40.86 85.2321 37.885 13.34-36.4 24.46-52 24.46-52S141.658 93.83 87.5505 75.26zm323.9255 0s40.763 72.8 58.547 127.77c-4.445 13.375-45.207 40.86-85.232 37.885-13.34-36.4-24.459-52-24.459-52S357.368 93.83 411.476 75.26z" fill="#3D4B7E"/><path fill-rule="evenodd" clip-rule="evenodd" d="M249.514 57.7056c-50.081 0-47.798-39.4691-48.742-39.14-7.516 2.6187-24.133 14.9368-52.439 25.495-31.873 11.885-52.6257 19.315-60.7822 31.2 11.1148 8.915 46.6942 28.9704 46.6942 120.3454v271.14s49.658 14.855 114.885 14.855c68.929 0 115.649-14.855 115.649-14.855v-271.14c0-91.375 35.579-111.4304 46.699-120.3454-8.157-11.885-28.91-19.315-60.783-31.2-28.359-10.5767-44.981-22.9194-52.478-25.5087-.927-.3203 4.178 39.1537-48.703 39.1537z" fill="#B9354D"/><path d="M409.972 73.2831c-8.72-10.3868-27.811-17.4993-56.158-28.0606-1.027-.3827-2.067-.77-3.119-1.1621-18.296-6.8237-31.707-14.3824-40.934-19.5828-5.075-2.8603-8.884-5.0071-11.544-5.9259-.109-.0378-.134.4769-.181 1.4143-.348 7.0188-1.871 37.7394-48.522 37.7394-43.924 0-47.568-30.3612-48.437-37.6042-.122-1.0153-.189-1.5763-.305-1.5359-2.659.9265-6.458 3.0672-11.51 5.9145-9.227 5.2003-22.638 12.7579-40.929 19.5806-1.051.3921-2.091.7794-3.118 1.1622-28.433 10.5929-47.5531 17.7164-56.2365 28.1543 0 0 117.8885-14.404 161.0215-14.377 42.721.0268 159.972 14.2832 159.972 14.2832z" fill="#3D4B7E"/><path fill-rule="evenodd" clip-rule="evenodd" d="M249.577 63.7515c51.478 0 58.278-35.895 58.278-40.38-5.772-3.24-9.728-5.345-12.008-5.345 0 0 5.882 32.495-46.335 32.495-48.52 0-46.335-32.495-46.335-32.495-2.28 0-6.236 2.105-12.003 5.345 0 0 7.368 40.38 58.403 40.38z" fill="#2D3964"/><path fill-rule="evenodd" clip-rule="evenodd" d="M202.866 32.298h93.459v-7.1h-93.459v7.1z" fill="#28325A"/><path fill-rule="evenodd" clip-rule="evenodd" d="M119.982 226.098c-1.849 4.494-3.775 9.427-5.75 14.816-40.0243 2.975-80.7871-24.51-85.232-37.885 1.7572-5.432 3.7388-11.037 5.8832-16.729 10.2695 10.965 22.7409 19.794 37.4143 26.489 14.6578 6.687 30.5525 11.123 47.6845 13.309zm259.223 0c17.132-2.186 33.027-6.622 47.684-13.309 14.674-6.695 27.145-15.524 37.415-26.489 2.144 5.692 4.126 11.297 5.883 16.729-4.445 13.375-45.208 40.86-85.232 37.885-1.975-5.389-3.901-10.322-5.75-14.816z" fill="#B9354D"/><path fill-rule="evenodd" clip-rule="evenodd" d="M467.461 195.302c.936 2.667 1.827 5.303 2.667 7.9-4.445 13.375-45.208 40.86-85.232 37.885-.958-2.614-1.904-5.12-2.835-7.52 20.795-1.358 37.993-5.637 51.594-12.837 13.428-7.109 24.697-15.585 33.806-25.428zm-435.8063 0c9.1031 9.827 20.3606 18.291 33.7724 25.392 13.6109 7.205 30.8241 11.485 51.6389 12.84-.931 2.399-1.877 4.904-2.834 7.516-40.0243 2.975-80.7871-24.51-85.232-37.885.8363-2.584 1.7234-5.209 2.6547-7.863zM195.09 21.2077c3.689-1.9817 6.365-3.1812 8.086-3.1812 0 0-2.185 32.495 46.335 32.495 52.217 0 46.335-32.495 46.335-32.495 1.785 0 4.598 1.2903 8.505 3.4054-7.175 24.4805-25.349 36.7207-54.523 36.7207-29.264 0-47.51-12.315-54.738-36.9449z" fill="#F2F2F2"/><path fill-rule="evenodd" clip-rule="evenodd" d="M413.584 238.323c-9.288 2.238-19.065 3.316-28.798 2.592-8.198-22.369-15.557-36.883-20.013-44.748v270.577s-21.102 6.71-55.866 11.111l-.544-.06c1.881-54.795 5.722-166.47 8.276-240.705 2.056-59.755 31.085-95.29 60.099-117.44-2.675 6.781-5.071 14.606-6.999 23.667 7.354 11.852 24.436 42.069 43.831 94.964.005.014.01.028.014.042zM190.716 477.795c-34.248-4.401-56.476-11.051-56.476-11.051V196.172c-4.456 7.867-11.814 22.379-20.01 44.743-9.633.716-19.3084-.332-28.5103-2.523.0051-.032.0117-.065.0199-.097 19.3774-52.848 36.3054-83.066 43.6094-94.944-1.928-9.075-4.327-16.912-7.006-23.701 29.014 22.15 58.044 57.685 60.099 117.44 2.554 74.235 6.396 185.91 8.276 240.705h-.002z" fill="#000" fill-opacity=".1"/><path fill-rule="evenodd" clip-rule="evenodd" d="M289 126.44s9.737-6.44 20-6.44 20 6.44 20 6.44c0 29.431-20 39.56-20 39.56s-20-10.128-20-39.56z" fill="#F2F2F2"/><path d="M291.227 133c-.148-1.631-.227-3.337-.227-5.12 0 0 8.763-5.88 18-5.88s18 5.88 18 5.88c0 1.783-.079 3.489-.227 5.12h-1.899c.082-1.184.126-2.41.126-3.68 0 0-7.79-5.32-16-5.32s-16 5.32-16 5.32c0 1.27.044 2.496.126 3.68h-1.899z" fill="#B12841"/><path d="M326.776 132.969l-.003.031h-1.899v-.008C323.376 154.482 309 162 309 162s-14.372-7.516-15.873-29h-1.899C293.31 155.939 309 164 309 164s15.704-8.069 17.776-31.031z" fill="#34406F"/><path d="M324.874 133h-31.748c-.082-1.184-.126-2.41-.126-3.68 0 0 7.79-5.32 16-5.32s16 5.32 16 5.32c0 1.27-.044 2.496-.126 3.68z" fill="#34406F"/><path d="M324.873 133h-31.747C294.627 154.484 309 162 309 162s14.372-7.516 15.873-29z" fill="#B12841"/><path d="M315.78 156.253c-.776-3.021-3.517-5.253-6.78-5.253-3.263 0-6.005 2.233-6.78 5.254C305.774 160.313 309 162 309 162s3.226-1.687 6.78-5.747z" fill="#F2F2F2"/><rect x="297" y="140.377" width="24" height="9" rx="4" transform="rotate(-10.51 297 140.377)" fill="#34406F"/></svg>