<?xml version="1.0" encoding="utf-8"?><svg width="500" height="500" viewBox="0 0 500 500" fill="none" xmlns="http://www.w3.org/2000/svg"><path fill-rule="evenodd" clip-rule="evenodd" d="M203.006 109.193h93.643V21.898h-93.643v87.295z" fill="#2C4175"/><path fill-rule="evenodd" clip-rule="evenodd" d="M202.866 32.198h93.459v-14.2h-93.459v14.2z" fill="#D9D9D9"/><path fill-rule="evenodd" clip-rule="evenodd" d="M87.5505 75.26s-40.7628 72.8-58.5476 127.77c4.445 13.375 45.2078 40.86 85.2321 37.885 13.34-36.4 24.46-52 24.46-52S141.658 93.83 87.5505 75.26zm323.9255 0s40.763 72.8 58.547 127.77c-4.445 13.375-45.207 40.86-85.232 37.885-13.34-36.4-24.459-52-24.459-52S357.368 93.83 411.476 75.26z" fill="#365093"/><path fill-rule="evenodd" clip-rule="evenodd" d="M249.514 57.7056c-50.081 0-47.798-39.4691-48.742-39.14-7.516 2.6187-24.133 14.9368-52.439 25.495-31.873 11.885-52.6257 19.315-60.7822 31.2 11.1148 8.915 46.6942 28.9704 46.6942 120.3454v271.14s49.658 14.855 114.885 14.855c68.929 0 115.649-14.855 115.649-14.855v-271.14c0-91.375 35.579-111.4304 46.699-120.3454-8.157-11.885-28.91-19.315-60.783-31.2-28.359-10.5767-44.981-22.9194-52.478-25.5087-.927-.3203 4.178 39.1537-48.703 39.1537z" fill="#365093"/><path fill-rule="evenodd" clip-rule="evenodd" d="M470.129 203.202c-4.445 13.375-45.208 40.86-85.232 37.885-.958-2.614-1.904-5.12-2.835-7.52 20.794-1.358 37.993-5.637 51.594-12.837 13.428-7.109 24.697-15.585 33.806-25.428.936 2.667 1.827 5.303 2.667 7.9zM65.4271 220.694c13.611 7.205 30.8243 11.485 51.6399 12.84-.932 2.399-1.878 4.904-2.835 7.516-40.0243 2.975-80.7871-24.51-85.232-37.885.8362-2.584 1.7233-5.208 2.6545-7.862 9.1035 9.827 20.3609 18.29 33.7726 25.391zM249.577 63.7515c51.478 0 58.278-35.895 58.278-40.38-5.772-3.24-9.728-5.345-12.008-5.345 0 0 5.882 32.495-46.335 32.495-48.52 0-46.335-32.495-46.335-32.495-2.28 0-6.236 2.105-12.003 5.345 0 0 7.368 40.38 58.403 40.38z" fill="#F2F2F2"/><path fill-rule="evenodd" clip-rule="evenodd" d="M292.421 124.1c.172-.722.744-1.29 1.471-1.439 2.542-.521 8.822-1.661 15.106-1.661 6.284 0 12.568 1.14 15.111 1.661.728.149 1.3.717 1.472 1.44 5.892 24.808-7.676 36.347-16.58 40.899-8.91-4.552-22.478-16.091-16.58-40.9z" fill="#CEB148"/><path fill-rule="evenodd" clip-rule="evenodd" d="M294.392 125.337c.087-.362.369-.649.732-.729 1.86-.406 7.865-1.608 13.875-1.608 6.009 0 12.018 1.202 13.879 1.608.363.08.645.368.732.729 5.518 22.886-6.646 33.496-14.609 37.663-7.968-4.167-20.132-14.777-14.609-37.663z" fill="#3C5EB6"/><path fill-rule="evenodd" clip-rule="evenodd" d="M296.347 128.567S302.671 127 308.999 127c6.328 0 12.657 1.567 12.657 1.567 4.141 19.968-6.627 28.65-12.655 32.433-6.032-3.783-16.799-12.465-12.654-32.433z" fill="#F2F2F2"/><path fill-rule="evenodd" clip-rule="evenodd" d="M297.818 130.382S303.407 129 308.999 129c5.592 0 11.184 1.382 11.184 1.382 3.66 17.62-5.855 25.28-11.182 28.618-5.331-3.338-14.846-10.998-11.183-28.618z" fill="#3C5EB6"/><path fill-rule="evenodd" clip-rule="evenodd" d="M300.614 133.106s4.191-1.106 8.385-1.106 8.388 1.106 8.388 1.106c2.745 14.095-4.391 20.224-8.386 22.894-3.998-2.67-11.135-8.799-8.387-22.894z" fill="#5878CC"/><path fill-rule="evenodd" clip-rule="evenodd" d="M413.584 238.323c-9.287 2.238-19.064 3.316-28.797 2.592-8.198-22.369-15.558-36.883-20.013-44.748v270.577s-21.102 6.71-55.866 11.111l-.544-.06c1.88-54.795 5.722-166.47 8.276-240.705 2.055-59.755 31.085-95.29 60.099-117.44-2.675 6.781-5.072 14.606-6.999 23.667 7.354 11.852 24.435 42.069 43.83 94.964.005.014.01.028.014.042zM190.717 477.795c-34.248-4.401-56.476-11.051-56.476-11.051V196.172c-4.456 7.867-11.814 22.379-20.01 44.743-9.633.716-19.3089-.332-28.5108-2.523.0051-.032.0117-.065.0199-.097 19.3769-52.848 36.3059-83.066 43.6099-94.944-1.929-9.075-4.328-16.912-7.006-23.701 29.014 22.15 58.043 57.685 60.099 117.44 2.554 74.235 6.395 185.91 8.276 240.705h-.002z" fill="#000" fill-opacity=".1"/></svg>