<?xml version="1.0" encoding="UTF-8"?><svg height="500" viewBox="0 0 500 500" width="500" xmlns="http://www.w3.org/2000/svg"><g fill="none" fill-rule="evenodd"><path d="M0 0h500v500H0z"/><path d="M203.006 109.193h93.643V21.898h-93.643z" fill="#d9d9d9"/><path d="M202.867 32.198h93.458v-14.2h-93.458z" fill="#00a2d0"/><path d="M87.55 75.26s-40.762 72.8-58.547 127.77c4.445 13.375 45.208 40.86 85.232 37.885 13.34-36.4 24.46-52 24.46-52S141.658 93.83 87.55 75.26M411.476 75.26s40.762 72.8 58.547 127.77c-4.445 13.375-45.208 40.86-85.232 37.885-13.34-36.4-24.46-52-24.46-52S357.368 93.83 411.476 75.26" fill="#f2f2f2"/><path d="M249.514 57.706c-50.082 0-47.798-39.47-48.742-39.14-7.516 2.618-24.133 14.936-52.439 25.495-31.873 11.885-52.626 19.315-60.782 31.2 11.114 8.915 46.694 28.97 46.694 120.345v271.14S183.903 481.6 249.13 481.6c68.929 0 115.648-14.855 115.648-14.855v-271.14c0-91.375 35.58-111.43 46.7-120.345-8.157-11.885-28.91-19.315-60.783-31.2-28.36-10.577-44.982-22.92-52.478-25.511-.927-.318 4.177 39.156-48.703 39.156z" fill="#f2f2f2"/><g fill="#00addd"><path d="M467.461 195.302a338.826 338.826 0 0 1 2.668 7.9c-4.445 13.375-45.208 40.86-85.232 37.885a426.405 426.405 0 0 0-2.836-7.52c20.795-1.358 37.993-5.637 51.595-12.837 13.428-7.11 24.696-15.585 33.805-25.428zM31.655 195.302c9.103 9.828 20.36 18.291 33.772 25.392 13.611 7.205 30.824 11.485 51.64 12.84a426.42 426.42 0 0 0-2.835 7.516C74.208 244.025 33.445 216.54 29 203.165c.836-2.584 1.723-5.209 2.655-7.863zM68.717 110.836c10.64-21.092 18.83-35.72 18.83-35.72 8.157-11.885 28.91-19.315 60.783-31.2 28.008-10.447 44.571-22.617 52.198-25.41.186.63.31 3.354 1.13 7.093-7.518 3.04-23.336 14.847-49.942 25.114-30.81 11.885-50.865 19.315-58.747 31.2 0 0-7.812 14.495-17.944 35.245zM430.304 110.836l-6.308 6.322c-10.132-20.75-17.944-35.245-17.944-35.245-7.882-11.885-27.937-19.315-58.747-31.2C320.7 40.446 304.88 28.64 297.363 25.6c.82-3.739.945-6.462 1.13-7.092 7.627 2.792 24.19 14.962 52.198 25.409 31.873 11.885 52.626 19.315 60.783 31.2s8.19 14.628 18.83 35.72z"/><path d="M249.576 63.752c51.479 0 58.279-35.895 58.279-40.38-5.772-3.24-9.728-5.345-12.008-5.345 0 0 5.881 32.495-46.335 32.495-48.52 0-46.336-32.495-46.336-32.495-2.28 0-6.235 2.105-12.002 5.345 0 0 7.368 40.38 58.402 40.38"/></g><g transform="translate(285 121)"><ellipse cx="24" cy="23" rx="21.5" ry="17.5" stroke="#009ddc" stroke-width="5"/><ellipse cx="24" cy="23" fill="#f2f2f2" rx="19" ry="18"/><path d="M11.217 0h3.653L24 22l9.13-22h3.653l2.665 32.117L41.435 44h-6.478l-2.74-28.111-8.214 20.778-8.22-20.778L13.043 44H6.565l1.992-11.95z" fill="#009ddc"/></g><path d="M413.584 238.323c-9.287 2.238-19.064 3.316-28.798 2.592-8.197-22.369-15.557-36.883-20.012-44.748v270.577s-21.102 6.71-55.867 11.11l-.544-.059c1.881-54.795 5.722-166.47 8.277-240.705 2.055-59.755 31.084-95.29 60.099-117.44-2.676 6.78-5.072 14.606-7 23.667 7.354 11.852 24.436 42.069 43.831 94.964l.014.042zM190.717 477.795c-34.248-4.401-56.477-11.05-56.477-11.05V196.171c-4.456 7.867-11.813 22.38-20.01 44.743-9.632.716-19.308-.332-28.51-2.523.005-.033.012-.065.02-.097 19.377-52.848 36.305-83.066 43.61-94.944-1.93-9.075-4.328-16.912-7.007-23.701 29.015 22.15 58.044 57.685 60.1 117.44 2.554 74.235 6.395 185.91 8.276 240.705z" fill="#000" fill-opacity=".06"/></g></svg>