<?xml version="1.0" encoding="UTF-8"?><svg width="500" height="500" xmlns="http://www.w3.org/2000/svg"><g fill="none" fill-rule="evenodd"><path d="M0 0h500v500H0z"/><path fill="#99071C" d="M203.003 109.223h93.643V21.928h-93.643z"/><path fill="#E0E0E0" d="M202.864 32.228h93.458v-14.2h-93.458z"/><path d="M87.548 75.258S46.785 148.058 29 203.029c4.445 13.376 45.208 40.86 85.232 37.886 13.34-36.4 24.46-52 24.46-52S141.655 93.83 87.548 75.26m323.925-.002s40.762 72.8 58.547 127.77c-4.445 13.376-45.208 40.86-85.232 37.886-13.34-36.4-24.46-52-24.46-52s-2.963-95.085 51.145-113.655" fill="#DF010C"/><path d="M249.511 57.703c-50.082 0-47.798-39.47-48.742-39.14-7.516 2.618-24.133 14.936-52.439 25.495-31.873 11.885-52.626 19.315-60.782 31.2 11.114 8.915 46.694 28.97 46.694 120.345v271.14s49.658 14.855 114.885 14.855c68.929 0 115.648-14.855 115.648-14.855v-271.14c0-91.375 35.58-111.43 46.7-120.345-8.157-11.885-28.91-19.315-60.783-31.2-28.36-10.577-44.982-22.92-52.478-25.511-.927-.318 4.177 39.156-48.703 39.156z" fill="#DF010C"/><path d="M134.042 183.996c38.491-3.334 76.981-5 115.47-5 38.487 0 76.975 1.666 115.463 5-.113 3.201-.179 6.5-.196 9.899l-.004 1.707V220c-38.422-3.333-76.845-5-115.267-5a1333.02 1333.02 0 00-115.267 5v-24.398c0-4.004-.067-7.871-.199-11.606h230.933-230.933z" fill="#FFF"/><path d="M364.775 220v36c-38.422-3.333-76.845-5-115.267-5s-76.845 1.667-115.267 5v-36c38.422-3.333 76.845-5 115.267-5s76.845 1.667 115.267 5z" fill="#3F69BF"/><path d="M202.215 24.577l1.749 3.198c-9.027 4.858-24.145 14.369-46.657 22.766-31.873 11.885-52.626 19.315-60.78 31.201-.003 0-11.08 19.783-24.205 46.512a52.893 52.893 0 01-3.11-2.238c13.177-26.854 24.322-46.757 24.322-46.757h.002c8.155-11.886 28.908-19.316 60.78-31.201 19.604-7.313 33.602-15.47 42.852-20.663-.008-.033-.01-.05-.01-.05a189.648 189.648 0 015.057-2.768z" fill="#F1F1F1"/><path d="M192.45 26.847c-9.234 5.204-22.706 12.821-41.13 19.694-31.873 11.885-52.626 19.315-60.78 31.201-.002 0-11.08 19.783-24.205 46.512a52.82 52.82 0 01-3.11-2.238c13.178-26.854 24.323-46.758 24.323-46.758 8.156-11.885 28.91-19.315 60.782-31.2 19.604-7.313 33.601-15.47 42.851-20.663a1.24 1.24 0 01-.01-.05l1.278 3.502zm106.643-1.04c.87.478 1.79.992 2.763 1.538l-.01.05c9.25 5.194 23.247 13.35 42.85 20.663 31.874 11.885 52.627 19.315 60.781 31.201h.002s11.145 19.903 24.323 46.757a52.819 52.819 0 01-3.11 2.238c-13.125-26.729-24.203-46.512-24.203-46.512h-.002c-8.155-11.886-28.908-19.316-60.78-31.201-20.712-7.726-35.165-16.394-44.374-21.514l1.76-3.22z" fill="#F1F1F1"/><path d="M307.843 23.345l-.011.05c9.25 5.194 23.247 13.35 42.851 20.663 31.873 11.885 52.626 19.315 60.78 31.201.003 0 11.147 19.903 24.325 46.757a52.819 52.819 0 01-3.11 2.238c-13.125-26.729-24.203-46.512-24.203-46.512-8.156-11.886-28.91-19.316-60.782-31.201-18.28-6.819-31.685-14.371-40.912-19.571l1.062-3.625z" fill="#F1F1F1"/><path d="M307.852 23.345C302.08 20.105 298.124 18 295.844 18c0 0 5.881 32.495-46.335 32.495-48.52 0-46.336-32.495-46.336-32.495-2.28 0-6.235 2.105-12.002 5.345 0 0 7.368 40.38 58.402 40.38 51.479 0 58.279-35.895 58.279-40.38z" fill="#F1F1F1"/><path d="M413.584 238.323c-9.287 2.238-19.064 3.316-28.798 2.592-8.197-22.369-15.557-36.883-20.012-44.748v270.577s-21.102 6.71-55.867 11.11l-.544-.059c1.881-54.795 5.722-166.47 8.277-240.705 2.055-59.755 31.084-95.29 60.099-117.44-2.676 6.78-5.072 14.606-7 23.667 7.354 11.852 24.436 42.069 43.831 94.964l.014.042zM190.717 477.795c-34.248-4.401-56.477-11.05-56.477-11.05V196.171c-4.456 7.867-11.813 22.38-20.01 44.743-9.632.716-19.308-.332-28.51-2.523.005-.033.012-.065.02-.097 19.377-52.848 36.305-83.066 43.61-94.944-1.93-9.075-4.328-16.912-7.007-23.701 29.015 22.15 58.044 57.685 60.1 117.44 2.554 74.235 6.395 185.91 8.276 240.705h-.002z" fill-opacity=".1" fill="#000"/><path d="M323.122 127.254c3.296 9.275 3.495 12.54 1.28 17.52-2.342 5.26-9.69 6.879-12.752 4.174-.31-.273-.61.062-.32.351.284.285.758 1.304 2.039 2.612a15.726 15.726 0 002.7 2.228 1 1 0 11-1.414 1.414 93.333 93.333 0 00-2.403-2.503c-.417-.416-1.112-.754-2.086-1.015-.277.395-.277.508 0 1.244 1.56.35 3.882 2.787 3.882 3.424 0 .323-2.044 1.574-5.048 1.58-3.004.006-5-1.242-5-1.58 0-.637 2.322-3.074 3.882-3.424.341-.906.11-1.088 0-1.244-.974.26-1.67.6-2.086 1.015l-.764.776c-.522.536-1.068 1.112-1.64 1.727a1 1 0 11-1.414-1.414c1.048-.863 1.624-1.247 2.604-2.228.98-.98 1.488-1.964 2.136-2.612.29-.289-.011-.624-.32-.351-3.061 2.705-10.41 1.087-12.752-4.174-2.215-4.98-2.016-8.245 1.28-17.52 3.114 5.727 5.886 8.539 9.36 10.912 1.757.964-1.591 1.829 0 3.857.82 1.042 3.763.411 3.596-3.257-.18-2.569-.592-3.5-1.839-4.472-.373-.29-2.274-.63-2.82-1.335.191-.766.546-1.18 1.064-1.238.31-.035-.845-1.119.738-1.119 1.584 0 .591 1.102.806 1.16.684.185 3.103 2.738 3.193 5.21.09-2.472 2.508-4.984 3.193-5.17.215-.058-.778-1.159.806-1.159 1.583 0 .427 1.083.738 1.119.518.058.873.471 1.063 1.238-1.063.996-2.447 1.003-2.82 1.294-1.247.973-1.658 1.903-1.838 4.472-.168 3.668 2.777 4.3 3.595 3.257 1.592-2.028-1.757-2.893 0-3.857 3.475-2.373 6.246-5.185 9.36-10.912z" fill="#E1C370"/><path d="M306 143.5h6v5.095a1 1 0 01-.872.992c-1.28.165-1.99.45-2.128.856-.138-.416-.845-.703-2.123-.86a1 1 0 01-.877-.993v-5.09z" fill="#000"/></g></svg>