<?xml version="1.0" encoding="UTF-8"?><svg height="500" viewBox="0 0 500 500" width="500" xmlns="http://www.w3.org/2000/svg"><g fill="none" fill-rule="evenodd"><path d="M0 0h500v500H0z"/><path d="M203.003 109.223h93.643V21.928h-93.643z" fill="#c8c8c8"/><path d="M202.864 32.228h93.458v-14.2h-93.458z" fill="#ae1b1b"/><g fill="#3769cb"><path d="M87.548 75.258S46.785 148.058 29 203.029c4.445 13.376 45.208 40.86 85.232 37.886 13.34-36.4 24.46-52 24.46-52s2.963-95.085-51.144-113.655M411.473 75.258s40.762 72.8 58.547 127.77c-4.445 13.376-45.208 40.86-85.232 37.886-13.34-36.4-24.46-52-24.46-52s-2.963-95.085 51.145-113.655"/><path d="M249.511 57.703c-50.082 0-47.798-39.47-48.742-39.14-7.516 2.618-24.133 14.936-52.439 25.495-31.873 11.885-52.626 19.315-60.782 31.2 11.114 8.915 46.694 28.97 46.694 120.345v271.14s49.658 14.855 114.885 14.855c68.929 0 115.648-14.855 115.648-14.855v-271.14c0-91.375 35.58-111.43 46.7-120.345-8.157-11.885-28.91-19.315-60.783-31.2-28.36-10.577-44.982-22.92-52.478-25.511-.927-.318 4.177 39.156-48.703 39.156z"/></g><path d="M467.461 195.302a338.826 338.826 0 0 1 2.668 7.9c-4.445 13.375-45.208 40.86-85.232 37.885a426.405 426.405 0 0 0-2.836-7.52c20.795-1.358 37.993-5.637 51.595-12.837 13.428-7.11 24.696-15.585 33.805-25.428zM31.655 195.302c9.103 9.828 20.36 18.291 33.772 25.392 13.611 7.205 30.824 11.485 51.64 12.84a426.42 426.42 0 0 0-2.835 7.516C74.208 244.025 33.445 216.54 29 203.165c.836-2.584 1.723-5.209 2.655-7.863zM307.855 23.372c-5.772-3.24-6.957-2.308-9.237-2.308 0 0 4.84 33.457-49.106 33.457-52.035 0-49.223-33.99-49.223-33.99-2.28 0-3.348-.4-9.115 2.84 0 0 7.368 40.38 58.402 40.38 51.479 0 58.279-35.894 58.279-40.38z" fill="#f2f2f2"/><path d="M202.867 32.298h93.458v-7.1h-93.458z" fill="#e3e3e3"/><path d="M195.09 21.208c3.69-1.982 6.365-3.182 8.086-3.182 0 0-2.185 32.495 46.336 32.495 52.216 0 46.335-32.495 46.335-32.495 1.785 0 4.597 1.29 8.504 3.406-7.174 24.48-25.349 36.72-54.523 36.72-29.263 0-47.51-12.314-54.738-36.944z" fill="#c82121"/><path d="M413.584 238.323c-9.287 2.238-19.064 3.316-28.798 2.592-8.197-22.369-15.557-36.883-20.012-44.748v270.577s-21.102 6.71-55.867 11.11l-.544-.059c1.881-54.795 5.722-166.47 8.277-240.705 2.055-59.755 31.084-95.29 60.099-117.44-2.676 6.78-5.072 14.606-7 23.667 7.354 11.852 24.436 42.069 43.831 94.964l.014.042zM190.717 477.795c-34.248-4.401-56.477-11.05-56.477-11.05V196.171c-4.456 7.867-11.813 22.38-20.01 44.743-9.632.716-19.308-.332-28.51-2.523.005-.033.012-.065.02-.097 19.377-52.848 36.305-83.066 43.61-94.944-1.93-9.075-4.328-16.912-7.007-23.701 29.015 22.15 58.044 57.685 60.1 117.44 2.554 74.235 6.395 185.91 8.276 240.705z" fill="#000" fill-opacity=".06"/><circle cx="309" cy="143" fill="#184391" r="23"/><circle cx="309" cy="143" fill="#fff" r="21"/><circle cx="309" cy="143" fill="#184391" r="15"/><circle cx="309" cy="143" fill="#fff" r="13"/><circle cx="309" cy="143" fill="#4b6daa" r="10"/><circle cx="309" cy="143" fill="#e80e2f" r="5"/></g></svg>