<svg xmlns="http://www.w3.org/2000/svg" width="501" height="501" fill="none"><path fill="#19521F" fill-rule="evenodd" d="M203.39 109.77h93.64v-87.3H203.4v87.3Z" clip-rule="evenodd"/><path fill="#ADADAD" fill-rule="evenodd" d="M203.25 32.77h93.46v-14.2h-93.46v14.2Z" clip-rule="evenodd"/><path fill="#216A28" fill-rule="evenodd" d="M87.93 75.84S47.17 148.64 29.4 203.6c4.44 13.37 45.2 40.86 85.23 37.88 13.34-36.4 24.46-52 24.46-52s2.96-95.08-51.15-113.65Zm323.93 0s40.76 72.8 58.55 127.77c-4.45 13.37-45.21 40.86-85.24 37.88-13.34-36.4-24.46-52-24.46-52s-2.96-95.08 51.15-113.65Z" clip-rule="evenodd"/><path fill="#216A28" fill-rule="evenodd" d="M249.9 58.28c-50.09 0-47.8-39.47-48.75-39.14-7.51 2.62-24.13 14.94-52.43 25.5-31.88 11.88-52.63 19.31-60.79 31.2 11.12 8.91 46.7 28.97 46.7 120.34v271.14s49.66 14.86 114.88 14.86c68.93 0 115.65-14.86 115.65-14.86V196.18c0-91.37 35.58-111.43 46.7-120.34-8.16-11.89-28.9-19.32-60.78-31.2-28.36-10.58-44.98-22.92-52.48-25.51-.93-.32 4.18 39.15-48.7 39.15Z" clip-rule="evenodd"/><path fill="#F2F2F2" fill-rule="evenodd" d="M467.85 195.88c.93 2.66 1.82 5.3 2.66 7.9-4.44 13.37-45.2 40.86-85.23 37.88-.96-2.61-1.9-5.12-2.84-7.52 20.8-1.35 38-5.63 51.6-12.83 13.43-7.11 24.7-15.59 33.8-25.43Zm-435.81 0c9.1 9.83 20.36 18.29 33.77 25.39 13.61 7.2 30.82 11.48 51.64 12.84-.93 2.4-1.88 4.9-2.84 7.52-40.02 2.97-80.78-24.51-85.23-37.89.84-2.58 1.73-5.2 2.66-7.86ZM249.96 64.33c51.48 0 58.28-35.9 58.28-40.38-5.77-3.24-9.73-5.35-12.01-5.35 0 0 5.88 32.5-46.34 32.5-48.52 0-46.33-32.5-46.33-32.5-2.28 0-6.24 2.1-12 5.35 0 0 7.37 40.38 58.4 40.38Z" clip-rule="evenodd"/><path fill="#000" fill-opacity=".06" fill-rule="evenodd" d="M413.97 238.9a93.76 93.76 0 0 1-28.8 2.6c-8.2-22.38-15.56-36.9-20.01-44.76v270.58s-21.1 6.71-55.87 11.11l-.54-.06 8.27-240.7c2.06-59.76 31.09-95.3 60.1-117.44a148.66 148.66 0 0 0-7 23.66c7.36 11.86 24.44 42.07 43.83 94.97l.02.04ZM191.1 478.37c-34.25-4.4-56.48-11.05-56.48-11.05V196.75c-4.45 7.87-11.81 22.38-20 44.74a93.6 93.6 0 0 1-28.52-2.52l.02-.1c19.38-52.85 36.3-83.06 43.61-94.94a148.6 148.6 0 0 0-7-23.7c29.01 22.15 58.04 57.68 60.1 117.44l8.27 240.7Z" clip-rule="evenodd"/><path fill="#252525" fill-rule="evenodd" d="M309.38 166.57a23 23 0 1 0 0-45.99 23 23 0 0 0 0 46Z" clip-rule="evenodd"/><path fill="#F2F2F2" d="M309.38 165.58a22 22 0 1 0 0-44 22 22 0 0 0 0 44Z"/><path fill="#252525" d="M309.38 160.58a17 17 0 1 1 0-34 17 17 0 0 1 0 34Z"/><path fill="#F2F2F2" d="M309.38 159.6a16.02 16.02 0 1 1 0-32.05 16.02 16.02 0 0 1 0 32.05Z"/><path fill="#252525" fill-rule="evenodd" d="m320.98 150.53.57-13.52-.69-.25c-.82-.3-2.24-.5-4.33-.64-1.44-.1-2.37-.03-4 .22l-.1.01c-1.31.2-1.93.27-2.9.26a20.8 20.8 0 0 1-3.68-.44l-.36-.06c-1.7-.31-2.5-.44-3.49-.5-2.11-.15-3.03-.13-3.54.27l-.45.35.07.56c.65 5.52.8 9.35.48 11.4l-.2 1.2 1.22-.04c1.22-.04 2.16.05 3.59.3l.3.05.87.15c.95.16 1.71.26 2.58.31 1.19.09 2.16.04 3.37-.12l.87-.12c1.56-.23 2.3-.32 3.5-.36 2.13-.07 3.82.12 5.05.54l1.27.43Zm-1.5-12.07-.4 9.4a19.48 19.48 0 0 0-4.5-.3 30.1 30.1 0 0 0-3.71.38l-.85.12c-1.08.14-1.92.18-2.97.11a19.6 19.6 0 0 1-2.38-.3l-.86-.14-.3-.06c-1.1-.18-1.96-.29-2.85-.32.16-2.21 0-5.48-.48-9.82a27.94 27.94 0 0 1 4.96.54l.36.07c1.81.33 2.86.46 4.02.47 1.1 0 1.8-.07 3.22-.28l.08-.02c1.5-.22 2.3-.28 3.57-.2 1.36.1 2.4.21 3.1.35Z" clip-rule="evenodd"/><path fill="#F2F2F2" fill-rule="evenodd" d="M320.38 137.7s-1.05-.37-4.06-.58c-3-.2-4.18.52-6.93.5-2.53-.02-5.05-.83-7.6-1-2.55-.18-2.86.06-2.86.06s.99 8.41.48 11.68c2.94-.1 4.5.61 7.43.81 2.94.2 4.26-.48 7.64-.6a16.5 16.5 0 0 1 5.41.59l.5-11.45Z" clip-rule="evenodd"/><path fill="#216A28" fill-rule="evenodd" d="M320.38 137.7s-1.05-.37-4.06-.58c-3-.2-4.18.52-6.93.5-2.53-.02-5.05-.83-7.6-1-2.55-.18-2.86.06-2.86.06s.45 4.23.55 5.94c1.29-.24 7.05.76 9.93.96 2.88.2 8.1-.42 10.71.45.16-2.3.26-6.32.26-6.32Z" clip-rule="evenodd"/><path fill="#252525" d="m297.52 135.56 1-.04.65 18-1 .03z"/></svg>