<?xml version="1.0" encoding="UTF-8"?><svg height="500" viewBox="0 0 500 500" width="500" xmlns="http://www.w3.org/2000/svg"><g fill="none" fill-rule="evenodd"><path d="M0 0h500v500H0z"/><path d="M203.003 109.223h93.643V21.928h-93.643z" fill="#2d2d2d"/><path d="M202.864 32.228h93.458v-14.2h-93.458z" fill="#363636"/><path d="M87.548 75.258S46.785 148.058 29 203.029c4.445 13.376 45.208 40.86 85.232 37.886 13.34-36.4 24.46-52 24.46-52s2.963-95.085-51.144-113.655M411.473 75.258s40.762 72.8 58.547 127.77c-4.445 13.376-45.208 40.86-85.232 37.886-13.34-36.4-24.46-52-24.46-52s-2.963-95.085 51.145-113.655" fill="#df0a1a"/><path d="M249.511 57.703c-50.082 0-47.798-39.47-48.742-39.14-7.516 2.618-24.133 14.936-52.439 25.495-31.873 11.885-52.626 19.315-60.782 31.2 11.114 8.915 46.694 28.97 46.694 120.345v271.14s49.658 14.855 114.885 14.855c68.929 0 115.648-14.855 115.648-14.855v-271.14c0-91.375 35.58-111.43 46.7-120.345-8.157-11.885-28.91-19.315-60.783-31.2-28.36-10.577-44.982-22.92-52.478-25.511-.927-.318 4.177 39.156-48.703 39.156z" fill="#df0a1a"/><g fill="#3d3d3d"><path d="M265.462 56.275c15.676-3.094 23.748-10.752 27.937-18.367v441.644a478.696 478.696 0 0 1-27.937 1.768zm58.867-23.88c7.325 3.753 16.071 7.824 26.363 11.662l1.574.587v425.441c-6.829 1.637-16.283 3.657-27.937 5.546zm-89.797 448.958c-9.8-.327-19.156-.961-27.937-1.79V37.808c4.477 7.684 12.68 15.434 27.937 18.512zm-58.867-5.74c-11.44-1.847-20.935-3.817-27.937-5.43V44.282l.602-.224c10.75-4.01 19.815-8.274 27.335-12.164zM113.823 94.435c7.258 9.195 12.409 20.353 16.06 31.733L78.58 236.438A123.102 123.102 0 0 1 52.99 225.19l60.834-130.755zM385.291 94.435l60.834 130.755a123.102 123.102 0 0 1-25.591 11.248l-51.304-110.27c3.652-11.38 8.803-22.538 16.061-31.733z"/><path d="M119.982 226.098a407.766 407.766 0 0 0-5.75 14.815c-40.024 2.975-80.787-24.51-85.232-37.885 1.757-5.43 3.739-11.036 5.883-16.728 10.27 10.965 22.741 19.794 37.414 26.489 14.658 6.687 30.553 11.123 47.685 13.31zM379.205 226.098c17.131-2.186 33.026-6.622 47.684-13.31 14.673-6.694 27.145-15.523 37.414-26.488 2.145 5.692 4.126 11.297 5.884 16.728-4.445 13.375-45.208 40.86-85.233 37.885a407.768 407.768 0 0 0-5.75-14.815zM307.852 23.345C302.08 20.105 298.124 18 295.844 18c0 0 5.881 32.495-46.335 32.495-48.52 0-46.336-32.495-46.336-32.495-2.28 0-6.235 2.105-12.002 5.345 0 0 7.368 40.38 58.402 40.38 51.479 0 58.279-35.895 58.279-40.38z"/></g><circle cx="309" cy="143" fill="#fff" r="24"/><circle cx="309" cy="143" fill="#df0a1a" r="22"/><circle cx="309" cy="143" fill="#fff" r="16"/><circle cx="309" cy="143" fill="#d28e93" r="13"/><path d="M413.584 238.323c-9.287 2.238-19.064 3.316-28.798 2.592-8.197-22.369-15.557-36.883-20.012-44.748v270.577s-21.102 6.71-55.867 11.11l-.544-.059c1.881-54.795 5.722-166.47 8.277-240.705 2.055-59.755 31.084-95.29 60.099-117.44-2.676 6.78-5.072 14.606-7 23.667 7.354 11.852 24.436 42.069 43.831 94.964l.014.042zM190.717 477.795c-34.248-4.401-56.477-11.05-56.477-11.05V196.171c-4.456 7.867-11.813 22.38-20.01 44.743-9.632.716-19.308-.332-28.51-2.523.005-.033.012-.065.02-.097 19.377-52.848 36.305-83.066 43.61-94.944-1.93-9.075-4.328-16.912-7.007-23.701 29.015 22.15 58.044 57.685 60.1 117.44 2.554 74.235 6.395 185.91 8.276 240.705z" fill="#000" fill-opacity=".1"/></g></svg>