<?xml version="1.0" encoding="UTF-8"?><svg height="500" viewBox="0 0 500 500" width="500" xmlns="http://www.w3.org/2000/svg"><g fill="none" fill-rule="evenodd"><path d="m0 0h500v500h-500z"/><g transform="translate(29.003 17.998)"><path d="m174.003327 91.195h93.643138v-87.295h-93.643138z" fill="#0c743a"/><path d="m173.863643 14.2h93.458556v-14.2h-93.458556z" fill="#118946"/><g fill="#14994f"><path d="m58.5475395 57.262s-40.7627765 72.8-58.5475395 127.77c4.44494357 13.375 45.2077201 40.86 85.232167 37.885 13.3398195-36.4 24.459661-52 24.459661-52s2.963296-95.085-51.1442885-113.655"/><path d="m382.472677 57.262s40.762777 72.8 58.54754 127.77c-4.444944 13.375-45.20772 40.86-85.232167 37.885-13.33982-36.4-24.459662-52-24.459662-52s-2.963295-95.085 51.144289-113.655"/><path d="m220.511106 39.7076155c-50.081693 0-47.798103-39.46909131-48.742578-39.14001413-7.515856 2.61869932-24.132633 14.93680473-52.438505 25.49501413-31.8728898 11.885-52.6259372 19.315-60.7824835 31.2 11.1148533 8.915 46.6943565 28.97 46.6943565 120.3449995v271.14s49.657653 14.855 114.885079 14.855c68.929052 0 115.648352-14.855 115.648352-14.855v-271.14c0-91.3749995 35.579504-111.4299995 46.699346-120.3449995-8.156547-11.885-28.909594-19.315-60.782483-31.2-28.359862-10.5766915-44.981767-22.91944582-52.478053-25.5106155-.92727-.31834247 4.17733 39.1556155-48.703031 39.1556155z"/></g><path d="m278.851614 5.3735c-5.771941-3.24-9.727991-5.345-12.007833-5.345 0 0 18.526326 36.495-46.335169 36.495-58.338014 0-46.33517-36.495-46.33517-36.495-2.279842 0-6.235891 2.105-12.002844 5.345 0 0 7.36833 40.38 58.402867 40.38 51.478533 0 58.278149-35.895 58.278149-40.38z" fill="#f2f2f2"/><path d="m265.867605 30.5767272-.268377-19.1864309c-3.289264 9.3711701-13.675136 21.1332037-45.090616 21.1332037-28.52221 0-39.522814-11.2289011-43.745598-20.4850717l-2.724935 15.6219481c8.495001 9.3497357 22.787722 18.0931236 46.535386 18.0931236 22.708108 0 36.722365-6.9846324 45.29414-15.1767728z" fill="#14994f"/><path d="m264.730214 19.262647c45.260077 11.3355446 71.50607 39.3367749 71.50607 67.9812312v72.9090678c-.301288 5.499186-.460957 11.30034-.460957 17.421554v271.14s-46.7193 14.855-115.648352 14.855c-65.227426 0-114.885079-14.855-114.885079-14.855v-271.14c0-6.26161-.167077-12.188309-.48191-17.799463v-72.5311588c0-28.8359913 26.598162-57.0201258 72.416526-68.2019932 5.59572 10.1262604 17.495549 20.632615 43.334594 20.632615 27.081446 0 38.954957-10.3529838 44.219108-20.411853z" fill="#14994f"/><path d="m202.203187 30.5818352v13.0993009c-13.016463-3.0687332-21.908925-9.2667352-27.936795-15.797976v-10.5118565l4.317586-1.9535571c3.77811 5.9964077 10.755856 12.1488832 23.619209 15.1640887zm65.518435-13.2206106v11.3023365c-5.872209 6.2947706-14.715788 12.1504123-27.936795 15.074007v-13.1091235c13.655997-2.9983382 20.548822-9.1843619 23.979301-15.2123601z" fill="#3d3d3d"/><path d="m267.721622 20.0434938v441.1606592c-8.665644.865839-18.007958 1.556604-27.936795 1.963031v-425.6717279c13.908675-3.5647983 21.147313-10.9753557 24.945387-18.2328091 1.006567.2520982 2.003729.5124392 2.991408.7808468zm63.522949 45.6960816v384.2817956c-4.954623 1.352324-13.833027 3.58023-25.941309 5.842581v-419.024738c12.097719 8.2684261 20.889446 18.2222971 25.941309 28.9003614zm-156.978191 395.4691936v-441.427116c.961232-.2542428 1.931296-.5008853 2.910132-.739768 4.057456 7.3425504 11.429422 14.8849428 25.026675 18.4768747v425.6828353c-9.829176-.400493-19.186709-1.104221-27.936807-1.992831zm-57.522938-9.517172v-397.2902934c6.323452-8.209375 15.050036-15.6976644 25.94131-21.9364521v424.4596735c-10.747271-1.830697-19.567064-3.725518-25.94131-5.232928z" fill="#3d3d3d"/><path d="m180.730841 18.3939046c-2.280892.4996468-4.516572 1.0405103-6.706187 1.6207189-3.40019-4.7584395-6.046025-10.36008145-7.937504-16.80492587 3.689198-1.98171968 6.365316-3.18119763 8.086292-3.18119763 0 0-.645593 9.60092928 6.557399 18.3654046zm80.827432.2841314c7.061107-8.83976038 5.285508-18.649536 5.285508-18.649536 1.784958 0 4.597399 1.29032377 8.504359 3.40544779-1.877679 6.40690042-4.508796 11.97540891-7.89335 16.70552551-1.929643-.5182058-3.895336-1.00578-5.896517-1.4614299z" fill="#14994f"/></g><path d="m413.584262 238.322716c-9.287652 2.238227-19.064555 3.316093-28.797794 2.592625-8.197787-22.369075-15.557191-36.882961-20.012723-44.748481v270.577481s-21.102202 6.709715-55.866442 11.110324c-.181695-.019644-.363009-.039532-.543932-.059665 1.880745-54.795 5.722054-166.47 8.276275-240.705 2.05535-59.755 31.084673-95.29 60.099029-117.44-2.675385 6.780625-5.071498 14.606324-6.999205 23.667254 7.354 11.851464 24.435794 42.068696 43.830742 94.964134.00496.013823.009643.027599.01405.041328zm-222.867617 239.47254c-34.247876-4.401312-56.476331-11.050915-56.476331-11.050915v-270.572197c-4.455834 7.866735-11.813778 22.379131-20.009729 44.743197-9.632964.716014-19.3086964-.33238-28.510585-2.523818.0050945-.032025.0117169-.064272.0198871-.096743 19.3773569-52.847461 36.3054119-83.066075 43.6098449-94.943632-1.928939-9.07531-4.327692-16.91207-7.006412-23.701148 29.014357 22.15 58.04368 57.685 60.099029 117.44 2.554222 74.235 6.395531 185.91 8.276276 240.705256z" fill="#000" fill-opacity=".1"/><path d="m287 121h44c0 17.460317-7.333333 32.126984-22 44-14.666667-11.873016-22-26.539683-22-44z" fill="#3d3d3d"/><path d="m289 123h40c0 15.47619-6.666667 28.47619-20 39-13.333333-10.52381-20-23.52381-20-39z" fill="#fff"/><path d="m294 128h30c0 11.111111-5 20.444444-15 28-10-7.555556-15-16.888889-15-28z" fill="#3d3d3d" fill-opacity=".65"/></g></svg>