<svg xmlns="http://www.w3.org/2000/svg" width="501" height="501" fill="none"><path fill="#00448F" fill-rule="evenodd" d="M203.95 109.57h93.65v-87.3h-93.65v87.3Z" clip-rule="evenodd"/><path fill="#030B3D" fill-rule="evenodd" d="M203.81 32.57h93.46v-14.2h-93.46v14.2Z" clip-rule="evenodd"/><path fill="#001F46" fill-rule="evenodd" d="M88.5 75.63s-40.77 72.8-58.55 127.78c4.44 13.37 45.2 40.86 85.23 37.88 13.34-36.4 24.46-52 24.46-52S142.6 94.2 88.49 75.63Zm323.92 0s40.76 72.8 58.55 127.78c-4.45 13.37-45.21 40.86-85.24 37.88-13.33-36.4-24.45-52-24.45-52S358.3 94.2 412.42 75.63Z" clip-rule="evenodd"/><path fill="#001F46" fill-rule="evenodd" d="M250.46 58.08c-50.08 0-47.8-39.47-48.74-39.14-7.52 2.62-24.13 14.94-52.44 25.5-31.87 11.88-52.63 19.31-60.78 31.2 11.11 8.91 46.7 28.97 46.7 120.34v271.14s49.65 14.86 114.88 14.86c68.93 0 115.65-14.86 115.65-14.86V195.98c0-91.37 35.57-111.43 46.7-120.34-8.16-11.89-28.92-19.32-60.79-31.2-28.36-10.58-44.98-22.92-52.48-25.51-.92-.32 4.18 39.15-48.7 39.15Z" clip-rule="evenodd"/><path fill="#0056B3" fill-rule="evenodd" d="M294.68 37.64c45.26 11.33 71.5 39.33 71.5 67.98v72.9c-.3 5.5-.45 11.3-.45 17.43v271.14S319 481.94 250.08 481.94c-65.23 0-114.89-14.85-114.89-14.85V195.95c0-6.26-.16-12.2-.48-17.8v-72.53c0-28.84 26.6-57.02 72.42-68.2 5.6 10.12 17.5 20.63 43.33 20.63 27.08 0 38.96-10.36 44.22-20.41Z" clip-rule="evenodd"/><path fill="#001F46" d="M160.46 256.35c4.64-6.36 9.98-13.39 14.77-19.63 2.11-2.73 4.54-5.98 6.84-8.52 1.15 1.15 2.76 2.68 3.81 3.88l5.49 5.58-3.7.07 30.3-33.04 1.9-2.06c1.13 1.26 8.24 9.07 9.55 10.52l-3.75-.03 36.86-39.44 1.9-2.03 45.37 50.25c1.43 1.62 3.03 3.1 4.33 4.84l4.01 5.12a1374.17 1374.17 0 0 1 15.88 20.66c-3.2-2.95-6.37-5.91-9.52-8.9-2.4-2.23-7.06-6.73-9.42-9l-4.7-4.5c-1.6-1.48-2.9-3.21-4.37-4.8-5.52-6.07-37.28-41.3-43.52-48.18l3.76.03-36.86 39.44-1.9 2.02-9.53-10.5 3.77.01-30.3 33.04-1.82 1.98-1.89-1.91a482.3 482.3 0 0 0-5.5-5.56c-.63-.6-1.27-1.2-1.87-1.82l3.82-.1a899.94 899.94 0 0 1-23.7 22.58Z"/><path fill="#F2F2F2" d="M160.46 239.38c4.64-6.36 9.98-13.39 14.77-19.63 2.11-2.73 4.54-5.98 6.84-8.52 1.15 1.15 2.76 2.68 3.81 3.88a930.3 930.3 0 0 0 5.49 5.58l-3.7.07 30.3-33.04 1.9-2.06c1.13 1.26 8.24 9.07 9.55 10.52l-3.75-.03 36.86-39.44 1.9-2.03 45.37 50.25c1.43 1.62 3.03 3.1 4.33 4.84l4.01 5.12a1394.97 1394.97 0 0 1 15.88 20.66c-3.2-2.95-6.37-5.91-9.52-8.9-2.4-2.23-7.06-6.73-9.42-9l-4.7-4.5c-1.6-1.48-2.9-3.21-4.37-4.8-5.52-6.07-37.28-41.3-43.52-48.18l3.76.03-36.86 39.44-1.9 2.03c-1.22-1.36-8.16-9-9.53-10.5h3.77l-30.3 33.04-1.82 1.98-1.89-1.9c-1.2-1.26-4.29-4.37-5.5-5.57-.63-.6-1.27-1.19-1.87-1.82l3.82-.1a899.94 899.94 0 0 1-23.7 22.58Z"/><path fill="#001F46" fill-rule="evenodd" d="M250.52 64.13c51.48 0 58.28-35.9 58.28-40.38-5.77-3.24-9.73-5.35-12-5.35 0 0 5.88 32.5-46.34 32.5-48.52 0-46.34-32.5-46.34-32.5-2.28 0-6.23 2.1-12 5.35 0 0 7.37 40.38 58.4 40.38Z" clip-rule="evenodd"/><path fill="#000" fill-opacity=".1" fill-rule="evenodd" d="M414.39 238.7a93.8 93.8 0 0 1-28.8 2.6c-8.2-22.38-15.56-36.9-20.01-44.76v270.58s-21.1 6.7-55.87 11.11l-.54-.06 8.27-240.7c2.06-59.76 31.09-95.3 60.1-117.44a148.7 148.7 0 0 0-7 23.66c7.36 11.85 24.44 42.07 43.83 94.97l.02.04ZM191.52 478.17c-34.25-4.4-56.48-11.05-56.48-11.05V196.55c-4.45 7.86-11.8 22.38-20 44.74a93.6 93.6 0 0 1-28.52-2.52l.02-.1c19.38-52.85 36.31-83.07 43.61-94.94a148.72 148.72 0 0 0-7-23.7c29.01 22.15 58.04 57.68 60.1 117.44 2.55 74.23 6.4 185.9 8.27 240.7Z" clip-rule="evenodd"/><path fill="#004DA1" fill-rule="evenodd" d="M288.17 116.4h43.88c0 43.6-21.94 54-21.94 54s-21.94-10.39-21.94-54Z" clip-rule="evenodd"/><path fill="#F2F2F2" fill-rule="evenodd" d="M287.67 115.9h44.88v.5c0 21.9-5.5 35.5-11.06 43.64a38.92 38.92 0 0 1-7.64 8.45 24.8 24.8 0 0 1-3.45 2.33l-.05.03h-.02l-.22-.45-.21.46h-.01l-.01-.01a38.9 38.9 0 0 1-11.15-10.8c-5.55-8.15-11.06-21.75-11.06-43.65v-.5Zm22.44 54.5-.21.46.21.1.21-.1-.2-.46Zm0-.56h.01c.15-.09.38-.21.67-.4.58-.35 1.42-.92 2.44-1.73a37.88 37.88 0 0 0 7.44-8.24c5.38-7.9 10.8-21.15 10.88-42.57h-42.88c.09 21.42 5.5 34.68 10.89 42.57a37.88 37.88 0 0 0 7.44 8.24 23.97 23.97 0 0 0 3.1 2.13h.01Z" clip-rule="evenodd"/><path fill="#F2F2F2" fill-rule="evenodd" d="M310.11 170.4v-54h21.94c0 43.6-21.94 54-21.94 54Z" clip-rule="evenodd"/><path fill="#F2F2F2" fill-rule="evenodd" d="M311.11 169.84c-.63.4-1 .56-1 .56v-54h21.94v1c-.3 37.21-16.68 49.8-20.94 52.44Zm0-1.2c.5-.32 1.1-.76 1.8-1.32a37.42 37.42 0 0 0 7.34-8.13c5.28-7.74 10.63-20.75 10.8-41.79H311.1v51.25Z" clip-rule="evenodd"/></svg>