<?xml version="1.0" encoding="UTF-8"?><svg height="500" viewBox="0 0 500 500" width="500" xmlns="http://www.w3.org/2000/svg"><g fill="none" fill-rule="evenodd"><path d="M203.006 109.193h93.643V21.898h-93.643z" fill="#bb262d"/><path d="M202.867 32.198h93.458v-14.2h-93.458z" fill="#383838"/><path d="M29.003 203.03c4.445 13.375 45.208 40.86 85.232 37.885 13.34-36.4 24.46-52 24.46-52S141.658 93.83 87.55 75.26c0 0-40.763 72.8-58.548 127.77zM411.476 75.26s40.762 72.8 58.547 127.77c-4.445 13.375-45.208 40.86-85.232 37.885-13.34-36.4-24.46-52-24.46-52S357.368 93.83 411.476 75.26" fill="#f2c801"/><path d="M249.514 57.706c-50.082 0-47.798-39.47-48.742-39.14-7.516 2.618-24.133 14.936-52.439 25.495-31.873 11.885-52.626 19.315-60.782 31.2 11.114 8.915 46.694 28.97 46.694 120.345v271.14S183.903 481.6 249.13 481.6c68.929 0 115.648-14.855 115.648-14.855v-271.14c0-91.375 35.58-111.43 46.7-120.345-8.157-11.885-28.91-19.315-60.783-31.2-28.36-10.577-44.982-22.92-52.478-25.511-.927-.318 4.177 39.156-48.703 39.156z" fill="#de3038"/><path d="M223 52.568V480.79c-26.04-1.533-48.29-5.071-64-8.217V39.754c21.893-9.386 35.254-18.95 41.772-21.224.731-.252-.474 23.376 22.228 34.038zm118-12.4v432.384c-15.28 3.13-37.264 6.653-64 8.207V52.64c23.414-10.628 20.497-34.37 21.217-34.125 6.598 2.283 20.265 12.117 42.783 21.653z" fill="#f2c801"/><path d="M75.025 117.298c10.132-20.75 17.944-35.245 17.944-35.245 7.882-11.885 27.937-19.315 58.747-31.2 29.359-11.33 45.835-24.635 52.265-25.865-.678-4.5-.798-6.882-.804-6.97-5.927 0-22.98 14.025-54.853 25.91-31.868 11.89-52.62 19.315-60.772 31.2 0 0-8.232 14.76-18.858 35.825C49.557 149.176 36.326 179.867 29 203.027c.3 1.058 1.008 2.41 2.123 4.056s2.05 2.777 2.807 3.396c8.386-23.684 22.084-54.745 41.095-93.18zM423.965 117.322c-10.132-20.75-17.958-35.269-17.958-35.269-7.882-11.885-27.936-19.315-58.747-31.2-29.358-11.33-45.149-24.497-51.58-25.727.68-4.5.326-6.505.19-7.038 5.926 0 22.91 13.955 54.783 25.84 31.867 11.89 52.62 19.315 60.772 31.2 0 0 8.231 14.76 18.857 35.825 18.39 36.305 31.635 66.996 39.738 92.074-.491 1.317-.977 2.346-1.457 3.088-.481.741-1.276 1.804-2.385 3.188-18.428-43.992-32.498-74.652-42.213-91.98z" fill="#de3038"/><g fill="#3d3d3d"><path d="M467.461 195.302a338.826 338.826 0 0 1 2.668 7.9c-4.445 13.375-45.208 40.86-85.232 37.885a426.405 426.405 0 0 0-2.836-7.52c20.795-1.358 37.993-5.637 51.595-12.837 13.428-7.11 24.696-15.585 33.805-25.428zM31.655 195.302c9.103 9.828 20.36 18.291 33.772 25.392 13.611 7.205 30.824 11.485 51.64 12.84a426.42 426.42 0 0 0-2.835 7.516C74.208 244.025 33.445 216.54 29 203.165c.836-2.584 1.723-5.209 2.655-7.863zM249.576 63.752c51.479 0 58.279-35.895 58.279-40.38-5.772-3.24-9.728-5.345-12.008-5.345 0 0 5.881 32.495-46.335 32.495-48.52 0-46.336-32.495-46.336-32.495-2.28 0-6.235 2.105-12.002 5.345 0 0 7.368 40.38 58.402 40.38"/></g><path d="M296.03 126.142c-4.98 3.04-7.03 8.094-7.03 16.552 0 12.871 8.954 23.306 20 23.306s20-10.435 20-23.306c0-8.44-2.031-13.477-6.99-16.524" stroke="#e9b744" stroke-dasharray="0 1" stroke-linecap="round" stroke-linejoin="round" stroke-width="5"/><path d="M298 131h22v15.154a3 3 0 0 1-1.185 2.39L309 156l-9.815-7.457a3 3 0 0 1-1.185-2.389z" fill="#e9b744"/><path d="M300 133h18v12.515a3 3 0 0 1-1.155 2.366L309 154l-7.845-6.12a3 3 0 0 1-1.155-2.365z" fill="#e5150c"/><path d="M302.5 148.93l-1.345-1.05a3 3 0 0 1-1.155-2.365V137h2.5zm5.167 4.03l-2.5-1.95V137h2.5zm5.166-1.95l-2.5 1.95V137h2.5zM318 137v8.515a3 3 0 0 1-1.155 2.366l-1.345 1.049V137z" fill="#ffe600"/><path d="M331 162.959c-4-3-14.56 2-22 2s-18-5-22-2v-6c4-3 14.56 2 22 2s17-5 22-2z" stroke="#e9b744" stroke-width="2"/><path d="M331 162.959c-4-3-14.56 2-22 2s-18-5-22-2v-6c4-3 14.56 2 22 2s17-5 22-2z" fill="#e5150c"/><path d="M319.486 124.818c.067-.176.31-.84.294-.799.12-.326.219-.582.325-.838 1.153-2.795 1.326-4.2.003-5.726-1.466-1.69-4.843-2.755-10.996-3.449l-.112-.012-.112.012c-6.153.694-9.53 1.758-10.996 3.45-1.323 1.525-1.15 2.93.003 5.725.106.256.204.512.325.838-.016-.042.227.623.294.799 1.25 3.309 3.2 4.182 10.486 4.182s9.235-.873 10.486-4.182z" fill="#e9b744" fill-rule="nonzero"/><path d="M309 128c9.363 0 8.726-1.675 10.18-5.2s2.398-6.382-10.18-7.8c-12.578 1.418-11.635 4.275-10.18 7.8s.817 5.2 10.18 5.2z" fill="#e5150c"/><path d="M413.584 238.323c-9.287 2.238-19.064 3.316-28.798 2.592-8.197-22.369-15.557-36.883-20.012-44.748v270.577s-21.102 6.71-55.867 11.11l-.544-.059c1.881-54.795 5.722-166.47 8.277-240.705 2.055-59.755 31.084-95.29 60.099-117.44-2.676 6.78-5.072 14.606-7 23.667 7.354 11.852 24.436 42.069 43.831 94.964l.014.042zM190.717 477.795c-34.248-4.401-56.477-11.05-56.477-11.05V196.171c-4.456 7.867-11.813 22.38-20.01 44.743-9.632.716-19.308-.332-28.51-2.523.005-.033.012-.065.02-.097 19.377-52.848 36.305-83.066 43.61-94.944-1.93-9.075-4.328-16.912-7.007-23.701 29.015 22.15 58.044 57.685 60.1 117.44 2.554 74.235 6.395 185.91 8.276 240.705z" fill="#000" fill-opacity=".1"/></g></svg>