<svg xmlns="http://www.w3.org/2000/svg" width="501" height="501" fill="none"><path fill="#5C0E0A" fill-rule="evenodd" d="M203.95 109.74h93.65v-87.3h-93.65v87.3Z" clip-rule="evenodd"/><path fill="#030B3D" fill-rule="evenodd" d="M203.81 32.74h93.46v-14.2h-93.46v14.2Z" clip-rule="evenodd"/><path fill="#DC3428" fill-rule="evenodd" d="M88.5 75.8s-40.77 72.8-58.55 127.78c4.44 13.37 45.2 40.86 85.23 37.88 13.34-36.4 24.46-52 24.46-52S142.6 94.37 88.49 75.8Zm323.92 0s40.76 72.8 58.55 127.78c-4.45 13.37-45.21 40.86-85.24 37.88-13.33-36.4-24.45-52-24.45-52S358.3 94.37 412.42 75.8Z" clip-rule="evenodd"/><path fill="#DC3428" fill-rule="evenodd" d="M250.46 58.25c-50.08 0-47.8-39.47-48.74-39.14-7.52 2.62-24.13 14.94-52.44 25.5-31.87 11.88-52.63 19.31-60.78 31.2 11.11 8.91 46.7 28.97 46.7 120.34v271.14s49.65 14.85 114.88 14.85c68.93 0 115.65-14.85 115.65-14.85V196.15c0-91.38 35.57-111.43 46.7-120.34-8.16-11.89-28.92-19.32-60.79-31.2-28.36-10.58-44.98-22.92-52.48-25.51-.92-.32 4.18 39.15-48.7 39.15Z" clip-rule="evenodd"/><path fill="#CA1E16" fill-rule="evenodd" d="M294.68 37.8c45.26 11.34 71.5 39.34 71.5 67.99v72.9c-.3 5.5-.45 11.3-.45 17.43v271.14S319 482.1 250.08 482.1c-65.23 0-114.89-14.85-114.89-14.85V196.12c0-6.26-.16-12.2-.48-17.8v-72.53c0-28.84 26.6-57.02 72.42-68.2 5.6 10.12 17.5 20.63 43.33 20.63 27.08 0 38.96-10.36 44.22-20.41Z" clip-rule="evenodd"/><path fill="#FFCE5B" fill-rule="evenodd" d="M250.52 64.3c51.48 0 58.28-35.9 58.28-40.38-5.77-3.24-9.73-5.35-12-5.35 0 0 5.88 32.5-46.34 32.5-48.52 0-46.34-32.5-46.34-32.5-2.28 0-6.23 2.1-12 5.35 0 0 7.37 40.38 58.4 40.38Z" clip-rule="evenodd"/><path fill="#AB1913" fill-rule="evenodd" d="M201.1 42.72c3.38-1.77 6.87-3.36 10.46-4.77 6.26 6.96 17.78 13.12 38.9 13.12 22.55 0 34.27-6.06 40.3-12.95a107.5 107.5 0 0 1 10.45 4.81c-7.58 10.52-22.38 21.37-50.69 21.37-26.69 0-41.43-11.05-49.43-21.58Z" clip-rule="evenodd"/><path fill="#000" fill-opacity=".1" fill-rule="evenodd" d="M414.39 238.87a93.8 93.8 0 0 1-28.8 2.6c-8.2-22.38-15.56-36.9-20.01-44.76V467.3s-21.1 6.7-55.87 11.11l-.54-.06 8.27-240.7c2.06-59.76 31.09-95.3 60.1-117.44a148.7 148.7 0 0 0-7 23.66c7.36 11.85 24.44 42.07 43.83 94.97l.02.04ZM191.52 478.34c-34.25-4.4-56.48-11.05-56.48-11.05V196.72c-4.45 7.86-11.8 22.38-20 44.74a93.6 93.6 0 0 1-28.52-2.52l.02-.1c19.38-52.85 36.31-83.07 43.61-94.94a148.74 148.74 0 0 0-7-23.7c29.01 22.14 58.04 57.68 60.1 117.43 2.55 74.24 6.4 185.92 8.27 240.71Z" clip-rule="evenodd"/><path fill="#DC3428" fill-rule="evenodd" d="M294.57 134.39s6.05-5.24 16.02-5.24c9.98 0 16.03 5.24 16.03 5.24 7.75 27.25-16.03 39.48-16.03 39.48s-23.77-12.23-16.02-39.48Z" clip-rule="evenodd"/><path fill="#85140F" fill-rule="evenodd" d="m293.68 133.36.89 1.03c-7.75 27.25 16.02 39.48 16.02 39.48l-.62 1.21-.03-.01-.06-.03-.22-.12-.78-.46a39.3 39.3 0 0 1-10.28-9.28c-5.2-6.75-9.35-17.06-5.34-31.16l.11-.4.3-.26Zm32.94 1.03.89-1.03h-.01l-.02-.02a3.16 3.16 0 0 0-.3-.25c-.22-.16-.51-.38-.9-.64-.77-.53-1.9-1.22-3.35-1.9a28.72 28.72 0 0 0-12.34-2.76c-5.23 0-9.43 1.37-12.33 2.75a25.28 25.28 0 0 0-4.25 2.55l-.24.2-.06.05-.02.01-.01.01.89 1.03s6.05-5.24 16.02-5.24c9.98 0 16.03 5.24 16.03 5.24Zm0 0c7.75 27.25-16.03 39.48-16.03 39.48l-.62 1.21.62.32.63-.32-.63-1.2.63 1.2.02-.01.06-.03.22-.12.79-.46a39.24 39.24 0 0 0 10.28-9.28c5.19-6.75 9.35-17.06 5.34-31.16l-.12-.4-.3-.26-.9 1.03Z" clip-rule="evenodd"/><rect width="21.68" height="6.99" x="299.83" y="153.6" fill="#FFCD5B" rx="2"/><path fill="#FFCD5B" d="M319.99 134.34c1.37 1.05.05 2.56-1.68 2.58-8.52.13-.14 4.34-3.5 4.34-.4 0-.8-.02-1.19-.07a1.2 1.2 0 0 0-1 .38 9.92 9.92 0 0 1-3.75 2.57 8.72 8.72 0 0 0-2.55 1.82c-.67.62-1.42 3.6-2.51 3.88-2.49.67-5.03-2.52-5.45-4.09-.28-1.04.35-2.18 1.53-3.02a9.34 9.34 0 0 0 2.65-3.17 9 9 0 0 1 3.46-3.42c.64-.37 1.3-.66 1.94-.87.63-.2 1.2-.56 1.74-.96a8.65 8.65 0 0 1 5.13-1.52c2.09 0 3.95.6 5.18 1.55Z"/></svg>