<svg xmlns="http://www.w3.org/2000/svg" width="500" height="500" fill="none" viewBox="0 0 500 500"><path fill="#D9D9D9" fill-rule="evenodd" d="M203 109.22h93.65v-87.3H203v87.3Z" clip-rule="evenodd"/><path fill="#268A49" fill-rule="evenodd" d="M203 30h94V18h-94v12Z" clip-rule="evenodd"/><path fill="#F2F2F2" fill-rule="evenodd" d="M87.55 75.26S46.78 148.06 29 203.03c4.44 13.37 45.2 40.86 85.23 37.88 13.34-36.4 24.46-52 24.46-52s2.97-95.08-51.14-113.65M411.47 75.26s40.77 72.8 58.55 127.77c-4.44 13.37-45.2 40.86-85.23 37.88-13.34-36.4-24.46-52-24.46-52s-2.96-95.08 51.14-113.65" clip-rule="evenodd"/><path fill="#F2F2F2" fill-rule="evenodd" d="M249.51 57.7c-50.08 0-47.8-39.46-48.74-39.13-7.52 2.61-24.13 14.93-52.44 25.49-31.87 11.89-52.62 19.32-60.78 31.2 11.11 8.92 46.7 28.97 46.7 120.34v271.14s49.65 14.86 114.88 14.86c68.93 0 115.65-14.86 115.65-14.86V195.62c0-91.38 35.58-111.43 46.7-120.35-8.16-11.88-28.91-19.31-60.79-31.2-28.36-10.58-44.98-22.92-52.47-25.5-.93-.33 4.17 39.15-48.7 39.15Z" clip-rule="evenodd"/><path fill="#2EA256" fill-rule="evenodd" d="M364.78 196.15v270.56s-2.61.84-7.52 2.1V198.04c1.66-.66 3.1-1.14 4.33-1.43.79-.19 1.85-.34 3.2-.45ZM141.75 468.72c-4.86-1.22-7.5-2-7.5-2V196.14c1.33.11 2.39.26 3.18.45 1.22.3 2.66.77 4.32 1.43v270.69ZM307.85 23.34c-5.77-3.23-9.73-5.34-12-5.34 0 0 5.88 32.5-46.34 32.5-48.52 0-46.34-32.5-46.34-32.5-2.28 0-6.23 2.1-12 5.34 0 0 7.37 40.39 58.4 40.39 51.48 0 58.28-35.9 58.28-40.38Z" clip-rule="evenodd"/><path fill="#000" fill-opacity=".08" fill-rule="evenodd" d="M413.58 238.32a93.79 93.79 0 0 1-28.8 2.6c-8.2-22.37-15.55-36.89-20-44.75v270.57s-21.1 6.71-55.87 11.12c-.18-.03-.37-.04-.55-.06l8.28-240.71c2.06-59.75 31.08-95.29 60.1-117.44a148.6 148.6 0 0 0-7 23.67c7.35 11.85 24.44 42.07 43.83 94.96l.01.04ZM190.72 477.8c-34.25-4.4-56.48-11.06-56.48-11.06V196.18c-4.46 7.87-11.81 22.38-20 44.75-9.64.71-19.32-.34-28.52-2.53l.02-.1c19.38-52.84 36.3-83.06 43.61-94.94a148.62 148.62 0 0 0-7-23.7c29 22.15 58.04 57.69 60.1 117.44l8.27 240.7Z" clip-rule="evenodd"/><circle cx="309" cy="142" r="23" fill="#3D3D3D"/><circle cx="309" cy="142" r="21" fill="#F2F2F2"/><path fill="#2EA256" d="m294.15 132.8 5.66-5.65 24.04 24.04-5.66 5.66-24.04-24.04Z"/><path fill="#2EA256" d="m299.8 156.85-5.65-5.66 24.04-24.04 5.66 5.66-24.04 24.04Z"/><path fill="#BC2B2B" d="M313 125h-8v13h-13v8h13v13h8v-13h13v-8h-13v-13Z"/><path fill="#3357B3" fill-rule="evenodd" d="M309 155a13 13 0 1 0 0-26 13 13 0 0 0 0 26Zm0-1.86a11.14 11.14 0 1 0 0-22.28 11.14 11.14 0 0 0 0 22.28Z" clip-rule="evenodd"/></svg>