<?xml version="1.0" encoding="UTF-8"?><svg height="500" viewBox="0 0 500 500" width="500" xmlns="http://www.w3.org/2000/svg"><g fill="none" fill-rule="evenodd"><path d="M0 0h500v500H0z"/><path d="M203.006 109.193h93.643V21.898h-93.643z" fill="#af1916"/><path d="M202.867 32.198h93.458v-14.2h-93.458z" fill="#c31d1a"/><path d="M87.547 75.26S46.785 148.06 29 203.031c4.445 13.375 45.207 40.86 85.232 37.886 13.34-36.4 24.46-52 24.46-52S141.653 93.83 87.546 75.26M411.473 75.26s40.762 72.8 58.547 127.771c-4.445 13.375-45.207 40.86-85.232 37.886-13.34-36.4-24.46-52-24.46-52S357.367 93.83 411.474 75.26" fill="#f2f2f2"/><path d="M249.514 57.706c-50.082 0-47.799-39.47-48.743-39.14-7.516 2.618-24.133 14.936-52.439 25.495-31.872 11.885-52.625 19.315-60.782 31.2 11.115 8.915 46.694 28.97 46.694 120.345v271.14S183.902 481.6 249.13 481.6c68.93 0 115.649-14.855 115.649-14.855v-271.14c0-91.375 35.58-111.43 46.7-120.345-8.157-11.885-28.91-19.315-60.783-31.2-28.36-10.577-44.982-22.92-52.478-25.511-.928-.318 4.177 39.156-48.703 39.156z" fill="#da211d"/><g fill="#f2f2f2"><path d="M265.462 56.275c15.676-3.094 23.748-10.752 27.937-18.367v441.644a478.696 478.696 0 0 1-27.937 1.768zm58.867-23.88c7.325 3.753 16.071 7.824 26.363 11.662l1.574.587v425.441c-6.829 1.637-16.283 3.657-27.937 5.546zm-89.797 448.958c-9.8-.327-19.156-.961-27.937-1.79V37.808c4.477 7.684 12.68 15.434 27.937 18.512zm-58.867-5.74c-11.44-1.847-20.935-3.817-27.937-5.43V44.282l.602-.224c10.75-4.01 19.815-8.274 27.335-12.164z"/><path d="M75.025 117.298c10.132-20.75 17.944-35.245 17.944-35.245 7.882-11.885 27.937-19.315 58.747-31.2 29.359-11.33 45.835-24.635 52.265-25.865-.678-4.5-.798-6.882-.804-6.97-5.927 0-22.98 14.025-54.853 25.91-31.868 11.89-52.62 19.315-60.772 31.2 0 0-8.232 14.76-18.858 35.825C49.557 149.176 36.326 179.867 29 203.027c.3 1.058 1.008 2.41 2.123 4.056s2.05 2.777 2.807 3.396c8.386-23.684 22.084-54.745 41.095-93.18zM423.965 117.322c-10.132-20.75-17.958-35.269-17.958-35.269-7.882-11.885-27.936-19.315-58.747-31.2-29.358-11.33-45.149-24.497-51.58-25.727.68-4.5.326-6.505.19-7.038 5.926 0 22.91 13.955 54.783 25.84 31.867 11.89 52.62 19.315 60.772 31.2 0 0 8.231 14.76 18.857 35.825 18.39 36.305 31.635 66.996 39.738 92.074-.491 1.317-.977 2.346-1.457 3.088-.481.741-1.276 1.804-2.385 3.188-18.428-43.992-32.498-74.652-42.213-91.98z"/></g><path d="M467.461 195.302a338.826 338.826 0 0 1 2.668 7.9c-4.445 13.375-45.208 40.86-85.232 37.885a426.405 426.405 0 0 0-2.836-7.52c20.795-1.358 37.993-5.637 51.595-12.837 13.428-7.11 24.696-15.585 33.805-25.428zM31.655 195.302c9.103 9.828 20.36 18.291 33.772 25.392 13.611 7.205 30.824 11.485 51.64 12.84a426.42 426.42 0 0 0-2.835 7.516C74.208 244.025 33.445 216.54 29 203.165c.836-2.584 1.723-5.209 2.655-7.863zM249.576 63.752c51.479 0 58.279-35.895 58.279-40.38-5.772-3.24-9.728-5.345-12.008-5.345 0 0 5.881 32.495-46.335 32.495-48.52 0-46.336-32.495-46.336-32.495-2.28 0-6.235 2.105-12.002 5.345 0 0 7.368 40.38 58.402 40.38" fill="#da211d"/><circle cx="309" cy="143" fill="#f2f2f2" r="24"/><circle cx="309" cy="143" fill="#ed1c22" r="22"/><circle cx="309" cy="143" fill="#141414" r="16"/><path d="M413.584 238.323c-9.287 2.238-19.064 3.316-28.798 2.592-8.197-22.369-15.557-36.883-20.012-44.748v270.577s-21.102 6.71-55.867 11.11l-.544-.059c1.881-54.795 5.722-166.47 8.277-240.705 2.055-59.755 31.084-95.29 60.099-117.44-2.676 6.78-5.072 14.606-7 23.667 7.354 11.852 24.436 42.069 43.831 94.964l.014.042zM190.717 477.795c-34.248-4.401-56.477-11.05-56.477-11.05V196.171c-4.456 7.867-11.813 22.38-20.01 44.743-9.632.716-19.308-.332-28.51-2.523.005-.033.012-.065.02-.097 19.377-52.848 36.305-83.066 43.61-94.944-1.93-9.075-4.328-16.912-7.007-23.701 29.015 22.15 58.044 57.685 60.1 117.44 2.554 74.235 6.395 185.91 8.276 240.705z" fill="#000" fill-opacity=".1"/><g fill="#f2f2f2"><path d="M297.33 136.302l4.952.654c1.856 5.555 5.57 10.139 11.144 13.753 1.625.86 2.3 1.517 2.027 1.972-.273.454-1.261.269-2.963-.557-8.042-3.229-13.096-8.503-15.16-15.822z"/><path d="M320.67 136.306l-4.977.652c-1.865 5.553-5.6 10.136-11.207 13.747-1.6.81-2.27 1.462-2.008 1.96.26.497 1.245.315 2.95-.544 8.092-3.225 13.172-8.496 15.243-15.815z"/></g></g></svg>