<?xml version="1.0" encoding="UTF-8"?><svg height="500" viewBox="0 0 500 500" width="500" xmlns="http://www.w3.org/2000/svg"><g fill="none" fill-rule="evenodd"><path d="M0 0h500v500H0z"/><path d="M203.003 109.223h93.643V21.928h-93.643z" fill="#daa41d"/><path d="M202.864 32.228h93.458v-14.2h-93.458z" fill="#f0b31f"/><g fill="#ffc023"><path d="M87.548 75.258S46.785 148.058 29 203.029c4.445 13.376 45.208 40.86 85.232 37.886 13.34-36.4 24.46-52 24.46-52s2.963-95.085-51.144-113.655M411.473 75.258s40.762 72.8 58.547 127.77c-4.445 13.376-45.208 40.86-85.232 37.886-13.34-36.4-24.46-52-24.46-52s-2.963-95.085 51.145-113.655"/><path d="M249.511 57.703c-50.082 0-47.798-39.47-48.742-39.14-7.516 2.618-24.133 14.936-52.439 25.495-31.873 11.885-52.626 19.315-60.782 31.2 11.114 8.915 46.694 28.97 46.694 120.345v271.14s49.658 14.855 114.885 14.855c68.929 0 115.648-14.855 115.648-14.855v-271.14c0-91.375 35.58-111.43 46.7-120.345-8.157-11.885-28.91-19.315-60.783-31.2-28.36-10.577-44.982-22.92-52.478-25.511-.927-.318 4.177 39.156-48.703 39.156z"/><path d="M307.852 23.345C302.08 20.105 298.124 18 295.844 18c0 0 5.881 32.495-46.335 32.495-48.52 0-46.336-32.495-46.336-32.495-2.28 0-6.235 2.105-12.002 5.345 0 0 7.368 40.38 58.402 40.38 51.479 0 58.279-35.895 58.279-40.38z"/></g><path d="M413.584 238.323c-9.287 2.238-19.064 3.316-28.798 2.592-8.197-22.369-15.557-36.883-20.012-44.748v270.577s-21.102 6.71-55.867 11.11l-.544-.059c1.881-54.795 5.722-166.47 8.277-240.705 2.055-59.755 31.084-95.29 60.099-117.44-2.676 6.78-5.072 14.606-7 23.667 7.354 11.852 24.436 42.069 43.831 94.964l.014.042zM190.717 477.795c-34.248-4.401-56.477-11.05-56.477-11.05V196.171c-4.456 7.867-11.813 22.38-20.01 44.743-9.632.716-19.308-.332-28.51-2.523.005-.033.012-.065.02-.097 19.377-52.848 36.305-83.066 43.61-94.944-1.93-9.075-4.328-16.912-7.007-23.701 29.015 22.15 58.044 57.685 60.1 117.44 2.554 74.235 6.395 185.91 8.276 240.705z" fill="#000" fill-opacity=".06"/><path d="M295.876 119.703C299.38 118.568 303.755 118 309 118c5.245 0 9.62.568 13.124 1.703a2 2 0 0 1 1.382 1.814c.33 7.426.494 14.14.494 20.145C324 159.606 310.84 168 309 168s-15-8.395-15-26.338c0-6.003.165-12.718.494-20.145a2 2 0 0 1 1.382-1.814z" fill="#010101"/><path d="M296.854 121.534C300.108 120.511 304.156 120 309 120c4.844 0 8.892.511 12.146 1.534a2 2 0 0 1 1.398 1.818c.304 6.786.456 12.925.456 18.417C323 158.277 310.718 166 309 166s-14-7.724-14-24.23c0-5.493.152-11.632.456-18.418a2 2 0 0 1 1.398-1.818z" fill="#fff"/><path d="M319.732 121.925l.456.136c.8.246 1.354.949 1.39 1.759.282 6.26.422 11.925.422 16.995 0 8.552-3.574 14.556-7 18.185l.001-38c1.732.21 3.309.517 4.731.925z" fill="#00b700"/><path d="M303 121v38c-3.426-3.63-7-9.634-7-18.185 0-5.07.14-10.734.421-16.995.037-.81.592-1.513 1.39-1.76 1.54-.475 3.27-.828 5.189-1.06z" fill="#000"/><path d="M309 121c1.222 0 2.389.034 3.501.103l-.001 39.976c-1.666 1.29-3.023 1.921-3.5 1.921-.477 0-1.834-.632-3.5-1.921l-.001-39.976A56.742 56.742 0 0 1 309 121z" fill="#ffc200"/><path d="M309 128c4.597 0 9.193.563 13.79 1.69.067 2.084.119 4.097.153 6.04-4.648-1.154-9.295-1.73-13.943-1.73s-9.296.576-13.944 1.728c.036-1.941.087-3.953.154-6.034A57.54 57.54 0 0 1 309 128z" fill="#fff"/></g></svg>