<?xml version="1.0" encoding="UTF-8"?><svg height="500" viewBox="0 0 500 500" width="500" xmlns="http://www.w3.org/2000/svg"><g fill="none" fill-rule="evenodd"><path d="M0 0h500v500H0z"/><path d="M203.006 109.193h93.643V21.898h-93.643z" fill="#c2c2c2"/><path d="M202.867 32.198h93.458v-14.2h-93.458z" fill="#008d62"/><path d="M87.55 75.26s-40.762 72.8-58.547 127.77c4.445 13.375 45.208 40.86 85.232 37.885 13.34-36.4 24.46-52 24.46-52S141.658 93.83 87.55 75.26M411.476 75.26s40.762 72.8 58.547 127.77c-4.445 13.375-45.208 40.86-85.232 37.885-13.34-36.4-24.46-52-24.46-52S357.368 93.83 411.476 75.26" fill="#f2f2f2"/><path d="M249.514 57.706c-50.082 0-47.798-39.47-48.742-39.14-7.516 2.618-24.133 14.936-52.439 25.495-31.873 11.885-52.626 19.315-60.782 31.2 11.114 8.915 46.694 28.97 46.694 120.345v271.14S183.903 481.6 249.13 481.6c68.929 0 115.648-14.855 115.648-14.855v-271.14c0-91.375 35.58-111.43 46.7-120.345-8.157-11.885-28.91-19.315-60.783-31.2-28.36-10.577-44.982-22.92-52.478-25.511-.927-.318 4.177 39.156-48.703 39.156z" fill="#f2f2f2"/><g fill="#00996b"><path d="M467.461 195.302a338.826 338.826 0 0 1 2.668 7.9c-4.445 13.375-45.208 40.86-85.232 37.885a426.405 426.405 0 0 0-2.836-7.52c20.795-1.358 37.993-5.637 51.595-12.837 13.428-7.11 24.696-15.585 33.805-25.428zM31.655 195.302c9.103 9.828 20.36 18.291 33.772 25.392 13.611 7.205 30.824 11.485 51.64 12.84a426.42 426.42 0 0 0-2.835 7.516C74.208 244.025 33.445 216.54 29 203.165c.836-2.584 1.723-5.209 2.655-7.863zM209 479.753a473.024 473.024 0 0 1-40-5.297V466h40zm80 .157a480.221 480.221 0 0 1-39.87 1.657H249V466h40v13.91zM364.778 466v.713s-13.145 4.18-35.778 8.105V466zm-230.533-40H169v40h-34.755zm230.533-40v40H329v-40zm-230.533-40H169v40h-34.755zm230.533-40v40H329v-40zm-230.533-40H169v40h-34.755zm230.533-40v40H329v-40zM134.11 186H169v40h-34.755v-30.427c0-3.282-.046-6.472-.135-9.573zm231.13-40v32.15a301.8 301.8 0 0 0-.327 7.85H329v-40zm-231.477-40H169v40h-35.237zm213.93-40c11.426 11.728 17.546 25.41 17.546 39.242V106H329V66zM169 52.054V66h-17.69c4.93-5.06 10.849-9.758 17.69-13.946zm80 5.617V66h-40V41.39c6.427 8.508 18.198 16.163 40 16.281zm80-6.224V66h-40V44.06a32.678 32.678 0 0 0 4.733-6.8c13.515 3.386 25.335 8.257 35.267 14.187zM209 426h40v40h-40zm80 0h40v40h-40zm-120-40h40v40h-40zm80 0h40v40h-40zm-40-40h40v40h-40zm80 0h40v40h-40zm-120-40h40v40h-40zm80 0h40v40h-40zm-40-40h40v40h-40zm80 0h40v40h-40zm-120-40h40v40h-40zm80 0h40v40h-40zm-40-40h40v40h-40zm80 0h40v40h-40zm-120-40h40v40h-40zm80 0h40v40h-40zm-40-40h40v40h-40zm80 0h40v40h-40zM169 66h40v40h-40zm80 0h40v40h-40z"/><path d="M293.89 36.956C341.407 48.087 369 76.337 369 105.242v41.277c-2.052 10.582-3.477 22.773-4 36.846v-78.123c0-17.129-10.617-34.06-29.848-46.886-11.92-7.95-26.607-14.005-43.396-17.796a33.167 33.167 0 0 0 2.135-3.604zM130 146.399v-41.157c0-29.09 27.947-57.515 76.02-68.493a36.813 36.813 0 0 0 2.22 3.596c-17.21 3.773-32.239 9.907-44.393 18.012C144.617 71.18 134 88.113 134 105.242v77.515c-.543-13.87-1.965-25.9-4-36.358z" fill-rule="nonzero"/><path d="M249.576 63.752c51.479 0 58.279-35.895 58.279-40.38-5.772-3.24-9.728-5.345-12.008-5.345 0 0 5.881 32.495-46.335 32.495-48.52 0-46.336-32.495-46.336-32.495-2.28 0-6.235 2.105-12.002 5.345 0 0 7.368 40.38 58.402 40.38"/></g><path d="M277 131h64l-32 20z" fill="#f2f2f2"/><path d="M281 132h56l-28 17z" fill="#b09800"/><path d="M294.453 120.54c5.724 2.973 10.573 4.46 14.547 4.46s8.822-1.487 14.544-4.46c-3 5-.835 16.39-.835 24.46 0 5.38-4.57 12.047-13.709 20-9.14-7.953-13.71-14.62-13.71-20 0-8.07 2.163-19.46-.837-24.46z" fill="#f2f2f2"/><path d="M281 132h56l-28 17z" fill="#b09800"/><path d="M296.65 123c4.233 2.424 8.35 3.636 12.35 3.636s8.107-1.212 12.32-3.636c-2.571 4.545-.32 14.481-.32 21.818 0 4.891-4 10.952-12 18.182-8-7.23-12-13.29-12-18.182 0-7.336 2.22-17.273-.35-21.818z" fill="#b09800"/><path d="M298.63 125.488c3.918 1.72 7.379 2.581 10.384 2.581s6.456-.86 10.353-2.581c-1.95 3.857 0 12.553 0 19.088 0 4.356-3.456 9.755-10.367 16.194-6.913-6.44-10.37-11.838-10.37-16.194 0-6.535 2.135-15.162 0-19.088z" fill="#f2f2f2"/><path d="M298.63 125.488c3.918 1.72 7.379 2.581 10.384 2.581s6.456-.86 10.353-2.581l-18.556 25.738c-1.453-2.436-2.18-4.653-2.18-6.65 0-6.535 2.134-15.162 0-19.088z" fill="#0e6022"/><path d="M413.584 238.323c-9.287 2.238-19.064 3.316-28.798 2.592-8.197-22.369-15.557-36.883-20.012-44.748v270.577s-21.102 6.71-55.867 11.11l-.544-.059c1.881-54.795 5.722-166.47 8.277-240.705 2.055-59.755 31.084-95.29 60.099-117.44-2.676 6.78-5.072 14.606-7 23.667 7.354 11.852 24.436 42.069 43.831 94.964l.014.042zM190.717 477.795c-34.248-4.401-56.477-11.05-56.477-11.05V196.171c-4.456 7.867-11.813 22.38-20.01 44.743-9.632.716-19.308-.332-28.51-2.523.005-.033.012-.065.02-.097 19.377-52.848 36.305-83.066 43.61-94.944-1.93-9.075-4.328-16.912-7.007-23.701 29.015 22.15 58.044 57.685 60.1 117.44 2.554 74.235 6.395 185.91 8.276 240.705z" fill="#000" fill-opacity=".1"/></g></svg>