<svg width="500" height="500" viewBox="0 0 500 500" fill="none" xmlns="http://www.w3.org/2000/svg"><path fill-rule="evenodd" clip-rule="evenodd" d="M203 109.2h93.65V21.9H203v87.3Z" fill="#242424"/><path fill-rule="evenodd" clip-rule="evenodd" d="M202.87 32.2h93.46V18h-93.46v14.2Z" fill="#000205"/><path fill-rule="evenodd" clip-rule="evenodd" d="M411.48 75.26s40.76 72.8 58.54 127.77c-4.44 13.38-45.2 40.86-85.23 37.88-13.34-36.4-24.46-52-24.46-52s-2.96-95.08 51.15-113.65" fill="#A3BFDB"/><path fill-rule="evenodd" clip-rule="evenodd" d="M249.51 57.7c-50.08 0-47.8-39.46-48.74-39.13-7.51 2.62-24.13 14.93-52.44 25.5-31.87 11.88-52.62 19.3-60.78 31.2 11.12 8.9 46.7 28.96 46.7 120.34v271.14s49.65 14.85 114.88 14.85c68.93 0 115.65-14.85 115.65-14.85V195.6c0-91.38 35.58-111.43 46.7-120.35-8.16-11.88-28.91-19.31-60.79-31.2-28.35-10.58-44.98-22.92-52.47-25.5-.93-.33 4.17 39.15-48.7 39.15Z" fill="#303B5C"/><path fill-rule="evenodd" clip-rule="evenodd" d="M250 57.7v423.9h-.87c-65.23 0-114.89-14.86-114.89-14.86V196.17c-4.45 7.87-11.81 22.38-20 44.74-40.03 2.98-80.8-24.5-85.24-37.88C46.78 148.06 87.55 75.26 87.55 75.26c8.15-11.89 28.9-19.32 60.78-31.2 28.3-10.56 44.92-22.88 52.44-25.5.94-.33-1.34 39.14 48.74 39.14h.49Z" fill="#A3BFDB"/><path d="M87.55 75.26c.78.62 1.67 1.3 2.66 2.05 13.24 10 44.04 33.29 44.04 118.3v.56c-4.46 7.87-11.82 22.38-20.01 44.75-40.03 2.97-80.8-24.51-85.24-37.89C46.8 148.06 87.55 75.26 87.55 75.26Z" fill="#A3BFDB"/><path fill-rule="evenodd" clip-rule="evenodd" d="M249.58 63.75c51.47 0 58.28-35.9 58.28-40.38-5.78-3.24-9.73-5.34-12.01-5.34 0 0 5.88 32.5-46.34 32.5-48.52 0-46.33-32.5-46.33-32.5-2.28 0-6.24 2.1-12 5.34 0 0 7.36 40.38 58.4 40.38" fill="#1E2537"/><path fill-rule="evenodd" clip-rule="evenodd" d="M298.4 18.58c-1.01-.36-1.86-.55-2.55-.55 0 0 5.88 32.5-46.34 32.5-48.52 0-46.33-32.5-46.33-32.5-.7 0-1.54.2-2.55.55-.05.95-1.57 34.26 48.88 34.26 54.3 0 49.04-33.3 48.88-34.26Z" fill="#DEDEDE"/><path fill-rule="evenodd" clip-rule="evenodd" d="M467.35 195.13c.94 2.67 1.83 5.3 2.67 7.9-4.44 13.37-45.2 40.86-85.23 37.88-.96-2.61-1.9-5.12-2.84-7.52 20.8-1.35 38-5.63 51.6-12.83 13.43-7.11 24.7-15.59 33.8-25.43ZM31.65 195.16c9.1 9.83 20.37 18.3 33.78 25.4 13.6 7.2 30.82 11.48 51.64 12.84-.93 2.4-1.88 4.9-2.84 7.51-40.02 2.98-80.79-24.5-85.23-37.88.84-2.59 1.72-5.21 2.65-7.87Z" fill="#303B5C"/><path fill-rule="evenodd" clip-rule="evenodd" d="M413.58 238.32a93.8 93.8 0 0 1-28.8 2.6c-8.2-22.37-15.55-36.89-20-44.75v270.57s-21.1 6.71-55.87 11.12c-.18-.03-.37-.04-.55-.06l8.28-240.71c2.06-59.75 31.09-95.29 60.1-117.44a148.7 148.7 0 0 0-7 23.67c7.35 11.85 24.44 42.07 43.83 94.96l.01.04ZM190.72 477.8c-34.25-4.4-56.48-11.06-56.48-11.06V196.18c-4.46 7.87-11.81 22.38-20 44.75-9.64.71-19.32-.34-28.52-2.53l.02-.1c19.38-52.84 36.3-83.06 43.61-94.94a148.62 148.62 0 0 0-7-23.7c29 22.15 58.04 57.69 60.1 117.44l8.27 240.7Z" fill="#000" fill-opacity=".06"/><path d="M308.5 164.6c12.56-7.48 19.05-20.65 19.48-39.84-6.5-1.1-19.48-4.3-19.48-4.3s-12.98 3.2-19.48 4.3c.43 19.18 6.93 32.36 19.48 39.85Z" fill="#303B5C"/><path fill-rule="evenodd" clip-rule="evenodd" d="m308.5 165.64-.45-.27c-12.9-7.7-19.48-21.2-19.91-40.59l-.02-.77.76-.12c3.22-.54 8.06-1.61 12.12-2.55a587.15 587.15 0 0 0 6.72-1.6l.43-.1.14-.03.21.86s-12.98 3.2-19.48 4.3c.43 19.18 6.93 32.35 19.48 39.84 12.56-7.49 19.05-20.66 19.49-39.85-6.5-1.09-19.49-4.3-19.49-4.3l.22-.85.14.03.43.1a585.77 585.77 0 0 0 6.72 1.6c4.06.94 8.9 2 12.12 2.55l.76.12-.02.77c-.44 19.39-7.02 32.9-19.91 40.59l-.46.27Zm0-45.17-.2-.86.2-.05.22.05-.22.86Z" fill="#DEDEDE"/><path d="M327.02 135.41c-2.26 13.51-8.44 23.19-18.51 29.2-10.08-6.01-16.26-15.69-18.52-29.2a451.37 451.37 0 0 1 37.03 0Z" fill="#303B5C"/><path fill-rule="evenodd" clip-rule="evenodd" d="m308.5 165.64-.45-.27c-10.34-6.17-16.64-16.1-18.94-29.81l-.17-1 1-.04a453.11 453.11 0 0 1 37.12 0l1 .05-.17.99c-2.3 13.72-8.6 23.64-18.93 29.8l-.46.28Zm18.52-30.23-.89-.04a451.36 451.36 0 0 0-36.14.04c.04.3.1.59.15.88 2.38 13.05 8.5 22.44 18.36 28.32 9.86-5.88 15.99-15.27 18.37-28.32l.15-.88Z" fill="#DEDEDE"/><path d="M308.5 135.03v29.58c-10.07-6.01-16.25-15.69-18.51-29.2 6.03-.25 12.21-.38 18.51-.38Z" fill="#A3BFDB"/><path fill-rule="evenodd" clip-rule="evenodd" d="M309.39 134.15v32.02l-1.34-.8c-10.34-6.17-16.64-16.1-18.94-29.81l-.17-1 1-.04c6.06-.24 12.25-.37 18.56-.37h.89Zm-.91.88h-.86a450.62 450.62 0 0 0-17.63.38c.04.3.1.59.15.88 2.31 12.66 8.14 21.87 17.48 27.77l.88.55v-29.58h-.02Z" fill="#DEDEDE"/><path d="M297.99 147.2c-1.85-4.55 3.72-8.44 6.56-8.8-4.6 2.79-3.49 7.26.7 5.16 4.76-2.37 13.7-1.4 14.12 3.64.34 4.03-4.75 6.06-6.85 6.01 1.82-.7 4.84-2.66 2.38-4.9-3.08-2.79-14.82 4.06-16.91-1.11Z" fill="#DEDEDE"/><path d="M297.62 126.32h.88v5.26h-.88v-5.26ZM301.83 126.32h.88v5.26h-.88v-5.26ZM308.5 126.32h.89v5.26h-.89v-5.26ZM314.9 126.32h.9v5.26h-.9v-5.26Z" fill="#D9D9D9"/><path d="M314.9 127.2v-.88h5.27v.89h-5.26Z" fill="#D9D9D9"/></svg>