<?xml version="1.0" encoding="UTF-8"?><svg height="500" viewBox="0 0 500 500" width="500" xmlns="http://www.w3.org/2000/svg"><g fill="none" fill-rule="evenodd"><path d="M0 0h500v500H0z"/><path d="M203.003 109.223h93.643V21.928h-93.643z" fill="#d9d9d9"/><path d="M202.864 32.228h93.458v-14.2h-93.458z" fill="#e0e0e0"/><g fill="#f2f2f2"><path d="M87.548 75.258S46.785 148.058 29 203.029c4.445 13.376 45.208 40.86 85.232 37.886 13.34-36.4 24.46-52 24.46-52s2.963-95.085-51.144-113.655M411.473 75.258s40.762 72.8 58.547 127.77c-4.445 13.376-45.208 40.86-85.232 37.886-13.34-36.4-24.46-52-24.46-52s-2.963-95.085 51.145-113.655"/><path d="M249.511 57.703c-50.082 0-47.798-39.47-48.742-39.14-7.516 2.618-24.133 14.936-52.439 25.495-31.873 11.885-52.626 19.315-60.782 31.2 11.114 8.915 46.694 28.97 46.694 120.345v271.14s49.658 14.855 114.885 14.855c68.929 0 115.648-14.855 115.648-14.855v-271.14c0-91.375 35.58-111.43 46.7-120.345-8.157-11.885-28.91-19.315-60.783-31.2-28.36-10.577-44.982-22.92-52.478-25.511-.927-.318 4.177 39.156-48.703 39.156z"/></g><g fill="#004087"><path d="M94.353 78.134c8.672-11.24 29.107-18.57 59.963-30.076 19.604-7.313 33.6-15.469 42.85-20.663l-.009-.05c1.231-.692 2.38-1.332 3.447-1.91l1.758 3.214c-9.171 5.064-23.826 13.973-45.055 21.892-30.33 11.31-50.59 18.585-59.51 29.504a53.27 53.27 0 0 0-3.444-1.911zm-6.805-2.875c8.156-11.886 28.91-19.316 60.782-31.201 19.603-7.313 33.6-15.469 42.85-20.663l-.01-.05.025-.014 1.765 3.229c-9.245 5.207-22.873 12.98-41.64 19.98-30.934 11.536-51.394 18.874-60.029 30.162zM404.663 78.137a53.27 53.27 0 0 0-3.445 1.91c-8.917-10.92-29.179-18.196-59.511-29.506-20.52-7.654-34.897-16.233-44.117-21.371l1.609-3.304c.839.46 1.724.955 2.657 1.479l-.01.05c9.25 5.194 23.248 13.35 42.85 20.663 30.86 11.506 51.295 18.837 59.967 30.079zm6.804-2.876a53.46 53.46 0 0 0-3.743 1.443c-8.634-11.289-29.095-18.628-60.031-30.163-18.561-6.924-32.096-14.604-41.334-19.81l1.435-3.414.049.028-.01.05c9.25 5.194 23.247 13.35 42.85 20.663 31.873 11.885 52.626 19.315 60.783 31.2s0 .001 0 .003z"/></g><path d="M307.852 23.345C302.08 20.105 298.124 18 295.844 18c0 0 5.881 32.495-46.335 32.495-48.52 0-46.336-32.495-46.336-32.495-2.28 0-6.235 2.105-12.002 5.345 0 0 7.368 40.38 58.402 40.38 51.479 0 58.279-35.895 58.279-40.38z" fill="#f1f1f1"/><g><path d="M284 125.143h50v35.714h-50z" fill="#043d88"/><path d="M308.64 129.411l14.136 13.955-13.415 13.223-14.137-13.955z" fill="#fff"/></g><path d="M309 121l-3.527 1.854.674-3.927-2.853-2.781 3.943-.573L309 112l1.763 3.573 3.943.573-2.853 2.781.674 3.927z" fill="#dac979"/><path d="M413.584 238.323c-9.287 2.238-19.064 3.316-28.798 2.592-8.197-22.369-15.557-36.883-20.012-44.748v270.577s-21.102 6.71-55.867 11.11l-.544-.059c1.881-54.795 5.722-166.47 8.277-240.705 2.055-59.755 31.084-95.29 60.099-117.44-2.676 6.78-5.072 14.606-7 23.667 7.354 11.852 24.436 42.069 43.831 94.964l.014.042zM190.717 477.795c-34.248-4.401-56.477-11.05-56.477-11.05V196.171c-4.456 7.867-11.813 22.38-20.01 44.743-9.632.716-19.308-.332-28.51-2.523.005-.033.012-.065.02-.097 19.377-52.848 36.305-83.066 43.61-94.944-1.93-9.075-4.328-16.912-7.007-23.701 29.015 22.15 58.044 57.685 60.1 117.44 2.554 74.235 6.395 185.91 8.276 240.705z" fill="#000" fill-opacity=".06"/></g></svg>