<?xml version="1.0" encoding="UTF-8"?><svg width="500" height="500" xmlns="http://www.w3.org/2000/svg"><g fill="none" fill-rule="evenodd"><path d="M0 0h500v500H0z"/><path fill="#D9D9D9" d="M203.003 109.223h93.643V21.928h-93.643z"/><path fill="#920020" d="M202.864 32.228h93.458v-14.2h-93.458z"/><path d="M87.548 75.258S46.785 148.058 29 203.029c4.445 13.376 45.208 40.86 85.232 37.886 13.34-36.4 24.46-52 24.46-52S141.655 93.83 87.548 75.26m323.925-.002s40.762 72.8 58.547 127.77c-4.445 13.376-45.208 40.86-85.232 37.886-13.34-36.4-24.46-52-24.46-52s-2.963-95.085 51.145-113.655" fill="#F2F2F2"/><path d="M249.511 57.703c-50.082 0-47.798-39.47-48.742-39.14-7.516 2.618-24.133 14.936-52.439 25.495-31.873 11.885-52.626 19.315-60.782 31.2 11.114 8.915 46.694 28.97 46.694 120.345v271.14s49.658 14.855 114.885 14.855c68.929 0 115.648-14.855 115.648-14.855v-271.14c0-91.375 35.58-111.43 46.7-120.345-8.157-11.885-28.91-19.315-60.783-31.2-28.36-10.577-44.982-22.92-52.478-25.511-.927-.318 4.177 39.156-48.703 39.156z" fill="#F2F2F2"/><path d="M307.852 23.345C302.08 20.105 298.124 18 295.844 18c0 0 5.881 32.495-46.335 32.495-48.52 0-46.336-32.495-46.336-32.495-2.28 0-6.235 2.105-12.002 5.345 0 0 7.368 40.38 58.402 40.38 51.479 0 58.279-35.895 58.279-40.38z" fill="#F2F2F2"/><path fill="#D9D9D9" d="M203.003 112.223h93.643V24.928h-93.643z"/><path d="M87.548 78.258S46.785 151.058 29 206.029c4.445 13.376 45.208 40.86 85.232 37.886 13.34-36.4 24.46-52 24.46-52S141.655 96.83 87.548 78.26m323.925-.002s40.762 72.8 58.547 127.77c-4.445 13.376-45.208 40.86-85.232 37.886-13.34-36.4-24.46-52-24.46-52s-2.963-95.085 51.145-113.655" fill="#F2F2F2"/><path d="M249.511 60.703c-50.082 0-47.798-39.47-48.742-39.14-7.516 2.618-24.133 14.936-52.439 25.495-31.873 11.885-52.626 19.315-60.782 31.2 11.114 8.915 46.694 28.97 46.694 120.345v271.14s49.658 14.855 114.885 14.855c68.929 0 115.648-14.855 115.648-14.855v-271.14c0-91.375 35.58-111.43 46.7-120.345-8.157-11.885-28.91-19.315-60.783-31.2-28.36-10.577-44.982-22.92-52.478-25.511-.927-.318 4.177 39.156-48.703 39.156z" fill="#F2F2F2"/><path d="M309.17 26.345c-5.837-3.24-9.837-5.345-12.143-5.345 0 0 5.948 32.495-46.859 32.495C201.1 53.495 203.31 21 203.31 21c-2.305 0-6.306 2.105-12.138 5.345 0 0 7.451 40.38 59.063 40.38 52.06 0 58.937-35.895 58.937-40.38z" fill="#F2F2F2"/><path d="M413.584 238.323c-9.287 2.238-19.064 3.316-28.798 2.592-8.197-22.369-15.557-36.883-20.012-44.748v270.577s-21.102 6.71-55.867 11.11l-.544-.059c1.881-54.795 5.722-166.47 8.277-240.705 2.055-59.755 31.084-95.29 60.099-117.44-2.676 6.78-5.072 14.606-7 23.667 7.354 11.852 24.436 42.069 43.831 94.964l.014.042zM190.717 477.795c-34.248-4.401-56.477-11.05-56.477-11.05V196.171c-4.456 7.867-11.813 22.38-20.01 44.743-9.632.716-19.308-.332-28.51-2.523.005-.033.012-.065.02-.097 19.377-52.848 36.305-83.066 43.61-94.944-1.93-9.075-4.328-16.912-7.007-23.701 29.015 22.15 58.044 57.685 60.1 117.44 2.554 74.235 6.395 185.91 8.276 240.705h-.002z" fill-opacity=".06" fill="#000"/><g transform="translate(195.09 18.026)"><path d="M132.41 137.235c0 2.653-9.482 7.134-18.5 9.738-9.019-2.609-18.5-7.09-18.5-9.738v-34.262h37v34.262zm-39-36.262v36.435c0 5.785 20.498 11.566 20.498 11.566s20.502-5.78 20.502-11.566v-36.434h-41z" fill="#4675C5"/><path d="M128.91 110.474c0 1.934-1.795 3.5-4.003 3.5h-21.994c-2.208 0-4.003-1.566-4.003-3.5 0-1.935 1.795-3.5 4.003-3.5h21.994c2.208 0 4.003 1.565 4.003 3.5m0 12c0 1.934-1.795 3.5-4.003 3.5h-21.994c-2.208 0-4.003-1.566-4.003-3.5 0-1.935 1.795-3.5 4.003-3.5h21.994c2.208 0 4.003 1.565 4.003 3.5m0 12c0 1.934-1.795 3.5-4.003 3.5h-21.994c-2.208 0-4.003-1.566-4.003-3.5 0-1.935 1.795-3.5 4.003-3.5h21.994c2.208 0 4.003 1.565 4.003 3.5" fill="#4675C5"/><path fill="#E0E0E0" d="M7.776 14.271h93.459v-7.1H7.776z"/><path d="M0 3.181C3.69 1.2 6.365 0 8.086 0c0 0-2.185 32.495 46.335 32.495C106.638 32.495 100.757 0 100.757 0c1.785 0 4.597 1.29 8.504 3.405-7.175 24.48-25.349 36.721-54.523 36.721C25.474 40.126 7.228 27.811 0 3.181z" fill="#AD0328"/><circle fill="#DD0B00" cx="97.91" cy="104.974" r="1"/><circle fill="#DD0B00" cx="97.91" cy="116.974" r="1"/><circle fill="#DD0B00" cx="97.91" cy="128.974" r="1"/><circle fill="#DD0B00" cx="113.91" cy="104.974" r="1"/><circle fill="#DD0B00" cx="113.91" cy="116.974" r="1"/><circle fill="#DD0B00" cx="113.91" cy="128.974" r="1"/><circle fill="#DD0B00" cx="113.91" cy="140.974" r="1"/><circle fill="#DD0B00" cx="129.91" cy="104.974" r="1"/><circle fill="#DD0B00" cx="129.91" cy="116.974" r="1"/><circle fill="#DD0B00" cx="129.91" cy="128.974" r="1"/></g></g></svg>