<?xml version="1.0" encoding="UTF-8"?><svg height="500" viewBox="0 0 500 500" width="500" xmlns="http://www.w3.org/2000/svg"><g fill="none" fill-rule="evenodd"><path d="M0 0h500v500H0z"/><path d="M203.607 109.223h93.432V21.928h-93.432z" fill="#005898"/><path d="M203.468 32.228h93.248v-14.2h-93.248z" fill="#e0e0e0"/><g fill="#0063aa"><path d="M87.548 75.258S46.785 148.058 29 203.029c4.445 13.376 45.208 40.86 85.232 37.886 13.34-36.4 24.46-52 24.46-52s2.963-95.085-51.144-113.655M411.473 75.258s40.762 72.8 58.547 127.77c-4.445 13.376-45.208 40.86-85.232 37.886-13.34-36.4-24.46-52-24.46-52s-2.963-95.085 51.145-113.655"/><path d="M249.511 57.703c-50.082 0-47.798-39.47-48.742-39.14-7.516 2.618-24.133 14.936-52.439 25.495-31.873 11.885-52.626 19.315-60.782 31.2 11.114 8.915 46.694 28.97 46.694 120.345v271.14s49.658 14.855 114.885 14.855c68.929 0 115.648-14.855 115.648-14.855v-271.14c0-91.375 35.58-111.43 46.7-120.345-8.157-11.885-28.91-19.315-60.783-31.2-28.36-10.577-44.982-22.92-52.478-25.511-.927-.318 4.177 39.156-48.703 39.156z"/></g><path d="M119.982 226.098a407.766 407.766 0 0 0-5.75 14.815c-40.024 2.975-80.787-24.51-85.232-37.885 1.757-5.43 3.739-11.036 5.883-16.728 10.27 10.965 22.741 19.794 37.414 26.489 14.658 6.687 30.553 11.123 47.685 13.31zM379.205 226.098c17.131-2.186 33.026-6.622 47.684-13.31 14.673-6.694 27.145-15.523 37.414-26.488 2.145 5.692 4.126 11.297 5.884 16.728-4.445 13.375-45.208 40.86-85.233 37.885a407.768 407.768 0 0 0-5.75-14.815z" fill="#f2f2f2"/><g fill="#f1f1f1"><path d="M66.97 123.401l-.143.297h-.001zm9.84-19.896l-.449.884.47-.926-.022.042zm4.213-8.24l-.457.886.457-.886zm3.038-5.842l-.347.662.345-.66zm3.84-7.262l-.07.132.207-.387-.136.255zm113.887-55.044l1.727 3.214c-9.01 5.064-23.407 13.973-44.263 21.892-29.799 11.31-49.704 18.587-58.463 29.509a49.913 49.913 0 0 0-3.38-1.914c8.512-11.24 28.588-18.57 58.905-30.078 19.26-7.312 33.01-15.469 42.097-20.663l-.01-.05c1.21-.691 2.338-1.332 3.387-1.91zM89.582 79.034l-.175.324a611.002 611.002 0 0 1 .175-.324zm1.135-2.087l-.021.04.021-.04zM67.6 122.095l.123-.254-.682 1.412-.215.444.774-1.602zm1.532-3.153l.29-.59a1120.035 1120.035 0 0 0-.29.59zm2.622-5.336l.083-.168a1151.438 1151.438 0 0 0-.083.168zm.733-1.48l.153-.309-.463.934zm.724-1.457l.266-.534-.49.984zm1.071-2.146l.156-.31a1177.836 1177.836 0 0 0-.156.31zm2.752-5.463l.23-.451-.433.854zm.662-1.304l.182-.357-.41.806zm.972-1.907l.109-.212-.352.69zm.634-1.238l.009-.017a1178.816 1178.816 0 0 0-.01.017zm.312-.608l.173-.337-.476.928zm1.511-2.937l.164-.316-.266.515zm7.533-14.316l.108-.201a763.635 763.635 0 0 0-.108.2zm.295-.549l.102-.19-.13.24zm.964-1.784l.015-.03-.015.03zm.185-.341l.031-.059-.08.149zm.62-1.134c8.012-11.887 28.4-19.317 59.711-31.202 19.259-7.312 33.01-15.469 42.097-20.663l-.01-.05.023-.014 1.735 3.229c-9.082 5.207-22.47 12.981-40.907 19.981-30.393 11.536-50.494 18.875-58.974 30.167a49.378 49.378 0 0 0-3.676-1.449zM297.065 30.852l1.58-3.304c.825.46 1.695.955 2.612 1.48l-.01.05c9.087 5.193 22.838 13.35 42.097 20.662 30.32 11.509 50.397 18.84 58.912 30.085a48.817 48.817 0 0 0-3.388 1.907c-8.756-10.921-28.661-18.197-58.462-29.509-19.867-7.543-33.873-15.985-42.944-21.146l-.397-.225 1.58-3.304zM307.09 25l.047.028-.01.05c9.087 5.193 22.838 13.35 42.097 20.662 30.998 11.766 51.29 19.166 59.466 30.846l.244.356a53.144 53.144 0 0 0-3.677 1.446c-8.474-11.288-28.575-18.628-58.97-30.165-17.937-6.81-31.095-14.352-40.159-19.551l-.45-.258z"/></g><path d="M308.22 23.345c-5.76-3.24-9.707-5.345-11.982-5.345 0 0 5.869 32.495-46.23 32.495-48.411 0-46.231-32.495-46.231-32.495-2.275 0-6.222 2.105-11.976 5.345 0 0 7.352 40.38 58.271 40.38 51.363 0 58.147-35.895 58.147-40.38z" fill="#f1f1f1"/><circle cx="309" cy="143" fill="#fff" r="24"/><path d="M309 165c12.15 0 22-9.85 22-22s-9.85-22-22-22-22 9.85-22 22 9.85 22 22 22z" fill="#004c9e" fill-rule="nonzero"/><path d="M309 159c-8.837 0-16-7.163-16-16s7.163-16 16-16 16 7.163 16 16-7.163 16-16 16z" fill="#fff" fill-rule="nonzero"/><path d="M313 137h14v5h-14z" fill="#004c9e"/><path d="M304 129.737c1.667-.491 3.333-.737 5-.737s3.333.246 5 .737v26.526c-1.667.491-3.333.737-5 .737s-3.333-.246-5-.737z" fill="#004c9e"/><path d="M413.584 238.323c-9.287 2.238-19.064 3.316-28.798 2.592-8.197-22.369-15.557-36.883-20.012-44.748v270.577s-21.102 6.71-55.867 11.11l-.544-.059c1.881-54.795 5.722-166.47 8.277-240.705 2.055-59.755 31.084-95.29 60.099-117.44-2.676 6.78-5.072 14.606-7 23.667 7.354 11.852 24.436 42.069 43.831 94.964l.014.042zM190.717 477.795c-34.248-4.401-56.477-11.05-56.477-11.05V196.171c-4.456 7.867-11.813 22.38-20.01 44.743-9.632.716-19.308-.332-28.51-2.523.005-.033.012-.065.02-.097 19.377-52.848 36.305-83.066 43.61-94.944-1.93-9.075-4.328-16.912-7.007-23.701 29.015 22.15 58.044 57.685 60.1 117.44 2.554 74.235 6.395 185.91 8.276 240.705z" fill="#000" fill-opacity=".08"/></g></svg>