<svg xmlns="http://www.w3.org/2000/svg" width="501" height="501" fill="none"><path fill="#786E0E" fill-rule="evenodd" d="M203.5 109.68h93.65v-87.3H203.5v87.3Z" clip-rule="evenodd"/><path fill="#030B3D" fill-rule="evenodd" d="M203.37 32.69h93.45v-14.2h-93.45v14.2Z" clip-rule="evenodd"/><path fill="#0A6B19" fill-rule="evenodd" d="M88.05 75.75s-40.77 72.8-58.55 127.77c4.44 13.37 45.2 40.86 85.23 37.88 13.34-36.4 24.46-52 24.46-52s2.96-95.08-51.14-113.65Zm323.92 0s40.76 72.8 58.55 127.77c-4.45 13.37-45.2 40.86-85.23 37.88-13.34-36.4-24.46-52-24.46-52s-2.97-95.08 51.14-113.65Z" clip-rule="evenodd"/><path fill="#0A6B19" fill-rule="evenodd" d="M250.01 58.2c-50.08 0-47.8-39.48-48.74-39.15-7.52 2.62-24.13 14.94-52.44 25.5-31.87 11.88-52.62 19.31-60.78 31.2 11.11 8.91 46.7 28.97 46.7 120.34v271.14s49.65 14.86 114.88 14.86c68.93 0 115.65-14.86 115.65-14.86V196.1c0-91.37 35.58-111.43 46.7-120.34-8.16-11.89-28.91-19.32-60.79-31.2-28.36-10.58-44.98-22.92-52.48-25.51-.92-.32 4.18 39.15-48.7 39.15Z" clip-rule="evenodd"/><path fill="#0A6B19" fill-rule="evenodd" d="M365.28 196.24V466.8s-2.61.83-7.52 2.1V198.11c1.66-.65 3.1-1.13 4.33-1.42.79-.2 1.85-.34 3.2-.45ZM142.25 468.8c-4.86-1.21-7.5-2-7.5-2V196.24c1.33.11 2.39.26 3.17.45 1.23.29 2.67.77 4.33 1.42v270.7Z" clip-rule="evenodd"/><path fill="#F3F3F3" fill-rule="evenodd" d="M250.08 64.24c51.47 0 58.27-35.9 58.27-40.38-5.77-3.24-9.72-5.35-12-5.35 0 0 5.88 32.5-46.34 32.5-48.52 0-46.33-32.5-46.33-32.5-2.28 0-6.24 2.1-12 5.35 0 0 7.36 40.38 58.4 40.38Z" clip-rule="evenodd"/><path fill="#0A6B19" fill-rule="evenodd" d="M200.64 42.66c3.39-1.77 6.88-3.36 10.47-4.76C217.37 44.85 228.89 51 250 51c22.55 0 34.27-6.05 40.3-12.94a107.5 107.5 0 0 1 10.45 4.81c-7.58 10.52-22.38 21.37-50.69 21.37-26.68 0-41.43-11.04-49.43-21.58Z" clip-rule="evenodd"/><path fill="#000" fill-opacity=".1" fill-rule="evenodd" d="M413.94 238.81a93.72 93.72 0 0 1-28.8 2.6c-8.2-22.38-15.56-36.89-20.01-44.75v270.57s-21.1 6.71-55.87 11.11l-.54-.06 8.28-240.7c2.05-59.76 31.08-95.3 60.1-117.44a148.46 148.46 0 0 0-7 23.67c7.35 11.85 24.43 42.06 43.83 94.96a1 1 0 0 1 .01.04ZM191.07 478.28c-34.25-4.4-56.47-11.05-56.47-11.05V196.66c-4.46 7.87-11.82 22.38-20.01 44.74a93.6 93.6 0 0 1-28.51-2.52c0-.03 0-.06.02-.1 19.37-52.84 36.3-83.06 43.6-94.94a148.63 148.63 0 0 0-7-23.7c29.01 22.15 58.04 57.68 60.1 117.44 2.55 74.23 6.4 185.9 8.27 240.7Z" clip-rule="evenodd"/><path fill="#D1162D" d="m309.9 177.48 3.9-22.66-3.9-5.24-3.9 5.24 3.9 22.66Zm-20.57-39.93 7.58-4.38 4.07 4.38-4.07 4.38-7.58-4.38Zm20.57-19.41 5.27 9.13h-2.63l-2.64 6.95-2.63-6.95h-2.64l5.27-9.13Zm20.6 19.41-7.6-4.38-4.06 4.38 4.07 4.38 7.59-4.38Z"/><path fill="#D1162D" d="m305.44 130 .72.41a7.65 7.65 0 0 0 3.87 1.14c1.26 0 2.54-.37 3.87-1.14l.72-.42 4.8 3.59-.38.66c-1.31 2.28-1.13 3.46.28 5.97l.06.1c1.07 1.9 1.32 2.9 1.14 4.43-.2 1.76-2.16 3.93-6.07 4.98l-1.53.4a8.7 8.7 0 0 0-2.26.9c-.28.15-.69.63-.69.63s-.47-.5-.7-.64c-.25-.13-1.02-.58-2.25-.89l-1.42-.35c-3.54-.94-5.65-2.86-6.17-4.88-.47-1.8-.08-2.98 1.18-5.07l.05-.07c1.4-2.31 1.58-3.38.36-5.5l-.38-.67 4.8-3.59Z"/><path fill="#1D1D1D" d="M308.89 148.82c-.28-.1-2.37-.7-3.07-.95-2.31-.84-3.75-1.93-4.15-3.6-.35-1.43-.05-2.35 1.01-4.2 1.3-2.24 1.46-3.31.2-5.26l-.2-.31 3.26-2.48.32.17c1.3.7 2.54 1.05 3.7 1.05 1.16 0 2.4-.34 3.7-1.05l.32-.17 3.27 2.48-.2.3c-1.27 1.96-1.1 3.03.19 5.27 1.06 1.85 1.36 2.77 1.01 4.2-.4 1.67-1.83 2.76-4.15 3.6-.7.25-2.79.85-3.06.95-.24.08-1.08.46-1.08.66 0-.2-.85-.58-1.07-.66Z"/><path fill="#237051" fill-rule="evenodd" d="M309.96 133.67a8.5 8.5 0 0 0 3.97-1.1l2.68 2.02c-2.86 4.41 2.04 5.92 1.15 9.6-.9 3.68-7.78 3.8-7.8 4.88-.02-1.09-6.9-1.2-7.8-4.88-.9-3.68 4.01-5.19 1.15-9.6l2.68-2.03a8.38 8.38 0 0 0 3.97 1.11Z" clip-rule="evenodd"/><path fill="#F0F0F0" d="M315.71 137.55h-11.5c.07-.84-.15-1.8-.9-2.96l2.68-2.03a8.4 8.4 0 0 0 3.97 1.11 8.5 8.5 0 0 0 3.97-1.1l2.68 2.02a4.62 4.62 0 0 0-.9 2.96Z"/></svg>