<?xml version="1.0" encoding="utf-8"?><svg width="500" height="500" viewBox="0 0 500 500" fill="none" xmlns="http://www.w3.org/2000/svg"><path fill-rule="evenodd" clip-rule="evenodd" d="M203.006 109.193h93.643V21.8979h-93.643v87.2951z" fill="#5EA6C5"/><path fill-rule="evenodd" clip-rule="evenodd" d="M202.866 32.198h93.459v-14.2h-93.459v14.2z" fill="#E3E3E3"/><path fill-rule="evenodd" clip-rule="evenodd" d="M87.5505 75.26s-40.7628 72.8-58.5476 127.77c4.445 13.375 45.2078 40.86 85.2321 37.885 13.34-36.4 24.46-52 24.46-52S141.658 93.83 87.5505 75.26zm323.9255 0s40.763 72.8 58.547 127.77c-4.445 13.375-45.207 40.86-85.232 37.885-13.34-36.4-24.459-52-24.459-52S357.368 93.83 411.476 75.26z" fill="#85CAE8"/><path fill-rule="evenodd" clip-rule="evenodd" d="M249.514 57.7057c-50.081 0-47.798-39.4691-48.742-39.14-7.516 2.6186-24.133 14.9368-52.439 25.495-31.873 11.885-52.6257 19.315-60.7822 31.2 11.1148 8.915 46.6942 28.9703 46.6942 120.3453v271.14s49.658 14.855 114.885 14.855c68.929 0 115.649-14.855 115.649-14.855v-271.14c0-91.375 35.579-111.4303 46.699-120.3453-8.157-11.885-28.91-19.315-60.783-31.2-28.359-10.5767-44.981-22.9195-52.478-25.5087-.927-.3203 4.178 39.1537-48.703 39.1537z" fill="#85CAE8"/><path fill-rule="evenodd" clip-rule="evenodd" d="M265.462 56.2746c15.676-3.0937 23.748-10.752 27.937-18.3668V479.552c-8.697.807-18.037 1.431-27.937 1.768V56.2746zm58.867-23.8797c7.325 3.7531 16.071 7.8241 26.363 11.6625.528.1967 1.052.3922 1.574.5865V470.085c-6.829 1.636-16.283 3.656-27.937 5.545V32.3949zM234.532 481.353c-9.8-.327-19.156-.961-27.937-1.79V37.8076c4.477 7.684 12.681 15.4345 27.937 18.5119V481.353zm-58.867-5.74c-11.439-1.847-20.935-3.817-27.936-5.43V44.2817c.2-.0746.4-.1494.601-.2243 10.751-4.01 19.815-8.2739 27.335-12.1638V475.613zM113.823 94.4356c7.258 9.1944 12.408 20.3524 16.06 31.7334L78.5799 236.438c-9.412-2.901-18.145-6.894-25.5916-11.248L113.823 94.4355v.0001zm271.468 0v-.0001L446.126 225.19c-7.447 4.354-16.18 8.347-25.592 11.248L369.23 126.169c3.653-11.381 8.803-22.539 16.061-31.7334z" fill="#2A4B71"/><path fill-rule="evenodd" clip-rule="evenodd" d="M467.462 195.302c.936 2.667 1.827 5.303 2.667 7.9-4.445 13.375-45.208 40.86-85.232 37.885-.958-2.614-1.904-5.12-2.835-7.52 20.795-1.358 37.993-5.637 51.594-12.837 13.428-7.109 24.697-15.585 33.806-25.428zm-435.8073 0c9.1031 9.828 20.3606 18.291 33.7724 25.392 13.6109 7.205 30.8241 11.485 51.6389 12.84-.931 2.399-1.877 4.904-2.834 7.516-40.0243 2.975-80.7871-24.51-85.232-37.885.8363-2.584 1.7234-5.209 2.6547-7.863zM249.577 63.7516c51.478 0 58.278-35.895 58.278-40.38-5.772-3.24-9.728-5.345-12.008-5.345 0 0 5.882 32.495-46.335 32.495-48.52 0-46.335-32.495-46.335-32.495-2.28 0-6.236 2.105-12.003 5.345 0 0 7.368 40.38 58.403 40.38z" fill="#F2F2F2"/><path fill-rule="evenodd" clip-rule="evenodd" d="M413.585 238.323c-9.288 2.238-19.065 3.316-28.798 2.592-8.198-22.369-15.557-36.883-20.013-44.748v270.577s-21.102 6.71-55.866 11.111l-.544-.06c1.881-54.795 5.722-166.47 8.276-240.705 2.056-59.755 31.085-95.29 60.099-117.44-2.675 6.781-5.071 14.606-6.999 23.667 7.354 11.852 24.436 42.069 43.831 94.964.005.014.01.028.014.042zM190.717 477.795c-34.248-4.401-56.476-11.051-56.476-11.051V196.172c-4.456 7.867-11.814 22.379-20.01 44.743-9.633.716-19.3084-.332-28.5103-2.524a1.056 1.056 0 01.0199-.096c19.3774-52.848 36.3054-83.066 43.6094-94.944-1.929-9.075-4.327-16.912-7.006-23.701 29.014 22.15 58.044 57.685 60.099 117.44 2.554 74.235 6.396 185.91 8.276 240.705h-.002z" fill="#000" fill-opacity=".08"/><path fill-rule="evenodd" clip-rule="evenodd" d="M309 163c11.046 0 20-8.954 20-20s-8.954-20-20-20-20 8.954-20 20 8.954 20 20 20z" fill="#1B416F"/><path fill-rule="evenodd" clip-rule="evenodd" d="M309 155c6.627 0 12-5.373 12-12s-5.373-12-12-12-12 5.373-12 12 5.373 12 12 12z" fill="#85B3E8"/><path d="M313 137h19l-1 2h-19l1-2zm-1 2h14l-1 2h-14l1-2zm-1 2h9l-1 2h-9l1-2zm-6-4h-19l1 2h19l-1-2zm1 2h-14l1 2h14l-1-2zm1 2h-9l1 2h9l-1-2zm1-3h2v8h-2v-8z" fill="#F2F2F2"/><path d="M291.111 145.009C292.11 154.005 299.738 161 309 161c9.263 0 16.891-6.995 17.89-15.991l-3.919-1.097C322.502 151.219 316.426 157 309 157c-7.425 0-13.501-5.781-13.97-13.088l-3.919 1.097zm28.783-10.803C317.328 131.031 313.401 129 309 129c-4.4 0-8.327 2.031-10.893 5.206l-2.911-2.758c3.302-3.941 8.26-6.448 13.804-6.448 5.545 0 10.503 2.507 13.805 6.448l-2.911 2.758z" fill="#486A93"/></svg>