<?xml version="1.0" encoding="UTF-8"?><svg width="500" height="500" viewBox="0 0 500 500" fill="none" xmlns="http://www.w3.org/2000/svg"><path fill-rule="evenodd" clip-rule="evenodd" d="M203.006 109.193h93.643V21.8979h-93.643v87.2951z" fill="#CFCFCF"/><path fill-rule="evenodd" clip-rule="evenodd" d="M202.866 32.198h93.459v-14.2h-93.459v14.2z" fill="#1A3E69"/><path fill-rule="evenodd" clip-rule="evenodd" d="M411.476 75.2603S452.239 148.06 470.023 203.03c-4.445 13.375-45.207 40.86-85.232 37.885-13.34-36.4-24.459-52-24.459-52s-2.964-95.0847 51.144-113.6547z" fill="#F2F2F2"/><path fill-rule="evenodd" clip-rule="evenodd" d="M249.514 57.7054c-50.081 0-47.798-39.4691-48.742-39.14-7.516 2.6187-24.133 14.9368-52.439 25.495-31.873 11.885-52.6257 19.315-60.7822 31.2 11.1148 8.915 46.6942 28.9696 46.6942 120.3446v271.14S183.903 481.6 249.13 481.6c68.929 0 115.649-14.855 115.649-14.855v-271.14c0-91.375 35.579-111.4296 46.699-120.3446-8.157-11.885-28.91-19.315-60.783-31.2-28.359-10.5767-44.981-22.9194-52.478-25.5087-.927-.3202 4.178 39.1537-48.703 39.1537z" fill="#3F79BE"/><path fill-rule="evenodd" clip-rule="evenodd" d="M250 57.7015V481.597c-.291 0-.582.001-.873.001-65.227 0-114.885-14.855-114.885-14.855V196.17c-4.456 7.867-11.814 22.38-20.01 44.744-40.0243 2.975-80.7871-24.51-85.232-37.885 17.7848-54.97 58.5475-127.7704 58.5475-127.7704v-.001c8.1566-11.885 28.9095-19.315 60.7825-31.2 28.306-10.5582 44.923-22.8763 52.439-25.495.944-.3291-1.34 39.14 48.742 39.14.164 0 .327-.0004.489-.0011z" fill="#F2F2F2"/><path d="M87.5508 75.2603c.7743.621 1.6674 1.2962 2.6589 2.0458C103.45 87.3158 134.245 110.596 134.245 195.605v.566c-4.456 7.867-11.814 22.38-20.01 44.744-40.0243 2.975-80.7871-24.51-85.2321-37.885C46.7877 148.06 87.5508 75.2603 87.5508 75.2603z" fill="#3F79BE"/><path fill-rule="evenodd" clip-rule="evenodd" d="M249.577 63.7514c51.478 0 58.278-35.895 58.278-40.38-5.772-3.24-9.728-5.345-12.008-5.345 0 0 5.882 32.495-46.335 32.495-48.52 0-46.335-32.495-46.335-32.495-2.28 0-6.236 2.105-12.003 5.345 0 0 7.368 40.38 58.403 40.38z" fill="#24538B"/><path fill-rule="evenodd" clip-rule="evenodd" d="M413.584 238.323c-9.287 2.238-19.064 3.316-28.797 2.592-8.198-22.369-15.558-36.883-20.013-44.748v270.577s-21.102 6.71-55.866 11.111l-.544-.06c1.88-54.795 5.722-166.47 8.276-240.705 2.055-59.755 31.085-95.29 60.099-117.44-2.675 6.781-5.072 14.606-6.999 23.667 7.354 11.852 24.435 42.069 43.83 94.964.005.014.01.028.014.042zM190.717 477.795c-34.248-4.401-56.476-11.051-56.476-11.051V196.172c-4.456 7.867-11.814 22.379-20.01 44.743-9.633.716-19.3089-.332-28.5108-2.524a1.056 1.056 0 01.0199-.096c19.3769-52.848 36.3059-83.066 43.6099-94.944-1.929-9.075-4.328-16.912-7.006-23.701 29.014 22.15 58.043 57.685 60.099 117.44 2.554 74.235 6.395 185.91 8.276 240.705h-.002z" fill="#000" fill-opacity=".06"/><path fill="#3D3D3D" d="M288.894 156.383h40.2128V165H288.894z"/><path fill="khaki" d="M290.809 158.298h36.383v4.7872h-36.383z"/><path fill="#E4E4E4" d="M291.766 159.255h34.4681v2.8723H291.766z"/><path fill-rule="evenodd" clip-rule="evenodd" d="M309.001 160.213c11.104 0 20.106-9.002 20.106-20.107 0-11.104-9.002-20.106-20.106-20.106-11.105 0-20.106 9.002-20.106 20.106 0 11.105 9.001 20.107 20.106 20.107z" fill="#3D3D3D"/><path fill-rule="evenodd" clip-rule="evenodd" d="M309 158.298c10.047 0 18.192-8.145 18.192-18.191 0-10.047-8.145-18.192-18.192-18.192s-18.191 8.145-18.191 18.192c0 10.046 8.144 18.191 18.191 18.191z" fill="khaki"/><path fill-rule="evenodd" clip-rule="evenodd" d="M309 157.341c9.518 0 17.234-7.716 17.234-17.234s-7.716-17.234-17.234-17.234-17.234 7.716-17.234 17.234 7.716 17.234 17.234 17.234z" fill="#64C0F3"/><path fill-rule="evenodd" clip-rule="evenodd" d="M309 152.553c6.874 0 12.446-5.572 12.446-12.447 0-6.874-5.572-12.446-12.446-12.446-6.875 0-12.447 5.572-12.447 12.446 0 6.875 5.572 12.447 12.447 12.447z" fill="#F2F2F2"/><path d="M305.683 136.905c-.163-.503.113-1.043.616-1.206l2.046-.662c.503-.163 1.043.113 1.206.616l1.392 4.299 2.489-1.979c.413-.329 1.016-.261 1.345.153l1.339 1.683c.329.414.26 1.016-.154 1.345l-3.682 2.929 1.525 4.71c.163.503-.113 1.043-.616 1.206l-2.045.662a.9573.9573 0 01-1.206-.616l-1.056-3.259-.963.766c-.414.329-1.016.261-1.345-.153l-1.339-1.683a.9583.9583 0 01.153-1.346l.927-.736-3.065-.339a.9575.9575 0 01-.847-1.057l.237-2.137c.058-.526.531-.905 1.056-.847l2.85.315-.863-2.664z" fill="#2FCF8C"/><path d="M302.981 132.05c-1.006.326-1.558 1.406-1.232 2.412l.771 2.382c.326 1.006 1.406 1.558 2.412 1.232l1.023-.331-.272-.84c-.163-.503.113-1.043.616-1.206l2.046-.662c.503-.163 1.043.113 1.206.616l.272.84.748-.243c1.006-.325 1.558-1.405 1.232-2.411l-.771-2.383c-.326-1.006-1.406-1.557-2.412-1.232l-5.639 1.826z" fill="#F05B5B"/></svg>