<?xml version="1.0" encoding="UTF-8"?><svg width="500" height="500" viewBox="0 0 500 500" fill="none" xmlns="http://www.w3.org/2000/svg"><path fill-rule="evenodd" clip-rule="evenodd" d="M203.003 109.223h93.643V21.9277h-93.643v87.2953z" fill="#C7C7C7"/><path fill-rule="evenodd" clip-rule="evenodd" d="M202.863 32.2278h93.459v-14.2h-93.459v14.2z" fill="#D1D1D1"/><path fill-rule="evenodd" clip-rule="evenodd" d="M87.5475 75.2583S46.7848 148.058 29 203.028c4.4449 13.375 45.2077 40.86 85.232 37.885 13.34-36.4 24.46-52 24.46-52s2.963-95.0847-51.1445-113.6547zm323.9255 0s40.763 72.7997 58.548 127.7697c-4.445 13.375-45.208 40.86-85.233 37.885-13.339-36.4-24.459-52-24.459-52s-2.964-95.0847 51.144-113.6547z" fill="#F2F2F2"/><path fill-rule="evenodd" clip-rule="evenodd" d="M249.511 57.7025c-50.081 0-47.798-39.4691-48.742-39.14-7.516 2.6187-24.133 14.9368-52.439 25.495-31.873 11.885-52.6256 19.315-60.7821 31.2 11.1148 8.915 46.6941 28.9695 46.6941 120.3445v271.14s49.658 14.856 114.885 14.856c68.929 0 115.649-14.856 115.649-14.856v-271.14c0-91.375 35.579-111.4295 46.699-120.3445-8.157-11.885-28.91-19.315-60.782-31.2-28.36-10.5767-44.982-22.9195-52.479-25.5087-.927-.3203 4.178 39.1537-48.703 39.1537z" fill="#F2F2F2"/><path fill-rule="evenodd" clip-rule="evenodd" d="M293.214 38.2392c45.577 13.1639 72.022 43.7538 72.022 57.0326v82.9092c-.301 5.499-.461 11.3-.461 17.421v271.14s-46.719 14.855-115.648 14.855c-65.228 0-114.885-14.855-114.885-14.855v-271.14c0-6.261-.167-12.188-.482-17.799V95.2718c0-13.3672 26.799-44.2769 72.935-57.2933 5.801 9.8362 17.749 19.7239 42.816 19.7239 26.23 0 38.194-9.7126 43.703-19.4632z" fill="#EEE"/><path fill-rule="evenodd" clip-rule="evenodd" d="M249.577 63.7514c51.478 0 58.278-35.895 58.278-40.38-5.772-3.24-9.728-5.345-12.008-5.345 0 0 5.882 32.495-46.335 32.495-48.52 0-46.335-32.495-46.335-32.495-2.28 0-6.236 2.105-12.003 5.345 0 0 7.368 40.38 58.403 40.38z" fill="#F2F2F2"/><path fill-rule="evenodd" clip-rule="evenodd" d="M302.111 39.6138a150.6896 150.6896 0 00-7.566-2.1474c8.63-7.842 9.216-16.3111 9.216-16.3111-1.119-.6825.246.0563 4.094 2.2163 0 1.8012-1.097 8.6685-5.744 16.2422zm-104.029-.363c-5.556-8.4705-6.908-15.8792-6.908-15.8792 3.844-2.16 5.31-2.985 4.398-2.475-.257 0 1.298 8.4035 10.137 16.2591a152.324 152.324 0 00-7.627 2.0951z" fill="#3D3D3D"/><path fill-rule="evenodd" clip-rule="evenodd" d="M209.734 36.3918a159.1578 159.1578 0 00-6.707 1.6207c-3.4-4.7584-6.046-10.3601-7.937-16.8049 3.689-1.9818 6.365-3.1812 8.086-3.1812 0 0-.645 9.6009 6.558 18.3654zm80.827.2841c7.061-8.8398 5.285-18.6495 5.285-18.6495 1.785 0 4.598 1.2903 8.505 3.4054-1.878 6.4069-4.509 11.9754-7.894 16.7055a157.7211 157.7211 0 00-5.896-1.4614z" fill="#F2F2F2"/><path fill-rule="evenodd" clip-rule="evenodd" d="M467.462 195.3c.936 2.666 1.827 5.303 2.667 7.899-4.445 13.375-45.208 40.86-85.232 37.885-.958-2.613-1.904-5.119-2.835-7.519 20.795-1.358 37.993-5.637 51.594-12.838 13.428-7.108 24.697-15.584 33.806-25.427zm-435.8073 0c9.1031 9.827 20.3606 18.291 33.7724 25.391 13.6109 7.206 30.8241 11.486 51.6389 12.84-.931 2.4-1.877 4.905-2.834 7.517-40.0243 2.975-80.7871-24.51-85.232-37.885.8363-2.585 1.7234-5.209 2.6547-7.863z" fill="#3D3D3D"/><path fill-rule="evenodd" clip-rule="evenodd" d="M467.462 195.3c.936 2.666 1.827 5.303 2.667 7.899-4.445 13.375-45.208 40.86-85.232 37.885-.958-2.613-1.904-5.119-2.835-7.519 20.795-1.358 37.993-5.637 51.594-12.838 13.428-7.108 24.697-15.584 33.806-25.427zm-435.8073 0c9.1031 9.827 20.3606 18.291 33.7724 25.391 13.6109 7.206 30.8241 11.486 51.6389 12.84-.931 2.4-1.877 4.905-2.834 7.517-40.0243 2.975-80.7871-24.51-85.232-37.885.8363-2.585 1.7234-5.209 2.6547-7.863z" fill="#3D3D3D"/><path fill-rule="evenodd" clip-rule="evenodd" d="M413.584 238.323c-9.288 2.238-19.065 3.316-28.798 2.592-8.198-22.369-15.557-36.883-20.013-44.748v270.577s-21.102 6.71-55.866 11.111l-.544-.06c1.881-54.795 5.722-166.47 8.276-240.705 2.056-59.755 31.085-95.29 60.099-117.44-2.675 6.781-5.071 14.606-6.999 23.667 7.354 11.852 24.436 42.069 43.831 94.964.005.014.01.028.014.042zM190.716 477.795c-34.248-4.401-56.476-11.051-56.476-11.051V196.172c-4.456 7.867-11.814 22.379-20.01 44.743-9.633.716-19.3084-.332-28.5103-2.524a1.056 1.056 0 01.0199-.096c19.3774-52.848 36.3054-83.066 43.6094-94.944-1.928-9.075-4.327-16.912-7.006-23.701 29.014 22.15 58.044 57.685 60.099 117.44 2.554 74.235 6.396 185.91 8.276 240.705h-.002z" fill="#000" fill-opacity=".1"/><path d="M321 128.541c4.945.462 9 .959 9 .959l-2-1.5 2-1.5c-1.517-.173-5.574-.681-9-1v3.041z" fill="#0C1328"/><path d="M320.921 128.477l4.987-.704-1.496-2.197h-3.491v2.901z" fill="#07080D"/><path d="M297 128.541c-4.945.462-9 .959-9 .959l2-1.75-2-1.25s5.574-.681 9-1v3.041z" fill="#0C1328"/><path d="M296.982 128.477l-4.987-.704 1.496-2.197h3.491v2.901z" fill="#07080D"/><path d="M297 156.959c-4.945-.462-9-.959-9-.959l2 1.5-2 1.5c1.517.173 5.574.681 9 1v-3.041z" fill="#0C1328"/><path d="M297.079 157.023l-4.987.704 1.496 2.197h3.491v-2.901z" fill="#07080D"/><path d="M321 156.959c4.945-.462 9-.959 9-.959l-2 1.75 2 1.25s-5.574.681-9 1v-3.041z" fill="#0C1328"/><path d="M321.018 157.023l4.987.704-1.496 2.197h-3.491v-2.901z" fill="#07080D"/><path d="M296 125h26v16.914C322 154.6 309 162 309 162s-13-7.4-13-20.086V125z" fill="#0C1328"/><path d="M298 126h22v15.086C320 152.4 309 160 309 160s-11-7.6-11-18.914V126z" fill="#F2F2F2"/><path fill-rule="evenodd" clip-rule="evenodd" d="M291.995 125.755c0-.486.347-.901.827-.978 2.703-.437 11.376-1.777 16.13-1.777 4.753 0 13.426 1.34 16.129 1.777.48.077.827.492.827.978v2.518s-11.01-1.913-16.956-1.913c-5.947 0-16.957 1.913-16.957 1.913v-2.518zm34.01 33.99c0 .486-.347.901-.827.978-2.703.437-11.376 1.777-16.13 1.777-4.753 0-13.426-1.34-16.129-1.777-.48-.077-.827-.492-.827-.978v-2.518s11.01 1.913 16.956 1.913c5.947 0 16.957-1.913 16.957-1.913v2.518z" fill="#0C1328"/><path fill-rule="evenodd" clip-rule="evenodd" d="M312.639 130.068l-1.243-1.478-.899.756 1.265 1.504-.972.868-3.95 3.253c.104-.305.16-.631.16-.971 0-1.657-1.343-3-3-3s-3 1.343-3 3c0 1.337.875 2.47 2.083 2.857.104.412.134.782.108 1.118L301 139.779l.631.767-.163.151-.01.008c-.75.691-1.458 1.344-1.458 2.295h18v-.807c0-1.824-.697-3.482-1.836-4.726l1.788-1.595-4.386-4.919 1.484-1.222-.746-.907-1.52 1.252-.068-.076-.077.068zm-1.829 5.127l-2.478.068 2.423-1.995 1.888 2.118a7.0214 7.0214 0 00-1.833-.191z" fill="#51BFE1"/><path d="M305 151c0-1.105.895-2 2-2h4c1.105 0 2 .895 2 2v2c0 1.105-.895 2-2 2h-4c-1.105 0-2-.895-2-2v-2z" fill="#9FA2AA"/></svg>