<?xml version="1.0" encoding="UTF-8"?><svg height="500" viewBox="0 0 500 500" width="500" xmlns="http://www.w3.org/2000/svg"><g fill="none" fill-rule="evenodd"><path d="M0 0h500v500H0z"/><path d="M203.006 109.193h93.643V21.898h-93.643z" fill="#a30424"/><path d="M202.867 32.198h93.458v-14.2h-93.458z" fill="#bc082c"/><g fill="#cf1b3e"><path d="M87.547 75.26S46.785 148.06 29 203.031c4.445 13.375 45.207 40.86 85.232 37.886 13.34-36.4 24.46-52 24.46-52S141.653 93.83 87.546 75.26M411.473 75.26s40.762 72.8 58.547 127.771c-4.445 13.375-45.207 40.86-85.232 37.886-13.34-36.4-24.46-52-24.46-52S357.367 93.83 411.474 75.26"/><path d="M249.514 57.706c-50.082 0-47.799-39.47-48.743-39.14-7.516 2.618-24.133 14.936-52.439 25.495-31.872 11.885-52.625 19.315-60.782 31.2 11.115 8.915 46.694 28.97 46.694 120.345v271.14S183.902 481.6 249.13 481.6c68.93 0 115.649-14.855 115.649-14.855v-271.14c0-91.375 35.58-111.43 46.7-120.345-8.157-11.885-28.91-19.315-60.783-31.2-28.36-10.577-44.982-22.92-52.478-25.511-.928-.318 4.177 39.156-48.703 39.156z"/></g><path d="M293.733 37.26c45.26 11.336 71.506 39.337 71.506 67.982v72.909c-.301 5.5-.46 11.3-.46 17.421v271.14s-46.72 14.855-115.649 14.855c-65.227 0-114.885-14.855-114.885-14.855v-271.14c0-6.261-.167-12.188-.482-17.799v-72.531c0-28.836 26.598-57.02 72.417-68.202 5.595 10.126 17.495 20.632 43.334 20.632 27.082 0 38.955-10.352 44.22-20.411z" fill="#1d50a1"/><path d="M277 52.64c23.414-10.627 20.497-34.37 21.217-34.123 6.598 2.28 20.265 12.115 42.783 21.651v432.384c-15.28 3.13-37.264 6.653-64 8.207zm-53 428.208c-25.92-1.468-48.149-4.94-64-8.075V39.323c21.3-9.246 34.354-18.554 40.772-20.793.742-.256-.51 24.065 23.228 34.492z" fill="#cf1b3e"/><path d="M249.576 63.752c51.479 0 58.279-35.895 58.279-40.38-5.772-3.24-9.728-5.345-12.008-5.345 0 0 5.881 32.495-46.335 32.495-48.52 0-46.336-32.495-46.336-32.495-2.28 0-6.235 2.105-12.002 5.345 0 0 7.368 40.38 58.402 40.38" fill="#d20a31"/><path d="M200.144 42.171a107.44 107.44 0 0 1 10.465-4.762c6.267 6.954 17.78 13.113 38.903 13.113 22.55 0 34.266-6.061 40.298-12.948a107.459 107.459 0 0 1 10.455 4.811c-7.587 10.515-22.385 21.366-50.689 21.366-26.69 0-41.436-11.043-49.432-21.58z" fill="#e8c400"/><path d="M75.025 117.298c10.132-20.75 17.944-35.245 17.944-35.245 7.882-11.885 27.937-19.315 58.747-31.2 29.359-11.33 45.835-24.635 52.265-25.865-.678-4.5-.798-6.882-.804-6.97-5.927 0-22.98 14.025-54.853 25.91-31.868 11.89-52.62 19.315-60.772 31.2 0 0-8.232 14.76-18.858 35.825C49.557 149.176 36.326 179.867 29 203.027c.3 1.058 1.008 2.41 2.123 4.056s2.05 2.777 2.807 3.396c8.386-23.684 22.084-54.745 41.095-93.18zM423.965 117.322c-10.132-20.75-17.958-35.269-17.958-35.269-7.882-11.885-27.936-19.315-58.747-31.2-29.358-11.33-45.149-24.497-51.58-25.727.68-4.5.326-6.505.19-7.038 5.926 0 22.91 13.955 54.783 25.84 31.867 11.89 52.62 19.315 60.772 31.2 0 0 8.231 14.76 18.857 35.825 18.39 36.305 31.635 66.996 39.738 92.074-.491 1.317-.977 2.346-1.457 3.088-.481.741-1.276 1.804-2.385 3.188-18.428-43.992-32.498-74.652-42.213-91.98z" fill="#1d50a1"/><path d="M467.461 195.302a338.826 338.826 0 0 1 2.668 7.9c-4.445 13.375-45.208 40.86-85.232 37.885a426.405 426.405 0 0 0-2.836-7.52c20.795-1.358 37.993-5.637 51.595-12.837 13.428-7.11 24.696-15.585 33.805-25.428zM31.655 195.302c9.103 9.828 20.36 18.291 33.772 25.392 13.611 7.205 30.824 11.485 51.64 12.84a426.42 426.42 0 0 0-2.835 7.516C74.208 244.025 33.445 216.54 29 203.165c.836-2.584 1.723-5.209 2.655-7.863z" fill="#e8c400"/><g><path d="M306.135 146.52c-4.782-.51-9.057-2.857-12.795-7.003l-2.204-2.446 3.192.807c1.185.3 2.299.487 3.34.563-3.79-2.958-5.366-6.864-4.864-10.96.504-4.119 3.206-7.746 5.795-7.466l.974.105-.085.976c-.366 4.208 2.035 8.62 5.004 10.813.694-4.132 2.822-7.068 5.917-8.59 3.196-1.57 7.068-1.313 8.993.538l1.272 1.223-1.702.463c-3.251.884-5.062 2.953-5.86 5.992-.436 1.658-.522 3.206-.452 5.442l.004.116c.832.155 1.411.26 2.363.434h.005l.493.09c3.158.575 4.76 2.013 5.229 4.19.124.579.155 1.013.175 1.929.007.32.012.463.023.614l.172 2.318-1.801-1.47c-2.463-2.01-4.296-2.295-5.675-1.467-.507.305-.943.76-1.271 1.286-.221.354-.364.718-.364.715V152h-2.767l-.296-1.555-.346 1.555h-2.47v-1-4.48z" fill="#004691" stroke="#aaabae" stroke-width="2"/><path d="M329 150v12h-40v-12c5.343 3.183 9.684 5.016 13.022 5.497h.579c.227-.001.36-.003.399-.005V154l2 .001a4 4 0 0 1 3.8-3.996l.2-.005a4 4 0 0 1 4 4.002l2 .001v1.49h1.01c3.33-.483 7.66-2.314 12.99-5.493z" fill="#aaabae"/><path d="M288 160c1.815-.667 3.15-1 4.006-1 7.348 0 13.013 2 16.994 2 3.998 0 9.696-2 17.092-2 .836 0 2.138.333 3.908 1v4c-1.8-.667-3.102-1-3.908-1-7.458 0-13.057 2-17.092 2-3.976 0-9.694-2-16.994-2-.873 0-2.208.333-4.006 1z" fill="#004691"/></g><path d="M413.584 238.323c-9.287 2.238-19.064 3.316-28.798 2.592-8.197-22.369-15.557-36.883-20.012-44.748v270.577s-21.102 6.71-55.867 11.11l-.544-.059c1.881-54.795 5.722-166.47 8.277-240.705 2.055-59.755 31.084-95.29 60.099-117.44-2.676 6.78-5.072 14.606-7 23.667 7.354 11.852 24.436 42.069 43.831 94.964l.014.042zM190.717 477.795c-34.248-4.401-56.477-11.05-56.477-11.05V196.171c-4.456 7.867-11.813 22.38-20.01 44.743-9.632.716-19.308-.332-28.51-2.523.005-.033.012-.065.02-.097 19.377-52.848 36.305-83.066 43.61-94.944-1.93-9.075-4.328-16.912-7.007-23.701 29.015 22.15 58.044 57.685 60.1 117.44 2.554 74.235 6.395 185.91 8.276 240.705z" fill="#000" fill-opacity=".1"/></g></svg>