<?xml version="1.0" encoding="UTF-8"?><svg height="500" viewBox="0 0 500 500" width="500" xmlns="http://www.w3.org/2000/svg"><g fill="none" fill-rule="evenodd"><path d="M203.086 109.195h93.643V21.9h-93.643z" fill="#ae0016"/><g fill="#f2f2f2"><path d="M87.548 75.26S46.785 148.06 29 203.03c4.445 13.375 45.208 40.86 85.232 37.885 13.34-36.4 24.46-52 24.46-52S141.655 93.83 87.548 75.26M411.473 75.26s40.763 72.8 58.548 127.77c-4.445 13.375-45.208 40.86-85.232 37.885-13.34-36.4-24.46-52-24.46-52S357.366 93.83 411.473 75.26"/><path d="M249.514 57.706c-50.082 0-47.799-39.47-48.743-39.14-7.516 2.618-24.133 14.936-52.439 25.495-31.872 11.885-52.625 19.315-60.782 31.2 11.115 8.915 46.694 28.97 46.694 120.345v271.14S183.902 481.6 249.13 481.6c68.93 0 115.649-14.855 115.649-14.855v-271.14c0-91.375 35.58-111.43 46.7-120.345-8.157-11.885-28.91-19.315-60.783-31.2-28.36-10.577-44.982-22.92-52.478-25.511-.928-.318 4.177 39.156-48.703 39.156z"/></g><path d="M365.4 175.537a312.558 312.558 0 0 0-.618 20.038v271.14s-46.87 14.855-116.022 14.855c-8.972 0-17.65-.28-25.947-.762-51.846-3.072-88.63-14.066-88.63-14.066v-271.14c0-6.261-.168-12.188-.483-17.799v-72.531c0-28.744 26.454-56.84 72.047-68.094 5.227 9.337 15.857 18.956 37.89 20.33 1.89.128 3.863.195 5.926.195 27.108 0 38.993-10.353 44.262-20.412 45.304 11.335 71.575 39.336 71.575 67.98z" fill="#d2001b"/><path d="M203 32h94V18h-94z" fill="#bc0018"/><path d="M309 23.377c-5.837-3.26-9.838-5.377-12.144-5.377 0 0 5.949 32.69-46.859 32.69C200.93 50.69 203.14 18 203.14 18c-2.306 0-6.307 2.118-12.139 5.377 0 0 7.452 40.623 59.063 40.623C302.123 64 309 27.89 309 23.377z" fill="#d2001b"/><path d="M289.798 121.31l.193-.857.842-.25c6.05-1.802 12.108-2.703 18.167-2.703s12.116.901 18.167 2.702l.842.251.193.857c4.642 20.588-1.523 36.354-18.404 46.96l-.798.502-.798-.502c-16.88-10.609-23.046-26.375-18.404-46.96z" fill="#9b8545" fill-rule="nonzero"/><path d="M291.261 121.64c5.913-1.76 11.826-2.64 17.739-2.64s11.826.88 17.739 2.64c4.505 19.98-1.408 35.1-17.739 45.36-16.331-10.263-22.244-25.383-17.739-45.36z" fill="#003778"/><path d="M294.005 120.887a286.5 286.5 0 0 0 2.043-.52C301.204 119.03 303.844 119 309 119c4.848 0 6.949-.162 11.797 1.022.71.173 1.779.461 3.206.865 4.506 19.98-.496 35.35-15.003 46.113-14.502-10.765-19.5-26.136-14.995-46.113z" fill="#f00100"/><path d="M309 119c4.848 0 6.949-.162 11.797 1.022.71.173 1.779.461 3.206.865 4.506 19.98-.496 35.35-15.003 46.113z" fill="#dc0102"/><path d="M413.584 238.323c-9.287 2.238-19.064 3.316-28.798 2.592-8.197-22.369-15.557-36.883-20.012-44.748v270.577s-21.102 6.71-55.867 11.11l-.544-.059c1.881-54.795 5.722-166.47 8.277-240.705 2.055-59.755 31.084-95.29 60.099-117.44-2.676 6.78-5.072 14.606-7 23.667 7.354 11.852 24.436 42.069 43.831 94.964l.014.042zM190.717 477.795c-34.248-4.401-56.477-11.05-56.477-11.05V196.171c-4.456 7.867-11.813 22.38-20.01 44.743-9.632.716-19.308-.332-28.51-2.523.005-.033.012-.065.02-.097 19.377-52.848 36.305-83.066 43.61-94.944-1.93-9.075-4.328-16.912-7.007-23.701 29.015 22.15 58.044 57.685 60.1 117.44 2.554 74.235 6.395 185.91 8.276 240.705z" fill="#000" fill-opacity=".1"/></g></svg>