<svg xmlns="http://www.w3.org/2000/svg" width="500" height="500" fill="none" viewBox="0 0 500 500"><g clip-path="url(#clip0_6058_443)"><path fill="#D9D9D9" fill-rule="evenodd" d="M203.09 109.2h93.64V21.9h-93.64v87.3Z" clip-rule="evenodd"/><path fill="#148765" fill-rule="evenodd" d="M87.55 75.26S46.78 148.06 29 203.03c4.44 13.38 45.2 40.86 85.23 37.88 13.34-36.4 24.46-52 24.46-52s2.97-95.08-51.14-113.65M411.47 75.26s40.77 72.8 58.55 127.77c-4.44 13.38-45.2 40.86-85.23 37.88-13.34-36.4-24.46-52-24.46-52s-2.96-95.08 51.14-113.65" clip-rule="evenodd"/><path fill="#148765" fill-rule="evenodd" d="M249.51 57.7c-50.08 0-47.8-39.46-48.74-39.13-7.52 2.61-24.13 14.93-52.44 25.5-31.87 11.88-52.62 19.3-60.78 31.2 11.11 8.9 46.7 28.96 46.7 120.34v271.14s49.65 14.85 114.88 14.85c68.93 0 115.65-14.85 115.65-14.85V195.6c0-91.38 35.58-111.43 46.7-120.35-8.16-11.88-28.91-19.31-60.79-31.2-28.36-10.58-44.98-22.92-52.47-25.5-.93-.33 4.17 39.15-48.7 39.15Z" clip-rule="evenodd"/><path fill="#F2F2F2" fill-rule="evenodd" d="M365.24 178.15c-.3 5.5-.46 11.3-.46 17.42v271.14s-46.72 14.86-115.65 14.86c-65.23 0-114.88-14.86-114.88-14.86V195.57c0-6.26-.17-12.19-.49-17.8v-72.53c0-28.83 26.6-57.02 72.42-68.2 5.6 10.13 17.5 20.63 43.33 20.63 27.09 0 38.96-10.35 44.22-20.4C339 48.6 365.24 76.6 365.24 105.23v72.91Z" clip-rule="evenodd"/><path fill="#148765" fill-rule="evenodd" d="M365.24 105.54v40c-28.03-.6-78.67-1.54-115.24-1.54-37.01 0-88.43.97-116.24 1.56v-40C161.57 104.97 213 104 250 104c36.57 0 87.21.95 115.24 1.54Zm-.46 90.03c0-5.7.14-11.11.4-16.26-28.04-.9-78.63-2.31-115.18-2.31-36.97 0-88.32 1.45-116.15 2.34.26 5.14.4 10.55.4 16.23v23.75C162.16 218.44 213.2 217 250 217c36.37 0 86.66 1.4 114.78 2.3v-23.73Zm0 57.49C336.65 251.87 286.36 250 250 250c-36.78 0-87.83 1.92-115.75 3.1v40c27.92-1.18 78.97-3.1 115.75-3.1 36.36 0 86.65 1.87 114.78 3.06v-40Zm0 74C336.66 325.87 286.37 324 250 324c-36.79 0-87.83 1.92-115.75 3.1v40c27.92-1.18 78.96-3.1 115.75-3.1 36.37 0 86.66 1.87 114.78 3.06v-40Zm0 73.76C336.66 399.34 286.38 397 250 397c-36.8 0-87.84 2.4-115.75 3.87v40C162.16 439.4 213.2 437 250 437c36.37 0 86.66 2.34 114.78 3.82v-40Z" clip-rule="evenodd"/><path fill="#F64141" fill-rule="evenodd" d="M202.87 32.2h93.46V18h-93.46v14.2Z" clip-rule="evenodd"/><path fill="#E3E3E3" fill-rule="evenodd" d="M202.87 32.3h93.46v-7.1h-93.46v7.1Z" clip-rule="evenodd"/><path fill="#F2F2F2" fill-rule="evenodd" d="M249.58 63.75c51.47 0 58.28-35.9 58.28-40.38-5.78-3.24-9.73-5.34-12.01-5.34 0 0 5.88 32.5-46.34 32.5-48.52 0-46.33-32.5-46.33-32.5-2.28 0-6.24 2.1-12 5.34 0 0 7.36 40.38 58.4 40.38" clip-rule="evenodd"/><path fill="#F64141" fill-rule="evenodd" d="M295.85 18.03c1.78 0 4.6 1.29 8.5 3.4-7.17 24.48-25.35 36.72-54.52 36.72-29.27 0-47.51-12.31-54.74-36.94 3.69-1.98 6.37-3.18 8.09-3.18 0 0-2.19 32.5 46.33 32.5 52.22 0 46.34-32.5 46.34-32.5ZM467.35 195.13c.94 2.67 1.83 5.3 2.67 7.9-4.44 13.37-45.2 40.86-85.23 37.88-.96-2.61-1.9-5.12-2.84-7.52 20.8-1.35 38-5.63 51.6-12.83 13.43-7.11 24.7-15.59 33.8-25.43ZM31.65 195.16c9.1 9.83 20.37 18.3 33.78 25.4 13.6 7.2 30.82 11.48 51.64 12.84-.93 2.4-1.88 4.9-2.84 7.51-40.02 2.98-80.79-24.5-85.23-37.88.84-2.59 1.72-5.21 2.65-7.87Z" clip-rule="evenodd"/><path fill="#F2F2F2" fill-rule="evenodd" d="m468.54 198.57-.13.14c-11.32 12.1-23.95 21.25-37.89 27.46-14.45 6.44-30.3 9.7-47.58 9.8a401.9 401.9 0 0 0-2.13-5.48c17.15-.14 32.9-3.4 47.27-9.8 14.15-6.3 26.95-15.64 38.4-28.01.71 1.98 1.4 3.94 2.06 5.9ZM71.15 220.7c14.3 6.36 30 9.63 47.06 9.8l-.85 2.14-1.28 3.33c-17.19-.12-32.98-3.4-47.37-9.8-14.06-6.26-26.78-15.51-38.17-27.77.66-1.94 1.35-3.91 2.06-5.89 11.49 12.46 24.34 21.85 38.55 28.18Z" clip-rule="evenodd"/><path fill="#148765" d="M309 170c-10.55-6.31-20.32-18.68-22-41.68 3.67-3.66 15.19-7.32 22-7.32 6.81 0 18.33 3.66 22 7.32-1.68 23-11.45 35.37-22 41.68Z"/><path fill="#5CF" fill-rule="evenodd" d="M329.29 140c-3.6 15.68-11.69 24.85-20.29 30v-30h20.29Z" clip-rule="evenodd"/><path fill="#F2F2F2" fill-rule="evenodd" d="M327.98 144.82c-12.17-.2-25.24-.4-38.13-.55a72.69 72.69 0 0 1-2.85-15.95c3.67-3.66 15.19-7.32 22-7.32 6.81 0 18.33 3.66 22 7.32a72.14 72.14 0 0 1-3.02 16.5Z" clip-rule="evenodd"/><path fill="#93D5C1" fill-rule="evenodd" d="M323 127.34V142h-28v-14.66c4.33-1.9 10.07-3.34 14-3.34 3.93 0 9.67 1.43 14 3.34Z" clip-rule="evenodd"/><path fill="#F64141" fill-rule="evenodd" d="M302.58 165.23a43.04 43.04 0 0 1-9.85-13.47c2.08-2.55 4.9-3.86 7.5-3.14 4 1.1 5.96 6.58 4.4 12.22a14.2 14.2 0 0 1-2.05 4.39Z" clip-rule="evenodd"/><path fill="#FCD260" fill-rule="evenodd" d="M325.23 151.84a42.94 42.94 0 0 1-9.99 13.55 14.3 14.3 0 0 1-2.14-4.53c-1.58-5.7.4-11.21 4.44-12.33 2.67-.74 5.57.64 7.69 3.31Z" clip-rule="evenodd"/><path fill="#000" fill-opacity=".06" fill-rule="evenodd" d="M413.58 238.32a93.76 93.76 0 0 1-28.8 2.6c-8.2-22.37-15.55-36.89-20-44.75v270.57s-21.1 6.71-55.87 11.12c-.18-.03-.37-.05-.55-.06l8.28-240.71c2.06-59.75 31.08-95.29 60.1-117.44a148.59 148.59 0 0 0-7 23.67c7.35 11.85 24.44 42.07 43.83 94.96l.01.04ZM190.72 477.8c-34.25-4.4-56.48-11.06-56.48-11.06V196.17c-4.46 7.87-11.81 22.38-20 44.75-9.64.71-19.32-.34-28.52-2.53l.02-.1c19.38-52.84 36.3-83.06 43.61-94.94a148.63 148.63 0 0 0-7-23.7c29 22.15 58.04 57.69 60.1 117.44l8.27 240.7Z" clip-rule="evenodd"/></g><defs><clipPath id="clip0_6058_443"><path fill="#fff" d="M0 0h500v500H0z"/></clipPath></defs></svg>