<svg xmlns="http://www.w3.org/2000/svg" width="501" height="501" fill="none"><path fill="#01100C" fill-rule="evenodd" d="M203.09 109.22h93.64v-87.3H203.1v87.3Z" clip-rule="evenodd"/><path fill="#000D75" fill-rule="evenodd" d="M202.95 32.22h93.46v-14.2h-93.46v14.2Z" clip-rule="evenodd"/><path fill="#0017D5" fill-rule="evenodd" d="M249.6 57.73c-50.09 0-47.8-39.47-48.75-39.14-7.51 2.62-24.13 14.94-52.44 25.5-31.87 11.88-52.62 19.31-60.78 31.2 11.12 8.91 46.7 28.97 46.7 120.34v271.14s49.66 14.86 114.88 14.86c68.93 0 115.65-14.86 115.65-14.86V195.63c0-91.37 35.58-111.43 46.7-120.34-8.16-11.89-28.91-19.32-60.78-31.2-28.36-10.58-44.98-22.92-52.48-25.51-.93-.32 4.18 39.15-48.7 39.15Z" clip-rule="evenodd"/><path fill="#0017D5" fill-rule="evenodd" d="M87.63 75.29s-40.76 72.8-58.54 127.77c4.44 13.37 45.2 40.86 85.23 37.88 13.34-36.4 24.46-52 24.46-52s2.96-95.08-51.15-113.65Zm323.93 0s40.76 72.8 58.55 127.77c-4.45 13.37-45.21 40.86-85.24 37.88-13.34-36.4-24.46-52-24.46-52s-2.96-95.08 51.15-113.65Z" clip-rule="evenodd"/><path fill="#0015C2" fill-rule="evenodd" d="M249.66 63.78c51.48 0 58.28-35.9 58.28-40.38-5.77-3.24-9.73-5.35-12.01-5.35 0 0 5.88 32.5-46.34 32.5-48.52 0-46.33-32.5-46.33-32.5-2.28 0-6.24 2.1-12 5.35 0 0 7.36 40.38 58.4 40.38Z" clip-rule="evenodd"/><path fill="#F2F2F2" fill-rule="evenodd" d="M41.9 169.53c36.15 39.03 36.42 40.62 72.73 71.55-40.03 2.97-80.79-24.51-85.24-37.89 2.5-8.66 7.5-22.16 12.5-33.66Zm416 0c-34.83 37.59-34.6 38.62-72.6 71.55 40.03 2.97 80.79-24.51 85.23-37.89-2.5-8.66-7.63-22.16-12.63-33.66Z" clip-rule="evenodd"/><path fill="#000" fill-opacity=".09" fill-rule="evenodd" d="M413.67 238.35a93.73 93.73 0 0 1-28.8 2.6c-8.2-22.38-15.56-36.9-20.01-44.76v270.58s-21.1 6.71-55.87 11.11l-.54-.06 8.27-240.7c2.06-59.76 31.09-95.3 60.1-117.44a148.56 148.56 0 0 0-7 23.66c7.36 11.85 24.44 42.07 43.83 94.97l.02.04ZM190.8 477.82c-34.25-4.4-56.48-11.05-56.48-11.05V196.2c-4.45 7.87-11.81 22.38-20 44.74a93.6 93.6 0 0 1-28.52-2.52l.02-.1c19.38-52.85 36.3-83.06 43.61-94.94a148.74 148.74 0 0 0-7-23.7c29.01 22.15 58.04 57.68 60.1 117.44l8.27 240.7Z" clip-rule="evenodd"/><path fill="#EE1917" fill-rule="evenodd" d="M323.14 125.54h-28.9v8.72h4.7v20.67l9.75 5.47 9.75-5.47v-20.67h4.7v-8.72Z" clip-rule="evenodd"/><path fill="#EFEFEF" fill-rule="evenodd" d="M293.86 125.15h29.67v9.5h-4.7v20.5l-10.14 5.7-10.13-5.7v-20.5h-4.7v-9.5Zm.77.78v7.94h4.7v20.83l9.36 5.26 9.37-5.26v-20.83h4.7v-7.94h-28.13Z" clip-rule="evenodd"/><path fill="#EE1917" fill-rule="evenodd" d="M293.08 124.38h31.23v11.04h-4.7v20.19l-10.92 6.13-10.9-6.13v-20.2h-4.7v-11.03Zm5.48 30.78v-20.52h-4.7v-9.49h29.67v9.5h-4.7v20.5l-10.14 5.7-10.13-5.7Z" clip-rule="evenodd"/><path fill="#0017D5" d="M301.6 135.65h14.2v16.87l-7.1 4-7.1-4v-16.87Zm-4.97-7.38h24.13v3.25h-24.13v-3.25Z"/><path fill="#EFEFEF" fill-rule="evenodd" d="M296.24 127.88h24.9v4.03h-24.9v-4.03Zm.77.78v2.48h23.36v-2.48h-23.36Zm4.2 6.6h14.97v17.49l-7.49 4.2-7.48-4.2v-17.49Zm.77.78v16.26l6.71 3.77 6.71-3.77v-16.27h-13.42Z" clip-rule="evenodd"/><path fill="#EFEFEF" d="M303.79 138.41h9.75v5.6h-9.75zm0 7.67h9.75v1.62h-9.75zm0 3.69h9.75v1.62h-9.75z"/><path fill="#EE1917" d="M271.04 61.31a86.36 86.36 0 0 1-21.38 2.47c-8.5 0-15.8-1.12-22.05-3a26.24 26.24 0 0 1-7.8-16.34c6.78 3.6 16.33 6.1 29.78 6.1 13.34 0 22.9-2.11 29.71-5.27a26.41 26.41 0 0 1-8.26 16.04Z"/></svg>