<svg xmlns="http://www.w3.org/2000/svg" width="501" height="501" fill="none"><path fill="#07215F" fill-rule="evenodd" d="M203.85 109.97h93.65v-87.3h-93.65v87.3Z" clip-rule="evenodd"/><path fill="#020818" fill-rule="evenodd" d="M203.71 32.98h93.46v-14.2H203.7v14.2Z" clip-rule="evenodd"/><path fill="#00509F" fill-rule="evenodd" d="M88.4 76s-40.77 72.8-58.55 127.78c4.44 13.37 45.2 40.86 85.23 37.88 13.34-36.4 24.46-52 24.46-52S142.5 94.58 88.4 76.01Zm323.92 0s40.76 72.8 58.55 127.78c-4.45 13.37-45.21 40.86-85.24 37.88-13.33-36.4-24.45-52-24.45-52s-2.97-95.08 51.14-113.65Z" clip-rule="evenodd"/><path fill="#00509F" fill-rule="evenodd" d="M250.36 58.45c-50.08 0-47.8-39.47-48.74-39.14-7.52 2.62-24.14 14.94-52.44 25.5C117.3 56.69 96.55 64.12 88.39 76c11.12 8.91 46.7 28.97 46.7 120.34V467.5s49.66 14.86 114.88 14.86c68.93 0 115.65-14.86 115.65-14.86V196.35c0-91.37 35.58-111.43 46.7-120.34-8.15-11.89-28.9-19.32-60.78-31.2-28.36-10.58-44.98-22.92-52.48-25.51-.93-.32 4.18 39.15-48.7 39.15Z" clip-rule="evenodd"/><path fill="#0B379D" fill-rule="evenodd" d="M468.2 195.88c.94 2.66 1.83 5.3 2.67 7.9-4.45 13.37-45.2 40.86-85.23 37.88a423.4 423.4 0 0 0-2.84-7.52c20.8-1.35 38-5.63 51.6-12.83 13.42-7.11 24.7-15.59 33.8-25.43Zm-435.7.03c9.1 9.83 20.36 18.3 33.77 25.4 13.62 7.2 30.83 11.48 51.64 12.84-.93 2.4-1.87 4.9-2.83 7.51-40.02 2.98-80.79-24.5-85.23-37.88.83-2.59 1.72-5.21 2.65-7.87ZM308.7 24.1c-5.77-3.25-9.73-5.35-12-5.35 0 0 5.87 32.5-46.34 32.5-48.53 0-46.34-32.5-46.34-32.5-2.28 0-6.24 2.1-12 5.34 0 0 7.37 40.38 58.4 40.38 51.48 0 58.28-35.9 58.28-40.38Z" clip-rule="evenodd"/><path fill="#000" fill-opacity=".1" fill-rule="evenodd" d="M414.43 239.07a93.8 93.8 0 0 1-28.8 2.6c-8.2-22.37-15.55-36.89-20-44.75v270.57s-21.11 6.71-55.87 11.11l-.55-.06 8.28-240.7c2.05-59.76 31.08-95.3 60.1-117.44a148.7 148.7 0 0 0-7 23.67c7.35 11.85 24.43 42.06 43.83 94.96l.01.04ZM191.56 478.55c-34.24-4.4-56.47-11.06-56.47-11.06V196.92c-4.46 7.87-11.81 22.38-20.01 44.75a93.85 93.85 0 0 1-28.51-2.53l.02-.1c19.38-52.84 36.3-83.06 43.6-94.94a148.72 148.72 0 0 0-7-23.7c29.02 22.15 58.05 57.68 60.1 117.44l8.28 240.7Z" clip-rule="evenodd"/><path fill="#F2F2F2" d="m320.23 121.61 14.52 14.53v20.53l-14.52 14.53H299.7l-14.52-14.52v-20.54l14.52-14.53h20.54Z"/><path fill="#F2F2F2" d="m318.52 125.75 12.1 12.1v17.11l-12.1 12.1h-17.1l-12.1-12.1v-17.1l12.09-12.1h17.1Z"/><path fill="#0B379D" fill-rule="evenodd" d="M318.28 126.32h-16.63l-11.77 11.77v16.63l11.77 11.77h16.63l11.77-11.77V138.1l-11.77-11.77Zm12.34 11.53-12.1-12.1H301.4l-12.1 12.1v17.11l12.1 12.1h17.11l12.1-12.1v-17.1Z" clip-rule="evenodd"/><path fill="#0B379D" fill-rule="evenodd" d="M310.7 125.75v41.3h-9.29l-12.1-12.09v-17.1l12.1-12.1h9.29Z" clip-rule="evenodd"/></svg>