<?xml version="1.0" encoding="UTF-8"?><svg height="500" viewBox="0 0 500 500" width="500" xmlns="http://www.w3.org/2000/svg"><g fill="none" fill-rule="evenodd"><path d="M0 0h500v500H0z"/><path d="M203.608 109.195h93.432V21.9h-93.432z" fill="#af1916"/><path d="M203.469 32.2h93.248V18h-93.248z" fill="#c31d1a"/><g fill="#da211d"><path d="M87.544 75.262s-40.762 72.8-58.547 127.771c4.445 13.375 45.207 40.86 85.232 37.886 13.34-36.4 24.46-52 24.46-52s2.962-95.087-51.145-113.657M411.47 75.262s40.762 72.8 58.547 127.771c-4.445 13.375-45.207 40.86-85.232 37.886-13.34-36.4-24.46-52-24.46-52s-2.962-95.087 51.145-113.657"/><path d="M249.512 57.708c-50.082 0-47.799-39.47-48.743-39.14-7.516 2.618-24.133 14.936-52.439 25.495-31.873 11.885-52.626 19.315-60.783 31.2 11.115 8.915 46.695 28.97 46.695 120.345v271.14s49.658 14.855 114.886 14.855c68.93 0 115.65-14.855 115.65-14.855v-271.14c0-91.375 35.58-111.43 46.699-120.345-8.157-11.885-28.91-19.315-60.783-31.2-28.36-10.577-44.982-22.92-52.479-25.511-.927-.318 4.178 39.156-48.703 39.156z"/><path d="M250.073 63.754c51.363 0 58.147-35.895 58.147-40.38-5.759-3.24-9.706-5.345-11.98-5.345 0 0 5.868 32.495-46.231 32.495-48.411 0-46.231-32.495-46.231-32.495-2.275 0-6.222 2.105-11.976 5.345 0 0 7.352 40.38 58.271 40.38"/></g><g><path d="M308.815 156.001c4.513 0 9.741-2.69 13.518-6.868.387-.425.374-.41.575-.588.727-.643 1.627-1.01 2.817-1.01 2.475 0 4.718 2.169 4.44 5.05-.269 2.727-3.867 7.198-8.382 9.688-4.356 2.413-8.714 3.402-12.968 3.402s-8.61-.989-12.967-3.401c-4.516-2.491-8.114-6.962-8.381-9.69-.278-2.88 1.965-5.049 4.437-5.049 1.193 0 2.095.367 2.823 1.01.202.178.21.186.577.59 3.768 4.175 9 6.866 13.511 6.866z" fill="#ffe500" fill-rule="nonzero"/><path d="M322.96 149.683c.414-.457 1.11-1.323 2.765-1.323 1.659 0 3.863 1.47 3.605 4.145-.192 1.949-3.056 6.346-7.96 9.05-4.902 2.715-9.418 3.296-12.555 3.296-3.14 0-7.651-.58-12.556-3.296-4.903-2.704-7.766-7.101-7.957-9.05-.258-2.675 1.947-4.145 3.602-4.145 1.66 0 2.358.866 2.772 1.323 3.807 4.217 9.24 7.143 14.14 7.143s10.33-2.926 14.143-7.143z" fill="#da0106" fill-rule="nonzero"/><g fill="#ffe600" transform="translate(285.5 119.5)"><ellipse cx="4.197" cy="24.737" rx="3.357" ry="3.298"/><ellipse cx="41.964" cy="24.737" rx="3.357" ry="3.298"/><path d="M15.107 11.544h16.786v20.408l-8.577 6.802-8.209-6.802z"/></g><path d="M308.815 129.282c3.426 0 6.408 1.458 9.027 3.947.77.732 3.273 3.888 3.287 3.906 2.23 2.878 4.487 4.286 7.029 3.666 1.73-.428 2.848-1.678 3.459-3.427.157-.45.325-1.693.503-3.727-1.15-.813-1.837-1.318-2.059-1.516-.887-.791-1.87-1.901-3.024-3.483-3.86-5.295-10.272-9.148-18.222-9.148-7.952 0-14.366 3.856-18.216 9.149-1.155 1.58-2.138 2.689-3.028 3.482-.221.198-.906.704-2.053 1.518.176 2.034.342 3.275.499 3.724.609 1.75 1.726 3 3.456 3.428 2.543.62 4.795-.786 7.032-3.667.006-.008 2.514-3.173 3.284-3.905 2.62-2.488 5.602-3.947 9.026-3.947z" fill="#ffe500" fill-rule="nonzero"/><path d="M321.795 136.634c1.691 2.181 3.762 3.952 6.16 3.367 3.524-.871 3.34-5.917 3.34-5.917-.85-.591-2.298-1.336-4.94-4.956-2.587-3.548-8.441-8.803-17.54-8.803-9.1 0-14.953 5.255-17.534 8.803-2.644 3.62-4.098 4.365-4.94 4.956 0 0-.19 5.046 3.337 5.917 2.397.585 4.466-1.186 6.16-3.367.948-1.221 5.313-8.177 12.977-8.177 7.667 0 12.028 6.956 12.98 8.177z" fill="#da0106" fill-rule="nonzero"/></g><path d="M413.584 238.323c-9.287 2.238-19.064 3.316-28.798 2.592-8.197-22.369-15.557-36.883-20.012-44.748v270.577s-21.102 6.71-55.867 11.11l-.544-.059c1.881-54.795 5.722-166.47 8.277-240.705 2.055-59.755 31.084-95.29 60.099-117.44-2.676 6.78-5.072 14.606-7 23.667 7.354 11.852 24.436 42.069 43.831 94.964l.014.042zM190.717 477.795c-34.248-4.401-56.477-11.05-56.477-11.05V196.171c-4.456 7.867-11.813 22.38-20.01 44.743-9.632.716-19.308-.332-28.51-2.523.005-.033.012-.065.02-.097 19.377-52.848 36.305-83.066 43.61-94.944-1.93-9.075-4.328-16.912-7.007-23.701 29.015 22.15 58.044 57.685 60.1 117.44 2.554 74.235 6.395 185.91 8.276 240.705z" fill="#000" fill-opacity=".1"/></g></svg>