<?xml version="1.0" encoding="UTF-8"?><svg width="500" height="500" viewBox="0 0 500 500" fill="none" xmlns="http://www.w3.org/2000/svg"><path fill-rule="evenodd" clip-rule="evenodd" d="M203.006 109.193h93.643V21.8979h-93.643v87.2951z" fill="#DACA23"/><path fill-rule="evenodd" clip-rule="evenodd" d="M202.866 32.198h93.459v-14.2h-93.459v14.2z" fill="#035D3E"/><path fill-rule="evenodd" clip-rule="evenodd" d="M87.5472 75.2603S46.7846 148.061 29 203.031c4.4449 13.376 45.2074 40.861 85.232 37.886 13.339-36.401 24.459-52.001 24.459-52.001s2.963-95.0856-51.1438-113.6557zm323.9258 0s40.762 72.8007 58.547 127.7707c-4.445 13.376-45.208 40.861-85.232 37.886-13.34-36.401-24.459-52.001-24.459-52.001s-2.964-95.0856 51.144-113.6557z" fill="#F3E228"/><path fill-rule="evenodd" clip-rule="evenodd" d="M249.513 57.7054c-50.081 0-47.798-39.4691-48.742-39.14-7.516 2.6187-24.133 14.9368-52.439 25.495-31.873 11.885-52.6256 19.315-60.7822 31.2 11.1149 8.915 46.6942 28.9696 46.6942 120.3446v271.14S183.902 481.6 249.129 481.6c68.929 0 115.649-14.855 115.649-14.855v-271.14c0-91.375 35.579-111.4296 46.699-120.3446-8.157-11.885-28.91-19.315-60.783-31.2-28.359-10.5767-44.981-22.9194-52.478-25.5087-.927-.3202 4.178 39.1537-48.703 39.1537z" fill="#F3E228"/><path fill-rule="evenodd" clip-rule="evenodd" d="M287.003 120.998h44v5.036c0 33.966-17.953 38.964-22 38.964-4.047 0-22.003-4.998-22.003-38.964l.003-5.036z" fill="#000"/><path fill-rule="evenodd" clip-rule="evenodd" d="M289.006 122.998h39.997v4.578c0 30.878-16.32 35.422-19.999 35.422-3.678 0-20.001-4.544-20.001-35.422l.003-4.578z" fill="#00A74F"/><path fill-rule="evenodd" clip-rule="evenodd" d="M467.462 195.302c.936 2.667 1.827 5.303 2.667 7.9-4.445 13.375-45.208 40.86-85.232 37.885-.958-2.613-1.904-5.119-2.835-7.52 20.795-1.358 37.993-5.637 51.594-12.837 13.428-7.109 24.697-15.585 33.806-25.428zm-435.8073 0c9.1031 9.828 20.3606 18.292 33.7724 25.392 13.6109 7.205 30.8241 11.485 51.6389 12.84-.931 2.4-1.877 4.905-2.834 7.517-40.0243 2.975-80.7871-24.51-85.232-37.885.8363-2.585 1.7234-5.209 2.6547-7.864zM249.577 63.7514c51.478 0 58.278-35.895 58.278-40.38-5.772-3.24-9.728-5.345-12.008-5.345 0 0 5.882 32.495-46.335 32.495-48.52 0-46.335-32.495-46.335-32.495-2.28 0-6.236 2.105-12.003 5.345 0 0 7.368 40.38 58.403 40.38z" fill="#046846"/><path fill-rule="evenodd" clip-rule="evenodd" d="M313 159c2.761 0 5-2.239 5-5s-2.239-5-5-5-5 2.239-5 5 2.239 5 5 5z" fill="#FFF400"/><path fill="#FFF400" d="M291 125h13v6h-13z"/><path fill-rule="evenodd" clip-rule="evenodd" d="M296.5 149.971l23.074-23.27c3.498-4.079 6.656.283 6.656.728 0 .444-4.505 3.116-4.732 5.553-.227 2.437 1.492 9.476-5.099 13.55-6.59 4.073-10.83 0-10.83 0l-6.852 6.851-2.217-3.412z" fill="#FFF400"/><path fill-rule="evenodd" clip-rule="evenodd" d="M413.584 238.323c-9.288 2.238-19.065 3.316-28.798 2.592-8.198-22.369-15.557-36.883-20.013-44.748v270.577s-21.102 6.71-55.866 11.111l-.544-.06c1.881-54.795 5.722-166.47 8.276-240.705 2.056-59.755 31.085-95.29 60.099-117.44-2.675 6.781-5.071 14.606-6.999 23.667 7.354 11.852 24.436 42.069 43.831 94.964.005.014.01.028.014.042zM190.716 477.795c-34.248-4.401-56.476-11.051-56.476-11.051V196.172c-4.456 7.867-11.814 22.379-20.01 44.743-9.633.716-19.3084-.332-28.5103-2.524a1.056 1.056 0 01.0199-.096c19.3774-52.848 36.3054-83.066 43.6094-94.944-1.928-9.075-4.327-16.912-7.006-23.701 29.014 22.15 58.044 57.685 60.099 117.44 2.554 74.235 6.396 185.91 8.276 240.705h-.002z" fill="#000" fill-opacity=".06"/></svg>