<?xml version="1.0" encoding="UTF-8"?><svg height="500" viewBox="0 0 500 500" width="500" xmlns="http://www.w3.org/2000/svg"><g fill="none" fill-rule="evenodd"><path d="M0 0h500v500H0z"/><path d="M203.003 109.223h93.643V21.928h-93.643z" fill="#d9d9d9"/><path d="M202.864 32.228h93.458v-14.2h-93.458z" fill="#e0e0e0"/><path d="M87.548 75.258S46.785 148.058 29 203.029c4.445 13.376 45.208 40.86 85.232 37.886 13.34-36.4 24.46-52 24.46-52s2.963-95.085-51.144-113.655M411.473 75.258s40.762 72.8 58.547 127.77c-4.445 13.376-45.208 40.86-85.232 37.886-13.34-36.4-24.46-52-24.46-52s-2.963-95.085 51.145-113.655" fill="#f2f2f2"/><path d="M249.511 57.703c-50.082 0-47.798-39.47-48.742-39.14-7.516 2.618-24.133 14.936-52.439 25.495-31.873 11.885-52.626 19.315-60.782 31.2 11.114 8.915 46.694 28.97 46.694 120.345v271.14s49.658 14.855 114.885 14.855c68.929 0 115.648-14.855 115.648-14.855v-271.14c0-91.375 35.58-111.43 46.7-120.345-8.157-11.885-28.91-19.315-60.783-31.2-28.36-10.577-44.982-22.92-52.478-25.511-.927-.318 4.177 39.156-48.703 39.156z" fill="#d50000"/><path d="M200.29 18.605c.186.629.31 3.352 1.128 7.09-7.498 3.04-23.281 14.848-49.83 25.116-30.74 11.885-50.75 19.315-58.614 31.2 0 0-7.795 14.495-17.904 35.245l-6.293-6.322c10.616-21.092 18.787-35.72 18.787-35.72l.003.001C95.703 63.33 116.409 55.9 148.21 44.014c27.945-10.447 44.472-22.618 52.08-25.41zM298.881 18.535c7.61 2.791 24.136 14.962 52.081 25.409 31.801 11.885 52.508 19.315 60.644 31.201h.002s8.171 14.627 18.787 35.719l-6.293 6.322c-10.11-20.75-17.904-35.245-17.904-35.245-7.864-11.885-27.874-19.315-58.615-31.2-26.547-10.268-42.33-22.077-49.829-25.116.818-3.738.942-6.461 1.127-7.09z" fill="#f2f2f2"/><path d="M307.852 23.345C302.08 20.105 298.124 18 295.844 18c0 0 5.881 32.495-46.335 32.495-48.52 0-46.336-32.495-46.336-32.495-2.28 0-6.235 2.105-12.002 5.345 0 0 7.368 40.38 58.402 40.38 51.479 0 58.279-35.895 58.279-40.38z" fill="#f1f1f1"/><path d="M276.486 128h58.105l6.923 30H283.41zm5.028 4l5.077 22h49.895l-5.077-22z" fill="#e6d400" fill-rule="nonzero"/><path d="M279 130h54l6 26h-54z" fill="#efe8ef"/><path d="M287.933 153L283 133h33l1.2 6H331l3 14z" fill="#ea302c"/><circle cx="305.5" cy="146" fill="#e6d400" r="8"/><path d="M413.584 238.323c-9.287 2.238-19.064 3.316-28.798 2.592-8.197-22.369-15.557-36.883-20.012-44.748v270.577s-21.102 6.71-55.867 11.11l-.544-.059c1.881-54.795 5.722-166.47 8.277-240.705 2.055-59.755 31.084-95.29 60.099-117.44-2.676 6.78-5.072 14.606-7 23.667 7.354 11.852 24.436 42.069 43.831 94.964l.014.042zM190.717 477.795c-34.248-4.401-56.477-11.05-56.477-11.05V196.171c-4.456 7.867-11.813 22.38-20.01 44.743-9.632.716-19.308-.332-28.51-2.523.005-.033.012-.065.02-.097 19.377-52.848 36.305-83.066 43.61-94.944-1.93-9.075-4.328-16.912-7.007-23.701 29.015 22.15 58.044 57.685 60.1 117.44 2.554 74.235 6.395 185.91 8.276 240.705z" fill="#000" fill-opacity=".1"/></g></svg>