<?xml version="1.0" encoding="UTF-8"?><svg width="500" height="500" viewBox="0 0 500 500" fill="none" xmlns="http://www.w3.org/2000/svg"><path fill-rule="evenodd" clip-rule="evenodd" d="M203.006 109.193h93.643V21.8979h-93.643v87.2951z" fill="#C7C7C7"/><path fill-rule="evenodd" clip-rule="evenodd" d="M202.866 32.198h93.459v-14.2h-93.459v14.2z" fill="#D1D1D1"/><path fill-rule="evenodd" clip-rule="evenodd" d="M249.514 57.7054c-50.081 0-47.798-39.4691-48.742-39.14-7.516 2.6187-24.133 14.9368-52.439 25.495-31.873 11.885-52.6257 19.315-60.7822 31.2 11.1148 8.915 46.6942 28.9696 46.6942 120.3446v271.14S183.903 481.6 249.13 481.6c68.929 0 115.649-14.855 115.649-14.855v-271.14c0-91.375 35.579-111.4296 46.699-120.3446-8.157-11.885-28.91-19.315-60.783-31.2-28.359-10.5767-44.981-22.9194-52.478-25.5087-.927-.3202 4.178 39.1537-48.703 39.1537z" fill="#DC2626"/><path fill-rule="evenodd" clip-rule="evenodd" d="M87.5505 75.2598S46.7877 148.06 29.0029 203.03c4.445 13.375 45.2078 40.86 85.2321 37.885 13.34-36.4 24.46-52 24.46-52s2.963-95.0852-51.1445-113.6552zm323.9255 0S452.239 148.06 470.023 203.03c-4.445 13.375-45.207 40.86-85.232 37.885-13.34-36.4-24.459-52-24.459-52s-2.964-95.0852 51.144-113.6552z" fill="#DC2626"/><path fill-rule="evenodd" clip-rule="evenodd" d="M119.982 226.098c-1.849 4.494-3.775 9.427-5.75 14.816-40.0243 2.975-80.7871-24.51-85.232-37.885 1.7572-5.432 3.7388-11.037 5.8832-16.729 10.2695 10.965 22.7409 19.794 37.4143 26.489 14.6578 6.687 30.5525 11.123 47.6845 13.309zm259.223 0c17.132-2.186 33.027-6.622 47.684-13.309 14.674-6.695 27.145-15.524 37.415-26.489 2.144 5.692 4.126 11.297 5.883 16.729-4.445 13.375-45.208 40.86-85.232 37.885-1.975-5.389-3.901-10.322-5.75-14.816zM174.404 32.399c6.756-3.393 12.314-6.5264 16.77-9.0289l2.138 6.6309c-8.901 5.1427-22.457 13.3251-41.595 20.7108-28.212 10.8826-47.406 18.0299-56.4939 28.2824l-7.6098-3.9753c8.2023-11.8293 28.9297-19.2514 60.7167-31.1046 10.157-3.7883 18.808-7.8032 26.074-11.5153zm150.103-.0568c7.289 3.728 15.977 7.7645 26.185 11.5721C382.48 55.7679 403.208 63.19 411.41 75.02c-.411.2249-2.909 1.5936-7.495 4.1062-9.04-10.3233-28.277-17.4852-56.61-28.4144-18.71-7.2205-32.085-15.2026-40.991-20.3613l1.541-6.9804c4.433 2.489 9.948 5.6005 16.652 8.9721z" fill="#F2F2F2"/><path fill-rule="evenodd" clip-rule="evenodd" d="M249.577 63.7514c51.478 0 58.278-35.895 58.278-40.38-5.772-3.24-9.728-5.345-12.008-5.345 0 0 5.882 32.495-46.335 32.495-48.52 0-46.335-32.495-46.335-32.495-2.28 0-6.236 2.105-12.003 5.345 0 0 7.368 40.38 58.403 40.38z" fill="#F2F2F2"/><path fill-rule="evenodd" clip-rule="evenodd" d="M413.584 238.323c-9.287 2.238-19.064 3.316-28.797 2.593-8.198-22.369-15.558-36.883-20.013-44.749v270.578s-21.102 6.709-55.866 11.11c-.182-.02-.363-.039-.544-.06 1.88-54.795 5.722-166.47 8.276-240.705 2.055-59.755 31.085-95.29 60.099-117.44-2.675 6.781-5.072 14.607-6.999 23.668 7.354 11.851 24.435 42.068 43.83 94.964.005.014.01.027.014.041zM190.717 477.796c-34.248-4.402-56.476-11.051-56.476-11.051V196.173c-4.456 7.866-11.814 22.379-20.01 44.743-9.633.716-19.3089-.333-28.5108-2.524.0051-.032.0117-.064.0199-.097 19.3769-52.847 36.3059-83.066 43.6099-94.943-1.929-9.076-4.328-16.913-7.006-23.702 29.014 22.15 58.043 57.685 60.099 117.44 2.554 74.235 6.395 185.91 8.276 240.705l-.002.001z" fill="#000" fill-opacity=".08"/><path d="M289.317 121.353l.33-1.433 1.45-.21c7.851-1.139 13.807-1.71 17.903-1.71 4.096 0 10.051.571 17.902 1.71l1.45.21.33 1.433c4.667 20.292-1.547 36.386-18.486 47.838l-1.197.809-1.196-.809c-16.939-11.455-23.153-27.548-18.486-47.838z" fill="#F2F2F2"/><path d="M292 122s9-1 17-1 17 1 17 1v4s-9-1-17-1-17 1-17 1v-4z" fill="#DF3939"/><path fill="#3D3D3D" d="M299 149h20v3h-20z"/><circle cx="309" cy="133.5" r="4.5" fill="#D49292"/><path d="M303.114 136.967l.099-.413.434-.061c2.347-.328 4.128-.493 5.353-.493 1.225 0 3.006.165 5.353.493l.434.061.099.413c.49 5.854-.463 9.663-5.528 13.8L309 151l-.358-.233c-5.065-4.138-6.018-7.947-5.528-13.8z" fill="#DCCE55"/><path fill="#80C2CB" d="M295 135h6v8h-6z"/><path fill="#F4C7D7" d="M295 132h6v3h-6z"/><path fill="#3D3D3D" d="M295 130h6v2h-6zm0 13h6v9h-6z"/><path fill="#80C2CB" d="M317 135h6v8h-6z"/><path fill="#F4C7D7" d="M317 132h6v3h-6z"/><path fill="#3D3D3D" d="M317 130h6v2h-6zm0 13h6v9h-6z"/></svg>