<?xml version="1.0" encoding="UTF-8"?><svg width="500" height="500" viewBox="0 0 500 500" fill="none" xmlns="http://www.w3.org/2000/svg"><path fill-rule="evenodd" clip-rule="evenodd" d="M203.006 109.193h93.643V21.8979h-93.643v87.2951z" fill="#3980AF"/><path fill-rule="evenodd" clip-rule="evenodd" d="M202.866 32.198h93.459v-14.2h-93.459v14.2z" fill="#4794C7"/><path fill-rule="evenodd" clip-rule="evenodd" d="M87.5505 75.2603S46.7877 148.06 29.0029 203.03c4.445 13.375 45.2078 40.86 85.2321 37.885 13.34-36.4 24.46-52 24.46-52s2.963-95.0847-51.1445-113.6547zm323.9255 0S452.239 148.06 470.023 203.03c-4.445 13.375-45.207 40.86-85.232 37.885-13.34-36.4-24.459-52-24.459-52s-2.964-95.0847 51.144-113.6547z" fill="#F2F2F2"/><path fill-rule="evenodd" clip-rule="evenodd" d="M249.514 57.7054c-50.081 0-47.798-39.4691-48.742-39.14-7.516 2.6187-24.133 14.9368-52.439 25.495-31.873 11.885-52.6257 19.315-60.7822 31.2 11.1148 8.915 46.6942 28.9696 46.6942 120.3446v271.14S183.903 481.6 249.13 481.6c68.929 0 115.649-14.855 115.649-14.855v-271.14c0-91.375 35.579-111.4296 46.699-120.3446-8.157-11.885-28.91-19.315-60.783-31.2-28.359-10.5767-44.981-22.9194-52.478-25.5087-.927-.3202 4.178 39.1537-48.703 39.1537z" fill="#F2F2F2"/><path fill-rule="evenodd" clip-rule="evenodd" d="M170.746 474.792c-7.205-1.314-13.508-2.65-18.746-3.859V42.6541c17.571-6.8855 30.34-14.2918 39-19.1575V477.83c-7.332-.938-14.117-1.98-20.254-3.038zM270 48.3567V481.144c-6.696.291-13.663.454-20.873.454-6.544 0-12.931-.15-19.127-.419V48.2924c5.363 1.3813 11.795 2.2026 19.509 2.2026 8.171 0 14.92-.7958 20.491-2.1383zm78-5.3218V471.077c-9.506 2.143-22.76 4.705-39 6.764V24.047c8.798 4.9565 21.579 12.2502 39 18.9879z" fill="#53A5DC"/><path fill-rule="evenodd" clip-rule="evenodd" d="M75.0249 117.298c10.132-20.75 17.9444-35.245 17.9444-35.245 7.8817-11.8851 27.9367-19.3151 58.7467-31.2002 29.359-11.33 45.835-24.6347 52.265-25.8647-.678-4.5-.798-6.8825-.804-6.9705-5.927 0-22.98 14.0252-54.853 25.9102-31.868 11.8901-52.6209 19.3151-60.7725 31.2002 0 0-8.2313 14.76-18.8573 35.825 0 0-28.7057 57.334-39.6942 92.074 0 0 .4501 1.587 2.123 4.055 1.6729 2.468 2.8066 3.397 2.8066 3.397 12.5793-35.527 41.0953-93.181 41.0953-93.181zm348.9401.024c-10.132-20.75-17.957-35.269-17.957-35.269-7.883-11.885-27.937-19.3151-58.747-31.2001-29.359-11.3301-45.149-24.4971-51.58-25.7271.679-4.5.325-6.5048.189-7.0384 5.927 0 22.91 13.9554 54.783 25.8405 31.868 11.89 52.621 19.3151 60.772 31.2001 0 0 8.232 14.7601 18.858 35.825 0 0 27.583 54.457 39.738 92.074 0 0-.737 1.975-1.458 3.088-.721 1.112-2.385 3.188-2.385 3.188-27.641-65.988-42.213-91.981-42.213-91.981z" fill="#53A5DC"/><path fill-rule="evenodd" clip-rule="evenodd" d="M249.577 63.7514c51.478 0 58.278-35.895 58.278-40.38-5.772-3.24-9.728-5.345-12.008-5.345 0 0 5.882 32.495-46.335 32.495-48.52 0-46.335-32.495-46.335-32.495-2.28 0-6.236 2.105-12.003 5.345 0 0 7.368 40.38 58.403 40.38z" fill="#53A5DC"/><path clip-rule="evenodd" d="M289 155.542c2.209 0 4-1.791 4-4 0-2.21-1.791-4-4-4s-4 1.79-4 4c0 2.209 1.791 4 4 4z" stroke="#3388D6" stroke-width="3"/><path d="M307.039 157.042h27.707l-.263-1.726c-.776-5.096-4.323-8.813-10.413-11.092 0 0-1.356-.252-2.119-1.211-.072-.089-2.15-2.29-2.883-2.78-1.751-1.17-4.271-2.218-7.937-3.221 0 0-.561-.074-.682-.126-.387-.167-.892-.58-1.562-1.289-.438-.463-2.136-2.424-2.214-2.512-2.163-2.43-3.919-3.843-6.132-4.519l-3.615-1.106 1.797 3.149c-.55.061-.996.166-1.359.327-.699.31-1.943 1.365-2.051 1.465-.727.674-1.057.835-2.019.835l-.839.257c-1.933 1.303-1.934 2.514-1.034 4.994.065.179.111.311.153.438.57 1.804 1.671 2.745 3.954 3.949.127.067 1.018.535 1.191.63.841.463 1.462.885 1.964 1.366-.873.237-2.228.398-3.95.486-1.211.061-2.103.078-4.116.093-1.495.012-1.676.017-2.004.104-.883.236-1.892.713-2.746 1.452-1.325 1.147-2.038 2.737-1.845 4.685.28 2.813 2.017 4.661 4.925 5.315l18.092.037z" fill="#3388D6"/><path fill-rule="evenodd" clip-rule="evenodd" d="M289 155.542c2.209 0 4-1.791 4-4 0-2.21-1.791-4-4-4s-4 1.79-4 4c0 2.209 1.791 4 4 4z" fill="#fff"/><path fill-rule="evenodd" clip-rule="evenodd" d="M291.727 155.541h15.312s1.845-3.345 4.753-4.144c3.011-.828 3.244 1.418 8.996 0-4.358 2.171-4.738-.135-8.499 1.169-1.837.637-2.993 2.975-2.993 2.975H333s-1.029-6.76-9.455-9.912c-4.498-1.029-1.019-3.946-12.81-7.17-2.95 0-5.646-6.934-10.632-8.459 1.164 2.041.265 2.041.265 2.041s-1.767-.013-2.395.266c-1.831.813-1.953 2.429-4.679 2.429-1.55 1.045-.776 2.246-.294 3.723.968 3.065 5.01 3.065 7.368 6.039 2.358 2.974-11.368 2.273-11.368 2.273 2.504.413 4.53 1.075 4.85 4.302.32 3.226-2.123 4.468-2.123 4.468z" fill="#fff"/><path fill-rule="evenodd" clip-rule="evenodd" d="M413.584 238.323c-9.288 2.238-19.065 3.316-28.798 2.592-8.198-22.369-15.557-36.883-20.013-44.748v270.577s-21.102 6.71-55.866 11.111l-.544-.06c1.881-54.795 5.722-166.47 8.276-240.705 2.056-59.755 31.085-95.29 60.099-117.44-2.675 6.781-5.071 14.606-6.999 23.667 7.354 11.852 24.436 42.069 43.831 94.964.005.014.01.028.014.042zM190.716 477.795c-34.248-4.401-56.476-11.051-56.476-11.051V196.172c-4.456 7.867-11.814 22.379-20.01 44.743-9.633.716-19.3084-.332-28.5103-2.524a1.056 1.056 0 01.0199-.096c19.3774-52.848 36.3054-83.066 43.6094-94.944-1.928-9.075-4.327-16.912-7.006-23.701 29.014 22.15 58.044 57.685 60.099 117.44 2.554 74.235 6.396 185.91 8.276 240.705h-.002z" fill="#000" fill-opacity=".1"/></svg>