<?xml version="1.0" encoding="UTF-8"?><svg height="500" viewBox="0 0 500 500" width="500" xmlns="http://www.w3.org/2000/svg"><g fill="none" fill-rule="evenodd"><path d="M0 0h500v500H0z"/><path d="M203.006 109.193h93.643V21.898h-93.643z" fill="#cab800"/><path d="M202.867 32.198h93.458v-14.2h-93.458z" fill="#016f5d"/><path d="M87.55 75.26s-40.762 72.8-58.547 127.77c4.445 13.375 45.208 40.86 85.232 37.885 13.34-36.4 24.46-52 24.46-52S141.658 93.83 87.55 75.26M411.476 75.26s40.762 72.8 58.547 127.77c-4.445 13.375-45.208 40.86-85.232 37.885-13.34-36.4-24.46-52-24.46-52S357.368 93.83 411.476 75.26" fill="#027965"/><path d="M249.514 57.706c-50.082 0-47.798-39.47-48.742-39.14-7.516 2.618-24.133 14.936-52.439 25.495-31.873 11.885-52.626 19.315-60.782 31.2 11.114 8.915 46.694 28.97 46.694 120.345v271.14S183.903 481.6 249.13 481.6c68.929 0 115.648-14.855 115.648-14.855v-271.14c0-91.375 35.58-111.43 46.7-120.345-8.157-11.885-28.91-19.315-60.783-31.2-28.36-10.577-44.982-22.92-52.478-25.511-.927-.318 4.177 39.156-48.703 39.156z" fill="#f7e100"/><g fill="#027965"><path d="M68.717 110.836c10.64-21.092 18.83-35.72 18.83-35.72 8.157-11.885 28.91-19.315 60.783-31.2 28.008-10.447 44.571-22.617 52.198-25.41.186.63.31 3.354 1.13 7.093-7.518 3.04-23.336 14.847-49.942 25.114-30.81 11.885-50.865 19.315-58.747 31.2 0 0-7.812 14.495-17.944 35.245zM430.304 110.836l-6.308 6.322c-10.132-20.75-17.944-35.245-17.944-35.245-7.882-11.885-27.937-19.315-58.747-31.2C320.7 40.446 304.88 28.64 297.363 25.6c.82-3.739.945-6.462 1.13-7.092 7.627 2.792 24.19 14.962 52.198 25.409 31.873 11.885 52.626 19.315 60.783 31.2s8.19 14.628 18.83 35.72z"/><path d="M249.576 63.752c51.479 0 58.279-35.895 58.279-40.38-5.772-3.24-9.728-5.345-12.008-5.345 0 0 5.881 32.495-46.335 32.495-48.52 0-46.336-32.495-46.336-32.495-2.28 0-6.235 2.105-12.002 5.345 0 0 7.368 40.38 58.402 40.38"/></g><g transform="translate(292 122.5)"><path d="M18.128 40.686c7.283 0 15.081-7.2 15.081-14.545-2.989-9.486-3.094-9.18-3.236-14.545-.247-2.81 1.9-9.13 2.683-11.596C27.15.531 17.46 1.248 7.816 9.877-1.832 18.507-.405 26.48 1.03 30.49c2.37 6.627 9.815 10.197 17.098 10.197z" fill="#fff"/><path d="M17.976 38.4c6.075 0 9.089-28.123 10.534-31.428.257-1.195.831-2.708 1.722-4.54-2.647-.178-16.24 3.124-23.476 11.631-5.528 6.5-5.29 11.27-3.909 15.131 1.965 5.489 9.054 9.206 15.129 9.206z" fill="#000"/><path d="M17.976 38.4c6.075 0 12.58-5.954 12.58-12.03-2.493-7.845-2.58-7.593-2.7-12.03-.205-2.322 0-5.328.654-7.368-4.592.44-14.09 3.08-19.166 7.9-5.077 4.818-6.247 11.592-5.05 14.909C6.27 35.26 11.9 38.4 17.976 38.4z" fill="#00694a"/><path d="M17.976 38.4c6.075 0 12.646-5.954 12.646-12.03-1.359-6.566-2.363-6.97-2.765-12.03-12.305 0-20.881 5.06-20.881 13.06s4.925 11 11 11z" fill="#ffe600"/><circle cx="16.976" cy="26.4" fill="#d3d3d3" r="6"/><path d="M7.375 31c2.71 2.744 6.076 4.116 10.1 4.116 1.567 0 3.21-.442 4.932-1.325-3.084-3.898-6.632-26.82 0-26.82 1.602 0 1.778 7.608 3.208 14.333.736 3.462 1.232 5.796 3.501 8.74.264.342 1.015-1.124 2.253-4.399.91 1.124.445 3.708-1.393 7.755-4.167 3.6-8.334 5.401-12.5 5.401-4.167 0-8.334-1.8-12.5-5.401z" fill="#fff"/></g><path d="M413.584 238.323c-9.287 2.238-19.064 3.316-28.798 2.592-8.197-22.369-15.557-36.883-20.012-44.748v270.577s-21.102 6.71-55.867 11.11l-.544-.059c1.881-54.795 5.722-166.47 8.277-240.705 2.055-59.755 31.084-95.29 60.099-117.44-2.676 6.78-5.072 14.606-7 23.667 7.354 11.852 24.436 42.069 43.831 94.964l.014.042zM190.717 477.795c-34.248-4.401-56.477-11.05-56.477-11.05V196.171c-4.456 7.867-11.813 22.38-20.01 44.743-9.632.716-19.308-.332-28.51-2.523.005-.033.012-.065.02-.097 19.377-52.848 36.305-83.066 43.61-94.944-1.93-9.075-4.328-16.912-7.007-23.701 29.015 22.15 58.044 57.685 60.1 117.44 2.554 74.235 6.395 185.91 8.276 240.705z" fill="#000" fill-opacity=".06"/></g></svg>