<?xml version="1.0" encoding="UTF-8"?><svg height="500" viewBox="0 0 500 500" width="500" xmlns="http://www.w3.org/2000/svg"><g fill="none" fill-rule="evenodd"><path d="M0 0h500v500H0z"/><path d="M203.003 109.223h93.643V21.928h-93.643z" fill="#111"/><path d="M202.864 32.228h93.458v-14.2h-93.458z" fill="#1f1d2d"/><g fill="#252235"><path d="M87.548 75.258S46.785 148.058 29 203.029c4.445 13.376 45.208 40.86 85.232 37.886 13.34-36.4 24.46-52 24.46-52s2.963-95.085-51.144-113.655M411.473 75.258s40.762 72.8 58.547 127.77c-4.445 13.376-45.208 40.86-85.232 37.886-13.34-36.4-24.46-52-24.46-52s-2.963-95.085 51.145-113.655"/><path d="M249.511 57.703c-50.082 0-47.798-39.47-48.742-39.14-7.516 2.618-24.133 14.936-52.439 25.495-31.873 11.885-52.626 19.315-60.782 31.2 11.114 8.915 46.694 28.97 46.694 120.345v271.14s49.658 14.855 114.885 14.855c68.929 0 115.648-14.855 115.648-14.855v-271.14c0-91.375 35.58-111.43 46.7-120.345-8.157-11.885-28.91-19.315-60.783-31.2-28.36-10.577-44.982-22.92-52.478-25.511-.927-.318 4.177 39.156-48.703 39.156z"/></g><path d="M293.744 37.263c45.254 11.338 71.495 39.337 71.495 67.979v72.884a318.466 318.466 0 0 0-.464 17.476v271.14s-46.719 14.855-115.648 14.855c-65.227 0-114.885-14.855-114.885-14.855v-271.14c0-6.241-.166-12.15-.479-17.745v-72.615c0-28.832 26.591-57.013 72.4-68.198 5.589 10.134 17.487 20.658 43.348 20.658 27.106 0 38.976-10.371 44.233-20.439z" fill="#072d9d"/><path d="M309 41.962c14.719 5.452 26.833 12.839 36 21.401V471.74c-9.219 1.995-21.403 4.252-36 6.102zm-32 438.826c-8.8.512-18.114.81-27.873.81-9.038 0-17.777-.286-26.127-.777V52.599c6.603 3.1 15.228 5.104 26.511 5.104 11.823 0 20.748-1.974 27.489-5.034zm-86-2.958c-14.344-1.835-26.593-4.067-36-6.046V62.447c9.252-8.363 21.362-15.556 36-20.847z" fill="#252235"/><path d="M307.852 23.345C302.08 20.105 298.124 18 295.844 18c0 0 5.881 32.495-46.335 32.495-48.52 0-46.336-32.495-46.336-32.495-2.28 0-6.235 2.105-12.002 5.345 0 0 7.368 40.38 58.402 40.38 51.479 0 58.279-35.895 58.279-40.38z" fill="#252235"/><path d="M288.165 146h50.866l-1.25 5h-48.598z" fill="#fff" fill-rule="nonzero"/><path d="M309 166c12.703 0 23-10.297 23-23s-10.297-23-23-23-23 10.297-23 23 10.297 23 23 23z" fill="#fff" fill-rule="nonzero"/><circle cx="309" cy="143" fill="#007cf3" r="22"/><path d="M328.599 147.005c.263-1.294.401-2.633.401-4.005 0-11.046-8.954-20-20-20s-20 8.954-20 20c0 1.367.137 2.702.398 3.991.027.133 39.194.047 39.2.014z" fill="#fff"/><path d="M289.39 147h48.36l-.75 3h-47z" fill="#171714"/><path d="M413.584 238.323c-9.287 2.238-19.064 3.316-28.798 2.592-8.197-22.369-15.557-36.883-20.012-44.748v270.577s-21.102 6.71-55.867 11.11l-.544-.059c1.881-54.795 5.722-166.47 8.277-240.705 2.055-59.755 31.084-95.29 60.099-117.44-2.676 6.78-5.072 14.606-7 23.667 7.354 11.852 24.436 42.069 43.831 94.964l.014.042zM190.717 477.795c-34.248-4.401-56.477-11.05-56.477-11.05V196.171c-4.456 7.867-11.813 22.38-20.01 44.743-9.632.716-19.308-.332-28.51-2.523.005-.033.012-.065.02-.097 19.377-52.848 36.305-83.066 43.61-94.944-1.93-9.075-4.328-16.912-7.007-23.701 29.015 22.15 58.044 57.685 60.1 117.44 2.554 74.235 6.395 185.91 8.276 240.705z" fill="#000" fill-opacity=".12"/></g></svg>