<?xml version="1.0" encoding="UTF-8"?><svg width="500" height="500" viewBox="0 0 500 500" fill="none" xmlns="http://www.w3.org/2000/svg"><path fill-rule="evenodd" clip-rule="evenodd" d="M203.006 109.193h93.643V21.8979h-93.643v87.2951z" fill="#DA4835"/><path fill-rule="evenodd" clip-rule="evenodd" d="M202.866 32.198h93.459v-14.2h-93.459v14.2z" fill="#08102E"/><path fill-rule="evenodd" clip-rule="evenodd" d="M249.514 57.7054c-50.081 0-47.798-39.4691-48.742-39.14-7.516 2.6187-24.133 14.9368-52.439 25.495-31.873 11.885-52.6257 19.315-60.7822 31.2 11.1148 8.915 46.6942 28.9696 46.6942 120.3446v271.14S183.903 481.6 249.13 481.6c68.929 0 115.649-14.855 115.649-14.855v-271.14c0-91.375 35.579-111.4296 46.699-120.3446-8.157-11.885-28.91-19.315-60.783-31.2-28.359-10.5767-44.981-22.9194-52.478-25.5087-.927-.3202 4.178 39.1537-48.703 39.1537z" fill="#F7523C"/><path fill-rule="evenodd" clip-rule="evenodd" d="M87.5505 75.2603S46.7877 148.06 29.0029 203.03c4.445 13.375 45.2078 40.86 85.2321 37.885 13.34-36.4 24.46-52 24.46-52s2.963-95.0847-51.1445-113.6547zm323.9255 0S452.239 148.06 470.023 203.03c-4.445 13.375-45.207 40.86-85.232 37.885-13.34-36.4-24.459-52-24.459-52s-2.964-95.0847 51.144-113.6547z" fill="#F7523C"/><path fill-rule="evenodd" clip-rule="evenodd" d="M467.462 195.3c.936 2.666 1.827 5.303 2.667 7.899-4.445 13.375-45.208 40.86-85.232 37.885-.958-2.613-1.904-5.119-2.835-7.519 20.795-1.358 37.993-5.637 51.594-12.838 13.428-7.108 24.697-15.584 33.806-25.427zm-435.8073 0c9.1031 9.827 20.3606 18.291 33.7724 25.391 13.6109 7.206 30.8241 11.486 51.6389 12.84-.931 2.4-1.877 4.905-2.834 7.517-40.0243 2.975-80.7871-24.51-85.232-37.885.8363-2.585 1.7234-5.209 2.6547-7.863zM249.577 63.7514c51.478 0 58.278-35.895 58.278-40.38-5.772-3.24-9.728-5.345-12.008-5.345 0 0 5.882 32.495-46.335 32.495-48.52 0-46.335-32.495-46.335-32.495-2.28 0-6.236 2.105-12.003 5.345 0 0 7.368 40.38 58.403 40.38z" fill="#0D1840"/><path fill-rule="evenodd" clip-rule="evenodd" d="M413.584 238.323c-9.287 2.238-19.064 3.316-28.797 2.592-8.198-22.369-15.558-36.883-20.013-44.748v270.577s-21.102 6.71-55.866 11.111l-.544-.06c1.88-54.795 5.722-166.47 8.276-240.705 2.055-59.755 31.085-95.29 60.099-117.44-2.675 6.781-5.072 14.606-6.999 23.667 7.354 11.852 24.435 42.069 43.83 94.964.005.014.01.028.014.042zM190.717 477.795c-34.248-4.401-56.476-11.051-56.476-11.051V196.172c-4.456 7.867-11.814 22.379-20.01 44.743-9.633.716-19.3089-.332-28.5108-2.524a1.056 1.056 0 01.0199-.096c19.3769-52.848 36.3059-83.066 43.6099-94.944-1.929-9.075-4.328-16.912-7.006-23.701 29.014 22.15 58.043 57.685 60.099 117.44 2.554 74.235 6.395 185.91 8.276 240.705h-.002z" fill="#000" fill-opacity=".07"/><path fill-rule="evenodd" clip-rule="evenodd" d="M332 143c0 12.703-10.297 23-23 23s-23-10.297-23-23 10.297-23 23-23 23 10.297 23 23zm-5 0c0 9.941-8.059 18-18 18s-18-8.059-18-18 8.059-18 18-18 18 8.059 18 18z" fill="#F77564"/><path d="M304.795 135c-1.132 0-1.775.375-2.369.721-.667.388-1.272.74-2.437.485-.801-.482-2.002 1.93-1.201 2.171 1.802.965 2.803 5.066.6 7.72-1.628 1.743.646 8.059 6.608 10.372.765.297 1.256.695 1.669 1.031l1.264.658 1.405-.658c.414-.336.904-.734 1.669-1.031 5.963-2.313 8.236-8.629 6.608-10.372-2.202-2.654-1.201-6.755.601-7.72.801-.241-.401-2.653-1.202-2.171-1.165.255-1.77-.097-2.437-.485-.593-.346-1.237-.721-2.368-.721-1.429 0-2.05.965-4.276.965-2.174 0-2.749-.965-4.134-.965z" stroke="#BDBDBD" stroke-width="1.6542" stroke-linecap="square"/><path d="M304.795 135c-1.132 0-1.775.375-2.369.721-.667.388-1.272.74-2.437.485-.801-.482-2.002 1.93-1.201 2.171 1.802.965 2.803 5.066.6 7.72-1.628 1.743.646 8.059 6.608 10.372.765.297 1.256.695 1.669 1.031l1.264.658 1.405-.658c.414-.336.904-.734 1.669-1.031 5.963-2.313 8.236-8.629 6.608-10.372-2.202-2.654-1.201-6.755.601-7.72.801-.241-.401-2.653-1.202-2.171-1.165.255-1.77-.097-2.437-.485-.593-.346-1.237-.721-2.368-.721-1.429 0-2.05.965-4.276.965-2.174 0-2.749-.965-4.134-.965z" fill="#ED8E37"/><path d="M304.795 135c-1.132 0-1.775.375-2.369.721-.667.388-1.272.74-2.437.485-.801-.482-2.002 1.93-1.201 2.171 1.802.965 2.803 5.066.6 7.72h9.541v12.061l1.405-.658c.414-.336.904-.734 1.669-1.031 5.963-2.313 8.236-8.629 6.608-10.372h-9.682v-10.132c-2.174 0-2.749-.965-4.134-.965z" fill="#31376C"/><path d="M310.654 135.731c-.463.135-1.012.234-1.725.234-.649 0-1.155-.086-1.583-.207v8.615h-7.003c-.204.608-.516 1.194-.955 1.723-.335.36-.505.913-.511 1.586h8.469v9.563c.113.087.218.173.319.255l1.264.658 1.405-.658c.101-.082.207-.168.32-.255v-9.563h8.469c-.006-.673-.176-1.226-.512-1.586-.439-.529-.75-1.115-.954-1.723h-7.003v-8.642z" fill="#D9D9D9"/><ellipse cx="309.5" cy="130" rx="4.5" ry="3" fill="#EDBA37"/></svg>