<?xml version="1.0" encoding="UTF-8"?><svg width="500" height="500" viewBox="0 0 500 500" fill="none" xmlns="http://www.w3.org/2000/svg"><path fill-rule="evenodd" clip-rule="evenodd" d="M203.006 109.193h93.643V21.8979h-93.643v87.2951z" fill="#1E429E"/><path fill-rule="evenodd" clip-rule="evenodd" d="M202.866 32.198h93.459v-14.2h-93.459v14.2z" fill="#D1D1D1"/><path fill-rule="evenodd" clip-rule="evenodd" d="M249.514 57.7054c-50.081 0-47.798-39.4691-48.742-39.14-7.516 2.6187-24.133 14.9368-52.439 25.495-31.873 11.885-52.6257 19.315-60.7822 31.2 11.1148 8.915 46.6942 28.9696 46.6942 120.3446v271.14S183.903 481.6 249.13 481.6c68.929 0 115.649-14.855 115.649-14.855v-271.14c0-91.375 35.579-111.4296 46.699-120.3446-8.157-11.885-28.91-19.315-60.783-31.2-28.359-10.5767-44.981-22.9194-52.478-25.5087-.927-.3202 4.178 39.1537-48.703 39.1537z" fill="#234CB4"/><path fill-rule="evenodd" clip-rule="evenodd" d="M87.5505 75.2603S46.7877 148.06 29.0029 203.03c4.445 13.375 45.2078 40.86 85.2321 37.885 13.34-36.4 24.46-52 24.46-52s2.963-95.0847-51.1445-113.6547zm323.9255 0S452.239 148.06 470.023 203.03c-4.445 13.375-45.207 40.86-85.232 37.885-13.34-36.4-24.459-52-24.459-52s-2.964-95.0847 51.144-113.6547z" fill="#234CB4"/><path fill-rule="evenodd" clip-rule="evenodd" d="M249.577 63.7514c51.478 0 58.278-35.895 58.278-40.38-5.772-3.24-9.728-5.345-12.008-5.345 0 0 5.882 32.495-46.335 32.495-48.52 0-46.335-32.495-46.335-32.495-2.28 0-6.236 2.105-12.003 5.345 0 0 7.368 40.38 58.403 40.38z" fill="#F2F2F2"/><path fill-rule="evenodd" clip-rule="evenodd" d="M413.584 238.323c-9.288 2.238-19.065 3.316-28.798 2.592-8.198-22.369-15.557-36.883-20.013-44.748v270.577s-21.102 6.71-55.866 11.111l-.544-.06c1.881-54.795 5.722-166.47 8.276-240.705 2.056-59.755 31.085-95.29 60.099-117.44-2.675 6.781-5.071 14.606-6.999 23.667 7.354 11.852 24.436 42.069 43.831 94.964.005.014.01.028.014.042zM190.716 477.795c-34.248-4.401-56.476-11.051-56.476-11.051V196.172c-4.456 7.867-11.814 22.379-20.01 44.743-9.633.716-19.3084-.332-28.5103-2.524a1.056 1.056 0 01.0199-.096c19.3774-52.848 36.3054-83.066 43.6094-94.944-1.928-9.075-4.327-16.912-7.006-23.701 29.014 22.15 58.044 57.685 60.099 117.44 2.554 74.235 6.396 185.91 8.276 240.705h-.002z" fill="#000" fill-opacity=".08"/><path fill-rule="evenodd" clip-rule="evenodd" d="M308.5 145c6.904 0 12.5-5.596 12.5-12.5s-5.596-12.5-12.5-12.5-12.5 5.596-12.5 12.5 5.596 12.5 12.5 12.5z" fill="#F2F2F2"/><path fill-rule="evenodd" clip-rule="evenodd" d="M308.5 143c5.799 0 10.5-4.701 10.5-10.5s-4.701-10.5-10.5-10.5-10.5 4.701-10.5 10.5 4.701 10.5 10.5 10.5z" fill="#7794DD"/><path fill-rule="evenodd" clip-rule="evenodd" d="M310.5 166c6.904 0 12.5-5.596 12.5-12.5s-5.596-12.5-12.5-12.5-12.5 5.596-12.5 12.5 5.596 12.5 12.5 12.5z" fill="#F2F2F2"/><path fill-rule="evenodd" clip-rule="evenodd" d="M310.5 164c5.799 0 10.5-4.701 10.5-10.5s-4.701-10.5-10.5-10.5-10.5 4.701-10.5 10.5 4.701 10.5 10.5 10.5z" fill="#7794DD"/><path fill-rule="evenodd" clip-rule="evenodd" d="M321 122h-31.303l4.5 3-4.5 3H321v-6zm-25 3l-3-2h27v4h-27l3-2z" fill="#F2F2F2"/><path d="M320 123h-27l3 2-3 2h27v-4z" fill="#1E4198"/><path fill-rule="evenodd" clip-rule="evenodd" d="M324 140h-27v6h27v-6zm-1 1v4h-25v-4h25z" fill="#F2F2F2"/><path fill="#1E4198" d="M323 141h-25v4h25z"/><path fill-rule="evenodd" clip-rule="evenodd" d="M329.303 158H298v6h31.303l-4.5-3 4.5-3zM323 161l3 2h-27v-4h27l-3 2z" fill="#F2F2F2"/><path d="M326 159h-27v4h27l-3-2 3-2z" fill="#1E4198"/></svg>