<?xml version="1.0" encoding="UTF-8"?><svg width="500" height="500" viewBox="0 0 500 500" fill="none" xmlns="http://www.w3.org/2000/svg"><path fill-rule="evenodd" clip-rule="evenodd" d="M203.006 109.193h93.643V21.8979h-93.643v87.2951z" fill="#CFCFCF"/><path fill-rule="evenodd" clip-rule="evenodd" d="M202.866 32.198h93.459v-14.2h-93.459v14.2z" fill="#363636"/><path fill-rule="evenodd" clip-rule="evenodd" d="M249.514 57.7054c-50.081 0-47.798-39.4691-48.742-39.14-7.516 2.6187-24.133 14.9368-52.439 25.495-31.873 11.885-52.6257 19.315-60.7822 31.2 11.1148 8.915 46.6942 28.9696 46.6942 120.3446v271.14S183.903 481.6 249.13 481.6c68.929 0 115.649-14.855 115.649-14.855v-271.14c0-91.375 35.579-111.4296 46.699-120.3446-8.157-11.885-28.91-19.315-60.783-31.2-28.359-10.5767-44.981-22.9194-52.478-25.5087-.927-.3202 4.178 39.1537-48.703 39.1537z" fill="#DA4646"/><path fill-rule="evenodd" clip-rule="evenodd" d="M87.5505 75.2603S46.7877 148.06 29.0029 203.03c4.445 13.375 45.2078 40.86 85.2321 37.885 13.34-36.4 24.46-52 24.46-52s2.963-95.0847-51.1445-113.6547zm323.9255 0S452.239 148.06 470.023 203.03c-4.445 13.375-45.207 40.86-85.232 37.885-13.34-36.4-24.459-52-24.459-52s-2.964-95.0847 51.144-113.6547z" fill="#DA4646"/><path fill-rule="evenodd" clip-rule="evenodd" d="M267.457 55.824v425.401c-5.912.225-12.028.349-18.33.349-5.655 0-11.192-.111-16.591-.315V55.8583c4.858 1.1563 10.475 1.8211 16.975 1.8211 6.93 0 12.864-.678 17.946-1.8554zm76.829 416.046c-9.052 1.939-20.859 4.107-34.921 5.902V36.8742c8.344 4.6789 19.831 10.8973 34.921 16.6316V471.87zm-153.657 5.889c-7.19-.926-13.849-1.95-19.883-2.991-5.579-1.017-10.617-2.047-15.038-3.022V53.1502c15.223-5.8575 26.692-12.1519 34.921-16.7703V477.759z" fill="#F2F2F2"/><path fill-rule="evenodd" clip-rule="evenodd" d="M249.577 63.7514c51.478 0 58.278-35.895 58.278-40.38-5.772-3.24-9.728-5.345-12.008-5.345 0 0 5.882 32.495-46.335 32.495-48.52 0-46.335-32.495-46.335-32.495-2.28 0-6.236 2.105-12.003 5.345 0 0 7.368 40.38 58.403 40.38z" fill="#3D3D3D"/><path fill-rule="evenodd" clip-rule="evenodd" d="M413.584 238.323c-9.288 2.238-19.065 3.316-28.798 2.592-8.198-22.369-15.557-36.883-20.013-44.748v270.577s-21.102 6.71-55.866 11.111l-.544-.06c1.881-54.795 5.722-166.47 8.276-240.705 2.056-59.755 31.085-95.29 60.099-117.44-2.675 6.781-5.071 14.606-6.999 23.667 7.354 11.852 24.436 42.069 43.831 94.964.005.014.01.028.014.042zM190.716 477.795c-34.248-4.401-56.476-11.051-56.476-11.051V196.172c-4.456 7.867-11.814 22.379-20.01 44.743-9.633.716-19.3084-.332-28.5103-2.524a1.056 1.056 0 01.0199-.096c19.3774-52.848 36.3054-83.066 43.6094-94.944-1.928-9.075-4.327-16.912-7.006-23.701 29.014 22.15 58.044 57.685 60.099 117.44 2.554 74.235 6.396 185.91 8.276 240.705h-.002z" fill="#000" fill-opacity=".09"/><path fill-rule="evenodd" clip-rule="evenodd" d="M467.462 195.3c.936 2.666 1.827 5.303 2.667 7.899-4.445 13.375-45.208 40.86-85.232 37.885-.958-2.613-1.904-5.119-2.835-7.519 20.795-1.358 37.993-5.637 51.594-12.838 13.428-7.108 24.697-15.584 33.806-25.427zm-435.8073 0c9.1031 9.827 20.3606 18.291 33.7724 25.391 13.6109 7.206 30.8241 11.486 51.6389 12.84-.931 2.4-1.877 4.905-2.834 7.517-40.0243 2.975-80.7871-24.51-85.232-37.885.8363-2.585 1.7234-5.209 2.6547-7.863zM309 166c12.703 0 23-10.297 23-23s-10.297-23-23-23-23 10.297-23 23 10.297 23 23 23z" fill="#3D3D3D"/><path fill-rule="evenodd" clip-rule="evenodd" d="M309 164c11.598 0 21-9.402 21-21s-9.402-21-21-21-21 9.402-21 21 9.402 21 21 21z" fill="#F2F2F2"/><path fill-rule="evenodd" clip-rule="evenodd" d="M329 143c0 11.046-8.954 20-20 20s-20-8.954-20-20 8.954-20 20-20 20 8.954 20 20zm-6 0c0 7.732-6.268 14-14 14s-14-6.268-14-14 6.268-14 14-14 14 6.268 14 14z" fill="#DC4343"/><path d="M298.03 137.667c-.258-1.607 1.189-2.967 2.778-2.609l5.858 1.318c.86.194 1.4 1.048 1.206 1.908-.131.582-.57 1.03-1.124 1.186l1.117.251c.598.135 1.041.589 1.191 1.142.149-.553.593-1.007 1.191-1.142l1.116-.251a1.5972 1.5972 0 01-1.124-1.186c-.194-.86.347-1.714 1.207-1.908l5.858-1.318c1.588-.358 3.035 1.002 2.777 2.609-.136.848-.724 1.525-1.494 1.802.265.441.386.977.295 1.544-.181 1.126-1.16 1.95-2.3 1.936l-6.005-.074c-.716-.009-1.337-.494-1.521-1.181a1.597 1.597 0 01-1.522 1.181l-6.004.074c-1.141.014-2.12-.81-2.301-1.936-.091-.567.03-1.103.295-1.544-.769-.277-1.358-.954-1.494-1.802zm7.967 10.04c.391-.391 1.024-.39 1.415.001.39.39.389 1.024-.001 1.414l-4.29 4.283c-.391.39-1.024.389-1.414-.002-.39-.39-.39-1.023.001-1.414l4.289-4.282zm4.71.001c.39-.391 1.023-.392 1.414-.001l4.289 4.282c.391.391.391 1.024.001 1.414-.39.391-1.023.392-1.414.002l-4.289-4.283c-.391-.39-.392-1.024-.001-1.414z" fill="#676767"/><path d="M305.5 137.527c.208-2.083 2.329-3.67 3.501-3.67 1.171 0 3.291 1.587 3.499 3.67l1.482 9.266c.295 2.948-3.137 7.349-4.981 7.349-1.845 0-5.277-4.401-4.982-7.349l1.481-9.266z" fill="#FAD245"/><path fill-rule="evenodd" clip-rule="evenodd" d="M305.5 137.527l-1.481 9.266c-.295 2.948 3.137 7.349 4.982 7.349 1.844 0 5.276-4.401 4.981-7.349l-1.482-9.266c-.208-2.083-2.328-3.67-3.499-3.67-1.172 0-3.293 1.587-3.501 3.67zm7.49 9.393l-1.482-9.264-.003-.029c-.074-.735-.496-1.443-1.077-1.986-.613-.573-1.202-.784-1.427-.784-.226 0-.816.211-1.429.785-.581.542-1.003 1.25-1.077 1.985l-.003.029-1.481 9.264c-.099 1.111.517 2.685 1.509 4.071.484.676 1.015 1.245 1.505 1.635.527.419.862.516.976.516.112 0 .447-.096.975-.516.489-.39 1.021-.959 1.504-1.635.993-1.387 1.609-2.96 1.51-4.071z" fill="#E0B623"/></svg>