<?xml version="1.0" encoding="utf-8"?><svg width="500" height="500" viewBox="0 0 500 500" fill="none" xmlns="http://www.w3.org/2000/svg"><path fill-rule="evenodd" clip-rule="evenodd" d="M203.006 109.193h93.643V21.8981h-93.643v87.2949z" fill="#CFCFCF"/><path fill-rule="evenodd" clip-rule="evenodd" d="M202.866 32.198h93.459v-14.2h-93.459v14.2z" fill="#363636"/><path fill-rule="evenodd" clip-rule="evenodd" d="M249.514 57.7057c-50.081 0-47.798-39.4691-48.742-39.14-7.516 2.6186-24.133 14.9368-52.439 25.495-31.873 11.885-52.6257 19.315-60.7822 31.2 11.1148 8.915 46.6942 28.9703 46.6942 120.3453v271.14s49.658 14.855 114.885 14.855c68.929 0 115.649-14.855 115.649-14.855v-271.14c0-91.375 35.579-111.4303 46.699-120.3453-8.157-11.885-28.91-19.315-60.783-31.2-28.359-10.5767-44.981-22.9195-52.478-25.5087-.927-.3203 4.178 39.1537-48.703 39.1537z" fill="#EC8B32"/><path fill-rule="evenodd" clip-rule="evenodd" d="M265.462 56.2707c15.676-3.0937 23.748-10.752 27.937-18.3668V479.548c-8.697.807-18.037 1.431-27.937 1.768V56.2707zm58.867-23.8797c7.325 3.7531 16.071 7.8241 26.363 11.6625.528.1967 1.052.3922 1.574.5865v425.441c-6.829 1.636-16.283 3.657-27.937 5.545V32.391zm-89.797 448.958c-9.8-.327-19.156-.961-27.937-1.79V37.8037c4.477 7.684 12.681 15.4345 27.937 18.5119V481.349zm-58.867-5.74c-11.439-1.847-20.935-3.817-27.936-5.43V44.2778c.2-.0746.4-.1494.601-.2243 10.751-4.01 19.815-8.2739 27.335-12.1639V475.609z" fill="#3D3D3D"/><path fill-rule="evenodd" clip-rule="evenodd" d="M87.5505 75.26s-40.7628 72.8-58.5476 127.77c4.445 13.375 45.2078 40.86 85.2321 37.885 13.34-36.4 24.46-52 24.46-52S141.658 93.83 87.5505 75.26zm323.9255 0s40.763 72.8 58.547 127.77c-4.445 13.375-45.207 40.86-85.232 37.885-13.34-36.4-24.459-52-24.459-52S357.368 93.83 411.476 75.26z" fill="#EC8B32"/><path fill-rule="evenodd" clip-rule="evenodd" d="M467.462 195.3c.936 2.666 1.827 5.303 2.667 7.899-4.445 13.375-45.208 40.86-85.232 37.885-.958-2.613-1.904-5.119-2.835-7.519 20.795-1.358 37.993-5.637 51.594-12.838 13.428-7.108 24.697-15.584 33.806-25.427zm-435.8073 0c9.1031 9.827 20.3606 18.291 33.7724 25.391 13.6109 7.206 30.8241 11.486 51.6389 12.84-.931 2.4-1.877 4.905-2.834 7.517-40.0243 2.975-80.7871-24.51-85.232-37.885.8363-2.585 1.7234-5.209 2.6547-7.863zM249.577 63.7515c51.478 0 58.278-35.895 58.278-40.38-5.772-3.24-9.728-5.345-12.008-5.345 0 0 5.882 32.495-46.335 32.495-48.52 0-46.335-32.495-46.335-32.495-2.28 0-6.236 2.105-12.003 5.345 0 0 7.368 40.38 58.403 40.38z" fill="#3D3D3D"/><path fill-rule="evenodd" clip-rule="evenodd" d="M413.584 238.323c-9.288 2.238-19.065 3.316-28.798 2.592-8.198-22.369-15.557-36.883-20.013-44.748v270.577s-21.102 6.71-55.866 11.111l-.544-.06c1.881-54.795 5.722-166.47 8.276-240.705 2.056-59.755 31.085-95.29 60.099-117.44-2.675 6.781-5.071 14.606-6.999 23.667 7.354 11.852 24.436 42.069 43.831 94.964.005.014.01.028.014.042zM190.716 477.795c-34.248-4.401-56.476-11.051-56.476-11.051V196.172c-4.456 7.867-11.814 22.379-20.01 44.743-9.633.716-19.3084-.332-28.5103-2.523.0051-.032.0117-.065.0199-.097 19.3774-52.848 36.3054-83.066 43.6094-94.944-1.928-9.075-4.327-16.912-7.006-23.701 29.014 22.15 58.044 57.685 60.099 117.44 2.554 74.235 6.396 185.91 8.276 240.705h-.002z" fill="#000" fill-opacity=".09"/><path d="M288.503 124.353s.497-3.853 1.33-5.433c0 0 9.758-1.92 19.353-1.92 9.594 0 19.352 1.92 19.352 1.92.962 1.58 1.33 5.433 1.33 5.433 2.667 20.292-4.547 34.386-19.486 43.838l-1.197.809-1.196-.809c-14.939-9.455-22.153-23.548-19.486-43.838z" fill="#3D3D3D"/><path d="M309 126c7.366 0 18.755 2 18.755 2 1.618 17.549-4.846 29.876-17.684 38.253L309 167l-1.071-.747c-12.838-8.38-19.302-20.706-17.684-38.253 0 0 11.389-2 18.755-2z" fill="#E88121"/><path d="M296 120s6.3-1 13-1 13 1 13 1l-1 5.137S315.699 124 309 124s-12 1.137-12 1.137L296 120z" fill="#969696"/><path d="M320.039 143c-2.601 6.731-4.601 12.5-11 8-5.102-1.5-11.601 4-11-8 0-6.075 4.925-11 11-11s13.899 3.5 11 11z" fill="#905219"/></svg>