<svg xmlns="http://www.w3.org/2000/svg" width="501" height="500" fill="none"><path fill="silver" fill-rule="evenodd" d="M203.9 109.2h93.64V21.9H203.9v87.3Z" clip-rule="evenodd"/><path fill="#A7A7A7" fill-rule="evenodd" d="M203.76 32.2h93.46V18h-93.46v14.2Z" clip-rule="evenodd"/><path fill="#EEE" fill-rule="evenodd" d="M88.44 75.26s-40.76 72.8-58.54 127.77c4.44 13.38 45.2 40.86 85.23 37.88 13.34-36.4 24.46-52 24.46-52s2.96-95.08-51.15-113.65m323.93 0s40.76 72.8 58.55 127.77c-4.45 13.38-45.21 40.86-85.23 37.88-13.34-36.4-24.46-52-24.46-52s-2.97-95.08 51.14-113.65" clip-rule="evenodd"/><path fill="#EEE" fill-rule="evenodd" d="M250.4 57.7c-50.07 0-47.79-39.46-48.73-39.13-7.52 2.61-24.14 14.93-52.44 25.5-31.87 11.88-52.63 19.3-60.78 31.2 11.11 8.9 46.69 28.96 46.69 120.34v271.14s49.66 14.85 114.89 14.85c68.92 0 115.64-14.85 115.64-14.85V195.6c0-91.38 35.58-111.43 46.7-120.35-8.15-11.88-28.9-19.31-60.78-31.2-28.36-10.58-44.98-22.92-52.48-25.5-.93-.33 4.18 39.15-48.7 39.15Z" clip-rule="evenodd"/><path fill="#EBEBEB" fill-rule="evenodd" d="M158.9 40.18v432.2a374.6 374.6 0 0 1-16-3.6V46.38l6.33-2.35c3.39-1.27 6.6-2.56 9.67-3.85Zm33-16.71V477.8a470.4 470.4 0 0 1-16-2.33V32.21c6.4-3.3 11.7-6.33 16-8.74Zm33 29.55v427.83c-5.51-.31-10.86-.72-16-1.19V40c3.36 4.92 8.4 9.68 16 13.02Zm34 4.28v424.2a487.56 487.56 0 0 1-16 .02V57.35a93.43 93.43 0 0 0 16-.05Zm34-17.1v439.45c-5.13.46-10.46.86-16 1.17V53.08c7.76-3.3 12.76-8 16-12.88Zm33-7.5v442.8c-4.95.8-10.3 1.59-16 2.31V24.01c4.33 2.45 9.64 5.46 16 8.7Zm33 14.05v421.87c-3.84 1-9.23 2.32-16 3.73V40.59c2.76 1.16 5.66 2.3 8.69 3.44l7.3 2.72Z" clip-rule="evenodd"/><path fill="#F2F2F2" fill-rule="evenodd" d="M468.36 195.3c.93 2.67 1.82 5.3 2.66 7.9-4.44 13.38-45.2 40.86-85.23 37.89a413.1 413.1 0 0 0-2.83-7.52c20.8-1.36 37.99-5.64 51.6-12.84 13.42-7.1 24.69-15.58 33.8-25.43Zm-435.81 0c9.1 9.83 20.36 18.3 33.77 25.4 13.61 7.2 30.83 11.48 51.64 12.83-.93 2.4-1.88 4.9-2.83 7.52-40.03 2.97-80.79-24.51-85.24-37.89.84-2.58 1.73-5.2 2.66-7.86ZM175.3 32.4c6.75-3.4 12.31-6.53 16.77-9.03L194.2 30c-8.9 5.15-22.46 13.33-41.6 20.71C124.4 61.6 105.21 68.74 96.11 79l-7.6-3.98c8.2-11.83 28.93-19.25 60.71-31.1 10.16-3.8 18.81-7.8 26.08-11.52Zm150.1-.06a245.77 245.77 0 0 0 26.19 11.58c31.79 11.85 52.51 19.27 60.71 31.1-.4.23-2.9 1.6-7.49 4.1-9.04-10.32-28.28-17.48-56.61-28.4-18.71-7.23-32.08-15.2-41-20.37l1.55-6.98c4.43 2.5 9.95 5.6 16.65 8.97Z" clip-rule="evenodd"/><path fill="#EBEBEB" fill-rule="evenodd" d="M250.47 63.75c51.48 0 58.28-35.9 58.28-40.38-5.77-3.24-9.73-5.34-12-5.34 0 0 5.87 32.5-46.34 32.5-48.52 0-46.34-32.5-46.34-32.5-2.28 0-6.23 2.1-12 5.34 0 0 7.37 40.38 58.4 40.38" clip-rule="evenodd"/><path fill="#000" fill-opacity=".1" fill-rule="evenodd" d="M414.48 238.32a93.76 93.76 0 0 1-28.8 2.6c-8.2-22.37-15.56-36.89-20.01-44.75v270.57s-21.1 6.71-55.87 11.12l-.54-.06 8.27-240.71c2.06-59.75 31.09-95.29 60.1-117.44a148.59 148.59 0 0 0-7 23.67c7.36 11.85 24.44 42.07 43.83 94.96l.02.04ZM191.6 477.8c-34.25-4.4-56.48-11.06-56.48-11.06V196.17c-4.45 7.87-11.8 22.38-20 44.75a93.6 93.6 0 0 1-28.52-2.53l.02-.1c19.38-52.84 36.31-83.06 43.61-94.94a148.74 148.74 0 0 0-7-23.7c29.01 22.15 58.04 57.69 60.1 117.44 2.55 74.23 6.4 185.91 8.27 240.7Z" clip-rule="evenodd"/><path fill="#1A0E00" fill-rule="evenodd" d="M291.93 117.76S302.95 115 309.9 115c6.95 0 17.97 2.76 17.97 2.76 2.07 20.72 0 38.05 0 38.05s-4.15 8.28-17.97 15.19c-13.81-6.9-17.96-15.19-17.96-15.19s-2.07-17.33 0-38.05Z" clip-rule="evenodd"/><path fill="#fff" fill-rule="evenodd" d="M293.82 119.52s9.86-2.52 16.07-2.52c6.22 0 16.08 2.52 16.08 2.52 1.85 18.93 0 35.05 0 35.05s-3.71 7.42-16.08 13.73c-12.36-6.31-16.07-13.73-16.07-13.73s-1.85-16.12 0-35.05Z" clip-rule="evenodd"/><path fill="#1A0E00" d="M295.28 120.49h5.84v21.92h-5.84zm11.69 0h5.84v21.92h-5.84zm11.69 0h5.84v21.92h-5.84zm6.53 24.41c-.22 5.2-.6 8.42-.6 8.42s-3.39 6.78-14.7 12.55c-11.3-5.77-14.7-12.55-14.7-12.55s-.37-3.23-.59-8.43h30.59Z"/></svg>