<?xml version="1.0" encoding="UTF-8"?><svg height="500" viewBox="0 0 500 500" width="500" xmlns="http://www.w3.org/2000/svg"><g fill="none" fill-rule="evenodd"><path d="M203.006 109.193h93.643V21.898h-93.643z" fill="#ded348"/><path d="M202.867 32.198h93.458v-14.2h-93.458z" fill="#195da3"/><g fill="#f8eb51"><path d="M87.55 75.26s-40.762 72.8-58.547 127.77c4.445 13.375 45.208 40.86 85.232 37.885 13.34-36.4 24.46-52 24.46-52S141.658 93.83 87.55 75.26M411.476 75.26s40.762 72.8 58.547 127.77c-4.445 13.375-45.208 40.86-85.232 37.885-13.34-36.4-24.46-52-24.46-52S357.368 93.83 411.476 75.26"/><path d="M249.514 57.706c-50.082 0-47.798-39.47-48.742-39.14-7.516 2.618-24.133 14.936-52.439 25.495-31.873 11.885-52.626 19.315-60.782 31.2 11.114 8.915 46.694 28.97 46.694 120.345v271.14S183.903 481.6 249.13 481.6c68.929 0 115.648-14.855 115.648-14.855v-271.14c0-91.375 35.58-111.43 46.7-120.345-8.157-11.885-28.91-19.315-60.783-31.2-28.36-10.577-44.982-22.92-52.478-25.511-.927-.318 4.177 39.156-48.703 39.156z"/></g><path d="M119.982 226.098a407.766 407.766 0 0 0-5.75 14.815c-40.024 2.975-80.787-24.51-85.232-37.885 1.757-5.43 3.739-11.036 5.883-16.728 10.27 10.965 22.741 19.794 37.414 26.489 14.658 6.687 30.553 11.123 47.685 13.31zM379.205 226.098c17.131-2.186 33.026-6.622 47.684-13.31 14.673-6.694 27.145-15.523 37.414-26.488 2.145 5.692 4.126 11.297 5.884 16.728-4.445 13.375-45.208 40.86-85.233 37.885a407.768 407.768 0 0 0-5.75-14.815zM249.576 63.752c51.479 0 58.279-35.895 58.279-40.38-5.772-3.24-9.728-5.345-12.008-5.345 0 0 5.881 32.495-46.335 32.495-48.52 0-46.336-32.495-46.336-32.495-2.28 0-6.235 2.105-12.002 5.345 0 0 7.368 40.38 58.402 40.38" fill="#1b63ae"/><g><path d="M300.983 121l1.274.858c2.342 1.578 4.616 2.344 6.852 2.344 2.236 0 4.51-.766 6.852-2.344l1.273-.858 8.522 7.376-.677 1.368c-2.324 4.692-2.01 7.115.495 12.276l.102.21c1.895 3.906 2.335 5.986 2.019 9.118-.365 3.616-3.82 8.087-10.758 10.247-.412.128-2.413.723-2.703.81-2.143.642-3.505 1.54-4.006 1.856-.333.21-.738.647-1.215 1.31-.555-.695-.976-1.132-1.263-1.31-.43-.269-1.786-1.205-3.965-1.833-.16-.046-2.128-.615-2.517-.734-6.286-1.932-10.014-5.885-10.944-10.044-.829-3.703-.129-6.121 2.104-10.424l.077-.148c2.474-4.764 2.801-6.964.64-11.334l-.677-1.368z" fill="#1e4eaf" fill-rule="nonzero"/><path d="M306.877 161.674c-.547-.236-4.695-1.596-6.082-2.183-4.575-1.937-7.41-4.432-8.213-8.259-.693-3.301-.1-5.435 2.008-9.679l.002-.005c2.56-5.157 2.877-7.617.372-12.106l-.393-.705 6.472-5.695.632.394c2.582 1.612 5.021 2.406 7.325 2.406 2.304 0 4.743-.794 7.325-2.406l.632-.394 6.472 5.695-.393.705c-2.505 4.489-2.188 6.95.372 12.106 2.11 4.25 2.703 6.383 2.01 9.684-.804 3.827-3.638 6.322-8.213 8.259-1.387.587-5.531 1.947-6.077 2.183-.457.196-2.128 1.064-2.128 1.524 0-.457-1.692-1.339-2.123-1.524z" fill="#fff" fill-rule="nonzero"/><path d="M309 126.842c2.504 0 5.123-.853 7.855-2.558l5.308 4.67c-5.663 10.148 4.054 13.61 2.276 22.073-1.778 8.463-15.406 8.728-15.439 11.223-.033-2.495-13.661-2.76-15.44-11.223-1.777-8.464 7.94-11.925 2.277-22.072l5.308-4.67c2.732 1.704 5.35 2.557 7.855 2.557z" fill="#fadd23"/></g><path d="M413.584 238.323c-9.287 2.238-19.064 3.316-28.798 2.592-8.197-22.369-15.557-36.883-20.012-44.748v270.577s-21.102 6.71-55.867 11.11l-.544-.059c1.881-54.795 5.722-166.47 8.277-240.705 2.055-59.755 31.084-95.29 60.099-117.44-2.676 6.78-5.072 14.606-7 23.667 7.354 11.852 24.436 42.069 43.831 94.964l.014.042zM190.717 477.795c-34.248-4.401-56.477-11.05-56.477-11.05V196.171c-4.456 7.867-11.813 22.38-20.01 44.743-9.632.716-19.308-.332-28.51-2.523.005-.033.012-.065.02-.097 19.377-52.848 36.305-83.066 43.61-94.944-1.93-9.075-4.328-16.912-7.007-23.701 29.015 22.15 58.044 57.685 60.1 117.44 2.554 74.235 6.395 185.91 8.276 240.705z" fill="#000" fill-opacity=".06"/></g></svg>