<svg xmlns="http://www.w3.org/2000/svg" width="500" height="500" fill="none"><path fill="#790D0C" fill-rule="evenodd" d="M203 109.22h93.65v-87.3H203v87.3Z" clip-rule="evenodd"/><path fill="#0B0B0B" fill-rule="evenodd" d="M202.86 32.23h93.46v-14.2h-93.46v14.2Z" clip-rule="evenodd"/><path fill="#C71000" fill-rule="evenodd" d="M87.55 75.26S46.78 148.06 29 203.03c4.44 13.37 45.2 40.86 85.23 37.88 13.34-36.4 24.46-52 24.46-52s2.97-95.08-51.14-113.65Z" clip-rule="evenodd"/><path fill="#C71000" fill-rule="evenodd" d="M87.55 75.26S46.78 148.06 29 203.03c4.44 13.37 45.2 40.86 85.23 37.88 13.34-36.4 24.46-52 24.46-52s2.97-95.08-51.14-113.65Zm323.92 0s40.77 72.8 58.55 127.77c-4.44 13.37-45.2 40.86-85.23 37.88-13.34-36.4-24.46-52-24.46-52s-2.96-95.08 51.14-113.65Z" clip-rule="evenodd"/><path fill="#FE1C19" fill-rule="evenodd" d="M249.51 57.7c-50.08 0-47.8-39.47-48.74-39.14-7.52 2.62-24.14 14.94-52.44 25.5-31.87 11.88-52.63 19.31-60.78 31.2 11.11 8.91 46.7 28.97 46.7 120.34v271.14s49.65 14.86 114.88 14.86c68.93 0 115.64-14.86 115.64-14.86V195.6c0-91.37 35.58-111.43 46.7-120.34-8.15-11.89-28.9-19.32-60.78-31.2-28.36-10.58-44.98-22.92-52.48-25.51-.92-.32 4.18 39.15-48.7 39.15Z" clip-rule="evenodd"/><path fill="#F3F3F3" fill-rule="evenodd" d="m370.27 140.52-120.76 34.83-120.77-34.84c2.12 9.24 3.75 19.8 4.67 31.93l116.1 61.18 116.1-61.18a214.27 214.27 0 0 1 4.66-31.92ZM307.85 23.34c-5.77-3.23-9.73-5.34-12-5.34 0 0 5.88 32.5-46.34 32.5-48.52 0-46.33-32.5-46.33-32.5-2.28 0-6.24 2.1-12 5.34 0 0 7.36 40.39 58.4 40.39 51.47 0 58.27-35.9 58.27-40.38Z" clip-rule="evenodd"/><path fill="#000" fill-opacity=".1" fill-rule="evenodd" d="M413.58 238.32a93.8 93.8 0 0 1-28.8 2.6c-8.2-22.37-15.55-36.89-20-44.75v270.57s-21.1 6.71-55.87 11.12l-.55-.06 8.28-240.71c2.06-59.75 31.08-95.29 60.1-117.44a148.7 148.7 0 0 0-7 23.67c7.35 11.85 24.44 42.07 43.83 94.96l.01.04ZM190.72 477.8c-34.25-4.4-56.48-11.06-56.48-11.06V196.18c-4.46 7.87-11.81 22.38-20.01 44.75-9.63.71-19.3-.34-28.51-2.53l.02-.1c19.38-52.84 36.3-83.06 43.6-94.94a148.52 148.52 0 0 0-7-23.7c29.02 22.15 58.05 57.69 60.1 117.44l8.28 240.7Z" clip-rule="evenodd"/><path fill="#FDFDFD" fill-rule="evenodd" d="M288.24 122.91s10.5-1.91 21-1.91 21 1.91 21 1.91c0 30.69-21 42.09-21 42.09s-21-11.4-21-42.09Z" clip-rule="evenodd"/><path fill="#C71000" fill-rule="evenodd" d="m287.89 120.94.35 1.97c0 30.69 21 42.09 21 42.09l-.95 1.76h-.01l-.02-.02-.06-.03a10.47 10.47 0 0 1-.94-.58c-.63-.4-1.5-1-2.53-1.82a45.35 45.35 0 0 1-7.56-7.61c-5.5-7-10.93-17.95-10.93-33.79v-1.66l1.65-.3Zm42.35 1.97.36-1.97h-.03l-.1-.02a44.1 44.1 0 0 0-1.72-.28c-1.17-.18-2.83-.43-4.83-.67a126.1 126.1 0 0 0-14.68-.97c-5.36 0-10.7.49-14.68.97a144.6 144.6 0 0 0-6.54.95l-.1.02h-.03l.35 1.97s10.5-1.91 21-1.91 21 1.91 21 1.91Zm0 0c0 30.69-21 42.09-21 42.09l-.95 1.76.95.52.96-.52-.96-1.76.96 1.76h.01l.02-.02.06-.03a14.85 14.85 0 0 0 .94-.58c.62-.4 1.5-1 2.53-1.82a45.34 45.34 0 0 0 7.56-7.61c5.5-7 10.92-17.95 10.92-33.79v-1.66l-1.64-.3-.36 1.96Z" clip-rule="evenodd"/><path fill="#C71000" d="M309.24 159.03c10.3-6.14 15.63-16.95 15.99-32.69a96.31 96.31 0 0 0-31.97 0c.36 15.74 5.69 26.55 15.98 32.7Z"/><rect width="24.38" height="6.04" x="297.24" y="135.96" fill="#FDFDFD" rx="1"/><path fill="#FDFDFD" fill-rule="evenodd" d="M318.83 130.17c.04.84-.69 1.54-1.63 1.58-10.29.4-15.64 4.18-16.88 5.65-.56.67-1.63.81-2.39.32-.76-.5-.92-1.45-.35-2.12 1.97-2.34 8.37-6.43 19.46-6.87.95-.04 1.75.6 1.79 1.44Z" clip-rule="evenodd"/></svg>