<?xml version="1.0" encoding="UTF-8"?><svg width="500" height="500" viewBox="0 0 500 500" fill="none" xmlns="http://www.w3.org/2000/svg"><path fill-rule="evenodd" clip-rule="evenodd" d="M203.006 109.193h93.643V21.8979h-93.643v87.2951z" fill="#B73131"/><path fill-rule="evenodd" clip-rule="evenodd" d="M202.866 32.198h93.459v-14.2h-93.459v14.2z" fill="#D1D1D1"/><path fill-rule="evenodd" clip-rule="evenodd" d="M249.514 57.7054c-50.081 0-47.798-39.4691-48.742-39.14-7.516 2.6187-24.133 14.9368-52.439 25.495-31.873 11.885-52.6257 19.315-60.7822 31.2 11.1148 8.915 46.6942 28.9696 46.6942 120.3446v271.14S183.903 481.6 249.13 481.6c68.929 0 115.649-14.855 115.649-14.855v-271.14c0-91.375 35.579-111.4296 46.699-120.3446-8.157-11.885-28.91-19.315-60.783-31.2-28.359-10.5767-44.981-22.9194-52.478-25.5087-.927-.3202 4.178 39.1537-48.703 39.1537z" fill="#D54242"/><path fill-rule="evenodd" clip-rule="evenodd" d="M87.5505 75.2603S46.7877 148.06 29.0029 203.03c4.445 13.375 45.2078 40.86 85.2321 37.885 13.34-36.4 24.46-52 24.46-52s2.963-95.0847-51.1445-113.6547zm323.9255 0S452.239 148.06 470.023 203.03c-4.445 13.375-45.207 40.86-85.232 37.885-13.34-36.4-24.459-52-24.459-52s-2.964-95.0847 51.144-113.6547z" fill="#D54242"/><path fill-rule="evenodd" clip-rule="evenodd" d="M174.404 32.399c6.756-3.393 12.314-6.5264 16.77-9.0289l2.138 6.6309c-8.901 5.1427-22.457 13.3251-41.595 20.7108-28.212 10.8826-47.406 18.0299-56.4939 28.2824l-7.6098-3.9753c8.2023-11.8293 28.9297-19.2514 60.7167-31.1046 10.157-3.7883 18.808-7.8032 26.074-11.5153zm150.103-.0568c7.289 3.728 15.977 7.7645 26.185 11.5721C382.48 55.7679 403.208 63.19 411.41 75.02c-.411.2249-2.909 1.5936-7.495 4.1062-9.04-10.3233-28.277-17.4852-56.61-28.4144-18.71-7.2205-32.085-15.2026-40.991-20.3613l1.541-6.9804c4.433 2.489 9.948 5.6005 16.652 8.9721zM467.462 195.3c.936 2.666 1.827 5.303 2.667 7.899-4.445 13.375-45.208 40.86-85.232 37.885-.958-2.613-1.904-5.119-2.835-7.519 20.795-1.358 37.993-5.637 51.594-12.838 13.428-7.108 24.697-15.584 33.806-25.427zm-435.8073 0c9.1031 9.827 20.3606 18.291 33.7724 25.391 13.6109 7.206 30.8241 11.486 51.6389 12.84-.931 2.4-1.877 4.905-2.834 7.517-40.0243 2.975-80.7871-24.51-85.232-37.885.8363-2.585 1.7234-5.209 2.6547-7.863z" fill="#F2F2F2"/><path fill-rule="evenodd" clip-rule="evenodd" d="M249.577 63.7514c51.478 0 58.278-35.895 58.278-40.38-5.772-3.24-9.728-5.345-12.008-5.345 0 0 5.882 32.495-46.335 32.495-48.52 0-46.335-32.495-46.335-32.495-2.28 0-6.236 2.105-12.003 5.345 0 0 7.368 40.38 58.403 40.38z" fill="#F2F2F2"/><path fill-rule="evenodd" clip-rule="evenodd" d="M413.584 238.323c-9.288 2.238-19.065 3.316-28.798 2.592-8.198-22.369-15.557-36.883-20.013-44.748v270.577s-21.102 6.71-55.866 11.111l-.544-.06c1.881-54.795 5.722-166.47 8.276-240.705 2.056-59.755 31.085-95.29 60.099-117.44-2.675 6.781-5.071 14.606-6.999 23.667 7.354 11.852 24.436 42.069 43.831 94.964.005.014.01.028.014.042zM190.716 477.795c-34.248-4.401-56.476-11.051-56.476-11.051V196.172c-4.456 7.867-11.814 22.379-20.01 44.743-9.633.716-19.3084-.332-28.5103-2.524a1.056 1.056 0 01.0199-.096c19.3774-52.848 36.3054-83.066 43.6094-94.944-1.928-9.075-4.327-16.912-7.006-23.701 29.014 22.15 58.044 57.685 60.099 117.44 2.554 74.235 6.396 185.91 8.276 240.705h-.002z" fill="#000" fill-opacity=".06"/><path d="M299 157.959c-4.945-.462-9-.959-9-.959l2 1.5-2 1.5c1.517.173 5.574.681 9 1v-3.041z" fill="#0C1328"/><path d="M299 158l-4.908.727 1.496 2.197 3.412-.079V158z" fill="#07080D"/><path d="M319 157.959c4.945-.462 9-.959 9-.959l-2 1.75 2 1.25s-5.574.681-9 1v-3.041z" fill="#0C1328"/><path d="M319.018 158.023l4.987.704-1.496 2.197h-3.491v-2.901z" fill="#07080D"/><path d="M294.5 122.5s7.25-2 14.5-2 14.5 2 14.5 2v18.286C323.5 154.5 309 162.5 309 162.5s-14.5-8-14.5-21.714V122.5z" fill="#F2F2F2"/><path d="M296 123.857S302.5 122 309 122s13 1.857 13 1.857v16.98C322 153.571 309 161 309 161s-13-7.429-13-20.163v-16.98z" fill="#E92D2D"/><path d="M298 127.571S303.5 126 309 126s11 1.571 11 1.571v14.368C320 152.714 309 159 309 159s-11-6.286-11-17.061v-14.368z" fill="#F2F2F2"/><path fill-rule="evenodd" clip-rule="evenodd" d="M324 160.354c0 .482-.339.894-.814.976-2.481.428-10.028 1.67-14.186 1.67-4.158 0-11.705-1.242-14.186-1.67-.475-.082-.814-.494-.814-.976V158s9.74 1.814 15 1.814S324 158 324 158v2.354z" fill="#0C1328"/><path fill-rule="evenodd" clip-rule="evenodd" d="M314.696 132.378c-.804-.075-1.766 4.696-1.388 6.5.069.327 2.396 2.91-.005 3.55.005-.125.015-.252.005-.382-.085-1.094-.266-1.277-1.016-2.135-.651-1.303-.792-2.411-.651-3.834 0-.891.359-.779 1.359-2.577.5-1.702-.127-3.301-1.5-3.5-2 .199-2.814 1.147-4 3 .078.967.709 1.661 1.37 2.25-.368.115-.695.314-.977.567-.64-.641-1.226-1.789-1.1-3.918.061-1.024-.954-1.784-1.952-1.7-.998.082-1.741.979-1.659 2.002.066.834 1.359 4.022 4.01 4.61-.027.061-.049.125-.068.188-2.321-.186-2.329-1.394-3.222-1.32-1.139.093-1.988 1.119-1.895 2.286.093 1.17 1.121 2.225 2.231 1.946 1.118-.283 2.106-.651 2.941-1.033.123.304 1.321-.378 1.321 1.033 0 1.089-.565 1.052-1 1.089-.914.076-2.034.667-1.96 1.607.036.439.234.823.525 1.103-.462.176-.905.336-1.224.363-1.059.088-1.848 1.039-1.762 2.125.087 1.086 1.017 1.893 2.074 1.805.98-.082 2.847-2.003 3.187-4.181.374-.123.707-.112.897.493.19.604-.298.413-.237 1.185s.249 1.062 1 1c.063-.006.5 0 1 .5.5 1-.791 1.003-1 2.5-.14 1 .881 1.591 2 1.5.579-.048 1.5-1.5 1.5-2.5-.192-1.841-.731-2.865-2.72-3.558 0-.021.01-.038.008-.062-.002-.021-.015-.039-.017-.06.08.002.158.011.238.004.615-.051 1.153-.336 1.56-.751.235.242.431.482.931.427.717-.08 1.5-.25 2-1 1-1.5.304-3-.5-4.5-1.217-2.271.242-6.571-.304-6.622z" fill="#E92D2D"/></svg>