<?xml version="1.0" encoding="UTF-8"?><svg height="500" viewBox="0 0 500 500" width="500" xmlns="http://www.w3.org/2000/svg"><g fill="none" fill-rule="evenodd"><path d="M0 0h500v500H0z"/><path d="M203.006 109.193h93.643V21.898h-93.643z" fill="#bfbfbf"/><path d="M202.867 32.198h93.458v-14.2h-93.458z" fill="#393939"/><g fill="#f2f2f2"><path d="M87.55 75.26s-40.762 72.8-58.547 127.77c4.445 13.375 45.208 40.86 85.232 37.885 13.34-36.4 24.46-52 24.46-52S141.658 93.83 87.55 75.26M411.476 75.26s40.762 72.8 58.547 127.77c-4.445 13.375-45.208 40.86-85.232 37.885-13.34-36.4-24.46-52-24.46-52S357.368 93.83 411.476 75.26"/><path d="M249.514 57.706c-50.082 0-47.798-39.47-48.742-39.14-7.516 2.618-24.133 14.936-52.439 25.495-31.873 11.885-52.626 19.315-60.782 31.2 11.114 8.915 46.694 28.97 46.694 120.345v271.14S183.903 481.6 249.13 481.6c68.929 0 115.648-14.855 115.648-14.855v-271.14c0-91.375 35.58-111.43 46.7-120.345-8.157-11.885-28.91-19.315-60.783-31.2-28.36-10.577-44.982-22.92-52.478-25.511-.927-.318 4.177 39.156-48.703 39.156z"/></g><path d="M96.645 79.789c8.54-11.24 28.66-18.57 59.042-30.077 19.301-7.312 33.083-15.468 42.19-20.662l-.009-.05a261.715 261.715 0 0 1 3.395-1.91l1.73 3.214c-9.03 5.064-23.459 13.972-44.362 21.891-29.863 11.31-49.812 18.585-58.594 29.504a52.218 52.218 0 0 0-3.392-1.91zm-6.7-2.876c8.031-11.886 28.465-19.316 59.847-31.201 19.302-7.312 33.084-15.468 42.191-20.662l-.009-.05.024-.014 1.738 3.228c-9.103 5.208-22.522 12.981-41 19.981-30.458 11.535-50.603 18.874-59.105 30.162zM402.182 79.791a52.22 52.22 0 0 0-3.392 1.911c-8.78-10.92-28.73-18.196-58.596-29.507-20.204-7.654-34.36-16.233-43.438-21.37l1.584-3.305c.826.46 1.698.955 2.617 1.48l-.01.05c9.108 5.194 22.89 13.35 42.191 20.662 30.384 11.507 50.505 18.838 59.044 30.08zm6.699-2.876c-1.26.44-2.488.921-3.685 1.444-8.502-11.29-28.647-18.628-59.108-30.164-18.275-6.923-31.602-14.603-40.698-19.81l1.413-3.413.048.028-.01.05c9.108 5.194 22.89 13.35 42.192 20.662 31.382 11.885 51.816 19.315 59.847 31.2v.001l.001.002z" fill="#3d3d3d"/><path d="M307.855 23.372c-3.018-1.694-5.539-3.078-7.584-4.013-1.866-.853 1.457 31.162-50.76 31.162-48.52 0-49.504-31.801-51.943-30.597-1.81.893-3.938 2.067-6.394 3.448 0 0 7.368 40.38 58.402 40.38 51.479 0 58.279-35.895 58.279-40.38z" fill="#f2f2f2"/><path d="M202.867 32.298h93.458v-7.1h-93.458z" fill="#e3e3e3"/><path d="M295.847 18.027c1.785 0 4.597 1.29 8.503 3.404-7.174 24.482-25.348 36.722-54.522 36.722-29.263 0-47.509-12.315-54.738-36.945 3.69-1.982 6.366-3.182 8.086-3.182 0 0-2.185 32.495 46.336 32.495 52.216 0 46.335-32.495 46.335-32.495zM467.461 195.302a338.826 338.826 0 0 1 2.668 7.9c-4.445 13.375-45.208 40.86-85.232 37.885a426.405 426.405 0 0 0-2.836-7.52c20.795-1.358 37.993-5.637 51.595-12.837 13.428-7.11 24.696-15.585 33.805-25.428zM31.655 195.302c9.103 9.828 20.36 18.291 33.772 25.392 13.611 7.205 30.824 11.485 51.64 12.84a426.42 426.42 0 0 0-2.835 7.516C74.208 244.025 33.445 216.54 29 203.165c.836-2.584 1.723-5.209 2.655-7.863z" fill="#3d3d3d"/><path d="M296.028 119.765l.3-1.238 1.13.585c1.09.562 2.535.797 4.314.753 1.163-.03 2.349-.165 3.92-.417.182-.03 1.505-.249 1.844-.3.65-.1 1.097-.148 1.464-.148s.814.048 1.464.147c.339.052 1.662.272 1.843.3 1.572.253 2.758.389 3.921.418 1.78.044 3.223-.19 4.313-.753l1.131-.585.3 1.238c.56 2.313 2.379 4.39 5.53 6.221l1.197.696-1.036.918c-2.639 2.336-2.792 5.79-1.47 14.138l.046.29c1.204 7.59 1.311 10.65-.245 13.665-1.489 2.883-4.134 4.918-7.981 6.658-1.4.633-5.796 2.296-6.42 2.58C310.455 165.45 309 166 309 168c0-1.999-1.501-2.537-2.718-3.06-.687-.294-4.769-1.77-5.987-2.28-4.348-1.822-7.119-3.929-8.333-7.064-1.09-2.818-.96-5.582.066-12.727l.159-1.113c1.124-7.978.836-11.777-1.85-14.155l-1.036-.918 1.197-.696c3.151-1.831 4.97-3.908 5.53-6.221z" fill="#000" fill-rule="nonzero"/><path d="M297 120c3.79 1.957 10.02 0 12 0s8.21 1.957 12 0c.632 2.61 2.632 4.894 6 6.851-6.632 5.872 1.895 21.043-1.895 28.383S309 163.064 309 166c0-2.936-13.263-3.426-16.105-10.766-2.842-7.34 4.737-22.51-1.895-28.383 3.368-1.957 5.368-4.241 6-6.851z" fill="#000"/><path d="M297 120c1.708.882 3.913.97 6 .798l.001 41.84c-1.976-.726-4.143-1.588-6.002-2.78zm24 0v39.593c-1.891 1.262-4.045 2.168-6 2.922V120.8c2.088.17 4.292.083 6-.799z" fill="#fff"/><path d="M303.868 132c1.58.766 4.307 0 5.132 0s3.553.766 5.132 0c.263 1.021 1.052 1.915 2.368 2.68-2.763 2.299.79 8.235-.79 11.107-1.578 2.873-6.71 3.064-6.71 4.213 0-1.149-5.526-1.34-6.71-4.213-1.185-2.872 1.973-8.808-.79-11.106 1.316-.766 2.105-1.66 2.368-2.681z" fill="#e61e02"/><path d="M413.584 238.323c-9.287 2.238-19.064 3.316-28.798 2.592-8.197-22.369-15.557-36.883-20.012-44.748v270.577s-21.102 6.71-55.867 11.11l-.544-.059c1.881-54.795 5.722-166.47 8.277-240.705 2.055-59.755 31.084-95.29 60.099-117.44-2.676 6.78-5.072 14.606-7 23.667 7.354 11.852 24.436 42.069 43.831 94.964l.014.042zM190.717 477.795c-34.248-4.401-56.477-11.05-56.477-11.05V196.171c-4.456 7.867-11.813 22.38-20.01 44.743-9.632.716-19.308-.332-28.51-2.523.005-.033.012-.065.02-.097 19.377-52.848 36.305-83.066 43.61-94.944-1.93-9.075-4.328-16.912-7.007-23.701 29.015 22.15 58.044 57.685 60.1 117.44 2.554 74.235 6.395 185.91 8.276 240.705z" fill="#000" fill-opacity=".06"/></g></svg>