<?xml version="1.0" encoding="UTF-8"?><svg height="500" viewBox="0 0 500 500" width="500" xmlns="http://www.w3.org/2000/svg"><g fill="none" fill-rule="evenodd"><path d="M0 0h500v500H0z"/><path d="M203.006 109.193h93.643V21.898h-93.643z" fill="#1d1d1d"/><path d="M202.867 32.198h93.458v-14.2h-93.458z" fill="#363636"/><path d="M249.514 57.706c-50.082 0-47.798-39.47-48.742-39.14-7.516 2.618-24.133 14.936-52.439 25.495-31.873 11.885-52.626 19.315-60.782 31.2 11.114 8.915 46.694 28.97 46.694 120.345v271.14S183.903 481.6 249.13 481.6c68.929 0 115.648-14.855 115.648-14.855v-271.14c0-91.375 35.58-111.43 46.7-120.345-8.157-11.885-28.91-19.315-60.783-31.2-28.36-10.577-44.982-22.92-52.478-25.511-.927-.318 4.177 39.156-48.703 39.156z" fill="#f2f2f2"/><path d="M174.404 32.4c6.756-3.393 12.314-6.526 16.77-9.028l2.137 6.63c-8.9 5.143-22.457 13.326-41.595 20.711-28.211 10.883-47.405 18.03-56.493 28.283l-7.61-3.976c8.202-11.83 28.93-19.251 60.717-31.104 10.156-3.789 18.808-7.803 26.074-11.516zM324.506 32.344c7.29 3.728 15.977 7.764 26.185 11.572C382.48 55.769 403.207 63.19 411.41 75.02l-7.494 4.107c-9.04-10.324-28.278-17.486-56.61-28.415-18.71-7.22-32.085-15.202-40.991-20.361l1.54-6.98c4.433 2.488 9.949 5.6 16.652 8.972z" fill="#3d3d3d"/><path d="M87.55 75.26s-40.762 72.8-58.547 127.77c4.445 13.375 45.208 40.86 85.232 37.885 13.34-36.4 24.46-52 24.46-52S141.658 93.83 87.55 75.26M411.476 75.26s40.762 72.8 58.547 127.77c-4.445 13.375-45.208 40.86-85.232 37.885-13.34-36.4-24.46-52-24.46-52S357.368 93.83 411.476 75.26" fill="#f2f2f2"/><g fill="#3d3d3d"><path d="M119.982 226.098a407.766 407.766 0 0 0-5.75 14.815c-40.024 2.975-80.787-24.51-85.232-37.885 1.757-5.43 3.739-11.036 5.883-16.728 10.27 10.965 22.741 19.794 37.414 26.489 14.658 6.687 30.553 11.123 47.685 13.31zM379.205 226.098c17.131-2.186 33.026-6.622 47.684-13.31 14.673-6.694 27.145-15.523 37.414-26.488 2.145 5.692 4.126 11.297 5.884 16.728-4.445 13.375-45.208 40.86-85.233 37.885a407.768 407.768 0 0 0-5.75-14.815zM249.576 63.752c51.479 0 58.279-35.895 58.279-40.38-5.772-3.24-9.728-5.345-12.008-5.345 0 0 5.881 32.495-46.335 32.495-48.52 0-46.336-32.495-46.336-32.495-2.28 0-6.235 2.105-12.002 5.345 0 0 7.368 40.38 58.402 40.38"/></g><path d="M292.224 135.246c.114-4.12-.165-5.591-.807-5.868-.39-.168-1.502-1.075-2.862.23-.381.367-3.555 3.72-3.91 4.033-.19.168-.607.168-.403.732.67 1.863 1.489 3.795 1.489 7.121 0 .115.014 1.196.985 1.136.078-.082 1.047-1.542 1.548-2.497l.924-1.757.862 1.788 1.734 3.592 4.767 10.496c4.75-.008 8.09 1.418 9.895 4.241l-1.835-6.852 1.092-.178c12.109-1.97 21.118.245 26.89 6.665-.459-3.588.244-6.348 2.164-8.23l-5.808-11.292 1.938-1.366-2.396-5.688c-14.186 1.026-24.765.426-30.14-1.102-.287 5.065-1.34 9.618-4.846 12.868-.243.214-.466.358-.669.431-.373.073-.612 0-.612-1.753 0-1.657-.077-3.937 0-6.75zM292 121.905c2.115 0 4.19 1.936 6.08 5.97.055.117.225.33.511.64 4.723 1.801 15.47 2.107 31.015.948l3.748 8.483-1.83 1.292 5.675 11.04c-2.522 1.979-2.994 7.8-.98 13.72h-2.55c-4.775-8.685-13.377-12.618-26.551-10.728l2.873 10.728h-3.965l-.103-.884c-.558-4.789-3.75-7.033-9.983-6.853l-.664.02-.275-.606-5.028-11.07-.888-1.84c-.758 1.239-1.34 1.8-2.029 1.847-2.283.156-3.346-.748-3.351-2.388 0-.133.026-.665.026-.73 0-2.995-.405-4.644-1.24-6.152-.12-.218-.544-.934-.61-1.051-.607-1.067-.878-1.951-.878-3.23 0-.485.865-1.852 1.97-3.186 1.26-1.793 4.279-4.494 5.291-5.02 1.013-.524 2.946-.95 3.736-.95zm-8.725 10.277l.05-.043c.296-.261 3.434-3.579 3.845-3.973 1.939-1.862 3.034-1.995 4.485-1.37 1.837.793 2.685 3.827 2.398 8.107-.086 1.273-.13 4.873 0 4.662 1.248-2.018 1.887-5.005 1.887-7.703s-.753-5.88-2.816-7.302c-1.984-1.368-4.811-.072-8.144 3.956-.773 1.108-1.688 2.945-1.705 3.666z" fill="#1d191a" fill-rule="nonzero"/><path d="M413.584 238.323c-9.287 2.238-19.064 3.316-28.798 2.592-8.197-22.369-15.557-36.883-20.012-44.748v270.577s-21.102 6.71-55.867 11.11l-.544-.059c1.881-54.795 5.722-166.47 8.277-240.705 2.055-59.755 31.084-95.29 60.099-117.44-2.676 6.78-5.072 14.606-7 23.667 7.354 11.852 24.436 42.069 43.831 94.964l.014.042zM190.717 477.795c-34.248-4.401-56.477-11.05-56.477-11.05V196.171c-4.456 7.867-11.813 22.38-20.01 44.743-9.632.716-19.308-.332-28.51-2.523.005-.033.012-.065.02-.097 19.377-52.848 36.305-83.066 43.61-94.944-1.93-9.075-4.328-16.912-7.007-23.701 29.015 22.15 58.044 57.685 60.1 117.44 2.554 74.235 6.395 185.91 8.276 240.705z" fill="#000" fill-opacity=".06"/></g></svg>