<?xml version="1.0" encoding="UTF-8"?><svg width="500" height="500" viewBox="0 0 500 500" xmlns="http://www.w3.org/2000/svg"><g fill="none" fill-rule="evenodd"><path d="M0 0h500v500H0z"/><path fill="#D9D9D9" d="M203.0033 109.223h93.6432V21.928h-93.6432z"/><path fill="#393939" d="M202.8636 32.228h93.4586v-14.2h-93.4586z"/><path d="M87.5475 75.2585s-40.7627 72.8-58.5475 127.77c4.445 13.375 45.2077 40.86 85.2322 37.885 13.3398-36.4 24.4596-52 24.4596-52s2.9633-95.085-51.1443-113.655m323.9252 0s40.7628 72.8 58.5475 127.77c-4.445 13.375-45.2077 40.86-85.2321 37.885-13.3399-36.4-24.4597-52-24.4597-52s-2.9633-95.085 51.1443-113.655" fill="#F5DF4C"/><path d="M249.5111 57.7025c-50.0817 0-47.7981-39.469-48.7426-39.14-7.5158 2.6187-24.1326 14.9368-52.4385 25.495-31.8729 11.885-52.626 19.315-60.7825 31.2 11.1149 8.915 46.6944 28.97 46.6944 120.345v271.14s49.6576 14.855 114.885 14.855c68.9291 0 115.6484-14.855 115.6484-14.855v-271.14c0-91.375 35.5795-111.43 46.6994-120.345-8.1566-11.885-28.9096-19.315-60.7825-31.2-28.3599-10.5767-44.9818-22.9194-52.478-25.5106-.9273-.3184 4.1773 39.1556-48.703 39.1556z" fill="#F5DF4C"/><path d="M119.9819 226.098c-1.8487 4.494-3.7749 9.4268-5.7497 14.8155-40.0245 2.975-80.7873-24.51-85.2322-37.885 1.7572-5.4313 3.7388-11.0368 5.8832-16.7288 10.2695 10.9648 22.741 19.7944 37.4143 26.4888 14.6578 6.6873 30.5526 11.1238 47.6844 13.3096zm259.2228 0c17.1318-2.1857 33.0266-6.6222 47.6843-13.3095 14.6734-6.6944 27.1448-15.524 37.4144-26.4888 2.1444 5.692 4.126 11.2975 5.8831 16.7288-4.4449 13.375-45.2077 40.86-85.2321 37.885-1.9749-5.3887-3.901-10.3216-5.7497-14.8154z" fill="#CA2525"/><path d="M470.0202 203.0285c-4.445 13.375-45.2077 40.86-85.2321 37.885a426.4238 426.4238 0 00-2.8354-7.5198c20.795-1.3576 37.9932-5.6366 51.5944-12.8371 13.4282-7.109 24.6968-15.5848 33.8058-25.4277.9359 2.6666 1.8272 5.303 2.6673 7.8996zM31.6547 195.165c9.1031 9.8275 20.3606 18.2914 33.7724 25.3916 13.611 7.2056 30.824 11.4856 51.6393 12.84a426.4196 426.4196 0 00-2.8342 7.5169c-40.0245 2.975-80.7873-24.51-85.2322-37.885.8363-2.5849 1.7234-5.2092 2.6547-7.8635z" fill="#3D3D3D"/><path d="M307.8516 23.345c-5.772-3.24-9.728-5.345-12.0078-5.345 0 0 5.8817 32.495-46.3352 32.495-48.5202 0-46.3352-32.495-46.3352-32.495-2.2798 0-6.2358 2.105-12.0028 5.345 0 0 7.3683 40.38 58.4029 40.38 51.4785 0 58.2781-35.895 58.2781-40.38z" fill="#CA2525"/><path fill="#A91E1E" d="M202.8666 32.298h93.4586v-7.1h-93.4586z"/><path d="M295.8468 18.0265c1.7847 0 4.5968 1.29 8.503 3.4048-7.1737 24.4814-25.348 36.7213-54.5219 36.7213-29.263 0-47.5089-12.3148-54.7376-36.9443 3.6898-1.9827 6.3654-3.1818 8.0861-3.1818 0 0-2.185 32.495 46.3352 32.495 52.2169 0 46.3352-32.495 46.3352-32.495z" fill="#3D3D3D"/><path d="M413.5843 238.3227c-9.2877 2.2382-19.0646 3.3161-28.7978 2.5926-8.1978-22.369-15.5572-36.883-20.0128-44.7484v270.5774s-21.1022 6.7098-55.8664 11.1104c-.1817-.0197-.363-.0396-.544-.0597 1.8808-54.795 5.7221-166.47 8.2763-240.705 2.0554-59.755 31.0847-95.29 60.099-117.44-2.6753 6.7806-5.0714 14.6063-6.9991 23.6673 7.354 11.8514 24.4358 42.0687 43.8307 94.964.005.014.0097.0277.014.0414zM190.7166 477.7953c-34.2478-4.4014-56.4763-11.051-56.4763-11.051V196.1721c-4.4558 7.8668-11.8138 22.3792-20.0097 44.7432-9.633.716-19.3087-.3323-28.5106-2.5238a1.113 1.113 0 01.0199-.0967c19.3773-52.8475 36.3054-83.0661 43.6098-94.9437-1.929-9.0753-4.3277-16.912-7.0064-23.7011 29.0144 22.15 58.0437 57.685 60.099 117.44 2.5543 74.235 6.3956 185.91 8.2763 240.7053h-.002z" fill-opacity=".06" fill="#000"/><g transform="translate(288 121)"><path d="M17.8994 41.4677C8.2597 41.0764-1.717 34.7832.8924 25.5722 3.502 16.3612 5.6005 14.2634 0 6.9764c.3682-.5797 3.527-4.772 4.075-5.5352C5.0106 2.5204 6.5489 3.06 8.6899 3.06c2.141 0 4.1744-1.02 6.1002-3.06 1.7369 2 3.807 3 6.2103 3 2.4032 0 4.4732-1 6.2098-3 1.9257 2.04 3.9591 3.06 6.1003 3.06s3.6795-.5396 4.6148-1.6188c.548.7632 3.7068 4.9555 4.0748 5.5352-5.6 7.287-3.502 9.3847-.8925 18.5958 2.6095 9.211-7.3674 15.5041-17.0067 15.8955C22.004 41.4677 21.004 44 21.004 44S20 41.4677 17.8994 41.4677z" fill="#1B1B1B" fill-rule="nonzero"/><path d="M18.1947 39.698C9.4731 39.3421.4465 33.621 2.8075 25.2473c2.361-8.3737 4.455-11.1843-.612-17.8088.3331-.527 1.8585-2.7585 2.3543-3.4524 1.6045.5304 3.3753.7956 5.3124.7956s3.5663-.798 4.8875-2.3943c1.9926 1.5598 4.0761 2.3398 6.2505 2.3398 2.1744 0 4.2388-.78 6.193-2.3398 1.3593 1.5962 3.0075 2.3943 4.9448 2.3943s3.6841-.2652 5.2406-.7956c.4957.6939 2.2857 2.9254 2.6187 3.4524-5.0667 6.6245-3.1658 9.4351-.8048 17.8088 2.361 8.3737-6.6658 14.0947-15.387 14.4505-1.8971 0-2.8019 2.3021-2.8019 2.3021s-.9084-2.302-2.8089-2.302z" fill="#F3D83A" fill-rule="nonzero"/><path fill="#000" opacity=".35" d="M11 19.5h20v3H11z"/><path d="M6.7627 18.0005c.706-3.4428.2992-6.2971-2.574-10.0928l.3137-.5177c.3294-.5506.7664-1.2847 1.0907-1.7433 1.857.482 3.6567.723 5.399.723 1.7423 0 3.0623-.64 3.96-1.9199 2.0828 1.2469 4.102 1.8703 6.0578 1.8703l.0865 11.6804H6.7627z" fill="#FFF" fill-rule="nonzero"/><path d="M14.0008 5.4516L14 11h7.0587v2H14v4.9996h-2V12.999l-5.2023.0015c-.157-.6547-.3875-1.317-.7028-1.9999L12 10.999l.0008-4.7084c.7675-.1269 1.4341-.4066 2-.839z" fill="#DC3833"/><path d="M27.0879 4.4498c.884 1.28 2.1972 1.92 3.9396 1.92 1.7425 0 3.6046-.241 5.5865-.7231l.2379.3237c.4873.6452 1.2124 1.532 1.4658 1.9373-2.8912 3.8196-3.5508 6.626-2.9763 10.0922h-14.245l-.0865-11.6798c1.9557 0 3.9817-.6234 6.078-1.8703z" fill="#EE9212" fill-rule="nonzero"/><path d="M37.3725 24.969c2.5953 7.4527-5.803 12.6905-13.5748 13.1198l-.2647.0128c-1.7063 0-2.52 2.0921-2.52 2.0921l-.0685-.155c-.2172-.46-.9544-1.7942-2.249-1.9265l-.209-.0106c-7.8445-.3233-16.291-5.744-13.8396-13.1327l.3238-.9701 32.0657-.0004.3361.9705z" fill="#3A4067"/><path d="M23.7977 38.0888l-.2647.0128c-1.7063 0-2.52 2.0921-2.52 2.0921L21 23.9987l16.0364-.0003.3361.9705c2.5953 7.4528-5.803 12.6906-13.5748 13.12z" fill="#DC3833"/><circle fill="#D8D8D8" cx="21" cy="31" r="4"/></g></g></svg>