<?xml version="1.0" encoding="UTF-8"?><svg height="500" viewBox="0 0 500 500" width="500" xmlns="http://www.w3.org/2000/svg"><g fill="none" fill-rule="evenodd"><path d="M0 0h500v500H0z"/><path d="M203.003 109.027h93.643V21.92h-93.643z" fill="#9e0b1e"/><path d="M202.864 32.197h93.458v-14.17h-93.458z" fill="#171f49"/><g fill="#bb0f25"><path d="M87.548 75.26S46.785 148.06 29 203.03c4.445 13.375 45.208 40.86 85.232 37.885 13.34-36.4 24.46-52 24.46-52S141.655 93.83 87.548 75.26M411.473 75.26s40.763 72.8 58.548 127.77c-4.445 13.375-45.208 40.86-85.232 37.885-13.34-36.4-24.46-52-24.46-52S357.366 93.83 411.473 75.26"/><path d="M249.514 57.621c-50.082 0-47.799-39.384-48.743-39.055-7.516 2.613-24.133 14.904-52.439 25.44-31.872 11.86-52.625 19.273-60.782 31.133 11.115 8.895 46.694 28.907 46.694 120.086v270.557s49.658 14.823 114.885 14.823c68.93 0 115.649-14.823 115.649-14.823V195.225c0-91.179 35.58-111.19 46.7-120.086-8.157-11.86-28.91-19.274-60.783-31.133-28.36-10.554-44.982-22.87-52.478-25.456-.928-.318 4.177 39.071-48.703 39.071z"/><path d="M249.573 63.683c51.479 0 58.279-35.818 58.279-40.293-5.772-3.233-9.728-5.334-12.008-5.334 0 0 5.881 32.425-46.335 32.425-48.52 0-46.336-32.425-46.336-32.425-2.28 0-6.235 2.1-12.002 5.334 0 0 7.368 40.293 58.402 40.293"/></g><path d="M231.206 48.58v431.654c-9.829-.4-19.186-1.102-27.937-1.989V30.388a40.772 40.772 0 0 0 1.679 4.222l2.639-1.194c3.778 5.996 10.756 12.149 23.62 15.164zm37.582 431.619V48.626c13.656-2.998 20.549-9.184 23.98-15.212l2.244 1.104a37.138 37.138 0 0 0 1.713-5.152V478.24a478.693 478.693 0 0 1-27.937 1.959zm65.518-442.995A240.8 240.8 0 0 0 350.692 44c3.305 1.23 6.491 2.412 9.556 3.556v419.524c-4.954 1.349-13.833 3.572-25.942 5.83zM165.688 472.909c-11.72-2.153-20.646-4.275-25.942-5.637V47.195c2.765-1.031 5.627-2.093 8.584-3.194a241.177 241.177 0 0 0 17.358-7.246z" fill="#f2f2f2"/><path d="M68.717 110.864c10.64-21.092 18.83-35.72 18.83-35.72 8.157-11.885 28.91-19.315 60.783-31.2 28.008-10.447 44.571-22.617 52.198-25.41.186.63.31 3.354 1.13 7.093-7.518 3.04-23.336 14.847-49.942 25.114-30.81 11.885-50.865 19.315-58.747 31.2 0 0-7.812 14.495-17.944 35.245zM430.304 110.864l-6.308 6.322c-10.132-20.75-17.944-35.245-17.944-35.245-7.882-11.885-27.937-19.315-58.747-31.2-26.605-10.267-42.424-22.074-49.942-25.114.82-3.739.945-6.462 1.13-7.092 7.627 2.792 24.19 14.962 52.198 25.409 31.873 11.885 52.626 19.315 60.783 31.2s8.19 14.628 18.83 35.72z" fill="#bb0f25"/><path d="M290.638 36.51c6.968-8.795 5.206-18.51 5.206-18.51 2.28 0 6.236 2.1 12.008 5.334 0 1.134-3.695 6.037-11.085 14.707a157.378 157.378 0 0 0-6.129-1.532zm-87.373 1.258L191.17 23.334C196.938 20.1 200.894 18 203.173 18c0 0-.64 9.506 6.475 18.224a158.95 158.95 0 0 0-6.383 1.544z" fill="#212b60"/><g fill-rule="nonzero"><path d="M326.5 124.163c0-1.833-1.235-2.39-3.004-2.851-2.587-.677-7.91-1.812-14.496-1.812s-11.91 1.134-14.498 1.81c-1.767.463-3.002 1.018-3.002 2.853V149.837c.023 2.133 1.033 4.159 2.704 5.42l13.742 10.443 1.054.8 1.055-.8 13.746-10.445a6.85 6.85 0 0 0 2.699-5.437z" fill="#212b60"/><path d="M295.472 154.207L309 164.486l12.399-9.42c.252-.191.26-8.712.022-25.562l-25.674 17.822z" fill="#efefef"/><path d="M296 147.15v7.458l-.528-.4c-1.527-1.155-2.451-3.007-2.472-4.957v-.018zm5-3.47l5-3.471v21.998l-5-3.8zm10-6.942l5-3.47v25.9l-5 3.8zm10-6.942l4-2.777v22.214a6.263 6.263 0 0 1-2.467 4.972L321 155.369z" fill="#b23724"/></g><path d="M413.584 238.323c-9.287 2.238-19.064 3.316-28.798 2.592-8.197-22.369-15.557-36.883-20.012-44.748v270.577s-21.102 6.71-55.867 11.11l-.544-.059c1.881-54.795 5.722-166.47 8.277-240.705 2.055-59.755 31.084-95.29 60.099-117.44-2.676 6.78-5.072 14.606-7 23.667 7.354 11.852 24.436 42.069 43.831 94.964l.014.042zM190.717 477.795c-34.248-4.401-56.477-11.05-56.477-11.05V196.171c-4.456 7.867-11.813 22.38-20.01 44.743-9.632.716-19.308-.332-28.51-2.523.005-.033.012-.065.02-.097 19.377-52.848 36.305-83.066 43.61-94.944-1.93-9.075-4.328-16.912-7.007-23.701 29.015 22.15 58.044 57.685 60.1 117.44 2.554 74.235 6.395 185.91 8.276 240.705z" fill="#000" fill-opacity=".1"/></g></svg>