<?xml version="1.0" encoding="UTF-8"?><svg width="500" height="500" viewBox="0 0 500 500" xmlns="http://www.w3.org/2000/svg"><g fill="none" fill-rule="evenodd"><path d="M0 0h500v500H0z"/><path fill="#D9D9D9" d="M203.0033 109.223h93.6432V21.928h-93.6432z"/><path fill="#E0B52A" d="M202.8636 32.228h93.4586v-14.2h-93.4586z"/><path d="M87.5475 75.2585s-40.7627 72.8-58.5475 127.77c4.445 13.375 45.2077 40.86 85.2322 37.885 13.3398-36.4 24.4596-52 24.4596-52s2.9633-95.085-51.1443-113.655m323.9252 0s40.7628 72.8 58.5475 127.77c-4.445 13.375-45.2077 40.86-85.2321 37.885-13.3399-36.4-24.4597-52-24.4597-52s-2.9633-95.085 51.1443-113.655" fill="#184B8E"/><path d="M249.5111 57.7025c-50.0817 0-47.7981-39.469-48.7426-39.14-7.5158 2.6187-24.1326 14.9368-52.4385 25.495-31.8729 11.885-52.626 19.315-60.7825 31.2 11.1149 8.915 46.6944 28.97 46.6944 120.345v271.14s49.6576 14.855 114.885 14.855c68.9291 0 115.6484-14.855 115.6484-14.855v-271.14c0-91.375 35.5795-111.43 46.6994-120.345-8.1566-11.885-28.9096-19.315-60.7825-31.2-28.3599-10.5767-44.9818-22.9194-52.478-25.5106-.9273-.3184 4.1773 39.1556-48.703 39.1556z" fill="#184B8E"/><path d="M467.3529 195.129c.9359 2.6665 1.8272 5.303 2.6673 7.8995-4.445 13.375-45.2077 40.86-85.2321 37.885a426.4238 426.4238 0 00-2.8354-7.5198c20.795-1.3576 37.9932-5.6366 51.5944-12.8371 13.4282-7.109 24.6968-15.5848 33.8058-25.4277zm-435.6982.036c9.1031 9.8275 20.3606 18.2914 33.7724 25.3916 13.611 7.2056 30.824 11.4856 51.6393 12.84a426.4196 426.4196 0 00-2.8342 7.5169c-40.0245 2.975-80.7873-24.51-85.2322-37.885.8363-2.5849 1.7234-5.2092 2.6547-7.8635zM249.593 171c38.5638 0 77.131 2.0537 115.7019 6.1612-.3134 5.3538-.491 10.9975-.5164 16.9474l-.0032 1.4939-.0005 67.504C326.3884 259.0355 288.0718 257 249.825 257c-38.5294 0-77.0573 2.0657-115.5837 6.197l.0007-67.5945c0-6.4745-.1786-12.5909-.5145-18.3706C172.1825 173.0777 210.8049 171 249.5929 171zm58.2586-147.655c-5.772-3.24-9.728-5.345-12.0078-5.345 0 0 5.8817 32.495-46.3352 32.495-48.5202 0-46.3352-32.495-46.3352-32.495-2.2798 0-6.2358 2.105-12.0028 5.345 0 0 7.3683 40.38 58.4029 40.38 51.4785 0 58.2781-35.895 58.2781-40.38z" fill="#F3C632"/><path d="M413.5843 238.3227c-9.2877 2.2382-19.0646 3.3161-28.7978 2.5926-8.1978-22.369-15.5572-36.883-20.0128-44.7484v270.5774s-21.1022 6.7098-55.8664 11.1104c-.1817-.0197-.363-.0396-.544-.0597 1.8808-54.795 5.7221-166.47 8.2763-240.705 2.0554-59.755 31.0847-95.29 60.099-117.44-2.6753 6.7806-5.0714 14.6063-6.9991 23.6673 7.354 11.8514 24.4358 42.0687 43.8307 94.964.005.014.0097.0277.014.0414zM190.7166 477.7953c-34.2478-4.4014-56.4763-11.051-56.4763-11.051V196.1721c-4.4558 7.8668-11.8138 22.3792-20.0097 44.7432-9.633.716-19.3087-.3323-28.5106-2.5238a1.113 1.113 0 01.0199-.0967c19.3773-52.8475 36.3054-83.0661 43.6098-94.9437-1.929-9.0753-4.3277-16.912-7.0064-23.7011 29.0144 22.15 58.0437 57.685 60.099 117.44 2.5543 74.235 6.3956 185.91 8.2763 240.7053h-.002z" fill-opacity=".06" fill="#000"/><g transform="translate(291.6405 120.5)"><path d="M15.0022 36.8913l-.9125.0109c-2.7412.009-7.8735-1.3458-12.1053-7.3178-4.8666-6.8677.7495-12.308.7495-16.1006 0-2.5284.0835-4.5624-1.7495-6.102L4.171 0c1.8293.9172 3.6343 1.3758 5.4148 1.3758C12.2567 1.3758 15.2341 0 17.3595 0l.3837.0137c2.0909.1434 4.8762 1.362 7.39 1.362 1.6618 0 3.3449-.3994 5.0492-1.1984L30.548 0l3.1866 7.3818c-1.833 1.5396-1.7495 3.5736-1.7495 6.102 0 3.7927 5.616 9.2329.7495 16.1006-4.8666 6.8678-11.569 7.3069-13.0179 7.3069-.9122 0-1.6638.6121-2.2546 1.8363l-.1026.2224c-.6056-1.3725-1.3914-2.0587-2.3573-2.0587z" fill="#E4D480"/><path d="M30.8596 14.5636c.4276 3.5943 5.1564 7.8992.671 14.2291-4.4856 6.33-10.6631 6.7347-11.9985 6.7347-.8408 0-1.5335.5641-2.078 1.6925l-.0946.205c-.5582-1.265-1.2824-1.8975-2.1727-1.8975l-.841.01c-1.8697.0062-4.9461-.676-8-3.2616l-.2416-.2086L31.1246 9.5378l.0742-.276c-.4692 1.6365-.5242 3.747-.3392 5.3018zM17.3595 1.5252l.3536.0126c1.9272.1321 4.4944 1.2554 6.8112 1.2554.7337 0 1.472-.0845 2.2146-.2535l.2817-.068-25.4853 22.943C.2928 20.8226 3.414 17.3589 3.8506 14.5636c.3556-2.2763.0286-5.9156-1.2304-7.2347l2.5836-5.8037c1.6861.8453 3.3497 1.268 4.9908 1.268 2.4617 0 5.206-1.268 7.1649-1.268z" fill="#153D70"/><circle fill="#F2F2F2" cx="17.3595" cy="16.975" r="10"/><circle fill="#153D70" cx="17.3595" cy="16.975" r="9"/><circle fill="#E4D480" opacity=".7" cx="17.3595" cy="16.975" r="7"/><path fill="#E4D480" d="M5.3595 43.475l-1.7634.927.3368-1.9635-1.4266-1.3906 1.9715-.2864.8817-1.7865.8817 1.7865 1.9714.2864-1.4265 1.3906.3367 1.9636zm8 0l-1.7634.927.3368-1.9635-1.4266-1.3906 1.9715-.2864.8817-1.7865.8817 1.7865 1.9714.2864-1.4265 1.3906.3367 1.9636zm8 0l-1.7634.927.3368-1.9635-1.4266-1.3906 1.9715-.2864.8817-1.7865.8817 1.7865 1.9714.2864-1.4265 1.3906.3367 1.9636zm8 0l-1.7634.927.3368-1.9635-1.4266-1.3906 1.9715-.2864.8817-1.7865.8817 1.7865 1.9714.2864-1.4265 1.3906.3367 1.9636z"/></g></g></svg>