<?xml version="1.0" encoding="UTF-8"?><svg height="500" viewBox="0 0 500 500" width="500" xmlns="http://www.w3.org/2000/svg"><g fill="none" fill-rule="evenodd"><path d="M0 0h500v500H0z"/><path d="M203.003 109.223h93.643V21.928h-93.643z" fill="#5a83ce"/><path d="M202.864 32.228h93.458v-14.2h-93.458z" fill="#0050c7"/><g fill="#6592e6"><path d="M87.547 75.26S46.785 148.06 29 203.031c4.445 13.375 45.207 40.86 85.232 37.886 13.34-36.4 24.46-52 24.46-52S141.653 93.83 87.546 75.26M411.473 75.26s40.762 72.8 58.547 127.771c-4.445 13.375-45.207 40.86-85.232 37.886-13.34-36.4-24.46-52-24.46-52S357.367 93.83 411.474 75.26"/><path d="M249.514 57.706c-50.082 0-47.799-39.47-48.743-39.14-7.516 2.618-24.133 14.936-52.439 25.495-31.872 11.885-52.625 19.315-60.782 31.2 11.115 8.915 46.694 28.97 46.694 120.345v271.142s49.658 14.855 114.885 14.855c68.93 0 115.649-14.855 115.649-14.855V195.606c0-91.375 35.58-111.43 46.7-120.345-8.157-11.885-28.91-19.315-60.783-31.2-28.36-10.577-44.982-22.92-52.478-25.511-.928-.318 4.177 39.156-48.703 39.156z"/></g><path d="M293.9 37.3c45.285 11.339 71.55 39.427 71.55 68.16v68.857c-.455 6.628-.7 13.712-.7 21.286v271.142S317.981 481.6 248.98 481.6c-62.464 0-110.664-13.594-114.729-14.774V105.46c0-28.451 25.751-56.27 70.222-67.817l.773-8.313c3.976 9.386 14.802 21.222 44.116 21.222 28.69 0 39.86-9.789 44.098-18.621z" fill="#f2f2f2"/><path d="M296.725 38.01v441.224a477.678 477.678 0 0 1-27.937 1.963V48.693c13.656-3.005 20.549-9.205 23.98-15.246l.955.471L294 37.3c.916.23 1.824.466 2.725.71zm37.581 16.728c12.033 8.195 20.82 18.06 25.942 28.655v384.658c-4.954 1.352-13.833 3.58-25.942 5.843zm-103.1 426.494c-9.829-.4-19.186-1.104-27.937-1.993V38.013c.464-.125.93-.248 1.398-.37l.279-3.001.002.004 2.639-1.197c3.778 6.01 10.756 12.175 23.62 15.197zm-65.518-7.34c-11.72-2.158-20.646-4.284-25.942-5.65V83.394c5.121-10.595 13.91-20.46 25.942-28.653z" fill="#005ade"/><path d="M290.638 36.55c6.968-8.814 5.206-18.55 5.206-18.55 2.28 0 6.236 2.105 12.008 5.345 0 1.137-3.695 6.05-11.085 14.739a157.099 157.099 0 0 0-6.129-1.535zm-87.373 1.26L191.17 23.345c5.767-3.24 9.723-5.345 12.002-5.345 0 0-.64 9.527 6.475 18.264-2.17.478-4.297.994-6.383 1.546z" fill="#005ade"/><circle cx="309" cy="143" fill="#005bac" r="22"/><circle cx="309" cy="143" fill="#fff" r="20"/><circle cx="309" cy="143" fill="#005bac" r="14"/><path d="M413.584 238.323c-9.287 2.238-19.064 3.316-28.798 2.592-8.197-22.369-15.557-36.883-20.012-44.748v270.577s-21.102 6.71-55.867 11.11l-.544-.059c1.881-54.795 5.722-166.47 8.277-240.705 2.055-59.755 31.084-95.29 60.099-117.44-2.676 6.78-5.072 14.606-7 23.667 7.354 11.852 24.436 42.069 43.831 94.964l.014.042zM190.717 477.795c-34.248-4.401-56.477-11.05-56.477-11.05V196.171c-4.456 7.867-11.813 22.38-20.01 44.743-9.632.716-19.308-.332-28.51-2.523.005-.033.012-.065.02-.097 19.377-52.848 36.305-83.066 43.61-94.944-1.93-9.075-4.328-16.912-7.007-23.701 29.015 22.15 58.044 57.685 60.1 117.44 2.554 74.235 6.395 185.91 8.276 240.705z" fill="#000" fill-opacity=".1"/></g></svg>