<?xml version="1.0" encoding="utf-8"?><svg width="500" height="500" viewBox="0 0 500 500" fill="none" xmlns="http://www.w3.org/2000/svg"><path fill-rule="evenodd" clip-rule="evenodd" d="M203.006 109.193h93.643V21.8981h-93.643v87.2949z" fill="#B2432B"/><path fill-rule="evenodd" clip-rule="evenodd" d="M202.866 32.198h93.459v-14.2h-93.459v14.2z" fill="#D1D1D1"/><path fill-rule="evenodd" clip-rule="evenodd" d="M249.514 57.7057c-50.082 0-47.798-39.4691-48.743-39.14-7.516 2.6186-24.132 14.9368-52.438 25.495-31.873 11.885-52.6262 19.315-60.7827 31.2 11.1148 8.915 46.6947 28.9703 46.6947 120.3453v271.14s49.657 14.855 114.885 14.855c68.929 0 115.648-14.855 115.648-14.855v-271.14c0-91.375 35.58-111.4303 46.699-120.3453-8.156-11.885-28.909-19.315-60.782-31.2-28.36-10.5767-44.982-22.9195-52.478-25.5087-.927-.3203 4.177 39.1537-48.703 39.1537z" fill="#D85437"/><path fill-rule="evenodd" clip-rule="evenodd" d="M87.5505 75.26s-40.7628 72.8-58.5476 127.77c4.445 13.375 45.2078 40.86 85.2321 37.885 13.34-36.4 24.46-52 24.46-52S141.658 93.83 87.5505 75.26zm323.9255 0s40.763 72.8 58.547 127.77c-4.445 13.375-45.207 40.86-85.232 37.885-13.34-36.4-24.459-52-24.459-52S357.368 93.83 411.476 75.26z" fill="#D85437"/><path fill-rule="evenodd" clip-rule="evenodd" d="M467.462 195.3c.936 2.666 1.827 5.303 2.667 7.899-4.445 13.375-45.208 40.86-85.232 37.885-.958-2.613-1.904-5.119-2.835-7.519 20.795-1.358 37.993-5.637 51.594-12.838 13.428-7.108 24.697-15.584 33.806-25.427zm-435.8073 0c9.1031 9.827 20.3606 18.291 33.7724 25.391 13.6109 7.206 30.8241 11.486 51.6389 12.84-.931 2.4-1.877 4.905-2.834 7.517-40.0243 2.975-80.7871-24.51-85.232-37.885.8363-2.585 1.7234-5.209 2.6547-7.863zM249.577 63.7515c51.478 0 58.278-35.895 58.278-40.38-5.772-3.24-9.728-5.345-12.008-5.345 0 0 5.882 32.495-46.335 32.495-48.52 0-46.335-32.495-46.335-32.495-2.28 0-6.236 2.105-12.003 5.345 0 0 7.368 40.38 58.403 40.38z" fill="#F2F2F2"/><path fill-rule="evenodd" clip-rule="evenodd" d="M413.584 238.323c-9.287 2.238-19.064 3.316-28.797 2.592-8.198-22.369-15.558-36.883-20.013-44.748v270.577s-21.102 6.71-55.866 11.111l-.544-.06c1.88-54.795 5.722-166.47 8.276-240.705 2.055-59.755 31.085-95.29 60.099-117.44-2.675 6.781-5.072 14.606-6.999 23.667 7.354 11.852 24.435 42.069 43.83 94.964.005.014.01.028.014.042zM190.717 477.795c-34.248-4.401-56.476-11.051-56.476-11.051V196.172c-4.456 7.867-11.814 22.379-20.01 44.743-9.633.716-19.3089-.332-28.5108-2.523.0051-.032.0117-.065.0199-.097 19.3769-52.848 36.3059-83.066 43.6099-94.944-1.929-9.075-4.328-16.912-7.006-23.701 29.014 22.15 58.043 57.685 60.099 117.44 2.554 74.235 6.395 185.91 8.276 240.705h-.002z" fill="#000" fill-opacity=".09"/><path opacity=".6" fill-rule="evenodd" clip-rule="evenodd" d="M332 143c0 12.703-10.297 23-23 23s-23-10.297-23-23 10.297-23 23-23 23 10.297 23 23zm-5 0c0 9.941-8.059 18-18 18s-18-8.059-18-18 8.059-18 18-18 18 8.059 18 18z" fill="#F2F2F2"/><rect x="298" y="136" width="4" height="14" rx="2" fill="#EC9666"/><rect x="316" y="136" width="4" height="14" rx="2" fill="#EC9666"/><path d="M298 135.237c0-2.637 2.508-4.553 5.052-3.859l4.896 1.335a3.995 3.995 0 002.104 0l4.896-1.335c2.544-.694 5.052 1.222 5.052 3.859v2.322c0 3.375-3.921 5.233-6.533 3.096l-1.934-1.583c-1.474-1.205-3.592-1.205-5.066 0l-1.934 1.583c-2.612 2.137-6.533.279-6.533-3.096v-2.322z" fill="#719793"/><rect x="299" y="132" width="20" height="7" rx="3.5" fill="#EC9666"/><path d="M301 144h16v8.75c0 .157-.074.306-.2.4l-7.5 5.625a.501.501 0 01-.6 0l-7.5-5.625a.4997.4997 0 01-.2-.4V144z" fill="#3D3D3D"/><path d="M303 146h6v9.988c0 .414-.475.649-.804.397l-5-3.823a.5031.5031 0 01-.196-.397V146z" fill="#F08B2E"/><rect x="306" y="131" width="6" height="10" rx="2" fill="#C4C4C4"/><path fill="#F2F2F2" d="M301 141h16v3h-16z"/></svg>