<svg xmlns="http://www.w3.org/2000/svg" width="501" height="501" fill="none"><path fill="#01100C" fill-rule="evenodd" d="M203.4 109.22h93.64v-87.3H203.4v87.3Z" clip-rule="evenodd"/><path fill="#D3D3D3" fill-rule="evenodd" d="M203.26 32.22h93.46v-14.2h-93.46v14.2Z" clip-rule="evenodd"/><path fill="#023B2C" fill-rule="evenodd" d="M249.9 57.73c-50.07 0-47.79-39.47-48.73-39.14-7.52 2.62-24.14 14.94-52.44 25.5-31.88 11.88-52.63 19.31-60.79 31.2 11.12 8.91 46.7 28.97 46.7 120.34v271.14s49.66 14.86 114.88 14.86c68.93 0 115.65-14.86 115.65-14.86V195.63c0-91.37 35.58-111.43 46.7-120.34-8.16-11.89-28.9-19.32-60.78-31.2-28.36-10.58-44.98-22.92-52.48-25.51-.93-.32 4.18 39.15-48.7 39.15Z" clip-rule="evenodd"/><path fill="#023B2C" fill-rule="evenodd" d="M87.94 75.29s-40.76 72.8-58.54 127.77c4.44 13.37 45.2 40.86 85.23 37.88 13.34-36.4 24.46-52 24.46-52s2.96-95.08-51.15-113.65Zm323.93 0s40.76 72.8 58.55 127.77c-4.45 13.37-45.21 40.86-85.24 37.88-13.33-36.4-24.45-52-24.45-52s-2.97-95.08 51.14-113.65Z" clip-rule="evenodd"/><path fill="#FEFEFE" fill-rule="evenodd" d="M467.86 195.33c.93 2.66 1.82 5.3 2.66 7.9-4.44 13.37-45.2 40.86-85.23 37.88a468.8 468.8 0 0 0-2.83-7.52c20.8-1.36 37.99-5.64 51.6-12.84 13.42-7.1 24.69-15.58 33.8-25.42Zm-435.81 0c9.1 9.82 20.36 18.29 33.77 25.39 13.61 7.2 30.83 11.48 51.64 12.84-.93 2.4-1.88 4.9-2.83 7.51-40.03 2.98-80.79-24.5-85.24-37.88.84-2.59 1.73-5.21 2.66-7.86ZM249.97 63.78c51.48 0 58.28-35.9 58.28-40.38-5.77-3.24-9.73-5.35-12-5.35 0 0 5.87 32.5-46.34 32.5-48.52 0-46.34-32.5-46.34-32.5-2.28 0-6.23 2.1-12 5.35 0 0 7.37 40.38 58.4 40.38Z" clip-rule="evenodd"/><path fill="#000" fill-opacity=".09" fill-rule="evenodd" d="M413.98 238.35a93.73 93.73 0 0 1-28.8 2.6c-8.2-22.38-15.56-36.9-20.01-44.76v270.58s-21.1 6.71-55.87 11.11l-.54-.06 8.27-240.7c2.06-59.76 31.09-95.3 60.1-117.44a148.66 148.66 0 0 0-7 23.66c7.36 11.85 24.44 42.07 43.83 94.97a1 1 0 0 1 .02.04ZM191.1 477.82c-34.25-4.4-56.48-11.05-56.48-11.05V196.2c-4.45 7.87-11.8 22.38-20 44.74a93.6 93.6 0 0 1-28.52-2.52l.02-.1c19.38-52.85 36.31-83.06 43.61-94.94a148.53 148.53 0 0 0-7-23.7c29.01 22.15 58.04 57.68 60.1 117.44 2.55 74.23 6.4 185.9 8.27 240.7Z" clip-rule="evenodd"/><path fill="#023B2C" fill-rule="evenodd" d="M309.4 123.03c6.33 1.87 11.12 2.2 14.37 1l4.63 4.93c-2.56 2.55-2.88 7.65-.95 15.29-3.35 8.03-15.63 13.28-18.06 17.78-2.43-4.5-14.7-9.75-18.05-17.78 1.93-7.64 1.61-13.07-.94-16.29l4.62-3.93c3.25 1.2 8.04.87 14.38-1Z" clip-rule="evenodd"/><path fill="#FEFEFE" fill-rule="evenodd" d="M309.4 123.03c-6.34 1.87-11.13 2.2-14.38 1l-4.63 3.93c2.56 3.22 2.88 8.65.95 16.29 1.98 4.73 7.05 8.5 11.38 11.71 2.12 1.58 4.06 3.02 5.37 4.38a8 8 0 0 1 1.3 1.69c.3-.55.75-1.12 1.3-1.7a47.74 47.74 0 0 1 5.38-4.37c4.33-3.21 9.4-6.98 11.38-11.71-1.93-7.64-1.61-12.74.94-15.29l-4.62-4.93c-3.25 1.2-8.04.87-14.38-1Zm13.76 3.27c-3.62.89-8.28.38-13.77-1.2-5.56 1.6-10.28 2.1-13.91 1.16l-2.46 2.1c2.04 3.85 1.97 9.25.43 15.7 1.57 3.21 4.86 6.07 8.47 8.81l1.94 1.45c1.2.9 2.4 1.78 3.42 2.6.74.6 1.47 1.23 2.12 1.89a25.9 25.9 0 0 1 2.11-1.88c1.02-.83 2.21-1.71 3.42-2.61l1.94-1.45c3.6-2.74 6.9-5.6 8.47-8.81-.87-3.64-1.26-6.82-1.1-9.49.13-2.07.6-3.94 1.53-5.48l-2.6-2.79Z" clip-rule="evenodd"/></svg>