<?xml version="1.0" encoding="utf-8"?><svg width="500" height="500" viewBox="0 0 500 500" fill="none" xmlns="http://www.w3.org/2000/svg"><path fill-rule="evenodd" clip-rule="evenodd" d="M203.003 109.223h93.643V21.928h-93.643v87.295Z" fill="#CFCFCF"/><path fill-rule="evenodd" clip-rule="evenodd" d="M202.863 32.228h93.459v-14.2h-93.459v14.2Z" fill="#2E2E2E"/><path fill-rule="evenodd" clip-rule="evenodd" d="M87.547 75.258S46.785 148.06 29 203.03c4.445 13.375 45.208 40.86 85.232 37.885 13.34-36.4 24.46-52 24.46-52S141.655 93.83 87.547 75.26Zm323.926 0s40.763 72.801 58.548 127.771c-4.445 13.375-45.208 40.86-85.233 37.885-13.339-36.4-24.459-52-24.459-52s-2.964-95.085 51.144-113.655Z" fill="#FF6B00"/><path fill-rule="evenodd" clip-rule="evenodd" d="M249.511 57.703c-50.081 0-47.798-39.47-48.742-39.14-7.516 2.618-24.133 14.936-52.439 25.494-31.873 11.886-52.626 19.316-60.782 31.2 11.115 8.915 46.694 28.97 46.694 120.345v271.14s49.658 14.856 114.885 14.856c68.929 0 115.649-14.856 115.649-14.856v-271.14c0-91.375 35.579-111.43 46.699-120.345-8.157-11.885-28.91-19.315-60.782-31.2-28.36-10.576-44.982-22.919-52.479-25.508-.927-.32 4.178 39.154-48.703 39.154Z" fill="#FF6B00"/><path fill-rule="evenodd" clip-rule="evenodd" d="M467.353 195.129a339.576 339.576 0 0 1 2.668 7.899c-4.445 13.375-45.208 40.86-85.232 37.885a423.236 423.236 0 0 0-2.836-7.519c20.795-1.358 37.993-5.637 51.595-12.837 13.428-7.109 24.696-15.585 33.805-25.428Zm-435.698.036c9.103 9.828 20.36 18.291 33.772 25.392 13.611 7.205 30.824 11.485 51.639 12.84a420.297 420.297 0 0 0-2.834 7.517c-40.024 2.975-80.787-24.51-85.232-37.885.836-2.585 1.723-5.21 2.655-7.864Zm276.197-171.82C302.08 20.105 298.124 18 295.844 18c0 0 5.882 32.495-46.335 32.495-48.52 0-46.335-32.495-46.335-32.495-2.28 0-6.236 2.105-12.003 5.345 0 0 7.368 40.38 58.403 40.38 51.478 0 58.278-35.895 58.278-40.38Z" fill="#3D3D3D"/><path fill-rule="evenodd" clip-rule="evenodd" d="M413.584 238.323c-9.288 2.238-19.065 3.316-28.798 2.592-8.198-22.369-15.557-36.883-20.013-44.748v270.577s-21.102 6.71-55.866 11.111l-.544-.06c1.881-54.795 5.722-166.47 8.276-240.705 2.056-59.755 31.085-95.29 60.099-117.44-2.675 6.781-5.071 14.606-6.999 23.667 7.354 11.852 24.436 42.069 43.831 94.964l.014.042ZM190.716 477.795c-34.248-4.401-56.476-11.051-56.476-11.051V196.172c-4.456 7.867-11.814 22.379-20.01 44.743-9.633.716-19.308-.332-28.51-2.524a.82.82 0 0 1 .02-.096c19.377-52.848 36.305-83.066 43.609-94.944-1.928-9.075-4.327-16.912-7.006-23.701 29.014 22.15 58.044 57.685 60.099 117.44 2.554 74.235 6.396 185.91 8.276 240.705h-.002Z" fill="#000" fill-opacity=".1"/><path fill-rule="evenodd" clip-rule="evenodd" d="M292.054 138.761c-.181.307-.396.673-.649 1.145-.164.305-.334.593-.517.897l-.09.15c-.152.253-.317.526-.472.801-.387.683-.764 1.457-1.03 2.433-.53 1.946-.546 4.444.212 8.396.677 3.53 2.461 5.72 4.771 7.106 2.147 1.287 4.701 1.84 6.865 2.308l.126.028c1.541.333 2.884.628 4.038 1.074 1.133.438 1.937.969 2.472 1.68l1.356 1.801 1.356-1.801c.536-.711 1.339-1.242 2.472-1.68 1.154-.446 2.497-.741 4.039-1.074l.126-.028c2.164-.468 4.718-1.021 6.865-2.308 2.31-1.386 4.093-3.576 4.77-7.106.758-3.952.742-6.45.212-8.396-.265-.976-.643-1.75-1.029-2.433a33.52 33.52 0 0 0-.473-.801l-.09-.15a21.04 21.04 0 0 1-.516-.897c-.253-.472-.469-.838-.65-1.145-.542-.92-.772-1.311-.772-2.435 0-2.532.576-3.865 1.136-4.606.565-.749 1.268-1.109 2.01-1.427l1.681-.72-4.769-9.181-1.518.818c-3.681 1.986-9.29 3.212-14.959 3.192-5.672-.02-11.209-1.286-14.741-3.192l-1.517-.818-4.769 9.181 1.68.72c.743.318 1.445.678 2.011 1.427.56.741 1.136 2.074 1.136 4.606 0 1.124-.231 1.515-.773 2.435Zm32.788 1.021c.168.284.347.586.53.927.216.401.436.768.652 1.126 1.256 2.086 2.331 3.87 1.073 10.428-1.168 6.092-5.951 7.128-10.453 8.103-2.359.51-4.641 1.005-6.284 2.2a5.762 5.762 0 0 0-1.224 1.192c1.59-2.111 4.485-2.738 7.508-3.392 4.502-.975 9.285-2.011 10.453-8.103 1.258-6.558.183-8.342-1.073-10.428a26.182 26.182 0 0 1-.652-1.126c-.183-.341-.362-.643-.53-.927-.619-1.042-1.094-1.842-1.094-3.456 0-5.584 2.552-6.897 4.175-7.593l-3.131-6.029 3.131 6.029a8.346 8.346 0 0 0-1.335.694c-1.403.924-2.84 2.71-2.84 6.899 0 1.614.475 2.414 1.094 3.456Zm-34.493-11.049a8.31 8.31 0 0 1 1.336.694c.069.045.138.093.207.143-.536-.387-1.077-.638-1.543-.837Z" fill="#3D3D3D"/><path d="M301.629 160.365c3.022.655 5.917 1.282 7.507 3.393 1.589-2.111 4.485-2.738 7.507-3.393 4.502-.975 9.286-2.011 10.454-8.102 1.257-6.558.183-8.343-1.074-10.429a25.545 25.545 0 0 1-.651-1.125 23.473 23.473 0 0 0-.531-.927c-.618-1.042-1.093-1.842-1.093-3.456 0-2.954 3.031-6.489 3.944-7.593l-35.073 27.158c2.042 2.965 5.606 3.737 9.01 4.474Zm-10.842-10.52c-.575-4.63.376-6.208 1.461-8.011.216-.357.437-.724.652-1.125.183-.341.362-.643.53-.927.619-1.042 1.094-1.842 1.094-3.456 0-5.584-2.552-6.897-4.175-7.593l3.131-6.029s7.799 3.411 15.783 3.395c7.887-.015 15.459-3.395 15.459-3.395l-33.935 27.141Z" fill="#F2F2F2"/><path d="M318.781 126.099c-2.582.772-5.321 1.273-9.645 1.273-9.498 0-15.249-3.42-15.249-3.42l-2.147 4.319c1.525.653 3.672 3.231 3.672 8.474 0 1.516-.445 2.267-1.026 3.246-.158.267-.327.55-.499.871-.202.377-.409.721-.611 1.057-.848 1.407-1.607 2.668-1.53 5.548l27.035-21.368Zm-24.336 30.013c1.969 1.982 4.861 2.609 7.64 3.211.539.116 1.074.215 1.597.31 2.23.41 4.244.779 5.454 2.385 1.209-1.606 3.223-1.975 5.454-2.385a50.165 50.165 0 0 0 1.596-.31c4.228-.916 8.721-1.889 9.818-7.61 1.181-6.159.172-7.835-1.008-9.794-.202-.336-.41-.68-.612-1.057a22.79 22.79 0 0 0-.498-.87c-.581-.98-1.027-1.731-1.027-3.247 0-1.049.086-1.992.236-2.833l-28.65 22.2Z" fill="#FF6B00"/></svg>