<?xml version="1.0" encoding="UTF-8"?><svg height="500" viewBox="0 0 500 500" width="500" xmlns="http://www.w3.org/2000/svg"><g fill="none" fill-rule="evenodd"><path d="M0 0h500v500H0z"/><g fill-rule="nonzero" transform="translate(29 18)"><path d="M174.003 91.223h93.643V3.928h-93.643z" fill="#a90421"/><path d="M173.864 14.228h93.458V.028h-93.458z" fill="#e0e0e0"/><g fill="#da0b30"><path d="M58.548 57.258S17.785 130.058 0 185.029c4.445 13.376 45.208 40.86 85.232 37.886 13.34-36.4 24.46-52 24.46-52s2.963-95.085-51.144-113.655M382.473 57.258s40.762 72.8 58.547 127.77c-4.445 13.376-45.208 40.86-85.232 37.886-13.34-36.4-24.46-52-24.46-52s-2.963-95.085 51.145-113.655"/><path d="M220.511 39.703c-50.082 0-47.798-39.47-48.742-39.14-7.516 2.618-24.133 14.936-52.439 25.495-31.873 11.885-52.626 19.315-60.782 31.2 11.114 8.915 46.694 28.97 46.694 120.345v271.14s49.658 14.855 114.885 14.855c68.929 0 115.648-14.855 115.648-14.855v-271.14c0-91.375 35.58-111.43 46.7-120.345-8.157-11.885-28.91-19.315-60.783-31.2C293.332 15.48 276.71 3.138 269.214.547c-.927-.318 4.177 39.156-48.703 39.156z"/></g><path d="M278.852 5.345C273.08 2.105 269.124 0 266.844 0c0 0 5.881 32.495-46.335 32.495C171.989 32.495 174.173 0 174.173 0c-2.28 0-6.235 2.105-12.002 5.345 0 0 7.368 40.38 58.402 40.38 51.479 0 58.279-35.895 58.279-40.38z" fill="#f2f2f2"/><path d="M127.717 36.127a228.422 228.422 0 0 0 7.559-3.097h.423v422.59a432.588 432.588 0 0 1-7.982-1.571zm179.58-2.775c2.54 1.072 5.2 2.14 7.982 3.192v417.39a384.643 384.643 0 0 1-7.982 1.613zm-52.545 428.992c-2.611.187-5.272.356-7.981.504V35.215c3.095-1.31 5.734-2.85 7.981-4.542zm-58.526.558a460.723 460.723 0 0 1-7.982-.506V30.75c2.27 1.707 4.911 3.258 7.982 4.57z" fill="#f2f2f2"/><circle cx="280" cy="125" fill="#fff" r="20"/></g><path d="M413.584 238.323c-9.287 2.238-19.064 3.316-28.798 2.592-8.197-22.369-15.557-36.883-20.012-44.748v270.577s-21.102 6.71-55.867 11.11l-.544-.059c1.881-54.795 5.722-166.47 8.277-240.705 2.055-59.755 31.084-95.29 60.099-117.44-2.676 6.78-5.072 14.606-7 23.667 7.354 11.852 24.436 42.069 43.831 94.964l.014.042zM190.717 477.795c-34.248-4.401-56.477-11.05-56.477-11.05V196.171c-4.456 7.867-11.813 22.38-20.01 44.743-9.632.716-19.308-.332-28.51-2.523.005-.033.012-.065.02-.097 19.377-52.848 36.305-83.066 43.61-94.944-1.93-9.075-4.328-16.912-7.007-23.701 29.015 22.15 58.044 57.685 60.1 117.44 2.554 74.235 6.395 185.91 8.276 240.705z" fill="#000" fill-opacity=".1"/><circle cx="309" cy="143" fill="#fff" r="20"/></g></svg>