<?xml version="1.0" encoding="utf-8"?><svg width="500" height="500" viewBox="0 0 500 500" fill="none" xmlns="http://www.w3.org/2000/svg"><path fill-rule="evenodd" clip-rule="evenodd" d="M203.006 109.193h93.643V21.8981h-93.643v87.2949z" fill="#294AA1"/><path fill-rule="evenodd" clip-rule="evenodd" d="M202.866 32.198h93.459v-14.2h-93.459v14.2z" fill="#D1D1D1"/><path fill-rule="evenodd" clip-rule="evenodd" d="M249.514 57.7057c-50.081 0-47.798-39.4691-48.742-39.14-7.516 2.6186-24.133 14.9368-52.439 25.495-31.873 11.885-52.6257 19.315-60.7822 31.2 11.1148 8.915 46.6942 28.9703 46.6942 120.3453v271.14s49.658 14.855 114.885 14.855c68.929 0 115.649-14.855 115.649-14.855v-271.14c0-91.375 35.579-111.4303 46.699-120.3453-8.157-11.885-28.91-19.315-60.783-31.2-28.359-10.5767-44.981-22.9195-52.478-25.5087-.927-.3203 4.178 39.1537-48.703 39.1537z" fill="#3B61C2"/><path fill-rule="evenodd" clip-rule="evenodd" d="M87.5505 75.26s-40.7628 72.8-58.5476 127.77c4.445 13.375 45.2078 40.86 85.2321 37.885 13.34-36.4 24.46-52 24.46-52S141.658 93.83 87.5505 75.26zm323.9255 0s40.763 72.8 58.547 127.77c-4.445 13.375-45.207 40.86-85.232 37.885-13.34-36.4-24.459-52-24.459-52S357.368 93.83 411.476 75.26z" fill="#3B61C2"/><path fill-rule="evenodd" clip-rule="evenodd" d="M467.462 195.3c.936 2.666 1.827 5.303 2.667 7.899-4.445 13.375-45.208 40.86-85.232 37.885-.958-2.613-1.904-5.119-2.835-7.519 20.795-1.358 37.993-5.637 51.594-12.838 13.428-7.108 24.697-15.584 33.806-25.427zm-435.8073 0c9.1031 9.827 20.3606 18.291 33.7724 25.391 13.6109 7.206 30.8241 11.486 51.6389 12.84-.931 2.4-1.877 4.905-2.834 7.517-40.0243 2.975-80.7871-24.51-85.232-37.885.8363-2.585 1.7234-5.209 2.6547-7.863zM249.577 63.7515c51.478 0 58.278-35.895 58.278-40.38-5.772-3.24-9.728-5.345-12.008-5.345 0 0 5.882 32.495-46.335 32.495-48.52 0-46.335-32.495-46.335-32.495-2.28 0-6.236 2.105-12.003 5.345 0 0 7.368 40.38 58.403 40.38z" fill="#F2F2F2"/><path fill-rule="evenodd" clip-rule="evenodd" d="M413.584 238.323c-9.288 2.238-19.065 3.316-28.798 2.592-8.198-22.369-15.557-36.883-20.013-44.748v270.577s-21.102 6.71-55.866 11.111l-.544-.06c1.881-54.795 5.722-166.47 8.276-240.705 2.056-59.755 31.085-95.29 60.099-117.44-2.675 6.781-5.071 14.606-6.999 23.667 7.354 11.852 24.436 42.069 43.831 94.964.005.014.01.028.014.042zM190.716 477.795c-34.248-4.401-56.476-11.051-56.476-11.051V196.172c-4.456 7.867-11.814 22.379-20.01 44.743-9.633.716-19.3084-.332-28.5103-2.523.0051-.032.0117-.065.0199-.097 19.3774-52.848 36.3054-83.066 43.6094-94.944-1.928-9.075-4.327-16.912-7.006-23.701 29.014 22.15 58.044 57.685 60.099 117.44 2.554 74.235 6.396 185.91 8.276 240.705h-.002z" fill="#000" fill-opacity=".09"/><path fill-rule="evenodd" clip-rule="evenodd" d="M309 166c12.703 0 23-10.297 23-23s-10.297-23-23-23-23 10.297-23 23 10.297 23 23 23z" fill="#F2F2F2"/><path fill-rule="evenodd" clip-rule="evenodd" d="M309 164c11.598 0 21-9.402 21-21s-9.402-21-21-21-21 9.402-21 21 9.402 21 21 21z" fill="#3D65CC"/><path fill-rule="evenodd" clip-rule="evenodd" d="M309 157c7.732 0 14-6.268 14-14s-6.268-14-14-14-14 6.268-14 14 6.268 14 14 14z" fill="#F2F2F2"/><path opacity=".4" d="M326.733 149.837c.818-2.121 1.267-4.427 1.267-6.837 0-10.493-8.507-19-19-19s-19 8.507-19 19c0 2.41.449 4.716 1.267 6.837l3.043-.487c-.843-1.946-1.31-4.094-1.31-6.35 0-8.837 7.163-16 16-16s16 7.163 16 16c0 2.256-.467 4.404-1.31 6.35l3.043.487z" fill="#F2F2F2"/><path fill="#E5E5E5" d="M319.866 152.693l7.133.4925-.1665 2.9943-7.133-.4925zm-21.65 0l-7.1342.4926.1666 2.9943 7.1342-.4926z"/><path d="M319.865 152.699l3.5 1.301-.897 2h-3.142l.539-3.301zm-21.631 0l-3.59 1.301.897 2h3.142l-.449-3.301z" fill="#C4C4C4"/><path d="M294.644 154s1.641.033 2.692 0c4.609-.145 7.058-2 11.668-2 4.61 0 7.06 1.855 11.668 2 1.051.033 2.693 0 2.693 0v3s-1.642.033-2.693 0c-4.608-.145-7.058-2-11.668-2-4.61 0-7.059 1.855-11.668 2-1.051.033-2.692 0-2.692 0v-3z" fill="#E5E5E5"/><rect x="297" y="135" width="8" height="16" rx="2" fill="#CBD5ED"/><rect x="313" y="135" width="8" height="16" rx="2" fill="#CBD5ED"/><path d="M313.876 137c.421 6.085-.025 7.836-4.598 10.741L309 148l-.279-.259c-4.572-2.906-5.018-4.657-4.597-10.741h9.752z" fill="#3D65CC"/></svg>