<?xml version="1.0" encoding="utf-8"?><svg width="500" height="500" viewBox="0 0 500 500" fill="none" xmlns="http://www.w3.org/2000/svg"><path fill-rule="evenodd" clip-rule="evenodd" d="M203.003 109.223h93.644V21.928h-93.644v87.295Z" fill="#CFCFCF"/><path fill-rule="evenodd" clip-rule="evenodd" d="M202.864 32.228h93.458v-14.2h-93.458v14.2Z" fill="#D9D9D9"/><path fill-rule="evenodd" clip-rule="evenodd" d="M87.547 75.258S46.785 148.06 29 203.03c4.445 13.375 45.208 40.86 85.232 37.885 13.34-36.4 24.46-52 24.46-52S141.655 93.83 87.547 75.26Zm323.925 0s40.763 72.801 58.548 127.771c-4.445 13.375-45.208 40.86-85.232 37.885-13.34-36.4-24.46-52-24.46-52s-2.963-95.085 51.144-113.655Z" fill="#C73336"/><path fill-rule="evenodd" clip-rule="evenodd" d="M249.511 57.703c-50.082 0-47.798-39.47-48.743-39.14-7.516 2.618-24.132 14.936-52.438 25.494-31.873 11.886-52.626 19.316-60.783 31.2 11.115 8.915 46.695 28.97 46.695 120.345v271.14s49.657 14.856 114.885 14.856c68.929 0 115.648-14.856 115.648-14.856v-271.14c0-91.375 35.58-111.43 46.699-120.345-8.156-11.885-28.909-19.315-60.782-31.2-28.36-10.576-44.982-22.919-52.478-25.508-.927-.32 4.177 39.154-48.703 39.154Z" fill="#C73336"/><path fill-rule="evenodd" clip-rule="evenodd" d="M113.823 94.436c7.056 8.939 12.121 19.734 15.753 30.785L78.378 236.376a123.106 123.106 0 0 1-25.39-11.186l60.835-130.755Zm271.468 0 60.834 130.754a123.162 123.162 0 0 1-25.38 11.183l-51.192-111.198c3.631-11.035 8.691-21.813 15.738-30.74ZM265.462 56.275c15.676-3.094 23.748-10.752 27.937-18.367v441.644a478.805 478.805 0 0 1-27.937 1.768V56.275Zm58.867-23.88c7.325 3.753 16.071 7.824 26.363 11.663l1.574.586v425.441c-6.829 1.637-16.283 3.657-27.937 5.546V32.395Zm-89.797 448.958a460.4 460.4 0 0 1-27.937-1.79V37.808c4.477 7.684 12.681 15.434 27.937 18.512v425.033Zm-58.867-5.74c-11.439-1.847-20.935-3.817-27.936-5.43V44.282l.601-.224c10.751-4.01 19.815-8.274 27.335-12.164v443.719Z" fill="#F2F2F2"/><path fill-rule="evenodd" clip-rule="evenodd" d="M467.353 195.129a339.495 339.495 0 0 1 2.667 7.899c-4.445 13.375-45.208 40.86-85.232 37.885a431.342 431.342 0 0 0-2.835-7.519c20.795-1.358 37.993-5.637 51.594-12.837 13.428-7.109 24.697-15.585 33.806-25.428Zm-435.698.036c9.103 9.828 20.36 18.291 33.772 25.392 13.611 7.205 30.824 11.485 51.639 12.84a420.297 420.297 0 0 0-2.834 7.517c-40.024 2.975-80.787-24.51-85.232-37.885.836-2.585 1.723-5.21 2.655-7.864Zm276.196-171.82c-5.772-3.24-9.728-5.345-12.007-5.345 0 0 5.881 32.495-46.336 32.495-48.52 0-46.335-32.495-46.335-32.495-2.28 0-6.236 2.105-12.003 5.345 0 0 7.369 40.38 58.403 40.38 51.479 0 58.278-35.895 58.278-40.38Z" fill="#F2F2F2"/><path fill-rule="evenodd" clip-rule="evenodd" d="M413.584 238.323c-9.287 2.238-19.064 3.316-28.797 2.592-8.198-22.369-15.558-36.883-20.013-44.748v270.577s-21.102 6.71-55.866 11.111l-.544-.06c1.88-54.795 5.722-166.47 8.276-240.705 2.055-59.755 31.085-95.29 60.099-117.44-2.675 6.781-5.072 14.606-6.999 23.667 7.354 11.852 24.435 42.069 43.83 94.964l.014.042ZM190.717 477.795c-34.248-4.401-56.476-11.051-56.476-11.051V196.172c-4.456 7.867-11.814 22.379-20.01 44.743-9.633.716-19.309-.332-28.51-2.524a.547.547 0 0 1 .02-.096c19.376-52.848 36.305-83.066 43.609-94.944-1.929-9.075-4.328-16.912-7.006-23.701 29.014 22.15 58.043 57.685 60.099 117.44 2.554 74.235 6.395 185.91 8.276 240.705h-.002Z" fill="#000" fill-opacity=".1"/><path fill-rule="evenodd" clip-rule="evenodd" d="M309 165c18.778 0 34-9.402 34-21s-15.222-21-34-21-34 9.402-34 21 15.222 21 34 21Z" fill="#F2F2F2"/><rect width="8.322" height="20.285" rx="4.161" transform="scale(-1 1) rotate(30 -411.55 -538.878)" fill="#211E1E"/><rect x="294.39" y="133.579" width="8.322" height="20.285" rx="4.161" transform="rotate(30 294.39 133.579)" fill="#211E1E"/><path d="M297.864 133c.52.433 1.56 1.924 1.56 4.421v11.703c0 2.341 2.341 5.461 5.462 5.461 3.12 0 4.681 1.041 4.681 2.861 0-1.82 1.56-2.861 4.681-2.861s5.461-3.12 5.461-5.461v-11.703c0-2.497 1.041-3.988 1.561-4.421h-23.406Z" fill="#fff"/><path d="M309.566 133v9.622h-10.142v-5.201c0-2.497-1.041-3.988-1.561-4.421h11.703Zm10.142 11.703h-10.142v12.744c0-1.821 1.56-2.861 4.681-2.861s5.461-3.121 5.461-5.462v-4.421Z" fill="#EA2531"/><path d="M319.709 142.623h-20.285v2.08h20.285v-2.08Z" fill="#A58836"/><path d="M310.461 154.892a3.08 3.08 0 0 0-.895.828 3.088 3.088 0 0 0-.894-.828c-.9-.562-2.183-.827-3.787-.827-1.38 0-2.614-.69-3.516-1.682-.908-1-1.425-2.245-1.425-3.259v-11.703c0-1.746-.482-3.057-.997-3.901h21.238c-.515.844-.996 2.155-.996 3.901v11.703c0 1.014-.517 2.259-1.425 3.259-.902.992-2.137 1.682-3.517 1.682-1.603 0-2.887.265-3.786.827Z" stroke="#292727" stroke-width="1.04"/></svg>