<?xml version="1.0" encoding="UTF-8"?><svg width="500" height="500" viewBox="0 0 500 500" fill="none" xmlns="http://www.w3.org/2000/svg"><path fill-rule="evenodd" clip-rule="evenodd" d="M203.006 109.193h93.643V21.8979h-93.643v87.2951z" fill="#B5B5B5"/><path fill-rule="evenodd" clip-rule="evenodd" d="M202.866 32.198h93.459v-14.2h-93.459v14.2z" fill="#3B83A2"/><path fill-rule="evenodd" clip-rule="evenodd" d="M411.476 75.2598S452.239 148.06 470.023 203.03c-4.445 13.375-45.207 40.86-85.232 37.885-13.34-36.4-24.459-52-24.459-52s-2.964-95.0852 51.144-113.6552z" fill="#63B9DE"/><path fill-rule="evenodd" clip-rule="evenodd" d="M249.514 57.7054c-50.081 0-47.798-39.4691-48.742-39.14-7.516 2.6187-24.133 14.9368-52.439 25.495-31.873 11.885-52.6257 19.315-60.7822 31.2 11.1148 8.915 46.6942 28.9696 46.6942 120.3446v271.14S183.903 481.6 249.13 481.6c68.929 0 115.649-14.855 115.649-14.855v-271.14c0-91.375 35.579-111.4296 46.699-120.3446-8.157-11.885-28.91-19.315-60.783-31.2-28.359-10.5767-44.981-22.9194-52.478-25.5087-.927-.3202 4.178 39.1537-48.703 39.1537z" fill="#27497C"/><path fill-rule="evenodd" clip-rule="evenodd" d="M87.5505 75.2598S46.7877 148.06 29.0029 203.03c4.445 13.375 45.2078 40.86 85.2321 37.885 13.34-36.4 24.46-52 24.46-52s2.963-95.0852-51.1445-113.6552z" fill="#27497C"/><path fill-rule="evenodd" clip-rule="evenodd" d="M134.244 236.979l230.534.44v229.293s-45.425 14.444-112.776 14.847V57.6425c-.815.0198-1.644.0298-2.489.0298-50.081 0-47.798-39.4691-48.742-39.14-7.516 2.6187-24.133 14.9368-52.439 25.495-31.873 11.885-52.6256 19.315-60.7822 31.2 11.1149 8.915 46.6942 28.9697 46.6942 120.3447v41.407zm-14.262-10.881c-1.849 4.494-3.775 9.427-5.75 14.816-40.0243 2.975-80.7871-24.51-85.232-37.885 1.7572-5.432 3.7388-11.037 5.8832-16.729 10.2695 10.965 22.7409 19.794 37.4143 26.489 14.6578 6.687 30.5525 11.123 47.6845 13.309z" fill="#63B9DE"/><path fill-rule="evenodd" clip-rule="evenodd" d="M379.205 226.098c17.132-2.186 33.027-6.622 47.684-13.309 14.674-6.695 27.145-15.524 37.415-26.489 2.144 5.692 4.126 11.297 5.883 16.729-4.445 13.375-45.208 40.86-85.232 37.885-1.975-5.389-3.901-10.322-5.75-14.816z" fill="#27497C"/><path fill-rule="evenodd" clip-rule="evenodd" d="M249.577 63.7514c51.478 0 58.278-35.895 58.278-40.38-5.772-3.24-9.728-5.345-12.008-5.345 0 0 5.882 32.495-46.335 32.495-48.52 0-46.335-32.495-46.335-32.495-2.28 0-6.236 2.105-12.003 5.345 0 0 7.368 40.38 58.403 40.38z" fill="#4794B5"/><path fill-rule="evenodd" clip-rule="evenodd" d="M413.584 238.323c-9.288 2.238-19.065 3.316-28.798 2.593-8.198-22.369-15.557-36.883-20.013-44.749v270.578s-21.102 6.709-55.866 11.11c-.182-.02-.363-.039-.544-.06 1.881-54.795 5.722-166.47 8.276-240.705 2.056-59.755 31.085-95.29 60.099-117.44-2.675 6.781-5.071 14.607-6.999 23.668 7.354 11.851 24.436 42.068 43.831 94.964.005.014.01.027.014.041zM190.716 477.796c-34.248-4.402-56.476-11.051-56.476-11.051V196.173c-4.456 7.866-11.814 22.379-20.01 44.743-9.633.716-19.3084-.333-28.5103-2.524.0051-.032.0117-.064.0199-.097 19.3774-52.847 36.3054-83.066 43.6094-94.943-1.928-9.076-4.327-16.913-7.006-23.702 29.014 22.15 58.044 57.685 60.099 117.44 2.554 74.235 6.396 185.91 8.276 240.705l-.002.001z" fill="#000" fill-opacity=".06"/><path fill-rule="evenodd" clip-rule="evenodd" d="M309 166c12.703 0 23-10.297 23-23s-10.297-23-23-23-23 10.297-23 23 10.297 23 23 23z" fill="#42BDF1"/><path fill-rule="evenodd" clip-rule="evenodd" d="M309 164c11.598 0 21-9.402 21-21s-9.402-21-21-21-21 9.402-21 21 9.402 21 21 21z" fill="#27497C"/><path fill-rule="evenodd" clip-rule="evenodd" d="M309 158c8.284 0 15-6.716 15-15 0-8.284-6.716-15-15-15-8.284 0-15 6.716-15 15 0 8.284 6.716 15 15 15z" fill="#F2F2F2"/><path fill-rule="evenodd" clip-rule="evenodd" d="M309 156c7.18 0 13-5.82 13-13s-5.82-13-13-13-13 5.82-13 13 5.82 13 13 13z" fill="#42BDF1"/><path d="M315.001 142.425l-5.741-2.925c.64-1.805-.142-3.848-1.895-4.741-1.906-.971-4.238-.213-5.21 1.693l-.114.225c-.546 1.07-.546 2.275-.104 3.298-.042.072-.083.146-.121.221-1.003 1.968-.221 4.377 1.748 5.38l4.725 2.408-.388.761c-.544 1.067-.119 2.373.948 2.917 1.067.543 2.372.119 2.916-.948l.432-.848c1.773.454 3.686-.362 4.552-2.061 1.002-1.968.22-4.377-1.748-5.38z" fill="#F2F2F2"/></svg>