<?xml version="1.0" encoding="UTF-8"?><svg height="500" viewBox="0 0 500 500" width="500" xmlns="http://www.w3.org/2000/svg"><g fill="none" fill-rule="evenodd"><path d="M203.006 109.193h93.643V21.898h-93.643z" fill="silver"/><path d="M202.867 32.198h93.458v-14.2h-93.458z" fill="#363636"/><g fill="#3d3d3d"><path d="M87.55 75.26s-40.762 72.8-58.547 127.77c4.445 13.375 45.208 40.86 85.232 37.885 13.34-36.4 24.46-52 24.46-52S141.658 93.83 87.55 75.26M411.476 75.26s40.762 72.8 58.547 127.77c-4.445 13.375-45.208 40.86-85.232 37.885-13.34-36.4-24.46-52-24.46-52S357.368 93.83 411.476 75.26"/><path d="M249.514 57.706c-50.082 0-47.798-39.47-48.742-39.14-7.516 2.618-24.133 14.936-52.439 25.495-31.873 11.885-52.626 19.315-60.782 31.2 11.114 8.915 46.694 28.97 46.694 120.345v271.14S183.903 481.6 249.13 481.6c68.929 0 115.648-14.855 115.648-14.855v-271.14c0-91.375 35.58-111.43 46.7-120.345-8.157-11.885-28.91-19.315-60.783-31.2-28.36-10.577-44.982-22.92-52.478-25.511-.927-.318 4.177 39.156-48.703 39.156z"/></g><path d="M277 52.64c23.414-10.628 20.497-34.37 21.217-34.125 6.598 2.283 20.265 12.117 42.783 21.653v432.384c-15.28 3.13-37.264 6.653-64 8.207zm-54 428.15c-26.04-1.532-48.29-5.07-64-8.216V39.754c21.893-9.386 35.254-18.95 41.772-21.224.731-.252-.474 23.376 22.228 34.038z" fill="#f2f2f2"/><path d="M249.576 63.752c51.479 0 58.279-35.895 58.279-40.38-5.772-3.24-9.728-5.345-12.008-5.345 0 0 5.881 32.495-46.335 32.495-48.52 0-46.336-32.495-46.336-32.495-2.28 0-6.235 2.105-12.002 5.345 0 0 7.368 40.38 58.402 40.38" fill="#3d3d3d"/><circle cx="309.003" cy="142.998" fill="#000" r="22"/><circle cx="309.003" cy="142.998" fill="#fff" r="21"/><circle cx="309.003" cy="142.998" fill="#000" r="20"/><circle cx="309.003" cy="142.998" fill="#fff" r="14"/><g><path d="M294.875 140.155c1.82-2.018 4.31-3.185 7.467-3.502 4.737-.475 7.442.461 11.49-.401 2.7-.575 4.763-1.79 6.193-3.643.701 7.122 1.534 11.906 2.498 14.353-1.771 2.326-3.573 3.63-5.407 3.915-2.75.426-8.368-.28-12.43.434-2.707.475-4.736 1.413-6.087 2.813z" fill="#000"/><path d="M295.771 140.559c1.55-1.56 3.838-2.478 6.864-2.756 4.538-.416 7.125.352 11.006-.384 2.587-.491 4.57-1.512 5.947-3.064.44 4.76 1.106 8.898 1.999 12.413-1.457 1.637-3.064 2.578-4.821 2.823-2.636.367-7.687-.047-11.58.564-2.595.408-4.628 1.116-6.1 2.123z" fill="#fff"/><g fill="#000" fill-rule="nonzero"><path d="M296.029 141.603c1.586-1.478 3.475-2.411 5.682-2.805 1.4-.25 2.781-.278 6.177-.21l.484.01c3.005.058 4.62.015 6.172-.248 1.661-.28 2.8-.791 3.82-1.583.255-.197.94-.79 1.017-.852.342-.275.595-.414.9-.48l-.32-1.466c-.564.124-1.013.369-1.52.777-.11.088-.781.67-.996.836-.828.642-1.738 1.05-3.15 1.29-1.43.24-2.983.282-5.894.226l-.483-.01c-3.507-.07-4.935-.041-6.47.233-2.49.445-4.643 1.508-6.442 3.185z"/><path d="M296.975 144.616c.969-1.24 2.524-2.062 4.703-2.451 1.399-.25 2.72-.276 5.944-.202l.615.014c2.725.059 4.29.014 5.813-.243 1.759-.298 3.134-.833 4.416-1.615.313-.19 1.853-1.263 2.166-1.4l-.603-1.374c-.47.207-2.143 1.371-2.344 1.493-1.125.686-2.321 1.152-3.885 1.416-1.401.237-2.898.28-5.53.224l-.614-.014c-3.333-.077-4.706-.05-6.242.224-2.518.45-4.404 1.447-5.62 3.005zM297.705 147.612c.088-.052.174-.106.259-.162.239-.158.365-.252.755-.553.927-.72 1.562-1.026 3.256-1.4 1.19-.263 2.463-.288 5.833-.206.505.012.793.019 1.108.025 2.417.047 3.996-.007 5.401-.244 1.75-.296 3.197-.81 4.584-1.542.506-.267 2.12-1.245 2.413-1.374l-.602-1.374c-.402.176-2.084 1.195-2.51 1.421a13.317 13.317 0 0 1-4.135 1.39c-1.287.217-2.793.268-5.122.223-.312-.006-.598-.012-1.1-.025-3.518-.085-4.833-.059-6.193.241-1.917.423-2.754.828-3.852 1.679a9.235 9.235 0 0 1-.661.486 5.538 5.538 0 0 1-.204.128z"/><path d="M298.467 151.015c.005-.004.75-.626.941-.776.841-.661 1.582-1.01 3.065-1.357.86-.2 1.897-.246 5.17-.287 2.343-.03 3.625-.065 5.093-.164 1.307-.089 2.49-.22 3.58-.407.694-.046 1.524-.371 2.486-.929.424-.246.86-.529 1.38-.887a98.51 98.51 0 0 1 1.725-1.195l-.807-1.264a94.568 94.568 0 0 0-1.77 1.224c-.49.338-.896.601-1.28.825-.782.453-1.422.703-1.914.739a35.172 35.172 0 0 1-3.501.397c-1.433.097-2.694.132-5.01.16-3.434.044-4.474.09-5.492.328-1.694.394-2.636.838-3.652 1.638-.211.166-.977.805-.966.796z"/></g><path d="M295.771 140.559c.807 2.777 1.212 4.233 1.217 4.37 2.269-1.704 5.242-2.476 8.918-2.317l-.687-4.92c-3.546-.257-6.695.7-9.448 2.867z" fill="#fff"/></g><path d="M413.584 238.323c-9.287 2.238-19.064 3.316-28.798 2.592-8.197-22.369-15.557-36.883-20.012-44.748v270.577s-21.102 6.71-55.867 11.11l-.544-.059c1.881-54.795 5.722-166.47 8.277-240.705 2.055-59.755 31.084-95.29 60.099-117.44-2.676 6.78-5.072 14.606-7 23.667 7.354 11.852 24.436 42.069 43.831 94.964l.014.042zM190.717 477.795c-34.248-4.401-56.477-11.05-56.477-11.05V196.171c-4.456 7.867-11.813 22.38-20.01 44.743-9.632.716-19.308-.332-28.51-2.523.005-.033.012-.065.02-.097 19.377-52.848 36.305-83.066 43.61-94.944-1.93-9.075-4.328-16.912-7.007-23.701 29.015 22.15 58.044 57.685 60.1 117.44 2.554 74.235 6.395 185.91 8.276 240.705z" fill="#000" fill-opacity=".1"/></g></svg>