<?xml version="1.0" encoding="UTF-8"?><svg height="500" viewBox="0 0 500 500" width="500" xmlns="http://www.w3.org/2000/svg"><g fill="none" fill-rule="evenodd"><path d="M203.006 109.193h93.643V21.898h-93.643z" fill="silver"/><path d="M202.867 32.198h93.458v-14.2h-93.458z" fill="#d9d9d9"/><path d="M87.547 75.26S46.785 148.06 29 203.031c4.445 13.375 45.207 40.86 85.232 37.886 13.34-36.4 24.46-52 24.46-52S141.653 93.83 87.546 75.26M411.473 75.26s40.762 72.8 58.547 127.771c-4.445 13.375-45.207 40.86-85.232 37.886-13.34-36.4-24.46-52-24.46-52S357.367 93.83 411.474 75.26" fill="#3d3d3d"/><path d="M249.514 57.706c-50.082 0-47.799-39.47-48.743-39.14-7.516 2.618-24.133 14.936-52.439 25.495-31.872 11.885-52.625 19.315-60.782 31.2 11.115 8.915 46.694 28.97 46.694 120.345v271.14S183.902 481.6 249.13 481.6c68.93 0 115.649-14.855 115.649-14.855v-271.14c0-91.375 35.58-111.43 46.7-120.345-8.157-11.885-28.91-19.315-60.783-31.2-28.36-10.577-44.982-22.92-52.478-25.511-.928-.318 4.177 39.156-48.703 39.156z" fill="#3d3d3d"/><g fill="#f2f2f2"><path d="M260.78 57h.97v424.402a480.52 480.52 0 0 1-12.62.166c-4.367 0-8.663-.067-12.88-.191V57h2.551c3.275.436 6.837.673 10.713.673 4.092 0 7.838-.237 11.265-.673zm97.72 411.489c-5.138 1.358-13.299 3.332-24 5.337V70h15.376c3.433 3.36 6.316 6.679 8.624 9.831zm-49.5 9.323a470.827 470.827 0 0 1-25.5 2.525V50H309zm-94.5 2.4a473.185 473.185 0 0 1-25.5-2.673V50h25.5zm-51-6.761c-10.824-2.05-19.065-4.028-24-5.305V81.242c2.455-3.565 5.677-7.377 9.626-11.242H163.5z"/><path d="M295.953 36.947a40.77 40.77 0 0 1-.272 2.179c6.43 1.23 22.22 14.397 51.58 25.727 17.238 6.65 35.73 21.517 40.166 34.146-5.141 7.517-10.15 17.306-14.144 30.248-8.064-8.264-18.91-16.83-32.263-24.404v-28c-18.45-10.463-41.69-19.03-68.999-22.284 12.27-3.969 18.7-11.148 22.099-18.06.613.147 1.224.296 1.833.448zm-184.31 62.12c2.537-6.37 5.87-11.522 9.782-15.794a135.965 135.965 0 0 1 3.357-3.334c7.684-6.95 17.098-11.291 26.934-15.086 29.359-11.33 45.835-24.635 52.265-25.865-.118-.787-.22-1.51-.307-2.167.701-.173 1.406-.343 2.114-.509 3.63 6.923 10.136 14.148 21.976 18.169-28.73 3.325-52.983 12.531-71.929 23.67v28c-12.36 7.267-22.46 15.356-30.071 23.171-3.986-12.94-8.985-22.731-14.12-30.254z"/><path d="M75.025 117.298c10.132-20.75 17.944-35.245 17.944-35.245 7.882-11.885 27.937-19.315 58.747-31.2 29.359-11.33 45.835-24.635 52.265-25.865-.678-4.5-.798-6.882-.804-6.97-5.927 0-22.98 14.025-54.853 25.91-31.868 11.89-52.62 19.315-60.772 31.2 0 0-8.232 14.76-18.858 35.825C49.557 149.176 36.326 179.867 29 203.027c.3 1.058 1.008 2.41 2.123 4.056s2.05 2.777 2.807 3.396c8.386-23.684 22.084-54.745 41.095-93.18zM423.965 117.322c-10.132-20.75-17.958-35.269-17.958-35.269-7.882-11.885-27.936-19.315-58.747-31.2-29.358-11.33-45.149-24.497-51.58-25.727.68-4.5.326-6.505.19-7.038 5.926 0 22.91 13.955 54.783 25.84 31.867 11.89 52.62 19.315 60.772 31.2 0 0 8.231 14.76 18.857 35.825 18.39 36.305 31.635 66.996 39.738 92.074-.491 1.317-.977 2.346-1.457 3.088-.481.741-1.276 1.804-2.385 3.188-18.428-43.992-32.498-74.652-42.213-91.98z"/><path d="M467.461 195.302a338.826 338.826 0 0 1 2.668 7.9c-4.445 13.375-45.208 40.86-85.232 37.885a426.405 426.405 0 0 0-2.836-7.52c20.795-1.358 37.993-5.637 51.595-12.837 13.428-7.11 24.696-15.585 33.805-25.428zM31.655 195.302c9.103 9.828 20.36 18.291 33.772 25.392 13.611 7.205 30.824 11.485 51.64 12.84a426.42 426.42 0 0 0-2.835 7.516C74.208 244.025 33.445 216.54 29 203.165c.836-2.584 1.723-5.209 2.655-7.863zM249.576 63.752c51.479 0 58.279-35.895 58.279-40.38-5.772-3.24-9.728-5.345-12.008-5.345 0 0 5.881 32.495-46.335 32.495-48.52 0-46.336-32.495-46.336-32.495-2.28 0-6.235 2.105-12.002 5.345 0 0 7.368 40.38 58.402 40.38"/><path d="M113.823 94.435c7.057 8.94 12.121 19.735 15.753 30.786L78.378 236.376a123.123 123.123 0 0 1-25.39-11.186l60.835-130.755zM385.291 94.435l60.834 130.755a123.124 123.124 0 0 1-25.38 11.183l-51.192-111.198c3.631-11.035 8.691-21.813 15.738-30.74z"/></g><g><path d="M330.682 161.324c-9.613 2.117-16.84 3.176-21.682 3.176s-12.07-1.059-21.682-3.176V155.5c9.386 2.118 16.613 3.176 21.682 3.176s12.296-1.058 21.682-3.176z" fill="#00b5f4"/><path d="M293.109 119.5h31.846c-3.981 11.429 0 17.143 0 20.81 0 15.38-15.923 15.38-15.923 19.19 0-3.81-15.923-3.81-15.923-19.08 0-3.777 3.98-9.491 0-20.92z" fill="#f1b92b"/><path d="M295.099 121.5h27.865c-3.483 10.286 0 15.429 0 18.729 0 13.842-13.932 13.842-13.932 17.271 0-3.429-13.933-3.429-13.933-17.172 0-3.4 3.483-8.542 0-18.828z" fill="#231f20"/><path d="M309.032 121.5h13.932c-3.483 10.286 0 15.429 0 18.729 0 13.842-13.932 13.842-13.932 17.271v-36z" fill="#fff"/></g><path d="M413.584 238.323c-9.287 2.238-19.064 3.316-28.798 2.592-8.197-22.369-15.557-36.883-20.012-44.748v270.577s-21.102 6.71-55.867 11.11l-.544-.059c1.881-54.795 5.722-166.47 8.277-240.705 2.055-59.755 31.084-95.29 60.099-117.44-2.676 6.78-5.072 14.606-7 23.667 7.354 11.852 24.436 42.069 43.831 94.964l.014.042zM190.717 477.795c-34.248-4.401-56.477-11.05-56.477-11.05V196.171c-4.456 7.867-11.813 22.38-20.01 44.743-9.632.716-19.308-.332-28.51-2.523.005-.033.012-.065.02-.097 19.377-52.848 36.305-83.066 43.61-94.944-1.93-9.075-4.328-16.912-7.007-23.701 29.015 22.15 58.044 57.685 60.1 117.44 2.554 74.235 6.395 185.91 8.276 240.705z" fill="#000" fill-opacity=".1"/></g></svg>