<?xml version="1.0" encoding="UTF-8"?><svg width="500" height="500" viewBox="0 0 500 500" fill="none" xmlns="http://www.w3.org/2000/svg"><path fill-rule="evenodd" clip-rule="evenodd" d="M203.006 109.193h93.643V21.8979h-93.643v87.2951z" fill="#C7C7C7"/><path fill-rule="evenodd" clip-rule="evenodd" d="M202.866 32.198h93.459v-14.2h-93.459v14.2z" fill="#D1D1D1"/><path fill-rule="evenodd" clip-rule="evenodd" d="M87.5505 75.2603S46.7877 148.06 29.0029 203.03c4.445 13.375 45.2078 40.86 85.2321 37.885 13.34-36.4 24.46-52 24.46-52s2.963-95.0847-51.1445-113.6547zm323.9255 0S452.239 148.06 470.023 203.03c-4.445 13.375-45.207 40.86-85.232 37.885-13.34-36.4-24.459-52-24.459-52s-2.964-95.0847 51.144-113.6547z" fill="#DC2D2D"/><path fill-rule="evenodd" clip-rule="evenodd" d="M249.514 57.7054c-50.081 0-47.798-39.4691-48.742-39.14-7.516 2.6187-24.133 14.9368-52.439 25.495-31.873 11.885-52.6257 19.315-60.7822 31.2 11.1148 8.915 46.6942 28.9696 46.6942 120.3446v271.14S183.903 481.6 249.13 481.6c68.929 0 115.649-14.855 115.649-14.855v-271.14c0-91.375 35.579-111.4296 46.699-120.3446-8.157-11.885-28.91-19.315-60.783-31.2-28.359-10.5767-44.981-22.9194-52.478-25.5087-.927-.3202 4.178 39.1537-48.703 39.1537z" fill="#DC2D2D"/><path fill-rule="evenodd" clip-rule="evenodd" d="M170.746 474.791c-5.456-.995-10.395-2.003-14.746-2.958V41.0439c15.475-6.3882 26.936-13.016 34.921-17.5039v454.278a471.389 471.389 0 01-20.175-3.027zm96.675-425.8705V481.248c-5.901.225-12.005.349-18.294.349-5.667 0-11.217-.113-16.627-.317V48.8773c4.832 1.0245 10.458 1.6168 17.009 1.6168 6.949 0 12.87-.5756 17.912-1.5736zm76.5-7.5073V471.97c-9.083 1.936-20.886 4.091-34.921 5.87V24.0461c8.096 4.5612 19.566 11.1019 34.921 17.3671zM113.823 94.44c7.056 8.939 12.121 19.735 15.753 30.786L78.3779 236.38c-9.335-2.896-17.9963-6.863-25.3896-11.185L113.823 94.4399v.0001zm271.468 0v-.0001l60.834 130.7551c-7.391 4.321-16.049 8.286-25.38 11.182l-51.192-111.198c3.631-11.035 8.691-21.813 15.738-30.739z" fill="#F2F2F2"/><path fill-rule="evenodd" clip-rule="evenodd" d="M249.577 63.7514c51.478 0 58.278-35.895 58.278-40.38-5.772-3.24-9.728-5.345-12.008-5.345 0 0 5.882 32.495-46.335 32.495-48.52 0-46.335-32.495-46.335-32.495-2.28 0-6.236 2.105-12.003 5.345 0 0 7.368 40.38 58.403 40.38z" fill="#F2F2F2"/><path fill-rule="evenodd" clip-rule="evenodd" d="M413.584 238.323c-9.288 2.238-19.065 3.316-28.798 2.592-8.198-22.369-15.557-36.883-20.013-44.748v270.577s-21.102 6.71-55.866 11.111l-.544-.06c1.881-54.795 5.722-166.47 8.276-240.705 2.056-59.755 31.085-95.29 60.099-117.44-2.675 6.781-5.071 14.606-6.999 23.667 7.354 11.852 24.436 42.069 43.831 94.964.005.014.01.028.014.042zM190.716 477.795c-34.248-4.401-56.476-11.051-56.476-11.051V196.172c-4.456 7.867-11.814 22.379-20.01 44.743-9.633.716-19.3084-.332-28.5103-2.524a1.056 1.056 0 01.0199-.096c19.3774-52.848 36.3054-83.066 43.6094-94.944-1.928-9.075-4.327-16.912-7.006-23.701 29.014 22.15 58.044 57.685 60.099 117.44 2.554 74.235 6.396 185.91 8.276 240.705h-.002z" fill="#000" fill-opacity=".07"/><path d="M291.991 156.73L309 145l17.01 11.73c-3.064 5.488-9.529 9.27-17.01 9.27-7.48 0-13.945-3.782-17.009-9.27z" fill="#0D105A"/><path d="M325 148c0 8.284-7.163 15-16 15s-16-6.716-16-15v-30h32v30z" fill="#F2F2F2"/><path d="M323 147.333c0 7.548-6.268 13.667-14 13.667s-14-6.119-14-13.667V120h28v27.333z" fill="#0D105A"/><path d="M321 146.667c0 6.811-5.373 12.333-12 12.333s-12-5.522-12-12.333V122h24v24.667z" fill="#F2F2F2"/><path d="M315 155c2.429-1.983 4-5.14 4-8.696V130h-4v25zm-12 0v-25h-4v16.304c0 3.556 1.571 6.713 4 8.696zm4-21.377h4v19.021h-4v-19.021z" fill="#D52525"/><path d="M319 124h-20v4h6v4h8v-4h6v-4z" fill="#EDD1D1"/></svg>