<?xml version="1.0" encoding="UTF-8"?><svg width="500" height="500" viewBox="0 0 500 500" fill="none" xmlns="http://www.w3.org/2000/svg"><path fill-rule="evenodd" clip-rule="evenodd" d="M203.006 109.195h93.643V21.8999h-93.643v87.2951z" fill="#112139"/><path fill-rule="evenodd" clip-rule="evenodd" d="M202.866 32.2h93.459V18h-93.459v14.2z" fill="#D1D1D1"/><path fill-rule="evenodd" clip-rule="evenodd" d="M249.514 57.7074c-50.081 0-47.798-39.4691-48.742-39.14-7.516 2.6187-24.133 14.9368-52.439 25.495-31.873 11.885-52.6257 19.315-60.7822 31.2 11.1148 8.915 46.6942 28.9696 46.6942 120.3446v271.14s49.658 14.855 114.885 14.855c68.929 0 115.649-14.855 115.649-14.855v-271.14c0-91.375 35.579-111.4296 46.699-120.3446-8.157-11.885-28.91-19.315-60.783-31.2-28.359-10.5767-44.981-22.9195-52.478-25.5087-.927-.3203 4.178 39.1537-48.703 39.1537z" fill="#152845"/><path fill-rule="evenodd" clip-rule="evenodd" d="M87.5505 75.2622S46.7877 148.062 29.0029 203.032c4.445 13.375 45.2078 40.86 85.2321 37.885 13.34-36.4 24.46-52 24.46-52s2.963-95.0848-51.1445-113.6548zm323.9255 0s40.763 72.7998 58.547 127.7698c-4.445 13.375-45.207 40.86-85.232 37.885-13.34-36.4-24.459-52-24.459-52s-2.964-95.0848 51.144-113.6548z" fill="#152845"/><path fill-rule="evenodd" clip-rule="evenodd" d="M470.129 203.201c-4.445 13.375-45.208 40.86-85.232 37.885-.958-2.613-1.904-5.119-2.835-7.52 20.794-1.357 37.993-5.636 51.594-12.837 13.428-7.109 24.697-15.584 33.806-25.427.936 2.667 1.827 5.303 2.667 7.899zM65.4271 220.693c13.611 7.205 30.8243 11.485 51.6399 12.84-.932 2.399-1.878 4.904-2.835 7.517-40.0243 2.975-80.7871-24.51-85.232-37.885.8362-2.585 1.7233-5.209 2.6545-7.863 9.1035 9.827 20.3609 18.291 33.7726 25.391zM249.577 63.7533c51.478 0 58.278-35.895 58.278-40.38-5.772-3.24-9.728-5.345-12.008-5.345 0 0 5.882 32.495-46.335 32.495-48.52 0-46.335-32.495-46.335-32.495-2.28 0-6.236 2.105-12.003 5.345 0 0 7.368 40.38 58.403 40.38z" fill="#F2F2F2"/><path fill-rule="evenodd" clip-rule="evenodd" d="M413.584 238.323c-9.288 2.238-19.065 3.316-28.798 2.592-8.198-22.369-15.557-36.883-20.013-44.748v270.577s-21.102 6.71-55.866 11.111l-.544-.06c1.881-54.795 5.722-166.47 8.276-240.705 2.056-59.755 31.085-95.29 60.099-117.44-2.675 6.781-5.071 14.606-6.999 23.667 7.354 11.852 24.436 42.069 43.831 94.964.005.014.01.028.014.042zM190.716 477.795c-34.248-4.401-56.476-11.051-56.476-11.051V196.172c-4.456 7.867-11.814 22.379-20.01 44.743-9.633.716-19.3084-.332-28.5103-2.524a1.056 1.056 0 01.0199-.096c19.3774-52.848 36.3054-83.066 43.6094-94.944-1.928-9.075-4.327-16.912-7.006-23.701 29.014 22.15 58.044 57.685 60.099 117.44 2.554 74.235 6.396 185.91 8.276 240.705h-.002z" fill="#000" fill-opacity=".1"/><path fill-rule="evenodd" clip-rule="evenodd" d="M309 166c12.703 0 23-10.297 23-23s-10.297-23-23-23-23 10.297-23 23 10.297 23 23 23z" fill="#F2F2F2"/><path fill-rule="evenodd" clip-rule="evenodd" d="M309 162c10.493 0 19-8.507 19-19s-8.507-19-19-19-19 8.507-19 19 8.507 19 19 19z" fill="#152845"/><path fill-rule="evenodd" clip-rule="evenodd" d="M300.55 141.406c3.181-2.18 5.374-2.107 8.002-3.511.864-.429 1.838-1.119 2.417-2.856 1.158-2.315 2.076-3.766 3.818-4.63.813-.403 2.549 0 3.707.579 1.157.578 1.736 4.63 0 6.367-1.054 1.053-1.737 1.157-3.707 1.479.153.608.069 1.335-.04 1.935 1.409.369 4.213-.52 5.482-.52 1.159-.001 5.646.276 6.368 1.736.725 1.459-.429 2.594-1.995 1.611-1.783-1.458-9.855-1.611-10.817-.789-4.247 3.275-14.392 6.124-9.762 8.439 1.434.717-.578 2.316-2.315 1.158-1.158-.772.543-5.209-.579-5.788-1.25-.646-2.898.3-3.473.579-1.589.768-2.198.821-2.315 4.051.662 1.726-.923 2.216-1.736.579-.658-1.324-.004-2.711 1.044-3.992 1.886-2.307 3.611-2.969 5.268-3.638.972-.735-1.616-.656-2.261-2.21-.878-2.116.845-4.962 4.897-4.383 1.158 0 .892-1.984 2.628-1.984.579.579.094 2.894-3.473 2.894-3.398.039-2.757 3.991-1.158 2.894z" fill="#F9F5F4"/></svg>