<?xml version="1.0" encoding="UTF-8"?><svg width="500" height="500" viewBox="0 0 500 500" fill="none" xmlns="http://www.w3.org/2000/svg"><path fill-rule="evenodd" clip-rule="evenodd" d="M203.006 109.193h93.643V21.8979h-93.643v87.2951z" fill="#A42121"/><path fill-rule="evenodd" clip-rule="evenodd" d="M202.866 32.198h93.459v-14.2h-93.459v14.2z" fill="#EDD2D2"/><path fill-rule="evenodd" clip-rule="evenodd" d="M249.514 57.7054c-50.081 0-47.798-39.4691-48.742-39.14-7.516 2.6187-24.133 14.9368-52.439 25.495-31.873 11.885-52.6257 19.315-60.7822 31.2 11.1148 8.915 46.6942 28.9696 46.6942 120.3446v271.14S183.903 481.6 249.13 481.6c68.929 0 115.649-14.855 115.649-14.855v-271.14c0-91.375 35.579-111.4296 46.699-120.3446-8.157-11.885-28.91-19.315-60.783-31.2-28.359-10.5767-44.981-22.9194-52.478-25.5087-.927-.3202 4.178 39.1537-48.703 39.1537z" fill="#CF3636"/><path fill-rule="evenodd" clip-rule="evenodd" d="M87.5505 75.2603S46.7877 148.06 29.0029 203.03c4.445 13.375 45.2078 40.86 85.2321 37.885 13.34-36.4 24.46-52 24.46-52s2.963-95.0847-51.1445-113.6547zm323.9255 0S452.239 148.06 470.023 203.03c-4.445 13.375-45.207 40.86-85.232 37.885-13.34-36.4-24.459-52-24.459-52s-2.964-95.0847 51.144-113.6547z" fill="#CF3636"/><path fill-rule="evenodd" clip-rule="evenodd" d="M249.577 63.7514c51.478 0 58.278-35.895 58.278-40.38-5.772-3.24-9.728-5.345-12.008-5.345 0 0 5.882 32.495-46.335 32.495-48.52 0-46.335-32.495-46.335-32.495-2.28 0-6.236 2.105-12.003 5.345 0 0 7.368 40.38 58.403 40.38z" fill="#FFE1E1"/><path fill-rule="evenodd" clip-rule="evenodd" d="M413.584 238.323c-9.288 2.238-19.065 3.316-28.798 2.592-8.198-22.369-15.557-36.883-20.013-44.748v270.577s-21.102 6.71-55.866 11.111l-.544-.06c1.881-54.795 5.722-166.47 8.276-240.705 2.056-59.755 31.085-95.29 60.099-117.44-2.675 6.781-5.071 14.606-6.999 23.667 7.354 11.852 24.436 42.069 43.831 94.964.005.014.01.028.014.042zM190.716 477.795c-34.248-4.401-56.476-11.051-56.476-11.051V196.172c-4.456 7.867-11.814 22.379-20.01 44.743-9.633.716-19.3084-.332-28.5103-2.524a1.056 1.056 0 01.0199-.096c19.3774-52.848 36.3054-83.066 43.6094-94.944-1.928-9.075-4.327-16.912-7.006-23.701 29.014 22.15 58.044 57.685 60.099 117.44 2.554 74.235 6.396 185.91 8.276 240.705h-.002z" fill="#000" fill-opacity=".08"/><path fill-rule="evenodd" clip-rule="evenodd" d="M470.129 203.199c-4.445 13.375-45.208 40.86-85.232 37.885-.958-2.613-1.904-5.119-2.835-7.52 20.794-1.357 37.993-5.636 51.594-12.837 13.428-7.109 24.697-15.584 33.806-25.427.936 2.667 1.827 5.303 2.667 7.899zM65.4271 220.691c13.611 7.205 30.8243 11.485 51.6399 12.84-.932 2.399-1.878 4.905-2.835 7.517-40.0243 2.975-80.7871-24.51-85.232-37.885.8362-2.585 1.7233-5.209 2.6545-7.863 9.1035 9.827 20.3609 18.291 33.7726 25.391z" fill="#FFE1E1"/><path fill-rule="evenodd" clip-rule="evenodd" d="M309 166c12.703 0 23-10.297 23-23s-10.297-23-23-23-23 10.297-23 23 10.297 23 23 23z" fill="#3D3D3D"/><path fill-rule="evenodd" clip-rule="evenodd" d="M309 164c11.598 0 21-9.402 21-21s-9.402-21-21-21-21 9.402-21 21 9.402 21 21 21z" fill="#F2F2F2"/><path fill-rule="evenodd" clip-rule="evenodd" d="M309 162c10.493 0 19-8.507 19-19s-8.507-19-19-19-19 8.507-19 19 8.507 19 19 19z" fill="#B52323"/><path fill-rule="evenodd" clip-rule="evenodd" d="M309 155c6.627 0 12-5.373 12-12s-5.373-12-12-12-12 5.373-12 12 5.373 12 12 12z" fill="#F2F2F2"/><path d="M314.5 138.5l2.5 1.5-.737.187c-.499.169-.914.252-1.263.313-.085.015-.162.028-.234.04-.239.039-.416.069-.589.119-.353.102-.619-.006-1.177.841-.209.317-.151.799-.119 1.238.032.448.159.93.311 1.507.004.017.132.428.013.051.299 1.135.321 1.946-.406 3.42-.308.624-.805.841-1.418 1.278-.62.441-2.13 1.181-2.881 1.506-1.4.605-1.941.781-3 1l-.5-3c.986-.2 1.092-.176 2.5-.784.704-.305 1.473-.52 2-.895.534-.381.813-.456.993-.821.494-1.001.675-1.193.363-2.377l-.026-.097c-.141-.536-.296-1.122-.337-1.69-.044-.624.043-1.275.445-1.886.663-1.008 1.228-1.437 1.943-1.643.247-.072.515-.117.767-.158.057-.01.113-.019.167-.028l.685.379z" fill="#B52323"/><path fill-rule="evenodd" clip-rule="evenodd" d="M310.048 135.872c-.795-.097-1.606.266-2.149 1.352-.744 1.487-1.614 3.435-2.49 5.416l-.354.801c-.754 1.709-1.5 3.397-2.151 4.773l-.904-.428c.646-1.363 1.385-3.037 2.14-4.747.118-.267.236-.536.355-.804.874-1.977 1.753-3.946 2.51-5.458.707-1.415 1.896-2.052 3.163-1.898 1.226.148 2.407 1.021 3.213 2.364.068.114.104.174.125.206.127.08.325.223.799.698l.572.572-.767.255c-.409.137-.748.204-1.035.253-.069.012-.132.023-.191.032-.196.033-.341.056-.482.097-.29.083-.577.237-1.034.921-.171.257-.225.543-.199.898.027.362.131.752.255 1.217.004.014.007.028.011.042.245.917.56 2.099-.036 3.29-.252.505-.698.929-1.2 1.282-.508.357-1.111.667-1.726.929-1.23.525-2.564.884-3.423 1.055l-.196-.98c.807-.162 2.073-.503 3.227-.995.576-.246 1.111-.524 1.543-.827.437-.307.733-.616.881-.911.404-.809.219-1.628-.036-2.586-.007-.025-.014-.052-.021-.078-.116-.432-.243-.907-.276-1.366-.037-.504.035-1.03.364-1.524.543-.815 1.006-1.161 1.591-1.329.203-.058.422-.093.628-.127.047-.008.093-.015.137-.023a.515.515 0 01-.041-.032c-.055-.044-.095-.092-.128-.136-.048-.065-.106-.162-.182-.289l-.018-.03c-.694-1.157-1.638-1.784-2.475-1.885z" fill="#3D3D3D"/></svg>