<?xml version="1.0" encoding="UTF-8"?><svg width="500" height="500" viewBox="0 0 500 500" fill="none" xmlns="http://www.w3.org/2000/svg"><path fill-rule="evenodd" clip-rule="evenodd" d="M203.003 109.223h93.643V21.9277h-93.643v87.2953z" fill="#B9B9B9"/><path fill-rule="evenodd" clip-rule="evenodd" d="M202.863 32.2279h93.459V18.0278h-93.459v14.2001z" fill="#D1D1D1"/><path fill-rule="evenodd" clip-rule="evenodd" d="M87.5472 75.2598S46.7846 148.06 29 203.031c4.4449 13.375 45.2074 40.86 85.232 37.885 13.339-36.4 24.459-52 24.459-52s2.963-95.0861-51.1438-113.6562zm323.9258 0S452.235 148.06 470.02 203.031c-4.445 13.375-45.208 40.86-85.232 37.885-13.34-36.4-24.459-52-24.459-52s-2.964-95.0861 51.144-113.6562z" fill="#081D48"/><path fill-rule="evenodd" clip-rule="evenodd" d="M249.513 57.7056c-50.081 0-47.798-39.4693-48.742-39.1402-7.516 2.6187-24.133 14.9369-52.439 25.4951-31.873 11.8851-52.6256 19.3151-60.7822 31.2002 11.1149 8.915 46.6942 28.9703 46.6942 120.3453v271.141s49.658 14.856 114.885 14.856c68.929 0 115.649-14.856 115.649-14.856V195.606c0-91.375 35.579-111.4303 46.699-120.3453-8.157-11.8851-28.91-19.3151-60.783-31.2002-28.359-10.5767-44.981-22.9195-52.478-25.5088-.927-.3202 4.178 39.1539-48.703 39.1539z" fill="#F2F2F2"/><path fill-rule="evenodd" clip-rule="evenodd" d="M75.0249 117.301c10.132-20.7505 17.9444-35.2455 17.9444-35.2455 7.8817-11.8851 27.9367-19.3151 58.7467-31.2002 8.26-3.1876 15.5-6.5316 21.784-9.7189l-3-6.7511c-6.408 3.1331-13.778 6.4133-22.176 9.545-31.868 11.8901-52.6209 19.3151-60.7725 31.2002 0 0-8.2313 14.76-18.8573 35.8255 0 0-28.7057 57.334-39.6942 92.074 0 0 .4501 1.587 2.123 4.055 1.6729 2.468 2.8066 3.396 2.8066 3.396 12.5793-35.526 41.0953-93.18 41.0953-93.18zm348.9401.024c-10.133-20.7503-17.958-35.2693-17.958-35.2693-7.882-11.885-27.937-19.3151-58.747-31.2001-10.612-4.0953-19.451-8.4305-26.716-12.3554L323 31.6396c7.575 3.911 16.741 8.2223 27.652 12.2909 31.868 11.8901 52.621 19.3151 60.773 31.2002 0 0 8.231 14.7601 18.857 35.8253 18.389 36.304 31.635 66.996 39.738 92.074-.491 1.317-.977 2.346-1.458 3.087-.48.742-1.275 1.805-2.385 3.188-18.427-43.992-32.498-74.652-42.212-91.98z" fill="#081D48"/><path fill-rule="evenodd" clip-rule="evenodd" d="M232.533 48.8844c4.825 1.0202 10.44 1.6097 16.975 1.6097 6.968 0 12.901-.5786 17.952-1.5814l-.002 432.3343c-5.912.225-12.029.35-18.331.35-5.655 0-11.193-.112-16.592-.316l-.002-432.3966zm76.465-24.8413c8.096 4.5631 19.566 11.1043 34.922 17.3697l.001 430.5572c-9.083 1.936-20.887 4.091-34.921 5.87l-.002-453.7969zM190.921 23.54l-.001 454.278c-7.294-.934-14.045-1.97-20.155-3.024-5.465-.996-10.411-2.005-14.767-2.961l.003-430.7895c15.474-6.388 26.935-13.0157 34.92-17.5035z" fill="#081D48"/><path fill-rule="evenodd" clip-rule="evenodd" d="M249.577 63.7548c51.478 0 58.278-35.895 58.278-40.38-5.772-3.24-9.728-5.345-12.008-5.345 0 0 5.882 32.495-46.335 32.495-48.52 0-46.335-32.495-46.335-32.495-2.28 0-6.236 2.105-12.003 5.345 0 0 7.368 40.38 58.403 40.38z" fill="#EBEBEB"/><path d="M288 133.607C288 162.722 309 164 309 164s21-1.278 21-30.393V118s-9-2-21-2-21 2-21 2v15.607z" fill="#F2F2F2"/><path d="M290 134.25c0 26.583 19 27.75 19 27.75s19-1.167 19-27.75V120s-10-2-19-2-19 2-19 2v14.25z" fill="#3157A5"/><path d="M292 134.893C292 158.944 309 160 309 160s17-1.056 17-25.107V122s-8.5-2-17-2-17 2-17 2v12.893z" fill="#F2F2F2"/><path fill-rule="evenodd" clip-rule="evenodd" d="M413.584 238.323c-9.288 2.238-19.065 3.316-28.798 2.592-8.198-22.369-15.557-36.883-20.013-44.748v270.577s-21.102 6.71-55.866 11.111l-.544-.06c1.881-54.795 5.722-166.47 8.276-240.705 2.056-59.755 31.085-95.29 60.099-117.44-2.675 6.781-5.071 14.606-6.999 23.667 7.354 11.852 24.436 42.069 43.831 94.964.005.014.01.028.014.042zM190.716 477.795c-34.248-4.401-56.476-11.051-56.476-11.051V196.172c-4.456 7.867-11.814 22.379-20.01 44.743-9.633.716-19.3084-.332-28.5103-2.524a1.056 1.056 0 01.0199-.096c19.3774-52.848 36.3054-83.066 43.6094-94.944-1.928-9.075-4.327-16.912-7.006-23.701 29.014 22.15 58.044 57.685 60.099 117.44 2.554 74.235 6.396 185.91 8.276 240.705h-.002z" fill="#000" fill-opacity=".1"/><path d="M326 135h-4v16.466c2.301-3.682 3.984-8.945 4-16.466zm-7.5 20.638V135h-4v23.338a18.0873 18.0873 0 004-2.7zm-7.5 4.003V135h-4v24.641c1.222.311 2 .359 2 .359s.778-.048 2-.359zm-7.5-1.303V135h-4v20.638a18.0873 18.0873 0 004 2.7zm-7.5-6.872V135h-4c.016 7.521 1.699 12.784 4 16.466z" fill="#3157A5"/><path d="M294 124s7.5-2 15-2 15 2 15 2v9h-30v-9z" fill="#C1CBDE"/><ellipse cx="309" cy="152" rx="7" ry="4" fill="#F2F2F2"/><ellipse cx="309" cy="152" rx="7" ry="4" fill="#F2F2F2"/><ellipse cx="309" cy="152" rx="7" ry="4" fill="#F2F2F2"/><ellipse cx="309" cy="152" rx="6" ry="3" fill="#238048"/><path d="M300.409 138.898c1 .5 2.5-2.5 4.5 1 .695.285 4.266 1.411 6 2.5 2.501 1.571 4 2.5 5.5 3.5s1.5.5 1.5 3c0 1-3-2-6 .5 0 0-5-1.396-8-3.896s-2.5-4.104-3-4.604c-.501-.5-1.501-2.499-.5-2z" fill="#F2F2F2"/><path fill-rule="evenodd" clip-rule="evenodd" d="M305.588 139.085c-.494-.786-1.028-1.339-1.638-1.644-.737-.368-1.431-.3-1.982-.116-.36.119-.753.333-.996.465-.069.038-.126.069-.167.089-.046.023-.083.04-.111.052-.178-.071-.418-.135-.687-.104-.208.024-.433.106-.627.276-.188.166-.289.364-.34.528-.093.296-.056.575-.028.728.032.18.088.358.148.516.119.317.288.652.459.94.148.249.332.522.524.729.01.03.03.09.058.194.009.031.018.064.027.1.063.239.156.589.316.986.382.947 1.114 2.104 2.725 3.446 1.619 1.349 3.731 2.369 5.388 3.044.838.341 1.579.601 2.111.777.266.087.481.154.631.2.075.022.134.039.174.051l.048.014.013.004.005.001s.001 0 .27-.963l-.27.963.507.142.403-.337c1.153-.96 2.267-.881 3.217-.617.244.068.474.148.694.228.044.016.09.032.137.05.168.061.348.128.501.175.102.032.225.065.354.086.119.02.312.04.529-.005.245-.052.527-.193.722-.482.176-.26.206-.531.206-.703v-.043c0-.587 0-1.055-.026-1.413-.027-.362-.087-.758-.304-1.121-.222-.37-.538-.584-.77-.73-.103-.065-.194-.119-.287-.175-.159-.095-.323-.193-.558-.35-1.276-.85-2.553-1.651-4.413-2.818-.349-.219-.717-.45-1.11-.697-.961-.603-2.372-1.187-3.567-1.639-.61-.231-1.184-.436-1.645-.599-.042-.015-.084-.03-.124-.044-.207-.073-.38-.134-.517-.184zm-5.325.822c.197.4.457.803.646.991.142.142.203.373.287.688.211.795.565 2.126 2.713 3.916 3 2.5 8 3.896 8 3.896 1.935-1.612 3.87-.937 5-.522.017.006.035.013.052.019l.009.003c.585.215.939.343.939 0 0-2.083 0-2.083-.868-2.604-.174-.104-.382-.229-.632-.396-1.263-.842-2.526-1.634-4.387-2.801-.349-.219-.719-.451-1.113-.699-1.345-.845-3.798-1.712-5.153-2.192-.392-.138-.691-.244-.847-.308-1.354-2.37-2.479-1.759-3.375-1.273-.427.231-.802.435-1.125.273-.501-.25-.501.126-.313.626.035.094.077.192.124.292.014.03.028.06.043.091zm-.323-.124c-.001 0 .004.002.015.007-.01-.004-.015-.006-.015-.007z" fill="#F2F2F2"/><path d="M300.409 138.898c1 .5 2.5-2.5 4.5 1 .695.285 4.266 1.411 6 2.5 2.501 1.571 4 2.5 5.5 3.5s1.5.5 1.5 3c0 1-3-2-6 .5 0 0-5-1.396-8-3.896s-2.5-4.104-3-4.604-1.501-2.5-.5-2z" fill="#62442E"/><path d="M301.464 138.662c-.398.215-.75.389-1.055.236-1.001-.5-.001 1.5.5 2 .142.142.203.373.287.688.211.795.565 2.126 2.713 3.916 1.844 1.536 4.443 2.656 6.173 3.29 2.016-.379 3.044-1.687 3.327-2.394-2-.5-9-4-9.5-5.5-.414-1.241-1.512-1.798-2.445-2.236z" fill="#E1C492"/></svg>