<?xml version="1.0" encoding="UTF-8"?><svg width="500" height="500" viewBox="0 0 500 500" fill="none" xmlns="http://www.w3.org/2000/svg"><path fill-rule="evenodd" clip-rule="evenodd" d="M203.006 109.195h93.643V21.8999h-93.643v87.2951z" fill="#C3DCEE"/><path fill-rule="evenodd" clip-rule="evenodd" d="M202.866 32.2h93.459V18h-93.459v14.2z" fill="#629ECA"/><path fill-rule="evenodd" clip-rule="evenodd" d="M87.5505 75.2622S46.7877 148.062 29.0029 203.032c4.445 13.375 45.2078 40.86 85.2321 37.885 13.34-36.4 24.46-52 24.46-52s2.963-95.0848-51.1445-113.6548zm323.9255 0s40.763 72.7998 58.547 127.7698c-4.445 13.375-45.207 40.86-85.232 37.885-13.34-36.4-24.459-52-24.459-52s-2.964-95.0848 51.144-113.6548z" fill="#7ABDED"/><path fill-rule="evenodd" clip-rule="evenodd" d="M249.514 57.7074c-50.081 0-47.798-39.4691-48.742-39.14-7.516 2.6187-24.133 14.9368-52.439 25.495-31.873 11.885-52.6257 19.315-60.7822 31.2 11.1148 8.915 46.6942 28.9696 46.6942 120.3446v271.14s49.658 14.855 114.885 14.855c68.929 0 115.649-14.855 115.649-14.855v-271.14c0-91.375 35.579-111.4296 46.699-120.3446-8.157-11.885-28.91-19.315-60.783-31.2-28.359-10.5767-44.981-22.9195-52.478-25.5087-.927-.3203 4.178 39.1537-48.703 39.1537z" fill="#7ABDED"/><path fill-rule="evenodd" clip-rule="evenodd" d="M249.509 50.5005c23.731 0 35.462-6.7117 41.199-14.0345l3.192.8392c45.286 11.3389 71.55 39.4268 71.55 68.1608v68.856c-.455 6.629-.699 13.713-.699 21.287V466.75s-43.163 13.71-107.735 14.788c-2.595.043-5.225.065-7.889.065-64.901 0-114.388-14.707-114.881-14.854l.004-361.283c0-28.4517 25.752-56.27 70.222-67.8176l5.219-1.3266c6.037 7.3786 17.622 14.1787 39.818 14.1787z" fill="#74B7E7"/><path fill-rule="evenodd" clip-rule="evenodd" d="M470.129 203.201c-4.445 13.375-45.208 40.86-85.232 37.885-.958-2.613-1.904-5.119-2.835-7.52 20.794-1.357 37.993-5.636 51.594-12.837 13.428-7.109 24.697-15.584 33.806-25.427.936 2.667 1.827 5.303 2.667 7.899zM65.4271 220.693c13.611 7.205 30.8243 11.485 51.6399 12.84-.932 2.399-1.878 4.904-2.835 7.517-40.0243 2.975-80.7871-24.51-85.232-37.885.8362-2.585 1.7233-5.209 2.6545-7.863 9.1035 9.827 20.3609 18.291 33.7726 25.391zM249.577 63.7533c51.478 0 58.278-35.895 58.278-40.38-5.772-3.24-9.728-5.345-12.008-5.345 0 0 5.882 32.495-46.335 32.495-48.52 0-46.335-32.495-46.335-32.495-2.28 0-6.236 2.105-12.003 5.345 0 0 7.368 40.38 58.403 40.38z" fill="#6AA9D7"/><path fill-rule="evenodd" clip-rule="evenodd" d="M413.584 238.323c-9.288 2.238-19.065 3.316-28.798 2.592-8.198-22.369-15.557-36.883-20.013-44.748v270.577s-21.102 6.71-55.866 11.111l-.544-.06c1.881-54.795 5.722-166.47 8.276-240.705 2.056-59.755 31.085-95.29 60.099-117.44-2.675 6.781-5.071 14.606-6.999 23.667 7.354 11.852 24.436 42.069 43.831 94.964.005.014.01.028.014.042zM190.716 477.795c-34.248-4.401-56.476-11.051-56.476-11.051V196.172c-4.456 7.867-11.814 22.379-20.01 44.743-9.633.716-19.3084-.332-28.5103-2.524a1.056 1.056 0 01.0199-.096c19.3774-52.848 36.3054-83.066 43.6094-94.944-1.928-9.075-4.327-16.912-7.006-23.701 29.014 22.15 58.044 57.685 60.099 117.44 2.554 74.235 6.396 185.91 8.276 240.705h-.002z" fill="#000" fill-opacity=".06"/><path d="M308.972 166c-4.554-.009-18.422-1.038-18.919-2.067-.213-.44-.064-.787.062-1.079.171-.395.299-.692-.562-.989-1.498-.517-.999-23.258-.499-24.809.238-.74-.321-1.953-.915-3.242-.65-1.411-1.343-2.914-1.083-3.994.091-.377.166-.806.245-1.261.354-2.04.801-4.613 3.251-5.458 2.991-1.032 7.972-2.579 18.42-3.098V120c.009 0 .019.001.028.001.009 0 .019-.001.028-.001v.003c10.448.519 15.429 2.066 18.42 3.098 2.45.845 2.897 3.418 3.251 5.458.079.455.154.884.245 1.261.26 1.08-.433 2.583-1.083 3.994-.594 1.289-1.153 2.502-.915 3.242.5 1.551.999 24.292-.499 24.809-.861.297-.733.594-.562.989.126.292.275.639.062 1.079-.497 1.029-14.365 2.058-18.919 2.067h-.056z" fill="#67A6D2"/><path d="M293.001 143c-1.636-4.254-1.458-8.212-.5-9.5.372-.5 1.999 3 1.999 3s.7-2.5 1-4c.3-1.5 2 3.5 5 5.5 1.845 1.231.694 6.701 0 9.5-1.148 4.631-3.468 9.462-3.468 9.462h-4.987s3.456-7.462.956-13.962z" fill="#D7E3E9"/><path d="M325.054 143c1.636-4.254 1.457-8.212.5-9.5-.372-.5-1.999 3-1.999 3s-.701-2.5-1-4c-.3-1.5-2 3.5-5 5.5-1.846 1.231-.694 6.701 0 9.5 1.148 4.631 3.468 9.462 3.468 9.462h4.987s-3.456-7.462-.956-13.962z" fill="#B5A377"/><path fill-rule="evenodd" clip-rule="evenodd" d="M308.999 153.97c4.958 0 8.978-4.019 8.978-8.977s-4.02-8.977-8.978-8.977c-4.957 0-8.977 4.019-8.977 8.977s4.02 8.977 8.977 8.977z" fill="#3D3D3D"/><path fill-rule="evenodd" clip-rule="evenodd" d="M309 152.973c4.407 0 7.98-3.573 7.98-7.98s-3.573-7.979-7.98-7.979-7.979 3.572-7.979 7.979 3.572 7.98 7.979 7.98z" fill="#F2F2F2"/><path fill="#3D3D3D" d="M304.013 131.029h9.9745v6.9821h-9.9745z"/><path fill="#B5A377" d="M306.007 124.047h5.9847v6.9821h-5.9847z"/><path d="M308.991 142.998l-1.986 1.297.798 2.693h2.394l.798-2.693-2.004-1.297z" fill="#74B7E7"/><path fill-rule="evenodd" clip-rule="evenodd" d="M309 152.973c4.407 0 7.98-3.573 7.98-7.98s-3.573-7.979-7.98-7.979-7.979 3.572-7.979 7.979 3.572 7.98 7.979 7.98zm7.093-7.98c0 1.493-.461 2.878-1.249 4.021l-.386-1.079-1.698.81-.82 1.708 1.1.371c-1.147.796-2.539 1.262-4.04 1.262-1.499 0-2.89-.465-4.035-1.259l1.095-.374-.819-1.708-1.698-.81-.378 1.092c-.793-1.145-1.258-2.535-1.258-4.034 0-.542.061-1.07.176-1.577l.617.931 1.431-1.222.35-1.862-1.381-.208c1.056-1.579 2.73-2.711 4.676-3.049l-.549 1.319 1.787.629 1.773-.629-.534-1.314c1.934.344 3.597 1.473 4.648 3.045l-1.581.207.349 1.862 1.431 1.222.821-.915c.112.502.172 1.025.172 1.561z" fill="#74B7E7"/><path d="M297.031 157.165c-3.837-.577-6.982-1.197-6.982-1.197v2.99c0 .478.336.888.806.974 1.178.216 3.518.633 6.176 1.031v-3.798z" fill="#E8E8E8"/><path d="M297.031 157.164l-4.987.798 1.496 2.494h3.491v-3.292z" fill="#995050"/><path d="M320.97 157.165c3.837-.577 6.982-1.198 6.982-1.198v2.99c0 .478-.336.888-.806.975-1.178.216-3.518.632-6.176 1.031v-3.798z" fill="#E8E8E8"/><path d="M320.97 157.164l4.987.798-1.496 2.493h-3.491v-3.291z" fill="#995050"/><path fill-rule="evenodd" clip-rule="evenodd" d="M325.957 160.952c0 .478-.336.888-.807.975-2.679.492-11.384 2.02-16.15 2.02-4.765 0-13.47-1.528-16.15-2.02-.47-.087-.806-.497-.806-.975v-2.99s11.01 2.171 16.956 2.171c5.947 0 16.957-2.171 16.957-2.171v2.99zm0-35.957c0-.479-.336-.888-.807-.975-2.679-.492-11.384-2.02-16.15-2.02-4.765 0-13.47 1.528-16.15 2.02-.47.087-.806.496-.806.975v2.99s11.01-2.171 16.956-2.171c5.947 0 16.957 2.171 16.957 2.171v-2.99z" fill="#995050"/><path fill-rule="evenodd" clip-rule="evenodd" d="M326 160.336c0 .49-.351.906-.836.98-2.717.416-11.402 1.684-16.164 1.684-4.762 0-13.447-1.268-16.164-1.684-.485-.074-.836-.49-.836-.98V158s11.038 1.814 17 1.814S326 158 326 158v2.336z" fill="#F2F2F2"/><path d="M320.97 128.976c3.837.509 6.982 1.056 6.982 1.056v-2.635c0-.421-.336-.782-.806-.859-1.178-.19-3.518-.557-6.176-.908v3.346z" fill="#E8E8E8"/><path d="M320.97 128.977l4.987-.704-1.496-2.197h-3.491v2.901z" fill="#995050"/><path d="M297.031 128.976c-3.837.509-6.982 1.056-6.982 1.056v-2.635c0-.421.336-.782.806-.859 1.178-.19 3.518-.557 6.176-.908v3.346z" fill="#E8E8E8"/><path d="M297.031 128.977l-4.987-.704 1.496-2.197h3.491v2.901z" fill="#995050"/><path fill-rule="evenodd" clip-rule="evenodd" d="M292.044 125.755c0-.486.347-.901.827-.978 2.703-.437 11.376-1.777 16.13-1.777 4.753 0 13.426 1.34 16.129 1.777.48.077.827.492.827.978v2.518s-11.01-1.913-16.956-1.913c-5.947 0-16.957 1.913-16.957 1.913v-2.518z" fill="#F2F2F2"/></svg>