<?xml version="1.0" encoding="UTF-8"?><svg width="500" height="500" viewBox="0 0 500 500" fill="none" xmlns="http://www.w3.org/2000/svg"><path fill-rule="evenodd" clip-rule="evenodd" d="M203.006 109.193h93.643V21.8979h-93.643v87.2951z" fill="#12497B"/><path fill-rule="evenodd" clip-rule="evenodd" d="M202.866 32.198h93.459v-14.2h-93.459v14.2z" fill="#D1D1D1"/><path fill-rule="evenodd" clip-rule="evenodd" d="M249.514 57.7054c-50.081 0-47.798-39.4691-48.742-39.14-7.516 2.6187-24.133 14.9368-52.439 25.495-31.873 11.885-52.6257 19.315-60.7822 31.2 11.1148 8.915 46.6942 28.9696 46.6942 120.3446v271.14S183.903 481.6 249.13 481.6c68.929 0 115.649-14.855 115.649-14.855v-271.14c0-91.375 35.579-111.4296 46.699-120.3446-8.157-11.885-28.91-19.315-60.783-31.2-28.359-10.5767-44.981-22.9194-52.478-25.5087-.927-.3202 4.178 39.1537-48.703 39.1537z" fill="#1968B1"/><path fill-rule="evenodd" clip-rule="evenodd" d="M111.173 98.4193C156.992 92.1398 203.104 89 249.509 89c46.123 0 92.262 3.1018 138.416 9.3053-7.331 10.4927-14.449 25.5297-18.813 47.6577C329.028 141.321 289.16 139 249.509 139c-39.874 0-79.737 2.347-119.588 7.041-4.347-22.091-11.438-37.122-18.748-47.6217zm23.069 102.1067c38.219-4.351 76.642-6.526 115.267-6.526 38.412 0 76.834 2.151 115.266 6.454v50.015C326.152 246.156 287.73 244 249.509 244c-38.433 0-76.855 2.18-115.267 6.541v-50.015zm0 105c38.219-4.351 76.642-6.526 115.267-6.526 38.412 0 76.834 2.151 115.266 6.454v50.015C326.152 351.156 287.73 349 249.509 349c-38.433 0-76.855 2.18-115.267 6.541v-50.015zm0 105.004c38.282-4.353 76.732-6.53 115.351-6.53 38.385 0 76.779 2.151 115.182 6.452v50.017C326.152 456.156 287.73 454 249.509 454c-38.433 0-76.855 2.18-115.267 6.541V410.53z" fill="#F2F2F2"/><path fill-rule="evenodd" clip-rule="evenodd" d="M87.5505 75.2603S46.7877 148.06 29.0029 203.03c4.445 13.375 45.2078 40.86 85.2321 37.885 13.34-36.4 24.46-52 24.46-52s2.963-95.0847-51.1445-113.6547zm323.9255 0S452.239 148.06 470.023 203.03c-4.445 13.375-45.207 40.86-85.232 37.885-13.34-36.4-24.459-52-24.459-52s-2.964-95.0847 51.144-113.6547z" fill="#1968B1"/><path fill-rule="evenodd" clip-rule="evenodd" d="M249.577 63.7514c51.478 0 58.278-35.895 58.278-40.38-5.772-3.24-9.728-5.345-12.008-5.345 0 0 5.882 32.495-46.335 32.495-48.52 0-46.335-32.495-46.335-32.495-2.28 0-6.236 2.105-12.003 5.345 0 0 7.368 40.38 58.403 40.38z" fill="#F2F2F2"/><path fill-rule="evenodd" clip-rule="evenodd" d="M413.584 238.323c-9.288 2.238-19.065 3.316-28.798 2.592-8.198-22.369-15.557-36.883-20.013-44.748v270.577s-21.102 6.71-55.866 11.111l-.544-.06c1.881-54.795 5.722-166.47 8.276-240.705 2.056-59.755 31.085-95.29 60.099-117.44-2.675 6.781-5.071 14.606-6.999 23.667 7.354 11.852 24.436 42.069 43.831 94.964.005.014.01.028.014.042zM190.716 477.795c-34.248-4.401-56.476-11.051-56.476-11.051V196.172c-4.456 7.867-11.814 22.379-20.01 44.743-9.633.716-19.3084-.332-28.5103-2.524a1.056 1.056 0 01.0199-.096c19.3774-52.848 36.3054-83.066 43.6094-94.944-1.928-9.075-4.327-16.912-7.006-23.701 29.014 22.15 58.044 57.685 60.099 117.44 2.554 74.235 6.396 185.91 8.276 240.705h-.002z" fill="#000" fill-opacity=".06"/><path fill-rule="evenodd" clip-rule="evenodd" d="M309 165c12.15 0 22-9.85 22-22s-9.85-22-22-22-22 9.85-22 22 9.85 22 22 22z" fill="#CA4343"/><path fill-rule="evenodd" clip-rule="evenodd" d="M309 163c11.046 0 20-8.954 20-20s-8.954-20-20-20-20 8.954-20 20 8.954 20 20 20z" fill="#F2F2F2"/><path fill-rule="evenodd" clip-rule="evenodd" d="M309 156c7.18 0 13-5.82 13-13s-5.82-13-13-13-13 5.82-13 13 5.82 13 13 13z" fill="#CA4343"/><path d="M322 143c0 7.18-5.82 13-13 13v-13h13zm-26 0h13v-13c-7.18 0-13 5.82-13 13z" fill="#8CC4F8"/><path fill-rule="evenodd" clip-rule="evenodd" d="M309 149c3.314 0 6-2.686 6-6s-2.686-6-6-6-6 2.686-6 6 2.686 6 6 6z" fill="#F2F2F2"/><path fill-rule="evenodd" clip-rule="evenodd" d="M309 147c2.209 0 4-1.791 4-4s-1.791-4-4-4-4 1.791-4 4 1.791 4 4 4z" fill="#DA8A13"/></svg>