<?xml version="1.0" encoding="UTF-8"?><svg width="500" height="500" viewBox="0 0 500 500" fill="none" xmlns="http://www.w3.org/2000/svg"><path fill-rule="evenodd" clip-rule="evenodd" d="M203.006 109.193h93.643V21.8979h-93.643v87.2951z" fill="#D53C3C"/><path fill-rule="evenodd" clip-rule="evenodd" d="M202.866 32.198h93.459v-14.2h-93.459v14.2z" fill="#D1D1D1"/><path fill-rule="evenodd" clip-rule="evenodd" d="M249.514 57.7054c-50.081 0-47.798-39.4691-48.742-39.14-7.516 2.6187-24.133 14.9368-52.439 25.495-31.873 11.885-52.6257 19.315-60.7822 31.2 11.1148 8.915 46.6942 28.9696 46.6942 120.3446v271.14S183.903 481.6 249.13 481.6c68.929 0 115.649-14.855 115.649-14.855v-271.14c0-91.375 35.579-111.4296 46.699-120.3446-8.157-11.885-28.91-19.315-60.783-31.2-28.359-10.5767-44.981-22.9194-52.478-25.5087-.927-.3202 4.178 39.1537-48.703 39.1537z" fill="#DA3C3C"/><path fill-rule="evenodd" clip-rule="evenodd" d="M87.5505 75.2598S46.7877 148.06 29.0029 203.03c4.445 13.375 45.2078 40.86 85.2321 37.885 13.34-36.4 24.46-52 24.46-52s2.963-95.0852-51.1445-113.6552zm323.9255 0S452.239 148.06 470.023 203.03c-4.445 13.375-45.207 40.86-85.232 37.885-13.34-36.4-24.459-52-24.459-52s-2.964-95.0852 51.144-113.6552z" fill="#DA3C3C"/><path fill-rule="evenodd" clip-rule="evenodd" d="M467.462 195.3c.936 2.666 1.827 5.303 2.667 7.899-4.445 13.375-45.208 40.86-85.232 37.885-.958-2.613-1.904-5.119-2.835-7.519 20.795-1.358 37.993-5.637 51.594-12.838 13.428-7.108 24.697-15.584 33.806-25.427zm-435.8073 0c9.1031 9.827 20.3606 18.291 33.7724 25.391 13.6109 7.206 30.8241 11.486 51.6389 12.84-.931 2.4-1.877 4.905-2.834 7.517-40.0243 2.975-80.7871-24.51-85.232-37.885.8363-2.585 1.7234-5.209 2.6547-7.863zM249.577 63.7514c51.478 0 58.278-35.895 58.278-40.38-5.772-3.24-9.728-5.345-12.008-5.345 0 0 5.882 32.495-46.335 32.495-48.52 0-46.335-32.495-46.335-32.495-2.28 0-6.236 2.105-12.003 5.345 0 0 7.368 40.38 58.403 40.38z" fill="#F2F2F2"/><path fill-rule="evenodd" clip-rule="evenodd" d="M413.584 238.323c-9.288 2.238-19.065 3.316-28.798 2.593-8.198-22.369-15.557-36.883-20.013-44.749v270.578s-21.102 6.709-55.866 11.11c-.182-.02-.363-.039-.544-.06 1.881-54.795 5.722-166.47 8.276-240.705 2.056-59.755 31.085-95.29 60.099-117.44-2.675 6.781-5.071 14.607-6.999 23.668 7.354 11.851 24.436 42.068 43.831 94.964.005.014.01.027.014.041zM190.716 477.796c-34.248-4.402-56.476-11.051-56.476-11.051V196.173c-4.456 7.866-11.814 22.379-20.01 44.743-9.633.716-19.3084-.333-28.5103-2.524.0051-.032.0117-.064.0199-.097 19.3774-52.847 36.3054-83.066 43.6094-94.943-1.928-9.076-4.327-16.913-7.006-23.702 29.014 22.15 58.044 57.685 60.099 117.44 2.554 74.235 6.396 185.91 8.276 240.705l-.002.001z" fill="#000" fill-opacity=".06"/><path fill="#EAB1B1" d="M290 158h38v8h-38z"/><path fill-rule="evenodd" clip-rule="evenodd" d="M309 124l-18.187 19.5H306v4.214c-.408-.055-.831-.113-1.26-.172-1.904-.263-3.92-.542-5.24-.542-2.5 0-9.5 1-9.5 1v2s7-1 9.5-1c1.32 0 3.336.279 5.24.542 1.703.235 3.316.458 4.26.458 1 0 2.875-.25 4.75-.5s3.75-.5 4.75-.5c2 0 9.5 1 9.5 1v-2s-7.5-1-9.5-1c-1 0-2.875.25-4.75.5-.593.079-1.185.158-1.75.229V143.5h15.187L309 124zm1 23.949V143.5h-2v4.447c.382.033.72.053 1 .053.274 0 .613-.019 1-.051zm-1-20.017L297 141h24.2L309 127.932z" fill="#F2F2F2"/><path d="M299.5 150c-2.5 0-9.5 1-9.5 1v2s7-1 9.5-1c1.32 0 3.336.279 5.24.542 1.703.235 3.316.458 4.26.458 1 0 2.875-.25 4.75-.5s3.75-.5 4.75-.5c2 0 9.5 1 9.5 1v-2s-7.5-1-9.5-1c-1 0-2.875.25-4.75.5s-3.75.5-4.75.5c-.944 0-2.557-.223-4.26-.458-1.904-.263-3.92-.542-5.24-.542zm0 3c-2.5 0-9.5 1-9.5 1v2s7-1 9.5-1c1.32 0 3.336.279 5.24.542 1.703.235 3.316.458 4.26.458 1 0 2.875-.25 4.75-.5s3.75-.5 4.75-.5c2 0 9.5 1 9.5 1v-2s-7.5-1-9.5-1c-1 0-2.875.25-4.75.5s-3.75.5-4.75.5c-.944 0-2.557-.223-4.26-.458-1.904-.263-3.92-.542-5.24-.542zm4.5-36l.674 2.073h2.179l-1.763 1.281.673 2.073-1.763-1.281-1.763 1.281.673-2.073-1.763-1.281h2.179L304 117zm10 0l.674 2.073h2.179l-1.763 1.281.673 2.073-1.763-1.281-1.763 1.281.673-2.073-1.763-1.281h2.179L314 117z" fill="#F2F2F2"/></svg>