<?xml version="1.0" encoding="UTF-8"?><svg width="500" height="500" viewBox="0 0 500 500" fill="none" xmlns="http://www.w3.org/2000/svg"><path fill-rule="evenodd" clip-rule="evenodd" d="M203.006 109.193h93.643V21.8979h-93.643v87.2951z" fill="#CFCFCF"/><path fill-rule="evenodd" clip-rule="evenodd" d="M202.866 32.198h93.459v-14.2h-93.459v14.2z" fill="#CD3E3E"/><path fill-rule="evenodd" clip-rule="evenodd" d="M87.5505 75.2603S46.7877 148.06 29.0029 203.03c4.445 13.375 45.2078 40.86 85.2321 37.885 13.34-36.4 24.46-52 24.46-52s2.963-95.0847-51.1445-113.6547zm323.9255 0S452.239 148.06 470.023 203.03c-4.445 13.375-45.207 40.86-85.232 37.885-13.34-36.4-24.459-52-24.459-52s-2.964-95.0847 51.144-113.6547z" fill="#F2F2F2"/><path fill-rule="evenodd" clip-rule="evenodd" d="M249.514 57.7054c-50.081 0-47.798-39.4691-48.742-39.14-7.516 2.6187-24.133 14.9368-52.439 25.495-31.873 11.885-52.6257 19.315-60.7822 31.2 11.1148 8.915 46.6942 28.9696 46.6942 120.3446v271.14S183.903 481.6 249.13 481.6c68.929 0 115.649-14.855 115.649-14.855v-271.14c0-91.375 35.579-111.4296 46.699-120.3446-8.157-11.885-28.91-19.315-60.783-31.2-28.359-10.5767-44.981-22.9194-52.478-25.5087-.927-.3202 4.178 39.1537-48.703 39.1537z" fill="#F2F2F2"/><path d="M106.396 86.459c.62.5972 1.249 1.1899 1.885 1.7781 13.996 13.7719 21.578 34.3139 25.675 53.2579-14.175-5.164-27.417-12.626-39.7242-22.386-7.6521-6.068-14.0777-12.841-19.2767-20.3184 7.4398-14.3298 12.5917-23.5308 12.5917-23.5308 7.263 2.4927 13.4982 6.3641 18.8492 11.1992zm27.85 109.704v-.558c0-7.25-.224-14.051-.642-20.433-14.716-2.405-28.485-6.533-41.3071-12.382-14.21-6.483-26.355-14.969-36.4349-25.457-4.1994 8.931-8.4339 18.298-12.4362 27.72 9.3881 12.108 21.5908 21.413 36.6079 27.917 16.1695 7.002 32.7253 10.907 49.6683 11.714 1.724-3.416 3.255-6.246 4.544-8.521zm230.533-.281c1.321 2.321 2.908 5.244 4.704 8.802 16.943-.807 33.499-4.712 49.668-11.714 15.017-6.504 27.22-15.809 36.608-27.917-4.002-9.422-8.237-18.789-12.436-27.72-10.08 10.488-22.225 18.974-36.435 25.457-12.869 5.871-26.692 10.007-41.469 12.409-.416 6.374-.64 13.166-.64 20.406v.277zm59.452-97.0914c-5.199 7.4774-11.625 14.2504-19.277 20.3184-12.307 9.76-25.549 17.222-39.724 22.386 4.097-18.944 11.679-39.486 25.675-53.2579.636-.5882 1.264-1.1809 1.885-1.7781 5.351-4.8351 11.586-8.7065 18.849-11.1992 0 0 5.152 9.201 12.592 23.5308z" fill="#1562BE"/><path fill-rule="evenodd" clip-rule="evenodd" d="M378.07 116.162c-6.537 15.169-11.698 35.989-12.994 64.957-38.357-4.393-76.715-6.59-115.073-6.59-38.686 0-77.371 2.235-116.056 6.703-1.284-28.95-6.426-49.772-12.947-64.951C164.001 110.76 207.002 108 250.003 108c42.689 0 85.378 2.721 128.067 8.162zm-13.308 124.392v66.529c-38.253-4.369-76.506-6.554-114.759-6.554-38.582 0-77.164 2.223-115.746 6.667v-66.529c38.582-4.445 77.164-6.667 115.746-6.667 38.253 0 76.506 2.185 114.759 6.554zm0 126v66.529c-38.253-4.369-76.506-6.554-114.759-6.554-38.582 0-77.164 2.223-115.746 6.667v-66.529c38.582-4.445 77.164-6.667 115.746-6.667 38.253 0 76.506 2.185 114.759 6.554zM174.404 32.399c6.756-3.393 12.314-6.5264 16.77-9.0289l2.138 6.6309c-8.901 5.1427-22.457 13.3251-41.595 20.7108-28.212 10.8826-47.406 18.0299-56.4939 28.2824l-7.6098-3.9753c8.2023-11.8293 28.9297-19.2514 60.7167-31.1046 10.157-3.7883 18.808-7.8032 26.074-11.5153zm150.103-.0568c7.289 3.728 15.977 7.7645 26.185 11.5721C382.48 55.7679 403.208 63.19 411.41 75.02c-.411.2249-2.909 1.5936-7.495 4.1062-9.04-10.3233-28.277-17.4852-56.61-28.4144-18.71-7.2205-32.085-15.2026-40.991-20.3613l1.541-6.9804c4.433 2.489 9.948 5.6005 16.652 8.9721z" fill="#1562BE"/><path fill-rule="evenodd" clip-rule="evenodd" d="M249.577 63.7514c51.478 0 58.278-35.895 58.278-40.38-5.772-3.24-9.728-5.345-12.008-5.345 0 0 5.882 32.495-46.335 32.495-48.52 0-46.335-32.495-46.335-32.495-2.28 0-6.236 2.105-12.003 5.345 0 0 7.368 40.38 58.403 40.38z" fill="#DC4444"/><path fill-rule="evenodd" clip-rule="evenodd" d="M413.584 238.323c-9.288 2.238-19.065 3.316-28.798 2.592-8.198-22.369-15.557-36.883-20.013-44.748v270.577s-21.102 6.71-55.866 11.111l-.544-.06c1.881-54.795 5.722-166.47 8.276-240.705 2.056-59.755 31.085-95.29 60.099-117.44-2.675 6.781-5.071 14.606-6.999 23.667 7.354 11.852 24.436 42.069 43.831 94.964.005.014.01.028.014.042zM190.716 477.795c-34.248-4.401-56.476-11.051-56.476-11.051V196.172c-4.456 7.867-11.814 22.379-20.01 44.743-9.633.716-19.3084-.332-28.5103-2.524a1.056 1.056 0 01.0199-.096c19.3774-52.848 36.3054-83.066 43.6094-94.944-1.928-9.075-4.327-16.912-7.006-23.701 29.014 22.15 58.044 57.685 60.099 117.44 2.554 74.235 6.396 185.91 8.276 240.705h-.002z" fill="#000" fill-opacity=".06"/><path fill-rule="evenodd" clip-rule="evenodd" d="M332 143c0 12.703-10.297 23-23 23s-23-10.297-23-23 10.297-23 23-23 23 10.297 23 23zm-2 0c0 11.598-9.402 21-21 21s-21-9.402-21-21 9.402-21 21-21 21 9.402 21 21z" fill="#F2F2F2"/><path d="M328.149 137.211C325.667 128.988 318.032 123 309 123c-9.033 0-16.667 5.988-19.149 14.211l3.829 1.158C295.667 131.79 301.774 127 309 127c7.226 0 13.333 4.79 15.319 11.369l3.83-1.158zm-12.577 24.684c-2.058.716-4.27 1.105-6.572 1.105-2.302 0-4.514-.389-6.572-1.105l1.314-3.779c1.647.573 3.416.884 5.258.884s3.611-.311 5.258-.884l1.314 3.779z" fill="#6495D1"/><path fill-rule="evenodd" clip-rule="evenodd" d="M324 143c0 8.284-6.716 15-15 15-8.284 0-15-6.716-15-15 0-8.284 6.716-15 15-15 8.284 0 15 6.716 15 15zm-2 0c0 7.18-5.82 13-13 13s-13-5.82-13-13 5.82-13 13-13 13 5.82 13 13z" fill="#F2F2F2"/><path fill-rule="evenodd" clip-rule="evenodd" d="M309 154c6.075 0 11-4.925 11-11s-4.925-11-11-11-11 4.925-11 11 4.925 11 11 11z" fill="#6495D1"/></svg>