<?xml version="1.0" encoding="UTF-8"?><svg width="500" height="500" viewBox="0 0 500 500" fill="none" xmlns="http://www.w3.org/2000/svg"><path fill-rule="evenodd" clip-rule="evenodd" d="M203.006 109.193h93.643V21.8979h-93.643v87.2951z" fill="#1D1D1D"/><path fill-rule="evenodd" clip-rule="evenodd" d="M202.866 32.198h93.459v-14.2h-93.459v14.2z" fill="#363636"/><path fill-rule="evenodd" clip-rule="evenodd" d="M87.5505 75.2603S46.7877 148.06 29.0029 203.03c4.445 13.375 45.2078 40.86 85.2321 37.885 13.34-36.4 24.46-52 24.46-52s2.963-95.0847-51.1445-113.6547zm323.9255 0S452.239 148.06 470.023 203.03c-4.445 13.375-45.207 40.86-85.232 37.885-13.34-36.4-24.459-52-24.459-52s-2.964-95.0847 51.144-113.6547z" fill="#F2F2F2"/><path fill-rule="evenodd" clip-rule="evenodd" d="M249.514 57.7054c-50.081 0-47.798-39.4691-48.742-39.14-7.516 2.6187-24.133 14.9368-52.439 25.495-31.873 11.885-52.6257 19.315-60.7822 31.2 11.1148 8.915 46.6942 28.9696 46.6942 120.3446v271.14S183.903 481.6 249.13 481.6c68.929 0 115.649-14.855 115.649-14.855v-271.14c0-91.375 35.579-111.4296 46.699-120.3446-8.157-11.885-28.91-19.315-60.783-31.2-28.359-10.5767-44.981-22.9194-52.478-25.5087-.927-.3202 4.178 39.1537-48.703 39.1537z" fill="#F94444"/><path fill-rule="evenodd" clip-rule="evenodd" d="M75.0249 117.301c10.132-20.7504 17.9444-35.2454 17.9444-35.2454 7.8817-11.8851 27.9367-19.3151 58.7467-31.2002 29.359-11.33 45.835-24.6347 52.265-25.8647L201.5 18.292c-7.134 2.0048-23.906 14.724-53.176 25.6384-31.868 11.89-52.6209 19.3151-60.7725 31.2001 0 0-8.2313 14.7601-18.8573 35.8255 0 0-28.7057 57.334-39.6942 92.074 0 0 .4501 1.587 2.123 4.055 1.6729 2.468 2.8066 3.396 2.8066 3.396 12.5793-35.526 41.0953-93.18 41.0953-93.18zm348.9401.024c-10.132-20.7505-17.957-35.2695-17.957-35.2695-7.883-11.8851-27.937-19.3151-58.747-31.2002-29.359-11.33-45.149-24.4971-51.58-25.7271l2.819-6.4588c7.605 2.7528 24.12 14.8076 52.153 25.2609 31.868 11.8901 52.621 19.3151 60.772 31.2001 0 0 8.232 14.7601 18.858 35.8256 0 0 27.583 54.456 39.738 92.074 0 0-.737 1.975-1.458 3.087-.721 1.113-2.385 3.188-2.385 3.188-27.641-65.988-42.213-91.98-42.213-91.98z" fill="#F2F2F2"/><path fill-rule="evenodd" clip-rule="evenodd" d="M249.577 63.7514c51.478 0 58.278-35.895 58.278-40.38-5.772-3.24-9.728-5.345-12.008-5.345 0 0 5.882 32.495-46.335 32.495-48.52 0-46.335-32.495-46.335-32.495-2.28 0-6.236 2.105-12.003 5.345 0 0 7.368 40.38 58.403 40.38z" fill="#3D3D3D"/><path fill-rule="evenodd" clip-rule="evenodd" d="M413.584 238.323c-9.287 2.238-19.064 3.316-28.797 2.592-8.198-22.369-15.558-36.883-20.013-44.748v270.577s-21.102 6.71-55.866 11.111l-.544-.06c1.88-54.795 5.722-166.47 8.276-240.705 2.055-59.755 31.085-95.29 60.099-117.44-2.675 6.781-5.072 14.606-6.999 23.667 7.354 11.852 24.435 42.069 43.83 94.964.005.014.01.028.014.042zM190.717 477.795c-34.248-4.401-56.476-11.051-56.476-11.051V196.172c-4.456 7.867-11.814 22.379-20.01 44.743-9.633.716-19.3089-.332-28.5108-2.524a1.056 1.056 0 01.0199-.096c19.3769-52.848 36.3059-83.066 43.6099-94.944-1.929-9.075-4.328-16.912-7.006-23.701 29.014 22.15 58.043 57.685 60.099 117.44 2.554 74.235 6.395 185.91 8.276 240.705h-.002z" fill="#000" fill-opacity=".06"/><path d="M291 134.126v-12.201s6-2.219 18-2.219 18 2.219 18 2.219v12.201c0 15.53-7.2 26.622-18 32.168-10.8-5.546-18-16.638-18-32.168z" fill="#3D3D3D"/><path d="M293.25 134.933v-11.092s5.25-2.017 15.75-2.017 15.75 2.017 15.75 2.017v11.092c0 14.118-6.3 23.937-15.75 28.979-9.45-5.042-15.75-14.861-15.75-28.979z" fill="#F2F2F2"/><path d="M295.5 135.739v-10.21s4.5-2.011 13.5-2.011 13.5 2.011 13.5 2.011v10.21c0 12.706-5.4 21.252-13.5 25.79-8.1-4.538-13.5-13.084-13.5-25.79z" fill="#FA5050"/><path fill="#D1D1D1" d="M306 134h6v14h-6z"/><path d="M300.001 139.117l4.174 4.173 4.825-4.825 4.824 4.823 4.175-4.175-4.824-4.823 4.825-4.825-4.174-4.173-4.824 4.824-4.823-4.823-4.176 4.175 4.824 4.823-4.826 4.826z" fill="#F2F2F2"/><circle cx="309" cy="150.5" r="7.5" fill="#F2F2F2"/><circle cx="309" cy="134.25" r="1.5" fill="#3D3D3D"/><path fill="#3D3D3D" d="M313.5 127.962l2.0377 2.0377-2.0377 2.0376-2.0377-2.0376zm-.5 8.417l2.035 2.035-2.035 2.0351-2.035-2.035zm-8 0l2.0353 2.0353L305 140.4495l-2.0353-2.0352zm-.5-8.418l2.0385 2.0385-2.0385 2.0385-2.0385-2.0385z"/></svg>