<svg width="500" height="500" viewBox="0 0 500 500" fill="none" xmlns="http://www.w3.org/2000/svg"><path fill-rule="evenodd" clip-rule="evenodd" d="M203 109.2h93.6V22H203v87.3Z" fill="#B89215"/><path fill-rule="evenodd" clip-rule="evenodd" d="M202.9 32.2h93.4V18H203v14.2Z" fill="#D5A811"/><path fill-rule="evenodd" clip-rule="evenodd" d="M87.5 75.3S46.8 148 29 203c4.4 13.4 45.2 40.9 85.2 38 13.4-36.5 24.5-52 24.5-52s3-95.2-51.2-113.7M411.5 75.3S452.2 148 470 203c-4.4 13.4-45.2 40.9-85.2 38-13.4-36.5-24.5-52-24.5-52s-3-95.2 51.2-113.7" fill="#F2BF13"/><path fill-rule="evenodd" clip-rule="evenodd" d="M249.5 57.7c-50 0-47.8-39.5-48.7-39.1-7.5 2.6-24.2 14.9-52.5 25.5-31.8 11.8-52.6 19.3-60.8 31.2 11.2 8.9 46.7 29 46.7 120.3v271.1s49.7 14.9 115 14.9c68.9 0 115.6-14.9 115.6-14.9V195.6c0-91.4 35.6-111.4 46.7-120.3-8.2-12-29-19.4-60.8-31.2-28.4-10.6-45-23-52.5-25.6-1-.3 4.2 39.2-48.7 39.2Z" fill="#F2BF13"/><path fill-rule="evenodd" clip-rule="evenodd" d="M307.9 23.3a35.3 35.3 0 0 0-12-5.3s5.8 32.5-46.4 32.5C201 50.5 203.2 18 203.2 18c-2.3 0-6.3 2.1-12 5.3 0 0 7.3 40.4 58.4 40.4 51.5 0 58.3-35.9 58.3-40.4ZM120 226.1c-1.9 4.5-3.8 9.4-5.8 14.8-40 3-80.8-24.5-85.2-37.9 1.8-5.4 3.7-11 5.9-16.7 10.3 11 22.7 19.8 37.4 26.5A164.3 164.3 0 0 0 120 226ZM379.2 226.1c17.1-2.2 33-6.6 47.7-13.3a117.3 117.3 0 0 0 37.4-26.5c2.1 5.7 4.1 11.3 5.9 16.7-4.5 13.4-45.2 40.9-85.2 38-2-5.5-4-10.4-5.8-14.9Z" fill="#0B42B9"/><path fill-rule="evenodd" clip-rule="evenodd" d="m467.5 195.3 2.6 7.9c-4.4 13.4-45.2 40.9-85.2 37.9l-2.8-7.5c20.8-1.4 38-5.7 51.6-12.9a125.5 125.5 0 0 0 33.8-25.4ZM31.7 195.3c9 9.8 20.3 18.3 33.7 25.4a127.9 127.9 0 0 0 51.7 12.8 423 423 0 0 0-2.9 7.6c-40 3-80.8-24.6-85.2-38l2.7-7.8Z" fill="#F2BF13"/><path fill-rule="evenodd" clip-rule="evenodd" d="M413.6 238.3c-9.3 2.3-19 3.3-28.8 2.6a303.9 303.9 0 0 0-20-44.7v270.5s-21.1 6.8-55.9 11.2l-.5-.1 8.2-240.7a147 147 0 0 1 60.1-117.4c-2.6 6.7-5 14.6-7 23.6a529.7 529.7 0 0 1 43.9 95ZM190.7 477.8c-34.2-4.4-56.5-11-56.5-11V196.1a304 304 0 0 0-20 44.7 93.6 93.6 0 0 1-28.5-2.6c19.4-52.9 36.3-83 43.6-95-1.9-9-4.3-16.9-7-23.7a147 147 0 0 1 60.1 117.5l8.3 240.7Z" fill="#000" fill-opacity=".1"/><path d="m309 168-20.6-52h41.1L309 168Z" fill="#4BC8FE"/><path fill-rule="evenodd" clip-rule="evenodd" d="m309 173.4-23.5-59.3h47L309 173.4Zm0-5.4 20.5-52h-41l20.5 52Z" fill="#D5A811"/><path d="m309 168-13.4-33.8h26.8L309 168Z" fill="#0B42B9"/><path d="M320 131.1h-22a13 13 0 0 1 22 0Z" fill="#F2BF13"/><path fill-rule="evenodd" clip-rule="evenodd" d="M295.8 18c1.8 0 4.6 1.3 8.5 3.4-7.1 24.5-25.3 36.8-54.5 36.8s-47.5-12.4-54.7-37c3.7-2 6.4-3.2 8-3.2 0 0-2.1 32.5 46.4 32.5 52.2 0 46.3-32.5 46.3-32.5Z" fill="#F2BF13"/></svg>