<?xml version="1.0" encoding="UTF-8"?><svg width="500" height="500" viewBox="0 0 500 500" fill="none" xmlns="http://www.w3.org/2000/svg"><path fill-rule="evenodd" clip-rule="evenodd" d="M203.003 109.223h93.643V21.9277h-93.643v87.2953z" fill="#B9B9B9"/><path fill-rule="evenodd" clip-rule="evenodd" d="M202.863 32.2279h93.459V18.0278h-93.459v14.2001z" fill="#D1D1D1"/><path fill-rule="evenodd" clip-rule="evenodd" d="M87.5472 75.2598S46.7846 148.06 29 203.031c4.4449 13.375 45.2074 40.86 85.232 37.885 13.339-36.4 24.459-52 24.459-52s2.963-95.0861-51.1438-113.6562zm323.9258 0S452.235 148.06 470.02 203.031c-4.445 13.375-45.208 40.86-85.232 37.885-13.34-36.4-24.459-52-24.459-52s-2.964-95.0861 51.144-113.6562z" fill="#F2F2F2"/><path fill-rule="evenodd" clip-rule="evenodd" d="M467.462 195.3c.936 2.666 1.827 5.303 2.667 7.899-4.445 13.375-45.208 40.86-85.232 37.885-.958-2.613-1.904-5.119-2.835-7.519 20.795-1.358 37.993-5.637 51.594-12.838 13.428-7.108 24.697-15.584 33.806-25.427zm-435.8073 0c9.1031 9.827 20.3606 18.291 33.7724 25.391 13.6109 7.206 30.8241 11.486 51.6389 12.84-.931 2.4-1.877 4.905-2.834 7.517-40.0243 2.975-80.7871-24.51-85.232-37.885.8363-2.585 1.7234-5.209 2.6547-7.863z" fill="#234BB0"/><path fill-rule="evenodd" clip-rule="evenodd" d="M249.513 57.7056c-50.081 0-47.798-39.4693-48.742-39.1402-7.516 2.6187-24.133 14.9369-52.439 25.4951-31.873 11.8851-52.6256 19.3151-60.7822 31.2002 11.1149 8.915 46.6942 28.9703 46.6942 120.3453v271.141s49.658 14.856 114.885 14.856c68.929 0 115.649-14.856 115.649-14.856V195.606c0-91.375 35.579-111.4303 46.699-120.3453-8.157-11.8851-28.91-19.3151-60.783-31.2002-28.359-10.5767-44.981-22.9195-52.478-25.5088-.927-.3202 4.178 39.1539-48.703 39.1539z" fill="#F2F2F2"/><path fill-rule="evenodd" clip-rule="evenodd" d="M100.037 81.7033a52.1423 52.1423 0 00-3.3914-1.9109c8.5394-11.2398 28.6594-18.5704 59.0414-30.0765 19.302-7.312 33.083-15.4682 42.191-20.6621l-.009-.0504c1.212-.6917 2.343-1.3316 3.394-1.9104l1.73 3.2145c-9.03 5.0642-23.459 13.9728-44.362 21.8916-29.863 11.3096-49.812 18.5851-58.594 29.5042zm-10.0917-4.7864c8.0311-11.886 28.4647-19.316 59.8477-31.201 19.301-7.312 33.083-15.4682 42.191-20.6621-.007-.0333-.01-.0504-.01-.0504l.024-.0137 1.738 3.2283c-9.103 5.2076-22.521 12.9811-40.999 19.9811-30.458 11.535-50.603 18.8735-59.1057 30.1613l-3.686-1.4435zm312.2357 2.8719A52.1155 52.1155 0 00398.79 81.7c-8.781-10.9207-28.73-18.1965-58.596-29.5071-20.204-7.654-34.36-16.2328-43.438-21.3709l1.584-3.304c.826.4606 1.698.9551 2.617 1.4793 0 0-.004.017-.01.0503 9.108 5.1939 22.889 13.3501 42.191 20.6622 30.384 11.5069 50.505 18.8378 59.043 30.079zm6.7-2.876c-1.26.4392-2.488.9212-3.686 1.4437-8.501-11.2891-28.646-18.6279-59.107-30.1636-18.275-6.9234-31.602-14.6034-40.698-19.8092l1.413-3.414.048.0276s-.003.017-.01.0503c9.108 5.1939 22.89 13.3501 42.191 20.6622 31.383 11.885 51.817 19.315 59.848 31.2v.001s0 .0006.001.002z" fill="#234BB0"/><path fill-rule="evenodd" clip-rule="evenodd" d="M413.584 238.323c-9.288 2.238-19.065 3.316-28.798 2.592-8.198-22.369-15.557-36.883-20.013-44.748v270.577s-21.102 6.71-55.866 11.111l-.544-.06c1.881-54.795 5.722-166.47 8.276-240.705 2.056-59.755 31.085-95.29 60.099-117.44-2.675 6.781-5.071 14.606-6.999 23.667 7.354 11.852 24.436 42.069 43.831 94.964.005.014.01.028.014.042zM190.716 477.795c-34.248-4.401-56.476-11.051-56.476-11.051V196.172c-4.456 7.867-11.814 22.379-20.01 44.743-9.633.716-19.3084-.332-28.5103-2.524a1.056 1.056 0 01.0199-.096c19.3774-52.848 36.3054-83.066 43.6094-94.944-1.928-9.075-4.327-16.912-7.006-23.701 29.014 22.15 58.044 57.685 60.099 117.44 2.554 74.235 6.396 185.91 8.276 240.705h-.002z" fill="#000" fill-opacity=".06"/><path fill-rule="evenodd" clip-rule="evenodd" d="M249.577 63.7548c51.478 0 58.278-35.895 58.278-40.38-5.772-3.24-9.728-5.345-12.008-5.345 0 0 5.882 32.495-46.335 32.495-48.52 0-46.335-32.495-46.335-32.495-2.28 0-6.236 2.105-12.003 5.345 0 0 7.368 40.38 58.403 40.38z" fill="#EBEBEB"/><path d="M287 127.286C287 157.667 309 165 309 165s22-7.333 22-37.714c0 0-5-6.286-22-6.286s-22 6.286-22 6.286z" fill="#234BB0"/><path d="M289 128.714C289 156.333 309 163 309 163s20-6.667 20-34.286c0 0-4.545-5.714-20-5.714s-20 5.714-20 5.714z" fill="#EDD686"/><path d="M295.118 136c-.077-.958-.118-1.958-.118-3 0 0 3.182-4 14-4s14 4 14 4c0 1.042-.041 2.042-.118 3h-27.764z" fill="#234BB0"/><path d="M304 137h-8.787c.991 9.029 5.259 14.238 8.787 17.062V137zm10 17.063c3.528-2.824 7.797-8.034 8.788-17.063H314v17.063z" fill="#BBBD90"/><path d="M305 154.817V137h8v17.817c-2.256 1.602-4 2.183-4 2.183s-1.743-.581-4-2.183z" fill="#FCF8D4"/><circle cx="309" cy="132.5" r="2.5" fill="#B0BEE2"/></svg>