<?xml version="1.0" encoding="UTF-8"?><svg width="500" height="500" viewBox="0 0 500 500" fill="none" xmlns="http://www.w3.org/2000/svg"><path fill-rule="evenodd" clip-rule="evenodd" d="M203.006 109.193h93.643V21.8979h-93.643v87.2951z" fill="#1D1D1D"/><path fill-rule="evenodd" clip-rule="evenodd" d="M202.866 32.198h93.459v-14.2h-93.459v14.2z" fill="#363636"/><path fill-rule="evenodd" clip-rule="evenodd" d="M249.514 57.7054c-50.081 0-47.798-39.4691-48.742-39.14-7.516 2.6187-24.133 14.9368-52.439 25.495-31.873 11.885-52.6257 19.315-60.7822 31.2 11.1148 8.915 46.6942 28.9696 46.6942 120.3446v271.14S183.903 481.6 249.13 481.6c68.929 0 115.649-14.855 115.649-14.855v-271.14c0-91.375 35.579-111.4296 46.699-120.3446-8.157-11.885-28.91-19.315-60.783-31.2-28.359-10.5767-44.981-22.9194-52.478-25.5087-.927-.3202 4.178 39.1537-48.703 39.1537z" fill="#3556A9"/><path fill-rule="evenodd" clip-rule="evenodd" d="M265.462 56.2707c15.676-3.0937 23.748-10.752 27.937-18.3668V479.548c-8.696.807-18.037 1.431-27.937 1.768V56.2707zm58.867-23.8797c7.325 3.7531 16.071 7.8241 26.363 11.6625.528.1967 1.052.3922 1.574.5865v425.441c-6.829 1.636-16.283 3.657-27.937 5.545V32.391zm-89.797 448.958c-9.8-.327-19.156-.961-27.937-1.79V37.8037c4.477 7.684 12.681 15.4345 27.937 18.5119V481.349zm-58.867-5.74c-11.439-1.847-20.935-3.817-27.936-5.43V44.2778c.2-.0746.4-.1494.601-.2243 10.751-4.01 19.815-8.2739 27.335-12.1639V475.609z" fill="#F2F2F2"/><path fill-rule="evenodd" clip-rule="evenodd" d="M87.5505 75.2598S46.7877 148.06 29.0029 203.03c4.445 13.375 45.2078 40.86 85.2321 37.885 13.34-36.4 24.46-52 24.46-52s2.963-95.0852-51.1445-113.6552zm323.9255 0S452.239 148.06 470.023 203.03c-4.445 13.375-45.207 40.86-85.232 37.885-13.34-36.4-24.459-52-24.459-52s-2.964-95.0852 51.144-113.6552z" fill="#3556A9"/><path fill-rule="evenodd" clip-rule="evenodd" d="M113.823 94.4405c7.056 8.9385 12.121 19.7345 15.753 30.7855L78.3779 236.381c-9.335-2.896-17.9963-6.863-25.3896-11.186L113.823 94.4404v.0001zm271.468 0v-.0001l60.834 130.7546c-7.391 4.321-16.049 8.287-25.38 11.183L369.553 125.18c3.631-11.035 8.691-21.813 15.738-30.7395z" fill="#F2F2F2"/><path fill-rule="evenodd" clip-rule="evenodd" d="M119.982 226.098c-1.849 4.494-3.775 9.427-5.75 14.816-40.0243 2.975-80.7871-24.51-85.232-37.885 1.7572-5.432 3.7388-11.037 5.8832-16.729 10.2695 10.965 22.7409 19.794 37.4143 26.489 14.6578 6.687 30.5525 11.123 47.6845 13.309zm259.223 0c17.132-2.186 33.027-6.622 47.684-13.309 14.674-6.695 27.145-15.524 37.415-26.489 2.144 5.692 4.126 11.297 5.883 16.729-4.445 13.375-45.208 40.86-85.232 37.885-1.975-5.389-3.901-10.322-5.75-14.816zM249.577 63.7514c51.478 0 58.278-35.895 58.278-40.38-5.772-3.24-9.728-5.345-12.008-5.345 0 0 5.882 32.495-46.335 32.495-48.52 0-46.335-32.495-46.335-32.495-2.28 0-6.236 2.105-12.003 5.345 0 0 7.368 40.38 58.403 40.38z" fill="#3D3D3D"/><path fill-rule="evenodd" clip-rule="evenodd" d="M413.584 238.323c-9.288 2.238-19.065 3.316-28.798 2.593-8.198-22.369-15.557-36.883-20.013-44.749v270.578s-21.102 6.709-55.866 11.11c-.182-.02-.363-.039-.544-.06 1.881-54.795 5.722-166.47 8.276-240.705 2.056-59.755 31.085-95.29 60.099-117.44-2.675 6.781-5.071 14.607-6.999 23.668 7.354 11.851 24.436 42.068 43.831 94.964.005.014.01.027.014.041zM190.716 477.796c-34.248-4.402-56.476-11.051-56.476-11.051V196.173c-4.456 7.866-11.814 22.379-20.01 44.743-9.633.716-19.3084-.333-28.5103-2.524.0051-.032.0117-.064.0199-.097 19.3774-52.847 36.3054-83.066 43.6094-94.943-1.928-9.076-4.327-16.913-7.006-23.702 29.014 22.15 58.044 57.685 60.099 117.44 2.554 74.235 6.396 185.91 8.276 240.705l-.002.001z" fill="#000" fill-opacity=".06"/><path d="M291 118h36v23.968C327 159.111 309 168 309 168s-18-8.889-18-26.032V118z" fill="#F2F2F2"/><path d="M293 120h32v21.571C325 157 309 165 309 165s-16-8-16-23.429V120z" fill="#EDC253"/><path d="M295 122h28v19.175C323 154.889 309 162 309 162s-14-7.111-14-20.825V122z" fill="#57ACDC"/><path d="M312.683 129.248c.201-.519.317-1.085.317-1.677 0-2.524-.571-4.571-4-4.571-3.428 0-4 2.047-4 4.571 0 .561.104 1.099.287 1.595-.507.057-.935.459-.962 1.018-.146 3.011-.133 9.87 2.691 13.1l-.162 1.366c-4.557-.24-9.425-1.079-9.425-1.079v2.286S304.429 147 309 147c4.572 0 11.572-1.143 11.572-1.143v-2.286s-3.276.611-7.362.94c.239-.452.361-.981.362-1.511l-.001-12.637c0-.561-.394-1.001-.888-1.115zM306 150h6l2 5-5 4-5-4 2-5z" fill="#F2F2F2"/><rect x="297" y="124" width="5" height="5" rx="1" fill="#A2CFE6"/><rect x="316" y="124" width="5" height="5" rx="1" fill="#A2CFE6"/><ellipse cx="307" cy="127" rx="1" ry="2" fill="#E7A558"/><ellipse cx="311" cy="127" rx="1" ry="2" fill="#E7A558"/></svg>