<?xml version="1.0" encoding="UTF-8"?><svg width="500" height="500" viewBox="0 0 500 500" fill="none" xmlns="http://www.w3.org/2000/svg"><path fill-rule="evenodd" clip-rule="evenodd" d="M203.004 109.223h93.643V21.9282h-93.643v87.2948z" fill="#C8C8C8"/><path fill-rule="evenodd" clip-rule="evenodd" d="M202.863 32.2278h93.459v-14.2h-93.459v14.2z" fill="#E3E3E3"/><path fill-rule="evenodd" clip-rule="evenodd" d="M87.5475 75.2583S46.7848 148.058 29 203.028c4.4449 13.375 45.2077 40.86 85.232 37.885 13.34-36.4 24.46-52 24.46-52s2.963-95.0847-51.1445-113.6547zM411.472 75.2583s40.763 72.7997 58.548 127.7697c-4.445 13.375-45.208 40.86-85.233 37.885-13.339-36.4-24.459-52-24.459-52s-2.964-95.0847 51.144-113.6547z" fill="#F2F2F2"/><path fill-rule="evenodd" clip-rule="evenodd" d="M249.51 57.7025c-50.081 0-47.798-39.4691-48.742-39.14-7.516 2.6187-24.133 14.9368-52.439 25.495-31.873 11.885-52.6256 19.315-60.7821 31.2 11.1148 8.915 46.6941 28.9695 46.6941 120.3445v271.14s49.658 14.856 114.885 14.856c68.929 0 115.649-14.856 115.649-14.856v-271.14c0-91.375 35.579-111.4295 46.699-120.3445-8.157-11.885-28.91-19.315-60.782-31.2-28.36-10.5767-44.982-22.9195-52.479-25.5087-.927-.3203 4.178 39.1537-48.703 39.1537z" fill="#F2F2F2"/><path d="M128.551 139.683c.051.217.101.435.152.653C157.76 139.453 211.402 138 250 138c38.17 0 91.051 1.421 120.32 2.307-2.815 12.192-4.77 26.72-5.359 44.089-26.425-.892-78.079-2.46-114.961-2.46-37.344 0-89.835 1.607-115.944 2.494-.598-17.682-2.61-32.42-5.505-44.747z" fill="#3D3D3D"/><path d="M388.93 96.8962C373.07 96.3677 299.276 94 250 94c-50.357 0-126.321 2.4728-139.889 2.9283 7.032 9.6627 13.972 23.3867 18.592 43.4077C157.76 139.453 211.402 138 250 138c38.17 0 91.051 1.421 120.321 2.307 4.624-20.027 11.572-33.751 18.609-43.4108z" fill="#B93131"/><path fill-rule="evenodd" clip-rule="evenodd" d="M467.461 195.302c.936 2.666 1.827 5.303 2.667 7.899-4.445 13.375-45.208 40.86-85.232 37.885-.958-2.613-1.904-5.119-2.835-7.52 20.795-1.357 37.993-5.636 51.594-12.837 13.428-7.108 24.697-15.584 33.806-25.427zM31.6547 195.302c9.1031 9.827 20.3606 18.291 33.7724 25.391 13.6109 7.206 30.8241 11.486 51.6389 12.84-.931 2.4-1.877 4.905-2.834 7.517-40.0243 2.975-80.7871-24.51-85.232-37.885.8363-2.585 1.7234-5.209 2.6547-7.863z" fill="#F2F2F2"/><path fill-rule="evenodd" clip-rule="evenodd" d="M203 33.1h93.459V26H203v7.1z" fill="#942424"/><path fill-rule="evenodd" clip-rule="evenodd" d="M307.851 23.345c-5.772-3.24-9.728-5.345-12.008-5.345 0 0 5.882 32.495-46.335 32.495-48.52 0-46.335-32.495-46.335-32.495-2.28 0-6.236 2.105-12.003 5.345 0 0 7.368 40.38 58.403 40.38 51.478 0 58.278-35.895 58.278-40.38z" fill="#F2F2F2"/><path fill-rule="evenodd" clip-rule="evenodd" d="M413.585 238.323c-9.288 2.238-19.065 3.316-28.798 2.592-8.198-22.369-15.557-36.883-20.013-44.748v270.577s-21.102 6.71-55.866 11.111l-.544-.06c1.881-54.795 5.722-166.47 8.276-240.705 2.056-59.755 31.085-95.29 60.099-117.44-2.675 6.781-5.071 14.606-6.999 23.667 7.354 11.852 24.436 42.069 43.831 94.964.005.014.01.028.014.042zM190.717 477.795c-34.248-4.401-56.476-11.051-56.476-11.051V196.172c-4.456 7.867-11.814 22.379-20.01 44.743-9.633.716-19.3084-.332-28.5103-2.524a1.056 1.056 0 01.0199-.096c19.3774-52.848 36.3054-83.066 43.6094-94.944-1.929-9.075-4.327-16.912-7.006-23.701 29.014 22.15 58.044 57.685 60.099 117.44 2.554 74.235 6.396 185.91 8.276 240.705h-.002z" fill="#000" fill-opacity=".08"/><path d="M292.533 159.233c-.468.158-.942.319-1.424.483l-.06.02c-.293.1-.588.2-.887.301l-1.179.4 1.103 1.915c-.496.172-.914.266-1.217.266H286l3.671 2.992-1.08 2.751h1.486c.441 0 1.104-.134 1.75-.3.681-.175 1.458-.417 2.173-.687.698-.263 1.404-.578 1.901-.916.228-.155.538-.396.728-.738.105-.189.201-.461.169-.785-.033-.336-.191-.601-.372-.786-.041-.041-.143-.188-.273-.502-.014-.035-.029-.07-.043-.107.326-.108.642-.212.951-.313-1.417-.732-2.743-1.686-3.812-2.998-.258-.316-.496-.648-.716-.996zM320.933 163.23c.314.098.632.201.958.307-.014.037-.029.073-.043.108-.13.315-.233.463-.274.504-.181.185-.339.45-.372.786-.032.324.064.596.169.785.19.342.5.583.728.738.497.338 1.203.653 1.901.916.715.27 1.492.512 2.173.687.646.166 1.309.3 1.75.3h1.486l-1.08-2.751 3.671-2.992h-2.869c-.303 0-.721-.094-1.217-.266l1.103-1.915-1.179-.4c-.341-.115-.678-.23-1.011-.343l-.06-.021c-.44-.149-.872-.296-1.3-.441-.22.349-.458.681-.716.997-1.071 1.313-2.399 2.269-3.818 3.001z" fill="#F2F2F2"/><path fill-rule="evenodd" clip-rule="evenodd" d="M287.029 125.149c6.041 1.119 16.302 2.781 20.803-2.889l1.17-1.26 1.17 1.26c4.501 5.67 14.763 4.008 20.803 2.889-2.072 2.495-3.465 6.76-4.07 9.308-.893 3.768-1.197 8.502-.074 13.339l.011.046.008.047c.982 5.688.127 9.611-2.096 12.34-2.154 2.643-5.35 3.835-8.233 4.68-1.458.428-2.749.81-3.856 1.311-1.097.497-1.872 1.052-2.371 1.735l-1.292 1.772-1.293-1.772c-.498-.683-1.273-1.238-2.37-1.735-1.107-.501-2.398-.883-3.856-1.311-2.883-.845-6.078-2.037-8.232-4.68-2.224-2.729-3.079-6.652-2.096-12.34l.008-.047.011-.046c1.122-4.837.819-9.571-.075-13.339-.604-2.548-1.997-6.813-4.07-9.308z" fill="#F2F2F2"/><path d="M309.001 123.388c-5.156 4.734-10.639 5.555-19.325 3.532 2.575 2.902 5.444 10.997 3.064 21.254-1.869 10.815 3.47 13.482 9.188 15.158 2.866.841 5.616 1.647 7.073 3.644 1.457-1.997 4.208-2.803 7.074-3.644 5.717-1.676 11.057-4.343 9.188-15.158-2.38-10.257.488-18.352 3.064-21.254-7.076 2.023-14.17 1.202-19.326-3.532z" fill="#000"/><path fill-rule="evenodd" clip-rule="evenodd" d="M295.312 131.618c3.838 1.852 9.751 1.427 13.154-2.238l.537-.579.538.579c3.401 3.664 9.31 4.09 13.149 2.238-.771.926-1.996 4.068-2.262 6.503-.264 2.415-.113 5.468.705 8.994.979 4.219.399 6.885-1.183 8.632-1.489 1.645-3.747 2.307-5.681 2.873-.032.01-.065.019-.098.029-1.017.298-1.95.573-2.756.938-.802.363-1.412.788-1.818 1.344l-.594.814-.594-.814c-.405-.556-1.016-.981-1.817-1.344-.806-.365-1.739-.64-2.756-.938-.033-.01-.066-.019-.099-.029-1.933-.566-4.192-1.228-5.68-2.873-1.582-1.747-2.162-4.413-1.183-8.632.818-3.528.982-6.582.731-8.998-.253-2.437-1.524-5.575-2.293-6.499z" fill="#fff"/><path d="M309.001 129.898c-2.878 3.143-9.129 4.651-12.522 2.657 1.807 2.171 2.782 7.537 1.113 14.733-1.9 8.189 2.434 9.46 6.446 10.636 2.011.59 3.94 1.156 4.963 2.557 1.022-1.401 2.952-1.967 4.963-2.557 4.012-1.176 8.346-2.447 6.447-10.636-1.67-7.196-.64-12.562 1.167-14.733-3.393 1.994-9.699.486-12.577-2.657z" fill="#C22828"/><path d="M294.848 162.882c.212.813.505 1.625.866 1.992.805.821-4.429 2.462-5.637 2.462l.805-2.052-2.013-1.641c.731 0 1.71-.337 2.675-.783l-1.064-1.85c.299-.101.595-.202.888-.301 6.33-2.151 11.167-3.794 17.657-3.794 6.448 0 11.217 1.622 17.481 3.751.333.113.671.228 1.014.344l-1.065 1.85c.965.446 1.945.783 2.675.783l-2.013 1.641.806 2.052c-1.208 0-6.442-1.641-5.637-2.462.361-.368.655-1.184.867-1.999-4.858-1.621-8.046-2.462-14.179-2.498-6.354-.037-9.108.82-14.126 2.505z" fill="#000"/><path d="M309.026 156.504c5.387 0 9.619 1.122 14.457 2.712a8.569 8.569 0 01-.292.336c-4.754-1.556-8.9-2.637-14.164-2.637-5.267 0-9.445 1.082-14.215 2.639-.1-.109-.198-.221-.292-.336 4.854-1.591 9.118-2.714 14.506-2.714zM297.987 161.863c.182.091.366.178.553.262 3.102-.914 5.791-1.365 10.433-1.338 4.452.026 7.329.477 10.455 1.353.19-.085.378-.173.563-.265-3.329-.967-6.303-1.471-11.016-1.498-4.911-.029-7.671.477-10.988 1.486z" fill="#F2F2F2"/><rect width="3.2516" height="8.129" rx="1.2308" transform="scale(.99056 1.00936) rotate(-45 316.6202 -297.3676)" fill="#F2F2F2"/><rect width="3.2516" height="8.129" rx="1.2308" transform="scale(.99056 1.00936) rotate(-45 321.4972 -309.1418)" fill="#F2F2F2"/><rect width="3.2516" height="8.129" rx="1.2308" transform="scale(.99056 1.00936) rotate(-45 332.7957 -297.5632)" fill="#F2F2F2"/><path d="M309 111l1.123 3.455h3.632l-2.939 2.135 1.123 3.455L309 117.91l-2.939 2.135 1.123-3.455-2.939-2.135h3.632L309 111z" fill="#E1C67F"/></svg>