<svg xmlns="http://www.w3.org/2000/svg" width="501" height="501" fill="none"><path fill="#000766" fill-rule="evenodd" d="M203.95 109.36h93.65v-87.3h-93.65v87.3Z" clip-rule="evenodd"/><path fill="#030B3D" fill-rule="evenodd" d="M203.81 32.36h93.46v-14.2h-93.46v14.2Z" clip-rule="evenodd"/><path fill="#000562" fill-rule="evenodd" d="M88.5 75.42s-40.77 72.8-58.55 127.78c4.44 13.37 45.2 40.86 85.23 37.88 13.34-36.4 24.46-52 24.46-52S142.6 94 88.49 75.42Zm323.92 0s40.76 72.8 58.55 127.78c-4.45 13.37-45.21 40.86-85.24 37.88-13.33-36.4-24.45-52-24.45-52S358.3 94 412.42 75.42Z" clip-rule="evenodd"/><path fill="#000562" fill-rule="evenodd" d="M250.46 57.87c-50.08 0-47.8-39.47-48.74-39.14-7.52 2.62-24.13 14.94-52.44 25.5-31.87 11.88-52.63 19.31-60.78 31.2 11.11 8.91 46.7 28.96 46.7 120.34v271.14s49.65 14.85 114.88 14.85c68.93 0 115.65-14.85 115.65-14.85V195.77c0-91.38 35.57-111.43 46.7-120.34-8.16-11.89-28.92-19.32-60.79-31.2-28.36-10.58-44.98-22.92-52.48-25.51-.92-.32 4.18 39.15-48.7 39.15Z" clip-rule="evenodd"/><path fill="#000981" fill-rule="evenodd" d="M294.68 37.43c45.26 11.33 71.5 39.33 71.5 67.98v72.9c-.3 5.5-.45 11.3-.45 17.43v271.14S319 481.73 250.08 481.73c-65.23 0-114.89-14.85-114.89-14.85V195.74c0-6.26-.16-12.2-.48-17.8V105.4c0-28.84 26.6-57.02 72.42-68.2 5.6 10.12 17.5 20.63 43.33 20.63 27.08 0 38.96-10.36 44.22-20.41Z" clip-rule="evenodd"/><path fill="#F3F3F3" fill-rule="evenodd" d="M97.45 79.22c8.54-11.24 28.66-18.57 59.04-30.07 19.3-7.31 33.08-15.47 42.2-20.67l-.02-.05c1.22-.69 2.35-1.33 3.4-1.9l1.73 3.2c-9.03 5.07-23.46 13.98-44.36 21.9-29.87 11.31-49.82 18.59-58.6 29.5a52.2 52.2 0 0 0-3.39-1.9Zm-6.7-2.87c8.03-11.89 28.47-19.32 59.85-31.2 19.3-7.31 33.08-15.47 42.19-20.67l-.01-.05h.02l1.74 3.22c-9.1 5.2-22.52 12.98-41 19.98-30.46 11.54-50.6 18.87-59.1 30.16l-3.69-1.44Zm312.24 2.88a53.1 53.1 0 0 0-3.4 1.9c-8.78-10.91-28.73-18.19-58.6-29.5-20.2-7.65-34.35-16.23-43.43-21.37l1.58-3.3 2.62 1.47v.06c9.1 5.19 22.88 13.35 42.18 20.66 30.39 11.5 50.5 18.84 59.05 30.08Zm6.7-2.88c-1.26.44-2.5.92-3.69 1.44-8.5-11.29-28.65-18.62-59.1-30.16-18.28-6.92-31.6-14.6-40.7-19.8l1.4-3.42.06.02-.01.06c9.1 5.19 22.89 13.35 42.19 20.66 31.38 11.88 51.81 19.31 59.84 31.2Z" clip-rule="evenodd"/><path fill="#000562" fill-rule="evenodd" d="M250.52 63.92c51.48 0 58.28-35.9 58.28-40.38-5.77-3.24-9.73-5.35-12-5.35 0 0 5.88 32.5-46.34 32.5-48.52 0-46.34-32.5-46.34-32.5-2.28 0-6.23 2.1-12 5.35 0 0 7.37 40.38 58.4 40.38Z" clip-rule="evenodd"/><path fill="#020727" fill-rule="evenodd" d="M287.77 132.97a7.1 7.1 0 0 1 4.5-7.78 49.35 49.35 0 0 1 17.58-3.12c7.68 0 13.7 1.64 17.57 3.12a7.1 7.1 0 0 1 4.51 7.78c-2.01 13.13-10.87 23.35-16.74 28.83a7.73 7.73 0 0 1-10.68 0c-5.87-5.48-14.72-15.7-16.74-28.83Z" clip-rule="evenodd"/><path fill="#0092C4" fill-rule="evenodd" d="M309.85 124.07a47.34 47.34 0 0 0-16.86 2.99 5.1 5.1 0 0 0-3.24 5.6c1.9 12.47 10.36 22.3 16.12 27.68a5.73 5.73 0 0 0 7.96 0c5.76-5.38 14.21-15.2 16.12-27.67a5.1 5.1 0 0 0-3.24-5.61 47.34 47.34 0 0 0-16.86-2.99Zm-18.29-.75a51.33 51.33 0 0 1 18.29-3.25c7.96 0 14.23 1.7 18.29 3.25a9.1 9.1 0 0 1 5.77 9.95c-2.12 13.8-11.38 24.41-17.35 30a9.73 9.73 0 0 1-13.42 0c-5.97-5.59-15.23-16.2-17.35-30a9.1 9.1 0 0 1 5.77-9.95Z" clip-rule="evenodd"/><path fill="#D9D9D9" d="M325.9 137.04c-1.06 6.96-7.4 15.4-12.53 20.78 6.57-9.94 8.91-15.9 9.77-21.48.62-4.03 3.38-3.28 2.77.7Zm-26.85-8.82c6.7-2.15 17.1-.25 24.19 1.94-11.83-1.44-18.2-.87-23.58.85-3.88 1.25-4.45-1.55-.61-2.79Zm5.85 27.79c-5.49-4.4-9.63-14.12-11.72-21.24 5.32 10.66 9.32 15.66 13.72 19.2 3.18 2.55 1.15 4.56-2 2.04Z"/><path fill="#0092C4" d="M309.6 132.06c.14-.58 1.6-.57 1.73.02.56 6.07 0 14.43 5.12 17.63h-11.8c4.88-3.12 4.09-6.8 4.9-17.32 0-.1.02-.22.05-.32Z"/><path fill="#000" fill-opacity=".1" fill-rule="evenodd" d="M414.39 238.49a93.8 93.8 0 0 1-28.8 2.6c-8.2-22.38-15.56-36.9-20.01-44.76v270.58s-21.1 6.7-55.87 11.11l-.54-.06 8.27-240.7c2.06-59.76 31.09-95.3 60.1-117.44a148.7 148.7 0 0 0-7 23.66c7.36 11.85 24.44 42.07 43.83 94.97l.02.04ZM191.52 477.96c-34.25-4.4-56.48-11.05-56.48-11.05V196.34c-4.45 7.86-11.8 22.38-20 44.74a93.6 93.6 0 0 1-28.52-2.52l.02-.1c19.38-52.85 36.31-83.07 43.61-94.94a148.76 148.76 0 0 0-7-23.7c29.01 22.15 58.04 57.68 60.1 117.44 2.55 74.23 6.4 185.9 8.27 240.7Z" clip-rule="evenodd"/></svg>