<?xml version="1.0" encoding="utf-8"?><svg width="500" height="500" viewBox="0 0 500 500" fill="none" xmlns="http://www.w3.org/2000/svg"><path fill-rule="evenodd" clip-rule="evenodd" d="M203.003 109.223h93.643V21.928h-93.643v87.295Z" fill="#E2C21B"/><path fill-rule="evenodd" clip-rule="evenodd" d="M202.863 32.228h93.459v-14.2h-93.459v14.2Z" fill="#164FBB"/><path fill-rule="evenodd" clip-rule="evenodd" d="M87.547 75.258S46.785 148.06 29 203.03c4.445 13.375 45.208 40.86 85.232 37.885 13.34-36.4 24.46-52 24.46-52S141.655 93.83 87.547 75.26Zm323.926 0s40.763 72.801 58.548 127.771c-4.445 13.375-45.208 40.86-85.233 37.885-13.339-36.4-24.459-52-24.459-52s-2.964-95.085 51.144-113.655Z" fill="#F1CF1D"/><path fill-rule="evenodd" clip-rule="evenodd" d="M249.511 57.703c-50.081 0-47.798-39.47-48.742-39.14-7.516 2.618-24.133 14.936-52.439 25.494-31.873 11.886-52.626 19.316-60.782 31.2 11.115 8.915 46.694 28.97 46.694 120.345v271.14s49.658 14.856 114.885 14.856c68.929 0 115.649-14.856 115.649-14.856v-271.14c0-91.375 35.579-111.43 46.699-120.345-8.157-11.885-28.91-19.315-60.782-31.2-28.36-10.576-44.982-22.919-52.479-25.508-.927-.32 4.178 39.154-48.703 39.154Z" fill="#F1CF1D"/><path fill-rule="evenodd" clip-rule="evenodd" d="M307.852 23.345C302.08 20.105 298.124 18 295.844 18c0 0 5.882 32.495-46.335 32.495-48.52 0-46.335-32.495-46.335-32.495-2.28 0-6.236 2.105-12.003 5.345 0 0 7.368 40.38 58.403 40.38 51.478 0 58.278-35.895 58.278-40.38Z" fill="#1A59D2"/><path fill-rule="evenodd" clip-rule="evenodd" d="M413.584 238.323c-9.288 2.238-19.065 3.316-28.798 2.592-8.198-22.369-15.557-36.883-20.013-44.748v270.577s-21.102 6.71-55.866 11.111l-.544-.06c1.881-54.795 5.722-166.47 8.276-240.705 2.056-59.755 31.085-95.29 60.099-117.44-2.675 6.781-5.071 14.606-6.999 23.667 7.354 11.852 24.436 42.069 43.831 94.964l.014.042ZM190.716 477.795c-34.248-4.401-56.476-11.051-56.476-11.051V196.172c-4.456 7.867-11.814 22.379-20.01 44.743-9.633.716-19.308-.332-28.51-2.524a.82.82 0 0 1 .02-.096c19.377-52.848 36.305-83.066 43.609-94.944-1.928-9.075-4.327-16.912-7.006-23.701 29.014 22.15 58.044 57.685 60.099 117.44 2.554 74.235 6.396 185.91 8.276 240.705h-.002Z" fill="#000" fill-opacity=".06"/><path fill-rule="evenodd" clip-rule="evenodd" d="M291 154.502s-.022 7.873 9 7.873c8.978 0 9 4.625 9 4.625s.051-4.625 9-4.625c9 0 9-7.873 9-7.873V125h-36v29.502Z" fill="#1A59D2"/><path d="M307.065 158.111H294v-15.555l3.387 5.833 1.936-10.695 2.903 11.667 2.419-14.097v-5.347l3.387-2.917 3.871 2.917v7.291l1.936-8.264 1.935 11.181 2.42-3.403 3.387 11.667 2.419-5.833v15.555h-13.065l.968 3.889h-5.806l.968-3.889Z" fill="#F1E91D"/><path opacity=".6" fill="#3D3D3D" d="M291 120h36v4h-36z"/><path d="M307 149s.5-1 2-1 2 1 2 1v8h-4v-8Z" fill="#1A59D2"/></svg>