<?xml version="1.0" encoding="UTF-8"?><svg height="500" viewBox="0 0 500 500" width="500" xmlns="http://www.w3.org/2000/svg"><g fill="none" fill-rule="evenodd"><path d="M0 0h500v500H0z"/><path d="M203.006 109.193h93.643V21.898h-93.643z" fill="#b10606"/><path d="M202.867 32.198h93.458v-14.2h-93.458z" fill="#c40707"/><g fill="#e70000"><path d="M87.55 75.26s-40.762 72.8-58.547 127.77c4.445 13.375 45.208 40.86 85.232 37.885 13.34-36.4 24.46-52 24.46-52S141.658 93.83 87.55 75.26M411.476 75.26s40.762 72.8 58.547 127.77c-4.445 13.375-45.208 40.86-85.232 37.885-13.34-36.4-24.46-52-24.46-52S357.368 93.83 411.476 75.26"/><path d="M249.514 57.706c-50.082 0-47.798-39.47-48.742-39.14-7.516 2.618-24.133 14.936-52.439 25.495-31.873 11.885-52.626 19.315-60.782 31.2 11.114 8.915 46.694 28.97 46.694 120.345v271.14S183.903 481.6 249.13 481.6c68.929 0 115.648-14.855 115.648-14.855v-271.14c0-91.375 35.58-111.43 46.7-120.345-8.157-11.885-28.91-19.315-60.783-31.2-28.36-10.577-44.982-22.92-52.478-25.511-.927-.318 4.177 39.156-48.703 39.156z"/></g><path d="M364.778 239.514v15.313c-6.157 1.802-13.475 4.475-22.231 8.235-53.433 22.942-88.03 41.703-114.115 66.958-37.166 35.983-58.934 59.418-72.6 79.78-15.858 23.626-17.33 38.457-4.615 46.862 10.454 6.027 20.586 8.63 30.639 8.95a22.59 22.59 0 0 1-3.177-3.092c-18.928-22.404 8.786-75.421 74.715-130.366 40.72-33.937 81.61-57.854 111.384-65.903v6.596c-28.621 15.558-73.83 47.71-100.2 69.686-30.448 25.376-45.06 40.344-57.76 57.305-12.7 16.962-22.94 44.425-17.523 50.838 5.418 6.413 12.037 12.554 36.572 1.952 26.146-11.299 54.651-31.592 85.1-56.967 20.95-17.46 39.284-33.961 53.811-50.248v17.993c-13.376 14.741-29.3 29.958-47.121 44.81-30.432 25.362-58.348 43.654-81.448 53.796-13.735 7.74-27.753 13.378-41.64 16.23-36.421-4.379-60.324-11.53-60.324-11.53V368.38c2.95-6.733 6.383-12.581 10.241-17.013 23.075-26.503 39.045-56.09 50.457-66.926 7.774-7.382 15.92-20.104 34.908-26.07 15.066-4.733 22.186 7.68 65.246 1.433 24.26-4.527 30.84-2.86 57.27-15.158 4.777-2.224 8.866-3.912 12.411-5.132z" fill="#cd0001"/><path d="M242.588 291.79c10.305-3.478 30.666-17.368 29.742-19.545-24.829 1.77-32.038-5.458-42.593 0-5.26 2.233-10.2 9.274-10.2 13.895 0 4.62 12.746 9.126 23.051 5.65z" fill="#e70000"/><path d="M470.129 203.202c-4.445 13.375-45.208 40.86-85.232 37.885a426.404 426.404 0 0 0-2.836-7.52c20.795-1.358 37.993-5.637 51.595-12.837 13.428-7.11 24.696-15.585 33.805-25.428a337.728 337.728 0 0 1 2.668 7.9zM65.427 220.694c13.611 7.205 30.824 11.485 51.64 12.84-.932 2.4-1.878 4.904-2.835 7.516-40.024 2.975-80.787-24.51-85.232-37.885a338.673 338.673 0 0 1 2.654-7.862c9.104 9.827 20.361 18.29 33.773 25.39zM249.576 63.752c51.479 0 58.279-35.895 58.279-40.38-5.772-3.24-9.728-5.345-12.008-5.345 0 0 5.881 32.495-46.335 32.495-48.52 0-46.336-32.495-46.336-32.495-2.28 0-6.235 2.105-12.002 5.345 0 0 7.368 40.38 58.402 40.38" fill="#db0808"/><g><path d="M291.5 127.545c6.832-4.697 13.232-7.045 19.2-7.045 2.009 1.138 3.569 1.034 6.943 1.235 3.374.2 4.993-.388 4.476 1.062-.098.2-.534.383-.93.383-9.646-1.55-28.483 3.393-22.597 4.858 4.134.247 7.603.371 10.408.371 4.284 0 10.117-.288 17.5-.864 0 15.528-5.835 28.18-17.503 37.955-11.666-9.775-17.499-22.427-17.497-37.955z" fill="#fff"/><path d="M290.5 128.5c7.906 1.078 13.765 1.617 17.576 1.617 3.81 0 9.285-.25 16.424-.749 0 13.848-5.476 24.558-16.427 32.132-11.717-8.153-17.575-19.153-17.573-33z" fill="#e70000"/></g><path d="M413.584 238.323c-9.287 2.238-19.064 3.316-28.798 2.592-8.197-22.369-15.557-36.883-20.012-44.748v270.577s-21.102 6.71-55.867 11.11l-.544-.059c1.881-54.795 5.722-166.47 8.277-240.705 2.055-59.755 31.084-95.29 60.099-117.44-2.676 6.78-5.072 14.606-7 23.667 7.354 11.852 24.436 42.069 43.831 94.964l.014.042zM190.717 477.795c-34.248-4.401-56.477-11.05-56.477-11.05V196.171c-4.456 7.867-11.813 22.38-20.01 44.743-9.632.716-19.308-.332-28.51-2.523.005-.033.012-.065.02-.097 19.377-52.848 36.305-83.066 43.61-94.944-1.93-9.075-4.328-16.912-7.007-23.701 29.015 22.15 58.044 57.685 60.1 117.44 2.554 74.235 6.395 185.91 8.276 240.705z" fill="#000" fill-opacity=".1"/></g></svg>