<svg width="500" height="500" viewBox="0 0 500 500" fill="none" xmlns="http://www.w3.org/2000/svg"><path d="M203.6 109.2h93.6V22h-93.6v87.3Z" fill="#A3A3A3"/><path d="M203.4 32.2H297V18h-93.5v14.2Z" fill="#E0E0E0"/><path d="M88 75.3S47.3 148 29.5 203c4.4 13.4 45.2 40.9 85.2 38 13.4-36.5 24.5-52 24.5-52s3-95.2-51.2-113.7M412 75.3S452.7 148 470.5 203c-4.4 13.4-45.2 40.9-85.2 38-13.4-36.5-24.5-52-24.5-52s-3-95.2 51.2-113.7" fill="#1D4978"/><path d="M250 57.7c-50 0-47.8-39.5-48.7-39.1-7.6 2.6-24.2 14.9-52.5 25.5C117 55.9 96.2 63.4 88 75.3c11.2 8.9 46.7 29 46.7 120.3v271.1s49.7 14.9 115 14.9c68.8 0 115.6-14.9 115.6-14.9V195.6c0-91.4 35.5-111.4 46.7-120.3-8.2-12-29-19.4-60.8-31.2-28.4-10.6-45-23-52.5-25.6-1-.3 4.2 39.2-48.7 39.2Z" fill="#1D4978"/><path d="M308.4 23.3a35.3 35.3 0 0 0-12-5.3s5.9 32.5-46.3 32.5c-48.5 0-46.3-32.5-46.3-32.5-2.3 0-6.3 2.1-12 5.3 0 0 7.3 40.4 58.4 40.4 51.4 0 58.2-35.9 58.2-40.4Z" fill="#F2F2F2"/><path fill-rule="evenodd" clip-rule="evenodd" d="M278.3 480.7V52.3c1.5-.7 2.8-1.4 4-2.2v430.4l-4 .2Zm-119-8.2 4 .7V51.7l-4 1.6v419.2Zm179.6.7v-421l4 1.6v418.6l-4 .8Zm-119.1 7.3 4 .3V52.4l-4-2.3v430.4ZM120.4 226.1c-1.9 4.5-3.8 9.4-5.8 14.8-40 3-80.8-24.5-85.2-37.9 1.8-5.4 3.7-11 5.9-16.7 10.3 11 22.7 19.8 37.4 26.5a164.3 164.3 0 0 0 47.7 13.3ZM379.6 226.1c17.1-2.2 33-6.6 47.7-13.3a117.3 117.3 0 0 0 37.4-26.5c2.1 5.7 4.1 11.3 5.9 16.7-4.5 13.4-45.2 40.9-85.2 38-2-5.5-4-10.4-5.8-14.9Z" fill="#F2F2F2"/><path fill-rule="evenodd" clip-rule="evenodd" d="M75.5 117.3c10.2-20.8 18-35.2 18-35.2 7.9-12 28-19.4 58.7-31.2C171.4 43.5 185 35.2 194 30l-2.2-6.9c-9.2 5.2-23.3 13.4-43 20.7C117 56 96.2 63.2 88.1 75.1c0 0-8.3 14.8-19 35.9 0 0-28.6 57.3-39.6 92 0 0 .5 1.6 2.1 4 1.7 2.6 2.8 3.5 2.8 3.5C47 175 75.5 117.3 75.5 117.3ZM424.5 117.3c-10.2-20.7-18-35.2-18-35.2-7.9-12-28-19.4-58.7-31.2-19-7.4-32.4-15.5-41.2-20.6l1.7-7c9.2 5.2 23.2 13.3 42.9 20.6 31.8 12 52.6 19.3 60.7 31.2 0 0 8.3 14.8 18.9 35.9 18.4 36.3 31.6 67 39.7 92l-1.4 3.1-2.4 3.2c-18.4-44-32.5-74.7-42.2-92Z" fill="#F2F2F2"/><path fill-rule="evenodd" clip-rule="evenodd" d="M82.1 127.1c9.6-20.5 20-37.8 20-37.8 7.4-11.7 26.4-19 55.5-30.8 18-7.3 34-16.4 42.5-21.5l-3-3.7c-8.8 5-24 14.1-42.7 21.4-30.1 11.7-49.7 19-57.4 30.8 0 0-7.8 14.6-17.8 35.3 0 0-27.2 56.6-37.6 90.9 0 0 .5 1.6 2 4 1.6 2.4-.3 3.3-.3 3.3 11.9-35 38.8-91.9 38.8-91.9ZM417.9 127c-9.6-20.4-20-37.7-20-37.7-7.4-11.7-26.4-19-55.5-30.8-18-7.3-34-16.4-42.5-21.5l3-3.7c8.8 5 24 14.1 42.7 21.4 30.1 11.7 49.7 19 57.4 30.8 0 0 7.8 14.5 17.8 35.3 0 0 27.2 56.6 37.5 90.9 0 0-.4 1.5-2 4-1.5 2.4.4 3.3.4 3.3-11.9-35-38.8-92-38.8-92Z" fill="#F2F2F2"/><path fill-rule="evenodd" clip-rule="evenodd" d="M413.6 238.3c-9.3 2.3-19 3.3-28.8 2.6a304 304 0 0 0-20-44.7v270.5s-21.1 6.8-55.9 11.2l-.5-.1 8.2-240.7a147 147 0 0 1 60.1-117.4c-2.6 6.7-5 14.6-7 23.6 7.4 11.9 24.5 42 43.9 95ZM190.7 477.8c-34.2-4.4-56.5-11-56.5-11V196.1a304 304 0 0 0-20 44.7 93.6 93.6 0 0 1-28.5-2.6c19.4-52.9 36.3-83 43.6-95-1.9-9-4.3-16.9-7-23.7a147 147 0 0 1 60.1 117.5l8.3 240.7Z" fill="#000" fill-opacity=".1"/><path fill-rule="evenodd" clip-rule="evenodd" d="M329 122.4h-38v41.2h38v-41.2Zm-39-1v43.2h40v-43.2h-40Z" fill="#fff"/><path d="M306.3 126.6h2.8v6h-2.8v-6ZM310.9 126.6h2.8v6h-2.8v-6ZM298 150.6h3.3v6.6H298v-6.6ZM304.3 147.2h4.2v12.2h-4.2v-12.2ZM311.5 147.2h4.2v12.2h-4.2v-12.2ZM318.7 150.6h3.4v6.6h-3.4v-6.6ZM295.2 135.6h13.6v4h-13.6v-4ZM311.2 135.6h13.6v4h-13.6v-4ZM299.4 142.6h21.2v1.6h-21.2v-1.6Z" fill="#fff"/></svg>