<?xml version="1.0" encoding="utf-8"?><svg width="500" height="500" viewBox="0 0 500 500" fill="none" xmlns="http://www.w3.org/2000/svg"><path fill-rule="evenodd" clip-rule="evenodd" d="M203.003 109.223h93.643V21.928h-93.643v87.295Z" fill="#065539"/><path fill-rule="evenodd" clip-rule="evenodd" d="M202.863 32.228h93.459v-14.2h-93.459v14.2Z" fill="#E3E3E3"/><path fill-rule="evenodd" clip-rule="evenodd" d="M87.547 75.258S46.785 148.058 29 203.029c4.445 13.375 45.208 40.86 85.232 37.885 13.34-36.4 24.46-52 24.46-52s2.963-95.085-51.145-113.655ZM411.473 75.258s40.763 72.8 58.548 127.77c-4.445 13.375-45.208 40.86-85.233 37.885-13.339-36.4-24.459-52-24.459-52s-2.964-95.085 51.144-113.655Z" fill="#0C724E"/><path fill-rule="evenodd" clip-rule="evenodd" d="M249.511 57.703c-50.081 0-47.798-39.47-48.742-39.14-7.516 2.618-24.133 14.936-52.439 25.494-31.873 11.886-52.626 19.316-60.782 31.2 11.115 8.915 46.694 28.97 46.694 120.345v271.14s49.658 14.856 114.885 14.856c68.929 0 115.649-14.856 115.649-14.856v-271.14c0-91.375 35.579-111.43 46.699-120.345-8.157-11.885-28.91-19.315-60.782-31.2-28.36-10.576-44.982-22.919-52.479-25.508-.927-.32 4.178 39.154-48.703 39.154Z" fill="#0C724E"/><path fill-rule="evenodd" clip-rule="evenodd" d="M467.462 195.302a337.97 337.97 0 0 1 2.667 7.9c-4.445 13.375-45.208 40.86-85.232 37.885a428.49 428.49 0 0 0-2.835-7.52c20.795-1.358 37.993-5.637 51.594-12.837 13.428-7.109 24.697-15.585 33.806-25.428ZM31.655 195.302c9.103 9.828 20.36 18.291 33.772 25.392 13.611 7.205 30.824 11.485 51.639 12.84a423.042 423.042 0 0 0-2.834 7.516C74.208 244.025 33.445 216.54 29 203.165a339.518 339.518 0 0 1 2.655-7.863Z" fill="#0A6746"/><path fill-rule="evenodd" clip-rule="evenodd" d="M307.852 23.345C302.08 20.105 298.124 18 295.844 18c0 0 5.882 32.495-46.335 32.495-48.52 0-46.335-32.495-46.335-32.495-2.28 0-6.236 2.105-12.003 5.345 0 0 7.368 40.38 58.403 40.38 51.478 0 58.278-35.895 58.278-40.38Z" fill="#F2F2F2"/><path fill-rule="evenodd" clip-rule="evenodd" d="M413.584 238.323c-9.288 2.238-19.065 3.316-28.798 2.592-8.198-22.369-15.557-36.883-20.013-44.748v270.577s-21.102 6.71-55.866 11.111l-.544-.06c1.881-54.795 5.722-166.47 8.276-240.705 2.056-59.755 31.085-95.29 60.099-117.44-2.675 6.781-5.071 14.606-6.999 23.667 7.354 11.852 24.436 42.069 43.831 94.964l.014.042ZM190.716 477.795c-34.248-4.401-56.476-11.051-56.476-11.051V196.172c-4.456 7.867-11.814 22.379-20.01 44.743-9.633.716-19.308-.332-28.51-2.523.005-.032.011-.065.02-.097 19.377-52.848 36.305-83.066 43.609-94.944-1.928-9.075-4.327-16.912-7.006-23.701 29.014 22.15 58.044 57.685 60.099 117.44 2.554 74.235 6.396 185.91 8.276 240.705h-.002Z" fill="#000" fill-opacity=".06"/><path fill-rule="evenodd" clip-rule="evenodd" d="M309 170c12.703 0 23-10.297 23-23s-10.297-23-23-23-23 10.297-23 23 10.297 23 23 23Z" fill="#F2F2F2"/><path fill-rule="evenodd" clip-rule="evenodd" d="M309 168c11.598 0 21-9.402 21-21s-9.402-21-21-21-21 9.402-21 21 9.402 21 21 21Z" fill="#078559"/><path fill-rule="evenodd" clip-rule="evenodd" d="M309 161c7.732 0 14-6.268 14-14s-6.268-14-14-14-14 6.268-14 14 6.268 14 14 14Z" fill="#F2F2F2"/><path fill-rule="evenodd" clip-rule="evenodd" d="M309 159c6.627 0 12-5.373 12-12s-5.373-12-12-12-12 5.373-12 12 5.373 12 12 12Z" fill="#F2F2F2"/><path d="M308.986 144 306 145.95l1.2 4.05h3.6l1.2-4.05-3.014-1.95Z" fill="#282828"/><path fill-rule="evenodd" clip-rule="evenodd" d="M309 159c6.627 0 12-5.373 12-12s-5.373-12-12-12-12 5.373-12 12 5.373 12 12 12Zm10.667-12c0 2.245-.694 4.328-1.878 6.046l-.582-1.622-2.553 1.218-1.233 2.569 1.654.558a10.623 10.623 0 0 1-6.075 1.898c-2.255 0-4.346-.7-6.069-1.894l1.648-.562-1.233-2.569-2.553-1.218-.568 1.643a10.62 10.62 0 0 1-1.892-6.067c0-.815.092-1.609.265-2.372l.928 1.4 2.152-1.837.525-2.8-2.076-.313a10.671 10.671 0 0 1 7.031-4.586l-.825 1.985 2.688.944 2.667-.944-.804-1.978a10.67 10.67 0 0 1 6.989 4.58l-2.377.312.526 2.8 2.151 1.837 1.234-1.376c.17.755.26 1.541.26 2.348Z" fill="#282828"/><path d="m319 127 3.99 7.089 8.134-.089-4.144 7 4.144 7-8.134-.089L319 155l-3.99-7.089-8.134.089 4.144-7-4.144-7 8.134.089L319 127Z" fill="#F2F2F2"/><path d="m319 130 3.135 5.57 6.391-.07-3.256 5.5 3.256 5.5-6.391-.07L319 152l-3.135-5.57-6.391.07 3.256-5.5-3.256-5.5 6.391.07L319 130Z" fill="#3D3D3D"/><path d="m303 115 1.07 2.528 2.734.236-2.073 1.798.62 2.674L303 120.82l-2.351 1.416.62-2.674-2.073-1.798 2.734-.236L303 115ZM315 115l1.07 2.528 2.734.236-2.073 1.798.62 2.674L315 120.82l-2.351 1.416.62-2.674-2.073-1.798 2.734-.236L315 115Z" fill="#CAA239"/></svg>