<svg xmlns="http://www.w3.org/2000/svg" width="501" height="501" fill="none"><path fill="#B8B8B8" fill-rule="evenodd" d="M203.5 110.03h93.65v-87.3H203.5v87.3Z" clip-rule="evenodd"/><path fill="#030B3D" fill-rule="evenodd" d="M203.37 33.03h93.45v-14.2h-93.45v14.2Z" clip-rule="evenodd"/><path fill="#0017D5" fill-rule="evenodd" d="M88.05 76.1S47.28 148.9 29.5 203.87c4.44 13.37 45.2 40.86 85.23 37.88 13.34-36.4 24.46-52 24.46-52s2.96-95.08-51.14-113.65Zm323.92 0s40.76 72.8 58.55 127.77c-4.45 13.37-45.2 40.86-85.23 37.88-13.34-36.4-24.46-52-24.46-52s-2.97-95.08 51.14-113.65Z" clip-rule="evenodd"/><path fill="#0017D5" fill-rule="evenodd" d="M250.01 58.54c-50.08 0-47.8-39.47-48.74-39.14-7.52 2.62-24.13 14.94-52.44 25.5-31.87 11.88-52.62 19.31-60.78 31.2 11.11 8.91 46.7 28.97 46.7 120.34v271.14s49.65 14.86 114.88 14.86c68.93 0 115.65-14.86 115.65-14.86V196.44c0-91.37 35.58-111.43 46.7-120.34-8.16-11.89-28.91-19.32-60.79-31.2-28.36-10.58-44.98-22.92-52.48-25.51-.92-.32 4.18 39.15-48.7 39.15Z" clip-rule="evenodd"/><path fill="#FAFAFA" fill-rule="evenodd" d="M294.23 38.1c45.26 11.33 71.5 39.33 71.5 67.98v72.9c-.3 5.5-.45 11.3-.45 17.43v271.14s-46.72 14.85-115.65 14.85c-65.23 0-114.89-14.85-114.89-14.85V196.4c0-6.26-.16-12.2-.48-17.8v-72.53c0-28.84 26.6-57.02 72.42-68.2C212.28 48 224.18 58.5 250 58.5c27.08 0 38.96-10.36 44.22-20.41Z" clip-rule="evenodd"/><path fill="#0017D5" fill-rule="evenodd" d="M250.08 64.59c51.47 0 58.27-35.9 58.27-40.38-5.77-3.24-9.72-5.35-12-5.35 0 0 5.88 32.5-46.34 32.5-48.52 0-46.33-32.5-46.33-32.5-2.28 0-6.24 2.1-12 5.35 0 0 7.36 40.38 58.4 40.38Z" clip-rule="evenodd"/><path fill="#FAFAFA" fill-rule="evenodd" d="M467.66 196.43c.94 2.66 1.83 5.3 2.67 7.9-4.44 13.37-45.2 40.85-85.23 37.88-.96-2.61-1.9-5.12-2.84-7.52 20.8-1.36 38-5.64 51.6-12.84 13.43-7.1 24.7-15.58 33.8-25.42Zm-435.8 0c9.1 9.82 20.36 18.29 33.77 25.39 13.61 7.2 30.82 11.48 51.64 12.84-.93 2.4-1.88 4.9-2.84 7.51-40.02 2.98-80.78-24.5-85.23-37.88.84-2.59 1.73-5.21 2.66-7.86Zm80.3-137.21-1.37 5.39 12.8 6.16-11.78 5.5-12.8-6.17 1.2-4.74c3.46-2.09 7.44-4.1 11.95-6.14Zm20.59-8.36-.96 3.75 12.8 6.16-11.78 5.5-12.8-6.17 1.2-4.74c2.88-1.16 5.92-2.35 9.11-3.57l2.43-.93ZM390.17 64.6l-1.22-4.75c4.58 2.11 8.59 4.22 12.02 6.4l.98 3.85-12.8 6.17-11.79-5.5 12.8-6.16-1.2-4.76 1.2 4.76Zm-21-10-.83-3.23 2.43.94a452.7 452.7 0 0 1 9.11 3.6l1.07 4.2-12.8 6.16-11.79-5.5 12.8-6.16Z" clip-rule="evenodd"/><path fill="#000" fill-opacity=".1" fill-rule="evenodd" d="M413.94 239.16a93.79 93.79 0 0 1-28.8 2.6c-8.2-22.38-15.56-36.9-20.01-44.76v270.58s-21.1 6.71-55.87 11.11l-.54-.06 8.28-240.7c2.05-59.76 31.08-95.3 60.1-117.44a148.5 148.5 0 0 0-7 23.66c7.35 11.85 24.43 42.07 43.83 94.97l.01.04ZM191.07 478.63c-34.25-4.4-56.47-11.05-56.47-11.05V197.01c-4.46 7.87-11.82 22.38-20.01 44.74a93.5 93.5 0 0 1-28.51-2.52c0-.03 0-.07.02-.1 19.37-52.85 36.3-83.06 43.6-94.94a148.63 148.63 0 0 0-7-23.7c29.01 22.15 58.04 57.68 60.1 117.44 2.55 74.23 6.4 185.9 8.27 240.7Z" clip-rule="evenodd"/><path fill="#E9BC68" d="m301.34 121.84 1.27.85c2.35 1.58 4.62 2.35 6.86 2.35 2.23 0 4.5-.77 6.85-2.35l1.27-.85 8.52 7.37-.68 1.37c-2.32 4.7-2 7.11.5 12.28l.1.2c1.9 3.91 2.34 6 2.02 9.12-.36 3.62-3.82 8.09-10.76 10.25l-2.7.81c-2.14.64-3.5 1.54-4 1.86-.5.31-1.22 1.3-1.22 1.3s-.83-1.03-1.26-1.3c-.43-.27-1.79-1.2-3.97-1.84l-2.51-.73c-6.3-1.93-10.02-5.88-10.95-10.04-.83-3.7-.13-6.13 2.1-10.43l.08-.15c2.47-4.76 2.8-6.96.64-11.33l-.68-1.37 8.52-7.37Z"/><path fill="#fff" d="M307.23 162.51c-.54-.23-4.7-1.6-6.08-2.18-4.57-1.94-7.4-4.44-8.21-8.26-.7-3.3-.1-5.44 2-9.68 2.57-5.16 2.89-7.62.38-12.11l-.4-.7 6.48-5.7.63.4c2.58 1.6 5.02 2.4 7.33 2.4 2.3 0 4.74-.8 7.32-2.4l.63-.4 6.48 5.7-.4.7c-2.5 4.49-2.19 6.95.38 12.1 2.1 4.25 2.7 6.39 2 9.69-.8 3.83-3.63 6.32-8.2 8.26-1.4.58-5.54 1.94-6.09 2.18-.45.2-2.12 1.06-2.12 1.53 0-.46-1.7-1.34-2.13-1.53Z"/><path fill="#0017D5" fill-rule="evenodd" d="M309.36 127.68c2.5 0 5.12-.85 7.85-2.56l5.3 4.67c-5.65 10.15 4.06 13.61 2.29 22.07-1.78 8.47-15.41 8.73-15.44 11.23-.04-2.5-13.67-2.76-15.44-11.23-1.78-8.46 7.94-11.92 2.27-22.07l5.31-4.67c2.73 1.7 5.35 2.56 7.86 2.56Z" clip-rule="evenodd"/><path fill="#2B9CF2" d="M316.64 143.96c0 5.83-3.26 10.56-7.28 10.56-4.03 0-7.29-4.73-7.29-10.56 0-5.84 3.26-10.57 7.29-10.57 4.02 0 7.28 4.73 7.28 10.57Z"/><path fill="#E9BC68" fill-rule="evenodd" d="M312.86 150.3a11.3 11.3 0 0 0 1.78-6.34c0-2.57-.72-4.8-1.78-6.34-1.07-1.55-2.34-2.23-3.5-2.23-1.17 0-2.44.68-3.5 2.23a11.3 11.3 0 0 0-1.79 6.34c0 2.56.72 4.8 1.78 6.33 1.07 1.55 2.34 2.23 3.5 2.23 1.17 0 2.44-.68 3.51-2.23Zm-3.5 4.22c4.02 0 7.28-4.73 7.28-10.56 0-5.84-3.26-10.57-7.28-10.57-4.03 0-7.29 4.73-7.29 10.57 0 5.83 3.26 10.56 7.29 10.56Z" clip-rule="evenodd"/></svg>