<?xml version="1.0" encoding="UTF-8"?><svg width="500" height="500" viewBox="0 0 500 500" fill="none" xmlns="http://www.w3.org/2000/svg"><path fill-rule="evenodd" clip-rule="evenodd" d="M203.607 109.223h93.432V21.928h-93.432v87.295z" fill="#CE1D00"/><path fill-rule="evenodd" clip-rule="evenodd" d="M203.468 32.2281h93.248v-14.2h-93.248v14.2z" fill="#E0E0E0"/><path fill-rule="evenodd" clip-rule="evenodd" d="M87.5475 75.2585S46.7848 148.059 29 203.029c4.4449 13.375 45.2077 40.86 85.232 37.885 13.34-36.4 24.46-52 24.46-52s2.963-95.0855-51.1445-113.6555zm323.9255 0s40.763 72.8005 58.547 127.7705c-4.445 13.375-45.207 40.86-85.232 37.885-13.34-36.4-24.46-52-24.46-52s-2.963-95.0855 51.145-113.6555z" fill="#F2F2F2"/><path fill-rule="evenodd" clip-rule="evenodd" d="M249.511 57.7025c-50.082 0-47.798-39.4691-48.742-39.14-7.516 2.6187-24.133 14.9368-52.439 25.495-31.873 11.885-52.6258 19.315-60.7824 31.2 11.1149 8.915 46.6944 28.9695 46.6944 120.3445v271.14s49.658 14.856 114.885 14.856c68.929 0 115.648-14.856 115.648-14.856v-271.14c0-91.375 35.58-111.4295 46.7-120.3445-8.157-11.885-28.91-19.315-60.783-31.2-28.36-10.5767-44.982-22.9195-52.478-25.5087-.927-.3203 4.178 39.1537-48.703 39.1537z" fill="#E62100"/><path fill-rule="evenodd" clip-rule="evenodd" d="M119.982 226.098c-1.849 4.494-3.775 9.427-5.75 14.816-40.0243 2.975-80.7871-24.51-85.232-37.885 1.7572-5.432 3.7388-11.037 5.8832-16.729 10.2695 10.965 22.7409 19.794 37.4143 26.489 14.6578 6.687 30.5525 11.123 47.6845 13.309zm259.223 0c17.131-2.186 33.026-6.622 47.684-13.309 14.673-6.695 27.145-15.524 37.414-26.489 2.145 5.692 4.126 11.297 5.883 16.729-4.444 13.375-45.207 40.86-85.232 37.885-1.975-5.389-3.901-10.322-5.749-14.816z" fill="#E62100"/><path fill-rule="evenodd" clip-rule="evenodd" d="M308.219 23.345C302.46 20.105 298.513 18 296.238 18c0 0 5.869 32.495-46.231 32.495-48.411 0-46.23-32.495-46.23-32.495-2.275 0-6.222 2.105-11.976 5.345 0 0 7.352 40.38 58.271 40.38 51.363 0 58.147-35.895 58.147-40.38z" fill="#F1F1F1"/><path fill-rule="evenodd" clip-rule="evenodd" d="M309 167c13.255 0 24-10.745 24-24s-10.745-24-24-24-24 10.745-24 24 10.745 24 24 24z" fill="#fff"/><path fill-rule="evenodd" clip-rule="evenodd" d="M309 162c10.493 0 19-8.507 19-19s-8.507-19-19-19-19 8.507-19 19 8.507 19 19 19z" fill="#D54F53"/><path fill-rule="evenodd" clip-rule="evenodd" d="M413.584 238.323c-9.287 2.238-19.064 3.316-28.798 2.592-8.197-22.369-15.557-36.883-20.012-44.748v270.577s-21.102 6.71-55.867 11.111l-.544-.06c1.881-54.795 5.722-166.47 8.277-240.705 2.055-59.755 31.084-95.29 60.099-117.44-2.676 6.781-5.072 14.606-7 23.667 7.354 11.852 24.436 42.069 43.831 94.964.005.014.01.028.014.042zM190.717 477.795c-34.248-4.401-56.477-11.051-56.477-11.051V196.172c-4.456 7.867-11.813 22.379-20.009 44.743-9.633.716-19.3091-.332-28.511-2.524a1.056 1.056 0 01.0199-.096c19.3771-52.848 36.3051-83.066 43.6101-94.944-1.929-9.075-4.328-16.912-7.007-23.701 29.015 22.15 58.044 57.685 60.099 117.44 2.555 74.235 6.396 185.91 8.277 240.705h-.002z" fill="#000" fill-opacity=".1"/><path fill-rule="evenodd" clip-rule="evenodd" d="M200.527 18.5349c.186.6291.311 3.3529 1.131 7.0917-7.517 3.0394-23.336 14.847-49.942 25.1147-30.81 11.885-50.865 19.315-58.7467 31.2 0 0-7.8123 14.495-17.9444 35.2447l-6.3066-6.323c10.6394-21.0916 18.8293-35.7182 18.8293-35.7182l.002.0007c8.1545-11.8867 28.9074-19.3167 60.7804-31.2017 28.007-10.4468 44.571-22.6165 52.197-25.4089zm97.967 0c7.627 2.7924 24.19 14.9621 52.197 25.4089 31.873 11.885 52.626 19.315 60.781 31.2017 0-.0003.001-.0005.002-.0007 0 0 8.19 14.6266 18.829 35.7182l-6.307 6.323c-10.132-20.7497-17.944-35.2447-17.944-35.2447-7.882-11.885-27.937-19.315-58.747-31.2-26.606-10.2677-42.424-22.0753-49.942-25.1147.82-3.7388.945-6.4626 1.131-7.0917z" fill="#F2F2F2"/><path fill-rule="evenodd" clip-rule="evenodd" d="M300.725 148.955c2.296-.083 3.545-2.819 3.433-6.134-.113-3.315-1.437-5.959-3.839-5.872-2.403.086-3.545 2.819-3.433 6.134.112 3.316 1.543 5.955 3.839 5.872z" fill="#D54F53"/></svg>