<?xml version="1.0" encoding="UTF-8"?><svg height="500" viewBox="0 0 500 500" width="500" xmlns="http://www.w3.org/2000/svg"><g fill="none" fill-rule="evenodd"><path d="M0 0h500v500H0z"/><path d="M203.006 109.193h93.643V21.898h-93.643z" fill="#bfbfbf"/><path d="M202.867 32.198h93.458v-14.2h-93.458z" fill="#383838"/><path d="M87.55 75.26s-40.762 72.8-58.547 127.77c4.445 13.375 45.208 40.86 85.232 37.885 13.34-36.4 24.46-52 24.46-52S141.658 93.83 87.55 75.26M411.476 75.26s40.762 72.8 58.547 127.77c-4.445 13.375-45.208 40.86-85.232 37.885-13.34-36.4-24.46-52-24.46-52S357.368 93.83 411.476 75.26" fill="#f2f2f2"/><path d="M249.514 57.706c-50.082 0-47.798-39.47-48.742-39.14-7.516 2.618-24.133 14.936-52.439 25.495-31.873 11.885-52.626 19.315-60.782 31.2 11.114 8.915 46.694 28.97 46.694 120.345v271.14S183.903 481.6 249.13 481.6c68.929 0 115.648-14.855 115.648-14.855v-271.14c0-91.375 35.58-111.43 46.7-120.345-8.157-11.885-28.91-19.315-60.783-31.2-28.36-10.577-44.982-22.92-52.478-25.511-.927-.318 4.177 39.156-48.703 39.156z" fill="#f2f2f2"/><g fill="#3d3d3d"><path d="M470.129 203.202c-4.445 13.375-45.208 40.86-85.232 37.885a426.404 426.404 0 0 0-2.836-7.52c20.795-1.358 37.993-5.637 51.595-12.837 13.428-7.11 24.696-15.585 33.805-25.428a337.728 337.728 0 0 1 2.668 7.9zM65.427 220.694c13.611 7.205 30.824 11.485 51.64 12.84-.932 2.4-1.878 4.904-2.835 7.516-40.024 2.975-80.787-24.51-85.232-37.885a338.673 338.673 0 0 1 2.654-7.862c9.104 9.827 20.361 18.29 33.773 25.39zM285 47.803v432.424c-11.09.83-23.099 1.34-35.87 1.34-11.971 0-23.418-.5-34.13-1.317V47.592c7.12 5.765 17.954 10.08 34.514 10.08 17.27 0 28.355-4.21 35.486-9.869zm-118-11.65v437.946a415.113 415.113 0 0 1-20-4.115V44.524l1.333-.497A241.37 241.37 0 0 0 167 36.152zm186 8.734v424.992c-5.146 1.246-11.878 2.735-20 4.225V36.609a240.932 240.932 0 0 0 17.695 7.418l2.305.86z"/><path d="M191.174 23.372l2.137 6.63c-8.9 5.143-22.457 13.326-41.595 20.711-28.211 10.883-47.405 18.03-56.493 28.283l-7.608-3.975-.065.096c8.154-11.886 28.907-19.316 60.78-31.201 10.135-3.78 18.771-7.787 26.028-11.492 6.777-3.403 12.35-6.544 16.816-9.053zM307.855 23.372c4.426 2.485 9.932 5.59 16.622 8.957 7.295 3.732 15.993 7.774 26.214 11.587 31.873 11.885 52.626 19.315 60.78 31.201l-.066-.094-7.49 4.105c-9.04-10.324-28.278-17.486-56.61-28.415-18.71-7.22-32.085-15.202-40.991-20.361z"/><path d="M249.576 63.752c51.479 0 58.279-35.895 58.279-40.38-5.772-3.24-9.728-5.345-12.008-5.345 0 0 5.881 32.495-46.335 32.495-48.52 0-46.336-32.495-46.336-32.495-2.28 0-6.235 2.105-12.002 5.345 0 0 7.368 40.38 58.402 40.38"/></g><path d="M292 118h34v20.588c0 13.101-5.667 22.905-17 29.412-11.333-6.51-17-16.314-17-29.412V118z" fill="#000"/><path d="M294 120h30v18.941c0 12.053-5 21.073-15 27.059-10-5.989-15-15.009-15-27.059V120z" fill="#fff"/><g fill="#000"><path d="M299 129v24.235c-2-4.009-3-8.656-3-13.94V129zm4 0h4v33.632a28.117 28.117 0 0 1-4-3.587zm8 0h4v30.046a28.1 28.1 0 0 1-4 3.587zm8 0h3v10.294c0 5.287-1 9.934-3 13.943zM296 122h26v7h-26z"/><path d="M413.584 238.323c-9.287 2.238-19.064 3.316-28.798 2.592-8.197-22.369-15.557-36.883-20.012-44.748v270.577s-21.102 6.71-55.867 11.11l-.544-.059c1.881-54.795 5.722-166.47 8.277-240.705 2.055-59.755 31.084-95.29 60.099-117.44-2.676 6.78-5.072 14.606-7 23.667 7.354 11.852 24.436 42.069 43.831 94.964l.014.042zM190.717 477.795c-34.248-4.401-56.477-11.05-56.477-11.05V196.171c-4.456 7.867-11.813 22.38-20.01 44.743-9.632.716-19.308-.332-28.51-2.523.005-.033.012-.065.02-.097 19.377-52.848 36.305-83.066 43.61-94.944-1.93-9.075-4.328-16.912-7.007-23.701 29.015 22.15 58.044 57.685 60.1 117.44 2.554 74.235 6.395 185.91 8.276 240.705z" fill-opacity=".1"/></g></g></svg>