<?xml version="1.0" encoding="UTF-8"?><svg height="500" viewBox="0 0 500 500" width="500" xmlns="http://www.w3.org/2000/svg"><g fill="none" fill-rule="evenodd"><path d="M0 0h500v500H0z"/><path d="M203.006 109.193h93.643V21.898h-93.643z" fill="#bfbfbf"/><path d="M202.867 32.198h93.458v-14.2h-93.458z" fill="#393939"/><g fill="#3d3d3d"><path d="M87.55 75.26s-40.762 72.8-58.547 127.77c4.445 13.375 45.208 40.86 85.232 37.885 13.34-36.4 24.46-52 24.46-52S141.658 93.83 87.55 75.26M411.476 75.26s40.762 72.8 58.547 127.77c-4.445 13.375-45.208 40.86-85.232 37.885-13.34-36.4-24.46-52-24.46-52S357.368 93.83 411.476 75.26"/><path d="M249.514 57.706c-50.082 0-47.798-39.47-48.742-39.14-7.516 2.618-24.133 14.936-52.439 25.495-31.873 11.885-52.626 19.315-60.782 31.2 11.114 8.915 46.694 28.97 46.694 120.345v271.14S183.903 481.6 249.13 481.6c68.929 0 115.648-14.855 115.648-14.855v-271.14c0-91.375 35.58-111.43 46.7-120.345-8.157-11.885-28.91-19.315-60.783-31.2-28.36-10.577-44.982-22.92-52.478-25.511-.927-.318 4.177 39.156-48.703 39.156z"/></g><path d="M175 48.64v19.358h50V53.447c6.32 2.595 14.335 4.225 24.514 4.225 10.688 0 19.007-1.612 25.486-4.183v14.509h50V49.172c9.942 5.385 18.189 11.784 24.574 18.828H325v49.998h-50V68h-50v49.998h-50V68h-25.571c6.597-7.278 15.183-13.867 25.571-19.36zm50 432.264a472.324 472.324 0 0 1-50-5.43v-7.476h50zm100-5.412c-13.775 2.254-30.68 4.337-50 5.379v-12.873h50zm-190.755-57.494H175v50h-36.07c-3.056-.798-4.685-1.286-4.685-1.286zm230.533 0v48.715s-1.532.487-4.452 1.285H325v-50zm-230.533-100H175v50h-40.755zm230.533 0v50H325v-50zm-230.533-100H175v50h-40.755zm230.533 0v50H325v-50zm-231.015-100H175v50h-41.237zm231.476 0v50H325v-50zM225 417.998h50v50h-50zm-50-50h50v50h-50zm100 0h50v50h-50zm-50-50h50v50h-50zm-50-50h50v50h-50zm100 0h50v50h-50zm-50-50h50v50h-50zm-50-50h50v50h-50zm100 0h50v50h-50zm-50-50h50v50h-50z" fill="#f2f2f2"/><path d="M249.576 63.752c51.479 0 58.279-35.895 58.279-40.38-5.772-3.24-9.728-5.345-12.008-5.345 0 0 5.881 32.495-46.335 32.495-48.52 0-46.336-32.495-46.336-32.495-2.28 0-6.235 2.105-12.002 5.345 0 0 7.368 40.38 58.402 40.38" fill="#3d3d3d"/><path d="M298.365 126.751c3.559-1.576 7.117-2.364 10.675-2.364s7.117.788 10.675 2.364l-3.05 4.647c-2.54-.87-5.081-1.304-7.623-1.304s-5.084.435-7.627 1.304z" fill="#ded215"/><path d="M302.074 127.148c2.322-1.028 4.644-1.543 6.966-1.543s4.644.515 6.966 1.543l-1.99 3.032c-1.658-.567-3.316-.85-4.975-.85s-3.317.283-4.976.85z" fill="#a80000"/><path d="M297.603 130.106h22.875v23.182a2 2 0 0 1-1.96 2c-6.319.124-9.478.88-9.478 2.268 0-1.388-3.159-2.144-9.477-2.269a2 2 0 0 1-1.96-2z" fill="#ded215"/><path d="M299.128 135.444h19.825v17.56a1 1 0 0 1-.989 1c-5.95.065-8.924.741-8.924 2.027 0-1.286-2.974-1.962-8.923-2.028a1 1 0 0 1-.99-1z" fill="#fefefe"/><path d="M299.128 135.444h9.912v20.587c0-1.286-2.974-1.962-8.923-2.028a1 1 0 0 1-.99-1z" fill="#000"/><path d="M299.128 131.631h19.825v3.05h-19.825z" fill="#757575"/><path d="M325.8 160.5a2.669 2.669 0 0 1-3.773-3.775c6.104-6.104 6.104-16.001 0-22.106a2.669 2.669 0 0 1 3.774-3.774c8.189 8.189 8.189 21.465 0 29.654z" fill="#f2f2f2" fill-rule="nonzero"/><path d="M293.614 131.654a1.525 1.525 0 0 1 2.156 2.156c-6.55 6.551-6.55 17.173 0 23.724a1.525 1.525 0 0 1-2.156 2.156c-7.742-7.742-7.742-20.294 0-28.036zm31.378 28.036a1.525 1.525 0 1 1-2.157-2.156c6.552-6.551 6.552-17.173 0-23.724a1.525 1.525 0 0 1 2.157-2.156c7.742 7.742 7.742 20.294 0 28.036z" fill="#265f2a" fill-rule="nonzero"/><path d="M413.584 238.323c-9.287 2.238-19.064 3.316-28.798 2.592-8.197-22.369-15.557-36.883-20.012-44.748v270.577s-21.102 6.71-55.867 11.11l-.544-.059c1.881-54.795 5.722-166.47 8.277-240.705 2.055-59.755 31.084-95.29 60.099-117.44-2.676 6.78-5.072 14.606-7 23.667 7.354 11.852 24.436 42.069 43.831 94.964l.014.042zM190.717 477.795c-34.248-4.401-56.477-11.05-56.477-11.05V196.171c-4.456 7.867-11.813 22.38-20.01 44.743-9.632.716-19.308-.332-28.51-2.523.005-.033.012-.065.02-.097 19.377-52.848 36.305-83.066 43.61-94.944-1.93-9.075-4.328-16.912-7.007-23.701 29.015 22.15 58.044 57.685 60.1 117.44 2.554 74.235 6.395 185.91 8.276 240.705z" fill="#000" fill-opacity=".1"/></g></svg>