<?xml version="1.0" encoding="UTF-8"?><svg height="500" viewBox="0 0 500 500" width="500" xmlns="http://www.w3.org/2000/svg"><g fill="none" fill-rule="evenodd"><path d="M0 0h500v500H0z"/><path d="M203.003 109.027h93.643V21.92h-93.643z" fill="#df2c2f"/><path d="M202.864 32.197h93.458v-14.17h-93.458z" fill="#333"/><g fill="#393939"><path d="M87.548 75.135S46.785 147.78 29 202.631c4.445 13.346 45.208 40.772 85.232 37.803 13.34-36.322 24.46-51.888 24.46-51.888s2.963-94.88-51.144-113.41M411.473 75.135s40.762 72.644 58.547 127.496c-4.445 13.346-45.208 40.772-85.232 37.803-13.34-36.322-24.46-51.888-24.46-51.888s-2.963-94.88 51.145-113.41"/><path d="M249.511 57.617c-50.082 0-47.798-39.384-48.742-39.056-7.516 2.613-24.133 14.905-52.439 25.44-31.873 11.86-52.626 19.274-60.782 31.133 11.114 8.896 46.694 28.908 46.694 120.087v270.556s49.658 14.824 114.885 14.824c68.929 0 115.648-14.824 115.648-14.824V195.221c0-91.179 35.58-111.19 46.7-120.087-8.157-11.86-28.91-19.273-60.783-31.133-28.36-10.553-44.982-22.87-52.478-25.455-.927-.318 4.177 39.071-48.703 39.071z"/></g><path d="M308.365 51.428c14.102 5.748 25.841 13.074 34.92 20.569V471.19c-9.18 2.02-20.976 4.235-34.92 6.052zM156.708 71.183c9.154-7.386 20.89-14.557 34.921-20.158v426.076c-13.784-1.844-25.643-4.074-34.92-6.089zm110.75 409.502a458.57 458.57 0 0 1-17.846.347 419.67 419.67 0 0 1-17.075-.35V50.51h34.92z" fill="#ed2f32"/><path d="M307.852 23.334C302.08 20.1 298.124 18 295.844 18c0 0 5.881 32.425-46.335 32.425-48.52 0-46.336-32.425-46.336-32.425-2.28 0-6.235 2.1-12.002 5.334 0 0 7.368 40.293 58.402 40.293 51.479 0 58.279-35.818 58.279-40.293z" fill="#393939"/><path d="M75.023 117.18C85.155 96.476 92.97 81.918 92.97 81.918c7.882-11.86 27.937-19.273 58.747-31.133 29.359-11.305 45.835-24.581 52.265-25.809-.678-4.49-.813-6.95-.813-6.95-5.926 0-22.971 13.99-54.844 25.85-31.868 11.864-52.62 19.273-60.772 31.132 0 0-8.232 14.728-18.858 35.748C49.557 148.895 36.326 179.52 29 202.631c.3 1.056 1.008 2.404 2.123 4.046 1.115 1.642 2.05 2.772 2.807 3.39 8.386-23.634 22.084-54.596 41.093-92.886zM423.952 117.086c-10.132-20.705-17.945-35.169-17.945-35.169-7.882-11.86-27.936-19.273-58.747-31.133-29.358-11.305-45.149-24.444-51.58-25.671.68-4.49.275-6.726.186-7.085 5.926 0 22.914 13.987 54.787 25.846 31.867 11.865 52.62 19.274 60.772 31.133 0 0 8.231 14.728 18.857 35.748 18.39 36.226 31.635 66.851 39.738 91.876-.491 1.314-.977 2.34-1.457 3.08-.481.74-1.276 1.8-2.385 3.182-18.428-43.898-32.503-74.5-42.226-91.807z" fill="#ed2f32"/><g transform="translate(288.5 111)"><path d="M20.5 63.5c11.314 0 20-14.254 20-31 0-17.746-8.686-32-20-32s-20 14.254-20 32c0 16.746 8.686 31 20 31zm0-5c-8.565 0-16-11.939-16-27s7.435-27 16-27 16 11.939 16 27-7.435 27-16 27z" fill="#393939" fill-rule="nonzero"/><ellipse cx="20.5" cy="31.645" fill="#fff" rx="18" ry="29.5"/></g></g></svg>