<?xml version="1.0" encoding="utf-8"?><svg width="500" height="500" viewBox="0 0 500 500" fill="none" xmlns="http://www.w3.org/2000/svg"><path fill-rule="evenodd" clip-rule="evenodd" d="M203.003 109.223h93.643V21.928h-93.643v87.295Z" fill="#CFCFCF"/><path fill-rule="evenodd" clip-rule="evenodd" d="M202.863 32.228h93.459v-14.2h-93.459v14.2Z" fill="#003E7D"/><path fill-rule="evenodd" clip-rule="evenodd" d="M87.547 75.258S46.785 148.06 29 203.03c4.445 13.375 45.208 40.86 85.232 37.885 13.34-36.4 24.46-52 24.46-52S141.655 93.83 87.547 75.26Zm323.926 0s40.763 72.801 58.548 127.771c-4.445 13.375-45.208 40.86-85.233 37.885-13.339-36.4-24.459-52-24.459-52s-2.964-95.085 51.144-113.655Z" fill="#0050A0"/><path fill-rule="evenodd" clip-rule="evenodd" d="M249.511 57.703c-50.081 0-47.798-39.47-48.742-39.14-7.516 2.618-24.133 14.936-52.439 25.494-31.873 11.886-52.626 19.316-60.782 31.2 11.115 8.915 46.694 28.97 46.694 120.345v271.14s49.658 14.856 114.885 14.856c68.929 0 115.649-14.856 115.649-14.856v-271.14c0-91.375 35.579-111.43 46.699-120.345-8.157-11.885-28.91-19.315-60.782-31.2-28.36-10.576-44.982-22.919-52.479-25.508-.927-.32 4.178 39.154-48.703 39.154Z" fill="#0050A0"/><path fill-rule="evenodd" clip-rule="evenodd" d="M200.772 18.533c.686-.24-.33 20.499 18.227 31.881l.002 430.124c-22.215-1.502-41.479-4.416-56.003-7.183l.003-435.359c19.534-8.793 31.661-17.334 37.771-19.463Zm97.446-.016c6.198 2.142 18.633 10.95 38.783 19.915l.003 434.917c-14.19 2.751-33.278 5.649-56.001 7.16V50.555c19.069-11.353 16.539-32.27 17.215-32.038Z" fill="#CB1F33"/><path fill-rule="evenodd" clip-rule="evenodd" d="M467.353 195.129a339.576 339.576 0 0 1 2.668 7.899c-4.445 13.375-45.208 40.86-85.232 37.885a423.236 423.236 0 0 0-2.836-7.519c20.795-1.358 37.993-5.637 51.595-12.837 13.428-7.109 24.696-15.585 33.805-25.428Zm-435.698.036c9.103 9.828 20.36 18.291 33.772 25.392 13.611 7.205 30.824 11.485 51.639 12.84a420.297 420.297 0 0 0-2.834 7.517c-40.024 2.975-80.787-24.51-85.232-37.885.836-2.585 1.723-5.21 2.655-7.864Z" fill="#FFD338"/><path fill-rule="evenodd" clip-rule="evenodd" d="M307.852 23.345C302.08 20.105 298.124 18 295.844 18c0 0 5.882 32.495-46.335 32.495-48.52 0-46.335-32.495-46.335-32.495-2.28 0-6.236 2.105-12.003 5.345 0 0 7.368 40.38 58.403 40.38 51.478 0 58.278-35.895 58.278-40.38Z" fill="#004B97"/><path fill-rule="evenodd" clip-rule="evenodd" d="M413.584 238.323c-9.288 2.238-19.065 3.316-28.798 2.592-8.198-22.369-15.557-36.883-20.013-44.748v270.577s-21.102 6.71-55.866 11.111l-.544-.06c1.881-54.795 5.722-166.47 8.276-240.705 2.056-59.755 31.085-95.29 60.099-117.44-2.675 6.781-5.071 14.606-6.999 23.667 7.354 11.852 24.436 42.069 43.831 94.964l.014.042ZM190.716 477.795c-34.248-4.401-56.476-11.051-56.476-11.051V196.172c-4.456 7.867-11.814 22.379-20.01 44.743-9.633.716-19.308-.332-28.51-2.523a.835.835 0 0 1 .02-.097c19.377-52.848 36.305-83.066 43.609-94.944-1.928-9.075-4.327-16.912-7.006-23.701 29.014 22.15 58.044 57.685 60.099 117.44 2.554 74.235 6.396 185.91 8.276 240.705h-.002Z" fill="#000" fill-opacity=".1"/><path fill-rule="evenodd" clip-rule="evenodd" d="M321 118h-24v4.923L289 126v3h40v-3l-8-3.077V118Z" fill="#D9D9D9"/><path fill-rule="evenodd" clip-rule="evenodd" d="M287 128.994s13.089-2.234 22-7.994c8.911 5.76 22 7.994 22 7.994v.838c0 30.55-22 39.168-22 39.168s-22-8.623-22-39.168v-.838Z" fill="#FFD338"/><path fill-rule="evenodd" clip-rule="evenodd" d="M289 130.328s11.899-2.048 20-7.328c8.101 5.28 20 7.328 20 7.328v.768C329 159.1 309 167 309 167s-20-7.904-20-35.904v-.768Z" fill="#005FBF"/><path d="M319.491 159c-5.158 5.893-10.491 8-10.491 8s-5.332-2.107-10.49-8h20.981Z" fill="#00D361"/><path d="M298.51 159a35.932 35.932 0 0 1-5.287-8h31.555a35.897 35.897 0 0 1-5.287 8s-5.229-4-10.49-4-10.491 4-10.491 4Z" fill="#CDCDCD"/><path fill-rule="evenodd" clip-rule="evenodd" d="m301.929 130.5-1.414 1.414 7.071 7.071-7.071 7.071 1.414 1.415L309 140.4l7.071 7.071 1.414-1.415-7.071-7.071 7.071-7.071-1.414-1.414-7.071 7.071-7.071-7.071Z" fill="#FFD338"/></svg>