<?xml version="1.0" encoding="UTF-8"?><svg width="500" height="500" viewBox="0 0 500 500" fill="none" xmlns="http://www.w3.org/2000/svg"><path fill-rule="evenodd" clip-rule="evenodd" d="M203.003 109.223h93.643V21.928h-93.643v87.295z" fill="#2869AA"/><path fill-rule="evenodd" clip-rule="evenodd" d="M202.864 32.2281h93.458v-14.2h-93.458v14.2z" fill="#E0E0E0"/><path fill-rule="evenodd" clip-rule="evenodd" d="M87.5475 75.2585S46.7848 148.059 29 203.029c4.4449 13.375 45.2077 40.86 85.232 37.885 13.34-36.4 24.46-52 24.46-52s2.963-95.0855-51.1445-113.6555zm323.9255 0s40.762 72.8005 58.547 127.7705c-4.445 13.375-45.208 40.86-85.232 37.885-13.34-36.4-24.46-52-24.46-52s-2.963-95.0855 51.145-113.6555z" fill="#1874CE"/><path fill-rule="evenodd" clip-rule="evenodd" d="M249.511 57.7025c-50.082 0-47.798-39.4691-48.742-39.14-7.516 2.6187-24.133 14.9368-52.439 25.495-31.873 11.885-52.6259 19.315-60.7825 31.2 11.1149 8.915 46.6945 28.9695 46.6945 120.3445v271.14s49.658 14.856 114.885 14.856c68.929 0 115.648-14.856 115.648-14.856v-271.14c0-91.375 35.58-111.4295 46.7-120.3445-8.157-11.885-28.91-19.315-60.783-31.2-28.36-10.5767-44.982-22.9195-52.478-25.5087-.927-.3203 4.177 39.1537-48.703 39.1537z" fill="#1874CE"/><path fill-rule="evenodd" clip-rule="evenodd" d="M307.852 23.345C302.08 20.105 298.124 18 295.844 18c0 0 5.881 32.495-46.335 32.495-48.521 0-46.336-32.495-46.336-32.495-2.279 0-6.235 2.105-12.002 5.345 0 0 7.368 40.38 58.402 40.38 51.479 0 58.279-35.895 58.279-40.38z" fill="#fff"/><path d="M288.945 147.544l-.037-.035c5.774-6.135 6.016-11.252 3.115-15.51-.39-.571-.807-1.071-1.221-1.494-.239-.244-.414-.401-.494-.465l-.876-.698 3.061-7.545 1.51.931c.037.023.143.082.311.165.3.149.651.3 1.049.442 3.993 1.428 8.347.82 12.576-3.396l1.06-1.057 1.06 1.056c4.23 4.217 8.583 4.825 12.577 3.397.397-.142.749-.293 1.049-.442.168-.083.274-.142.311-.165l1.51-.931 3.061 7.545-.876.698c-.08.064-.256.221-.495.465-.413.423-.83.923-1.22 1.494-2.885 4.235-2.661 9.32 3.023 15.411.139.096.206.214.33.433.121.287.121.287.146.426.024.182.024.182.025.259-.002.104-.002.104-.006.155-.008.085-.008.085-.018.157-.013.1-.034.221-.06.356-.063.331-.155.717-.272 1.133a17.3828 17.3828 0 01-1.415 3.508c-1.81 3.369-4.588 5.864-8.482 6.892-2.074.547-3.822 1.232-5.274 2.019-1.307.71-2.293 1.455-3.005 2.184-.235.241-1.969 2.248-1.969 2.248s-1.729-2.006-1.961-2.245c-.703-.724-1.676-1.464-2.965-2.169-1.46-.797-3.222-1.488-5.318-2.036-3.896-1.02-6.668-3.513-8.474-6.889-.623-1.165-1.086-2.355-1.412-3.508-.116-.409-.207-.788-.274-1.124a8.5816 8.5816 0 01-.061-.333c-.01-.06-.01-.06-.017-.111-.004-.026-.004-.026-.008-.062-.003-.024-.003-.024-.006-.077-.003-.039-.003-.039-.002-.138.005-.093.005-.093.014-.161l.062-.265.368-.518z" fill="#fff"/><path d="M299.135 159.278c-7.892-2.065-9.147-10.741-9.135-10.741 11.108-11.802 1.243-19.669 1.243-19.669l1.973-4.864s7.892 4.864 15.783-3.004c7.892 7.868 15.784 3.004 15.784 3.004l.24.591-25.888 34.683z" fill="#145EB4"/><path fill-rule="evenodd" clip-rule="evenodd" d="M413.584 238.323c-9.287 2.238-19.064 3.316-28.798 2.592-8.197-22.369-15.557-36.883-20.012-44.748v270.577s-21.102 6.71-55.867 11.111l-.544-.06c1.881-54.795 5.722-166.47 8.277-240.705 2.055-59.755 31.084-95.29 60.099-117.44-2.676 6.781-5.072 14.606-7 23.667 7.354 11.852 24.436 42.069 43.831 94.964.005.014.01.028.014.042zM190.717 477.795c-34.248-4.401-56.477-11.051-56.477-11.051V196.172c-4.456 7.867-11.813 22.379-20.009 44.743-9.633.716-19.3091-.332-28.511-2.524a1.056 1.056 0 01.0199-.096c19.3771-52.848 36.3051-83.066 43.6101-94.944-1.929-9.075-4.328-16.912-7.007-23.701 29.015 22.15 58.044 57.685 60.099 117.44 2.555 74.235 6.396 185.91 8.277 240.705h-.002z" fill="#000" fill-opacity=".08"/></svg>