<?xml version="1.0" encoding="UTF-8"?><svg height="500" viewBox="0 0 500 500" width="500" xmlns="http://www.w3.org/2000/svg"><g fill="none" fill-rule="evenodd"><path d="M0 0h500v500H0z"/><path d="M203.006 109.193h93.643V21.898h-93.643z" fill="#046e4d"/><path d="M202.867 32.198h93.458v-14.2h-93.458z" fill="#067d58"/><g fill="#078c62"><path d="M87.55 75.26s-40.762 72.8-58.547 127.77c4.445 13.375 45.208 40.86 85.232 37.885 13.34-36.4 24.46-52 24.46-52S141.658 93.83 87.55 75.26M411.476 75.26s40.762 72.8 58.547 127.77c-4.445 13.375-45.208 40.86-85.232 37.885-13.34-36.4-24.46-52-24.46-52S357.368 93.83 411.476 75.26"/><path d="M249.514 57.706c-50.082 0-47.798-39.47-48.742-39.14-7.516 2.618-24.133 14.936-52.439 25.495-31.873 11.885-52.626 19.315-60.782 31.2 11.114 8.915 46.694 28.97 46.694 120.345v271.14S183.903 481.6 249.13 481.6c68.929 0 115.648-14.855 115.648-14.855v-271.14c0-91.375 35.58-111.43 46.7-120.345-8.157-11.885-28.91-19.315-60.783-31.2-28.36-10.577-44.982-22.92-52.478-25.511-.927-.318 4.177 39.156-48.703 39.156z"/></g><path d="M309 51.688c16.972 7.01 30.48 16.298 40 25.37v392.824c-9.649 2.297-23.256 5.07-40 7.277zM151 76.115c9.648-8.948 23.15-18.021 40-24.837v425.739c-16.517-2.233-30.232-5.012-40-7.29zm118.997 404.464c-6.546.29-13.35.453-20.385.453-6.715 0-13.266-.165-19.615-.461V50.51h40z" fill="#ead604"/><path d="M249.576 63.752c51.479 0 58.279-35.895 58.279-40.38-5.772-3.24-9.728-5.345-12.008-5.345 0 0 5.881 32.495-46.335 32.495-48.52 0-46.336-32.495-46.336-32.495-2.28 0-6.235 2.105-12.002 5.345 0 0 7.368 40.38 58.402 40.38" fill="#ead604"/><path d="M198.082 39.25c-5.557-8.47-6.908-15.878-6.908-15.878 5.767-3.24 9.723-5.345 12.002-5.345 0 0-.638 9.492 6.436 18.215-3.983.88-7.828 1.886-11.53 3.009zm92.597-2.722c6.924-8.801 5.168-18.502 5.168-18.502 2.28 0 6.236 2.105 12.008 5.345 0 1.802-1.097 8.669-5.744 16.243a153.294 153.294 0 0 0-11.432-3.086z" fill="#078c62"/><g><path d="M292.387 127.48l.133-.612.53-.335c5.279-3.346 10.603-5.033 15.95-5.033s10.671 1.687 15.95 5.033l.53.335.133.612c3.163 14.474-2.14 26.795-15.728 36.73l-.885.648-.885-.647c-13.589-9.936-18.89-22.257-15.728-36.731z" fill="#078c62" fill-rule="nonzero"/><path d="M293.852 127.8c5.05-3.2 10.099-4.8 15.148-4.8s10.099 1.6 15.148 4.8c3.03 13.867-2.02 25.6-15.148 35.2-13.128-9.6-18.178-21.333-15.148-35.2z" fill="#feee00"/><path d="M295.295 128.857c4.568-2.899 9.137-4.348 13.705-4.348s9.137 1.45 13.705 4.348c2.741 12.558-1.827 23.185-13.705 31.879-11.878-8.694-16.446-19.32-13.705-31.88z" fill="#feee00"/><path d="M309 124.51c1.016 0 2.031.071 3.047.214l.001 33.601a50.705 50.705 0 0 1-3.048 2.41 50.705 50.705 0 0 1-3.048-2.41v-33.6a21.792 21.792 0 0 1 3.048-.216zm-8.381 1.625v26.688c-5.509-7.002-7.283-14.99-5.324-23.966 1.774-1.126 3.55-2.033 5.324-2.722zm22.086 2.722c1.96 8.976.185 16.964-5.324 23.966v-26.688c1.775.689 3.55 1.596 5.324 2.722z" fill="#006d27"/></g><path d="M413.584 238.323c-9.287 2.238-19.064 3.316-28.798 2.592-8.197-22.369-15.557-36.883-20.012-44.748v270.577s-21.102 6.71-55.867 11.11l-.544-.059c1.881-54.795 5.722-166.47 8.277-240.705 2.055-59.755 31.084-95.29 60.099-117.44-2.676 6.78-5.072 14.606-7 23.667 7.354 11.852 24.436 42.069 43.831 94.964l.014.042zM190.717 477.795c-34.248-4.401-56.477-11.05-56.477-11.05V196.171c-4.456 7.867-11.813 22.38-20.01 44.743-9.632.716-19.308-.332-28.51-2.523.005-.033.012-.065.02-.097 19.377-52.848 36.305-83.066 43.61-94.944-1.93-9.075-4.328-16.912-7.007-23.701 29.015 22.15 58.044 57.685 60.1 117.44 2.554 74.235 6.395 185.91 8.276 240.705z" fill="#000" fill-opacity=".1"/></g></svg>