<?xml version="1.0" encoding="UTF-8"?><svg height="500" viewBox="0 0 500 500" width="500" xmlns="http://www.w3.org/2000/svg"><g fill="none" fill-rule="evenodd"><path d="M0 0h500v500H0z"/><path d="M203.006 108.993h93.643V21.885h-93.643z" fill="#d9d9d9"/><path d="M202.867 32.17h93.458V18h-93.458z" fill="#06123c"/><g fill="#f2f2f2"><path d="M87.548 75.26S46.785 148.06 29 203.031c4.445 13.375 45.208 40.86 85.232 37.886 13.34-36.4 24.46-52 24.46-52S141.655 93.83 87.548 75.26M411.473 75.26s40.763 72.8 58.548 127.771c-4.445 13.375-45.208 40.86-85.232 37.886-13.34-36.4-24.46-52-24.46-52S357.366 93.83 411.473 75.26"/><path d="M249.514 57.706c-50.082 0-47.799-39.47-48.743-39.14-7.516 2.618-24.133 14.936-52.439 25.495-31.872 11.885-52.625 19.315-60.782 31.2 11.115 8.915 46.694 28.97 46.694 120.344v271.14S183.902 481.6 249.13 481.6c68.93 0 115.649-14.855 115.649-14.855v-271.14c0-91.374 35.58-111.43 46.7-120.344-8.157-11.885-28.91-19.315-60.783-31.2-28.36-10.577-44.982-22.92-52.478-25.511-.928-.318 4.177 39.156-48.703 39.156z"/></g><path d="M467.461 195.302a338.826 338.826 0 0 1 2.668 7.9c-4.445 13.375-45.208 40.86-85.232 37.885a426.405 426.405 0 0 0-2.836-7.52c20.795-1.358 37.993-5.637 51.595-12.837 13.428-7.11 24.696-15.585 33.805-25.428zM31.655 195.302c9.103 9.828 20.36 18.291 33.772 25.392 13.611 7.205 30.824 11.485 51.64 12.84a426.42 426.42 0 0 0-2.835 7.516C74.208 244.025 33.445 216.54 29 203.165c.836-2.584 1.723-5.209 2.655-7.863z" fill="#0a1c56"/><path d="M307.855 23.356c-5.05-2.83-8.71-4.79-11.074-5.237-.338-.064.27 6.538-3.246 13.805-4.255 8.799-15.427 18.524-44.023 18.524-26.367 0-37.76-9.575-42.668-18.32-4.123-7.346-4.61-14.028-5.175-13.878-2.366.625-5.84 2.496-10.495 5.106 0 0 7.368 40.293 58.402 40.293 51.479 0 58.279-35.818 58.279-40.293z" fill="#f2f2f2"/><g fill="#0a1c56" transform="translate(300 121)"><circle cx="9.056" cy="35.5" r="8.5"/><path d="M3.606.392l1.45.615c1.338.57 1.338 1.591 1.18 3.642s-1.175 2.848-2.63 4.558c-1.455 1.71-1.591 5.471.83 7.293s3.492 6.952 3.688 9.45c.033.415.033.871 0 1.37l1.295-.262c.521-9.328-1.848-10.032 1.477-12.461 2.168-1.585 4.264-1.585 6.288 0 .386-1.162.471-2.462.256-3.899-.215-1.437-.504-2.377-.866-2.819-2.465-.205-4.423 1.024-5.874 3.687-5.02.248-.76-14.091-7.094-11.174z"/></g><path d="M413.584 238.323c-9.287 2.238-19.064 3.316-28.798 2.592-8.197-22.369-15.557-36.883-20.012-44.748v270.577s-21.102 6.71-55.867 11.11l-.544-.059c1.881-54.795 5.722-166.47 8.277-240.705 2.055-59.755 31.084-95.29 60.099-117.44-2.676 6.78-5.072 14.606-7 23.667 7.354 11.852 24.436 42.069 43.831 94.964l.014.042zM190.717 477.795c-34.248-4.401-56.477-11.05-56.477-11.05V196.171c-4.456 7.867-11.813 22.38-20.01 44.743-9.632.716-19.308-.332-28.51-2.523.005-.033.012-.065.02-.097 19.377-52.848 36.305-83.066 43.61-94.944-1.93-9.075-4.328-16.912-7.007-23.701 29.015 22.15 58.044 57.685 60.1 117.44 2.554 74.235 6.395 185.91 8.276 240.705z" fill="#000" fill-opacity=".06"/><path d="M290.641 36.51c6.968-8.795 5.206-18.51 5.206-18.51 2.28 0 6.236 2.1 12.008 5.334 0 1.066-5.75 5.455-17.247 13.168l.033.007zm-81.002-.283l-18.465-12.893C196.94 20.1 200.897 18 203.176 18c0 0-.64 9.506 6.475 18.225l-.012.002z" fill="#0a1c56"/></g></svg>