<?xml version="1.0" encoding="UTF-8"?><svg height="500" viewBox="0 0 500 500" width="500" xmlns="http://www.w3.org/2000/svg"><g fill="none" fill-rule="evenodd"><path d="M0 0h500v500H0z"/><path d="M203.086 109.195h93.643V21.9h-93.643z" fill="#a20019"/><g fill="#b5001c"><path d="M87.548 75.26S46.785 148.06 29 203.03c4.445 13.375 45.208 40.86 85.232 37.885 13.34-36.4 24.46-52 24.46-52S141.655 93.83 87.548 75.26M411.473 75.26s40.763 72.8 58.548 127.77c-4.445 13.375-45.208 40.86-85.232 37.885-13.34-36.4-24.46-52-24.46-52S357.366 93.83 411.473 75.26"/><path d="M249.514 57.706c-50.082 0-47.799-39.47-48.743-39.14-7.516 2.618-24.133 14.936-52.439 25.495-31.872 11.885-52.625 19.315-60.782 31.2 11.115 8.915 46.694 28.97 46.694 120.345v271.14S183.902 481.6 249.13 481.6c68.93 0 115.649-14.855 115.649-14.855v-271.14c0-91.375 35.58-111.43 46.7-120.345-8.157-11.885-28.91-19.315-60.783-31.2-28.36-10.577-44.982-22.92-52.478-25.511-.928-.318 4.177 39.156-48.703 39.156z"/></g><path d="M203 32h94V18h-94z" fill="#e3e3e3"/><path d="M309 23.377c-5.837-3.26-9.838-5.377-12.144-5.377 0 0 5.949 32.69-46.859 32.69C200.93 50.69 203.14 18 203.14 18c-2.306 0-6.307 2.118-12.139 5.377 0 0 7.452 40.623 59.063 40.623C302.123 64 309 27.89 309 23.377z" fill="#f2f2f2"/><g fill="#f2f2f2"><path d="M309.784 134.71c6.714-5.836 10.855-14.796 12.357-12.952 3.773 5.073 4.667 18.976-2.047 24.812-4.679 4.067-9.86 6.308-13.536 6.185 2.31 3.667 5.923 6.027 9.984 6.027 2.035 0 3.956-.592 5.658-1.644-1.323 2.123-2.761 3.815-3.907 4.188-2.314.752 4.223.802 3.309 1.226-3.565 1.653-9.064 2.448-12.557 2.448-9.37 0-16.967-7.83-16.967-17.487 0-9.658 7.596-17.487 16.967-17.487.274 0 .547.006.817.02-3.174 2.44-5.403 6.568-5.86 11.363 1.38-2.257 3.345-4.58 5.782-6.699z"/><path d="M305.474 132.282c2.962 0 5.783-1.983 5.783-4.035s-2.821-2.734-5.783-2.734c-2.961 0-5.798 2.31-7.472 3.607-1.675 1.297 4.51 3.162 7.472 3.162z"/></g><path d="M413.584 238.323c-9.287 2.238-19.064 3.316-28.798 2.592-8.197-22.369-15.557-36.883-20.012-44.748v270.577s-21.102 6.71-55.867 11.11l-.544-.059c1.881-54.795 5.722-166.47 8.277-240.705 2.055-59.755 31.084-95.29 60.099-117.44-2.676 6.78-5.072 14.606-7 23.667 7.354 11.852 24.436 42.069 43.831 94.964l.014.042zM190.717 477.795c-34.248-4.401-56.477-11.05-56.477-11.05V196.171c-4.456 7.867-11.813 22.38-20.01 44.743-9.632.716-19.308-.332-28.51-2.523.005-.033.012-.065.02-.097 19.377-52.848 36.305-83.066 43.61-94.944-1.93-9.075-4.328-16.912-7.007-23.701 29.015 22.15 58.044 57.685 60.1 117.44 2.554 74.235 6.395 185.91 8.276 240.705z" fill="#000" fill-opacity=".1"/></g></svg>