<?xml version="1.0" encoding="UTF-8"?><svg height="500" viewBox="0 0 500 500" width="500" xmlns="http://www.w3.org/2000/svg"><g fill="none" fill-rule="evenodd"><path d="M0 0h500v500H0z"/><path d="M203.006 109.193h93.643V21.898h-93.643z" fill="#d9d9d9"/><path d="M202.867 32.198h93.458v-14.2h-93.458z" fill="#e3e3e3"/><path d="M87.548 75.26S46.785 148.06 29 203.03c4.445 13.375 45.208 40.86 85.232 37.885 13.34-36.4 24.46-52 24.46-52S141.655 93.83 87.548 75.26M411.473 75.26s40.763 72.8 58.548 127.77c-4.445 13.375-45.208 40.86-85.232 37.885-13.34-36.4-24.46-52-24.46-52S357.366 93.83 411.473 75.26" fill="#f2f2f2"/><path d="M249.514 57.706c-50.082 0-47.799-39.47-48.743-39.14-7.516 2.618-24.133 14.936-52.439 25.495-31.872 11.885-52.625 19.315-60.782 31.2 11.115 8.915 46.694 28.97 46.694 120.345v271.14S183.902 481.6 249.13 481.6c68.93 0 115.649-14.855 115.649-14.855v-271.14c0-91.375 35.58-111.43 46.7-120.345-8.157-11.885-28.91-19.315-60.783-31.2-28.36-10.577-44.982-22.92-52.478-25.511-.928-.318 4.177 39.156-48.703 39.156z" fill="#008742"/><path d="M262.472 56.765v424.617c-4.346.12-8.796.185-13.342.185-4.27 0-8.473-.063-12.6-.182V56.658c3.882.653 8.193 1.015 12.984 1.015 4.777 0 9.08-.323 12.958-.908zm26.939-13.167c9.846-11.304 8.253-25.271 8.806-25.083 3.56 1.232 9.179 4.663 17.135 9.058v449.388a465.757 465.757 0 0 1-25.941 2.915zm52.88-2.887a238.96 238.96 0 0 0 8.404 3.317c6.282 2.342 12.131 4.511 17.538 6.575v100.122c-2.165 12.642-3.455 27.452-3.455 44.847v271.14s-8.083 2.57-22.487 5.573zm-132.7 439.095a474.53 474.53 0 0 1-25.94-3.005V27.587c7.94-4.386 13.554-7.812 17.12-9.057.54-.185.026 12.612 8.82 23.621zm-52.88-7.696c-14.207-2.927-22.466-5.398-22.466-5.398v-271.14c0-17.451-1.298-32.301-3.475-44.969v-99.99c5.413-2.067 11.272-4.24 17.563-6.585a239.005 239.005 0 0 0 8.378-3.307z" fill="#f2f2f2"/><g fill="#008742"><path d="M113.826 94.405c7.258 9.195 12.409 20.353 16.06 31.733L84.715 223.23c-10.41-3.083-18.868-6.992-25.37-11.725l54.482-117.1zM385.294 94.405l54.471 117.079c-6.778 5.418-15.446 8.873-26.002 10.364l-44.53-95.71c3.652-11.38 8.803-22.538 16.061-31.733z"/><path d="M61.09 229.486c-17.207-8.376-29.734-19.408-32.087-26.488 1.74-5.38 3.701-10.93 5.822-16.566 7.01 11.834 17.903 21.799 32.676 29.895l-6.411 13.16zM437.9 229.482l-6.41-13.16c14.773-8.096 25.665-18.061 32.675-29.895 2.121 5.637 4.082 11.187 5.822 16.567-2.352 7.08-14.88 18.111-32.087 26.488z"/></g><path d="M249.576 63.752c51.479 0 58.279-35.895 58.279-40.38-5.772-3.24-9.728-5.345-12.008-5.345 0 0 5.881 32.495-46.335 32.495-48.52 0-46.336-32.495-46.336-32.495-2.28 0-6.235 2.105-12.002 5.345 0 0 7.368 40.38 58.402 40.38" fill="#f2f2f2"/><g fill-rule="nonzero"><path d="M308.984 126.077c-2.85 0-5.55 1.01-7.69 2.804h-24.076l31.766 31.896 31.767-31.896h-24.077a11.941 11.941 0 0 0-7.69-2.804zm20.913 7.32l-20.913 20.998-20.912-20.998h14.997l.654-.641a7.483 7.483 0 0 1 5.26-2.163c1.989 0 3.856.783 5.262 2.163l.654.641z" fill="#de9500"/><path d="M315.813 131.14a9.726 9.726 0 0 0-6.83-2.805 9.724 9.724 0 0 0-6.828 2.804h-19.51l26.34 26.447 26.339-26.447z" fill="#fff"/><path d="M308.984 128.335c4.79 0 8.693 3.947 8.693 8.799 0 4.851-3.903 8.797-8.693 8.797-4.791 0-8.693-3.946-8.693-8.797 0-4.853 3.902-8.8 8.693-8.8v-2.257c-6.034 0-10.938 4.96-10.938 11.057 0 6.096 4.904 11.055 10.938 11.055 6.033 0 10.939-4.96 10.939-11.055 0-6.097-4.906-11.057-10.94-11.057z" fill="#de9500"/></g><path d="M413.584 238.323c-9.287 2.238-19.064 3.316-28.798 2.592-8.197-22.369-15.557-36.883-20.012-44.748v270.577s-21.102 6.71-55.867 11.11l-.544-.059c1.881-54.795 5.722-166.47 8.277-240.705 2.055-59.755 31.084-95.29 60.099-117.44-2.676 6.78-5.072 14.606-7 23.667 7.354 11.852 24.436 42.069 43.831 94.964l.014.042zM190.717 477.795c-34.248-4.401-56.477-11.05-56.477-11.05V196.171c-4.456 7.867-11.813 22.38-20.01 44.743-9.632.716-19.308-.332-28.51-2.523.005-.033.012-.065.02-.097 19.377-52.848 36.305-83.066 43.61-94.944-1.93-9.075-4.328-16.912-7.007-23.701 29.015 22.15 58.044 57.685 60.1 117.44 2.554 74.235 6.395 185.91 8.276 240.705z" fill="#000" fill-opacity=".06"/></g></svg>