<svg width="500" height="500" viewBox="0 0 500 500" fill="none" xmlns="http://www.w3.org/2000/svg"><path fill-rule="evenodd" clip-rule="evenodd" d="M203 109.2h93.65V21.9H203v87.3Z" fill="#C6AD37"/><path fill-rule="evenodd" clip-rule="evenodd" d="M202.86 32.2h93.46V18h-93.46v14.2Z" fill="#F4C43D"/><path fill-rule="evenodd" clip-rule="evenodd" d="M87.55 75.26S46.78 148.06 29 203.03c4.44 13.38 45.2 40.86 85.23 37.88 13.34-36.4 24.46-52 24.46-52s2.97-95.08-51.14-113.65M411.47 75.26s40.77 72.8 58.55 127.77c-4.44 13.38-45.2 40.86-85.23 37.88-13.34-36.4-24.46-52-24.46-52s-2.96-95.08 51.14-113.65" fill="#FDDD44"/><path fill-rule="evenodd" clip-rule="evenodd" d="M249.51 57.7c-50.08 0-47.8-39.46-48.74-39.13-7.51 2.62-24.13 14.93-52.44 25.5-31.87 11.88-52.62 19.3-60.78 31.2 11.12 8.9 46.7 28.96 46.7 120.34v271.14s49.65 14.85 114.88 14.85c68.93 0 115.65-14.85 115.65-14.85V195.6c0-91.38 35.58-111.43 46.7-120.35-8.16-11.88-28.91-19.31-60.79-31.2-28.35-10.58-44.98-22.92-52.47-25.5-.93-.33 4.17 39.15-48.7 39.15Z" fill="#FDDD44"/><path fill-rule="evenodd" clip-rule="evenodd" d="M249.57 63.75c51.48 0 58.28-35.9 58.28-40.38-5.77-3.24-9.73-5.34-12-5.34 0 0 5.88 32.5-46.34 32.5-48.52 0-46.34-32.5-46.34-32.5-2.28 0-6.23 2.1-12 5.34 0 0 7.37 40.38 58.4 40.38" fill="#FDDD44"/><path fill-rule="evenodd" clip-rule="evenodd" d="M413.76 236.67a93.76 93.76 0 0 1-28.8 2.6c-8.2-22.37-15.56-36.89-20.01-44.75v270.57s-21.1 6.71-55.87 11.12l-.54-.06 8.27-240.71c2.06-59.75 31.09-95.29 60.1-117.44a148.7 148.7 0 0 0-7 23.67c7.36 11.85 24.44 42.07 43.83 94.96l.02.04ZM190.89 476.14c-34.25-4.4-56.48-11.05-56.48-11.05V194.52c-4.45 7.87-11.81 22.38-20 44.74-9.64.72-19.32-.33-28.52-2.52l.02-.1c19.38-52.84 36.3-83.06 43.61-94.94a148.64 148.64 0 0 0-7-23.7c29.01 22.15 58.04 57.69 60.1 117.44l8.27 240.7Z" fill="#000" fill-opacity=".06"/><path d="M316.36 125.05c1.3-1.17.44-2.64-1.9-3.27l-3.6-.98a8.9 8.9 0 0 0-4.44 0l-3.61.98c-2.34.63-3.2 2.1-1.9 3.27l2.99 2.67h9.48l2.98-2.67Z" fill="#FE1C1C"/><path fill-rule="evenodd" clip-rule="evenodd" d="M303.51 128.72h10.25l3.26-2.92c.44-.4.78-.89.9-1.46.12-.58 0-1.14-.28-1.63-.53-.92-1.63-1.55-2.91-1.9l-3.61-.98a9.9 9.9 0 0 0-4.96 0l-3.62.98c-1.28.35-2.37.98-2.9 1.9-.29.49-.4 1.05-.28 1.63.12.57.45 1.06.9 1.45l3.25 2.93Zm10.96-6.94c2.33.63 3.19 2.1 1.89 3.27l-2.98 2.67h-9.48l-2.98-2.67c-1.3-1.17-.45-2.64 1.89-3.27l3.61-.98a8.9 8.9 0 0 1 4.44 0l3.6.98Z" fill="#7D7100"/><path fill-rule="evenodd" clip-rule="evenodd" d="M302.94 130.24h11.4l3.7-3.32a4.24 4.24 0 0 0 1.36-2.26 3.8 3.8 0 0 0-.44-2.7c-.82-1.43-2.38-2.22-3.83-2.62l-3.62-.97a11.4 11.4 0 0 0-5.75 0l-3.6.97c-1.46.4-3.02 1.19-3.84 2.61a3.8 3.8 0 0 0-.44 2.7c.2.96.74 1.72 1.36 2.27l3.7 3.32Zm11.53-8.47c2.34.63 3.19 2.11 1.89 3.28l-2.98 2.67h-9.48l-2.98-2.67c-1.3-1.17-.45-2.65 1.89-3.28l3.61-.97a8.9 8.9 0 0 1 4.44 0l3.61.97Z" fill="#FFB800"/><path fill-rule="evenodd" clip-rule="evenodd" d="M302.55 131.24h12.18l3.98-3.57-.67-.75-3.7 3.32h-11.4l-3.7-3.32a4.25 4.25 0 0 1-1.36-2.26 3.8 3.8 0 0 1 .44-2.7c.82-1.43 2.38-2.22 3.83-2.62l3.62-.97c1.81-.5 3.93-.5 5.74 0l3.62.97c1.45.4 3 1.19 3.83 2.61.44.78.65 1.72.44 2.7-.2.96-.74 1.72-1.36 2.27l.67.75a5.24 5.24 0 0 0 1.67-2.8 4.8 4.8 0 0 0-.56-3.42c-1-1.76-2.87-2.65-4.43-3.07l-3.62-.98a12.42 12.42 0 0 0-6.26 0l-3.62.98c-1.57.42-3.42 1.31-4.44 3.07a4.8 4.8 0 0 0-.55 3.41 5.24 5.24 0 0 0 1.67 2.8l3.98 3.58Zm13.41-7.32c-.01.06-.06.2-.27.38l-2.7 2.42h-8.7l-2.7-2.42c-.21-.18-.26-.32-.27-.38-.01-.04-.01-.1.05-.21.15-.26.64-.69 1.7-.97l3.61-.98a7.9 7.9 0 0 1 3.92 0l3.61.98c1.05.28 1.55.7 1.7.97.06.1.06.17.05.22Zm-12.06 3.8h9.48l2.98-2.67c1.3-1.17.45-2.65-1.89-3.28l-3.61-.97a8.9 8.9 0 0 0-4.44 0l-3.61.97c-2.34.63-3.19 2.11-1.89 3.28l2.98 2.67Z" fill="#7D7100"/><path fill-rule="evenodd" clip-rule="evenodd" d="M308.64 135.8c2.5 0 5.12-.86 7.85-2.56l3.56 2c2.55 1.43 3.24 4.72 2 7.38-4.4 9.44 3.58 9.97 2.03 17.36-1.78 8.46-15.4 8.73-15.44 11.22-.03-2.5-13.66-2.76-15.44-11.22-1.55-7.4 6.43-7.92 2.03-17.36-1.24-2.66-.56-5.95 2-7.38l3.55-2c2.74 1.7 5.35 2.56 7.86 2.56Z" fill="#FFB800"/><path fill-rule="evenodd" clip-rule="evenodd" d="M315.96 132.39a1 1 0 0 1 1.02-.02l3.56 2c3.1 1.74 3.82 5.64 2.42 8.67-1.05 2.25-1.32 3.89-1.23 5.16.08 1.28.54 2.31 1.14 3.38l.48.82c1.14 1.92 2.47 4.17 1.7 7.79-1 4.78-5.33 7.13-8.98 8.57-.93.37-1.84.69-2.68.97l-.3.1c-.71.25-1.36.47-1.91.69a7 7 0 0 0-1.55.8 1 1 0 0 1-1.99 0 6.98 6.98 0 0 0-1.54-.8 53.4 53.4 0 0 0-1.92-.68l-.3-.1c-.83-.3-1.74-.61-2.67-.98-3.65-1.44-7.98-3.79-8.99-8.57-.76-3.62.57-5.87 1.71-7.79l.48-.82a7.83 7.83 0 0 0 1.14-3.38c.1-1.27-.18-2.9-1.23-5.16-1.4-3.03-.69-6.93 2.42-8.68l3.55-2a1 1 0 0 1 1.02.03c2.62 1.63 5.06 2.4 7.33 2.4 2.27 0 4.7-.77 7.32-2.4Zm-8.29 38.96v-.01Zm1.94 0v-.01Zm-.97-35.55c2.5 0 5.12-.86 7.85-2.56l3.56 2c2.55 1.43 3.24 4.72 2 7.38-2.49 5.33-1.02 7.82.45 10.31 1.13 1.92 2.25 3.83 1.58 7.05-1.14 5.42-7.13 7.48-11.3 8.91-1.46.5-2.69.92-3.42 1.38-.46.29-.72.6-.72.93 0-.34-.27-.64-.72-.93-.73-.46-1.96-.88-3.42-1.38-4.17-1.43-10.16-3.5-11.3-8.9-.68-3.23.45-5.14 1.58-7.06 1.47-2.49 2.94-4.98.45-10.31-1.24-2.66-.56-5.95 2-7.38l3.55-2c2.74 1.7 5.36 2.56 7.86 2.56Z" fill="#7D7100"/><path fill-rule="evenodd" clip-rule="evenodd" d="M296.47 148.94a11.3 11.3 0 0 1-1.69 3.99c-1.13 1.92-2.26 3.83-1.58 7.05 1.14 5.42 7.13 7.48 11.3 8.9 2.35.82 4.13 1.43 4.14 2.32.01-.9 1.78-1.5 4.13-2.31 4.18-1.43 10.17-3.5 11.3-8.91.68-3.22-.45-5.13-1.57-7.05-.72-1.22-1.44-2.44-1.7-3.99h-24.33Z" fill="#1769BD"/><path d="M301.77 141.94h14.31v16.26h-14.31v-16.25Z" fill="#E7E7E7"/><path d="M305.5 146.19h6.85v4.42h-6.85v-4.42Z" fill="#FE1C1C"/></svg>