<?xml version="1.0" encoding="UTF-8"?><svg width="500" height="500" xmlns="http://www.w3.org/2000/svg"><g fill="none" fill-rule="evenodd"><path fill="#252525" d="M203.006 109.193h93.644V21.898h-93.644z"/><path fill="#363636" d="M202.867 32.198h93.458v-14.2h-93.458z"/><path d="M87.55 75.26s-40.762 72.8-58.547 127.77c4.445 13.375 45.208 40.86 85.232 37.885 13.34-36.4 24.46-52 24.46-52S141.658 93.83 87.55 75.26m323.925 0s40.763 72.8 58.547 127.77c-4.445 13.375-45.207 40.86-85.232 37.885-13.34-36.4-24.46-52-24.46-52S357.368 93.83 411.476 75.26" fill="#157DDC"/><path d="M249.514 57.706c-50.082 0-47.798-39.47-48.742-39.14-7.516 2.618-24.133 14.936-52.439 25.495-31.873 11.885-52.626 19.315-60.782 31.2 11.114 8.915 46.694 28.97 46.694 120.345v271.14S183.902 481.6 249.13 481.6c68.929 0 115.648-14.855 115.648-14.855v-271.14c0-91.375 35.58-111.43 46.7-120.345-8.157-11.885-28.91-19.315-60.783-31.2-28.36-10.577-44.982-22.92-52.478-25.511-.927-.318 4.178 39.156-48.703 39.156z" fill="#157DDC"/><path d="M467.461 195.302a338.446 338.446 0 0 1 2.668 7.9c-4.445 13.375-45.208 40.86-85.232 37.885a426.405 426.405 0 0 0-2.836-7.52c20.795-1.358 37.994-5.637 51.595-12.837 13.428-7.11 24.697-15.585 33.805-25.428zm-435.806 0c9.103 9.828 20.36 18.291 33.772 25.392 13.611 7.205 30.824 11.485 51.64 12.84a426.42 426.42 0 0 0-2.835 7.517C74.208 244.025 33.445 216.54 29 203.166c.836-2.585 1.723-5.21 2.655-7.864zM285 47.803v432.424a480.476 480.476 0 0 1-35.87 1.34c-11.971 0-23.418-.5-34.13-1.317V47.592c7.119 5.765 17.954 10.08 34.514 10.08 17.27 0 28.355-4.21 35.486-9.869zm-118-11.65v437.946a414.907 414.907 0 0 1-20-4.115V44.524l1.333-.496A241.372 241.372 0 0 0 167 36.152zm186 8.734v424.992c-5.146 1.246-11.879 2.735-20 4.225V36.609a240.947 240.947 0 0 0 17.695 7.419l2.305.859z" fill="#3D3D3D"/><path d="M249.577 63.752c51.478 0 58.278-35.896 58.278-40.38-5.772-3.24-9.728-5.346-12.008-5.346 0 0 5.882 32.495-46.335 32.495-48.52 0-46.336-32.495-46.336-32.495-2.28 0-6.235 2.105-12.002 5.345 0 0 7.368 40.38 58.403 40.38" fill="#3D3D3D"/><g transform="translate(287 116.916)"><path d="M22 50.084c12.15 0 22-9.85 22-22 0-10.077-6.775-18.571-16.018-21.177C27.08 6.371 32.11 0 22 0s-5.054 6.367-5.944 6.897C6.793 9.49 0 17.994 0 28.084c0 12.15 9.85 22 22 22z" fill="#000"/><path d="M22 48.084c11.046 0 20-8.954 20-20 0-9.666-6.857-17.73-15.973-19.594-1.3-.266 4.571-7.345-4.06-7.364-8.63-.02-2.633 7.092-3.907 7.346C8.9 10.302 2 18.387 2 28.084c0 11.046 8.954 20 20 20z" fill="#FFF"/><circle fill="#000" cx="22" cy="28.084" r="14"/><circle fill="#000" cx="22" cy="28.084" r="12"/><path d="M33.997 27.88l.003.204c0 6.627-5.373 12-12 12-.068 0-.136 0-.203-.002l12.2-12.202zm-2.23-6.769a11.972 11.972 0 0 1 1.475 2.767L17.794 39.326a11.97 11.97 0 0 1-2.767-1.475zM25.7 16.665a11.949 11.949 0 0 1 2.869 1.375L11.956 34.653a11.949 11.949 0 0 1-1.375-2.869zM10.014 27.497c.297-6.16 5.239-11.102 11.399-11.399z" fill="#0078C0"/></g><path fill="#DAC979" d="M309 113l-2.351 1.236.449-2.618-1.902-1.854 2.628-.382L309 107l1.176 2.382 2.628.382-1.902 1.854.45 2.618z"/><path d="M413.584 238.323c-9.287 2.238-19.064 3.316-28.798 2.592-8.197-22.369-15.557-36.883-20.012-44.748v270.577s-21.103 6.71-55.867 11.11l-.544-.059c1.881-54.795 5.722-166.47 8.277-240.705 2.055-59.755 31.084-95.29 60.099-117.44-2.676 6.78-5.072 14.606-7 23.667 7.354 11.852 24.436 42.069 43.831 94.964l.014.042zM190.717 477.795c-34.248-4.401-56.477-11.05-56.477-11.05V196.171c-4.456 7.867-11.814 22.38-20.01 44.743-9.632.716-19.308-.332-28.51-2.523a1.113 1.113 0 0 1 .02-.097c19.377-52.848 36.305-83.066 43.61-94.944-1.93-9.075-4.328-16.912-7.007-23.701 29.015 22.15 58.044 57.685 60.1 117.44 2.554 74.235 6.395 185.91 8.276 240.705h-.002z" fill-opacity=".1" fill="#000"/></g></svg>