<?xml version="1.0" encoding="UTF-8"?><svg height="500" viewBox="0 0 500 500" width="500" xmlns="http://www.w3.org/2000/svg"><g fill="none" fill-rule="evenodd"><path d="m0 0h500v500h-500z"/><g transform="translate(29 18)"><path d="m174.003327 91.223h93.643138v-87.295h-93.643138z" fill="#263a84"/><path d="m173.863643 14.228h93.458556v-14.2h-93.458556z" fill="#363636"/><g fill="#2b4193"><path d="m58.5475395 57.2585s-40.7627765 72.8-58.5475395 127.77c4.44494357 13.375 45.2077201 40.86 85.232167 37.885 13.3398195-36.4 24.459661-52 24.459661-52s2.963296-95.085-51.1442885-113.655"/><path d="m382.472677 57.2585s40.762777 72.8 58.54754 127.77c-4.444944 13.375-45.20772 40.86-85.232167 37.885-13.33982-36.4-24.459662-52-24.459662-52s-2.963295-95.085 51.144289-113.655"/><path d="m220.511106 39.7025c-50.081693 0-47.798103-39.4690913-48.742578-39.14001412-7.515856 2.61869932-24.132633 14.93680482-52.438505 25.49501412-31.8728898 11.885-52.6259372 19.315-60.7824835 31.2 11.1148533 8.915 46.6943565 28.97 46.6943565 120.345v271.14s49.657653 14.855 114.885079 14.855c68.929052 0 115.648352-14.855 115.648352-14.855v-271.14c0-91.375 35.579504-111.43 46.699346-120.345-8.156547-11.885-28.909594-19.315-60.782483-31.2-28.359862-10.5766915-44.981767-22.91944581-52.478053-25.51061549-.92727-.31834247 4.17733 39.15561549-48.703031 39.15561549z"/></g><path d="m154 28.8738109v429.8632821c-9.990063-1.450974-18.757137-3.050982-26-4.537489v-409.1376305c7.154828-5.7468598 15.866213-11.3552844 26-16.1881626zm26.999994-9.7879412c.093167-.0240618.186409-.0480502.279727-.0719648 4.742845 5.4423594 12.627132 10.4580364 25.720273 12.5066829v.0001037 431.8786645c-9.072493-.272322-17.773186-.81114-26-1.527484v-442.7860217zm132.000006 25.9790999v409.3101224c-7.186326 1.492072-15.924762 3.086938-26 4.523608v-430.0231092c10.133956 4.8333152 18.845348 10.4421778 26 16.1893788zm-53-24.6374219v441.5122153c-8.159997.680567-16.848679 1.193036-26 1.45735v-431.7433926c13.21763-1.7902656 21.202644-6.224724 26-11.2261727z" fill="#393939"/><path d="m278.851614 5.345c-5.771941-3.24-9.727991-5.345-12.007833-5.345 0 0 5.881693 32.495-46.335169 32.495-48.520226 0-46.33517-32.495-46.33517-32.495-2.279842 0-6.235891 2.105-12.002844 5.345 0 0 7.36833 40.38 58.402867 40.38 51.478533 0 58.278149-35.895 58.278149-40.38z" fill="#3d3d3d"/></g><path d="m413.584262 238.322716c-9.287652 2.238227-19.064555 3.316093-28.797794 2.592625-8.197787-22.369075-15.557191-36.882961-20.012723-44.748481v270.577481s-21.102202 6.709715-55.866442 11.110324c-.181695-.019644-.363009-.039532-.543932-.059665 1.880745-54.795 5.722054-166.47 8.276275-240.705 2.05535-59.755 31.084673-95.29 60.099029-117.44-2.675385 6.780625-5.071498 14.606324-6.999205 23.667254 7.354 11.851464 24.435794 42.068696 43.830742 94.964134.00496.013823.009643.027599.01405.041328zm-222.867617 239.47254c-34.247876-4.401312-56.476331-11.050915-56.476331-11.050915v-270.572197c-4.455834 7.866735-11.813778 22.379131-20.009729 44.743197-9.632964.716014-19.3086964-.33238-28.510585-2.523818.0050945-.032025.0117169-.064272.0198871-.096743 19.3773569-52.847461 36.3054119-83.066075 43.6098449-94.943632-1.928939-9.07531-4.327692-16.91207-7.006412-23.701148 29.014357 22.15 58.04368 57.685 60.099029 117.44 2.554222 74.235 6.395531 185.91 8.276276 240.705256z" fill="#000" fill-opacity=".1"/><path d="m309.011794 115 17.988206 28-17.988206 28-18.011794-28z" fill="#fff"/><path d="m309.011138 117 16.988862 26-16.988862 26-17.011138-26z" fill="#7194c3"/><path d="m309.009828 120 14.990172 23-14.990172 23-15.009828-23z" fill="#fff"/><path d="m309.009828 138 5.553221-9.479479 9.436951 14.479479-14.990172 23-15.009828-23 9.453632-14.486078z" fill="#003f94"/></g></svg>