<?xml version="1.0" encoding="UTF-8"?><svg width="500" height="500" xmlns="http://www.w3.org/2000/svg"><g fill="none" fill-rule="evenodd"><path d="M0 0h500v500H0z"/><path fill="#BAA908" d="M203.003 109.223h93.643V21.928h-93.643z"/><path fill="#E5C700" d="M202.864 30.028h93.458v-12h-93.458z"/><path d="M87.548 75.258S46.785 148.058 29 203.029c4.445 13.376 45.208 40.86 85.232 37.886 13.34-36.4 24.46-52 24.46-52S141.655 93.83 87.548 75.26m323.925-.002s40.762 72.8 58.547 127.77c-4.445 13.376-45.208 40.86-85.232 37.886-13.34-36.4-24.46-52-24.46-52s-2.963-95.085 51.145-113.655" fill="#FEDE00"/><path d="M249.511 57.703c-50.082 0-47.798-39.47-48.742-39.14-7.516 2.618-24.133 14.936-52.439 25.495-31.873 11.885-52.626 19.315-60.782 31.2 11.114 8.915 46.694 28.97 46.694 120.345v271.14s49.658 14.855 114.885 14.855c68.929 0 115.648-14.855 115.648-14.855v-271.14c0-91.375 35.58-111.43 46.7-120.345-8.157-11.885-28.91-19.315-60.783-31.2-28.36-10.577-44.982-22.92-52.478-25.511-.927-.318 4.177 39.156-48.703 39.156z" fill="#FEDE00"/><path d="M364.783 196.15v270.564s-2.615.832-7.52 2.102V198.029c1.66-.659 3.102-1.134 4.324-1.427.79-.19 1.855-.34 3.196-.451zM141.75 468.72c-4.86-1.215-7.5-2.005-7.5-2.005V196.154c1.332.111 2.39.26 3.175.449 1.222.293 2.664.768 4.325 1.427v270.69zm325.603-273.591a338.826 338.826 0 012.667 7.9c-4.445 13.375-45.208 40.86-85.232 37.885a426.424 426.424 0 00-2.835-7.52c20.795-1.358 37.993-5.637 51.594-12.837 13.428-7.11 24.697-15.585 33.806-25.428zm-435.698.036c9.103 9.828 20.36 18.291 33.772 25.392 13.611 7.205 30.824 11.485 51.64 12.84a426.42 426.42 0 00-2.835 7.517c-40.024 2.975-80.787-24.51-85.232-37.885.836-2.585 1.723-5.21 2.655-7.864z" fill="#2C57E2"/><path fill="#2246BD" d="M202.867 32.198h93.458v-7h-93.458z"/><path d="M203.964 27.775c-9.027 4.858-24.145 14.369-46.657 22.766-31.873 11.885-52.626 19.315-60.783 31.2 0 0-11.078 19.785-24.203 46.514a53.573 53.573 0 01-3.11-2.24C82.39 99.163 93.534 79.258 93.534 79.258c8.157-11.886 28.91-19.316 60.782-31.2 19.604-7.313 33.6-15.469 42.85-20.663l-.009-.05a189.62 189.62 0 015.058-2.769l1.749 3.199z" fill="#2C57E2"/><path d="M66.335 124.255a53.573 53.573 0 01-3.11-2.24c13.177-26.852 24.323-46.757 24.323-46.757 8.156-11.886 28.91-19.316 60.782-31.2 19.603-7.313 33.6-15.469 42.85-20.663a4.492 4.492 0 01-.01-.05c.14-.078.277-.136.414-.176 3.911-2.192 6.95-3.828 9.185-4.607.177-.061.24 1.28.558 3.502-2.367 1.116-5.341 2.79-8.965 4.832-9.23 5.202-22.676 12.794-41.042 19.645-31.873 11.885-52.626 19.315-60.782 31.2 0 0-11.078 19.785-24.203 46.514zm230.999-95.228l1.76-3.22c.87.478 1.79.992 2.762 1.538l-.01.05c9.25 5.194 23.248 13.35 42.85 20.663 31.874 11.885 52.627 19.315 60.783 31.2 0 0 11.145 19.905 24.323 46.757a53.573 53.573 0 01-3.11 2.24c-13.125-26.729-24.203-46.513-24.203-46.513v-.001c-8.157-11.885-28.91-19.315-60.782-31.2-20.711-7.726-35.164-16.393-44.373-21.514z" fill="#2C57E2"/><path d="M432.679 124.255c-13.126-26.729-24.204-46.513-24.204-46.513v-.001c-8.156-11.885-28.91-19.315-60.782-31.2-25.575-9.54-41.608-20.517-50.007-24.477.318-2.221.381-3.563.559-3.502 2.31.806 5.481 2.528 9.588 4.833l.01-.05-.01.05c9.25 5.194 23.247 13.35 42.85 20.662 31.873 11.885 52.626 19.315 60.783 31.2v.001s11.145 19.905 24.322 46.757a53.573 53.573 0 01-3.11 2.24z" fill="#2C57E2"/><path d="M307.852 23.345c-2.934-1.647-5.399-3-7.412-3.933-1.949-.903 1.285 34.19-50.931 34.19-48.52 0-48.842-35.14-50.663-34.313-2.061.935-4.613 2.335-7.675 4.056 0 0 7.368 40.38 58.402 40.38 51.479 0 58.279-35.895 58.279-40.38z" fill="#2C57E2"/><path d="M413.584 238.323c-9.287 2.238-19.064 3.316-28.798 2.592-8.197-22.369-15.557-36.883-20.012-44.748v270.577s-21.102 6.71-55.867 11.11l-.544-.059c1.881-54.795 5.722-166.47 8.277-240.705 2.055-59.755 31.084-95.29 60.099-117.44-2.676 6.78-5.072 14.606-7 23.667 7.354 11.852 24.436 42.069 43.831 94.964l.014.042zM190.717 477.795c-34.248-4.401-56.477-11.05-56.477-11.05V196.171c-4.456 7.867-11.813 22.38-20.01 44.743-9.632.716-19.308-.332-28.51-2.523.005-.033.012-.065.02-.097 19.377-52.848 36.305-83.066 43.61-94.944-1.93-9.075-4.328-16.912-7.007-23.701 29.015 22.15 58.044 57.685 60.1 117.44 2.554 74.235 6.395 185.91 8.276 240.705h-.002z" fill-opacity=".06" fill="#000"/><path d="M195.09 21.208c3.69-1.982 6.365-3.181 8.086-3.181 0 0-2.185 32.495 46.336 32.495 52.216 0 46.335-32.495 46.335-32.495 1.785 0 4.597 1.29 8.504 3.405-7.174 24.48-25.349 36.72-54.523 36.72-29.263 0-47.51-12.314-54.738-36.944z" fill="#FEDE00"/><g transform="translate(294 117)"><path d="M15 0a6 6 0 015.98 5.498c1.268.21 2.538.487 3.807.832A3 3 0 0127 9.225V10h3c0 15.333-5 28-15 38C5 38 0 25.333 0 10h3v-.775A3 3 0 015.213 6.33a38.643 38.643 0 013.808-.834A6 6 0 0115 0z" fill="#005795"/><path d="M5.953 7.015A41.221 41.221 0 0115 6c3.016 0 6.031.338 9.047 1.015A2.5 2.5 0 0126 9.455V15H4V9.454a2.5 2.5 0 011.953-2.44z" fill="#FFD800"/><circle fill="#80974A" cx="15" cy="6" r="5"/><circle fill="#FFD800" cx="15" cy="6" r="3"/><path d="M1.5 11h27c0 13.72-4.5 25.386-13.5 35C6 36.386 1.5 24.72 1.5 11z" fill="#FFD800"/><path d="M5.022 27L13 26.998v15.16C9.33 37.58 6.672 32.527 5.022 27zm11.979 15.159L17 27h7.977c-1.65 5.527-4.308 10.58-7.976 15.159zM25.978 23H17v-4h9.622a49.3 49.3 0 01-.644 4.001zM13 19v3.999L4.022 23a49.3 49.3 0 01-.644-4H13zm14-6.5c0 1.876-.09 3.71-.268 5.5H3.268A55.354 55.354 0 013 12.5h24z" fill="#005795"/><path fill="#80974A" d="M6 13.751h18v3H6z"/></g></g></svg>