<svg xmlns="http://www.w3.org/2000/svg" width="501" height="501" fill="none"><path fill="#071594" fill-rule="evenodd" d="M203.95 109.78h93.65v-87.3h-93.65v87.3Z" clip-rule="evenodd"/><path fill="#B5B5B5" fill-rule="evenodd" d="M203.81 32.79h93.46v-14.2h-93.46v14.2Z" clip-rule="evenodd"/><path fill="#0014C5" fill-rule="evenodd" d="M88.5 75.85s-40.77 72.8-58.55 127.77c4.44 13.38 45.2 40.86 85.23 37.88 13.34-36.4 24.46-52 24.46-52s2.96-95.08-51.15-113.65Zm323.92 0s40.76 72.8 58.55 127.77c-4.45 13.38-45.21 40.86-85.24 37.88-13.33-36.4-24.45-52-24.45-52s-2.97-95.08 51.14-113.65Z" clip-rule="evenodd"/><path fill="#0014C5" fill-rule="evenodd" d="M250.46 58.3c-50.08 0-47.8-39.47-48.74-39.15-7.52 2.62-24.13 14.94-52.44 25.5-31.87 11.88-52.63 19.31-60.78 31.2 11.11 8.91 46.7 28.97 46.7 120.34v271.14s49.65 14.86 114.88 14.86c68.93 0 115.65-14.86 115.65-14.86V196.2c0-91.37 35.57-111.43 46.7-120.34-8.16-11.89-28.92-19.32-60.79-31.2-28.36-10.58-44.98-22.92-52.48-25.5-.92-.33 4.18 39.14-48.7 39.14Z" clip-rule="evenodd"/><path fill="#F1F1F1" fill-rule="evenodd" d="M97.3 79.2c8.53-11.25 28.66-18.58 59.04-30.08 19.3-7.32 33.08-15.47 42.19-20.67l-.01-.05c1.21-.69 2.34-1.33 3.4-1.9l1.72 3.2c-9.03 5.07-23.45 13.98-44.36 21.9-29.86 11.3-49.81 18.58-58.6 29.5a52.3 52.3 0 0 0-3.38-1.9Zm-6.7-2.88c8.03-11.89 28.46-19.32 59.84-31.2 19.3-7.32 33.09-15.47 42.2-20.67l-.01-.05.02-.01 1.74 3.23c-9.1 5.2-22.52 12.98-41 19.98-30.46 11.53-50.6 18.87-59.1 30.16l-3.7-1.44Zm312.23 2.88a52.4 52.4 0 0 0-3.39 1.9c-8.78-10.91-28.73-18.19-58.6-29.5-20.2-7.65-34.36-16.23-43.43-21.37l1.58-3.3c.83.45 1.7.95 2.62 1.47l-.01.05c9.1 5.2 22.89 13.35 42.19 20.67 30.38 11.5 50.5 18.83 59.04 30.08Zm6.7-2.88c-1.26.44-2.49.92-3.68 1.44-8.5-11.29-28.65-18.63-59.11-30.16-18.28-6.92-31.6-14.6-40.7-19.81l1.41-3.41.05.02v.05c9.1 5.2 22.88 13.35 42.18 20.67 31.38 11.88 51.82 19.31 59.85 31.2Zm-43.8 120.02V466.9s-2.61.83-7.52 2.1V198.22a32.7 32.7 0 0 1 4.33-1.43 22.3 22.3 0 0 1 3.2-.45ZM142.7 468.9c-4.86-1.22-7.5-2-7.5-2V196.33c1.33.11 2.39.26 3.17.45 1.22.3 2.67.77 4.33 1.43V468.9Z" clip-rule="evenodd"/><path fill="#F1F1F1" fill-rule="evenodd" d="M250.52 64.34c51.48 0 58.28-35.9 58.28-40.38-5.77-3.24-9.73-5.34-12-5.34 0 0 5.88 32.49-46.34 32.49-48.52 0-46.34-32.5-46.34-32.5-2.28 0-6.23 2.11-12 5.35 0 0 7.37 40.38 58.4 40.38Zm217.59 131.84c.94 2.66 1.83 5.3 2.67 7.9-4.45 13.37-45.2 40.86-85.23 37.88-.96-2.61-1.9-5.12-2.84-7.52 20.8-1.35 38-5.63 51.6-12.83 13.42-7.11 24.7-15.59 33.8-25.43Zm-435.81 0c9.1 9.83 20.37 18.29 33.78 25.39 13.6 7.2 30.82 11.49 51.64 12.84-.93 2.4-1.88 4.9-2.84 7.52-40.02 2.97-80.78-24.51-85.23-37.89.84-2.58 1.72-5.2 2.66-7.86Z" clip-rule="evenodd"/><path fill="#000" fill-opacity=".1" fill-rule="evenodd" d="M414.39 238.91a93.8 93.8 0 0 1-28.8 2.6c-8.2-22.37-15.56-36.89-20.01-44.75v270.57s-21.1 6.71-55.87 11.11l-.54-.06 8.27-240.7c2.06-59.76 31.09-95.3 60.1-117.44a148.7 148.7 0 0 0-7 23.67c7.36 11.85 24.44 42.06 43.83 94.96l.02.04ZM191.52 478.38c-34.25-4.4-56.48-11.05-56.48-11.05V196.76c-4.45 7.87-11.8 22.38-20 44.75a93.92 93.92 0 0 1-28.52-2.53l.02-.1c19.38-52.84 36.31-83.06 43.61-94.94a148.74 148.74 0 0 0-7-23.7c29.01 22.15 58.04 57.68 60.1 117.44 2.55 74.23 6.4 185.9 8.27 240.7Z" clip-rule="evenodd"/><path fill="#004785" d="M311.85 168.1c21.57-16.75 19.13-33.1 19.3-44l-19.3-3-19.3 3c.17 10.9-2.27 27.25 19.3 44Z"/><path fill="#222" fill-rule="evenodd" d="M331.15 127.43c.08 10.75.18 25.54-19.3 40.68-19.48-15.14-19.38-29.93-19.3-40.69.01-1.15.02-2.26 0-3.31l19.3-3 19.3 3c-.02 1.06-.01 2.16 0 3.32Zm-36.67.06c-.06 8.26.33 12.48 2.2 17.85 2.44 7.06 7.22 13.67 15.17 20.09 7.95-6.41 12.73-13.03 15.18-20.09 1.86-5.37 2.25-9.59 2.19-17.85l-.01-1.18-17.36-3-17.36 3v1.18Z" clip-rule="evenodd"/><path fill="#F1F1F1" fill-rule="evenodd" d="m311.85 169.37-.61-.47c-9.88-7.68-14.85-15.31-17.32-22.45-2.45-7.1-2.4-13.63-2.37-19v-.03c.01-1.16.02-2.25 0-3.3l-.01-.87 20.3-3.15 20.32 3.16-.01.86c-.02 1.05-.01 2.14 0 3.3v.04c.04 5.36.08 11.9-2.37 18.99-2.47 7.14-7.44 14.77-17.32 22.45l-.61.47Zm0-1.26c-19.48-15.14-19.38-29.93-19.3-40.69.01-1.15.02-2.26 0-3.31l19.3-3 19.3 3a141 141 0 0 0 0 3.32c.08 10.75.18 25.54-19.3 40.68Zm-16.37-40.61c-.06 8.22.33 12.3 2.14 17.52 2.3 6.66 6.77 12.96 14.23 19.12 7.45-6.16 11.92-12.46 14.23-19.12 1.81-5.22 2.2-9.3 2.14-17.52v-.35l-16.37-2.83-16.37 2.83v.35Zm-1-1.2 17.37-3 17.36 3.01v1.18c.07 8.27-.32 12.48-2.18 17.86-2.45 7.06-7.23 13.67-15.18 20.08-7.95-6.41-12.73-13.03-15.18-20.09-1.86-5.37-2.25-9.59-2.19-17.85v-1.18Z" clip-rule="evenodd"/><path fill="#F1F1F1" fill-rule="evenodd" d="M304.8 136.94s2.66-1.7 7.05-1.7c4.4 0 7.06 1.7 7.06 1.7 0 7.24-7.06 12.15-7.06 12.15s-7.06-4.91-7.06-12.15Z" clip-rule="evenodd"/></svg>