<svg xmlns="http://www.w3.org/2000/svg" width="500" height="500" fill="none" viewBox="0 0 500 500"><path fill="#D23236" fill-rule="evenodd" d="M203 109.22h93.65v-87.3H203v87.3Z" clip-rule="evenodd"/><path fill="#CFA455" fill-rule="evenodd" d="M202.86 32.23h93.46v-14.2h-93.46v14.2Z" clip-rule="evenodd"/><path fill="#F24646" fill-rule="evenodd" d="M87.55 75.26S46.78 148.06 29 203.03c4.44 13.37 45.2 40.86 85.23 37.88 13.34-36.4 24.46-52 24.46-52s2.97-95.08-51.14-113.65M411.47 75.26s40.76 72.8 58.55 127.77c-4.44 13.37-45.2 40.86-85.23 37.88-13.34-36.4-24.46-52-24.46-52s-2.97-95.08 51.14-113.65" clip-rule="evenodd"/><path fill="#F24646" fill-rule="evenodd" d="M249.96 58.16c-50.08 0-47.8-39.47-48.74-39.14-7.51 2.61-24.13 14.93-52.44 25.5C116.91 56.4 96.16 63.81 88 75.71c11.11 8.9 46.7 28.96 46.7 120.34V467.2s49.65 14.85 114.88 14.85c68.93 0 115.65-14.85 115.65-14.85V196.06c0-91.38 35.58-111.43 46.7-120.35-8.16-11.88-28.91-19.31-60.79-31.2-28.35-10.58-44.98-22.92-52.47-25.5-.93-.33 4.17 39.15-48.7 39.15Z" clip-rule="evenodd"/><path fill="#F2E0BF" fill-rule="evenodd" d="M96.64 79.79c8.54-11.24 28.66-18.57 59.05-30.08 19.3-7.3 33.08-15.47 42.19-20.66l-.01-.05c1.21-.7 2.34-1.33 3.4-1.91l1.72 3.21c-9.03 5.07-23.46 13.98-44.36 21.9-29.86 11.3-49.81 18.58-58.6 29.5a52.17 52.17 0 0 0-3.39-1.91Z" clip-rule="evenodd"/><path fill="#F2E0BF" fill-rule="evenodd" d="M89.95 76.91c8.03-11.88 28.46-19.31 59.84-31.2 19.3-7.31 33.09-15.47 42.2-20.66l-.02-.05.03-.01 1.74 3.22c-9.1 5.21-22.53 12.99-41 19.99-30.46 11.53-50.6 18.87-59.1 30.16l-3.7-1.45ZM402.18 79.8c-1.16.59-2.29 1.23-3.39 1.9-8.78-10.92-28.73-18.2-58.6-29.5-20.2-7.66-34.35-16.24-43.43-21.38l1.58-3.3 2.62 1.48-.01.05c9.1 5.2 22.89 13.35 42.19 20.66 30.38 11.51 50.5 18.84 59.04 30.08Zm6.7-2.88c-1.26.43-2.49.92-3.68 1.44-8.5-11.29-28.65-18.63-59.11-30.16-18.27-6.93-31.6-14.6-40.7-19.81l1.42-3.42.04.03v.05c9.1 5.2 22.88 13.35 42.18 20.66 31.39 11.89 51.82 19.32 59.85 31.2Z" clip-rule="evenodd"/><path fill="#E23F3F" fill-rule="evenodd" d="M293.87 37.26c45.26 11.34 71.5 39.34 71.5 67.98v72.91c-.3 5.5-.45 11.3-.45 17.42v271.14s-46.72 14.86-115.65 14.86c-65.23 0-114.89-14.86-114.89-14.86V195.57c0-6.26-.16-12.19-.48-17.8v-72.53c0-28.83 26.6-57.02 72.42-68.2 5.6 10.13 17.5 20.63 43.33 20.63 27.09 0 38.96-10.35 44.22-20.41Z" clip-rule="evenodd"/><path fill="#F2E0BF" fill-rule="evenodd" d="M307.85 23.34c-5.77-3.23-9.73-5.34-12-5.34 0 0 5.88 32.5-46.34 32.5-48.52 0-46.34-32.5-46.34-32.5-2.28 0-6.23 2.1-12 5.34 0 0 7.37 40.39 58.4 40.39 51.48 0 58.28-35.9 58.28-40.38Z" clip-rule="evenodd"/><path fill="#000" fill-opacity=".06" fill-rule="evenodd" d="M413.58 238.32a93.8 93.8 0 0 1-28.8 2.6c-8.2-22.37-15.55-36.89-20-44.75v270.57s-21.1 6.71-55.87 11.12c-.18-.03-.37-.04-.55-.06l8.28-240.71c2.06-59.75 31.09-95.29 60.1-117.44a148.7 148.7 0 0 0-7 23.67c7.35 11.85 24.44 42.07 43.83 94.96l.01.04ZM190.72 477.8c-34.25-4.4-56.48-11.06-56.48-11.06V196.18c-4.46 7.87-11.81 22.38-20 44.75-9.64.71-19.32-.34-28.52-2.53l.02-.1c19.38-52.84 36.3-83.06 43.61-94.94a148.62 148.62 0 0 0-7-23.7c29 22.15 58.04 57.69 60.1 117.44l8.27 240.7Z" clip-rule="evenodd"/><circle cx="309.17" cy="141.41" r="23.2" fill="#F2E0BF"/><circle cx="309.18" cy="141.41" r="21.22" fill="#E23F3F"/><path fill="#F2E0BF" fill-rule="evenodd" d="M309.17 154.55a13.13 13.13 0 1 0 0-26.27 13.13 13.13 0 0 0 0 26.27Zm0 1.57a14.7 14.7 0 1 0 0-29.42 14.7 14.7 0 0 0 0 29.42Z" clip-rule="evenodd"/><path fill="#F2E0BF" d="M300.5 145.95a9.78 9.78 0 0 0 17.34 0H300.5Z"/><path fill="#F2E0BF" fill-rule="evenodd" d="m306.46 131.17-4.12 13.43h5.47v-13.43h-1.35Zm-5.95 14.78 4.94-16.14h3.72v16.14h-8.66Z" clip-rule="evenodd"/><path fill="#EDC45A" d="m302.15 107.46.91 2.82h2.96l-2.4 1.74.92 2.81-2.4-1.74-2.39 1.74.92-2.81-2.4-1.74h2.96l.92-2.82ZM315.73 107.46l.92 2.82h2.96l-2.4 1.74.92 2.81-2.4-1.74-2.4 1.74.92-2.81-2.4-1.74h2.97l.91-2.82Z"/></svg>