<?xml version="1.0" encoding="UTF-8"?><svg height="500" viewBox="0 0 500 500" width="500" xmlns="http://www.w3.org/2000/svg"><g fill="none" fill-rule="evenodd"><path d="M0 0h500v500H0z"/><path d="M203.006 109.193h93.643V21.898h-93.643z" fill="#23438d"/><path d="M202.867 32.198h93.458v-14.2h-93.458z" fill="#e3e3e3"/><g fill="#284b9e"><path d="M87.547 75.26S46.785 148.06 29 203.031c4.445 13.375 45.207 40.86 85.232 37.886 13.34-36.4 24.46-52 24.46-52S141.653 93.83 87.546 75.26M411.473 75.26s40.762 72.8 58.547 127.771c-4.445 13.375-45.207 40.86-85.232 37.886-13.34-36.4-24.46-52-24.46-52S357.367 93.83 411.474 75.26"/><path d="M249.514 57.706c-50.082 0-47.799-39.47-48.743-39.14-7.516 2.618-24.133 14.936-52.439 25.495-31.872 11.885-52.625 19.315-60.782 31.2 11.115 8.915 46.694 28.97 46.694 120.345v271.14S183.902 481.6 249.13 481.6c68.93 0 115.649-14.855 115.649-14.855v-271.14c0-91.375 35.58-111.43 46.7-120.345-8.157-11.885-28.91-19.315-60.783-31.2-28.36-10.577-44.982-22.92-52.478-25.511-.928-.318 4.177 39.156-48.703 39.156z"/></g><path d="M249.576 63.752c51.479 0 58.279-35.895 58.279-40.38-5.772-3.24-9.728-5.345-12.008-5.345 0 0 5.881 32.495-46.335 32.495-48.52 0-46.336-32.495-46.336-32.495-2.28 0-6.235 2.105-12.002 5.345 0 0 7.368 40.38 58.402 40.38" fill="#f2f2f2"/><path d="M330.494 148.727c-.009-.025-.025-.042-.05-.042l-2.68-1.032c.05-.191.15-.45.332-.716l1.382.608c.05.025.092.033.142.033a.363.363 0 0 0 .308-.175c.033-.058.141-.233.233-.457.133-.358.166-.683.083-.95-.083-.282-.283-.499-.583-.632l-3.687-1.69s-.017-.008-.025-.016a1.038 1.038 0 0 0-.733-.025v-.35c0-.283-.008-.583-.025-.882a19.756 19.756 0 0 0-.075-.95c-.216-1.864-.65-3.237-.824-3.737l-.067-.166c-.724-2.015-1.29-3.613-1.273-5.519.008-1.44 1.806-3.454 2.497-4.112l.65-.616-6.818-6.218-.541.358c-1.249.824-2.864 1.274-4.554 1.274-1.765 0-3.446-.491-4.712-1.382L309 121l-.474.333c-1.274.89-2.947 1.382-4.712 1.382-1.69 0-3.305-.45-4.554-1.274l-.54-.358-6.16 5.619-.658.6.64.615c.691.658 2.49 2.672 2.506 4.112.009 1.906-.558 3.504-1.282 5.519l-.058.166a17.444 17.444 0 0 0-.9 4.687c-.016.3-.032.599-.032.882 0 .117 0 .233.008.35a1.01 1.01 0 0 0-.724.025h-.009c-.008.008-.016.016-.025.016l-3.687 1.69c-.3.133-.5.35-.583.633-.083.266-.05.59.083.949.092.224.2.4.242.457a.34.34 0 0 0 .44.142l1.383-.608c.183.267.274.525.333.716l-2.68 1.032c-.026 0-.042.017-.05.042a.092.092 0 0 0 0 .066l.157.408a23.016 23.016 0 0 0 8.225 10.347 22.91 22.91 0 0 0 11.67 4.062l1.383 1.365A.076.076 0 0 0 309 165a.09.09 0 0 0 .058-.025l1.382-1.365a22.854 22.854 0 0 0 11.663-4.062 22.978 22.978 0 0 0 8.233-10.347l.158-.408a.092.092 0 0 0 0-.066" fill="#fff" fill-rule="nonzero"/><path d="M413.584 238.323c-9.287 2.238-19.064 3.316-28.798 2.592-8.197-22.369-15.557-36.883-20.012-44.748v270.577s-21.102 6.71-55.867 11.11l-.544-.059c1.881-54.795 5.722-166.47 8.277-240.705 2.055-59.755 31.084-95.29 60.099-117.44-2.676 6.78-5.072 14.606-7 23.667 7.354 11.852 24.436 42.069 43.831 94.964l.014.042zM190.717 477.795c-34.248-4.401-56.477-11.05-56.477-11.05V196.171c-4.456 7.867-11.813 22.38-20.01 44.743-9.632.716-19.308-.332-28.51-2.523.005-.033.012-.065.02-.097 19.377-52.848 36.305-83.066 43.61-94.944-1.93-9.075-4.328-16.912-7.007-23.701 29.015 22.15 58.044 57.685 60.1 117.44 2.554 74.235 6.395 185.91 8.276 240.705z" fill="#000" fill-opacity=".1"/></g></svg>