<?xml version="1.0" encoding="UTF-8"?><svg height="500" viewBox="0 0 500 500" width="500" xmlns="http://www.w3.org/2000/svg"><g fill="none" fill-rule="evenodd"><path d="M0 0h500v500H0z"/><g transform="translate(29.003 17.998)"><path d="M174.003 91.195h93.643V3.9h-93.643z" fill="#d9d9d9"/><path d="M173.864 14.2h93.458V0h-93.458z" fill="#00459c"/><g fill="#004dae"><path d="M58.548 57.262S17.785 130.062 0 185.032c4.445 13.375 45.208 40.86 85.232 37.885 13.34-36.4 24.46-52 24.46-52s2.963-95.085-51.144-113.655M382.473 57.262s40.762 72.8 58.547 127.77c-4.445 13.375-45.208 40.86-85.232 37.885-13.34-36.4-24.46-52-24.46-52s-2.963-95.085 51.145-113.655"/><path d="M220.511 39.708c-50.082 0-47.798-39.47-48.742-39.14-7.516 2.618-24.133 14.936-52.439 25.495-31.873 11.885-52.626 19.315-60.782 31.2 11.114 8.915 46.694 28.97 46.694 120.345v271.14s49.658 14.855 114.885 14.855c68.929 0 115.648-14.855 115.648-14.855v-271.14c0-91.375 35.58-111.43 46.7-120.345-8.157-11.885-28.91-19.315-60.783-31.2-28.36-10.577-44.982-22.92-52.478-25.511-.927-.318 4.177 39.156-48.703 39.156z"/></g><circle cx="280" cy="125" fill="#fff" r="22"/><circle cx="280" cy="125" fill="#00a1e4" r="20"/><path d="M266.931 109.86l28.209 28.209a20.033 20.033 0 0 1-8.382 5.76l-25.587-25.588a20.033 20.033 0 0 1 5.76-8.381z" fill="#dd2b31"/><circle cx="280" cy="125" fill="#fff" r="13"/><path d="M220.573 45.754c51.479 0 58.279-35.895 58.279-40.38-5.772-3.24-9.728-5.345-12.008-5.345 0 0 5.881 32.494-46.335 32.494-48.52 0-46.336-32.495-46.336-32.495-2.28 0-6.235 2.106-12.002 5.346 0 0 7.368 40.38 58.402 40.38" fill="#004dae"/></g><path d="M413.584 238.323c-9.287 2.238-19.064 3.316-28.798 2.592-8.197-22.369-15.557-36.883-20.012-44.748v270.577s-21.102 6.71-55.867 11.11l-.544-.059c1.881-54.795 5.722-166.47 8.277-240.705 2.055-59.755 31.084-95.29 60.099-117.44-2.676 6.78-5.072 14.606-7 23.667 7.354 11.852 24.436 42.069 43.831 94.964l.014.042zM190.717 477.795c-34.248-4.401-56.477-11.05-56.477-11.05V196.171c-4.456 7.867-11.813 22.38-20.01 44.743-9.632.716-19.308-.332-28.51-2.523.005-.033.012-.065.02-.097 19.377-52.848 36.305-83.066 43.61-94.944-1.93-9.075-4.328-16.912-7.007-23.701 29.015 22.15 58.044 57.685 60.1 117.44 2.554 74.235 6.395 185.91 8.276 240.705z" fill="#000" fill-opacity=".1"/></g></svg>