<?xml version="1.0" encoding="UTF-8"?><svg height="500" viewBox="0 0 500 500" width="500" xmlns="http://www.w3.org/2000/svg"><g fill="none" fill-rule="evenodd"><path d="M0 0h500v500H0z"/><path d="M203.003 109.223h93.643V21.928h-93.643z" fill="#2c59af"/><path d="M202.864 32.228h93.458v-14.2h-93.458z" fill="#333"/><path d="M249.511 57.703c-50.082 0-47.798-39.47-48.742-39.14-7.516 2.618-24.133 14.936-52.439 25.495-31.873 11.885-52.626 19.315-60.782 31.2 11.114 8.915 46.694 28.97 46.694 120.345v271.14s49.658 14.855 114.885 14.855c68.929 0 115.648-14.855 115.648-14.855v-271.14c0-91.375 35.58-111.43 46.7-120.345-8.157-11.885-28.91-19.315-60.783-31.2-28.36-10.577-44.982-22.92-52.478-25.511-.927-.318 4.177 39.156-48.703 39.156z" fill="#3264c3"/><path d="M200.527 18.535c.186.63.311 3.354 1.131 7.092-7.517 3.039-23.336 14.847-49.942 25.114-6.379 2.46-12.512 4.791-17.956 6.949v-8.184c2.172-.82 4.44-1.726 6.775-2.657l7.795-2.905c28.007-10.447 44.57-22.617 52.197-25.41zM298.494 18.535c7.627 2.792 24.19 14.962 52.197 25.409 3.196 1.192 6.28 2.339 9.253 3.45 1.83.718 3.606 1.412 5.292 2.05v8.235c-5.372-2.127-11.654-4.516-17.931-6.938-26.606-10.267-42.424-22.075-49.942-25.114.82-3.738.945-6.461 1.13-7.092z" fill="#3d3d3d"/><path d="M87.548 75.258S46.785 148.058 29 203.029c4.445 13.376 45.208 40.86 85.232 37.886 13.34-36.4 24.46-52 24.46-52s2.963-95.085-51.144-113.655M411.473 75.258s40.762 72.8 58.547 127.77c-4.445 13.376-45.208 40.86-85.232 37.886-13.34-36.4-24.46-52-24.46-52s-2.963-95.085 51.145-113.655" fill="#3264c3"/><g fill="#3d3d3d"><path d="M264.132 56.523c37.268-6.562 33.25-38.262 34.082-37.978a23.2 23.2 0 0 1 1.836.742v459.6a477.627 477.627 0 0 1-35.918 2.476zm65.186-21.637a242.504 242.504 0 0 0 21.374 9.172c5.14 1.916 9.99 3.716 14.544 5.438v128.685c-.301 5.5-.46 11.3-.46 17.421v271.14s-13.022 4.14-35.458 8.05zm-94.453 446.478a463.717 463.717 0 0 1-35.92-2.586V19.3a23.594 23.594 0 0 1 1.824-.74c.84-.29-.878 30.973 34.096 37.826zm-65.186-6.758c-22.03-3.853-35.437-7.863-35.437-7.863v-271.14c0-6.262-.167-12.189-.482-17.8V49.506c4.562-1.725 9.421-3.529 14.57-5.448a242.58 242.58 0 0 0 21.349-9.16z"/><path d="M307.852 23.345C302.08 20.105 298.124 18 295.844 18c0 0 5.881 32.495-46.335 32.495-48.52 0-46.336-32.495-46.336-32.495-2.28 0-6.235 2.105-12.002 5.345 0 0 7.368 40.38 58.402 40.38 51.479 0 58.279-35.895 58.279-40.38z"/></g><g transform="translate(229 111)"><path d="M21.324 64c11.578 0 20.5-14.468 20.5-32s-8.922-32-20.5-32S.824 14.468.824 32s8.922 32 20.5 32z" fill="#fff" fill-rule="nonzero"/><ellipse cx="21.324" cy="32" fill="#295caf" rx="18.5" ry="30"/><path d="M33.795 10c3.702 5.463 6.029 13.363 6.029 22.149C39.824 48.635 31.633 62 21.529 62c-4.936 0-9.415-3.19-12.706-8.373z" fill="#1d191a"/></g><path d="M413.584 238.323c-9.287 2.238-19.064 3.316-28.798 2.592-8.197-22.369-15.557-36.883-20.012-44.748v270.577s-21.102 6.71-55.867 11.11l-.544-.059c1.881-54.795 5.722-166.47 8.277-240.705 2.055-59.755 31.084-95.29 60.099-117.44-2.676 6.78-5.072 14.606-7 23.667 7.354 11.852 24.436 42.069 43.831 94.964l.014.042zM190.717 477.795c-34.248-4.401-56.477-11.05-56.477-11.05V196.171c-4.456 7.867-11.813 22.38-20.01 44.743-9.632.716-19.308-.332-28.51-2.523.005-.033.012-.065.02-.097 19.377-52.848 36.305-83.066 43.61-94.944-1.93-9.075-4.328-16.912-7.007-23.701 29.015 22.15 58.044 57.685 60.1 117.44 2.554 74.235 6.395 185.91 8.276 240.705z" fill="#000" fill-opacity=".1"/></g></svg>