<svg xmlns="http://www.w3.org/2000/svg" width="500" height="500" fill="none" viewBox="0 0 500 500"><g clip-path="url(#clip0_5839_4451)"><path fill="#242932" fill-rule="evenodd" d="M203 109.22h93.65v-87.3H203v87.3Z" clip-rule="evenodd"/><path fill="#303642" fill-rule="evenodd" d="M202.86 32.23h93.46v-14.2h-93.46v14.2Z" clip-rule="evenodd"/><path fill="#353C49" fill-rule="evenodd" d="M87.55 75.26S46.78 148.06 29 203.03c4.44 13.37 45.2 40.86 85.23 37.88 13.34-36.4 24.46-52 24.46-52s2.97-95.08-51.14-113.65M411.47 75.26s40.76 72.8 58.55 127.77c-4.44 13.37-45.2 40.86-85.23 37.88-13.34-36.4-24.46-52-24.46-52s-2.96-95.08 51.14-113.65" clip-rule="evenodd"/><path fill="#353C49" fill-rule="evenodd" d="M249.51 57.7c-50.08 0-47.8-39.47-48.74-39.14-7.52 2.62-24.13 14.94-52.44 25.5-31.87 11.88-52.63 19.31-60.78 31.2 11.11 8.91 46.7 28.97 46.7 120.34v271.14s49.65 14.86 114.88 14.86c68.93 0 115.64-14.86 115.64-14.86V195.6c0-91.37 35.59-111.43 46.7-120.34-8.15-11.89-28.9-19.32-60.78-31.2-28.36-10.58-44.98-22.92-52.48-25.51-.92-.32 4.18 39.15-48.7 39.15Z" clip-rule="evenodd"/><path fill="#F2F2F2" fill-rule="evenodd" d="M365.96 168.2 250 200l-116.97-32.07c.67 7.18 1.08 14.94 1.19 23.32L250 223l114.8-31.48c.1-8.37.5-16.13 1.16-23.32Z" clip-rule="evenodd"/><path fill="#184CCF" fill-rule="evenodd" d="M364.8 191.52 250 223l-115.78-31.75.02 4.35v271.14s49.66 14.86 114.89 14.86c68.93 0 115.65-14.86 115.65-14.86V195.6c0-1.37 0-2.73.02-4.08Z" clip-rule="evenodd"/><path fill="#353C49" fill-rule="evenodd" d="M307.85 23.34c-5.77-3.23-9.73-5.34-12-5.34 0 0 5.88 32.5-46.34 32.5-48.52 0-46.34-32.5-46.34-32.5-2.28 0-6.23 2.1-12 5.34 0 0 7.37 40.39 58.4 40.39 51.48 0 58.28-35.9 58.28-40.38Z" clip-rule="evenodd"/><path fill="#000" fill-opacity=".1" fill-rule="evenodd" d="M413.58 238.32a93.75 93.75 0 0 1-28.8 2.6c-8.2-22.37-15.55-36.89-20-44.75v270.57s-21.1 6.71-55.87 11.12c-.18-.03-.37-.05-.55-.06l8.28-240.71c2.06-59.75 31.09-95.29 60.1-117.44a148.59 148.59 0 0 0-7 23.67c7.35 11.85 24.44 42.07 43.83 94.96l.01.04ZM190.72 477.8c-34.25-4.4-56.48-11.06-56.48-11.06V196.17c-4.46 7.87-11.81 22.38-20 44.75a93.6 93.6 0 0 1-28.52-2.53l.02-.1c19.38-52.84 36.3-83.06 43.61-94.94a148.74 148.74 0 0 0-7-23.7c29 22.15 58.04 57.69 60.1 117.44l8.27 240.7Z" clip-rule="evenodd"/><path stroke="#C6C7C2" stroke-width="1.5" d="m292.12 143.4-.66-.48-.42.69-3.68 5.92-.42.67.7.38c1.16.63 2.38 1.2 3.66 1.73l-2.02 6.47-.19.62.59.28c5.63 2.7 12.54 4.07 19.32 4.07 6.78 0 13.7-1.37 19.32-4.07l.59-.28-.2-.62-2-6.47c1.27-.52 2.5-1.1 3.65-1.73l.7-.38-.42-.67-3.68-5.93-.42-.68-.66.47-.01.02-.07.04-.26.18-1.03.66a37.88 37.88 0 0 1-4.75 2.45c3.01-4.57 4.93-10.8 3.52-18.8l-.05-.26-.2-.17c-2.09-1.76-7.77-5.26-14.03-5.26s-11.94 3.5-14.02 5.26l-.2.17-.06.27c-1.41 7.99.5 14.22 3.52 18.79a37.88 37.88 0 0 1-6.04-3.28l-.07-.05-.01-.01Z"/><path fill="url(#paint0_linear_5839_4451)" d="M291.68 144s8.17 5.92 17.32 5.92 17.32-5.92 17.32-5.92l3.68 5.92c-5.96 3.24-13.78 5.08-21 5.08-7.22 0-15.04-1.84-21-5.08l3.68-5.92Z"/><path fill="#000" d="m292.22 151.87-.02.07L290 159c5.51 2.65 12.31 4 19 4 6.69 0 13.49-1.35 19-4l-2.22-7.13A47.5 47.5 0 0 1 309 155c-5.62 0-11.6-1.12-16.78-3.13Z"/><path fill="#000" d="M309 155c-5.68-2.37-16.35-11.07-13.54-26.92 2-1.7 7.52-5.08 13.54-5.08s11.53 3.39 13.54 5.08c2.8 15.85-7.86 24.55-13.54 26.92Z"/><path fill="#184586" fill-rule="evenodd" d="M311 123.12c2.17.26 4.21.9 6 1.66V141h-6v-17.88Zm-10 1.66c1.79-.76 3.83-1.4 6-1.66V141h-6v-16.22Z" clip-rule="evenodd"/><path fill="#E91B23" fill-rule="evenodd" d="M296.26 141a24.22 24.22 0 0 1-1.26-7.82c0-1.61.14-3.31.46-5.1a23.46 23.46 0 0 1 5.54-3.3V141h-4.74ZM317 124.78a23.46 23.46 0 0 1 5.54 3.3c.89 5.01.43 9.31-.8 12.92H317v-16.22Z" clip-rule="evenodd"/></g><defs><linearGradient id="paint0_linear_5839_4451" x1="309" x2="309" y1="144" y2="155" gradientUnits="userSpaceOnUse"><stop offset=".5" stop-color="#174486"/><stop offset=".5" stop-color="#FEFEFB"/><stop offset=".64" stop-color="#FEFEFB"/><stop offset=".64" stop-color="#E81A22"/></linearGradient><clipPath id="clip0_5839_4451"><path fill="#fff" d="M0 0h500v500H0z"/></clipPath></defs></svg>