<svg xmlns="http://www.w3.org/2000/svg" width="500" height="500" fill="none" viewBox="0 0 500 500"><path fill="#D9D9D9" fill-rule="evenodd" d="M203 109.22h93.65v-87.3H203v87.3Z" clip-rule="evenodd"/><path fill="#0A4E42" fill-rule="evenodd" d="M202.86 32.23h93.46v-14.2h-93.46v14.2Z" clip-rule="evenodd"/><path fill="#C02639" fill-rule="evenodd" d="M87.55 75.26S46.78 148.06 29 203.03c4.44 13.37 45.2 40.86 85.23 37.88 13.34-36.4 24.46-52 24.46-52s2.97-95.08-51.14-113.65M411.47 75.26s40.77 72.8 58.55 127.77c-4.44 13.37-45.2 40.86-85.23 37.88-13.34-36.4-24.46-52-24.46-52s-2.96-95.08 51.14-113.65" clip-rule="evenodd"/><path fill="#C02639" fill-rule="evenodd" d="M249.51 57.7c-50.08 0-47.8-39.47-48.74-39.14-7.52 2.62-24.13 14.94-52.44 25.5-31.87 11.88-52.63 19.31-60.78 31.2 11.11 8.91 46.7 28.97 46.7 120.34v271.14s49.65 14.86 114.88 14.86c68.93 0 115.64-14.86 115.64-14.86V195.6c0-91.37 35.59-111.43 46.7-120.34-8.15-11.89-28.9-19.32-60.78-31.2-28.36-10.58-44.98-22.92-52.48-25.51-.92-.32 4.18 39.15-48.7 39.15Z" clip-rule="evenodd"/><path fill="#29684A" fill-rule="evenodd" d="M111.17 98.42C157 92.14 203.1 89 249.51 89c46.12 0 92.26 3.1 138.42 9.3-7.34 10.5-14.45 25.53-18.82 47.66a1038.91 1038.91 0 0 0-119.6-6.96c-39.88 0-79.74 2.35-119.59 7.04-4.35-22.09-11.44-37.12-18.75-47.62ZM134.24 200.53c38.22-4.35 76.64-6.53 115.27-6.53 38.41 0 76.83 2.15 115.27 6.45v50.02A1037.93 1037.93 0 0 0 249.5 244a1021 1021 0 0 0-115.27 6.54v-50.01ZM134.24 305.53c38.22-4.35 76.64-6.53 115.27-6.53 38.41 0 76.83 2.15 115.27 6.45v50.02A1037.93 1037.93 0 0 0 249.5 349a1021 1021 0 0 0-115.27 6.54v-50.01ZM134.24 410.53c38.28-4.35 76.73-6.53 115.35-6.53 38.39 0 76.78 2.15 115.19 6.45v50.02A1037.93 1037.93 0 0 0 249.5 454a1021 1021 0 0 0-115.27 6.54v-50.01ZM467.35 195.13c.94 2.67 1.83 5.3 2.67 7.9-4.44 13.37-45.2 40.86-85.23 37.88-.96-2.61-1.9-5.12-2.84-7.52 20.8-1.35 38-5.63 51.6-12.83 13.43-7.11 24.7-15.59 33.8-25.43ZM31.65 195.16c9.1 9.83 20.37 18.3 33.78 25.4 13.6 7.2 30.82 11.48 51.64 12.84-.93 2.4-1.88 4.9-2.84 7.51-40.02 2.98-80.79-24.5-85.23-37.88.84-2.59 1.72-5.21 2.65-7.87ZM307.85 23.34c-5.77-3.23-9.73-5.34-12-5.34 0 0 5.88 32.5-46.34 32.5-48.52 0-46.34-32.5-46.34-32.5-2.28 0-6.23 2.1-12 5.34 0 0 7.37 40.39 58.4 40.39 51.48 0 58.28-35.9 58.28-40.38Z" clip-rule="evenodd"/><path fill="#000" fill-opacity=".08" fill-rule="evenodd" d="M413.58 238.32a93.76 93.76 0 0 1-28.8 2.6c-8.2-22.37-15.55-36.89-20-44.75v270.57s-21.1 6.71-55.87 11.12c-.18-.03-.37-.05-.55-.06l8.28-240.71c2.06-59.75 31.08-95.29 60.1-117.44a148.59 148.59 0 0 0-7 23.67c7.35 11.85 24.44 42.07 43.83 94.96l.01.04ZM190.72 477.8c-34.25-4.4-56.48-11.06-56.48-11.06V196.17c-4.46 7.87-11.81 22.38-20 44.75a93.6 93.6 0 0 1-28.52-2.53l.02-.1c19.38-52.84 36.3-83.06 43.61-94.94a148.63 148.63 0 0 0-7-23.7c29 22.15 58.04 57.69 60.1 117.44l8.27 240.7Z" clip-rule="evenodd"/><path fill="#F2F2F2" d="M287.1 123.62c-4.4 28.24 13.44 41.16 21.9 46.78 8.46-5.62 26.3-18.54 21.9-46.78-12.68 2.87-12.75-5.62-12.75-5.62s-2.76 6-9.15 6c-6.4 0-9.15-6-9.15-6s-.07 8.49-12.76 5.62Z"/><path fill="#C02639" d="M288.64 125.07c-4.09 26.25 12.5 38.26 20.36 43.48 7.86-5.22 24.45-17.23 20.36-43.48-11.8 2.67-11.85-4.22-11.85-4.22s-2.57 4.57-8.51 4.58a9.95 9.95 0 0 1-8.5-4.58s-.07 6.89-11.86 4.22Z"/><path fill="#F2F2F2" d="M290.58 126.94c-3.7 23.75 11.3 34.62 18.42 39.34 7.11-4.72 22.12-15.59 18.42-39.34-10.67 2.41-10.72-2.82-10.72-2.82s-2.32 3.14-7.7 3.14c-5.38 0-7.7-3.14-7.7-3.14s-.05 5.23-10.72 2.82Z"/><path fill="#29684A" d="M307 131h4v30h-4z"/><path fill="#29684A" d="M298 141v-4s5.52-1 11-1 11 1 11 1v4s-5.52-1-11-1-11 1-11 1Z"/></svg>