<?xml version="1.0" encoding="UTF-8"?><svg width="500" height="500" viewBox="0 0 500 500" fill="none" xmlns="http://www.w3.org/2000/svg"><path fill-rule="evenodd" clip-rule="evenodd" d="M203.006 109.193h93.643V21.8979h-93.643v87.2951z" fill="#CDC047"/><path fill-rule="evenodd" clip-rule="evenodd" d="M202.867 32.198h93.458v-14.2h-93.458v14.2z" fill="#14549E"/><path fill-rule="evenodd" clip-rule="evenodd" d="M87.5505 75.2603S46.7877 148.06 29.0029 203.03c4.445 13.375 45.2078 40.86 85.2321 37.885 13.34-36.4 24.46-52 24.46-52s2.963-95.0847-51.1445-113.6547zM411.475 75.2603S452.238 148.06 470.023 203.03c-4.445 13.375-45.208 40.86-85.232 37.885-13.34-36.4-24.46-52-24.46-52s-2.963-95.0847 51.144-113.6547z" fill="#EADA51"/><path fill-rule="evenodd" clip-rule="evenodd" d="M249.514 57.7054c-50.082 0-47.798-39.4691-48.743-39.14-7.516 2.6187-24.132 14.9368-52.438 25.495-31.873 11.885-52.6262 19.315-60.7827 31.2 11.1148 8.915 46.6947 28.9696 46.6947 120.3446v271.14S183.902 481.6 249.13 481.6c68.929 0 115.648-14.855 115.648-14.855v-271.14c0-91.375 35.58-111.4296 46.699-120.3446-8.156-11.885-28.909-19.315-60.782-31.2-28.36-10.5767-44.982-22.9194-52.478-25.5087-.927-.3202 4.177 39.1537-48.703 39.1537z" fill="#EADA51"/><path fill-rule="evenodd" clip-rule="evenodd" d="M100.037 81.6994a52.2869 52.2869 0 00-3.3919-1.9109c8.5389-11.2398 28.6599-18.5704 59.0419-30.0765 19.301-7.312 33.083-15.4682 42.191-20.6621-.007-.0334-.01-.0504-.01-.0504 1.212-.6917 2.343-1.3316 3.394-1.9104l1.731 3.2145c-9.03 5.0642-23.459 13.9728-44.362 21.8915-29.864 11.3097-49.812 18.5852-58.594 29.5043zM89.9448 76.913c8.0311-11.886 28.4652-19.316 59.8472-31.201 19.302-7.312 33.083-15.4682 42.191-20.6621a18.7098 18.7098 0 01-.009-.0504l.024-.0137 1.737 3.2283c-9.102 5.2076-22.521 12.9811-40.999 19.981-30.458 11.5351-50.603 18.8736-59.1052 30.1614l-3.686-1.4435zM402.181 79.7912a52.1624 52.1624 0 00-3.391 1.9112c-8.781-10.9206-28.73-18.1965-58.596-29.5071-20.204-7.6539-34.36-16.2328-43.438-21.3709l1.584-3.304c.826.4607 1.698.9551 2.617 1.4793 0 0-.004.017-.01.0504 9.108 5.1938 22.889 13.35 42.191 20.6621 30.384 11.5069 50.505 18.8378 59.043 30.079zm6.7-2.876c-1.26.4392-2.488.9212-3.686 1.4437-8.501-11.2891-28.646-18.6278-59.107-30.1636-18.275-6.9233-31.602-14.6034-40.698-19.8092l1.413-3.4139.048.0275s-.003.017-.01.0504c9.108 5.1938 22.89 13.35 42.191 20.6621 31.383 11.885 51.817 19.315 59.848 31.2v.001s0 .0007.001.002z" fill="#1A64BA"/><path fill-rule="evenodd" clip-rule="evenodd" d="M249.576 63.7514c51.479 0 58.278-35.895 58.278-40.38-5.772-3.24-9.728-5.345-12.007-5.345 0 0 5.881 32.495-46.336 32.495-48.52 0-46.335-32.495-46.335-32.495-2.28 0-6.236 2.105-12.003 5.345 0 0 7.369 40.38 58.403 40.38z" fill="#1A64BA"/><path fill-rule="evenodd" clip-rule="evenodd" d="M413.584 238.323c-9.287 2.238-19.064 3.316-28.797 2.592-8.198-22.369-15.558-36.883-20.013-44.748v270.577s-21.102 6.71-55.866 11.111l-.544-.06c1.88-54.795 5.722-166.47 8.276-240.705 2.055-59.755 31.085-95.29 60.099-117.44-2.675 6.781-5.072 14.606-6.999 23.667 7.354 11.852 24.435 42.069 43.83 94.964.005.014.01.028.014.042zM190.717 477.795c-34.248-4.401-56.476-11.051-56.476-11.051V196.172c-4.456 7.867-11.814 22.379-20.01 44.743-9.633.716-19.3089-.332-28.5108-2.524a1.056 1.056 0 01.0199-.096c19.3769-52.848 36.3059-83.066 43.6099-94.944-1.929-9.075-4.328-16.912-7.006-23.701 29.014 22.15 58.043 57.685 60.099 117.44 2.554 74.235 6.395 185.91 8.276 240.705h-.002z" fill="#000" fill-opacity=".06"/><path fill-rule="evenodd" clip-rule="evenodd" d="M293 124h32l-16 44-16-44z" fill="#3D3D3D"/><path fill-rule="evenodd" clip-rule="evenodd" d="M296 126h26l-13 36-13-36z" fill="#1A64BA"/><path d="M309 126h-13l13 36v-36z" fill="#EADA51"/><path fill-rule="evenodd" clip-rule="evenodd" d="M301 130h16l-8 21-8-21z" fill="#F2F2F2"/><path d="M302 124l-5-6s8.5-2 12-2 12 2 12 2l-5 6h-14z" fill="#B08139"/><path fill="#C4C4C4" d="M305 131h8v8h-8z"/></svg>