<?xml version="1.0" encoding="UTF-8"?><svg height="500" viewBox="0 0 500 500" width="500" xmlns="http://www.w3.org/2000/svg"><g fill="none" fill-rule="evenodd"><path d="M0 0h500v500H0z"/><path d="M203.006 109.193h93.643V21.898h-93.643z" fill="#bfbfbf"/><path d="M202.867 32.198h93.458v-14.2h-93.458z" fill="#0d7045"/><path d="M87.55 75.26s-40.762 72.8-58.547 127.77c4.445 13.375 45.208 40.86 85.232 37.885 13.34-36.4 24.46-52 24.46-52S141.658 93.83 87.55 75.26M411.476 75.26s40.762 72.8 58.547 127.77c-4.445 13.375-45.208 40.86-85.232 37.885-13.34-36.4-24.46-52-24.46-52S357.368 93.83 411.476 75.26" fill="#f2f2f2"/><path d="M249.514 57.706c-50.082 0-47.798-39.47-48.742-39.14-7.516 2.618-24.133 14.936-52.439 25.495-31.873 11.885-52.626 19.315-60.782 31.2 11.114 8.915 46.694 28.97 46.694 120.345v271.14S183.903 481.6 249.13 481.6c68.929 0 115.648-14.855 115.648-14.855v-271.14c0-91.375 35.58-111.43 46.7-120.345-8.157-11.885-28.91-19.315-60.783-31.2-28.36-10.577-44.982-22.92-52.478-25.511-.927-.318 4.177 39.156-48.703 39.156z" fill="#f2f2f2"/><g fill="#0f7d4d"><path d="M68.717 110.836c10.64-21.092 18.83-35.72 18.83-35.72 8.157-11.885 28.91-19.315 60.783-31.2 28.008-10.447 44.571-22.617 52.198-25.41.186.63.31 3.354 1.13 7.093-7.518 3.04-23.336 14.847-49.942 25.114-30.81 11.885-50.865 19.315-58.747 31.2 0 0-7.812 14.495-17.944 35.245zM430.304 110.836l-6.308 6.322c-10.132-20.75-17.944-35.245-17.944-35.245-7.882-11.885-27.937-19.315-58.747-31.2C320.7 40.446 304.88 28.64 297.363 25.6c.82-3.739.945-6.462 1.13-7.092 7.627 2.792 24.19 14.962 52.198 25.409 31.873 11.885 52.626 19.315 60.783 31.2s8.19 14.628 18.83 35.72zM467.461 195.302a338.826 338.826 0 0 1 2.668 7.9c-4.445 13.375-45.208 40.86-85.232 37.885a426.405 426.405 0 0 0-2.836-7.52c20.795-1.358 37.993-5.637 51.595-12.837 13.428-7.11 24.696-15.585 33.805-25.428zM31.655 195.302c9.103 9.828 20.36 18.291 33.772 25.392 13.611 7.205 30.824 11.485 51.64 12.84a426.42 426.42 0 0 0-2.835 7.516C74.208 244.025 33.445 216.54 29 203.165c.836-2.584 1.723-5.209 2.655-7.863zM270 55.202l-.001 425.945c-6.695.291-13.66.454-20.869.454-6.546 0-12.935-.15-19.133-.42l-.003-425.967c5.412 1.566 11.852 2.492 19.52 2.492 8.118 0 14.87-.93 20.486-2.504zm39-3.514c16.972 7.01 30.48 16.298 40 25.37l.002 393.795c-9.567 2.188-23.182 4.86-40 6.992zm-118-.41l-.001 426.554c-16.474-2.107-30.184-4.738-40-6.908L151 76.114c9.648-8.947 23.15-18.02 40-24.836z"/></g><path d="M307.855 23.372c-5.772-3.24-10.008-5.345-10.008-3.345S301.728 53.5 249.512 53.5c-48.52 0-48.336-32.473-48.336-33.473 0-.894-4.235.105-10.002 3.345 0 0 7.368 40.38 58.402 40.38 51.479 0 58.279-35.895 58.279-40.38z" fill="#f2f2f2"/><path d="M295.847 18.026c1.785 0 4.597 1.29 8.503 3.405-7.174 24.482-25.348 36.722-54.522 36.722-29.263 0-47.509-12.315-54.738-36.945 3.69-1.982 6.366-3.181 8.086-3.181 0 0-2.185 32.495 46.336 32.495 52.216 0 46.335-32.495 46.335-32.495zM297 123.6c3-2.067 7-3.1 12-3.1s9 1.033 12 3.1l-4 7.095c-1.998-1.14-4.665-1.711-7.998-1.711-3.334 0-6.001.57-8.002 1.71z" fill="#0f7d4d"/><path d="M299 124.03c2.5-1.622 5.833-2.433 10-2.433s7.5.811 10 2.433l-3.333 5.567c-1.666-.895-3.887-1.342-6.666-1.342s-5 .447-6.668 1.342z" fill="#ffe000"/><circle cx="309" cy="143" fill="#0f7d4d" r="17"/><path d="M309 166c12.703 0 23-10.297 23-23h-23z" fill="#0f7d4d"/><path d="M309.5 165c11.598 0 21-9.402 21-21h-21z" fill="#c8cb28"/><path d="M286 143c0 12.703 10.297 23 23 23v-23z" fill="#0f7d4d"/><path d="M287.5 144c0 11.598 9.402 21 21 21v-21z" fill="#ffe000"/><circle cx="309" cy="143" fill="#f2f2f2" r="16"/><circle cx="309" cy="143" fill="#00a64f" r="14"/><circle cx="309" cy="143" fill="#f2f2f2" opacity=".718" r="10"/><path d="M309 138.611c1.25 0 2.5-.204 3.75-.611l1.25 1.222c-1.25 1.222 0 4.89 0 6.111 0 1.223-5 2.445-5 3.667z" fill="#fff"/><path d="M305.25 138c1.25.407 2.5.611 3.75.611V149c0-1.222-5-2.444-5-3.667 0-1.222 1.25-4.889 0-6.11z" fill="#00a64f"/><path d="M413.584 238.323c-9.287 2.238-19.064 3.316-28.798 2.592-8.197-22.369-15.557-36.883-20.012-44.748v270.577s-21.102 6.71-55.867 11.11l-.544-.059c1.881-54.795 5.722-166.47 8.277-240.705 2.055-59.755 31.084-95.29 60.099-117.44-2.676 6.78-5.072 14.606-7 23.667 7.354 11.852 24.436 42.069 43.831 94.964l.014.042zM190.717 477.795c-34.248-4.401-56.477-11.05-56.477-11.05V196.171c-4.456 7.867-11.813 22.38-20.01 44.743-9.632.716-19.308-.332-28.51-2.523.005-.033.012-.065.02-.097 19.377-52.848 36.305-83.066 43.61-94.944-1.93-9.075-4.328-16.912-7.007-23.701 29.015 22.15 58.044 57.685 60.1 117.44 2.554 74.235 6.395 185.91 8.276 240.705z" fill="#000" fill-opacity=".1"/></g></svg>