<?xml version="1.0" encoding="UTF-8"?><svg height="500" viewBox="0 0 500 500" width="500" xmlns="http://www.w3.org/2000/svg"><g fill="none" fill-rule="evenodd"><path d="M0 0h500v500H0z"/><path d="M203.006 109.193h93.643V21.898h-93.643z" fill="#bfbfbf"/><path d="M202.867 32.198h93.458v-14.2h-93.458z" fill="#e3e3e3"/><path d="M87.55 75.26s-40.762 72.8-58.547 127.77c4.445 13.375 45.208 40.86 85.232 37.885 13.34-36.4 24.46-52 24.46-52S141.658 93.83 87.55 75.26M411.476 75.26s40.762 72.8 58.547 127.77c-4.445 13.375-45.208 40.86-85.232 37.885-13.34-36.4-24.46-52-24.46-52S357.368 93.83 411.476 75.26" fill="#f2f2f2"/><path d="M249.514 57.706c-50.082 0-47.798-39.47-48.742-39.14-7.516 2.618-24.133 14.936-52.439 25.495-31.873 11.885-52.626 19.315-60.782 31.2 11.114 8.915 46.694 28.97 46.694 120.345v271.14S183.903 481.6 249.13 481.6c68.929 0 115.648-14.855 115.648-14.855v-271.14c0-91.375 35.58-111.43 46.7-120.345-8.157-11.885-28.91-19.315-60.783-31.2-28.36-10.577-44.982-22.92-52.478-25.511-.927-.318 4.177 39.156-48.703 39.156z" fill="#f2f2f2"/><g fill="#148a5c"><path d="M191.177 23.343l5.472 13.078c-8.696 1.979-23.223 5.914-44.933 14.292-30.81 11.885-50.865 19.315-58.747 31.2L79.403 91.41l7.586-15.287c.365-.66.559-1.005.559-1.005v-.001c8.156-11.885 28.91-19.315 60.782-31.2 19.6-7.311 33.596-15.412 42.847-20.573zM298.852 35.654c5.27-7.286 7.033-13.33 8.919-12.285 9.318 5.167 23.734 13.39 42.92 20.547 31.873 11.885 52.626 19.315 60.783 31.2s.1.18.294.53l6.842 15.063-12.558-8.796c-7.882-11.885-27.937-19.315-58.747-31.2-24.962-9.633-40.428-13.392-48.453-15.059zM134.245 424.05c38.044-3.368 76.515-5.052 115.412-5.052 38.347 0 76.72 1.637 115.121 4.91v39.07c-39.106-3.32-77.642-4.98-115.606-4.98-38.347 0-76.656 1.694-114.927 5.08zm0-79c38.044-3.368 76.515-5.052 115.412-5.052 38.347 0 76.72 1.637 115.121 4.91v39.07c-39.106-3.32-77.642-4.98-115.606-4.98-38.347 0-76.656 1.694-114.927 5.08zm0-79c38.044-3.368 76.515-5.052 115.412-5.052 38.347 0 76.72 1.637 115.121 4.91v39.07c-39.106-3.32-77.642-4.98-115.606-4.98-38.347 0-76.656 1.694-114.927 5.08zm-.106-78.991c38.079-3.374 76.585-5.061 115.518-5.061 38.384 0 76.794 1.64 115.231 4.919-.072 2.812-.11 5.696-.11 8.655v30.406c-39.106-3.32-77.642-4.98-115.606-4.98-38.347 0-76.656 1.694-114.927 5.08v-30.506c0-2.91-.036-5.746-.106-8.513zm-16.268-77.454c43.372-4.405 87.3-6.607 131.786-6.607 43.83 0 87.695 2.138 131.594 6.414-4.945 9.637-9.386 21.97-12.406 37.917-40.503-3.554-80.394-5.331-119.673-5.331-39.697 0-79.355 1.815-118.972 5.445-3-15.895-7.411-28.206-12.329-37.838z"/><path d="M138.43 175.894c.419 7.982.262 13.02.262 13.02s-3.526 4.947-8.99 15.77c-16.942-.808-33.498-4.713-49.668-11.715-15.017-6.504-27.22-15.81-36.608-27.917 4.003-9.423 8.237-18.79 12.437-27.72 10.08 10.488 22.224 18.974 36.434 25.457 14.215 6.485 29.593 10.853 46.134 13.105zM106.397 86.458c.62.597 1.249 1.19 1.885 1.778 13.996 13.772 21.578 34.314 25.674 53.258-14.175-5.164-27.416-12.626-39.723-22.386-7.653-6.068-14.078-12.841-19.277-20.319 7.44-14.33 12.592-23.53 12.592-23.53 7.263 2.492 13.497 6.364 18.849 11.199zM455.76 165.052c-9.388 12.108-21.59 21.413-36.608 27.917-16.17 7.002-32.725 10.907-49.668 11.714-5.463-10.822-8.99-15.77-8.99-15.77s-.156-5.037.262-13.02c16.54-2.251 31.919-6.62 46.133-13.104 14.21-6.483 26.355-14.969 36.435-25.457 4.2 8.93 8.434 18.298 12.436 27.72zM424.23 98.79c-5.198 7.477-11.624 14.25-19.276 20.318-12.307 9.76-25.549 17.222-39.724 22.386 4.097-18.944 11.679-39.486 25.674-53.258.637-.588 1.265-1.181 1.886-1.778 5.351-4.835 11.586-8.707 18.849-11.2 0 0 5.152 9.202 12.592 23.531zM467.461 195.302a338.826 338.826 0 0 1 2.668 7.9c-4.445 13.375-45.208 40.86-85.232 37.885a426.405 426.405 0 0 0-2.836-7.52c20.795-1.358 37.993-5.637 51.595-12.837 13.428-7.11 24.696-15.585 33.805-25.428zM31.655 195.302c9.103 9.828 20.36 18.291 33.772 25.392 13.611 7.205 30.824 11.485 51.64 12.84a426.42 426.42 0 0 0-2.835 7.516C74.208 244.025 33.445 216.54 29 203.165c.836-2.584 1.723-5.209 2.655-7.863z"/></g><path d="M249.576 63.752c51.479 0 58.279-35.895 58.279-40.38-5.772-3.24-9.728-5.345-12.008-5.345 0 0 5.881 32.495-46.335 32.495-48.52 0-46.336-32.495-46.336-32.495-2.28 0-6.235 2.105-12.002 5.345 0 0 7.368 40.38 58.402 40.38M292.247 124.568c7.18 0 8.376-3.568 16.753-3.568s9.573 3.568 16.753 3.568c3.99 19.58-1.595 33.057-16.753 40.432-15.158-7.135-20.742-20.613-16.753-40.432z" fill="#f2f2f2"/><path d="M294.108 126.243c6.382 0 7.446-3.243 14.892-3.243s8.51 3.243 14.892 3.243c3.546 17.8-1.418 30.052-14.892 36.757-13.474-6.486-18.438-18.739-14.892-36.757z" fill="#008156"/><path d="M293.035 135h31.934c.025.677.035 1.343.03 2H293c-.004-.656.007-1.323.034-2zm.026 4h31.871c-.04.678-.098 1.345-.173 2h-31.534a36.914 36.914 0 0 1-.164-2zm.444 4h30.964c-.12.68-.26 1.347-.422 2h-30.133a30.968 30.968 0 0 1-.41-2z" fill="#fff"/><path d="M303.416 134.297c2.393 0 2.792-1.297 5.584-1.297s3.191 1.297 5.584 1.297c1.33 7.12-.531 12.021-5.584 14.703-5.053-2.595-6.914-7.495-5.584-14.703z" fill="#fff"/><path d="M304.346 135.135c1.995 0 2.327-1.135 4.654-1.135s2.66 1.135 4.654 1.135c1.108 6.23-.443 10.518-4.654 12.865-4.21-2.27-5.762-6.559-4.654-12.865z" fill="#008156"/><rect fill="#9fac3e" height="9" rx="3" width="6" x="306" y="136"/><path d="M296 129c4.333-2.667 8.667-4 13-4s8.667 1.333 13 4v3c-4.333-2.667-8.667-4-13-4s-8.667 1.333-13 4zM299.011 152.639c3.33 1.574 6.66 2.361 9.989 2.361 3.345 0 6.69-.794 10.034-2.383l.007-3.003C315.694 151.204 312.347 152 309 152c-3.33 0-6.66-.787-9.99-2.362z" fill="#85bfab"/><path d="M413.584 238.323c-9.287 2.238-19.064 3.316-28.798 2.592-8.197-22.369-15.557-36.883-20.012-44.748v270.577s-21.102 6.71-55.867 11.11l-.544-.059c1.881-54.795 5.722-166.47 8.277-240.705 2.055-59.755 31.084-95.29 60.099-117.44-2.676 6.78-5.072 14.606-7 23.667 7.354 11.852 24.436 42.069 43.831 94.964l.014.042zM190.717 477.795c-34.248-4.401-56.477-11.05-56.477-11.05V196.171c-4.456 7.867-11.813 22.38-20.01 44.743-9.632.716-19.308-.332-28.51-2.523.005-.033.012-.065.02-.097 19.377-52.848 36.305-83.066 43.61-94.944-1.93-9.075-4.328-16.912-7.007-23.701 29.015 22.15 58.044 57.685 60.1 117.44 2.554 74.235 6.395 185.91 8.276 240.705z" fill="#000" fill-opacity=".1"/></g></svg>