<?xml version="1.0" encoding="utf-8"?><svg width="500" height="500" viewBox="0 0 500 500" fill="none" xmlns="http://www.w3.org/2000/svg"><path fill-rule="evenodd" clip-rule="evenodd" d="M203.004 109.223h93.643V21.928h-93.643v87.295Z" fill="#D1AE15"/><path fill-rule="evenodd" clip-rule="evenodd" d="M202.863 32.228h93.459v-14.2h-93.459v14.2Z" fill="#E5C01A"/><path fill-rule="evenodd" clip-rule="evenodd" d="M87.547 75.258S46.785 148.06 29 203.03c4.445 13.375 45.208 40.86 85.232 37.885 13.34-36.4 24.46-52 24.46-52S141.655 93.83 87.547 75.26m323.925-.002s40.763 72.801 58.548 127.771c-4.445 13.375-45.208 40.86-85.233 37.885-13.339-36.4-24.459-52-24.459-52s-2.964-95.085 51.144-113.655" fill="#F4CC18"/><path fill-rule="evenodd" clip-rule="evenodd" d="M249.51 57.703c-50.081 0-47.798-39.47-48.742-39.14-7.516 2.618-24.133 14.936-52.439 25.494-31.873 11.886-52.626 19.316-60.782 31.2 11.115 8.915 46.694 28.97 46.694 120.345v271.14s49.658 14.856 114.885 14.856c68.929 0 115.649-14.856 115.649-14.856v-271.14c0-91.375 35.579-111.43 46.699-120.345-8.157-11.885-28.91-19.315-60.782-31.2-28.36-10.576-44.982-22.919-52.479-25.508-.927-.32 4.178 39.154-48.703 39.154Z" fill="#F4CC18"/><path fill-rule="evenodd" clip-rule="evenodd" d="M167 36.153v437.946c-9.044-1.638-16.499-3.273-22-4.587V45.27l3.333-1.242A241.34 241.34 0 0 0 167 36.153Zm45.997 9.69v434.25a473.763 473.763 0 0 1-22-2.294V23.47c4.197-2.358 7.429-4.12 9.775-4.937.601-.21-.106 15.713 12.225 27.31Zm48 11.13V481.42c-3.876.096-7.834.147-11.867.147-3.422 0-6.801-.041-10.133-.119V57.026c3.221.42 6.718.647 10.517.647 4.179 0 7.996-.247 11.483-.7Zm48-32.96v453.799a469.758 469.758 0 0 1-22 2.261V46.089c12.511-11.62 10.626-27.776 11.22-27.572 2.525.873 6.085 2.852 10.78 5.497Zm46 21.618v423.757c-5.351 1.336-12.781 3.025-22 4.717V36.608a240.982 240.982 0 0 0 17.698 7.42l4.302 1.603Z" fill="#3D3D3D"/><path fill-rule="evenodd" clip-rule="evenodd" d="M307.851 23.345c-5.772-3.24-9.728-5.345-12.008-5.345 0 0 5.882 32.495-46.335 32.495-48.52 0-46.335-32.495-46.335-32.495-2.28 0-6.236 2.105-12.003 5.345 0 0 7.368 40.38 58.403 40.38 51.478 0 58.278-35.895 58.278-40.38Z" fill="#F4CC18"/><path fill-rule="evenodd" clip-rule="evenodd" d="M413.585 238.323c-9.288 2.238-19.065 3.316-28.798 2.592-8.198-22.369-15.557-36.883-20.013-44.748v270.577s-21.102 6.71-55.866 11.111l-.544-.06c1.881-54.795 5.722-166.47 8.276-240.705 2.056-59.755 31.085-95.29 60.099-117.44-2.675 6.781-5.071 14.606-6.999 23.667 7.354 11.852 24.436 42.069 43.831 94.964l.014.042ZM190.717 477.795c-34.248-4.401-56.476-11.051-56.476-11.051V196.172c-4.456 7.867-11.814 22.379-20.01 44.743-9.633.716-19.308-.332-28.51-2.524a.82.82 0 0 1 .02-.096c19.377-52.848 36.305-83.066 43.609-94.944-1.929-9.075-4.327-16.912-7.006-23.701 29.014 22.15 58.044 57.685 60.099 117.44 2.554 74.235 6.396 185.91 8.276 240.705h-.002Z" fill="#000" fill-opacity=".1"/><path d="M294.5 122h29v31.887c0 .692-.358 1.335-.945 1.7L309 164l-13.555-8.413a2.003 2.003 0 0 1-.945-1.7V122Z" fill="#3D3D3D"/><path d="M296 124h26v28.75c0 .689-.355 1.329-.938 1.695L309 162l-12.062-7.555a2.002 2.002 0 0 1-.938-1.695V124Z" fill="#F6D230"/><path fill="#3D3D3D" d="M303 126h12v4h-12z"/><path opacity=".5" fill-rule="evenodd" clip-rule="evenodd" d="M308 133a4 4 0 0 0-4 4v1h-8v8h8v4a4 4 0 0 0 4 4h2a4 4 0 0 0 4-4v-4h8v-8h-8v-1a4 4 0 0 0-4-4h-2Z" fill="#3D3D3D"/></svg>