<?xml version="1.0" encoding="UTF-8"?><svg height="500" viewBox="0 0 500 500" width="500" xmlns="http://www.w3.org/2000/svg"><g fill="none" fill-rule="evenodd"><path d="M0 0h500v500H0z"/><path d="M203.006 109.193h93.643V21.898h-93.643z" fill="#b8a31c"/><path d="M202.867 32.198h93.458v-14.2h-93.458z" fill="#d9c124"/><path d="M87.55 75.26s-40.762 72.8-58.547 127.77c4.445 13.375 45.208 40.86 85.232 37.885 13.34-36.4 24.46-52 24.46-52S141.658 93.83 87.55 75.26M411.476 75.26s40.762 72.8 58.547 127.77c-4.445 13.375-45.208 40.86-85.232 37.885-13.34-36.4-24.46-52-24.46-52S357.368 93.83 411.476 75.26" fill="#1e2553"/><path d="M249.514 57.706c-50.082 0-47.798-39.47-48.742-39.14-7.516 2.618-24.133 14.936-52.439 25.495-31.873 11.885-52.626 19.315-60.782 31.2 11.114 8.915 46.694 28.97 46.694 120.345v271.14S183.903 481.6 249.13 481.6c68.929 0 115.648-14.855 115.648-14.855v-271.14c0-91.375 35.58-111.43 46.7-120.345-8.157-11.885-28.91-19.315-60.783-31.2-28.36-10.577-44.982-22.92-52.478-25.511-.927-.318 4.177 39.156-48.703 39.156z" fill="#f2d829"/><path d="M265.462 56.275c15.676-3.094 23.748-10.752 27.937-18.367v441.644a478.696 478.696 0 0 1-27.937 1.768zm58.867-23.88c7.325 3.753 16.071 7.824 26.363 11.662l1.574.587v425.441c-6.829 1.637-16.283 3.657-27.937 5.546zm-89.797 448.958c-9.8-.327-19.156-.961-27.937-1.79V37.808c4.477 7.684 12.68 15.434 27.937 18.512zm-58.867-5.74c-11.44-1.847-20.935-3.817-27.937-5.43V44.282l.602-.224c10.75-4.01 19.815-8.274 27.335-12.164z" fill="#1e2553"/><g fill="#f2d829"><path d="M113.823 94.435c7.258 9.195 12.409 20.353 16.06 31.733L78.58 236.438A123.102 123.102 0 0 1 52.99 225.19l60.834-130.755zM385.291 94.435l60.834 130.755a123.102 123.102 0 0 1-25.591 11.248l-51.304-110.27c3.652-11.38 8.803-22.538 16.061-31.733z"/><path d="M75.025 117.298c10.132-20.75 17.944-35.245 17.944-35.245 7.882-11.885 27.937-19.315 58.747-31.2 19.136-7.385 32.8-15.609 41.775-20.781l-2.144-6.837c-9.25 5.163-23.298 13.338-43.023 20.693-31.868 11.89-52.62 19.315-60.772 31.2 0 0-8.232 14.76-18.858 35.825C49.557 149.176 36.326 179.867 29 203.027c.3 1.058 1.008 2.41 2.123 4.056s2.05 2.777 2.807 3.396c8.386-23.684 22.084-54.745 41.095-93.18zM423.965 117.322c-10.132-20.75-17.958-35.269-17.958-35.269-7.882-11.885-27.936-19.315-58.747-31.2-19.036-7.347-32.368-15.466-41.143-20.602l1.659-6.914c9.23 5.146 23.222 13.262 42.877 20.591 31.867 11.89 52.62 19.315 60.772 31.2 0 0 8.231 14.76 18.857 35.825 18.39 36.305 31.635 66.996 39.738 92.074-.491 1.317-.977 2.346-1.457 3.088-.481.741-1.276 1.804-2.385 3.188-18.428-43.992-32.498-74.652-42.213-91.98z"/><path d="M249.576 63.752c51.479 0 58.279-35.895 58.279-40.38-5.772-3.24-9.728-5.345-12.008-5.345 0 0 5.881 32.495-46.335 32.495-48.52 0-46.336-32.495-46.336-32.495-2.28 0-6.235 2.105-12.002 5.345 0 0 7.368 40.38 58.402 40.38"/></g><g><path d="M291 122.197h36v10.955c0 18.383-6 30.665-18 36.848-12-6.184-18-18.466-18-36.848z" fill="#f2d829"/><path d="M292.714 124.23h32.572v9.854c0 16.535-5.429 27.584-16.286 33.146-10.857-5.563-16.286-16.611-16.286-33.146z" fill="#152585"/><g fill="#f2d829"><path d="M298.286 123.967v34.213c-1.191-1.953-2.191-4.105-3-6.455v-27.758zm6.107 0v41.234a26.683 26.683 0 0 1-3-2.844v-38.39zm6.107 0v43.415c-.488.295-.988.578-1.5.848a29.32 29.32 0 0 1-1.5-.848v-43.415zm6.107 0v38.39a26.68 26.68 0 0 1-3 2.844v-41.234zm6.107 0v27.759c-.809 2.35-1.809 4.502-3 6.455v-34.214z"/><path d="M298.714 117.77c3.429-1.18 6.857-1.77 10.286-1.77s6.857.59 10.286 1.77v8.853c-3.429 1.18-6.857 1.77-10.286 1.77s-6.857-.59-10.286-1.77z"/><path d="M297 117.77c4-1.18 8-1.77 12-1.77s8 .59 12 1.77v8.853c-4 1.18-8 1.77-12 1.77s-8-.59-12-1.77z"/></g><path d="M297.857 118.403c3.714-1.012 7.429-1.518 11.143-1.518s7.429.506 11.143 1.518v7.588c-3.714 1.011-7.429 1.517-11.143 1.517s-7.429-.506-11.143-1.517z" fill="#152585"/></g><path d="M413.584 238.323c-9.287 2.238-19.064 3.316-28.798 2.592-8.197-22.369-15.557-36.883-20.012-44.748v270.577s-21.102 6.71-55.867 11.11l-.544-.059c1.881-54.795 5.722-166.47 8.277-240.705 2.055-59.755 31.084-95.29 60.099-117.44-2.676 6.78-5.072 14.606-7 23.667 7.354 11.852 24.436 42.069 43.831 94.964l.014.042zM190.717 477.795c-34.248-4.401-56.477-11.05-56.477-11.05V196.171c-4.456 7.867-11.813 22.38-20.01 44.743-9.632.716-19.308-.332-28.51-2.523.005-.033.012-.065.02-.097 19.377-52.848 36.305-83.066 43.61-94.944-1.93-9.075-4.328-16.912-7.007-23.701 29.015 22.15 58.044 57.685 60.1 117.44 2.554 74.235 6.395 185.91 8.276 240.705z" fill="#000" fill-opacity=".1"/></g></svg>