<?xml version="1.0" encoding="UTF-8"?><svg width="500" height="500" viewBox="0 0 500 500" fill="none" xmlns="http://www.w3.org/2000/svg"><path fill-rule="evenodd" clip-rule="evenodd" d="M203.004 109.223h93.643V21.9282h-93.643v87.2948z" fill="#C8C8C8"/><path fill-rule="evenodd" clip-rule="evenodd" d="M202.863 32.2278h93.459v-14.2h-93.459v14.2z" fill="#DCDCDC"/><path fill-rule="evenodd" clip-rule="evenodd" d="M87.5475 75.2583S46.7848 148.058 29 203.028c4.4449 13.375 45.2077 40.86 85.232 37.885 13.34-36.4 24.46-52 24.46-52s2.963-95.0847-51.1445-113.6547z" fill="url(#paint0_linear)"/><path fill-rule="evenodd" clip-rule="evenodd" d="M411.472 75.2583s40.763 72.7997 58.548 127.7697c-4.445 13.375-45.208 40.86-85.233 37.885-13.339-36.4-24.459-52-24.459-52s-2.964-95.0847 51.144-113.6547z" fill="url(#paint1_linear)"/><path fill-rule="evenodd" clip-rule="evenodd" d="M249.51 57.7025c-50.081 0-47.798-39.4691-48.742-39.14-7.516 2.6187-24.133 14.9368-52.439 25.495-31.873 11.885-52.6256 19.315-60.7821 31.2 11.1148 8.915 46.6941 28.9695 46.6941 120.3445v271.14s49.658 14.856 114.885 14.856c68.929 0 115.649-14.856 115.649-14.856v-271.14c0-91.375 35.579-111.4295 46.699-120.3445-8.157-11.885-28.91-19.315-60.782-31.2-28.36-10.5767-44.982-22.9195-52.479-25.5087-.927-.3203 4.178 39.1537-48.703 39.1537z" fill="#F2F2F2"/><path fill-rule="evenodd" clip-rule="evenodd" d="M202.218 24.5718l1.749 3.1977c-9.027 4.8588-24.145 14.369-46.657 22.766-31.873 11.885-52.626 19.315-60.7805 31.2017-.002-.0007-11.0796 19.7828-24.2047 46.5118a52.9485 52.9485 0 01-3.11-2.238c13.1779-26.854 24.3225-46.7576 24.3225-46.7576l.002.0007c8.1547-11.8867 28.9077-19.3167 60.7807-31.2017 19.604-7.3123 33.601-15.4688 42.851-20.6627a.8865.8865 0 01-.011-.0498c1.876-1.0539 3.561-1.9878 5.058-2.7681z" fill="#34B476"/><path fill-rule="evenodd" clip-rule="evenodd" d="M192.453 26.841c-9.234 5.2034-22.706 12.8218-41.131 19.6945-31.873 11.885-52.6262 19.315-60.7808 31.2017-.002-.0007-11.0795 19.7831-24.2046 46.5118a52.6 52.6 0 01-3.11-2.239C76.4045 95.1568 87.549 75.2533 87.549 75.2533c8.1565-11.886 28.91-19.316 60.782-31.201 19.604-7.3123 33.602-15.4688 42.852-20.6627a.8865.8865 0 01-.011-.0498l1.281 3.5012zm106.643-1.0388c.87.4772 1.791.9912 2.763 1.5376 0 0-.003.017-.01.0498 9.25 5.1938 23.247 13.3503 42.851 20.6627 31.873 11.885 52.626 19.315 60.78 31.2017.001-.0003.002-.0005.002-.0007 0 0 11.145 19.9034 24.323 46.7567a52.7987 52.7987 0 01-3.11 2.239c-13.125-26.729-24.203-46.5126-24.203-46.5126-.001.0002-.001.0005-.002.0007-8.154-11.8867-28.907-19.3167-60.78-31.2017-20.712-7.7255-35.165-16.3932-44.374-21.514l1.76-3.2192z" fill="#34B476"/><path fill-rule="evenodd" clip-rule="evenodd" d="M307.843 23.3398s-.003.017-.011.0498c9.25 5.1939 23.247 13.3504 42.851 20.6627 31.873 11.885 52.626 19.315 60.781 31.2017.002-.0007 11.146 19.9028 24.324 46.756a52.4684 52.4684 0 01-3.11 2.239c-13.125-26.7287-24.203-46.5125-24.203-46.5125-8.156-11.886-28.909-19.316-60.782-31.201-18.267-6.8137-31.666-14.3602-40.892-19.5598l1.042-3.6359z" fill="#34B476"/><path fill-rule="evenodd" clip-rule="evenodd" d="M467.461 195.302c.936 2.666 1.827 5.303 2.667 7.899-4.445 13.375-45.208 40.86-85.232 37.885-.958-2.613-1.904-5.119-2.835-7.52 20.795-1.357 37.993-5.636 51.594-12.837 13.428-7.108 24.697-15.584 33.806-25.427zm-435.8063 0c9.1031 9.827 20.3606 18.291 33.7724 25.391 13.6109 7.206 30.8241 11.486 51.6389 12.84-.931 2.4-1.877 4.905-2.834 7.517-40.0243 2.975-80.7871-24.51-85.232-37.885.8363-2.585 1.7234-5.209 2.6547-7.863zM307.851 23.345c-5.772-3.24-9.728-5.345-12.008-5.345 0 0 5.882 32.495-46.335 32.495-48.52 0-46.335-32.495-46.335-32.495-2.28 0-6.236 2.105-12.003 5.345 0 0 7.368 40.38 58.403 40.38 51.478 0 58.278-35.895 58.278-40.38z" fill="#F2F2F2"/><path fill-rule="evenodd" clip-rule="evenodd" d="M413.585 238.323c-9.288 2.238-19.065 3.316-28.798 2.592-8.198-22.369-15.557-36.883-20.013-44.748v270.577s-21.102 6.71-55.866 11.111l-.544-.06c1.881-54.795 5.722-166.47 8.276-240.705 2.056-59.755 31.085-95.29 60.099-117.44-2.675 6.781-5.071 14.606-6.999 23.667 7.354 11.852 24.436 42.069 43.831 94.964.005.014.01.028.014.042zM190.717 477.795c-34.248-4.401-56.476-11.051-56.476-11.051V196.172c-4.456 7.867-11.814 22.379-20.01 44.743-9.633.716-19.3084-.332-28.5103-2.524a1.056 1.056 0 01.0199-.096c19.3774-52.848 36.3054-83.066 43.6094-94.944-1.929-9.075-4.327-16.912-7.006-23.701 29.014 22.15 58.044 57.685 60.099 117.44 2.554 74.235 6.396 185.91 8.276 240.705h-.002z" fill="#000" fill-opacity=".06"/><rect x="292.285" y="150.716" width="34" height="14" rx="2" fill="#E7B9B9"/><path d="M292.393 146.515c3.219 2.122 18.722.887 24.227.371 1.079-.101 1.85-1.066 1.733-2.143-.12-1.107-1.135-1.892-2.236-1.729l-23.724 3.501z" fill="#D25353"/><path d="M304.339 122c.899 1.655.366 6.072-.505 10.472 1.619.351 3.202.726 4.628 1.115 11 3 20.5 12 20.5 12s-14.382-6.55-21.5-8.501c-1.345-.368-2.851-.713-4.405-1.028-.512 2.198-1.035 4.179-1.407 5.538-.285 1.041-1.367 1.625-2.402 1.319-1.069-.316-1.657-1.461-1.292-2.514l1.727-4.978c-3.081-.537-6.026-.949-7.957-1.201-1.188-.155-1.975-1.326-1.654-2.481.262-.946 1.182-1.548 2.151-1.396 1.913.3 5.216.843 8.692 1.526l3.424-9.871z" fill="#D25353"/><path d="M298.286 129.717c1.105 0 2-.896 2-2 0-1.105-.895-2-2-2s-2 .895-2 2c0 1.104.895 2 2 2z" fill="#D25353"/><defs><linearGradient id="paint0_linear" x1="83.8604" y1="75.2583" x2="83.8604" y2="241.137" gradientUnits="userSpaceOnUse"><stop offset=".3385" stop-color="#34B476"/><stop offset="1" stop-color="#BADDCA" stop-opacity="0"/></linearGradient><linearGradient id="paint1_linear" x1="415.159" y1="75.2583" x2="415.159" y2="241.137" gradientUnits="userSpaceOnUse"><stop offset=".3385" stop-color="#34B476"/><stop offset="1" stop-color="#BADDCA" stop-opacity="0"/></linearGradient></defs></svg>