<svg xmlns="http://www.w3.org/2000/svg" width="500" height="500" fill="none" viewBox="0 0 500 500"><g fill-rule="evenodd" clip-path="url(#clip0_5839_4446)" clip-rule="evenodd"><path fill="#F4B3B3" d="M203 109.2h93.65V21.9H203v87.3Z"/><path fill="#AB1C1C" d="M202.87 32.2h93.45V18h-93.45v14.2Z"/><path fill="#C42222" d="M249.51 57.7c-50.08 0-47.8-39.46-48.74-39.13-7.52 2.61-24.13 14.93-52.44 25.49-31.87 11.89-52.62 19.32-60.78 31.2 11.12 8.92 46.7 28.97 46.7 120.34v271.14s49.65 14.86 114.88 14.86c68.93 0 115.65-14.86 115.65-14.86V195.62c0-91.38 35.58-111.43 46.7-120.35-8.16-11.88-28.91-19.31-60.79-31.2-28.36-10.58-44.98-22.92-52.47-25.5-.93-.33 4.17 39.15-48.7 39.15Z"/><path fill="#D02424" d="M249.5 50.5c23.74 0 35.47-6.71 41.2-14.04l3.2.84c45.29 11.34 71.55 39.43 71.55 68.16v68.86c-.45 6.63-.7 13.71-.7 21.29v271.14s-43.16 13.7-107.73 14.79c-2.6.04-5.23.06-7.9.06-64.9 0-114.38-14.7-114.87-14.85V105.46c0-28.45 25.75-56.27 70.22-67.81l5.22-1.33c6.04 7.38 17.62 14.18 39.82 14.18Z"/><path fill="#C42222" d="M87.55 75.26S46.8 148.06 29 203.03c4.45 13.38 45.21 40.86 85.23 37.88 13.34-36.4 24.46-52 24.46-52s2.97-95.08-51.14-113.65M411.48 75.26s40.76 72.8 58.54 127.77c-4.44 13.38-45.2 40.86-85.23 37.88-13.34-36.4-24.46-52-24.46-52s-2.96-95.08 51.15-113.65"/><path fill="#BC2121" d="M249.58 63.75c51.47 0 58.27-35.9 58.27-40.38-5.77-3.24-9.72-5.34-12-5.34 0 0 5.88 32.5-46.34 32.5-48.52 0-46.33-32.5-46.33-32.5-2.28 0-6.24 2.1-12 5.34 0 0 7.36 40.38 58.4 40.38"/><path fill="#000" fill-opacity=".1" d="M413.58 238.32a93.75 93.75 0 0 1-28.8 2.6c-8.2-22.37-15.55-36.89-20-44.75v270.57s-21.1 6.71-55.87 11.12c-.18-.03-.37-.05-.55-.06l8.28-240.71c2.06-59.75 31.09-95.29 60.1-117.44a148.59 148.59 0 0 0-7 23.67c7.35 11.85 24.44 42.07 43.83 94.96l.01.04ZM190.72 477.8c-34.25-4.4-56.48-11.06-56.48-11.06V196.17c-4.46 7.87-11.81 22.38-20 44.75a93.6 93.6 0 0 1-28.52-2.53l.02-.1c19.38-52.84 36.3-83.06 43.61-94.94a148.74 148.74 0 0 0-7-23.7c29 22.15 58.04 57.69 60.1 117.44l8.27 240.7Z"/><path fill="#3D3D3D" d="M291 141.9v-20.72s7-2.18 18-2.18 18 2.18 18 2.18v20.73c0 16.19-18 25.09-18 25.09s-18-8.9-18-25.1Z"/><path fill="#FFC329" d="M293 141.1V123.2s6.22-2.19 16-2.19c9.78 0 16 2.19 16 2.19v17.91c0 14.78-16 22.9-16 22.9s-16-8.13-16-22.9Z"/><path fill="#D02424" d="M296 122.37c-1.94.44-3 .82-3 .82v17.91c0 4.1 1.23 7.67 3 10.71v-29.44Zm10 39.8a38.78 38.78 0 0 1-4-3.15v-37.64a63.1 63.1 0 0 1 4-.31v41.1Zm10-3.14a39.06 39.06 0 0 1-4 3.13v-41.1c1.44.08 2.77.19 4 .32v37.65Zm6-36.66c1.94.44 3 .82 3 .82v17.91c0 4.1-1.23 7.67-3 10.71v-29.44Z"/></g><defs><clipPath id="clip0_5839_4446"><path fill="#fff" d="M0 0h500v500H0z"/></clipPath></defs></svg>