<?xml version="1.0" encoding="UTF-8"?><svg width="500" height="500" viewBox="0 0 500 500" xmlns="http://www.w3.org/2000/svg"><g fill="none" fill-rule="evenodd"><path d="M0 0h500v500H0z"/><path fill="#747474" d="M203.0033 109.223h93.6432V21.928h-93.6432z"/><path fill="#E0E0E0" d="M202.8636 32.228h93.4586v-14.2h-93.4586z"/><path d="M87.5475 75.2585s-40.7627 72.8-58.5475 127.77c4.445 13.375 45.2077 40.86 85.2322 37.885 13.3398-36.4 24.4596-52 24.4596-52s2.9633-95.085-51.1443-113.655m323.9252 0s40.7628 72.8 58.5475 127.77c-4.445 13.375-45.2077 40.86-85.2321 37.885-13.3399-36.4-24.4597-52-24.4597-52s-2.9633-95.085 51.1443-113.655" fill="#3D3D3D"/><path d="M249.5111 57.7025c-50.0817 0-47.7981-39.469-48.7426-39.14-7.5158 2.6187-24.1326 14.9368-52.4385 25.495-31.8729 11.885-52.626 19.315-60.7825 31.2 11.1149 8.915 46.6944 28.97 46.6944 120.345v271.14s49.6576 14.855 114.885 14.855c68.9291 0 115.6484-14.855 115.6484-14.855v-271.14c0-91.375 35.5795-111.43 46.6994-120.345-8.1566-11.885-28.9096-19.315-60.7825-31.2-28.3599-10.5767-44.9818-22.9194-52.478-25.5106-.9273-.3184 4.1773 39.1556-48.703 39.1556z" fill="#3D3D3D"/><path d="M307.8516 23.345c-5.772-3.24-9.728-5.345-12.0078-5.345 0 0 5.8817 32.495-46.3352 32.495-48.5202 0-46.3352-32.495-46.3352-32.495-2.2798 0-6.2358 2.105-12.0028 5.345 0 0 7.3683 40.38 58.4029 40.38 51.4785 0 58.2781-35.895 58.2781-40.38z" fill="#3D3D3D"/><path d="M260.9987 481.4208a480.836 480.836 0 01-4.0192.0825l-2.7177.0368-1.9252.0167c-1.0633.0107-2.1323.0107-3.2066.0107-3.423 0-6.803-.041-10.1352-.1184L238.993 63.1l.0014-13.1743c3.2094.369 6.7057.5692 10.5143.5692 4.1936 0 8.0125-.2096 11.4898-.5951l.0003 431.521zm-51.3778-445.19c.9717 1.1968 2.0887 2.379 3.3724 3.5201l-.0001 6.1217.003.0029.0008 434.2174-.303-.0245a468.7488 468.7488 0 01-3.8719-.3309l-1.9103-.175a473.975 473.975 0 01-12.9752-1.397l-2.9396-.3667-.0025-436.1968 1.1543-.4115 1.1647-.4037 1.354-.4549.65-.213 1.4226-.4544 1.2256-.3785.7245-.2183 1.2212-.3588 1.4308-.406.798-.22a154.2668 154.2668 0 012.6705-.7025l.0069-.0142a159.207 159.207 0 013.6094-.8681l1.194-.2673zm81.0433.2844c1.495.3423 2.97.7026 4.4251 1.08l.0196.014.0166.007c.4583.1192.9145.2402 1.3688.3629l-1.3688-.363.7383.1941 1.0142.273 1.3222.3673.6467.1843c.8513.2447 1.6954.4955 2.532.7522l.7152.2218.8197.2584 1.27.4116 1.2528.4189.8765.3009.5219.1823.7545.2676.7504.271.6587.242-.0007 435.8504-1.4704.184-1.4846.181-1.484.176-2.4018.2745c-1.7118.1912-3.4528.376-5.222.5537l-2.274.2226-1.8316.1713-1.2889.1163-2.7377.2351-1.8059.1464-.0004-433.9566.0015-.0024.0008-5.7997c1.3778-1.1768 2.5502-2.4032 3.547-3.649l.1183-.15zm42.3321 17.4419l.851.5683 1.1091.76.713.5005.6257.4471.4282.3105.9129.674.899.6808.7121.5516.6518.5148.4373.351a88.146 88.146 0 012.0575 1.7136l.483.4182.677.5968.472.4238.6666.6096.3325.3092a80.9146 80.9146 0 011.5394 1.4774l.748.7471.6712.6878.4556.4768.5678.606.5414.5902.5067.5642.4736.538.6276.7296.5675.677.5396.66.286.3565c.2144.269.426.5386.635.809l.4976.6517.4875.6547.449.618.3806.536-.0021 394.6212-1.2736.3148-1.0569.2567c-.5919.1427-1.2042.2884-1.8367.4368l-1.6062.3727-2.06.4658-1.4804.3265c-.2513.055-.505.11-.7609.1653l-2.2202.4725-2.1767.4496-1.4757.2973c-1.2017.2396-2.4416.481-3.7187.723l-2.334.4353-.0007-420.1473zm-165.9988-.6454L167 474.099l-.9048-.1648-2.0798-.386-2.0193-.3847a428.342 428.342 0 01-5.6838-1.1362l-2.6952-.5672-1.9783-.4286-2.3958-.5335-1.9158-.4383-2.3272-.5474-.0049-396.1189.4598-.6127.4549-.5925.2632-.3368a71.0322 71.0322 0 011.6295-1.9957l.6734-.7836.5465-.6198.3357-.374.3394-.3728.7166-.7713.7316-.7658.7289-.7427.7429-.7372.6237-.6042.353-.3362.356-.3352a82.9892 82.9892 0 011.1177-1.0267l.5695-.509.7132-.6246.7612-.6516.7668-.6412c.608-.5025 1.2263-1 1.8553-1.4925l.9515-.7349.7332-.553.7833-.5785.424-.308.4276-.3071a97.3377 97.3377 0 011.3288-.932l.6749-.461.9114-.6097 1.0289-.6713z" fill="#1D66CD"/><path d="M467.3529 195.129c.9359 2.6665 1.8272 5.303 2.6673 7.8995-4.445 13.375-45.2077 40.86-85.2321 37.885a426.4238 426.4238 0 00-2.8354-7.5198c20.795-1.3576 37.9932-5.6366 51.5944-12.8371 13.4282-7.109 24.6968-15.5848 33.8058-25.4277zm-435.6982.036c9.1031 9.8275 20.3606 18.2914 33.7724 25.3916 13.611 7.2056 30.824 11.4856 51.6393 12.84a426.4196 426.4196 0 00-2.8342 7.5169c-40.0245 2.975-80.7873-24.51-85.2322-37.885.8363-2.5849 1.7234-5.2092 2.6547-7.8635zM290.638 36.5092C297.606 27.7147 295.8439 18 295.8439 18c2.2798 0 6.2359 2.1005 12.0078 5.3335 0 1.135-3.6949 6.0373-11.0846 14.7071a157.3782 157.3782 0 00-6.129-1.5314zm-87.3735 1.2583l-12.0939-14.434c5.767-3.233 9.723-5.3335 12.0028-5.3335 0 0-.6406 9.5063 6.4742 18.2244a158.9492 158.9492 0 00-6.383 1.5431z" fill="#F2F2F2"/><path d="M413.5843 238.3227c-9.2877 2.2382-19.0646 3.3161-28.7978 2.5926-8.1978-22.369-15.5572-36.883-20.0128-44.7484v270.5774s-21.1022 6.7098-55.8664 11.1104c-.1817-.0197-.363-.0396-.544-.0597 1.8808-54.795 5.7221-166.47 8.2763-240.705 2.0554-59.755 31.0847-95.29 60.099-117.44-2.6753 6.7806-5.0714 14.6063-6.9991 23.6673 7.354 11.8514 24.4358 42.0687 43.8307 94.964.005.014.0097.0277.014.0414zM190.7166 477.7953c-34.2478-4.4014-56.4763-11.051-56.4763-11.051V196.1721c-4.4558 7.8668-11.8138 22.3792-20.0097 44.7432-9.633.716-19.3087-.3323-28.5106-2.5238a1.113 1.113 0 01.0199-.0967c19.3773-52.8475 36.3054-83.0661 43.6098-94.9437-1.929-9.0753-4.3277-16.912-7.0064-23.7011 29.0144 22.15 58.0437 57.685 60.099 117.44 2.5543 74.235 6.3956 185.91 8.2763 240.7053h-.002z" fill-opacity=".1" fill="#000"/><g transform="translate(289 116)"><path d="M20 54c11.0457 0 20-8.9543 20-20V0H0v34c0 11.0457 8.9543 20 20 20z" fill="#3D3D3D"/><path d="M20 52c9.9411 0 18-8.291 18-18.5185V2H2v31.4815C2 43.709 10.0589 52 20 52z" fill="#FFF"/><path d="M32 2l.0005 45.2841c-3.0819 2.838-7.1199 4.5997-11.5556 4.7104L20 52V2h12z" fill="#3D3D3D"/><path d="M29.9995 2L30 48.8816c-2.3378 1.61-5.0626 2.6714-8.0005 3.0054V2h8z" fill="#FFF"/><path d="M28.4982 1.9994l.0024 47.8095c-1.5458.8536-3.2268 1.4817-5.0014 1.8414V1.9993h4.999z" fill="#1D66CD"/><path fill="#3D3D3D" d="M1 1h38v8H1z"/><path fill="#7B7B7B" d="M2 2h36v6H2z"/><circle fill="#3D3D3D" cx="20" cy="35" r="11"/><circle fill="#FFF" cx="20" cy="35" r="10"/><circle fill="#1D66CD" cx="20" cy="35" r="5"/><path d="M15.734 32.3908l9.0922 1.2977A5.006 5.006 0 0125 35c0 .397-.0463.7832-.1337 1.1535l-9.5198.679A4.987 4.987 0 0115 35c0-.9562.2684-1.8497.734-2.6092z" fill="#74A6EB"/></g></g></svg>