<?xml version="1.0" encoding="UTF-8"?><svg width="500" height="500" viewBox="0 0 500 500" fill="none" xmlns="http://www.w3.org/2000/svg"><path fill-rule="evenodd" clip-rule="evenodd" d="M203.003 109.223h93.644V21.928h-93.644v87.295z" fill="#232944"/><path fill-rule="evenodd" clip-rule="evenodd" d="M202.864 32.228h93.458v-14.2h-93.458v14.2z" fill="#282E4B"/><path fill-rule="evenodd" clip-rule="evenodd" d="M87.5475 75.2585S46.7848 148.059 29 203.029c4.4449 13.375 45.2077 40.86 85.232 37.885 13.34-36.4 24.46-52 24.46-52s2.963-95.0855-51.1445-113.6555zm323.9255 0s40.763 72.8005 58.547 127.7705c-4.445 13.375-45.207 40.86-85.232 37.885-13.34-36.4-24.46-52-24.46-52s-2.963-95.0855 51.145-113.6555z" fill="#30375C"/><path fill-rule="evenodd" clip-rule="evenodd" d="M249.511 57.7025c-50.082 0-47.798-39.4691-48.742-39.14-7.516 2.6187-24.133 14.9368-52.439 25.495-31.873 11.885-52.6258 19.315-60.7824 31.2 11.1149 8.915 46.6944 28.9695 46.6944 120.3445v271.14s49.658 14.856 114.885 14.856c68.929 0 115.648-14.856 115.648-14.856v-271.14c0-91.375 35.58-111.4295 46.7-120.3445-8.157-11.885-28.91-19.315-60.783-31.2-28.36-10.5767-44.982-22.9195-52.478-25.5087-.927-.3203 4.178 39.1537-48.703 39.1537z" fill="#30375C"/><path fill-rule="evenodd" clip-rule="evenodd" d="M293.733 37.2608c45.26 11.3355 71.506 39.3368 71.506 67.9812v72.909c-.301 5.499-.461 11.3-.461 17.422v271.14s-46.719 14.855-115.648 14.855c-65.228 0-114.885-14.855-114.885-14.855v-271.14c0-6.262-.167-12.189-.482-17.8v-72.531c0-28.836 26.598-57.0201 72.416-68.202 5.596 10.1263 17.496 20.6327 43.335 20.6327 27.081 0 38.955-10.353 44.219-20.4119z" fill="#E84747"/><path d="M293.399 37.9043c-4.189 7.6148-12.261 15.2731-27.937 18.3667V481.29c9.9-.337 19.24-.961 27.937-1.767V37.9043zm58.867 432.1517c-6.829 1.636-16.283 3.656-27.937 5.545V48.8116c11.713 6.2429 21.114 13.8845 27.937 22.3328V470.056zm-117.734 11.267V56.316c-15.256-3.0774-23.46-10.8279-27.937-18.5119V479.533c8.781.829 18.137 1.463 27.937 1.79zm-58.867-5.741V48.2907c-11.611 6.0425-21.007 13.4459-27.936 21.6521V470.152c7.001 1.614 16.497 3.584 27.936 5.43z" fill="#30375C"/><path fill-rule="evenodd" clip-rule="evenodd" d="M307.852 23.345C302.08 20.105 298.124 18 295.844 18c0 0 5.882 32.495-46.335 32.495-48.521 0-46.336-32.495-46.336-32.495-2.279 0-6.235 2.105-12.002 5.345 0 0 7.368 40.38 58.403 40.38 51.478 0 58.278-35.895 58.278-40.38z" fill="#30375C"/><path fill-rule="evenodd" clip-rule="evenodd" d="M413.584 238.323c-9.287 2.238-19.064 3.316-28.798 2.592-8.197-22.369-15.557-36.883-20.012-44.748v270.577s-21.102 6.71-55.867 11.111l-.544-.06c1.881-54.795 5.722-166.47 8.277-240.705 2.055-59.755 31.084-95.29 60.099-117.44-2.676 6.781-5.072 14.606-7 23.667 7.354 11.852 24.436 42.069 43.831 94.964.005.014.01.028.014.042zM190.717 477.795c-34.248-4.401-56.477-11.051-56.477-11.051V196.172c-4.456 7.867-11.813 22.379-20.009 44.743-9.633.716-19.3091-.332-28.511-2.523.0051-.032.0117-.065.0199-.097 19.3771-52.848 36.3051-83.066 43.6101-94.944-1.929-9.075-4.328-16.912-7.007-23.701 29.015 22.15 58.044 57.685 60.099 117.44 2.555 74.235 6.396 185.91 8.277 240.705h-.002z" fill="#000" fill-opacity=".1"/><circle cx="309" cy="143" r="23" fill="#30375C"/><circle cx="309" cy="143" r="15" fill="#AFB3CC"/><path fill-rule="evenodd" clip-rule="evenodd" d="M309 163c11.046 0 20-8.954 20-20s-8.954-20-20-20-20 8.954-20 20 8.954 20 20 20zm0-3c9.389 0 17-7.611 17-17s-7.611-17-17-17-17 7.611-17 17 7.611 17 17 17z" fill="#F2F2F2"/></svg>