<?xml version="1.0" encoding="UTF-8"?><svg height="500" viewBox="0 0 500 500" width="500" xmlns="http://www.w3.org/2000/svg"><g fill="none" fill-rule="evenodd"><path d="M0 0h500v500H0z"/><path d="M203.006 109.193h93.643V21.898h-93.643z" fill="#9d071a"/><path d="M202.867 32.198h93.458v-14.2h-93.458z" fill="#d9d9d9"/><g fill="#df001c"><path d="M87.55 75.26s-40.762 72.8-58.547 127.77c4.445 13.375 45.208 40.86 85.232 37.885 13.34-36.4 24.46-52 24.46-52S141.658 93.83 87.55 75.26M411.476 75.26s40.762 72.8 58.547 127.77c-4.445 13.375-45.208 40.86-85.232 37.885-13.34-36.4-24.46-52-24.46-52S357.368 93.83 411.476 75.26"/><path d="M249.514 57.706c-50.082 0-47.798-39.47-48.742-39.14-7.516 2.618-24.133 14.936-52.439 25.495-31.873 11.885-52.626 19.315-60.782 31.2 11.114 8.915 46.694 28.97 46.694 120.345v271.14S183.903 481.6 249.13 481.6c68.929 0 115.648-14.855 115.648-14.855v-271.14c0-91.375 35.58-111.43 46.7-120.345-8.157-11.885-28.91-19.315-60.783-31.2-28.36-10.577-44.982-22.92-52.478-25.511-.927-.318 4.177 39.156-48.703 39.156z"/></g><path d="M293.733 37.26c45.26 11.336 71.506 39.337 71.506 67.982v72.909c-.301 5.5-.46 11.3-.46 17.421v271.14s-46.72 14.855-115.649 14.855c-65.227 0-114.885-14.855-114.885-14.855v-271.14c0-6.261-.167-12.188-.482-17.799v-72.531c0-28.836 26.598-57.02 72.417-68.202 5.595 10.126 17.495 20.632 43.334 20.632 27.082 0 38.955-10.352 44.22-20.411z" fill="#cd0c24"/><path d="M467.461 195.302a338.826 338.826 0 0 1 2.668 7.9c-4.445 13.375-45.208 40.86-85.232 37.885a426.405 426.405 0 0 0-2.836-7.52c20.795-1.358 37.993-5.637 51.595-12.837 13.428-7.11 24.696-15.585 33.805-25.428zM31.655 195.302c9.103 9.828 20.36 18.291 33.772 25.392 13.611 7.205 30.824 11.485 51.64 12.84a426.42 426.42 0 0 0-2.835 7.516C74.208 244.025 33.445 216.54 29 203.165c.836-2.584 1.723-5.209 2.655-7.863z" fill="#f2f2f2"/><path d="M293.963 36.814C342.053 47.845 370 76.214 370 105.242v36.465c-1.72 7.74-3.094 16.404-4 26.113v-62.578c0-17.129-10.663-34.06-29.977-46.886-12.112-8.044-27.068-14.146-44.177-17.928a33.219 33.219 0 0 0 2.117-3.614zM130 146.399v-41.157c0-29.032 27.954-57.404 76.056-68.428.65 1.197 1.388 2.4 2.227 3.592-17.168 3.778-32.166 9.89-44.306 17.95C144.663 71.182 134 88.114 134 105.243v77.515c-.543-13.87-1.965-25.9-4-36.358z" fill="#bf051d" fill-rule="nonzero"/><path d="M249.576 63.752c51.479 0 58.279-35.895 58.279-40.38-5.772-3.24-9.728-5.345-12.008-5.345 0 0 5.881 32.495-46.335 32.495-48.52 0-46.336-32.495-46.336-32.495-2.28 0-6.235 2.105-12.002 5.345 0 0 7.368 40.38 58.402 40.38" fill="#f2f2f2"/><path d="M309 115.5c8.134 0 14.929 3 19 2v7.025l-1 1.05c-1.065 23.26-2.245 34.239-3 37.023-1.227 4.523-13.871 4.742-14 7.902h-2c-.129-3.16-12.773-3.379-14-7.902-.755-2.784-1.935-13.764-3-37.023l-1-1.05V117.5c4.071 1 10.866-2 19-2z" stroke="#fff" stroke-width="3"/><path d="M309 115.5c8.134 0 14.929 3 19 2v7.025l-1 1.05c-1.065 23.26-2.245 34.239-3 37.023-1.227 4.523-13.871 4.742-14 7.902h-2c-.129-3.16-12.773-3.379-14-7.902-.755-2.784-1.935-13.764-3-37.023l-1-1.05V117.5c4.071 1 10.866-2 19-2z" fill="#ef1827"/><rect fill="#ff9da9" height="16" rx="8" transform="rotate(45 308.85 139.85)" width="26" x="295.849" y="131.849"/><path d="M293 120c5.333-1.333 10.667-2 16-2s10.667.667 16 2v4c-5.333-1.333-10.667-2-16-2s-10.667.667-16 2z" fill="#ff9da9"/><path d="M413.584 238.323c-9.287 2.238-19.064 3.316-28.798 2.592-8.197-22.369-15.557-36.883-20.012-44.748v270.577s-21.102 6.71-55.867 11.11l-.544-.059c1.881-54.795 5.722-166.47 8.277-240.705 2.055-59.755 31.084-95.29 60.099-117.44-2.676 6.78-5.072 14.606-7 23.667 7.354 11.852 24.436 42.069 43.831 94.964l.014.042zM190.717 477.795c-34.248-4.401-56.477-11.05-56.477-11.05V196.171c-4.456 7.867-11.813 22.38-20.01 44.743-9.632.716-19.308-.332-28.51-2.523.005-.033.012-.065.02-.097 19.377-52.848 36.305-83.066 43.61-94.944-1.93-9.075-4.328-16.912-7.007-23.701 29.015 22.15 58.044 57.685 60.1 117.44 2.554 74.235 6.395 185.91 8.276 240.705z" fill="#000" fill-opacity=".1"/></g></svg>