<?xml version="1.0" encoding="UTF-8"?><svg height="500" viewBox="0 0 500 500" width="500" xmlns="http://www.w3.org/2000/svg"><g fill="none" fill-rule="evenodd"><path d="M0 0h500v500H0z"/><path d="M203.006 109.193h93.643V21.898h-93.643z" fill="#bfbfbf"/><path d="M202.867 32.198h93.458v-14.2h-93.458z" fill="#e3e3e3"/><path d="M87.55 75.26s-40.762 72.8-58.547 127.77c4.445 13.375 45.208 40.86 85.232 37.885 13.34-36.4 24.46-52 24.46-52S141.658 93.83 87.55 75.26M411.476 75.26s40.762 72.8 58.547 127.77c-4.445 13.375-45.208 40.86-85.232 37.885-13.34-36.4-24.46-52-24.46-52S357.368 93.83 411.476 75.26" fill="#3d3d3d"/><path d="M249.514 57.706c-50.082 0-47.798-39.47-48.742-39.14-7.516 2.618-24.133 14.936-52.439 25.495-31.873 11.885-52.626 19.315-60.782 31.2 11.114 8.915 46.694 28.97 46.694 120.345v271.14S183.903 481.6 249.13 481.6c68.929 0 115.648-14.855 115.648-14.855v-271.14c0-91.375 35.58-111.43 46.7-120.345-8.157-11.885-28.91-19.315-60.783-31.2-28.36-10.577-44.982-22.92-52.478-25.511-.927-.318 4.177 39.156-48.703 39.156z" fill="#f2f2f2"/><g fill="#3d3d3d"><path d="M191.174 23.372l4.035 5.541c-8.825 5.018-22.94 13.869-43.493 21.8-30.81 11.885-50.865 19.315-58.747 31.2 0 0-7.812 14.495-17.944 35.245l-6.307-6.322c10.64-21.092 18.83-35.72 18.83-35.72l.002.001c8.154-11.886 28.907-19.316 60.78-31.201 19.298-7.198 33.161-15.103 42.413-20.303zM304.891 29.528c1.967-3.718 2.705-6.247 2.964-6.156 11.249 6.592 20.964 11.607 29.145 15.046 4.24 1.783 8.845 3.69 13.691 5.498 31.873 11.885 52.626 19.315 60.78 31.201h.003s8.19 14.627 18.83 35.719l-6.308 6.322c-10.132-20.75-17.944-35.245-17.944-35.245-7.882-11.885-27.937-19.315-58.747-31.2-19.67-7.59-33.444-16.024-42.327-21.133z"/><path d="M200.772 18.53c.685-.236-.33 20.502 18.226 31.884L219 480.538c-22.215-1.502-41.48-4.416-56.003-7.183L163 37.996c19.534-8.794 31.66-17.334 37.772-19.466zm97.445-.015c6.198 2.144 18.633 10.952 38.783 19.917l.003 434.917c-14.19 2.751-33.278 5.65-56.001 7.16V50.555c19.069-11.353 16.54-32.27 17.215-32.04z"/></g><path d="M249.576 63.752c51.479 0 58.279-35.895 58.279-40.38-5.772-3.24-9.728-5.345-12.008-5.345 0 0 5.881 32.495-46.335 32.495-48.52 0-46.336-32.495-46.336-32.495-2.28 0-6.235 2.105-12.002 5.345 0 0 7.368 40.38 58.402 40.38" fill="#f2f2f2"/><g><path d="M305.867 133.327l.979-2.489c-10.064-1.834-17.013-4.62-20.846-8.36.597-1.501 5.897-1.907 15.9-1.219a5 5 0 0 1 3.668 2.005c.465.625 1.068.938 1.81.938.115-.906-.062-1.48-.532-1.724-.333-.172-1.47-.63-.713-1 1.199-.586.448-.978 2.116-.978 1.112 0 1.932 1.233 2.457 3.7.74-.011 1.34-.326 1.8-.945a5 5 0 0 1 3.641-2.002c9.971-.741 15.256-.666 15.853.225-3.833 3.74-10.777 6.857-20.83 9.353l.979 2.496z" fill="#c4c4c4"/><path d="M294 135.694c5-2.13 10-3.194 15-3.194s10 1.065 15 3.194c0 13.079-5 23.014-15 29.806-10-6.79-15-16.725-15-29.806z" fill="#f7c405"/><path d="M295 136.5c4.667-2 9.333-3 14-3s9.333 1 14 3c0 12.287-4.667 21.62-14 28-9.333-6.378-14-15.711-14-28z" fill="#000"/><path d="M320.743 142.647c-.982 6.878-4.896 13.496-11.743 19.853v-22.006c4.756 0 8.67.718 11.743 2.153z" fill="#fff"/><path d="M296.578 137.5c4.281-1.534 8.422-2.301 12.422-2.301s8.18.767 12.538 2.301c0 1.647-.18 2.98-.538 4-4-1.421-8-2.132-12-2.132s-8 .71-12 2.132c-.282-1.023-.422-2.357-.422-4z" fill="#b89204"/></g><path d="M413.584 238.323c-9.287 2.238-19.064 3.316-28.798 2.592-8.197-22.369-15.557-36.883-20.012-44.748v270.577s-21.102 6.71-55.867 11.11l-.544-.059c1.881-54.795 5.722-166.47 8.277-240.705 2.055-59.755 31.084-95.29 60.099-117.44-2.676 6.78-5.072 14.606-7 23.667 7.354 11.852 24.436 42.069 43.831 94.964l.014.042zM190.717 477.795c-34.248-4.401-56.477-11.05-56.477-11.05V196.171c-4.456 7.867-11.813 22.38-20.01 44.743-9.632.716-19.308-.332-28.51-2.523.005-.033.012-.065.02-.097 19.377-52.848 36.305-83.066 43.61-94.944-1.93-9.075-4.328-16.912-7.007-23.701 29.015 22.15 58.044 57.685 60.1 117.44 2.554 74.235 6.395 185.91 8.276 240.705z" fill="#000" fill-opacity=".1"/></g></svg>