<?xml version="1.0" encoding="UTF-8"?><svg height="500" viewBox="0 0 500 500" width="500" xmlns="http://www.w3.org/2000/svg"><g fill="none" fill-rule="evenodd"><path d="M0 0h500v500H0z"/><path d="M203.006 109.193h93.643V21.898h-93.643z" fill="#c8b20e"/><path d="M202.867 32.198h93.458v-14.2h-93.458z" fill="#009b47"/><path d="M87.55 75.26s-40.762 72.8-58.547 127.77c4.445 13.375 45.208 40.86 85.232 37.885 13.34-36.4 24.46-52 24.46-52S141.658 93.83 87.55 75.26M411.476 75.26s40.762 72.8 58.547 127.77c-4.445 13.375-45.208 40.86-85.232 37.885-13.34-36.4-24.46-52-24.46-52S357.368 93.83 411.476 75.26" fill="#eed414"/><path d="M249.514 57.706c-50.082 0-47.798-39.47-48.742-39.14-7.516 2.618-24.133 14.936-52.439 25.495-31.873 11.885-52.626 19.315-60.782 31.2 11.114 8.915 46.694 28.97 46.694 120.345v271.14S183.903 481.6 249.13 481.6c68.929 0 115.648-14.855 115.648-14.855v-271.14c0-91.375 35.58-111.43 46.7-120.345-8.157-11.885-28.91-19.315-60.783-31.2-28.36-10.577-44.982-22.92-52.478-25.511-.927-.318 4.177 39.156-48.703 39.156z" fill="#eed414"/><g fill="#00a54c"><path d="M364.783 196.15v270.564s-2.615.832-7.52 2.102V198.029c1.66-.659 3.102-1.134 4.324-1.427.79-.19 1.855-.34 3.196-.451zM141.75 468.72c-4.86-1.215-7.5-2.004-7.5-2.004V196.153c1.332.111 2.39.26 3.175.449 1.222.293 2.664.768 4.325 1.427zM467.461 195.302a338.826 338.826 0 0 1 2.668 7.9c-4.445 13.375-45.208 40.86-85.232 37.885a426.405 426.405 0 0 0-2.836-7.52c20.795-1.358 37.993-5.637 51.595-12.837 13.428-7.11 24.696-15.585 33.805-25.428zM31.655 195.302c9.103 9.828 20.36 18.291 33.772 25.392 13.611 7.205 30.824 11.485 51.64 12.84a426.42 426.42 0 0 0-2.835 7.516C74.208 244.025 33.445 216.54 29 203.165c.836-2.584 1.723-5.209 2.655-7.863zM174.404 32.4c6.756-3.393 12.314-6.526 16.77-9.028l2.137 6.63c-8.9 5.143-22.457 13.326-41.595 20.711-28.211 10.883-47.405 18.03-56.493 28.283l-7.61-3.976c8.202-11.83 28.93-19.251 60.717-31.104 10.156-3.789 18.808-7.803 26.074-11.516zM324.506 32.344c7.29 3.728 15.977 7.764 26.185 11.572C382.48 55.769 403.207 63.19 411.41 75.02l-7.494 4.107c-9.04-10.324-28.278-17.486-56.61-28.415-18.71-7.22-32.085-15.202-40.991-20.361l1.54-6.98c4.433 2.488 9.949 5.6 16.652 8.972z"/><path d="M249.576 63.752c51.479 0 58.279-35.895 58.279-40.38-5.772-3.24-9.728-5.345-12.008-5.345 0 0 5.881 32.495-46.335 32.495-48.52 0-46.336-32.495-46.336-32.495-2.28 0-6.235 2.105-12.002 5.345 0 0 7.368 40.38 58.402 40.38"/></g><path d="M413.584 238.323c-9.287 2.238-19.064 3.316-28.798 2.592-8.197-22.369-15.557-36.883-20.012-44.748v270.577s-21.102 6.71-55.867 11.11l-.544-.059c1.881-54.795 5.722-166.47 8.277-240.705 2.055-59.755 31.084-95.29 60.099-117.44-2.676 6.78-5.072 14.606-7 23.667 7.354 11.852 24.436 42.069 43.831 94.964l.014.042zM190.717 477.795c-34.248-4.401-56.477-11.05-56.477-11.05V196.171c-4.456 7.867-11.813 22.38-20.01 44.743-9.632.716-19.308-.332-28.51-2.523.005-.033.012-.065.02-.097 19.377-52.848 36.305-83.066 43.61-94.944-1.93-9.075-4.328-16.912-7.007-23.701 29.015 22.15 58.044 57.685 60.1 117.44 2.554 74.235 6.395 185.91 8.276 240.705z" fill="#000" fill-opacity=".06"/><g transform="translate(292 114.5)"><path d="M17 57c9.389 0 17-7.163 17-16V15H0v26c0 8.837 7.611 16 17 16z" fill="#009230"/><circle cx="17" cy="33" fill="#a6281b" r="11"/><g fill="#e30314" fill-rule="nonzero"><path d="M12.806 14c2.548 0 4.613-2.028 4.613-4.53 0-2.5-2.065-4.529-4.613-4.529-2.547 0-4.612 2.028-4.612 4.53 0 2.501 2.065 4.529 4.612 4.529zm0-.824c-2.084 0-3.774-1.659-3.774-3.705 0-2.047 1.69-3.706 3.774-3.706 2.085 0 3.775 1.659 3.775 3.706 0 2.046-1.69 3.705-3.775 3.705z"/><path d="M8.613 9.059c2.548 0 4.613-2.028 4.613-4.53C13.226 2.028 11.16 0 8.613 0 6.065 0 4 2.028 4 4.53c0 2.5 2.065 4.529 4.613 4.529zm0-.824c-2.085 0-3.774-1.659-3.774-3.706 0-2.046 1.69-3.705 3.774-3.705s3.774 1.659 3.774 3.705c0 2.047-1.69 3.706-3.774 3.706z"/><path d="M17 9.059c2.548 0 4.613-2.028 4.613-4.53C21.613 2.028 19.548 0 17 0s-4.613 2.028-4.613 4.53c0 2.5 2.065 4.529 4.613 4.529zm0-.824c-2.084 0-3.774-1.659-3.774-3.706 0-2.046 1.69-3.705 3.774-3.705s3.774 1.659 3.774 3.705c0 2.047-1.69 3.706-3.774 3.706z"/><path d="M25.387 9.059C27.935 9.059 30 7.03 30 4.529 30 2.028 27.935 0 25.387 0s-4.613 2.028-4.613 4.53c0 2.5 2.065 4.529 4.613 4.529zm0-.824c-2.084 0-3.774-1.659-3.774-3.706 0-2.046 1.69-3.705 3.774-3.705 2.085 0 3.774 1.659 3.774 3.705 0 2.047-1.69 3.706-3.774 3.706z"/><path d="M21.194 14c2.547 0 4.612-2.028 4.612-4.53 0-2.5-2.065-4.529-4.612-4.529S16.58 6.97 16.58 9.471c0 2.501 2.065 4.529 4.613 4.529zm0-.824c-2.085 0-3.775-1.659-3.775-3.705 0-2.047 1.69-3.706 3.775-3.706 2.084 0 3.774 1.659 3.774 3.706 0 2.046-1.69 3.705-3.774 3.705z"/></g></g></g></svg>