<?xml version="1.0" encoding="UTF-8"?><svg height="500" viewBox="0 0 500 500" width="500" xmlns="http://www.w3.org/2000/svg"><g fill="none" fill-rule="evenodd"><path d="M0 0h500v500H0z"/><path d="M203.006 109.193h93.643V21.898h-93.643z" fill="#d9d9d9"/><path d="M202.867 32.198h93.458v-14.2h-93.458z" fill="#363636"/><g fill="#f2f2f2"><path d="M87.55 75.26s-40.762 72.8-58.547 127.77c4.445 13.375 45.208 40.86 85.232 37.885 13.34-36.4 24.46-52 24.46-52S141.658 93.83 87.55 75.26M411.476 75.26s40.762 72.8 58.547 127.77c-4.445 13.375-45.208 40.86-85.232 37.885-13.34-36.4-24.46-52-24.46-52S357.368 93.83 411.476 75.26"/><path d="M249.514 57.706c-50.082 0-47.798-39.47-48.742-39.14-7.516 2.618-24.133 14.936-52.439 25.495-31.873 11.885-52.626 19.315-60.782 31.2 11.114 8.915 46.694 28.97 46.694 120.345v271.14S183.903 481.6 249.13 481.6c68.929 0 115.648-14.855 115.648-14.855v-271.14c0-91.375 35.58-111.43 46.7-120.345-8.157-11.885-28.91-19.315-60.783-31.2-28.36-10.577-44.982-22.92-52.478-25.511-.927-.318 4.177 39.156-48.703 39.156z"/></g><path d="M261 56.972c10.919-1.423 18.595-4.88 24-9.169v432.424c-7.587.568-15.604.986-24 1.194V56.97zm48-32.957c6.047 3.407 13.976 7.918 24 12.594v437.495a439.446 439.446 0 0 1-24 3.708zm-72 457.383a456.743 456.743 0 0 1-24-1.305V45.846c5.259 4.945 12.888 9.103 24 10.89zm-48-3.859a466.473 466.473 0 0 1-24-3.807V37.085c9.945-4.584 17.879-9.04 24-12.49zM467.461 195.302a338.826 338.826 0 0 1 2.668 7.9c-4.445 13.375-45.208 40.86-85.232 37.885a426.405 426.405 0 0 0-2.836-7.52c20.795-1.358 37.993-5.637 51.595-12.837 13.428-7.11 24.696-15.585 33.805-25.428zM31.655 195.302c9.103 9.828 20.36 18.291 33.772 25.392 13.611 7.205 30.824 11.485 51.64 12.84a426.42 426.42 0 0 0-2.835 7.516C74.208 244.025 33.445 216.54 29 203.165c.836-2.584 1.723-5.209 2.655-7.863z" fill="#3d3d3d"/><path d="M433.348 231.855c-14.404 6.285-31.494 10.492-48.451 9.232a426.405 426.405 0 0 0-2.836-7.52c19.12-1.248 35.198-4.966 48.236-11.153l3.05 9.44zM68.21 222.102c13.15 6.357 29.435 10.168 48.856 11.432a426.42 426.42 0 0 0-2.834 7.516c-17.183 1.278-34.503-3.06-49.026-9.484z" fill="#bb946e"/><path d="M249.576 63.752c51.479 0 58.279-35.895 58.279-40.38-5.772-3.24-9.728-5.345-12.008-5.345 0 0 5.881 32.495-46.335 32.495-48.52 0-46.336-32.495-46.336-32.495-2.28 0-6.235 2.105-12.002 5.345 0 0 7.368 40.38 58.402 40.38" fill="#3d3d3d"/><path d="M291.036 117.762C298.382 115.92 304.37 115 309 115s10.618.92 17.964 2.762c1.381 13.81 1.381 26.492 0 38.048-2.763 5.523-8.751 10.587-17.964 15.19-9.213-4.603-15.2-9.667-17.964-15.19-1.381-11.556-1.381-24.239 0-38.048z" fill="#1a0e00"/><path d="M292.927 119.524C299.5 117.84 304.857 117 309 117s9.5.841 16.073 2.524c1.236 12.619 1.236 24.302 0 35.05-2.472 4.944-7.83 9.519-16.073 13.725-8.243-4.206-13.6-8.781-16.073-13.725-1.236-10.748-1.236-22.431 0-35.05z" fill="#fff"/><g fill="#1a0e00"><path d="M295.154 130h27.692l1.154 3.5-1.154 3.5h-27.692L294 133.5z"/><path d="M301 126h6v36l-6-9zM311 126h6v27l-6 9z"/></g><path d="M413.584 238.323c-9.287 2.238-19.064 3.316-28.798 2.592-8.197-22.369-15.557-36.883-20.012-44.748v270.577s-21.102 6.71-55.867 11.11l-.544-.059c1.881-54.795 5.722-166.47 8.277-240.705 2.055-59.755 31.084-95.29 60.099-117.44-2.676 6.78-5.072 14.606-7 23.667 7.354 11.852 24.436 42.069 43.831 94.964l.014.042zM190.717 477.795c-34.248-4.401-56.477-11.05-56.477-11.05V196.171c-4.456 7.867-11.813 22.38-20.01 44.743-9.632.716-19.308-.332-28.51-2.523.005-.033.012-.065.02-.097 19.377-52.848 36.305-83.066 43.61-94.944-1.93-9.075-4.328-16.912-7.007-23.701 29.015 22.15 58.044 57.685 60.1 117.44 2.554 74.235 6.395 185.91 8.276 240.705z" fill="#000" fill-opacity=".06"/></g></svg>