<?xml version="1.0" encoding="UTF-8"?><svg height="500" viewBox="0 0 500 500" width="500" xmlns="http://www.w3.org/2000/svg"><g fill="none" fill-rule="evenodd"><path d="M0 0h500v500H0z"/><path d="M203.006 109.193h93.643V21.898h-93.643z" fill="#1d1d1d"/><path d="M202.867 32.198h93.458v-14.2h-93.458z" fill="#d9d9d9"/><g fill="#3d3d3d"><path d="M87.55 75.26s-40.762 72.8-58.547 127.77c4.445 13.375 45.208 40.86 85.232 37.885 13.34-36.4 24.46-52 24.46-52S141.658 93.83 87.55 75.26M411.476 75.26s40.762 72.8 58.547 127.77c-4.445 13.375-45.208 40.86-85.232 37.885-13.34-36.4-24.46-52-24.46-52S357.368 93.83 411.476 75.26"/><path d="M249.514 57.672c-50.082 0-47.798-39.469-48.742-39.14-7.516 2.62-24.133 14.937-52.439 25.496-31.873 11.885-52.626 19.315-60.782 31.2 11.114 8.915 46.694 28.97 46.694 120.345v271.14s49.658 14.854 114.885 14.854c68.929 0 115.648-14.855 115.648-14.855v-271.14c0-91.375 35.58-111.43 46.7-120.345-8.157-11.885-28.91-19.315-60.783-31.2-28.36-10.576-44.982-22.919-52.478-25.51-.927-.318 4.177 39.155-48.703 39.155z"/></g><path d="M298.217 18.548c7.496 2.593 24.118 14.936 52.478 25.513 5.05 1.883 9.82 3.654 14.306 5.348l-.003 134.04c-.144 3.905-.22 7.955-.22 12.157v271.14S318.06 481.6 249.13 481.6c-65.227 0-114.885-14.855-114.885-14.855v-271.14c0-10.188-.442-19.489-1.245-27.987V49.8c4.783-1.813 9.896-3.711 15.333-5.738 28.306-10.559 44.923-22.877 52.439-25.495.944-.33-1.34 39.14 48.742 39.14 52.88 0 47.776-39.474 48.703-39.158z" fill="#bf1215"/><path d="M232.533 48.885c4.825 1.02 10.44 1.61 16.976 1.61 6.967 0 12.9-.579 17.951-1.581l-.002 432.334c-5.912.225-12.029.35-18.331.35a439.64 439.64 0 0 1-16.591-.316zM309 24.044c8.095 4.563 19.565 11.104 34.92 17.37l.002 430.557c-9.083 1.936-20.886 4.09-34.92 5.87zm-118.078-.503v454.278a470.608 470.608 0 0 1-20.156-3.024 420.704 420.704 0 0 1-14.767-2.962l.003-430.789c15.474-6.388 26.935-13.015 34.92-17.503z" fill="#3d3d3d"/><path d="M113.823 94.435c7.258 9.195 12.409 20.353 16.06 31.733L78.58 236.438A123.102 123.102 0 0 1 52.99 225.19l60.834-130.755zM385.291 94.435l60.834 130.755a123.102 123.102 0 0 1-25.591 11.248l-51.304-110.27c3.652-11.38 8.803-22.538 16.061-31.733z" fill="#bf1215"/><path d="M467.461 195.302a338.826 338.826 0 0 1 2.668 7.9c-4.445 13.375-45.208 40.86-85.232 37.885a426.405 426.405 0 0 0-2.836-7.52c20.795-1.358 37.993-5.637 51.595-12.837 13.428-7.11 24.696-15.585 33.805-25.428zM31.655 195.302c9.103 9.828 20.36 18.291 33.772 25.392 13.611 7.205 30.824 11.485 51.64 12.84a426.42 426.42 0 0 0-2.835 7.516C74.208 244.025 33.445 216.54 29 203.165c.836-2.584 1.723-5.209 2.655-7.863zM249.576 63.752c51.479 0 58.279-35.895 58.279-40.38-5.772-3.24-9.728-5.345-12.008-5.345 0 0 5.881 32.495-46.335 32.495-48.52 0-46.336-32.495-46.336-32.495-2.28 0-6.235 2.105-12.002 5.345 0 0 7.368 40.38 58.402 40.38" fill="#f2f2f2"/><g transform="translate(291.5 121.5)"><path d="M2.408 5.902C4.186 4.103 7.54 2.976 12.472 2.519c-1.154 1.693-1.154 5.294 0 10.804h9.96c1.095-5.51 1.095-9.11 0-10.804 4.925.51 8.25 1.638 9.976 3.383 5 5.059 1.952 16.3-9.142 33.725l-5.858-9.274-6.637 9.274C.195 22.203-2.592 10.961 2.408 5.902z" fill="#b79c53"/><rect fill="#b79c53" height="13.49" rx="3.333" width="6.667" x="14.074"/><path d="M1.158 37.941c7.213.843 12.63 1.265 16.25 1.265 3.62 0 9.036-.422 16.25-1.265v3.794C26.467 42.578 21.05 43 17.408 43s-9.06-.422-16.25-1.265z" fill="#fff"/><path d="M5.324 8.431h24.167c0 15.177-4.028 25.576-12.083 31.196-8.056-5.62-12.084-16.02-12.084-31.196z" fill="#1d191a"/></g><path d="M413.584 238.323c-9.287 2.238-19.064 3.316-28.798 2.592-8.197-22.369-15.557-36.883-20.012-44.748v270.577s-21.102 6.71-55.867 11.11l-.544-.059c1.881-54.795 5.722-166.47 8.277-240.705 2.055-59.755 31.084-95.29 60.099-117.44-2.676 6.78-5.072 14.606-7 23.667 7.354 11.852 24.436 42.069 43.831 94.964l.014.042zM190.717 477.795c-34.248-4.401-56.477-11.05-56.477-11.05V196.171c-4.456 7.867-11.813 22.38-20.01 44.743-9.632.716-19.308-.332-28.51-2.523.005-.033.012-.065.02-.097 19.377-52.848 36.305-83.066 43.61-94.944-1.93-9.075-4.328-16.912-7.007-23.701 29.015 22.15 58.044 57.685 60.1 117.44 2.554 74.235 6.395 185.91 8.276 240.705z" fill="#000" fill-opacity=".1"/></g></svg>