<?xml version="1.0" encoding="UTF-8"?><svg height="500" viewBox="0 0 500 500" width="500" xmlns="http://www.w3.org/2000/svg"><g fill="none" fill-rule="evenodd"><path d="M0 0h500v500H0z"/><path d="M203.006 108.993h93.643V21.885h-93.643z" fill="#d9d9d9"/><path d="M202.867 32.17h93.458V18h-93.458z" fill="#60152c"/><g fill="#f2f2f2"><path d="M87.55 75.26s-40.762 72.8-58.547 127.771c4.445 13.375 45.208 40.86 85.232 37.886 13.34-36.4 24.46-52 24.46-52S141.658 93.83 87.55 75.26M411.476 75.26s40.762 72.8 58.547 127.771c-4.445 13.375-45.208 40.86-85.232 37.886-13.34-36.4-24.46-52-24.46-52S357.368 93.83 411.476 75.26"/><path d="M249.514 57.706c-50.082 0-47.799-39.47-48.743-39.14-7.516 2.618-24.133 14.936-52.439 25.495-31.872 11.885-52.625 19.315-60.782 31.2 11.115 8.915 46.694 28.97 46.694 120.344v271.14S183.902 481.6 249.13 481.6c68.93 0 115.649-14.855 115.649-14.855v-271.14c0-91.374 35.58-111.43 46.7-120.344-8.157-11.885-28.91-19.315-60.783-31.2-28.36-10.577-44.982-22.92-52.478-25.511-.928-.318 4.177 39.156-48.703 39.156z"/><path d="M307.855 23.356c-5.05-2.83-8.71-4.79-11.074-5.237-.338-.064.27 6.538-3.246 13.805-4.255 8.799-15.427 18.524-44.023 18.524-26.367 0-37.76-9.575-42.668-18.32-4.123-7.346-4.61-14.028-5.175-13.878-2.366.625-5.84 2.496-10.495 5.106 0 0 7.368 40.293 58.402 40.293 51.479 0 58.279-35.818 58.279-40.293z"/></g><path d="M75.025 117.298c10.132-20.75 17.944-35.245 17.944-35.245 7.882-11.885 27.937-19.315 58.747-31.2 29.359-11.33 45.835-24.635 52.265-25.865-.678-4.5-.798-6.882-.804-6.97-5.927 0-22.98 14.025-54.853 25.91-31.868 11.89-52.62 19.315-60.772 31.2 0 0-8.232 14.76-18.858 35.825C49.557 149.176 36.326 179.867 29 203.027c.3 1.058 1.008 2.41 2.123 4.056s2.05 2.777 2.807 3.396c8.386-23.684 22.084-54.745 41.095-93.18zM423.965 117.322c-10.132-20.75-17.958-35.269-17.958-35.269-7.882-11.885-27.936-19.315-58.747-31.2-29.358-11.33-45.149-24.497-51.58-25.727.68-4.5.326-6.505.19-7.038 5.926 0 22.91 13.955 54.783 25.84 31.867 11.89 52.62 19.315 60.772 31.2 0 0 8.231 14.76 18.857 35.825 18.39 36.305 31.635 66.996 39.738 92.074-.491 1.317-.977 2.346-1.457 3.088-.481.741-1.276 1.804-2.385 3.188-18.428-43.992-32.498-74.652-42.213-91.98z" fill="#6c1832"/><path d="M467.461 195.302a338.826 338.826 0 0 1 2.668 7.9c-4.445 13.375-45.208 40.86-85.232 37.885a426.405 426.405 0 0 0-2.836-7.52c20.795-1.358 37.993-5.637 51.595-12.837 13.428-7.11 24.696-15.585 33.805-25.428zM31.655 195.302c9.103 9.828 20.36 18.291 33.772 25.392 13.611 7.205 30.824 11.485 51.64 12.84a426.42 426.42 0 0 0-2.835 7.516C74.208 244.025 33.445 216.54 29 203.165c.836-2.584 1.723-5.209 2.655-7.863z" fill="#6c1832"/><path d="M295.45 145.315c1.876-1.679 2.985-3.742 2.985-5.97 0-3.65-2.979-6.86-7.435-8.657 1.065-4.287 3.582-8.02 7.003-10.66.316 3.098 1.835 5.459 4.045 5.458 1.474 0 2.521-.544 3.141-1.629-1.483-2.19-1.736-4.142-.758-5.857l3.57 2.028c1.249.052 1.913.052 1.991 0 1.595-1.06 2.77-1.735 3.525-2.028.969 1.715.733 3.668-.706 5.857.542 1.086 1.632 1.628 3.27 1.629 2.459 0 3.6-2.36 3.916-5.458 3.421 2.64 5.938 6.373 7.003 10.66-4.456 1.797-7.436 5.008-7.436 8.658 0 2.227 1.11 4.29 2.987 5.969C318.22 149.938 311.21 162.538 309 168c-2.21-5.462-9.22-18.062-13.55-22.685z" fill="#000" fill-rule="nonzero"/><path d="M297 127h24l-12 38z" fill="#fff"/><path d="M298.5 128h21L309 161zm10.5 29.702L318.132 129h-18.264z" fill="#ad1520" fill-rule="nonzero"/><path d="M290.641 36.51c6.968-8.795 5.206-18.51 5.206-18.51 2.28 0 6.236 2.1 12.008 5.334 0 1.066-5.75 5.455-17.247 13.168l.033.007zm-81.002-.283l-18.465-12.893C196.94 20.1 200.897 18 203.176 18c0 0-.64 9.506 6.475 18.225l-.012.002z" fill="#6c1832"/><path d="M413.584 238.323c-9.287 2.238-19.064 3.316-28.798 2.592-8.197-22.369-15.557-36.883-20.012-44.748v270.577s-21.102 6.71-55.867 11.11l-.544-.059c1.881-54.795 5.722-166.47 8.277-240.705 2.055-59.755 31.084-95.29 60.099-117.44-2.676 6.78-5.072 14.606-7 23.667 7.354 11.852 24.436 42.069 43.831 94.964l.014.042zM190.717 477.795c-34.248-4.401-56.477-11.05-56.477-11.05V196.171c-4.456 7.867-11.813 22.38-20.01 44.743-9.632.716-19.308-.332-28.51-2.523.005-.033.012-.065.02-.097 19.377-52.848 36.305-83.066 43.61-94.944-1.93-9.075-4.328-16.912-7.007-23.701 29.015 22.15 58.044 57.685 60.1 117.44 2.554 74.235 6.395 185.91 8.276 240.705z" fill="#000" fill-opacity=".06"/></g></svg>