<?xml version="1.0" encoding="UTF-8"?><svg height="500" viewBox="0 0 500 500" width="500" xmlns="http://www.w3.org/2000/svg"><g fill="none" fill-rule="evenodd"><path d="M0 0h500v500H0z"/><path d="M203.006 109.193h93.643V21.898h-93.643z" fill="#bababa"/><path d="M202.867 32.198h93.458v-14.2h-93.458z" fill="#d9d9d9"/><path d="M202.867 32.198h93.458v-7h-93.458z" fill="#363636"/><g fill="#eeede9"><path d="M87.55 75.26s-40.762 72.8-58.547 127.77c4.445 13.375 45.208 40.86 85.232 37.885 13.34-36.4 24.46-52 24.46-52S141.658 93.83 87.55 75.26M411.476 75.26s40.762 72.8 58.547 127.77c-4.445 13.375-45.208 40.86-85.232 37.885-13.34-36.4-24.46-52-24.46-52S357.368 93.83 411.476 75.26"/><path d="M249.514 57.706c-50.082 0-47.798-39.47-48.742-39.14-7.516 2.618-24.133 14.936-52.439 25.495-31.873 11.885-52.626 19.315-60.782 31.2 11.114 8.915 46.694 28.97 46.694 120.345v271.14S183.903 481.6 249.13 481.6c68.929 0 115.648-14.855 115.648-14.855v-271.14c0-91.375 35.58-111.43 46.7-120.345-8.157-11.885-28.91-19.315-60.783-31.2-28.36-10.577-44.982-22.92-52.478-25.511-.927-.318 4.177 39.156-48.703 39.156z"/></g><path d="M249.596 195c38.395 0 76.789 3.598 115.182 10.794v260.918s-46.719 14.855-115.648 14.855c-65.227 0-114.885-14.855-114.885-14.855V205.643C173.02 198.548 211.47 195 249.595 195z" fill="#f2f2f2"/><path d="M174.404 32.4c6.756-3.393 12.314-6.526 16.77-9.028l2.137 6.63c-8.9 5.143-22.457 13.326-41.595 20.711-30.81 11.885-50.865 19.315-58.747 31.2 0 0-7.812 14.495-17.944 35.245l-6.308-6.322c10.64-21.092 18.83-35.72 18.83-35.72 8.157-11.885 28.91-19.315 60.783-31.2 10.156-3.789 18.808-7.803 26.074-11.516zM324.506 32.344c7.29 3.728 15.977 7.764 26.185 11.572 31.873 11.885 52.626 19.315 60.783 31.2s8.19 14.628 18.83 35.72l-6.308 6.322c-10.132-20.75-17.944-35.245-17.944-35.245-7.882-11.885-27.937-19.315-58.747-31.2-18.71-7.22-32.085-15.202-40.991-20.361l1.54-6.98c4.433 2.488 9.949 5.6 16.652 8.972z" fill="#3d3d3d"/><path d="M249.576 63.752c51.479 0 58.279-35.895 58.279-40.38-5.772-3.24-9.728-5.345-12.008-5.345 0 0 5.881 32.495-46.335 32.495-48.52 0-46.336-32.495-46.336-32.495-2.28 0-6.235 2.105-12.002 5.345 0 0 7.368 40.38 58.402 40.38" fill="#f2f2f2"/><g fill-rule="nonzero"><path d="M235.398 160.083c-1.602-.788-2.749-1.588-3.328-2.101-1.674-1.318-2.757-3.062-3.327-5.097-.581-2.076-.59-4.24-.265-6.268l.018-.106-2.996-2.375 2.25-1.006c.566-.254.813-.485.885-.668.053-.137-.33-.94-.358-.972l-1.784-1.992 2.622-.479c1.476-.269 2.173-.906 2.454-1.876.174-.6.008-2.197-.019-2.296-.358-1.463-.92-2.895-1.63-4.265a21.765 21.765 0 0 0-1.433-2.384c-.191-.276-.653-.86-1.386-1.752l2.9-3.777.938.232c2.961.733 5.379.312 7.311-.819a7.307 7.307 0 0 0 1.106-.786c.168-.147.27-.25.3-.285l.444-.511h4.556c.7.467 1.166.744 1.398.83 1.045.391 2.403.635 4.109.643 1.505.007 2.858-.24 4.033-.653.448-.157 1.008-.43 1.68-.82h4.406c.944.882 1.56 1.407 1.849 1.575 1.928 1.122 4.345 1.542 7.31.825l.938-.228 2.9 3.805c-.761.878-1.238 1.453-1.431 1.724a19.5 19.5 0 0 0-1.457 2.408 19.614 19.614 0 0 0-1.62 4.337l-.03.102c-.008.028-.033.121-.06.265-.119.625-.114 1.294.08 1.874.298.882 1.014 1.514 2.473 1.845l3.156.716c-1.775 1.334-2.684 2.03-2.727 2.086-.283.371-.24.595 1.034 1.392l1.803 1.127-2.746 2.167.025.163c.284 1.884.306 3.878-.111 5.787-.514 2.348-1.652 4.293-3.539 5.618-.65.566-1.766 1.342-3.3 2.109a19.74 19.74 0 0 1-8.213 2.095l-6.467 3.208-6.595-3.344a20.084 20.084 0 0 1-8.156-2.073z" fill="#000"/><path d="M243.732 160.83c-6.78-.142-11.053-3.883-11.053-3.883-4.817-3.769-2.879-10.94-2.879-10.94l-1.8-1.418c3.329-1.48 1.038-4.021 1.038-4.021 5.144-.934 3.648-6.024 3.648-6.024-1.16-4.707-4.024-8.114-4.024-8.114l1.593-2.063c6.77 1.665 10.292-2.367 10.292-2.367h3.375s1.74 1.459 6.101 1.479c3.865.017 6.215-1.479 6.215-1.479h3.334s3.502 3.999 10.282 2.367l1.581 2.063s-2.847 3.2-4.067 8.218c0 0-1.526 4.76 3.616 5.92 0 0-2.486 1.846 1.016 4.021l-1.808 1.418s1.933 7.722-2.937 11.043c0 0-4.294 3.806-11.074 3.914L250.023 164z" fill="#f3f3f3"/><path d="M229.716 143c-.184.56-.676 1.126-1.716 1.59l1.8 1.417s-1.938 7.171 2.88 10.94c0 0 4.273 3.74 11.052 3.883l6.271 3.16v-40.511h.02c3.865.017 6.215-1.479 6.215-1.479h3.334s3.502 3.999 10.282 2.367l1.581 2.063s-2.847 3.2-4.067 8.218c0 0-1.526 4.76 3.616 5.92 0 0-1.371 1.017-.643 2.432z" fill="#818181"/></g><path d="M413.584 238.323c-9.287 2.238-19.064 3.316-28.798 2.592-8.197-22.369-15.557-36.883-20.012-44.748v270.577s-21.102 6.71-55.867 11.11l-.544-.059c1.881-54.795 5.722-166.47 8.277-240.705 2.055-59.755 31.084-95.29 60.099-117.44-2.676 6.78-5.072 14.606-7 23.667 7.354 11.852 24.436 42.069 43.831 94.964l.014.042zM190.717 477.795c-34.248-4.401-56.477-11.05-56.477-11.05V196.171c-4.456 7.867-11.813 22.38-20.01 44.743-9.632.716-19.308-.332-28.51-2.523.005-.033.012-.065.02-.097 19.377-52.848 36.305-83.066 43.61-94.944-1.93-9.075-4.328-16.912-7.007-23.701 29.015 22.15 58.044 57.685 60.1 117.44 2.554 74.235 6.395 185.91 8.276 240.705z" fill="#000" fill-opacity=".06"/></g></svg>