<?xml version="1.0" encoding="UTF-8"?><svg width="500" height="500" viewBox="0 0 500 500" fill="none" xmlns="http://www.w3.org/2000/svg"><path fill-rule="evenodd" clip-rule="evenodd" d="M203.004 109.223h93.643V21.928h-93.643v87.295z" fill="#0F725A"/><path fill-rule="evenodd" clip-rule="evenodd" d="M202.863 32.2281h93.459v-14.2h-93.459v14.2z" fill="#E3E3E3"/><path fill-rule="evenodd" clip-rule="evenodd" d="M87.5475 75.2585S46.7848 148.059 29 203.029c4.4449 13.375 45.2077 40.86 85.232 37.885 13.34-36.4 24.46-52 24.46-52s2.963-95.0855-51.1445-113.6555zm323.9265 0s40.763 72.8005 58.547 127.7705c-4.444 13.375-45.207 40.86-85.232 37.885-13.339-36.4-24.459-52-24.459-52s-2.964-95.0855 51.144-113.6555z" fill="#148368"/><path fill-rule="evenodd" clip-rule="evenodd" d="M249.51 57.7025c-50.081 0-47.798-39.4691-48.742-39.14-7.516 2.6187-24.133 14.9368-52.439 25.495-31.873 11.885-52.6256 19.315-60.7821 31.2 11.1148 8.915 46.6941 28.9695 46.6941 120.3445v271.14s49.658 14.856 114.885 14.856c68.929 0 115.649-14.856 115.649-14.856v-271.14c0-91.375 35.579-111.4295 46.699-120.3445-8.157-11.885-28.91-19.315-60.782-31.2-28.36-10.5767-44.982-22.9195-52.479-25.5087-.927-.3203 4.178 39.1537-48.703 39.1537z" fill="#148368"/><path fill-rule="evenodd" clip-rule="evenodd" d="M307.853 23.345c-5.772-3.24-9.728-5.345-12.008-5.345 0 0 5.882 32.495-46.335 32.495-48.52 0-46.335-32.495-46.335-32.495-2.28 0-6.236 2.105-12.003 5.345 0 0 7.368 40.38 58.403 40.38 51.478 0 58.278-35.895 58.278-40.38z" fill="#F2F2F2"/><path fill-rule="evenodd" clip-rule="evenodd" d="M413.583 238.323c-9.288 2.238-19.065 3.316-28.798 2.592-8.198-22.369-15.557-36.883-20.013-44.748v270.577s-21.102 6.71-55.866 11.111l-.544-.06c1.881-54.795 5.722-166.47 8.276-240.705 2.056-59.755 31.085-95.29 60.099-117.44-2.675 6.781-5.071 14.606-6.999 23.667 7.354 11.852 24.436 42.069 43.831 94.964.005.014.01.028.014.042zM190.715 477.795c-34.247-4.401-56.476-11.051-56.476-11.051V196.172c-4.456 7.867-11.814 22.379-20.01 44.743-9.633.716-19.3084-.332-28.5102-2.524.005-.032.0117-.064.0198-.096 19.3774-52.848 36.3054-83.066 43.6094-94.944-1.928-9.075-4.327-16.912-7.006-23.701 29.014 22.15 58.044 57.685 60.099 117.44 2.554 74.235 6.396 185.91 8.276 240.705h-.002z" fill="#000" fill-opacity=".06"/><path fill-rule="evenodd" clip-rule="evenodd" d="M309 167c12.703 0 23-10.297 23-23s-10.297-23-23-23-23 10.297-23 23 10.297 23 23 23z" fill="#F2F2F2"/><path fill-rule="evenodd" clip-rule="evenodd" d="M309 165c11.598 0 21-9.402 21-21s-9.402-21-21-21-21 9.402-21 21 9.402 21 21 21z" fill="#15704F"/><path fill-rule="evenodd" clip-rule="evenodd" d="M309 159c8.284 0 15-6.716 15-15 0-8.284-6.716-15-15-15-8.284 0-15 6.716-15 15 0 8.284 6.716 15 15 15z" fill="#F2F2F2"/><path d="M306.408 141.531c.332.356.578.619.67.768.018.236.035.449.054.641-.105-.009-.216-.018-.333-.026-.149-.092-.412-.339-.768-.67-.997-.932-2.716-2.537-4.621-3.278-1.313-.51-2.604.009-2.779 1.312-.315 2.343-.001 2.812.296 3.255.193.289.378.566.378 1.342 0 .805-.166 1.076-.341 1.36-.253.41-.522.847-.333 2.957.13 1.458 1.769 2.1 3.171 1.458 1.349-.617 2.723-2.086 3.75-3.185.521-.557.953-1.019 1.247-1.225.076 0 .152.001.228.001.173.002.343.003.506-.003.328.522 1.334 2.428.197 4.661-1.338 2.626-3.076 4.165-3.076 4.165h3.859s1.868-5.806 1.51-8.868c.286.05.613.048.95.045.075 0 .152-.001.228-.001.294.206.726.668 1.247 1.225 1.027 1.099 2.401 2.568 3.75 3.185 1.402.642 3.041 0 3.171-1.458.189-2.11-.08-2.547-.333-2.957-.175-.284-.341-.555-.341-1.36 0-.776.185-1.053.378-1.342.297-.443.611-.912.296-3.255-.175-1.303-1.466-1.822-2.779-1.312-1.905.741-3.624 2.346-4.621 3.278-.356.331-.619.578-.768.67-.302.023-.566.043-.797.072.004-.149.003-.303.002-.459-.001-.075-.002-.152-.002-.228.207-.294.668-.726 1.226-1.247 1.098-1.027 2.567-2.401 3.185-3.75.641-1.402-.001-3.041-1.459-3.171-2.109-.189-2.547.08-2.957.333-.284.175-.554.341-1.36.341-.776 0-1.053-.185-1.341-.378-.444-.297-.913-.611-3.256-.296-1.303.175-1.821 1.466-1.311 2.779.741 1.905 2.345 3.624 3.277 4.621z" fill="#15704F"/><path fill-rule="evenodd" clip-rule="evenodd" d="M314 118.5l-1.763.927.336-1.963-1.426-1.391 1.971-.287L314 114l.882 1.786 1.971.287-1.426 1.391.336 1.963L314 118.5zm-10 0l-1.763.927.336-1.963-1.426-1.391 1.971-.287L304 114l.882 1.786 1.971.287-1.426 1.391.336 1.963L304 118.5z" fill="#E6CB6E"/></svg>