<?xml version="1.0" encoding="UTF-8"?><svg width="500" height="500" viewBox="0 0 500 500" xmlns="http://www.w3.org/2000/svg"><g fill="none" fill-rule="evenodd"><path d="M0 0h500v500H0z"/><path fill="#D9D9D9" d="M203.0033 109.223h93.6432V21.928h-93.6432z"/><path fill="#0E2D57" d="M202.8636 32.228h93.4586v-14.2h-93.4586z"/><path d="M87.5475 75.2585s-40.7627 72.8-58.5475 127.77c4.445 13.375 45.2077 40.86 85.2322 37.885 13.3398-36.4 24.4596-52 24.4596-52s2.9633-95.085-51.1443-113.655m323.9252 0s40.7628 72.8 58.5475 127.77c-4.445 13.375-45.2077 40.86-85.2321 37.885-13.3399-36.4-24.4597-52-24.4597-52s-2.9633-95.085 51.1443-113.655" fill="#133A6F"/><path d="M249.5111 57.7025c-50.0817 0-47.7981-39.469-48.7426-39.14-7.5158 2.6187-24.1326 14.9368-52.4385 25.495-31.8729 11.885-52.626 19.315-60.7825 31.2 11.1149 8.915 46.6944 28.97 46.6944 120.345v271.14s49.6576 14.855 114.885 14.855c68.9291 0 115.6484-14.855 115.6484-14.855v-271.14c0-91.375 35.5795-111.43 46.6994-120.345-8.1566-11.885-28.9096-19.315-60.7825-31.2-28.3599-10.5767-44.9818-22.9194-52.478-25.5106-.9273-.3184 4.1773 39.1556-48.703 39.1556z" fill="#133A6F"/><path d="M206.1622 37.044c5.5898 10.1342 17.4878 20.6585 43.349 20.6585 27.1056 0 38.9761-10.3715 44.2331-20.4391l-.011-.0028c45.26 11.3356 71.506 39.3368 71.506 67.9813v72.909l-.0927 1.7614-.0328.688-.0318.741a218.1362 218.1362 0 00-.0827 1.9907l-.029.8631c-.1106 3.1472-.1748 6.39-.191 9.7295l-.004 1.6779-.0003 271.1105-.6635.2042c-5.9248 1.7856-50.8361 14.6503-114.9815 14.6503-65.2275 0-114.8851-14.855-114.8851-14.855v-271.14c0-6.2616-.167-12.1883-.482-17.7995v-72.531c0-28.5477 26.069-56.4564 71.0478-67.8615l1.3515-.3364z" fill="#D24040"/><path d="M206.5952 37.8077c4.4764 7.684 12.6806 15.4346 27.9368 18.512l-.0005 425.003c-9.8-.3265-19.1559-.9611-27.937-1.7901l.0007-441.7249zm86.8036.1002l.0011 441.6146a478.6966 478.6966 0 01-27.9371 1.7673l-.0008-425.0151c15.6759-3.0936 23.7476-10.752 27.9368-18.3668zm58.8683 33.2376l.0008 398.91-2.127.5018c-6.6147 1.5371-15.3215 3.3434-25.8105 5.0434l-.0007-426.789c11.7136 6.2432 21.1151 13.8851 27.9374 22.3338zM175.665 48.2908l-.002 427.2911-1.79-.2925c-10.6429-1.7605-19.5149-3.6093-26.1472-5.1377l.0006-400.2062c6.9293-8.2072 16.3262-15.6115 27.9386-21.6547zM467.3529 195.129c.9359 2.6665 1.8272 5.303 2.6673 7.8995-4.445 13.375-45.2077 40.86-85.2321 37.885a426.4238 426.4238 0 00-2.8354-7.5198c20.795-1.3576 37.9932-5.6366 51.5944-12.8371 13.4282-7.109 24.6968-15.5848 33.8058-25.4277zm-435.6982.036c9.1031 9.8275 20.3606 18.2914 33.7724 25.3916 13.611 7.2056 30.824 11.4856 51.6393 12.84a426.4196 426.4196 0 00-2.8342 7.5169c-40.0245 2.975-80.7873-24.51-85.2322-37.885.8363-2.5849 1.7234-5.2092 2.6547-7.8635z" fill="#F2F2F2"/><path d="M307.8516 23.345c-5.772-3.24-9.728-5.345-12.0078-5.345 0 0 5.8817 32.495-46.3352 32.495-48.5202 0-46.3352-32.495-46.3352-32.495-2.2798 0-6.2358 2.105-12.0028 5.345 0 0 7.3683 40.38 58.4029 40.38 51.4785 0 58.2781-35.895 58.2781-40.38z" fill="#133A6F"/><path d="M413.5843 238.3227c-9.2877 2.2382-19.0646 3.3161-28.7978 2.5926-8.1978-22.369-15.5572-36.883-20.0128-44.7484v270.5774s-21.1022 6.7098-55.8664 11.1104c-.1817-.0197-.363-.0396-.544-.0597 1.8808-54.795 5.7221-166.47 8.2763-240.705 2.0554-59.755 31.0847-95.29 60.099-117.44-2.6753 6.7806-5.0714 14.6063-6.9991 23.6673 7.354 11.8514 24.4358 42.0687 43.8307 94.964.005.014.0097.0277.014.0414zM190.7166 477.7953c-34.2478-4.4014-56.4763-11.051-56.4763-11.051V196.1721c-4.4558 7.8668-11.8138 22.3792-20.0097 44.7432-9.633.716-19.3087-.3323-28.5106-2.5238a1.113 1.113 0 01.0199-.0967c19.3773-52.8475 36.3054-83.0661 43.6098-94.9437-1.929-9.0753-4.3277-16.912-7.0064-23.7011 29.0144 22.15 58.0437 57.685 60.099 117.44 2.5543 74.235 6.3956 185.91 8.2763 240.7053h-.002z" fill-opacity=".1" fill="#000"/><g transform="translate(285 119)"><circle fill="#F2F2F2" cx="24.2" cy="24.2" r="24.2"/><circle fill="#42577C" cx="24.2" cy="45.1" r="1.1"/><circle fill="#42577C" cx="29.7" cy="44" r="1.1"/><circle fill="#42577C" cx="35.2" cy="41.8" r="1.1"/><circle fill="#42577C" cx="39.6" cy="37.4" r="1.1"/><circle fill="#42577C" cx="42.9" cy="31.9" r="1.1"/><circle fill="#42577C" cx="44" cy="26.4" r="1.1"/><circle fill="#42577C" cx="18.7" cy="44" r="1.1"/><circle fill="#42577C" cx="13.2" cy="41.8" r="1.1"/><circle fill="#42577C" cx="8.8" cy="37.4" r="1.1"/><circle fill="#42577C" cx="5.5" cy="31.9" r="1.1"/><circle fill="#42577C" cx="4.4" cy="26.4" r="1.1"/><circle fill="#42577C" cx="24.2" cy="24.2" r="16.5"/><circle fill="#FFF" cx="24.2" cy="24.2" r="11"/><path d="M24.2 13.2v22l-.3079-.0042C17.9593 35.0328 13.2 30.1722 13.2 24.2c0-5.9722 4.7593-10.8327 10.6921-10.9958L24.2 13.2z" fill="#C42216"/><path d="M21.0038 5.2424c1.3974.1717 2.4628.2576 3.1962.2576s1.7988-.0859 3.1962-.2576c1.8089-.2223 3.4555 1.064 3.6778 2.8729a3.3 3.3 0 01-.2113 1.628L28.6 15.4h-8.8l-2.2627-5.6566c-.6768-1.6922.1462-3.6127 1.8384-4.2896a3.3 3.3 0 011.6281-.2114z" fill="#EDB904"/><rect fill="#D0D0D0" x="22" y="3.3" width="4.4" height="6.6" rx="1.1"/><path fill="#EDB904" d="M19.8 8.8h8.8v7.7l-4.4 3.3-4.4-3.3z"/><path fill="#42577C" d="M20.9 9.9h6.6v5.8068l-3.3 2.64-3.3-2.64z"/><circle fill="#00903B" cx="24.2" cy="12.1" r="1.1"/></g></g></svg>