<svg xmlns="http://www.w3.org/2000/svg" width="501" height="501" fill="none"><path fill="#222" fill-rule="evenodd" d="M203.17 109.95h93.64v-87.3h-93.64v87.3Z" clip-rule="evenodd"/><path fill="#B20301" fill-rule="evenodd" d="M203.03 32.95h93.46v-14.2h-93.46v14.2Z" clip-rule="evenodd"/><path fill="#FE1C19" fill-rule="evenodd" d="M87.71 76.01s-40.76 72.8-58.54 127.77c4.44 13.38 45.2 40.87 85.23 37.89 13.34-36.4 24.46-52 24.46-52s2.96-95.09-51.15-113.66Zm323.93 0s40.76 72.8 58.55 127.77c-4.45 13.38-45.21 40.87-85.24 37.89-13.34-36.4-24.46-52-24.46-52s-2.96-95.09 51.15-113.66Z" clip-rule="evenodd"/><path fill="#2C2C2C" fill-rule="evenodd" d="M249.68 58.46c-50.09 0-47.8-39.47-48.75-39.14-7.51 2.62-24.13 14.94-52.44 25.5-31.87 11.88-52.62 19.31-60.78 31.2 11.12 8.91 46.7 28.97 46.7 120.34V467.5s49.66 14.86 114.88 14.86c68.93 0 115.65-14.86 115.65-14.86V196.36c0-91.38 35.58-111.43 46.7-120.34-8.16-11.89-28.91-19.32-60.78-31.2-28.36-10.58-44.98-22.92-52.48-25.51-.93-.32 4.18 39.15-48.7 39.15Z" clip-rule="evenodd"/><path fill="#2C2C2C" fill-rule="evenodd" d="M205.95 37.07c3.63 6.92 10.14 14.15 21.98 18.17-28.35 3.28-52.35 12.29-71.18 23.23l-.75.44v28c-12.36 7.27-22.46 15.35-30.08 23.17-3.98-12.94-8.98-22.73-14.11-30.26A50.87 50.87 0 0 1 121.6 84a139.1 139.1 0 0 1 3.31-3.29c7.7-6.96 17.11-11.3 26.96-15.1 29.36-11.33 45.83-24.64 52.26-25.87-.11-.78-.22-1.5-.3-2.16l.46-.12 1.02-.24.63-.15Zm88.33.18 1.84.45a42.9 42.9 0 0 1-.28 2.18c6.43 1.23 22.23 14.4 51.58 25.73 17.3 6.67 35.87 21.63 40.22 34.29l-.05-.14-.17.25c-5.08 7.48-10.03 17.2-13.98 30-8.06-8.27-18.9-16.84-32.26-24.41v-28l-.69-.4c-18.34-10.28-41.34-18.67-68.3-21.89 12.26-3.96 18.7-11.14 22.1-18.06Z" clip-rule="evenodd"/><path fill="#FE1C19" fill-rule="evenodd" d="M170.9 475.55c-5.45-1-10.39-2-14.74-2.96V41.8c15.48-6.39 26.94-13.02 34.92-17.5v454.27c-7.3-.93-14.06-1.97-20.17-3.02Zm96.72-425.88V482a471.85 471.85 0 0 1-34.93.04V49.64a82.15 82.15 0 0 0 16.98 1.61c6.97 0 12.9-.58 17.95-1.58Zm76.46-7.5v430.56a423.96 423.96 0 0 1-34.92 5.87V24.8c8.1 4.56 19.57 11.1 34.92 17.37Z" clip-rule="evenodd"/><path fill="#2C2C2C" fill-rule="evenodd" d="M113.98 95.19c7.06 8.94 12.13 19.73 15.76 30.79l-51.2 111.15c-9.34-2.9-18-6.86-25.39-11.19L113.99 95.2Zm271.47 0 60.84 130.75a123.16 123.16 0 0 1-25.38 11.19l-51.2-111.2c3.64-11.04 8.7-21.81 15.74-30.74Z" clip-rule="evenodd"/><path fill="#2C2C2C" fill-rule="evenodd" d="M467.62 196.06c.94 2.66 1.83 5.3 2.67 7.9-4.44 13.37-45.2 40.86-85.23 37.88a434.6 434.6 0 0 0-2.84-7.52c20.8-1.36 38-5.63 51.6-12.84 13.43-7.1 24.7-15.58 33.8-25.42Zm-435.8 0c9.1 9.82 20.36 18.29 33.77 25.39 13.61 7.2 30.82 11.48 51.64 12.84-.93 2.4-1.88 4.9-2.84 7.52-40.02 2.97-80.78-24.52-85.23-37.89.84-2.58 1.73-5.2 2.66-7.86Z" clip-rule="evenodd"/><path fill="#FE1C19" fill-rule="evenodd" d="M249.74 64.5c51.48 0 58.28-35.89 58.28-40.37-5.77-3.24-9.73-5.35-12.01-5.35 0 0 5.88 32.5-46.34 32.5-48.52 0-46.33-32.5-46.33-32.5-2.28 0-6.24 2.1-12 5.35 0 0 7.36 40.38 58.4 40.38Z" clip-rule="evenodd"/><path fill="#000" fill-opacity=".1" fill-rule="evenodd" d="M413.75 239.08a93.8 93.8 0 0 1-28.8 2.6c-8.2-22.38-15.56-36.9-20.01-44.76V467.5s-21.1 6.7-55.87 11.11l-.54-.06 8.27-240.7c2.06-59.76 31.09-95.3 60.1-117.44a148.7 148.7 0 0 0-7 23.66c7.36 11.85 24.44 42.07 43.83 94.97l.02.04ZM190.88 478.55c-34.25-4.4-56.48-11.05-56.48-11.05V196.93c-4.45 7.86-11.81 22.38-20 44.74a93.57 93.57 0 0 1-28.52-2.52l.02-.1c19.38-52.85 36.3-83.07 43.61-94.94a148.63 148.63 0 0 0-7-23.7c29.01 22.15 58.04 57.68 60.1 117.44 2.55 74.23 6.4 185.9 8.27 240.7Z" clip-rule="evenodd"/><path fill="#282828" fill-rule="evenodd" d="M308.74 167.42a24 24 0 1 0 0-48 24 24 0 0 0 0 48Z" clip-rule="evenodd"/><path fill="#fff" fill-rule="evenodd" d="M308.74 165.55a22.13 22.13 0 1 0 0-44.26 22.13 22.13 0 0 0 0 44.26Z" clip-rule="evenodd"/><path fill="#FE1C19" fill-rule="evenodd" d="M308.74 161.42a18 18 0 1 0 0-36 18 18 0 0 0 0 36Z" clip-rule="evenodd"/><path fill="#2C2C2C" d="M294.74 132.1c-2.5 3.1-4 7.03-4 11.32s1.5 8.22 4 11.32V132.1Zm8 28.3a17.97 17.97 0 0 1-4-2.01v-29.94c1.23-.82 2.58-1.5 4-2v33.95Zm8 .91a18.09 18.09 0 0 1-4 0v-35.78a18.1 18.1 0 0 1 4 0v35.78Zm8-2.92a17.6 17.6 0 0 1-4 2v-33.94c1.42.5 2.77 1.18 4 2v29.94Zm8-14.97c0 4.29-1.5 8.22-4 11.32V132.1c2.5 3.09 4 7.02 4 11.31Z"/><path fill="#fff" fill-rule="evenodd" d="M302.37 156.63a6.37 6.37 0 1 0 0-12.74 6.37 6.37 0 0 0 0 12.75Z" clip-rule="evenodd"/></svg>