<?xml version="1.0" encoding="UTF-8"?><svg height="500" viewBox="0 0 500 500" width="500" xmlns="http://www.w3.org/2000/svg"><g fill="none" fill-rule="evenodd"><path d="M0 0h500v500H0z"/><path d="M203.006 109.193h93.643V21.898h-93.643z" fill="#d0001e"/><path d="M202.867 32.198h93.458v-14.2h-93.458z" fill="#e3e3e3"/><g fill="#e80022"><path d="M87.55 75.26s-40.762 72.8-58.547 127.77c4.445 13.375 45.208 40.86 85.232 37.885 13.34-36.4 24.46-52 24.46-52S141.658 93.83 87.55 75.26M411.476 75.26s40.762 72.8 58.547 127.77c-4.445 13.375-45.208 40.86-85.232 37.885-13.34-36.4-24.46-52-24.46-52S357.368 93.83 411.476 75.26"/><path d="M249.514 57.706c-50.082 0-47.799-39.47-48.743-39.14-7.516 2.618-24.133 14.936-52.439 25.495-31.872 11.885-52.625 19.315-60.782 31.2 11.115 8.915 46.694 28.97 46.694 120.345v271.14S183.902 481.6 249.13 481.6c68.93 0 115.649-14.855 115.649-14.855v-271.14c0-91.375 35.58-111.43 46.7-120.345-8.157-11.885-28.91-19.315-60.783-31.2-28.36-10.577-44.982-22.92-52.478-25.511-.928-.318 4.177 39.156-48.703 39.156z"/></g><path d="M253.489 57.595L134.245 234.781v-39.209c0-14.882-.944-27.872-2.572-39.23l77.345-114.929c6.48 8.566 18.385 16.26 40.496 16.26 1.363 0 2.688-.027 3.975-.078zm61.689-30.118c8.817 4.876 20.527 10.96 35.517 16.55 2.382.889 4.702 1.752 6.96 2.594L134.245 378.59v-82.262zm75.061 32.274c10.056 4.787 17.195 9.585 21.239 15.477-10.425 8.357-42.344 26.504-46.297 104.018L166.777 474.058c-20.299-3.686-32.532-7.345-32.532-7.345v-26.576L390.239 59.75zm-25.46 181.64v82.262L258.566 481.475c-3.097.06-6.243.092-9.437.092-15.923 0-30.919-.885-44.49-2.223zm0 143.81v81.511s-23.968 7.621-62.896 11.946zm-246.35-274.488C107.45 88.57 93.725 80.18 87.551 75.227c8.156-11.885 28.91-19.315 60.782-31.2a242.422 242.422 0 0 0 21.037-9.008l-50.94 75.694z" fill="#f2f2f2"/><path d="M191.152 23.27l2.18 6.72c-8.9 5.142-22.462 13.33-41.613 20.721-30.81 11.885-50.865 19.315-58.747 31.2 0 0-7.812 14.495-17.944 35.245l-6.307-6.322c10.64-21.092 18.83-35.72 18.83-35.72l.002.001c8.154-11.886 28.907-19.316 60.78-31.201 19.581-7.304 33.569-15.45 42.819-20.645zM307.867 23.265c9.25 5.194 23.24 13.343 42.827 20.649 31.873 11.885 52.626 19.315 60.78 31.201h.003s8.19 14.627 18.83 35.719l-6.308 6.322c-10.132-20.75-17.944-35.245-17.944-35.245-7.882-11.885-27.937-19.315-58.747-31.2-18.68-7.209-32.042-15.176-40.947-20.336z" fill="#e80022"/><path d="M249.576 63.752c51.479 0 58.279-35.895 58.279-40.38-5.772-3.24-9.728-5.345-12.008-5.345 0 0 5.881 32.495-46.335 32.495-48.52 0-46.336-32.495-46.336-32.495-2.28 0-6.235 2.105-12.002 5.345 0 0 7.368 40.38 58.402 40.38" fill="#f2f2f2"/><g transform="translate(286.5 110.5)"><path d="M22.5 54.5c12.155 0 22-9.854 22-22s-9.845-22-22-22-22 9.854-22 22 9.845 22 22 22zm.5-4C12.787 50.5 4.5 42.222 4.5 32S12.787 13.5 23 13.5 41.5 21.778 41.5 32 33.213 50.5 23 50.5z" fill="#f2f2f2" fill-rule="nonzero"/><circle cx="22.5" cy="32.295" fill="#e30b00" r="20"/><ellipse cx="22.5" cy="32.295" fill="#fff" rx="13" ry="14"/><circle cx="22.5" cy="32.295" fill="#e30b00" r="12"/><path d="M21.628 1.738V.5h1.723l.047 1.238h.52l-.006 1.954h-.754c-.016.884.453 1.323 1.516 1.449.913.107 1.295-.23 1.434-.898a17.872 17.872 0 0 1-.31-.154l-.351-.178.44-1.888.595.226.482-1.221 1.615.908-.423 1.057.48.247-.796 1.666-.44-.186a10.845 10.845 0 0 0-.081-.034c-.087.226-.115.423-.076.59.051.216.224.412.6.59.763.365 1.033.359 1.153.24.018-.016.103-.118.107-.122.166-.185.322-.518.322-.797 0 .09-.023.043-.035.024-.146-.245-.175-.305-.175-.487 0-.32.375-1 .717-1.25.19-.14.354-.169.647-.18h.026c.1-.004.136-.007.14-.009.203-.068.566-.18 1.092-.336l1.356-.402-4.946 7.183-.373-.153c-1.84-.757-3.857-1.242-5.417-1.242-1.767 0-3.498.4-5.175 1.228l-.384.19-5.196-7.378 1.488.534c.742.267 1.284.407 1.603.424l.218.011.14.168c.296.355.631.919.631 1.19 0 .165-.022.217-.158.488-.022.045-.052.115-.052.041 0 .308.05.432.164.551.023.024.12.117.137.133l.07.075c.07.08.08.088.164.098.219.025.61-.06 1.205-.306.562-.232.717-.538.469-1.106l-.516.214-.946-1.644.568-.274-.423-1.24 1.686-.688.472 1.285.536-.091.49 1.777-.681.217c.13.708.574.893 1.53.664.968-.232 1.37-.601 1.337-1.204h-.663l-.119-1.954zm.141 1.588l.482.366h-.417a1.728 1.728 0 0 0-.065-.366zm-4.188.972l.62.204-.42.174a3.306 3.306 0 0 0-.2-.378zM22.628 1.5h-.24l-.01-.25.114-.114.136.132zm.287 1.192h.498l-.045.046h-.453zm-2.184 3.176c-.808.194-1.466.135-1.941-.16-.163.422-.529.764-1.096.998-.605.25-1.071.375-1.445.389l.977 1.387a12.505 12.505 0 0 1 5.23-1.147c1.599 0 3.576.451 5.422 1.167l.921-1.337c-.375-.003-.831-.13-1.387-.395-.546-.26-.905-.616-1.074-1.047-.437.348-1.034.499-1.78.41-1.036-.121-1.753-.536-2.118-1.204-.351.434-.928.752-1.71.94zm6.584-2.183l-.129-.066-.033.366c0 .016-.002.031-.004.047zm-.213-.11l-.155-.08-.346-.13-.001.004c.101.048.182.084.24.108l.245.097.017.002zm-.868-.35l.015-.029c.111.057.21.106.296.147zm1.09-.847l.151-.376.021-.007.076.216-.099.25zm-.01 1.307l.029-.058.009.003c.089.029.203.072.345.13l.048.142-.001.004zm3.467.601a4.303 4.303 0 0 1-.142.007h-.024c-.092.004-.12.01-.093-.011-.094.069-.307.456-.307.442 0-.09.023-.044.035-.024.049.083.085.144.111.197zm-16.051.457c.022-.044.052-.115.052-.041 0 .04-.15-.202-.284-.395a4.2 4.2 0 0 1-.242-.041l.417.592.057-.115zm3.371-1.31l.008.022.023-.007.083-.035zm.019.054l-.203.098-.002-.047.194-.08zm-.398.192l-.323.156-.111-.037.405-.168zm-.153-1.318l-.106-.287.063-.139.075.033.114.334zm.86.993l.357-.114.061.039-.015.03-.398.067zm3.686-.616h-.426l-.048-.046h.471z" fill="#000" fill-rule="nonzero"/><path d="M22.87 1l.047 1.238h.5l-.004.954h-.71c-.225 1.454.413 2.269 1.913 2.445 1.784.21 1.995-1.191 2.04-1.696a8.919 8.919 0 0 1-.633-.298l.221-.95.522.2.453-1.148.733.412-.43 1.073.454.233-.382.797c-.347-.147-.528-.205-.543-.176-.206.393-.853 1.553.576 2.234s1.688.177 1.847 0c.16-.176.451-.629.451-1.131 0-.11-.21-.353-.21-.463 0-.11.256-.658.513-.846.173-.127.477-.053.676-.119a35.81 35.81 0 0 1 1.075-.33l-3.915 5.685c-1.692-.696-3.83-1.279-5.607-1.279-1.768 0-3.584.384-5.397 1.28L13.02 3.38c.785.282 1.367.432 1.747.452.216.26.515.76.515.87s-.21.419-.21.53c0 .739.318.885.493 1.086s.47.534 1.938-.074c.98-.404 1.148-1.14.506-2.204l-.53.22-.458-.797.482-.233-.414-1.213.77-.314.438 1.19.5-.086.24.877-.608.194c.053 1.34.782 1.84 2.185 1.504s1.95-1.066 1.637-2.19h-.61l-.057-.954h.544V1z" fill="#fe0"/></g><path d="M413.584 238.323c-9.287 2.238-19.064 3.316-28.798 2.592-8.197-22.369-15.557-36.883-20.012-44.748v270.577s-21.102 6.71-55.867 11.11l-.544-.059c1.881-54.795 5.722-166.47 8.277-240.705 2.055-59.755 31.084-95.29 60.099-117.44-2.676 6.78-5.072 14.606-7 23.667 7.354 11.852 24.436 42.069 43.831 94.964l.014.042zM190.717 477.795c-34.248-4.401-56.477-11.05-56.477-11.05V196.171c-4.456 7.867-11.813 22.38-20.01 44.743-9.632.716-19.308-.332-28.51-2.523.005-.033.012-.065.02-.097 19.377-52.848 36.305-83.066 43.61-94.944-1.93-9.075-4.328-16.912-7.007-23.701 29.015 22.15 58.044 57.685 60.1 117.44 2.554 74.235 6.395 185.91 8.276 240.705z" fill="#000" fill-opacity=".1"/></g></svg>