<?xml version="1.0" encoding="utf-8"?><svg width="500" height="500" viewBox="0 0 500 500" fill="none" xmlns="http://www.w3.org/2000/svg"><path fill-rule="evenodd" clip-rule="evenodd" d="M203.003 109.223h93.644V21.928h-93.644v87.295z" fill="#D9D9D9"/><path fill-rule="evenodd" clip-rule="evenodd" d="M202.864 32.228h93.458v-14.2h-93.458v14.2z" fill="#E3E3E3"/><path fill-rule="evenodd" clip-rule="evenodd" d="M87.5475 75.2585S46.7848 148.058 29 203.028c4.4449 13.375 45.2077 40.86 85.232 37.885 13.34-36.4 24.46-52 24.46-52s2.963-95.0845-51.1445-113.6545zm323.9245 0s40.763 72.7995 58.548 127.7695c-4.445 13.375-45.208 40.86-85.232 37.885-13.34-36.4-24.46-52-24.46-52s-2.963-95.0845 51.144-113.6545z" fill="#D13A3A"/><path fill-rule="evenodd" clip-rule="evenodd" d="M249.511 57.7025c-50.082 0-47.798-39.4691-48.743-39.14-7.516 2.6187-24.132 14.9368-52.438 25.495-31.873 11.885-52.6261 19.315-60.7826 31.2 11.1148 8.915 46.6946 28.9695 46.6946 120.3445v271.14s49.657 14.856 114.885 14.856c68.929 0 115.648-14.856 115.648-14.856v-271.14c0-91.375 35.58-111.4295 46.699-120.3445-8.156-11.885-28.909-19.315-60.782-31.2-28.36-10.5767-44.982-22.9195-52.478-25.5087-.927-.3203 4.177 39.1537-48.703 39.1537z" fill="#D13A3A"/><path fill-rule="evenodd" clip-rule="evenodd" d="M307.851 23.345c-5.772-3.24-9.728-5.345-12.007-5.345 0 0 5.881 32.495-46.336 32.495-48.52 0-46.335-32.495-46.335-32.495-2.28 0-6.236 2.105-12.003 5.345 0 0 7.369 40.38 58.403 40.38 51.479 0 58.278-35.895 58.278-40.38z" fill="#F2F2F2"/><path fill-rule="evenodd" clip-rule="evenodd" d="M413.584 238.323c-9.287 2.238-19.064 3.316-28.797 2.592-8.198-22.369-15.558-36.883-20.013-44.748v270.577s-21.102 6.71-55.866 11.111l-.544-.06c1.88-54.795 5.722-166.47 8.276-240.705 2.055-59.755 31.085-95.29 60.099-117.44-2.675 6.781-5.072 14.606-6.999 23.667 7.354 11.852 24.435 42.069 43.83 94.964.005.014.01.028.014.042zM190.717 477.795c-34.248-4.401-56.476-11.051-56.476-11.051V196.172c-4.456 7.867-11.814 22.379-20.01 44.743-9.633.716-19.3089-.332-28.5108-2.523.0051-.032.0117-.065.0199-.097 19.3769-52.848 36.3059-83.066 43.6099-94.944-1.929-9.075-4.328-16.912-7.006-23.701 29.014 22.15 58.043 57.685 60.099 117.44 2.554 74.235 6.395 185.91 8.276 240.705h-.002z" fill="#000" fill-opacity=".1"/><path d="M333 135h-4v-4.5c3.2 0 4 3 4 4.5zm-46 10h5v5c-4 0-5-3.333-5-5z" fill="#3D3D3D"/><path fill-rule="evenodd" clip-rule="evenodd" d="M288.564 121.087c8.665 2.013 15.477 1.317 20.436-2.087l.319.214c4.93 3.219 11.636 3.843 20.117 1.873 5.855 19.692-5.591 37.42-19.999 45.666L309 167c-14.612-8.135-26.35-26.022-20.436-45.913z" fill="#491818"/><path fill-rule="evenodd" clip-rule="evenodd" d="M290.422 122.913c7.878 1.845 14.07 1.208 18.578-1.913l.29.196c4.482 2.951 10.578 3.523 18.288 1.717 5.323 18.051-5.082 34.302-18.18 41.861L309 165c-13.284-7.457-23.954-23.853-18.578-42.087z" fill="#F2F2F2"/><path fill-rule="evenodd" clip-rule="evenodd" d="M292.28 125c7.09 1.677 12.663.837 16.72-2l.261.178c4.034 2.682 9.52 3.464 16.459 1.822 4.791 16.41-4.574 30.923-16.362 37.794L309 163c-11.956-6.779-21.559-21.424-16.72-38z" fill="#D13A3A"/><path d="M287 137c0-1.105.895-2 2-2h44v8c0 1.105-.895 2-2 2h-44v-8z" fill="#3D3D3D"/><path fill="#7F7F7F" d="M290 137h40v6h-40z"/></svg>