<?xml version="1.0" encoding="UTF-8"?><svg height="500" viewBox="0 0 500 500" width="500" xmlns="http://www.w3.org/2000/svg"><g fill="none" fill-rule="evenodd"><path d="M0 0h500v500H0z"/><path d="M203.006 109.193h93.643V21.898h-93.643z" fill="#bfbfbf"/><path d="M202.867 32.198h93.458v-14.2h-93.458z" fill="#1861b6"/><path d="M87.55 75.26s-40.762 72.8-58.547 127.77c4.445 13.375 45.208 40.86 85.232 37.885 13.34-36.4 24.46-52 24.46-52S141.658 93.83 87.55 75.26M411.476 75.26s40.762 72.8 58.547 127.77c-4.445 13.375-45.208 40.86-85.232 37.885-13.34-36.4-24.46-52-24.46-52S357.368 93.83 411.476 75.26" fill="#f2f2f2"/><path d="M249.514 57.706c-50.082 0-47.798-39.47-48.742-39.14-7.516 2.618-24.133 14.936-52.439 25.495-31.873 11.885-52.626 19.315-60.782 31.2 11.114 8.915 46.694 28.97 46.694 120.345v271.14S183.903 481.6 249.13 481.6c68.929 0 115.648-14.855 115.648-14.855v-271.14c0-91.375 35.58-111.43 46.7-120.345-8.157-11.885-28.91-19.315-60.783-31.2-28.36-10.577-44.982-22.92-52.478-25.511-.927-.318 4.177 39.156-48.703 39.156z" fill="#f2f2f2"/><g fill="#1b6cca"><path d="M232.496 48.877c4.833 1.025 10.46 1.618 17.013 1.618 6.95 0 12.872-.576 17.914-1.574l-.002 432.328c-5.9.225-12.005.348-18.294.348a439.66 439.66 0 0 1-16.628-.316zM309 24.044c8.095 4.563 19.565 11.104 34.92 17.37l.002 430.557c-9.083 1.936-20.886 4.09-34.92 5.87zm-118.078-.503v454.278a470.608 470.608 0 0 1-20.156-3.024 420.704 420.704 0 0 1-14.767-2.962l.003-430.789c15.474-6.388 26.935-13.015 34.92-17.503z"/><path d="M75.025 117.298c10.132-20.75 17.944-35.245 17.944-35.245 7.882-11.885 27.937-19.315 58.747-31.2 19.136-7.385 32.8-15.609 41.775-20.781l-2.144-6.837c-9.25 5.163-23.298 13.338-43.023 20.693-31.868 11.89-52.62 19.315-60.772 31.2 0 0-8.232 14.76-18.858 35.825C49.557 149.176 36.326 179.867 29 203.027c.3 1.058 1.008 2.41 2.123 4.056s2.05 2.777 2.807 3.396c8.386-23.684 22.084-54.745 41.095-93.18zM423.965 117.322c-10.132-20.75-17.958-35.269-17.958-35.269-7.882-11.885-27.936-19.315-58.747-31.2-19.036-7.347-32.368-15.466-41.143-20.602l1.659-6.914c9.23 5.146 23.222 13.262 42.877 20.591 31.867 11.89 52.62 19.315 60.772 31.2 0 0 8.231 14.76 18.857 35.825 18.39 36.305 31.635 66.996 39.738 92.074-.491 1.317-.977 2.346-1.457 3.088-.481.741-1.276 1.804-2.385 3.188-18.428-43.992-32.498-74.652-42.213-91.98z"/><path d="M249.576 63.752c51.479 0 58.279-35.895 58.279-40.38-5.772-3.24-9.728-5.345-12.008-5.345 0 0 5.881 32.495-46.335 32.495-48.52 0-46.336-32.495-46.336-32.495-2.28 0-6.235 2.105-12.002 5.345 0 0 7.368 40.38 58.402 40.38"/></g><g><path d="M295.636 122c3.819 1.615 8.273 2.423 13.364 2.423s9.545-.808 13.364-2.423l7.636 4.846c-8.59 6.268 0 22.712 0 29.077s-21 4.287-21 8.077c0-3.764-21-1.71-21-8.077s8.59-22.813 0-29.077z" fill="#00529c"/><path d="M297.178 124.423c3.378 1.43 7.319 2.144 11.822 2.144s8.444-.715 11.822-2.144l5.8 3.48c-6.484 4.824.955 20.899.955 26.529 0 5.63-18.577 3.792-18.577 7.145 0-3.33-18.577-1.513-18.577-7.145s7.558-21.678.955-26.53z" fill="#fff"/><path d="M291.186 149.852l18.334 10.862c-.334.244-.52.528-.52.863 0-3.33-18.577-1.513-18.577-7.145 0-1.152.317-2.74.763-4.58zm2.852-13.657l33.097 19.61c-1.204 1.695-4.694 2.439-8.295 2.973l-26.012-15.412c.572-2.408 1.06-4.883 1.21-7.17zm8.795-10.135l21.47 12.72c.46 3.055 1.312 6.263 2.031 9.093L292 127.529l5.18-3.106c1.736.735 3.62 1.28 5.654 1.637zm21.546 5.308l-9.017-5.343c1.96-.357 3.78-.89 5.46-1.602l5.8 3.48c-1.138.847-1.848 2.04-2.243 3.465z" fill="#00529c"/><path d="M324.312 138.84l-.307.087c-.666.184-1.366.368-2.098.55-12.298 3.05-15.962 2.273-22.63 4.23a34.555 34.555 0 0 0-7.314 3.092c.58-2.232 1.2-4.65 1.619-7.01a33.822 33.822 0 0 1 3.629-1.327c9.695-2.733 15.26-1.992 22.663-3.914a34.946 34.946 0 0 0 4.175-1.36c-.179 1.719-.041 3.653.263 5.652z" fill="#fff"/><path d="M324.225 138.235l-.058.017c-.799.222-1.645.444-2.54.666-12.298 3.05-16.06 2.126-22.728 4.082a26.714 26.714 0 0 0-6.738 3.037c.469-1.816.945-3.733 1.307-5.628a36.472 36.472 0 0 1 4.062-1.491c9.695-2.734 15.336-2.021 22.74-3.944 1.31-.34 2.554-.75 3.73-1.227-.087 1.396.012 2.917.225 4.488z" fill="#00529c"/></g><path d="M413.584 238.323c-9.287 2.238-19.064 3.316-28.798 2.592-8.197-22.369-15.557-36.883-20.012-44.748v270.577s-21.102 6.71-55.867 11.11l-.544-.059c1.881-54.795 5.722-166.47 8.277-240.705 2.055-59.755 31.084-95.29 60.099-117.44-2.676 6.78-5.072 14.606-7 23.667 7.354 11.852 24.436 42.069 43.831 94.964l.014.042zM190.717 477.795c-34.248-4.401-56.477-11.05-56.477-11.05V196.171c-4.456 7.867-11.813 22.38-20.01 44.743-9.632.716-19.308-.332-28.51-2.523.005-.033.012-.065.02-.097 19.377-52.848 36.305-83.066 43.61-94.944-1.93-9.075-4.328-16.912-7.007-23.701 29.015 22.15 58.044 57.685 60.1 117.44 2.554 74.235 6.395 185.91 8.276 240.705z" fill="#000" fill-opacity=".1"/></g></svg>