<?xml version="1.0" encoding="UTF-8"?><svg height="500" viewBox="0 0 500 500" width="500" xmlns="http://www.w3.org/2000/svg"><g fill="none" fill-rule="evenodd"><path d="M0 0h500v500H0z"/><path d="M203.003 109.195h93.643V21.9h-93.643z" fill="#ded63d"/><path d="M202.864 32.2h93.458V18h-93.458z" fill="#e9e040"/><g fill="#f8ef45"><path d="M87.548 75.26S46.785 148.06 29 203.03c4.445 13.375 45.208 40.86 85.232 37.885 13.34-36.4 24.46-52 24.46-52S141.655 93.83 87.548 75.26M411.473 75.26s40.763 72.8 58.548 127.77c-4.445 13.375-45.208 40.86-85.232 37.885-13.34-36.4-24.46-52-24.46-52S357.366 93.83 411.473 75.26"/><path d="M249.514 57.706c-50.082 0-47.799-39.47-48.743-39.14-7.516 2.618-24.133 14.936-52.439 25.495-31.872 11.885-52.625 19.315-60.782 31.2 11.115 8.915 46.694 28.97 46.694 120.345v271.14S183.902 481.6 249.13 481.6c68.93 0 115.649-14.855 115.649-14.855v-271.14c0-91.375 35.58-111.43 46.7-120.345-8.157-11.885-28.91-19.315-60.783-31.2-28.36-10.577-44.982-22.92-52.478-25.511-.928-.318 4.177 39.156-48.703 39.156z"/><path d="M249.573 63.754c51.479 0 58.279-35.895 58.279-40.38-5.772-3.24-9.728-5.345-12.008-5.345 0 0 5.881 32.495-46.335 32.495-48.52 0-46.336-32.495-46.336-32.495-2.28 0-6.235 2.105-12.002 5.345 0 0 7.368 40.38 58.402 40.38"/></g><g transform="translate(287 118)"><path d="M22.5 46.412c11.903 0 21.551-9.587 21.551-21.412S34.403 3.588 22.5 3.588.949 13.175.949 25 10.597 46.412 22.5 46.412zm0-2.083C11.76 44.329 3.051 35.676 3.051 25S11.76 5.671 22.5 5.671 41.949 14.324 41.949 25 33.24 44.329 22.5 44.329z" fill="#fff" fill-rule="nonzero"/><ellipse cx="22.5" cy="25" fill="#005089" rx="20.5" ry="20.37"/><path d="M22.369.326L40.624 24.9 22.369 49.684 4.113 24.9zm0 3.515L6.72 24.905 22.37 46.15l15.648-21.245z" fill="#fff" fill-rule="nonzero"/><path d="M22.369 2.083l16.952 22.82-16.952 23.014L5.417 24.902z" fill="#ffe75c"/><path d="M19.698 5.678V44.29l-3.417-4.64V10.279zm5.364.032l3.416 4.598V39.62l-3.416 4.638zM12.25 15.705v18.473L8.833 29.54v-9.236zm20.5.352l3.417 4.6v8.527l-3.417 4.639z" fill="#ea0000"/></g><path d="M413.584 238.323c-9.287 2.238-19.064 3.316-28.798 2.592-8.197-22.369-15.557-36.883-20.012-44.748v270.577s-21.102 6.71-55.867 11.11l-.544-.059c1.881-54.795 5.722-166.47 8.277-240.705 2.055-59.755 31.084-95.29 60.099-117.44-2.676 6.78-5.072 14.606-7 23.667 7.354 11.852 24.436 42.069 43.831 94.964l.014.042zM190.717 477.795c-34.248-4.401-56.477-11.05-56.477-11.05V196.171c-4.456 7.867-11.813 22.38-20.01 44.743-9.632.716-19.308-.332-28.51-2.523.005-.033.012-.065.02-.097 19.377-52.848 36.305-83.066 43.61-94.944-1.93-9.075-4.328-16.912-7.007-23.701 29.015 22.15 58.044 57.685 60.1 117.44 2.554 74.235 6.395 185.91 8.276 240.705z" fill="#000" fill-opacity=".06"/></g></svg>