<?xml version="1.0" encoding="UTF-8"?><svg width="500" height="500" viewBox="0 0 500 500" fill="none" xmlns="http://www.w3.org/2000/svg"><path fill-rule="evenodd" clip-rule="evenodd" d="M203.607 109.223h93.432V21.9282h-93.432v87.2948z" fill="#D9D9D9"/><path fill-rule="evenodd" clip-rule="evenodd" d="M203.468 32.2278h93.248v-14.2h-93.248v14.2z" fill="#19643B"/><path fill-rule="evenodd" clip-rule="evenodd" d="M87.5475 75.2598S46.7848 148.06 29 203.03c4.4449 13.375 45.2077 40.86 85.232 37.885 13.34-36.4 24.46-52 24.46-52s2.963-95.0852-51.1445-113.6552zM411.473 75.2598S452.236 148.06 470.021 203.03c-4.445 13.375-45.208 40.86-85.233 37.885-13.339-36.4-24.459-52-24.459-52s-2.964-95.0852 51.144-113.6552z" fill="#F2F2F2"/><path fill-rule="evenodd" clip-rule="evenodd" d="M467.461 195.302c.936 2.666 1.828 5.303 2.668 7.899-4.445 13.375-45.208 40.86-85.233 37.885-.957-2.613-1.903-5.119-2.835-7.52 20.795-1.357 37.993-5.636 51.594-12.837 13.429-7.108 24.697-15.584 33.806-25.427zM31.6547 195.302c9.1031 9.827 20.3606 18.291 33.7724 25.391 13.6109 7.206 30.8241 11.486 51.6389 12.84-.931 2.4-1.877 4.905-2.834 7.517-40.0243 2.975-80.7871-24.51-85.232-37.885.8363-2.585 1.7234-5.209 2.6547-7.863z" fill="#1E7847"/><path fill-rule="evenodd" clip-rule="evenodd" d="M249.513 57.6212c-50.081 0-47.798-39.3842-48.742-39.0558-7.516 2.613-24.133 14.9047-52.439 25.4402C116.459 55.865 95.7064 63.279 87.5498 75.1385c11.1149 8.8958 46.6942 28.9075 46.6942 120.0865v270.557s49.658 14.823 114.885 14.823c68.929 0 115.649-14.823 115.649-14.823V195.225c0-91.179 35.579-111.1907 46.699-120.0865-8.157-11.8595-28.91-19.2735-60.783-31.1329-28.359-10.554-44.981-22.8702-52.478-25.4539-.927-.3196 4.178 39.0695-48.703 39.0695z" fill="#F2F2F2"/><path fill-rule="evenodd" clip-rule="evenodd" d="M364.761 216.554v81.529c-38.253-4.369-76.506-6.554-114.758-6.554-38.583 0-77.165 2.223-115.747 6.667v-81.529C172.838 212.222 211.42 210 250.003 210c38.252 0 76.505 2.185 114.758 6.554zM308.219 23.345C302.46 20.105 298.513 18 296.238 18c0 0 5.869 32.495-46.231 32.495-48.411 0-46.23-32.495-46.23-32.495-2.275 0-6.222 2.105-11.976 5.345 0 0 7.352 40.38 58.271 40.38 51.363 0 58.147-35.895 58.147-40.38z" fill="#1E7847"/><path fill-rule="evenodd" clip-rule="evenodd" d="M413.584 238.323c-9.287 2.238-19.064 3.316-28.797 2.592-8.198-22.369-15.558-36.883-20.013-44.748v270.577s-21.102 6.71-55.866 11.111l-.544-.06c1.88-54.795 5.722-166.47 8.276-240.705 2.055-59.755 31.085-95.29 60.099-117.44-2.675 6.781-5.072 14.606-6.999 23.667 7.354 11.852 24.435 42.069 43.83 94.964.005.014.01.028.014.042zM190.717 477.795c-34.248-4.401-56.476-11.051-56.476-11.051V196.172c-4.456 7.867-11.814 22.379-20.01 44.743-9.633.716-19.3089-.332-28.5108-2.524a1.056 1.056 0 01.0199-.096c19.3769-52.848 36.3059-83.066 43.6099-94.944-1.929-9.075-4.328-16.912-7.006-23.701 29.014 22.15 58.043 57.685 60.099 117.44 2.554 74.235 6.395 185.91 8.276 240.705h-.002z" fill="#000" fill-opacity=".1"/><path d="M302.493 119.252c-1.419 4.173-2.433 7.153-11.493 7.153v8.605c4.4 3.278 6.6 8.604 7.8 14.751 1.32 6.761 6 15.98 10.2 18.439 4.2-2.459 8.88-11.678 10.2-18.439 1.2-6.147 3.4-11.473 7.8-14.751v-8.605c-9.06 0-10.074-2.98-11.493-7.153-.16-.47-.325-.955-.507-1.452h-12c-.182.497-.347.982-.507 1.452z" fill="#CEBE86"/><path d="M303.6 121.514c-1.23 3.776-2.948 6.471-10.8 6.471v6.586c3.813 2.966 6.76 8.985 7.8 14.546 1.144 6.117 4.76 14.459 8.4 16.683 3.64-2.224 7.256-10.566 8.4-16.683 1.04-5.561 3.986-11.58 7.8-14.546v-6.586c-7.853 0-9.57-2.695-10.8-6.471-.139-.425-.282-1.464-.439-1.914h-9.922c-.158.45-.301 1.489-.439 1.914z" fill="#CEBE86"/><path d="M325.162 134.6h-32.325c-.012-.01-.025-.019-.037-.029v-6.586c7.852 0 9.57-2.695 10.8-6.471.065-.2.131-.537.199-.883.077-.39.156-.793.24-1.031h9.922c.083.238.163.641.239 1.031.068.346.135.683.2.883 1.23 3.776 2.947 6.471 10.8 6.471v6.586l-.038.029z" fill="#F2F2F2"/><path d="M322.767 137h-27.534c2.107 2.602 3.783 6.088 4.775 9.6h17.984c.992-3.512 2.668-6.998 4.775-9.6z" fill="#CB4C4C"/><path d="M317.422 149h-16.844c.007.039.015.078.022.117 1.144 6.117 4.76 14.459 8.4 16.683 3.64-2.224 7.256-10.566 8.4-16.683.007-.039.014-.078.022-.117z" fill="#3052AA"/><path d="M311.02 126.297c.24-.374.38-.819.38-1.297 0-1.325-1.074-2.4-2.4-2.4-1.326 0-2.4 1.075-2.4 2.4 0 .478.14.923.38 1.297-2.001 1.194-3.98 3.503-3.98 3.503v4.8h12v-4.8s-1.979-2.309-3.98-3.503zM298.2 126.2h2.4v8.4h-2.4zM317.4 126.2h2.4v8.4h-2.4zM303 139.4h12v4.8h-12zM303 152.6l6-2.4 6 2.4v3.6h-12v-3.6zM301.8 156.2h14.4l-1.2 3.6h-12l-1.2-3.6z" fill="#CEBE86"/><path d="M314.825 157.4h-11.65c.174.406.354.806.538 1.2h10.574c.185-.394.364-.794.538-1.2z" fill="#1E7847"/></svg>