<?xml version="1.0" encoding="UTF-8"?><svg width="500" height="500" viewBox="0 0 500 500" xmlns="http://www.w3.org/2000/svg"><g fill="none" fill-rule="evenodd"><path d="M0 0h500v500H0z"/><path fill="#D9D9D9" d="M203.0033 109.223h93.6432V21.928h-93.6432z"/><path fill="#222435" d="M202.8636 32.228h93.4586v-14.2h-93.4586z"/><path d="M87.5475 75.2585s-40.7627 72.8-58.5475 127.77c4.445 13.375 45.2077 40.86 85.2322 37.885 13.3398-36.4 24.4596-52 24.4596-52s2.9633-95.085-51.1443-113.655" fill="#F2F2F2"/><path d="M411.4727 75.2585s40.7628 72.8 58.5475 127.77c-4.445 13.375-45.2077 40.86-85.2321 37.885-13.3399-36.4-24.4597-52-24.4597-52s-2.9633-95.085 51.1443-113.655" fill="#D63035"/><path d="M249.5111 57.7025c-50.0817 0-47.7981-39.469-48.7426-39.14-7.5158 2.6187-24.1326 14.9368-52.4385 25.495-31.8729 11.885-52.626 19.315-60.7825 31.2 11.1149 8.915 46.6944 28.97 46.6944 120.345v271.14s49.6576 14.855 114.885 14.855c68.9291 0 115.6484-14.855 115.6484-14.855v-271.14c0-91.375 35.5795-111.43 46.6994-120.345-8.1566-11.885-28.9096-19.315-60.7825-31.2-28.3599-10.5767-44.9818-22.9194-52.478-25.5106-.9273-.3184 4.1773 39.1556-48.703 39.1556z" fill="#2E3147"/><path d="M250 57.7014v423.8961h-.873c-65.2275 0-114.8851-14.855-114.8851-14.855V196.1703c-4.4558 7.8667-11.8138 22.3791-20.0097 44.7432-40.0245 2.975-80.7873-24.51-85.2322-37.885 17.7848-54.97 58.5475-127.77 58.5475-127.77v-.001c8.1566-11.885 28.9096-19.315 60.7825-31.2 28.3059-10.5582 44.9227-22.8763 52.4385-25.497.9445-.327-1.339 39.142 48.7426 39.142.1635 0 .3265-.0004.4889-.0011z" fill="#D63035"/><path d="M88.4112 75.2585s-40.671 72.8-58.4157 127.77c4.435 13.375 45.1059 40.86 85.0402 37.885 13.3098-36.4 24.4046-52 24.4046-52s2.9566-95.085-51.0291-113.655M307.8516 23.345c-5.772-3.24-9.728-5.345-12.0078-5.345 0 0 5.8817 32.495-46.3352 32.495-48.5202 0-46.3352-32.495-46.3352-32.495-2.2798 0-6.2358 2.105-12.0028 5.345 0 0 7.3683 40.38 58.4029 40.38 51.4785 0 58.2781-35.895 58.2781-40.38z" fill="#2E3147"/><path d="M413.5843 238.3227c-9.2877 2.2382-19.0646 3.3161-28.7978 2.5926-8.1978-22.369-15.5572-36.883-20.0128-44.7484v270.5774s-21.1022 6.7098-55.8664 11.1104c-.1817-.0197-.363-.0396-.544-.0597 1.8808-54.795 5.7221-166.47 8.2763-240.705 2.0554-59.755 31.0847-95.29 60.099-117.44-2.6753 6.7806-5.0714 14.6063-6.9991 23.6673 7.354 11.8514 24.4358 42.0687 43.8307 94.964.005.014.0097.0277.014.0414zM190.7166 477.7953c-34.2478-4.4014-56.4763-11.051-56.4763-11.051V196.1721c-4.4558 7.8668-11.8138 22.3792-20.0097 44.7432-9.633.716-19.3087-.3323-28.5106-2.5238a1.113 1.113 0 01.0199-.0967c19.3773-52.8475 36.3054-83.0661 43.6098-94.9437-1.929-9.0753-4.3277-16.912-7.0064-23.7011 29.0144 22.15 58.0437 57.685 60.099 117.44 2.5543 74.235 6.3956 185.91 8.2763 240.7053h-.002z" fill-opacity=".1" fill="#000"/><g fill-rule="nonzero"><path d="M309 168.75c-9.3333-3.8519-23.6444-21.3333-24-39.1111 16.0001.0005 24-12.8889 24-12.8889s7.9999 12.8894 24 12.8889c-.3556 17.7778-14.6667 35.2592-24 39.1111z" fill="#F2F2F2"/><path d="M309.0001 166.8239c-8.642-3.5665-21.893-19.7531-22.2223-36.214 14.8149.0005 22.2223-11.9341 22.2223-11.9341s7.4073 11.9346 22.2222 11.9341c-.3292 16.4609-13.5803 32.6475-22.2222 36.214z" fill="#232323"/><path d="M309.0001 166.8239c-8.642-3.5665-21.893-19.7531-22.2223-36.214 14.8149.0005 22.2223-11.9341 22.2223-11.9341v48.1481z" fill="#E92828"/><path d="M302.0884 129.1456c-.3685 11.7624-1.4477 20.1459-2.5972 25.951 2.2358 2.7191 4.6228 4.9327 6.842 6.4161v-31.4298l2.6667-2.6667 2.6667 2.6667v31.4298c2.2286-1.4898 4.6265-3.7159 6.8704-6.4508-1.1568-5.8285-2.248-14.2186-2.6225-25.9143-4.6098-2.9067-6.9146-6.6203-6.9146-6.6203s-2.3039 3.712-6.9115 6.6183z" fill="#F2F2F2" opacity=".8"/></g></g></svg>