<svg xmlns="http://www.w3.org/2000/svg" width="500" height="500" fill="none" viewBox="0 0 500 500"><g fill-rule="evenodd" clip-path="url(#clip0_5839_4450)" clip-rule="evenodd"><path fill="#AD9B00" d="M203 109.22h93.65v-87.3H203v87.3Z"/><path fill="#D7C200" d="M202.86 32.23h93.46v-14.2h-93.46v14.2Z"/><path fill="#3D3D3D" d="M87.55 75.26S46.78 148.06 29 203.03c4.44 13.37 45.2 40.86 85.23 37.88 13.34-36.4 24.46-52 24.46-52s2.97-95.08-51.14-113.65M411.47 75.26s40.76 72.8 58.55 127.77c-4.44 13.37-45.2 40.86-85.23 37.88-13.34-36.4-24.46-52-24.46-52s-2.96-95.08 51.14-113.65"/><path fill="#F6DE00" d="M249.51 57.7c-50.08 0-47.8-39.47-48.74-39.14-7.52 2.62-24.13 14.94-52.44 25.5-31.87 11.88-52.63 19.31-60.78 31.2 11.11 8.91 46.7 28.97 46.7 120.34v271.14s49.65 14.86 114.88 14.86c68.93 0 115.64-14.86 115.64-14.86V195.6c0-91.37 35.59-111.43 46.7-120.34-8.15-11.89-28.9-19.32-60.78-31.2-28.36-10.58-44.98-22.92-52.48-25.51-.92-.32 4.18 39.15-48.7 39.15Z"/><path fill="#EAD400" d="M307.85 23.34c-5.77-3.23-9.73-5.34-12-5.34 0 0 5.88 32.5-46.34 32.5-48.52 0-46.34-32.5-46.34-32.5-2.28 0-6.23 2.1-12 5.34 0 0 7.37 40.39 58.4 40.39 51.48 0 58.28-35.9 58.28-40.38Z"/><path fill="#000" fill-opacity=".1" d="M413.58 238.32a93.75 93.75 0 0 1-28.8 2.6c-8.2-22.37-15.55-36.89-20-44.75v270.57s-21.1 6.71-55.87 11.12c-.18-.03-.37-.05-.55-.06l8.28-240.71c2.06-59.75 31.09-95.29 60.1-117.44a148.59 148.59 0 0 0-7 23.67c7.35 11.85 24.44 42.07 43.83 94.96l.01.04ZM190.72 477.8c-34.25-4.4-56.48-11.06-56.48-11.06V196.17c-4.46 7.87-11.81 22.38-20 44.75a93.6 93.6 0 0 1-28.52-2.53l.02-.1c19.38-52.84 36.3-83.06 43.61-94.94a148.74 148.74 0 0 0-7-23.7c29 22.15 58.04 57.69 60.1 117.44l8.27 240.7Z"/><path fill="#3D3D3D" d="m287.98 141.3.55-.94c1.34-2.34 2.03-3.9 2.34-5.52.32-1.62.28-3.38.02-6.14-.17-1.88-1.28-3.59-3.58-5.1l-1.16-.77 5.14-4.02.57.3c3.39 1.8 6.34 2.65 8.88 2.65 2.52 0 5.08-.84 7.7-2.6l.55-.36.93.6c2.49 1.6 4.93 2.36 7.34 2.36 2.43 0 5.24-.78 8.44-2.41l1.02-.53 5.13 4-1.16.78c-2.3 1.51-3.4 3.22-3.58 5.1l-.07.8c-.21 2.5-.2 4.14.17 5.7.36 1.58 1.1 3.16 2.46 5.51l.22.37c1.68 2.86 2.5 7.1 1.93 11.17-.59 4.08-2.63 8.13-6.85 10.38-3.98 2.12-7.94 2.77-10.88 3.11l-1.5.16c-.8.08-1.44.15-1.97.24-.98.17-.89.3-1.62 1.36-.46-.68-.71-1.19-1.52-1.34-.53-.1-1.21-.17-2.06-.26l-1.38-.14c-2.95-.34-6.97-.98-11-3.13-4.17-2.22-6.22-6.19-6.83-10.22-.61-4 .16-8.2 1.77-11.1Zm21.85 24a18.1 18.1 0 0 1 2.7-.4c2.99-.3 7.48-.76 11.97-3.15 7.73-4.12 7.63-14.88 4.53-20.16l-.22-.37c-2.76-4.76-3.2-6.73-2.77-11.8l.07-.81c.19-2 1.25-3.74 3.18-5.24.26-.21.55-.41.84-.61l-3.52-2.76-.45.23c-3.3 1.69-6.26 2.53-8.9 2.53-2.63 0-5.26-.84-7.88-2.52L309 120c-2.75 1.84-5.5 2.76-8.26 2.76s-5.87-.92-9.35-2.76l-3.52 2.76c.3.2.58.4.84.6 1.93 1.5 3 3.25 3.18 5.25.52 5.54.22 7.5-2.5 12.25l-.54.94c-2.98 5.36-2.98 15.88 4.65 19.95 4.49 2.39 8.98 2.85 11.97 3.15 1.16.12 2.09.22 2.7.4.5.13.78.33.82.62l.01.08v-.08c.05-.3.34-.49.83-.63Z"/><path fill="#3D3D3D" d="M293.5 161.75c-7.63-4.07-7.63-14.6-4.65-19.95l.55-.94c2.7-4.74 3-6.7 2.49-12.25-.21-2.27-1.56-4.22-4.02-5.85l3.52-2.76c3.48 1.84 6.6 2.76 9.35 2.76 2.76 0 5.51-.92 8.26-2.76l.38.25a14.54 14.54 0 0 0 7.88 2.51c2.64 0 5.6-.84 8.9-2.53l.45-.23 3.52 2.76c-2.46 1.63-3.8 3.58-4.02 5.85l-.07.8c-.42 5.08.01 7.05 2.77 11.8l.22.38c3.1 5.28 3.2 16.04-4.53 20.16-7.63 4.06-15.27 2.55-15.5 4.17v.08c0-1.75-7.76-.13-15.5-4.25Z"/><path fill="#DDC800" d="m287.56 153.98 34.22-31.94a26.53 26.53 0 0 0 4.38-1.8l.45-.24 3.52 2.76c-2.47 1.63-3.8 3.58-4.02 5.85l-.03.35-34.09 31.83a12.3 12.3 0 0 1-4.43-6.8Z"/></g><defs><clipPath id="clip0_5839_4450"><path fill="#fff" d="M0 0h500v500H0z"/></clipPath></defs></svg>