<?xml version="1.0" encoding="UTF-8"?><svg width="500" height="500" viewBox="0 0 500 500" fill="none" xmlns="http://www.w3.org/2000/svg"><path fill-rule="evenodd" clip-rule="evenodd" d="M203.003 109.223h93.643V21.928h-93.643v87.295z" fill="#D9D9D9"/><path fill-rule="evenodd" clip-rule="evenodd" d="M202.864 32.2281h93.458v-14.2h-93.458v14.2z" fill="#005498"/><path fill-rule="evenodd" clip-rule="evenodd" d="M87.5475 75.2585S46.7848 148.059 29 203.029c4.4449 13.375 45.2077 40.86 85.232 37.885 13.34-36.4 24.46-52 24.46-52s2.963-95.0855-51.1445-113.6555zm323.9255 0s40.763 72.8005 58.547 127.7705c-4.445 13.375-45.207 40.86-85.232 37.885-13.34-36.4-24.46-52-24.46-52s-2.963-95.0855 51.145-113.6555z" fill="#005EAA"/><path fill-rule="evenodd" clip-rule="evenodd" d="M249.511 57.7025c-50.082 0-47.798-39.4691-48.743-39.14-7.515 2.6187-24.132 14.9368-52.438 25.495-31.873 11.885-52.626 19.315-60.7825 31.2 11.1148 8.915 46.6945 28.9695 46.6945 120.3445v271.14s49.657 14.856 114.885 14.856c68.929 0 115.648-14.856 115.648-14.856v-271.14c0-91.375 35.58-111.4295 46.7-120.3445-8.157-11.885-28.91-19.315-60.783-31.2-28.36-10.5767-44.982-22.9195-52.478-25.5087-.927-.3203 4.177 39.1537-48.703 39.1537z" fill="#F2F2F2"/><path fill-rule="evenodd" clip-rule="evenodd" d="M307.852 23.345C302.08 20.105 298.124 18 295.844 18c0 0 5.882 32.495-46.335 32.495-48.521 0-46.336-32.495-46.336-32.495-2.279 0-6.235 2.105-12.002 5.345 0 0 7.368 40.38 58.403 40.38 51.478 0 58.278-35.895 58.278-40.38z" fill="#F1F1F1"/><path fill-rule="evenodd" clip-rule="evenodd" d="M170.746 474.792c-5.163-.942-9.862-1.894-14.038-2.803V40.7512c15.284-6.3666 26.598-12.9345 34.472-17.3559a12.497 12.497 0 01-.009-.0504c.154-.0865.306-.1723.458-.2573V477.91c-7.573-.959-14.571-2.03-20.883-3.118zm96.711-425.8779V481.248c-5.912.225-12.028.349-18.33.349-5.655 0-11.192-.111-16.591-.315V48.8859c4.824 1.0198 10.439 1.609 16.973 1.609 6.966 0 12.898-.5783 17.948-1.5808zm75.829-7.7602V472.106c-9.134 1.93-20.934 4.062-34.921 5.815V23.6894c8.018 4.5112 19.481 11.1131 34.921 17.4645z" fill="#005EAA"/><path fill-rule="evenodd" clip-rule="evenodd" d="M309 167c13.255 0 24-10.745 24-24s-10.745-24-24-24-24 10.745-24 24 10.745 24 24 24z" fill="#F7F7F7"/><path d="M309 165c12.15 0 22-9.85 22-22s-9.85-22-22-22-22 9.85-22 22 9.85 22 22 22z" fill="#0057A6"/><path d="M309 160c-9.389 0-17-7.611-17-17s7.611-17 17-17 17 7.611 17 17-7.611 17-17 17z" fill="#fff"/><path d="M309 158c8.284 0 15-6.716 15-15 0-8.284-6.716-15-15-15-8.284 0-15 6.716-15 15 0 8.284 6.716 15 15 15z" fill="#000"/><path d="M309 157c-7.732 0-14-6.268-14-14s6.268-14 14-14 14 6.268 14 14-6.268 14-14 14z" fill="#fff"/><path fill-rule="evenodd" clip-rule="evenodd" d="M321.686 147.92l-1.762-13.422-.724-.126c-.854-.149-2.29-.106-4.377.114-1.44.151-2.342.38-3.909.907l-.084.028c-1.265.426-1.863.596-2.809.754-1.007.169-1.97.211-3.709.202l-.364-.003c-1.734-.011-2.534.007-3.524.111-2.104.221-3.006.4-3.442.88l-.379.417.161.541c1.59 5.33 2.401 9.07 2.437 11.157l.02 1.211 1.185-.249c1.195-.251 2.134-.325 3.584-.33.039-.001.153-.001.298-.001.297 0 .721 0 .889-.001.963-.006 1.736-.041 2.595-.131 1.186-.125 2.14-.338 3.298-.701.238-.075.443-.142.841-.273 1.495-.496 2.212-.706 3.379-.95 2.095-.44 3.791-.55 5.073-.346l1.323.211zm-3.544-11.634l1.224 9.33c-1.29-.038-2.783.124-4.486.481-1.26.264-2.037.492-3.598 1.009-.388.129-.586.193-.811.264-1.039.326-1.866.51-2.908.62-.786.083-1.496.114-2.399.12-.16.001-.57.001-.866.001-.151 0-.273 0-.314.001-1.114.003-1.972.047-2.857.172-.223-2.209-.946-5.395-2.168-9.59.418-.073.977-.147 1.674-.22.892-.094 1.642-.11 3.302-.1l.367.002c1.847.01 2.898-.035 4.049-.228 1.077-.181 1.759-.374 3.117-.831l.083-.028c1.44-.485 2.215-.681 3.481-.814 1.35-.142 2.396-.203 3.11-.189z" fill="#000"/><path fill-rule="evenodd" clip-rule="evenodd" d="M318.892 135.389s-1.102-.193-4.101.123c-2.998.315-4.033 1.227-6.741 1.681-2.492.418-5.116.051-7.658.318-2.541.267-2.805.557-2.805.557s2.422 8.12 2.478 11.427c2.886-.607 4.536-.171 7.466-.479 2.931-.308 4.11-1.215 7.418-1.909 3.307-.693 5.435-.354 5.435-.354l-1.492-11.364z" fill="#fff"/><path fill-rule="evenodd" clip-rule="evenodd" d="M318.892 135.389s-1.102-.193-4.101.123c-2.998.315-4.033 1.227-6.741 1.681-2.492.418-5.116.051-7.658.318-2.541.267-2.805.557-2.805.557s1.171 4.095 1.565 5.753c1.224-.449 7.069-.457 9.94-.759 2.871-.302 7.904-1.807 10.631-1.403-.242-2.298-.831-6.27-.831-6.27z" fill="#005AAB"/><path fill="#000" d="M296 137.208l.9781-.208 3.7425 17.6067-.9782.208z"/><path fill-rule="evenodd" clip-rule="evenodd" d="M413.584 238.323c-9.287 2.238-19.064 3.316-28.798 2.592-8.197-22.369-15.557-36.883-20.012-44.748v270.577s-21.102 6.71-55.867 11.111l-.544-.06c1.881-54.795 5.722-166.47 8.277-240.705 2.055-59.755 31.084-95.29 60.099-117.44-2.676 6.781-5.072 14.606-7 23.667 7.354 11.852 24.436 42.069 43.831 94.964.005.014.01.028.014.042zM190.717 477.795c-34.248-4.401-56.477-11.051-56.477-11.051V196.172c-4.456 7.867-11.813 22.379-20.009 44.743-9.633.716-19.3091-.332-28.511-2.524a1.056 1.056 0 01.0199-.096c19.3771-52.848 36.3051-83.066 43.6101-94.944-1.929-9.075-4.328-16.912-7.007-23.701 29.015 22.15 58.044 57.685 60.099 117.44 2.555 74.235 6.396 185.91 8.277 240.705h-.002z" fill="#000" fill-opacity=".1"/></svg>