<?xml version="1.0" encoding="UTF-8"?><svg width="500" height="500" viewBox="0 0 500 500" xmlns="http://www.w3.org/2000/svg"><g fill="none" fill-rule="evenodd"><path d="M0 0h500v500H0z"/><path fill="#D9D9D9" d="M203.0033 109.223h93.6432V21.928h-93.6432z"/><path fill="#D83232" d="M202.8636 32.228h93.4586v-14.2h-93.4586z"/><path d="M87.5475 75.2585s-40.7627 72.8-58.5475 127.77c4.445 13.375 45.2077 40.86 85.2322 37.885 13.3398-36.4 24.4596-52 24.4596-52s2.9633-95.085-51.1443-113.655m323.9252 0s40.7628 72.8 58.5475 127.77c-4.445 13.375-45.2077 40.86-85.2321 37.885-13.3399-36.4-24.4597-52-24.4597-52s-2.9633-95.085 51.1443-113.655" fill="#3152A8"/><path d="M249.5111 57.7025c-50.0817 0-47.7981-39.469-48.7426-39.14-7.5158 2.6187-24.1326 14.9368-52.4385 25.495-31.8729 11.885-52.626 19.315-60.7825 31.2 11.1149 8.915 46.6944 28.97 46.6944 120.345v271.14s49.6576 14.855 114.885 14.855c68.9291 0 115.6484-14.855 115.6484-14.855v-271.14c0-91.375 35.5795-111.43 46.6994-120.345-8.1566-11.885-28.9096-19.315-60.7825-31.2-28.3599-10.5767-44.9818-22.9194-52.478-25.5106-.9273-.3184 4.1773 39.1556-48.703 39.1556z" fill="#3152A8"/><path d="M249.5111 177c38.54 0 77.0815 1.0554 115.6242 3.1662-.2126 4.4145-.334 9.0206-.3563 13.8268l-.0037 1.6095-.0004 96.5568C326.252 290.0531 287.8307 289 249.511 289a2094.06 2094.06 0 00-115.2694 3.1767l.0002-96.5742c0-5.3835-.1235-10.5195-.3582-15.4202C172.323 178.0612 210.8659 177 249.511 177zm58.3405-153.655c-5.772-3.24-9.728-5.345-12.0078-5.345 0 0 5.8817 32.495-46.3352 32.495-48.5202 0-46.3352-32.495-46.3352-32.495-2.2798 0-6.2358 2.105-12.0028 5.345 0 0 7.3683 40.38 58.4029 40.38 51.4785 0 58.2781-35.895 58.2781-40.38z" fill="#EB3C3C"/><path d="M413.5843 238.3227c-9.2877 2.2382-19.0646 3.3161-28.7978 2.5926-8.1978-22.369-15.5572-36.883-20.0128-44.7484v270.5774s-21.1022 6.7098-55.8664 11.1104c-.1817-.0197-.363-.0396-.544-.0597 1.8808-54.795 5.7221-166.47 8.2763-240.705 2.0554-59.755 31.0847-95.29 60.099-117.44-2.6753 6.7806-5.0714 14.6063-6.9991 23.6673 7.354 11.8514 24.4358 42.0687 43.8307 94.964.005.014.0097.0277.014.0414zM190.7166 477.7953c-34.2478-4.4014-56.4763-11.051-56.4763-11.051V196.1721c-4.4558 7.8668-11.8138 22.3792-20.0097 44.7432-9.633.716-19.3087-.3323-28.5106-2.5238a1.113 1.113 0 01.0199-.0967c19.3773-52.8475 36.3054-83.0661 43.6098-94.9437-1.929-9.0753-4.3277-16.912-7.0064-23.7011 29.0144 22.15 58.0437 57.685 60.099 117.44 2.5543 74.235 6.3956 185.91 8.2763 240.7053h-.002z" fill-opacity=".1" fill="#000"/><path d="M289 119h40v40.0435c0 2.1734-1.7354 3.949-3.9082 3.999C314.364 163.2887 309 164.608 309 167c0-2.392-5.364-3.7112-16.0918-3.9576-2.1728-.0499-3.9082-1.8255-3.9082-3.9989V119z" fill="#FFF"/><path d="M291 121h36v37.3606c0 1.6346-1.3086 2.9684-2.943 2.9995C314.019 161.551 309 162.7643 309 165c0-2.2357-5.019-3.449-15.057-3.64-1.6344-.031-2.943-1.3648-2.943-2.9994V121z" fill="#EB3C3C"/><path fill="#FFF" opacity=".6" d="M294 123h30v5h-30z"/><path d="M303 129.9884l.0007 32c-2.3366-.338-5.3559-.5412-9.0578-.6095-1.6343-.0302-2.9429-1.324-2.9429-2.9096v-28.4809h12zm24 .0001v28.4808c0 1.5857-1.3086 2.8795-2.943 2.9096-3.7022.0683-6.7217.2715-9.0585.6096l.0015-32h12z" fill="#3C34C7"/></g></svg>