<?xml version="1.0" encoding="UTF-8"?><svg height="500" viewBox="0 0 500 500" width="500" xmlns="http://www.w3.org/2000/svg"><g fill="none" fill-rule="evenodd"><path d="M0 0h500v500H0z"/><path d="M203.003 109.223h93.643V21.928h-93.643z" fill="#d2ac00"/><path d="M202.864 32.228h93.458v-14.2h-93.458z" fill="#393939"/><g fill="#f8cb00"><path d="M87.548 75.258S46.785 148.058 29 203.029c4.445 13.376 45.208 40.86 85.232 37.886 13.34-36.4 24.46-52 24.46-52s2.963-95.085-51.144-113.655M411.473 75.258s40.762 72.8 58.547 127.77c-4.445 13.376-45.208 40.86-85.232 37.886-13.34-36.4-24.46-52-24.46-52s-2.963-95.085 51.145-113.655"/><path d="M249.511 57.703c-50.082 0-47.798-39.47-48.742-39.14-7.516 2.618-24.133 14.936-52.439 25.495-31.873 11.885-52.626 19.315-60.782 31.2 11.114 8.915 46.694 28.97 46.694 120.345v271.14s49.658 14.855 114.885 14.855c68.929 0 115.648-14.855 115.648-14.855v-271.14c0-91.375 35.58-111.43 46.7-120.345-8.157-11.885-28.91-19.315-60.783-31.2-28.36-10.577-44.982-22.92-52.478-25.511-.927-.318 4.177 39.156-48.703 39.156z"/></g><path d="M365.24 178.15c-.302 5.5-.462 11.301-.462 17.422v271.14s-46.719 14.855-115.648 14.855c-65.227 0-114.885-14.855-114.885-14.855v-271.14c0-6.261-.167-12.188-.482-17.799v-72.531c0-28.836 26.598-57.02 72.417-68.202 5.595 10.126 17.495 20.632 43.334 20.632 27.082 0 38.955-10.352 44.22-20.411 45.26 11.335 71.505 39.336 71.505 67.98z" fill="#f1c500"/><path d="M467.461 195.302a338.826 338.826 0 0 1 2.668 7.9c-4.445 13.375-45.208 40.86-85.232 37.885a426.405 426.405 0 0 0-2.836-7.52c20.795-1.358 37.993-5.637 51.595-12.837 13.428-7.11 24.696-15.585 33.805-25.428zM31.655 195.302c9.103 9.828 20.36 18.291 33.772 25.392 13.611 7.205 30.824 11.485 51.64 12.84a426.42 426.42 0 0 0-2.835 7.516C74.208 244.025 33.445 216.54 29 203.165c.836-2.584 1.723-5.209 2.655-7.863zM307.852 23.345C302.08 20.105 298.124 18 295.844 18c0 0 5.881 32.495-46.335 32.495-48.52 0-46.336-32.495-46.336-32.495-2.28 0-6.235 2.105-12.002 5.345 0 0 7.368 40.38 58.402 40.38 51.479 0 58.279-35.895 58.279-40.38z" fill="#3d3d3d"/><path d="M413.584 238.323c-9.287 2.238-19.064 3.316-28.798 2.592-8.197-22.369-15.557-36.883-20.012-44.748v270.577s-21.102 6.71-55.867 11.11l-.544-.059c1.881-54.795 5.722-166.47 8.277-240.705 2.055-59.755 31.084-95.29 60.099-117.44-2.676 6.78-5.072 14.606-7 23.667 7.354 11.852 24.436 42.069 43.831 94.964l.014.042zM190.717 477.795c-34.248-4.401-56.477-11.05-56.477-11.05V196.171c-4.456 7.867-11.813 22.38-20.01 44.743-9.632.716-19.308-.332-28.51-2.523.005-.033.012-.065.02-.097 19.377-52.848 36.305-83.066 43.61-94.944-1.93-9.075-4.328-16.912-7.007-23.701 29.015 22.15 58.044 57.685 60.1 117.44 2.554 74.235 6.395 185.91 8.276 240.705z" fill="#000" fill-opacity=".06"/><circle cx="309" cy="143" fill="#000" r="24"/><circle cx="309" cy="143" fill="#facd00" r="22"/><g fill="#000"><circle cx="309" cy="143" r="15"/><path d="M296.526 132.194h10.948c1.395 0 2.526 1.31 2.526 2.927v10.732c0 1.077-5.333.126-16-2.853v-7.879c0-1.616 1.131-2.927 2.526-2.927z" fill-rule="nonzero"/><path d="M309.526 141h10.948c1.395 0 2.526 1.343 2.526 3v11c0 1.657-1.131 3-2.526 3h-10.948c-1.395 0-2.526-1.343-2.526-3v-11c0-1.657 1.131-3 2.526-3z" fill-rule="nonzero"/></g><rect fill="#facd00" height="15" rx="2" width="15" x="295" y="133"/><rect fill="#facd00" height="14" rx="2" width="14" x="308" y="143"/></g></svg>