<?xml version="1.0" encoding="UTF-8"?><svg width="500" height="500" viewBox="0 0 500 500" xmlns="http://www.w3.org/2000/svg"><g fill="none" fill-rule="evenodd"><path d="M0 0h500v500H0z"/><path fill="#D9D9D9" d="M203.0033 109.223h93.6432V21.928h-93.6432z"/><path fill="#393939" d="M202.8636 32.228h93.4586v-14.2h-93.4586z"/><path d="M87.5475 75.2585s-40.7627 72.8-58.5475 127.77c4.445 13.375 45.2077 40.86 85.2322 37.885 13.3398-36.4 24.4596-52 24.4596-52s2.9633-95.085-51.1443-113.655m323.9252 0s40.7628 72.8 58.5475 127.77c-4.445 13.375-45.2077 40.86-85.2321 37.885-13.3399-36.4-24.4597-52-24.4597-52s-2.9633-95.085 51.1443-113.655" fill="#CF4A3F"/><path d="M249.5111 57.7025c-50.0817 0-47.7981-39.469-48.7426-39.14-7.5158 2.6187-24.1326 14.9368-52.4385 25.495-31.8729 11.885-52.626 19.315-60.7825 31.2 11.1149 8.915 46.6944 28.97 46.6944 120.345v271.14s49.6576 14.855 114.885 14.855c68.9291 0 115.6484-14.855 115.6484-14.855v-271.14c0-91.375 35.5795-111.43 46.6994-120.345-8.1566-11.885-28.9096-19.315-60.7825-31.2-28.3599-10.5767-44.9818-22.9194-52.478-25.5106-.9273-.3184 4.1773 39.1556-48.703 39.1556z" fill="#CF4A3F"/><path d="M206.1622 37.044c5.5898 10.1342 17.4878 20.6585 43.349 20.6585 27.1056 0 38.9761-10.3715 44.2331-20.4391l-.011-.0028c45.26 11.3356 71.506 39.3368 71.506 67.9813v72.909l-.0927 1.7614-.0328.688-.0318.741a218.1362 218.1362 0 00-.0827 1.9907l-.029.8631c-.1106 3.1472-.1748 6.39-.191 9.7295l-.004 1.6779-.0003 271.1105-.6635.2042c-5.9248 1.7856-50.8361 14.6503-114.9815 14.6503-65.2275 0-114.8851-14.855-114.8851-14.855v-271.14c0-6.2616-.167-12.1883-.482-17.7995v-72.531c0-28.5477 26.069-56.4564 71.0478-67.8615l1.3515-.3364z" fill="#FFE466"/><path d="M249.8249 457c38.3166 0 76.6334-1.7139 114.9504-5.1417v14.8547l-.6638.2042c-5.9248 1.7856-50.8361 14.6503-114.9815 14.6503-65.2275 0-114.8863-14.855-114.8863-14.855v-14.9382C172.6692 455.258 211.1963 457 249.8249 457zm0-98c38.316 0 76.6326-.5713 114.95-1.7139v36.0004A3845.4986 3845.4986 0 01250 395c-38.5852 0-77.1705-.581-115.7565-1.7429v-35.999C172.6695 358.4194 211.1967 359 249.825 359zm0-97c38.3169 0 76.634.2857 114.9511.857v36.001l-1.1506-.0177A7726.7852 7726.7852 0 00249.8249 298c-38.527 0-77.0537.2904-115.5806.8713V262.872l2.0477-.0317A7650.8357 7650.8357 0 01249.825 262zm0-137c38.4692 0 76.9404 1.1518 115.414 3.4555v35.6207c-38.567-3.919-77.0383-5.8785-115.414-5.8785-38.6928 0-77.3803 1.992-116.0626 5.976V128.513c38.587-2.342 77.2745-3.513 116.0626-3.513z" fill="#CF4A3F"/><path d="M467.3529 195.129c.9359 2.6665 1.8272 5.303 2.6673 7.8995-4.445 13.375-45.2077 40.86-85.2321 37.885a426.4238 426.4238 0 00-2.8354-7.5198c20.795-1.3576 37.9932-5.6366 51.5944-12.8371 13.4282-7.109 24.6968-15.5848 33.8058-25.4277zm-435.6982.036c9.1031 9.8275 20.3606 18.2914 33.7724 25.3916 13.611 7.2056 30.824 11.4856 51.6393 12.84a426.4196 426.4196 0 00-2.8342 7.5169c-40.0245 2.975-80.7873-24.51-85.2322-37.885.8363-2.5849 1.7234-5.2092 2.6547-7.8635zm276.1969-171.82c-5.772-3.24-9.728-5.345-12.0078-5.345 0 0 5.8817 32.495-46.3352 32.495-48.5202 0-46.3352-32.495-46.3352-32.495-2.2798 0-6.2358 2.105-12.0028 5.345 0 0 7.3683 40.38 58.4029 40.38 51.4785 0 58.2781-35.895 58.2781-40.38z" fill="#3D3D3D"/><path d="M413.5843 238.3227c-9.2877 2.2382-19.0646 3.3161-28.7978 2.5926-8.1978-22.369-15.5572-36.883-20.0128-44.7484v270.5774s-21.1022 6.7098-55.8664 11.1104c-.1817-.0197-.363-.0396-.544-.0597 1.8808-54.795 5.7221-166.47 8.2763-240.705 2.0554-59.755 31.0847-95.29 60.099-117.44-2.6753 6.7806-5.0714 14.6063-6.9991 23.6673 7.354 11.8514 24.4358 42.0687 43.8307 94.964.005.014.0097.0277.014.0414zM190.7166 477.7953c-34.2478-4.4014-56.4763-11.051-56.4763-11.051V196.1721c-4.4558 7.8668-11.8138 22.3792-20.0097 44.7432-9.633.716-19.3087-.3323-28.5106-2.5238a1.113 1.113 0 01.0199-.0967c19.3773-52.8475 36.3054-83.0661 43.6098-94.9437-1.929-9.0753-4.3277-16.912-7.0064-23.7011 29.0144 22.15 58.0437 57.685 60.099 117.44 2.5543 74.235 6.3956 185.91 8.2763 240.7053h-.002z" fill-opacity=".06" fill="#000"/><g transform="translate(286 112)"><path d="M23 0c16 0 21 9.2725 21 14.2734l-3 1.8689v5.5795c0 .686-.015 1.3673-.0452 2.044C44.1113 27.7032 46 32.7022 46 38.1423c0 12.7025-10.2975 23-23 23s-23-10.2975-23-23c0-5.4401 1.8887-10.439 5.0461-14.377A44.5764 44.5764 0 015 21.7218v-5.5795l-3-1.869C2 9.2724 7 0 23 0z" fill="#F2F2F2"/><path d="M7 16.1423h32v6.5994c0 12.5735-5.3333 23.461-16 32.6628C12.3333 46.203 7 35.3155 7 22.7417v-6.5994z" fill="#FDD700"/><circle fill="#B7B7B7" cx="23" cy="16.1423" r="6"/><path d="M34.9294 20.8573C40.4096 24.6467 44 30.9753 44 38.1423c0 5.5323-2.1393 10.565-5.6358 14.3158l-3.9539-4.5786C36.6486 45.2592 38 41.8585 38 38.1423c0-3.188-.9946-6.1438-2.6904-8.574L23 39.7214 10.6893 29.5698C8.9942 31.9996 8 34.9548 8 38.1423c0 3.7162 1.3514 7.1169 3.5897 9.7372l-3.954 4.5786c-3.4224-3.6714-5.5445-8.571-5.6328-13.965L2 38.1422c0-7.1675 3.5908-13.4963 9.0716-17.2857L22.998 31.2268l11.9313-10.3695z" fill="#ED493C"/></g></g></svg>