<?xml version="1.0" encoding="UTF-8"?><svg width="500" height="500" viewBox="0 0 500 500" xmlns="http://www.w3.org/2000/svg"><g fill="none" fill-rule="evenodd"><path d="M0 0h500v500H0z"/><path fill="#901327" d="M203.0033 109.223h93.6432V21.928h-93.6432z"/><path fill="#A8162E" d="M202.8636 32.228h93.4586v-14.2h-93.4586z"/><path d="M87.5475 75.2585s-40.7627 72.8-58.5475 127.77c4.445 13.375 45.2077 40.86 85.2322 37.885 13.3398-36.4 24.4596-52 24.4596-52s2.9633-95.085-51.1443-113.655m323.9252 0s40.7628 72.8 58.5475 127.77c-4.445 13.375-45.2077 40.86-85.2321 37.885-13.3399-36.4-24.4597-52-24.4597-52s-2.9633-95.085 51.1443-113.655" fill="#C11A35"/><path d="M249.5111 57.7025c-50.0817 0-47.7981-39.469-48.7426-39.14-7.5158 2.6187-24.1326 14.9368-52.4385 25.495-31.8729 11.885-52.626 19.315-60.7825 31.2 11.1149 8.915 46.6944 28.97 46.6944 120.345v271.14s49.6576 14.855 114.885 14.855c68.9291 0 115.6484-14.855 115.6484-14.855v-271.14c0-91.375 35.5795-111.43 46.6994-120.345-8.1566-11.885-28.9096-19.315-60.7825-31.2-28.3599-10.5767-44.9818-22.9194-52.478-25.5106-.9273-.3184 4.1773 39.1556-48.703 39.1556z" fill="#C11A35"/><path d="M119.9819 226.098c-1.8487 4.494-3.7749 9.4268-5.7497 14.8155-40.0245 2.975-80.7873-24.51-85.2322-37.885 1.7572-5.4313 3.7388-11.0368 5.8832-16.7288 10.2695 10.9648 22.741 19.7944 37.4143 26.4888 14.6578 6.6873 30.5526 11.1238 47.6844 13.3096zm259.2228 0c17.1318-2.1857 33.0266-6.6222 47.6843-13.3095 14.6734-6.6944 27.1448-15.524 37.4144-26.4888 2.1444 5.692 4.126 11.2975 5.8831 16.7288-4.4449 13.375-45.2077 40.86-85.2321 37.885-1.9749-5.3887-3.901-10.3216-5.7497-14.8154z" fill="#F2F2F2"/><path d="M467.4614 195.302c.936 2.6666 1.8273 5.303 2.6674 7.8996-4.445 13.375-45.2077 40.86-85.2322 37.885a426.405 426.405 0 00-2.8354-7.5199c20.7951-1.3576 37.9933-5.6366 51.5945-12.837 13.4282-7.109 24.6968-15.5848 33.8057-25.4277zm-435.8067 0c9.1031 9.8275 20.3606 18.2914 33.7724 25.3916 13.611 7.2056 30.824 11.4856 51.6393 12.84a426.4198 426.4198 0 00-2.8342 7.5169c-40.0245 2.975-80.7873-24.51-85.2322-37.885.8363-2.5849 1.7234-5.2092 2.6547-7.8635zM307.8516 23.345c-5.772-3.24-9.728-5.345-12.0078-5.345 0 0 5.8817 32.495-46.3352 32.495-48.5202 0-46.3352-32.495-46.3352-32.495-2.2798 0-6.2358 2.105-12.0028 5.345 0 0 7.3683 40.38 58.4029 40.38 51.4785 0 58.2781-35.895 58.2781-40.38z" fill="#C11A35"/><path d="M413.5843 238.3227c-9.2877 2.2382-19.0646 3.3161-28.7978 2.5926-8.1978-22.369-15.5572-36.883-20.0128-44.7484v270.5774s-21.1022 6.7098-55.8664 11.1104c-.1817-.0197-.363-.0396-.544-.0597 1.8808-54.795 5.7221-166.47 8.2763-240.705 2.0554-59.755 31.0847-95.29 60.099-117.44-2.6753 6.7806-5.0714 14.6063-6.9991 23.6673 7.354 11.8514 24.4358 42.0687 43.8307 94.964.005.014.0097.0277.014.0414zM190.7166 477.7953c-34.2478-4.4014-56.4763-11.051-56.4763-11.051V196.1721c-4.4558 7.8668-11.8138 22.3792-20.0097 44.7432-9.633.716-19.3087-.3323-28.5106-2.5238a1.113 1.113 0 01.0199-.0967c19.3773-52.8475 36.3054-83.0661 43.6098-94.9437-1.929-9.0753-4.3277-16.912-7.0064-23.7011 29.0144 22.15 58.0437 57.685 60.099 117.44 2.5543 74.235 6.3956 185.91 8.2763 240.7053h-.002z" fill-opacity=".1" fill="#000"/><g transform="translate(284.1917 118)"><path d="M24.8083 0C35.582 0 44.9344 6.0847 49.6167 15.0052l-5.3158 2.7851C45.9023 20.8415 46.8083 24.315 46.8083 28c0 12.1503-9.8497 22-22 22-12.1502 0-22-9.8497-22-22 0-3.685.906-7.1585 2.5075-10.2097L0 15.0052C4.6822 6.0847 14.0347 0 24.8083 0z" fill="#F2F2F2"/><path d="M14.5787 14.9326c-1.3719-2.592.5907-6.7397 10-6.7397v6.8283c-5.752 1.669-9.0854 1.6395-10-.0886zm10 .0886V8.193c9.4093 0 11.372 4.1477 10 6.7397-.9146 1.728-4.2479 1.7576-10 .0886z" fill="#7C1321"/><path d="M15.5787 15.9249c2.6667-1.1753 5.6667-1.763 9-1.763 3.3334 0 6.3334.5877 9 1.763l-1.139 1.3249c-2.4615-1.029-5.0814-1.5436-7.8595-1.5436-2.7782 0-5.3943.5145-7.8485 1.5436l-1.153-1.325z" fill="#C09412"/><path d="M24.5787 5.4495c.4143 0 1 .17 1 .3797l-.0909.4698a15.2165 15.2165 0 00-.0704.4198c1.8197.3465 3.205.9838 4.1496 1.8966.3905-.025.9311.0172 1.1014.0421 3.8622.565 5.3581 2.6586 4.397 6.0802-.0608.2164-.3285.3522-.5979.3034-.2693-.0489-.4384-.2638-.3776-.4802.8218-2.9256-.2735-4.5557-3.3705-5.077l-.4814-.0683c.932 1.4024 1.0925 3.2806.4652 5.6013-.0807.2988-.4363.4863-.7941.4189-.3579-.0674-.5825-.3642-.5018-.663 1.0557-3.9053-.2698-6.1385-4.0777-6.9325l-.0009 6.8685c0 .2097-.3357.3796-.75.3796-.3765 0-.6883-.1404-.7418-.3235l-.0082-.0561V7.84c-3.8085.7939-5.1343 3.0271-4.0786 6.9328.0808.2987-.1438.5955-.5017.6629-.3578.0674-.7134-.1201-.7941-.4189-.6253-2.3132-.4678-4.1868.4582-5.5882l-.2067.0145-.0387.0046c-3.2725.4787-4.4425 2.1161-3.6006 5.113.0608.2165-.1083.4314-.3777.4803-.2694.0488-.537-.087-.5978-.3034-.9612-3.4216.5347-5.5152 4.397-6.0802l.149-.016c.2264-.0195.6167-.0399.9633-.0337.9424-.9085 2.3239-1.5428 4.1367-1.8894a20.2244 20.2244 0 00-.1583-.8892c0-.2097.5858-.3797 1-.3797z" fill="#C09412" fill-rule="nonzero"/><path d="M7.9369 28.5073c.2152-3.751 2.2005-7.4405 5.956-11.0684-1.7356 3.4201-2.8354 6.5945-3.2992 9.5231-.8344 5.268 2.98 11.3396 8.5135 13.2432 4.4505 1.5311 4.8524 1.7861 4.476 4.1626-.3763 2.3764-2.0771 3.4966-8.3671-.5186-6.29-4.0151-7.5336-10.9073-7.2792-15.3419zm33.8666-.068c-.2152-3.751-2.2005-7.4405-5.956-11.0683 1.7356 3.42 2.8354 6.5944 3.2992 9.523.8344 5.2681-2.98 11.3396-8.5135 13.2433-4.4505 1.531-4.8525 1.786-4.476 4.1625.3763 2.3764 2.0771 3.4966 8.367-.5186 6.29-4.0151 7.5337-10.9072 7.2793-15.3419z" fill="#7AA372"/><circle fill="#A21027" opacity=".8" cx="24.8083" cy="28" r="10"/></g></g></svg>