<svg xmlns="http://www.w3.org/2000/svg" width="501" height="501" fill="none"><path fill="#330505" fill-rule="evenodd" d="M203.76 109.53h93.64v-87.3h-93.64v87.3Z" clip-rule="evenodd"/><path fill="#58090B" fill-rule="evenodd" d="M203.62 32.53h93.45v-14.2h-93.45v14.2Z" clip-rule="evenodd"/><path fill="#A81918" fill-rule="evenodd" d="M88.3 75.57s-40.76 72.8-58.55 127.77c4.45 13.37 45.21 40.85 85.23 37.88 13.34-36.4 24.46-52 24.46-52s2.97-95.08-51.14-113.65Zm323.92 0s40.77 72.8 58.55 127.77c-4.44 13.37-45.2 40.85-85.23 37.88-13.34-36.4-24.46-52-24.46-52s-2.96-95.08 51.14-113.65Z" clip-rule="evenodd"/><path fill="#A81918" fill-rule="evenodd" d="M250.26 58c-50.08 0-47.8-39.46-48.74-39.13-7.52 2.62-24.13 14.94-52.44 25.5-31.87 11.88-52.62 19.3-60.78 31.2C99.4 84.46 135 104.52 135 195.9v271.14s49.65 14.85 114.88 14.85c68.93 0 115.65-14.85 115.65-14.85V195.9c0-91.38 35.58-111.43 46.7-120.35-8.16-11.88-28.91-19.31-60.79-31.2-28.36-10.57-44.98-22.92-52.48-25.5-.92-.32 4.18 39.15-48.7 39.15Z" clip-rule="evenodd"/><path fill="#EBEBEB" fill-rule="evenodd" d="M469.74 200.04c-.5-1.47-1-2.94-1.53-4.43-9.1 9.84-20.38 18.32-33.8 25.43-13.6 7.2-30.8 11.48-51.6 12.83l1.58 4.13c20.88-1.39 38.15-5.7 51.82-12.94 13.26-7.02 24.44-15.36 33.53-25.02ZM66.18 221c-13.41-7.1-24.67-15.56-33.77-25.4a357.1 357.1 0 0 0-1.53 4.44c9.09 9.65 20.25 17.97 33.5 24.98 13.68 7.25 30.96 11.56 51.86 12.95l1.58-4.13C97 232.49 79.79 228.21 66.18 221Z" clip-rule="evenodd"/><path fill="#8F0F0F" fill-rule="evenodd" d="M308.6 23.65c-5.77-3.24-9.73-5.34-12-5.34 0 0 5.88 32.5-46.34 32.5-48.52 0-46.33-32.5-46.33-32.5-2.28 0-6.24 2.1-12 5.34 0 0 7.36 40.38 58.4 40.38 51.47 0 58.27-35.9 58.27-40.38Z" clip-rule="evenodd"/><path fill="#000" fill-opacity=".06" fill-rule="evenodd" d="M414.34 238.63a93.76 93.76 0 0 1-28.8 2.6c-8.2-22.38-15.56-36.9-20.01-44.76v270.58s-21.1 6.71-55.87 11.11l-.54-.06 8.27-240.7c2.06-59.76 31.09-95.3 60.1-117.44a148.7 148.7 0 0 0-7 23.66c7.36 11.86 24.44 42.07 43.83 94.97l.02.04ZM191.47 478.1c-34.25-4.4-56.48-11.05-56.48-11.05V196.48c-4.45 7.87-11.81 22.38-20 44.74a93.57 93.57 0 0 1-28.52-2.52l.02-.1c19.38-52.85 36.3-83.06 43.61-94.94a148.64 148.64 0 0 0-7-23.7c29.01 22.15 58.04 57.68 60.1 117.44 2.55 74.23 6.4 185.9 8.27 240.7Z" clip-rule="evenodd"/><path fill="#EBEBEB" d="M250.37 64.03c8.21 0 15.29-.91 21.38-2.47a27.74 27.74 0 0 0 4.8-5.95c-6.5 2.35-15.03 3.85-26.25 3.85-11.5 0-20.17-1.83-26.68-4.62a27.53 27.53 0 0 0 4.7 6.2c6.25 1.87 13.54 3 22.05 3Z"/><path fill="#EBEBEB" fill-rule="evenodd" d="M278.95 50.32c-6.74 2.9-15.98 4.81-28.65 4.81-12.87 0-22.18-2.29-28.9-5.65a25.21 25.21 0 0 1-.89-4.79c6.79 3.61 16.34 6.11 29.8 6.11 13.33 0 22.88-2.12 29.7-5.28a25.2 25.2 0 0 1-1.06 4.8Z" clip-rule="evenodd"/><path fill="#A81918" fill-rule="evenodd" d="M288.75 115.3h42v28.1c0 21.21-21 27.9-21 27.9s-21-6.69-21-27.9v-28.1Z" clip-rule="evenodd"/><path fill="#EBEBEB" fill-rule="evenodd" d="M293.49 127.42H326v17.76c0 16.43-16.26 21.61-16.26 21.61s-16.26-5.18-16.26-21.61v-17.76Z" clip-rule="evenodd"/><path fill="#EBEBEB" fill-rule="evenodd" d="M287.25 113.8h45v29.6c0 11.17-5.55 18.54-11.04 23.06a38.34 38.34 0 0 1-10.72 6.18l-.2.07-.06.02h-.02l-.46-1.42-.45 1.43h-.01l-.02-.01-.06-.02-.2-.07a27.57 27.57 0 0 1-3.2-1.36c-2.04-1-4.77-2.56-7.51-4.81-5.5-4.53-11.05-11.9-11.05-23.07v-29.6Zm22.5 57.5-.45 1.44.45.14.46-.14-.46-1.43Zm0-1.58a22.92 22.92 0 0 0 2.63-1.14c1.89-.92 4.4-2.36 6.92-4.43 5-4.13 9.95-10.71 9.95-20.75v-26.6h-39v26.6c0 10.03 4.95 16.62 9.96 20.75a35.28 35.28 0 0 0 9.54 5.57Z" clip-rule="evenodd"/><path fill="#262626" fill-rule="evenodd" d="m313.2 135.13-8 1.6-3.52 6.75 6.5-1.67 4.2 6.84-5.66-.83-4.78 3.49 15 1.28-1.3-11.42-5.57-1.47 3.13-4.57Z" clip-rule="evenodd"/></svg>