<svg xmlns="http://www.w3.org/2000/svg" width="500" height="500" fill="none" viewBox="0 0 500 500"><g clip-path="url(#clip0_5839_4444)"><path fill="#9F9F9F" fill-rule="evenodd" d="M203 109.22h93.65v-87.3H203v87.3Z" clip-rule="evenodd"/><path fill="#303030" fill-rule="evenodd" d="M202.86 32.23h93.46v-14.2h-93.46v14.2Z" clip-rule="evenodd"/><path fill="#F2F2F2" fill-rule="evenodd" d="M87.55 75.26S46.78 148.06 29 203.03c4.44 13.37 45.2 40.86 85.23 37.88 13.34-36.4 24.46-52 24.46-52s2.97-95.08-51.14-113.65M411.47 75.26s40.76 72.8 58.55 127.77c-4.44 13.37-45.2 40.86-85.23 37.88-13.34-36.4-24.46-52-24.46-52s-2.96-95.08 51.14-113.65" clip-rule="evenodd"/><path fill="#3D3D3D" fill-rule="evenodd" d="M249.51 57.7c-50.08 0-47.8-39.47-48.74-39.14-7.52 2.62-24.13 14.94-52.44 25.5-31.87 11.88-52.63 19.31-60.78 31.2 11.11 8.91 46.7 28.97 46.7 120.34v271.14s49.65 14.86 114.88 14.86c68.93 0 115.64-14.86 115.64-14.86V195.6c0-91.37 35.59-111.43 46.7-120.34-8.15-11.89-28.9-19.32-60.78-31.2-28.36-10.58-44.98-22.92-52.48-25.51-.92-.32 4.18 39.15-48.7 39.15Z" clip-rule="evenodd"/><path fill="#3D3D3D" fill-rule="evenodd" d="M467.46 195.3c.94 2.67 1.83 5.3 2.67 7.9-4.45 13.38-45.2 40.86-85.23 37.89a434.6 434.6 0 0 0-2.84-7.52c20.8-1.36 38-5.64 51.6-12.84 13.42-7.1 24.7-15.58 33.8-25.43ZM31.65 195.3c9.1 9.83 20.37 18.3 33.78 25.4 13.6 7.2 30.82 11.48 51.64 12.83-.93 2.4-1.88 4.9-2.84 7.52-40.02 2.98-80.79-24.5-85.23-37.88.84-2.59 1.72-5.21 2.65-7.87Z" clip-rule="evenodd"/><path fill="#F2F2F2" fill-rule="evenodd" d="M265.46 56.27c15.68-3.1 23.75-10.75 27.94-18.37v441.65c-8.7.8-18.04 1.43-27.94 1.77V56.27Zm58.87-23.88a245.77 245.77 0 0 0 26.36 11.66l1.58.59v425.44a384.6 384.6 0 0 1-27.94 5.55V32.39Zm-89.8 448.96c-9.8-.33-19.15-.96-27.94-1.8V37.8c4.48 7.69 12.69 15.44 27.94 18.52v425.03Zm-58.87-5.74a431.73 431.73 0 0 1-27.93-5.43V44.28l.6-.23a246.67 246.67 0 0 0 27.33-12.16v443.72Z" clip-rule="evenodd"/><path fill="#3D3D3D" fill-rule="evenodd" d="M75.02 117.3c10.14-20.75 17.95-35.25 17.95-35.25 7.88-11.88 27.94-19.31 58.75-31.2 19.13-7.38 32.8-15.6 41.77-20.78l-2.14-6.84c-9.25 5.17-23.3 13.34-43.03 20.7-31.86 11.89-52.62 19.31-60.77 31.2 0 0-8.23 14.76-18.86 35.82 0 0-28.7 57.34-39.69 92.08 0 0 .45 1.58 2.12 4.05 1.68 2.47 2.81 3.4 2.81 3.4 12.58-35.53 41.1-93.18 41.1-93.18ZM423.96 117.32c-10.13-20.75-17.95-35.27-17.95-35.27-7.88-11.88-27.94-19.31-58.75-31.2-19.04-7.34-32.37-15.46-41.14-20.6l1.66-6.91C317 28.48 331 36.6 350.65 43.93c31.87 11.89 52.62 19.31 60.78 31.2 0 0 8.23 14.76 18.85 35.82 0 0 27.59 54.46 39.74 92.08 0 0-.74 1.97-1.46 3.09-.72 1.1-2.38 3.18-2.38 3.18-27.64-65.99-42.22-91.98-42.22-91.98Z" clip-rule="evenodd"/><path fill="#3D3D3D" fill-rule="evenodd" d="M307.85 23.34c-5.77-3.23-9.73-5.34-12-5.34 0 0 5.88 32.5-46.34 32.5-48.52 0-46.34-32.5-46.34-32.5-2.28 0-6.23 2.1-12 5.34 0 0 7.37 40.39 58.4 40.39 51.48 0 58.28-35.9 58.28-40.38Z" clip-rule="evenodd"/><path fill="#000" fill-opacity=".1" fill-rule="evenodd" d="M413.58 238.32a93.75 93.75 0 0 1-28.8 2.6c-8.2-22.37-15.55-36.89-20-44.75v270.57s-21.1 6.71-55.87 11.12c-.18-.03-.37-.05-.55-.06l8.28-240.71c2.06-59.75 31.09-95.29 60.1-117.44a148.59 148.59 0 0 0-7 23.67c7.35 11.85 24.44 42.07 43.83 94.96l.01.04ZM190.72 477.8c-34.25-4.4-56.48-11.06-56.48-11.06V196.17c-4.46 7.87-11.81 22.38-20 44.75a93.6 93.6 0 0 1-28.52-2.53l.02-.1c19.38-52.84 36.3-83.06 43.61-94.94a148.74 148.74 0 0 0-7-23.7c29 22.15 58.04 57.69 60.1 117.44l8.27 240.7Z" clip-rule="evenodd"/><path fill="#727272" d="M290.59 137.5c-1.18 6.9 9.93 20.93 17.91 28.5 7.98-7.57 19.1-21.6 17.91-28.5a11 11 0 0 0-5.87-8.09c-.68-.36-1.43-.77-2.29-1.28a17.43 17.43 0 0 1-4.12-3.73c-1.62-1.83-3-3.4-5.63-3.4s-4.01 1.57-5.63 3.4a17.43 17.43 0 0 1-4.12 3.73c-.86.51-1.61.92-2.29 1.28a11 11 0 0 0-5.87 8.09Z"/><path fill="#fff" d="M292.58 138.03c-1.05 6.3 8.83 19.07 15.92 25.97 7.1-6.9 16.97-19.68 15.92-25.97a10 10 0 0 0-5.22-7.36c-.6-.33-1.27-.7-2.03-1.17a15.64 15.64 0 0 1-3.67-3.4c-1.43-1.67-2.66-3.1-5-3.1s-3.57 1.43-5 3.1a15.64 15.64 0 0 1-3.67 3.4c-.76.47-1.43.84-2.03 1.17a10 10 0 0 0-5.22 7.36Z"/><path fill="#CE3738" d="M307.5 163c-6.99-7.07-15.92-18.97-14.92-24.97V138h31.84v.03c1 6-7.93 17.9-14.91 24.97h-2.02Z"/><path fill="#F7D743" d="M294 144.65c-1.14-2.54-1.72-4.84-1.42-6.62V138H294v6.65ZM318 150.4V138h-4v14.7l1.26-.71c.95-.54 1.88-1.07 2.74-1.6ZM310 155.24V138h-4v16.51c.97.65 1.83 1.31 2.5 1.99.44-.43.94-.85 1.5-1.26ZM302 152.12V138h-4v11.77c1.1.72 2.39 1.44 3.7 2.18l.3.17ZM324.42 138.03V138H322v8.67c1.78-3.33 2.8-6.4 2.42-8.64Z"/><path fill="#3D3D3D" d="M321.26 147.99c-1.26 1.3-3.58 2.63-6 4-2.52 1.43-5.14 2.92-6.76 4.51-1.58-1.6-4.24-3.1-6.8-4.55-2.4-1.35-4.7-2.65-5.95-3.94 3.3 5.67 8.52 11.88 12.75 15.99 4.23-4.12 9.46-10.33 12.76-16.01Z"/></g><defs><clipPath id="clip0_5839_4444"><path fill="#fff" d="M0 0h500v500H0z"/></clipPath></defs></svg>