<?xml version="1.0" encoding="utf-8"?><svg width="500" height="500" viewBox="0 0 500 500" fill="none" xmlns="http://www.w3.org/2000/svg"><path fill-rule="evenodd" clip-rule="evenodd" d="M203.006 109.193h93.643V21.8979h-93.643v87.2951z" fill="#B52E2E"/><path fill-rule="evenodd" clip-rule="evenodd" d="M202.866 32.198h93.459v-14.2h-93.459v14.2z" fill="#D53737"/><path fill-rule="evenodd" clip-rule="evenodd" d="M87.5505 75.26s-40.7628 72.8-58.5476 127.77c4.445 13.375 45.2078 40.86 85.2321 37.885 13.34-36.4 24.46-52 24.46-52S141.658 93.83 87.5505 75.26zm323.9255 0s40.763 72.8 58.547 127.77c-4.445 13.375-45.207 40.86-85.232 37.885-13.34-36.4-24.459-52-24.459-52S357.368 93.83 411.476 75.26z" fill="#E23636"/><path fill-rule="evenodd" clip-rule="evenodd" d="M249.514 57.7057c-50.081 0-47.798-39.4691-48.742-39.14-7.516 2.6186-24.133 14.9368-52.439 25.495-31.873 11.885-52.6257 19.315-60.7822 31.2 11.1148 8.915 46.6942 28.9703 46.6942 120.3453v271.14s49.658 14.855 114.885 14.855c68.929 0 115.649-14.855 115.649-14.855v-271.14c0-91.375 35.579-111.4303 46.699-120.3453-8.157-11.885-28.91-19.315-60.783-31.2-28.359-10.5767-44.981-22.9195-52.478-25.5087-.927-.3203 4.178 39.1537-48.703 39.1537z" fill="#E23636"/><path fill-rule="evenodd" clip-rule="evenodd" d="M285 47.8032V480.227a480.425 480.425 0 01-35.87 1.341c-11.971 0-23.418-.501-34.13-1.318V47.5918c7.119 5.7652 17.954 10.0808 34.514 10.0808 17.27 0 28.355-4.2102 35.486-9.8694zM467.462 195.302c.936 2.667 1.827 5.303 2.667 7.9-4.445 13.375-45.208 40.86-85.232 37.885-.958-2.614-1.904-5.12-2.835-7.52 20.795-1.358 37.993-5.637 51.594-12.837 13.428-7.109 24.697-15.585 33.806-25.428zm-435.8073 0c9.1031 9.828 20.3606 18.291 33.7724 25.392 13.6109 7.205 30.8241 11.485 51.6389 12.84-.931 2.399-1.877 4.904-2.834 7.516-40.0243 2.975-80.7871-24.51-85.232-37.885.8363-2.584 1.7234-5.209 2.6547-7.863z" fill="#E9D04B"/><path fill-rule="evenodd" clip-rule="evenodd" d="M249.577 63.7516c51.478 0 58.278-35.895 58.278-40.38-5.772-3.24-9.728-5.345-12.008-5.345 0 0 5.882 32.495-46.335 32.495-48.52 0-46.335-32.495-46.335-32.495-2.28 0-6.236 2.105-12.003 5.345 0 0 7.368 40.38 58.403 40.38z" fill="#E23636"/><path fill-rule="evenodd" clip-rule="evenodd" d="M413.585 238.323c-9.288 2.238-19.065 3.316-28.798 2.592-8.198-22.369-15.557-36.883-20.013-44.748v270.577s-21.102 6.71-55.866 11.111l-.544-.06c1.881-54.795 5.722-166.47 8.276-240.705 2.056-59.755 31.085-95.29 60.099-117.44-2.675 6.781-5.071 14.606-6.999 23.667 7.354 11.852 24.436 42.069 43.831 94.964.005.014.01.028.014.042zM190.717 477.795c-34.248-4.401-56.476-11.051-56.476-11.051V196.172c-4.456 7.867-11.814 22.379-20.01 44.743-9.633.716-19.3084-.332-28.5103-2.524a1.056 1.056 0 01.0199-.096c19.3774-52.848 36.3054-83.066 43.6094-94.944-1.929-9.075-4.327-16.912-7.006-23.701 29.014 22.15 58.044 57.685 60.099 117.44 2.554 74.235 6.396 185.91 8.276 240.705h-.002z" fill="#000" fill-opacity=".1"/><path d="M309 164c-.487-.477-3.118-1.909-5.847-.477-2.717 1.425-7.795-.537-9.257-4.296-2.082-5.353.145-8.972 2.115-12.174 1.257-2.043 2.41-3.917 2.271-5.962-.39-5.727-4.386-12.25-6.335-14.796l4.385-2.386 1.949 2.386c.975-.477 1.949-.715 3.411-.954l-.488-2.864 4.873-.477.797 3.102s.664-.238 2.126-.238c1.462 0 2.158.238 2.158.238l.765-3.102 4.872.477-.487 2.864c1.462.239 2.436.477 3.411.954l1.949-2.386 4.385 2.386c-1.95 2.546-5.945 9.069-6.335 14.796-.139 2.045 1.013 3.919 2.271 5.962 1.97 3.202 4.196 6.821 2.115 12.174-1.462 3.759-6.541 5.721-9.257 4.296-2.729-1.432-5.36 0-5.847.477z" fill="#EED968"/><ellipse cx="309" cy="150.636" rx="11.3684" ry="7.6364" fill="#E83939"/><rect x="302.368" y="136.318" width="13.2632" height="11.4545" rx="4" fill="#3D3D3D"/><path fill-rule="evenodd" clip-rule="evenodd" d="M308.999 156.364c2.616 0 4.736-2.137 4.736-4.773 0-2.636-2.12-4.773-4.736-4.773-2.617 0-4.737 2.137-4.737 4.773 0 2.636 2.12 4.773 4.737 4.773z" fill="#F2F2F2"/><path d="M308.993 150.398l-1.179.775.474 1.611h1.421l.474-1.611-1.19-.775z" fill="#282828"/><path fill-rule="evenodd" clip-rule="evenodd" d="M308.999 156.364c2.616 0 4.736-2.137 4.736-4.773 0-2.636-2.12-4.773-4.736-4.773-2.617 0-4.737 2.137-4.737 4.773 0 2.636 2.12 4.773 4.737 4.773zm4.21-4.773c0 .893-.274 1.721-.741 2.405l-.23-.645-1.008.484-.486 1.022.653.222c-.681.476-1.507.755-2.398.755-.89 0-1.716-.279-2.396-.754l.65-.223-.486-1.022-1.008-.484-.224.653c-.471-.685-.747-1.517-.747-2.413 0-.324.036-.64.105-.943l.366.556.849-.73.208-1.114-.82-.124c.627-.945 1.621-1.622 2.776-1.824l-.326.789 1.061.376 1.052-.376-.317-.786c1.148.206 2.135.881 2.759 1.821l-.938.124.207 1.114.85.73.487-.547c.067.301.102.613.102.934z" fill="#282828"/><path fill-rule="evenodd" clip-rule="evenodd" d="M298.281 126.295l-1.949-2.386-4.385 2.386c.176.23.368.491.572.781 2.068 2.933 5.408 8.803 5.763 14.015.139 2.045-1.014 3.919-2.271 5.962-1.97 3.202-4.197 6.821-2.115 12.174 1.462 3.759 6.54 5.721 9.257 4.296 2.729-1.432 5.36 0 5.847.477.487-.477 3.118-1.909 5.847-.477 2.716 1.425 7.795-.537 9.257-4.296 2.081-5.353-.145-8.972-2.115-12.174-1.258-2.043-2.41-3.917-2.271-5.962.355-5.212 3.695-11.082 5.763-14.015.204-.29.396-.551.572-.781l-4.385-2.386-1.949 2.386c-.975-.477-1.949-.715-3.411-.954l.487-2.864-4.872-.477-.765 3.102s-.14-.048-.427-.101c-.352-.065-.925-.137-1.731-.137-.819 0-1.387.074-1.729.14-.269.052-.397.098-.397.098l-.797-3.102-4.873.477.488 2.864c-1.462.239-2.436.477-3.411.954zm4.056-2.969l.476 2.8-.961.156c-1.43.234-2.291.454-3.135.867l-.705.345-1.926-2.359-2.711 1.475c.952 1.36 2.143 3.29 3.205 5.481 1.315 2.714 2.468 5.902 2.674 8.936.16 2.348-1.134 4.45-2.325 6.384-.028.045-.056.09-.083.135-1.968 3.198-3.941 6.451-2.039 11.341.619 1.592 2.033 2.857 3.644 3.56 1.639.716 3.248.756 4.242.234 1.616-.848 3.207-.844 4.442-.566.736.166 1.383.437 1.865.714.482-.277 1.129-.548 1.864-.714 1.236-.278 2.827-.282 4.443.566.994.522 2.603.482 4.242-.234 1.611-.703 3.025-1.968 3.644-3.56 1.902-4.89-.071-8.143-2.039-11.341-.028-.045-.055-.09-.083-.135-1.191-1.934-2.485-4.036-2.325-6.384.206-3.034 1.359-6.222 2.674-8.936 1.062-2.191 2.252-4.121 3.205-5.481l-2.711-1.475-1.927 2.359-.704-.345c-.844-.413-1.705-.633-3.135-.867l-.961-.156.476-2.8-2.992-.293-.819 3.318-1.007-.345-.003-.001c-.009-.002-.029-.008-.06-.016-.062-.016-.168-.04-.319-.065-.302-.051-.787-.106-1.463-.106-.677 0-1.152.055-1.444.105-.146.025-.246.049-.303.064-.029.007-.047.013-.054.015l-1.006.361-.856-3.331-3 .294z" fill="#000"/><path d="M292.895 130.591s9.772-1.909 16.105-1.909 16.105 1.909 16.105 1.909l-.947 3.341s-8.825-1.909-15.158-1.909-15.158 1.909-15.158 1.909l-.947-3.341zM291 158.099s10.922 2.083 18 2.083c7.078 0 18-2.083 18-2.083l-1.059-3.644s-9.863 2.082-16.941 2.082c-7.078 0-16.941-2.082-16.941-2.082L291 158.099z" fill="#B9B9B9"/></svg>