<svg xmlns="http://www.w3.org/2000/svg" width="501" height="501" fill="none"><path fill="#9A0000" fill-rule="evenodd" d="M204 109.96h93.63v-87.3H204v87.3Z" clip-rule="evenodd"/><path fill="#700000" fill-rule="evenodd" d="M203.85 32.97h93.46v-14.2h-93.46v14.2Z" clip-rule="evenodd"/><path fill="#E21824" fill-rule="evenodd" d="M88.54 76s-40.77 72.8-58.55 127.77c4.44 13.37 45.2 40.86 85.23 37.88 13.34-36.4 24.46-52 24.46-52S142.64 94.57 88.54 76Zm323.92 0s40.76 72.8 58.55 127.77c-4.45 13.37-45.21 40.86-85.23 37.88-13.34-36.4-24.46-52-24.46-52S358.35 94.57 412.46 76Z" clip-rule="evenodd"/><path fill="#E21824" fill-rule="evenodd" d="M250.5 58.44c-50.08 0-47.8-39.47-48.74-39.14-7.52 2.62-24.14 14.94-52.44 25.5C117.44 56.67 96.69 64.1 88.54 76c11.11 8.91 46.69 28.97 46.69 120.34v271.14s49.66 14.85 114.89 14.85c68.92 0 115.64-14.85 115.64-14.85V196.34c0-91.38 35.58-111.43 46.7-120.35-8.15-11.88-28.9-19.31-60.78-31.2-28.36-10.57-44.98-22.91-52.48-25.5-.93-.32 4.18 39.15-48.7 39.15Z" clip-rule="evenodd"/><path fill="#CB1620" fill-rule="evenodd" d="M308.84 24.08c-5.77-3.24-9.73-5.34-12-5.34 0 0 5.87 32.5-46.34 32.5-48.52 0-46.34-32.5-46.34-32.5-2.28 0-6.23 2.1-12 5.34 0 0 7.37 40.38 58.4 40.38 51.48 0 58.28-35.9 58.28-40.38Z" clip-rule="evenodd"/><path fill="#000" fill-opacity=".1" fill-rule="evenodd" d="M414.57 239.06a93.73 93.73 0 0 1-28.8 2.6c-8.2-22.38-15.55-36.89-20-44.75v270.57s-21.1 6.71-55.87 11.11l-.55-.06 8.28-240.7c2.05-59.76 31.08-95.3 60.1-117.44a148.55 148.55 0 0 0-7 23.67c7.35 11.85 24.43 42.06 43.83 94.96a1 1 0 0 1 .01.04ZM191.71 478.53c-34.25-4.4-56.48-11.05-56.48-11.05V196.91c-4.46 7.87-11.81 22.38-20.01 44.74a93.6 93.6 0 0 1-28.51-2.52l.02-.1c19.38-52.84 36.3-83.06 43.6-94.94a148.63 148.63 0 0 0-7-23.7c29.02 22.15 58.05 57.68 60.1 117.44l8.28 240.7Z" clip-rule="evenodd"/><path fill="#F2F2F2" fill-rule="evenodd" d="M309.99 165.74a22 22 0 1 0 0-44 22 22 0 0 0 0 44Z" clip-rule="evenodd"/><path fill="#E21824" fill-rule="evenodd" d="M309.99 163.87a20.14 20.14 0 1 0 0-40.27 20.14 20.14 0 0 0 0 40.27Z" clip-rule="evenodd"/><path fill="#F2F2F2" fill-rule="evenodd" d="M309.99 159.8a16.06 16.06 0 1 0 0-32.13 16.06 16.06 0 0 0 0 32.13Z" clip-rule="evenodd"/><path fill="#E21824" fill-rule="evenodd" d="M309.99 157.39a13.65 13.65 0 1 0 0-27.3 13.65 13.65 0 0 0 0 27.3Z" clip-rule="evenodd"/><path fill="#F2F2F2" fill-rule="evenodd" d="m314.9 143.84-16.05-8.75.53-1.46 18.99 10-18.42 10.75-.93-1.24 15.89-9.3Z" clip-rule="evenodd"/></svg>