<?xml version="1.0" encoding="UTF-8"?><svg height="500" viewBox="0 0 500 500" width="500" xmlns="http://www.w3.org/2000/svg"><g fill="none" fill-rule="evenodd"><path d="M0 0h500v500H0z"/><path d="M203.006 109.193h93.643V21.898h-93.643z" fill="#004c92"/><path d="M202.867 32.198h93.458v-14.2h-93.458z" fill="#003a63"/><g fill="#00519c"><path d="M87.548 75.26S46.785 148.06 29 203.03c4.445 13.375 45.208 40.86 85.232 37.885 13.34-36.4 24.46-52 24.46-52S141.655 93.83 87.548 75.26M411.473 75.26s40.763 72.8 58.548 127.77c-4.445 13.375-45.208 40.86-85.232 37.885-13.34-36.4-24.46-52-24.46-52S357.366 93.83 411.473 75.26"/><path d="M249.514 57.706c-50.082 0-47.799-39.47-48.743-39.14-7.516 2.618-24.133 14.936-52.439 25.495-31.872 11.885-52.625 19.315-60.782 31.2 11.115 8.915 46.694 28.97 46.694 120.345v271.14S183.902 481.6 249.13 481.6c68.93 0 115.649-14.855 115.649-14.855v-271.14c0-91.375 35.58-111.43 46.7-120.345-8.157-11.885-28.91-19.315-60.783-31.2-28.36-10.577-44.982-22.92-52.478-25.511-.928-.318 4.177 39.156-48.703 39.156z"/></g><path d="M285.42 47.464c14.243-11.672 12.179-29.16 12.797-28.949 7.496 2.593 24.118 14.936 52.478 25.512l4.567 1.702v423.593c-12.65 3.17-37.258 8.403-69.842 10.873zM213.582 480.14c-31.788-2.523-56.939-7.796-69.842-10.931V45.739l4.593-1.711c28.306-10.559 44.923-22.877 52.439-25.498.61-.21-.129 16.215 12.81 27.852z" fill="#f2f2f2"/><path d="M75.028 117.27C85.16 96.52 92.972 82.025 92.972 82.025c7.882-11.885 27.937-19.315 58.747-31.2 19.058-7.355 32.687-15.541 41.664-20.717l-2.186-6.878c-9.249 5.193-23.25 13.354-42.87 20.67-31.868 11.89-52.62 19.315-60.772 31.2 0 0-8.232 14.76-18.858 35.825-19.137 38.222-32.368 68.914-39.694 92.074.3 1.058 1.008 2.41 2.123 4.055 1.115 1.645 2.05 2.777 2.807 3.396 8.386-23.684 22.084-54.744 41.095-93.18zM423.955 117.27c-10.132-20.75-17.945-35.245-17.945-35.245-7.882-11.885-27.936-19.315-58.747-31.2-18.914-7.3-32.196-15.36-40.972-20.502l1.5-7.057c9.237 5.172 23.231 13.313 42.865 20.634 31.867 11.89 52.62 19.315 60.772 31.2 0 0 8.231 14.76 18.857 35.825 18.39 36.304 31.635 66.995 39.738 92.074-.491 1.316-.977 2.346-1.457 3.087-.481.742-1.276 1.804-2.385 3.188-18.428-43.992-32.503-74.66-42.226-92.004z" fill="#f2f2f2"/><path d="M249.576 63.752c51.479 0 58.279-35.895 58.279-40.38-5.772-3.24-9.728-5.345-12.008-5.345 0 0 5.881 32.495-46.335 32.495-48.52 0-46.336-32.495-46.336-32.495-2.28 0-6.235 2.105-12.002 5.345 0 0 7.368 40.38 58.402 40.38" fill="#003a63"/><g transform="translate(287 121)"><circle cx="22" cy="22" fill="#e30b00" r="22"/><circle cx="22" cy="22" fill="#fff" r="15"/><path d="M16.7 36.037l19.337-19.338C36.659 18.347 37 20.134 37 22c0 .506-.025 1.006-.074 1.5L23.5 36.926A15.18 15.18 0 0 1 22 37c-1.866 0-3.653-.34-5.3-.963zm-3.057-1.579a15.084 15.084 0 0 1-3.892-3.798l20.91-20.909a15.084 15.084 0 0 1 3.797 3.892zm-5.535-6.79a14.957 14.957 0 0 1-1.079-6.61L21.057 7.028a14.957 14.957 0 0 1 6.61 1.079z" fill="#007dcb"/></g><path d="M413.584 238.323c-9.287 2.238-19.064 3.316-28.798 2.592-8.197-22.369-15.557-36.883-20.012-44.748v270.577s-21.102 6.71-55.867 11.11l-.544-.059c1.881-54.795 5.722-166.47 8.277-240.705 2.055-59.755 31.084-95.29 60.099-117.44-2.676 6.78-5.072 14.606-7 23.667 7.354 11.852 24.436 42.069 43.831 94.964l.014.042zM190.717 477.795c-34.248-4.401-56.477-11.05-56.477-11.05V196.171c-4.456 7.867-11.813 22.38-20.01 44.743-9.632.716-19.308-.332-28.51-2.523.005-.033.012-.065.02-.097 19.377-52.848 36.305-83.066 43.61-94.944-1.93-9.075-4.328-16.912-7.007-23.701 29.015 22.15 58.044 57.685 60.1 117.44 2.554 74.235 6.395 185.91 8.276 240.705z" fill="#000" fill-opacity=".06"/></g></svg>