<?xml version="1.0" encoding="UTF-8"?><svg height="500" viewBox="0 0 500 500" width="500" xmlns="http://www.w3.org/2000/svg"><g fill="none" fill-rule="evenodd"><path d="M0 0h500v500H0z"/><path d="M203.006 109.193h93.643V21.898h-93.643z" fill="#14749d"/><path d="M202.867 32.198h93.458v-14.2h-93.458z" fill="#61162a"/><g fill="#1d9ace"><path d="M87.55 75.26s-40.762 72.8-58.547 127.77c4.445 13.375 45.208 40.86 85.232 37.885 13.34-36.4 24.46-52 24.46-52S141.658 93.83 87.55 75.26M411.476 75.26s40.762 72.8 58.547 127.77c-4.445 13.375-45.208 40.86-85.232 37.885-13.34-36.4-24.46-52-24.46-52S357.368 93.83 411.476 75.26"/><path d="M249.514 57.706c-50.082 0-47.798-39.47-48.742-39.14-7.516 2.618-24.133 14.936-52.439 25.495-31.873 11.885-52.626 19.315-60.782 31.2 11.114 8.915 46.694 28.97 46.694 120.345v271.14S183.903 481.6 249.13 481.6c68.929 0 115.648-14.855 115.648-14.855v-271.14c0-91.375 35.58-111.43 46.7-120.345-8.157-11.885-28.91-19.315-60.783-31.2-28.36-10.577-44.982-22.92-52.478-25.511-.927-.318 4.177 39.156-48.703 39.156z"/></g><path d="M219 50.415v430.123c-22.214-1.502-41.477-4.415-56-7.182V37.996c19.534-8.794 31.66-17.334 37.772-19.466.685-.236-.33 20.503 18.228 31.885zm118-11.983v434.917c-14.19 2.752-33.278 5.65-56 7.16V50.556c19.071-11.353 16.541-32.271 17.217-32.041 6.198 2.144 18.633 10.952 38.783 19.917zM467.461 195.302a338.826 338.826 0 0 1 2.668 7.9c-4.445 13.375-45.208 40.86-85.232 37.885a426.405 426.405 0 0 0-2.836-7.52c20.795-1.358 37.993-5.637 51.595-12.837 13.428-7.11 24.696-15.585 33.805-25.428zM31.655 195.302c9.103 9.828 20.36 18.291 33.772 25.392 13.611 7.205 30.824 11.485 51.64 12.84a426.42 426.42 0 0 0-2.835 7.516C74.208 244.025 33.445 216.54 29 203.165c.836-2.584 1.723-5.209 2.655-7.863z" fill="#802039"/><path d="M249.576 63.752c51.479 0 58.279-35.895 58.279-40.38-5.772-3.24-9.728-5.345-12.008-5.345 0 0 5.881 32.495-46.335 32.495-48.52 0-46.336-32.495-46.336-32.495-2.28 0-6.235 2.105-12.002 5.345 0 0 7.368 40.38 58.402 40.38" fill="#6d1a30"/><path d="M309 166c8.837 0 16-6.716 16-15v-29c-1.994 1.333-4.064 2-6.21 2-3.712 0-10.974-4-17.257-4-4.188 0-7.032.667-8.533 2v29c0 8.284 7.163 15 16 15z" fill="#1eb0ec"/><path d="M309 164c7.732 0 14-6.132 14-13.696V124.74a16.38 16.38 0 0 1-5.434.913c-3.248 0-9.602-3.652-15.1-3.652-3.664 0-6.153.457-7.466 1.37v26.934c0 7.564 6.268 13.696 14 13.696z" fill="#681637"/><path d="M294.764 136c2.845-1.333 5.257-2 7.236-2 4.8 0 12.275 3.693 15.011 3.693 1.824 0 3.892-.731 6.205-2.193v2.5c-2.31 1.542-4.379 2.313-6.205 2.313-2.739 0-12.007-2.313-15.011-2.313-1.98 0-4.392.667-7.236 2z" fill="#1eb0ec"/><path d="M309 116l-2.351 1.236.449-2.618-1.902-1.854 2.628-.382L309 110l1.176 2.382 2.628.382-1.902 1.854.45 2.618z" fill="#dac979"/><path d="M309 163.022c7.157 0 12.012-5.23 12.012-10.969 0-2.807-3.5-4.93-5.623-5.989-2.446-1.219-1.58-3.05-.857-3.427.483-.252 1.157-.252 2.022 0l-1.165-1.824c-3.248-4.782-18.371 1.906-18.371 10.27 0 6.348 4.825 11.94 11.982 11.94zm3.913-15.857c2.183 1.296 4.146 2.679 4.826 4.085 1.39 2.877-1.223 7.546-7.07 7.546-4.901 0-8.553-2.943-8.553-7.84 0-3.112 1.435-5.124 4.613-7.096 2.727-1.693 2.955-1.845 5.085-2.318-.688 1.49-1.085 4.326 1.099 5.623z" fill="#1eb0ec" fill-rule="nonzero"/><path d="M413.584 238.323c-9.287 2.238-19.064 3.316-28.798 2.592-8.197-22.369-15.557-36.883-20.012-44.748v270.577s-21.102 6.71-55.867 11.11l-.544-.059c1.881-54.795 5.722-166.47 8.277-240.705 2.055-59.755 31.084-95.29 60.099-117.44-2.676 6.78-5.072 14.606-7 23.667 7.354 11.852 24.436 42.069 43.831 94.964l.014.042zM190.717 477.795c-34.248-4.401-56.477-11.05-56.477-11.05V196.171c-4.456 7.867-11.813 22.38-20.01 44.743-9.632.716-19.308-.332-28.51-2.523.005-.033.012-.065.02-.097 19.377-52.848 36.305-83.066 43.61-94.944-1.93-9.075-4.328-16.912-7.007-23.701 29.015 22.15 58.044 57.685 60.1 117.44 2.554 74.235 6.395 185.91 8.276 240.705z" fill="#000" fill-opacity=".1"/></g></svg>