<?xml version="1.0" encoding="UTF-8"?><svg height="500" viewBox="0 0 500 500" width="500" xmlns="http://www.w3.org/2000/svg"><g fill="none" fill-rule="evenodd"><path d="M0 0h500v500H0z"/><path d="M203.086 109.195h93.643V21.9h-93.643z" fill="#d9d9d9"/><path d="M202.946 32.2h93.459V18h-93.459z" fill="#e3e3e3"/><g fill="#f2f2f2"><path d="M87.548 75.26S46.785 148.06 29 203.03c4.445 13.375 45.208 40.86 85.232 37.885 13.34-36.4 24.46-52 24.46-52S141.655 93.83 87.548 75.26M411.473 75.26s40.763 72.8 58.548 127.77c-4.445 13.375-45.208 40.86-85.232 37.885-13.34-36.4-24.46-52-24.46-52S357.366 93.83 411.473 75.26"/><path d="M249.514 57.706c-50.082 0-47.799-39.47-48.743-39.14-7.516 2.618-24.133 14.936-52.439 25.495-31.872 11.885-52.625 19.315-60.782 31.2 11.115 8.915 46.694 28.97 46.694 120.345v271.14S183.902 481.6 249.13 481.6c68.93 0 115.649-14.855 115.649-14.855v-271.14c0-91.375 35.58-111.43 46.7-120.345-8.157-11.885-28.91-19.315-60.783-31.2-28.36-10.577-44.982-22.92-52.478-25.511-.928-.318 4.177 39.156-48.703 39.156z"/></g><path d="M352.348 470.031c-.826.207-1.69.419-2.589.635-8.774 2.026-21.113 4.497-36.323 6.574V26.467c9.004 5.028 21.293 11.578 37.339 17.562l1.573.587zm-181.52 4.733a404.24 404.24 0 0 1-23.017-4.871V44.253l.602-.224c16.63-6.202 29.225-13.013 38.31-18.107v451.301a469.067 469.067 0 0 1-15.894-2.46zm98.708 6.375a480.74 480.74 0 0 1-20.326.43c-6.354 0-12.56-.14-18.586-.395V55.002h38.912zM467.461 195.302a338.826 338.826 0 0 1 2.668 7.9c-4.445 13.375-45.208 40.86-85.232 37.885a426.405 426.405 0 0 0-2.836-7.52c20.795-1.358 37.993-5.637 51.595-12.837 13.428-7.11 24.696-15.585 33.805-25.428zM31.655 195.302c9.103 9.828 20.36 18.291 33.772 25.392 13.611 7.205 30.824 11.485 51.64 12.84a426.42 426.42 0 0 0-2.835 7.516C74.208 244.025 33.445 216.54 29 203.165c.836-2.584 1.723-5.209 2.655-7.863z" fill="#0067be"/><path d="M249.656 63.754c51.479 0 58.278-35.895 58.278-40.38-5.772-3.24-9.728-5.345-12.007-5.345 0 0 5.881 32.495-46.336 32.495-48.52 0-46.335-32.495-46.335-32.495-2.28 0-6.236 2.105-12.003 5.345 0 0 7.369 40.38 58.403 40.38" fill="#f2f2f2"/><path d="M95.641 78.737a26.734 26.734 0 0 0-2.589 3.29s-7.812 14.495-17.944 35.245c-19.011 38.436-32.71 69.496-41.096 93.18a5.64 5.64 0 0 1-.179-.153c-2.407-2.671-4.041-5.165-4.75-7.299 7.031-21.733 17.655-46.253 27.93-67.96.986-2.08 1.992-4.186 3.02-6.32C74.584 98.53 87.63 75.23 87.63 75.23a53.147 53.147 0 0 1 8.011 3.507zM420.099 91.034a1215.077 1215.077 0 0 1 10.266 19.893c.693 1.368 1.379 2.728 2.057 4.08 12.76 25.548 28.37 59.214 37.681 87.993-.17.458-.341.882-.51 1.27-.52 1.11-1.254 2.3-2.186 3.544-.204.267-.425.552-.664.855-.158.197-.32.395-.488.594-18.425-43.985-32.498-74.648-42.22-91.991-10.133-20.75-17.945-35.245-17.945-35.245a26.719 26.719 0 0 0-2.574-3.274 53.147 53.147 0 0 1 8.04-3.522s3.347 5.978 8.543 15.803z" fill="#0067be"/><g fill-rule="nonzero"><path d="M316.954 123.416c1.902 2.393 2.211 4.905 1.902 6.88-.206 1.318-1.34 2.043-3.4 2.176v1.656c4.239 2.236 7.032 6.647 7.032 11.724 0 .828-.077 1.638-.224 2.423.097.06 2.303 1.284 3.185 2.244 1.027 1.03 3.84 4.441 4.551 5.07-2.277.586-4.142 1.556-6.07 2.703l4.932 4.948-1.952 1.268-4.827-4.942c-.354.232-7.527 5.434-11.258 5.434-3.731 0-4.025-.11-5.738-1.042-1.712-.933-3.435-3.324-5.485-4.13-1.628-.65-2.478-1.718-3.244-2.964l-.007-.013a9.342 9.342 0 0 0-1.031-1.573c-1.014-1.274-2.224-2.45-3.607-3.33-.9-.574-1.371-1.013-1.735-2.03-.264-.738-.61-1.445-.882-2.183-.2-.54-.374-1.07-.5-1.533-.42-1.557-.226-3.146.107-4.706.133-.62.268-1.252.339-1.93a5.133 5.133 0 0 0-.193-2.097c-1.122-3.59-.228-7.663.667-11.273-1.33.25-2.006-1.446-1.105-2.399l.686-.725c1.265-1.336 3.142.21 2.226 1.615l9.818 10.415c.5-.36.933-.685 1.482-.974v-1.656c-1.852-.254-2.859-.979-3.02-2.175-.237-1.744 0-4.764 1.538-6.881 1.753-2.413 4.106-2.416 7.859-2.416s6.052.023 7.954 2.416zm-19.623 15.898a13.352 13.352 0 0 1 2.087-2.741l-9.432-9.99a23.527 23.527 0 0 0 2.035 5.185c1.442 2.717 3.307 5.208 5.31 7.546z" fill="#e6a514"/><g fill="#143c8b"><path d="M295.726 145.81c0-2.19.346-3.516 1.274-5.336-.573-.685-4.044-4.986-5.548-7.701-.725-1.31-1.247-2.366-1.809-4.773-.236.891-.643 2.79-.643 5.474s.778 4.15.83 4.98c.117 1.88-.57 2.182-.661 5.852-.09 3.67 5.658 6.365 7.599 6.694a13.356 13.356 0 0 1-1.042-5.19z"/><path d="M292.5 150.824c1.176.953 2.777 2.401 4.164 4.147 1.388 1.746 2.876 4.013 4.667 4.255 1.79.242 2.433 2.617 4.293 3.609 1.86.992 2.238 1.165 4.137 1.165 2.672 0 7.336-2.884 8.878-3.946 1.542-1.063 6.583-4.405 8.861-4.88-2.9-2.75-2.565-2.923-3.857-4.098-1.292-1.175-2.783-1.6-3.751-3.046-.737-1.101-2.375-2.716-2.617-3.03-2.01-.02-3.978.524-5.777 1.42a21.472 21.472 0 0 0-4.015 2.62c-1.315 1.076-4.264 3.615-7.252 3.847-1.558.12-3.14-.015-4.452-.466-1.419-.46-2.765-1.328-3.279-1.597z"/></g></g><path d="M413.584 238.323c-9.287 2.238-19.064 3.316-28.798 2.592-8.197-22.369-15.557-36.883-20.012-44.748v270.577s-21.102 6.71-55.867 11.11l-.544-.059c1.881-54.795 5.722-166.47 8.277-240.705 2.055-59.755 31.084-95.29 60.099-117.44-2.676 6.78-5.072 14.606-7 23.667 7.354 11.852 24.436 42.069 43.831 94.964l.014.042zM190.717 477.795c-34.248-4.401-56.477-11.05-56.477-11.05V196.171c-4.456 7.867-11.813 22.38-20.01 44.743-9.632.716-19.308-.332-28.51-2.523.005-.033.012-.065.02-.097 19.377-52.848 36.305-83.066 43.61-94.944-1.93-9.075-4.328-16.912-7.007-23.701 29.015 22.15 58.044 57.685 60.1 117.44 2.554 74.235 6.395 185.91 8.276 240.705z" fill="#000" fill-opacity=".1"/></g></svg>