<?xml version="1.0" encoding="UTF-8"?><svg height="500" viewBox="0 0 500 500" width="500" xmlns="http://www.w3.org/2000/svg"><g fill="none" fill-rule="evenodd"><path d="M0 0h500v500H0z"/><path d="M203.212 109.578h93.643V22.47h-93.643z" fill="#112e5d"/><path d="M203.072 32.748h93.459v-14.17h-93.459z" fill="#cb1c22"/><path d="M87.548 75.26S46.785 148.06 29 203.03c4.445 13.375 45.208 40.86 85.232 37.885 13.34-36.4 24.46-52 24.46-52S141.655 93.83 87.548 75.26M411.473 75.26s40.763 72.8 58.548 127.77c-4.445 13.375-45.208 40.86-85.232 37.885-13.34-36.4-24.46-52-24.46-52S357.366 93.83 411.473 75.26" fill="#143468"/><path d="M467.461 195.302a338.826 338.826 0 0 1 2.668 7.9c-4.445 13.375-45.208 40.86-85.232 37.885a426.405 426.405 0 0 0-2.836-7.52c20.795-1.358 37.993-5.637 51.595-12.837 13.428-7.11 24.696-15.585 33.805-25.428zM31.655 195.302c9.103 9.828 20.36 18.291 33.772 25.392 13.611 7.205 30.824 11.485 51.64 12.84a426.42 426.42 0 0 0-2.835 7.516C74.208 244.025 33.445 216.54 29 203.165c.836-2.584 1.723-5.209 2.655-7.863z" fill="#d33940"/><path d="M249.514 57.621c-50.082 0-47.799-39.384-48.743-39.055-7.516 2.613-24.133 14.904-52.439 25.44-31.872 11.86-52.625 19.273-60.782 31.133 11.115 8.895 46.694 28.907 46.694 120.086v270.557s49.658 14.823 114.885 14.823c68.93 0 115.649-14.823 115.649-14.823V195.225c0-91.179 35.58-111.19 46.7-120.086-8.157-11.86-28.91-19.274-60.783-31.133-28.36-10.554-44.982-22.87-52.478-25.456-.928-.318 4.177 39.071-48.703 39.071z" fill="#143468"/><g fill="#d33940"><path d="M282.632 50.176c17.517-11.495 15.132-31.305 15.79-31.081 3.19 1.102 8.033 3.964 14.728 7.702l34.335 31.698v412.32c-14.309 3.187-36.742 7.234-64.853 9.184zm-63.855 429.919c-27.155-1.857-49.867-5.812-64.854-9.008V58.495l37.391-34.519c4.143-2.322 7.338-4.056 9.663-4.866.68-.234-.314 20.139 17.8 31.55z"/><path d="M249.782 64.234c51.479 0 58.278-35.818 58.278-40.293-5.772-3.233-9.728-5.334-12.008-5.334 0 0 5.882 32.425-46.335 32.425-48.52 0-46.335-32.425-46.335-32.425-2.28 0-6.236 2.1-12.003 5.334 0 0 7.368 40.293 58.403 40.293"/></g><g fill-rule="nonzero"><path d="M299.322 128L292 136.811 309 170l17-33.189-7.322-8.811c-2.485 2.852-5.71 4.278-9.678 4.278-3.967 0-7.193-1.426-9.678-4.278z" fill="#152b6e"/><path d="M324 137.227l-5.002-6.27c-2.626 2.028-5.957 3.042-9.992 3.042-6.053 0-9.993-3.042-9.993-3.042l-5.013 6.27 15 28.782z" fill="#fff"/><path d="M315.84 122.81c0 3.76-2.983 6.808-6.663 6.808s-6.664-3.048-6.664-6.809c0-3.76 2.983-6.809 6.664-6.809 3.68 0 6.663 3.049 6.663 6.81z" fill="#1c2f6d"/><path d="M314.332 122.81c0 2.88-2.308 5.215-5.155 5.215-2.848 0-5.155-2.335-5.155-5.216 0-2.88 2.307-5.215 5.155-5.215 2.847 0 5.155 2.335 5.155 5.215z" fill="#e19900"/></g><path d="M413.584 238.323c-9.287 2.238-19.064 3.316-28.798 2.592-8.197-22.369-15.557-36.883-20.012-44.748v270.577s-21.102 6.71-55.867 11.11l-.544-.059c1.881-54.795 5.722-166.47 8.277-240.705 2.055-59.755 31.084-95.29 60.099-117.44-2.676 6.78-5.072 14.606-7 23.667 7.354 11.852 24.436 42.069 43.831 94.964l.014.042zM190.717 477.795c-34.248-4.401-56.477-11.05-56.477-11.05V196.171c-4.456 7.867-11.813 22.38-20.01 44.743-9.632.716-19.308-.332-28.51-2.523.005-.033.012-.065.02-.097 19.377-52.848 36.305-83.066 43.61-94.944-1.93-9.075-4.328-16.912-7.007-23.701 29.015 22.15 58.044 57.685 60.1 117.44 2.554 74.235 6.395 185.91 8.276 240.705z" fill="#000" fill-opacity=".1"/></g></svg>