<?xml version="1.0" encoding="UTF-8"?><svg height="500" viewBox="0 0 500 500" width="500" xmlns="http://www.w3.org/2000/svg"><g fill="none" fill-rule="evenodd"><path d="M0 0h500v500H0z"/><path d="M203.003 109.195h93.643V21.9h-93.643z" fill="#91b5ca"/><path d="M202.864 32.2h93.458V18h-93.458z" fill="#6ca5c8"/><g fill="#9bcded"><path d="M87.548 75.26S46.785 148.06 29 203.03c4.445 13.375 45.208 40.86 85.232 37.885 13.34-36.4 24.46-52 24.46-52S141.655 93.83 87.548 75.26M411.473 75.26s40.763 72.8 58.548 127.77c-4.445 13.375-45.208 40.86-85.232 37.885-13.34-36.4-24.46-52-24.46-52S357.366 93.83 411.473 75.26"/><path d="M249.514 57.706c-50.082 0-47.799-39.47-48.743-39.14-7.516 2.618-24.133 14.936-52.439 25.495-31.872 11.885-52.625 19.315-60.782 31.2 11.115 8.915 46.694 28.97 46.694 120.345v271.14S183.902 481.6 249.13 481.6c68.93 0 115.649-14.855 115.649-14.855v-271.14c0-91.375 35.58-111.43 46.7-120.345-8.157-11.885-28.91-19.315-60.783-31.2-28.36-10.577-44.982-22.92-52.478-25.511-.928-.318 4.177 39.156-48.703 39.156z"/></g><path d="M94.353 78.106c8.672-11.24 29.107-18.57 59.963-30.076 19.604-7.313 33.6-15.469 42.85-20.663a4.492 4.492 0 0 1-.009-.05c1.231-.692 2.38-1.332 3.447-1.91l1.758 3.214c-9.171 5.064-23.826 13.973-45.055 21.892-30.33 11.31-50.59 18.585-59.51 29.504a53.27 53.27 0 0 0-3.444-1.911zm-6.805-2.875c8.156-11.887 28.91-19.317 60.782-31.202 19.603-7.312 33.6-15.468 42.85-20.662a4.492 4.492 0 0 1-.01-.05l.025-.014 1.765 3.229c-9.245 5.207-22.873 12.98-41.64 19.98-30.934 11.536-51.394 18.874-60.029 30.162zM404.663 78.109a53.27 53.27 0 0 0-3.445 1.91c-8.917-10.92-29.179-18.196-59.511-29.506-20.52-7.654-34.897-16.233-44.117-21.371l1.609-3.304c.839.46 1.724.955 2.657 1.479l-.01.05c9.25 5.194 23.248 13.35 42.85 20.662 30.86 11.507 51.295 18.838 59.967 30.08zm6.804-2.876a53.46 53.46 0 0 0-3.743 1.443c-8.634-11.289-29.095-18.628-60.031-30.163-18.561-6.924-32.096-14.604-41.334-19.81l1.435-3.414.049.028-.01.05c9.25 5.194 23.247 13.35 42.85 20.662 31.873 11.885 52.626 19.315 60.783 31.2v.004z" fill="#7bb7dd"/><path d="M249.573 63.754c51.479 0 58.279-35.895 58.279-40.38-5.772-3.24-9.728-5.345-12.008-5.345 0 0 5.881 32.495-46.335 32.495-48.52 0-46.336-32.495-46.336-32.495-2.28 0-6.235 2.105-12.002 5.345 0 0 7.368 40.38 58.402 40.38" fill="#7bb7dd"/><g><g fill="#e5254e"><path d="M310.694 140.865c-.403 1.096.009 1.836.696 2.783.55.78 1.429 1.273 2.344 1.545-.676 3.878-3.804 21.7-4.71 26.728-.073-.305-3.206-18.083-4.714-26.664.836-.264 1.643-.699 2.195-1.382.691-.833.939-1.968.73-3.01.324-.12 3.157-.01 3.459 0z" fill-rule="nonzero"/><path d="M297.429 122.738l5.454 5.326-5.454 5.326-5.455-5.326zM320.571 122.738l5.455 5.326-5.455 5.326-5.454-5.326zM309 113.43l7.273 7.102-7.273 7.101-7.273-7.101z"/></g><path d="M318.289 124.938c.397 5.186-1.352 11.567-4.63 15.57-1.276 1.556-2.9 2.57-4.647 3.504-1.723-.922-3.395-1.967-4.653-3.504-3.341-4.082-4.971-10.315-4.623-15.57z" fill="#fff" fill-rule="nonzero"/></g><path d="M413.584 238.323c-9.287 2.238-19.064 3.316-28.798 2.592-8.197-22.369-15.557-36.883-20.012-44.748v270.577s-21.102 6.71-55.867 11.11l-.544-.059c1.881-54.795 5.722-166.47 8.277-240.705 2.055-59.755 31.084-95.29 60.099-117.44-2.676 6.78-5.072 14.606-7 23.667 7.354 11.852 24.436 42.069 43.831 94.964l.014.042zM190.717 477.795c-34.248-4.401-56.477-11.05-56.477-11.05V196.171c-4.456 7.867-11.813 22.38-20.01 44.743-9.632.716-19.308-.332-28.51-2.523.005-.033.012-.065.02-.097 19.377-52.848 36.305-83.066 43.61-94.944-1.93-9.075-4.328-16.912-7.007-23.701 29.015 22.15 58.044 57.685 60.1 117.44 2.554 74.235 6.395 185.91 8.276 240.705z" fill="#000" fill-opacity=".06"/></g></svg>