<svg xmlns="http://www.w3.org/2000/svg" width="500" height="500" fill="none" viewBox="0 0 500 500"><g clip-path="url(#clip0_5839_4438)"><path fill="#DADADA" fill-rule="evenodd" d="M203 109.22h93.65v-87.3H203v87.3Z" clip-rule="evenodd"/><path fill="#CF2F2F" fill-rule="evenodd" d="M202.86 32.23h93.46v-14.2h-93.46v14.2Z" clip-rule="evenodd"/><path fill="#F2F2F2" fill-rule="evenodd" d="M87.55 75.26S46.78 148.06 29 203.03c4.44 13.37 45.2 40.86 85.23 37.88 13.34-36.4 24.46-52 24.46-52s2.97-95.08-51.14-113.65M411.47 75.26s40.76 72.8 58.55 127.77c-4.44 13.37-45.2 40.86-85.23 37.88-13.34-36.4-24.46-52-24.46-52s-2.96-95.08 51.14-113.65" clip-rule="evenodd"/><path fill="#F2F2F2" fill-rule="evenodd" d="M249.51 57.7c-50.08 0-47.8-39.47-48.74-39.14-7.52 2.62-24.13 14.94-52.44 25.5-31.87 11.88-52.63 19.31-60.78 31.2 11.11 8.91 46.7 28.97 46.7 120.34v271.14s49.65 14.86 114.88 14.86c68.93 0 115.64-14.86 115.64-14.86V195.6c0-91.37 35.59-111.43 46.7-120.34-8.15-11.89-28.9-19.32-60.78-31.2-28.36-10.58-44.98-22.92-52.48-25.51-.92-.32 4.18 39.15-48.7 39.15Z" clip-rule="evenodd"/><path fill="#E03838" fill-rule="evenodd" d="M326.6 33.54 134.23 424.05v42.7s17.6 5.26 45.6 9.52L385.99 57.83c-8.84-3.92-19.6-7.92-32.17-12.61l-3.12-1.16a244.23 244.23 0 0 1-24.1-10.52ZM467.35 195.13a338 338 0 0 1 2.67 7.9c-4.45 13.37-45.21 40.86-85.23 37.88-.96-2.6-1.9-5.12-2.84-7.51 20.8-1.36 38-5.64 51.6-12.84 13.42-7.11 24.7-15.59 33.8-25.43ZM31.65 195.17c9.1 9.83 20.37 18.3 33.78 25.4 13.6 7.2 30.82 11.48 51.64 12.83-.93 2.4-1.88 4.9-2.84 7.52-40.02 2.97-80.79-24.51-85.23-37.89.84-2.58 1.72-5.2 2.65-7.86ZM307.85 23.34c-5.77-3.23-9.73-5.34-12-5.34 0 0 5.88 32.5-46.34 32.5-48.52 0-46.34-32.5-46.34-32.5-2.28 0-6.23 2.1-12 5.34 0 0 7.37 40.39 58.4 40.39 51.48 0 58.28-35.9 58.28-40.38Z" clip-rule="evenodd"/><path fill="#000" fill-opacity=".1" fill-rule="evenodd" d="M413.58 238.32a93.75 93.75 0 0 1-28.8 2.6c-8.2-22.37-15.55-36.89-20-44.75v270.57s-21.1 6.71-55.87 11.12c-.18-.03-.37-.05-.55-.06l8.28-240.71c2.06-59.75 31.09-95.29 60.1-117.44a148.59 148.59 0 0 0-7 23.67c7.35 11.85 24.44 42.07 43.83 94.96l.01.04ZM190.72 477.8c-34.25-4.4-56.48-11.06-56.48-11.06V196.17c-4.46 7.87-11.81 22.38-20 44.75a93.6 93.6 0 0 1-28.52-2.53l.02-.1c19.38-52.84 36.3-83.06 43.61-94.94a148.74 148.74 0 0 0-7-23.7c29 22.15 58.04 57.69 60.1 117.44l8.27 240.7Z" clip-rule="evenodd"/><path fill="#3D3D3D" fill-rule="evenodd" d="M291 121h36v12c0 16.23-18 32-18 32s-18-15.77-18-32v-12Z" clip-rule="evenodd"/><path fill="#fff" fill-rule="evenodd" d="M293 123h32v10.64c0 14.38-16 28.36-16 28.36s-16-13.98-16-28.36V123Z" clip-rule="evenodd"/><path fill="#DF3838" fill-rule="evenodd" d="M325 126h-32v-3h32v3ZM309 134h-16c.27 14.25 16 28 16 28v-28Z" clip-rule="evenodd"/><circle cx="309" cy="145" r="9" fill="#FFC329"/><circle cx="309" cy="145" r="7" fill="#fff"/><path fill="#48B2FF" d="M309 150a5 5 0 0 0 0-10v10Z"/><path fill="#DF3838" fill-rule="evenodd" d="M309 138a7 7 0 0 0-7 7h7v-7Z" clip-rule="evenodd"/></g><defs><clipPath id="clip0_5839_4438"><path fill="#fff" d="M0 0h500v500H0z"/></clipPath></defs></svg>