<?xml version="1.0" encoding="UTF-8"?><svg height="500" viewBox="0 0 500 500" width="500" xmlns="http://www.w3.org/2000/svg"><g fill="none" fill-rule="evenodd"><path d="M0 0h500v500H0z"/><path d="M203.003 109.221h93.643V21.926h-93.643z" fill="#d9d9d9"/><path d="M202.864 32.226h93.458v-14.2h-93.458z" fill="#3d3d3d"/><path d="M87.548 75.257S46.785 148.057 29 203.027c4.445 13.375 45.208 40.86 85.232 37.885 13.34-36.4 24.46-52 24.46-52s2.963-95.085-51.144-113.655M411.473 75.257s40.762 72.8 58.547 127.77c-4.445 13.375-45.208 40.86-85.232 37.885-13.34-36.4-24.46-52-24.46-52s-2.963-95.085 51.145-113.655" fill="#f2f2f2"/><path d="M249.511 57.7c-50.082 0-47.798-39.469-48.742-39.14-7.516 2.619-24.133 14.937-52.439 25.495-31.873 11.886-52.626 19.316-60.782 31.2 11.114 8.916 46.694 28.97 46.694 120.346v271.141s49.658 14.855 114.885 14.855c68.929 0 115.648-14.855 115.648-14.855v-271.14c0-91.376 35.58-111.431 46.7-120.346-8.157-11.885-28.91-19.315-60.783-31.2-28.36-10.577-44.982-22.92-52.478-25.511-.927-.319 4.177 39.156-48.703 39.156z" fill="#f2f2f2"/><g fill="#3d3d3d"><path d="M75.025 117.298c10.132-20.75 17.944-35.245 17.944-35.245 7.882-11.885 27.937-19.315 58.747-31.2 29.359-11.33 45.835-24.635 52.265-25.865-.678-4.5-.798-6.882-.804-6.97-5.927 0-22.98 14.025-54.853 25.91-31.868 11.89-52.62 19.315-60.772 31.2 0 0-8.232 14.76-18.858 35.825C49.557 149.176 36.326 179.867 29 203.027c.3 1.058 1.008 2.41 2.123 4.056s2.05 2.777 2.807 3.396c8.386-23.684 22.084-54.745 41.095-93.18zM423.965 117.322c-10.132-20.75-17.958-35.269-17.958-35.269-7.882-11.885-27.936-19.315-58.747-31.2-29.358-11.33-45.149-24.497-51.58-25.727.68-4.5.326-6.505.19-7.038 5.926 0 22.91 13.955 54.783 25.84 31.867 11.89 52.62 19.315 60.772 31.2 0 0 8.231 14.76 18.857 35.825 18.39 36.305 31.635 66.996 39.738 92.074-.491 1.317-.977 2.346-1.457 3.088-.481.741-1.276 1.804-2.385 3.188-18.428-43.992-32.498-74.652-42.213-91.98z"/><path d="M270.45 55.067v426.057c-6.833.304-13.951.473-21.323.473a441.94 441.94 0 0 1-20.581-.484V54.768c5.7 1.832 12.603 2.933 20.965 2.933 8.338 0 15.234-.982 20.94-2.634zm44.9-27.466c8.796 4.86 20.451 10.9 35.342 16.454 2.243.837 4.43 1.65 6.562 2.446v422.343c-8.147 2.108-22.61 5.424-41.905 8.147zm-131.703 449.23c-19.006-2.734-33.655-6.022-41.905-8.084V46.511l6.588-2.456c14.875-5.548 26.523-11.583 35.317-16.44z"/><path d="M307.83 23.36c-5.773-3.24-9.676-5.356-11.956-5.356.018.241 5.851 32.489-46.365 32.489-48.52 0-46.38-32.175-46.369-32.461-2.28 0-6.202 2.07-11.97 5.31 0 0 7.369 40.381 58.403 40.381 51.479 0 58.256-35.878 58.256-40.363z"/></g><circle cx="309" cy="143" fill="#f2f2f2" r="24"/><circle cx="309" cy="143" fill="#9d903e" r="22"/><path d="M294.834 126c4.997-4.46 9.72-6.69 14.166-6.69s9.14 2.23 14.08 6.69c-5.2-3.474-8.278-4.708-9.235-3.702-.956 1.006-.182 2.094 2.324 3.265-2.113-.217-4.502-.326-7.169-.326s-5.007.07-7.022.21c2.875-.882 3.909-1.932 3.102-3.15-.806-1.216-4.222.018-10.246 3.703z" fill="#f2f2f2"/><circle cx="309" cy="143" fill="#f2f2f2" r="19"/><circle cx="309" cy="143" fill="#c5c5c5" r="16"/><path d="M301.5 140.25V134h15v6.25c0 6.7-2.5 11.283-7.5 13.75-5-2.468-7.5-7.052-7.5-13.75z" fill="#fff"/><path d="M309 136l7.188 8.087a16.645 16.645 0 0 1-.582 2.345L309 139l-6.606 7.432a16.647 16.647 0 0 1-.582-2.345z" fill="#2d2d2d"/><path d="M413.584 238.323c-9.287 2.238-19.064 3.316-28.798 2.592-8.197-22.369-15.557-36.883-20.012-44.748v270.577s-21.102 6.71-55.867 11.11l-.544-.059c1.881-54.795 5.722-166.47 8.277-240.705 2.055-59.755 31.084-95.29 60.099-117.44-2.676 6.78-5.072 14.606-7 23.667 7.354 11.852 24.436 42.069 43.831 94.964l.014.042zM190.717 477.795c-34.248-4.401-56.477-11.05-56.477-11.05V196.171c-4.456 7.867-11.813 22.38-20.01 44.743-9.632.716-19.308-.332-28.51-2.523.005-.033.012-.065.02-.097 19.377-52.848 36.305-83.066 43.61-94.944-1.93-9.075-4.328-16.912-7.007-23.701 29.015 22.15 58.044 57.685 60.1 117.44 2.554 74.235 6.395 185.91 8.276 240.705z" fill="#000" fill-opacity=".1"/></g></svg>