<?xml version="1.0" encoding="UTF-8"?><svg height="500" viewBox="0 0 500 500" width="500" xmlns="http://www.w3.org/2000/svg"><g fill="none" fill-rule="evenodd"><path d="m0 0h500v500h-500z"/><g transform="translate(29 18)"><path d="m174.003327 91.223h93.643138v-87.295h-93.643138z" fill="#ad1a1a"/><path d="m173.863643 14.228h93.458556v-14.2h-93.458556z" fill="#cc2121"/><g fill="#e42525"><path d="m58.5475395 57.2585s-40.7627765 72.8-58.5475395 127.77c4.44494357 13.375 45.2077201 40.86 85.232167 37.885 13.3398195-36.4 24.459661-52 24.459661-52s2.963296-95.085-51.1442885-113.655"/><path d="m382.472677 57.2585s40.762777 72.8 58.54754 127.77c-4.444944 13.375-45.20772 40.86-85.232167 37.885-13.33982-36.4-24.459662-52-24.459662-52s-2.963295-95.085 51.144289-113.655"/><path d="m220.511106 39.7025c-50.081693 0-47.798103-39.4690913-48.742578-39.14001412-7.515856 2.61869932-24.132633 14.93680482-52.438505 25.49501412-31.8728898 11.885-52.6259372 19.315-60.7824835 31.2 11.1148533 8.915 46.6943565 28.97 46.6943565 120.345v271.14s49.657653 14.855 114.885079 14.855c68.929052 0 115.648352-14.855 115.648352-14.855v-271.14c0-91.375 35.579504-111.43 46.699346-120.345-8.156547-11.885-28.909594-19.315-60.782483-31.2-28.359862-10.5766915-44.981767-22.91944581-52.478053-25.51061549-.92727-.31834247 4.17733 39.15561549-48.703031 39.15561549z"/></g><path d="m162.173598 5.3715 2.13763 6.6308777c-8.900569 5.1427138-22.456905 13.3251464-41.594867 20.710828-28.2115416 10.8825375-48.7892881 19.1285499-57.8776081 29.3809886l-6.2912134-4.8366943c8.4227337-12.1472183 28.9948328-19.4885789 60.7824835-31.3417943 10.156213-3.7883102 18.807582-7.8031879 26.073661-11.5153062 6.756213-3.3930582 12.314058-6.52644557 16.769914-9.0288995z" fill="#f2f2f2"/><path d="m295.506383 14.343602c7.288947 3.7279395 15.976741 7.7644643 26.184775 11.5721037 31.788672 11.8535965 51.890057 18.5180145 60.781519 31.3427943-1.907093 1.4829115-4.070409 3.1453611-6.489949 4.987349-9.040263-10.3232286-29.345468-18.6034692-57.677909-29.5326433-18.710037-7.2205376-32.085267-15.2025939-40.990823-20.361338l1.540618-6.9803677c4.432541 2.48897406 9.948107 5.6005323 16.651769 8.972102z" fill="#f2f2f2"/><path d="m278.851614 5.345c-5.771941-3.24-9.727991-5.345-12.007833-5.345 0 0 5.881693 32.495-46.335169 32.495-48.520226 0-46.33517-32.495-46.33517-32.495-2.279842 0-6.235891 2.105-12.002844 5.345 0 0 7.36833 40.38 58.402867 40.38 51.478533 0 58.278149-35.895 58.278149-40.38z" fill="#e42525"/></g><g fill="#000"><path d="m413.584262 238.322716c-9.287652 2.238227-19.064555 3.316093-28.797794 2.592625-8.197787-22.369075-15.557191-36.882961-20.012723-44.748481v270.577481s-21.102202 6.709715-55.866442 11.110324c-.181695-.019644-.363009-.039532-.543932-.059665 1.880745-54.795 5.722054-166.47 8.276275-240.705 2.05535-59.755 31.084673-95.29 60.099029-117.44-2.675385 6.780625-5.071498 14.606324-6.999205 23.667254 7.354 11.851464 24.435794 42.068696 43.830742 94.964134.00496.013823.009643.027599.01405.041328zm-222.867617 239.47254c-34.247876-4.401312-56.476331-11.050915-56.476331-11.050915v-270.572197c-4.455834 7.866735-11.813778 22.379131-20.009729 44.743197-9.632964.716014-19.3086964-.33238-28.510585-2.523818.0050945-.032025.0117169-.064272.0198871-.096743 19.3773569-52.847461 36.3054119-83.066075 43.6098449-94.943632-1.928939-9.07531-4.327692-16.91207-7.006412-23.701148 29.014357 22.15 58.04368 57.685 60.099029 117.44 2.554222 74.235 6.395531 185.91 8.276276 240.705256z" fill-opacity=".1"/><path d="m288 122.190476c7-1.460317 14-2.190476 21-2.190476s14 .730159 21 2.190476c0 19.714286-7 34.317461-21 43.809524-14-9.492063-21-24.095238-21-43.809524z"/><path d="m290 124c6.333333-1.333333 12.666667-2 19-2s12.666667.666667 19 2c0 17.333333-6.333333 30.666667-19 40-12.666667-9.333333-19-22.666667-19-40z"/></g><path d="m309 122v25l-14.249525.001c-3.166983-6.6669-4.750475-14.3339-4.750475-23.001 6.333333-1.333333 12.666667-2 19-2z" fill="#656565"/><path d="m308.999571 140.285.000429 23.715c-6.255432-4.609266-10.966241-10.194082-14.132429-16.754449zm.000429-18.285c6.333333 0 12.666667.666667 19 2 0 2.451947-.126733 4.823853-.3802 7.115716l-18.620229 9.169284z" fill="#e10019"/><path d="m309 122c6.333333 0 12.666667.666667 19 2 0 1.772827-.066252 3.50381-.198757 5.192949-6.26751-1.462654-12.534376-2.192949-18.801243-2.192949-6.267085 0-12.53417.730345-18.801255 2.191036-.132493-1.687226-.198745-3.418209-.198745-5.191036 6.333333-1.333333 12.666667-2 19-2z" fill="#fff"/><path d="m327.346324 133.232278-31.444689 16.02133c-.79732-1.454115-1.51385-2.959254-2.149591-4.515418l34.167699-17.409261c-.099192 2.025855-.290332 3.993638-.573419 5.903349z" fill="#fff"/></g></svg>