<?xml version="1.0" encoding="UTF-8"?><svg height="500" viewBox="0 0 500 500" width="500" xmlns="http://www.w3.org/2000/svg"><g fill="none" fill-rule="evenodd"><path d="M0 0h500v500H0z"/><path d="M203.006 109.193h93.643V21.898h-93.643z" fill="#131728"/><path d="M202.867 32.198h93.458v-14.2h-93.458z" fill="#1e233d"/><g fill="#222845"><path d="M87.55 75.26s-40.762 72.8-58.547 127.77c4.445 13.375 45.208 40.86 85.232 37.885 13.34-36.4 24.46-52 24.46-52S141.658 93.83 87.55 75.26M411.476 75.26s40.762 72.8 58.547 127.77c-4.445 13.375-45.208 40.86-85.232 37.885-13.34-36.4-24.46-52-24.46-52S357.368 93.83 411.476 75.26"/><path d="M249.514 57.706c-50.082 0-47.798-39.47-48.742-39.14-7.516 2.618-24.133 14.936-52.439 25.495-31.873 11.885-52.626 19.315-60.782 31.2 11.114 8.915 46.694 28.97 46.694 120.345v271.14S183.903 481.6 249.13 481.6c68.929 0 115.648-14.855 115.648-14.855v-271.14c0-91.375 35.58-111.43 46.7-120.345-8.157-11.885-28.91-19.315-60.783-31.2-28.36-10.577-44.982-22.92-52.478-25.511-.927-.318 4.177 39.156-48.703 39.156z"/></g><path d="M263 59.907v420.908c-4.36.12-8.823.185-13.384.185-4.276 0-8.484-.063-12.616-.181V59.806c3.885.648 8.203 1.007 13 1.007 4.794 0 9.111-.321 13-.906z" fill="#c22d32"/><path d="M249.576 63.752c51.479 0 58.279-35.895 58.279-40.38-5.772-3.24-9.728-5.345-12.008-5.345 0 0 5.881 32.495-46.335 32.495-48.52 0-46.336-32.495-46.336-32.495-2.28 0-6.235 2.105-12.002 5.345 0 0 7.368 40.38 58.402 40.38" fill="#222845"/><path d="M263 49.617v14.398c-4.102.636-8.57.985-13.437.985-4.521 0-8.7-.345-12.563-.973v-14.39c3.74.578 7.89.896 12.497.896 5.017 0 9.5-.326 13.503-.916z" fill="#c22d32"/><circle cx="309.003" cy="142.998" fill="#fff" r="22"/><circle cx="309.003" cy="142.998" fill="#003f71" r="20"/><circle cx="309.003" cy="142.998" fill="#fff" r="13"/><circle cx="309.003" cy="142.998" fill="#003f71" r="12"/><path d="M301.526 152.838a12.097 12.097 0 0 1-3.756-4.404l-.224-.45.45-.222a16.998 16.998 0 0 0 9.446-16.677l-.04-.495.495-.044a12.655 12.655 0 0 1 2.206 0l.496.043-.041.496a16.998 16.998 0 0 0 9.449 16.679l.452.222-.226.45a12.103 12.103 0 0 1-3.76 4.404l-.881.635.091-1.083c.011-.13.017-.26.017-.392 0-3.015-2.982-5.5-6.7-5.5s-6.7 2.485-6.7 5.5c0 .13.005.261.016.39l.092 1.084z" stroke="#fff"/><path d="M301.839 152.626a12.05 12.05 0 0 1-3.643-4.405c5.807-2.848 9.804-8.818 9.804-15.721 0-.49-.02-.976-.06-1.456a12.155 12.155 0 0 1 2.12 0c-.04.48-.06.966-.06 1.456 0 6.905 4 12.877 9.809 15.724a12.05 12.05 0 0 1-3.648 4.406c.026-.207.039-.417.039-.63 0-3.314-3.224-6-7.2-6s-7.2 2.686-7.2 6c0 .211.013.42.039.626z" fill="#df0000"/><path d="M413.584 238.323c-9.287 2.238-19.064 3.316-28.798 2.592-8.197-22.369-15.557-36.883-20.012-44.748v270.577s-21.102 6.71-55.867 11.11l-.544-.059c1.881-54.795 5.722-166.47 8.277-240.705 2.055-59.755 31.084-95.29 60.099-117.44-2.676 6.78-5.072 14.606-7 23.667 7.354 11.852 24.436 42.069 43.831 94.964l.014.042zM190.717 477.795c-34.248-4.401-56.477-11.05-56.477-11.05V196.171c-4.456 7.867-11.813 22.38-20.01 44.743-9.632.716-19.308-.332-28.51-2.523.005-.033.012-.065.02-.097 19.377-52.848 36.305-83.066 43.61-94.944-1.93-9.075-4.328-16.912-7.007-23.701 29.015 22.15 58.044 57.685 60.1 117.44 2.554 74.235 6.395 185.91 8.276 240.705z" fill="#000" fill-opacity=".1"/></g></svg>