<?xml version="1.0" encoding="UTF-8"?><svg width="500" height="500" viewBox="0 0 500 500" fill="none" xmlns="http://www.w3.org/2000/svg"><path fill-rule="evenodd" clip-rule="evenodd" d="M203.006 109.193h93.643V21.8979h-93.643v87.2951z" fill="#243593"/><path fill-rule="evenodd" clip-rule="evenodd" d="M202.866 32.198h93.459v-14.2h-93.459v14.2z" fill="#D9D9D9"/><path fill-rule="evenodd" clip-rule="evenodd" d="M87.5505 75.2603S46.7877 148.06 29.0029 203.03c4.445 13.375 45.2078 40.86 85.2321 37.885 13.34-36.4 24.46-52 24.46-52s2.963-95.0847-51.1445-113.6547zm323.9255 0S452.239 148.06 470.023 203.03c-4.445 13.375-45.207 40.86-85.232 37.885-13.34-36.4-24.459-52-24.459-52s-2.964-95.0847 51.144-113.6547z" fill="#3046BB"/><path fill-rule="evenodd" clip-rule="evenodd" d="M249.514 57.7054c-50.081 0-47.798-39.4691-48.742-39.14-7.516 2.6187-24.133 14.9368-52.439 25.495-31.873 11.885-52.6257 19.315-60.7822 31.2 11.1148 8.915 46.6942 28.9696 46.6942 120.3446v271.14S183.903 481.6 249.13 481.6c68.929 0 115.649-14.855 115.649-14.855v-271.14c0-91.375 35.579-111.4296 46.699-120.3446-8.157-11.885-28.91-19.315-60.783-31.2-28.359-10.5767-44.981-22.9194-52.478-25.5087-.927-.3202 4.178 39.1537-48.703 39.1537z" fill="#3046BB"/><path fill-rule="evenodd" clip-rule="evenodd" d="M294.068 36.6268c11.218-.3004 23.34-.7005 36.367-1.2006 5.949 2.8568 12.684 5.807 20.257 8.6312 15.217 5.6741 27.899 10.3328 37.886 14.9456-46.36 2.6846-92.72 4.0269-139.08 4.0269-46.352 0-92.704-1.3419-139.057-4.0256 9.988-4.6132 22.671-9.2723 37.889-14.9469 7.575-2.8255 14.313-5.7771 20.263-8.635 13.411.5145 25.862.9235 37.355 1.227 5.497 10.2537 17.366 21.053 43.563 21.053 27.678 0 39.47-10.8138 44.557-21.0756zm92.77 63.2702c-4.364 6.542-8.607 14.751-12.187 25.171a2564.545 2564.545 0 01-125.153 3.057c-41.71 0-83.421-1.019-125.131-3.056-3.581-10.421-7.824-18.631-12.188-25.1737 59.098 2.7417 104.903 4.1117 137.414 4.1117 32.504 0 78.252-1.37 137.245-4.11zm-22.045 92.177l-.003.379a2403.9105 2403.9105 0 01-115.292 2.767c-38.423 0-76.847-.922-115.27-2.766-.087-9.564-.571-18.325-1.378-26.357 49.214 2.265 88.128 3.398 116.743 3.398 28.542 0 67.298-1.127 116.265-3.381-.803 8.076-1.158 16.73-1.065 25.96zm-.018 41.185v26.29c-38.425 1.844-76.851 2.767-115.277 2.767-38.419 0-76.837-.922-115.256-2.766v-26.294c48.556 2.223 87.006 3.334 115.351 3.334 28.332 0 66.726-1.11 115.182-3.331zm0 67.095v26.29a2403.2544 2403.2544 0 01-115.277 2.767c-38.419 0-76.837-.922-115.256-2.766v-26.294c48.556 2.223 87.006 3.334 115.351 3.334 28.332 0 66.726-1.11 115.182-3.331zm0 67.095v26.291a2404.5558 2404.5558 0 01-115.277 2.766c-38.419 0-76.837-.922-115.256-2.765v-26.295c48.556 2.223 87.006 3.335 115.351 3.335 28.332 0 66.726-1.111 115.182-3.332zm0 66.912v24.647a2564.176 2564.176 0 01-115.277 2.593c-38.419 0-76.837-.864-115.256-2.592v-24.651c48.556 2.084 87.006 3.126 115.351 3.126 28.332 0 66.726-1.041 115.182-3.123z" fill="#000" fill-opacity=".0502"/><path fill-rule="evenodd" clip-rule="evenodd" d="M96.6456 79.7885c8.5394-11.2398 28.6594-18.5704 59.0414-30.0765 19.302-7.312 33.083-15.4682 42.191-20.6621a18.7098 18.7098 0 01-.009-.0504c1.212-.6917 2.343-1.3316 3.394-1.9104l1.73 3.2145c-9.03 5.0642-23.459 13.9728-44.362 21.8915-29.863 11.3097-49.812 18.5852-58.594 29.5043a52.1423 52.1423 0 00-3.3914-1.9109zm-6.7003-2.8755c8.0311-11.886 28.4647-19.316 59.8477-31.201 19.301-7.312 33.083-15.4682 42.191-20.6621a1.8087 1.8087 0 01-.01-.0504l.024-.0137 1.738 3.2283c-9.103 5.2076-22.521 12.9811-40.999 19.981-30.458 11.5351-50.603 18.8736-59.1057 30.1614l-3.686-1.4435zm312.2357 2.8782a52.1624 52.1624 0 00-3.391 1.9112c-8.781-10.9206-28.73-18.1965-58.596-29.5071-20.204-7.6539-34.36-16.2328-43.438-21.3709l1.584-3.304c.826.4607 1.698.9551 2.617 1.4793 0 0-.004.017-.01.0504 9.108 5.1938 22.889 13.35 42.191 20.6621 30.384 11.5069 50.505 18.8378 59.043 30.079zm6.7-2.876c-1.26.4392-2.488.9212-3.686 1.4437-8.501-11.2891-28.646-18.6278-59.107-30.1636-18.275-6.9233-31.602-14.6034-40.698-19.8092l1.413-3.4139.048.0275s-.003.017-.01.0504c9.108 5.1938 22.89 13.35 42.191 20.6621 31.383 11.885 51.817 19.315 59.848 31.2v.001s0 .0007.001.002zm61.248 126.2868c-4.445 13.375-45.208 40.86-85.232 37.885-.958-2.614-1.904-5.12-2.835-7.52 20.794-1.358 37.993-5.637 51.594-12.837 13.428-7.109 24.697-15.585 33.806-25.428.936 2.667 1.827 5.303 2.667 7.9zM65.4271 220.694c13.611 7.205 30.8243 11.485 51.6399 12.84-.932 2.399-1.878 4.904-2.835 7.517-40.0243 2.975-80.7871-24.51-85.232-37.885.8362-2.585 1.7233-5.209 2.6545-7.863 9.1035 9.827 20.3609 18.29 33.7726 25.391z" fill="#F2F2F2"/><path fill-rule="evenodd" clip-rule="evenodd" d="M249.577 63.7514c51.478 0 58.278-35.895 58.278-40.38-5.772-3.24-9.728-5.345-12.008-5.345 0 0 5.882 32.495-46.335 32.495-48.52 0-46.335-32.495-46.335-32.495-2.28 0-6.236 2.105-12.003 5.345 0 0 7.368 40.38 58.403 40.38z" fill="#3046BB"/><path fill-rule="evenodd" clip-rule="evenodd" d="M293.042 126.589c0-2.807 10.841-5.589 10.841-5.589s1.125 1.872 5.117 2.809c3.986-.937 5.064-2.809 5.064-2.809s10.894 2.782 10.894 5.589c-3.993 6.555-2.995 13.071 0 28.014C325.955 159.321 309 163.17 309 165c0-1.843-16.955-5.679-15.958-10.36 2.989-14.98 3.987-21.496 0-28.051z" fill="#fff"/><path fill-rule="evenodd" clip-rule="evenodd" d="M295.037 127.172c0-2.552 8.61-4.172 8.61-4.172s1.86 1.702 5.353 2.553c3.488-.851 5.306-2.553 5.306-2.553s8.657 1.62 8.657 4.172c-3.493 5.959-2.621 13.701 0 27.285.873 4.289-13.963 6.879-13.963 8.543 0-1.675-14.836-4.254-13.963-8.509 2.615-13.618 3.488-21.36 0-27.319z" fill="#2758B0"/><path fill-rule="evenodd" clip-rule="evenodd" d="M296.589 127.68c0-2.356 6.962-3.141 6.962-3.141s2.344 1.571 5.449 2.356c3.101-.785 5.407-2.356 5.407-2.356s7.004.785 7.004 3.141c-3.105 5.501-2.329 13.357 0 25.896.776 3.959-12.411 6.35-12.411 7.886 0-1.547-13.187-3.927-12.411-7.855 2.324-12.57 3.1-20.426 0-25.927z" fill="#B41723"/><path fill-rule="evenodd" clip-rule="evenodd" d="M297.362 128c0-2.257 6.191-2.692 6.191-2.692s2.534 1.505 5.445 2.258c2.906-.753 5.444-2.258 5.444-2.258s6.192.435 6.192 2.692c-2.912 5.272-2.184 13.118 0 25.135.727 3.794-11.637 6.086-11.637 7.557 0-1.482-12.362-3.763-11.635-7.527 2.179-12.047 2.907-19.893 0-25.165z" fill="#fff"/><path d="M291 131.208l.771-.181c5.739-1.351 11.482-2.027 17.227-2.027 5.745 0 11.489.676 17.231 2.027l.771.181v7.055l-1.229-.29c-5.594-1.315-11.184-1.973-16.773-1.973-5.588 0-11.178.658-16.769 1.973l-1.229.29v-7.055z" fill="#2758B0"/><path fill-rule="evenodd" clip-rule="evenodd" d="M292 132s8.497-2 16.998-2c8.501 0 17.002 2 17.002 2v5s-8.503-2-17.002-2c-8.499 0-16.998 2-16.998 2v-5z" fill="#fff"/><path fill-rule="evenodd" clip-rule="evenodd" d="M413.584 238.323c-9.287 2.238-19.064 3.316-28.797 2.592-8.198-22.369-15.558-36.883-20.013-44.748v270.577s-21.102 6.71-55.866 11.111l-.544-.06c1.88-54.795 5.722-166.47 8.276-240.705 2.055-59.755 31.085-95.29 60.099-117.44-2.675 6.781-5.072 14.606-6.999 23.667 7.354 11.852 24.435 42.069 43.83 94.964.005.014.01.028.014.042zM190.717 477.795c-34.248-4.401-56.476-11.051-56.476-11.051V196.172c-4.456 7.867-11.814 22.379-20.01 44.743-9.633.716-19.3089-.332-28.5108-2.524a1.056 1.056 0 01.0199-.096c19.3769-52.848 36.3059-83.066 43.6099-94.944-1.929-9.075-4.328-16.912-7.006-23.701 29.014 22.15 58.043 57.685 60.099 117.44 2.554 74.235 6.395 185.91 8.276 240.705h-.002z" fill="#000" fill-opacity=".1"/></svg>