<?xml version="1.0" encoding="UTF-8"?><svg width="500" height="500" viewBox="0 0 500 500" fill="none" xmlns="http://www.w3.org/2000/svg"><path fill-rule="evenodd" clip-rule="evenodd" d="M203.006 109.193h93.643V21.8979h-93.643v87.2951z" fill="#CFCFCF"/><path fill-rule="evenodd" clip-rule="evenodd" d="M202.866 32.198h93.459v-14.2h-93.459v14.2z" fill="#363636"/><path fill-rule="evenodd" clip-rule="evenodd" d="M249.514 57.7054c-50.081 0-47.798-39.4691-48.742-39.14-7.516 2.6187-24.133 14.9368-52.439 25.495-31.873 11.885-52.6257 19.315-60.7822 31.2 11.1148 8.915 46.6942 28.9696 46.6942 120.3446v271.14S183.903 481.6 249.13 481.6c68.929 0 115.649-14.855 115.649-14.855v-271.14c0-91.375 35.579-111.4296 46.699-120.3446-8.157-11.885-28.91-19.315-60.783-31.2-28.359-10.5767-44.981-22.9194-52.478-25.5087-.927-.3202 4.178 39.1537-48.703 39.1537z" fill="#F2F2F2"/><path fill-rule="evenodd" clip-rule="evenodd" d="M87.5505 75.2603S46.7877 148.06 29.0029 203.03c4.445 13.375 45.2078 40.86 85.2321 37.885 13.34-36.4 24.46-52 24.46-52s2.963-95.0847-51.1445-113.6547zm323.9255 0S452.239 148.06 470.023 203.03c-4.445 13.375-45.207 40.86-85.232 37.885-13.34-36.4-24.459-52-24.459-52s-2.964-95.0847 51.144-113.6547z" fill="#F2F2F2"/><path fill-rule="evenodd" clip-rule="evenodd" d="M249.577 63.7514c51.478 0 58.278-35.895 58.278-40.38-5.772-3.24-9.728-5.345-12.008-5.345 0 0 5.882 32.495-46.335 32.495-48.52 0-46.335-32.495-46.335-32.495-2.28 0-6.236 2.105-12.003 5.345 0 0 7.368 40.38 58.403 40.38z" fill="#3D3D3D"/><path fill-rule="evenodd" clip-rule="evenodd" d="M413.584 238.323c-9.288 2.238-19.065 3.316-28.798 2.592-8.198-22.369-15.557-36.883-20.013-44.748v270.577s-21.102 6.71-55.866 11.111l-.544-.06c1.881-54.795 5.722-166.47 8.276-240.705 2.056-59.755 31.085-95.29 60.099-117.44-2.675 6.781-5.071 14.606-6.999 23.667 7.354 11.852 24.436 42.069 43.831 94.964.005.014.01.028.014.042zM190.716 477.795c-34.248-4.401-56.476-11.051-56.476-11.051V196.172c-4.456 7.867-11.814 22.379-20.01 44.743-9.633.716-19.3084-.332-28.5103-2.524a1.056 1.056 0 01.0199-.096c19.3774-52.848 36.3054-83.066 43.6094-94.944-1.928-9.075-4.327-16.912-7.006-23.701 29.014 22.15 58.044 57.685 60.099 117.44 2.554 74.235 6.396 185.91 8.276 240.705h-.002z" fill="#000" fill-opacity=".06"/><path fill-rule="evenodd" clip-rule="evenodd" d="M467.462 195.3c.936 2.666 1.827 5.303 2.667 7.899-4.445 13.375-45.208 40.86-85.232 37.885-.958-2.613-1.904-5.119-2.835-7.519 20.795-1.358 37.993-5.637 51.594-12.838 13.428-7.108 24.697-15.584 33.806-25.427zm-435.8073 0c9.1031 9.827 20.3606 18.291 33.7724 25.391 13.6109 7.206 30.8241 11.486 51.6389 12.84-.931 2.4-1.877 4.905-2.834 7.517-40.0243 2.975-80.7871-24.51-85.232-37.885.8363-2.585 1.7234-5.209 2.6547-7.863z" fill="#3D3D3D"/><path d="M320.886 148.471c1.059-1.099 2.87-3.777 1.637-5.708-1.159-1.817-6.295-2.815-9.244-3.388-.185-.036-.36-.07-.526-.102-2.993-.522-8.721-2.897-7.794-6.194 1.394-4.955 9.553-4.723 10.995-2.831.314.411.295.828.277 1.237-.024.531-.047 1.049.656 1.528.429.292-.257.15-1.393-.086-2.155-.446-5.93-1.229-6.766-.012-2.099 3.054 4.113 4.09 7.747 4.696.141.024.279.047.412.069 2.983.502 8.613 2.82 8.029 6.257-.947 3.972-2.993 4.345-3.961 4.521-.024.004-.047.008-.069.013z" fill="#3D3D3D"/><path d="M314.572 149.931c-.271.536-.568 1.125-.905 1.77-2.307 4.43-3.831 4.572-7.647 4.133-3.425-.394-10.967-2.773-13.02-3.729 4.85-1.201 5.623-3.511 7.279-8.497 1.515-4.561 9.001-3.26 11.548-2.217 2.547 1.044 5.001 2.035 8.022 3.017-2.89.802-3.563 2.134-5.277 5.523z" fill="#3D3D3D"/><path d="M323.142 157.142C319.523 160.762 314.523 163 309 163s-10.523-2.239-14.142-5.858l-2.122 2.122C296.899 163.426 302.649 166 309 166c6.351 0 12.101-2.574 16.263-6.736l-2.121-2.122z" fill="#C5C5C5"/></svg>