<?xml version="1.0" encoding="UTF-8"?><svg height="500" viewBox="0 0 500 500" width="500" xmlns="http://www.w3.org/2000/svg"><g fill="none" fill-rule="evenodd"><path d="M0 0h500v500H0z"/><path d="M203.006 109.193h93.643V21.898h-93.643z" fill="#560e1a"/><path d="M202.867 32.198h93.458v-14.2h-93.458z" fill="#7bbcd3"/><path d="M87.547 75.26S46.785 148.06 29 203.031c4.445 13.375 45.207 40.86 85.232 37.886 13.34-36.4 24.46-52 24.46-52S141.653 93.83 87.546 75.26M411.473 75.26s40.762 72.8 58.547 127.771c-4.445 13.375-45.207 40.86-85.232 37.886-13.34-36.4-24.46-52-24.46-52S357.367 93.83 411.474 75.26" fill="#8ad2eb"/><path d="M249.514 57.706c-50.082 0-47.799-39.47-48.743-39.14-7.516 2.618-24.133 14.936-52.439 25.495-31.872 11.885-52.625 19.315-60.782 31.2 11.115 8.915 46.694 28.97 46.694 120.345v271.14S183.902 481.6 249.13 481.6c68.93 0 115.649-14.855 115.649-14.855v-271.14c0-91.375 35.58-111.43 46.7-120.345-8.157-11.885-28.91-19.315-60.783-31.2-28.36-10.577-44.982-22.92-52.478-25.511-.928-.318 4.177 39.156-48.703 39.156z" fill="#721524"/><path d="M249.576 63.752c51.479 0 58.279-35.895 58.279-40.38-5.772-3.24-9.728-5.345-12.008-5.345 0 0 5.881 32.495-46.335 32.495-48.52 0-46.336-32.495-46.336-32.495-2.28 0-6.235 2.105-12.002 5.345 0 0 7.368 40.38 58.402 40.38" fill="#8ad2eb"/><path d="M289 122.046c5.61-.697 12.276-1.046 19.997-1.046s14.388.349 20.003 1.046v11.526c.002 15.366-6.666 25.842-20.003 31.428C295.666 159.414 289 148.938 289 133.572z" fill="#29b0e5"/><path d="M291 123.95c5.05-.633 11.049-.95 17.997-.95s12.95.317 18.003.95v10.48c.002 13.968-6 23.492-18.003 28.57C297 157.922 291 148.398 291 134.43z" fill="#7d2838"/><g fill="#f1d12a"><rect height="27" rx="1" transform="rotate(40 309.024 145.381)" width="2" x="308.024" y="131.881"/><rect height="27" rx="1" transform="scale(-1 1) rotate(40 0 -703.654)" width="2" x="308.024" y="131.881"/><path d="M295.388 137.247l7.66-6.428 2.571 3.064-7.66 6.428zM322.976 137.247l-7.66-6.428-2.571 3.064 7.66 6.428z"/></g><path d="M295 125.5a196.438 196.438 0 0 1 28 0v4a196.438 196.438 0 0 0-28 0z" fill="#bd939b"/><path d="M413.584 238.323c-9.287 2.238-19.064 3.316-28.798 2.592-8.197-22.369-15.557-36.883-20.012-44.748v270.577s-21.102 6.71-55.867 11.11l-.544-.059c1.881-54.795 5.722-166.47 8.277-240.705 2.055-59.755 31.084-95.29 60.099-117.44-2.676 6.78-5.072 14.606-7 23.667 7.354 11.852 24.436 42.069 43.831 94.964l.014.042zM190.717 477.795c-34.248-4.401-56.477-11.05-56.477-11.05V196.171c-4.456 7.867-11.813 22.38-20.01 44.743-9.632.716-19.308-.332-28.51-2.523.005-.033.012-.065.02-.097 19.377-52.848 36.305-83.066 43.61-94.944-1.93-9.075-4.328-16.912-7.007-23.701 29.015 22.15 58.044 57.685 60.1 117.44 2.554 74.235 6.395 185.91 8.276 240.705z" fill="#000" fill-opacity=".1"/></g></svg>