<?xml version="1.0" encoding="utf-8"?><svg width="500" height="500" viewBox="0 0 500 500" fill="none" xmlns="http://www.w3.org/2000/svg"><path fill-rule="evenodd" clip-rule="evenodd" d="M203.004 109.223h93.643V21.928h-93.643v87.295Z" fill="#C8C8C8"/><path fill-rule="evenodd" clip-rule="evenodd" d="M202.863 32.228h93.459v-14.2h-93.459v14.2Z" fill="#E3E3E3"/><path fill-rule="evenodd" clip-rule="evenodd" d="M87.547 75.258S46.785 148.06 29 203.03c4.445 13.375 45.208 40.86 85.232 37.885 13.34-36.4 24.46-52 24.46-52S141.655 93.83 87.547 75.26m323.927-.002s40.763 72.801 58.547 127.771c-4.444 13.375-45.207 40.86-85.232 37.885-13.339-36.4-24.459-52-24.459-52s-2.964-95.085 51.144-113.655" fill="#F2F2F2"/><path fill-rule="evenodd" clip-rule="evenodd" d="M249.51 57.703c-50.081 0-47.798-39.47-48.742-39.14-7.516 2.618-24.133 14.936-52.439 25.494-31.873 11.886-52.626 19.316-60.782 31.2 11.115 8.915 46.694 28.97 46.694 120.345v271.14s49.658 14.856 114.885 14.856c68.929 0 115.649-14.856 115.649-14.856v-271.14c0-91.375 35.579-111.43 46.699-120.345-8.157-11.885-28.91-19.315-60.782-31.2-28.36-10.576-44.982-22.919-52.479-25.508-.927-.32 4.178 39.154-48.703 39.154Z" fill="#F2F2F2"/><path fill-rule="evenodd" clip-rule="evenodd" d="M265.46 56.27c15.676-3.093 23.748-10.751 27.937-18.366v441.644a478.805 478.805 0 0 1-27.937 1.768V56.271Zm58.867-23.879c7.325 3.753 16.071 7.824 26.363 11.663l1.574.586v425.441c-6.829 1.637-16.283 3.657-27.937 5.546V32.391ZM234.53 481.35a460.4 460.4 0 0 1-27.937-1.79V37.804c4.477 7.684 12.681 15.434 27.937 18.512v425.033Zm-58.867-5.74c-11.439-1.846-20.935-3.816-27.936-5.43V44.278l.601-.224c10.751-4.01 19.815-8.274 27.335-12.164v443.719Z" fill="#545454"/><path fill-rule="evenodd" clip-rule="evenodd" d="M467.463 195.302a337.97 337.97 0 0 1 2.667 7.9c-4.445 13.375-45.208 40.86-85.232 37.885a420.49 420.49 0 0 0-2.836-7.52c20.796-1.358 37.994-5.637 51.595-12.837 13.428-7.109 24.697-15.585 33.806-25.428Zm-435.808 0c9.103 9.828 20.36 18.291 33.772 25.392 13.611 7.205 30.824 11.485 51.639 12.84a423.042 423.042 0 0 0-2.834 7.516C74.208 244.025 33.445 216.54 29 203.165a339.518 339.518 0 0 1 2.655-7.863Z" fill="#3D3D3D"/><path fill-rule="evenodd" clip-rule="evenodd" d="M307.853 23.345c-5.772-3.24-9.728-5.345-12.008-5.345 0 0 5.882 32.495-46.335 32.495-48.52 0-46.335-32.495-46.335-32.495-2.28 0-6.236 2.105-12.003 5.345 0 0 7.368 40.38 58.403 40.38 51.478 0 58.278-35.895 58.278-40.38Z" fill="#F2F2F2"/><path fill-rule="evenodd" clip-rule="evenodd" d="M413.583 238.323c-9.288 2.238-19.065 3.316-28.798 2.592-8.198-22.369-15.557-36.883-20.013-44.748v270.577s-21.102 6.71-55.866 11.111l-.544-.06c1.881-54.795 5.722-166.47 8.276-240.705 2.056-59.755 31.085-95.29 60.099-117.44-2.675 6.781-5.071 14.606-6.999 23.667 7.354 11.852 24.436 42.069 43.831 94.964l.014.042ZM190.715 477.795c-34.247-4.401-56.476-11.051-56.476-11.051V196.172c-4.456 7.867-11.814 22.379-20.01 44.743-9.633.716-19.308-.332-28.51-2.524.005-.032.012-.064.02-.096 19.377-52.848 36.305-83.066 43.609-94.944-1.928-9.075-4.327-16.912-7.006-23.701 29.014 22.15 58.044 57.685 60.099 117.44 2.554 74.235 6.396 185.91 8.276 240.705h-.002Z" fill="#000" fill-opacity=".1"/><path fill-rule="evenodd" clip-rule="evenodd" d="M310 164c12.15 0 22-9.85 22-22s-9.85-22-22-22-22 9.85-22 22 9.85 22 22 22Z" fill="#F2F2F2"/><path fill-rule="evenodd" clip-rule="evenodd" d="M310 162c11.046 0 20-8.954 20-20s-8.954-20-20-20-20 8.954-20 20 8.954 20 20 20Z" fill="#3D3D3D"/><path fill-rule="evenodd" clip-rule="evenodd" d="M310 158c8.837 0 16-7.163 16-16s-7.163-16-16-16-16 7.163-16 16 7.163 16 16 16Z" fill="#C1C1C1"/><path fill-rule="evenodd" clip-rule="evenodd" d="M310 155c7.18 0 13-5.82 13-13s-5.82-13-13-13-13 5.82-13 13 5.82 13 13 13Z" fill="#fff"/><path fill-rule="evenodd" clip-rule="evenodd" d="M310 152c5.523 0 10-4.477 10-10s-4.477-10-10-10-10 4.477-10 10 4.477 10 10 10Z" fill="#C1C1C1"/></svg>