<?xml version="1.0" encoding="UTF-8"?><svg width="500" height="500" viewBox="0 0 500 500" fill="none" xmlns="http://www.w3.org/2000/svg"><path fill-rule="evenodd" clip-rule="evenodd" d="M203.006 109.193h93.643V21.8979h-93.643v87.2951z" fill="#D7C500"/><path fill-rule="evenodd" clip-rule="evenodd" d="M202.866 32.198h93.459v-14.2h-93.459v14.2z" fill="#BB282C"/><path fill-rule="evenodd" clip-rule="evenodd" d="M87.5472 75.2603S46.7846 148.061 29 203.031c4.4449 13.376 45.2074 40.861 85.232 37.886 13.339-36.401 24.459-52.001 24.459-52.001s2.963-95.0856-51.1438-113.6557zm323.9258 0s40.762 72.8007 58.547 127.7707c-4.445 13.376-45.208 40.861-85.232 37.886-13.34-36.401-24.459-52.001-24.459-52.001s-2.964-95.0856 51.144-113.6557z" fill="#F0DC00"/><path fill-rule="evenodd" clip-rule="evenodd" d="M249.513 57.7054c-50.081 0-47.798-39.4691-48.742-39.14-7.516 2.6187-24.133 14.9368-52.439 25.495-31.873 11.885-52.6256 19.315-60.7822 31.2 11.1149 8.915 46.6942 28.9696 46.6942 120.3446v271.14S183.902 481.6 249.129 481.6c68.929 0 115.649-14.855 115.649-14.855v-271.14c0-91.375 35.579-111.4296 46.699-120.3446-8.157-11.885-28.91-19.315-60.783-31.2-28.359-10.5767-44.981-22.9194-52.478-25.5087-.927-.3202 4.178 39.1537-48.703 39.1537z" fill="#F0DC00"/><path fill-rule="evenodd" clip-rule="evenodd" d="M249.577 63.7514c51.478 0 58.278-35.895 58.278-40.38-5.772-3.24-9.728-5.345-12.008-5.345 0 0 5.882 32.495-46.335 32.495-48.52 0-46.335-32.495-46.335-32.495-2.28 0-6.236 2.105-12.003 5.345 0 0 7.368 40.38 58.403 40.38z" fill="#DC3136"/><path fill-rule="evenodd" clip-rule="evenodd" d="M297.002 126.5h24.005L330 142.461 309.003 166.5 288 142.5l9.002-16z" fill="#EE1B22"/><path fill-rule="evenodd" clip-rule="evenodd" d="M298.716 129h20.576L327 142.567 309.003 163 291 142.6l7.716-13.6z" fill="#FCEF1D"/><path fill-rule="evenodd" clip-rule="evenodd" d="M298.716 129H309l.003 34L291 142.6l7.716-13.6z" fill="#000"/><path fill="#EE1B22" d="M290 119.5h38v10h-38z"/><path fill="#FCEF1D" d="M292 121.5h34v6h-34z"/><path fill-rule="evenodd" clip-rule="evenodd" d="M413.584 238.323c-9.287 2.238-19.064 3.316-28.797 2.592-8.198-22.369-15.558-36.883-20.013-44.748v270.577s-21.102 6.71-55.866 11.111l-.544-.06c1.88-54.795 5.722-166.47 8.276-240.705 2.055-59.755 31.085-95.29 60.099-117.44-2.675 6.781-5.072 14.606-6.999 23.667 7.354 11.852 24.435 42.069 43.83 94.964.005.014.01.028.014.042zM190.717 477.795c-34.248-4.401-56.476-11.051-56.476-11.051V196.172c-4.456 7.867-11.814 22.379-20.01 44.743-9.633.716-19.3089-.332-28.5108-2.524a1.056 1.056 0 01.0199-.096c19.3769-52.848 36.3059-83.066 43.6099-94.944-1.929-9.075-4.328-16.912-7.006-23.701 29.014 22.15 58.043 57.685 60.099 117.44 2.554 74.235 6.395 185.91 8.276 240.705h-.002z" fill="#000" fill-opacity=".06"/></svg>