<?xml version="1.0" encoding="UTF-8"?><svg height="500" viewBox="0 0 500 500" width="500" xmlns="http://www.w3.org/2000/svg"><g fill="none" fill-rule="evenodd"><path d="M0 0h500v500H0z"/><path d="M203.006 109.193h93.643V21.898h-93.643z" fill="#1f4224"/><path d="M202.867 32.198h93.458v-14.2h-93.458z" fill="#2a5931"/><g fill="#f6da00"><path d="M87.55 75.26s-40.762 72.8-58.547 127.77c4.445 13.375 45.208 40.86 85.232 37.885 13.34-36.4 24.46-52 24.46-52S141.658 93.83 87.55 75.26M411.476 75.26s40.762 72.8 58.547 127.77c-4.445 13.375-45.208 40.86-85.232 37.885-13.34-36.4-24.46-52-24.46-52S357.368 93.83 411.476 75.26"/><path d="M249.514 57.706c-50.082 0-47.798-39.47-48.742-39.14-7.516 2.618-24.133 14.936-52.439 25.495-31.873 11.885-52.626 19.315-60.782 31.2 11.114 8.915 46.694 28.97 46.694 120.345v271.14S183.903 481.6 249.13 481.6c68.929 0 115.648-14.855 115.648-14.855v-271.14c0-91.375 35.58-111.43 46.7-120.345-8.157-11.885-28.91-19.315-60.783-31.2-28.36-10.577-44.982-22.92-52.478-25.511-.927-.318 4.177 39.156-48.703 39.156z"/></g><path d="M467.461 195.302a338.826 338.826 0 0 1 2.668 7.9c-4.445 13.375-45.208 40.86-85.232 37.885a426.405 426.405 0 0 0-2.836-7.52c20.795-1.358 37.993-5.637 51.595-12.837 13.428-7.11 24.696-15.585 33.805-25.428zM31.655 195.302c9.103 9.828 20.36 18.291 33.772 25.392 13.611 7.205 30.824 11.485 51.64 12.84a426.42 426.42 0 0 0-2.835 7.516C74.208 244.025 33.445 216.54 29 203.165c.836-2.584 1.723-5.209 2.655-7.863zM249.576 63.752c51.479 0 58.279-35.895 58.279-40.38-5.772-3.24-9.728-5.345-12.008-5.345 0 0 5.881 32.495-46.335 32.495-48.52 0-46.336-32.495-46.336-32.495-2.28 0-6.235 2.105-12.002 5.345 0 0 7.368 40.38 58.402 40.38" fill="#2f6437"/><path d="M309.003 121c-.674-.006-1-.014-1.01 0-5.166 6.712-8.617 8.303-12.308 6.523l-.816 1.062c5.753 8.187-12.952 21.37 14.134 37.415v-45c.674-.006 1-.014 1.01 0 5.167 6.712 8.618 8.303 12.308 6.523l.816 1.062c-5.753 8.187 12.952 21.37-14.134 37.415v-45z" stroke="#00612e" stroke-linejoin="round" stroke-width="2"/><path d="M309.003 121c-.674-.006-1-.014-1.01 0-5.166 6.712-8.617 8.303-12.308 6.523l-.816 1.062c5.753 8.187-12.952 21.37 14.134 37.415v-45c.674-.006 1-.014 1.01 0 5.167 6.712 8.618 8.303 12.308 6.523l.816 1.062c-5.753 8.187 12.952 21.37-14.134 37.415v-45z" fill="#ffdd06"/><g fill-rule="nonzero"><path d="M308.553 122.743a.549.549 0 0 1 .265-.19.5.5 0 0 1 .182-.033l.01.01a.524.524 0 0 1 .26.094l-.066.097.095.095.095-.075c4.496 5.75 8.218 8.018 10.98 6.673.463-.225.923.313.63.736-1.317 1.891-1.19 3.438.175 8.778 1.267 4.957 1.521 7.867.44 11.351-1.434 4.626-5.317 8.935-12.362 13.15a.5.5 0 0 1-.514 0c-7.056-4.22-10.958-8.54-12.422-13.179-1.103-3.493-.872-6.405.35-11.385 1.306-5.321 1.421-6.875.107-8.763-.294-.423.166-.961.63-.735 2.816 1.37 6.757-.889 11.06-6.475a.626.626 0 0 1 .085-.15z" fill="#00612e"/><path d="M296.775 147.86c.11.69.275 1.377.5 2.089 1.365 4.325 5.026 8.413 11.725 12.467 4.256-2.575 7.278-5.164 9.257-7.816l.482-7.384-9.123-2.418zM298.267 130.688c.8 1.8.514 3.776-.625 8.415-.1.408-.193.8-.28 1.18l11.633 2.609 11.45-2.771a70.023 70.023 0 0 0-.235-.946c-1.191-4.663-1.496-6.638-.694-8.442-2.994.51-6.52-1.894-10.523-6.888-3.902 4.96-7.632 7.389-10.726 6.843z" fill="#ffdd06"/><path d="M321.253 147c-.08.997-.273 1.966-.589 2.983-.522 1.683-1.395 3.33-2.664 4.954V147zM315 158.088a35.442 35.442 0 0 1-3 2.368V147h3zm-6 4.328a49.473 49.473 0 0 1-3-1.96V147h3zm-6-4.323c-1.173-1.036-2.17-2.08-3-3.134V147h3z" fill="#00612e"/><path d="M320.416 140c.813 3.348 1.088 5.68.718 8h-24.336c-.394-2.324-.146-4.654.63-8z" fill="#00612e"/></g><path d="M413.584 238.323c-9.287 2.238-19.064 3.316-28.798 2.592-8.197-22.369-15.557-36.883-20.012-44.748v270.577s-21.102 6.71-55.867 11.11l-.544-.059c1.881-54.795 5.722-166.47 8.277-240.705 2.055-59.755 31.084-95.29 60.099-117.44-2.676 6.78-5.072 14.606-7 23.667 7.354 11.852 24.436 42.069 43.831 94.964l.014.042zM190.717 477.795c-34.248-4.401-56.477-11.05-56.477-11.05V196.171c-4.456 7.867-11.813 22.38-20.01 44.743-9.632.716-19.308-.332-28.51-2.523.005-.033.012-.065.02-.097 19.377-52.848 36.305-83.066 43.61-94.944-1.93-9.075-4.328-16.912-7.007-23.701 29.015 22.15 58.044 57.685 60.1 117.44 2.554 74.235 6.395 185.91 8.276 240.705z" fill="#000" fill-opacity=".06"/></g></svg>