<svg xmlns="http://www.w3.org/2000/svg" width="501" height="501" fill="none"><path fill="#B8B8B8" fill-rule="evenodd" d="M203.5 109.68h93.65v-87.3H203.5v87.3Z" clip-rule="evenodd"/><path fill="#030B3D" fill-rule="evenodd" d="M203.37 32.69h93.45v-14.2h-93.45v14.2Z" clip-rule="evenodd"/><path fill="#FAFAFA" fill-rule="evenodd" d="M88.05 75.75s-40.77 72.8-58.55 127.77c4.44 13.37 45.2 40.86 85.23 37.88 13.34-36.4 24.46-52 24.46-52s2.96-95.08-51.14-113.65Zm323.92 0s40.76 72.8 58.55 127.77c-4.45 13.37-45.2 40.86-85.23 37.88-13.34-36.4-24.46-52-24.46-52s-2.97-95.08 51.14-113.65Z" clip-rule="evenodd"/><path fill="#FAFAFA" fill-rule="evenodd" d="M250.01 58.2c-50.08 0-47.8-39.47-48.74-39.15-7.52 2.62-24.13 14.94-52.44 25.5-31.87 11.88-52.62 19.31-60.78 31.2 11.11 8.91 46.7 28.97 46.7 120.34v271.14s49.65 14.86 114.88 14.86c68.93 0 115.65-14.85 115.65-14.85V196.1c0-91.38 35.58-111.44 46.7-120.35-8.16-11.89-28.91-19.32-60.79-31.2-28.36-10.58-44.98-22.92-52.48-25.5-.92-.33 4.18 39.14-48.7 39.14Z" clip-rule="evenodd"/><path fill="#0017D5" fill-rule="evenodd" d="M96.85 79.1c8.54-11.25 28.66-18.58 59.04-30.08 19.3-7.32 33.08-15.47 42.19-20.67l-.01-.05c1.21-.69 2.34-1.33 3.4-1.9l1.72 3.2c-9.03 5.07-23.45 13.98-44.36 21.9-29.86 11.3-49.81 18.58-58.6 29.5a52.09 52.09 0 0 0-3.38-1.9Zm-6.7-2.88c8.03-11.89 28.46-19.32 59.84-31.2 19.3-7.32 33.09-15.47 42.2-20.67l-.01-.05.02-.01 1.74 3.23c-9.1 5.2-22.52 12.98-41 19.98-30.46 11.53-50.6 18.87-59.1 30.16l-3.7-1.44Zm312.23 2.88a55.7 55.7 0 0 0-3.39 1.9c-8.78-10.92-28.73-18.2-58.6-29.5-20.2-7.66-34.35-16.23-43.43-21.37l1.58-3.3c.83.45 1.7.95 2.62 1.47l-.01.05c9.1 5.2 22.89 13.35 42.19 20.67 30.38 11.5 50.5 18.83 59.04 30.07Zm6.7-2.88a51.9 51.9 0 0 0-3.68 1.44c-8.5-11.29-28.65-18.63-59.11-30.16-18.28-6.92-31.6-14.6-40.7-19.81l1.42-3.41.04.02v.05c9.1 5.2 22.88 13.35 42.19 20.67 31.38 11.88 51.81 19.31 59.84 31.2Zm-43.8 120.02V466.8s-2.61.83-7.52 2.1V198.11c1.66-.65 3.1-1.13 4.33-1.42.79-.2 1.85-.34 3.2-.45ZM142.25 468.8c-4.86-1.21-7.5-2-7.5-2V196.24c1.33.11 2.39.26 3.17.45 1.23.29 2.67.77 4.33 1.42v270.7Z" clip-rule="evenodd"/><path fill="#FAFAFA" fill-rule="evenodd" d="M250.08 64.24c51.47 0 58.27-35.9 58.27-40.38-5.77-3.24-9.72-5.34-12-5.34 0 0 5.88 32.5-46.34 32.5-48.52 0-46.33-32.5-46.33-32.5-2.28 0-6.24 2.1-12 5.34 0 0 7.36 40.38 58.4 40.38Zm217.58 131.84c.94 2.66 1.83 5.3 2.67 7.9-4.44 13.37-45.2 40.86-85.23 37.88a434.6 434.6 0 0 0-2.84-7.52c20.8-1.35 38-5.63 51.6-12.83 13.43-7.11 24.7-15.59 33.8-25.43Zm-435.8 0c9.1 9.83 20.36 18.29 33.77 25.39 13.61 7.2 30.82 11.49 51.64 12.84-.93 2.4-1.88 4.9-2.84 7.52-40.02 2.97-80.78-24.51-85.23-37.89.84-2.58 1.73-5.2 2.66-7.86Z" clip-rule="evenodd"/><path fill="#000" fill-opacity=".1" fill-rule="evenodd" d="M413.94 238.81a93.76 93.76 0 0 1-28.8 2.6c-8.2-22.38-15.56-36.89-20.01-44.75v270.57s-21.1 6.71-55.87 11.11l-.54-.06 8.28-240.7c2.05-59.76 31.08-95.3 60.1-117.44a148.46 148.46 0 0 0-7 23.67c7.35 11.85 24.43 42.06 43.83 94.96a1 1 0 0 1 .01.04ZM191.07 478.28c-34.25-4.4-56.47-11.05-56.47-11.05V196.66c-4.46 7.87-11.82 22.38-20.01 44.74a93.6 93.6 0 0 1-28.51-2.52c0-.03 0-.06.02-.1 19.37-52.84 36.3-83.06 43.6-94.94a148.63 148.63 0 0 0-7-23.7c29.01 22.15 58.04 57.68 60.1 117.44 2.55 74.23 6.4 185.9 8.27 240.7Z" clip-rule="evenodd"/><path fill="#FFD742" d="m295.77 136.82.11-.9.92-.1c5.25-.48 9.22-.73 11.9-.73 2.65 0 6.61.25 11.92.74l.91.08.1.92c1.7 14.8-2.51 24.7-12.3 29.45l-.5.25-.5-.25c-10.2-5.04-14.25-14.95-12.56-29.46Z"/><path fill="#FE1C1C" fill-rule="evenodd" d="M296.9 136.96s7.83-.73 11.8-.73c3.9 0 11.81.73 11.81.73 2.46 21.54-11.69 28.3-11.69 28.3s-14.38-7.2-11.92-28.3Z" clip-rule="evenodd"/><ellipse cx="308.71" cy="148.41" fill="#FFD742" rx="4.75" ry="9.2"/><path fill="#FE1C1C" d="M316.43 128.54c1.3-1.17.44-2.65-1.89-3.28l-3.61-.97a8.9 8.9 0 0 0-4.44 0l-3.61.97c-2.34.63-3.19 2.11-1.89 3.28l2.98 2.67h9.48l2.98-2.67Z"/><path fill="#FFD742" fill-rule="evenodd" d="M303 133.72h11.41l3.7-3.3a4.24 4.24 0 0 0 1.36-2.27 3.8 3.8 0 0 0-.44-2.7c-.82-1.44-2.38-2.23-3.83-2.62l-3.62-.97a11.42 11.42 0 0 0-5.75 0l-3.6.97c-1.46.4-3.02 1.18-3.84 2.61a3.8 3.8 0 0 0-.44 2.7c.2.96.74 1.72 1.36 2.27l3.7 3.31Zm11.54-8.46c2.33.63 3.19 2.11 1.89 3.28l-2.98 2.67h-9.48l-2.98-2.67c-1.3-1.17-.45-2.65 1.89-3.28l3.61-.97a8.9 8.9 0 0 1 4.44 0l3.61.97Z" clip-rule="evenodd"/></svg>