<?xml version="1.0" encoding="utf-8"?><svg width="500" height="500" viewBox="0 0 500 500" fill="none" xmlns="http://www.w3.org/2000/svg"><path fill-rule="evenodd" clip-rule="evenodd" d="M203.003 109.223h93.643V21.928h-93.643v87.295Z" fill="#314199"/><path fill-rule="evenodd" clip-rule="evenodd" d="M202.863 32.228h93.459v-14.2h-93.459v14.2Z" fill="#E3E3E3"/><path fill-rule="evenodd" clip-rule="evenodd" d="M87.547 75.258S46.785 148.058 29 203.029c4.445 13.375 45.208 40.86 85.232 37.885 13.34-36.4 24.46-52 24.46-52s2.963-95.085-51.145-113.655ZM411.473 75.258s40.763 72.8 58.548 127.77c-4.445 13.375-45.208 40.86-85.233 37.885-13.339-36.4-24.459-52-24.459-52s-2.964-95.085 51.144-113.655Z" fill="#475ABE"/><path fill-rule="evenodd" clip-rule="evenodd" d="M249.511 57.703c-50.081 0-47.798-39.47-48.742-39.14-7.516 2.618-24.133 14.936-52.439 25.494-31.873 11.886-52.626 19.316-60.782 31.2 11.115 8.915 46.694 28.97 46.694 120.345v271.14s49.658 14.856 114.885 14.856c68.929 0 115.649-14.856 115.649-14.856v-271.14c0-91.375 35.579-111.43 46.699-120.345-8.157-11.885-28.91-19.315-60.782-31.2-28.36-10.576-44.982-22.919-52.479-25.508-.927-.32 4.178 39.154-48.703 39.154Z" fill="#475ABE"/><path fill-rule="evenodd" clip-rule="evenodd" d="M307.852 23.345C302.08 20.105 298.124 18 295.844 18c0 0 5.882 32.495-46.335 32.495-48.52 0-46.335-32.495-46.335-32.495-2.28 0-6.236 2.105-12.003 5.345 0 0 7.368 40.38 58.403 40.38 51.478 0 58.278-35.895 58.278-40.38Z" fill="#F2F2F2"/><path fill-rule="evenodd" clip-rule="evenodd" d="M413.584 238.323c-9.288 2.238-19.065 3.316-28.798 2.592-8.198-22.369-15.557-36.883-20.013-44.748v270.577s-21.102 6.71-55.866 11.111l-.544-.06c1.881-54.795 5.722-166.47 8.276-240.705 2.056-59.755 31.085-95.29 60.099-117.44-2.675 6.781-5.071 14.606-6.999 23.667 7.354 11.852 24.436 42.069 43.831 94.964l.014.042ZM190.716 477.795c-34.248-4.401-56.476-11.051-56.476-11.051V196.172c-4.456 7.867-11.814 22.379-20.01 44.743-9.633.716-19.308-.332-28.51-2.523.005-.032.011-.065.02-.097 19.377-52.848 36.305-83.066 43.609-94.944-1.928-9.075-4.327-16.912-7.006-23.701 29.014 22.15 58.044 57.685 60.099 117.44 2.554 74.235 6.396 185.91 8.276 240.705h-.002Z" fill="#000" fill-opacity=".06"/><path fill-rule="evenodd" clip-rule="evenodd" d="M290 123.846s14-1.038 19-5.846c5 4.808 19 5.846 19 5.846v8.873C328 156.615 309 168 309 168s-19-11.389-19-35.281v-8.873Z" fill="#F2F2F2"/><path fill-rule="evenodd" clip-rule="evenodd" d="M292 125.378s12.526-.955 17-5.378c4.474 4.423 17 5.378 17 5.378v8.164c0 21.984-17 31.958-17 31.958s-17-9.978-17-31.958v-8.164Z" fill="#475ABE"/><path fill-rule="evenodd" clip-rule="evenodd" d="M294 126.911s11.053-.873 15-4.911c3.947 4.038 15 4.911 15 4.911v7.453C324 154.437 309 163 309 163s-15-8.567-15-28.636v-7.453Z" fill="#F2F2F2"/><ellipse cx="309" cy="140" rx="9" ry="4" fill="#E08686"/><path d="M323.723 139C321.677 155.763 309 163 309 163s-12.677-7.24-14.723-24h29.446Z" fill="#7F8FE4"/><path d="M296.997 128c-1.5 2.5 7.601 9 12.001 9l.002-7.5.002 7.5c4.4 0 13.501-6.5 12.001-9-2.003 0-8.503 2-9.003 3-.502 2.5-2.577 2.228-2 .5.507-1.518-.502-2-1-2s-1.507.482-1 2c.577 1.728-1.498 2-2-.5-.5-1-7-3-9.003-3Z" fill="#475ABE"/></svg>