<?xml version="1.0" encoding="UTF-8"?><svg height="500" viewBox="0 0 500 500" width="500" xmlns="http://www.w3.org/2000/svg"><g fill="none" fill-rule="evenodd"><path d="M203.003 109.223h93.643V21.928h-93.643z" fill="#d4b326"/><path d="M202.864 32.228h93.458v-14.2h-93.458z" fill="#106bb8"/><path d="M87.548 75.258S46.785 148.058 29 203.029c4.445 13.376 45.208 40.86 85.232 37.886 13.34-36.4 24.46-52 24.46-52s2.963-95.085-51.144-113.655M411.473 75.258s40.762 72.8 58.547 127.77c-4.445 13.376-45.208 40.86-85.232 37.886-13.34-36.4-24.46-52-24.46-52s-2.963-95.085 51.145-113.655" fill="#fee841"/><path d="M249.511 57.703c-50.082 0-47.798-39.47-48.742-39.14-7.516 2.618-24.133 14.936-52.439 25.495-31.873 11.885-52.626 19.315-60.782 31.2 11.114 8.915 46.694 28.97 46.694 120.345v271.14s49.658 14.855 114.885 14.855c68.929 0 115.648-14.855 115.648-14.855v-271.14c0-91.375 35.58-111.43 46.7-120.345-8.157-11.885-28.91-19.315-60.783-31.2-28.36-10.577-44.982-22.92-52.478-25.511-.927-.318 4.177 39.156-48.703 39.156z" fill="#fee841"/><g fill="#147ad0"><path d="M467.461 195.302a338.826 338.826 0 0 1 2.668 7.9c-4.445 13.375-45.208 40.86-85.232 37.885a426.405 426.405 0 0 0-2.836-7.52c20.795-1.358 37.993-5.637 51.595-12.837 13.428-7.11 24.696-15.585 33.805-25.428zM31.655 195.302c9.103 9.828 20.36 18.291 33.772 25.392 13.611 7.205 30.824 11.485 51.64 12.84a426.42 426.42 0 0 0-2.835 7.516C74.208 244.025 33.445 216.54 29 203.165c.836-2.584 1.723-5.209 2.655-7.863zM174.404 32.4c6.756-3.393 12.314-6.526 16.77-9.028l2.137 6.63c-8.9 5.143-22.457 13.326-41.595 20.711-28.211 10.883-47.405 18.03-56.493 28.283l-7.61-3.976c8.202-11.83 28.93-19.251 60.717-31.104 10.156-3.789 18.808-7.803 26.074-11.516zM324.506 32.344c7.29 3.728 15.977 7.764 26.185 11.572C382.48 55.769 403.207 63.19 411.41 75.02l-7.494 4.107c-9.04-10.324-28.278-17.486-56.61-28.415-18.71-7.22-32.085-15.202-40.991-20.361l1.54-6.98c4.433 2.488 9.949 5.6 16.652 8.972z"/><path d="M307.852 23.345C302.08 20.105 298.124 18 295.844 18c0 0 5.881 32.495-46.335 32.495-48.52 0-46.336-32.495-46.336-32.495-2.28 0-6.235 2.105-12.002 5.345 0 0 7.368 40.38 58.402 40.38 51.479 0 58.279-35.895 58.279-40.38z"/></g><path d="M413.584 238.323c-9.287 2.238-19.064 3.316-28.798 2.592-8.197-22.369-15.557-36.883-20.012-44.748v270.577s-21.102 6.71-55.867 11.11l-.544-.059c1.881-54.795 5.722-166.47 8.277-240.705 2.055-59.755 31.084-95.29 60.099-117.44-2.676 6.78-5.072 14.606-7 23.667 7.354 11.852 24.436 42.069 43.831 94.964l.014.042zM190.717 477.795c-34.248-4.401-56.477-11.05-56.477-11.05V196.171c-4.456 7.867-11.813 22.38-20.01 44.743-9.632.716-19.308-.332-28.51-2.523.005-.033.012-.065.02-.097 19.377-52.848 36.305-83.066 43.61-94.944-1.93-9.075-4.328-16.912-7.007-23.701 29.015 22.15 58.044 57.685 60.1 117.44 2.554 74.235 6.395 185.91 8.276 240.705z" fill="#000" fill-opacity=".06"/><path d="M294 127.113l1.316.438c4.807 1.603 9.329.65 13.13-1.883l.554-.37.555.37c3.8 2.534 8.322 3.486 13.129 1.883l1.316-.438V151.5c0 4.087-2.288 6.248-7.908 9.204l-1.063.557c-3.004 1.58-4.384 2.533-5.189 3.78l-.84 1.305-.84-1.304c-.803-1.246-2.183-2.199-5.182-3.776l-1.07-.561c-5.619-2.955-7.908-5.117-7.908-9.205z" fill="#004396" fill-rule="nonzero"/><path d="M295 128.5c6 2 11 0 14-2 3 2 8 4 14 2v23c0 7.347-11 8.347-14 13-2.997-4.65-14-5.65-14-13z" fill="#fff"/><path d="M321.5 137.156v13.712c0 6.574-9.821 7.469-12.5 11.632-1.407-2.188-4.792-3.473-7.685-5.157z" fill="#f3ba00"/><path d="M309 128.5c1.759 1.175 4.287 2.35 7.333 2.512L296.5 150.844v-20.555c5.357 1.79 9.821 0 12.5-1.789z" fill="#004396"/><g fill="#b39323"><path d="M314 124l-1.763.927.336-1.963-1.426-1.391 1.971-.287.882-1.786.882 1.786 1.971.287-1.426 1.39.336 1.964zM304 124l-1.763.927.336-1.963-1.426-1.391 1.971-.287.882-1.786.882 1.786 1.971.287-1.426 1.39.336 1.964z"/></g></g></svg>