<svg width="500" height="500" viewBox="0 0 500 500" fill="none" xmlns="http://www.w3.org/2000/svg"><path fill-rule="evenodd" clip-rule="evenodd" d="M203 109.2h93.6V22H203v87.3Z" fill="#16A8C0"/><path fill-rule="evenodd" clip-rule="evenodd" d="M202.9 32.2h93.4V18H203v14.2Z" fill="#0A223A"/><path fill-rule="evenodd" clip-rule="evenodd" d="M87.5 75.3S46.8 148 29 203c4.4 13.4 45.2 40.9 85.2 38 13.4-36.5 24.5-52 24.5-52s3-95.2-51.2-113.7M411.5 75.3S452.2 148 470 203c-4.4 13.4-45.2 40.9-85.2 38-13.4-36.5-24.5-52-24.5-52s-3-95.2 51.2-113.7" fill="#48D5E9"/><path fill-rule="evenodd" clip-rule="evenodd" d="M249.5 57.7c-50 0-47.8-39.5-48.7-39.1-7.5 2.6-24.2 14.9-52.5 25.5-31.8 11.8-52.6 19.3-60.8 31.2 11.2 8.9 46.7 29 46.7 120.3v271.1s49.7 14.9 115 14.9c68.9 0 115.6-14.9 115.6-14.9V195.6c0-91.4 35.6-111.4 46.7-120.3-8.2-12-29-19.4-60.8-31.2-28.4-10.6-45-23-52.5-25.6-1-.3 4.2 39.2-48.7 39.2Z" fill="#48D5E9"/><path fill-rule="evenodd" clip-rule="evenodd" d="M200.8 18.5c.7-.2-.4 20.5 18.2 32v430a471.6 471.6 0 0 1-56-7.1V38c19.5-8.8 31.7-17.3 37.8-19.5Zm97.4 0c6.2 2.2 18.7 11 38.8 20v434.8a454.4 454.4 0 0 1-56 7.2v-430c19-11.3 16.5-32.2 17.2-32Z" fill="#0AC0DE"/><path fill-rule="evenodd" clip-rule="evenodd" d="m467.4 195.1 2.6 8c-4.4 13.3-45.2 40.8-85.2 37.8l-2.8-7.5c20.7-1.4 38-5.6 51.5-12.8a125.5 125.5 0 0 0 33.9-25.5ZM31.7 195.2c9 9.8 20.3 18.3 33.7 25.4a127.9 127.9 0 0 0 51.7 12.8l-2.9 7.5c-40 3-80.8-24.5-85.2-37.9a338 338 0 0 1 2.7-7.8ZM307.9 23.3a35.3 35.3 0 0 0-12-5.3s5.8 32.5-46.4 32.5C201 50.5 203.2 18 203.2 18c-2.3 0-6.3 2.1-12 5.3 0 0 7.3 40.4 58.4 40.4 51.5 0 58.3-35.9 58.3-40.4Z" fill="#0D3C77"/><path fill-rule="evenodd" clip-rule="evenodd" d="M413.6 238.3c-9.3 2.3-19 3.3-28.8 2.6a303.9 303.9 0 0 0-20-44.7v270.5s-21.1 6.8-55.9 11.2l-.5-.1 8.2-240.7a147 147 0 0 1 60.1-117.4c-2.6 6.7-5 14.6-7 23.6a529.7 529.7 0 0 1 43.9 95ZM190.7 477.8c-34.2-4.4-56.5-11-56.5-11V196.1a304 304 0 0 0-20 44.7 93.6 93.6 0 0 1-28.5-2.6c19.4-52.9 36.3-83 43.6-95-1.9-9-4.3-16.9-7-23.7a147 147 0 0 1 60.1 117.5l8.3 240.7Z" fill="#000" fill-opacity=".1"/><path fill-rule="evenodd" clip-rule="evenodd" d="M309 169c9.3 0 16.8-6.6 16.8-14.7V123s-8.4-3.3-16.8-3.3-16.8 3.3-16.8 3.3v31.3c0 8.1 7.5 14.7 16.8 14.7Z" fill="#0D3C77"/><path fill-rule="evenodd" clip-rule="evenodd" d="M309 167c8.3 0 15-6.4 15-13.7v-21.1s-7.5-3-15-3V167Z" fill="#F9FAFB"/><path fill-rule="evenodd" clip-rule="evenodd" d="M309 127.7c8.5 0 15.3 3.1 15.3 3.1v-6.6s-7.6-3-15.3-3c-7.7 0-15.3 3-15.3 3v6s6.8-2.5 15.3-2.5Z" fill="#F9FAFB"/></svg>