<?xml version="1.0" encoding="UTF-8"?><svg height="500" viewBox="0 0 500 500" width="500" xmlns="http://www.w3.org/2000/svg"><g fill="none" fill-rule="evenodd"><path d="M0 0h500v500H0z"/><path d="M203.607 109.223h93.432V21.928h-93.432z" fill="#6584be"/><path d="M203.468 32.228h93.248v-14.2h-93.248z" fill="#3d3d3d"/><g fill="#7496d8"><path d="M87.548 75.258S46.785 148.058 29 203.029c4.445 13.376 45.208 40.86 85.232 37.886 13.34-36.4 24.46-52 24.46-52s2.963-95.085-51.144-113.655M411.473 75.258s40.762 72.8 58.547 127.77c-4.445 13.376-45.208 40.86-85.232 37.886-13.34-36.4-24.46-52-24.46-52s-2.963-95.085 51.145-113.655"/><path d="M249.511 57.703c-50.082 0-47.798-39.47-48.742-39.14-7.516 2.618-24.133 14.936-52.439 25.495-31.873 11.885-52.626 19.315-60.782 31.2 11.114 8.915 46.694 28.97 46.694 120.345v271.14s49.658 14.855 114.885 14.855c68.929 0 115.648-14.855 115.648-14.855v-271.14c0-91.375 35.58-111.43 46.7-120.345-8.157-11.885-28.91-19.315-60.783-31.2-28.36-10.577-44.982-22.92-52.478-25.511-.927-.318 4.177 39.156-48.703 39.156z"/></g><path d="M119.982 226.098a407.766 407.766 0 0 0-5.75 14.815c-40.024 2.975-80.787-24.51-85.232-37.885 1.757-5.43 3.739-11.036 5.883-16.728 10.27 10.965 22.741 19.794 37.414 26.489 14.658 6.687 30.553 11.123 47.685 13.31zM379.205 226.098c17.131-2.186 33.026-6.622 47.684-13.31 14.673-6.694 27.145-15.523 37.414-26.488 2.145 5.692 4.126 11.297 5.884 16.728-4.445 13.375-45.208 40.86-85.233 37.885a407.768 407.768 0 0 0-5.75-14.815z" fill="#585b82"/><path d="M308.22 23.345c-5.76-3.24-9.707-5.345-11.982-5.345 0 0 5.869 32.495-46.23 32.495-48.411 0-46.231-32.495-46.231-32.495-2.275 0-6.222 2.105-11.976 5.345 0 0 7.352 40.38 58.271 40.38 51.363 0 58.147-35.895 58.147-40.38z" fill="#7496d8"/><path d="M291.044 36.55c6.952-8.814 5.194-18.55 5.194-18.55 2.275 0 6.222 2.105 11.981 5.345 0 1.805-1.099 8.697-5.76 16.29a152.72 152.72 0 0 0-11.415-3.086zm-92.32 2.721c-5.57-8.49-6.923-15.926-6.923-15.926 5.754-3.24 9.7-5.345 11.976-5.345 0 0-.64 9.527 6.46 18.264-3.977.88-7.816 1.885-11.513 3.007z" fill="#3d3d3d"/><path d="M142.393 78.387c39.044 19.098 74.929 38.96 107.654 59.583 32.946-20.727 68.805-40.575 107.577-59.545 5.154 8.53 7.85 17.655 7.85 26.847v38.853l-.431.2c-22.757 10.523-61.074 34.587-114.948 72.192v.066l-.048-.033-.047.033v-.066c-54.182-37.747-92.498-61.81-114.948-72.192l-.532-.246v-38.807c0-9.205 2.704-18.344 7.873-26.885z" fill="#f2f2f2"/><path d="M289.073 121.333c8.756-2.222 15.404-3.333 19.941-3.333 4.538 0 11.185 1.111 19.942 3.333 3.468 19.1-3.18 34.656-19.942 46.667-16.762-12.008-23.41-27.563-19.941-46.667z" fill="#fff"/><path d="M309.5 165c-10.563-8.006-16.337-17.804-17.32-29.394 8.912-3.89 20.49-5.879 34.73-5.965.724 14.226-5.08 26.012-17.41 35.359z" fill="#005ca8"/><path d="M413.584 238.323c-9.287 2.238-19.064 3.316-28.798 2.592-8.197-22.369-15.557-36.883-20.012-44.748v270.577s-21.102 6.71-55.867 11.11l-.544-.059c1.881-54.795 5.722-166.47 8.277-240.705 2.055-59.755 31.084-95.29 60.099-117.44-2.676 6.78-5.072 14.606-7 23.667 7.354 11.852 24.436 42.069 43.831 94.964l.014.042zM190.717 477.795c-34.248-4.401-56.477-11.05-56.477-11.05V196.171c-4.456 7.867-11.813 22.38-20.01 44.743-9.632.716-19.308-.332-28.51-2.523.005-.033.012-.065.02-.097 19.377-52.848 36.305-83.066 43.61-94.944-1.93-9.075-4.328-16.912-7.007-23.701 29.015 22.15 58.044 57.685 60.1 117.44 2.554 74.235 6.395 185.91 8.276 240.705z" fill="#000" fill-opacity=".06"/></g></svg>