<?xml version="1.0" encoding="UTF-8"?><svg height="500" viewBox="0 0 500 500" width="500" xmlns="http://www.w3.org/2000/svg"><g fill="none" fill-rule="evenodd"><path d="M0 0h500v500H0z"/><path d="M203.086 109.195h93.643V21.9h-93.643z" fill="#e0e0e0"/><path d="M202.946 32.2h93.459V18h-93.459z" fill="#e0e0e0"/><path d="M87.548 75.26S46.785 148.06 29 203.03c4.445 13.375 45.208 40.86 85.232 37.885 13.34-36.4 24.46-52 24.46-52S141.655 93.83 87.548 75.26M411.473 75.26s40.763 72.8 58.548 127.77c-4.445 13.375-45.208 40.86-85.232 37.885-13.34-36.4-24.46-52-24.46-52S357.366 93.83 411.473 75.26" fill="#f2f2f2"/><path d="M249.514 57.706c-50.082 0-47.799-39.47-48.743-39.14-7.516 2.618-24.133 14.936-52.439 25.495-31.872 11.885-52.625 19.315-60.782 31.2 11.115 8.915 46.694 28.97 46.694 120.345v271.14S183.902 481.6 249.13 481.6c68.93 0 115.649-14.855 115.649-14.855v-271.14c0-91.375 35.58-111.43 46.7-120.345-8.157-11.885-28.91-19.315-60.783-31.2-28.36-10.577-44.982-22.92-52.478-25.511-.928-.318 4.177 39.156-48.703 39.156z" fill="#f2f2f2"/><g fill="#3d3d3d"><path d="M467.461 195.302a338.826 338.826 0 0 1 2.668 7.9c-4.445 13.375-45.208 40.86-85.232 37.885a426.405 426.405 0 0 0-2.836-7.52c20.795-1.358 37.993-5.637 51.595-12.837 13.428-7.11 24.696-15.585 33.805-25.428zM31.655 195.302c9.103 9.828 20.36 18.291 33.772 25.392 13.611 7.205 30.824 11.485 51.64 12.84a426.42 426.42 0 0 0-2.835 7.516C74.208 244.025 33.445 216.54 29 203.165c.836-2.584 1.723-5.209 2.655-7.863zM96.645 79.789c8.54-11.24 28.66-18.57 59.042-30.077 19.301-7.312 33.083-15.468 42.19-20.662l-.009-.05a261.715 261.715 0 0 1 3.395-1.91l1.73 3.214c-9.03 5.064-23.459 13.972-44.362 21.891-29.863 11.31-49.812 18.585-58.594 29.504a52.218 52.218 0 0 0-3.392-1.91zm-6.7-2.876c8.031-11.886 28.465-19.316 59.847-31.201 19.302-7.312 33.084-15.468 42.191-20.662l-.009-.05.024-.014 1.738 3.228c-9.103 5.208-22.522 12.981-41 19.981-30.458 11.535-50.603 18.874-59.105 30.162zM402.182 79.791a52.22 52.22 0 0 0-3.392 1.911c-8.78-10.92-28.73-18.196-58.596-29.507-20.204-7.654-34.36-16.233-43.438-21.37l1.584-3.305c.826.46 1.698.955 2.617 1.48l-.01.05c9.108 5.194 22.89 13.35 42.191 20.662 30.384 11.507 50.505 18.838 59.044 30.08zm6.699-2.876c-1.26.44-2.488.921-3.685 1.444-8.502-11.29-28.647-18.628-59.108-30.164-18.275-6.923-31.602-14.603-40.698-19.81l1.413-3.413.048.028-.01.05c9.108 5.194 22.89 13.35 42.192 20.662 31.382 11.885 51.816 19.315 59.847 31.2v.001l.001.002z"/></g><path d="M249.656 63.754c51.479 0 58.278-35.895 58.278-40.38-5.772-3.24-9.728-5.345-12.007-5.345 0 0 5.881 32.495-46.336 32.495-48.52 0-46.335-32.495-46.335-32.495-2.28 0-6.236 2.105-12.003 5.345 0 0 7.369 40.38 58.403 40.38" fill="#f2f2f2"/><circle cx="309" cy="143" fill="#febf06" r="22"/><ellipse cx="309" cy="143" fill="#fff" rx="18.333" ry="18"/><path d="M413.584 238.323c-9.287 2.238-19.064 3.316-28.798 2.592-8.197-22.369-15.557-36.883-20.012-44.748v270.577s-21.102 6.71-55.867 11.11l-.544-.059c1.881-54.795 5.722-166.47 8.277-240.705 2.055-59.755 31.084-95.29 60.099-117.44-2.676 6.78-5.072 14.606-7 23.667 7.354 11.852 24.436 42.069 43.831 94.964l.014.042zM190.717 477.795c-34.248-4.401-56.477-11.05-56.477-11.05V196.171c-4.456 7.867-11.813 22.38-20.01 44.743-9.632.716-19.308-.332-28.51-2.523.005-.033.012-.065.02-.097 19.377-52.848 36.305-83.066 43.61-94.944-1.93-9.075-4.328-16.912-7.007-23.701 29.015 22.15 58.044 57.685 60.1 117.44 2.554 74.235 6.395 185.91 8.276 240.705z" fill="#000" fill-opacity=".06"/><g transform="translate(298.23 105.55)"><path d="M.77 11.882C-.6 9.29 1.361 5.95 10.77 5.95v7.227c-5.752.865-9.085.434-10-1.294zm10 1.294V5.949c9.41 0 11.372 3.341 10 5.933-.914 1.728-4.248 2.16-10 1.294z" fill="#e21d38"/><path d="M.77 11.882c2.5-.955 5.834-1.433 10-1.433 4.167 0 7.5.478 10 1.433l-2.139 4.02c-2.461-1.029-5.081-1.543-7.86-1.543-2.777 0-5.393.514-7.848 1.543z" fill="#febf06"/><path d="M10.77 13.176c2.785-.006 5.588.558 8.411 1.693l-.55 1.033c-2.461-1.029-5.081-1.543-7.86-1.543-2.777 0-5.393.514-7.848 1.543l-.535-.999c2.804-1.146 5.598-1.721 8.382-1.727z" fill="#e9ae03"/><g fill="#febf06" fill-rule="nonzero"><path d="M1.258 11.343c-.842-3.73.328-5.77 3.6-6.365.113-.02.491-.041 1.136-.062.35-.47.518-.74.506-.808-.05-.272-1.549-.164-1.82-.114-3.863.703-5.358 3.31-4.397 7.57a.5.5 0 1 0 .975-.22zM20.282 11.343c.841-3.73-.329-5.77-3.601-6.365a59.95 59.95 0 0 0-.823-.128c-.377-.371-.555-.617-.533-.738.05-.272 1.263-.168 1.535-.118 3.862.703 5.358 3.31 4.397 7.57a.5.5 0 1 1-.975-.22z"/><path d="M15.599 11.607c1.118-5.15-.436-7.965-4.783-8.788-.361-.068-.6-.428-.535-.803s.412-.624.773-.555c5.13.97 7.118 4.57 5.84 10.45a.664.664 0 0 1-.793.521.691.691 0 0 1-.502-.825z"/><path d="M5.942 11.607c-1.119-5.15.436-7.965 4.783-8.788.361-.068.6-.428.535-.803s-.412-.624-.773-.555c-5.13.97-7.118 4.57-5.841 10.45.08.372.436.605.794.521s.583-.453.502-.825z"/><path d="M11.52 11.527v-8.77c0-.508.084-1.27.25-2.284 0-.261-.585-.473-1-.473-.414 0-1 .212-1 .473.167 1.042.25 1.825.25 2.346v8.708c0 .261.336.473.75.473.415 0 .75-.212.75-.473z"/></g><circle cx=".78" cy="11.513" fill="#d8d8d8" r="1"/><circle cx="10.771" cy="10.464" fill="#d8d8d8" r="1"/><circle cx="5.116" cy="10.755" fill="#d8d8d8" r="1"/><circle cx="16.445" cy="10.755" fill="#d8d8d8" r="1"/><circle cx="20.77" cy="11.513" fill="#d8d8d8" r="1"/></g></g></svg>