<svg xmlns="http://www.w3.org/2000/svg" width="501" height="501" fill="none"><path fill="#EAEAEA" fill-rule="evenodd" d="M203.86 109.82h93.64v-87.3h-93.64v87.3Z" clip-rule="evenodd"/><path fill="#A6281B" fill-rule="evenodd" d="M203.72 32.82h93.46v-14.2h-93.46v14.2Z" clip-rule="evenodd"/><path fill="#F9F9F9" fill-rule="evenodd" d="M88.4 75.88s-40.76 72.8-58.55 127.77c4.45 13.38 45.21 40.86 85.23 37.89 13.35-36.4 24.46-52 24.46-52s2.97-95.09-51.14-113.66Zm323.93 0s40.76 72.8 58.54 127.77c-4.44 13.38-45.2 40.86-85.23 37.89-13.34-36.4-24.46-52-24.46-52s-2.96-95.09 51.15-113.66Z" clip-rule="evenodd"/><path fill="#F9F9F9" fill-rule="evenodd" d="M250.36 58.33c-50.08 0-47.8-39.47-48.74-39.14-7.51 2.62-24.13 14.94-52.44 25.5-31.87 11.88-52.62 19.3-60.78 31.2 11.12 8.9 46.7 28.96 46.7 120.34v271.14s49.65 14.85 114.88 14.85c68.93 0 115.65-14.85 115.65-14.85V196.23c0-91.38 35.58-111.43 46.7-120.35-8.16-11.88-28.91-19.31-60.78-31.2-28.37-10.57-44.99-22.91-52.48-25.5-.93-.32 4.17 39.15-48.7 39.15Z" clip-rule="evenodd"/><path fill="#EC2B29" fill-rule="evenodd" d="M365.63 196.78v270.56s-2.61.83-7.52 2.1V198.65c1.66-.66 3.1-1.13 4.33-1.42.79-.2 1.85-.34 3.2-.45ZM142.6 469.34c-4.86-1.21-7.5-2-7.5-2V196.78c1.33.1 2.39.26 3.18.45 1.22.29 2.66.77 4.32 1.42v270.7Zm325.71-273.41c.94 2.66 1.83 5.3 2.67 7.9-4.45 13.37-45.21 40.85-85.23 37.88-.96-2.61-1.9-5.12-2.84-7.52 20.8-1.36 38-5.64 51.6-12.84 13.42-7.1 24.7-15.58 33.8-25.42Zm-435.81 0c9.1 9.82 20.36 18.29 33.78 25.39 13.6 7.2 30.82 11.48 51.64 12.84-.94 2.4-1.88 4.9-2.84 7.51-40.02 2.98-80.79-24.5-85.23-37.88.84-2.59 1.72-5.21 2.65-7.86ZM250.43 64.38c51.47 0 58.27-35.9 58.27-40.38-5.77-3.24-9.72-5.35-12-5.35 0 0 5.88 32.5-46.34 32.5-48.52 0-46.33-32.5-46.33-32.5-2.28 0-6.24 2.1-12 5.35 0 0 7.36 40.38 58.4 40.38Z" clip-rule="evenodd"/><path fill="#232323" fill-rule="evenodd" d="M319.14 165.28c2.34-4.25 3.82-10.2 3.82-16.84 0-6.64-1.48-12.6-3.82-16.84-2.37-4.3-5.44-6.6-8.54-6.6-3.12 0-6.19 2.3-8.55 6.6-2.34 4.25-3.82 10.2-3.82 16.84 0 6.64 1.48 12.59 3.82 16.84 2.36 4.29 5.44 6.6 8.55 6.6 3.1 0 6.17-2.31 8.54-6.6Zm-8.54 7.78c7.48 0 13.54-11.02 13.54-24.62 0-13.6-6.06-24.63-13.54-24.63-7.49 0-13.56 11.03-13.56 24.63s6.07 24.62 13.56 24.62Z" clip-rule="evenodd"/><path fill="#EC2B29" fill-rule="evenodd" d="M310.6 169.7c5.74 0 10.4-9.51 10.4-21.26 0-11.75-4.66-21.27-10.4-21.27v42.54Z" clip-rule="evenodd"/><path fill="#232323" fill-rule="evenodd" d="M307.27 142.42c-1.33.1-2.54.52-3.56 1.3-4.2 3.23-3.4 11.33 1.79 18.11a24.8 24.8 0 0 0 1.77 2.08v-21.49Z" clip-rule="evenodd"/><path fill="#000" fill-opacity=".06" fill-rule="evenodd" d="M414.43 238.95a93.8 93.8 0 0 1-28.8 2.59c-8.2-22.37-15.55-36.88-20-44.75v270.58s-21.1 6.7-55.87 11.1l-.55-.05 8.28-240.7c2.06-59.76 31.08-95.3 60.1-117.45a148.6 148.6 0 0 0-7 23.67c7.35 11.85 24.44 42.07 43.83 94.97l.01.04ZM191.57 478.42c-34.25-4.4-56.48-11.05-56.48-11.05V196.8c-4.46 7.86-11.81 22.38-20.01 44.74-9.63.72-19.3-.33-28.51-2.52l.02-.1c19.38-52.85 36.3-83.07 43.61-94.94a148.62 148.62 0 0 0-7-23.7c29 22.14 58.04 57.68 60.1 117.43l8.27 240.7v.01Z" clip-rule="evenodd"/></svg>