<?xml version="1.0" encoding="UTF-8"?><svg height="500" viewBox="0 0 500 500" width="500" xmlns="http://www.w3.org/2000/svg"><g fill="none" fill-rule="evenodd"><path d="M0 0h500v500H0z"/><path d="M203.006 109.193h93.643V21.898h-93.643z" fill="#bfbfbf"/><path d="M202.867 32.198h93.458v-14.2h-93.458z" fill="#a10b30"/><path d="M87.55 75.26s-40.762 72.8-58.547 127.77c4.445 13.375 45.208 40.86 85.232 37.885 13.34-36.4 24.46-52 24.46-52S141.658 93.83 87.55 75.26M411.476 75.26s40.762 72.8 58.547 127.77c-4.445 13.375-45.208 40.86-85.232 37.885-13.34-36.4-24.46-52-24.46-52S357.368 93.83 411.476 75.26" fill="#f2f2f2"/><path d="M249.514 57.706c-50.082 0-47.798-39.47-48.742-39.14-7.516 2.618-24.133 14.936-52.439 25.495-31.873 11.885-52.626 19.315-60.782 31.2 11.114 8.915 46.694 28.97 46.694 120.345v271.14S183.903 481.6 249.13 481.6c68.929 0 115.648-14.855 115.648-14.855v-271.14c0-91.375 35.58-111.43 46.7-120.345-8.157-11.885-28.91-19.315-60.783-31.2-28.36-10.577-44.982-22.92-52.478-25.511-.927-.318 4.177 39.156-48.703 39.156z" fill="#b40d36"/><path d="M345 41.82v429.89c-19.944 4.314-53.763 9.858-95.87 9.858-39.712 0-73.653-5.507-94.13-9.815V41.426c24.278-9.894 38.866-20.488 45.772-22.894.944-.329-1.34 39.14 48.742 39.14 52.88 0 47.776-39.473 48.703-39.157 6.98 2.415 21.871 13.281 46.783 23.305z" fill="#f2f2f2"/><path d="M264 56.517v424.82c-4.83.15-9.79.23-14.87.23-4.453 0-8.833-.069-13.13-.198V56.567c4.018.71 8.504 1.105 13.514 1.105 5.414 0 10.22-.413 14.486-1.155z" fill="#b40d36"/><path d="M209.5 42.036v437.762a474.571 474.571 0 0 1-28-3.312V28.766c9.086-4.945 15.392-8.882 19.272-10.236.537-.185.029 12.523 8.728 23.506zm109-12.742v447.211a463.52 463.52 0 0 1-28 3.278V42.279c8.637-11.041 7.185-23.945 7.717-23.764 4.013 1.389 10.64 5.57 20.283 10.779z" fill="#2c3e66"/><path d="M467.461 195.302a338.826 338.826 0 0 1 2.668 7.9c-4.445 13.375-45.208 40.86-85.232 37.885a426.405 426.405 0 0 0-2.836-7.52c20.795-1.358 37.993-5.637 51.595-12.837 13.428-7.11 24.696-15.585 33.805-25.428zM31.655 195.302c9.103 9.828 20.36 18.291 33.772 25.392 13.611 7.205 30.824 11.485 51.64 12.84a426.42 426.42 0 0 0-2.835 7.516C74.208 244.025 33.445 216.54 29 203.165c.836-2.584 1.723-5.209 2.655-7.863z" fill="#26365a"/><path d="M249.576 63.752c51.479 0 58.279-35.895 58.279-40.38-5.772-3.24-9.728-5.345-12.008-5.345 0 0 5.881 32.495-46.335 32.495-48.52 0-46.336-32.495-46.336-32.495-2.28 0-6.235 2.105-12.002 5.345 0 0 7.368 40.38 58.402 40.38" fill="#b40d36"/><circle cx="309" cy="143" fill="#f2f2f2" r="24"/><circle cx="309" cy="143" fill="#c89f26" r="22"/><circle cx="309" cy="143" fill="#fff" r="20"/><path d="M328.37 138h-38.74c2.22-8.626 10.05-15 19.37-15s17.15 6.374 19.37 15z" fill="#b7282b"/><path d="M289.63 148h38.74c-2.22 8.626-10.05 15-19.37 15s-17.15-6.374-19.37-15z" fill="#011b47"/><path d="M302 129c4.667-.132 7-.48 7-1.047 0 .569 2.333.918 7 1.047-.667.866-1 1.616-1 2.25 0 1.968 1 3.218 3 3.75l-2 3.1V155c-2.333 1.333-4.667 2-7 2s-4.667-.667-7-2v-16.9l-2-3.1c2-.428 3-1.678 3-3.75 0-.739-.333-1.489-1-2.25z" fill="#fff"/><path d="M413.584 238.323c-9.287 2.238-19.064 3.316-28.798 2.592-8.197-22.369-15.557-36.883-20.012-44.748v270.577s-21.102 6.71-55.867 11.11l-.544-.059c1.881-54.795 5.722-166.47 8.277-240.705 2.055-59.755 31.084-95.29 60.099-117.44-2.676 6.78-5.072 14.606-7 23.667 7.354 11.852 24.436 42.069 43.831 94.964l.014.042zM190.717 477.795c-34.248-4.401-56.477-11.05-56.477-11.05V196.171c-4.456 7.867-11.813 22.38-20.01 44.743-9.632.716-19.308-.332-28.51-2.523.005-.033.012-.065.02-.097 19.377-52.848 36.305-83.066 43.61-94.944-1.93-9.075-4.328-16.912-7.007-23.701 29.015 22.15 58.044 57.685 60.1 117.44 2.554 74.235 6.395 185.91 8.276 240.705z" fill="#000" fill-opacity=".1"/></g></svg>