<?xml version="1.0" encoding="UTF-8"?><svg height="500" viewBox="0 0 500 500" width="500" xmlns="http://www.w3.org/2000/svg"><g fill="none" fill-rule="evenodd"><path d="M0 0h500v500H0z"/><path d="M203.006 109.193h93.643V21.898h-93.643z" fill="#004778"/><path d="M202.867 32.198h93.458v-14.2h-93.458z" fill="#ac1f2b"/><g fill="#02558f"><path d="M87.548 75.26S46.785 148.06 29 203.03c4.445 13.375 45.208 40.86 85.232 37.885 13.34-36.4 24.46-52 24.46-52S141.655 93.83 87.548 75.26M411.473 75.26s40.763 72.8 58.548 127.77c-4.445 13.375-45.208 40.86-85.232 37.885-13.34-36.4-24.46-52-24.46-52S357.366 93.83 411.473 75.26"/><path d="M249.514 57.706c-50.082 0-47.799-39.47-48.743-39.14-7.516 2.618-24.133 14.936-52.439 25.495-31.872 11.885-52.625 19.315-60.782 31.2 11.115 8.915 46.694 28.97 46.694 120.345v271.14S183.902 481.6 249.13 481.6c68.93 0 115.649-14.855 115.649-14.855v-271.14c0-91.375 35.58-111.43 46.7-120.345-8.157-11.885-28.91-19.315-60.783-31.2-28.36-10.577-44.982-22.92-52.478-25.511-.928-.318 4.177 39.156-48.703 39.156z"/></g><path d="M287.415 45.693c12.05-11.587 10.214-27.378 10.802-27.178 7.19 2.487 22.776 13.944 49.063 24.209v428.485c-13.452 3.003-34.084 6.767-59.865 8.83zM213.582 480.14c-24.946-1.98-45.805-5.654-59.864-8.658V41.944c25.048-10.039 40.027-20.963 47.054-23.414.61-.21-.129 16.215 12.81 27.852zM61.09 229.486c-17.207-8.376-29.734-19.408-32.087-26.488 1.74-5.38 3.701-10.93 5.822-16.566 7.01 11.834 17.903 21.799 32.676 29.895l-6.411 13.16zM437.9 229.482l-6.41-13.16c14.773-8.096 25.665-18.061 32.675-29.895 2.121 5.637 4.082 11.187 5.822 16.567-2.352 7.08-14.88 18.111-32.087 26.488z" fill="#c02330"/><path d="M249.576 63.752c51.479 0 58.279-35.895 58.279-40.38-5.772-3.24-9.728-5.345-12.008-5.345 0 0 5.881 32.495-46.335 32.495-48.52 0-46.336-32.495-46.336-32.495-2.28 0-6.235 2.105-12.002 5.345 0 0 7.368 40.38 58.402 40.38" fill="#02558f"/><path d="M200.53 18.505c.186.629.31 3.353 1.131 7.091-7.517 3.04-23.336 14.848-49.942 25.115-30.81 11.885-50.865 19.315-58.747 31.2 0 0-7.812 14.495-17.944 35.245l-6.307-6.323c10.64-21.092 18.83-35.718 18.83-35.718h.002c8.154-11.886 28.907-19.316 60.78-31.201 28.007-10.447 44.57-22.617 52.197-25.41zM298.497 18.505c7.627 2.792 24.19 14.962 52.197 25.409 31.873 11.885 52.626 19.315 60.78 31.201h.003s8.19 14.626 18.829 35.718l-6.307 6.323c-10.132-20.75-17.944-35.245-17.944-35.245-7.882-11.885-27.937-19.315-58.747-31.2-26.606-10.267-42.424-22.075-49.942-25.115.82-3.738.945-6.462 1.13-7.091z" fill="#02558f"/><g fill-rule="nonzero"><path d="M308.89 122c4.148 0 3.278 7.05 4.904 7.05 1.627 0 2.946-1.333 2.946-2.978a2.983 2.983 0 0 0-1.52-2.607l.689-1.413c10.228 2.877 14.422 13.815 7.148 27.144.375.5.597 1.122.597 1.797 0 1.645-1.319 2.978-2.945 2.978-.22 0-.433-.024-.639-.07-2.133 2.947-4.817 5.972-8.105 9.022-2.866 2.658-3.289 2.652-6.142.007-3.29-3.052-5.977-6.08-8.112-9.028-.205.045-.417.07-.636.07-1.626 0-2.945-1.334-2.945-2.98 0-.673.221-1.295.594-1.794-7.275-13.33-3.082-24.269 7.148-27.146l.688 1.413a2.983 2.983 0 0 0-1.52 2.607c0 1.645 1.319 2.978 2.946 2.978 1.626 0 .757-7.05 4.904-7.05z" fill="#000"/><path d="M319.874 133.94c1.82.008 2.61 1.863 2.929 3.696 1.071 6.17-2.139 14.52-11.272 22.994-2.82 2.615-2.454 2.614-5.273 0-9.133-8.473-12.343-16.823-11.271-22.994.318-1.833 1.108-3.688 2.929-3.696h10.834z" fill="#fac400"/></g><path d="M413.584 238.323c-9.287 2.238-19.064 3.316-28.798 2.592-8.197-22.369-15.557-36.883-20.012-44.748v270.577s-21.102 6.71-55.867 11.11l-.544-.059c1.881-54.795 5.722-166.47 8.277-240.705 2.055-59.755 31.084-95.29 60.099-117.44-2.676 6.78-5.072 14.606-7 23.667 7.354 11.852 24.436 42.069 43.831 94.964l.014.042zM190.717 477.795c-34.248-4.401-56.477-11.05-56.477-11.05V196.171c-4.456 7.867-11.813 22.38-20.01 44.743-9.632.716-19.308-.332-28.51-2.523.005-.033.012-.065.02-.097 19.377-52.848 36.305-83.066 43.61-94.944-1.93-9.075-4.328-16.912-7.007-23.701 29.015 22.15 58.044 57.685 60.1 117.44 2.554 74.235 6.395 185.91 8.276 240.705z" fill="#000" fill-opacity=".1"/></g></svg>