<svg xmlns="http://www.w3.org/2000/svg" width="501" height="501" fill="none"><path fill="#BFBFBF" fill-rule="evenodd" d="M203.2 109.82h93.65v-87.3h-93.64v87.3Z" clip-rule="evenodd"/><path fill="#393939" fill-rule="evenodd" d="M203.07 32.83h93.46v-14.2h-93.46v14.2Z" clip-rule="evenodd"/><path fill="#F2F2F2" fill-rule="evenodd" d="M87.75 75.89S47 148.69 29.21 203.66c4.44 13.37 45.2 40.86 85.23 37.88 13.34-36.4 24.46-52 24.46-52s2.96-95.08-51.15-113.65Zm323.93 0s40.76 72.8 58.55 127.77c-4.45 13.37-45.21 40.86-85.24 37.88-13.34-36.4-24.46-52-24.46-52s-2.96-95.08 51.15-113.65Z" clip-rule="evenodd"/><path fill="#F2F2F2" fill-rule="evenodd" d="M250.17 58.78c-50.09 0-47.8-39.46-48.75-39.14-7.51 2.62-24.13 14.94-52.43 25.5-31.88 11.88-52.63 19.31-60.79 31.2 11.12 8.91 46.7 28.97 46.7 120.34v271.14s49.65 14.86 114.88 14.86c68.93 0 115.65-14.86 115.65-14.86V196.7c0-91.38 35.58-111.44 46.7-120.35-8.16-11.89-28.91-19.32-60.78-31.2-28.36-10.58-44.99-22.92-52.48-25.5-.93-.33 4.18 39.14-48.7 39.14Z" clip-rule="evenodd"/><path fill="#3D3D3D" fill-rule="evenodd" d="M96.85 80.42c8.54-11.24 28.66-18.57 59.04-30.08 19.3-7.31 33.08-15.47 42.19-20.66v-.05c1.2-.7 2.33-1.33 3.38-1.91l1.73 3.21c-9.03 5.07-23.45 13.98-44.36 21.9-29.86 11.3-49.8 18.58-58.6 29.5a52.14 52.14 0 0 0-3.38-1.91Zm-6.7-2.88c8.03-11.88 28.46-19.31 59.84-31.2 19.3-7.31 33.09-15.47 42.2-20.66l-.01-.05.02-.01 1.74 3.22c-9.1 5.21-22.52 12.98-41 19.98-30.46 11.54-50.6 18.88-59.1 30.17l-3.7-1.45Zm312.23 2.88c-1.16.6-2.29 1.24-3.39 1.91-8.78-10.92-28.73-18.2-58.6-29.5-20.2-7.66-34.35-16.24-43.43-21.38l1.58-3.3 2.62 1.48-.01.05c9.1 5.2 22.89 13.35 42.19 20.66 30.38 11.5 50.5 18.84 59.04 30.08Zm6.7-2.88A51.9 51.9 0 0 0 405.4 79c-8.5-11.3-28.65-18.63-59.11-30.17-18.28-6.92-31.6-14.6-40.7-19.8l1.42-3.42.04.03v.05c9.1 5.2 22.88 13.35 42.19 20.66 31.38 11.89 51.81 19.32 59.84 31.2Z" clip-rule="evenodd"/><path fill="#F2F2F2" fill-rule="evenodd" d="M308.06 24a106.7 106.7 0 0 0-7.59-4.01c-1.86-.85 1.46 31.16-50.76 31.16-48.52 0-49.5-31.8-51.94-30.6-1.8.9-3.94 2.07-6.4 3.45 0 0 7.37 40.38 58.4 40.38 51.49 0 58.29-35.9 58.29-40.38Z" clip-rule="evenodd"/><path fill="#E3E3E3" fill-rule="evenodd" d="M203.07 32.93h93.46v-7.1h-93.46v7.1Z" clip-rule="evenodd"/><path fill="#3D3D3D" fill-rule="evenodd" d="M296.05 18.66c1.78 0 4.6 1.29 8.5 3.4-7.17 24.48-25.35 36.72-54.52 36.72-29.26 0-47.5-12.31-54.74-36.94 3.7-1.99 6.37-3.18 8.09-3.18 0 0-2.19 32.49 46.33 32.49 52.22 0 46.34-32.5 46.34-32.5Z" clip-rule="evenodd"/><path fill="#000" fill-opacity=".06" fill-rule="evenodd" d="M413.79 238.95a93.8 93.8 0 0 1-28.8 2.6c-8.2-22.37-15.56-36.89-20.01-44.75v270.57s-21.1 6.71-55.87 11.11l-.55-.06 8.28-240.7c2.06-59.76 31.09-95.3 60.1-117.44a148.6 148.6 0 0 0-7 23.67c7.36 11.85 24.44 42.06 43.83 94.96l.02.04ZM190.92 478.43c-34.25-4.4-56.48-11.06-56.48-11.06V196.8c-4.45 7.87-11.81 22.38-20 44.74a93.57 93.57 0 0 1-28.52-2.52l.02-.1c19.38-52.84 36.3-83.06 43.61-94.94a148.63 148.63 0 0 0-7-23.7c29.01 22.15 58.04 57.68 60.1 117.44l8.27 240.7Z" clip-rule="evenodd"/><path fill="#FFDC44" fill-rule="evenodd" d="m292.74 120.68 17.54 30.37 17.06-29.55a30.16 30.16 0 0 0-17.88-5.84 30.16 30.16 0 0 0-16.72 5.02Z" clip-rule="evenodd"/><path fill="#F2F2F2" d="M329.45 142.6a20 20 0 1 1-39.99 0 20 20 0 0 1 39.99 0Z"/><path fill="#3D3D3D" fill-rule="evenodd" d="M309.45 161.6a19 19 0 1 0 0-38 19 19 0 0 0 0 38Zm0 1a20 20 0 1 0 0-40 20 20 0 0 0 0 40Z" clip-rule="evenodd"/><path fill="#198C3B" d="M323.92 142.6a14.47 14.47 0 1 1-28.93 0 14.47 14.47 0 0 1 28.93 0Z"/><path fill="#3D3D3D" fill-rule="evenodd" d="M309.45 133.94H295l14.46 37.66v-37.66Z" clip-rule="evenodd"/><path fill="#CDCDCD" fill-rule="evenodd" d="M309.45 133.94h14.47l-14.47 37.66v-37.66Z" clip-rule="evenodd"/><path fill="#855437" d="M313.46 151.05a4 4 0 1 1-8.01 0 4 4 0 0 1 8.01 0Z"/><path fill="#FFDC44" d="M293.64 132.47h31.63V130h-31.63v2.47Z"/></svg>