<?xml version="1.0" encoding="UTF-8"?><svg width="500" height="500" viewBox="0 0 500 500" fill="none" xmlns="http://www.w3.org/2000/svg"><path fill-rule="evenodd" clip-rule="evenodd" d="M203.004 109.223h93.643V21.928h-93.643v87.295z" fill="#1C7359"/><path fill-rule="evenodd" clip-rule="evenodd" d="M202.863 32.2281h93.459v-14.2h-93.459v14.2z" fill="#E3E3E3"/><path fill-rule="evenodd" clip-rule="evenodd" d="M87.5475 75.2585S46.7848 148.059 29 203.029c4.4449 13.375 45.2077 40.86 85.232 37.885 13.34-36.4 24.46-52 24.46-52s2.963-95.0855-51.1445-113.6555zm323.9265 0s40.763 72.8005 58.547 127.7705c-4.444 13.375-45.207 40.86-85.232 37.885-13.339-36.4-24.459-52-24.459-52s-2.964-95.0855 51.144-113.6555z" fill="#25896B"/><path fill-rule="evenodd" clip-rule="evenodd" d="M249.51 57.7025c-50.081 0-47.798-39.4691-48.742-39.14-7.516 2.6187-24.133 14.9368-52.439 25.495-31.873 11.885-52.6256 19.315-60.7821 31.2 11.1148 8.915 46.6941 28.9695 46.6941 120.3445v271.14s49.658 14.856 114.885 14.856c68.929 0 115.649-14.856 115.649-14.856v-271.14c0-91.375 35.579-111.4295 46.699-120.3445-8.157-11.885-28.91-19.315-60.782-31.2-28.36-10.5767-44.982-22.9195-52.479-25.5087-.927-.3203 4.178 39.1537-48.703 39.1537z" fill="#25896B"/><path fill-rule="evenodd" clip-rule="evenodd" d="M174.404 32.4005c6.756-3.3931 12.314-6.5265 16.77-9.0289l2.138 6.6309c-8.901 5.1427-22.457 13.3251-41.595 20.7108-28.212 10.8825-47.406 18.0299-56.4939 28.2823l-7.6098-3.9753C95.8156 63.191 116.543 55.769 148.33 43.9158c10.157-3.7883 18.808-7.8032 26.074-11.5153zm150.101-.0568c7.289 3.7279 15.977 7.7644 26.185 11.5721 31.788 11.8536 52.516 19.2757 60.718 31.1057-.411.2249-2.909 1.5936-7.495 4.1061-9.04-10.3232-28.277-17.4851-56.61-28.4143-18.71-7.2205-32.085-15.2026-40.991-20.3614l1.541-6.9803c4.433 2.489 9.948 5.6005 16.652 8.9721zM467.463 195.3c.936 2.666 1.827 5.303 2.667 7.899-4.445 13.375-45.208 40.86-85.232 37.885-.958-2.613-1.904-5.119-2.836-7.519 20.796-1.358 37.994-5.637 51.595-12.838 13.428-7.108 24.697-15.584 33.806-25.427zm-435.8083 0c9.1031 9.827 20.3606 18.291 33.7724 25.391 13.6109 7.206 30.8241 11.486 51.6389 12.84-.931 2.4-1.877 4.905-2.834 7.517-40.0243 2.975-80.7871-24.51-85.232-37.885.8363-2.585 1.7234-5.209 2.6547-7.863z" fill="#F2F2F2"/><path fill-rule="evenodd" clip-rule="evenodd" d="M307.853 23.345c-5.772-3.24-9.728-5.345-12.008-5.345 0 0 5.882 32.495-46.335 32.495-48.52 0-46.335-32.495-46.335-32.495-2.28 0-6.236 2.105-12.003 5.345 0 0 7.368 40.38 58.403 40.38 51.478 0 58.278-35.895 58.278-40.38z" fill="#F2F2F2"/><path fill-rule="evenodd" clip-rule="evenodd" d="M413.583 238.323c-9.288 2.238-19.065 3.316-28.798 2.592-8.198-22.369-15.557-36.883-20.013-44.748v270.577s-21.102 6.71-55.866 11.111l-.544-.06c1.881-54.795 5.722-166.47 8.276-240.705 2.056-59.755 31.085-95.29 60.099-117.44-2.675 6.781-5.071 14.606-6.999 23.667 7.354 11.852 24.436 42.069 43.831 94.964.005.014.01.028.014.042zM190.715 477.795c-34.247-4.401-56.476-11.051-56.476-11.051V196.172c-4.456 7.867-11.814 22.379-20.01 44.743-9.633.716-19.3084-.332-28.5102-2.524.005-.032.0117-.064.0198-.096 19.3774-52.848 36.3054-83.066 43.6094-94.944-1.928-9.075-4.327-16.912-7.006-23.701 29.014 22.15 58.044 57.685 60.099 117.44 2.554 74.235 6.396 185.91 8.276 240.705h-.002z" fill="#000" fill-opacity=".1"/><path d="M303.878 137.276c.637.682 1.109 1.188 1.285 1.473.035.452.067.861.105 1.23-.203-.017-.416-.033-.64-.051-.285-.176-.791-.648-1.473-1.285-1.915-1.788-5.212-4.867-8.869-6.289-2.518-.979-4.997.017-5.332 2.517-.603 4.496-.001 5.396.568 6.246.37.554.726 1.086.726 2.575 0 1.546-.32 2.065-.655 2.61-.484.786-1.001 1.625-.639 5.674.25 2.797 3.395 4.029 6.085 2.798 2.59-1.184 5.226-4.004 7.197-6.111 1-1.069 1.828-1.955 2.392-2.351.146 0 .293.001.438.002.331.003.658.005.971-.006.628 1 2.56 4.659.378 8.943-2.567 5.039-5.903 7.992-5.903 7.992h7.405s3.585-11.141 2.897-17.015c.55.096 1.176.091 1.823.086.145-.001.292-.002.438-.002.564.396 1.393 1.282 2.393 2.351 1.97 2.107 4.606 4.927 7.196 6.111 2.691 1.231 5.835-.001 6.085-2.798.363-4.049-.154-4.888-.639-5.674-.335-.545-.655-1.064-.655-2.61 0-1.489.356-2.021.726-2.575.569-.85 1.171-1.75.568-6.246-.335-2.5-2.814-3.496-5.332-2.517-3.657 1.422-6.954 4.501-8.869 6.289-.682.637-1.188 1.109-1.473 1.285-.579.045-1.086.085-1.529.138.008-.285.005-.579.003-.879-.001-.145-.002-.292-.002-.438.395-.564 1.281-1.392 2.351-2.392 2.107-1.971 4.927-4.607 6.111-7.197 1.231-2.69-.001-5.834-2.798-6.085-4.049-.362-4.888.155-5.674.639-.545.336-1.064.655-2.611.655-1.488 0-2.02-.356-2.574-.726-.85-.569-1.75-1.171-6.247-.568-2.499.336-3.495 2.815-2.516 5.332 1.422 3.657 4.501 6.955 6.289 8.869z" fill="#F2F2F2"/></svg>