<?xml version="1.0" encoding="utf-8"?><svg width="500" height="500" viewBox="0 0 500 500" fill="none" xmlns="http://www.w3.org/2000/svg"><path fill-rule="evenodd" clip-rule="evenodd" d="M202.999 109h94V22h-94v87Z" fill="#AF2F2D"/><path fill-rule="evenodd" clip-rule="evenodd" d="M202.867 32.198h93.458v-14.2h-93.458v14.2Z" fill="#363636"/><path fill-rule="evenodd" clip-rule="evenodd" d="M411.475 75.26s40.763 72.8 58.548 127.77c-4.445 13.375-45.208 40.86-85.232 37.885-13.34-36.4-24.46-52-24.46-52S357.368 93.83 411.475 75.26" fill="#CD3C39"/><path fill-rule="evenodd" clip-rule="evenodd" d="M249.514 57.705c-50.082 0-47.798-39.469-48.743-39.14-7.516 2.62-24.132 14.937-52.438 25.495-31.873 11.885-52.626 19.315-60.783 31.2 11.115 8.915 46.695 28.97 46.695 120.345v271.14S183.902 481.6 249.13 481.6c68.929 0 115.648-14.855 115.648-14.855v-271.14c0-91.375 35.58-111.43 46.699-120.345-8.156-11.885-28.909-19.315-60.782-31.2-28.36-10.576-44.982-22.919-52.478-25.508-.927-.32 4.177 39.153-48.703 39.153Z" fill="#CD3C39"/><path fill-rule="evenodd" clip-rule="evenodd" d="m364.849 188.013-.022 94.004C326.091 276.006 287.648 275 249.499 275c-38.427 0-76.847 1.05-115.26 7.149l-.002-93.847v-.157c38.212-6.097 76.664-7.145 115.357-7.145 38.412 0 115.255 7.013 115.255 7.013Z" fill="#3D3D3D"/><path fill-rule="evenodd" clip-rule="evenodd" d="m364.849 194.013-.022 82.004C326.091 270.006 287.648 269 249.499 269c-38.427 0-76.847 1.05-115.26 7.149l-.002-81.847v-.157c38.212-6.097 76.664-7.145 115.357-7.145 38.412 0 115.255 7.013 115.255 7.013Z" fill="#35A361"/><path d="M87.552 75.261c.773.62 1.664 1.294 2.653 2.042 13.241 10.01 44.036 33.29 44.036 118.299v.57c-4.456 7.867-11.814 22.379-20.01 44.743-40.024 2.975-80.787-24.51-85.232-37.885C46.784 148.06 87.547 75.26 87.547 75.26l.005.001Z" fill="#CD3C39"/><path fill-rule="evenodd" clip-rule="evenodd" d="M249.576 63.751c51.479 0 58.278-35.895 58.278-40.38-5.772-3.24-9.728-5.345-12.007-5.345 0 0 5.881 32.495-46.336 32.495-48.52 0-46.335-32.495-46.335-32.495-2.28 0-6.236 2.105-12.003 5.345 0 0 7.369 40.38 58.403 40.38" fill="#3D3D3D"/><path fill-rule="evenodd" clip-rule="evenodd" d="M413.585 238.323c-9.288 2.238-19.065 3.316-28.798 2.592-8.198-22.369-15.557-36.883-20.013-44.748v270.577s-21.102 6.71-55.866 11.111l-.544-.06c1.881-54.795 5.722-166.47 8.276-240.705 2.056-59.755 31.085-95.29 60.099-117.44-2.675 6.781-5.071 14.606-6.999 23.667 7.354 11.852 24.436 42.069 43.831 94.964l.014.042ZM190.717 477.795c-34.248-4.401-56.476-11.051-56.476-11.051V196.172c-4.456 7.867-11.814 22.379-20.01 44.743-9.633.716-19.308-.332-28.51-2.524.005-.032.011-.064.02-.096 19.377-52.848 36.305-83.066 43.609-94.944-1.929-9.075-4.327-16.912-7.006-23.701 29.014 22.15 58.044 57.685 60.099 117.44 2.554 74.235 6.396 185.91 8.276 240.705h-.002Z" fill="#000" fill-opacity=".1"/><path d="M308.999 125.562c-3.094 0-7.062-.304-10.999-3.562h-4.999s-.5 1.483 0 3c0 0-1.5 1.472-3.001 4 0 1.288.291 1.411.744 2.27.577 1.093 1.417 2.685 2.257 6.932.754 3.814-.029 8.293-.732 12.312-.694 3.973-1.311 6.498-.285 8.486 2.273 4.408 12.154 2.1 17.015 5.997V165l.001-.001.001.001v-.003c4.861-3.897 14.742-1.589 17.015-5.997 1.026-1.988.409-4.513-.285-8.486-.703-4.019-1.486-8.498-.732-12.312.84-4.247 1.68-5.839 2.257-6.932.453-.859.744-.982.744-2.27-1.501-2.528-3.001-4-3.001-4 .5-1.517 0-3 0-3H320c-3.937 3.258-7.905 3.562-10.999 3.562" fill="#3D3D3D"/><path d="M308.999 127.231c-2.768 0-7.477-.276-10.999-3.231h-3.315s0 .459.447 1.834c0 0-1.455 1.835-2.798 4.128 0 1.168.26 1.667.665 2.446.517.991 1.268 2.435 2.02 6.287.675 3.459-.36 7.521-.989 11.167-.621 3.603-.917 6.334 0 8.138 2.034 3.998 10.619 1.463 14.969 4.998V163l.001-.001V163v-.002c4.35-3.535 12.966-1 15-4.998.917-1.804.591-4.535-.031-8.138-.628-3.646-1.776-7.708-1.102-11.167.752-3.852 1.504-5.296 2.02-6.287.405-.779.665-1.278.665-2.446-1.343-2.293-2.685-4.128-2.685-4.128.448-1.375.448-1.834.448-1.834H320c-3.523 2.955-8.231 3.231-11 3.231" fill="#F2F2F2"/><path d="M302 126.221v26.182c-3.119.368-6.001.976-8.529 1.774.068-1.26.281-2.7.559-4.315.107-.62.226-1.252.346-1.891l.001-.003c.585-3.118 1.202-6.403.642-9.273-.752-3.852-1.503-5.296-2.02-6.287-.405-.779-.665-1.278-.665-2.446 1.343-2.293 2.798-4.128 2.798-4.128-.447-1.375-.447-1.834-.447-1.834H298c1.233 1.034 2.611 1.74 4 2.221Z" fill="#D84646"/><path d="M316 152.403v-26.182c1.389-.481 2.767-1.187 4-2.221h3.315s0 .459-.448 1.834c0 0 1.342 1.835 2.685 4.128 0 1.168-.259 1.667-.665 2.446-.516.991-1.268 2.435-2.02 6.287-.537 2.753.081 5.888.672 8.89.152.771.302 1.533.43 2.277.279 1.617.499 3.058.573 4.319-2.531-.8-5.418-1.409-8.542-1.778Z" fill="#3D3D3D"/><path d="M304 152.203v-25.432c1.884.396 3.666.46 4.999.46H309c1.334 0 3.116-.064 5-.46v25.432a61.111 61.111 0 0 0-5-.203c-1.71 0-3.382.07-5 .203Z" fill="#238E4E"/><path fill="#3D3D3D" d="M297 155h24v3h-24z"/><path opacity=".7" fill="#fff" d="M298 139h22v10h-22z"/></svg>