<?xml version="1.0" encoding="utf-8"?><svg width="500" height="500" viewBox="0 0 500 500" fill="none" xmlns="http://www.w3.org/2000/svg"><path fill-rule="evenodd" clip-rule="evenodd" d="M203.003 109.223h93.643V21.928h-93.643v87.295Z" fill="#175D40"/><path fill-rule="evenodd" clip-rule="evenodd" d="M202.863 32.228h93.459v-14.2h-93.459v14.2Z" fill="#1C6D4B"/><path fill-rule="evenodd" clip-rule="evenodd" d="M87.547 75.258S46.785 148.06 29 203.03c4.445 13.375 45.208 40.86 85.232 37.885 13.34-36.4 24.46-52 24.46-52s2.963-95.085-51.145-113.655ZM411.473 75.258s40.763 72.801 58.548 127.771c-4.445 13.375-45.208 40.86-85.233 37.885-13.339-36.4-24.459-52-24.459-52s-2.964-95.085 51.144-113.655Z" fill="#207652"/><path fill-rule="evenodd" clip-rule="evenodd" d="M249.964 58.156c-50.082 0-47.799-39.47-48.743-39.14-7.516 2.618-24.133 14.936-52.439 25.495C116.91 56.396 96.156 63.826 88 75.71c11.115 8.915 46.694 28.97 46.694 120.345v271.14s49.658 14.855 114.885 14.855c68.929 0 115.649-14.855 115.649-14.855v-271.14c0-91.375 35.579-111.43 46.699-120.345-8.156-11.885-28.909-19.315-60.782-31.2-28.36-10.577-44.982-22.92-52.478-25.51-.928-.32 4.177 39.155-48.703 39.155Z" fill="#207652"/><path fill-rule="evenodd" clip-rule="evenodd" d="M307.852 23.345C302.08 20.105 298.124 18 295.844 18c0 0 5.882 32.495-46.335 32.495-48.52 0-46.335-32.495-46.335-32.495-2.28 0-6.236 2.105-12.003 5.345 0 0 7.368 40.38 58.403 40.38 51.478 0 58.278-35.895 58.278-40.38Z" fill="#207652"/><path fill-rule="evenodd" clip-rule="evenodd" d="M413.584 238.323c-9.288 2.238-19.065 3.316-28.798 2.592-8.198-22.369-15.557-36.883-20.013-44.748v270.577s-21.102 6.71-55.866 11.111l-.544-.06c1.881-54.795 5.722-166.47 8.276-240.705 2.056-59.755 31.085-95.29 60.099-117.44-2.675 6.781-5.071 14.606-6.999 23.667 7.354 11.852 24.436 42.069 43.831 94.964l.014.042ZM190.716 477.795c-34.248-4.401-56.476-11.051-56.476-11.051V196.172c-4.456 7.867-11.814 22.379-20.01 44.743-9.633.716-19.308-.332-28.51-2.523.005-.032.011-.065.02-.097 19.377-52.848 36.305-83.066 43.609-94.944-1.928-9.075-4.327-16.912-7.006-23.701 29.014 22.15 58.044 57.685 60.099 117.44 2.554 74.235 6.396 185.91 8.276 240.705h-.002Z" fill="#000" fill-opacity=".06"/><path d="M292.562 122h32.87v29.888c0 2.982-14.853 12.112-16.435 12.112-1.581 0-16.435-9.13-16.435-12.112V122Z" fill="#2A9267"/><path fill="#8CC1AB" d="M294.389 123.826h29.217v5.478h-29.217z"/><path d="M308.997 131.13h-14.608v19.985c0 1.065 2.02 2.99 4.565 4.938v-18.531a2.739 2.739 0 1 1 5.478 0v22.295c2.233 1.387 4.086 2.357 4.565 2.357V131.13ZM312.65 131.13v29.244a73.077 73.077 0 0 0 3.652-2.344v-26.9h-3.652ZM319.954 155.336V131.13h3.652v19.985c0 .934-1.554 2.529-3.652 4.221Z" fill="#F2F2F2"/><path d="m304 115 .674 2.073h2.179l-1.763 1.281.673 2.073-1.763-1.281-1.763 1.281.673-2.073-1.763-1.281h2.179L304 115ZM314 115l.674 2.073h2.179l-1.763 1.281.673 2.073-1.763-1.281-1.763 1.281.673-2.073-1.763-1.281h2.179L314 115Z" fill="#EDC45A"/></svg>