<svg xmlns="http://www.w3.org/2000/svg" width="500" height="500" fill="none" viewBox="0 0 500 500"><g clip-path="url(#clip0_5839_4437)"><path fill="#CFCFCF" fill-rule="evenodd" d="M203 109.22h93.65v-87.3H203v87.3Z" clip-rule="evenodd"/><path fill="#303030" fill-rule="evenodd" d="M202.86 32.23h93.46v-14.2h-93.46v14.2Z" clip-rule="evenodd"/><path fill="url(#paint0_linear_5839_4437)" fill-rule="evenodd" d="M87.55 75.26S46.78 148.06 29 203.03c4.44 13.37 45.2 40.86 85.23 37.88 13.34-36.4 24.46-52 24.46-52s2.97-95.08-51.14-113.65" clip-rule="evenodd"/><path fill="url(#paint1_linear_5839_4437)" fill-rule="evenodd" d="M411.47 75.26s40.76 72.8 58.55 127.77c-4.44 13.37-45.2 40.86-85.23 37.88-13.34-36.4-24.46-52-24.46-52s-2.96-95.08 51.14-113.65" clip-rule="evenodd"/><path fill="#F2F2F2" fill-rule="evenodd" d="M249.51 57.7c-50.08 0-47.8-39.47-48.74-39.14-7.52 2.62-24.13 14.94-52.44 25.5-31.87 11.88-52.63 19.31-60.78 31.2 11.11 8.91 46.7 28.97 46.7 120.34v271.14s49.65 14.86 114.88 14.86c68.93 0 115.64-14.86 115.64-14.86V195.6c0-91.37 35.59-111.43 46.7-120.34-8.15-11.89-28.9-19.32-60.78-31.2-28.36-10.58-44.98-22.92-52.48-25.51-.92-.32 4.18 39.15-48.7 39.15Z" clip-rule="evenodd"/><path fill="#3D3D3D" fill-rule="evenodd" d="M233 481.3V55.99a73.83 73.83 0 0 0 16.51 1.71c6.72 0 12.51-.64 17.49-1.75v425.31a439.27 439.27 0 0 1-34 .03Z" clip-rule="evenodd"/><path fill="#3D3D3D" fill-rule="evenodd" d="M307.85 23.34c-5.77-3.23-9.73-5.34-12-5.34 0 0 5.88 32.5-46.34 32.5-48.52 0-46.34-32.5-46.34-32.5-2.28 0-6.23 2.1-12 5.34 0 0 7.37 40.39 58.4 40.39 51.48 0 58.28-35.9 58.28-40.38Z" clip-rule="evenodd"/><path fill="#000" fill-opacity=".1" fill-rule="evenodd" d="M413.58 238.32a93.75 93.75 0 0 1-28.8 2.6c-8.2-22.37-15.55-36.89-20-44.75v270.57s-21.1 6.71-55.87 11.12c-.18-.03-.37-.05-.55-.06l8.28-240.71c2.06-59.75 31.09-95.29 60.1-117.44a148.59 148.59 0 0 0-7 23.67c7.35 11.85 24.44 42.07 43.83 94.96l.01.04ZM190.72 477.8c-34.25-4.4-56.48-11.06-56.48-11.06V196.17c-4.46 7.87-11.81 22.38-20 44.75a93.6 93.6 0 0 1-28.52-2.53l.02-.1c19.38-52.84 36.3-83.06 43.61-94.94a148.74 148.74 0 0 0-7-23.7c29 22.15 58.04 57.69 60.1 117.44l8.27 240.7Z" clip-rule="evenodd"/><path fill="#F2F2F2" d="M309 167c-11.56-5.56-23.12-20.56-15.6-38.33h31.2c7.52 17.77-4.04 32.77-15.6 38.33Z"/><path fill="#3D3D3D" d="M309 167c-11.56-5.56-23.12-20.56-15.6-38.33h5.48v2.19h20.25v-2.2h5.48c7.51 17.78-4.05 32.78-15.61 38.34Z"/><path fill="#F2F2F2" d="M309 164.81c-10.12-4.92-20.23-18.2-13.66-33.95h27.32c6.57 15.74-3.54 29.03-13.66 33.95Z"/><path fill="#3D3D3D" d="M298.31 121.51s6.51-.51 10.69-.51 10.69.51 10.69.51 1.12 4.09 1.12 7.16H297.2c0-3.07 1.12-7.16 1.12-7.16Z"/><path fill="#F2F2F2" d="M300.35 123.56s5.27-.37 8.65-.37c3.38 0 8.65.37 8.65.37s.91 2.92.91 5.1h-19.12c0-2.18.9-5.1.9-5.1Z"/><path fill="#3D3D3D" d="M297.19 154.15v-25.48h3.37v29.84a28.95 28.95 0 0 1-3.37-4.36ZM307.31 163.91a28.85 28.85 0 0 1-3.37-2.3v-32.94h3.37v35.24ZM314.06 161.62c-1.1.86-2.23 1.63-3.37 2.29v-35.24h3.37v32.95ZM320.81 154.15c-1 1.58-2.13 3.04-3.37 4.36v-29.84h3.37v25.48Z"/></g><defs><linearGradient id="paint0_linear_5839_4437" x1="138.72" x2="29" y1="97.15" y2="219.25" gradientUnits="userSpaceOnUse"><stop offset=".39" stop-color="#F2F2F2"/><stop offset=".62" stop-color="#3D3D3D"/></linearGradient><linearGradient id="paint1_linear_5839_4437" x1="360.3" x2="470.02" y1="103.34" y2="213.06" gradientUnits="userSpaceOnUse"><stop offset=".39" stop-color="#F2F2F2"/><stop offset=".62" stop-color="#3D3D3D"/></linearGradient><clipPath id="clip0_5839_4437"><path fill="#fff" d="M0 0h500v500H0z"/></clipPath></defs></svg>