<?xml version="1.0" encoding="UTF-8"?><svg width="500" height="500" viewBox="0 0 500 500" xmlns="http://www.w3.org/2000/svg"><g fill="none" fill-rule="evenodd"><path d="M0 0h500v500H0z"/><path fill="#19283D" d="M203.0033 109.223h93.6432V21.928h-93.6432z"/><path fill="#233754" d="M202.8636 32.228h93.4586v-14.2h-93.4586z"/><path d="M87.5475 75.2585s-40.7627 72.8-58.5475 127.77c4.445 13.375 45.2077 40.86 85.2322 37.885 13.3398-36.4 24.4596-52 24.4596-52s2.9633-95.085-51.1443-113.655m323.9252 0s40.7628 72.8 58.5475 127.77c-4.445 13.375-45.2077 40.86-85.2321 37.885-13.3399-36.4-24.4597-52-24.4597-52s-2.9633-95.085 51.1443-113.655" fill="#283E5E"/><path d="M249.5111 57.7025c-50.0817 0-47.7981-39.469-48.7426-39.14-7.5158 2.6187-24.1326 14.9368-52.4385 25.495-31.8729 11.885-52.626 19.315-60.7825 31.2 11.1149 8.915 46.6944 28.97 46.6944 120.345v271.14s49.6576 14.855 114.885 14.855c68.9291 0 115.6484-14.855 115.6484-14.855v-271.14c0-91.375 35.5795-111.43 46.6994-120.345-8.1566-11.885-28.9096-19.315-60.7825-31.2-28.3599-10.5767-44.9818-22.9194-52.478-25.5106-.9273-.3184 4.1773 39.1556-48.703 39.1556z" fill="#283E5E"/><path d="M206.1622 37.044c5.5898 10.1342 17.4878 20.6585 43.349 20.6585 27.1056 0 38.9761-10.3715 44.2331-20.4391l-.011-.0028c45.26 11.3356 71.506 39.3368 71.506 67.9813v72.909l-.0927 1.7614-.0328.688-.0318.741a218.1362 218.1362 0 00-.0827 1.9907l-.029.8631c-.1106 3.1472-.1748 6.39-.191 9.7295l-.004 1.6779-.0003 271.1105-.6635.2042c-5.9248 1.7856-50.8361 14.6503-114.9815 14.6503-65.2275 0-114.8851-14.855-114.8851-14.855v-271.14c0-6.2616-.167-12.1883-.482-17.7995v-72.531c0-28.5477 26.069-56.4564 71.0478-67.8615l1.3515-.3364z" fill="#31496D"/><path d="M272 295v8h-43v-8h43zm-22.4889-151c29.0184 0 37.283 7.4207 59.0618 10.5912 1.7482-.3874 3.5639-.5912 5.4271-.5912 13.8071 0 25 11.1929 25 25 0 10.6159-6.6168 19.6863-15.9512 23.3121L306 292h-14.843v-8l-7.6563-56.5362C291.8217 225.4425 298 217.9428 298 209h-31c0 8.1915.9181 15.1723 6.3128 17.8408L278 265h-56l4.6872-38.1592C232.082 224.1723 233 217.1915 233 209h-31c0 8.9431 6.1788 16.4431 14.5003 18.464L208.843 284v8H194l-17.0438-89.686C167.6192 198.6897 161 189.6179 161 179c0-13.8071 11.1929-25 25-25a25.109 25.109 0 015.2214.546c21.0844-3.1945 29.407-10.546 58.2897-10.546zm58.3405-120.655c-5.772-3.24-9.728-5.345-12.0078-5.345 0 0 5.8817 32.495-46.3352 32.495-48.5202 0-46.3352-32.495-46.3352-32.495-2.2798 0-6.2358 2.105-12.0028 5.345 0 0 7.3683 40.38 58.4029 40.38 51.4785 0 58.2781-35.895 58.2781-40.38z" fill="#D5AC73"/><path d="M413.5843 238.3227c-9.2877 2.2382-19.0646 3.3161-28.7978 2.5926-8.1978-22.369-15.5572-36.883-20.0128-44.7484v270.5774s-21.1022 6.7098-55.8664 11.1104c-.1817-.0197-.363-.0396-.544-.0597 1.8808-54.795 5.7221-166.47 8.2763-240.705 2.0554-59.755 31.0847-95.29 60.099-117.44-2.6753 6.7806-5.0714 14.6063-6.9991 23.6673 7.354 11.8514 24.4358 42.0687 43.8307 94.964.005.014.0097.0277.014.0414zM190.7166 477.7953c-34.2478-4.4014-56.4763-11.051-56.4763-11.051V196.1721c-4.4558 7.8668-11.8138 22.3792-20.0097 44.7432-9.633.716-19.3087-.3323-28.5106-2.5238a1.113 1.113 0 01.0199-.0967c19.3773-52.8475 36.3054-83.0661 43.6098-94.9437-1.929-9.0753-4.3277-16.912-7.0064-23.7011 29.0144 22.15 58.0437 57.685 60.099 117.44 2.5543 74.235 6.3956 185.91 8.2763 240.7053h-.002z" fill-opacity=".1" fill="#000"/></g></svg>