<?xml version="1.0" encoding="UTF-8"?><svg width="500" height="500" viewBox="0 0 500 500" xmlns="http://www.w3.org/2000/svg"><g fill="none" fill-rule="evenodd"><path d="M0 0h500v500H0z"/><path fill="#D9D9D9" d="M203.0033 109.223h93.6432V21.928h-93.6432z"/><path fill="#E0E0E0" d="M202.8636 32.228h93.4586v-14.2h-93.4586z"/><path d="M87.5475 75.2585s-40.7627 72.8-58.5475 127.77c4.445 13.375 45.2077 40.86 85.2322 37.885 13.3398-36.4 24.4596-52 24.4596-52s2.9633-95.085-51.1443-113.655m323.9252 0s40.7628 72.8 58.5475 127.77c-4.445 13.375-45.2077 40.86-85.2321 37.885-13.3399-36.4-24.4597-52-24.4597-52s-2.9633-95.085 51.1443-113.655" fill="#F2F2F2"/><path d="M249.5111 57.7025c-50.0817 0-47.7981-39.469-48.7426-39.14-7.5158 2.6187-24.1326 14.9368-52.4385 25.495-31.8729 11.885-52.626 19.315-60.7825 31.2 11.1149 8.915 46.6944 28.97 46.6944 120.345v271.14s49.6576 14.855 114.885 14.855c68.9291 0 115.6484-14.855 115.6484-14.855v-271.14c0-91.375 35.5795-111.43 46.6994-120.345-8.1566-11.885-28.9096-19.315-60.7825-31.2-28.3599-10.5767-44.9818-22.9194-52.478-25.5106-.9273-.3184 4.1773 39.1556-48.703 39.1556z" fill="#F2F2F2"/><path d="M219 50.4151v430.1227c-22.2137-1.5015-41.4765-4.4151-56-7.182V37.9961c19.534-8.7936 31.6608-17.3345 37.7715-19.4657.6857-.2368-.3301 20.5028 18.2285 31.8847zm118-11.9833v434.9174c-14.1897 2.7515-33.278 5.6494-56 7.1603V50.5558c19.0712-11.3525 16.5411-32.271 17.2171-32.0408 6.1977 2.1442 18.6333 10.9522 38.7829 19.9168z" fill="#3875AE"/><path d="M307.8516 23.345c-5.772-3.24-9.728-5.345-12.0078-5.345 0 0 5.8817 32.495-46.3352 32.495-48.5202 0-46.3352-32.495-46.3352-32.495-2.2798 0-6.2358 2.105-12.0028 5.345 0 0 7.3683 40.38 58.4029 40.38 51.4785 0 58.2781-35.895 58.2781-40.38z" fill="#518EC8"/><path d="M413.5843 238.3227c-9.2877 2.2382-19.0646 3.3161-28.7978 2.5926-8.1978-22.369-15.5572-36.883-20.0128-44.7484v270.5774s-21.1022 6.7098-55.8664 11.1104c-.1817-.0197-.363-.0396-.544-.0597 1.8808-54.795 5.7221-166.47 8.2763-240.705 2.0554-59.755 31.0847-95.29 60.099-117.44-2.6753 6.7806-5.0714 14.6063-6.9991 23.6673 7.354 11.8514 24.4358 42.0687 43.8307 94.964.005.014.0097.0277.014.0414zM190.7166 477.7953c-34.2478-4.4014-56.4763-11.051-56.4763-11.051V196.1721c-4.4558 7.8668-11.8138 22.3792-20.0097 44.7432-9.633.716-19.3087-.3323-28.5106-2.5238a1.113 1.113 0 01.0199-.0967c19.3773-52.8475 36.3054-83.0661 43.6098-94.9437-1.929-9.0753-4.3277-16.912-7.0064-23.7011 29.0144 22.15 58.0437 57.685 60.099 117.44 2.5543 74.235 6.3956 185.91 8.2763 240.7053h-.002z" fill-opacity=".06" fill="#000"/><path d="M293 126c4.5714 0 12.5714 0 16-3 3.4286 3 11.4286 3 16 3v14c0 11.0358-5.3333 19.0358-16 24-10.6667-4.9667-16-12.9667-16-24v-14z" fill="#F2F2F2"/><path d="M294 126.8537c4.2857 0 11.7857 0 15-2.8537 3.2143 2.8537 10.7143 2.8537 15 2.8537v13.317c0 10.4975-5 18.1073-15 22.8293-10-4.7244-15-12.3341-15-22.8293v-13.317z" fill="#4463D8"/><path d="M296 128.561c3.7143 0 10.2143 0 13-2.561 2.7857 2.561 9.2857 2.561 13 2.561v11.9512c0 9.4208-4.3333 16.2501-13 20.4878-8.6667-4.2398-13-11.0691-13-20.4878V128.561z" fill="#F2F2F2"/><path d="M298 130.2683c3.1429 0 8.6429 0 11-2.2683 2.3571 2.2683 7.8571 2.2683 11 2.2683v10.5854c0 8.3441-3.6667 14.3929-11 18.1463-7.3333-3.7553-11-9.804-11-18.1463v-10.5854z" fill="#4463D8"/><path d="M299 135h20v6.0244c0 7.8058-3.3333 13.4644-10 16.9756-6.6667-3.513-10-9.1715-10-16.9756V135z" fill="#F2F2F2"/><path d="M307.9201 141h2.1598a1 1 0 01.9965.917l.8333 10c.046.5503-.363 1.0337-.9135 1.0795a1 1 0 01-.083.0035h-3.8264c-.5523 0-1-.4477-1-1a1 1 0 01.0035-.083l.8333-10a1 1 0 01.9965-.917z" fill="#788DDF"/><path fill="#00B281" d="M300 136h6v2h-6z"/><path fill="#F4344F" d="M312 136h6v2h-6z"/><path fill="#F2F2F2" d="M294 123l-1.1756.618.2245-1.309-.951-.927 1.3143-.191L294 120l.5878 1.191 1.3143.191-.951.927.2245 1.309z"/><path fill="#D7BE53" d="M294 159l-1.1756.618.2245-1.309-.951-.927 1.3143-.191L294 156l.5878 1.191 1.3143.191-.951.927.2245 1.309zm30 0l-1.1756.618.2245-1.309-.951-.927 1.3143-.191L324 156l.5878 1.191 1.3143.191-.951.927.2245 1.309zm-24 5l-1.1756.618.2245-1.309-.951-.927 1.3143-.191L300 161l.5878 1.191 1.3143.191-.951.927.2245 1.309zm18 0l-1.1756.618.2245-1.309-.951-.927 1.3143-.191L318 161l.5878 1.191 1.3143.191-.951.927.2245 1.309zm-12 4l-1.1756.618.2245-1.309-.951-.927 1.3143-.191L306 165l.5878 1.191 1.3143.191-.951.927.2245 1.309zm6 0l-1.1756.618.2245-1.309-.951-.927 1.3143-.191L312 165l.5878 1.191 1.3143.191-.951.927.2245 1.309z"/><path fill="#F2F2F2" d="M324 123l-1.1756.618.2245-1.309-.951-.927 1.3143-.191L324 120l.5878 1.191 1.3143.191-.951.927.2245 1.309zm-24-1l-1.1756.618.2245-1.309-.951-.927 1.3143-.191L300 119l.5878 1.191 1.3143.191-.951.927.2245 1.309zm18 0l-1.1756.618.2245-1.309-.951-.927 1.3143-.191L318 119l.5878 1.191 1.3143.191-.951.927.2245 1.309zm-12-2l-1.1756.618.2245-1.309-.951-.927 1.3143-.191L306 117l.5878 1.191 1.3143.191-.951.927.2245 1.309zm6 0l-1.1756.618.2245-1.309-.951-.927 1.3143-.191L312 117l.5878 1.191 1.3143.191-.951.927.2245 1.309z"/></g></svg>