<?xml version="1.0" encoding="UTF-8"?><svg height="500" viewBox="0 0 500 500" width="500" xmlns="http://www.w3.org/2000/svg"><g fill="none" fill-rule="evenodd"><path d="M0 0h500v500H0z"/><path d="M203.003 109.223h93.643V21.928h-93.643z" fill="#d9d9d9"/><path d="M202.864 32.228h93.458v-14.2h-93.458z" fill="#e0e0e0"/><g fill="#f2f2f2"><path d="M87.548 75.258S46.785 148.058 29 203.029c4.445 13.376 45.208 40.86 85.232 37.886 13.34-36.4 24.46-52 24.46-52s2.963-95.085-51.144-113.655M411.473 75.258s40.762 72.8 58.547 127.77c-4.445 13.376-45.208 40.86-85.232 37.886-13.34-36.4-24.46-52-24.46-52s-2.963-95.085 51.145-113.655"/><path d="M249.511 57.703c-50.082 0-47.798-39.47-48.742-39.14-7.516 2.618-24.133 14.936-52.439 25.495-31.873 11.885-52.626 19.315-60.782 31.2 11.114 8.915 46.694 28.97 46.694 120.345v271.14s49.658 14.855 114.885 14.855c68.929 0 115.648-14.855 115.648-14.855v-271.14c0-91.375 35.58-111.43 46.7-120.345-8.157-11.885-28.91-19.315-60.783-31.2-28.36-10.577-44.982-22.92-52.478-25.511-.927-.318 4.177 39.156-48.703 39.156z"/></g><path d="M113.823 94.436c7.259 9.195 12.41 20.354 16.062 31.735L78.58 236.438a123.101 123.101 0 0 1-25.594-11.249zM385.29 94.436l60.837 130.753a123.101 123.101 0 0 1-25.594 11.25L369.23 126.17c3.653-11.381 8.803-22.54 16.062-31.735zM265 56.364c15.492-2.94 23.661-10.299 28-17.751v440.976a478.808 478.808 0 0 1-28 1.746zm60-23.626c7.186 3.657 15.713 7.598 25.692 11.32l2.308.86v424.99c-6.75 1.635-16.233 3.687-28 5.613zm-96.25 448.385a465.599 465.599 0 0 1-28-2.148V18.569l.019-.009c.788-.272-.674 27.203 27.982 36.276zm-59.999-6.68c-12.491-2.211-22.125-4.455-28-5.945V46.882c2.452-.916 4.978-1.856 7.579-2.825a242.123 242.123 0 0 0 20.421-8.711z" fill="#3d3d3d"/><path d="M307.852 23.345C302.08 20.105 298.124 18 295.844 18c0 0 5.881 32.495-46.335 32.495-48.52 0-46.336-32.495-46.336-32.495-2.28 0-6.235 2.105-12.002 5.345 0 0 7.368 40.38 58.402 40.38 51.479 0 58.279-35.895 58.279-40.38z" fill="#f1f1f1"/><g><path d="M288.018 120.5h41.91c.007 5.98.019 10.507.036 13.58.08 14.794.036 18.482-.433 22.883-.581 5.459-1.869 8.997-4.523 12.256-3.827 4.7-8.842 8.393-15.012 11.074l-.9.391-.926-.326c-7.778-2.736-13.215-6.42-16.23-11.143-3.67-5.75-3.98-9.618-3.931-37.953.004-2.408.007-5.995.009-10.762z" fill="#000" fill-rule="nonzero"/><path d="M290.518 123h36.91c0 30.226.992 38.07-4.358 44.64-3.567 4.38-8.257 7.834-14.07 10.36-7.296-2.567-12.28-5.944-14.952-10.13-4.01-6.28-3.53-14.157-3.53-44.87z" fill="#f2f2f2"/><g fill="#c9a500"><path d="M309 114l-3.527 1.854.674-3.927-2.853-2.781 3.943-.573L309 105l1.763 3.573 3.943.573-2.853 2.781.674 3.927zM299 116.75l-2.645 1.39.505-2.945-2.14-2.086 2.957-.43L299 110l1.323 2.68 2.957.43-2.14 2.085.505 2.946zM319 116.75l-2.645 1.39.505-2.945-2.14-2.086 2.957-.43L319 110l1.323 2.68 2.957.43-2.14 2.085.505 2.946z"/></g></g><path d="M413.584 238.323c-9.287 2.238-19.064 3.316-28.798 2.592-8.197-22.369-15.557-36.883-20.012-44.748v270.577s-21.102 6.71-55.867 11.11l-.544-.059c1.881-54.795 5.722-166.47 8.277-240.705 2.055-59.755 31.084-95.29 60.099-117.44-2.676 6.78-5.072 14.606-7 23.667 7.354 11.852 24.436 42.069 43.831 94.964l.014.042zM190.717 477.795c-34.248-4.401-56.477-11.05-56.477-11.05V196.171c-4.456 7.867-11.813 22.38-20.01 44.743-9.632.716-19.308-.332-28.51-2.523.005-.033.012-.065.02-.097 19.377-52.848 36.305-83.066 43.61-94.944-1.93-9.075-4.328-16.912-7.007-23.701 29.015 22.15 58.044 57.685 60.1 117.44 2.554 74.235 6.395 185.91 8.276 240.705z" fill="#000" fill-opacity=".1"/></g></svg>