<?xml version="1.0" encoding="utf-8"?><svg width="500" height="500" viewBox="0 0 500 500" fill="none" xmlns="http://www.w3.org/2000/svg"><path fill-rule="evenodd" clip-rule="evenodd" d="M225.003 114.223h93.644V26.928h-93.644v87.295z" fill="#D9D9D9"/><path fill-rule="evenodd" clip-rule="evenodd" d="M224.864 37.228h93.458v-14.2h-93.458v14.2z" fill="#222540"/><path fill-rule="evenodd" clip-rule="evenodd" d="M109.548 80.2585S68.7848 153.058 51 208.028c4.4449 13.375 45.2077 40.86 85.232 37.885 13.34-36.4 24.46-52 24.46-52s2.963-95.0845-51.144-113.6545zm323.924 0s40.763 72.7995 58.548 127.7695c-4.445 13.375-45.208 40.86-85.232 37.885-13.34-36.4-24.46-52-24.46-52s-2.963-95.0845 51.144-113.6545z" fill="#F2F2F2"/><path fill-rule="evenodd" clip-rule="evenodd" d="M271.511 62.7025c-50.082 0-47.798-39.4691-48.743-39.14-7.516 2.6187-24.132 14.9368-52.438 25.495-31.873 11.885-52.626 19.315-60.783 31.2 11.115 8.915 46.695 28.9695 46.695 120.3445v271.14s49.657 14.856 114.885 14.856c68.929 0 115.648-14.856 115.648-14.856v-271.14c0-91.375 35.58-111.4295 46.699-120.3445-8.156-11.885-28.909-19.315-60.782-31.2-28.36-10.5767-44.982-22.9195-52.478-25.5087-.927-.3203 4.177 39.1537-48.703 39.1537z" fill="#F2F2F2"/><path fill-rule="evenodd" clip-rule="evenodd" d="M489.353 200.129c.936 2.667 1.828 5.303 2.668 7.899-4.445 13.375-45.208 40.86-85.232 37.885-.958-2.613-1.904-5.119-2.836-7.519 20.795-1.358 37.993-5.637 51.595-12.837 13.428-7.109 24.696-15.585 33.805-25.428zm-435.6983.036c9.1031 9.828 20.3606 18.291 33.7724 25.392 13.6109 7.205 30.8239 11.485 51.6389 12.84-.931 2.399-1.877 4.904-2.834 7.517-40.0243 2.975-80.7871-24.51-85.232-37.885.8363-2.585 1.7234-5.21 2.6547-7.864z" fill="#292D50"/><path fill-rule="evenodd" clip-rule="evenodd" d="M490.542 203.572l-.129.135c-11.319 12.102-23.949 21.258-37.892 27.465-14.449 6.434-30.308 9.701-47.576 9.804a391.998 391.998 0 00-2.132-5.485c17.149-.138 32.905-3.405 47.267-9.8 14.153-6.301 26.954-15.64 38.403-28.015.71 1.982 1.398 3.948 2.059 5.896zM93.1548 225.691c14.3032 6.368 29.9872 9.635 47.0522 9.8l-.846 2.148c-.425 1.089-.853 2.2-1.284 3.333-17.186-.126-32.973-3.393-47.3626-9.8-14.0602-6.26-26.786-15.517-38.1773-27.771a364.211 364.211 0 012.0599-5.891c11.4889 12.457 24.3412 21.851 38.5578 28.181z" fill="#D54B4B"/><path fill-rule="evenodd" clip-rule="evenodd" d="M329.851 28.345c-5.772-3.24-9.728-5.345-12.007-5.345 0 0 5.881 32.495-46.336 32.495-48.52 0-46.335-32.495-46.335-32.495-2.28 0-6.236 2.105-12.003 5.345 0 0 7.369 40.38 58.403 40.38 51.479 0 58.278-35.895 58.278-40.38z" fill="#292D50"/><path fill-rule="evenodd" clip-rule="evenodd" d="M435.584 243.323c-9.287 2.238-19.064 3.316-28.797 2.592-8.198-22.369-15.558-36.883-20.013-44.748v270.577s-21.102 6.71-55.866 11.111l-.544-.06c1.88-54.795 5.722-166.47 8.276-240.705 2.055-59.755 31.085-95.29 60.099-117.44-2.675 6.781-5.072 14.606-6.999 23.667 7.354 11.852 24.435 42.069 43.83 94.964.005.014.01.028.014.042zM212.717 482.795c-34.248-4.401-56.476-11.051-56.476-11.051V201.172c-4.456 7.867-11.814 22.379-20.01 44.743-9.633.716-19.309-.332-28.511-2.523.005-.032.012-.065.02-.097 19.377-52.848 36.306-83.066 43.61-94.944-1.929-9.075-4.328-16.912-7.006-23.701 29.014 22.15 58.043 57.685 60.099 117.44 2.554 74.235 6.395 185.91 8.276 240.705h-.002z" fill="#000" fill-opacity=".06"/><path d="M321 154.463c0 6.372-5.373 11.537-12 11.537s-12-5.165-12-11.537V123h24v31.463z" fill="#D86A6A"/><path d="M318.818 154.463c0 5.213-4.395 9.439-9.817 9.439-5.423 0-9.818-4.226-9.818-9.439v-29.365h19.635v29.365z" fill="#C2CBED"/><path d="M302.643 139.781c.001.524.208.439.209 1.817 0 1.379-.064 1.035 0 1.993 0 .525.882 1.958 1.427 3.007.182 0 1.528-.105 1.091-.525-.262-.252-1.249-1.964-1.428-3.006-.192-1.127 1.061-1.602.967-2.238 2.181.525 4.279 1.049 4.825.525.544-.524.545-.002.545 1.044v.005c0 1.048 0 1.048 1.091 3.146l1.091.524c-.364-.524-1.091-2.622-1.091-3.67-.001-1.173.545-1.049 1.091-1.049.546.524.545 0 2.182 0 1.636 0 .545 1.573 0 2.097-.546.525-.546.525 0 1.049.545.524 1.344-.804 1.89-2.902.096-.372-.716-1.293-1.807-1.293-.629 0 0-1.573-.545-2.622s0-2.622 0-3.671c.545.525 1.279.181 2.182 1.049.545.524.718-.551.545-1.049-.4-1.155-1.091-2.097-2.182-2.622-.545 0-.339-.77-.629-1.049-2.182 1.049-1.636 3.671-2.182 4.72-.69 1.327-2.181 2.36-5.454 1.573-1.292-.31-2.154-.207-2.727.106-.223.122-1.409-1.889-2.234-.24-.444.888-.912 4.329.38 5.903.546-1.287.217-5.403.972-4.639-.352-.264-.209 1.769-.209 2.017z" fill="#DE9393"/><path fill-rule="evenodd" clip-rule="evenodd" d="M309 163.902c5.423 0 9.818-4.226 9.818-9.439s-4.395-9.439-9.818-9.439c-5.422 0-9.817 4.226-9.817 9.439s4.395 9.439 9.817 9.439z" fill="#F2F2F2"/><path d="M308.989 152.104l-2.443 1.534.982 3.185h2.945l.982-3.185-2.466-1.534z" fill="#2E47A6"/><path fill-rule="evenodd" clip-rule="evenodd" d="M309 163.902c5.423 0 9.818-4.226 9.818-9.439s-4.395-9.439-9.818-9.439c-5.422 0-9.817 4.226-9.817 9.439s4.395 9.439 9.817 9.439zm8.727-9.439c0 1.766-.567 3.404-1.536 4.756l-.476-1.275-2.089.958-1.009 2.02 1.354.439c-1.411.941-3.124 1.493-4.971 1.493-1.844 0-3.555-.551-4.965-1.49l1.348-.442-1.008-2.02-2.089-.958-.465 1.291c-.976-1.354-1.548-2.999-1.548-4.772 0-.641.075-1.265.217-1.865l.76 1.101 1.76-1.445.43-2.203-1.699-.246c1.3-1.868 3.359-3.207 5.753-3.607l-.675 1.561 2.198.743 2.182-.743-.657-1.555c2.379.407 4.425 1.742 5.718 3.602l-1.945.245.43 2.203 1.76 1.445 1.01-1.082c.139.594.212 1.212.212 1.846z" fill="#2E47A6"/></svg>