<?xml version="1.0" encoding="UTF-8"?><svg height="500" viewBox="0 0 500 500" width="500" xmlns="http://www.w3.org/2000/svg"><g fill="none" fill-rule="evenodd"><path d="M0 0h500v500H0z"/><path d="M203.086 109.195h93.643V21.9h-93.643z" fill="#d9d9d9"/><path d="M202.946 32.2h93.459V18h-93.459z" fill="#393939"/><path d="M87.548 75.26S46.785 148.06 29 203.03c4.445 13.375 45.208 40.86 85.232 37.885 13.34-36.4 24.46-52 24.46-52S141.655 93.83 87.548 75.26M411.473 75.26s40.763 72.8 58.548 127.77c-4.445 13.375-45.208 40.86-85.232 37.885-13.34-36.4-24.46-52-24.46-52S357.366 93.83 411.473 75.26" fill="#f2f2f2"/><path d="M249.514 57.706c-50.082 0-47.799-39.47-48.743-39.14-7.516 2.618-24.133 14.936-52.439 25.495-31.872 11.885-52.625 19.315-60.782 31.2 11.115 8.915 46.694 28.97 46.694 120.345v271.14S183.902 481.6 249.13 481.6c68.93 0 115.649-14.855 115.649-14.855v-271.14c0-91.375 35.58-111.43 46.7-120.345-8.157-11.885-28.91-19.315-60.783-31.2-28.36-10.577-44.982-22.92-52.478-25.511-.928-.318 4.177 39.156-48.703 39.156z" fill="#f2f2f2"/><path d="M317.864 28.908c8.478 4.605 19.353 10.065 32.911 15.122 26.516 9.887 45.336 16.691 55.61 25.542l-272.06 389.42v-167.37z" fill="#d32228"/><g fill="#3d3d3d"><path d="M364.858 458.834v7.88s-46.72 14.855-115.648 14.855c-65.228 0-114.885-14.855-114.885-14.855v-8.158c38.382 9.913 76.91 14.87 115.583 14.87 38.31 0 76.627-4.864 114.95-14.592zM467.461 195.302a338.826 338.826 0 0 1 2.668 7.9c-4.445 13.375-45.208 40.86-85.232 37.885a426.405 426.405 0 0 0-2.836-7.52c20.795-1.358 37.993-5.637 51.595-12.837 13.428-7.11 24.696-15.585 33.805-25.428zM31.655 195.302c9.103 9.828 20.36 18.291 33.772 25.392 13.611 7.205 30.824 11.485 51.64 12.84a426.42 426.42 0 0 0-2.835 7.516C74.208 244.025 33.445 216.54 29 203.165c.836-2.584 1.723-5.209 2.655-7.863zM249.656 63.754c51.479 0 58.278-35.895 58.278-40.38-5.772-3.24-9.728-5.345-12.007-5.345 0 0 5.881 32.495-46.336 32.495-48.52 0-46.335-32.495-46.335-32.495-2.28 0-6.236 2.105-12.003 5.345 0 0 7.369 40.38 58.403 40.38"/></g><g fill-rule="nonzero"><path d="M322.368 123.47c-.985.715-2.22 1.2-3.624 1.446-2.785.498-5.876-.023-9.175-1.407l-.773-.325-.774.324c-2.567 1.076-4.812 1.61-6.918 1.56-2.005.002-3.766-.55-4.978-1.587l-1.782-1.526-1.225 2.001c-2.763 4.514-4.257 9.226-4.109 13.862-.007 5.174 2.25 10.245 6.193 13.253 1.353 1.094 2.537 1.799 5.215 3.225l.013.007c2.221 1.183 3.173 1.738 4.233 2.536a7.33 7.33 0 0 1 2.326 2.96l2.003 4.594 1.71-4.71c.452-1.244 1.464-2.362 2.887-3.238.864-.537 1.6-.932 3.287-1.794l.01-.004c3.217-1.642 4.628-2.482 6.238-3.923 3.685-3.312 5.775-8.374 5.862-13.628.165-4.45-1.197-9.038-3.755-13.077l-1.14-1.8zm2.621 13.519c-.07 4.23-1.722 8.229-4.535 10.757-1.264 1.132-2.474 1.852-5.385 3.338l-.01.005c-1.787.912-2.59 1.343-3.573 1.954a12.113 12.113 0 0 0-2.684 2.211 10.943 10.943 0 0 0-1.744-1.62c-1.27-.955-2.343-1.582-4.747-2.862l-.013-.007c-2.455-1.307-3.492-1.924-4.625-2.84-2.942-2.246-4.668-6.124-4.664-10.168-.103-3.257.785-6.605 2.508-9.92 1.65.826 3.555 1.233 5.542 1.231 2.466.059 4.994-.488 7.737-1.558 3.681 1.426 7.255 1.95 10.644 1.345a13.604 13.604 0 0 0 3.368-1.033c1.518 2.939 2.294 6.107 2.181 9.167z" fill="#ecb301"/><path d="M323.543 125.089c-1.314.953-2.867 1.52-4.455 1.797-3.49.624-7.065-.178-10.293-1.533-2.448 1.025-5.066 1.778-7.738 1.715-2.214.002-4.517-.6-6.232-2.068-2.335 3.816-3.961 8.218-3.816 12.755-.005 4.432 1.845 9.008 5.407 11.726 2.892 2.336 6.489 3.531 9.45 5.76 1.297.962 2.31 2.277 2.957 3.759.666-1.833 2.09-3.257 3.719-4.259 3.048-1.893 6.54-3.082 9.249-5.507 3.382-3.04 5.122-7.663 5.197-12.171.156-4.234-1.198-8.426-3.445-11.974z" fill="#fff"/></g><path d="M413.584 238.323c-9.287 2.238-19.064 3.316-28.798 2.592-8.197-22.369-15.557-36.883-20.012-44.748v270.577s-21.102 6.71-55.867 11.11l-.544-.059c1.881-54.795 5.722-166.47 8.277-240.705 2.055-59.755 31.084-95.29 60.099-117.44-2.676 6.78-5.072 14.606-7 23.667 7.354 11.852 24.436 42.069 43.831 94.964l.014.042zM190.717 477.795c-34.248-4.401-56.477-11.05-56.477-11.05V196.171c-4.456 7.867-11.813 22.38-20.01 44.743-9.632.716-19.308-.332-28.51-2.523.005-.033.012-.065.02-.097 19.377-52.848 36.305-83.066 43.61-94.944-1.93-9.075-4.328-16.912-7.007-23.701 29.015 22.15 58.044 57.685 60.1 117.44 2.554 74.235 6.395 185.91 8.276 240.705z" fill="#000" fill-opacity=".06"/></g></svg>