<?xml version="1.0" encoding="UTF-8"?><svg height="500" viewBox="0 0 500 500" width="500" xmlns="http://www.w3.org/2000/svg"><g fill="none" fill-rule="evenodd"><path d="M0 0h500v500H0z"/><path d="M203.006 109.193h93.643V21.898h-93.643z" fill="#1c7e5e"/><path d="M202.867 32.198h93.458v-14.2h-93.458z" fill="#22916c"/><g fill="#26a279"><path d="M87.55 75.26s-40.762 72.8-58.547 127.77c4.445 13.375 45.208 40.86 85.232 37.885 13.34-36.4 24.46-52 24.46-52S141.658 93.83 87.55 75.26M411.476 75.26s40.762 72.8 58.547 127.77c-4.445 13.375-45.208 40.86-85.232 37.885-13.34-36.4-24.46-52-24.46-52S357.368 93.83 411.476 75.26"/><path d="M249.514 57.706c-50.082 0-47.798-39.47-48.742-39.14-7.516 2.618-24.133 14.936-52.439 25.495-31.873 11.885-52.626 19.315-60.782 31.2 11.114 8.915 46.694 28.97 46.694 120.345v271.14S183.903 481.6 249.13 481.6c68.929 0 115.648-14.855 115.648-14.855v-271.14c0-91.375 35.58-111.43 46.7-120.345-8.157-11.885-28.91-19.315-60.783-31.2-28.36-10.577-44.982-22.92-52.478-25.511-.927-.318 4.177 39.156-48.703 39.156z"/></g><path d="M293.733 37.26c45.26 11.336 71.506 39.337 71.506 67.982v72.909c-.301 5.5-.46 11.3-.46 17.421v271.14s-46.72 14.855-115.649 14.855c-65.227 0-114.885-14.855-114.885-14.855v-271.14c0-6.261-.167-12.188-.482-17.799v-72.531c0-28.836 26.598-57.02 72.417-68.202 5.595 10.126 17.495 20.632 43.334 20.632 27.082 0 38.955-10.352 44.22-20.411z" fill="#259973"/><path d="M296.725 38.041v441.161a477.69 477.69 0 0 1-27.937 1.963V55.493c13.909-3.564 21.147-10.975 24.945-18.232 1.007.252 2.004.512 2.992.78zm63.523 45.697v384.281c-4.955 1.353-13.833 3.58-25.942 5.843V54.837c12.098 8.269 20.89 18.223 25.942 28.9zM203.269 479.207V37.78c.962-.255 1.932-.501 2.91-.74 4.058 7.342 11.43 14.885 25.027 18.477V481.2a463.64 463.64 0 0 1-27.937-1.993zm-57.523-9.517V72.4c6.324-8.21 15.05-15.698 25.942-21.937v424.46c-10.748-1.831-19.567-3.726-25.942-5.233z" fill="#e04346"/><path d="M209.407 35.987c5.954 7.514 17.552 14.534 40.105 14.534 23.7 0 35.431-6.694 41.176-14.005l5.834 1.531c-9.542 13.404-25.107 20.106-46.694 20.106-21.72 0-37.37-6.784-46.95-20.352z" fill="#26a279"/><path d="M296.5 161.5h25v7h-25z" fill="#fff" fill-rule="nonzero"/><path d="M298 163h22v4h-22z" fill="#012e12"/><path d="M327.385 125.615l.707.707-4.243 4.243H294.15l-4.242-4.243.707-.707C295.46 120.771 302.011 118 309 118s13.54 2.771 18.385 7.615z" fill="#fff" fill-rule="nonzero"/><g transform="translate(289 123)"><path d="M0 22.72v-5.44h2.366a17.754 17.754 0 0 1 3.242-7.825L3.935 7.781 7.78 3.935l1.674 1.673a17.754 17.754 0 0 1 7.825-3.242V0h5.44v2.366a17.754 17.754 0 0 1 7.825 3.242l1.674-1.673 3.846 3.846-1.673 1.674a17.754 17.754 0 0 1 3.242 7.825H40v5.44h-2.366a17.754 17.754 0 0 1-3.242 7.825l1.673 1.674-3.846 3.846-1.674-1.673a17.754 17.754 0 0 1-7.825 3.242V40h-5.44v-2.366a17.754 17.754 0 0 1-7.825-3.242l-1.674 1.673-3.846-3.846 1.673-1.674a17.754 17.754 0 0 1-3.242-7.825zm2-3.44h2v1.44H2zM7.781 6.763l1.414 1.414-1.018 1.018-1.414-1.414zM20.72 2v2h-1.44V2zm12.517 5.781l-1.414 1.414-1.018-1.018 1.414-1.414zM38 20.72h-2v-1.44h2zm-5.781 12.517l-1.414-1.414 1.018-1.018 1.414 1.414zM19.28 38v-2h1.44v2zM6.763 32.219l1.414-1.414 1.018 1.018-1.414 1.414z" fill="#fff" fill-rule="nonzero"/><g fill="#9c0f0c"><circle cx="20" cy="20" r="15.84"/><path d="M19.28 2h1.44v36h-1.44z"/><path d="M6.763 7.781l1.018-1.018 25.456 25.456-1.018 1.018z"/><path d="M32.219 6.763l1.018 1.018L7.781 33.237l-1.018-1.018z"/><path d="M38 19.28v1.44H2v-1.44z"/></g><circle cx="20" cy="20" fill="#fff" r="12.96"/><circle cx="20" cy="20" fill="#012e12" r="11.52"/><circle cx="20" cy="20" fill="#799182" r="9"/></g><path d="M326.678 126.322l-2.829 2.829C320.05 125.35 314.8 123 309 123s-11.049 2.35-14.85 6.15l-2.828-2.828C295.846 121.798 302.096 119 309 119s13.154 2.798 17.678 7.322z" fill="#012e12" fill-rule="nonzero"/><path d="M413.584 238.323c-9.287 2.238-19.064 3.316-28.798 2.592-8.197-22.369-15.557-36.883-20.012-44.748v270.577s-21.102 6.71-55.867 11.11l-.544-.059c1.881-54.795 5.722-166.47 8.277-240.705 2.055-59.755 31.084-95.29 60.099-117.44-2.676 6.78-5.072 14.606-7 23.667 7.354 11.852 24.436 42.069 43.831 94.964l.014.042zM190.717 477.795c-34.248-4.401-56.477-11.05-56.477-11.05V196.171c-4.456 7.867-11.813 22.38-20.01 44.743-9.632.716-19.308-.332-28.51-2.523.005-.033.012-.065.02-.097 19.377-52.848 36.305-83.066 43.61-94.944-1.93-9.075-4.328-16.912-7.007-23.701 29.015 22.15 58.044 57.685 60.1 117.44 2.554 74.235 6.395 185.91 8.276 240.705z" fill="#000" fill-opacity=".1"/><path d="M209.734 36.392c-2.281.5-4.517 1.04-6.706 1.62-3.4-4.758-6.046-10.36-7.938-16.804 3.69-1.982 6.365-3.182 8.086-3.182 0 0-.645 9.601 6.558 18.366zm80.827.284c7.061-8.84 5.286-18.65 5.286-18.65 1.785 0 4.597 1.29 8.504 3.406-1.878 6.407-4.509 11.975-7.893 16.705a157.865 157.865 0 0 0-5.897-1.461z" fill="#26a279"/></g></svg>