<?xml version="1.0" encoding="UTF-8"?><svg width="500" height="500" viewBox="0 0 500 500" fill="none" xmlns="http://www.w3.org/2000/svg"><path fill-rule="evenodd" clip-rule="evenodd" d="M203.004 109.223h93.643V21.928h-93.643v87.295z" fill="#BFBFBF"/><path fill-rule="evenodd" clip-rule="evenodd" d="M202.863 32.2281h93.459v-14.2h-93.459v14.2z" fill="#E3E3E3"/><path fill-rule="evenodd" clip-rule="evenodd" d="M87.5475 75.2585S46.7848 148.059 29 203.029c4.4449 13.375 45.2077 40.86 85.232 37.885 13.34-36.4 24.46-52 24.46-52s2.963-95.0855-51.1445-113.6555zm323.9265 0s40.763 72.8005 58.547 127.7705c-4.444 13.375-45.207 40.86-85.232 37.885-13.339-36.4-24.459-52-24.459-52s-2.964-95.0855 51.144-113.6555z" fill="#F2F2F2"/><path fill-rule="evenodd" clip-rule="evenodd" d="M249.51 57.7025c-50.081 0-47.798-39.4691-48.742-39.14-7.516 2.6187-24.133 14.9368-52.439 25.495-31.873 11.885-52.6256 19.315-60.7821 31.2 11.1148 8.915 46.6941 28.9695 46.6941 120.3445v271.14s49.658 14.856 114.885 14.856c68.929 0 115.649-14.856 115.649-14.856v-271.14c0-91.375 35.579-111.4295 46.699-120.3445-8.157-11.885-28.91-19.315-60.782-31.2-28.36-10.5767-44.982-22.9195-52.479-25.5087-.927-.3203 4.178 39.1537-48.703 39.1537z" fill="#F2F2F2"/><path fill-rule="evenodd" clip-rule="evenodd" d="M265.46 56.2709c15.676-3.0936 23.748-10.752 27.937-18.3668V479.548c-8.696.807-18.037 1.431-27.937 1.768V56.2709zm58.867-23.8797c7.325 3.7531 16.071 7.8241 26.363 11.6625.528.1967 1.052.3922 1.574.5865V470.081c-6.829 1.637-16.283 3.657-27.937 5.546V32.3912zM234.53 481.349c-9.8-.326-19.156-.961-27.937-1.79V37.8039c4.477 7.684 12.681 15.4346 27.937 18.512V481.349zm-58.867-5.74c-11.439-1.846-20.935-3.816-27.936-5.43V44.278l.601-.2243c10.751-4.01 19.815-8.2739 27.335-12.1638V475.609zm291.8-280.309c.936 2.666 1.827 5.303 2.667 7.899-4.445 13.375-45.208 40.86-85.232 37.885-.958-2.613-1.904-5.119-2.836-7.519 20.796-1.358 37.994-5.637 51.595-12.838 13.428-7.108 24.697-15.584 33.806-25.427zm-435.8083 0c9.1031 9.827 20.3606 18.291 33.7724 25.391 13.6109 7.206 30.8241 11.486 51.6389 12.84-.931 2.4-1.877 4.905-2.834 7.517-40.0243 2.975-80.7871-24.51-85.232-37.885.8363-2.585 1.7234-5.209 2.6547-7.863z" fill="#3D3D3D"/><path fill-rule="evenodd" clip-rule="evenodd" d="M307.853 23.345c-5.772-3.24-9.728-5.345-12.008-5.345 0 0 5.882 32.495-46.335 32.495-48.52 0-46.335-32.495-46.335-32.495-2.28 0-6.236 2.105-12.003 5.345 0 0 7.368 40.38 58.403 40.38 51.478 0 58.278-35.895 58.278-40.38z" fill="#F2F2F2"/><path fill-rule="evenodd" clip-rule="evenodd" d="M413.583 238.323c-9.288 2.238-19.065 3.316-28.798 2.592-8.198-22.369-15.557-36.883-20.013-44.748v270.577s-21.102 6.71-55.866 11.111l-.544-.06c1.881-54.795 5.722-166.47 8.276-240.705 2.056-59.755 31.085-95.29 60.099-117.44-2.675 6.781-5.071 14.606-6.999 23.667 7.354 11.852 24.436 42.069 43.831 94.964.005.014.01.028.014.042zM190.715 477.795c-34.247-4.401-56.476-11.051-56.476-11.051V196.172c-4.456 7.867-11.814 22.379-20.01 44.743-9.633.716-19.3084-.332-28.5102-2.524.005-.032.0117-.064.0198-.096 19.3774-52.848 36.3054-83.066 43.6094-94.944-1.928-9.075-4.327-16.912-7.006-23.701 29.014 22.15 58.044 57.685 60.099 117.44 2.554 74.235 6.396 185.91 8.276 240.705h-.002z" fill="#000" fill-opacity=".1"/><path fill-rule="evenodd" clip-rule="evenodd" d="M290 116.458S299.495 114 308.996 114c9.502 0 19.004 2.458 19.004 2.458v31.961C328 163.276 308.996 173 308.996 173S290 163.276 290 148.419v-31.961z" fill="#F2F2F2"/><path fill-rule="evenodd" clip-rule="evenodd" d="M292 118.512s8.495-2.226 16.997-2.226c8.501 0 17.003 2.226 17.003 2.226v28.943c0 13.453-17.003 22.259-17.003 22.259S292 160.908 292 147.455v-28.943z" fill="#EECD78"/><path fill-rule="evenodd" clip-rule="evenodd" d="M294.43 120.688s7.281-1.974 14.568-1.974 14.575 1.974 14.575 1.974v25.653c0 11.925-14.575 19.73-14.575 19.73s-14.568-7.805-14.568-19.73v-25.653z" fill="#3D3D3D"/><path fill-rule="evenodd" clip-rule="evenodd" d="M296.855 122.863s6.068-1.72 12.141-1.72 12.145 1.72 12.145 1.72v22.365c0 10.396-12.145 17.201-12.145 17.201s-12.141-6.805-12.141-17.201v-22.365z" fill="#F2F2F2"/><path d="M302.76 134.148c.754-.74 2.336-1.173 3.342-.595 1.006.579 1.815 1.798 2.355 2.611l.399.602.399-.602c.54-.813 1.349-2.032 2.355-2.611 1.007-.578 2.588-.145 3.342.595.337.331.551.822.717 1.201.053.12.1.228.145.317.046.091.107.187.17.287.205.325.431.684.225.995-.124-.062-.258-.159-.42-.277-.453-.33-1.124-.818-2.383-1.131-1.71-.426-3.313 2.49-3.631 3.595l-.919-.461-.919.461c-.318-1.105-1.921-4.021-3.631-3.595-1.259.313-1.93.801-2.383 1.131-.162.118-.296.215-.419.277-.207-.311.019-.67.225-.995.062-.1.123-.196.169-.287.045-.089.093-.197.145-.317.166-.379.38-.87.717-1.201z" fill="#3D3D3D"/><path d="M300.5 150.247c.654 1.255 1.514 2.388 2.437 3.381l6.063-7.996 6.062 7.996c.923-.994 1.784-2.127 2.438-3.382v-7.785c0-2.335-2.175-4.227-4.857-4.227h-7.286c-2.682 0-4.857 1.892-4.857 4.227v7.786z" fill="#7A7A7A"/><path d="M304.027 154.721c.156.145.312.285.467.422h9.002c.156-.137.312-.278.468-.423l-4.968-6.975-4.969 6.976z" fill="#3D3D3D"/><path fill="#7A7A7A" d="M300.5 124.786h17v4.8571h-17z"/></svg>