<?xml version="1.0" encoding="UTF-8"?><svg width="500" height="500" viewBox="0 0 500 500" fill="none" xmlns="http://www.w3.org/2000/svg"><path fill-rule="evenodd" clip-rule="evenodd" d="M203.004 109.223h93.643V21.928h-93.643v87.295z" fill="#252525"/><path fill-rule="evenodd" clip-rule="evenodd" d="M202.863 32.2281h93.459v-14.2h-93.459v14.2z" fill="#393939"/><path fill-rule="evenodd" clip-rule="evenodd" d="M87.5475 75.2585S46.7848 148.059 29 203.029c4.4449 13.375 45.2077 40.86 85.232 37.885 13.34-36.4 24.46-52 24.46-52s2.963-95.0855-51.1445-113.6555zm323.9265 0s40.763 72.8005 58.547 127.7705c-4.444 13.375-45.207 40.86-85.232 37.885-13.339-36.4-24.459-52-24.459-52s-2.964-95.0855 51.144-113.6555z" fill="#F1C500"/><path fill-rule="evenodd" clip-rule="evenodd" d="M249.51 57.7025c-50.081 0-47.798-39.4691-48.742-39.14-7.516 2.6187-24.133 14.9368-52.439 25.495-31.873 11.885-52.6256 19.315-60.7821 31.2 11.1148 8.915 46.6941 28.9695 46.6941 120.3445v271.14s49.658 14.856 114.885 14.856c68.929 0 115.649-14.856 115.649-14.856v-271.14c0-91.375 35.579-111.4295 46.699-120.3445-8.157-11.885-28.91-19.315-60.782-31.2-28.36-10.5767-44.982-22.9195-52.479-25.5087-.927-.3203 4.178 39.1537-48.703 39.1537z" fill="#F1C500"/><path fill-rule="evenodd" clip-rule="evenodd" d="M265.46 56.2711c15.676-3.0936 23.748-10.7519 27.937-18.3667V479.549c-8.696.807-18.037 1.43-27.937 1.767V56.2711zm58.867-23.8796c7.325 3.7531 16.071 7.8241 26.363 11.6625.528.1967 1.052.3922 1.574.5865V470.082c-6.829 1.636-16.283 3.656-27.937 5.545V32.3915zM234.53 481.349c-9.8-.326-19.156-.961-27.937-1.79V37.8042c4.477 7.684 12.681 15.4345 27.937 18.5119V481.349zm-58.867-5.74c-11.439-1.846-20.935-3.816-27.936-5.43V44.2783c.2-.0746.4-.1494.601-.2243 10.751-4.0101 19.815-8.2739 27.335-12.1639V475.609z" fill="#3D3D3D"/><path fill-rule="evenodd" clip-rule="evenodd" d="M307.853 23.345c-5.772-3.24-9.728-5.345-12.008-5.345 0 0 5.882 32.495-46.335 32.495-48.52 0-46.335-32.495-46.335-32.495-2.28 0-6.236 2.105-12.003 5.345 0 0 7.368 40.38 58.403 40.38 51.478 0 58.278-35.895 58.278-40.38z" fill="#3D3D3D"/><path fill-rule="evenodd" clip-rule="evenodd" d="M413.583 238.323c-9.288 2.238-19.065 3.316-28.798 2.592-8.198-22.369-15.557-36.883-20.013-44.748v270.577s-21.102 6.71-55.866 11.111l-.544-.06c1.881-54.795 5.722-166.47 8.276-240.705 2.056-59.755 31.085-95.29 60.099-117.44-2.675 6.781-5.071 14.606-6.999 23.667 7.354 11.852 24.436 42.069 43.831 94.964.005.014.01.028.014.042zM190.715 477.795c-34.247-4.401-56.476-11.051-56.476-11.051V196.172c-4.456 7.867-11.814 22.379-20.01 44.743-9.633.716-19.3084-.332-28.5102-2.524.005-.032.0117-.064.0198-.096 19.3774-52.848 36.3054-83.066 43.6094-94.944-1.928-9.075-4.327-16.912-7.006-23.701 29.014 22.15 58.044 57.685 60.099 117.44 2.554 74.235 6.396 185.91 8.276 240.705h-.002z" fill="#000" fill-opacity=".1"/><path fill-rule="evenodd" clip-rule="evenodd" d="M288 118.684s13.263 1.105 21-4.421c7.737 5.526 21 4.421 21 4.421v20.545c0 21.721-21 32.508-21 32.508s-21-10.793-21-32.508v-20.545z" fill="#3D3D3D"/><path fill-rule="evenodd" clip-rule="evenodd" d="M290 132h38v7.588C328 159.24 309 169 309 169s-19-9.765-19-29.412V132z" fill="#F1C500"/><path d="M328 130h-38v-9s12 1 19-4c7 5 19 4 19 4v9z" fill="#F2F2F2"/><path d="M308 138l-4-2 1.667-1.5L309 136l3.333-1.5L314 136l-4 2v1.34l2.714-1.34s6.036 5.958 9.286 13.292c0 0-5.404-3.227-9.286-4.67V152H317v2h-4.165l1.736 6h-11.142l1.736-6H301v-2h4.286v-5.378c-3.882 1.443-9.286 4.67-9.286 4.67 3.25-7.334 9.286-13.292 9.286-13.292l2.714 1.34V138z" fill="#3D3D3D"/></svg>