<?xml version="1.0" encoding="UTF-8"?><svg width="500" height="500" viewBox="0 0 500 500" fill="none" xmlns="http://www.w3.org/2000/svg"><path fill-rule="evenodd" clip-rule="evenodd" d="M203.003 109.223h93.644V21.928h-93.644v87.295z" fill="#D9D9D9"/><path fill-rule="evenodd" clip-rule="evenodd" d="M202.864 32.228h93.458v-14.2h-93.458v14.2z" fill="#B23131"/><path fill-rule="evenodd" clip-rule="evenodd" d="M87.5475 75.2585S46.7848 148.058 29 203.028c4.4449 13.375 45.2077 40.86 85.232 37.885 13.34-36.4 24.46-52 24.46-52s2.963-95.0845-51.1445-113.6545zm323.9255 0s40.763 72.7995 58.547 127.7695c-4.445 13.375-45.207 40.86-85.232 37.885-13.34-36.4-24.46-52-24.46-52s-2.963-95.0845 51.145-113.6545z" fill="#F2F2F2"/><path fill-rule="evenodd" clip-rule="evenodd" d="M249.514 57.7057c-50.082 0-47.798-39.4691-48.743-39.14-7.516 2.6186-24.133 14.9368-52.438 25.495-31.873 11.885-52.6264 19.315-60.783 31.2 11.1149 8.915 46.694 28.9703 46.694 120.3453v271.14s49.658 14.855 114.885 14.855c68.93 0 115.649-14.855 115.649-14.855v-271.14c0-91.375 35.579-111.4303 46.699-120.3453-8.156-11.885-28.909-19.315-60.782-31.2-28.36-10.5767-44.982-22.9195-52.478-25.5087-.928-.3203 4.177 39.1537-48.703 39.1537z" fill="#F2F2F2"/><path fill-rule="evenodd" clip-rule="evenodd" d="M413.584 238.323c-9.287 2.238-19.064 3.316-28.797 2.592-8.198-22.369-15.558-36.883-20.013-44.748v270.577s-21.102 6.71-55.866 11.111l-.544-.06c1.88-54.795 5.722-166.47 8.276-240.705 2.055-59.755 31.085-95.29 60.099-117.44-2.675 6.781-5.072 14.606-6.999 23.667 7.354 11.852 24.435 42.069 43.83 94.964.005.014.01.028.014.042zM190.717 477.795c-34.248-4.401-56.476-11.051-56.476-11.051V196.172c-4.456 7.867-11.814 22.379-20.01 44.743-9.633.716-19.3089-.332-28.5108-2.523.0051-.032.0117-.065.0199-.097 19.3769-52.848 36.3059-83.066 43.6099-94.944-1.929-9.075-4.328-16.912-7.006-23.701 29.014 22.15 58.043 57.685 60.099 117.44 2.554 74.235 6.395 185.91 8.276 240.705h-.002z" fill="#000" fill-opacity=".06"/><path fill-rule="evenodd" clip-rule="evenodd" d="M467.35 195.13c.936 2.667 1.828 5.303 2.668 7.9-4.445 13.375-45.208 40.86-85.232 37.885-.958-2.614-1.904-5.12-2.836-7.52 20.795-1.358 37.993-5.637 51.595-12.837 13.428-7.109 24.696-15.585 33.805-25.428zm-435.6953.04c9.1031 9.828 20.3606 18.291 33.7724 25.392 13.6109 7.205 30.8241 11.485 51.6389 12.84-.931 2.399-1.877 4.904-2.834 7.517-40.0243 2.975-80.7871-24.51-85.232-37.885.8363-2.585 1.7234-5.21 2.6547-7.864zM307.852 23.345C302.08 20.105 298.124 18 295.844 18c0 0 5.882 32.495-46.335 32.495-48.521 0-46.336-32.495-46.336-32.495-2.279 0-6.235 2.105-12.002 5.345 0 0 7.368 40.38 58.403 40.38 51.478 0 58.278-35.895 58.278-40.38z" fill="#C73B3B"/><circle cx="309" cy="132.368" r="13.5088" fill="#EDD5D5"/><path d="M311.88 139.846h3.874v-16.162h-3.874v6.416h-5.738v-6.416h-3.896v16.162h3.896v-6.749h5.738v6.749z" fill="#E22828"/><path fill-rule="evenodd" clip-rule="evenodd" d="M326.368 132.368c0 4.162-1.463 7.982-3.904 10.973l-3.539 9.291 1.654 10.614v4.824S313.584 170 309 170c-4.584 0-11.579-1.93-11.579-1.93v-4.824l1.654-10.614-3.539-9.291c-2.441-2.991-3.904-6.811-3.904-10.973 0-9.592 7.776-17.368 17.368-17.368 9.592 0 17.368 7.776 17.368 17.368zm-7.628 14.383a17.3487 17.3487 0 01-3.625 1.879l-2.048 16.111c2.834-.531 5.26-1.36 5.26-1.36v-1.591l-1.47-9.869 1.883-5.17zm-9.74 2.986c1.409 0 2.779-.168 4.09-.484l-2.007 15.792c-.707.082-1.411.13-2.083.13-.675 0-1.383-.049-2.093-.131l-2.008-15.794c1.315.318 2.688.487 4.101.487zm-6.125-1.111l2.048 16.113c-2.83-.531-5.25-1.358-5.25-1.358v-1.591l1.47-9.869-1.883-5.17a17.33 17.33 0 003.615 1.875zm21.564-15.547c0 3.732-2.108 7.169-4.204 9.903h-.024c-2.814 2.972-6.796 4.825-11.211 4.825s-8.397-1.853-11.211-4.825h-.024c-2.096-2.734-4.204-6.171-4.204-9.903 0-8.919 6.913-16.149 15.439-16.149 8.527 0 15.439 7.23 15.439 16.149z" fill="#E22828"/></svg>