<?xml version="1.0" encoding="UTF-8"?><svg height="500" viewBox="0 0 500 500" width="500" xmlns="http://www.w3.org/2000/svg"><g fill="none" fill-rule="evenodd"><path d="M0 0h500v500H0z"/><path d="M203.006 109.193h93.643V21.898h-93.643z" fill="#bbb207"/><path d="M202.867 32.198h93.458v-14.2h-93.458z" fill="#e3d709"/><path d="M87.55 75.26s-40.762 72.8-58.547 127.77c4.445 13.375 45.208 40.86 85.232 37.885 13.34-36.4 24.46-52 24.46-52S141.658 93.83 87.55 75.26M411.476 75.26s40.762 72.8 58.547 127.77c-4.445 13.375-45.208 40.86-85.232 37.885-13.34-36.4-24.46-52-24.46-52S357.368 93.83 411.476 75.26" fill="#f7ea0a"/><path d="M249.514 57.706c-50.082 0-47.798-39.47-48.742-39.14-7.516 2.618-24.133 14.936-52.439 25.495-31.873 11.885-52.626 19.315-60.782 31.2 11.114 8.915 46.694 28.97 46.694 120.345v271.14S183.903 481.6 249.13 481.6c68.929 0 115.648-14.855 115.648-14.855v-271.14c0-91.375 35.58-111.43 46.7-120.345-8.157-11.885-28.91-19.315-60.783-31.2-28.36-10.577-44.982-22.92-52.478-25.511-.927-.318 4.177 39.156-48.703 39.156z" fill="#f7ea0a"/><g fill="#2758b9"><path d="M232.496 48.877c4.833 1.025 10.46 1.618 17.013 1.618 6.95 0 12.872-.576 17.914-1.574l-.002 432.328c-5.9.225-12.005.348-18.294.348a439.66 439.66 0 0 1-16.628-.316zM309 24.044c8.095 4.563 19.565 11.104 34.92 17.37l.002 430.557c-9.083 1.936-20.886 4.09-34.92 5.87zm-118.078-.503v454.278a470.608 470.608 0 0 1-20.156-3.024 420.704 420.704 0 0 1-14.767-2.962l.003-430.789c15.474-6.388 26.935-13.015 34.92-17.503zM467.461 195.302a338.826 338.826 0 0 1 2.668 7.9c-4.445 13.375-45.208 40.86-85.232 37.885a426.405 426.405 0 0 0-2.836-7.52c20.795-1.358 37.993-5.637 51.595-12.837 13.428-7.11 24.696-15.585 33.805-25.428zM31.655 195.302c9.103 9.828 20.36 18.291 33.772 25.392 13.611 7.205 30.824 11.485 51.64 12.84a426.42 426.42 0 0 0-2.835 7.516C74.208 244.025 33.445 216.54 29 203.165c.836-2.584 1.723-5.209 2.655-7.863z"/><path d="M249.576 63.752c51.479 0 58.279-35.895 58.279-40.38-5.772-3.24-9.728-5.345-12.008-5.345 0 0 5.881 32.495-46.335 32.495-48.52 0-46.336-32.495-46.336-32.495-2.28 0-6.235 2.105-12.002 5.345 0 0 7.368 40.38 58.402 40.38"/></g><path d="M202.867 32.298h93.458v-7.1h-93.458z" fill="#2351aa"/><path d="M195.09 21.208c3.69-1.982 6.365-3.181 8.086-3.181 0 0-2.185 32.495 46.336 32.495 52.216 0 46.335-32.495 46.335-32.495 1.785 0 4.597 1.29 8.504 3.405-7.174 24.48-25.349 36.72-54.523 36.72-29.263 0-47.51-12.314-54.738-36.944z" fill="#f7ea0a"/><path d="M293 121.087c5.333-1.391 10.667-2.087 16-2.087s10.667.696 16 2.087v29.742a6 6 0 0 1-1.834 4.318C314.976 163.049 310.254 167 309 167c-1.254 0-5.976-3.951-14.166-11.853a6 6 0 0 1-1.834-4.318z" fill="#fff"/><path d="M295 122.913c4.667-1.275 9.333-1.913 14-1.913s9.333.638 14 1.913v28.364a3 3 0 0 1-.862 2.105C314.514 161.127 310.134 165 309 165c-1.134 0-5.514-3.873-13.138-11.618a3 3 0 0 1-.862-2.105z" fill="#f9e500"/><path d="M307 153l.001 10.877c-1.004-.767-2.338-1.927-4-3.48L303 153zm8 0v7.396c-1.663 1.554-2.997 2.714-4.001 3.481L311 153zm-16-31.024v34.557a354.654 354.654 0 0 1-3.138-3.151 3 3 0 0 1-.862-2.105v-28.364a55.519 55.519 0 0 1 4-.937zm24 .937v28.364a3 3 0 0 1-.862 2.105 354.7 354.7 0 0 1-3.137 3.15v-34.556a55.52 55.52 0 0 1 3.999.937z" fill="#0073bb"/><rect fill="#7eac5c" height="24" rx="2" width="12" x="303" y="125"/><path d="M413.584 238.323c-9.287 2.238-19.064 3.316-28.798 2.592-8.197-22.369-15.557-36.883-20.012-44.748v270.577s-21.102 6.71-55.867 11.11l-.544-.059c1.881-54.795 5.722-166.47 8.277-240.705 2.055-59.755 31.084-95.29 60.099-117.44-2.676 6.78-5.072 14.606-7 23.667 7.354 11.852 24.436 42.069 43.831 94.964l.014.042zM190.717 477.795c-34.248-4.401-56.477-11.05-56.477-11.05V196.171c-4.456 7.867-11.813 22.38-20.01 44.743-9.632.716-19.308-.332-28.51-2.523.005-.033.012-.065.02-.097 19.377-52.848 36.305-83.066 43.61-94.944-1.93-9.075-4.328-16.912-7.007-23.701 29.015 22.15 58.044 57.685 60.1 117.44 2.554 74.235 6.395 185.91 8.276 240.705z" fill="#000" fill-opacity=".1"/></g></svg>