<?xml version="1.0" encoding="UTF-8"?><svg width="500" height="500" xmlns="http://www.w3.org/2000/svg"><g fill="none" fill-rule="evenodd"><path d="M0 0h500v500H0z"/><path fill="#351E47" d="M203.0033 109.223h93.6432V21.928h-93.6432z"/><path fill="#402556" d="M202.8636 32.228h93.4586v-14.2h-93.4586z"/><path d="M87.5475 75.2585s-40.7627 72.8-58.5475 127.77c4.445 13.375 45.2077 40.86 85.2322 37.885 13.3398-36.4 24.4596-52 24.4596-52s2.9633-95.085-51.1443-113.655M411.4727 75.2585s40.7628 72.8 58.5475 127.77c-4.445 13.375-45.2077 40.86-85.2321 37.885-13.3399-36.4-24.4597-52-24.4597-52s-2.9633-95.085 51.1443-113.655" fill="#F2F2F2"/><path d="M249.5111 57.7025c-50.0817 0-47.7981-39.469-48.7426-39.14-7.5158 2.6187-24.1326 14.9368-52.4385 25.495-31.8729 11.885-52.626 19.315-60.7825 31.2 11.1149 8.915 46.6944 28.97 46.6944 120.345v271.14s49.6576 14.855 114.885 14.855c68.9291 0 115.6484-14.855 115.6484-14.855v-271.14c0-91.375 35.5795-111.43 46.6994-120.345-8.1566-11.885-28.9096-19.315-60.7825-31.2-28.3599-10.5767-44.9818-22.9194-52.478-25.5106-.9273-.3184 4.1773 39.1556-48.703 39.1556z" fill="#522F6D"/><path d="M75.0249 117.2983c10.132-20.75 17.9444-35.2452 17.9444-35.2452 7.8821-11.885 27.9368-19.315 58.747-31.2001 19.3491-7.4672 33.1025-15.792 42.0723-20.9527l-1.5928-7.1383c-9.2293 5.1266-23.5334 13.582-43.8718 21.166-31.8679 11.89-52.621 19.315-60.7725 31.2001 0 0-8.2313 14.76-18.8573 35.8252C49.557 149.1759 36.3257 179.8672 29 203.0272c.3 1.0583 1.0077 2.41 2.123 4.0553 1.1153 1.6453 2.0508 2.7774 2.8066 3.3964 8.3862-23.6844 22.0846-54.7446 41.0953-93.1806zM423.965 117.3222c-10.1321-20.75-17.9577-35.269-17.9577-35.269-7.8822-11.8851-27.9368-19.3151-58.747-31.2002-18.9662-7.3194-32.2699-15.4055-41.0455-20.5446l1.7248-6.88c9.2309 5.15 23.1742 13.2138 42.713 20.4996 31.8678 11.89 52.6209 19.315 60.7724 31.2001 0 0 8.2314 14.76 18.8574 35.8252 18.3887 36.3044 31.6346 66.9957 39.7378 92.0739-.4912 1.317-.9771 2.3461-1.4577 3.0877s-1.2755 1.8042-2.3847 3.1878c-18.4273-43.992-32.4983-74.652-42.2128-91.9805z" fill="#482663"/><path d="M307.8516 23.345c-5.772-3.24-9.728-5.345-12.0078-5.345 0 0 5.8817 32.495-46.3352 32.495-48.5202 0-46.3352-32.495-46.3352-32.495-2.2798 0-6.2358 2.105-12.0028 5.345 0 0 7.3683 40.38 58.4029 40.38 51.4785 0 58.2781-35.895 58.2781-40.38z" fill="#482663"/><g><path fill="#FFF" d="M302.28 164v-6L288 164v-36l14.28-6v6l13.44-6v6l14.28-6v36l-14.28 6v-6z"/><path fill="#511273" d="M289.68 130.2727l11.76-5.0909v30.5455l-11.76 5.0909z"/><path fill="#825998" d="M291.56 134l8-3v21l-8 3z"/><path fill="#511273" d="M303.12 130.2727l11.76-5.0909v30.5455l-11.76 5.0909zM316.56 130.2727l11.76-5.0909v30.5455l-11.76 5.0909z"/><path fill="#825998" d="M305.4 134l7.2-3v21l-7.2 3zM318.84 134l7.2-3v21l-7.2 3z"/></g><path d="M413.5843 238.3227c-9.2877 2.2382-19.0646 3.3161-28.7978 2.5926-8.1978-22.369-15.5572-36.883-20.0128-44.7484v270.5774s-21.1022 6.7098-55.8664 11.1104c-.1817-.0197-.363-.0396-.544-.0597 1.8808-54.795 5.7221-166.47 8.2763-240.705 2.0554-59.755 31.0847-95.29 60.099-117.44-2.6753 6.7806-5.0714 14.6063-6.9991 23.6673 7.354 11.8514 24.4358 42.0687 43.8307 94.964.005.014.0097.0277.014.0414zM190.7166 477.7953c-34.2478-4.4014-56.4763-11.051-56.4763-11.051V196.1721c-4.4558 7.8668-11.8138 22.3792-20.0097 44.7432-9.633.716-19.3087-.3323-28.5106-2.5238a1.113 1.113 0 0 1 .0199-.0967c19.3773-52.8475 36.3054-83.0661 43.6098-94.9437-1.929-9.0753-4.3277-16.912-7.0064-23.7011 29.0144 22.15 58.0437 57.685 60.099 117.44 2.5543 74.235 6.3956 185.91 8.2763 240.7053h-.002z" fill-opacity=".1" fill="#000"/></g></svg>