<svg xmlns="http://www.w3.org/2000/svg" width="501" height="501" fill="none"><path fill="#D9D9D9" fill-rule="evenodd" d="M203.36 110.2H297V22.9h-93.64v87.3Z" clip-rule="evenodd"/><path fill="#980301" fill-rule="evenodd" d="M203.22 33.2h93.46V19h-93.46v14.2Z" clip-rule="evenodd"/><path fill="#EDEDED" fill-rule="evenodd" d="M87.9 76.23S47.14 149.03 29.36 204c4.44 13.38 45.2 40.86 85.23 37.88 13.34-36.4 24.46-52 24.46-52S142 94.8 87.9 76.23Zm323.93 0s40.76 72.8 58.55 127.77c-4.45 13.38-45.21 40.86-85.24 37.88-13.33-36.4-24.45-52-24.45-52s-2.97-95.08 51.14-113.65Z" clip-rule="evenodd"/><path fill="#FE1C19" fill-rule="evenodd" d="M249.87 58.68c-50.08 0-47.8-39.47-48.75-39.14-7.51 2.61-24.13 14.93-52.43 25.49-31.88 11.89-52.63 19.32-60.79 31.2 11.12 8.92 46.7 28.97 46.7 120.34v271.14s49.66 14.86 114.88 14.86c68.93 0 115.65-14.86 115.65-14.86V196.58c0-91.38 35.58-111.43 46.7-120.35-8.15-11.88-28.9-19.31-60.78-31.2-28.36-10.58-44.98-22.92-52.48-25.5-.93-.33 4.18 39.15-48.7 39.15Z" clip-rule="evenodd"/><path fill="#FE1C19" fill-rule="evenodd" d="M114.18 95.4c7.26 9.2 12.4 20.36 16.06 31.74l-51.3 110.27a123.2 123.2 0 0 1-25.6-11.25l60.84-130.75Zm271.47 0 60.83 130.76a123.15 123.15 0 0 1-25.59 11.25l-51.3-110.27c3.65-11.38 8.8-22.54 16.06-31.73Z" clip-rule="evenodd"/><path fill="#EDEDED" fill-rule="evenodd" d="M265.36 57.34c15.49-2.94 23.66-10.3 28-17.75v440.97c-8.72.8-18.08 1.42-28 1.75V57.34Zm60-23.63a242.7 242.7 0 0 0 25.69 11.32l2.3.86v425a381.41 381.41 0 0 1-28 5.6V33.71ZM229.1 482.1a465.61 465.61 0 0 1-28-2.15V19.55l.01-.01c.8-.28-.67 27.2 27.99 36.27V482.1Zm-60-6.68a396.2 396.2 0 0 1-28-5.95V47.86l7.58-2.83a241.98 241.98 0 0 0 20.42-8.71v439.1Z" clip-rule="evenodd"/><path fill="#FE1C19" fill-rule="evenodd" d="M308.2 24.32c-5.76-3.24-9.72-5.35-12-5.35 0 0 5.88 32.5-46.33 32.5-48.53 0-46.34-32.5-46.34-32.5-2.28 0-6.24 2.1-12 5.35 0 0 7.37 40.38 58.4 40.38 51.48 0 58.28-35.9 58.28-40.38Z" clip-rule="evenodd"/><path fill="#FE1C19" d="m309.5 169.8 12.67-34.55h-25.32l12.66 34.55Z"/><path fill="#EDEDED" fill-rule="evenodd" d="m309.5 174.8 15.13-41.27h-30.24l15.12 41.26Zm0-5-12.65-34.55h25.32L309.5 169.8Z" clip-rule="evenodd"/><path fill="#EDEDED" d="m309.5 162.73 9.11-24.85h-18.2l9.1 24.85Z"/><path fill="#E33B26" d="M315.8 128.23c1.05-.95.36-2.15-1.54-2.66l-2.95-.8a7.26 7.26 0 0 0-3.6 0l-2.95.8c-1.9.5-2.6 1.71-1.54 2.66l2.43 2.18h7.72l2.42-2.18Z"/><path fill="#DBB446" fill-rule="evenodd" d="M304.86 132.46h9.3l3-2.7a3.5 3.5 0 0 0 1.11-1.85c.17-.8 0-1.57-.36-2.2a5 5 0 0 0-3.12-2.13l-2.94-.79a9.3 9.3 0 0 0-4.68 0l-2.94.8a5 5 0 0 0-3.12 2.12 3.1 3.1 0 0 0-.37 2.2c.17.78.61 1.4 1.12 1.85l3 2.7Zm9.4-6.9c1.9.52 2.59 1.72 1.53 2.67l-2.42 2.18h-7.72l-2.43-2.18c-1.05-.95-.36-2.15 1.54-2.67l2.94-.79c1.13-.3 2.49-.3 3.61 0l2.95.8Z" clip-rule="evenodd"/><path fill="#000" fill-opacity=".1" fill-rule="evenodd" d="M413.94 239.3a93.75 93.75 0 0 1-28.8 2.59c-8.2-22.37-15.56-36.88-20.01-44.75v270.58s-21.1 6.7-55.87 11.1l-.54-.05 8.28-240.7c2.05-59.76 31.08-95.3 60.1-117.45a148.49 148.49 0 0 0-7 23.67c7.35 11.85 24.43 42.07 43.83 94.96l.01.05ZM191.07 478.77c-34.25-4.4-56.47-11.05-56.47-11.05V197.14c-4.46 7.87-11.82 22.38-20.01 44.75a93.82 93.82 0 0 1-28.51-2.52c0-.04 0-.07.02-.1 19.37-52.85 36.3-83.07 43.6-94.95a148.63 148.63 0 0 0-7-23.7c29.01 22.15 58.04 57.69 60.1 117.44 2.55 74.24 6.4 185.91 8.27 240.7Z" clip-rule="evenodd"/></svg>