<?xml version="1.0" encoding="utf-8"?><svg width="500" height="500" viewBox="0 0 500 500" fill="none" xmlns="http://www.w3.org/2000/svg"><path fill-rule="evenodd" clip-rule="evenodd" d="M203.003 109.223h93.643V21.928h-93.643v87.295Z" fill="#CFCFCF"/><path fill-rule="evenodd" clip-rule="evenodd" d="M202.863 32.228h93.459v-14.2h-93.459v14.2Z" fill="#196B44"/><path fill-rule="evenodd" clip-rule="evenodd" d="M87.547 75.258S46.785 148.058 29 203.028c4.445 13.375 45.208 40.86 85.232 37.885 13.34-36.4 24.46-52 24.46-52s2.963-95.085-51.145-113.655Zm323.926 0s40.763 72.8 58.548 127.77c-4.445 13.375-45.208 40.86-85.233 37.885-13.339-36.4-24.459-52-24.459-52s-2.964-95.085 51.144-113.655Z" fill="#F2F2F2"/><path fill-rule="evenodd" clip-rule="evenodd" d="M249.511 57.703c-50.081 0-47.798-39.47-48.742-39.14-7.516 2.618-24.133 14.936-52.439 25.494-31.873 11.886-52.626 19.316-60.782 31.2 11.115 8.915 46.694 28.97 46.694 120.345v271.14s49.658 14.856 114.885 14.856c68.929 0 115.649-14.856 115.649-14.856v-271.14c0-91.375 35.579-111.43 46.699-120.345-8.157-11.885-28.91-19.315-60.782-31.2-28.36-10.576-44.982-22.919-52.479-25.508-.927-.32 4.178 39.154-48.703 39.154Z" fill="#F2F2F2"/><path fill-rule="evenodd" clip-rule="evenodd" d="M75.025 117.299c10.132-20.75 17.944-35.246 17.944-35.246 7.882-11.885 27.937-19.315 58.747-31.2 19.136-7.385 32.799-15.608 41.775-20.78l-2.144-6.838c-9.249 5.163-23.298 13.338-43.023 20.693-31.868 11.89-52.62 19.315-60.773 31.2 0 0-8.23 14.76-18.857 35.826 0 0-28.706 57.334-39.694 92.074 0 0 .45 1.587 2.123 4.055 1.673 2.468 2.807 3.396 2.807 3.396 12.579-35.526 41.095-93.18 41.095-93.18Zm348.939.023c-10.132-20.75-17.957-35.269-17.957-35.269-7.883-11.885-27.937-19.315-58.747-31.2-19.037-7.347-32.369-15.466-41.144-20.602l1.659-6.914c9.229 5.146 23.222 13.262 42.877 20.59 31.868 11.891 52.621 19.316 60.772 31.201 0 0 8.232 14.76 18.858 35.825 0 0 27.583 54.457 39.738 92.074 0 0-.737 1.976-1.458 3.088s-2.385 3.188-2.385 3.188c-27.641-65.988-42.213-91.981-42.213-91.981Z" fill="#289862"/><path fill-rule="evenodd" clip-rule="evenodd" d="M467.353 195.129a339.576 339.576 0 0 1 2.668 7.899c-4.445 13.375-45.208 40.86-85.232 37.885a423.236 423.236 0 0 0-2.836-7.519c20.795-1.358 37.993-5.637 51.595-12.837 13.428-7.109 24.696-15.585 33.805-25.428Zm-435.698.036c9.103 9.828 20.36 18.291 33.772 25.392 13.611 7.205 30.824 11.485 51.639 12.84a420.297 420.297 0 0 0-2.834 7.517c-40.024 2.975-80.787-24.51-85.232-37.885.836-2.585 1.723-5.21 2.655-7.864Z" fill="#F2F2F2"/><path fill-rule="evenodd" clip-rule="evenodd" d="M200.772 18.533c.686-.24-.33 20.499 18.227 31.881l.002 430.124c-22.215-1.502-41.479-4.416-56.003-7.183l.003-435.359c19.534-8.793 31.661-17.334 37.771-19.463Zm97.446-.016c6.198 2.142 18.633 10.95 38.783 19.915l.003 434.917c-14.19 2.751-33.278 5.649-56.001 7.16V50.555c19.069-11.353 16.539-32.27 17.215-32.038Z" fill="#289862"/><path fill-rule="evenodd" clip-rule="evenodd" d="M307.852 23.345C302.08 20.105 298.124 18 295.844 18c0 0 5.882 32.495-46.335 32.495-48.52 0-46.335-32.495-46.335-32.495-2.28 0-6.236 2.105-12.003 5.345 0 0 7.368 40.38 58.403 40.38 51.478 0 58.278-35.895 58.278-40.38Z" fill="#1F7B4F"/><path fill-rule="evenodd" clip-rule="evenodd" d="M413.584 238.323c-9.288 2.238-19.065 3.316-28.798 2.592-8.198-22.369-15.557-36.883-20.013-44.748v270.577s-21.102 6.71-55.866 11.111l-.544-.06c1.881-54.795 5.722-166.47 8.276-240.705 2.056-59.755 31.085-95.29 60.099-117.44-2.675 6.781-5.071 14.606-6.999 23.667 7.354 11.852 24.436 42.069 43.831 94.964l.014.042ZM190.716 477.795c-34.248-4.401-56.476-11.051-56.476-11.051V196.172c-4.456 7.867-11.814 22.379-20.01 44.743-9.633.716-19.308-.332-28.51-2.524a.82.82 0 0 1 .02-.096c19.377-52.848 36.305-83.066 43.609-94.944-1.928-9.075-4.327-16.912-7.006-23.701 29.014 22.15 58.044 57.685 60.099 117.44 2.554 74.235 6.396 185.91 8.276 240.705h-.002Z" fill="#000" fill-opacity=".1"/><path fill-rule="evenodd" clip-rule="evenodd" d="M288.906 121.5c5 0 12.071-3.5 20-3.5 7.93 0 15 3.5 20 3.5 6 21.763-2.568 37.784-20 46-17.431-8.216-26-24.237-20-46Z" fill="#3D3D3D"/><path fill-rule="evenodd" clip-rule="evenodd" d="M290.74 123.182c4.565 0 11.021-3.182 18.26-3.182 7.239 0 13.695 3.182 18.26 3.182 5.477 19.784-2.346 34.349-18.26 41.818-15.914-7.469-23.737-22.034-18.26-41.818Z" fill="#33C27D"/><path d="M297 153.758c-3.838-4.839-5.969-10.807-6-17.758h6v17.758Zm10 8.224c-2.203-1.2-4.21-2.567-6-4.094V136h6v25.982Zm10-4.094c-1.791 1.527-3.797 2.894-6 4.094V136h6v21.888ZM326.999 136c-.03 6.951-2.162 12.919-5.999 17.758V136h5.999Z" fill="#3D5FD5"/><path d="M327 136h-36c-.015-3.462.491-7.168 1.566-11.101 1.819 0 3.971-.568 6.369-1.201 3.021-.797 6.433-1.698 10.065-1.698 3.631 0 7.044.901 10.065 1.698 2.398.633 4.55 1.201 6.369 1.201 1.075 3.933 1.581 7.639 1.566 11.101Z" fill="#F2F2F2"/></svg>