<?xml version="1.0" encoding="UTF-8"?><svg width="500" height="500" viewBox="0 0 500 500" fill="none" xmlns="http://www.w3.org/2000/svg"><path fill-rule="evenodd" clip-rule="evenodd" d="M203.003 109.223h93.644V21.928h-93.644v87.295Z" fill="#D37139"/><path fill-rule="evenodd" clip-rule="evenodd" d="M202.864 32.228h93.458v-14.2h-93.458v14.2Z" fill="#DF8D60"/><path fill-rule="evenodd" clip-rule="evenodd" d="M87.547 75.258S46.785 148.058 29 203.029c4.445 13.375 45.208 40.86 85.232 37.885 13.34-36.4 24.46-52 24.46-52s2.963-95.085-51.145-113.655Zm323.925 0s40.763 72.8 58.548 127.77c-4.445 13.375-45.208 40.86-85.232 37.885-13.34-36.4-24.46-52-24.46-52s-2.963-95.085 51.144-113.655Z" fill="#E1783D"/><path fill-rule="evenodd" clip-rule="evenodd" d="M249.511 57.703c-50.082 0-47.798-39.47-48.743-39.14-7.516 2.618-24.132 14.936-52.438 25.494-31.873 11.886-52.626 19.316-60.783 31.2 11.115 8.915 46.695 28.97 46.695 120.345v271.14s49.657 14.856 114.885 14.856c68.929 0 115.648-14.856 115.648-14.856v-271.14c0-91.375 35.58-111.43 46.699-120.345-8.156-11.885-28.909-19.315-60.782-31.2-28.36-10.576-44.982-22.919-52.478-25.508-.927-.32 4.177 39.154-48.703 39.154Z" fill="#E1783D"/><path fill-rule="evenodd" clip-rule="evenodd" d="M467.461 195.302a338.05 338.05 0 0 1 2.668 7.9c-4.445 13.375-45.208 40.86-85.233 37.885a413.1 413.1 0 0 0-2.835-7.52c20.795-1.358 37.993-5.637 51.594-12.837 13.429-7.109 24.697-15.585 33.806-25.428Zm-435.806 0c9.103 9.828 20.36 18.291 33.772 25.392 13.611 7.205 30.824 11.485 51.639 12.84a423.042 423.042 0 0 0-2.834 7.516C74.208 244.025 33.445 216.54 29 203.165a339.518 339.518 0 0 1 2.655-7.863Z" fill="#F2F2F2"/><path fill-rule="evenodd" clip-rule="evenodd" d="M307.851 23.345c-5.772-3.24-9.728-5.345-12.007-5.345 0 0 5.881 32.495-46.336 32.495-48.52 0-46.335-32.495-46.335-32.495-2.28 0-6.236 2.105-12.003 5.345 0 0 7.369 40.38 58.403 40.38 51.479 0 58.278-35.895 58.278-40.38Z" fill="#F49967"/><path fill-rule="evenodd" clip-rule="evenodd" d="M413.584 238.323c-9.287 2.238-19.064 3.316-28.797 2.592-8.198-22.369-15.558-36.883-20.013-44.748v270.577s-21.102 6.71-55.866 11.111l-.544-.06c1.88-54.795 5.722-166.47 8.276-240.705 2.055-59.755 31.085-95.29 60.099-117.44-2.675 6.781-5.072 14.606-6.999 23.667 7.354 11.852 24.435 42.069 43.83 94.964l.014.042ZM190.717 477.795c-34.248-4.401-56.476-11.051-56.476-11.051V196.172c-4.456 7.867-11.814 22.379-20.01 44.743-9.633.716-19.309-.332-28.51-2.523a.557.557 0 0 1 .02-.097c19.376-52.848 36.305-83.066 43.609-94.944-1.929-9.075-4.328-16.912-7.006-23.701 29.014 22.15 58.043 57.685 60.099 117.44 2.554 74.235 6.395 185.91 8.276 240.705h-.002Z" fill="#000" fill-opacity=".06"/><path fill-rule="evenodd" clip-rule="evenodd" d="M309 151c11.046 0 20-6.268 20-14s-8.954-14-20-14-20 6.268-20 14 8.954 14 20 14Z" fill="#E39265"/><path fill-rule="evenodd" clip-rule="evenodd" d="M309 151c9.389 0 17-6.268 17-14s-7.611-14-17-14-17 6.268-17 14 7.611 14 17 14Z" fill="#F2F2F2"/><path fill-rule="evenodd" clip-rule="evenodd" d="M309 151c7.732 0 14-6.268 14-14s-6.268-14-14-14-14 6.268-14 14 6.268 14 14 14Z" fill="#DDCF4C"/><path d="m308.984 133.5-3.484 2.275 1.4 4.725h4.2l1.4-4.725-3.516-2.275Z" fill="#3D3D3D"/><path fill-rule="evenodd" clip-rule="evenodd" d="M309 151c7.732 0 14-6.268 14-14s-6.268-14-14-14-14 6.268-14 14 6.268 14 14 14Zm12.444-14c0 2.619-.809 5.049-2.19 7.054l-.679-1.892-2.979 1.421-1.438 2.996 1.93.651a12.39 12.39 0 0 1-7.088 2.214c-2.63 0-5.07-.816-7.08-2.208l1.922-.657-1.438-2.996-2.979-1.421-.662 1.916a12.39 12.39 0 0 1-2.207-7.078c0-.951.106-1.877.308-2.767l1.083 1.633 2.51-2.144.614-3.266-2.423-.365a12.45 12.45 0 0 1 8.204-5.351l-.963 2.316 3.135 1.102 3.111-1.102-.937-2.307a12.451 12.451 0 0 1 8.154 5.343l-2.773.364.613 3.266 2.51 2.144 1.44-1.605c.198.881.302 1.798.302 2.739Z" fill="#3D3D3D"/><path fill-rule="evenodd" clip-rule="evenodd" d="M332 137c0 8.868-9.787 16.15-21 16.931V158h6v4h-6v4h-4v-4h-6v-4h6v-4.069c-11.213-.781-21-8.063-21-16.931 0-9.389 10.85-17 23-17s23 7.611 23 17Zm-23 14c11.259 0 20-6.941 20-14s-8.741-14-20-14-20 6.941-20 14 8.741 14 20 14Z" fill="#653B23"/></svg>