<?xml version="1.0" encoding="UTF-8"?><svg width="500" height="500" viewBox="0 0 500 500" fill="none" xmlns="http://www.w3.org/2000/svg"><path fill-rule="evenodd" clip-rule="evenodd" d="M203.004 109.223h93.643V21.9282h-93.643v87.2948z" fill="#E0C227"/><path fill-rule="evenodd" clip-rule="evenodd" d="M202.863 32.2278h93.459v-14.2h-93.459v14.2z" fill="#B6A644"/><path fill-rule="evenodd" clip-rule="evenodd" d="M87.5475 75.2583S46.7848 148.058 29 203.028c4.4449 13.375 45.2077 40.86 85.232 37.885 13.34-36.4 24.46-52 24.46-52s2.963-95.0847-51.1445-113.6547zm323.9265 0s40.763 72.7997 58.547 127.7697c-4.444 13.375-45.207 40.86-85.232 37.885-13.339-36.4-24.459-52-24.459-52s-2.964-95.0847 51.144-113.6547z" fill="#F3D63F"/><path fill-rule="evenodd" clip-rule="evenodd" d="M249.51 57.7025c-50.081 0-47.798-39.4691-48.742-39.14-7.516 2.6187-24.133 14.9368-52.439 25.495-31.873 11.885-52.6256 19.315-60.7821 31.2 11.1148 8.915 46.6941 28.9695 46.6941 120.3445v271.14s49.658 14.856 114.885 14.856c68.929 0 115.649-14.856 115.649-14.856v-271.14c0-91.375 35.579-111.4295 46.699-120.3445-8.157-11.885-28.91-19.315-60.782-31.2-28.36-10.5767-44.982-22.9195-52.479-25.5087-.927-.3203 4.178 39.1537-48.703 39.1537z" fill="#F3D63F"/><path fill-rule="evenodd" clip-rule="evenodd" d="M364.763 190.554v87.529c-38.253-4.369-76.506-6.554-114.759-6.554-38.582 0-77.164 2.223-115.746 6.667v-87.529C172.84 186.222 211.422 184 250.004 184c38.253 0 76.506 2.185 114.759 6.554z" fill="#1A65AB"/><path fill-rule="evenodd" clip-rule="evenodd" d="M467.463 195.302c.936 2.666 1.827 5.303 2.667 7.899-4.445 13.375-45.208 40.86-85.232 37.885-.958-2.613-1.904-5.119-2.836-7.52 20.796-1.357 37.994-5.636 51.595-12.837 13.428-7.108 24.697-15.584 33.806-25.427zm-435.8083 0c9.1031 9.827 20.3606 18.291 33.7724 25.391 13.6109 7.206 30.8241 11.486 51.6389 12.84-.931 2.4-1.877 4.905-2.834 7.517-40.0243 2.975-80.7871-24.51-85.232-37.885.8363-2.585 1.7234-5.209 2.6547-7.863zM307.853 23.345c-5.772-3.24-9.728-5.345-12.008-5.345 0 0 5.882 32.495-46.335 32.495-48.52 0-46.335-32.495-46.335-32.495-2.28 0-6.236 2.105-12.003 5.345 0 0 7.368 40.38 58.403 40.38 51.478 0 58.278-35.895 58.278-40.38z" fill="#C1B14B"/><path fill-rule="evenodd" clip-rule="evenodd" d="M413.583 238.323c-9.288 2.238-19.065 3.316-28.798 2.592-8.198-22.369-15.557-36.883-20.013-44.748v270.577s-21.102 6.71-55.866 11.111l-.544-.06c1.881-54.795 5.722-166.47 8.276-240.705 2.056-59.755 31.085-95.29 60.099-117.44-2.675 6.781-5.071 14.606-6.999 23.667 7.354 11.852 24.436 42.069 43.831 94.964.005.014.01.028.014.042zM190.715 477.795c-34.247-4.401-56.476-11.051-56.476-11.051V196.172c-4.456 7.867-11.814 22.379-20.01 44.743-9.633.716-19.3084-.332-28.5102-2.524.005-.032.0117-.064.0198-.096 19.3774-52.848 36.3054-83.066 43.6094-94.944-1.928-9.075-4.327-16.912-7.006-23.701 29.014 22.15 58.044 57.685 60.099 117.44 2.554 74.235 6.396 185.91 8.276 240.705h-.002z" fill="#000" fill-opacity=".06"/><circle cx="310" cy="142" r="21" fill="#EACB2C"/><circle cx="310" cy="142" r="19" fill="#224E91"/><circle cx="310" cy="142" r="13" fill="#EACB2C"/><path d="M309.984 138.5l-3.484 2.275 1.4 4.725h4.2l1.4-4.725-3.516-2.275z" fill="#224E90"/><path fill-rule="evenodd" clip-rule="evenodd" d="M310 156c7.732 0 14-6.268 14-14s-6.268-14-14-14-14 6.268-14 14 6.268 14 14 14zm12.444-14c0 2.619-.809 5.049-2.19 7.054l-.679-1.892-2.979 1.421-1.438 2.996 1.93.651c-2.012 1.396-4.454 2.214-7.088 2.214-2.63 0-5.07-.816-7.08-2.208l1.922-.657-1.438-2.996-2.979-1.421-.662 1.916c-1.392-2.01-2.207-4.449-2.207-7.078 0-.951.106-1.877.308-2.767l1.083 1.633 2.51-2.144.614-3.266-2.423-.365c1.853-2.771 4.79-4.757 8.204-5.351l-.963 2.316 3.135 1.102 3.111-1.102-.937-2.307c3.393.605 6.31 2.585 8.154 5.343l-2.773.364.613 3.266 2.51 2.144 1.44-1.605c.198.881.302 1.798.302 2.739z" fill="#224E90"/><path d="M297.5 135l4.417 7.849 9.006-.099-4.588 7.75 4.588 7.75-9.006-.099L297.5 166l-4.417-7.849-9.006.099 4.588-7.75-4.588-7.75 9.006.099L297.5 135z" fill="#EACB2C"/><path d="M297.5 137l3.847 6.836 7.844-.086-3.996 6.75 3.996 6.75-7.844-.086-3.847 6.835-3.848-6.835-7.843.086 3.996-6.75-3.996-6.75 7.843.086L297.5 137z" fill="#224E90"/><path d="M297.501 140.64l2.81 4.993 5.729-.063-2.919 4.93 2.919 4.93-5.729-.063-2.81 4.993-2.81-4.993-5.729.063 2.918-4.93-2.918-4.93 5.729.063 2.81-4.993z" fill="#EACB2C"/><path d="M297.501 146.44l1.158 2.056 2.358-.026-1.201 2.03 1.201 2.03-2.358-.026-1.158 2.056-1.157-2.056-2.359.026 1.202-2.03-1.202-2.03 2.359.026 1.157-2.056z" fill="#898E5D"/></svg>