<?xml version="1.0" encoding="UTF-8"?><svg height="500" viewBox="0 0 500 500" width="500" xmlns="http://www.w3.org/2000/svg"><g fill="none" fill-rule="evenodd"><path d="M0 0h500v500H0z"/><path d="M203.006 109.193h93.643V21.898h-93.643z" fill="#121f3e"/><path d="M202.867 32.198h93.458v-14.2h-93.458z" fill="#b9241c"/><g fill="#203467"><path d="M87.55 75.26s-40.762 72.8-58.547 127.77c4.445 13.375 45.208 40.86 85.232 37.885 13.34-36.4 24.46-52 24.46-52S141.658 93.83 87.55 75.26M411.476 75.26s40.762 72.8 58.547 127.77c-4.445 13.375-45.208 40.86-85.232 37.885-13.34-36.4-24.46-52-24.46-52S357.368 93.83 411.476 75.26"/><path d="M249.514 57.706c-50.082 0-47.798-39.47-48.742-39.14-7.516 2.618-24.133 14.936-52.439 25.495-31.873 11.885-52.626 19.315-60.782 31.2 11.114 8.915 46.694 28.97 46.694 120.345v271.14S183.903 481.6 249.13 481.6c68.929 0 115.648-14.855 115.648-14.855v-271.14c0-91.375 35.58-111.43 46.7-120.345-8.157-11.885-28.91-19.315-60.783-31.2-28.36-10.577-44.982-22.92-52.478-25.511-.927-.318 4.177 39.156-48.703 39.156z"/></g><path d="M293.733 37.26c45.26 11.336 71.506 39.337 71.506 67.982v72.909c-.301 5.5-.46 11.3-.46 17.421v271.14s-46.72 14.855-115.649 14.855c-65.227 0-114.885-14.855-114.885-14.855v-271.14c0-6.261-.167-12.188-.482-17.799v-72.531c0-28.836 26.598-57.02 72.417-68.202 5.595 10.126 17.495 20.632 43.334 20.632 27.082 0 38.955-10.352 44.22-20.411z" fill="#1c2e5b"/><path d="M285.003 47.833v432.425c-3.256.244-6.59.46-10 .644V53.52c3.99-1.583 7.282-3.53 10-5.687zM269 55.47v425.717c-5.178.215-10.515.352-16 .396V57.645c6.136-.212 11.43-.985 16-2.174zm-22 2.2v423.923a441.79 441.79 0 0 1-16-.37V55.493c4.583 1.23 9.879 2.01 16 2.177zm-21.997-4.191v427.456a461.519 461.519 0 0 1-10-.654V47.626c2.743 2.221 6.038 4.227 10 5.854zm-46-6.827V476.14a467.92 467.92 0 0 1-4-.634V48.67c1.305-.69 2.638-1.363 4-2.017zm20 432.133V41.03h6v438.382a473.551 473.551 0 0 1-6-.626zm96 .617V41.03h6v437.757c-1.963.214-3.963.42-6 .616zm26-3.244V47.139c1.362.671 2.696 1.36 4 2.067v426.317a436.98 436.98 0 0 1-4 .636z" fill="#cf2920"/><path d="M249.576 63.752c51.479 0 58.279-35.895 58.279-40.38-5.772-3.24-9.728-5.345-12.008-5.345 0 0 5.881 32.495-46.335 32.495-48.52 0-46.336-32.495-46.336-32.495-2.28 0-6.235 2.105-12.002 5.345 0 0 7.368 40.38 58.402 40.38" fill="#1c2e5b"/><g><path d="M293.582 121.261l-1.1-3.171c5.499-2.06 11.005-3.09 16.517-3.09 5.513 0 11.026 1.03 16.539 3.09l-1.122 3.171.003 22.658c0 3.433-5.14 9.613-15.42 18.539-10.278-8.926-15.417-15.106-15.417-18.539z" stroke="#c0a576" stroke-width="4"/><path d="M291.573 121.598l-1.63-4.697 1.828-.684c5.72-2.143 11.462-3.217 17.219-3.217 5.755 0 11.505 1.074 17.238 3.216l1.84.688-1.661 4.7.003 22.315c0 4.284-5.325 10.685-16.11 20.049l-1.31 1.138-1.312-1.138c-10.781-9.364-16.105-15.765-16.105-20.049z" fill="#c0a576" fill-rule="nonzero"/><path d="M293.573 121.261l-1.1-3.171c5.498-2.06 11.004-3.09 16.517-3.09 5.512 0 11.025 1.03 16.538 3.09l-1.121 3.171.003 22.658c0 3.433-5.14 9.613-15.42 18.539-10.278-8.926-15.417-15.106-15.417-18.539z" fill="#3a4461"/><path d="M293.573 121.261l-1.1-3.171c5.498-2.06 11.004-3.09 16.517-3.09 5.512 0 11.025 1.03 16.538 3.09l-1.121 3.171.003 22.658c0 3.433-5.14 9.613-15.42 18.539-10.278-8.926-15.417-15.106-15.417-18.539z" fill="#3a4461"/><path d="M325.528 118.086v.031l-1.112 3.144.003 22.658c0 2.417-2.547 6.195-7.64 11.333l-.001-39.568a49.457 49.457 0 0 1 8.75 2.402zM308.999 115l.001 28.437h-7.778v-27.753a44.781 44.781 0 0 1 7.777-.684z" fill="#cf4a41"/><path d="M294.099 127.874l24.49 7.252 2.08 2.536c1.715 4.535 1.623 8.785-.273 12.75-2.55 3.226-6.185 7.088-10.906 11.588-10.261-9.78-15.391-16.551-15.391-20.313z" fill="#3a4461"/><g fill="#fff"><path d="M307.994 139.736l.057-2.057-7.048-1.679-.753 1.68h-1.942c1.945-6.296 5.509-10.135 10.692-11.518 5.185 1.403 9.075 5.239 11.67 11.507l-1.948.01-.667-1.679-8.002 1.68v2.12z"/><path d="M304.124 119.945c-.524 3.797-5.79 2.401-5.818 6.168.017 1.514.407 4.624 3.146 5.621 1.826.665 3.046-.24 3.66-2.717-2.545-1.054-3.314-2.413-2.306-4.078 1.511-2.497 1.867-3.037 1.318-4.994zM313.876 119.945c.524 3.797 5.79 2.401 5.818 6.168-.017 1.514-.407 4.624-3.146 5.621-1.826.665-3.046-.24-3.66-2.717 2.545-1.054 3.314-2.413 2.306-4.078-1.511-2.497-1.867-3.037-1.318-4.994z"/></g><path d="M290 160.552l1.824.403c5.737 1.268 11.465 1.9 17.186 1.9 5.72 0 11.442-.632 17.166-1.9l1.824-.403v9.721l-1.181.257a83.65 83.65 0 0 1-17.81 1.932 83.923 83.923 0 0 1-17.827-1.932l-1.182-.256z" fill="#c0a576" fill-rule="nonzero"/><path d="M291.5 162.42c5.843 1.29 11.68 1.936 17.51 1.936 5.83 0 11.66-.645 17.49-1.936v6.644c-5.824 1.266-11.654 1.898-17.49 1.898s-11.673-.632-17.51-1.898z" fill="#394360"/></g><path d="M413.584 238.323c-9.287 2.238-19.064 3.316-28.798 2.592-8.197-22.369-15.557-36.883-20.012-44.748v270.577s-21.102 6.71-55.867 11.11l-.544-.059c1.881-54.795 5.722-166.47 8.277-240.705 2.055-59.755 31.084-95.29 60.099-117.44-2.676 6.78-5.072 14.606-7 23.667 7.354 11.852 24.436 42.069 43.831 94.964l.014.042zM190.717 477.795c-34.248-4.401-56.477-11.05-56.477-11.05V196.171c-4.456 7.867-11.813 22.38-20.01 44.743-9.632.716-19.308-.332-28.51-2.523.005-.033.012-.065.02-.097 19.377-52.848 36.305-83.066 43.61-94.944-1.93-9.075-4.328-16.912-7.007-23.701 29.015 22.15 58.044 57.685 60.1 117.44 2.554 74.235 6.395 185.91 8.276 240.705z" fill="#000" fill-opacity=".1"/></g></svg>