<svg xmlns="http://www.w3.org/2000/svg" width="501" height="501" fill="none"><path fill="#919191" fill-rule="evenodd" d="M203.3 109.63h93.65v-87.3h-93.64v87.3Z" clip-rule="evenodd"/><path fill="#000A5C" fill-rule="evenodd" d="M203.17 32.63h93.46v-14.2h-93.46v14.2Z" clip-rule="evenodd"/><path fill="#F1F1F1" fill-rule="evenodd" d="M87.85 75.7S47.09 148.5 29.3 203.46c4.45 13.37 45.21 40.86 85.23 37.88 13.34-36.4 24.46-52 24.46-52s2.97-95.09-51.14-113.66Z" clip-rule="evenodd"/><path fill="#0563FE" fill-rule="evenodd" d="M411.78 75.7s40.76 72.8 58.54 127.77c-4.44 13.37-45.2 40.86-85.23 37.88-13.34-36.4-24.46-52-24.46-52s-2.96-95.09 51.15-113.66Z" clip-rule="evenodd"/><path fill="#0563FE" fill-rule="evenodd" d="M249.82 58.14c-50.08 0-47.8-39.47-48.75-39.14-7.51 2.62-24.13 14.94-52.43 25.5C116.76 56.38 96 63.8 87.85 75.7c11.12 8.91 46.7 28.97 46.7 120.34v271.14s49.66 14.86 114.88 14.86c68.93 0 115.65-14.86 115.65-14.86V196.04c0-91.37 35.58-111.43 46.7-120.34-8.16-11.89-28.9-19.32-60.78-31.2-28.36-10.58-44.98-22.92-52.48-25.51-.93-.32 4.18 39.15-48.7 39.15Z" clip-rule="evenodd"/><path fill="#0563FE" fill-rule="evenodd" d="M249.82 58.14c-50.08 0-47.8-39.47-48.75-39.14-7.51 2.62-24.13 14.94-52.43 25.5C116.76 56.38 96 63.8 87.85 75.7c11.12 8.91 46.7 28.97 46.7 120.34v271.14s49.66 14.86 114.88 14.86c68.93 0 115.65-14.86 115.65-14.86V196.04c0-91.37 35.58-111.43 46.7-120.34-8.16-11.89-28.9-19.32-60.78-31.2-28.36-10.58-44.98-22.92-52.48-25.51-.93-.32 4.18 39.15-48.7 39.15Z" clip-rule="evenodd"/><path fill="#F1F1F1" fill-rule="evenodd" d="M250.16 58.14v423.9h-.73c-65.22 0-114.88-14.86-114.88-14.86V196.04c0-85-30.8-108.29-44.04-118.3-.99-.75-1.88-1.42-2.66-2.04 7.9-11.5 27.56-18.82 57.67-30.04 1.02-.39 2.06-.77 3.12-1.16 18.29-6.83 31.7-14.39 40.93-19.59 5.05-2.84 8.84-4.98 11.5-5.91.12-.04.19.52.31 1.54.87 7.24 4.51 37.6 48.44 37.6h.34Z" clip-rule="evenodd"/><path fill="#0563FE" fill-rule="evenodd" d="M294.04 37.7c45.26 11.33 71.5 39.33 71.5 67.98v72.9a320 320 0 0 0-.46 17.43v271.14S318.36 482 249.43 482c-65.22 0-114.88-14.85-114.88-14.85V196c0-6.26-.17-12.2-.48-17.8v-72.53c0-28.84 26.6-57.02 72.41-68.2 5.6 10.12 17.5 20.63 43.34 20.63 27.08 0 38.95-10.36 44.22-20.41Z" clip-rule="evenodd"/><path fill="#F1F1F1" fill-rule="evenodd" d="M250.16 482c68.53-.1 114.92-14.85 114.92-14.85V196c0-6.12.16-11.92.46-17.42v-72.91c0-28.65-26.25-56.65-71.5-67.98-5.25 10.01-17.04 20.32-43.88 20.4V482Z" clip-rule="evenodd"/><path fill="#131313" fill-rule="evenodd" d="m201.95 27.21 1.73 3.21c-9.02 5.07-23.41 13.98-44.27 21.9-29.8 11.3-49.7 18.58-58.46 29.5a49.8 49.8 0 0 0-3.38-1.9c8.51-11.25 28.59-18.58 58.9-30.09 19.26-7.3 33.01-15.47 42.1-20.66v-.05c1.2-.7 2.33-1.33 3.38-1.91ZM90.88 77.04c8.01-11.9 28.4-19.32 59.71-31.2 19.26-7.32 33.01-15.48 42.1-20.67l-.01-.05.02-.01 1.74 3.23c-9.08 5.2-22.47 12.98-40.9 19.98-30.4 11.53-50.5 18.87-58.98 30.16-1.2-.52-2.42-1-3.68-1.45Zm207.92-49.4 2.62 1.48-.01.05c9.08 5.2 22.83 13.35 42.1 20.66 30.31 11.51 50.4 18.84 58.9 30.09a52.6 52.6 0 0 0-3.38 1.9c-8.76-10.92-28.66-18.2-58.46-29.5-19.87-7.55-33.88-15.99-42.95-21.15l-.4-.22 1.58-3.3Zm8.45-2.55.05.03-.01.05c9.08 5.2 22.84 13.35 42.1 20.66 31 11.77 51.29 19.17 59.46 30.85l.25.36c-1.26.44-2.49.92-3.68 1.44-8.48-11.29-28.58-18.63-58.97-30.16-17.94-6.81-31.1-14.36-40.16-19.55l-.45-.26 1.41-3.42Z" clip-rule="evenodd"/><path fill="#0563FE" fill-rule="evenodd" d="M249.88 64.19c51.48 0 58.28-35.9 58.28-40.38-5.77-3.24-9.73-5.35-12.01-5.35 0 0 5.88 32.5-46.33 32.5-48.53 0-46.34-32.5-46.34-32.5-2.28 0-6.24 2.1-12 5.35 0 0 7.37 40.38 58.4 40.38Z" clip-rule="evenodd"/><path fill="#0563FE" fill-rule="evenodd" d="M200.45 42.6a107.5 107.5 0 0 1 10.46-4.76c6.27 6.96 17.78 13.12 38.9 13.12 22.56 0 34.27-6.06 40.3-12.95 3.59 1.42 7.07 3.03 10.46 4.81-7.59 10.52-22.39 21.37-50.69 21.37-26.69 0-41.44-11.05-49.43-21.58Z" clip-rule="evenodd"/><path fill="#000" fill-opacity=".1" fill-rule="evenodd" d="M413.75 238.76a93.76 93.76 0 0 1-28.8 2.59c-8.2-22.37-15.56-36.88-20.01-44.75v270.58s-21.1 6.7-55.87 11.11l-.55-.06 8.28-240.7c2.06-59.76 31.08-95.3 60.1-117.45a148.59 148.59 0 0 0-7 23.67c7.35 11.85 24.44 42.07 43.83 94.97l.01.04ZM190.88 478.23c-34.25-4.4-56.48-11.05-56.48-11.05V196.6c-4.46 7.86-11.81 22.38-20 44.74a93.6 93.6 0 0 1-28.52-2.52l.02-.1c19.38-52.85 36.3-83.07 43.61-94.94a148.63 148.63 0 0 0-7-23.7c29 22.15 58.04 57.68 60.1 117.44l8.27 240.7Z" clip-rule="evenodd"/><path fill="#F2F2F2" fill-rule="evenodd" d="M309.53 167.4a22 22 0 1 0 0-44 22 22 0 0 0 0 44Z" clip-rule="evenodd"/><path fill="#00568E" fill-rule="evenodd" d="M309.53 165.54a20.14 20.14 0 1 0 0-40.27 20.14 20.14 0 0 0 0 40.27Z" clip-rule="evenodd"/><path fill="#F2F2F2" fill-rule="evenodd" d="M309.53 161.47a16.06 16.06 0 1 0 0-32.13 16.06 16.06 0 0 0 0 32.13Z" clip-rule="evenodd"/><path fill="#00568E" fill-rule="evenodd" d="M309.53 159.05a13.65 13.65 0 1 0 0-27.3 13.65 13.65 0 0 0 0 27.3Z" clip-rule="evenodd"/><path fill="#F2F2F2" fill-rule="evenodd" d="M309.53 154.95a9.55 9.55 0 1 0 0-19.1 9.55 9.55 0 0 0 0 19.1Z" clip-rule="evenodd"/><path fill="#B19968" d="m316.97 107.66 1.4 4.3h4.51l-3.65 2.65 1.4 4.29-3.66-2.66-3.65 2.66 1.4-4.3-3.65-2.65h4.5l1.4-4.29Zm-13.92 0 1.4 4.3h4.5l-3.65 2.65 1.4 4.29-3.65-2.66-3.65 2.66 1.4-4.3-3.66-2.65h4.51l1.4-4.29Z"/><path fill="#00568E" d="M304.98 140.66h9.49v9.49h-9.49z"/><path fill="#F1F1F1" d="M331.53 123.18v21.8h-21.8l21.8-21.8Z"/></svg>