<?xml version="1.0" encoding="UTF-8"?><svg height="500" viewBox="0 0 500 500" width="500" xmlns="http://www.w3.org/2000/svg"><g fill="none" fill-rule="evenodd"><path d="M0 0h500v500H0z"/><path d="M203.003 109.223h93.643V21.928h-93.643z" fill="#1d1d1d"/><path d="M202.864 32.228h93.458v-14.2h-93.458z" fill="#292929"/><g fill="#f2f2f2"><path d="M87.548 75.258S46.785 148.058 29 203.029c4.445 13.376 45.208 40.86 85.232 37.886 13.34-36.4 24.46-52 24.46-52s2.963-95.085-51.144-113.655M411.473 75.258s40.762 72.8 58.547 127.77c-4.445 13.376-45.208 40.86-85.232 37.886-13.34-36.4-24.46-52-24.46-52s-2.963-95.085 51.145-113.655"/><path d="M249.511 57.703c-50.082 0-47.798-39.47-48.742-39.14-7.516 2.618-24.133 14.936-52.439 25.495-31.873 11.885-52.626 19.315-60.782 31.2 11.114 8.915 46.694 28.97 46.694 120.345v271.14s49.658 14.855 114.885 14.855c68.929 0 115.648-14.855 115.648-14.855v-271.14c0-91.375 35.58-111.43 46.7-120.345-8.157-11.885-28.91-19.315-60.783-31.2-28.36-10.577-44.982-22.92-52.478-25.511-.927-.318 4.177 39.156-48.703 39.156z"/></g><path d="M280.013 51.152V174.15c24.323.174 52.79.541 85.399 1.1-.415 6.36-.637 13.134-.637 20.354v36.106c-32.368-.554-60.622-.917-84.762-1.09v249.985c-9.678.623-20.005.994-30.886.994a446.69 446.69 0 0 1-29.114-.963V230.614c-24.39.172-52.98.54-85.771 1.104v-36.115c0-7.218-.222-13.99-.636-20.348 33.032-.57 61.834-.941 86.407-1.113V51.047c6.925 3.967 16.428 6.656 29.498 6.656 13.677 0 23.475-2.641 30.502-6.55z" fill="#3d3d3d"/><path d="M307.852 23.345C302.08 20.105 298.124 18 295.844 18c0 0 5.881 32.495-46.335 32.495-48.52 0-46.336-32.495-46.336-32.495-2.28 0-6.235 2.105-12.002 5.345 0 0 7.368 40.38 58.402 40.38 51.479 0 58.279-35.895 58.279-40.38z" fill="#f2f2f2"/><g><path d="M292 121h34v21.112c0 9.353-5.667 16.983-17 22.888-11.333-5.906-17-13.535-17-22.888z" fill="#00348e"/><path d="M309 134.237V162c-9.788-5.1-14.682-11.69-14.682-19.767v-7.996z" fill="#fff"/><path d="M303 134.237V143h6v3h-6l-.002 12.226a28.414 28.414 0 0 1-3-2.648L300 146h-5.305a18.374 18.374 0 0 1-.362-3H300v-8.762z" fill="#231f20"/></g><path d="M413.584 238.323c-9.287 2.238-19.064 3.316-28.798 2.592-8.197-22.369-15.557-36.883-20.012-44.748v270.577s-21.102 6.71-55.867 11.11l-.544-.059c1.881-54.795 5.722-166.47 8.277-240.705 2.055-59.755 31.084-95.29 60.099-117.44-2.676 6.78-5.072 14.606-7 23.667 7.354 11.852 24.436 42.069 43.831 94.964l.014.042zM190.717 477.795c-34.248-4.401-56.477-11.05-56.477-11.05V196.171c-4.456 7.867-11.813 22.38-20.01 44.743-9.632.716-19.308-.332-28.51-2.523.005-.033.012-.065.02-.097 19.377-52.848 36.305-83.066 43.61-94.944-1.93-9.075-4.328-16.912-7.007-23.701 29.015 22.15 58.044 57.685 60.1 117.44 2.554 74.235 6.395 185.91 8.276 240.705z" fill="#000" fill-opacity=".06"/><path d="M309 134.237V162c9.788-5.1 14.682-11.69 14.682-19.767v-7.996z" fill="#c1ac22"/></g></svg>