<?xml version="1.0" encoding="UTF-8"?><svg height="500" viewBox="0 0 500 500" width="500" xmlns="http://www.w3.org/2000/svg"><g fill="none" fill-rule="evenodd"><path d="M0 0h500v500H0z"/><path d="M203.607 109.223h93.432V21.928h-93.432z" fill="#d9d9d9"/><path d="M203.468 32.228h93.248v-14.2h-93.248z" fill="#1f3140"/><g fill="#e33c27"><path d="M87.548 75.258S46.785 148.058 29 203.029c4.445 13.376 45.208 40.86 85.232 37.886 13.34-36.4 24.46-52 24.46-52s2.963-95.085-51.144-113.655M411.473 75.258s40.762 72.8 58.547 127.77c-4.445 13.376-45.208 40.86-85.232 37.886-13.34-36.4-24.46-52-24.46-52s-2.963-95.085 51.145-113.655"/><path d="M249.511 57.703c-50.082 0-47.798-39.47-48.742-39.14-7.516 2.618-24.133 14.936-52.439 25.495-31.873 11.885-52.626 19.315-60.782 31.2 11.114 8.915 46.694 28.97 46.694 120.345v271.14s49.658 14.855 114.885 14.855c68.929 0 115.648-14.855 115.648-14.855v-271.14c0-91.375 35.58-111.43 46.7-120.345-8.157-11.885-28.91-19.315-60.783-31.2-28.36-10.577-44.982-22.92-52.478-25.511-.927-.318 4.177 39.156-48.703 39.156z"/></g><path d="M467.353 195.129a338.826 338.826 0 0 1 2.667 7.9c-4.445 13.375-45.208 40.86-85.232 37.885a426.424 426.424 0 0 0-2.835-7.52c20.795-1.358 37.993-5.637 51.594-12.837 13.428-7.11 24.697-15.585 33.806-25.428zM31.655 195.165c9.103 9.828 20.36 18.291 33.772 25.392 13.611 7.205 30.824 11.485 51.64 12.84a426.42 426.42 0 0 0-2.835 7.517c-40.024 2.975-80.787-24.51-85.232-37.885.836-2.585 1.723-5.21 2.655-7.864z" fill="#213544"/><path d="M267.454 55.766c17.23-3.981 24.67-13.69 27.937-22.195v444.8c-8.678.84-18.02 1.503-27.937 1.88zm62.852-20.439a242.303 242.303 0 0 0 20.386 8.674l5.556 2.066v422.065c-5.897 1.498-14.7 3.523-25.942 5.504zM232.54 480.286a463.512 463.512 0 0 1-27.937-1.908V33.846c3.713 8.46 11.439 18.037 27.937 21.955zm-62.852-6.66c-10.991-1.918-19.836-3.875-25.942-5.355V45.706L148.33 44a242.862 242.862 0 0 0 21.358-9.144z" fill="#ffe847"/><path d="M308.22 23.345c-5.76-3.24-9.707-5.345-11.982-5.345 0 0 5.869 32.495-46.23 32.495-48.411 0-46.231-32.495-46.231-32.495-2.275 0-6.222 2.105-11.976 5.345 0 0 7.352 40.38 58.271 40.38 51.363 0 58.147-35.895 58.147-40.38z" fill="#213544"/><path d="M308.566 120.513c-7.016.923-12.117 1.013-15.232.3l-1.834-.419v1.882c0 15.358 5.472 29.603 16.375 42.684l1.154 1.385 1.152-1.387c10.866-13.081 16.319-27.33 16.319-42.7v-1.896l-1.845.436c-2.81.664-8.088.58-15.724-.288l-.183-.021z" fill="#d1b48e" fill-rule="nonzero"/><path d="M308.762 122c-7.179.945-12.433 1.037-15.762.276 0 14.997 5.342 28.905 16.027 41.724C319.676 151.18 325 137.267 325 122.258c-3.027.715-8.44.63-16.238-.258z" fill="#006086" fill-rule="nonzero"/><path d="M413.584 238.323c-9.287 2.238-19.064 3.316-28.798 2.592-8.197-22.369-15.557-36.883-20.012-44.748v270.577s-21.102 6.71-55.867 11.11l-.544-.059c1.881-54.795 5.722-166.47 8.277-240.705 2.055-59.755 31.084-95.29 60.099-117.44-2.676 6.78-5.072 14.606-7 23.667 7.354 11.852 24.436 42.069 43.831 94.964l.014.042zM190.717 477.795c-34.248-4.401-56.477-11.05-56.477-11.05V196.171c-4.456 7.867-11.813 22.38-20.01 44.743-9.632.716-19.308-.332-28.51-2.523.005-.033.012-.065.02-.097 19.377-52.848 36.305-83.066 43.61-94.944-1.93-9.075-4.328-16.912-7.007-23.701 29.015 22.15 58.044 57.685 60.1 117.44 2.554 74.235 6.395 185.91 8.276 240.705z" fill="#000" fill-opacity=".1"/></g></svg>