<?xml version="1.0" encoding="UTF-8"?><svg height="500" viewBox="0 0 500 500" width="500" xmlns="http://www.w3.org/2000/svg"><g fill="none" fill-rule="evenodd"><path d="M203.006 109.193h93.643V21.898h-93.643z" fill="#bfbfbf"/><path d="M202.867 32.198h93.458v-14.2h-93.458z" fill="#363636"/><path d="M87.55 75.26s-40.762 72.8-58.547 127.77c4.445 13.375 45.208 40.86 85.232 37.885 13.34-36.4 24.46-52 24.46-52S141.658 93.83 87.55 75.26M411.476 75.26s40.762 72.8 58.547 127.77c-4.445 13.375-45.208 40.86-85.232 37.885-13.34-36.4-24.46-52-24.46-52S357.368 93.83 411.476 75.26" fill="#3d3d3d"/><path d="M249.514 57.706c-50.082 0-47.798-39.47-48.742-39.14-7.516 2.618-24.133 14.936-52.439 25.495-31.873 11.885-52.626 19.315-60.782 31.2 11.114 8.915 46.694 28.97 46.694 120.345v271.14S183.903 481.6 249.13 481.6c68.929 0 115.648-14.855 115.648-14.855v-271.14c0-91.375 35.58-111.43 46.7-120.345-8.157-11.885-28.91-19.315-60.783-31.2-28.36-10.577-44.982-22.92-52.478-25.511-.927-.318 4.177 39.156-48.703 39.156z" fill="#3d3d3d"/><g fill="#f2f2f2"><path d="M162 38.444v434.72c-10.452-2.016-18.352-3.935-23-5.148V47.508c2.996-1.12 6.108-2.278 9.333-3.48A239.85 239.85 0 0 0 162 38.443zm50 6.424v435.143a473.937 473.937 0 0 1-25-2.74V25.72c6.196-3.478 10.73-6.128 13.772-7.19.584-.201-.068 14.844 11.228 26.338zm50 11.966v424.561c-4.196.112-8.488.173-12.87.173-4.108 0-8.154-.06-12.13-.17V56.736c3.759.604 7.916.937 12.514.937 4.584 0 8.732-.297 12.486-.839zm50-31.13v451.717a468.355 468.355 0 0 1-25 2.652V46.086c12.508-11.62 10.623-27.773 11.217-27.571 3.038 1.052 7.574 3.703 13.783 7.19zm48 21.793v420.59c-4.615 1.253-12.455 3.217-23 5.262V38.432a239.794 239.794 0 0 0 13.695 5.596c3.215 1.198 6.318 2.352 9.305 3.47zM467.461 195.302a338.826 338.826 0 0 1 2.668 7.9c-4.445 13.375-45.208 40.86-85.232 37.885a426.405 426.405 0 0 0-2.836-7.52c20.795-1.358 37.993-5.637 51.595-12.837 13.428-7.11 24.696-15.585 33.805-25.428zM31.655 195.302c9.103 9.828 20.36 18.291 33.772 25.392 13.611 7.205 30.824 11.485 51.64 12.84a426.42 426.42 0 0 0-2.835 7.516C74.208 244.025 33.445 216.54 29 203.165c.836-2.584 1.723-5.209 2.655-7.863z"/><path d="M68.717 110.836c10.64-21.092 18.83-35.72 18.83-35.72 8.157-11.885 28.91-19.315 60.783-31.2 28.008-10.447 44.571-22.617 52.198-25.41.186.63.31 3.354 1.13 7.093-7.518 3.04-23.336 14.847-49.942 25.114-30.81 11.885-50.865 19.315-58.747 31.2 0 0-7.812 14.495-17.944 35.245zM430.304 110.836l-6.308 6.322c-10.132-20.75-17.944-35.245-17.944-35.245-7.882-11.885-27.937-19.315-58.747-31.2C320.7 40.446 304.88 28.64 297.363 25.6c.82-3.739.945-6.462 1.13-7.092 7.627 2.792 24.19 14.962 52.198 25.409 31.873 11.885 52.626 19.315 60.783 31.2s8.19 14.628 18.83 35.72z"/></g><path d="M249.576 63.752c51.479 0 58.279-35.895 58.279-40.38-5.772-3.24-9.728-5.345-12.008-5.345 0 0 5.881 32.495-46.335 32.495-48.52 0-46.336-32.495-46.336-32.495-2.28 0-6.235 2.105-12.002 5.345 0 0 7.368 40.38 58.402 40.38" fill="#3d3d3d"/><path d="M291 121h36v42.022a3 3 0 0 1-2.953 3C314.016 166.179 309 167.172 309 169c0-1.829-5.016-2.821-15.047-2.978a3 3 0 0 1-2.953-3z" fill="#ffe600"/><path d="M293 123h32v39.261a2 2 0 0 1-1.977 2c-9.349.11-14.023 1.023-14.023 2.739 0-1.716-4.674-2.63-14.023-2.739a2 2 0 0 1-1.977-2z" fill="#000"/><path d="M293 133h3.5v31.287a140.36 140.36 0 0 0-1.523-.026 2 2 0 0 1-1.977-2zm10.688 31.744a55.009 55.009 0 0 0-3.75-.326V133h3.75zm7.187.695c-1.25.413-1.875.933-1.875 1.561 0-.628-.625-1.148-1.875-1.56V133h3.75zm7.188-1.02c-1.416.08-2.666.188-3.75.325V133h3.75zM325 133v29.261a2 2 0 0 1-1.977 2c-.522.006-1.03.015-1.523.026V133z" fill="#fff"/><path d="M413.584 238.323c-9.287 2.238-19.064 3.316-28.798 2.592-8.197-22.369-15.557-36.883-20.012-44.748v270.577s-21.102 6.71-55.867 11.11l-.544-.059c1.881-54.795 5.722-166.47 8.277-240.705 2.055-59.755 31.084-95.29 60.099-117.44-2.676 6.78-5.072 14.606-7 23.667 7.354 11.852 24.436 42.069 43.831 94.964l.014.042zM190.717 477.795c-34.248-4.401-56.477-11.05-56.477-11.05V196.171c-4.456 7.867-11.813 22.38-20.01 44.743-9.632.716-19.308-.332-28.51-2.523.005-.033.012-.065.02-.097 19.377-52.848 36.305-83.066 43.61-94.944-1.93-9.075-4.328-16.912-7.007-23.701 29.015 22.15 58.044 57.685 60.1 117.44 2.554 74.235 6.395 185.91 8.276 240.705z" fill="#000" fill-opacity=".1"/></g></svg>