<?xml version="1.0" encoding="UTF-8"?><svg width="500" height="500" viewBox="0 0 500 500" fill="none" xmlns="http://www.w3.org/2000/svg"><path fill-rule="evenodd" clip-rule="evenodd" d="M203.003 109.223h93.643V21.928h-93.643v87.295Z" fill="#D0D0D0"/><path fill-rule="evenodd" clip-rule="evenodd" d="M202.864 32.228h93.458v-14.2h-93.458v14.2Z" fill="#0F466B"/><path fill-rule="evenodd" clip-rule="evenodd" d="M87.547 75.258S46.785 148.058 29 203.029c4.445 13.375 45.208 40.86 85.232 37.885 13.34-36.4 24.46-52 24.46-52s2.963-95.085-51.145-113.655Zm323.926 0s40.762 72.8 58.547 127.77c-4.445 13.375-45.208 40.86-85.232 37.885-13.34-36.4-24.46-52-24.46-52s-2.963-95.085 51.145-113.655Z" fill="#F2F2F2"/><path fill-rule="evenodd" clip-rule="evenodd" d="M249.511 57.703c-50.082 0-47.798-39.47-48.742-39.14-7.516 2.618-24.133 14.936-52.439 25.494-31.873 11.886-52.626 19.316-60.783 31.2 11.115 8.915 46.695 28.97 46.695 120.345v271.14s49.658 14.856 114.885 14.856c68.929 0 115.648-14.856 115.648-14.856v-271.14c0-91.375 35.58-111.43 46.7-120.345-8.157-11.885-28.91-19.315-60.783-31.2-28.36-10.576-44.982-22.919-52.478-25.508-.927-.32 4.177 39.154-48.703 39.154Z" fill="#F2F2F2"/><path fill-rule="evenodd" clip-rule="evenodd" d="M283.752 480.343c-2.611.188-5.272.357-7.981.505V53.215c3.095-1.31 5.734-2.85 7.981-4.542v431.67ZM164.276 51.03a228.251 228.251 0 0 1-7.559 3.097v417.922c2.481.513 5.146 1.04 7.982 1.571V51.03h-.423Zm180.003 3.514a228.503 228.503 0 0 1-7.982-3.192v422.195a380.364 380.364 0 0 0 7.982-1.613V54.544ZM217.244 480.396c2.619.189 5.281.358 7.982.506V53.321c-3.071-1.313-5.711-2.863-7.982-4.57v431.645Z" fill="#145582"/><path fill-rule="evenodd" clip-rule="evenodd" d="M467.353 195.129a337.97 337.97 0 0 1 2.667 7.9c-4.445 13.375-45.207 40.86-85.232 37.885a428.49 428.49 0 0 0-2.835-7.52c20.795-1.358 37.993-5.637 51.594-12.837 13.428-7.109 24.697-15.585 33.806-25.428Zm-435.698.036c9.103 9.828 20.36 18.291 33.772 25.392 13.611 7.205 30.824 11.485 51.639 12.84a420.297 420.297 0 0 0-2.834 7.517c-40.024 2.975-80.787-24.51-85.232-37.885.836-2.585 1.723-5.21 2.655-7.864Z" fill="#F2F2F2"/><path fill-rule="evenodd" clip-rule="evenodd" d="M307.852 23.345C302.08 20.105 298.124 18 295.844 18c0 0 5.881 32.495-46.335 32.495-48.521 0-46.336-32.495-46.336-32.495-2.279 0-6.235 2.105-12.002 5.345 0 0 7.368 40.38 58.402 40.38 51.479 0 58.279-35.895 58.279-40.38Z" fill="#145582"/><path fill-rule="evenodd" clip-rule="evenodd" d="M413.584 238.323c-9.287 2.238-19.064 3.316-28.798 2.592-8.197-22.369-15.557-36.883-20.012-44.748v270.577s-21.102 6.71-55.867 11.111l-.544-.06c1.881-54.795 5.722-166.47 8.277-240.705 2.055-59.755 31.084-95.29 60.099-117.44-2.676 6.781-5.072 14.606-7 23.667 7.354 11.852 24.436 42.069 43.831 94.964l.014.042ZM190.717 477.795c-34.248-4.401-56.477-11.051-56.477-11.051V196.172c-4.456 7.867-11.813 22.379-20.009 44.743-9.633.716-19.31-.332-28.511-2.523a1.01 1.01 0 0 1 .02-.097c19.377-52.848 36.305-83.066 43.61-94.944-1.929-9.075-4.328-16.912-7.007-23.701 29.015 22.15 58.044 57.685 60.099 117.44 2.555 74.235 6.396 185.91 8.277 240.705h-.002Z" fill="#000" fill-opacity=".08"/><path fill-rule="evenodd" clip-rule="evenodd" d="M309 165c12.15 0 22-9.85 22-22s-9.85-22-22-22-22 9.85-22 22 9.85 22 22 22Z" fill="#F2F2F2"/><path fill-rule="evenodd" clip-rule="evenodd" d="M309 165c12.15 0 22-9.85 22-22s-9.85-22-22-22-22 9.85-22 22 9.85 22 22 22Z" fill="#E1BB57"/><path fill-rule="evenodd" clip-rule="evenodd" d="M309 163c11.046 0 20-8.954 20-20s-8.954-20-20-20-20 8.954-20 20 8.954 20 20 20Z" fill="#145582"/><path fill-rule="evenodd" clip-rule="evenodd" d="M309 160c9.389 0 17-7.611 17-17s-7.611-17-17-17-17 7.611-17 17 7.611 17 17 17Z" fill="#F2F2F2"/><path fill-rule="evenodd" clip-rule="evenodd" d="M309 160c9.389 0 17-7.611 17-17h-34c0 9.389 7.611 17 17 17Z" fill="#145581"/><path d="M306 159.736V145h-8v10.962a16.932 16.932 0 0 0 8 3.774Zm14-3.774a16.932 16.932 0 0 1-8 3.774V145h8v10.962Z" fill="#F2F2F2"/><path d="m309 110 1.123 3.455h3.632l-2.939 2.135 1.123 3.455L309 116.91l-2.939 2.135 1.123-3.455-2.939-2.135h3.632L309 110Z" fill="#E1BB57"/></svg>