<?xml version="1.0" encoding="UTF-8"?><svg width="500" height="500" viewBox="0 0 500 500" fill="none" xmlns="http://www.w3.org/2000/svg"><path fill-rule="evenodd" clip-rule="evenodd" d="M203.003 109.223h93.643V21.928h-93.643v87.295z" fill="#D9D9D9"/><path fill-rule="evenodd" clip-rule="evenodd" d="M202.864 32.228h93.458v-14.2h-93.458v14.2z" fill="#E0E0E0"/><path fill-rule="evenodd" clip-rule="evenodd" d="M87.5475 75.2585S46.7848 148.058 29 203.028c4.4449 13.375 45.2077 40.861 85.232 37.885 13.34-36.399 24.46-52 24.46-52s2.963-95.0845-51.1445-113.6545zm323.9255 0s40.763 72.7995 58.547 127.7695c-4.445 13.375-45.207 40.861-85.232 37.885-13.34-36.399-24.46-52-24.46-52s-2.963-95.0845 51.145-113.6545z" fill="#3C66D0"/><path fill-rule="evenodd" clip-rule="evenodd" d="M249.511 57.7025c-50.082 0-47.798-39.4691-48.743-39.14-7.515 2.6187-24.132 14.9368-52.438 25.495-31.873 11.885-52.626 19.315-60.7825 31.2 11.1148 8.915 46.6945 28.9705 46.6945 120.3455v271.14s49.657 14.855 114.885 14.855c68.929 0 115.648-14.855 115.648-14.855v-271.14c0-91.375 35.58-111.4305 46.7-120.3455-8.157-11.885-28.91-19.315-60.783-31.2-28.36-10.5767-44.982-22.9194-52.478-25.5087-.927-.3203 4.177 39.1537-48.703 39.1537z" fill="#3C66D0"/><path fill-rule="evenodd" clip-rule="evenodd" d="M167 36.1525V474.099c-9.044-1.638-16.499-3.273-22-4.587V45.2698c1.097-.4088 2.208-.8227 3.333-1.2421 6.906-2.5758 13.115-5.2563 18.667-7.8752zm45.997 9.6911V480.093c-7.76-.626-15.121-1.414-22-2.294V23.4701c4.197-2.3583 7.429-4.1202 9.775-4.9374.601-.2096-.106 15.7129 12.225 27.3109zm48 11.1285V481.421c-3.876.096-7.834.147-11.867.147-3.422 0-6.801-.041-10.133-.119V57.026c3.221.4196 6.718.6467 10.517.6467 4.179 0 7.996-.2466 11.483-.7006zm48-32.9583V477.812c-6.825.865-14.177 1.642-22 2.261V46.0887c12.511-11.6198 10.626-27.7758 11.22-27.5716 2.525.8727 6.085 2.8516 10.78 5.4967zm46 21.6169V469.388c-5.351 1.336-12.781 3.025-22 4.717V36.6078c5.303 2.4736 11.191 4.9932 17.698 7.4199 1.457.5433 2.891 1.0774 4.302 1.603z" fill="#F2F2F2"/><path fill-rule="evenodd" clip-rule="evenodd" d="M307.852 23.345C302.08 20.105 298.124 18 295.844 18c0 0 5.882 32.495-46.335 32.495-48.521 0-46.336-32.495-46.336-32.495-2.279 0-6.235 2.105-12.002 5.345 0 0 7.368 40.38 58.403 40.38 51.478 0 58.278-35.895 58.278-40.38zM467.35 195.13c.936 2.666 1.828 5.303 2.668 7.899-4.445 13.375-45.208 40.86-85.232 37.885-.958-2.613-1.904-5.119-2.836-7.519 20.795-1.358 37.993-5.637 51.595-12.837 13.428-7.109 24.696-15.585 33.805-25.428zm-435.6953.04c9.1031 9.827 20.3606 18.291 33.7724 25.391 13.6109 7.206 30.8241 11.486 51.6389 12.841-.931 2.399-1.877 4.904-2.834 7.516-40.0243 2.975-80.7871-24.51-85.232-37.885.8363-2.584 1.7234-5.209 2.6547-7.863z" fill="#F2F2F2"/><path fill-rule="evenodd" clip-rule="evenodd" d="M413.584 238.323c-9.287 2.238-19.064 3.316-28.798 2.592-8.197-22.369-15.557-36.883-20.012-44.748v270.577s-21.102 6.71-55.867 11.111l-.544-.06c1.881-54.795 5.722-166.47 8.277-240.705 2.055-59.755 31.084-95.29 60.099-117.44-2.676 6.781-5.072 14.606-7 23.667 7.354 11.852 24.436 42.069 43.831 94.964.005.014.01.028.014.042zM190.717 477.795c-34.248-4.401-56.477-11.051-56.477-11.051V196.172c-4.456 7.867-11.813 22.379-20.009 44.743-9.633.716-19.3091-.332-28.511-2.523a1.01 1.01 0 01.0199-.097c19.3771-52.848 36.3051-83.066 43.6101-94.944-1.929-9.075-4.328-16.912-7.007-23.701 29.015 22.15 58.044 57.685 60.099 117.44 2.555 74.235 6.396 185.91 8.277 240.705h-.002z" fill="#000" fill-opacity=".1"/><circle cx="309" cy="143" r="22" fill="#F2F2F2"/><path fill-rule="evenodd" clip-rule="evenodd" d="M295 128.167h28v5.797c0 17.506-14 26.869-14 26.869s-14-9.366-14-26.869v-5.797z" fill="#3F84C3"/><path fill-rule="evenodd" clip-rule="evenodd" d="M296.867 133.767H309v25.2s-12.133-8.296-12.133-23.799v-1.401z" fill="#BBD5EF"/><path fill="#BBD5EF" d="M296.867 130.033h24.2667v1.8667H296.867z"/><path d="M299.298 146.725a28.6862 28.6862 0 01-1.287-3.52l23.064-6.18a28.4977 28.4977 0 01-.542 4.01l-21.235 5.69z" fill="#F2F2F2"/></svg>