<?xml version="1.0" encoding="UTF-8"?><svg height="500" viewBox="0 0 500 500" width="500" xmlns="http://www.w3.org/2000/svg"><g fill="none" fill-rule="evenodd"><path d="M0 0h500v500H0z"/><path d="M203.006 109.193h93.643V21.898h-93.643z" fill="#a11b0d"/><path d="M202.867 32.198h93.458v-14.2h-93.458z" fill="#d39500"/><path d="M87.55 75.26s-40.762 72.8-58.547 127.77c4.445 13.375 45.208 40.86 85.232 37.885 13.34-36.4 24.46-52 24.46-52S141.658 93.83 87.55 75.26M411.476 75.26s40.762 72.8 58.547 127.77c-4.445 13.375-45.208 40.86-85.232 37.885-13.34-36.4-24.46-52-24.46-52S357.368 93.83 411.476 75.26" fill="#d72613"/><path d="M249.514 57.706c-50.082 0-47.798-39.47-48.742-39.14-7.516 2.618-24.133 14.936-52.439 25.495-31.873 11.885-52.626 19.315-60.782 31.2 11.114 8.915 46.694 28.97 46.694 120.345v271.14S183.903 481.6 249.13 481.6c68.929 0 115.648-14.855 115.648-14.855v-271.14c0-91.375 35.58-111.43 46.7-120.345-8.157-11.885-28.91-19.315-60.783-31.2-28.36-10.577-44.982-22.92-52.478-25.511-.927-.318 4.177 39.156-48.703 39.156z" fill="#d72613"/><g fill="#eba600"><path d="M170.746 474.792A421.073 421.073 0 0 1 156 471.834V49.543l34.921-16.513v444.79a470.6 470.6 0 0 1-20.175-3.028zm96.712-425.878v432.334c-5.913.225-12.029.35-18.331.35-5.655 0-11.192-.112-16.59-.316V48.886c4.824 1.02 10.438 1.609 16.972 1.609 6.966 0 12.898-.578 17.949-1.58zm76.463 423.057c-9.083 1.936-20.886 4.09-34.921 5.87V32.03l34.921 17.76z"/><path d="M203.964 27.775c-9.027 4.858-24.145 14.369-46.657 22.766-31.873 11.885-52.626 19.315-60.783 31.2s-11.078 19.785-24.203 46.514a53.573 53.573 0 0 1-3.11-2.24C82.39 99.163 93.534 79.26 93.534 79.26v-.001c8.157-11.885 28.91-19.315 60.782-31.2 19.604-7.313 33.6-15.469 42.85-20.663a4.492 4.492 0 0 1-.009-.05 189.62 189.62 0 0 1 5.058-2.769z"/><path d="M66.335 124.255a53.573 53.573 0 0 1-3.11-2.24C76.402 95.163 87.548 75.26 87.548 75.26v-.001c8.156-11.885 28.91-19.315 60.782-31.2 19.603-7.313 33.6-15.469 42.85-20.663a4.492 4.492 0 0 1-.01-.05l.02.045c4.102-2.303 7.27-4.023 9.579-4.828.177-.061.24 1.28.558 3.502-8.399 3.96-24.431 14.937-50.007 24.477-31.873 11.885-52.626 19.315-60.782 31.2S79.46 97.527 66.335 124.256zM297.334 29.027l1.76-3.22c.87.478 1.79.992 2.762 1.538l-.01.05c9.25 5.194 23.248 13.35 42.85 20.663 31.874 11.885 52.627 19.315 60.783 31.2s11.145 19.905 24.323 46.757a53.573 53.573 0 0 1-3.11 2.24c-13.125-26.729-24.203-46.513-24.203-46.513v-.001c-8.157-11.885-28.91-19.315-60.782-31.2-20.711-7.726-35.164-16.393-44.373-21.514z"/><path d="M432.679 124.255c-13.126-26.729-24.204-46.513-24.204-46.513v-.001c-8.156-11.885-28.91-19.315-60.782-31.2-25.575-9.54-41.608-20.517-50.007-24.477.318-2.221.381-3.563.559-3.502 2.242.782 5.295 2.427 9.227 4.63l.354.2.017-.047-.01.05c9.25 5.194 23.247 13.35 42.85 20.662 31.873 11.885 52.626 19.315 60.783 31.2v.001s11.145 19.905 24.322 46.757a53.573 53.573 0 0 1-3.11 2.24z"/><path d="M249.576 63.752c51.479 0 58.279-35.895 58.279-40.38-5.772-3.24-9.728-5.345-12.008-5.345 0 0 5.881 32.495-46.335 32.495-48.52 0-46.336-32.495-46.336-32.495-2.28 0-6.235 2.105-12.002 5.345 0 0 7.368 40.38 58.402 40.38"/></g><path d="M291 128v-7h36v7c0 16.56-6 28.893-18 37-12-8.11-18-20.443-18-37z" fill="#fff"/><path d="M293 129.364V129h16v34c-10.667-7.372-16-18.584-16-33.636z" fill="#ffbb01"/><path d="M325 129v.364c0 15.054-5.333 26.266-16 33.636v-34z" fill="#cd1a1a"/><path d="M293 123h32v6h-32z" fill="#2e9cdb"/><path d="M413.584 238.323c-9.287 2.238-19.064 3.316-28.798 2.592-8.197-22.369-15.557-36.883-20.012-44.748v270.577s-21.102 6.71-55.867 11.11l-.544-.059c1.881-54.795 5.722-166.47 8.277-240.705 2.055-59.755 31.084-95.29 60.099-117.44-2.676 6.78-5.072 14.606-7 23.667 7.354 11.852 24.436 42.069 43.831 94.964l.014.042zM190.717 477.795c-34.248-4.401-56.477-11.05-56.477-11.05V196.171c-4.456 7.867-11.813 22.38-20.01 44.743-9.632.716-19.308-.332-28.51-2.523.005-.033.012-.065.02-.097 19.377-52.848 36.305-83.066 43.61-94.944-1.93-9.075-4.328-16.912-7.007-23.701 29.015 22.15 58.044 57.685 60.1 117.44 2.554 74.235 6.395 185.91 8.276 240.705z" fill="#000" fill-opacity=".1"/></g></svg>