<?xml version="1.0" encoding="UTF-8"?><svg height="500" viewBox="0 0 500 500" width="500" xmlns="http://www.w3.org/2000/svg"><g fill="none" fill-rule="evenodd"><path d="M0 0h500v500H0z"/><path d="M203.006 109.193h93.643V21.898h-93.643z" fill="#bdb000"/><path d="M202.867 32.198h93.458v-14.2h-93.458z" fill="#1f2a3b"/><path d="M87.55 75.26s-40.762 72.8-58.547 127.77c4.445 13.375 45.208 40.86 85.232 37.885 13.34-36.4 24.46-52 24.46-52S141.658 93.83 87.55 75.26M411.476 75.26s40.762 72.8 58.547 127.77c-4.445 13.375-45.208 40.86-85.232 37.885-13.34-36.4-24.46-52-24.46-52S357.368 93.83 411.476 75.26" fill="#232f42"/><path d="M249.514 57.706c-50.082 0-47.798-39.47-48.742-39.14-7.516 2.618-24.133 14.936-52.439 25.495-31.873 11.885-52.626 19.315-60.782 31.2 11.114 8.915 46.694 28.97 46.694 120.345v271.14S183.903 481.6 249.13 481.6c68.929 0 115.648-14.855 115.648-14.855v-271.14c0-91.375 35.58-111.43 46.7-120.345-8.157-11.885-28.91-19.315-60.783-31.2-28.36-10.577-44.982-22.92-52.478-25.511-.927-.318 4.177 39.156-48.703 39.156z" fill="#f0df01"/><path d="M205.788 36.313c3.631 6.924 10.138 14.148 21.979 18.17-28.353 3.278-52.346 12.287-71.181 23.23l-.751.438-.002 28.001c-12.36 7.267-22.46 15.357-30.071 23.172-3.984-12.941-8.983-22.733-14.118-30.256 2.541-6.385 5.883-11.545 9.807-15.823a138.95 138.95 0 0 1 3.311-3.286c7.688-6.963 17.11-11.308 26.954-15.106 29.359-11.33 45.835-24.635 52.265-25.865-.118-.787-.22-1.51-.307-2.166l.461-.114 1.02-.246zm88.332.186c.614.147 1.225.297 1.834.45-.064.648-.152 1.373-.273 2.177 6.43 1.23 22.22 14.397 51.58 25.727 17.302 6.674 35.867 21.627 40.215 34.287l-.047-.136-.172.252c-5.084 7.48-10.025 17.195-13.975 29.993-8.062-8.264-18.907-16.831-32.26-24.405l-.001-28-.693-.39c-18.339-10.287-41.34-18.682-68.309-21.895 12.27-3.968 18.701-11.147 22.1-18.06z" fill="#f0df01"/><path d="M170.746 474.792A421.073 421.073 0 0 1 156 471.834V41.044c15.475-6.387 26.936-13.015 34.921-17.503v454.278a470.6 470.6 0 0 1-20.175-3.027zm96.712-425.878v432.334c-5.913.225-12.029.35-18.331.35-5.655 0-11.192-.112-16.59-.316V48.886c4.824 1.02 10.438 1.609 16.972 1.609 6.966 0 12.898-.578 17.949-1.58zm76.463-7.5v430.557c-9.083 1.936-20.886 4.09-34.921 5.87V24.047c8.096 4.561 19.566 11.102 34.921 17.367z" fill="#232f42"/><path d="M94.985 78.46c17.441 9.143 27.946 27.024 34.264 45.78L78.17 236.31c-19.702-6.152-36.377-17.061-44.418-25.983zM404.129 78.46l61.234 131.867c-8.039 8.92-24.706 19.824-44.4 25.978l-51.07-112.151c6.322-18.725 16.821-36.565 34.236-45.694z" fill="#f0df01"/><g fill="#232f42"><path d="M75.025 117.298c10.132-20.75 17.944-35.245 17.944-35.245 7.882-11.885 27.937-19.315 58.747-31.2 19.136-7.385 32.8-15.609 41.775-20.781l-2.144-6.837c-9.25 5.163-23.298 13.338-43.023 20.693-31.868 11.89-52.62 19.315-60.772 31.2 0 0-8.232 14.76-18.858 35.825C49.557 149.176 36.326 179.867 29 203.027c.3 1.058 1.008 2.41 2.123 4.056s2.05 2.777 2.807 3.396c8.386-23.684 22.084-54.745 41.095-93.18zM423.965 117.322c-10.132-20.75-17.958-35.269-17.958-35.269-7.882-11.885-27.936-19.315-58.747-31.2-19.036-7.347-32.368-15.466-41.143-20.602l1.659-6.914c9.23 5.146 23.222 13.262 42.877 20.591 31.867 11.89 52.62 19.315 60.772 31.2 0 0 8.231 14.76 18.857 35.825 18.39 36.305 31.635 66.996 39.738 92.074-.491 1.317-.977 2.346-1.457 3.088-.481.741-1.276 1.804-2.385 3.188-18.428-43.992-32.498-74.652-42.213-91.98z"/><path d="M467.461 195.302a338.826 338.826 0 0 1 2.668 7.9c-4.445 13.375-45.208 40.86-85.232 37.885a426.405 426.405 0 0 0-2.836-7.52c20.795-1.358 37.993-5.637 51.595-12.837 13.428-7.11 24.696-15.585 33.805-25.428zM31.655 195.302c9.103 9.828 20.36 18.291 33.772 25.392 13.611 7.205 30.824 11.485 51.64 12.84a426.42 426.42 0 0 0-2.835 7.516C74.208 244.025 33.445 216.54 29 203.165c.836-2.584 1.723-5.209 2.655-7.863zM249.576 63.752c51.479 0 58.279-35.895 58.279-40.38-5.772-3.24-9.728-5.345-12.008-5.345 0 0 5.881 32.495-46.335 32.495-48.52 0-46.336-32.495-46.336-32.495-2.28 0-6.235 2.105-12.002 5.345 0 0 7.368 40.38 58.402 40.38"/></g><circle cx="309" cy="143" fill="#232f42" r="23"/><circle cx="309" cy="143" fill="#fff" r="22"/><circle cx="309" cy="143" fill="#232f42" r="16"/><circle cx="309" cy="143" fill="#e5001a" r="15"/><path d="M296.323 135c7.118-2.333 11.344-4.667 12.677-7 1.333 2.333 5.565 4.667 12.695 7 0 7.66-4.232 15.327-12.695 23-8.451-7.673-12.677-15.34-12.677-23z" fill="#143863"/><path d="M321.695 135c0 2.666-.513 5.333-1.538 8h-22.299c-1.023-2.667-1.535-5.334-1.535-8z" fill="#ffef00"/><path d="M413.584 238.323c-9.287 2.238-19.064 3.316-28.798 2.592-8.197-22.369-15.557-36.883-20.012-44.748v270.577s-21.102 6.71-55.867 11.11l-.544-.059c1.881-54.795 5.722-166.47 8.277-240.705 2.055-59.755 31.084-95.29 60.099-117.44-2.676 6.78-5.072 14.606-7 23.667 7.354 11.852 24.436 42.069 43.831 94.964l.014.042zM190.717 477.795c-34.248-4.401-56.477-11.05-56.477-11.05V196.171c-4.456 7.867-11.813 22.38-20.01 44.743-9.632.716-19.308-.332-28.51-2.523.005-.033.012-.065.02-.097 19.377-52.848 36.305-83.066 43.61-94.944-1.93-9.075-4.328-16.912-7.007-23.701 29.015 22.15 58.044 57.685 60.1 117.44 2.554 74.235 6.395 185.91 8.276 240.705z" fill="#000" fill-opacity=".12"/></g></svg>