<?xml version="1.0" encoding="UTF-8"?><svg height="500" viewBox="0 0 500 500" width="500" xmlns="http://www.w3.org/2000/svg"><g fill="none" fill-rule="evenodd"><path d="m0 0h500v500h-500z"/><g transform="translate(29 18)"><path d="m174.003327 91.223h93.643138v-87.295h-93.643138z" fill="#144f9f"/><path d="m173.863643 14.228h93.458556v-14.2h-93.458556z" fill="#d9d9d9"/><g fill="#1758b2"><path d="m58.5475395 57.2585s-40.7627765 72.8-58.5475395 127.77c4.44494357 13.375 45.2077201 40.86 85.232167 37.885 13.3398195-36.4 24.459661-52 24.459661-52s2.963296-95.085-51.1442885-113.655"/><path d="m382.472677 57.2585s40.762777 72.8 58.54754 127.77c-4.444944 13.375-45.20772 40.86-85.232167 37.885-13.33982-36.4-24.459662-52-24.459662-52s-2.963295-95.085 51.144289-113.655"/><path d="m220.511106 39.7025c-50.081693 0-47.798103-39.4690913-48.742578-39.14001412-7.515856 2.61869932-24.132633 14.93680482-52.438505 25.49501412-31.8728898 11.885-52.6259372 19.315-60.7824835 31.2 11.1148533 8.915 46.6943565 28.97 46.6943565 120.345v271.14s49.657653 14.855 114.885079 14.855c68.929052 0 115.648352-14.855 115.648352-14.855v-271.14c0-91.375 35.579504-111.43 46.699346-120.345-8.156547-11.885-28.909594-19.315-60.782483-31.2-28.359862-10.5766915-44.981767-22.91944581-52.478053-25.51061549-.92727-.31834247 4.17733 39.15561549-48.703031 39.15561549z"/></g><path d="m438.352855 177.128935c.935913 2.666604 1.827272 5.302976 2.667362 7.899565-4.444944 13.375-45.20772 40.86-85.232167 37.885-.957672-2.613172-1.903902-5.119143-2.835397-7.519839 20.795122-1.357576 37.993275-5.636603 51.594459-12.83708 13.428196-7.108897 24.696777-15.584779 33.805743-25.427646z" fill="#f2f2f2"/><path d="m2.654704 177.165004c9.1031084 9.827506 20.3605579 18.291365 33.7723485 25.391577 13.6109756 7.20566 30.8241009 11.485663 51.6393758 12.840008-.931129 2.399805-1.876979 4.904801-2.8342613 7.516911-40.0244469 2.975-80.78722343-24.51-85.232167-37.885.83630141-2.584881 1.72341196-5.209187 2.654704-7.863496z" fill="#f2f2f2"/><path d="m278.851614 5.345c-5.771941-3.24-9.727991-5.345-12.007833-5.345 0 0 5.881693 32.495-46.335169 32.495-48.520226 0-46.33517-32.495-46.33517-32.495-2.279842 0-6.235891 2.105-12.002844 5.345 0 0 7.36833 40.38 58.402867 40.38 51.478533 0 58.278149-35.895 58.278149-40.38z" fill="#f2f2f2"/></g><path d="m413.584262 238.322716c-9.287652 2.238227-19.064555 3.316093-28.797794 2.592625-8.197787-22.369075-15.557191-36.882961-20.012723-44.748481v270.577481s-21.102202 6.709715-55.866442 11.110324c-.181695-.019644-.363009-.039532-.543932-.059665 1.880745-54.795 5.722054-166.47 8.276275-240.705 2.05535-59.755 31.084673-95.29 60.099029-117.44-2.675385 6.780625-5.071498 14.606324-6.999205 23.667254 7.354 11.851464 24.435794 42.068696 43.830742 94.964134.00496.013823.009643.027599.01405.041328zm-222.867617 239.47254c-34.247876-4.401312-56.476331-11.050915-56.476331-11.050915v-270.572197c-4.455834 7.866735-11.813778 22.379131-20.009729 44.743197-9.632964.716014-19.3086964-.33238-28.510585-2.523818.0050945-.032025.0117169-.064272.0198871-.096743 19.3773569-52.847461 36.3054119-83.066075 43.6098449-94.943632-1.928939-9.07531-4.327692-16.91207-7.006412-23.701148 29.014357 22.15 58.04368 57.685 60.099029 117.44 2.554222 74.235 6.395531 185.91 8.276276 240.705256z" fill="#000" fill-opacity=".1"/><path d="m309 167c12.702549 0 23-10.256749 23-22.909091v-25.090909h-46v25.090909c0 12.652342 10.297451 22.909091 23 22.909091z" fill="#fff"/><path d="m309 164v-42h-20v21.954545c0 11.070799 8.954305 20.045455 20 20.045455z" fill="#0168b3"/></g></svg>