<?xml version="1.0" encoding="UTF-8"?><svg height="500" viewBox="0 0 500 500" width="500" xmlns="http://www.w3.org/2000/svg"><g fill="none" fill-rule="evenodd"><path d="M0 0h500v500H0z"/><path d="M203.006 109.193h93.643V21.898h-93.643z" fill="#173879"/><path d="M202.867 32.198h93.458v-14.2h-93.458z" fill="#1d4695"/><g fill="#214fa6"><path d="M87.55 75.26s-40.762 72.8-58.547 127.77c4.445 13.375 45.208 40.86 85.232 37.885 13.34-36.4 24.46-52 24.46-52S141.658 93.83 87.55 75.26M411.476 75.26s40.762 72.8 58.547 127.77c-4.445 13.375-45.208 40.86-85.232 37.885-13.34-36.4-24.46-52-24.46-52S357.368 93.83 411.476 75.26"/><path d="M249.514 57.706c-50.082 0-47.798-39.47-48.742-39.14-7.516 2.618-24.133 14.936-52.439 25.495-31.873 11.885-52.626 19.315-60.782 31.2 11.114 8.915 46.694 28.97 46.694 120.345v271.14S183.903 481.6 249.13 481.6c68.929 0 115.648-14.855 115.648-14.855v-271.14c0-91.375 35.58-111.43 46.7-120.345-8.157-11.885-28.91-19.315-60.783-31.2-28.36-10.577-44.982-22.92-52.478-25.511-.927-.318 4.177 39.156-48.703 39.156z"/></g><path d="M167 36.152V474.1c-9.044-1.638-16.499-3.273-22-4.587V45.27l3.333-1.243A241.37 241.37 0 0 0 167 36.153zm45.997 9.691v434.25a473.207 473.207 0 0 1-22-2.294V23.47c4.197-2.358 7.429-4.12 9.775-4.94.6-.207-.106 15.715 12.225 27.313zm48 11.129V481.42a480.49 480.49 0 0 1-11.867.147c-3.422 0-6.801-.041-10.133-.119V57.026c3.22.42 6.718.646 10.517.646 4.18 0 7.996-.246 11.483-.7zm48-32.958v453.798a469.697 469.697 0 0 1-22 2.26V46.09c12.51-11.62 10.626-27.776 11.22-27.574 2.525.875 6.085 2.854 10.78 5.499zm46 21.617v423.757c-5.35 1.336-12.78 3.025-22 4.716V36.608a240.933 240.933 0 0 0 17.698 7.42l4.302 1.603z" fill="#f2f2f2"/><path d="M249.576 63.752c51.479 0 58.279-35.895 58.279-40.38-5.772-3.24-9.728-5.345-12.008-5.345 0 0 5.881 32.495-46.335 32.495-48.52 0-46.336-32.495-46.336-32.495-2.28 0-6.235 2.105-12.002 5.345 0 0 7.368 40.38 58.402 40.38" fill="#214fa6"/><g transform="translate(289 125.5)"><path d="M20 26l20-4.56C40 9.599 31.046 0 20 0S0 9.599 0 21.44z" fill="#f2f2f2"/><path d="M20 25l19-4.24C39 9.845 30.493 1 20 1S1 9.846 1 20.76z" fill="#1b50a8"/><path d="M20 35c0-3.648 13-2.86 13-15.18C33 12.74 27.18 7 20 7S7 12.74 7 19.82C7 32.142 20 31.358 20 35z" fill="#f2f2f2"/><path d="M20 34c0-3.388 12-2.656 12-14.096C32 13.33 26.627 8 20 8S8 13.33 8 19.904C8 31.346 20 30.618 20 34z" fill="#1b50a8"/><path d="M20 33c0-3.127 11-2.452 11-13.012-1.998 2.598-4.331 3.897-7 3.897S20.331 21.923 21 18h-2c.667 3.923-.333 5.885-3 5.885s-5-1.299-7-3.897C9 30.55 20 29.878 20 33z" fill="#fff"/><circle cx="20" cy="16" fill="#f2f2f2" r="5"/><circle cx="20" cy="16" fill="#d41e27" r="4"/></g><path d="M413.584 238.323c-9.287 2.238-19.064 3.316-28.798 2.592-8.197-22.369-15.557-36.883-20.012-44.748v270.577s-21.102 6.71-55.867 11.11l-.544-.059c1.881-54.795 5.722-166.47 8.277-240.705 2.055-59.755 31.084-95.29 60.099-117.44-2.676 6.78-5.072 14.606-7 23.667 7.354 11.852 24.436 42.069 43.831 94.964l.014.042zM190.717 477.795c-34.248-4.401-56.477-11.05-56.477-11.05V196.171c-4.456 7.867-11.813 22.38-20.01 44.743-9.632.716-19.308-.332-28.51-2.523.005-.033.012-.065.02-.097 19.377-52.848 36.305-83.066 43.61-94.944-1.93-9.075-4.328-16.912-7.007-23.701 29.015 22.15 58.044 57.685 60.1 117.44 2.554 74.235 6.395 185.91 8.276 240.705z" fill="#000" fill-opacity=".1"/></g></svg>