<?xml version="1.0" encoding="UTF-8"?><svg height="500" viewBox="0 0 500 500" width="500" xmlns="http://www.w3.org/2000/svg"><g fill="none" fill-rule="evenodd"><path d="M203.006 109.193h93.643V21.898h-93.643z" fill="silver"/><path d="M202.867 32.198h93.458v-14.2h-93.458z" fill="#1f4ea5"/><path d="M87.55 75.26s-40.762 72.8-58.547 127.77c4.445 13.375 45.208 40.86 85.232 37.885 13.34-36.4 24.46-52 24.46-52S141.658 93.83 87.55 75.26M411.476 75.26s40.762 72.8 58.547 127.77c-4.445 13.375-45.208 40.86-85.232 37.885-13.34-36.4-24.46-52-24.46-52S357.368 93.83 411.476 75.26" fill="#285ec1"/><path d="M249.514 57.706c-50.082 0-47.798-39.47-48.742-39.14-7.516 2.618-24.133 14.936-52.439 25.495-31.873 11.885-52.626 19.315-60.782 31.2 11.114 8.915 46.694 28.97 46.694 120.345v271.14S183.903 481.6 249.13 481.6c68.929 0 115.648-14.855 115.648-14.855v-271.14c0-91.375 35.58-111.43 46.7-120.345-8.157-11.885-28.91-19.315-60.783-31.2-28.36-10.577-44.982-22.92-52.478-25.511-.927-.318 4.177 39.156-48.703 39.156z" fill="#285ec1"/><path d="M158.003 40.179v432.195a374.542 374.542 0 0 1-16-3.593V46.387l6.33-2.36a239.153 239.153 0 0 0 9.67-3.848zM191 23.469v454.33a472.399 472.399 0 0 1-16-2.325V32.208c6.4-3.289 11.705-6.327 16-8.74zm33 29.553v427.826a464.836 464.836 0 0 1-16-1.185V39.998c3.362 4.924 8.4 9.686 16 13.024zm34 4.28v424.184c-2.913.053-5.87.082-8.87.082-2.398 0-4.776-.02-7.13-.06V57.354a85.32 85.32 0 0 0 7.514.32c3.013 0 5.838-.129 8.486-.37zm34-17.105V479.65c-5.12.46-10.46.855-16 1.166V53.079c7.766-3.296 12.767-8 16-12.882zm33-7.49v442.785a447.695 447.695 0 0 1-16 2.32V24.015c4.338 2.444 9.645 5.457 16 8.691zm33 14.043v421.87c-3.836 1.005-9.229 2.32-16 3.726V40.589a238.989 238.989 0 0 0 8.695 3.438c2.504.934 4.94 1.84 7.305 2.723z" fill="#2255b4"/><g fill="#f2f2f2"><path d="M467.461 195.302a338.826 338.826 0 0 1 2.668 7.9c-4.445 13.375-45.208 40.86-85.232 37.885a426.405 426.405 0 0 0-2.836-7.52c20.795-1.358 37.993-5.637 51.595-12.837 13.428-7.11 24.696-15.585 33.805-25.428zM31.655 195.302c9.103 9.828 20.36 18.291 33.772 25.392 13.611 7.205 30.824 11.485 51.64 12.84a426.42 426.42 0 0 0-2.835 7.516C74.208 244.025 33.445 216.54 29 203.165c.836-2.584 1.723-5.209 2.655-7.863zM174.404 32.4c6.756-3.393 12.314-6.526 16.77-9.028l2.137 6.63c-8.9 5.143-22.457 13.326-41.595 20.711-28.211 10.883-47.405 18.03-56.493 28.283l-7.61-3.976c8.202-11.83 28.93-19.251 60.717-31.104 10.156-3.789 18.808-7.803 26.074-11.516zM324.506 32.344c7.29 3.728 15.977 7.764 26.185 11.572C382.48 55.769 403.207 63.19 411.41 75.02l-7.494 4.107c-9.04-10.324-28.278-17.486-56.61-28.415-18.71-7.22-32.085-15.202-40.991-20.361l1.54-6.98c4.433 2.488 9.949 5.6 16.652 8.972z"/></g><path d="M249.576 63.752c51.479 0 58.279-35.895 58.279-40.38-5.772-3.24-9.728-5.345-12.008-5.345 0 0 5.881 32.495-46.335 32.495-48.52 0-46.336-32.495-46.336-32.495-2.28 0-6.235 2.105-12.002 5.345 0 0 7.368 40.38 58.402 40.38" fill="#2255b4"/><path d="M287 120.297c6.902-.865 14.235-1.297 22-1.297s15.098.432 22 1.297c0 22.487-7.333 38.054-22 46.703-14.667-8.649-22-24.216-22-46.703z" fill="#f9f9f9"/><path d="M288 121.243c6.588-.829 13.588-1.243 21-1.243s14.412.414 21 1.243c0 21.55-7 36.469-21 44.757-14-8.288-21-23.207-21-44.757z" fill="#0096dc"/><path d="M291 123.108c5.647-.739 11.647-1.108 18-1.108s12.353.37 18 1.108c0 19.207-6 32.505-18 39.892-12-7.387-18-20.685-18-39.892z" fill="#f9f9f9"/><circle cx="309" cy="121" fill="#0096dc" r="8"/><circle cx="309" cy="121" fill="#f9f9f9" r="7"/><path d="M284 123.5h50v12c-8.333 1.333-16.667 2-25 2s-16.667-.667-25-2z" fill="#0096dc"/><path d="M285 124.5h48v10c-8 1.395-16 2.092-24 2.092s-16-.697-24-2.092z" fill="#f9f9f9"/><path d="M413.584 238.323c-9.287 2.238-19.064 3.316-28.798 2.592-8.197-22.369-15.557-36.883-20.012-44.748v270.577s-21.102 6.71-55.867 11.11l-.544-.059c1.881-54.795 5.722-166.47 8.277-240.705 2.055-59.755 31.084-95.29 60.099-117.44-2.676 6.78-5.072 14.606-7 23.667 7.354 11.852 24.436 42.069 43.831 94.964l.014.042zM190.717 477.795c-34.248-4.401-56.477-11.05-56.477-11.05V196.171c-4.456 7.867-11.813 22.38-20.01 44.743-9.632.716-19.308-.332-28.51-2.523.005-.033.012-.065.02-.097 19.377-52.848 36.305-83.066 43.61-94.944-1.93-9.075-4.328-16.912-7.007-23.701 29.015 22.15 58.044 57.685 60.1 117.44 2.554 74.235 6.395 185.91 8.276 240.705z" fill="#000" fill-opacity=".1"/></g></svg>