<?xml version="1.0" encoding="UTF-8"?><svg height="500" viewBox="0 0 500 500" width="500" xmlns="http://www.w3.org/2000/svg"><g fill="none" fill-rule="evenodd"><path d="M0 0h500v500H0z"/><path d="M203.003 109.195h93.643V21.9h-93.643z" fill="#d2c700"/><path d="M202.864 32.2h93.458V18h-93.458z" fill="#ddd200"/><g fill="#fff200"><path d="M87.548 75.23S46.785 148.03 29 203c4.445 13.375 45.208 40.86 85.232 37.885 13.34-36.4 24.46-52 24.46-52S141.655 93.8 87.548 75.23M411.473 75.23s40.762 72.8 58.547 127.77c-4.445 13.375-45.208 40.86-85.232 37.885-13.34-36.4-24.46-52-24.46-52S357.365 93.8 411.473 75.23"/><path d="M249.511 57.675c-50.082 0-47.798-39.47-48.742-39.14-7.516 2.618-24.133 14.936-52.439 25.495-31.873 11.885-52.626 19.315-60.782 31.2 11.114 8.914 46.694 28.97 46.694 120.344v271.14S183.9 481.57 249.127 481.57c68.929 0 115.648-14.855 115.648-14.855v-271.14c0-91.375 35.58-111.43 46.7-120.345-8.157-11.884-28.91-19.314-60.783-31.2-28.36-10.576-44.982-22.919-52.478-25.51-.927-.318 4.177 39.156-48.703 39.156z"/><path d="M307.852 23.373c-5.772-3.24-9.728-5.345-12.008-5.345 0 0 5.881 32.495-46.335 32.495-48.52 0-46.336-32.495-46.336-32.495-2.28 0-6.235 2.106-12.002 5.346 0 0 7.368 40.38 58.402 40.38 51.479 0 58.279-35.895 58.279-40.38z"/></g><path d="M267.458 55.82v425.4c-5.913.225-12.029.35-18.331.35-5.655 0-11.192-.112-16.59-.316v-425.4c4.857 1.156 10.474 1.82 16.974 1.82 6.93 0 12.864-.677 17.947-1.855zm76.828 416.045c-9.052 1.94-20.858 4.107-34.921 5.902V36.869c8.344 4.68 19.83 10.898 34.92 16.632zm-153.657 5.889c-7.19-.925-13.85-1.95-19.883-2.99a420.597 420.597 0 0 1-15.038-3.022V53.145c15.223-5.857 26.692-12.152 34.921-16.77z" fill="#3d3d3d"/><circle cx="309" cy="143" fill="#ffe600" r="26"/><path d="M309 166c12.703 0 23-10.297 23-23s-10.297-23-23-23-23 10.297-23 23 10.297 23 23 23zm0-2c-11.598 0-21-9.402-21-21s9.402-21 21-21 21 9.402 21 21-9.402 21-21 21z" fill="#3d3d3d" fill-rule="nonzero"/><path d="M413.584 238.323c-9.287 2.238-19.064 3.316-28.798 2.592-8.197-22.369-15.557-36.883-20.012-44.748v270.577s-21.102 6.71-55.867 11.11l-.544-.059c1.881-54.795 5.722-166.47 8.277-240.705 2.055-59.755 31.084-95.29 60.099-117.44-2.676 6.78-5.072 14.606-7 23.667 7.354 11.852 24.436 42.069 43.831 94.964l.014.042zM190.717 477.795c-34.248-4.401-56.477-11.05-56.477-11.05V196.171c-4.456 7.867-11.813 22.38-20.01 44.743-9.632.716-19.308-.332-28.51-2.523.005-.033.012-.065.02-.097 19.377-52.848 36.305-83.066 43.61-94.944-1.93-9.075-4.328-16.912-7.007-23.701 29.015 22.15 58.044 57.685 60.1 117.44 2.554 74.235 6.395 185.91 8.276 240.705z" fill="#000" fill-opacity=".1"/></g></svg>