<?xml version="1.0" encoding="UTF-8"?><svg height="500" viewBox="0 0 500 500" width="500" xmlns="http://www.w3.org/2000/svg"><g fill="none" fill-rule="evenodd"><path d="M0 0h500v500H0z"/><path d="M203.006 109.193h93.643V21.898h-93.643z" fill="#1c3789"/><path d="M202.867 32.198h93.458v-14.2h-93.458z" fill="#1744a0"/><g fill="#2e54c6"><path d="M87.548 75.26S46.785 148.06 29 203.03c4.445 13.375 45.208 40.86 85.232 37.885 13.34-36.4 24.46-52 24.46-52S141.655 93.83 87.548 75.26M411.473 75.26s40.763 72.8 58.548 127.77c-4.445 13.375-45.208 40.86-85.232 37.885-13.34-36.4-24.46-52-24.46-52S357.366 93.83 411.473 75.26"/><path d="M249.514 57.706c-50.082 0-47.799-39.47-48.743-39.14-7.516 2.618-24.133 14.936-52.439 25.495-31.872 11.885-52.625 19.315-60.782 31.2 11.115 8.915 46.694 28.97 46.694 120.345v271.14S183.902 481.6 249.13 481.6c68.93 0 115.649-14.855 115.649-14.855v-271.14c0-91.375 35.58-111.43 46.7-120.345-8.157-11.885-28.91-19.315-60.783-31.2-28.36-10.577-44.982-22.92-52.478-25.511-.928-.318 4.177 39.156-48.703 39.156z"/></g><path d="M163.695 55.531c9.129-6.406 20.206-11.838 33.035-15.863l1.807 439.034a472.45 472.45 0 0 1-27.788-3.94c-2.459-.449-4.812-.9-7.054-1.347zm172.61.709v417.243c-9.588 1.842-21.354 3.738-34.921 5.23V39.388c13.681 4.199 25.399 9.987 34.92 16.852zm28.934 121.91c-.301 5.5-.46 11.301-.46 17.422v271.14s-2.63.837-7.564 2.113V78.139c5.267 8.603 8.024 17.82 8.024 27.103v72.909zm-231.476-.377v-72.531c0-8.679 2.41-17.298 7.026-25.413v388.648c-4.25-1.078-6.544-1.765-6.544-1.765v-271.14c0-6.261-.167-12.188-.482-17.799zm133.698 303.445c-5.913.225-12.029.35-18.331.35-5.655 0-11.192-.112-16.59-.316V58h34.92z" fill="#f2f2f2"/><path d="M249.576 63.752c51.479 0 58.279-35.895 58.279-40.38-5.772-3.24-9.728-5.345-12.008-5.345 0 0 5.881 32.495-46.335 32.495-48.52 0-46.336-32.495-46.336-32.495-2.28 0-6.235 2.105-12.002 5.345 0 0 7.368 40.38 58.402 40.38" fill="#1c4db2"/><g><path d="M329.119 143c0 6.252-4.443 12.03-11.655 15.155-7.212 3.127-16.097 3.127-23.31 0-7.211-3.126-11.654-8.903-11.654-15.155s4.443-12.03 11.655-15.155c7.212-3.127 16.097-3.127 23.31 0 7.211 3.126 11.654 8.903 11.654 15.155z" fill="#fff" fill-rule="nonzero"/><path d="M326.294 143c0 5.494-3.905 10.571-10.242 13.318-6.338 2.748-14.147 2.748-20.485 0-6.337-2.747-10.242-7.824-10.242-13.318s3.905-10.571 10.242-13.318c6.338-2.748 14.147-2.748 20.485 0 6.337 2.747 10.242 7.824 10.242 13.318z" fill="#008edd" fill-rule="nonzero"/><path d="M287.425 125.96c1.957 7.42 2.935 13.076 2.935 16.97s-.978 9.551-2.935 16.97l48-17.186z" fill="#fff"/></g><path d="M413.584 238.323c-9.287 2.238-19.064 3.316-28.798 2.592-8.197-22.369-15.557-36.883-20.012-44.748v270.577s-21.102 6.71-55.867 11.11l-.544-.059c1.881-54.795 5.722-166.47 8.277-240.705 2.055-59.755 31.084-95.29 60.099-117.44-2.676 6.78-5.072 14.606-7 23.667 7.354 11.852 24.436 42.069 43.831 94.964l.014.042zM190.717 477.795c-34.248-4.401-56.477-11.05-56.477-11.05V196.171c-4.456 7.867-11.813 22.38-20.01 44.743-9.632.716-19.308-.332-28.51-2.523.005-.033.012-.065.02-.097 19.377-52.848 36.305-83.066 43.61-94.944-1.93-9.075-4.328-16.912-7.007-23.701 29.015 22.15 58.044 57.685 60.1 117.44 2.554 74.235 6.395 185.91 8.276 240.705z" fill="#000" fill-opacity=".06"/></g></svg>