<?xml version="1.0" encoding="UTF-8"?><svg height="500" viewBox="0 0 500 500" width="500" xmlns="http://www.w3.org/2000/svg"><g fill="none" fill-rule="evenodd"><path d="M0 0h500v500H0z"/><path d="M244.65 109.193h52V21.898h-52z" fill="#9b9b9b"/><path d="M193.003 109.293h52V21.998h-52z" fill="#9f0000"/><path d="M202.867 32.198h93.458v-14.2h-93.458z" fill="#383838"/><path d="M87.55 75.26s-40.762 72.8-58.547 127.77c2.791 8.4 19.905 22.363 42.165 30.853 13.186 5.03 28.178 8.139 43.067 7.032 13.34-36.4 24.46-52 24.46-52s1.593-51.109-18.88-85.703c-7.45-12.592-17.826-22.997-32.264-27.952" fill="#f2f2f2"/><path d="M411.476 75.26s40.762 72.8 58.547 127.77c-4.445 13.375-45.208 40.86-85.232 37.885-13.34-36.4-24.46-52-24.46-52S357.368 93.83 411.476 75.26" fill="#d00"/><path d="M249.514 57.706c-50.082 0-47.798-39.47-48.742-39.14-7.516 2.618-24.133 14.936-52.439 25.495-31.873 11.885-52.626 19.315-60.782 31.2 11.114 8.915 46.694 28.97 46.694 120.345v271.14S183.903 481.6 249.13 481.6c68.929 0 115.648-14.855 115.648-14.855v-271.14c0-91.375 35.58-111.43 46.7-120.345-8.157-11.885-28.91-19.315-60.783-31.2-28.36-10.577-44.982-22.92-52.478-25.511-.927-.318 4.177 39.156-48.703 39.156z" fill="#f2f2f2"/><path d="M245 57.56v423.988c-63.182-.604-110.755-14.835-110.755-14.835v-271.14c0-91.375-35.58-111.43-46.694-120.345 8.156-11.885 28.91-19.315 60.782-31.2 28.306-10.559 44.923-22.877 52.439-25.498.915-.316-1.2 36.73 44.228 39.03z" fill="#d00"/><g fill="#3d3d3d"><path d="M405.703 79.66c-.955.748-1.962 1.56-3.011 2.445l-.203-.363v-.001c-8.157-11.885-28.91-19.315-60.782-31.2-20.711-7.726-35.164-16.393-44.373-21.514l1.76-3.22c.87.478 1.79.992 2.762 1.538l-.01.05c9.25 5.194 23.248 13.35 42.85 20.662 31.874 11.885 52.627 19.315 60.783 31.2v.001l.224.401zm2.678-2.056c-8.222-11.806-28.938-19.224-60.688-31.063-25.362-9.46-41.34-20.334-49.795-24.377.185-2.306.141-3.708.32-3.647 2.312.8 5.494 2.527 9.621 4.845l-.006.033c9.25 5.194 23.247 13.35 42.85 20.663 31.861 11.88 52.61 19.309 60.774 31.186-.883.707-1.918 1.483-3.076 2.36zM202.682 28.473c-9.149 5.031-23.897 14.056-45.375 22.068-31.873 11.885-52.626 19.315-60.783 31.2s-.067.122-.199.357a106.591 106.591 0 0 0-3.01-2.446l.219-.393v-.002c8.157-11.885 28.91-19.315 60.782-31.2 19.604-7.312 33.6-15.468 42.85-20.662a4.492 4.492 0 0 1-.009-.05 206.85 206.85 0 0 1 4.642-2.55c.223 1.126.51 2.363.883 3.678zM87.562 75.237c8.166-11.873 28.914-19.301 60.768-31.18 19.603-7.312 33.6-15.468 42.85-20.662a6.67 6.67 0 0 1-.005-.025c4.11-2.308 7.284-4.032 9.597-4.838.178-.062.24 1.292.562 3.529-8.397 3.957-24.431 14.937-50.014 24.48-31.744 11.837-52.458 19.255-60.683 31.056-1.158-.877-2.193-1.654-3.075-2.36zM467.461 195.302a338.826 338.826 0 0 1 2.668 7.9c-4.445 13.375-45.208 40.86-85.232 37.885a426.405 426.405 0 0 0-2.836-7.52c20.795-1.358 37.993-5.637 51.595-12.837 13.428-7.11 24.696-15.585 33.805-25.428zM31.655 195.302c9.103 9.828 20.36 18.291 33.772 25.392 13.611 7.205 30.824 11.485 51.64 12.84a426.42 426.42 0 0 0-2.835 7.516C74.208 244.025 33.445 216.54 29 203.165c.836-2.584 1.723-5.209 2.655-7.863z"/><path d="M249.576 63.752c51.479 0 58.279-35.895 58.279-40.38-5.772-3.24-9.728-5.345-12.008-5.345 0 0 5.881 32.495-46.335 32.495-48.52 0-46.336-32.495-46.336-32.495-2.28 0-6.235 2.105-12.002 5.345 0 0 7.368 40.38 58.402 40.38"/></g><circle cx="309" cy="143" fill="#b09b62" r="22"/><circle cx="309" cy="143" fill="#000" r="20"/><circle cx="309" cy="143" fill="#b09b62" r="15"/><circle cx="309" cy="143" fill="#fff" r="13"/><path d="M309 130v26c-7.18 0-13-5.82-13-13s5.82-13 13-13z" fill="#e30014"/><path d="M413.584 238.323c-9.287 2.238-19.064 3.316-28.798 2.592-8.197-22.369-15.557-36.883-20.012-44.748v270.577s-21.102 6.71-55.867 11.11l-.544-.059c1.881-54.795 5.722-166.47 8.277-240.705 2.055-59.755 31.084-95.29 60.099-117.44-2.676 6.78-5.072 14.606-7 23.667 7.354 11.852 24.436 42.069 43.831 94.964l.014.042zM190.717 477.795c-34.248-4.401-56.477-11.05-56.477-11.05V196.171c-4.456 7.867-11.813 22.38-20.01 44.743-9.632.716-19.308-.332-28.51-2.523.005-.033.012-.065.02-.097 19.377-52.848 36.305-83.066 43.61-94.944-1.93-9.075-4.328-16.912-7.007-23.701 29.015 22.15 58.044 57.685 60.1 117.44 2.554 74.235 6.395 185.91 8.276 240.705z" fill="#000" fill-opacity=".1"/></g></svg>