<?xml version="1.0" encoding="UTF-8"?><svg width="500" height="500" viewBox="0 0 500 500" fill="none" xmlns="http://www.w3.org/2000/svg"><path fill-rule="evenodd" clip-rule="evenodd" d="M203.003 109.223h93.643V21.9277h-93.643v87.2953z" fill="#083471"/><path fill-rule="evenodd" clip-rule="evenodd" d="M202.864 31.2278h93.458v-13.2h-93.458v13.2z" fill="#303030"/><path fill-rule="evenodd" clip-rule="evenodd" d="M87.5475 75.2583S46.7848 148.058 29 203.028c4.4449 13.375 45.2077 40.86 85.232 37.885 13.34-36.4 24.46-52 24.46-52s2.963-95.0847-51.1445-113.6547zm323.9255 0s40.762 72.7997 58.547 127.7697c-4.445 13.375-45.208 40.86-85.232 37.885-13.34-36.4-24.46-52-24.46-52s-2.963-95.0847 51.145-113.6547z" fill="#074FB3"/><path fill-rule="evenodd" clip-rule="evenodd" d="M249.511 57.7025c-50.082 0-47.798-39.4691-48.742-39.14-7.516 2.6187-24.133 14.9368-52.439 25.495-31.873 11.885-52.6259 19.315-60.7825 31.2 11.1149 8.915 46.6945 28.9695 46.6945 120.3445v271.14s49.658 14.856 114.885 14.856c68.929 0 115.648-14.856 115.648-14.856v-271.14c0-91.375 35.58-111.4295 46.7-120.3445-8.157-11.885-28.91-19.315-60.783-31.2-28.36-10.5767-44.982-22.9195-52.478-25.5087-.927-.3203 4.177 39.1537-48.703 39.1537z" fill="#074FB3"/><path fill-rule="evenodd" clip-rule="evenodd" d="M202.867 32.1978h93.458v-7h-93.458v7z" fill="#E0E0E0"/><path fill-rule="evenodd" clip-rule="evenodd" d="M470.02 203.028c-4.445 13.375-45.207 40.86-85.232 37.885-.958-2.613-1.904-5.119-2.835-7.52 20.794-1.357 37.993-5.636 51.594-12.837 13.428-7.108 24.697-15.584 33.806-25.427.936 2.667 1.827 5.303 2.667 7.899zM65.4271 220.556c13.611 7.206 30.8243 11.486 51.6399 12.84-.932 2.4-1.878 4.905-2.835 7.517-40.0243 2.975-80.7871-24.51-85.232-37.885.8362-2.584 1.7233-5.208 2.6545-7.862 9.1035 9.827 20.3609 18.29 33.7726 25.39zM307.852 23.3449c-3.236-1.8165-5.902-3.2762-8.021-4.2082-1.66-.7305 1.959 36.1764-50.258 36.1764-48.52 0-49.588-36.6125-52.045-35.3974-1.802.8909-3.918 2.0585-6.357 3.4292 0 0 7.368 40.38 58.402 40.38 51.479 0 58.279-35.895 58.279-40.38z" fill="#F1F1F1"/><path fill-rule="evenodd" clip-rule="evenodd" d="M195.09 21.2076c3.689-1.9818 6.365-3.1812 8.086-3.1812 0 0-2.185 32.495 46.336 32.495 52.216 0 46.335-32.495 46.335-32.495 1.785 0 4.597 1.2903 8.504 3.4054-7.174 24.4804-25.349 36.7206-54.523 36.7206-29.263 0-47.509-12.3149-54.738-36.9448z" fill="#3D3D3D"/><path fill-rule="evenodd" clip-rule="evenodd" d="M309 165c12.15 0 22-9.85 22-22s-9.85-22-22-22-22 9.85-22 22 9.85 22 22 22z" fill="#fff"/><path fill-rule="evenodd" clip-rule="evenodd" d="M309 163c11.046 0 20-8.954 20-20s-8.954-20-20-20-20 8.954-20 20 8.954 20 20 20z" fill="#8E9DCD"/><path fill-rule="evenodd" clip-rule="evenodd" d="M309 157c7.732 0 14-6.268 14-14s-6.268-14-14-14-14 6.268-14 14 6.268 14 14 14z" fill="#fff"/><path fill-rule="evenodd" clip-rule="evenodd" d="M297.003 135.798s5.368 2.487 12.003 4.325S323 143 323 143s-8.3 3.303-13.965 4.874c-5.666 1.572-12.032 2.338-12.032 2.338s1-3.603 1-7.207c0-3.604-1-7.207-1-7.207z" fill="#4A4853"/><path fill-rule="evenodd" clip-rule="evenodd" d="M413.584 238.323c-9.287 2.238-19.064 3.316-28.798 2.592-8.197-22.369-15.557-36.883-20.012-44.748v270.577s-21.102 6.71-55.867 11.111l-.544-.06c1.881-54.795 5.722-166.47 8.277-240.705 2.055-59.755 31.084-95.29 60.099-117.44-2.676 6.781-5.072 14.606-7 23.667 7.354 11.852 24.436 42.069 43.831 94.964.005.014.01.028.014.042zM190.717 477.795c-34.248-4.401-56.477-11.051-56.477-11.051V196.172c-4.456 7.867-11.813 22.379-20.009 44.743-9.633.716-19.3091-.332-28.511-2.524a1.056 1.056 0 01.0199-.096c19.3771-52.848 36.3051-83.066 43.6101-94.944-1.929-9.075-4.328-16.912-7.007-23.701 29.015 22.15 58.044 57.685 60.099 117.44 2.555 74.235 6.396 185.91 8.277 240.705h-.002z" fill="#000" fill-opacity=".1"/></svg>