<?xml version="1.0" encoding="UTF-8"?><svg width="500" height="500" viewBox="0 0 500 500" fill="none" xmlns="http://www.w3.org/2000/svg"><path fill-rule="evenodd" clip-rule="evenodd" d="M203.003 109.223h93.644V21.928h-93.644v87.295Z" fill="#B53636"/><path fill-rule="evenodd" clip-rule="evenodd" d="M202.864 32.228h93.458v-14.2h-93.458v14.2Z" fill="#2F2F2F"/><path fill-rule="evenodd" clip-rule="evenodd" d="M87.547 75.258S46.785 148.058 29 203.029c4.445 13.375 45.208 40.86 85.232 37.885 13.34-36.4 24.46-52 24.46-52s2.963-95.085-51.145-113.655Zm323.926 0s40.763 72.8 58.548 127.77c-4.445 13.375-45.208 40.86-85.233 37.885-13.339-36.4-24.459-52-24.459-52s-2.964-95.085 51.144-113.655Z" fill="#3D3D3D"/><path fill-rule="evenodd" clip-rule="evenodd" d="M249.511 57.703c-50.082 0-47.798-39.47-48.743-39.14-7.516 2.618-24.132 14.936-52.438 25.494-31.873 11.886-52.626 19.316-60.783 31.2 11.115 8.915 46.695 28.97 46.695 120.345v271.14s49.657 14.856 114.885 14.856c68.929 0 115.648-14.856 115.648-14.856v-271.14c0-91.375 35.58-111.43 46.699-120.345-8.156-11.885-28.909-19.315-60.782-31.2-28.36-10.576-44.982-22.919-52.478-25.508-.927-.32 4.177 39.154-48.703 39.154Z" fill="#D04545"/><path fill-rule="evenodd" clip-rule="evenodd" d="M265.462 56.271c15.676-3.094 23.748-10.752 27.937-18.367V479.55a479.774 479.774 0 0 1-27.937 1.767V56.271Zm58.867-23.88c7.325 3.753 16.071 7.824 26.363 11.663l1.574.586v425.442c-6.829 1.636-16.283 3.656-27.937 5.545V32.391ZM234.532 481.35a460.4 460.4 0 0 1-27.937-1.79V37.804c4.477 7.684 12.681 15.435 27.937 18.512v425.033Zm-58.867-5.74c-11.439-1.846-20.935-3.816-27.936-5.43V44.28l.601-.225c10.751-4.01 19.815-8.274 27.335-12.164V475.61Z" fill="#3D3D3D"/><path fill-rule="evenodd" clip-rule="evenodd" d="M307.851 23.345c-5.772-3.24-9.728-5.345-12.007-5.345 0 0 5.881 32.495-46.336 32.495-48.52 0-46.335-32.495-46.335-32.495-2.28 0-6.236 2.105-12.003 5.345 0 0 7.369 40.38 58.403 40.38 51.479 0 58.278-35.895 58.278-40.38Z" fill="#3D3D3D"/><path fill-rule="evenodd" clip-rule="evenodd" d="M413.584 238.323c-9.287 2.238-19.064 3.316-28.797 2.592-8.198-22.369-15.558-36.883-20.013-44.748v270.577s-21.102 6.71-55.866 11.111l-.544-.06c1.88-54.795 5.722-166.47 8.276-240.705 2.055-59.755 31.085-95.29 60.099-117.44-2.675 6.781-5.072 14.606-6.999 23.667 7.354 11.852 24.435 42.069 43.83 94.964l.014.042ZM190.717 477.795c-34.248-4.401-56.476-11.051-56.476-11.051V196.172c-4.456 7.867-11.814 22.379-20.01 44.743-9.633.716-19.309-.332-28.51-2.523a1.01 1.01 0 0 1 .02-.097c19.376-52.848 36.305-83.066 43.609-94.944-1.929-9.075-4.328-16.912-7.006-23.701 29.014 22.15 58.043 57.685 60.099 117.44 2.554 74.235 6.395 185.91 8.276 240.705h-.002Z" fill="#000" fill-opacity=".1"/><path d="M309 122.488c-2.833 0-4.733.959-7 2.888L297.1 122l-4.533 4.823c1.7.965 4.374 2.765 4.533 4.824.23 1.568-.569 3.136-1.598 5.157-1.505 2.953-3.502 5.793-3.502 12.093 0 7.614 6.128 10.256 11.129 11.532 2.603.664 4.901 1.25 5.871 2.571.97-1.321 3.268-1.907 5.871-2.571 5.001-1.276 11.129-3.918 11.129-11.532 0-6.3-1.997-9.14-3.502-12.093-1.029-2.021-1.728-4.236-1.498-5.804-3.4-4.824-5-5.624-5-5.624-2.267-1.929-4.167-2.888-7-2.888Z" fill="#F4DC8A"/><path d="M309 124c-2.5 0-5 1.306-7 3.047L297.5 124l-3 2.921c2.5.974 3.86 3.834 4 5.785.203 1.415-.502 2.83-1.41 4.653-1.328 2.665-3.09 5.229-3.09 10.914 0 6.871 5.407 9.255 9.82 10.407 2.297.599 4.324 1.128 5.18 2.32.856-1.192 2.883-1.721 5.18-2.32 4.413-1.152 9.82-3.536 9.82-10.407 0-5.685-1.762-8.249-3.09-10.914-.908-1.823-1.613-3.238-1.41-4.653l-3.5-5.659c-2-1.741-4.5-3.047-7-3.047Z" fill="#B55"/><path d="M318 157.342V144h-3v14.453a20.5 20.5 0 0 0 3-1.111Zm-5 1.65V144h-3v16.123c.782-.47 1.829-.809 3-1.131Zm-5 1.131V144h-3v14.992c1.171.322 2.218.661 3 1.131Zm-5-1.67V144h-3v13.342a20.5 20.5 0 0 0 3 1.111Z" fill="#3D3D3D"/><path fill="#F4DC8A" d="m321.197 121.155 4.97 5.134-18.679 18.084-4.97-5.134z"/><path d="m294.012 147.473 10.756-10.413 3.253 6.798-11.474 11.107c-1.522-1.559-2.547-3.7-2.547-6.692 0-.274.004-.54.012-.8Z" fill="#F4DC8A"/><path fill="#B55" d="m321.25 122.802 3.273 3.381-17.14 16.593-3.273-3.38z"/><path d="M295.754 154.035c-.941-1.273-1.58-2.867-1.724-4.881l22.294-21.583 2.534 4.097-23.104 22.367Z" fill="#B55"/><circle cx="309" cy="141" r="10" fill="#F4DC8A"/><circle cx="309" cy="141" r="8" fill="#B55"/></svg>