<?xml version="1.0" encoding="UTF-8"?><svg width="500" height="500" viewBox="0 0 500 500" xmlns="http://www.w3.org/2000/svg"><g fill="none" fill-rule="evenodd"><path d="M0 0h500v500H0z"/><path fill="#D9D9D9" d="M203.0033 109.223h93.6432V21.928h-93.6432z"/><path fill="#E0E0E0" d="M202.8636 32.228h93.4586v-14.2h-93.4586z"/><path d="M29 203.0285c4.445 13.375 45.2077 40.86 85.2322 37.885 13.3398-36.4 24.4596-52 24.4596-52s2.9633-95.085-51.1443-113.655c0 0-40.7627 72.8-58.5475 127.77zm382.4727-127.77s40.7628 72.8 58.5475 127.77c-4.445 13.375-45.2077 40.86-85.2321 37.885-13.3399-36.4-24.4597-52-24.4597-52s-2.9633-95.085 51.1443-113.655" fill="#90CBEB"/><path d="M249.5111 57.7025c-50.0817 0-47.7981-39.469-48.7426-39.14-7.5158 2.6187-24.1326 14.9368-52.4385 25.495-31.8729 11.885-52.626 19.315-60.7825 31.2 11.1149 8.915 46.6944 28.97 46.6944 120.345v271.14s49.6576 14.855 114.885 14.855c68.9291 0 115.6484-14.855 115.6484-14.855v-271.14c0-91.375 35.5795-111.43 46.6994-120.345-8.1566-11.885-28.9096-19.315-60.7825-31.2-28.3599-10.5767-44.9818-22.9194-52.478-25.5106-.9273-.3184 4.1773 39.1556-48.703 39.1556z" fill="#F2F2F2"/><path d="M265.462 56.2747c15.6759-3.0936 23.7476-10.752 27.9368-18.3668v441.6444a478.6964 478.6964 0 01-27.9368 1.7674V56.2747zm58.8668-23.8797c7.3251 3.7531 16.0713 7.8241 26.3634 11.6625l1.5734.5865v425.4413c-6.8286 1.6362-16.2825 3.6563-27.9368 5.5452V32.395zM234.532 481.353c-9.8-.3265-19.1557-.961-27.9368-1.79V37.8077c4.4764 7.684 12.6806 15.4346 27.9368 18.512v425.0332zm-58.8668-5.7402c-11.4395-1.8463-20.9355-3.8164-27.9368-5.4298V44.282l.6016-.2244c10.7506-4.01 19.815-8.2739 27.3352-12.1638v443.719z" fill="#90CBEB"/><path d="M113.8233 94.4358c7.2586 9.1949 12.4092 20.354 16.0612 31.735L78.5807 236.4383c-9.4127-2.9015-18.1464-6.8947-25.5934-11.249l60.836-130.7535zm271.4674 0l60.836 130.7535c-7.447 4.3543-16.1807 8.3475-25.5933 11.249l-51.3039-110.2675c3.652-11.381 8.8026-22.5401 16.0612-31.735z" fill="#F2F2F2"/><path d="M307.8516 23.345c-5.772-3.24-9.728-5.345-12.0078-5.345 0 0 5.8817 32.495-46.3352 32.495-48.5202 0-46.3352-32.495-46.3352-32.495-2.2798 0-6.2358 2.105-12.0028 5.345 0 0 7.3683 40.38 58.4029 40.38 51.4785 0 58.2781-35.895 58.2781-40.38z" fill="#F1F1F1"/><path d="M413.5843 238.3227c-9.2877 2.2382-19.0646 3.3161-28.7978 2.5926-8.1978-22.369-15.5572-36.883-20.0128-44.7484v270.5774s-21.1022 6.7098-55.8664 11.1104c-.1817-.0197-.363-.0396-.544-.0597 1.8808-54.795 5.7221-166.47 8.2763-240.705 2.0554-59.755 31.0847-95.29 60.099-117.44-2.6753 6.7806-5.0714 14.6063-6.9991 23.6673 7.354 11.8514 24.4358 42.0687 43.8307 94.964.005.014.0097.0277.014.0414zM190.7166 477.7953c-34.2478-4.4014-56.4763-11.051-56.4763-11.051V196.1721c-4.4558 7.8668-11.8138 22.3792-20.0097 44.7432-9.633.716-19.3087-.3323-28.5106-2.5238a1.113 1.113 0 01.0199-.0967c19.3773-52.8475 36.3054-83.0661 43.6098-94.9437-1.929-9.0753-4.3277-16.912-7.0064-23.7011 29.0144 22.15 58.0437 57.685 60.099 117.44 2.5543 74.235 6.3956 185.91 8.2763 240.7053h-.002z" fill-opacity=".08" fill="#000"/><path d="M290 117.5h38v38.8934c0 2.539-1.903 4.675-4.425 4.9669-8.5056.9845-13.364 3.1978-14.575 6.6397-1.211-3.442-6.0694-5.6552-14.575-6.6397-2.522-.292-4.425-2.4279-4.425-4.9669V117.5z" fill="#3D3D3D"/><path d="M292 119.5h34v36.3355c0 2.038-1.5322 3.7502-3.5577 3.9755-7.859.8743-12.3398 2.7707-13.4423 5.689-1.1025-2.9183-5.5832-4.8147-13.4423-5.689-2.0255-.2253-3.5577-1.9375-3.5577-3.9755V119.5z" fill="#009EDD"/><path fill="#FFF" opacity=".7" d="M295 122.5h28v5h-28z"/><path d="M311.25 130.5l.0006 30.5497c-1.138.703-1.8882 1.5197-2.2506 2.4503-.3623-.9303-1.1122-1.7469-2.2496-2.4497L306.75 130.5h4.5zm-8.75 0l.0012 28.8662c-1.3096-.3424-2.8097-.6289-4.5004-.8595L298 130.5h4.5zm17.5 0l-.0006 28.0067c-1.6903.2305-3.1901.517-4.4996.8592L315.5 130.5h4.5z" fill="#FFF"/></g></svg>