<?xml version="1.0" encoding="UTF-8"?><svg width="500" height="500" viewBox="0 0 500 500" xmlns="http://www.w3.org/2000/svg"><g fill="none" fill-rule="evenodd"><path d="M0 0h500v500H0z"/><path fill="#B12727" d="M203.0033 109.223h93.6432V21.928h-93.6432z"/><path fill="#393939" d="M202.8636 32.228h93.4586v-14.2h-93.4586z"/><path d="M87.5475 75.2585s-40.7627 72.8-58.5475 127.77c4.445 13.375 45.2077 40.86 85.2322 37.885 13.3398-36.4 24.4596-52 24.4596-52s2.9633-95.085-51.1443-113.655m323.9252 0s40.7628 72.8 58.5475 127.77c-4.445 13.375-45.2077 40.86-85.2321 37.885-13.3399-36.4-24.4597-52-24.4597-52s-2.9633-95.085 51.1443-113.655" fill="#D63333"/><path d="M249.5111 57.7025c-50.0817 0-47.7981-39.469-48.7426-39.14-7.5158 2.6187-24.1326 14.9368-52.4385 25.495-31.8729 11.885-52.626 19.315-60.7825 31.2 11.1149 8.915 46.6944 28.97 46.6944 120.345v271.14s49.6576 14.855 114.885 14.855c68.9291 0 115.6484-14.855 115.6484-14.855v-271.14c0-91.375 35.5795-111.43 46.6994-120.345-8.1566-11.885-28.9096-19.315-60.7825-31.2-28.3599-10.5767-44.9818-22.9194-52.478-25.5106-.9273-.3184 4.1773 39.1556-48.703 39.1556z" fill="#D63333"/><path d="M364.7745 359.5105v49l-75.2047 71.3814c-11.7536.9945-24.6138 1.642-38.3816 1.7012l-2.0612.0044c-4.3336 0-8.5984-.0656-12.7845-.188l128.432-121.899zm0-63.67v49l-143.179 135.8956c-17.4076-1.078-33.0813-3.0421-46.186-5.1647l189.365-179.7309zm0-63.67v49L162.38 473.2678l-2.1674-.4218c-11.7133-2.3103-19.9766-4.444-23.7186-5.4677l-2.2525-.6358v-15.767l230.533-218.805zm1.2758-64.885c-.7854 8.2138-1.2348 17.1805-1.2724 26.976l-.0026 1.341-.0008 21.898-230.533 218.805v-49l231.8088-220.02zM307.8516 23.345c-5.772-3.24-9.728-5.345-12.0078-5.345 0 0 5.8817 32.495-46.3352 32.495-48.5202 0-46.3352-32.495-46.3352-32.495-2.2798 0-6.2358 2.105-12.0028 5.345 0 0 7.3683 40.38 58.4029 40.38 51.4785 0 58.2781-35.895 58.2781-40.38z" fill="#3D3D3D"/><path d="M413.5843 238.3227c-9.2877 2.2382-19.0646 3.3161-28.7978 2.5926-8.1978-22.369-15.5572-36.883-20.0128-44.7484v270.5774s-21.1022 6.7098-55.8664 11.1104c-.1817-.0197-.363-.0396-.544-.0597 1.8808-54.795 5.7221-166.47 8.2763-240.705 2.0554-59.755 31.0847-95.29 60.099-117.44-2.6753 6.7806-5.0714 14.6063-6.9991 23.6673 7.354 11.8514 24.4358 42.0687 43.8307 94.964.005.014.0097.0277.014.0414zM190.7166 477.7953c-34.2478-4.4014-56.4763-11.051-56.4763-11.051V196.1721c-4.4558 7.8668-11.8138 22.3792-20.0097 44.7432-9.633.716-19.3087-.3323-28.5106-2.5238a1.113 1.113 0 01.0199-.0967c19.3773-52.8475 36.3054-83.0661 43.6098-94.9437-1.929-9.0753-4.3277-16.912-7.0064-23.7011 29.0144 22.15 58.0437 57.685 60.099 117.44 2.5543 74.235 6.3956 185.91 8.2763 240.7053h-.002z" fill-opacity=".1" fill="#000"/><g transform="translate(286.5 117.5)"><path fill="#3D3D3D" d="M17.1439 46.3281l17.57-13.24 1.7973 4.9064-15.7524 11.8702z"/><path d="M11.3339 41.9413l27.1536-20.4617 1.1234 5.4141-24.5137 18.4724zm-6.6086-3.785L43.0598 9.2692l.3317 6.0107L8.5862 41.5075zM2.1725 31.315L42.8402.6696l.1043 6.1822L3.5216 36.559z" fill="#A5A5A5"/><path d="M38.4875 21.4796l1.1234 5.4141L19.24 42.244l-.0006-6.2602 19.248-14.5041zm-4.022-5.7346l1.7065 4.9748-16.932 12.759-.0005-6.2602 15.226-11.4736zM30.961 9.6208l2.6426 4.2694-14.3643 10.8242.0002-6.2608L30.961 9.6208z" fill="#3D3D3D"/><rect fill="#3D3D3D" opacity=".8" x="6" y="5" width="15" height="9" rx="1"/></g></g></svg>