<svg xmlns="http://www.w3.org/2000/svg" width="501" height="501" fill="none"><path fill="#D9D9D9" fill-rule="evenodd" d="M203.36 109.33H297v-87.3h-93.64v87.3Z" clip-rule="evenodd"/><path fill="#085230" fill-rule="evenodd" d="M203.22 32.33h93.46v-14.2h-93.46v14.2Z" clip-rule="evenodd"/><path fill="#EEE" fill-rule="evenodd" d="M87.9 75.37s-40.76 72.8-58.54 127.77c4.44 13.37 45.2 40.86 85.23 37.88 13.34-36.4 24.46-52 24.46-52S142 93.94 87.9 75.37Zm323.93 0s40.76 72.8 58.55 127.77c-4.45 13.37-45.21 40.86-85.24 37.88-13.33-36.4-24.45-52-24.45-52s-2.97-95.08 51.14-113.65Z" clip-rule="evenodd"/><path fill="#EEE" fill-rule="evenodd" d="M249.87 57.81c-50.08 0-47.8-39.47-48.75-39.14-7.51 2.62-24.13 14.94-52.43 25.5-31.88 11.88-52.63 19.31-60.79 31.2 11.12 8.91 46.7 28.96 46.7 120.34v271.14s49.66 14.86 114.88 14.86c68.93 0 115.65-14.86 115.65-14.86V195.71c0-91.38 35.58-111.43 46.7-120.34-8.15-11.89-28.9-19.32-60.78-31.2-28.36-10.58-44.98-22.92-52.48-25.51-.93-.32 4.18 39.15-48.7 39.15Z" clip-rule="evenodd"/><path fill="#0E9155" fill-rule="evenodd" d="M270.8 55.18v426.05a442.19 442.19 0 0 1-41.9-.01V54.88c5.7 1.83 12.6 2.93 20.97 2.93 8.34 0 15.23-.98 20.94-2.63Zm44.9-27.47a257.8 257.8 0 0 0 35.35 16.46l6.56 2.44v422.34a383.65 383.65 0 0 1-41.9 8.15V27.71ZM184 476.94a425.1 425.1 0 0 1-41.9-8.08V46.62l6.59-2.45A257.95 257.95 0 0 0 184 27.72v449.22Z" clip-rule="evenodd"/><path fill="#80C8AA" d="M166.77 474.13V36.57A287.55 287.55 0 0 0 184 27.72v449.22c-6.24-.9-12-1.85-17.23-2.8Zm166.2-437.56V474.3c-5.21.95-10.98 1.9-17.27 2.8V27.7c4.87 2.69 10.6 5.73 17.27 8.86Z"/><path fill="#0E9155" fill-rule="evenodd" d="M308.19 23.47c-5.78-3.24-9.68-5.36-11.96-5.36.02.24 5.85 32.5-46.37 32.5-48.52 0-46.38-32.18-46.36-32.47-2.28 0-6.2 2.07-11.97 5.31 0 0 7.37 40.38 58.4 40.38 51.48 0 58.26-35.88 58.26-40.36Zm159.47 171.81c.94 2.67 1.83 5.3 2.67 7.9-4.44 13.38-45.2 40.86-85.23 37.89a434.6 434.6 0 0 0-2.84-7.52c20.8-1.36 38-5.64 51.6-12.84 13.43-7.11 24.7-15.59 33.8-25.43Zm-435.8 0c9.1 9.83 20.36 18.3 33.77 25.4 13.61 7.2 30.82 11.48 51.64 12.83-.93 2.4-1.88 4.9-2.84 7.52-40.02 2.97-80.78-24.51-85.23-37.88.84-2.59 1.73-5.21 2.66-7.87Z" clip-rule="evenodd"/><path fill="#000" fill-opacity=".1" fill-rule="evenodd" d="M413.94 238.43a93.72 93.72 0 0 1-28.8 2.6c-8.2-22.37-15.56-36.89-20.01-44.75v270.57s-21.1 6.71-55.87 11.11l-.54-.06L317 237.2c2.05-59.75 31.08-95.29 60.1-117.44a148.46 148.46 0 0 0-7 23.67c7.35 11.85 24.43 42.07 43.83 94.96a1 1 0 0 1 .01.04ZM191.07 477.9c-34.25-4.4-56.47-11.05-56.47-11.05V196.28c-4.46 7.87-11.82 22.38-20.01 44.75a93.6 93.6 0 0 1-28.51-2.53c0-.03 0-.06.02-.1 19.37-52.84 36.3-83.06 43.6-94.94a148.63 148.63 0 0 0-7-23.7c29.01 22.15 58.04 57.68 60.1 117.44 2.55 74.24 6.4 185.91 8.27 240.7Z" clip-rule="evenodd"/><path fill="#DBB446" fill-rule="evenodd" d="M308.19 166.35a22 22 0 1 0 0-44 22 22 0 0 0 0 44Z" clip-rule="evenodd"/><path fill="#EEE" fill-rule="evenodd" d="M308.19 164.35a20 20 0 1 0 0-40 20 20 0 0 0 0 40Z" clip-rule="evenodd"/><path fill="#DBB446" fill-rule="evenodd" d="M308.19 158.35a14 14 0 1 0 0-28 14 14 0 0 0 0 28Z" clip-rule="evenodd"/><path fill="#000" fill-rule="evenodd" d="M308.19 156.35a12 12 0 1 0 0-24 12 12 0 0 0 0 24Z" clip-rule="evenodd"/><path fill="#E33B26" d="M298.99 117.73c-1.55-1.39-.54-3.15 2.25-3.9l4.3-1.17c1.65-.44 3.64-.44 5.29 0l4.3 1.17c2.79.75 3.8 2.51 2.25 3.9l-3.55 3.18h-11.3l-3.54-3.18Z"/><path fill="#DBB446" fill-rule="evenodd" d="M314.98 123.91h-13.6l-4.4-3.95a5.06 5.06 0 0 1-1.62-2.7c-.25-1.17 0-2.3.53-3.22.98-1.7 2.83-2.64 4.56-3.11l4.31-1.16a13.6 13.6 0 0 1 6.85 0l4.3 1.16c1.74.47 3.6 1.4 4.57 3.11.53.92.78 2.05.53 3.22a5.05 5.05 0 0 1-1.62 2.7l-4.4 3.95Zm-13.74-10.08c-2.79.75-3.8 2.51-2.25 3.9l3.55 3.18h11.3l3.54-3.18c1.55-1.39.54-3.15-2.25-3.9l-4.3-1.17a10.63 10.63 0 0 0-5.29 0l-4.3 1.17Z" clip-rule="evenodd"/><path fill="#0E9155" d="M299.55 137.29h17.28v11.39h-17.28z"/></svg>