<?xml version="1.0" encoding="utf-8"?><svg width="500" height="500" viewBox="0 0 500 500" fill="none" xmlns="http://www.w3.org/2000/svg"><path fill-rule="evenodd" clip-rule="evenodd" d="M203.003 109.223h93.644V21.928h-93.644v87.295Z" fill="#CFCFCF"/><path fill-rule="evenodd" clip-rule="evenodd" d="M202.864 32.228h93.458v-14.2h-93.458v14.2Z" fill="#D9D9D9"/><path fill-rule="evenodd" clip-rule="evenodd" d="M87.547 75.258S46.785 148.058 29 203.028c4.445 13.375 45.208 40.86 85.232 37.885 13.34-36.4 24.46-52 24.46-52s2.963-95.085-51.145-113.655Zm323.925 0s40.763 72.8 58.548 127.77c-4.445 13.375-45.208 40.86-85.232 37.885-13.34-36.4-24.46-52-24.46-52s-2.963-95.085 51.144-113.655Z" fill="#F2F2F2"/><path fill-rule="evenodd" clip-rule="evenodd" d="M249.511 57.703c-50.082 0-47.798-39.47-48.743-39.14-7.516 2.618-24.132 14.936-52.438 25.494-31.873 11.886-52.626 19.316-60.783 31.2 11.115 8.915 46.695 28.97 46.695 120.345v271.14s49.657 14.856 114.885 14.856c68.929 0 115.648-14.856 115.648-14.856v-271.14c0-91.375 35.58-111.43 46.699-120.345-8.156-11.885-28.909-19.315-60.782-31.2-28.36-10.576-44.982-22.919-52.478-25.508-.927-.32 4.177 39.154-48.703 39.154Z" fill="#F2F2F2"/><path fill-rule="evenodd" clip-rule="evenodd" d="M296.726 38.042v441.16a477.138 477.138 0 0 1-27.937 1.963V55.494c13.909-3.565 21.148-10.976 24.946-18.233 1.006.252 2.004.512 2.991.78Zm63.523 45.696V468.02c-4.954 1.352-13.833 3.58-25.941 5.842V54.837c12.098 8.269 20.889 18.223 25.941 28.9ZM203.271 479.207V37.78c.961-.254 1.931-.501 2.91-.74 4.058 7.343 11.43 14.885 25.027 18.477V481.2a463.743 463.743 0 0 1-27.937-1.993Zm-57.523-9.517V72.4c6.323-8.21 15.05-15.698 25.941-21.937v424.46c-10.747-1.831-19.567-3.726-25.941-5.233Zm321.605-274.561a339.495 339.495 0 0 1 2.667 7.899c-4.445 13.375-45.208 40.86-85.232 37.885a431.342 431.342 0 0 0-2.835-7.519c20.795-1.358 37.993-5.637 51.594-12.837 13.428-7.109 24.697-15.585 33.806-25.428Zm-435.698.036c9.103 9.828 20.36 18.291 33.772 25.392 13.611 7.205 30.824 11.485 51.639 12.84a420.297 420.297 0 0 0-2.834 7.517c-40.024 2.975-80.787-24.51-85.232-37.885.836-2.585 1.723-5.21 2.655-7.864Z" fill="#D22124"/><path fill-rule="evenodd" clip-rule="evenodd" d="M307.851 23.345c-5.772-3.24-9.728-5.345-12.007-5.345 0 0 5.881 32.495-46.336 32.495-48.52 0-46.335-32.495-46.335-32.495-2.28 0-6.236 2.105-12.003 5.345 0 0 7.369 40.38 58.403 40.38 51.479 0 58.278-35.895 58.278-40.38Z" fill="#F2F2F2"/><path fill-rule="evenodd" clip-rule="evenodd" d="M413.584 238.323c-9.287 2.238-19.064 3.316-28.797 2.592-8.198-22.369-15.558-36.883-20.013-44.748v270.577s-21.102 6.71-55.866 11.111l-.544-.06c1.88-54.795 5.722-166.47 8.276-240.705 2.055-59.755 31.085-95.29 60.099-117.44-2.675 6.781-5.072 14.606-6.999 23.667 7.354 11.852 24.435 42.069 43.83 94.964l.014.042ZM190.717 477.795c-34.248-4.401-56.476-11.051-56.476-11.051V196.172c-4.456 7.867-11.814 22.379-20.01 44.743-9.633.716-19.309-.332-28.51-2.524a.547.547 0 0 1 .02-.096c19.376-52.848 36.305-83.066 43.609-94.944-1.929-9.075-4.328-16.912-7.006-23.701 29.014 22.15 58.043 57.685 60.099 117.44 2.554 74.235 6.395 185.91 8.276 240.705h-.002Z" fill="#000" fill-opacity=".1"/><path d="M314.555 123.556h-11.111a5.556 5.556 0 1 1 11.111 0Z" fill="#F3C934"/><path d="M312.704 123.556h-7.408a3.704 3.704 0 0 1 7.408 0Z" fill="#F2F2F2"/><path fill-rule="evenodd" clip-rule="evenodd" d="M291.407 123.556h35.185v2.777C326.592 158.001 309 168 309 168s-17.593-10.001-17.593-41.667v-2.777Z" fill="#F3C934"/><path d="M295.103 143.926a59.181 59.181 0 0 1-1.352-7.407h10.619l4.63-3.704 4.629 3.704h10.619a59.181 59.181 0 0 1-1.352 7.407h-27.793Z" fill="#5C87F3"/><path d="M293.259 125.407h14.815v5.85l-4.167 3.409h-10.351a74.028 74.028 0 0 1-.297-6.713v-2.546Zm20.834 9.259-4.167-3.409v-5.85h14.815v2.546c0 2.368-.105 4.604-.297 6.713h-10.351ZM309 166.148s-9.009-5.247-13.396-20.37h26.792c-4.387 15.124-13.396 20.37-13.396 20.37Z" fill="#F2F2F2"/><path d="M299.741 125.407v9.259h-6.185a74.028 74.028 0 0 1-.297-6.713v-2.546h6.482ZM309 145.778v20.37c-.049-.029-9.021-5.288-13.396-20.37H309Zm15.741-20.371h-7.408v9.259h7.111c.192-2.109.297-4.345.297-6.713v-2.546Z" fill="#D22124"/><circle cx="309" cy="154.111" r="5.556" fill="#F2F2F2"/><circle cx="309" cy="154.111" r="3.704" fill="#8F6209"/></svg>