<svg xmlns="http://www.w3.org/2000/svg" width="501" height="501" fill="none"><path fill="#790D0C" fill-rule="evenodd" d="M203.2 110.2h93.65V22.9H203.2v87.3Z" clip-rule="evenodd"/><path fill="#0B0B0B" fill-rule="evenodd" d="M203.06 33.2h93.46V19h-93.45v14.2Z" clip-rule="evenodd"/><path fill="#171717" fill-rule="evenodd" d="M87.75 76.23S46.99 149.03 29.2 204c4.45 13.38 45.21 40.86 85.23 37.89 13.34-36.4 24.46-52 24.46-52s2.97-95.09-51.14-113.66Z" clip-rule="evenodd"/><path fill="#171717" fill-rule="evenodd" d="M87.75 76.23S46.99 149.03 29.2 204c4.45 13.38 45.21 40.86 85.23 37.89 13.34-36.4 24.46-52 24.46-52s2.97-95.09-51.14-113.66Zm323.93 0s40.76 72.8 58.54 127.77c-4.44 13.38-45.2 40.86-85.23 37.89-13.34-36.4-24.46-52-24.46-52s-2.96-95.09 51.15-113.66Z" clip-rule="evenodd"/><path fill="#171717" fill-rule="evenodd" d="M249.71 58.68c-50.08 0-47.8-39.47-48.74-39.14-7.52 2.62-24.13 14.94-52.44 25.5-31.87 11.88-52.62 19.3-60.78 31.2 11.11 8.9 46.7 28.96 46.7 120.34v271.14s49.65 14.85 114.88 14.85c68.93 0 115.65-14.85 115.65-14.85V196.58c0-91.38 35.58-111.43 46.7-120.35-8.16-11.88-28.91-19.31-60.79-31.2-28.36-10.57-44.98-22.92-52.47-25.5-.93-.32 4.17 39.15-48.7 39.15Z" clip-rule="evenodd"/><path fill="#EE1917" fill-rule="evenodd" d="M294.08 46.8c45.26 11.34 71.5 48.34 71.5 76.98v54.91c-.3 5.5-.46 11.3-.46 17.42v271.14s-46.72 14.86-115.65 14.86c-65.22 0-114.88-14.86-114.88-14.86V196.11c0-6.26-.17-12.19-.48-17.8v-54.53c0-28.83 26.6-66.02 72.41-77.2 5.6 10.13 17.5 15.63 43.34 15.63 27.08 0 38.95-5.35 44.22-15.41Z" clip-rule="evenodd"/><path fill="#171717" d="m150.29 56.03-23.83 23.83 123.25 49.6 123.26-49.6-23.83-23.83-99.43 40.2-99.42-40.2Z"/><path fill="#F3F3F3" fill-rule="evenodd" d="M96.85 80.33c8.54-11.24 28.66-18.57 59.04-30.08 19.3-7.31 33.08-15.47 42.19-20.66l-.01-.05c1.21-.7 2.34-1.33 3.4-1.91l1.72 3.21c-9.03 5.07-23.45 13.98-44.36 21.9-29.86 11.3-49.81 18.58-58.6 29.5a52.1 52.1 0 0 0-3.38-1.91Zm-6.7-2.88c8.03-11.88 28.46-19.31 59.84-31.2 19.3-7.31 33.09-15.47 42.2-20.66l-.01-.05.02-.01 1.74 3.22c-9.1 5.21-22.52 12.98-41 19.98-30.46 11.54-50.6 18.88-59.1 30.17l-3.7-1.45Zm312.23 2.88c-1.16.6-2.29 1.24-3.39 1.91-8.78-10.92-28.73-18.2-58.6-29.5-20.2-7.66-34.35-16.24-43.43-21.38l1.58-3.3 2.62 1.48-.01.05c9.1 5.2 22.89 13.35 42.19 20.66 30.38 11.5 50.5 18.84 59.04 30.08Zm6.7-2.88a54.1 54.1 0 0 0-3.68 1.45c-8.5-11.3-28.65-18.63-59.11-30.17-18.28-6.92-31.6-14.6-40.7-19.8l1.42-3.42.04.03v.05c9.1 5.2 22.88 13.35 42.19 20.66 31.38 11.89 51.81 19.32 59.84 31.2Z" clip-rule="evenodd"/><path fill="#171717" fill-rule="evenodd" d="M308.06 24.32c-5.78-3.24-9.73-5.34-12.01-5.34 0 0 5.88 32.5-46.34 32.5-48.52 0-46.33-32.5-46.33-32.5-2.28 0-6.24 2.1-12 5.34 0 0 7.36 40.38 58.4 40.38 51.47 0 58.28-35.9 58.28-40.38Z" clip-rule="evenodd"/><path fill="#EE1917" fill-rule="evenodd" d="M134.44 253.37V197.6c-4.45 7.87-11.81 22.38-20 44.74a93.76 93.76 0 0 1-28.84-2.6l.1-.26c12.5-34 40.5-74.5 51-74.5s9.5 68 8 78c-.64 4.28-5.13 7.8-10.26 10.4Zm276.83-13.5A92.42 92.42 0 0 1 385 241.9c-8.2-22.37-15.56-36.89-20.01-44.75v57.45c-6.13-2.67-12.1-6.63-12.85-11.61-1.5-10-2.5-78 8-78s38.5 40.5 51 74.5l.14.4Z" clip-rule="evenodd"/><path fill="#000" fill-opacity=".1" fill-rule="evenodd" d="M413.79 239.3a93.76 93.76 0 0 1-28.8 2.6c-8.2-22.38-15.56-36.9-20.01-44.76v270.58s-21.1 6.71-55.87 11.11l-.55-.06 8.28-240.7c2.06-59.76 31.09-95.3 60.1-117.44a148.59 148.59 0 0 0-7 23.66c7.36 11.86 24.44 42.07 43.83 94.97l.02.04ZM190.92 478.77c-34.25-4.4-56.48-11.05-56.48-11.05V197.15c-4.45 7.87-11.81 22.38-20 44.74a93.6 93.6 0 0 1-28.52-2.52l.02-.1c19.38-52.85 36.3-83.06 43.61-94.94a148.63 148.63 0 0 0-7-23.7c29.01 22.15 58.04 57.68 60.1 117.44l8.27 240.7Z" clip-rule="evenodd"/><circle cx="309.7" cy="146.48" r="9" fill="#D9D9D9" stroke="#FEFD07" stroke-width="3"/><path fill="#000" d="m309.23 176.51 20.06-42.2h-20.06v42.2Z"/><path fill="#000" fill-rule="evenodd" d="M330.08 133.81c.17.27.19.61.05.9l-20.05 42.2a.93.93 0 0 1-1.78-.4v-42.2c0-.52.42-.94.94-.94h20.05c.32 0 .62.17.79.44Zm-.8.5h-20.04v42.2l20.05-42.2Z" clip-rule="evenodd"/><path fill="#EE1917" d="m309.23 176.51-20.05-42.2h20.05v42.2Z"/><path fill="#000" fill-rule="evenodd" d="M288.4 133.81a.94.94 0 0 0-.06.9l20.05 42.2a.94.94 0 0 0 1.78-.4v-42.2a.94.94 0 0 0-.94-.94h-20.05a.94.94 0 0 0-.79.44Zm.78.5h20.05v42.2l-20.05-42.2Z" clip-rule="evenodd"/><path fill="#F3F3F3" d="m309.23 167.1-15.58-32.79h31.16l-15.58 32.79Z"/><path fill="#171717" d="m309.23 150.08-7.49-15.77h14.99l-7.5 15.77Z"/><path fill="#F3F3F3" d="M309.24 121.32a11.36 11.36 0 0 0 12.2 7.4l3.38-.45a49.71 49.71 0 0 1-31.16 0l3.38.45c5.3.71 10.38-2.37 12.2-7.4Z"/><circle cx="296.07" cy="128.54" r="2.84" fill="#F3F3F3"/><circle cx="309.24" cy="119.82" r="2.84" fill="#F3F3F3"/><circle cx="322.39" cy="128.54" r="2.84" fill="#F3F3F3"/><path fill="#008FD5" fill-rule="evenodd" d="m301.15 150.07 8.08 17.03 8.1-17.03h-16.18Z" clip-rule="evenodd"/></svg>