<?xml version="1.0" encoding="UTF-8"?><svg height="500" viewBox="0 0 500 500" width="500" xmlns="http://www.w3.org/2000/svg"><g fill="none" fill-rule="evenodd"><path d="M0 0h500v500H0z"/><path d="M203.006 109.193h93.643V21.898h-93.643z" fill="#006739"/><path d="M202.867 32.198h93.458v-14.2h-93.458z" fill="#007c45"/><g fill="#008b4d"><path d="M87.55 75.26s-40.762 72.8-58.547 127.77c4.445 13.375 45.208 40.86 85.232 37.885 13.34-36.4 24.46-52 24.46-52S141.658 93.83 87.55 75.26M411.476 75.26s40.762 72.8 58.547 127.77c-4.445 13.375-45.208 40.86-85.232 37.885-13.34-36.4-24.46-52-24.46-52S357.368 93.83 411.476 75.26"/><path d="M249.514 57.706c-50.082 0-47.798-39.47-48.742-39.14-7.516 2.618-24.133 14.936-52.439 25.495-31.873 11.885-52.626 19.315-60.782 31.2 11.114 8.915 46.694 28.97 46.694 120.345v271.14S183.903 481.6 249.13 481.6c68.929 0 115.648-14.855 115.648-14.855v-271.14c0-91.375 35.58-111.43 46.7-120.345-8.157-11.885-28.91-19.315-60.783-31.2-28.36-10.577-44.982-22.92-52.478-25.511-.927-.318 4.177 39.156-48.703 39.156z"/></g><path d="M307.855 23.372c-5.772-3.24-9.728-5.345-12.008-5.345 0 0 18.526 36.495-46.335 36.495-58.338 0-46.336-36.495-46.336-36.495-2.28 0-6.235 2.105-12.002 5.345 0 0 7.368 40.38 58.402 40.38 51.479 0 58.279-35.895 58.279-40.38z" fill="#f2f2f2"/><path d="M294.87 48.575l-.268-19.187c-3.289 9.371-13.675 21.133-45.09 21.133-28.523 0-39.523-11.228-43.746-20.485l-2.725 15.622c8.495 9.35 22.788 18.093 46.535 18.093 22.709 0 36.723-6.984 45.295-15.176z" fill="#008449"/><path d="M293.733 37.26c45.26 11.336 71.506 39.337 71.506 67.982v72.909c-.301 5.5-.46 11.3-.46 17.421v271.14s-46.72 14.855-115.649 14.855c-65.227 0-114.885-14.855-114.885-14.855v-271.14c0-6.261-.167-12.188-.482-17.799v-72.531c0-28.836 26.598-57.02 72.417-68.202 5.595 10.126 17.495 20.632 43.334 20.632 27.082 0 38.955-10.352 44.22-20.411z" fill="#008449"/><path d="M231.206 48.58v13.1c-13.016-3.07-21.909-9.268-27.937-15.799V35.37l4.318-1.953c3.778 5.996 10.756 12.149 23.62 15.164zm65.519-13.22v11.302c-5.873 6.294-14.716 12.15-27.937 15.074v-13.11c13.656-2.998 20.549-9.184 23.98-15.212z" fill="#3d3d3d"/><path d="M296.725 38.041v441.161a477.69 477.69 0 0 1-27.937 1.963V55.493c13.909-3.564 21.147-10.975 24.945-18.232 1.007.252 2.004.512 2.992.78zm63.523 45.697v384.281c-4.955 1.353-13.833 3.58-25.942 5.843V54.837c12.098 8.269 20.89 18.223 25.942 28.9zM203.269 479.207V37.78c.962-.255 1.932-.501 2.91-.74 4.058 7.342 11.43 14.885 25.027 18.477V481.2a463.64 463.64 0 0 1-27.937-1.993zm-57.523-9.517V72.4c6.324-8.21 15.05-15.698 25.942-21.937v424.46c-10.748-1.831-19.567-3.726-25.942-5.233z" fill="#3d3d3d"/><path d="M209.734 36.392c-2.281.5-4.517 1.04-6.706 1.62-3.4-4.758-6.046-10.36-7.938-16.804 3.69-1.982 6.365-3.181 8.086-3.181 0 0-.645 9.6 6.558 18.365zm80.827.284c7.061-8.84 5.286-18.65 5.286-18.65 1.785 0 4.597 1.29 8.504 3.406-1.878 6.407-4.509 11.975-7.893 16.705a157.865 157.865 0 0 0-5.897-1.461z" fill="#008b4d"/><path d="M331.017 123.182L331 123c1.76 18.947-5.573 32.28-22 40-16.374-7.694-23.713-20.967-22.017-39.817 2.046 3.885 6.991 5.817 12.06 5.817 4.747 0 8.314-1.694 9.957-5.099 1.643 3.405 5.21 5.099 9.957 5.099 5.07 0 10.015-1.932 12.06-5.818z" fill="#fff"/><path d="M309 127.51c1.553 2.998 4.994 4.49 9.587 4.49 4.524 0 8.946-1.447 11.115-4.357-.217 15.252-7.118 26.27-20.702 33.057-13.636-6.797-20.553-17.839-20.752-33.126 2.15 2.956 6.605 4.426 11.165 4.426 4.593 0 8.034-1.492 9.587-4.49z" fill="#049346"/><path d="M318.587 132c4.525 0 8.947-1.448 11.116-4.358-.218 15.252-7.119 26.271-20.703 33.058l-.024-33.236c1.542 3.03 4.995 4.536 9.611 4.536z" fill="#000101"/><ellipse cx="309" cy="144" fill="#fff" rx="9" ry="7"/><path d="M413.584 238.323c-9.287 2.238-19.064 3.316-28.798 2.592-8.197-22.369-15.557-36.883-20.012-44.748v270.577s-21.102 6.71-55.867 11.11l-.544-.059c1.881-54.795 5.722-166.47 8.277-240.705 2.055-59.755 31.084-95.29 60.099-117.44-2.676 6.78-5.072 14.606-7 23.667 7.354 11.852 24.436 42.069 43.831 94.964l.014.042zM190.717 477.795c-34.248-4.401-56.477-11.05-56.477-11.05V196.171c-4.456 7.867-11.813 22.38-20.01 44.743-9.632.716-19.308-.332-28.51-2.523.005-.033.012-.065.02-.097 19.377-52.848 36.305-83.066 43.61-94.944-1.93-9.075-4.328-16.912-7.007-23.701 29.015 22.15 58.044 57.685 60.1 117.44 2.554 74.235 6.395 185.91 8.276 240.705z" fill="#000" fill-opacity=".1"/></g></svg>