<?xml version="1.0" encoding="UTF-8"?><svg width="500" height="500" viewBox="0 0 500 500" xmlns="http://www.w3.org/2000/svg"><g fill="none" fill-rule="evenodd"><path d="M0 0h500v500H0z"/><path fill="#C9C9C9" d="M203.0033 109.223h93.6432V21.928h-93.6432z"/><path fill="#1C5FB1" d="M202.8636 32.228h93.4586v-14.2h-93.4586z"/><path d="M87.5475 75.2585s-40.7627 72.8-58.5475 127.77c4.445 13.375 45.2077 40.86 85.2322 37.885 13.3398-36.4 24.4596-52 24.4596-52s2.9633-95.085-51.1443-113.655m323.9252 0s40.7628 72.8 58.5475 127.77c-4.445 13.375-45.2077 40.86-85.2321 37.885-13.3399-36.4-24.4597-52-24.4597-52s-2.9633-95.085 51.1443-113.655" fill="#F2F2F2"/><path d="M249.5111 57.7025c-50.0817 0-47.7981-39.469-48.7426-39.14-7.5158 2.6187-24.1326 14.9368-52.4385 25.495-31.8729 11.885-52.626 19.315-60.7825 31.2 11.1149 8.915 46.6944 28.97 46.6944 120.345v271.14s49.6576 14.855 114.885 14.855c68.9291 0 115.6484-14.855 115.6484-14.855v-271.14c0-91.375 35.5795-111.43 46.6994-120.345-8.1566-11.885-28.9096-19.315-60.7825-31.2-28.3599-10.5767-44.9818-22.9194-52.478-25.5106-.9273-.3184 4.1773 39.1556-48.703 39.1556z" fill="#F2F2F2"/><path d="M467.3529 195.129c.9359 2.6665 1.8272 5.303 2.6673 7.8995-4.445 13.375-45.2077 40.86-85.2321 37.885a426.4238 426.4238 0 00-2.8354-7.5198c20.795-1.3576 37.9932-5.6366 51.5944-12.8371 13.4282-7.109 24.6968-15.5848 33.8058-25.4277zm-435.6982.036c9.1031 9.8275 20.3606 18.2914 33.7724 25.3916 13.611 7.2056 30.824 11.4856 51.6393 12.84a426.4196 426.4196 0 00-2.8342 7.5169c-40.0245 2.975-80.7873-24.51-85.2322-37.885.8363-2.5849 1.7234-5.2092 2.6547-7.8635z" fill="#F2F2F2"/><path d="M467.3529 195.129c.9359 2.6665 1.8272 5.303 2.6673 7.8995-4.445 13.375-45.2077 40.86-85.2321 37.885a426.4238 426.4238 0 00-2.8354-7.5198c20.795-1.3576 37.9932-5.6366 51.5944-12.8371 13.4282-7.109 24.6968-15.5848 33.8058-25.4277zm-435.6982.036c9.1031 9.8275 20.3606 18.2914 33.7724 25.3916 13.611 7.2056 30.824 11.4856 51.6393 12.84a426.4196 426.4196 0 00-2.8342 7.5169c-40.0245 2.975-80.7873-24.51-85.2322-37.885.8363-2.5849 1.7234-5.2092 2.6547-7.8635z" fill="#246FCA"/><path d="M75.0249 117.2983c10.132-20.75 17.9444-35.2452 17.9444-35.2452 7.8821-11.885 27.9368-19.315 58.747-31.2001 29.3586-11.33 45.8346-24.6347 52.265-25.8647-.6784-4.5-.7982-6.8825-.8046-6.9706-5.9266 0-22.9798 14.0252-54.8527 25.9103-31.8679 11.89-52.621 19.315-60.7725 31.2001 0 0-8.2313 14.76-18.8573 35.8252C49.557 149.1759 36.3257 179.8672 29 203.0272c.3 1.0583 1.0077 2.41 2.123 4.0553 1.1153 1.6453 2.0508 2.7774 2.8066 3.3964 8.3862-23.6844 22.0846-54.7446 41.0953-93.1806zm348.9401.0239c-10.1321-20.75-17.9577-35.269-17.9577-35.269-7.8822-11.8851-27.9368-19.3151-58.747-31.2002-29.3587-11.33-45.149-24.4971-51.5795-25.7271.6785-4.5.3247-6.5048.1889-7.0384 5.9266 0 22.91 13.9554 54.7828 25.8405 31.868 11.89 52.621 19.315 60.7725 31.2001 0 0 8.2314 14.76 18.8574 35.8252 18.3887 36.3044 31.6346 66.9957 39.7378 92.0739-.4912 1.317-.9771 2.3461-1.4577 3.0877s-1.2755 1.8042-2.3847 3.1878c-18.4273-43.992-32.4983-74.652-42.2128-91.9805z" fill="#246FCA"/><path d="M307.8516 23.345c-3.38-1.8973-6.1373-3.4054-8.3-4.3295-1.5304-.654 2.1739 34.7799-50.043 34.7799-48.5202 0-48.078-35.5524-49.2449-35.1044-2.2675.8705-5.2856 2.5149-9.0931 4.654 0 0 7.3683 40.38 58.4029 40.38 51.4785 0 58.2781-35.895 58.2781-40.38z" fill="#F2F2F2"/><path d="M295.8468 18.0265c1.7848 0 4.597 1.2901 8.5034 3.405-7.1741 24.4812-25.3484 36.721-54.5223 36.721-29.263 0-47.5089-12.3147-54.7376-36.9442 3.6898-1.9827 6.3654-3.1818 8.0861-3.1818 0 0-2.185 32.495 46.3352 32.495 52.2169 0 46.3352-32.495 46.3352-32.495z" fill="#246FCA"/><path d="M413.5843 238.3227c-9.2877 2.2382-19.0646 3.3161-28.7978 2.5926-8.1978-22.369-15.5572-36.883-20.0128-44.7484v270.5774s-21.1022 6.7098-55.8664 11.1104c-.1817-.0197-.363-.0396-.544-.0597 1.8808-54.795 5.7221-166.47 8.2763-240.705 2.0554-59.755 31.0847-95.29 60.099-117.44-2.6753 6.7806-5.0714 14.6063-6.9991 23.6673 7.354 11.8514 24.4358 42.0687 43.8307 94.964.005.014.0097.0277.014.0414zM190.7166 477.7953c-34.2478-4.4014-56.4763-11.051-56.4763-11.051V196.1721c-4.4558 7.8668-11.8138 22.3792-20.0097 44.7432-9.633.716-19.3087-.3323-28.5106-2.5238a1.113 1.113 0 01.0199-.0967c19.3773-52.8475 36.3054-83.0661 43.6098-94.9437-1.929-9.0753-4.3277-16.912-7.0064-23.7011 29.0144 22.15 58.0437 57.685 60.099 117.44 2.5543 74.235 6.3956 185.91 8.2763 240.7053h-.002z" fill-opacity=".08" fill="#000"/><g transform="translate(287 121)"><circle fill="#004693" cx="22" cy="22" r="22"/><circle fill="#F2F2F2" cx="22" cy="22" r="20"/><path d="M31.6187 30.7455l4.4398 4.036C32.583 38.6017 27.5715 41 22 41c-5.5716 0-10.583-2.3982-14.0585-6.2186l4.4398-4.036C14.7593 33.3594 18.188 35 22 35c3.812 0 7.2408-1.6407 9.6187-4.2545zM22 4c9.2003 0 16.7884 6.9025 17.8683 15.8114l-3.9708.4858C35.0573 13.3683 29.1555 8 22 8 14.8327 8 8.9234 13.3859 8.0984 20.3312l-3.9718-.4768C5.1872 10.9247 12.7849 4 22 4z" fill="#789BC2"/><circle fill="#004693" cx="22" cy="22" r="12"/><circle fill="#F2F2F2" cx="22" cy="22" r="11"/><circle fill="#004693" cx="22" cy="22" r="10"/></g></g></svg>