<?xml version="1.0" encoding="UTF-8"?><svg width="500" height="500" viewBox="0 0 500 500" xmlns="http://www.w3.org/2000/svg"><g fill="none" fill-rule="evenodd"><path d="M0 0h500v500H0z"/><path fill="#D9D9D9" d="M203.0033 109.223h93.6432V21.928h-93.6432z"/><path fill="#253D8C" d="M202.8636 30.028h93.4586v-12h-93.4586z"/><path fill="#E1AC00" d="M202.8666 32.298h93.4586v-7.1h-93.4586z"/><path d="M87.5475 75.2585s-40.7627 72.8-58.5475 127.77c4.445 13.375 45.2077 40.86 85.2322 37.885 13.3398-36.4 24.4596-52 24.4596-52s2.9633-95.085-51.1443-113.655m323.9252 0s40.7628 72.8 58.5475 127.77c-4.445 13.375-45.2077 40.86-85.2321 37.885-13.3399-36.4-24.4597-52-24.4597-52s-2.9633-95.085 51.1443-113.655" fill="#1B3384"/><path d="M249.5111 57.7025c-50.0817 0-47.7981-39.469-48.7426-39.14-7.5158 2.6187-24.1326 14.9368-52.4385 25.495-31.8729 11.885-52.626 19.315-60.7825 31.2 11.1149 8.915 46.6944 28.97 46.6944 120.345v271.14s49.6576 14.855 114.885 14.855c68.9291 0 115.6484-14.855 115.6484-14.855v-271.14c0-91.375 35.5795-111.43 46.6994-120.345-8.1566-11.885-28.9096-19.315-60.7825-31.2-28.3599-10.5767-44.9818-22.9194-52.478-25.5106-.9273-.3184 4.1773 39.1556-48.703 39.1556z" fill="#1B3384"/><path d="M249.593 171c38.5638 0 77.131 2.0537 115.7019 6.1612-.3134 5.3538-.491 10.9975-.5164 16.9474l-.0032 1.4939-.0005 67.504C326.3884 259.0355 288.0718 257 249.825 257c-38.5294 0-77.0573 2.0657-115.5837 6.197l.0007-67.5945c0-6.4745-.1786-12.5909-.5145-18.3706C172.1825 173.0777 210.8049 171 249.5929 171z" fill="#F5BB00"/><path d="M307.8516 23.345c-5.772-3.24-9.728-5.345-12.0078-5.345 0 0 5.8817 32.495-46.3352 32.495-48.5202 0-46.3352-32.495-46.3352-32.495-2.2798 0-6.2358 2.105-12.0028 5.345 0 0 7.3683 40.38 58.4029 40.38 51.4785 0 58.2781-35.895 58.2781-40.38z" fill="#284299"/><path d="M413.5843 238.3227c-9.2877 2.2382-19.0646 3.3161-28.7978 2.5926-8.1978-22.369-15.5572-36.883-20.0128-44.7484v270.5774s-21.1022 6.7098-55.8664 11.1104c-.1817-.0197-.363-.0396-.544-.0597 1.8808-54.795 5.7221-166.47 8.2763-240.705 2.0554-59.755 31.0847-95.29 60.099-117.44-2.6753 6.7806-5.0714 14.6063-6.9991 23.6673 7.354 11.8514 24.4358 42.0687 43.8307 94.964.005.014.0097.0277.014.0414zM190.7166 477.7953c-34.2478-4.4014-56.4763-11.051-56.4763-11.051V196.1721c-4.4558 7.8668-11.8138 22.3792-20.0097 44.7432-9.633.716-19.3087-.3323-28.5106-2.5238a1.113 1.113 0 01.0199-.0967c19.3773-52.8475 36.3054-83.0661 43.6098-94.9437-1.929-9.0753-4.3277-16.912-7.0064-23.7011 29.0144 22.15 58.0437 57.685 60.099 117.44 2.5543 74.235 6.3956 185.91 8.2763 240.7053h-.002z" fill-opacity=".1" fill="#000"/><path d="M309 165l-.4239-.3519C296.6365 154.625 290.6667 145.0756 290.6667 126l8.6842-5c3.2164 2.6667 6.4327 4 9.6491 4 3.2164 0 6.4327-1.3333 9.6491-4l8.6842 5c0 19.3-6.111 28.9667-18.3333 39z" fill="#F4B324"/><path d="M309 163.1667l-.3815-.3226c-10.7457-9.1879-16.1185-18.165-16.1185-35.651l6.7287-4.0586c3.2245 2.2437 6.4816 3.3655 9.7713 3.3655s6.5806-1.1218 9.8727-3.3655l6.6273 4.0586c0 17.6917-5.5 26.7764-16.5 35.9736z" fill="#083C7A"/><path d="M309 161.484l-.3391-.2955c-6.0818-5.3583-10.2992-10.8039-12.5607-18.1875l25.886-.0005c-2.3337 7.549-6.7132 13.079-12.9862 18.4834zm9.9562-36.1235l4.9991 2.766c0 1.341-.0354 2.631-.106 3.8737l-29.589-.0001c-.0694-1.2422-.1041-2.532-.1041-3.8737l5.1078-2.766c3.2605 1.844 6.5058 2.766 9.736 2.766 3.2302 0 6.549-.922 9.9562-2.766z" fill="#F4B324" opacity=".4"/><path fill="#F4B324" d="M296.1667 133.8333h25.6667v7.3333h-25.6667z"/></g></svg>