<?xml version="1.0" encoding="UTF-8"?><svg width="500" height="500" viewBox="0 0 500 500" fill="none" xmlns="http://www.w3.org/2000/svg"><path fill-rule="evenodd" clip-rule="evenodd" d="M203.004 109.223h93.643V21.928h-93.643v87.295z" fill="#1C4C95"/><path fill-rule="evenodd" clip-rule="evenodd" d="M202.863 32.2281h93.459v-14.2h-93.459v14.2z" fill="#DCDCDC"/><path fill-rule="evenodd" clip-rule="evenodd" d="M87.5475 75.2585S46.7848 148.059 29 203.029c4.4449 13.375 45.2077 40.86 85.232 37.885 13.34-36.4 24.46-52 24.46-52s2.963-95.0855-51.1445-113.6555zm323.9265 0s40.763 72.8005 58.547 127.7705c-4.444 13.375-45.207 40.86-85.232 37.885-13.339-36.4-24.459-52-24.459-52s-2.964-95.0855 51.144-113.6555z" fill="#225EB7"/><path fill-rule="evenodd" clip-rule="evenodd" d="M249.51 57.7025c-50.081 0-47.798-39.4691-48.742-39.14-7.516 2.6187-24.133 14.9368-52.439 25.495-31.873 11.885-52.6256 19.315-60.7821 31.2 11.1148 8.915 46.6941 28.9695 46.6941 120.3445v271.14s49.658 14.856 114.885 14.856c68.929 0 115.649-14.856 115.649-14.856v-271.14c0-91.375 35.579-111.4295 46.699-120.3445-8.157-11.885-28.91-19.315-60.782-31.2-28.36-10.5767-44.982-22.9195-52.479-25.5087-.927-.3203 4.178 39.1537-48.703 39.1537z" fill="#225EB7"/><path fill-rule="evenodd" clip-rule="evenodd" d="M467.463 195.302c.936 2.667 1.827 5.303 2.667 7.9-4.445 13.375-45.208 40.86-85.232 37.885-.958-2.614-1.904-5.12-2.836-7.52 20.796-1.358 37.994-5.637 51.595-12.837 13.428-7.109 24.697-15.585 33.806-25.428zm-435.8083 0c9.1031 9.828 20.3606 18.291 33.7724 25.392 13.6109 7.205 30.8241 11.485 51.6389 12.84-.931 2.399-1.877 4.904-2.834 7.516-40.0243 2.975-80.7871-24.51-85.232-37.885.8363-2.584 1.7234-5.209 2.6547-7.863z" fill="#F2F2F2"/><path fill-rule="evenodd" clip-rule="evenodd" d="M307.853 23.345c-5.772-3.24-9.728-5.345-12.008-5.345 0 0 5.882 32.495-46.335 32.495-48.52 0-46.335-32.495-46.335-32.495-2.28 0-6.236 2.105-12.003 5.345 0 0 7.368 40.38 58.403 40.38 51.478 0 58.278-35.895 58.278-40.38z" fill="#E7E7E7"/><path fill-rule="evenodd" clip-rule="evenodd" d="M413.583 238.323c-9.288 2.238-19.065 3.316-28.798 2.592-8.198-22.369-15.557-36.883-20.013-44.748v270.577s-21.102 6.71-55.866 11.111l-.544-.06c1.881-54.795 5.722-166.47 8.276-240.705 2.056-59.755 31.085-95.29 60.099-117.44-2.675 6.781-5.071 14.606-6.999 23.667 7.354 11.852 24.436 42.069 43.831 94.964.005.014.01.028.014.042zM190.715 477.795c-34.247-4.401-56.476-11.051-56.476-11.051V196.172c-4.456 7.867-11.814 22.379-20.01 44.743-9.633.716-19.3084-.332-28.5102-2.524.005-.032.0117-.064.0198-.096 19.3774-52.848 36.3054-83.066 43.6094-94.944-1.928-9.075-4.327-16.912-7.006-23.701 29.014 22.15 58.044 57.685 60.099 117.44 2.554 74.235 6.396 185.91 8.276 240.705h-.002z" fill="#000" fill-opacity=".06"/><path fill-rule="evenodd" clip-rule="evenodd" d="M308.999 162.31c11.684 0 21.155-9.471 21.155-21.155 0-11.683-9.471-21.155-21.155-21.155-11.684 0-21.155 9.472-21.155 21.155 0 11.684 9.471 21.155 21.155 21.155z" fill="#F2F2F2"/><path d="M295.205 160.702c-4.888-.614-8.353-1.294-8.353-1.294l2.886 3.764-2.886 2.259s3.307.73 8.353 1.36v-6.089zm27.594 6.09c5.047-.631 8.355-1.361 8.355-1.361l-2.886-2.259 2.886-3.764s-3.466.681-8.355 1.295v6.089z" fill="#F2F2F2"/><path fill-rule="evenodd" clip-rule="evenodd" d="M292.602 157.039v7.691l.794.225.271-1.113-.271 1.113.007.002.018.005.066.018c.057.016.141.038.249.066.216.057.533.137.937.233.808.192 1.969.447 3.39.702 2.84.509 6.735 1.019 10.939 1.019s8.099-.51 10.939-1.019c1.421-.255 2.582-.51 3.39-.702.404-.096.721-.176.937-.233.108-.028.192-.05.249-.066l.066-.018.018-.005.006-.002s.001 0-.269-1.113l.27 1.113.795-.225v-7.691l-1.307.33-.005.001-.015.004-.065.016c-.058.014-.144.035-.258.062-.227.053-.561.13-.986.223-.85.186-2.061.434-3.5.682-2.886.497-6.658.989-10.265.989s-7.379-.492-10.265-.989c-1.439-.248-2.65-.496-3.5-.682-.425-.093-.759-.17-.986-.223-.114-.027-.2-.048-.258-.062l-.065-.016-.015-.004-.004-.001-1.307-.33z" fill="#225EB7"/><path d="M293.668 158.489s7.963 2.008 15.335 2.008c7.373 0 15.336-2.008 15.336-2.008v5.354s-7.078 2.007-15.336 2.007c-8.257 0-15.335-2.007-15.335-2.007v-5.354z" fill="#F2F2F2"/><path fill-rule="evenodd" clip-rule="evenodd" d="M308.999 160.471c10.668 0 19.316-8.648 19.316-19.316 0-10.667-8.648-19.315-19.316-19.315-10.667 0-19.315 8.648-19.315 19.315 0 10.668 8.648 19.316 19.315 19.316z" fill="#225EB7"/><path fill-rule="evenodd" clip-rule="evenodd" d="M308.999 150.353c5.08 0 9.198-4.118 9.198-9.198s-4.118-9.198-9.198-9.198-9.198 4.118-9.198 9.198 4.118 9.198 9.198 9.198z" fill="#F2F2F2"/><path fill-rule="evenodd" clip-rule="evenodd" d="M326.476 141.155c0 9.652-7.825 17.476-17.477 17.476-9.651 0-17.476-7.824-17.476-17.476s7.825-17.476 17.476-17.476c9.652 0 17.477 7.824 17.477 17.476zm-6.439 0c0 6.096-4.942 11.038-11.038 11.038-6.095 0-11.037-4.942-11.037-11.038s4.942-11.037 11.037-11.037c6.096 0 11.038 4.941 11.038 11.037z" fill="#3D7DDB"/><path fill-rule="evenodd" clip-rule="evenodd" d="M308.999 148.514c4.064 0 7.358-3.295 7.358-7.359s-3.294-7.358-7.358-7.358-7.358 3.294-7.358 7.358 3.294 7.359 7.358 7.359z" fill="#3D7DDB"/></svg>