<?xml version="1.0" encoding="UTF-8"?><svg width="500" height="500" viewBox="0 0 500 500" fill="none" xmlns="http://www.w3.org/2000/svg"><path fill-rule="evenodd" clip-rule="evenodd" d="M203.004 109.223h93.643V21.928h-93.643v87.295z" fill="#5C93C5"/><path fill-rule="evenodd" clip-rule="evenodd" d="M202.863 32.2281h93.459v-14.2h-93.459v14.2z" fill="#393939"/><path fill-rule="evenodd" clip-rule="evenodd" d="M87.5475 75.2585S46.7848 148.059 29 203.029c4.4449 13.375 45.2077 40.86 85.232 37.885 13.34-36.4 24.46-52 24.46-52s2.963-95.0855-51.1445-113.6555zm323.9265 0s40.763 72.8005 58.547 127.7705c-4.444 13.375-45.207 40.86-85.232 37.885-13.339-36.4-24.459-52-24.459-52s-2.964-95.0855 51.144-113.6555z" fill="#6CAAE2"/><path fill-rule="evenodd" clip-rule="evenodd" d="M249.51 57.7025c-50.081 0-47.798-39.4691-48.742-39.14-7.516 2.6187-24.133 14.9368-52.439 25.495-31.873 11.885-52.6256 19.315-60.7821 31.2 11.1148 8.915 46.6941 28.9695 46.6941 120.3445v271.14s49.658 14.856 114.885 14.856c68.929 0 115.649-14.856 115.649-14.856v-271.14c0-91.375 35.579-111.4295 46.699-120.3445-8.157-11.885-28.91-19.315-60.782-31.2-28.36-10.5767-44.982-22.9195-52.479-25.5087-.927-.3203 4.178 39.1537-48.703 39.1537z" fill="#6CAAE2"/><path fill-rule="evenodd" clip-rule="evenodd" d="M467.463 195.302c.936 2.667 1.827 5.303 2.667 7.9-4.445 13.375-45.208 40.86-85.232 37.885-.958-2.614-1.904-5.12-2.836-7.52 20.796-1.358 37.994-5.637 51.595-12.837 13.428-7.109 24.697-15.585 33.806-25.428zm-435.8083 0c9.1031 9.828 20.3606 18.291 33.7724 25.392 13.6109 7.205 30.8241 11.485 51.6389 12.84-.931 2.399-1.877 4.904-2.834 7.516-40.0243 2.975-80.7871-24.51-85.232-37.885.8363-2.584 1.7234-5.209 2.6547-7.863zM307.853 23.345c-5.772-3.24-9.728-5.345-12.008-5.345 0 0 5.882 32.495-46.335 32.495-48.52 0-46.335-32.495-46.335-32.495-2.28 0-6.236 2.105-12.003 5.345 0 0 7.368 40.38 58.403 40.38 51.478 0 58.278-35.895 58.278-40.38z" fill="#3D3D3D"/><path fill-rule="evenodd" clip-rule="evenodd" d="M413.583 238.323c-9.288 2.238-19.065 3.316-28.798 2.592-8.198-22.369-15.557-36.883-20.013-44.748v270.577s-21.102 6.71-55.866 11.111l-.544-.06c1.881-54.795 5.722-166.47 8.276-240.705 2.056-59.755 31.085-95.29 60.099-117.44-2.675 6.781-5.071 14.606-6.999 23.667 7.354 11.852 24.436 42.069 43.831 94.964.005.014.01.028.014.042zM190.715 477.795c-34.247-4.401-56.476-11.051-56.476-11.051V196.172c-4.456 7.867-11.814 22.379-20.01 44.743-9.633.716-19.3084-.332-28.5102-2.524.005-.032.0117-.064.0198-.096 19.3774-52.848 36.3054-83.066 43.6094-94.944-1.928-9.075-4.327-16.912-7.006-23.701 29.014 22.15 58.044 57.685 60.099 117.44 2.554 74.235 6.396 185.91 8.276 240.705h-.002z" fill="#000" fill-opacity=".06"/><path fill-rule="evenodd" clip-rule="evenodd" d="M329.858 138.141c-.082-5.886-1.893-14.37-13.298-17.586 0 2.334 0 3.003-.855 3.433l-6.419-6.419-25.716 25.715 17.197 17.197c-.044.19-.083.368-.118.532.139-.027.32-.067.533-.117l8.104 8.104 25.716-25.716-5.144-5.143zm-.056 2.515l2.628 2.628-1.527 1.527c-.457-.139-.88-.338-1.16-.618-.171-.171-.117-.939-.034-2.106.031-.427.065-.907.093-1.431zm-26.598 19.69l6.082 6.082 5.283-5.283c-.799-.193-1.904-.353-3.01-.132-2.121-.53-3.933-2.916-5.525-5.083-.594 1.002-1.042 2.299-.839 3.72-.666.266-1.352.5-1.991.696zm-1.921-1.92c.569-2.078 1.352-4.4 2.093-5.141l.302-.302c-.258-.252-.51-.459-.756-.607-1.617-.97-4.311.623-5.848 1.841l4.209 4.209zm-7.553-7.554l-7.588-7.588 23.144-23.144 4.444 4.444c-.97.269-1.87.676-2.171 1.88-.454 1.819-3.182 8.638-5 12.274-1.819 3.637-2.344 4.546-.525 5.455 2.273 1.137 2.798.91 8.535-3.182 2.901-.355 2.045 3.345 1.136 6.365-.963 2.727-2.327 4.818-4.146 4.091-1.994-.798-3.289-1.212-4.421-2.369-1.448-1.479-2.175-3.142-4.216-2.632-2.273 1.819-5.848.91-9.192 4.406z" fill="#F2F2F2"/></svg>