<svg xmlns="http://www.w3.org/2000/svg" width="501" height="500" fill="none"><path fill="#06427E" fill-rule="evenodd" d="M203.5 109.22h93.65v-87.3H203.5v87.3Z" clip-rule="evenodd"/><path fill="#0B4D8E" fill-rule="evenodd" d="M203.36 32.23h93.46v-14.2h-93.46v14.2Z" clip-rule="evenodd"/><path fill="#0C559E" fill-rule="evenodd" d="M88.05 75.26s-40.77 72.8-58.55 127.77c4.44 13.37 45.2 40.86 85.23 37.88 13.34-36.4 24.46-52 24.46-52s2.97-95.08-51.14-113.65m323.92 0s40.77 72.8 58.55 127.77c-4.44 13.37-45.2 40.86-85.23 37.88-13.34-36.4-24.46-52-24.46-52s-2.96-95.08 51.14-113.65" clip-rule="evenodd"/><path fill="#0C559E" fill-rule="evenodd" d="M250.01 57.7c-50.08 0-47.8-39.47-48.74-39.14-7.52 2.62-24.13 14.94-52.44 25.5-31.87 11.88-52.63 19.31-60.78 31.2 11.11 8.91 46.7 28.97 46.7 120.34v271.14s49.65 14.86 114.88 14.86c68.93 0 115.65-14.86 115.65-14.86V195.6c0-91.37 35.58-111.43 46.7-120.34-8.16-11.89-28.92-19.32-60.79-31.2-28.36-10.58-44.98-22.92-52.48-25.51-.92-.32 4.18 39.15-48.7 39.15Z" clip-rule="evenodd"/><path fill="#0D5CAB" fill-rule="evenodd" d="M308.35 23.34c-5.77-3.23-9.73-5.34-12-5.34 0 0 5.88 32.5-46.34 32.5-48.52 0-46.34-32.5-46.34-32.5-2.28 0-6.23 2.1-12 5.34 0 0 7.37 40.39 58.4 40.39 51.48 0 58.28-35.9 58.28-40.38Z" clip-rule="evenodd"/><path fill="#000" fill-opacity=".1" fill-rule="evenodd" d="M414.08 238.32a93.76 93.76 0 0 1-28.8 2.6c-8.2-22.37-15.55-36.89-20-44.75v270.57s-21.1 6.71-55.87 11.12l-.55-.06 8.28-240.71c2.06-59.75 31.08-95.29 60.1-117.44a148.7 148.7 0 0 0-7 23.67c7.35 11.85 24.44 42.07 43.83 94.96l.01.04ZM191.22 477.8c-34.25-4.4-56.48-11.06-56.48-11.06V196.17c-4.46 7.87-11.81 22.38-20.01 44.75-9.63.71-19.3-.34-28.51-2.53l.02-.1c19.38-52.84 36.3-83.06 43.6-94.94a148.53 148.53 0 0 0-7-23.7c29.02 22.15 58.05 57.69 60.1 117.44l8.28 240.7Z" clip-rule="evenodd"/><path fill="#0B4D8E" fill-rule="evenodd" d="M309.5 165a22 22 0 1 0 0-44 22 22 0 0 0 0 44Z" clip-rule="evenodd"/><path fill="#fff" fill-rule="evenodd" d="M309.5 163a20 20 0 1 0 0-40 20 20 0 0 0 0 40Z" clip-rule="evenodd"/><path fill="#0B4D8E" fill-rule="evenodd" d="M309.5 161a18 18 0 1 0 0-36 18 18 0 0 0 0 36Z" clip-rule="evenodd"/><path fill="#0C559E" d="M286.4 139.47h46.2v8.82h-46.2v-8.82Z"/><path fill="#fff" fill-rule="evenodd" d="M284.4 137.47h50.2v12.82h-50.2v-12.82Zm2 2v8.82h46.2v-8.82h-46.2Z" clip-rule="evenodd"/><path fill="#0C559E" d="M300.01 139.47h18.98V119.2h-18.98v20.26Z"/><path fill="#fff" fill-rule="evenodd" d="M316.99 137.47h-14.98V121.2h14.98v16.26Zm-16.98 2V119.2h18.98v20.26h-18.98Z" clip-rule="evenodd"/><path fill="#fff" d="m309.03 119.82 3.52.54-11 11-1.23-2.83 8.7-8.71Zm7.85.28 2.03 2.03-16.16 16.16-2.03-2.03zm1.18 6.93.39 3.68-8.4 8.4-3.02-1.04 11.04-11.04Z"/></svg>