<?xml version="1.0" encoding="UTF-8"?><svg width="500" height="500" viewBox="0 0 500 500" xmlns="http://www.w3.org/2000/svg"><g fill="none" fill-rule="evenodd"><path d="M0 0h500v500H0z"/><path fill="#D9D9D9" d="M203.0033 109.223h93.6432V21.928h-93.6432z"/><path fill="#1A3351" d="M202.8636 32.228h93.4586v-14.2h-93.4586z"/><path d="M87.5475 75.2585s-40.7627 72.8-58.5475 127.77c4.445 13.375 45.2077 40.86 85.2322 37.885 13.3398-36.4 24.4596-52 24.4596-52s2.9633-95.085-51.1443-113.655m323.9252 0s40.7628 72.8 58.5475 127.77c-4.445 13.375-45.2077 40.86-85.2321 37.885-13.3399-36.4-24.4597-52-24.4597-52s-2.9633-95.085 51.1443-113.655" fill="#F2F2F2"/><path d="M249.5111 57.7025c-50.0817 0-47.7981-39.469-48.7426-39.14-7.5158 2.6187-24.1326 14.9368-52.4385 25.495-31.8729 11.885-52.626 19.315-60.7825 31.2 11.1149 8.915 46.6944 28.97 46.6944 120.345v271.14s49.6576 14.855 114.885 14.855c68.9291 0 115.6484-14.855 115.6484-14.855v-271.14c0-91.375 35.5795-111.43 46.6994-120.345-8.1566-11.885-28.9096-19.315-60.7825-31.2-28.3599-10.5767-44.9818-22.9194-52.478-25.5106-.9273-.3184 4.1773 39.1556-48.703 39.1556z" fill="#F2F2F2"/><path d="M174.3639 32.5625l190.4114 408.338v25.842l-.8833.2697c-3.9128 1.1692-20.6383 5.9107-46.4228 9.6745l-196.82-422.0745 1.7984-.7249c7.5779-3.0326 16.219-6.2265 25.8824-9.8298 9.4386-3.5206 17.5774-7.2369 24.5125-10.724l1.5214-.771zm133.4877-9.2175c-5.772-3.24-9.728-5.345-12.0078-5.345 0 0 5.8817 32.495-46.3352 32.495-48.5202 0-46.3352-32.495-46.3352-32.495-2.2798 0-6.2358 2.105-12.0028 5.345 0 0 7.3683 40.38 58.4029 40.38 51.4785 0 58.2781-35.895 58.2781-40.38z" fill="#2F5C93"/><path d="M413.5843 238.3227c-9.2877 2.2382-19.0646 3.3161-28.7978 2.5926-8.1978-22.369-15.5572-36.883-20.0128-44.7484v270.5774s-21.1022 6.7098-55.8664 11.1104c-.1817-.0197-.363-.0396-.544-.0597 1.8808-54.795 5.7221-166.47 8.2763-240.705 2.0554-59.755 31.0847-95.29 60.099-117.44-2.6753 6.7806-5.0714 14.6063-6.9991 23.6673 7.354 11.8514 24.4358 42.0687 43.8307 94.964.005.014.0097.0277.014.0414zM190.7166 477.7953c-34.2478-4.4014-56.4763-11.051-56.4763-11.051V196.1721c-4.4558 7.8668-11.8138 22.3792-20.0097 44.7432-9.633.716-19.3087-.3323-28.5106-2.5238a1.113 1.113 0 01.0199-.0967c19.3773-52.8475 36.3054-83.0661 43.6098-94.9437-1.929-9.0753-4.3277-16.912-7.0064-23.7011 29.0144 22.15 58.0437 57.685 60.099 117.44 2.5543 74.235 6.3956 185.91 8.2763 240.7053h-.002z" fill-opacity=".06" fill="#000"/><g transform="translate(293 121)"><path d="M28 4c2.2091 0 4 1.7909 4 4v26c0 3.3137-2.6863 6-6 6h-3c-4 0-6.3333 1.3333-7 4-.6667-2.6667-3-4-7-4H6c-3.3137 0-6-2.6863-6-6V8c0-2.2091 1.7909-4 4-4h24z" fill="#567AA6"/><path d="M8 0c1.3005 0 2.3933.269 3.7826 1.2992 3.4618.7625 8.1992 1.6647 12.7856.3694 5.9076-1.6686 2.8172 2.7887 0 4.57-1.5512.9807-5.5884 1.3246-12.1117 1.0316C11.6287 8.8907 9.944 10 8 10c-2.7614 0-5-2.2386-5-5C3 2.3112 5.1223.1182 7.7831.0046L8 0z" fill="#567AA6"/><path d="M11.762 6.3625C11.2046 7.9008 9.7306 9 8 9 5.7909 9 4 7.2091 4 5c0-2.2091 1.7909-4 4-4 1.0691 0 2.0403.4195 2.758 1.1028 3.1992.35 7.327 1.4482 12.2853.7606l1.034-.1575c5.21-1.7059 2.503 1.7144-.7578 3.0372-1.3999.568-4.7893.7948-10.3799.619l-1.1777.0004z" fill="#F2F2F2"/><path d="M10.1306 5C7.595 4.9781 6.0791 2 8 2c1.921 0 1.332.7716 4.114 1.0341 2.7818.2626 5.5545 1.0142 9.8659.4985l1.3007-.278c4.6563-.7978 1.8541.3106-.9812 1.3028-1.2173.426-4.1645.596-9.0257.4642L10.1307 5z" fill="#567AA6"/><path d="M26.5 6C28.433 6 30 7.6118 30 9.6V33c0 2.9823-2.3505 5.4-5.25 5.4h-2.625c-3.5 0-5.243 0-6.125 2.9757C14.7534 38.4 13.375 38.4 9.875 38.4H7.25C4.3505 38.4 2 35.9823 2 33V9.6C2 7.6118 3.567 6 5.5 6h21z" fill="#F2F2F2"/><circle fill="#567AA6" cx="8" cy="5" r="3"/><path d="M25 8c1.6569 0 3 1.4327 3 3.2V32c0 2.651-2.0147 4.8-4.5 4.8h-2.25c-3 0-4.574 0-5.25 2.577-.6366-2.577-2.25-2.577-5.25-2.577H8.5C6.0147 36.8 4 34.651 4 32V11.2C4 9.4327 5.3431 8 7 8h18z" fill="#567AA6"/><path d="M23.5 10c1.3807 0 2.5 1.2536 2.5 2.8V31c0 2.3196-1.679 4.2-3.75 4.2h-1.875c-2.5 0-3.926 0-4.375 1.8-.4996-1.8-1.875-1.8-4.375-1.8H9.75C7.679 35.2 6 33.3196 6 31V12.8C6 11.2536 7.1193 10 8.5 10h15z" fill="#F2F2F2"/><path d="M8.6388 9.9992l17.343 21.4164c-.1388 1.583-1.0622 2.908-2.3289 3.4806l-17.6531-21.8L6 12.8C6 11.2536 7.1193 10 8.5 10l.1388-.0008z" fill="#2F5C93"/></g></g></svg>