<?xml version="1.0" encoding="UTF-8"?><svg width="500" height="500" viewBox="0 0 500 500" fill="none" xmlns="http://www.w3.org/2000/svg"><path fill-rule="evenodd" clip-rule="evenodd" d="M203.004 109.223h93.643V21.928h-93.643v87.295z" fill="#E1D352"/><path fill-rule="evenodd" clip-rule="evenodd" d="M202.863 32.228h93.459v-14.2h-93.459v14.2z" fill="#183664"/><path fill-rule="evenodd" clip-rule="evenodd" d="M87.5475 75.2585S46.7848 148.059 29 203.029c4.4449 13.375 45.2077 40.86 85.232 37.885 13.34-36.4 24.46-52 24.46-52s2.963-95.0855-51.1445-113.6555zm323.9265 0s40.763 72.8005 58.547 127.7705c-4.444 13.375-45.207 40.86-85.232 37.885-13.339-36.4-24.459-52-24.459-52s-2.964-95.0855 51.144-113.6555z" fill="#F9E95C"/><path fill-rule="evenodd" clip-rule="evenodd" d="M249.51 57.7025c-50.081 0-47.798-39.4691-48.742-39.14-7.516 2.6187-24.133 14.9368-52.439 25.495-31.873 11.885-52.6256 19.315-60.7821 31.2 11.1148 8.915 46.6941 28.9695 46.6941 120.3445v271.14s49.658 14.856 114.885 14.856c68.929 0 115.649-14.856 115.649-14.856v-271.14c0-91.375 35.579-111.4295 46.699-120.3445-8.157-11.885-28.91-19.315-60.782-31.2-28.36-10.5767-44.982-22.9195-52.479-25.5087-.927-.3203 4.178 39.1537-48.703 39.1537z" fill="#F9E95C"/><path fill-rule="evenodd" clip-rule="evenodd" d="M467.463 195.302c.936 2.667 1.827 5.303 2.667 7.9-4.445 13.375-45.208 40.86-85.232 37.885-.958-2.614-1.904-5.12-2.836-7.52 20.796-1.358 37.994-5.637 51.595-12.837 13.428-7.109 24.697-15.585 33.806-25.428zm-435.8083 0c9.1031 9.828 20.3606 18.291 33.7724 25.392 13.6109 7.205 30.8241 11.485 51.6389 12.84-.931 2.399-1.877 4.904-2.834 7.516-40.0243 2.975-80.7871-24.51-85.232-37.885.8363-2.584 1.7234-5.209 2.6547-7.863zM307.853 23.345c-5.772-3.24-9.728-5.345-12.008-5.345 0 0 5.882 32.495-46.335 32.495-48.52 0-46.335-32.495-46.335-32.495-2.28 0-6.236 2.105-12.003 5.345 0 0 7.368 40.38 58.403 40.38 51.478 0 58.278-35.895 58.278-40.38z" fill="#1C3F75"/><path fill-rule="evenodd" clip-rule="evenodd" d="M413.583 238.323c-9.288 2.238-19.065 3.316-28.798 2.592-8.198-22.369-15.557-36.883-20.013-44.748v270.577s-21.102 6.71-55.866 11.111l-.544-.06c1.881-54.795 5.722-166.47 8.276-240.705 2.056-59.755 31.085-95.29 60.099-117.44-2.675 6.781-5.071 14.606-6.999 23.667 7.354 11.852 24.436 42.069 43.831 94.964.005.014.01.028.014.042zM190.715 477.795c-34.247-4.401-56.476-11.051-56.476-11.051V196.172c-4.456 7.867-11.814 22.379-20.01 44.743-9.633.716-19.3084-.332-28.5102-2.524.005-.032.0117-.064.0198-.096 19.3774-52.848 36.3054-83.066 43.6094-94.944-1.928-9.075-4.327-16.912-7.006-23.701 29.014 22.15 58.044 57.685 60.099 117.44 2.554 74.235 6.396 185.91 8.276 240.705h-.002z" fill="#000" fill-opacity=".06"/><path fill-rule="evenodd" clip-rule="evenodd" d="M309.001 163.175c8.914 0 16.14-7.226 16.14-16.14v-18.561c.928-3.469 3.228-6.456 3.228-6.456S316.606 120 309.001 120c-7.605 0-19.368 2.018-19.368 2.018s2.3 2.987 3.228 6.456v18.561c0 8.914 7.226 16.14 16.14 16.14z" fill="#153565"/><path fill-rule="evenodd" clip-rule="evenodd" d="M295.166 150.092l.944 1.132c3.108 3.729 7.701 6.077 12.83 6.077 5.179 0 9.818-2.399 12.923-6.191l.855-1.089.082 1.856c-.26.318-.53.626-.81.925-3.293 3.518-7.921 5.71-13.05 5.71-5.075 0-9.655-2.143-12.944-5.597-.282-.295-.554-.601-.816-.916l-3.934 4.862c4.418 4.875 10.723 7.928 17.719 7.928 7.038 0 13.371-3.086 17.789-8.013l-3.954-4.899-.082-1.856 5.625 6.796-.687.767c-4.635 5.168-11.289 8.416-18.691 8.416-7.358 0-13.982-3.213-18.616-8.326l-.697-.769 5.514-6.813z" fill="#153565"/><path d="M322.796 151.877c-3.32 4.055-8.296 6.635-13.86 6.635-5.509 0-10.436-2.525-13.759-6.513l-3.935 4.862c4.419 4.875 10.723 7.928 17.72 7.928 7.038 0 13.37-3.086 17.789-8.013l-3.955-4.899z" fill="#F7D250"/><path d="M308.081 124.6c-.508 0-.92.412-.92.92v3.108c-1.584.047-3.19.155-4.875.324-1.411.141-2.485 1.328-2.485 2.746v19.582c0 1.016.824 1.84 1.84 1.84h14.72c1.016 0 1.84-.824 1.84-1.84v-19.582c0-1.418-1.075-2.605-2.486-2.746-1.686-.169-3.292-.277-4.874-.324v-3.108c0-.508-.412-.92-.92-.92h-1.84zm-10.122-1.84l.717 1.773 1.908.134-1.465 1.23.462 1.856-1.622-1.013-1.622 1.013.462-1.856-1.465-1.23 1.908-.134.717-1.773zm22.082 0l.717 1.773 1.908.134-1.465 1.23.463 1.856-1.623-1.013-1.622 1.013.462-1.856-1.465-1.23 1.908-.134.717-1.773z" fill="#F7D250"/></svg>