<?xml version="1.0" encoding="UTF-8"?><svg height="500" viewBox="0 0 500 500" width="500" xmlns="http://www.w3.org/2000/svg"><g fill="none" fill-rule="evenodd"><path d="M203.006 109.193h93.643V21.898h-93.643z" fill="silver"/><path d="M202.867 32.198h93.458v-14.2h-93.458z" fill="#363636"/><g fill="#f2f2f2"><path d="M87.55 75.26s-40.762 72.8-58.547 127.77c4.445 13.375 45.208 40.86 85.232 37.885 13.34-36.4 24.46-52 24.46-52S141.658 93.83 87.55 75.26M411.476 75.26s40.762 72.8 58.547 127.77c-4.445 13.375-45.208 40.86-85.232 37.885-13.34-36.4-24.46-52-24.46-52S357.368 93.83 411.476 75.26"/><path d="M249.514 57.706c-50.082 0-47.798-39.47-48.742-39.14-7.516 2.618-24.133 14.936-52.439 25.495-31.873 11.885-52.626 19.315-60.782 31.2 11.114 8.915 46.694 28.97 46.694 120.345v271.14S183.903 481.6 249.13 481.6c68.929 0 115.648-14.855 115.648-14.855v-271.14c0-91.375 35.58-111.43 46.7-120.345-8.157-11.885-28.91-19.315-60.783-31.2-28.36-10.577-44.982-22.92-52.478-25.511-.927-.318 4.177 39.156-48.703 39.156z"/></g><path d="M365.002 183.305c-.147 3.94-.224 8.027-.224 12.267v67.7c-37.68-5.516-75.773-8.274-114.28-8.274-38.341 0-77.093 2.734-116.253 8.203v-67.629c0-4.266-.078-8.377-.227-12.339 39.238-5.489 78.065-8.233 116.48-8.233 38.583 0 76.75 2.768 114.504 8.305z" fill="#3d3d3d"/><path d="M249.576 63.752c51.479 0 58.279-35.895 58.279-40.38-5.772-3.24-9.728-5.345-12.008-5.345 0 0 5.881 32.495-46.335 32.495-48.52 0-46.336-32.495-46.336-32.495-2.28 0-6.235 2.105-12.002 5.345 0 0 7.368 40.38 58.402 40.38" fill="#f2f2f2"/><path d="M290.641 36.51c6.968-8.795 5.206-18.51 5.206-18.51 2.28 0 6.236 2.1 12.008 5.334 0 1.066-5.75 5.455-17.247 13.168l.033.007zm-81.002-.283l-18.465-12.893C196.94 20.1 200.897 18 203.176 18c0 0-.64 9.506 6.475 18.225l-.012.002zM467.461 195.302a338.826 338.826 0 0 1 2.668 7.9c-4.445 13.375-45.208 40.86-85.232 37.885a426.405 426.405 0 0 0-2.836-7.52c20.795-1.358 37.993-5.637 51.595-12.837 13.428-7.11 24.696-15.585 33.805-25.428zM31.655 195.302c9.103 9.828 20.36 18.291 33.772 25.392 13.611 7.205 30.824 11.485 51.64 12.84a426.42 426.42 0 0 0-2.835 7.516C74.208 244.025 33.445 216.54 29 203.165c.836-2.584 1.723-5.209 2.655-7.863z" fill="#3d3d3d"/><g><path d="M291 117h1.015v-4.694c5.863 1.78 11.525 2.67 16.985 2.67s11.106-.89 16.939-2.67V117H327v24.444c0 12.223-6 22.408-18 30.556-12-8.148-18-18.333-18-30.556z" fill="#000"/><path d="M293 114c5.333 1.358 10.667 2.036 16 2.036s10.667-.678 16-2.036v26.473c0 12.218-5.333 22.06-16 29.527-10.667-7.467-16-17.31-16-29.527z" fill="#ffd800"/><path d="M294 121h30v20.312c0 10.667-5 19.896-15 27.688-10-7.792-15-17.021-15-27.688z" fill="#000"/><path d="M287 121h44v18c-7.333-2-14.667-3-22-3s-14.667 1-22 3z" fill="#000"/><path d="M288 122h42v16c-7-2-14-3-21-3s-14 1-21 3z" fill="#fff"/></g><path d="M413.584 238.323c-9.287 2.238-19.064 3.316-28.798 2.592-8.197-22.369-15.557-36.883-20.012-44.748v270.577s-21.102 6.71-55.867 11.11l-.544-.059c1.881-54.795 5.722-166.47 8.277-240.705 2.055-59.755 31.084-95.29 60.099-117.44-2.676 6.78-5.072 14.606-7 23.667 7.354 11.852 24.436 42.069 43.831 94.964l.014.042zM190.717 477.795c-34.248-4.401-56.477-11.05-56.477-11.05V196.171c-4.456 7.867-11.813 22.38-20.01 44.743-9.632.716-19.308-.332-28.51-2.523.005-.033.012-.065.02-.097 19.377-52.848 36.305-83.066 43.61-94.944-1.93-9.075-4.328-16.912-7.007-23.701 29.015 22.15 58.044 57.685 60.1 117.44 2.554 74.235 6.395 185.91 8.276 240.705z" fill="#000" fill-opacity=".06"/></g></svg>