<?xml version="1.0" encoding="UTF-8"?><svg height="500" viewBox="0 0 500 500" width="500" xmlns="http://www.w3.org/2000/svg"><g fill="none" fill-rule="evenodd"><path d="M0 0h500v500H0z"/><path d="M203.003 109.195h93.643V21.9h-93.643z" fill="#b80024"/><path d="M202.864 32.2h93.458V18h-93.458z" fill="#04043b"/><g fill="#cd0029"><path d="M87.548 75.26S46.785 148.06 29 203.03c4.445 13.375 45.208 40.86 85.232 37.885 13.34-36.4 24.46-52 24.46-52S141.655 93.83 87.548 75.26M411.473 75.26s40.763 72.8 58.548 127.77c-4.445 13.375-45.208 40.86-85.232 37.885-13.34-36.4-24.46-52-24.46-52S357.366 93.83 411.473 75.26"/><path d="M249.514 57.706c-50.082 0-47.799-39.47-48.743-39.14-7.516 2.618-24.133 14.936-52.439 25.495-31.872 11.885-52.625 19.315-60.782 31.2 11.115 8.915 46.694 28.97 46.694 120.345v271.14S183.902 481.6 249.13 481.6c68.93 0 115.649-14.855 115.649-14.855v-271.14c0-91.375 35.58-111.43 46.7-120.345-8.157-11.885-28.91-19.315-60.783-31.2-28.36-10.577-44.982-22.92-52.478-25.511-.928-.318 4.177 39.156-48.703 39.156z"/></g><path d="M249.573 63.754c51.479 0 58.279-35.895 58.279-40.38-5.772-3.24-9.728-5.345-12.008-5.345 0 0 5.881 32.495-46.335 32.495-48.52 0-46.336-32.495-46.336-32.495-2.28 0-6.235 2.105-12.002 5.345 0 0 7.368 40.38 58.402 40.38" fill="#0b0b4f"/><path d="M68.717 110.836c10.64-21.092 18.83-35.72 18.83-35.72 8.157-11.885 28.91-19.315 60.783-31.2 28.008-10.447 44.571-22.617 52.198-25.41.186.63.31 3.354 1.13 7.093-7.518 3.04-23.336 14.847-49.942 25.114-30.81 11.885-50.865 19.315-58.747 31.2 0 0-7.812 14.495-17.944 35.245zM430.304 110.836l-6.308 6.322c-10.132-20.75-17.944-35.245-17.944-35.245-7.882-11.885-27.937-19.315-58.747-31.2C320.7 40.446 304.88 28.64 297.363 25.6c.82-3.739.945-6.462 1.13-7.092 7.627 2.792 24.19 14.962 52.198 25.409 31.873 11.885 52.626 19.315 60.783 31.2s8.19 14.628 18.83 35.72z" fill="#0b0b4f"/><path d="M309.023 121c-11.536 0-20.123 3.526-23.072 4.342 2.134 18.323 14.52 32.554 23.072 39.658 8.553-7.104 20.939-21.335 23.073-39.658-2.95-.816-11.537-4.342-23.073-4.342z" fill="#ae9004" fill-rule="nonzero"/><path d="M413.584 238.323c-9.287 2.238-19.064 3.316-28.798 2.592-8.197-22.369-15.557-36.883-20.012-44.748v270.577s-21.102 6.71-55.867 11.11l-.544-.059c1.881-54.795 5.722-166.47 8.277-240.705 2.055-59.755 31.084-95.29 60.099-117.44-2.676 6.78-5.072 14.606-7 23.667 7.354 11.852 24.436 42.069 43.831 94.964l.014.042zM190.717 477.795c-34.248-4.401-56.477-11.05-56.477-11.05V196.171c-4.456 7.867-11.813 22.38-20.01 44.743-9.632.716-19.308-.332-28.51-2.523.005-.033.012-.065.02-.097 19.377-52.848 36.305-83.066 43.61-94.944-1.93-9.075-4.328-16.912-7.007-23.701 29.015 22.15 58.044 57.685 60.1 117.44 2.554 74.235 6.395 185.91 8.276 240.705z" fill="#000" fill-opacity=".1"/></g></svg>