<?xml version="1.0" encoding="UTF-8"?><svg width="500" height="500" viewBox="0 0 500 500" fill="none" xmlns="http://www.w3.org/2000/svg"><path fill-rule="evenodd" clip-rule="evenodd" d="M203.004 109.223h93.643V21.928h-93.643v87.295z" fill="#C8C8C8"/><path fill-rule="evenodd" clip-rule="evenodd" d="M202.863 32.2281h93.459v-14.2h-93.459v14.2z" fill="#2E4583"/><path fill-rule="evenodd" clip-rule="evenodd" d="M87.5475 75.2585S46.7848 148.059 29 203.029c4.4449 13.375 45.2077 40.86 85.232 37.885 13.34-36.4 24.46-52 24.46-52s2.963-95.0855-51.1445-113.6555zm323.9265 0s40.763 72.8005 58.547 127.7705c-4.444 13.375-45.207 40.86-85.232 37.885-13.339-36.4-24.459-52-24.459-52s-2.964-95.0855 51.144-113.6555z" fill="#F2F2F2"/><path fill-rule="evenodd" clip-rule="evenodd" d="M249.51 57.7025c-50.081 0-47.798-39.4691-48.742-39.14-7.516 2.6187-24.133 14.9368-52.439 25.495-31.873 11.885-52.6256 19.315-60.7821 31.2 11.1148 8.915 46.6941 28.9695 46.6941 120.3445v271.14s49.658 14.856 114.885 14.856c68.929 0 115.649-14.856 115.649-14.856v-271.14c0-91.375 35.579-111.4295 46.699-120.3445-8.157-11.885-28.91-19.315-60.782-31.2-28.36-10.5767-44.982-22.9195-52.479-25.5087-.927-.3203 4.178 39.1537-48.703 39.1537z" fill="#4160B1"/><path fill-rule="evenodd" clip-rule="evenodd" d="M113.823 94.44c7.258 9.194 12.408 20.353 16.06 31.733l-51.3031 110.27c-9.412-2.902-18.145-6.894-25.5916-11.248L113.823 94.4399v.0001zm271.468 0v-.0001l60.835 130.7551c-7.447 4.354-16.18 8.346-25.592 11.248l-51.304-110.27c3.653-11.38 8.803-22.539 16.061-31.733z" fill="#4160B1"/><path fill-rule="evenodd" clip-rule="evenodd" d="M170.746 474.795c-7.205-1.314-13.508-2.65-18.746-3.858V65.6575c17.571-6.8855 30.34-14.2918 39-19.1575v431.333c-7.332-.938-14.117-1.979-20.254-3.038zm96.754 6.454c-5.925.227-12.056.352-18.373.352-5.667 0-11.217-.112-16.627-.317V52.0034h35V481.249zM348 66.0383V471.08c-9.506 2.144-22.76 4.706-39 6.765V47.0505c8.798 4.9564 21.579 12.2501 39 18.9878zm-236.193-7.6557l-1.373 5.3904 12.806 6.1658-11.782 5.4941-12.8057-6.1658 1.2081-4.7447c3.4506-2.0847 7.4376-4.1036 11.9466-6.1398zm20.581-8.355l-.954 3.7456 12.806 6.1658-11.782 5.4941-12.806-6.1658 1.206-4.7382c2.876-1.166 5.912-2.3535 9.106-3.577l2.424-.9245zm20.696-7.7996l-.65 2.5452 12.806 6.1658-11.782 5.4941-12.806-6.1659.942-3.6975 6.74-2.5119a241.6963 241.6963 0 004.75-1.8298zm21.152-9.5981l-.802 3.1432 12.806 6.1658-11.782 5.4941-12.806-6.1659.758-2.9759c3.932-1.7577 7.568-3.5077 10.919-5.201l.907-.4603zm215.573 31.1433l-1.212-4.7627c4.577 2.1144 8.587 4.2192 12.015 6.4079l.979 3.8488-12.805 6.1659-11.782-5.4941 12.805-6.1658-1.212-4.7627 1.212 4.7627zm-21-10l-.823-3.2339 2.431.9319c3.2 1.2334 6.237 2.4318 9.109 3.6104l1.065 4.1856-12.805 6.1659-11.782-5.4941 12.805-6.1658zm-21-9l-.513-2.0132c1.114.435 2.247.8678 3.4 1.2977l8.082 3.0129.813 3.1966-12.805 6.1658-11.782-5.494 12.805-6.1658-.513-2.0132.513 2.0132zm-21-9l-.62-2.4358c3.603 1.8118 7.532 3.6854 11.799 5.5612l.603 2.3686-12.805 6.1658-11.782-5.494 12.805-6.1658-.62-2.4358.62 2.4358z" fill="#F2F2F2"/><path fill-rule="evenodd" clip-rule="evenodd" d="M467.463 195.3c.936 2.667 1.827 5.303 2.667 7.9-4.445 13.375-45.208 40.86-85.232 37.885-.958-2.614-1.904-5.12-2.836-7.52 20.796-1.358 37.994-5.637 51.595-12.837 13.428-7.109 24.697-15.585 33.806-25.428zm-435.8083 0c9.1031 9.828 20.3606 18.291 33.7724 25.392 13.6109 7.205 30.8241 11.485 51.6389 12.84-.931 2.399-1.877 4.904-2.834 7.517-40.0243 2.975-80.7871-24.51-85.232-37.885.8363-2.585 1.7234-5.21 2.6547-7.864z" fill="#3D3D3D"/><path fill-rule="evenodd" clip-rule="evenodd" d="M307.853 23.345c-5.772-3.24-9.728-5.345-12.008-5.345 0 0 5.882 32.495-46.335 32.495-48.52 0-46.335-32.495-46.335-32.495-2.28 0-6.236 2.105-12.003 5.345 0 0 7.368 40.38 58.403 40.38 51.478 0 58.278-35.895 58.278-40.38z" fill="#365299"/><path fill-rule="evenodd" clip-rule="evenodd" d="M413.583 238.323c-9.288 2.238-19.065 3.316-28.798 2.592-8.198-22.369-15.557-36.883-20.013-44.748v270.577s-21.102 6.71-55.866 11.111l-.544-.06c1.881-54.795 5.722-166.47 8.276-240.705 2.056-59.755 31.085-95.29 60.099-117.44-2.675 6.781-5.071 14.606-6.999 23.667 7.354 11.852 24.436 42.069 43.831 94.964.005.014.01.028.014.042zM190.715 477.795c-34.247-4.401-56.476-11.051-56.476-11.051V196.172c-4.456 7.867-11.814 22.379-20.01 44.743-9.633.716-19.3084-.332-28.5102-2.524.005-.032.0117-.064.0198-.096 19.3774-52.848 36.3054-83.066 43.6094-94.944-1.928-9.075-4.327-16.912-7.006-23.701 29.014 22.15 58.044 57.685 60.099 117.44 2.554 74.235 6.396 185.91 8.276 240.705h-.002z" fill="#000" fill-opacity=".06"/><path fill-rule="evenodd" clip-rule="evenodd" d="M309 166c12.703 0 23-10.297 23-23s-10.297-23-23-23-23 10.297-23 23 10.297 23 23 23z" fill="#4160B1"/><path fill-rule="evenodd" clip-rule="evenodd" d="M309 164c11.598 0 21-9.402 21-21s-9.402-21-21-21-21 9.402-21 21 9.402 21 21 21z" fill="#F2F2F2"/><path fill-rule="evenodd" clip-rule="evenodd" d="M309 159c8.837 0 16-7.163 16-16s-7.163-16-16-16-16 7.163-16 16 7.163 16 16 16z" fill="#4160B1"/><path d="M308.604 143.309c0 1.341-.237 2.517-.711 3.528-.474 1.011-1.154 1.79-2.04 2.339-.88.549-1.89.824-3.032.824-1.129 0-2.137-.271-3.023-.814-.886-.543-1.572-1.317-2.059-2.321-.486-1.011-.733-2.171-.739-3.481v-.674c0-1.341.24-2.521.721-3.538.486-1.023 1.169-1.806 2.049-2.348.886-.549 1.897-.824 3.032-.824 1.136 0 2.143.275 3.023.824.886.542 1.569 1.325 2.049 2.348.487 1.017.73 2.193.73 3.529v.608zm-2.845-.618c0-1.429-.255-2.514-.767-3.257-.512-.742-1.242-1.113-2.19-1.113-.942 0-1.669.368-2.18 1.104-.512.73-.771 1.803-.777 3.219v.665c0 1.391.256 2.47.767 3.238.512.767 1.248 1.151 2.209 1.151.942 0 1.666-.368 2.171-1.104.505-.743.761-1.822.767-3.238v-.665zm4.885 7.122v-13.626h4.773c1.653 0 2.907.318 3.762.955.855.63 1.282 1.556 1.282 2.779 0 .668-.171 1.257-.514 1.769-.344.505-.821.876-1.432 1.113.698.175 1.247.528 1.647 1.058.405.53.608 1.179.608 1.946 0 1.311-.418 2.303-1.254 2.976-.836.674-2.028 1.017-3.575 1.03h-5.297zm2.808-5.933v3.677h2.405c.661 0 1.176-.155 1.544-.467.374-.319.562-.755.562-1.311 0-1.247-.646-1.881-1.938-1.899h-2.573zm0-1.984h2.077c1.417-.025 2.125-.59 2.125-1.694 0-.618-.181-1.061-.543-1.329-.356-.275-.92-.412-1.694-.412h-1.965v3.435z" fill="#F2F2F2"/></svg>