<?xml version="1.0" encoding="UTF-8"?><svg height="500" viewBox="0 0 500 500" width="500" xmlns="http://www.w3.org/2000/svg"><g fill="none" fill-rule="evenodd"><path d="M0 0h500v500H0z"/><path d="M203.003 109.223h93.643V21.928h-93.643z" fill="#070e2e"/><path d="M202.864 32.228h93.458v-14.2h-93.458z" fill="#0c1646"/><g fill="#0e194e"><path d="M87.548 75.258S46.785 148.058 29 203.029c4.445 13.376 45.208 40.86 85.232 37.886 13.34-36.4 24.46-52 24.46-52s2.963-95.085-51.144-113.655M411.473 75.258s40.762 72.8 58.547 127.77c-4.445 13.376-45.208 40.86-85.232 37.886-13.34-36.4-24.46-52-24.46-52s-2.963-95.085 51.145-113.655"/><path d="M249.511 57.703c-50.082 0-47.798-39.47-48.742-39.14-7.516 2.618-24.133 14.936-52.439 25.495-31.873 11.885-52.626 19.315-60.782 31.2 11.114 8.915 46.694 28.97 46.694 120.345v271.14s49.658 14.855 114.885 14.855c68.929 0 115.648-14.855 115.648-14.855v-271.14c0-91.375 35.58-111.43 46.7-120.345-8.157-11.885-28.91-19.315-60.783-31.2-28.36-10.577-44.982-22.92-52.478-25.511-.927-.318 4.177 39.156-48.703 39.156z"/></g><path d="M364.775 208.03v10H134.242v-10z" fill="#172e69"/><path d="M364.775 198v10H134.242v-10z" fill="#13245d"/><path d="M364.775 218.03v10H134.242v-10z" fill="#1e3d7d"/><path d="M364.775 228.03v10H134.242v-10z" fill="#28549b"/><path d="M364.775 238.03v10H134.242v-10z" fill="#3168b6"/><path d="M364.775 248v218.743s-46.719 14.855-115.648 14.855c-65.227 0-114.885-14.855-114.885-14.855V248z" fill="#3a7dd1"/><path d="M307.852 23.345C302.08 20.105 298.124 18 295.844 18c0 0 5.881 32.495-46.335 32.495-48.52 0-46.336-32.495-46.336-32.495-2.28 0-6.235 2.105-12.002 5.345 0 0 7.368 40.38 58.402 40.38 51.479 0 58.279-35.895 58.279-40.38z" fill="#0e194e"/><g><path d="M289.5 124.911v-1.266l1.144-.542C296.422 120.37 302.547 119 309 119s12.578 1.369 18.356 4.103l1.144.542v1.266c0 14.625-6.04 28.46-18.03 41.446l-1.474 1.596-1.47-1.6C295.539 153.29 289.5 139.457 289.5 124.91zm19.504 37.096c10.015-11.4 15.151-23.324 15.48-35.815C319.586 124.062 314.43 123 309 123c-5.431 0-10.586 1.063-15.483 3.192.33 12.425 5.469 24.349 15.487 35.815z" fill="#fff" fill-rule="nonzero"/><path d="M291.5 124.911c5.51-2.607 11.343-3.911 17.5-3.911s11.99 1.304 17.5 3.911c0 14.092-5.833 27.455-17.5 40.089-11.667-12.711-17.5-26.074-17.5-40.089z" fill="#00569d"/></g><path d="M413.584 238.323c-9.287 2.238-19.064 3.316-28.798 2.592-8.197-22.369-15.557-36.883-20.012-44.748v270.577s-21.102 6.71-55.867 11.11l-.544-.059c1.881-54.795 5.722-166.47 8.277-240.705 2.055-59.755 31.084-95.29 60.099-117.44-2.676 6.78-5.072 14.606-7 23.667 7.354 11.852 24.436 42.069 43.831 94.964l.014.042zM190.717 477.795c-34.248-4.401-56.477-11.05-56.477-11.05V196.171c-4.456 7.867-11.813 22.38-20.01 44.743-9.632.716-19.308-.332-28.51-2.523.005-.033.012-.065.02-.097 19.377-52.848 36.305-83.066 43.61-94.944-1.93-9.075-4.328-16.912-7.007-23.701 29.015 22.15 58.044 57.685 60.1 117.44 2.554 74.235 6.395 185.91 8.276 240.705z" fill="#000" fill-opacity=".1"/></g></svg>