<?xml version="1.0" encoding="UTF-8"?><svg height="500" viewBox="0 0 500 500" width="500" xmlns="http://www.w3.org/2000/svg"><g fill="none" fill-rule="evenodd"><path d="M0 0h500v500H0z"/><g transform="translate(28.003 17.998)"><path d="M175.003 91.195h93.643V3.9h-93.643z" fill="#202b4a"/><path d="M174.864 14.2h93.458V0h-93.458z" fill="#2b3960"/><path d="M59.548 57.262S18.785 130.062 1 185.032c4.445 13.375 45.208 40.86 85.232 37.885 13.34-36.4 24.46-52 24.46-52s2.963-95.085-51.144-113.655M383.473 57.262s40.762 72.8 58.547 127.77c-4.445 13.375-45.208 40.86-85.232 37.885-13.34-36.4-24.46-52-24.46-52s-2.963-95.085 51.145-113.655" fill="#f77315"/><path d="M221.511 39.708c-50.082 0-47.798-39.47-48.742-39.14-7.516 2.618-24.133 14.936-52.439 25.495-31.873 11.885-52.626 19.315-60.782 31.2 11.114 8.915 46.694 28.97 46.694 120.345v271.14s49.658 14.855 114.885 14.855c68.929 0 115.648-14.855 115.648-14.855v-271.14c0-91.375 35.58-111.43 46.7-120.345-8.157-11.885-28.91-19.315-60.783-31.2-28.36-10.577-44.982-22.92-52.478-25.511-.927-.318 4.177 39.156-48.703 39.156z" fill="#30406c"/><circle cx="281" cy="125" fill="#fff" r="22"/><circle cx="281" cy="125" fill="#d97141" r="15"/><circle cx="281" cy="125" fill="#fff" r="11"/><path d="M47.022 99.3c10.132-20.75 17.944-35.245 17.944-35.245 7.882-11.885 27.937-19.315 58.747-31.2 29.359-11.33 45.835-24.635 52.265-25.865-.678-4.5-.798-6.882-.804-6.97-5.927 0-22.98 14.025-54.853 25.91-31.868 11.89-52.62 19.315-60.772 31.2 0 0-8.232 14.76-18.858 35.825C21.554 131.178 8.323 161.87.997 185.03c.3 1.058 1.008 2.41 2.123 4.056s2.05 2.777 2.807 3.396c8.386-23.684 22.084-54.745 41.095-93.18zM395.962 99.324c-10.132-20.75-17.958-35.269-17.958-35.269-7.882-11.885-27.936-19.315-58.747-31.2-29.358-11.33-45.149-24.497-51.58-25.727.68-4.5.326-6.505.19-7.038 5.926 0 22.91 13.955 54.783 25.84 31.867 11.89 52.62 19.315 60.772 31.2 0 0 8.231 14.76 18.857 35.825 18.39 36.305 31.635 66.996 39.738 92.074-.491 1.317-.977 2.346-1.457 3.088-.481.741-1.276 1.804-2.385 3.188-18.428-43.992-32.498-74.652-42.213-91.98z" fill="#f77315"/><path d="M221.573 45.754c51.479 0 58.279-35.895 58.279-40.38-5.772-3.24-9.728-5.345-12.008-5.345 0 0 5.881 32.494-46.335 32.494-48.52 0-46.336-32.495-46.336-32.495-2.28 0-6.235 2.106-12.002 5.346 0 0 7.368 40.38 58.402 40.38" fill="#30406c"/></g><path d="M319.821 141.014c.118.644.179 1.308.179 1.986 0 6.075-4.925 11-11 11-1.08 0-2.122-.155-3.108-.445zm-3.502-6.225a11.056 11.056 0 0 1 1.948 2.282l-16.131 14.525a11.064 11.064 0 0 1-2.068-2.175zM309 132c1.171 0 2.3.183 3.358.522l-14.129 12.722c-.15-.724-.229-1.475-.229-2.244 0-6.075 4.925-11 11-11z" fill="#314376"/><path d="M413.584 238.323c-9.287 2.238-19.064 3.316-28.798 2.592-8.197-22.369-15.557-36.883-20.012-44.748v270.577s-21.102 6.71-55.867 11.11l-.544-.059c1.881-54.795 5.722-166.47 8.277-240.705 2.055-59.755 31.084-95.29 60.099-117.44-2.676 6.78-5.072 14.606-7 23.667 7.354 11.852 24.436 42.069 43.831 94.964l.014.042zM190.717 477.795c-34.248-4.401-56.477-11.05-56.477-11.05V196.171c-4.456 7.867-11.813 22.38-20.01 44.743-9.632.716-19.308-.332-28.51-2.523.005-.033.012-.065.02-.097 19.377-52.848 36.305-83.066 43.61-94.944-1.93-9.075-4.328-16.912-7.007-23.701 29.015 22.15 58.044 57.685 60.1 117.44 2.554 74.235 6.395 185.91 8.276 240.705z" fill="#000" fill-opacity=".1"/></g></svg>