<svg width="500" height="500" viewBox="0 0 500 500" fill="none" xmlns="http://www.w3.org/2000/svg"><path fill-rule="evenodd" clip-rule="evenodd" d="M204 109.2h93.65V21.9H204v87.3Z" fill="silver"/><path fill-rule="evenodd" clip-rule="evenodd" d="M203.87 32.2h93.45V18h-93.45v14.2Z" fill="#D9D9D9"/><path fill-rule="evenodd" clip-rule="evenodd" d="M88.55 75.26S47.8 148.06 30 203.03c4.45 13.38 45.21 40.86 85.23 37.88 13.34-36.4 24.46-52 24.46-52s2.97-95.08-51.14-113.65ZM412.48 75.26s40.76 72.8 58.54 127.77c-4.44 13.38-45.2 40.86-85.23 37.88-13.34-36.4-24.46-52-24.46-52s-2.96-95.08 51.15-113.65" fill="#007B49"/><path fill-rule="evenodd" clip-rule="evenodd" d="M250.51 57.7c-50.08 0-47.8-39.46-48.74-39.13-7.51 2.61-24.13 14.93-52.44 25.5-31.87 11.88-52.62 19.3-60.78 31.2 11.12 8.9 46.7 28.96 46.7 120.34v271.14s49.65 14.85 114.88 14.85c68.93 0 115.65-14.85 115.65-14.85V195.6c0-91.38 35.58-111.43 46.7-120.35-8.16-11.88-28.91-19.31-60.79-31.2-28.35-10.58-44.98-22.92-52.47-25.5-.93-.33 4.17 39.15-48.7 39.15Z" fill="#F2F2F2"/><path d="M122 54.5c-22.8 7.6-32.5 17.83-34 22l13 81c12.33 2 34.5-1.6 24.5-32s-6.5-60-3.5-71ZM379.02 54.5c22.8 7.6 32.5 17.83 34 22l-13 81c-12.33 2-34.5-1.6-24.5-32s6.5-60 3.5-71Z" fill="#007B49"/><path fill-rule="evenodd" clip-rule="evenodd" d="M42.5 169.5c9.1 9.83 20.59 20.4 34 27.5 13.61 7.2 30.82 11.49 51.64 12.84-3.14 6.16-10.64 24.66-12.9 31.21-40.03 2.98-80.8-24.5-85.24-37.88 2.5-8.67 7.5-22.17 12.5-33.67ZM458.5 169.5c-9.1 9.83-20.45 20.4-33.86 27.5a124.74 124.74 0 0 1-51.14 14.5c3 6 10.14 23 12.4 29.55 40.03 2.98 80.8-24.5 85.24-37.88-2.5-8.67-7.64-22.17-12.64-33.67Z" fill="#F2F2F2"/><path fill-rule="evenodd" clip-rule="evenodd" d="M203.87 32.3h93.45v-7.1h-93.45v7.1Z" fill="#01683E"/><path d="M169.5 35.5 191 24s-2 3-2 41v412.5c-8.96-1.21-14.02-1.81-23-3.5 0 0 1-385.5 1-409s2.5-29.5 2.5-29.5ZM331.5 35.5 310 24s2 3 2 41v413c8.96-1.21 14.02-1.81 23-3.5 0 0-1-386-1-409.5s-2.5-29.5-2.5-29.5ZM214 52l24 9v420.5c-10.54-.25-15.91-.78-24-1.5V52ZM265 56l24-7.5V480c-9.4.88-14.63 1.19-24 1.5V56Z" fill="#007B49"/><path fill-rule="evenodd" clip-rule="evenodd" d="M250.58 63.75c51.47 0 58.28-35.9 58.28-40.38-5.78-3.24-9.73-5.34-12.01-5.34 0 0 5.88 32.5-46.34 32.5-48.52 0-46.33-32.5-46.33-32.5-2.28 0-6.24 2.1-12 5.34 0 0 7.36 40.38 58.4 40.38" fill="#E1E1E1"/><path d="M213 53.5c-1.5-5-2.5-11-1.5-16.5 9 8.5 15 10.5 22.5 12 1.5 2 3.5 7 3 14-9.2-1.2-16-4-24-9.5ZM290.1 53.5c1.5-5 1.9-12.5.9-16.5-7 7-15 9.5-21 11.5-3 3.5-4 7.5-4 14 9.2-1.2 16.1-3.5 24.1-9Z" fill="#01683E"/><path d="M328.5 143a18.5 18.5 0 1 1-37 0 18.5 18.5 0 0 1 37 0Z" stroke="#E8D800" stroke-width="7"/><path fill="#E8D800" d="M288 137h44v12h-44z"/><path fill="#004F82" d="M289 138h42v10h-42z"/><path fill-rule="evenodd" clip-rule="evenodd" d="M303 120h14v18l-7 2-7-2v-18Z" fill="#E8D800"/><path fill-rule="evenodd" clip-rule="evenodd" d="M304 121h12v16.2l-6 1.8-6-1.8V121Z" fill="#fff"/><path fill-rule="evenodd" clip-rule="evenodd" d="M304 121h12l-12 16.2V121Z" fill="#008D46"/><path fill-rule="evenodd" clip-rule="evenodd" d="M292 141h36v4h-36v-4Z" fill="#E60000"/><path d="M139.5 47.5s6-2.5 14-5c0 0-4.08 7.5-4.08 47.5l.08 380.5s-7-1-11.08-2.5V248c-2.42-110.5-3-119-3-156.5s4.08-44 4.08-44ZM361.5 47.5s-6-2.5-14-5c0 0 4.08 7.5 4.08 47.5l-.08 380.5s7-1 11.08-2.5V248c2.42-110.5 3-119 3-156.5s-4.08-44-4.08-44Z" fill="#007B49"/><path fill-rule="evenodd" clip-rule="evenodd" d="M414.58 238.32a93.76 93.76 0 0 1-28.8 2.6c-8.2-22.37-15.55-36.89-20-44.75v270.57s-21.1 6.71-55.87 11.12l-.55-.06 8.28-240.71c2.06-59.75 31.08-95.29 60.1-117.44a148.7 148.7 0 0 0-7 23.67c7.35 11.85 24.44 42.07 43.83 94.96l.01.04ZM191.72 477.8c-34.25-4.4-56.48-11.06-56.48-11.06V196.17c-4.46 7.87-11.81 22.38-20.01 44.75-9.63.71-19.3-.34-28.51-2.53l.02-.1c19.38-52.84 36.3-83.06 43.6-94.94a148.53 148.53 0 0 0-7-23.7c29.02 22.15 58.05 57.69 60.1 117.44l8.28 240.7Z" fill="#000" fill-opacity=".15"/></svg>