<svg xmlns="http://www.w3.org/2000/svg" width="501" height="501" fill="none"><path fill="#D9D9D9" fill-rule="evenodd" d="M203.85 109.83h93.65v-87.3h-93.65v87.3Z" clip-rule="evenodd"/><path fill="#E0E0E0" fill-rule="evenodd" d="M203.71 32.84h93.46v-14.2h-93.46v14.2Z" clip-rule="evenodd"/><path fill="#3D3D3D" fill-rule="evenodd" d="M88.4 75.87s-40.77 72.8-58.55 127.77c4.44 13.38 45.2 40.86 85.23 37.89 13.34-36.4 24.46-52 24.46-52s2.97-95.09-51.14-113.66Zm323.92 0s40.76 72.8 58.55 127.77c-4.44 13.38-45.2 40.86-85.23 37.89-13.34-36.4-24.46-52-24.46-52s-2.97-95.09 51.14-113.66Z" clip-rule="evenodd"/><path fill="#F2F2F2" fill-rule="evenodd" d="M250.36 58.31c-50.08 0-47.8-39.47-48.74-39.14-7.52 2.62-24.13 14.94-52.44 25.5-31.87 11.88-52.63 19.31-60.78 31.2 11.11 8.91 46.7 28.97 46.7 120.34v271.14s49.65 14.86 114.88 14.86c68.92 0 115.65-14.86 115.65-14.86V196.21c0-91.37 35.57-111.43 46.7-120.34-8.16-11.89-28.91-19.32-60.79-31.2-28.36-10.58-44.98-22.92-52.48-25.51-.92-.32 4.18 39.15-48.7 39.15Z" clip-rule="evenodd"/><path fill="#F2F2F2" fill-rule="evenodd" d="M114.67 95.05c7.26 9.2 12.41 20.35 16.06 31.73l-51.3 110.27c-9.41-2.9-18.15-6.9-25.6-11.25l60.84-130.75Zm271.47 0 60.84 130.75a123.03 123.03 0 0 1-25.6 11.25l-51.3-110.27c3.65-11.38 8.8-22.54 16.06-31.73Z" clip-rule="evenodd"/><path fill="#3D3D3D" fill-rule="evenodd" d="M265.85 56.98c15.5-2.95 23.66-10.3 28-17.76V480.2c-8.72.8-18.08 1.42-28 1.75V56.98Zm60-23.63c7.19 3.66 15.71 7.6 25.7 11.32l2.3.86v424.99a381.52 381.52 0 0 1-28 5.61V33.35ZM229.6 481.73a465.58 465.58 0 0 1-28-2.14V19.18h.02c.79-.28-.68 27.2 27.98 36.27v426.28Zm-60-6.68a396.2 396.2 0 0 1-28-5.94V47.49l7.58-2.82a242.12 242.12 0 0 0 20.42-8.71v439.1Z" clip-rule="evenodd"/><path fill="#F1F1F1" fill-rule="evenodd" d="M308.7 23.96c-5.77-3.24-9.73-5.35-12-5.35 0 0 5.88 32.5-46.34 32.5-48.52 0-46.34-32.5-46.34-32.5-2.28 0-6.23 2.1-12 5.35 0 0 7.37 40.38 58.4 40.38 51.48 0 58.28-35.9 58.28-40.38Z" clip-rule="evenodd"/><path fill="#FF0909" d="M298.5 140.3c-3.22 19.8 4.85 32.38 12.07 32.38v-32.39H298.5Z"/><path fill="#3D3D3D" d="M310.57 140.3v32.38c7.22 0 16.13-14.96 12.08-32.38h-12.08Z"/><path fill="#BD9600" fill-rule="evenodd" d="M319.14 165.27c2.34-4.25 3.82-10.2 3.82-16.84 0-6.63-1.48-12.59-3.82-16.83-2.37-4.3-5.44-6.6-8.54-6.6-3.12 0-6.19 2.3-8.55 6.6-2.34 4.25-3.82 10.2-3.82 16.84 0 6.63 1.48 12.59 3.82 16.83 2.36 4.3 5.44 6.6 8.55 6.6 3.1 0 6.17-2.3 8.54-6.6Zm-8.54 7.79c7.48 0 13.54-11.03 13.54-24.63s-6.06-24.62-13.54-24.62c-7.49 0-13.56 11.03-13.56 24.63s6.07 24.62 13.56 24.62Z" clip-rule="evenodd"/><path fill="#000" fill-opacity=".1" fill-rule="evenodd" d="M414.43 238.93a93.73 93.73 0 0 1-28.8 2.6c-8.2-22.37-15.55-36.89-20-44.75v270.58s-21.1 6.7-55.87 11.1l-.55-.05 8.28-240.7c2.06-59.76 31.08-95.3 60.1-117.45a148.55 148.55 0 0 0-7 23.67c7.35 11.85 24.44 42.07 43.83 94.96l.01.04ZM191.57 478.41c-34.25-4.4-56.48-11.05-56.48-11.05V196.78c-4.46 7.87-11.81 22.38-20.01 44.75A93.6 93.6 0 0 1 86.57 239l.02-.1c19.38-52.84 36.3-83.06 43.61-94.94a148.63 148.63 0 0 0-7-23.7c29 22.15 58.04 57.69 60.1 117.44l8.27 240.7Z" clip-rule="evenodd"/><path fill="#ADADAD" d="M304.25 131.41h12.87v5.57h-12.87z"/></svg>