<?xml version="1.0" encoding="UTF-8"?><svg width="500" height="500" viewBox="0 0 500 500" fill="none" xmlns="http://www.w3.org/2000/svg"><path fill-rule="evenodd" clip-rule="evenodd" d="M203.003 109.223h93.643V21.928h-93.643v87.295Z" fill="#5A1526"/><path fill-rule="evenodd" clip-rule="evenodd" d="M202.864 32.228h93.458v-14.2h-93.458v14.2Z" fill="#E1E1E1"/><path fill-rule="evenodd" clip-rule="evenodd" d="M87.547 75.258S46.785 148.058 29 203.029c4.445 13.375 45.208 40.86 85.232 37.885 13.34-36.4 24.46-52 24.46-52s2.963-95.085-51.145-113.655Zm323.926 0s40.763 72.8 58.547 127.77c-4.445 13.375-45.207 40.86-85.232 37.885-13.34-36.4-24.46-52-24.46-52s-2.963-95.085 51.145-113.655Z" fill="#6E1C30"/><path fill-rule="evenodd" clip-rule="evenodd" d="M249.511 57.703c-50.082 0-47.798-39.47-48.742-39.14-7.516 2.618-24.133 14.936-52.439 25.494-31.873 11.886-52.626 19.316-60.783 31.2 11.115 8.915 46.695 28.97 46.695 120.345v271.14s49.658 14.856 114.885 14.856c68.929 0 115.648-14.856 115.648-14.856v-271.14c0-91.375 35.58-111.43 46.7-120.345-8.157-11.885-28.91-19.315-60.783-31.2-28.36-10.576-44.982-22.919-52.478-25.508-.927-.32 4.177 39.154-48.703 39.154Z" fill="#6E1C30"/><path fill-rule="evenodd" clip-rule="evenodd" d="M467.353 195.129a337.97 337.97 0 0 1 2.667 7.9c-4.445 13.375-45.208 40.86-85.232 37.885a428.49 428.49 0 0 0-2.835-7.52c20.795-1.358 37.993-5.637 51.594-12.837 13.428-7.109 24.697-15.585 33.806-25.428Zm-435.698.036c9.103 9.828 20.36 18.291 33.772 25.392 13.611 7.205 30.824 11.485 51.639 12.84a420.297 420.297 0 0 0-2.834 7.517c-40.024 2.975-80.787-24.51-85.232-37.885.836-2.585 1.723-5.21 2.655-7.864Zm276.197-171.82C302.08 20.105 298.124 18 295.844 18c0 0 5.882 32.495-46.335 32.495-48.521 0-46.336-32.495-46.336-32.495-2.279 0-6.235 2.105-12.002 5.345 0 0 7.368 40.38 58.403 40.38 51.478 0 58.278-35.895 58.278-40.38Z" fill="#F2F2F2"/><path fill-rule="evenodd" clip-rule="evenodd" d="M413.584 238.323c-9.287 2.238-19.064 3.316-28.798 2.592-8.197-22.369-15.557-36.883-20.012-44.748v270.577s-21.102 6.71-55.867 11.111l-.544-.06c1.881-54.795 5.722-166.47 8.277-240.705 2.055-59.755 31.084-95.29 60.099-117.44-2.676 6.781-5.072 14.606-7 23.667 7.354 11.852 24.436 42.069 43.831 94.964l.014.042ZM190.717 477.795c-34.248-4.401-56.477-11.051-56.477-11.051V196.172c-4.456 7.867-11.813 22.379-20.009 44.743-9.633.716-19.31-.332-28.511-2.523a1.01 1.01 0 0 1 .02-.097c19.377-52.848 36.305-83.066 43.61-94.944-1.929-9.075-4.328-16.912-7.007-23.701 29.015 22.15 58.044 57.685 60.099 117.44 2.555 74.235 6.396 185.91 8.277 240.705h-.002Z" fill="#000" fill-opacity=".1"/><path d="M309 164c-8-2.747-24-11.492-24-24.497 0-16.258 15.114-20.267 24-15.803 8.886-4.464 24-.455 24 15.803 0 13.005-16 21.75-24 24.497Z" fill="#EFBF8B"/><path d="M309 161.789c-7.273-2.457-21.818-10.281-21.818-21.918 0-14.546 13.74-18.133 21.818-14.139 8.078-3.994 21.818-.407 21.818 14.139 0 11.637-14.545 19.461-21.818 21.918Z" fill="#6E1C30"/><path fill-rule="evenodd" clip-rule="evenodd" d="M309 127.763c-7.27-3.524-19.636-.359-19.636 12.476 0 10.268 13.091 17.172 19.636 19.34 6.545-2.168 19.636-9.072 19.636-19.34 0-12.835-12.366-16-19.636-12.476Zm0 29.481c3.065-1.099 7.346-3.166 10.919-6.031 3.891-3.121 6.536-6.845 6.536-10.974 0-5.563-2.607-8.793-5.858-10.381-3.402-1.663-7.615-1.574-10.655-.101l-.942.457-.942-.457c-3.039-1.473-7.253-1.562-10.655.101-3.251 1.588-5.858 4.818-5.858 10.381 0 4.129 2.645 7.853 6.536 10.974 3.573 2.865 7.854 4.932 10.919 6.031Z" fill="#F2F2F2"/><ellipse cx="309" cy="143" rx="6.545" ry="6.632" fill="#F6D7B5"/><path d="m304.392 147.71-5.942 3.793a24.607 24.607 0 0 1-3.348-3.088l7.388-4.716a6.653 6.653 0 0 0 1.902 4.011Zm9.358-.148 5.968 3.81.201-.159c1.161-.932 2.212-1.917 3.114-2.95l-7.504-4.791a6.647 6.647 0 0 1-1.779 4.09Zm1.492-6.563 9.121-8.009a9.918 9.918 0 0 0-3.344-2.914l-8.413 7.388a6.64 6.64 0 0 1 2.636 3.535Zm-9.921-3.485-8.421-7.394a9.93 9.93 0 0 0-3.314 2.94l9.144 8.03a6.645 6.645 0 0 1 2.591-3.576Z" fill="#ADADE6"/></svg>