<?xml version="1.0" encoding="UTF-8"?><svg width="500" height="500" viewBox="0 0 500 500" xmlns="http://www.w3.org/2000/svg"><g fill="none" fill-rule="evenodd"><path d="M0 0h500v500H0z"/><path fill="#D9D9D9" d="M203.0033 109.223h93.6432V21.928h-93.6432z"/><path fill="#393939" d="M202.8636 32.228h93.4586v-14.2h-93.4586z"/><path d="M87.5475 75.2585s-40.7627 72.8-58.5475 127.77c4.445 13.375 45.2077 40.86 85.2322 37.885 13.3398-36.4 24.4596-52 24.4596-52s2.9633-95.085-51.1443-113.655m323.9252 0s40.7628 72.8 58.5475 127.77c-4.445 13.375-45.2077 40.86-85.2321 37.885-13.3399-36.4-24.4597-52-24.4597-52s-2.9633-95.085 51.1443-113.655" fill="#3D3D3D"/><path d="M249.5111 57.7025c-50.0817 0-47.7981-39.469-48.7426-39.14-7.5158 2.6187-24.1326 14.9368-52.4385 25.495-31.8729 11.885-52.626 19.315-60.7825 31.2 11.1149 8.915 46.6944 28.97 46.6944 120.345v271.14s49.6576 14.855 114.885 14.855c68.9291 0 115.6484-14.855 115.6484-14.855v-271.14c0-91.375 35.5795-111.43 46.6994-120.345-8.1566-11.885-28.9096-19.315-60.7825-31.2-28.3599-10.5767-44.9818-22.9194-52.478-25.5106-.9273-.3184 4.1773 39.1556-48.703 39.1556z" fill="#F2F2F2"/><path d="M200.5275 18.5348c.1858.6292.3103 3.3529 1.1306 7.0917-7.5175 3.0394-23.3358 14.847-49.9417 25.1147-30.8103 11.885-50.865 19.315-58.7471 31.2 0 0-7.8124 14.495-17.9444 35.245l-6.3067-6.3234c10.6395-21.0914 18.8293-35.718 18.8293-35.718l.002.0006c8.1546-11.8867 28.9076-19.3167 60.7805-31.2017 28.0071-10.4468 44.5706-22.6165 52.1975-25.4089zm97.9662 0c7.627 2.7924 24.1904 14.9621 52.1975 25.409 31.8728 11.885 52.6259 19.315 60.7804 31.2016l.002-.0007s8.19 14.6267 18.8293 35.718l-6.3066 6.3235c-10.132-20.75-17.9444-35.245-17.9444-35.245-7.8822-11.885-27.9368-19.315-58.747-31.2-26.606-10.2677-42.4243-22.0753-49.9419-25.1147.8204-3.7388.9449-6.4625 1.1307-7.0917z" fill="#3D3D3D"/><path d="M170.7459 474.7916c-5.4564-.995-10.3952-2.0025-14.7459-2.9578V41.0448c15.4749-6.3881 26.936-13.016 34.921-17.5038v454.2784a470.6007 470.6007 0 01-20.1751-3.0278zm96.675-425.8702v432.3277a480.705 480.705 0 01-18.294.3484c-5.6672 0-11.217-.1121-16.6269-.317V48.8783c4.8322 1.0246 10.4583 1.6168 17.0086 1.6168 6.9497 0 12.8702-.5756 17.9124-1.5736zm76.5-7.5073V471.971c-9.0824 1.9359-20.8863 4.0909-34.9209 5.8703V24.047c8.096 4.5613 19.566 11.102 34.921 17.3671z" fill="#3D3D3D"/><path d="M113.8229 94.4353c7.2584 9.1944 12.4088 20.3528 16.0609 31.7331L78.5802 236.4382c-9.412-2.9013-18.145-6.8942-25.5916-11.2482L113.823 94.4353zm271.4682 0L446.1254 225.19c-7.4466 4.354-16.1796 8.3469-25.5916 11.2482l-51.3036-110.2698c3.652-11.3803 8.8025-22.5387 16.061-31.733z" fill="#F2F2F2"/><path d="M307.8516 23.345c-5.772-3.24-9.728-5.345-12.0078-5.345 0 0 5.8817 32.495-46.3352 32.495-48.5202 0-46.3352-32.495-46.3352-32.495-2.2798 0-6.2358 2.105-12.0028 5.345 0 0 7.3683 40.38 58.4029 40.38 51.4785 0 58.2781-35.895 58.2781-40.38z" fill="#3D3D3D"/><path d="M413.5843 238.3227c-9.2877 2.2382-19.0646 3.3161-28.7978 2.5926-8.1978-22.369-15.5572-36.883-20.0128-44.7484v270.5774s-21.1022 6.7098-55.8664 11.1104c-.1817-.0197-.363-.0396-.544-.0597 1.8808-54.795 5.7221-166.47 8.2763-240.705 2.0554-59.755 31.0847-95.29 60.099-117.44-2.6753 6.7806-5.0714 14.6063-6.9991 23.6673 7.354 11.8514 24.4358 42.0687 43.8307 94.964.005.014.0097.0277.014.0414zM190.7166 477.7953c-34.2478-4.4014-56.4763-11.051-56.4763-11.051V196.1721c-4.4558 7.8668-11.8138 22.3792-20.0097 44.7432-9.633.716-19.3087-.3323-28.5106-2.5238a1.113 1.113 0 01.0199-.0967c19.3773-52.8475 36.3054-83.0661 43.6098-94.9437-1.929-9.0753-4.3277-16.912-7.0064-23.7011 29.0144 22.15 58.0437 57.685 60.099 117.44 2.5543 74.235 6.3956 185.91 8.2763 240.7053h-.002z" fill-opacity=".1" fill="#000"/><path d="M287 125.1818v-5.0909c11 0 11-5.0909 22-5.0909s11 5.091 22 5.091v5.0908c0 25.1392-10 38.691-22 45.8182-12-7.1273-22-20.4652-22-45.8182z" fill="#3D3D3D"/><path d="M289 126.4545v-4.7272c10 0 10-4.7273 20-4.7273s10 4.7273 20 4.7273v4.7272c0 23.3436-9.091 35.9273-20 42.5455-10.909-6.6182-20-19.0034-20-42.5455z" fill="#F2F2F2"/><path d="M291 127.7273v-4.3637c9 0 9-4.3636 18-4.3636s9 4.3636 18 4.3636v4.3637c0 21.5478-8.1818 33.1636-18 39.2727-9.8182-6.109-18-17.5416-18-39.2727z" fill="#3D3D3D"/><path fill="#F2F2F2" d="M309 147l-8.229 4.3262 1.5716-9.163-6.6574-6.4894 9.2003-1.337L309 126l4.1145 8.3369 9.2003 1.3369-6.6574 6.4893 1.5716 9.1631z"/></g></svg>