<?xml version="1.0" encoding="UTF-8"?><svg height="500" viewBox="0 0 500 500" width="500" xmlns="http://www.w3.org/2000/svg"><g fill="none" fill-rule="evenodd"><path d="M0 0h500v500H0z"/><path d="M203.607 109.223h93.432V21.928h-93.432z" fill="#ccc535"/><path d="M203.468 32.228h93.248v-14.2h-93.248z" fill="#ded63d"/><g fill="#f8ef45"><path d="M88.411 75.258s-40.67 72.8-58.416 127.77c4.435 13.376 45.106 40.86 85.04 37.886 13.31-36.4 24.405-52 24.405-52s2.957-95.085-51.029-113.655M411.607 75.258s40.67 72.8 58.415 127.77c-4.435 13.376-45.105 40.86-85.04 37.886-13.31-36.4-24.404-52-24.404-52s-2.957-95.085 51.029-113.655"/><path d="M250.01 57.703c-49.969 0-47.69-39.47-48.633-39.14-7.499 2.618-24.078 14.936-52.32 25.495-31.801 11.885-52.508 19.315-60.646 31.2 11.09 8.915 46.59 28.97 46.59 120.345v271.14s49.545 14.855 114.626 14.855c68.773 0 115.388-14.855 115.388-14.855v-271.14c0-91.375 35.499-111.43 46.594-120.345-8.138-11.885-28.845-19.315-60.646-31.2-28.296-10.577-44.88-22.92-52.36-25.511-.925-.318 4.168 39.156-48.593 39.156z"/></g><path d="M467.387 195.33a339.352 339.352 0 0 1 2.661 7.9c-4.435 13.375-45.106 40.86-85.04 37.885-.956-2.614-1.9-5.12-2.83-7.52 20.75-1.358 37.909-5.637 51.48-12.837 13.397-7.11 24.64-15.585 33.729-25.428zM32.562 195.33c9.082 9.828 20.314 18.291 33.696 25.392 13.58 7.205 30.755 11.485 51.523 12.84-.93 2.4-1.873 4.904-2.828 7.516-39.934 2.975-80.605-24.51-85.04-37.885.834-2.584 1.72-5.209 2.649-7.863z" fill="#2c66c4"/><path d="M308.22 23.345c-5.76-3.24-9.707-5.345-11.982-5.345 0 0 5.869 32.495-46.23 32.495-48.411 0-46.231-32.495-46.231-32.495-2.275 0-6.222 2.105-11.976 5.345 0 0 7.352 40.38 58.271 40.38 51.363 0 58.147-35.895 58.147-40.38z" fill="#f8ef45"/><g><path d="M308.822 121.032h.343c2.936.998 6.116 1.667 9.603 1.8 3.5.12 7.299-.316 11.478-1.548l.699-.208v.752c0 5.982-.086 10.879-.46 15.105-.374 4.227-1.03 7.733-2.163 10.93-1.379 3.86-4.045 7.233-7.127 9.975-3.94 3.5-8.586 5.964-12.042 7.076l-.165.05-.166-.05c-3.468-1.106-8.101-3.576-12.048-7.076-3.076-2.735-5.748-6.109-7.127-9.975-1.127-3.197-1.783-6.71-2.157-10.93-.367-4.226-.46-9.123-.46-15.105v-.759l.712.209c4.173 1.238 7.972 1.674 11.471 1.554 3.5-.133 6.674-.802 9.61-1.8z" fill="#1f71b7"/><path d="M308.993 125.004c-2.576.861-5.365 1.45-8.412 1.56-2.937.098-6.127-.235-9.598-1.206.006 4.877.09 8.88.392 12.306.307 3.562.862 6.508 1.815 9.186 1.132 3.164 3.328 5.94 5.883 8.205 3.249 2.885 7.047 4.93 9.92 5.874 2.863-.943 6.667-2.989 9.92-5.874 2.551-2.259 4.747-5.04 5.88-8.205.951-2.678 1.507-5.624 1.814-9.186.301-3.425.38-7.435.391-12.306-3.47.971-6.65 1.304-9.592 1.206-3.053-.11-5.836-.699-8.413-1.56z" fill="#f9dd3a"/></g><path d="M413.584 238.323c-9.287 2.238-19.064 3.316-28.798 2.592-8.197-22.369-15.557-36.883-20.012-44.748v270.577s-21.102 6.71-55.867 11.11l-.544-.059c1.881-54.795 5.722-166.47 8.277-240.705 2.055-59.755 31.084-95.29 60.099-117.44-2.676 6.78-5.072 14.606-7 23.667 7.354 11.852 24.436 42.069 43.831 94.964l.014.042zM190.717 477.795c-34.248-4.401-56.477-11.05-56.477-11.05V196.171c-4.456 7.867-11.813 22.38-20.01 44.743-9.632.716-19.308-.332-28.51-2.523.005-.033.012-.065.02-.097 19.377-52.848 36.305-83.066 43.61-94.944-1.93-9.075-4.328-16.912-7.007-23.701 29.015 22.15 58.044 57.685 60.1 117.44 2.554 74.235 6.395 185.91 8.276 240.705z" fill="#000" fill-opacity=".06"/></g></svg>