<?xml version="1.0" encoding="UTF-8"?><svg height="500" viewBox="0 0 500 500" width="500" xmlns="http://www.w3.org/2000/svg"><g fill="none" fill-rule="evenodd"><path d="M0 0h500v500H0z"/><path d="M203.003 109.223h93.643V21.928h-93.643z" fill="#c8c8c8"/><path d="M202.864 32.228h93.458v-14.2h-93.458z" fill="#048552"/><path d="M87.548 75.258S46.785 148.058 29 203.029c4.445 13.376 45.208 40.86 85.232 37.886 13.34-36.4 24.46-52 24.46-52s2.963-95.085-51.144-113.655M411.473 75.258s40.762 72.8 58.547 127.77c-4.445 13.376-45.208 40.86-85.232 37.886-13.34-36.4-24.46-52-24.46-52s-2.963-95.085 51.145-113.655" fill="#f2f2f2"/><g fill="#07945d"><path d="M138.43 175.894c.419 7.982.262 13.02.262 13.02s-3.526 4.947-8.99 15.77c-16.942-.808-33.498-4.713-49.668-11.715-15.017-6.504-27.22-15.81-36.608-27.917 4.003-9.423 8.237-18.79 12.437-27.72 10.08 10.488 22.224 18.974 36.434 25.457 14.215 6.485 29.593 10.853 46.134 13.105zM106.397 86.458c.62.597 1.249 1.19 1.885 1.778 13.996 13.772 21.578 34.314 25.674 53.258-14.175-5.164-27.416-12.626-39.723-22.386-7.653-6.068-14.078-12.841-19.277-20.319 7.44-14.33 12.592-23.53 12.592-23.53 7.263 2.492 13.497 6.364 18.849 11.199zM455.76 165.052c-9.388 12.108-21.59 21.413-36.608 27.917-16.17 7.002-32.725 10.907-49.668 11.714-5.463-10.822-8.99-15.77-8.99-15.77s-.156-5.037.262-13.02c16.54-2.251 31.919-6.62 46.133-13.104 14.21-6.483 26.355-14.969 36.435-25.457 4.2 8.93 8.434 18.298 12.436 27.72zM424.23 98.79c-5.198 7.477-11.624 14.25-19.276 20.318-12.307 9.76-25.549 17.222-39.724 22.386 4.097-18.944 11.679-39.486 25.674-53.258.637-.588 1.265-1.181 1.886-1.778 5.351-4.835 11.586-8.707 18.849-11.2 0 0 5.152 9.202 12.592 23.531z"/></g><path d="M249.511 57.703c-50.082 0-47.798-39.47-48.742-39.14-7.516 2.618-24.133 14.936-52.439 25.495-31.873 11.885-52.626 19.315-60.782 31.2 11.114 8.915 46.694 28.97 46.694 120.345v271.14s49.658 14.855 114.885 14.855c68.929 0 115.648-14.855 115.648-14.855v-271.14c0-91.375 35.58-111.43 46.7-120.345-8.157-11.885-28.91-19.315-60.783-31.2-28.36-10.577-44.982-22.92-52.478-25.511-.927-.318 4.177 39.156-48.703 39.156z" fill="#f2f2f2"/><path d="M249.511 434c38.472 0 76.894 1.676 115.264 5.027v27.715s-2.105.67-6.08 1.724C322.704 465.488 286.31 464 249.51 464c-36.382 0-72.808 1.455-109.278 4.365-3.897-.996-5.991-1.623-5.991-1.623V438.9c38.867-3.266 77.29-4.899 115.27-4.899zm0-68.2c38.472 0 76.894 1.676 115.265 5.027v29.956c-37.97-3.322-76.392-4.983-115.265-4.983-38.374 0-76.797 1.619-115.27 4.856v-29.957c38.868-3.266 77.291-4.899 115.27-4.899zm0-68.2c38.472 0 76.894 1.676 115.265 5.027v29.956c-37.97-3.322-76.392-4.983-115.265-4.983-38.374 0-76.797 1.619-115.27 4.856v-29.957c38.868-3.266 77.291-4.899 115.27-4.899zm0-68.2c38.472 0 76.894 1.676 115.265 5.027v29.956c-37.97-3.322-76.392-4.983-115.265-4.983-38.374 0-76.797 1.619-115.27 4.856v-29.957c38.868-3.266 77.291-4.899 115.27-4.899zm0-68.2c38.93 0 77.807 1.716 116.632 5.147-.88 8.836-1.368 18.557-1.368 29.256v.58c-37.969-3.322-76.39-4.983-115.264-4.983-38.374 0-76.797 1.619-115.27 4.856v-.453c0-10.752-.492-20.516-1.38-29.39 39.338-3.341 78.221-5.013 116.65-5.013zm0-68.2c45.798 0 91.524 2.374 137.178 7.123-4.815 7.263-9.475 16.568-13.25 28.644C332.652 124.923 291.343 123 249.51 123c-41.27 0-82.597 1.872-123.98 5.616-3.803-12.117-8.495-21.434-13.337-28.697C158.594 95.307 204.366 93 249.511 93zM307.852 23.345C302.08 20.105 298.124 18 295.844 18c0 0 5.881 32.495-46.335 32.495-48.52 0-46.336-32.495-46.336-32.495-2.28 0-6.235 2.105-12.002 5.345 0 0 7.368 40.38 58.402 40.38 51.479 0 58.279-35.895 58.279-40.38z" fill="#07945d"/><path d="M413.584 238.323c-9.287 2.238-19.064 3.316-28.798 2.592-8.197-22.369-15.557-36.883-20.012-44.748v270.577s-21.102 6.71-55.867 11.11l-.544-.059c1.881-54.795 5.722-166.47 8.277-240.705 2.055-59.755 31.084-95.29 60.099-117.44-2.676 6.78-5.072 14.606-7 23.667 7.354 11.852 24.436 42.069 43.831 94.964l.014.042zM190.717 477.795c-34.248-4.401-56.477-11.05-56.477-11.05V196.171c-4.456 7.867-11.813 22.38-20.01 44.743-9.632.716-19.308-.332-28.51-2.523.005-.033.012-.065.02-.097 19.377-52.848 36.305-83.066 43.61-94.944-1.93-9.075-4.328-16.912-7.007-23.701 29.015 22.15 58.044 57.685 60.1 117.44 2.554 74.235 6.395 185.91 8.276 240.705z" fill="#000" fill-opacity=".06"/><circle cx="309" cy="143" fill="#3d3d3d" r="23"/><circle cx="309" cy="143" fill="#008848" r="21"/><circle cx="309" cy="143" fill="#3d3d3d" r="14"/><ellipse cx="309" cy="143" fill="#fff" rx="12.833" ry="13"/><g fill="#008848"><path d="M307.332 140.904c-.334-.539-2.814-2.672-3.775-5.133-.488-1.25.008-2.48 1.254-2.646 3.7-.495 2.515.642 4.397.642 1.882 0 .712-.947 4.13-.642 1.394.124 2.008 1.684 1.395 3.02-.89 1.937-3.632 3.927-4.219 4.759 0 1.07.123 2.096-1.442 2.096s-1.617-.503-1.74-2.096zM307.332 145.096c-.334.539-2.814 2.672-3.775 5.133-.488 1.25.008 2.48 1.254 2.646 3.7.495 2.515-.642 4.397-.642 1.882 0 .712.947 4.13.642 1.394-.124 2.008-1.684 1.395-3.02-.89-1.937-3.632-3.927-4.219-4.759 0-1.07.123-2.096-1.442-2.096s-1.617.503-1.74 2.096z"/><path d="M311.276 141.49c.541-.334 2.684-2.803 5.155-3.76 1.256-.486 2.491.008 2.658 1.249.497 3.684-.645 2.504-.645 4.378s.951.709.645 4.112c-.124 1.388-1.692 2-3.033 1.388-1.946-.886-3.945-3.616-4.78-4.2-1.075 0-2.105.122-2.105-1.436s.505-1.61 2.105-1.732zM307.066 141.49c-.541-.334-2.684-2.803-5.155-3.76-1.255-.486-2.491.008-2.658 1.249-.497 3.684.645 2.504.645 4.378s-.951.709-.645 4.112c.124 1.388 1.692 2 3.033 1.388 1.946-.886 3.945-3.616 4.78-4.2 1.075 0 2.105.122 2.105-1.436 0-1.558-.505-1.61-2.105-1.732z"/></g><path d="M309 115.75l-2.645 1.39.505-2.945-2.14-2.086 2.957-.43L309 109l1.323 2.68 2.957.43-2.14 2.085.505 2.946z" fill="#ebc61a"/></g></svg>