<?xml version="1.0" encoding="UTF-8"?><svg width="500" height="500" viewBox="0 0 500 500" xmlns="http://www.w3.org/2000/svg"><g fill="none" fill-rule="evenodd"><path d="M0 0h500v500H0z"/><path fill="#D9D9D9" d="M203.0033 109.223h93.6432V21.928h-93.6432z"/><path fill="#393939" d="M202.8636 32.228h93.4586v-14.2h-93.4586z"/><path d="M87.5475 75.2585s-40.7627 72.8-58.5475 127.77c4.445 13.375 45.2077 40.86 85.2322 37.885 13.3398-36.4 24.4596-52 24.4596-52s2.9633-95.085-51.1443-113.655m323.9252 0s40.7628 72.8 58.5475 127.77c-4.445 13.375-45.2077 40.86-85.2321 37.885-13.3399-36.4-24.4597-52-24.4597-52s-2.9633-95.085 51.1443-113.655" fill="#F2F2F2"/><path d="M249.5111 57.7025c-50.0817 0-47.7981-39.469-48.7426-39.14-7.5158 2.6187-24.1326 14.9368-52.4385 25.495-31.8729 11.885-52.626 19.315-60.7825 31.2 11.1149 8.915 46.6944 28.97 46.6944 120.345v271.14s49.6576 14.855 114.885 14.855c68.9291 0 115.6484-14.855 115.6484-14.855v-271.14c0-91.375 35.5795-111.43 46.6994-120.345-8.1566-11.885-28.9096-19.315-60.7825-31.2-28.3599-10.5767-44.9818-22.9194-52.478-25.5106-.9273-.3184 4.1773 39.1556-48.703 39.1556z" fill="#F2F2F2"/><path d="M249.593 171c38.5638 0 77.131 2.0537 115.7019 6.1612-.3134 5.3538-.491 10.9975-.5164 16.9474l-.0032 1.4939-.0005 67.504C326.3884 259.0355 288.0718 257 249.825 257c-38.5294 0-77.0573 2.0657-115.5837 6.197l.0007-67.5945c0-6.4745-.1786-12.5909-.5145-18.3706C172.1825 173.0777 210.8049 171 249.5929 171zM201.7883 27.1166l1.7264 3.2146-1.5297.8663c-8.9454 5.0961-22.6162 13.2987-41.8795 20.6997L148.954 56.134c-24.1175 9.1985-40.4568 15.9863-48.1647 25.5979a49.9048 49.9048 0 00-3.3805-1.9139c8.512-11.2394 28.5881-18.5704 58.9056-30.078 19.2587-7.3123 33.0094-15.4687 42.0967-20.6626l-.0102-.0499 1.754-.9978c.5646-.319 1.109-.6237 1.6334-.9131zm-9.2451-2.1038l1.735 3.229-4.2297 2.4198c-8.8458 5.0283-20.9174 11.5776-36.6776 17.5615l-7.955 3.0188c-25.962 9.8705-43.3019 16.8726-51.0184 27.1479a48.7892 48.7892 0 00-2.9256-1.1799l-.7492-.2682c8.011-11.8867 28.3987-19.3167 59.7106-31.2017 19.2587-7.3123 33.0094-15.4687 42.0968-20.6626l-.0103-.0499.0233-.0147zm104.5215 5.8388l1.5808-3.3039 1.5336.8651c.3519.2.7112.405 1.078.6147l-.0103.05 5.0183 2.8729c8.8809 5.0574 21.079 11.7148 37.0785 17.7896l8.7874 3.3354c25.4325 9.6786 42.4613 16.629 50.1248 26.75-1.1632.5936-2.2906 1.2314-3.388 1.9064-8.7555-10.9212-28.6611-18.1972-58.4618-29.5087l-1.7635-.6778c-15.1484-5.8932-26.7827-12.2525-35.3364-17.124l-6.2414-3.5697zM307.0908 25l.0474.0275-.0103.05 5.0183 2.8729c8.8808 5.0574 21.0789 11.7148 37.0785 17.7896l9.839 3.7359c25.4773 9.71 42.351 16.715 49.6275 27.1106l.244.3552a53.144 53.144 0 00-3.6767 1.4463c-8.4742-11.2884-28.5757-18.6276-58.9714-30.1649-16.4412-6.2424-28.868-13.1002-37.8062-18.2046l-2.8014-1.605L307.0908 25z" fill="#3D3D3D"/><path d="M307.8516 23.345c-5.772-3.24-9.728-5.345-12.0078-5.345 0 0 5.8817 32.495-46.3352 32.495-48.5202 0-46.3352-32.495-46.3352-32.495-2.2798 0-6.2358 2.105-12.0028 5.345 0 0 7.3683 40.38 58.4029 40.38 51.4785 0 58.2781-35.895 58.2781-40.38z" fill="#3D3D3D"/><path d="M413.5843 238.3227c-9.2877 2.2382-19.0646 3.3161-28.7978 2.5926-8.1978-22.369-15.5572-36.883-20.0128-44.7484v270.5774s-21.1022 6.7098-55.8664 11.1104c-.1817-.0197-.363-.0396-.544-.0597 1.8808-54.795 5.7221-166.47 8.2763-240.705 2.0554-59.755 31.0847-95.29 60.099-117.44-2.6753 6.7806-5.0714 14.6063-6.9991 23.6673 7.354 11.8514 24.4358 42.0687 43.8307 94.964.005.014.0097.0277.014.0414zM190.7166 477.7953c-34.2478-4.4014-56.4763-11.051-56.4763-11.051V196.1721c-4.4558 7.8668-11.8138 22.3792-20.0097 44.7432-9.633.716-19.3087-.3323-28.5106-2.5238a1.113 1.113 0 01.0199-.0967c19.3773-52.8475 36.3054-83.0661 43.6098-94.9437-1.929-9.0753-4.3277-16.912-7.0064-23.7011 29.0144 22.15 58.0437 57.685 60.099 117.44 2.5543 74.235 6.3956 185.91 8.2763 240.7053h-.002z" fill-opacity=".06" fill="#000"/><g transform="translate(287 121)"><path d="M14.9826 39.6209c-4.0317-1.6226-5.9081.595-8.5548-1.9813s-.5305-4.779-2.0546-8.579C2.8491 25.2607 0 25.5346 0 22s2.6912-3.122 4.3732-7.0703c1.682-3.9484-.4012-5.9262 2.0546-8.471 2.4557-2.5449 4.0903-.3307 8.0667-2.0175C18.4709 2.7544 18.4475 0 22 0l.296.0067c3.2584.1498 3.3467 2.7959 7.2095 4.4345 3.9764 1.6868 5.611-.5274 8.0667 2.0175 2.4558 2.5448.3726 4.5226 2.0546 8.471C41.3088 18.878 44 18.4655 44 22c0 3.5345-2.849 3.2607-4.3732 7.0607-1.5241 3.8.5921 6.0026-2.0546 8.5789-2.6467 2.5763-4.523.3587-8.5548 1.9813-3.9197 1.5775-3.5066 4.2268-6.7319 4.3728L22 44c-3.538 0-2.9857-2.7565-7.0174-4.3791z" fill="#1F1F1F"/><circle fill="#FFF" cx="22" cy="22" r="16"/><circle fill="#1F1F1F" cx="22" cy="22" r="14"/><circle fill="#FFF" cx="22" cy="22" r="12"/><circle fill="#1F1F1F" opacity=".7" cx="22" cy="22" r="11"/><path d="M32.5854 18.998c.27.9543.4146 1.9613.4146 3.002 0 1.04-.1443 2.0464-.4141 3.0001H11.4141A11.008 11.008 0 0111 22c0-1.0407.1445-2.0477.4146-3.002h21.1708z" fill="#1F1F1F"/><path fill="#FFF" opacity=".6" d="M13 21h18v2H13z"/></g></g></svg>