<?xml version="1.0" encoding="UTF-8"?><svg height="500" viewBox="0 0 500 500" width="500" xmlns="http://www.w3.org/2000/svg"><g fill="none" fill-rule="evenodd"><path d="M0 0h500v500H0z"/><path d="M203.006 109.193h93.643V21.898h-93.643z" fill="#c4c4c4"/><path d="M202.867 32.198h93.458v-14.2h-93.458z" fill="#363636"/><path d="M87.55 75.26s-40.762 72.8-58.547 127.77c4.445 13.375 45.208 40.86 85.232 37.885 13.34-36.4 24.46-52 24.46-52S141.658 93.83 87.55 75.26M411.476 75.26s40.762 72.8 58.547 127.77c-4.445 13.375-45.208 40.86-85.232 37.885-13.34-36.4-24.46-52-24.46-52S357.368 93.83 411.476 75.26" fill="#dc0000"/><path d="M249.514 57.706c-50.082 0-47.798-39.47-48.742-39.14-7.516 2.618-24.133 14.936-52.439 25.495-31.873 11.885-52.626 19.315-60.782 31.2 11.114 8.915 46.694 28.97 46.694 120.345v271.14S183.903 481.6 249.13 481.6c68.929 0 115.648-14.855 115.648-14.855v-271.14c0-91.375 35.58-111.43 46.7-120.345-8.157-11.885-28.91-19.315-60.783-31.2-28.36-10.577-44.982-22.92-52.478-25.511-.927-.318 4.177 39.156-48.703 39.156z" fill="#dc0000"/><g fill="#3d3d3d"><path d="M217.998 53.199c7.085 4.762 17.282 8.14 32.002 8.14 14.678 0 24.89-3.013 32.003-7.36v426.465a485.072 485.072 0 0 1-32.387 1.082c-11.04 0-21.634-.421-31.617-1.122zM72.297 212.789c14.658 6.687 30.553 11.123 47.686 13.31a406.388 406.388 0 0 0-5.75 14.815c-40.025 2.975-80.788-24.51-85.233-37.885 1.757-5.432 3.739-11.038 5.884-16.73 10.268 10.965 22.74 19.795 37.413 26.49zM426.889 212.789c14.674-6.695 27.145-15.525 37.414-26.49 2.145 5.692 4.126 11.298 5.884 16.73-4.445 13.375-45.208 40.86-85.233 37.885a406.388 406.388 0 0 0-5.75-14.816c17.132-2.186 33.027-6.622 47.685-13.31z"/><path d="M249.576 63.752c51.479 0 58.279-35.895 58.279-40.38-5.772-3.24-9.728-5.345-12.008-5.345 0 0 5.881 32.495-46.335 32.495-48.52 0-46.336-32.495-46.336-32.495-2.28 0-6.235 2.105-12.002 5.345 0 0 7.368 40.38 58.402 40.38"/></g><path d="M224 126h52v34h-52z" fill="#fff"/><path d="M226 128h48v30h-48z" fill="#ee151f"/><g fill="#000"><circle cx="235" cy="138" r="7"/><path d="M244 128h30v5h-30zM244 138h30v5h-30zM226 148h48v5h-48z"/><path d="M413.584 238.323c-9.287 2.238-19.064 3.316-28.798 2.592-8.197-22.369-15.557-36.883-20.012-44.748v270.577s-21.102 6.71-55.867 11.11l-.544-.059c1.881-54.795 5.722-166.47 8.277-240.705 2.055-59.755 31.084-95.29 60.099-117.44-2.676 6.78-5.072 14.606-7 23.667 7.354 11.852 24.436 42.069 43.831 94.964l.014.042zM190.717 477.795c-34.248-4.401-56.477-11.05-56.477-11.05V196.171c-4.456 7.867-11.813 22.38-20.01 44.743-9.632.716-19.308-.332-28.51-2.523.005-.033.012-.065.02-.097 19.377-52.848 36.305-83.066 43.61-94.944-1.93-9.075-4.328-16.912-7.007-23.701 29.015 22.15 58.044 57.685 60.1 117.44 2.554 74.235 6.395 185.91 8.276 240.705z" fill-opacity=".1"/></g></g></svg>