<?xml version="1.0" encoding="UTF-8"?><svg width="500" height="500" viewBox="0 0 500 500" fill="none" xmlns="http://www.w3.org/2000/svg"><path fill-rule="evenodd" clip-rule="evenodd" d="M203.006 109.193h93.643V21.8979h-93.643v87.2951z" fill="#D12B2B"/><path fill-rule="evenodd" clip-rule="evenodd" d="M202.866 32.198h93.459v-14.2h-93.459v14.2z" fill="#363636"/><path fill-rule="evenodd" clip-rule="evenodd" d="M87.5505 75.26s-40.7628 72.8-58.5476 127.77c4.445 13.375 45.2078 40.86 85.2321 37.885 13.34-36.4 24.46-52 24.46-52S141.658 93.83 87.5505 75.26zm323.9255 0s40.763 72.8 58.547 127.77c-4.445 13.375-45.207 40.86-85.232 37.885-13.34-36.4-24.459-52-24.459-52S357.368 93.83 411.476 75.26z" fill="#E72F2F"/><path fill-rule="evenodd" clip-rule="evenodd" d="M249.514 57.7057c-50.081 0-47.798-39.4691-48.742-39.14-7.516 2.6186-24.133 14.9368-52.439 25.495-31.873 11.885-52.6257 19.315-60.7822 31.2 11.1148 8.915 46.6942 28.9703 46.6942 120.3453v271.14s49.658 14.855 114.885 14.855c68.929 0 115.649-14.855 115.649-14.855v-271.14c0-91.375 35.579-111.4303 46.699-120.3453-8.157-11.885-28.91-19.315-60.783-31.2-28.359-10.5767-44.981-22.9195-52.478-25.5087-.927-.3203 4.178 39.1537-48.703 39.1537z" fill="#F1CF57"/><path fill-rule="evenodd" clip-rule="evenodd" d="M277 52.64c23.414-10.6275 20.497-34.3699 21.217-34.1212 6.598 2.2789 20.265 12.1136 42.783 21.6497V472.552c-15.28 3.129-37.264 6.653-64 8.207V52.64zm-53 428.209c-25.921-1.469-48.149-4.941-64-8.075V39.3225c21.3-9.2457 34.354-18.5539 40.772-20.7899.742-.2587-.51 24.0622 23.228 34.4893V480.849z" fill="#E72F2F"/><path fill-rule="evenodd" clip-rule="evenodd" d="M467.462 195.3c.936 2.667 1.827 5.303 2.667 7.9-4.445 13.375-45.208 40.86-85.232 37.885-.958-2.614-1.904-5.12-2.835-7.52 20.795-1.358 37.993-5.637 51.594-12.837 13.428-7.109 24.697-15.585 33.806-25.428zm-435.8073 0c9.1031 9.828 20.3606 18.291 33.7724 25.392 13.6109 7.205 30.8241 11.485 51.6389 12.84-.931 2.399-1.877 4.904-2.834 7.517-40.0243 2.975-80.7871-24.51-85.232-37.885.8363-2.585 1.7234-5.21 2.6547-7.864zM249.577 63.7516c51.478 0 58.278-35.895 58.278-40.38-5.772-3.24-9.728-5.345-12.008-5.345 0 0 5.882 32.495-46.335 32.495-48.52 0-46.335-32.495-46.335-32.495-2.28 0-6.236 2.105-12.003 5.345 0 0 7.368 40.38 58.403 40.38z" fill="#3D3D3D"/><path fill-rule="evenodd" clip-rule="evenodd" d="M413.584 238.323c-9.288 2.238-19.065 3.316-28.798 2.592-8.198-22.369-15.557-36.883-20.013-44.748v270.577s-21.102 6.71-55.866 11.111l-.544-.06c1.881-54.795 5.722-166.47 8.276-240.705 2.056-59.755 31.085-95.29 60.099-117.44-2.675 6.781-5.071 14.606-6.999 23.667 7.354 11.852 24.436 42.069 43.831 94.964.005.014.01.028.014.042zM190.716 477.795c-34.248-4.401-56.476-11.051-56.476-11.051V196.172c-4.456 7.867-11.814 22.379-20.01 44.743-9.633.716-19.3084-.332-28.5103-2.524a1.056 1.056 0 01.0199-.096c19.3774-52.848 36.3054-83.066 43.6094-94.944-1.928-9.075-4.327-16.912-7.006-23.701 29.014 22.15 58.044 57.685 60.099 117.44 2.554 74.235 6.396 185.91 8.276 240.705h-.002z" fill="#000" fill-opacity=".1"/><path fill-rule="evenodd" clip-rule="evenodd" d="M291 121.909s9-.909 18-.909 18 .909 18 .909V141c0 16.227-18 24-18 24s-18-7.773-18-24v-19.091z" fill="#2B2B2B"/><path fill-rule="evenodd" clip-rule="evenodd" d="M293 124.252s8-.808 16-.808 16 .808 16 .808v16.97c0 14.424-16 21.333-16 21.333s-16-6.909-16-21.333v-16.97z" fill="#FFE42E"/><path d="M303.882 123.542l11.831 34.834c-3.528 2.804-6.713 4.18-6.713 4.18s-16-6.91-16-21.334v-16.97s4.909-.495 10.882-.71z" fill="#2A2A2A"/><path d="M301.91 123.624l12.208 35.946c-2.838 2.001-5.118 2.985-5.118 2.985s-16-6.909-16-21.333v-16.97s3.866-.39 8.91-.628z" fill="#F74040"/><path d="M325 133h-32v-8.748s8-.808 16-.808 16 .808 16 .808V133z" fill="#2A2A2A"/><path d="M325 131h-32v-6.748s8-.808 16-.808 16 .808 16 .808V131z" fill="#F2F2F2"/><rect x="315" y="136" width="6" height="10" rx="3" fill="#C0AB22"/><circle cx="299" cy="139" r="3" fill="#F86F6F"/><circle cx="302" cy="147" r="3" fill="#F86F6F"/><circle cx="307" cy="154" r="3" fill="#F86F6F"/><path fill="#D2D2D2" d="M295 127h28v2h-28z"/></svg>