<?xml version="1.0" encoding="UTF-8"?><svg width="500" height="500" viewBox="0 0 500 500" xmlns="http://www.w3.org/2000/svg"><g fill="none" fill-rule="evenodd"><path d="M0 0h500v500H0z"/><path fill="#D9D9D9" d="M203.0033 109.223h93.6432V21.928h-93.6432z"/><path fill="#393939" d="M202.8636 32.228h93.4586v-14.2h-93.4586z"/><path d="M87.5475 75.2585s-40.7627 72.8-58.5475 127.77c4.445 13.375 45.2077 40.86 85.2322 37.885 13.3398-36.4 24.4596-52 24.4596-52s2.9633-95.085-51.1443-113.655m323.9252 0s40.7628 72.8 58.5475 127.77c-4.445 13.375-45.2077 40.86-85.2321 37.885-13.3399-36.4-24.4597-52-24.4597-52s-2.9633-95.085 51.1443-113.655" fill="#F2F2F2"/><path d="M249.5111 57.7025c-50.0817 0-47.7981-39.469-48.7426-39.14-7.5158 2.6187-24.1326 14.9368-52.4385 25.495-31.8729 11.885-52.626 19.315-60.7825 31.2 11.1149 8.915 46.6944 28.97 46.6944 120.345v271.14s49.6576 14.855 114.885 14.855c68.9291 0 115.6484-14.855 115.6484-14.855v-271.14c0-91.375 35.5795-111.43 46.6994-120.345-8.1566-11.885-28.9096-19.315-60.7825-31.2-28.3599-10.5767-44.9818-22.9194-52.478-25.5106-.9273-.3184 4.1773 39.1556-48.703 39.1556z" fill="#F2F2F2"/><path d="M364.7834 196.1508v270.5637s-2.6152.8315-7.521 2.1011V198.0288c1.6614-.6584 3.103-1.134 4.3249-1.4268.789-.189 1.8545-.3395 3.1961-.4512zM141.75 468.719c-4.8608-1.215-7.5-2.0045-7.5-2.0045v-270.562c1.3318.1116 2.3902.2614 3.1752.4495 1.2219.2928 2.6635.7684 4.3248 1.4268V468.719zm325.6029-273.59c.9359 2.6665 1.8272 5.303 2.6673 7.8995-4.445 13.375-45.2077 40.86-85.2321 37.885a426.4238 426.4238 0 00-2.8354-7.5198c20.795-1.3576 37.9932-5.6366 51.5944-12.8371 13.4282-7.109 24.6968-15.5848 33.8058-25.4277zm-435.6982.036c9.1031 9.8275 20.3606 18.2914 33.7724 25.3916 13.611 7.2056 30.824 11.4856 51.6393 12.84a426.4196 426.4196 0 00-2.8342 7.5169c-40.0245 2.975-80.7873-24.51-85.2322-37.885.8363-2.5849 1.7234-5.2092 2.6547-7.8635zm276.1969-171.82c-5.772-3.24-9.728-5.345-12.0078-5.345 0 0 5.8817 32.495-46.3352 32.495-48.5202 0-46.3352-32.495-46.3352-32.495-2.2798 0-6.2358 2.105-12.0028 5.345 0 0 7.3683 40.38 58.4029 40.38 51.4785 0 58.2781-35.895 58.2781-40.38z" fill="#3D3D3D"/><path d="M413.5843 238.3227c-9.2877 2.2382-19.0646 3.3161-28.7978 2.5926-8.1978-22.369-15.5572-36.883-20.0128-44.7484v270.5774s-21.1022 6.7098-55.8664 11.1104c-.1817-.0197-.363-.0396-.544-.0597 1.8808-54.795 5.7221-166.47 8.2763-240.705 2.0554-59.755 31.0847-95.29 60.099-117.44-2.6753 6.7806-5.0714 14.6063-6.9991 23.6673 7.354 11.8514 24.4358 42.0687 43.8307 94.964.005.014.0097.0277.014.0414zM190.7166 477.7953c-34.2478-4.4014-56.4763-11.051-56.4763-11.051V196.1721c-4.4558 7.8668-11.8138 22.3792-20.0097 44.7432-9.633.716-19.3087-.3323-28.5106-2.5238a1.113 1.113 0 01.0199-.0967c19.3773-52.8475 36.3054-83.0661 43.6098-94.9437-1.929-9.0753-4.3277-16.912-7.0064-23.7011 29.0144 22.15 58.0437 57.685 60.099 117.44 2.5543 74.235 6.3956 185.91 8.2763 240.7053h-.002z" fill-opacity=".06" fill="#000"/><path d="M288.564 120.174c8.6655 2.0967 15.4775 1.372 20.436-2.174l.319.2225c4.9302 3.353 11.6359 4.0036 20.117 1.9514 5.8547 20.5127-5.5907 38.9794-19.9985 47.5688L309 168c-14.6123-8.4739-26.3499-27.1062-20.436-47.826z" fill="#005D9E"/><path d="M291.2797 123.826c7.0899 1.7614 13.6633 1.1527 17.7203-1.826l.261.187c4.0338 2.8165 10.5203 3.3629 17.4593 1.639 3.7903 17.2307-5.5741 32.7427-17.3624 39.958L309 164c-11.9555-7.118-21.559-22.7692-17.7203-40.174z" fill="#FFF"/><path d="M292.2797 125.141c7.0899 1.6775 12.6633 1.0977 16.7203-1.739l.261.178c4.0338 2.6824 9.5203 3.2028 16.4593 1.561 2.7903 16.4102-5.5741 30.3518-16.3624 37.2234l-.3579.2058c-10.9555-6.779-19.559-20.8533-16.7203-37.4292z" fill="#005D9E"/><path d="M313.4543 129.9065c3.7354 4.636 2.3257 12.7052 7.5626 17.6759l.0007 2.7298c-3.0287 5.0365-7.1306 9.1674-11.6597 12.0522l-.3579.2058c-3.6239-2.2424-6.9904-5.283-9.7705-8.9482l.4953-.626c3.0418-3.809 5.4024-6.2408 7.0818-7.2955l-.0255-.7326c-.0703-2.6085.1177-4.3619.564-5.26l-1.3016.0123c-2.6278.011-4.005-.0796-4.1318-.2715-.2036-.3084-.2182-.8596-.0436-1.759l.1747-.8531c.1356-.6904.2698-1.48.2698-1.8823h-1.1883l.5807-.6188c.7515-.812 1.1459-1.3054 1.4681-1.9376.3086-.6053.4474-1.4985.6544-1.8846.473-.8825 5.8914-5.2427 9.6268-.6068z" fill="#212121"/><path d="M303.7194 130.7708l-.0366.11-.0933.3129 7.0676 2.4331c.1698.2315.3049.4685.3964.7087.9648 2.5306 1.3962 8.9032 6.633 13.874l3.3311 2.1027c-3.0287 5.0365-7.1306 9.1674-11.6597 12.0522l-.3579.2058c-3.6239-2.2424-6.9904-5.283-9.7705-8.9482l.4953-.626.6196-.7683c2.7445-3.3696 4.8986-5.5453 6.4622-6.5272l-.0255-.7326c-.0703-2.6085.1177-4.3619.564-5.26l-1.3016.0123-1.124-.0022c-1.898-.0171-2.9006-.1069-3.0078-.2693-.2036-.3084-.2182-.8596-.0436-1.759l.1747-.8531.0888-.4696c.0998-.5526.181-1.0998.181-1.4127h-1.1883l.5807-.6188.3762-.414c.5163-.582.8283-1.0063 1.092-1.5236.2521-.4947.3909-1.1817.5462-1.627z" fill="#BEA487"/><path d="M304.8464 129.5131l10.3345 3.5572c.2817.757.5155 1.5504.7282 2.3657l-12.3196-4.2423.0933-.3128c.0464-.1456.0935-.2721.1447-.3676.108-.2015.474-.5844 1.0189-1.0002z" fill="#FFF"/><path fill="#E41D11" d="M287 147h44v8h-44z"/><path fill="#FFF" opacity=".5" d="M288 148h42v6h-42z"/></g></svg>