<?xml version="1.0" encoding="UTF-8"?><svg width="500" height="500" viewBox="0 0 500 500" xmlns="http://www.w3.org/2000/svg"><g fill="none" fill-rule="evenodd"><path d="M0 0h500v500H0z"/><path fill="#D9D9D9" d="M203.0033 109.223h93.6432V21.928h-93.6432z"/><path fill="#393939" d="M202.8636 32.228h93.4586v-14.2h-93.4586z"/><path d="M87.5475 75.2585s-40.7627 72.8-58.5475 127.77c4.445 13.375 45.2077 40.86 85.2322 37.885 13.3398-36.4 24.4596-52 24.4596-52s2.9633-95.085-51.1443-113.655m323.9252 0s40.7628 72.8 58.5475 127.77c-4.445 13.375-45.2077 40.86-85.2321 37.885-13.3399-36.4-24.4597-52-24.4597-52s-2.9633-95.085 51.1443-113.655" fill="#F2F2F2"/><path d="M249.5111 57.7025c-50.0817 0-47.7981-39.469-48.7426-39.14-7.5158 2.6187-24.1326 14.9368-52.4385 25.495-31.8729 11.885-52.626 19.315-60.7825 31.2 11.1149 8.915 46.6944 28.97 46.6944 120.345v271.14s49.6576 14.855 114.885 14.855c68.9291 0 115.6484-14.855 115.6484-14.855v-271.14c0-91.375 35.5795-111.43 46.6994-120.345-8.1566-11.885-28.9096-19.315-60.7825-31.2-28.3599-10.5767-44.9818-22.9194-52.478-25.5106-.9273-.3184 4.1773 39.1556-48.703 39.1556z" fill="#3D3D3D"/><path d="M162 38.4436v434.7205c-10.4524-2.0163-18.3517-3.935-23-5.1477V47.508c2.9961-1.1207 6.1076-2.2778 9.333-3.4805A239.851 239.851 0 00162 38.4436zm50 6.4245v435.1434a473.937 473.937 0 01-25-2.7413V25.72c6.196-3.4783 10.7293-6.1274 13.7715-7.1895.5847-.2016-.0676 14.8436 11.2285 26.3377zm50 11.9663V481.395a480.243 480.243 0 01-12.87.1725c-4.108 0-8.1541-.059-12.13-.1693V56.7356c3.7586.6041 7.9156.9369 12.5141.9369 4.5838 0 8.7318-.2966 12.486-.8382v.0001zm50-31.1298v451.7167c-7.6553 1.022-16.0171 1.9402-25 2.6513V46.0858c12.5076-11.6196 10.6226-27.773 11.2171-27.5708 3.0378 1.052 7.5741 3.7033 13.7829 7.1896zm48 21.7928v420.5894c-4.6151 1.2536-12.4548 3.2176-23 5.2624V38.4318a239.794 239.794 0 0013.6952 5.5957c3.2153 1.199 6.3174 2.3525 9.3048 3.47z" fill="#F2F2F2"/><path d="M467.4614 195.302c.936 2.6666 1.8273 5.303 2.6674 7.8996-4.445 13.375-45.2077 40.86-85.2322 37.885a426.405 426.405 0 00-2.8354-7.5199c20.7951-1.3576 37.9933-5.6366 51.5945-12.837 13.4282-7.109 24.6968-15.5848 33.8057-25.4277zm-435.8067 0c9.1031 9.8275 20.3606 18.2914 33.7724 25.3916 13.611 7.2056 30.824 11.4856 51.6393 12.84a426.4198 426.4198 0 00-2.8342 7.5169c-40.0245 2.975-80.7873-24.51-85.2322-37.885.8363-2.5849 1.7234-5.2092 2.6547-7.8635zM307.8516 23.345c-5.772-3.24-9.728-5.345-12.0078-5.345 0 0 5.8817 32.495-46.3352 32.495-48.5202 0-46.3352-32.495-46.3352-32.495-2.2798 0-6.2358 2.105-12.0028 5.345 0 0 7.3683 40.38 58.4029 40.38 51.4785 0 58.2781-35.895 58.2781-40.38z" fill="#3D3D3D"/><path d="M413.5843 238.3227c-9.2877 2.2382-19.0646 3.3161-28.7978 2.5926-8.1978-22.369-15.5572-36.883-20.0128-44.7484v270.5774s-21.1022 6.7098-55.8664 11.1104c-.1817-.0197-.363-.0396-.544-.0597 1.8808-54.795 5.7221-166.47 8.2763-240.705 2.0554-59.755 31.0847-95.29 60.099-117.44-2.6753 6.7806-5.0714 14.6063-6.9991 23.6673 7.354 11.8514 24.4358 42.0687 43.8307 94.964.005.014.0097.0277.014.0414zM190.7166 477.7953c-34.2478-4.4014-56.4763-11.051-56.4763-11.051V196.1721c-4.4558 7.8668-11.8138 22.3792-20.0097 44.7432-9.633.716-19.3087-.3323-28.5106-2.5238a1.113 1.113 0 01.0199-.0967c19.3773-52.8475 36.3054-83.0661 43.6098-94.9437-1.929-9.0753-4.3277-16.912-7.0064-23.7011 29.0144 22.15 58.0437 57.685 60.099 117.44 2.5543 74.235 6.3956 185.91 8.2763 240.7053h-.002z" fill-opacity=".1" fill="#000"/><g fill-rule="nonzero"><path d="M309 170s-23-11.5-23-48c0 0 17.5-6 23-6s23 6 23 6c0 36.5-23 48-23 48z" fill="#F2F2F2"/><path d="M309 167.652s-21-10.5-21-43.826c0 0 15.9783-5.4783 21-5.4783 5.0217 0 21 5.4782 21 5.4782 0 33.3261-21 43.8261-21 43.8261z" fill="#1B2234"/><path d="M309 166.478s-20-12-20-41.7391c0 0 15.2174-5.2174 20-5.2174s20 5.2174 20 5.2174c0 29.7391-20 41.7391-20 41.7391z" fill="#F2F2F2"/><path d="M297 123.4115c-3.8342 1.155-7 2.2403-7 2.2403 0 11.2103 3.215 19.9074 7 26.262v-28.5023zm17 37.5933c-2.8518 2.8972-5 4.2992-5 4.2992s-2.1482-1.402-5-4.2992v-39.5083c2.0414-.4795 3.8424-.8012 5-.8012s2.9586.3217 5 .8012v39.5083zm7-37.5933c3.8342 1.155 7 2.2403 7 2.2403 0 11.2103-3.215 19.9074-7 26.262v-28.5023z" fill="#1B2234"/><path d="M297 130.5h24l5 12s-8 1-17 1-17-1-17-1l5-12z" fill="#F2F2F2"/><path d="M297 130.5h24l5 12s-8 1-17 1-17-1-17-1l5-12z" fill="#F2F2F2"/><path d="M298.4118 132h20.6764l4.4118 8.8077s-6.5588.6923-14.5.6923-14.5-.6923-14.5-.6923L298.4118 132z" fill="#1B2234"/></g></g></svg>