<?xml version="1.0" encoding="UTF-8"?><svg height="500" viewBox="0 0 500 500" width="500" xmlns="http://www.w3.org/2000/svg"><g fill="none" fill-rule="evenodd"><path d="M203.006 109.193h93.643V21.898h-93.643z" fill="#320e61"/><path d="M202.867 32.198h93.458v-14.2h-93.458z" fill="#d9d9d9"/><path d="M87.55 75.26s-40.762 72.8-58.547 127.77c4.445 13.375 45.208 40.86 85.232 37.885 13.34-36.4 24.46-52 24.46-52S141.658 93.83 87.55 75.26M411.476 75.26s40.762 72.8 58.547 127.77c-4.445 13.375-45.208 40.86-85.232 37.885-13.34-36.4-24.46-52-24.46-52S357.368 93.83 411.476 75.26" fill="#41147e"/><path d="M249.514 57.706c-50.082 0-47.798-39.47-48.742-39.14-7.516 2.618-24.133 14.936-52.439 25.495-31.873 11.885-52.626 19.315-60.782 31.2 11.114 8.915 46.694 28.97 46.694 120.345v271.14S183.903 481.6 249.13 481.6c68.929 0 115.648-14.855 115.648-14.855v-271.14c0-91.375 35.58-111.43 46.7-120.345-8.157-11.885-28.91-19.315-60.783-31.2-28.36-10.577-44.982-22.92-52.478-25.511-.927-.318 4.177 39.156-48.703 39.156z" fill="#41147e"/><g fill="#f2f2f2"><path d="M467.461 195.302a338.826 338.826 0 0 1 2.668 7.9c-4.445 13.375-45.208 40.86-85.232 37.885a426.405 426.405 0 0 0-2.836-7.52c20.795-1.358 37.993-5.637 51.595-12.837 13.428-7.11 24.696-15.585 33.805-25.428zM31.655 195.302c9.103 9.828 20.36 18.291 33.772 25.392 13.611 7.205 30.824 11.485 51.64 12.84a426.42 426.42 0 0 0-2.835 7.516C74.208 244.025 33.445 216.54 29 203.165c.836-2.584 1.723-5.209 2.655-7.863zM203.964 27.775c-9.027 4.858-24.145 14.369-46.657 22.766-31.873 11.885-52.626 19.315-60.783 31.2s-11.078 19.785-24.203 46.514a53.573 53.573 0 0 1-3.11-2.24C82.39 99.163 93.534 79.26 93.534 79.26v-.001c8.157-11.885 28.91-19.315 60.782-31.2 19.604-7.313 33.6-15.469 42.85-20.663a4.492 4.492 0 0 1-.009-.05 189.62 189.62 0 0 1 5.058-2.769z"/><path d="M66.335 124.255a53.573 53.573 0 0 1-3.11-2.24C76.402 95.163 87.548 75.26 87.548 75.26v-.001c8.156-11.885 28.91-19.315 60.782-31.2 19.603-7.313 33.6-15.469 42.85-20.663a4.492 4.492 0 0 1-.01-.05c.14-.078.277-.136.414-.176 3.911-2.192 6.95-3.828 9.185-4.607.177-.061.24 1.28.558 3.502-2.367 1.116-5.341 2.79-8.965 4.832-9.23 5.202-22.676 12.794-41.042 19.645-31.873 11.885-52.626 19.315-60.782 31.2S79.46 97.527 66.335 124.256zM297.334 29.027l1.76-3.22c.87.478 1.79.992 2.762 1.538l-.01.05c9.25 5.194 23.248 13.35 42.85 20.663 31.874 11.885 52.627 19.315 60.783 31.2s11.145 19.905 24.323 46.757a53.573 53.573 0 0 1-3.11 2.24c-13.125-26.729-24.203-46.513-24.203-46.513v-.001c-8.157-11.885-28.91-19.315-60.782-31.2-20.711-7.726-35.164-16.393-44.373-21.514z"/><path d="M432.679 124.255c-13.126-26.729-24.204-46.513-24.204-46.513v-.001c-8.156-11.885-28.91-19.315-60.782-31.2-25.575-9.54-41.608-20.517-50.007-24.477.318-2.221.381-3.563.559-3.502 2.31.806 5.481 2.528 9.588 4.833l.01-.05-.01.05c9.25 5.194 23.247 13.35 42.85 20.662 31.873 11.885 52.626 19.315 60.783 31.2v.001s11.145 19.905 24.322 46.757a53.573 53.573 0 0 1-3.11 2.24z"/><path d="M249.576 63.752c51.479 0 58.279-35.895 58.279-40.38-5.772-3.24-9.728-5.345-12.008-5.345 0 0 5.881 32.495-46.335 32.495-48.52 0-46.336-32.495-46.336-32.495-2.28 0-6.235 2.105-12.002 5.345 0 0 7.368 40.38 58.402 40.38"/></g><path d="M309 168c12.15 0 22-9.85 22-22v-28h-44v28c0 12.15 9.85 22 22 22z" fill="#fff"/><path d="M309 164.59c10.493 0 19-8.506 19-19v-24.18h-38v24.18c0 10.494 8.507 19 19 19z" fill="#502990"/><g fill="#dac979"><path d="M298 129.5l-1.763.927.336-1.963-1.426-1.391 1.971-.287L298 125l.882 1.786 1.971.287-1.426 1.39.336 1.964zM309 129.5l-1.763.927.336-1.963-1.426-1.391 1.971-.287L309 125l.882 1.786 1.971.287-1.426 1.39.336 1.964zM320 129.5l-1.763.927.336-1.963-1.426-1.391 1.971-.287L320 125l.882 1.786 1.971.287-1.426 1.39.336 1.964z"/></g><path d="M309 160c7.732 0 14-6.268 14-14v-13h-28v13c0 7.732 6.268 14 14 14z" fill="#e3c9ee"/><path d="M413.584 238.323c-9.287 2.238-19.064 3.316-28.798 2.592-8.197-22.369-15.557-36.883-20.012-44.748v270.577s-21.102 6.71-55.867 11.11l-.544-.059c1.881-54.795 5.722-166.47 8.277-240.705 2.055-59.755 31.084-95.29 60.099-117.44-2.676 6.78-5.072 14.606-7 23.667 7.354 11.852 24.436 42.069 43.831 94.964l.014.042zM190.717 477.795c-34.248-4.401-56.477-11.05-56.477-11.05V196.171c-4.456 7.867-11.813 22.38-20.01 44.743-9.632.716-19.308-.332-28.51-2.523.005-.033.012-.065.02-.097 19.377-52.848 36.305-83.066 43.61-94.944-1.93-9.075-4.328-16.912-7.007-23.701 29.015 22.15 58.044 57.685 60.1 117.44 2.554 74.235 6.395 185.91 8.276 240.705z" fill="#000" fill-opacity=".1"/></g></svg>