<?xml version="1.0" encoding="UTF-8"?><svg height="500" viewBox="0 0 500 500" width="500" xmlns="http://www.w3.org/2000/svg"><g fill="none" fill-rule="evenodd"><path d="M203.006 109.193h93.643V21.898h-93.643z" fill="#cc2c32"/><path d="M202.867 32.198h93.458v-14.2h-93.458z" fill="#098e3a"/><g fill="#ed353c"><path d="M87.55 75.26s-40.762 72.8-58.547 127.77c4.445 13.375 45.208 40.86 85.232 37.885 13.34-36.4 24.46-52 24.46-52S141.658 93.83 87.55 75.26M411.476 75.26s40.762 72.8 58.547 127.77c-4.445 13.375-45.208 40.86-85.232 37.885-13.34-36.4-24.46-52-24.46-52S357.368 93.83 411.476 75.26"/><path d="M249.514 57.706c-50.082 0-47.798-39.47-48.742-39.14-7.516 2.618-24.133 14.936-52.439 25.495-31.873 11.885-52.626 19.315-60.782 31.2 11.114 8.915 46.694 28.97 46.694 120.345v271.14S183.903 481.6 249.13 481.6c68.929 0 115.648-14.855 115.648-14.855v-271.14c0-91.375 35.58-111.43 46.7-120.345-8.157-11.885-28.91-19.315-60.783-31.2-28.36-10.577-44.982-22.92-52.478-25.511-.927-.318 4.177 39.156-48.703 39.156z"/></g><path d="M119.982 226.098a407.766 407.766 0 0 0-5.75 14.815c-40.024 2.975-80.787-24.51-85.232-37.885 1.757-5.43 3.739-11.036 5.883-16.728 10.27 10.965 22.741 19.794 37.414 26.489 14.658 6.687 30.553 11.123 47.685 13.31zM379.205 226.098c17.131-2.186 33.026-6.622 47.684-13.31 14.673-6.694 27.145-15.523 37.414-26.488 2.145 5.692 4.126 11.297 5.884 16.728-4.445 13.375-45.208 40.86-85.233 37.885a407.768 407.768 0 0 0-5.75-14.815z" fill="#0a9b3f"/><path d="M467.461 195.302a338.826 338.826 0 0 1 2.668 7.9c-4.445 13.375-45.208 40.86-85.232 37.885a426.405 426.405 0 0 0-2.836-7.52c20.795-1.358 37.993-5.637 51.595-12.837 13.428-7.11 24.696-15.585 33.805-25.428zM31.655 195.302c9.103 9.828 20.36 18.291 33.772 25.392 13.611 7.205 30.824 11.485 51.64 12.84a426.42 426.42 0 0 0-2.835 7.516C74.208 244.025 33.445 216.54 29 203.165c.836-2.584 1.723-5.209 2.655-7.863zM249.576 63.752c51.479 0 58.279-35.895 58.279-40.38-5.772-3.24-9.728-5.345-12.008-5.345 0 0 5.881 32.495-46.335 32.495-48.52 0-46.336-32.495-46.336-32.495-2.28 0-6.235 2.105-12.002 5.345 0 0 7.368 40.38 58.402 40.38" fill="#e0bc00"/><path d="M202.867 32.298h93.458v-7.1h-93.458z" fill="#cead00"/><path d="M195.09 21.208c3.69-1.982 6.365-3.181 8.086-3.181 0 0-2.185 32.495 46.336 32.495 52.216 0 46.335-32.495 46.335-32.495 1.785 0 4.597 1.29 8.504 3.405-7.174 24.48-25.349 36.72-54.523 36.72-29.263 0-47.51-12.314-54.738-36.944z" fill="#0a9b3f"/><g><path d="M303.181 156.837c20.1-1.685 30.705-12.322 29.454-19.244-.82-4.543-14.346-4.435-22.857-4.435-5.885 0-17.201.368-21.16.86-3.96.49-3.532.49-6.126 1.037 8.83 1.31 17.283 2.61 20.384 9.644 2.439 5.532-3.875 8.911-18.941 10.137 1.227 1.794 15.654 2.302 19.246 2.001z" fill="#fff"/><path d="M303.181 156.122c11.777-1.233 20.836-12.373 20.4-18.604-.1-1.436-1.038-2.47-2.615-3.194 6.16.174 10.374 1.219 10.568 3.998.393 5.622-9.475 14.146-20.917 16.711-2.483.557-5.034.985-7.436 1.089z" fill="#ffe100"/><path d="M286.24 155.27c.922-.037 1.875-.089 2.86-.157 18.046-1.259 24.552-11.24 24.107-17.595-.102-1.462-1.186-2.5-3.015-3.212 6.579.109 11.14 1.122 11.342 4.016.393 5.622-9.199 15.397-21.247 16.693-3.16.34-9.052.752-14.046.254z" fill="#e70000"/><path d="M284.749 135.011c1.126-.114 2.283-.211 3.463-.294 12.12-.847 22.36-.764 22.666 3.605.207 2.95-2.317 7.168-6.514 10.632.287-1.431.194-2.907-.33-4.43-2.045-5.937-9.495-9.255-19.285-9.513z" fill="#3fa033"/><g fill="#d8d8d8" transform="translate(279 124)"><path d="M25.302 25H50v8H22.302z"/><circle cx="50" cy="29" r="4"/></g></g><path d="M413.584 238.323c-9.287 2.238-19.064 3.316-28.798 2.592-8.197-22.369-15.557-36.883-20.012-44.748v270.577s-21.102 6.71-55.867 11.11l-.544-.059c1.881-54.795 5.722-166.47 8.277-240.705 2.055-59.755 31.084-95.29 60.099-117.44-2.676 6.78-5.072 14.606-7 23.667 7.354 11.852 24.436 42.069 43.831 94.964l.014.042zM190.717 477.795c-34.248-4.401-56.477-11.05-56.477-11.05V196.171c-4.456 7.867-11.813 22.38-20.01 44.743-9.632.716-19.308-.332-28.51-2.523.005-.033.012-.065.02-.097 19.377-52.848 36.305-83.066 43.61-94.944-1.93-9.075-4.328-16.912-7.007-23.701 29.015 22.15 58.044 57.685 60.1 117.44 2.554 74.235 6.395 185.91 8.276 240.705z" fill="#000" fill-opacity=".1"/></g></svg>