<?xml version="1.0" encoding="UTF-8"?><svg width="500" height="500" viewBox="0 0 500 500" xmlns="http://www.w3.org/2000/svg"><g fill="none" fill-rule="evenodd"><path d="M0 0h500v500H0z"/><path fill="#D9D9D9" d="M203.0033 109.223h93.6432V21.928h-93.6432z"/><path fill="#393939" d="M202.8636 31.028h93.4586v-13h-93.4586z"/><path d="M87.5475 75.2585s-40.7627 72.8-58.5475 127.77c4.445 13.375 45.2077 40.86 85.2322 37.885 13.3398-36.4 24.4596-52 24.4596-52s2.9633-95.085-51.1443-113.655m323.9252 0s40.7628 72.8 58.5475 127.77c-4.445 13.375-45.2077 40.86-85.2321 37.885-13.3399-36.4-24.4597-52-24.4597-52s-2.9633-95.085 51.1443-113.655" fill="#F2F2F2"/><path d="M249.5111 57.7025c-50.0817 0-47.7981-39.469-48.7426-39.14-7.5158 2.6187-24.1326 14.9368-52.4385 25.495-31.8729 11.885-52.626 19.315-60.7825 31.2 11.1149 8.915 46.6944 28.97 46.6944 120.345v271.14s49.6576 14.855 114.885 14.855c68.9291 0 115.6484-14.855 115.6484-14.855v-271.14c0-91.375 35.5795-111.43 46.6994-120.345-8.1566-11.885-28.9096-19.315-60.7825-31.2-28.3599-10.5767-44.9818-22.9194-52.478-25.5106-.9273-.3184 4.1773 39.1556-48.703 39.1556z" fill="#F2F2F2"/><path d="M167 36.1523V474.099c-9.0439-1.6377-16.499-3.2728-22-4.5867V45.2696c1.0971-.4087 2.2081-.8226 3.333-1.2421 6.9055-2.5758 13.1153-5.2563 18.667-7.8752zm45.997 9.6911V480.093a473.2071 473.2071 0 01-22-2.2941V23.47c4.197-2.3583 7.429-4.1203 9.7745-4.9396.6013-.2074-.1058 15.715 12.2255 27.313zm48 11.1285v424.449a480.4897 480.4897 0 01-11.867.1466c-3.4222 0-6.8015-.0409-10.133-.1184V57.0258c3.2206.4196 6.7182.6467 10.5171.6467 4.1793 0 7.9964-.2466 11.4829-.7006zm48-32.9582V477.812c-6.8247.8652-14.1768 1.6416-22 2.2608V46.0886c12.511-11.6198 10.6256-27.7758 11.2201-27.5736 2.5248.8746 6.0849 2.8536 10.7799 5.4987zm46 21.6169V469.388c-5.3507 1.3356-12.7805 3.0247-22 4.7163V36.6077c5.3025 2.4735 11.1914 4.9931 17.6982 7.4198 1.4572.5434 2.8912 1.0775 4.3018 1.603z" fill="#3D3D3D"/><path d="M307.8516 23.345c-5.772-3.24-9.728-5.345-12.0078-5.345 0 0 5.8817 32.495-46.3352 32.495-48.5202 0-46.3352-32.495-46.3352-32.495-2.2798 0-6.2358 2.105-12.0028 5.345 0 0 7.3683 40.38 58.4029 40.38 51.4785 0 58.2781-35.895 58.2781-40.38z" fill="#F2F2F2"/><path fill="#E0E0E0" d="M202.8666 32.298h93.4586v-7.1h-93.4586z"/><path d="M295.8468 18.0265c1.7847 0 4.5968 1.29 8.503 3.4048-7.1737 24.4814-25.348 36.7213-54.5219 36.7213-29.263 0-47.5089-12.3148-54.7376-36.9443 3.6898-1.9827 6.3654-3.1818 8.0861-3.1818 0 0-2.185 32.495 46.3352 32.495 52.2169 0 46.3352-32.495 46.3352-32.495z" fill="#3D3D3D"/><path d="M413.5843 238.3227c-9.2877 2.2382-19.0646 3.3161-28.7978 2.5926-8.1978-22.369-15.5572-36.883-20.0128-44.7484v270.5774s-21.1022 6.7098-55.8664 11.1104c-.1817-.0197-.363-.0396-.544-.0597 1.8808-54.795 5.7221-166.47 8.2763-240.705 2.0554-59.755 31.0847-95.29 60.099-117.44-2.6753 6.7806-5.0714 14.6063-6.9991 23.6673 7.354 11.8514 24.4358 42.0687 43.8307 94.964.005.014.0097.0277.014.0414zM190.7166 477.7953c-34.2478-4.4014-56.4763-11.051-56.4763-11.051V196.1721c-4.4558 7.8668-11.8138 22.3792-20.0097 44.7432-9.633.716-19.3087-.3323-28.5106-2.5238a1.113 1.113 0 01.0199-.0967c19.3773-52.8475 36.3054-83.0661 43.6098-94.9437-1.929-9.0753-4.3277-16.912-7.0064-23.7011 29.0144 22.15 58.0437 57.685 60.099 117.44 2.5543 74.235 6.3956 185.91 8.2763 240.7053h-.002z" fill-opacity=".1" fill="#000"/><g transform="translate(276 126)"><path d="M1.75 8h62.5c.5523 0 1 .4477 1 1a1 1 0 01-.1385.5077l-6.7994 11.5385A6 6 0 0153.1429 24H12.857a6 6 0 01-5.1692-2.9538L.8885 9.5077A1 1 0 011.75 8z" fill="#121212"/><circle fill="#121212" cx="33" cy="17" r="17"/><path d="M5.7648 10h54.4704c.5523 0 1 .4477 1 1a1 1 0 01-.1422.514l-5.1171 8.5417A4 4 0 0152.5445 22h-39.089a4 4 0 01-3.4314-1.9443L4.907 11.5139c-.2839-.4738-.1299-1.088.3439-1.3717A1 1 0 015.7648 10z" fill="#CACACA"/><circle fill="#CACACA" cx="33" cy="17" r="15"/><circle fill="#121212" cx="33" cy="17" r="13"/><circle fill="#FFF" cx="33" cy="17" r="9"/><path d="M28 12h10v6c0 2.2091-1.7909 4-4 4h-2c-2.2091 0-4-1.7909-4-4v-6z" fill="#858585"/></g></g></svg>