<?xml version="1.0" encoding="UTF-8"?><svg width="500" height="500" viewBox="0 0 500 500" xmlns="http://www.w3.org/2000/svg"><g fill="none" fill-rule="evenodd"><path d="M0 0h500v500H0z"/><path fill="#D9D9D9" d="M203.0033 109.223h93.6432V21.928h-93.6432z"/><path fill="#961717" d="M202.8636 32.228h93.4586v-14.2h-93.4586z"/><path d="M87.5475 75.2585s-40.7627 72.8-58.5475 127.77c4.445 13.375 45.2077 40.86 85.2322 37.885 13.3398-36.4 24.4596-52 24.4596-52s2.9633-95.085-51.1443-113.655m323.9252 0s40.7628 72.8 58.5475 127.77c-4.445 13.375-45.2077 40.86-85.2321 37.885-13.3399-36.4-24.4597-52-24.4597-52s-2.9633-95.085 51.1443-113.655" fill="#B52121"/><path d="M249.5111 57.7025c-50.0817 0-47.7981-39.469-48.7426-39.14-7.5158 2.6187-24.1326 14.9368-52.4385 25.495-31.8729 11.885-52.626 19.315-60.7825 31.2 11.1149 8.915 46.6944 28.97 46.6944 120.345v271.14s49.6576 14.855 114.885 14.855c68.9291 0 115.6484-14.855 115.6484-14.855v-271.14c0-91.375 35.5795-111.43 46.6994-120.345-8.1566-11.885-28.9096-19.315-60.7825-31.2-28.3599-10.5767-44.9818-22.9194-52.478-25.5106-.9273-.3184 4.1773 39.1556-48.703 39.1556z" fill="#B52121"/><path d="M467.3529 195.129c.9359 2.6665 1.8272 5.303 2.6673 7.8995-4.445 13.375-45.2077 40.86-85.2321 37.885a426.4238 426.4238 0 00-2.8354-7.5198c20.795-1.3576 37.9932-5.6366 51.5944-12.8371 13.4282-7.109 24.6968-15.5848 33.8058-25.4277zm-435.6982.036c9.1031 9.8275 20.3606 18.2914 33.7724 25.3916 13.611 7.2056 30.824 11.4856 51.6393 12.84a426.4196 426.4196 0 00-2.8342 7.5169c-40.0245 2.975-80.7873-24.51-85.2322-37.885.8363-2.5849 1.7234-5.2092 2.6547-7.8635z" fill="#F0C224"/><path d="M307.8516 23.345c-5.772-3.24-9.728-5.345-12.0078-5.345 0 0 5.8817 32.495-46.3352 32.495-48.5202 0-46.3352-32.495-46.3352-32.495-2.2798 0-6.2358 2.105-12.0028 5.345 0 0 7.3683 40.38 58.4029 40.38 51.4785 0 58.2781-35.895 58.2781-40.38z" fill="#B52121"/><path d="M200.144 42.1711a107.4399 107.4399 0 0110.4651-4.7624c6.2673 6.9547 17.7803 13.1128 38.9025 13.1128 22.5513 0 34.2661-6.0609 40.2984-12.9476a107.459 107.459 0 0110.4545 4.8113c-7.5869 10.5153-22.3843 21.3663-50.688 21.3663-26.6896 0-41.4365-11.0439-49.4326-21.5804z" fill="#F0C224"/><path d="M413.5843 238.3227c-9.2877 2.2382-19.0646 3.3161-28.7978 2.5926-8.1978-22.369-15.5572-36.883-20.0128-44.7484v270.5774s-21.1022 6.7098-55.8664 11.1104c-.1817-.0197-.363-.0396-.544-.0597 1.8808-54.795 5.7221-166.47 8.2763-240.705 2.0554-59.755 31.0847-95.29 60.099-117.44-2.6753 6.7806-5.0714 14.6063-6.9991 23.6673 7.354 11.8514 24.4358 42.0687 43.8307 94.964.005.014.0097.0277.014.0414zM190.7166 477.7953c-34.2478-4.4014-56.4763-11.051-56.4763-11.051V196.1721c-4.4558 7.8668-11.8138 22.3792-20.0097 44.7432-9.633.716-19.3087-.3323-28.5106-2.5238a1.113 1.113 0 01.0199-.0967c19.3773-52.8475 36.3054-83.0661 43.6098-94.9437-1.929-9.0753-4.3277-16.912-7.0064-23.7011 29.0144 22.15 58.0437 57.685 60.099 117.44 2.5543 74.235 6.3956 185.91 8.2763 240.7053h-.002z" fill-opacity=".08" fill="#000"/><g transform="translate(287 118)"><path d="M21.8948.5c3.4212 0 5.7508 1.9791 5.7508 4.9478 0 .872-.1424 1.511-.5008 2.174l-.5292.8409c-.17.2827-.2786.5668-.3716.9822-.3893 1.7387-.0972 2.8487.662 3.1883.0447.02.1428.0483.2944.085l.0618-.1937c.2272-3.9073 3.0817-7.259 6.6572-7.5288l.4654-.0175c2.636 0 4.5308 1.8745 5.711 5.4727.5617 1.7124.9614 3.716 1.2793 6.4356l.4676 5.0768c.4722 5.8484.859 11.8166 1.1605 17.9052l.3152 7.1224-2.0745-.6376c-6.4425-1.9799-11.2346-6.2175-14.3192-12.647-.1076-.2242-1.0391.1998-1.0287.4275.1292 2.8277.7476 6.1922 1.855 10.0762l.5335 1.79 1.1738 3.7349L21.894 46.55l-7.5762 3.1905 1.2043-3.7955c1.4741-4.7595 2.269-8.799 2.3828-12.0861-.627-.239-.9867-.2625-1.0794-.0709-2.748 5.6846-6.8391 9.647-12.239 11.84l-2.0408.7253-2.0746.6376.09-2.1685c.2575-6.2043.6017-12.2864 1.033-18.2493l.1902-2.5483.3931-4.8183c.3648-4.0839.8465-6.8164 1.5985-9C4.9583 6.773 6.8322 4.9783 9.4048 4.9783c3.7114 0 6.7564 3.3278 7.104 7.2924l.0222.3434.0793-.07c.4731-.4615.8143-1.4884.8847-2.8883l.0135-.5462c0-1.6412-.484-2.368-1.6638-2.8743-.6628-.2845-1.2486-.5081-1.7562-.6707l-.8752-.262.3445-.5568c.5608-.9063 1.3417-1.5294 2.3276-1.8543.3866-.1275.6648-.2344.8947-.342.0929-.0434.5504-.3183 1.3726-.8246l.4608-.277C19.9043.6931 20.5394.5 21.8948.5z" fill="#EFCC56" fill-rule="nonzero"/><path d="M16.7888 47.035c1.7769-5.5885 2.6653-10.2527 2.6653-13.9927l-.0054-.6074c-.0621-3.3512-.652-5.1635-1.7697-5.4371-2.5454 9.5149-7.7401 15.4776-15.5842 17.8882.326-7.8579.7917-15.5193 1.397-22.9842l.2145-2.5587c.5292-5.9247 1.627-12.8299 5.6985-12.8299 4.1929 0 5.6022 4.8215 5.6022 6.5131 0 2.1332 4.0365 2.0677 4.0365-3.9168 0-2.117-1.089-4.4041-4.0365-4.3906 1.0138-.7574 1.1312-.6221 2.15-1.0593 1.2973-.3116 1.8865-1.6246 4.7378-1.6246s4.2158 1.5492 4.2158 3.4128c0 1.8635-.9073 1.6198-1.3645 3.6617-1.2935 5.7774 4.0365 6.05 4.0365 3.9168 0-1.6916 1.4093-6.513 5.6022-6.513 4.193 0 5.2322 7.3236 5.7444 13.3575.688 8.1046 1.2099 16.443 1.5656 25.0152-7.8441-2.4106-13.0389-8.3733-15.5842-17.8882-1.1835.2896-1.7752 2.3045-1.7752 6.0445 0 3.611.8283 8.0837 2.4847 13.4179l.1807.5748-5.106-2.149-5.106 2.149z" fill="#262626"/><path d="M3.6482 20.0346c6.0819-.9644 12.164-1.4466 18.2466-1.4466 6.0825 0 12.165.4822 18.2475 1.4466l-.0131-.1638c.688 8.1046 1.2099 16.443 1.5656 25.0152-7.8441-2.4106-13.0389-8.3733-15.5842-17.8882-1.1835.2896-1.7752 2.3045-1.7752 6.0445 0 3.611.8283 8.0837 2.4847 13.4179l.1807.5748-5.106-2.149-5.106 2.149c1.7769-5.5885 2.6653-10.2527 2.6653-13.9927l-.0054-.6074-.0179-.6103c-.12-2.9614-.704-4.5703-1.7518-4.8268-2.5454 9.5149-7.7401 15.4776-15.5842 17.8882.326-7.8579.7917-15.5193 1.397-22.9842l.1564-1.8672z" fill="#615734"/><circle fill="#EFCC56" cx="21.8948" cy="29.035" r="7.2"/><circle fill="#262626" cx="21.8948" cy="29.035" r="6.3"/><circle fill="#EFCC56" cx="21.8948" cy="29.035" r="5.4"/><circle fill="#B52121" cx="21.8948" cy="29.035" r="4.5"/></g></g></svg>