<?xml version="1.0" encoding="utf-8"?><svg width="500" height="500" viewBox="0 0 500 500" fill="none" xmlns="http://www.w3.org/2000/svg"><path fill-rule="evenodd" clip-rule="evenodd" d="M203.003 109.223h93.643V21.928h-93.643v87.295Z" fill="#CFCFCF"/><path fill-rule="evenodd" clip-rule="evenodd" d="M202.863 32.228h93.459v-14.2h-93.459v14.2Z" fill="#F3CC01"/><path fill-rule="evenodd" clip-rule="evenodd" d="M87.547 75.258S46.785 148.06 29 203.03c4.445 13.375 45.208 40.86 85.232 37.885 13.34-36.4 24.46-52 24.46-52S141.655 93.83 87.547 75.26Zm323.926 0s40.763 72.801 58.548 127.771c-4.445 13.375-45.208 40.86-85.233 37.885-13.339-36.4-24.459-52-24.459-52s-2.964-95.085 51.144-113.655Z" fill="#FFD706"/><path fill-rule="evenodd" clip-rule="evenodd" d="M249.511 57.703c-50.081 0-47.798-39.47-48.742-39.14-7.516 2.618-24.133 14.936-52.439 25.494-31.873 11.886-52.626 19.316-60.782 31.2 11.115 8.915 46.694 28.97 46.694 120.345v271.14s49.658 14.856 114.885 14.856c68.929 0 115.649-14.856 115.649-14.856v-271.14c0-91.375 35.579-111.43 46.699-120.345-8.157-11.885-28.91-19.315-60.782-31.2-28.36-10.576-44.982-22.919-52.479-25.508-.927-.32 4.178 39.154-48.703 39.154Z" fill="#FFD706"/><path fill-rule="evenodd" clip-rule="evenodd" d="M170.746 474.792a423.456 423.456 0 0 1-14.038-2.803V40.751c15.284-6.366 26.598-12.934 34.472-17.356l-.009-.05.458-.257V477.91a472.732 472.732 0 0 1-20.883-3.118Zm96.711-425.878v432.334c-5.912.225-12.028.349-18.33.349-5.655 0-11.192-.111-16.591-.315V48.886c4.824 1.02 10.439 1.609 16.973 1.609 6.966 0 12.898-.578 17.948-1.58Zm75.829-7.76v430.952c-9.134 1.93-20.934 4.062-34.921 5.815V23.689c8.018 4.512 19.481 11.114 34.921 17.465Z" fill="#3D3D3D"/><path fill-rule="evenodd" clip-rule="evenodd" d="M467.353 195.129a339.576 339.576 0 0 1 2.668 7.899c-4.445 13.375-45.208 40.86-85.232 37.885a423.236 423.236 0 0 0-2.836-7.519c20.795-1.358 37.993-5.637 51.595-12.837 13.428-7.109 24.696-15.585 33.805-25.428Zm-435.698.036c9.103 9.828 20.36 18.291 33.772 25.392 13.611 7.205 30.824 11.485 51.639 12.84a420.297 420.297 0 0 0-2.834 7.517c-40.024 2.975-80.787-24.51-85.232-37.885.836-2.585 1.723-5.21 2.655-7.864Zm276.197-171.82C302.08 20.105 298.124 18 295.844 18c0 0 5.882 32.495-46.335 32.495-48.52 0-46.335-32.495-46.335-32.495-2.28 0-6.236 2.105-12.003 5.345 0 0 7.368 40.38 58.403 40.38 51.478 0 58.278-35.895 58.278-40.38Z" fill="#FFD706"/><path fill-rule="evenodd" clip-rule="evenodd" d="M413.584 238.323c-9.288 2.238-19.065 3.316-28.798 2.592-8.198-22.369-15.557-36.883-20.013-44.748v270.577s-21.102 6.71-55.866 11.111l-.544-.06c1.881-54.795 5.722-166.47 8.276-240.705 2.056-59.755 31.085-95.29 60.099-117.44-2.675 6.781-5.071 14.606-6.999 23.667 7.354 11.852 24.436 42.069 43.831 94.964l.014.042ZM190.716 477.795c-34.248-4.401-56.476-11.051-56.476-11.051V196.172c-4.456 7.867-11.814 22.379-20.01 44.743-9.633.716-19.308-.332-28.51-2.524a.82.82 0 0 1 .02-.096c19.377-52.848 36.305-83.066 43.609-94.944-1.928-9.075-4.327-16.912-7.006-23.701 29.014 22.15 58.044 57.685 60.099 117.44 2.554 74.235 6.396 185.91 8.276 240.705h-.002Z" fill="#000" fill-opacity=".1"/><path fill-rule="evenodd" clip-rule="evenodd" d="M291 125s8.47 3.262 18 3.262c9.531 0 18-3.262 18-3.262v6.162c-.809 21.026-9.111 29.886-18 31.838-8.888-1.952-17.191-10.812-18-31.838V125Z" fill="#3D3D3D"/><path fill-rule="evenodd" clip-rule="evenodd" d="M293 127.5s7.528 2.75 16 2.75c8.472 0 16-2.75 16-2.75v5.014c-.719 18.812-8.099 26.74-16 28.486-7.901-1.746-15.281-9.674-16-28.486V127.5Z" fill="#FFD541"/><path fill-rule="evenodd" clip-rule="evenodd" d="M295 130s6.587 2.381 14 2.381S323 130 323 130v4.34c-.629 16.286-7.087 23.148-14 24.66-6.913-1.512-13.371-8.374-14-24.66V130Z" fill="#3D3D3D"/><path d="M306.509 132.295C300.173 131.869 295 130 295 130v4.34c.156 4.043.672 7.506 1.464 10.45 2.789-3.389 6.85-8.468 10.045-12.495Z" fill="#FE4545"/><rect x="304" y="139" width="10" height="16" rx="5" fill="#FFD541"/></svg>