<?xml version="1.0" encoding="UTF-8"?><svg width="500" height="500" viewBox="0 0 500 500" xmlns="http://www.w3.org/2000/svg"><g fill="none" fill-rule="evenodd"><path d="M0 0h500v500H0z"/><path fill="#F4E094" d="M203.0033 109.223h93.6432V21.928h-93.6432z"/><path fill="#161B44" d="M202.8636 32.228h93.4586v-14.2h-93.4586z"/><path d="M87.5475 75.2585s-40.7627 72.8-58.5475 127.77c4.445 13.375 45.2077 40.86 85.2322 37.885 13.3398-36.4 24.4596-52 24.4596-52s2.9633-95.085-51.1443-113.655m323.9252 0s40.7628 72.8 58.5475 127.77c-4.445 13.375-45.2077 40.86-85.2321 37.885-13.3399-36.4-24.4597-52-24.4597-52s-2.9633-95.085 51.1443-113.655" fill="#F1D364"/><path d="M249.5111 57.7025c-50.0817 0-47.7981-39.469-48.7426-39.14-7.5158 2.6187-24.1326 14.9368-52.4385 25.495-31.8729 11.885-52.626 19.315-60.7825 31.2 11.1149 8.915 46.6944 28.97 46.6944 120.345v271.14s49.6576 14.855 114.885 14.855c68.9291 0 115.6484-14.855 115.6484-14.855v-271.14c0-91.375 35.5795-111.43 46.6994-120.345-8.1566-11.885-28.9096-19.315-60.7825-31.2-28.3599-10.5767-44.9818-22.9194-52.478-25.5106-.9273-.3184 4.1773 39.1556-48.703 39.1556z" fill="#F1D364"/><path d="M293.7332 37.2606c45.26 11.3356 71.506 39.3368 71.506 67.9813v72.909c-.3012 5.4992-.4609 11.3004-.4609 17.4216v271.14s-46.7193 14.855-115.6483 14.855c-65.2275 0-114.8851-14.855-114.8851-14.855v-271.14c0-6.2616-.167-12.1883-.482-17.7995v-72.531c0-28.836 26.5982-57.0201 72.4166-68.202 5.5957 10.1262 17.4956 20.6326 43.3346 20.6326 27.0815 0 38.955-10.353 44.2191-20.4119z" fill="#EFCE52"/><path fill="#1F2456" d="M133.762 108.6929L250 161l115.239-51.8571v47.999L250 209l-116.238-52.3071z"/><path fill="#CE3B3B" d="M133.762 108.6929L250 161l115.239-51.8571v32L250 193l-116.238-52.3071z"/><path fill="#2D347B" d="M133.762 108.6929L250 161l115.239-51.8571v16L250 177l-116.238-52.3071z"/><path d="M467.3529 195.129c.9359 2.6665 1.8272 5.303 2.6673 7.8995-4.445 13.375-45.2077 40.86-85.2321 37.885a426.4238 426.4238 0 00-2.8354-7.5198c20.795-1.3576 37.9932-5.6366 51.5944-12.8371 13.4282-7.109 24.6968-15.5848 33.8058-25.4277zm-435.6982.036c9.1031 9.8275 20.3606 18.2914 33.7724 25.3916 13.611 7.2056 30.824 11.4856 51.6393 12.84a426.4196 426.4196 0 00-2.8342 7.5169c-40.0245 2.975-80.7873-24.51-85.2322-37.885.8363-2.5849 1.7234-5.2092 2.6547-7.8635zm276.1969-171.82c-5.772-3.24-9.728-5.345-12.0078-5.345 0 0 5.8817 32.495-46.3352 32.495-48.5202 0-46.3352-32.495-46.3352-32.495-2.2798 0-6.2358 2.105-12.0028 5.345 0 0 7.3683 40.38 58.4029 40.38 51.4785 0 58.2781-35.895 58.2781-40.38z" fill="#1F2456"/><path d="M413.5843 238.3227c-9.2877 2.2382-19.0646 3.3161-28.7978 2.5926-8.1978-22.369-15.5572-36.883-20.0128-44.7484v270.5774s-21.1022 6.7098-55.8664 11.1104c-.1817-.0197-.363-.0396-.544-.0597 1.8808-54.795 5.7221-166.47 8.2763-240.705 2.0554-59.755 31.0847-95.29 60.099-117.44-2.6753 6.7806-5.0714 14.6063-6.9991 23.6673 7.354 11.8514 24.4358 42.0687 43.8307 94.964.005.014.0097.0277.014.0414zM190.7166 477.7953c-34.2478-4.4014-56.4763-11.051-56.4763-11.051V196.1721c-4.4558 7.8668-11.8138 22.3792-20.0097 44.7432-9.633.716-19.3087-.3323-28.5106-2.5238a1.113 1.113 0 01.0199-.0967c19.3773-52.8475 36.3054-83.0661 43.6098-94.9437-1.929-9.0753-4.3277-16.912-7.0064-23.7011 29.0144 22.15 58.0437 57.685 60.099 117.44 2.5543 74.235 6.3956 185.91 8.2763 240.7053h-.002z" fill-opacity=".06" fill="#000"/><g transform="translate(285 119)"><circle fill="#EFCE52" cx="24" cy="24" r="24"/><circle fill="#1F2456" cx="24" cy="24" r="22"/><circle fill="#5D5654" cx="24" cy="24" r="18"/><path d="M19.6455 14.4387c.3498-1.871-4.608-1.5024-3.6048-2.3194C18.3236 10.26 21.8391 8.9119 24 8.9119c3.3176 0 2.764 2.728 5 1.6881 2.236-1.04.1886 3.4783-2.0914 7.0703-.344.5417-1.209 2.9934-1.5315 4.722-.1269.6802-.6583-.8754-1.1315-.9374-.8525-.1118-.8747.9-1.32 2.1748-.2393.685.6203 1.5448 2.2529 3.263.9252.9738 1.3078 1.5464 3.5338 6.2463 1.2395 2.6171-3.9976-.048-5.7867 6.7074-.6265 2.3657-.782 1.821-1.2583.9197-.452-.8553-.0767-2.133 0-2.633.3553-2.3172 1.1008-5.1525.6855-7.4495-.6855-3.7909-.0922-5.7827 0-7.054.1664-2.2952-.7108-2.5956-.8832-3.9567-.581-4.588-2.2106-3.1675-1.8241-5.2342z" fill="#EFCE52" opacity=".6"/><rect fill="#EFCE52" x="10" y="17" width="10" height="14" rx="3"/><rect fill="#CE3B3B" x="11" y="18" width="8" height="12" rx="2"/><rect fill="#EFCE52" x="28" y="17" width="10" height="14" rx="3"/><rect fill="#CE3B3B" x="29" y="18" width="8" height="12" rx="2"/></g></g></svg>