<?xml version="1.0" encoding="UTF-8"?><svg width="500" height="500" viewBox="0 0 500 500" fill="none" xmlns="http://www.w3.org/2000/svg"><path fill-rule="evenodd" clip-rule="evenodd" d="M203.607 109.223h93.432V21.9282h-93.432v87.2948z" fill="#D9D9D9"/><path fill-rule="evenodd" clip-rule="evenodd" d="M203.468 32.2278h93.248v-14.2h-93.248v14.2z" fill="#292929"/><path fill-rule="evenodd" clip-rule="evenodd" d="M88.4113 75.2583S47.7403 148.058 29.9956 203.028c4.4349 13.375 45.1059 40.86 85.0404 37.885 13.31-36.4 24.404-52 24.404-52s2.957-95.0847-51.0287-113.6547zm323.1957 0s40.671 72.7997 58.415 127.7697c-4.435 13.375-45.105 40.86-85.04 37.885-13.31-36.4-24.404-52-24.404-52s-2.957-95.0847 51.029-113.6547z" fill="#F2F2F2"/><path fill-rule="evenodd" clip-rule="evenodd" d="M250.01 57.7025c-49.968 0-47.69-39.4691-48.632-39.14-7.499 2.6187-24.079 14.9368-52.321 25.495-31.801 11.885-52.5072 19.315-60.6454 31.2 11.0898 8.915 46.5894 28.9695 46.5894 120.3445v271.14s49.546 14.856 114.626 14.856c68.774 0 115.388-14.856 115.388-14.856v-271.14c0-91.375 35.499-111.4295 46.594-120.3445-8.138-11.885-28.844-19.315-60.645-31.2-28.296-10.5767-44.881-22.9195-52.36-25.5087-.925-.3203 4.168 39.1537-48.594 39.1537z" fill="#F2F2F2"/><path fill-rule="evenodd" clip-rule="evenodd" d="M467.387 195.33c.934 2.667 1.823 5.303 2.661 7.9-4.435 13.375-45.105 40.86-85.04 37.885-.955-2.614-1.899-5.12-2.829-7.52 20.748-1.358 37.908-5.637 51.478-12.837 13.398-7.109 24.642-15.585 33.73-25.428zm-434.8252 0c9.0826 9.828 20.3147 18.291 33.6963 25.392 13.5803 7.205 30.7547 11.485 51.5229 12.84-.929 2.399-1.873 4.904-2.828 7.517-39.934 2.975-80.605-24.51-85.0399-37.885.8344-2.585 1.7195-5.21 2.6487-7.864zM308.219 23.345c-5.758-3.24-9.706-5.345-11.98-5.345 0 0 5.868 32.495-46.231 32.495-48.411 0-46.231-32.495-46.231-32.495-2.275 0-6.222 2.105-11.976 5.345 0 0 7.352 40.38 58.272 40.38 51.362 0 58.146-35.895 58.146-40.38z" fill="#3D3D3D"/><path fill-rule="evenodd" clip-rule="evenodd" d="M413.584 238.323c-9.287 2.238-19.064 3.316-28.797 2.592-8.198-22.369-15.558-36.883-20.013-44.748v270.577s-21.102 6.71-55.866 11.111l-.544-.06c1.88-54.795 5.722-166.47 8.276-240.705 2.055-59.755 31.085-95.29 60.099-117.44-2.675 6.781-5.072 14.606-6.999 23.667 7.354 11.852 24.435 42.069 43.83 94.964.005.014.01.028.014.042zM190.717 477.795c-34.248-4.401-56.476-11.051-56.476-11.051V196.172c-4.456 7.867-11.814 22.379-20.01 44.743-9.633.716-19.3089-.332-28.5108-2.524a1.056 1.056 0 01.0199-.096c19.3769-52.848 36.3059-83.066 43.6099-94.944-1.929-9.075-4.328-16.912-7.006-23.701 29.014 22.15 58.043 57.685 60.099 117.44 2.554 74.235 6.395 185.91 8.276 240.705h-.002z" fill="#000" fill-opacity=".06"/><circle cx="309" cy="143" r="24" fill="#EAC872"/><circle cx="309" cy="143" r="20" fill="#3D3D3D"/><circle cx="309" cy="143" r="18" fill="#F2F2F2"/><circle cx="309" cy="143" r="12" fill="#3D3D3D"/><circle cx="309" cy="143" r="10" fill="#F2F2F2"/><circle cx="309" cy="143" r="8" fill="#3D3D3D"/><rect x="305" y="139" width="8" height="8" rx="2" fill="#AB965E"/></svg>