<?xml version="1.0" encoding="UTF-8"?><svg width="500" height="500" viewBox="0 0 500 500" xmlns="http://www.w3.org/2000/svg"><g fill="none" fill-rule="evenodd"><path d="M0 0h500v500H0z"/><path fill="#B4B4B4" d="M203.0033 109.223h93.6432V21.928h-93.6432z"/><path fill="#C8C8C8" d="M202.8636 32.228h93.4586v-14.2h-93.4586z"/><path d="M87.5475 75.2585s-40.7627 72.8-58.5475 127.77c4.445 13.375 45.2077 40.86 85.2322 37.885 13.3398-36.4 24.4596-52 24.4596-52s2.9633-95.085-51.1443-113.655m323.9252 0s40.7628 72.8 58.5475 127.77c-4.445 13.375-45.2077 40.86-85.2321 37.885-13.3399-36.4-24.4597-52-24.4597-52s-2.9633-95.085 51.1443-113.655" fill="#F2F2F2"/><path d="M249.5111 57.7025c-50.0817 0-47.7981-39.469-48.7426-39.14-7.5158 2.6187-24.1326 14.9368-52.4385 25.495-31.8729 11.885-52.626 19.315-60.7825 31.2 11.1149 8.915 46.6944 28.97 46.6944 120.345v271.14s49.6576 14.855 114.885 14.855c68.9291 0 115.6484-14.855 115.6484-14.855v-271.14c0-91.375 35.5795-111.43 46.6994-120.345-8.1566-11.885-28.9096-19.315-60.7825-31.2-28.3599-10.5767-44.9818-22.9194-52.478-25.5106-.9273-.3184 4.1773 39.1556-48.703 39.1556z" fill="#F2F2F2"/><path d="M268.7869 55.4937l.002 425.6714a480.7318 480.7318 0 01-19.659.4024c-6.1213 0-12.1055-.1308-17.9244-.368l.0007-425.6827-.0413-.011c5.1637 1.3685 11.227 2.1667 18.3492 2.1667 7.5418 0 13.9041-.803 19.2728-2.1788zm-65.518-17.714l.0005 441.427-1.2601-.1296c-11.2309-1.171-21.4365-2.641-30.324-4.155l.001-424.4584c9.0716-5.1966 19.645-9.5264 31.5826-12.684zm131.039 17.0586l.0009 419.0232-1.7422.3216c-9.9946 1.8228-22.0622 3.6422-35.8404 5.0189l-.0004-441.1602c14.7225 4.001 27.3377 9.7945 37.582 16.7965zM145.7447 72.4015l.0017 397.2881-2.3443-.5633c-5.9158-1.4441-9.1572-2.4138-9.1572-2.4138v-271.14c0-6.2616-.167-12.1883-.482-17.7995v-72.531c0-11.3837 4.1453-22.6658 11.9818-32.8404zm219.4946 32.8404v72.909c-.3013 5.4992-.461 11.3004-.461 17.4216v271.14l-1.7153.5148c-.5032.1464-1.1148.3213-1.8318.521l-.9836.271.0016-384.2783c3.2869 6.9487 4.99 14.2039 4.99 21.5009z" fill="#D53E46"/><path d="M307.8516 23.345c-5.772-3.24-9.728-5.345-12.0078-5.345 0 0 5.8817 32.495-46.3352 32.495-48.5202 0-46.3352-32.495-46.3352-32.495-2.2798 0-6.2358 2.105-12.0028 5.345 0 0 7.3683 40.38 58.4029 40.38 51.4785 0 58.2781-35.895 58.2781-40.38z" fill="#E3E3E3"/><path d="M413.5843 238.3227c-9.2877 2.2382-19.0646 3.3161-28.7978 2.5926-8.1978-22.369-15.5572-36.883-20.0128-44.7484v270.5774s-21.1022 6.7098-55.8664 11.1104c-.1817-.0197-.363-.0396-.544-.0597 1.8808-54.795 5.7221-166.47 8.2763-240.705 2.0554-59.755 31.0847-95.29 60.099-117.44-2.6753 6.7806-5.0714 14.6063-6.9991 23.6673 7.354 11.8514 24.4358 42.0687 43.8307 94.964.005.014.0097.0277.014.0414zM190.7166 477.7953c-34.2478-4.4014-56.4763-11.051-56.4763-11.051V196.1721c-4.4558 7.8668-11.8138 22.3792-20.0097 44.7432-9.633.716-19.3087-.3323-28.5106-2.5238a1.113 1.113 0 01.0199-.0967c19.3773-52.8475 36.3054-83.0661 43.6098-94.9437-1.929-9.0753-4.3277-16.912-7.0064-23.7011 29.0144 22.15 58.0437 57.685 60.099 117.44 2.5543 74.235 6.3956 185.91 8.2763 240.7053h-.002z" fill-opacity=".06" fill="#000"/><path d="M309 167.2826c-8.4598-3.6135-24.1508-17.1438-21.7538-43.3868C299.936 126.7658 309 118.5 309 118.5s9.064 8.2658 21.7538 5.3958c2.397 26.243-13.294 39.7733-21.7538 43.3868z" fill="#F2F2F2" fill-rule="nonzero"/><path d="M309 165.3696c-7.7241-3.3301-22.0507-15.7992-19.8622-39.984 11.5864 2.645 19.8622-4.9725 19.8622-4.9725s8.2759 7.6175 19.8622 4.9726c2.1886 24.1847-12.138 36.6538-19.8622 39.9839z" fill="#EF2828" fill-rule="nonzero"/><path d="M309.0001 163.4566c-6.9886-3.0467-19.9507-14.4546-17.9706-36.581 10.4829 2.4198 17.9706-4.5494 17.9706-4.5494s7.4876 6.9692 17.9706 4.5493c1.98 22.1265-10.9821 33.5344-17.9706 36.5811z" fill="#F2F2F2" fill-rule="nonzero"/><path d="M326.0501 135.718h-34.1c-.223-2.5113-.2316-5.2083.0253-8.097 9.9311 2.3073 17.0247-4.3378 17.0247-4.3378s7.0936 6.6451 17.0248 4.3378c.2568 2.8887.2483 5.5857.0252 8.097z" fill="#EF2828" fill-rule="nonzero"/><path d="M295.6087 148.9098c-1.7185-3.4171-3.0279-7.4819-3.5628-12.236h33.9075c-.5348 4.7534-1.844 8.8178-3.5621 12.2347v-12.2343h-3.8261v18.1589c-1.2417 1.5273-2.5423 2.8374-3.8261 3.9389v-22.0978h-3.8261v24.8444c-.674.393-1.3167.7195-1.9133.9813-.5965-.2617-1.2389-.5881-1.9127-.9809v-24.8448h-3.8261v22.0984c-1.2838-1.1015-2.5844-2.4115-3.8261-3.9386v-18.1598h-3.8261v12.2356z" fill="#EF2828"/></g></svg>