<?xml version="1.0" encoding="utf-8"?><svg width="500" height="500" viewBox="0 0 500 500" fill="none" xmlns="http://www.w3.org/2000/svg"><path fill-rule="evenodd" clip-rule="evenodd" d="M203.003 109.223h93.644V21.928h-93.644v87.295Z" fill="#B22B2B"/><path fill-rule="evenodd" clip-rule="evenodd" d="M202.864 32.228h93.458v-14.2h-93.458v14.2Z" fill="#E0E0E0"/><path fill-rule="evenodd" clip-rule="evenodd" d="M87.547 75.258S46.785 148.058 29 203.028c4.445 13.375 45.208 40.86 85.232 37.885 13.34-36.4 24.46-52 24.46-52s2.963-95.085-51.145-113.655M411.472 75.258s40.763 72.8 58.548 127.77c-4.445 13.375-45.208 40.86-85.232 37.885-13.34-36.4-24.46-52-24.46-52s-2.963-95.085 51.144-113.655" fill="#D83939"/><path fill-rule="evenodd" clip-rule="evenodd" d="M249.511 57.703c-50.082 0-47.798-39.47-48.743-39.14-7.516 2.618-24.132 14.936-52.438 25.494-31.873 11.886-52.626 19.316-60.783 31.2 11.115 8.915 46.695 28.97 46.695 120.345v271.14s49.657 14.856 114.885 14.856c68.929 0 115.648-14.856 115.648-14.856v-271.14c0-91.375 35.58-111.43 46.699-120.345-8.156-11.885-28.909-19.315-60.782-31.2-28.36-10.576-44.982-22.919-52.478-25.508-.927-.32 4.177 39.154-48.703 39.154Z" fill="#D83939"/><path fill-rule="evenodd" clip-rule="evenodd" d="M307.851 23.345c-5.772-3.24-9.728-5.345-12.007-5.345 0 0 5.881 32.495-46.336 32.495-48.52 0-46.335-32.495-46.335-32.495-2.28 0-6.236 2.105-12.003 5.345 0 0 7.369 40.38 58.403 40.38 51.479 0 58.278-35.895 58.278-40.38Z" fill="#F2F2F2"/><path fill-rule="evenodd" clip-rule="evenodd" d="M413.584 238.323c-9.287 2.238-19.064 3.316-28.797 2.592-8.198-22.369-15.558-36.883-20.013-44.748v270.577s-21.102 6.71-55.866 11.111l-.544-.06c1.88-54.795 5.722-166.47 8.276-240.705 2.055-59.755 31.085-95.29 60.099-117.44-2.675 6.781-5.072 14.606-6.999 23.667 7.354 11.852 24.435 42.069 43.83 94.964l.014.042ZM190.717 477.795c-34.248-4.401-56.476-11.051-56.476-11.051V196.172c-4.456 7.867-11.814 22.379-20.01 44.743-9.633.716-19.309-.332-28.51-2.524.004-.032.01-.064.02-.096 19.376-52.848 36.305-83.066 43.609-94.944-1.929-9.075-4.328-16.912-7.006-23.701 29.014 22.15 58.043 57.685 60.099 117.44 2.554 74.235 6.395 185.91 8.276 240.705h-.002Z" fill="#000" fill-opacity=".1"/><path d="M309 166c-10.008-5.035-24.768-16.729-21.55-40.959 4.584-.041 7.578-4.041 7.578-4.041s2.846 4 6.986 4 6.986-4 6.986-4 2.846 4 6.986 4 6.986-4 6.986-4 2.452 4 7.578 4.041c3.218 24.23-11.542 35.924-21.55 40.959Z" fill="#3D3D3D"/><path d="M309 164c-9.098-4.588-22.516-16.924-19.591-37 4.168-.037 5.591-3.5 5.591-3.5s2.886 3.5 6.649 3.5c4.764 0 7.351-3.5 7.351-3.5s2.587 3.5 7.351 3.5c3.764 0 6.649-3.5 6.649-3.5s1.931 3.5 5.591 3.5c2.925 20.076-10.493 32.412-19.591 37Z" fill="#F2F2F2"/><path d="M291.018 133.789C290.494 148.035 301.415 158.175 309 162c2.447-1.234 5.242-3.125 7.887-5.6l-25.869-22.611ZM323.162 148.603c2.944-5.055 4.626-12.544 3.47-19.603-2.294 0-3.632-2.5-3.632-2.5s-2.997 2.5-6.384 2.5c-4.288 0-7.616-2.5-7.616-2.5s-2.934 2.147-6.842 2.5l21.004 19.603Z" fill="#DE3D3D"/></svg>