<svg xmlns="http://www.w3.org/2000/svg" width="501" height="501" fill="none"><path fill="#0014C5" fill-rule="evenodd" d="M203.85 109.35h93.65V22.24h-93.65v87.1Z" clip-rule="evenodd"/><path fill="#333" fill-rule="evenodd" d="M203.71 32.52h93.46V18.35h-93.46v14.17Z" clip-rule="evenodd"/><path fill="#0014C5" fill-rule="evenodd" d="M88.4 75.45s-40.77 72.65-58.55 127.5c4.44 13.35 45.2 40.77 85.23 37.8 13.34-36.32 24.46-51.88 24.46-51.88s2.97-94.89-51.14-113.42Zm323.92 0s40.76 72.65 58.55 127.5c-4.44 13.35-45.2 40.77-85.23 37.8-13.34-36.32-24.46-51.88-24.46-51.88s-2.97-94.89 51.14-113.42Z" clip-rule="evenodd"/><path fill="#0014C5" fill-rule="evenodd" d="M250.36 57.94c-50.08 0-47.8-39.39-48.74-39.06-7.52 2.61-24.13 14.9-52.44 25.44C117.3 56.18 96.55 63.59 88.4 75.45c11.11 8.9 46.7 28.91 46.7 120.09V466.1s49.65 14.82 114.88 14.82c68.92 0 115.65-14.82 115.65-14.82V195.54c0-91.18 35.57-111.2 46.7-120.09-8.16-11.86-28.91-19.27-60.79-31.13-28.36-10.55-44.98-22.87-52.48-25.45-.92-.32 4.18 39.07-48.7 39.07Z" clip-rule="evenodd"/><path fill="#7FC1DA" fill-rule="evenodd" d="m202.64 27.14 1.72 3.22c-9 5.06-23.4 13.97-44.26 21.89-29.8 11.3-49.7 18.58-58.46 29.5a49.93 49.93 0 0 0-3.38-1.9c8.51-11.25 28.59-18.58 58.9-30.08 19.26-7.32 33.01-15.47 42.1-20.67l-.01-.05c1.21-.69 2.34-1.33 3.39-1.9ZM91.57 76.97c8.01-11.89 28.4-19.32 59.71-31.2 19.26-7.32 33.01-15.47 42.1-20.67l-.01-.05.02-.01 1.74 3.23c-9.08 5.2-22.47 12.98-40.91 19.98-30.4 11.53-50.5 18.87-58.97 30.17a49.34 49.34 0 0 0-3.68-1.45Zm207.93-49.4 2.6 1.48v.05c9.08 5.2 22.83 13.35 42.1 20.67 30.31 11.5 50.4 18.84 58.9 30.08a52.6 52.6 0 0 0-3.38 1.9c-8.76-10.91-28.66-18.19-58.46-29.5-19.87-7.54-33.88-15.99-42.95-21.15l-.4-.22 1.58-3.3Zm8.44-2.54.05.02-.01.05c9.08 5.2 22.84 13.35 42.1 20.67 31 11.76 51.29 19.16 59.46 30.84l.25.36c-1.26.44-2.49.92-3.68 1.44-8.48-11.28-28.58-18.62-58.97-30.16-17.94-6.81-31.1-14.35-40.16-19.55l-.45-.26 1.41-3.41Z" clip-rule="evenodd"/><path fill="#393939" fill-rule="evenodd" d="M309.21 51.75a135.28 135.28 0 0 1 34.93 20.56v399.2a409.26 409.26 0 0 1-34.93 6.05V51.75ZM157.56 71.5a136.26 136.26 0 0 1 34.92-20.16v426.08a440.19 440.19 0 0 1-34.92-6.09V71.5ZM268.3 481a447.85 447.85 0 0 1-34.92 0V50.83h34.92V481Z" clip-rule="evenodd"/><path fill="#393939" fill-rule="evenodd" d="M308.7 23.65c-5.77-3.23-9.73-5.33-12-5.33 0 0 5.88 32.42-46.34 32.42-48.52 0-46.34-32.42-46.34-32.42-2.28 0-6.23 2.1-12 5.33 0 0 7.37 40.3 58.4 40.3 51.48 0 58.28-35.82 58.28-40.3Zm1.15 145.1c9.94 0 18-10.3 18-23.03 0-12.72-8.06-23.03-18-23.03s-18 10.31-18 23.03 8.06 23.03 18 23.03Z" clip-rule="evenodd"/><path fill="#0014C5" d="M298 141.66h10.6v28.21l-10.6-5.22v-22.99Zm24.19-.49h-10.6v28.7l10.6-5.22v-23.48Z"/><path fill="#EFEFEF" fill-rule="evenodd" d="M329.85 145.72c0 13.34-8.52 25.03-20 25.03s-20-11.69-20-25.03c0-13.33 8.52-25.03 20-25.03s20 11.7 20 25.03Zm-2 0c0 12.72-8.06 23.03-18 23.03s-18-10.3-18-23.03c0-12.72 8.06-23.03 18-23.03s18 10.31 18 23.03Z" clip-rule="evenodd"/><path fill="#EFEFEF" d="M298.48 131.49h22.58v5.71h-22.58z"/><circle cx="304.67" cy="150.59" r="6.2" fill="#CE0000"/><path fill="#EFEFEF" d="M313.82 143.15h8.37l-12.17 20.16h-8.37l12.17-20.16Z"/></svg>