<?xml version="1.0" encoding="UTF-8"?><svg width="500" height="500" viewBox="0 0 500 500" fill="none" xmlns="http://www.w3.org/2000/svg"><path fill-rule="evenodd" clip-rule="evenodd" d="M203.003 109.223h93.643V21.928h-93.643v87.295z" fill="#7D0A11"/><path fill-rule="evenodd" clip-rule="evenodd" d="M202.864 32.228h93.458v-14.2h-93.458v14.2z" fill="#E0E0E0"/><path fill-rule="evenodd" clip-rule="evenodd" d="M87.5475 75.2585S46.7848 148.058 29 203.028c4.4449 13.375 45.2077 40.861 85.232 37.885 13.34-36.399 24.46-52 24.46-52s2.963-95.0845-51.1445-113.6545zm323.9255 0s40.762 72.7995 58.547 127.7695c-4.445 13.375-45.208 40.861-85.232 37.885-13.34-36.399-24.46-52-24.46-52s-2.963-95.0845 51.145-113.6545z" fill="#9C0E16"/><path fill-rule="evenodd" clip-rule="evenodd" d="M249.511 57.7025c-50.082 0-47.798-39.4691-48.742-39.14-7.516 2.6187-24.133 14.9368-52.439 25.495-31.873 11.885-52.6259 19.315-60.7825 31.2 11.1149 8.915 46.6945 28.9705 46.6945 120.3455v271.14s49.658 14.855 114.885 14.855c68.929 0 115.648-14.855 115.648-14.855v-271.14c0-91.375 35.58-111.4305 46.7-120.3455-8.157-11.885-28.91-19.315-60.783-31.2-28.36-10.5767-44.982-22.9194-52.478-25.5087-.927-.3203 4.177 39.1537-48.703 39.1537z" fill="#9C0E16"/><path d="M265.424 56.2821V481.321c9.872-.335 19.188-.956 27.864-1.758V38.1082c-4.224 7.5544-12.3 15.1121-27.864 18.1739zM352 470.149V54.5235l-1.569-.5677c-10.265-3.7149-18.989-7.6549-26.294-11.2873V475.662c11.591-1.874 21.018-3.879 27.863-5.513zm-117.424 11.205V56.3284c-15.152-3.0448-23.358-10.6956-27.864-18.3212V479.574c8.76.825 18.091 1.456 27.864 1.78zm-58.713-5.709V42.1833c-7.5 3.7648-16.541 7.8915-27.263 11.7725l-.6.2171V470.245c7.015 1.611 16.483 3.568 27.863 5.4z" fill="#F2F2F2"/><path fill-rule="evenodd" clip-rule="evenodd" d="M307.852 23.345C302.08 20.105 298.124 18 295.844 18c0 0 5.881 32.495-46.335 32.495-48.521 0-46.336-32.495-46.336-32.495-2.279 0-6.235 2.105-12.002 5.345 0 0 7.368 40.38 58.402 40.38 51.479 0 58.279-35.895 58.279-40.38z" fill="#F1F1F1"/><path fill-rule="evenodd" clip-rule="evenodd" d="M413.584 238.323c-9.287 2.238-19.064 3.316-28.798 2.592-8.197-22.369-15.557-36.883-20.012-44.748v270.577s-21.102 6.71-55.867 11.111l-.544-.06c1.881-54.795 5.722-166.47 8.277-240.705 2.055-59.755 31.084-95.29 60.099-117.44-2.676 6.781-5.072 14.606-7 23.667 7.354 11.852 24.436 42.069 43.831 94.964.005.014.01.028.014.042zM190.717 477.795c-34.248-4.401-56.477-11.051-56.477-11.051V196.172c-4.456 7.867-11.813 22.379-20.009 44.743-9.633.716-19.3091-.332-28.511-2.523a1.01 1.01 0 01.0199-.097c19.3771-52.848 36.3051-83.066 43.6101-94.944-1.929-9.075-4.328-16.912-7.007-23.701 29.015 22.15 58.044 57.685 60.099 117.44 2.555 74.235 6.396 185.91 8.277 240.705h-.002z" fill="#000" fill-opacity=".1"/><path fill-rule="evenodd" clip-rule="evenodd" d="M309 168c13.807 0 25-11.193 25-25s-11.193-25-25-25-25 11.193-25 25 11.193 25 25 25z" fill="#9C0E16"/><path fill-rule="evenodd" clip-rule="evenodd" d="M309 166c12.703 0 23-10.297 23-23s-10.297-23-23-23-23 10.297-23 23 10.297 23 23 23z" fill="#F2F2F2"/><path d="M327.471 153c-3.555 6.552-10.493 11-18.471 11s-14.916-4.448-18.471-11h36.942zm1.659-4H309v-4h20.906c-.13 1.376-.393 2.714-.776 4zm.776-8H309v-4h20.13c.383 1.286.646 2.624.776 4zm-2.435-8H309v-4h15.653a21.063 21.063 0 012.818 4z" fill="#B8131C"/><circle cx="298" cy="139.5" r="9.5" fill="#E9CED0"/></svg>