<?xml version="1.0" encoding="UTF-8"?><svg width="500" height="500" viewBox="0 0 500 500" xmlns="http://www.w3.org/2000/svg"><g fill="none" fill-rule="evenodd"><path d="M0 0h500v500H0z"/><path fill="#D9D9D9" d="M203.0033 109.223h93.6432V21.928h-93.6432z"/><path fill="#AE3336" d="M202.8636 32.228h93.4586v-14.2h-93.4586z"/><path d="M87.5475 75.2585s-40.7627 72.8-58.5475 127.77c4.445 13.375 45.2077 40.86 85.2322 37.885 13.3398-36.4 24.4596-52 24.4596-52s2.9633-95.085-51.1443-113.655m323.9252 0s40.7628 72.8 58.5475 127.77c-4.445 13.375-45.2077 40.86-85.2321 37.885-13.3399-36.4-24.4597-52-24.4597-52s-2.9633-95.085 51.1443-113.655" fill="#C53C3F"/><path d="M249.5111 57.7025c-50.0817 0-47.7981-39.469-48.7426-39.14-7.5158 2.6187-24.1326 14.9368-52.4385 25.495-31.8729 11.885-52.626 19.315-60.7825 31.2 11.1149 8.915 46.6944 28.97 46.6944 120.345v271.14s49.6576 14.855 114.885 14.855c68.9291 0 115.6484-14.855 115.6484-14.855v-271.14c0-91.375 35.5795-111.43 46.6994-120.345-8.1566-11.885-28.9096-19.315-60.7825-31.2-28.3599-10.5767-44.9818-22.9194-52.478-25.5106-.9273-.3184 4.1773 39.1556-48.703 39.1556z" fill="#C53C3F"/><path d="M249.5111 396c38.42 0 76.8414-.7443 115.2644-2.2328v63.9918C326.209 459.253 287.7878 460 249.511 460c-38.4245 0-76.8475-.7528-115.269-2.2584V393.75c38.278 1.5 76.701 2.2501 115.269 2.2501zm115.2636-143v64h-230.533v-64h230.533zM249.5111 110c43.354 0 86.71.9477 130.0678 2.8431l-.4706 1.0156c-6.6383 14.515-12.0422 34.4967-13.7602 62.4006C326.591 174.7544 287.978 174 249.511 174c-38.6162 0-77.2308.7603-115.844 2.281-1.7531-28.5581-7.3686-48.818-14.2173-63.4154C162.6185 110.9558 205.9723 110 249.511 110zm217.8418 85.129c.9359 2.6665 1.8272 5.303 2.6673 7.8995-4.445 13.375-45.2077 40.86-85.2321 37.885a426.4238 426.4238 0 00-2.8354-7.5198c20.795-1.3576 37.9932-5.6366 51.5944-12.8371 13.4282-7.109 24.6968-15.5848 33.8058-25.4277zm-435.6982.036c9.1031 9.8275 20.3606 18.2914 33.7724 25.3916 13.611 7.2056 30.824 11.4856 51.6393 12.84a426.4196 426.4196 0 00-2.8342 7.5169c-40.0245 2.975-80.7873-24.51-85.2322-37.885.8363-2.5849 1.7234-5.2092 2.6547-7.8635z" fill="#3D3D3D"/><path d="M307.8516 23.345c-5.772-3.24-9.728-5.345-12.0078-5.345 0 0 5.8817 32.495-46.3352 32.495-48.5202 0-46.3352-32.495-46.3352-32.495-2.2798 0-6.2358 2.105-12.0028 5.345 0 0 7.3683 40.38 58.4029 40.38 51.4785 0 58.2781-35.895 58.2781-40.38z" fill="#C53C3F"/><path d="M413.5843 238.3227c-9.2877 2.2382-19.0646 3.3161-28.7978 2.5926-8.1978-22.369-15.5572-36.883-20.0128-44.7484v270.5774s-21.1022 6.7098-55.8664 11.1104c-.1817-.0197-.363-.0396-.544-.0597 1.8808-54.795 5.7221-166.47 8.2763-240.705 2.0554-59.755 31.0847-95.29 60.099-117.44-2.6753 6.7806-5.0714 14.6063-6.9991 23.6673 7.354 11.8514 24.4358 42.0687 43.8307 94.964.005.014.0097.0277.014.0414zM190.7166 477.7953c-34.2478-4.4014-56.4763-11.051-56.4763-11.051V196.1721c-4.4558 7.8668-11.8138 22.3792-20.0097 44.7432-9.633.716-19.3087-.3323-28.5106-2.5238a1.113 1.113 0 01.0199-.0967c19.3773-52.8475 36.3054-83.0661 43.6098-94.9437-1.929-9.0753-4.3277-16.912-7.0064-23.7011 29.0144 22.15 58.0437 57.685 60.099 117.44 2.5543 74.235 6.3956 185.91 8.2763 240.7053h-.002z" fill-opacity=".08" fill="#000"/><path d="M309 166.7471c-7.0714-4.1904-22-17.6786-22-42.4285l.3575-.0174c5.5554-.269 17.7987-.8616 21.6425-5.0898 3.8438 4.2282 16.0871 4.8209 21.6425 5.0898l.3575.0174c0 24.75-14.9286 38.238-22 42.4285z" fill="#ECCF39" fill-rule="nonzero"/><path d="M309 164.76c-6.5058-3.8788-20.24-16.3636-20.24-39.2727.1065-.0053.2162-.0106.3289-.016 5.111-.249 16.3747-.7976 19.9111-4.7113 3.5364 3.9137 14.8001 4.4623 19.9111 4.7112l.3289.016c0 22.9092-13.7342 35.394-20.24 39.2728z" fill="#2A2A2A" fill-rule="nonzero"/><path d="M289.6688 135.379l10.094-10.9108c3.8498-.6602 7.4885-1.7727 9.2373-3.7082.3993.442.8971.841 1.4735 1.2015l-18.913 20.4435c-.7711-2.181-1.416-4.5219-1.8918-7.026zm7.9653 18.6104a45.313 45.313 0 01-3.3752-5.4226l22.5446-24.3689c2.4672.51 5.115.8065 7.4729.9933l-26.6423 28.7982zm8.5811 8.8731c-1.4255-1.0853-2.9957-2.4508-4.5923-4.107l27.5058-29.7315c-.2611 4.0979-.9678 7.8314-1.9813 11.2124l-20.9322 22.626z" fill="#C93131" fill-rule="nonzero"/><path d="M318.043 131.1017c-.9779.4422-3.777 3.6832-2.6953 7.2338.0024.012-.0072.0143-.0024.031 1.3682 5.5373-.1074 5.5802-1.1461 5.85.0072-.1528.0191-.308.0072-.468-.1075-1.3395-1.0411-2.4092-2.2589-2.765.671-.671 1.065-1.6093.9814-2.6289-.0597-.7426-.363-1.3992-.8166-1.9173.8166-1.3587 1.8512-.9982 2.3544-4.1946.2543-1.6159-1.1892-4.0081-3.993-3.0045-2.804 1.0036-3.4683 1.5856-3.3327 3.2497.0979 1.1843.659 2.2158 1.49 2.937-.4633.1408-.874.3844-1.2274.6948-.8046-.7856-1.54-2.192-1.3825-4.7994.0764-1.2536-1.1986-2.1848-2.4522-2.0821-1.2536.1003-2.1872 1.1986-2.0845 2.4522.0836 1.022 1.7072 4.926 5.0382 5.647a2.0442 2.0442 0 00-.086.2293c-2.9154-.2269-2.925-1.7073-4.0472-1.6165-1.4303.1146-2.4976 1.3705-2.3806 2.8008.117 1.4326 1.4087 2.7244 2.8032 2.383 1.404-.3463 2.6456-.7975 3.6939-1.2655.1552.3725.8428 1.4382 1.1103 1.7295-.3988-.3104-1.0483 1.026-1.595 1.0714-1.1486.0932-2.0989.867-2.0058 2.0178.0454.5373.2937 1.0077.659 1.3515-.5802.215-1.1365.4107-1.5377.4441-1.33.1075-2.7125.5751-2.605 1.9051.1098 1.33 1.2774 2.3185 2.605 2.211 1.2321-.1002 3.7345-3.5577 4.0043-5.1217.4704-.1504 1.041-1.4397 1.2798-.6995.4012 1.2512-.8882 1.6714-.8046 2.722.0764.9456.9073 1.65 1.8505 1.5736.0788-.0072.1456-.0478.2196-.0645-.4751.8644-1.447 2.001-3.5386 3.362-1.182.7688 1.3467 2.4522 2.753 2.34 1.4065-.1147 1.798-1.151 2.758-2.1825 1.4278-1.5281 3.5816-3.7392-.628-5.2315 0-.0263.0119-.0478.0095-.0764-.0024-.0263-.0191-.0478-.0215-.074.1003.0023.1982.0143.2985.0047.7736-.062 1.4493-.4107 1.9603-.9193 1.5471.4003 2.5622-.0811 3.714-.7546 2.23-1.3036 1.1705-3.7139 1.0514-4.0011-1.0158-2.4499-1.2168-2.2707-1.2297-4.6478-.0117-2.1416 1.2836-5.4084 2.3677-4.3404 1.084 1.068-.1468 2.937.7413 2.937 1.0074 0 .5658-1.831.4741-2.617-.1588-1.3613-1.4166-2.13-2.3534-1.7062z" fill="#ECCF39"/></g></svg>