<svg xmlns="http://www.w3.org/2000/svg" width="501" height="501" fill="none"><path fill="#811C13" fill-rule="evenodd" d="M203.16 109.8h93.65V22.5h-93.65v87.3Z" clip-rule="evenodd"/><path fill="#EEE" fill-rule="evenodd" d="M203.02 32.8h93.46V18.6h-93.46v14.2Z" clip-rule="evenodd"/><path fill="#EA3223" fill-rule="evenodd" d="M87.7 75.83s-40.76 72.8-58.54 127.77c4.45 13.37 45.2 40.86 85.23 37.88 13.34-36.4 24.46-52 24.46-52s2.97-95.08-51.14-113.65Zm323.93 0s40.76 72.8 58.55 127.77c-4.44 13.37-45.2 40.86-85.23 37.88-13.34-36.4-24.46-52-24.46-52s-2.97-95.08 51.14-113.65Z" clip-rule="evenodd"/><path fill="#EA3223" fill-rule="evenodd" d="M249.67 58.27c-50.08 0-47.8-39.47-48.74-39.14-7.52 2.62-24.14 14.94-52.44 25.5-31.87 11.88-52.63 19.31-60.78 31.2 11.11 8.91 46.7 28.97 46.7 120.34v271.14s49.65 14.86 114.88 14.86c68.93 0 115.65-14.86 115.65-14.86V196.17c0-91.37 35.57-111.43 46.7-120.34-8.16-11.89-28.91-19.32-60.79-31.2-28.36-10.58-44.98-22.92-52.48-25.51-.92-.32 4.18 39.15-48.7 39.15Z" clip-rule="evenodd"/><path fill="#fff" fill-rule="evenodd" d="M467.62 195.87c.94 2.67 1.83 5.3 2.67 7.9-4.45 13.38-45.2 40.86-85.23 37.88a434.6 434.6 0 0 0-2.84-7.52c20.8-1.35 38-5.63 51.6-12.83 13.42-7.11 24.7-15.59 33.8-25.43Zm-435.81 0c9.1 9.83 20.37 18.3 33.78 25.4 13.6 7.2 30.82 11.48 51.64 12.83-.94 2.4-1.88 4.9-2.84 7.52-40.02 2.97-80.78-24.51-85.23-37.89.84-2.58 1.72-5.2 2.65-7.86Zm276.2-171.96c-5.77-3.24-9.73-5.34-12-5.34 0 0 5.88 32.5-46.34 32.5-48.52 0-46.34-32.5-46.34-32.5-2.28 0-6.23 2.1-12 5.34 0 0 7.37 40.38 58.4 40.38 51.48 0 58.28-35.9 58.28-40.38Z" clip-rule="evenodd"/><path fill="#000" fill-opacity=".08" fill-rule="evenodd" d="M413.75 238.9a93.73 93.73 0 0 1-28.8 2.58c-8.2-22.36-15.56-36.88-20.01-44.74V467.3s-21.1 6.71-55.87 11.11l-.55-.06 8.28-240.7c2.06-59.76 31.08-95.3 60.1-117.44a148.55 148.55 0 0 0-7 23.67c7.35 11.85 24.44 42.07 43.83 94.96l.01.04ZM190.88 478.35c-34.25-4.4-56.48-11.05-56.48-11.05V196.74c-4.46 7.87-11.81 22.38-20 44.74a93.6 93.6 0 0 1-28.52-2.52l.02-.1c19.38-52.84 36.3-83.06 43.61-94.94a148.63 148.63 0 0 0-7-23.7c29 22.15 58.04 57.68 60.1 117.44l8.27 240.7Z" clip-rule="evenodd"/><path fill="#EA3223" stroke="#1E1E1E" d="M318.03 159.25h.36l.12-.35a13.4 13.4 0 0 1 8.08-8.34l.38-.14.42-.15-.11-.44-.17-.65a48.16 48.16 0 0 1-.02-23.84l.17-.65.1-.42-.4-.17a15.45 15.45 0 0 1-8.35-8.11l-.17-.39-.13-.3h-.33l-12.41.03h-.34l-.13.32c-1.5 3.9-4.58 7-8.47 8.5l-.42.16.11.43.17.65c2 7.82 2.01 16.02.02 23.84l-.17.65-.1.43.4.16c3.91 1.5 7 4.58 8.51 8.48l.13.32h.34l12.41-.02Z"/><path fill="#fff" fill-rule="evenodd" d="m320.2 161.74-16.64.03-.74-1.92a12.32 12.32 0 0 0-7.07-7.05l-2.49-.95.82-3.23a45.66 45.66 0 0 0-.01-22.6l-.83-3.24 2.48-.96a12.32 12.32 0 0 0 7.05-7.07l.74-1.92 16.43-.03.96 2.18a12.95 12.95 0 0 0 7 6.8l2.43.99-.81 3.18a45.66 45.66 0 0 0 .01 22.6l.84 3.28-2.92 1.08a10.9 10.9 0 0 0-6.57 6.78l-.69 2.05Zm-2.22-45.94-12.41.03a15.31 15.31 0 0 1-8.76 8.79l.16.65a48.67 48.67 0 0 1 .02 24.09l-.16.64a15.31 15.31 0 0 1 8.79 8.77l12.41-.02a13.9 13.9 0 0 1 8.38-8.66l.38-.14-.16-.65a48.66 48.66 0 0 1-.02-24.09l.16-.64a15.95 15.95 0 0 1-8.62-8.38l-.17-.38Z" clip-rule="evenodd"/><path fill="#1E1E1E" fill-rule="evenodd" d="m320.92 162.74-18.04.03-1-2.56a11.32 11.32 0 0 0-6.49-6.47l-3.32-1.28 1.05-4.09a44.67 44.67 0 0 0-.02-22.11l-1.05-4.1 3.31-1.27a11.32 11.32 0 0 0 6.48-6.5l.98-2.56 17.78-.03 1.21 2.78a11.95 11.95 0 0 0 6.46 6.28l3.24 1.31-1.02 4.03a44.65 44.65 0 0 0 .01 22.11l1.07 4.15-3.77 1.39a9.9 9.9 0 0 0-5.97 6.16l-.91 2.73Zm-17.41-49.91-.74 1.92a12.32 12.32 0 0 1-7.05 7.07l-2.48.96.83 3.23c1.9 7.42 1.9 15.19.01 22.6l-.82 3.24 2.5.95a12.32 12.32 0 0 1 7.06 7.05l.75 1.92 16.63-.03.68-2.05a10.9 10.9 0 0 1 6.57-6.78l2.92-1.08-.84-3.27a45.64 45.64 0 0 1-.01-22.6l.8-3.19-2.42-.98a12.95 12.95 0 0 1-7-6.8l-.96-2.19-16.43.03Zm2.73 4a16.32 16.32 0 0 1-8.25 8.38c2 7.94 2.01 16.26.02 24.2a16.32 16.32 0 0 1 8.28 8.35l11.04-.01a14.9 14.9 0 0 1 8.27-8.41c-2-7.94-2-16.25 0-24.2a16.94 16.94 0 0 1-8.27-8.33l-11.09.01Zm11.74-1.02-12.41.02a15.32 15.32 0 0 1-8.76 8.79l.16.65a48.64 48.64 0 0 1 .02 24.09l-.16.64a15.31 15.31 0 0 1 8.79 8.77l12.41-.02a13.92 13.92 0 0 1 8.39-8.66l.37-.14-.16-.65a48.64 48.64 0 0 1-.02-24.09l.16-.64a15.95 15.95 0 0 1-8.62-8.38l-.17-.38Z" clip-rule="evenodd"/><path fill="#fff" d="M302.82 142.12v-4.72h6.63v-2.19h-6.63v-4.7h6.63v-3.19h4.71v3.18h6.63v4.71h-6.63v2.2h6.63v4.7h-6.63v3.18h-4.71v-3.17h-6.63Z"/><path fill="#fff" d="M302.82 142.12v-4.72h6.63v-2.19h-6.63v-4.7h6.63v-3.19h4.71v3.18h6.63v4.71h-6.63v2.2h6.63v4.7h-6.63v3.18h-4.71v-3.17h-6.63Z"/><path fill="#fff" d="M302.82 142.12v-4.72h6.63v-2.19h-6.63v-4.7h6.63v-3.19h4.71v3.18h6.63v4.71h-6.63v2.2h6.63v4.7h-6.63v3.18h-4.71v-3.17h-6.63Z"/><path fill="#fff" d="M302.82 142.12v-4.72h6.63v-2.19h-6.63v-4.7h6.63v-3.19h4.71v3.18h6.63v4.71h-6.63v2.2h6.63v4.7h-6.63v3.18h-4.71v-3.17h-6.63Z"/><path fill="#1E1E1E" fill-rule="evenodd" d="M309.45 142.12v3.17h4.71v-3.17h6.63v-4.72h-6.63v-2.19h6.63v-4.7h-6.63v-3.19h-4.71v3.18h-6.63v4.71h6.63v2.2h-6.63v4.7h6.63Zm-5.63-1h6.63v3.17h2.71v-3.17h6.63v-2.72h-6.63v-4.19h6.63v-2.7h-6.63v-3.19h-2.71v3.18h-6.63v2.71h6.63v4.2h-6.63v2.7Z" clip-rule="evenodd"/></svg>