<?xml version="1.0" encoding="UTF-8"?><svg width="500" height="500" viewBox="0 0 500 500" xmlns="http://www.w3.org/2000/svg"><g fill="none" fill-rule="evenodd"><path d="M0 0h500v500H0z"/><path fill="#D9D9D9" d="M203.0033 109.223h93.6432V21.928h-93.6432z"/><path fill="#E0E0E0" d="M202.8636 32.228h93.4586v-14.2h-93.4586z"/><path d="M87.5475 75.2585s-40.7627 72.8-58.5475 127.77c4.445 13.375 45.2077 40.86 85.2322 37.885 13.3398-36.4 24.4596-52 24.4596-52s2.9633-95.085-51.1443-113.655m323.9252 0s40.7628 72.8 58.5475 127.77c-4.445 13.375-45.2077 40.86-85.2321 37.885-13.3399-36.4-24.4597-52-24.4597-52s-2.9633-95.085 51.1443-113.655" fill="#A23043"/><path d="M249.5111 57.7025c-50.0817 0-47.7981-39.469-48.7426-39.14-7.5158 2.6187-24.1326 14.9368-52.4385 25.495-31.8729 11.885-52.626 19.315-60.7825 31.2 11.1149 8.915 46.6944 28.97 46.6944 120.345v271.14s49.6576 14.855 114.885 14.855c68.9291 0 115.6484-14.855 115.6484-14.855v-271.14c0-91.375 35.5795-111.43 46.6994-120.345-8.1566-11.885-28.9096-19.315-60.7825-31.2-28.3599-10.5767-44.9818-22.9194-52.478-25.5106-.9273-.3184 4.1773 39.1556-48.703 39.1556z" fill="#A23043"/><path d="M269.0038 55.4669l-.0035 425.7194a480.7355 480.7355 0 01-19.8733.4112c-6.193 0-12.2455-.134-18.1286-.3763l-.0012-425.7293c5.1997 1.3953 11.316 2.2106 18.514 2.2106 7.645 0 14.078-.825 19.4926-2.2356zM309.001 477.841l-.0017-453.7944 3.2926 1.8535c8.4081 4.7166 19.837 10.917 34.7072 16.745l.0027 428.655-1.808.397c-9.2414 2.0045-21.4935 4.2802-36.1928 6.144zM191.0005 23.4963l-.0006 454.3332-1.993-.2592c-14.513-1.9187-26.784-4.2234-36.0081-6.2125l.002-429.0985c17.0564-6.7727 29.5054-13.9902 37.9997-18.763z" fill="#F2F2F2"/><path d="M265.0007 56.364v424.9712c-5.1452.17-10.4405.2623-15.8737.2623-4.7983 0-9.5123-.0804-14.1285-.2293l-.0004-424.9564c4.2695.8268 9.0835 1.2907 14.513 1.2907 5.8422 0 10.9766-.4818 15.4896-1.3385zm48.0012 420.952l-.0025-451.0195 1.6545.9219c7.3264 4.0645 16.6981 9.0085 28.3454 13.8174l.0016 431.13-1.4879.31c-7.8034 1.6095-17.3964 3.3311-28.511 4.8402zM187.0005 25.748l-.0026 451.5524-2.1684-.3012c-10.7522-1.5189-20.149-3.2233-27.8311-4.8l.002-431.57 1.7437-.7371c11.7952-5.041 21.1267-10.1417 28.2564-14.1441z" fill="#31724F"/><path d="M307.8516 23.345c-5.772-3.24-9.728-5.345-12.0078-5.345 0 0 5.8817 32.495-46.3352 32.495-48.5202 0-46.3352-32.495-46.3352-32.495-2.2798 0-6.2358 2.105-12.0028 5.345 0 0 7.3683 40.38 58.4029 40.38 51.4785 0 58.2781-35.895 58.2781-40.38z" fill="#F2F2F2"/><path d="M413.5843 238.3227c-9.2877 2.2382-19.0646 3.3161-28.7978 2.5926-8.1978-22.369-15.5572-36.883-20.0128-44.7484v270.5774s-21.1022 6.7098-55.8664 11.1104c-.1817-.0197-.363-.0396-.544-.0597 1.8808-54.795 5.7221-166.47 8.2763-240.705 2.0554-59.755 31.0847-95.29 60.099-117.44-2.6753 6.7806-5.0714 14.6063-6.9991 23.6673 7.354 11.8514 24.4358 42.0687 43.8307 94.964.005.014.0097.0277.014.0414zM190.7166 477.7953c-34.2478-4.4014-56.4763-11.051-56.4763-11.051V196.1721c-4.4558 7.8668-11.8138 22.3792-20.0097 44.7432-9.633.716-19.3087-.3323-28.5106-2.5238a1.113 1.113 0 01.0199-.0967c19.3773-52.8475 36.3054-83.0661 43.6098-94.9437-1.929-9.0753-4.3277-16.912-7.0064-23.7011 29.0144 22.15 58.0437 57.685 60.099 117.44 2.5543 74.235 6.3956 185.91 8.2763 240.7053h-.002z" fill-opacity=".1" fill="#000"/><path d="M309.0036 167c-8.862-7.1656-22.256-19.7647-21.9982-43.2903 15.4545 0 21.9976-4.7097 21.9976-4.7097s6.543 4.7097 21.9988 4.7097c0 23.5256-13.1363 36.1247-21.9982 43.2903z" fill="#A23043" fill-rule="nonzero"/><path d="M309.0034 165c-8.0563-6.5685-20.2327-18.1176-19.9983-39.6827 14.0495 0 19.9978-4.3173 19.9978-4.3173s5.9482 4.3173 19.9989 4.3173c0 21.565-11.9421 33.1142-19.9984 39.6827z" fill="#F2F2F2" fill-rule="nonzero"/><path d="M309.0032 163c-7.2506-5.9714-18.2094-16.4706-17.9984-36.0752 12.6446 0 17.998-3.9248 17.998-3.9248s5.3534 3.9248 17.999 3.9248c0 19.6046-10.7479 30.1038-17.9986 36.0752z" fill="#B5364B" fill-rule="nonzero"/><path d="M309.0032 163l-.614-.5095c-4.8726-4.0752-11.156-10.1441-14.68-19.4898L324.2039 143c-3.6786 9.7437-10.2536 15.9257-15.2006 19.9999z" fill="#2C6646" fill-rule="nonzero"/><rect fill="#F2F2F2" opacity=".6955" x="300" y="128" width="18" height="28" rx="7"/><path d="M308.7914 150c2.6022 0 4.8613-.4562 6.7774-1.3687 1.7979-.8496 3.0871-2.0138 3.8678-3.4927h-2.8032c-.6151.9597-1.5554 1.7228-2.821 2.2891-1.2656.5664-2.7382.8496-4.4178.8496-3.0516 0-5.3817-.6057-6.9903-1.8171-1.5376-1.1485-2.3064-2.6352-2.3064-4.4602 0-1.825.7688-3.3117 2.3064-4.4602.757-.5663 1.6914-1.0108 2.8032-1.3333 1.1119-.3225 2.5076-.4838 4.1871-.4838 1.6796 0 3.1522.2832 4.4178.8496 1.2656.5663 2.2059 1.3294 2.821 2.289h2.8032c-.7807-1.4788-2.07-2.643-3.8678-3.4926-1.916-.9125-4.1752-1.3687-6.7774-1.3687-3.43 0-6.2097.7788-8.3387 2.3363-2.0107 1.4946-3.0161 3.3825-3.0161 5.6637 0 2.2812 1.0054 4.1691 3.0161 5.6637 2.129 1.5575 4.9086 2.3363 8.3387 2.3363z" fill="#F2F2F2" fill-rule="nonzero"/><path d="M303.9993 128.674L304 153h-2l-.0006-22.8983a7.0183 7.0183 0 011.9999-1.4277zM308 128h2v28h-2z" fill="#F2F2F2"/></g></svg>