<?xml version="1.0" encoding="UTF-8"?><svg width="500" height="500" viewBox="0 0 500 500" xmlns="http://www.w3.org/2000/svg"><g fill="none" fill-rule="evenodd"><path d="M0 0h500v500H0z"/><path fill="#D9D9D9" d="M203.0033 109.223h93.6432V21.928h-93.6432z"/><path fill="#163F31" d="M202.8636 32.228h93.4586v-14.2h-93.4586z"/><path d="M87.5475 75.2585s-40.7627 72.8-58.5475 127.77c4.445 13.375 45.2077 40.86 85.2322 37.885 13.3398-36.4 24.4596-52 24.4596-52s2.9633-95.085-51.1443-113.655m323.9252 0s40.7628 72.8 58.5475 127.77c-4.445 13.375-45.2077 40.86-85.2321 37.885-13.3399-36.4-24.4597-52-24.4597-52s-2.9633-95.085 51.1443-113.655" fill="#F2F2F2"/><path d="M249.5111 57.7025c-50.0817 0-47.7981-39.469-48.7426-39.14-7.5158 2.6187-24.1326 14.9368-52.4385 25.495-31.8729 11.885-52.626 19.315-60.7825 31.2 11.1149 8.915 46.6944 28.97 46.6944 120.345v271.14s49.6576 14.855 114.885 14.855c68.9291 0 115.6484-14.855 115.6484-14.855v-271.14c0-91.375 35.5795-111.43 46.6994-120.345-8.1566-11.885-28.9096-19.315-60.7825-31.2-28.3599-10.5767-44.9818-22.9194-52.478-25.5106-.9273-.3184 4.1773 39.1556-48.703 39.1556z" fill="#F2F2F2"/><path d="M249.5111 147c39.5506 0 79.1121 1.3176 118.6844 3.9527-1.6368 9.6183-2.7678 20.488-3.2113 32.792C326.2605 181.2496 287.7688 180 249.5112 180c-38.5034 0-76.9963 1.2656-115.4788 3.797-.4391-12.306-1.5677-23.1746-3.202-32.7916C170.14 148.335 209.7005 147 249.511 147zm0-41c43.6681 0 87.3494 1.6062 131.044 4.8186-4.217 8.5188-8.027 19.0711-10.8465 32.2407C329.39 140.3532 289.3238 139 249.511 139c-40.0752 0-80.139 1.3711-120.1917 4.1133-2.812-13.1594-6.6139-23.7078-10.823-32.2277L117 111c43.8581-3.3333 88.0285-5 132.5111-5zm58.3405-82.655c-5.772-3.24-9.728-5.345-12.0078-5.345 0 0 5.8817 32.495-46.3352 32.495-48.5202 0-46.3352-32.495-46.3352-32.495-2.2798 0-6.2358 2.105-12.0028 5.345 0 0 7.3683 40.38 58.4029 40.38 51.4785 0 58.2781-35.895 58.2781-40.38z" fill="#1E5441"/><path d="M413.5843 238.3227c-9.2877 2.2382-19.0646 3.3161-28.7978 2.5926-8.1978-22.369-15.5572-36.883-20.0128-44.7484v270.5774s-21.1022 6.7098-55.8664 11.1104c-.1817-.0197-.363-.0396-.544-.0597 1.8808-54.795 5.7221-166.47 8.2763-240.705 2.0554-59.755 31.0847-95.29 60.099-117.44-2.6753 6.7806-5.0714 14.6063-6.9991 23.6673 7.354 11.8514 24.4358 42.0687 43.8307 94.964.005.014.0097.0277.014.0414zM190.7166 477.7953c-34.2478-4.4014-56.4763-11.051-56.4763-11.051V196.1721c-4.4558 7.8668-11.8138 22.3792-20.0097 44.7432-9.633.716-19.3087-.3323-28.5106-2.5238a1.113 1.113 0 01.0199-.0967c19.3773-52.8475 36.3054-83.0661 43.6098-94.9437-1.929-9.0753-4.3277-16.912-7.0064-23.7011 29.0144 22.15 58.0437 57.685 60.099 117.44 2.5543 74.235 6.3956 185.91 8.2763 240.7053h-.002z" fill-opacity=".06" fill="#000"/><g transform="translate(227 113)" fill-rule="nonzero"><circle fill="#F2F2F2" cx="23.85" cy="34.65" r="23.85"/><circle fill="#194737" cx="23.85" cy="34.65" r="22.05"/><circle fill="#F2F2F2" cx="23.85" cy="34.65" r="14.85"/><circle fill="#194737" cx="23.85" cy="34.65" r="13.05"/><path d="M34.2 41.0875C31.9477 44.5357 28.1524 46.8 23.85 46.8c-4.3025 0-8.0978-2.2643-10.35-5.7125 2.9567-2.076 6.5176-3.2875 10.35-3.2875s7.3934 1.2116 10.35 3.2875zm0-12.875C31.2433 30.2885 27.6824 31.5 23.85 31.5s-7.3933-1.2116-10.35-3.2875C15.7522 24.7643 19.5475 22.5 23.85 22.5c4.3024 0 8.0977 2.2643 10.35 5.7125z" fill="#F2F2F2"/><path fill="#F4EF80" d="M23.7798 0L24.97 2.8617l3.0895.2477-2.3538 2.0164.719 3.0148-2.645-1.6156-2.645 1.6156.7192-3.0148L19.5 3.1094l3.0895-.2477z"/></g></g></svg>