<?xml version="1.0" encoding="UTF-8"?><svg width="500" height="500" viewBox="0 0 500 500" fill="none" xmlns="http://www.w3.org/2000/svg"><path fill-rule="evenodd" clip-rule="evenodd" d="M203.003 109.223h93.644V21.928h-93.644v87.295z" fill="#224397"/><path fill-rule="evenodd" clip-rule="evenodd" d="M202.864 32.228h93.458v-14.2h-93.458v14.2z" fill="#E0E0E0"/><path fill-rule="evenodd" clip-rule="evenodd" d="M87.5475 75.2585S46.7848 148.058 29 203.028c4.4449 13.375 45.2077 40.86 85.232 37.885 13.34-36.4 24.46-52 24.46-52s2.963-95.0845-51.1445-113.6545zm323.9245 0s40.763 72.7995 58.548 127.7695c-4.445 13.375-45.208 40.86-85.232 37.885-13.34-36.4-24.46-52-24.46-52s-2.963-95.0845 51.144-113.6545z" fill="#2649A5"/><path fill-rule="evenodd" clip-rule="evenodd" d="M249.511 57.7025c-50.082 0-47.798-39.4691-48.743-39.14-7.516 2.6187-24.132 14.9368-52.438 25.495-31.873 11.885-52.6261 19.315-60.7826 31.2 11.1148 8.915 46.6946 28.9695 46.6946 120.3445v271.14s49.657 14.856 114.885 14.856c68.929 0 115.648-14.856 115.648-14.856v-271.14c0-91.375 35.58-111.4295 46.699-120.3445-8.156-11.885-28.909-19.315-60.782-31.2-28.36-10.5767-44.982-22.9195-52.478-25.5087-.927-.3203 4.177 39.1537-48.703 39.1537z" fill="#2649A5"/><path fill-rule="evenodd" clip-rule="evenodd" d="M307.851 23.345c-5.772-3.24-9.728-5.345-12.007-5.345 0 0 5.881 32.495-46.336 32.495-48.52 0-46.335-32.495-46.335-32.495-2.28 0-6.236 2.105-12.003 5.345 0 0 7.369 40.38 58.403 40.38 51.479 0 58.278-35.895 58.278-40.38z" fill="#F2F2F2"/><path fill-rule="evenodd" clip-rule="evenodd" d="M413.584 238.323c-9.287 2.238-19.064 3.316-28.797 2.592-8.198-22.369-15.558-36.883-20.013-44.748v270.577s-21.102 6.71-55.866 11.111l-.544-.06c1.88-54.795 5.722-166.47 8.276-240.705 2.055-59.755 31.085-95.29 60.099-117.44-2.675 6.781-5.072 14.606-6.999 23.667 7.354 11.852 24.435 42.069 43.83 94.964.005.014.01.028.014.042zM190.717 477.795c-34.248-4.401-56.476-11.051-56.476-11.051V196.172c-4.456 7.867-11.814 22.379-20.01 44.743-9.633.716-19.3089-.332-28.5108-2.523.0051-.032.0117-.065.0199-.097 19.3769-52.848 36.3059-83.066 43.6099-94.944-1.929-9.075-4.328-16.912-7.006-23.701 29.014 22.15 58.043 57.685 60.099 117.44 2.554 74.235 6.395 185.91 8.276 240.705h-.002z" fill="#000" fill-opacity=".1"/><path fill-rule="evenodd" clip-rule="evenodd" d="M320.009 132.5c-1.46 0-2.732.257-3.84.742-1.092.483-1.867 1.123-2.397 1.896-.518.76-.786 1.632-.786 2.663 0 1.876.914 3.441 3.177 4.729.849.481 2.059 1.003 3.663 1.556 1.668.563 3.027 1.164 3.883 1.854 1.053.836 1.514 2.028 1.514 3.342 0 1.289-.499 2.426-1.536 3.226l-.006.005-.007.005c-.985.743-2.23 1.021-3.554 1.021-1.712 0-3.275-.372-4.42-1.381-.805-.709-1.279-1.622-1.5-2.646h-1.774c.148.678.4 1.285.75 1.833.6.924 1.485 1.69 2.724 2.278 1.242.577 2.64.877 4.22.877 2.333 0 4.006-.541 5.179-1.464 1.119-.891 1.701-2.093 1.701-3.787 0-1.532-.486-2.73-1.431-3.699-.992-1.018-2.699-1.986-5.299-2.809l-.002-.001c-1.533-.488-2.814-1.045-3.756-1.705l-.008-.006c-1.071-.763-1.757-1.849-1.757-3.211 0-1.287.519-2.403 1.53-3.209 1.001-.809 2.283-1.115 3.652-1.115 1.46 0 2.806.381 3.83 1.336.662.61 1.08 1.359 1.297 2.19h1.773a5.4063 5.4063 0 00-.679-1.614l-.005-.008c-.55-.889-1.326-1.587-2.377-2.095l-.009-.004c-1.057-.52-2.295-.799-3.75-.799zm-5.046-2.005c1.537-.673 3.227-.995 5.046-.995 1.844 0 3.546.356 5.07 1.104 1.527.739 2.747 1.81 3.615 3.213.879 1.404 1.306 2.986 1.306 4.703v1.5h-7.761v-1.5c0-.798-.227-1.221-.515-1.486l-.01-.009c-.309-.289-.834-.531-1.785-.531-.955 0-1.48.216-1.769.45l-.006.005-.006.005c-.276.219-.401.461-.401.864 0 .22.066.459.493.764.583.408 1.533.853 2.938 1.299 2.816.893 5.055 2.052 6.539 3.575 1.531 1.57 2.283 3.537 2.283 5.793 0 2.516-.93 4.621-2.836 6.137l-.005.004c-1.854 1.46-4.253 2.11-7.039 2.11-1.973 0-3.811-.378-5.49-1.159l-.008-.004c-1.677-.794-3.022-1.908-3.966-3.365l-.006-.008c-.932-1.459-1.378-3.128-1.378-4.952v-1.5h7.777v1.5c0 1.059.292 1.593.634 1.895.379.334 1.101.632 2.437.632.933 0 1.455-.198 1.741-.411.228-.179.362-.402.362-.846 0-.576-.171-.829-.382-.995l-.006-.005-.007-.005c-.413-.334-1.336-.801-2.965-1.35l-.009-.003c-1.694-.583-3.097-1.175-4.172-1.785l-.002-.001c-2.985-1.698-4.694-4.155-4.694-7.337 0-1.596.429-3.064 1.308-4.353l.001-.003c.889-1.298 2.134-2.273 3.664-2.948l.004-.002zM290 129.834h18.459v7.061h-10.698v2.799h8.186v6.927h-8.186v3.517h10.729v7.028H290v-27.332zm3 3v21.332h12.49v-1.028h-10.729v-9.517h8.186v-.927h-8.186v-8.799h10.698v-1.061H293z" fill="#1F4094"/><path d="M304.447 145.121h-8.186v6.517h10.729v4.028H291.5v-24.332h15.459v4.061h-10.698v5.799h8.186v3.927zm19.276 4.161c0-.947-.318-1.671-.953-2.172-.634-.513-1.777-1.048-3.428-1.605-1.65-.568-2.957-1.125-3.92-1.671-2.624-1.493-3.936-3.504-3.936-6.033 0-1.314.349-2.484 1.047-3.509.709-1.036 1.72-1.844 3.032-2.423 1.322-.579 2.804-.869 4.444-.869 1.65 0 3.121.318 4.412.953 1.291.623 2.291 1.509 3 2.657.719 1.147 1.079 2.451 1.079 3.91h-4.761c0-1.114-.334-1.977-1-2.59-.667-.624-1.603-.936-2.81-.936-1.163 0-2.068.262-2.714.785-.645.513-.968 1.192-.968 2.039 0 .791.376 1.454 1.127 1.989.762.535 1.878 1.036 3.349 1.504 2.709.858 4.682 1.922 5.92 3.192 1.238 1.27 1.857 2.852 1.857 4.746 0 2.105-.757 3.76-2.27 4.963-1.513 1.192-3.55 1.788-6.11 1.788-1.778 0-3.397-.34-4.857-1.019-1.46-.691-2.576-1.633-3.349-2.825-.761-1.192-1.142-2.573-1.142-4.144h4.777c0 2.685 1.524 4.027 4.571 4.027 1.132 0 2.016-.239 2.65-.718.635-.49.953-1.17.953-2.039z" fill="#fff"/></svg>