<?xml version="1.0" encoding="UTF-8"?><svg width="500" height="500" viewBox="0 0 500 500" xmlns="http://www.w3.org/2000/svg"><g fill="none" fill-rule="evenodd"><path d="M0 0h500v500H0z"/><path fill="#D9D9D9" d="M203.0033 109.223h93.6432V21.928h-93.6432z"/><path fill="#393939" d="M202.8636 32.228h93.4586v-14.2h-93.4586z"/><path d="M87.5475 75.2585s-40.7627 72.8-58.5475 127.77c4.445 13.375 45.2077 40.86 85.2322 37.885 13.3398-36.4 24.4596-52 24.4596-52s2.9633-95.085-51.1443-113.655m323.9252 0s40.7628 72.8 58.5475 127.77c-4.445 13.375-45.2077 40.86-85.2321 37.885-13.3399-36.4-24.4597-52-24.4597-52s-2.9633-95.085 51.1443-113.655" fill="#F2F2F2"/><path d="M249.5111 57.7025c-50.0817 0-47.7981-39.469-48.7426-39.14-7.5158 2.6187-24.1326 14.9368-52.4385 25.495-31.8729 11.885-52.626 19.315-60.7825 31.2 11.1149 8.915 46.6944 28.97 46.6944 120.345v271.14s49.6576 14.855 114.885 14.855c68.9291 0 115.6484-14.855 115.6484-14.855v-271.14c0-91.375 35.5795-111.43 46.6994-120.345-8.1566-11.885-28.9096-19.315-60.7825-31.2-28.3599-10.5767-44.9818-22.9194-52.478-25.5106-.9273-.3184 4.1773 39.1556-48.703 39.1556z" fill="#F2F2F2"/><path d="M467.3529 195.129c.9359 2.6665 1.8272 5.303 2.6673 7.8995-4.445 13.375-45.2077 40.86-85.2321 37.885a426.4238 426.4238 0 00-2.8354-7.5198c20.795-1.3576 37.9932-5.6366 51.5944-12.8371 13.4282-7.109 24.6968-15.5848 33.8058-25.4277zm-435.6982.036c9.1031 9.8275 20.3606 18.2914 33.7724 25.3916 13.611 7.2056 30.824 11.4856 51.6393 12.84a426.4196 426.4196 0 00-2.8342 7.5169c-40.0245 2.975-80.7873-24.51-85.2322-37.885.8363-2.5849 1.7234-5.2092 2.6547-7.8635zm139.0912 279.6266c-7.2053-1.3139-13.5083-2.6497-18.7459-3.8581V42.654c17.571-6.8855 30.3404-14.2918 39-19.1575v454.333a470.6265 470.6265 0 01-20.2541-3.038zM267.5 481.246a480.7056 480.7056 0 01-18.373.3514 439.445 439.445 0 01-16.627-.317V52h35v429.246zM348 43.0349v428.0418c-9.5061 2.1435-22.7595 4.7055-39 6.7646V24.047c8.7976 4.9565 21.5788 12.2502 39 18.988z" fill="#3D3D3D"/><path d="M307.8516 23.345c-5.772-3.24-9.728-5.345-12.0078-5.345 0 0 5.8817 32.495-46.3352 32.495-48.5202 0-46.3352-32.495-46.3352-32.495-2.2798 0-6.2358 2.105-12.0028 5.345 0 0 7.3683 40.38 58.4029 40.38 51.4785 0 58.2781-35.895 58.2781-40.38z" fill="#3D3D3D"/><path d="M413.5843 238.3227c-9.2877 2.2382-19.0646 3.3161-28.7978 2.5926-8.1978-22.369-15.5572-36.883-20.0128-44.7484v270.5774s-21.1022 6.7098-55.8664 11.1104c-.1817-.0197-.363-.0396-.544-.0597 1.8808-54.795 5.7221-166.47 8.2763-240.705 2.0554-59.755 31.0847-95.29 60.099-117.44-2.6753 6.7806-5.0714 14.6063-6.9991 23.6673 7.354 11.8514 24.4358 42.0687 43.8307 94.964.005.014.0097.0277.014.0414zM190.7166 477.7953c-34.2478-4.4014-56.4763-11.051-56.4763-11.051V196.1721c-4.4558 7.8668-11.8138 22.3792-20.0097 44.7432-9.633.716-19.3087-.3323-28.5106-2.5238a1.113 1.113 0 01.0199-.0967c19.3773-52.8475 36.3054-83.0661 43.6098-94.9437-1.929-9.0753-4.3277-16.912-7.0064-23.7011 29.0144 22.15 58.0437 57.685 60.099 117.44 2.5543 74.235 6.3956 185.91 8.2763 240.7053h-.002z" fill-opacity=".08" fill="#000"/><path d="M309 172.7826c-8.4598-5.6135-23.1508-20.5355-21.7538-46.7785C299.936 128.874 309 120.3842 309 120.3842s9.064 8.49 21.7538 5.6199c1.397 26.243-13.294 41.165-21.7538 46.7785z" fill="#3D3D3D" fill-rule="nonzero"/><path fill="#E0C129" d="M309 117.5l-2.3511 1.236.449-2.618-1.9021-1.854 2.6286-.382L309 111.5l1.1756 2.382 2.6286.382-1.902 1.854.449 2.618z"/><path d="M309 170.3913c-7.7447-6.306-20.1938-18.4483-19.915-42.2533 11.6172 2.7127 19.915-5.3682 19.915-5.3682s8.2978 8.081 19.915 5.3682c.2788 23.805-12.1703 35.9474-19.915 42.2533z" fill="#F2F2F2" fill-rule="nonzero"/><path d="M312 141.5v24.4128c-1.0441.9963-2.0552 1.8812-3 2.6677-.9425-.7847-1.9536-1.6672-2.9996-2.6606L306 141.5h6zm-8 0v22.417c-2.0265-2.1422-4.1015-4.7068-5.9998-7.7817L298 141.5h6zm16 0l.0009 14.5264c-1.8927 3.1142-3.9683 5.708-6.0005 7.8714L314 141.5h6zm-27.9809.0004L296 141.5v11.054c-1.6075-3.198-2.9937-6.8594-3.9809-11.0536zm29.9818 10.88L322 141.5l3.8535.0004c-.9589 4.1185-2.298 7.7233-3.8526 10.88zm-13.001-27.7999l.3424.3015c1.62 1.3713 8.824 6.8593 18.0415 4.6585-.1225 3.6011-.51 6.9134-1.1033 9.9605h-34.693c-.5997-3.047-.991-6.3594-1.1135-9.9605 10.4976 2.5065 18.526-4.96 18.526-4.96z" fill="#3D3D3D" fill-rule="nonzero"/><path fill="#A4A4A4" d="M294 132.5h30v5h-30z"/></g></svg>