<?xml version="1.0" encoding="UTF-8"?><svg width="500" height="500" viewBox="0 0 500 500" fill="none" xmlns="http://www.w3.org/2000/svg"><path fill-rule="evenodd" clip-rule="evenodd" d="M203.003 109.223h93.643V21.928h-93.643v87.295z" fill="#11437D"/><path fill-rule="evenodd" clip-rule="evenodd" d="M202.864 32.228h93.458v-14.2h-93.458v14.2z" fill="#E0E0E0"/><path fill-rule="evenodd" clip-rule="evenodd" d="M87.5475 75.2585S46.7848 148.058 29 203.028c4.4449 13.375 45.2077 40.86 85.232 37.885 13.34-36.4 24.46-52 24.46-52s2.963-95.0845-51.1445-113.6545zm323.9255 0s40.762 72.7995 58.547 127.7695c-4.445 13.375-45.208 40.86-85.232 37.885-13.34-36.4-24.46-52-24.46-52s-2.963-95.0845 51.145-113.6545z" fill="#1B58A0"/><path fill-rule="evenodd" clip-rule="evenodd" d="M249.511 57.7025c-50.082 0-47.798-39.4691-48.743-39.14-7.515 2.6187-24.132 14.9368-52.438 25.495-31.873 11.885-52.626 19.315-60.7825 31.2 11.1148 8.915 46.6945 28.9695 46.6945 120.3445v271.14s49.657 14.856 114.885 14.856c68.929 0 115.648-14.856 115.648-14.856v-271.14c0-91.375 35.58-111.4295 46.7-120.3445-8.157-11.885-28.91-19.315-60.783-31.2-28.36-10.5767-44.982-22.9195-52.478-25.5087-.927-.3203 4.177 39.1537-48.703 39.1537z" fill="#1B58A0"/><path fill-rule="evenodd" clip-rule="evenodd" d="M293.733 37.2607c45.26 11.3356 71.506 39.3368 71.506 67.9813v72.909c-.301 5.499-.461 11.3-.461 17.422v271.14s-46.719 14.855-115.648 14.855c-65.227 0-114.885-14.855-114.885-14.855v-271.14c0-6.262-.167-12.189-.482-17.8v-72.531c0-28.836 26.598-57.0202 72.416-68.202 5.596 10.1262 17.496 20.6326 43.335 20.6326 27.082 0 38.955-10.353 44.219-20.4119z" fill="#165094"/><path fill-rule="evenodd" clip-rule="evenodd" d="M201.788 27.1165l1.727 3.2147-1.53.8662c-8.945 5.0962-22.616 13.2988-41.88 20.6997l-11.151 4.2368c-24.117 9.1986-40.457 15.9864-48.165 25.598a49.793 49.793 0 00-3.3802-1.9139c8.5122-11.2394 28.5882-18.5704 58.9052-30.078 19.259-7.3123 33.01-15.4687 42.097-20.6626l-.01-.0499 1.754-.9978c.565-.3189 1.109-.6237 1.633-.9132zm-9.245-2.1037l1.735 3.2289-4.229 2.4198c-8.846 5.0284-20.918 11.5777-36.678 17.5616l-7.955 3.0188c-25.962 9.8705-43.302 16.8726-51.0185 27.1478a48.8451 48.8451 0 00-2.9256-1.1798l-.7491-.2682C98.7337 65.055 119.121 57.625 150.433 45.74c19.259-7.3123 33.01-15.4687 42.097-20.6626l-.01-.0499.023-.0147zm104.522 5.8388l1.58-3.3039 1.534.8651c.352.2.711.405 1.078.6147l-.01.0499 5.018 2.873c8.881 5.0574 21.079 11.7148 37.079 17.7896l8.787 3.3354c25.432 9.6786 42.461 16.6291 50.125 26.7501-1.163.5935-2.291 1.2313-3.388 1.9063-8.756-10.9212-28.661-18.1972-58.462-29.5087l-1.764-.6778c-15.148-5.8932-26.782-12.2525-35.336-17.124l-6.241-3.5697zM307.091 25l.047.0275-.01.0499 5.018 2.873c8.881 5.0574 21.079 11.7148 37.079 17.7896l9.839 3.7359c25.477 9.71 42.351 16.7149 49.627 27.1106l.244.3552a53.1774 53.1774 0 00-3.677 1.4463c-8.474-11.2884-28.575-18.6276-58.971-30.1649-16.441-6.2424-28.868-13.1002-37.806-18.2046l-2.802-1.6049L307.091 25z" fill="#F1F1F1"/><path fill-rule="evenodd" clip-rule="evenodd" d="M307.852 23.345C302.08 20.105 298.124 18 295.844 18c0 0 5.881 32.495-46.335 32.495-48.521 0-46.336-32.495-46.336-32.495-2.279 0-6.235 2.105-12.002 5.345 0 0 7.368 40.38 58.402 40.38 51.479 0 58.279-35.895 58.279-40.38z" fill="#F1F1F1"/><path fill-rule="evenodd" clip-rule="evenodd" d="M413.584 238.323c-9.287 2.238-19.064 3.316-28.798 2.592-8.197-22.369-15.557-36.883-20.012-44.748v270.577s-21.102 6.71-55.867 11.111l-.544-.06c1.881-54.795 5.722-166.47 8.277-240.705 2.055-59.755 31.084-95.29 60.099-117.44-2.676 6.781-5.072 14.606-7 23.667 7.354 11.852 24.436 42.069 43.831 94.964.005.014.01.028.014.042zM190.717 477.795c-34.248-4.401-56.477-11.051-56.477-11.051V196.172c-4.456 7.867-11.813 22.379-20.009 44.743-9.633.716-19.3091-.332-28.511-2.523.0051-.032.0117-.065.0199-.097 19.3771-52.848 36.3051-83.066 43.6101-94.944-1.929-9.075-4.328-16.912-7.007-23.701 29.015 22.15 58.044 57.685 60.099 117.44 2.555 74.235 6.396 185.91 8.277 240.705h-.002z" fill="#000" fill-opacity=".08"/><path d="M308.5 120l1.316 3.689 3.915.111-3.102 2.392 1.104 3.758-3.233-2.211-3.233 2.211 1.104-3.758-3.102-2.392 3.915-.111L308.5 120zm0 35l1.316 3.689 3.915.111-3.102 2.392 1.104 3.758-3.233-2.211-3.233 2.211 1.104-3.758-3.102-2.392 3.915-.111L308.5 155zm-14-26l1.316 3.689 3.915.111-3.102 2.392 1.104 3.758-3.233-2.211-3.233 2.211 1.104-3.758-3.102-2.392 3.915-.111L294.5 129zm28 0l1.316 3.689 3.915.111-3.102 2.392 1.104 3.758-3.233-2.211-3.233 2.211 1.104-3.758-3.102-2.392 3.915-.111L322.5 129zm-11 9l1.077 3.018 3.203.091-2.538 1.957.903 3.075-2.645-1.809-2.645 1.809.903-3.075-2.538-1.957 3.203-.091L311.5 138z" fill="#F2F2F2"/></svg>