<svg xmlns="http://www.w3.org/2000/svg" width="500" height="500" fill="none" viewBox="0 0 500 500"><g clip-path="url(#clip0_5839_4470)"><path fill="#CBCBCB" fill-rule="evenodd" d="M203 109.22h93.65v-87.3H203v87.3Z" clip-rule="evenodd"/><path fill="#DFDFDF" fill-rule="evenodd" d="M202.86 32.23h93.46v-14.2h-93.46v14.2Z" clip-rule="evenodd"/><path fill="#3D3D3D" fill-rule="evenodd" d="M87.55 75.26S46.78 148.06 29 203.03c4.44 13.37 45.2 40.86 85.23 37.88 13.34-36.4 24.46-52 24.46-52s2.97-95.08-51.14-113.65M411.47 75.26s40.76 72.8 58.55 127.77c-4.44 13.37-45.2 40.86-85.23 37.88-13.34-36.4-24.46-52-24.46-52s-2.96-95.08 51.14-113.65" clip-rule="evenodd"/><path fill="#3D3D3D" fill-rule="evenodd" d="M249.51 57.7c-50.08 0-47.8-39.47-48.74-39.14-7.52 2.62-24.13 14.94-52.44 25.5-31.87 11.88-52.63 19.31-60.78 31.2 11.11 8.91 46.7 28.97 46.7 120.34v271.14s49.65 14.86 114.88 14.86c68.93 0 115.64-14.86 115.64-14.86V195.6c0-91.37 35.59-111.43 46.7-120.34-8.15-11.89-28.9-19.32-60.78-31.2-28.36-10.58-44.98-22.92-52.48-25.51-.92-.32 4.18 39.15-48.7 39.15Z" clip-rule="evenodd"/><path fill="#F2F2F2" fill-rule="evenodd" d="M145 74.19c-7.04 9.76-10.75 20.47-10.75 31.27v361.29c.49.14 49.98 14.85 114.88 14.85 2.66 0 5.3-.02 7.89-.06 64.57-1.08 107.73-14.8 107.73-14.8V195.62c0-7.58.25-14.66.7-21.29v-68.86c0-10.64-3.6-21.2-10.45-30.86V469.4a358.8 358.8 0 0 1-22 4.72V53.9c-6.98-4.6-15-8.65-24-11.97v435.87c-6.83.87-14.18 1.64-22 2.26V46.1c2.99-2.78 5.16-5.82 6.73-8.83l-3.02-.8c-5.74 7.33-17.47 14.04-41.2 14.04-22.2 0-33.78-6.8-39.82-14.18l-3.43.87a35.77 35.77 0 0 0 6.74 8.65V480.1a473.72 473.72 0 0 1-22-2.3V41.85a118.1 118.1 0 0 0-24 11.87V474.1a408.97 408.97 0 0 1-22-4.59V74.2Zm116 407.23V56.97c-3.49.46-7.3.7-11.49.7-3.8 0-7.3-.22-10.51-.64v424.42a438.6 438.6 0 0 0 22-.03ZM467.35 195.13c.94 2.67 1.83 5.3 2.67 7.9-4.44 13.37-45.2 40.86-85.23 37.88-.96-2.61-1.9-5.12-2.84-7.52 20.8-1.35 38-5.63 51.6-12.83 13.43-7.11 24.7-15.59 33.8-25.43ZM31.65 195.16c9.1 9.83 20.37 18.3 33.78 25.4 13.6 7.2 30.82 11.48 51.64 12.84-.93 2.4-1.88 4.9-2.84 7.51-40.02 2.98-80.79-24.5-85.23-37.88.84-2.59 1.72-5.21 2.65-7.87Z" clip-rule="evenodd"/><path fill="#F2F2F2" fill-rule="evenodd" d="M307.85 23.34c-5.77-3.23-9.73-5.34-12-5.34 0 0 5.88 32.5-46.34 32.5-48.52 0-46.34-32.5-46.34-32.5-2.28 0-6.23 2.1-12 5.34 0 0 7.37 40.39 58.4 40.39 51.48 0 58.28-35.9 58.28-40.38Z" clip-rule="evenodd"/><path fill="#000" fill-opacity=".1" fill-rule="evenodd" d="M413.58 238.32a93.79 93.79 0 0 1-28.8 2.6c-8.2-22.37-15.55-36.89-20-44.75v270.57s-21.1 6.71-55.87 11.12c-.18-.03-.37-.04-.55-.06l8.28-240.71c2.06-59.75 31.09-95.29 60.1-117.44a148.6 148.6 0 0 0-7 23.67c7.35 11.85 24.44 42.07 43.83 94.96l.01.04ZM190.72 477.8c-34.25-4.4-56.48-11.06-56.48-11.06V196.18c-4.46 7.87-11.81 22.38-20 44.75-9.64.71-19.32-.34-28.52-2.53l.02-.1c19.38-52.84 36.3-83.06 43.61-94.94a148.72 148.72 0 0 0-7-23.7c29 22.15 58.04 57.69 60.1 117.44l8.27 240.7Z" clip-rule="evenodd"/><path fill="#F2F2F2" fill-rule="evenodd" d="m309 168.83-1.7-2.79c-.5-.81-1.6-2.2-3.13-3.5a12.3 12.3 0 0 0-5.47-2.78c-3.56-.68-6.61-2.56-8.3-5.52-1.69-3-1.8-6.76-.15-10.8 2.74-6.7 1.15-10.93-.62-12.58l-1.44-1.35 1.34-1.46c.93-1.01 6.1-6.1 8.52-8.48l1.47-1.44 1.4 1.52c.73.8 3.62 2.83 7.95 2.55h.26c4.33.28 7.22-1.76 7.95-2.55l1.4-1.53 1.47 1.45c2.42 2.37 7.6 7.47 8.52 8.48l1.34 1.46-1.45 1.35c-1.76 1.65-3.35 5.87-.61 12.58 1.65 4.04 1.54 7.8-.16 10.8-1.68 2.96-4.73 4.84-8.3 5.52a12.3 12.3 0 0 0-5.46 2.78 15.7 15.7 0 0 0-3.13 3.5l-1.7 2.79Zm0-3.83c.29-.47.71-1.07 1.26-1.72 1.78-2.1 4.84-4.75 8.66-5.48 6.24-1.2 9.92-6.4 6.98-13.6-2.94-7.2-1.47-12.4 1.1-14.8l-.1-.11-1.3-1.32c-1.5-1.5-3.8-3.79-5.62-5.57l-1.43-1.4a5.1 5.1 0 0 1-.2.21c-1.3 1.24-4.64 3.3-9.35 2.99-4.71.3-8.05-1.75-9.34-2.99a5.1 5.1 0 0 1-.21-.21l-1.43 1.4a864.93 864.93 0 0 0-7.02 7c2.57 2.4 4.04 7.6 1.1 14.8-2.94 7.2.74 12.4 6.98 13.6 3.82.73 6.88 3.38 8.66 5.48.55.65.97 1.25 1.26 1.72Z" clip-rule="evenodd"/><path fill="#3D3D3D" d="M309 165c-1.22-2-4.92-6.24-9.92-7.2-6.24-1.2-9.92-6.4-6.98-13.6 2.94-7.2 1.47-12.4-1.1-14.8.88-.96 6-6 8.45-8.4 1.1 1.2 4.55 3.52 9.55 3.2 5 .32 8.45-2 9.55-3.2 2.45 2.4 7.57 7.44 8.45 8.4-2.57 2.4-4.04 7.6-1.1 14.8 2.94 7.2-.74 12.4-6.98 13.6-5 .96-8.7 5.2-9.92 7.2Z"/><path fill="#3D3D3D" fill-rule="evenodd" d="M309 161.69c.64-.73 1.4-1.49 2.26-2.21a16.27 16.27 0 0 1 7.28-3.64c2.68-.52 4.59-1.84 5.57-3.58.97-1.7 1.23-4.14-.06-7.3-2.69-6.58-2.09-12.05.25-15.46-1.5-1.51-3.97-3.95-5.86-5.8-2 1.36-5.27 2.74-9.44 2.5a15.22 15.22 0 0 1-9.44-2.5c-1.9 1.85-4.36 4.29-5.86 5.8 2.34 3.41 2.94 8.88.25 15.46-1.29 3.16-1.03 5.6-.06 7.3.98 1.74 2.89 3.06 5.57 3.58 2.94.56 5.41 2.07 7.28 3.64.87.72 1.62 1.48 2.26 2.2Z" clip-rule="evenodd"/><path fill="#F2F2F2" d="M303.6 125.59c1.42.42 3.06.68 4.88.63l14.18 14.19c.28 1.44.74 2.96 1.39 4.55.23.56.41 1.1.55 1.63l-21-21ZM296.06 127.14l2.14-2.1 26.33 26.32a5.99 5.99 0 0 1-1.73 2.51l-26.74-26.73ZM295.7 135.86c-.12-2.36-.76-4.4-1.77-6l25.71 25.7c-.35.11-.71.2-1.1.28-.78.15-1.53.36-2.24.63l-20.6-20.6ZM294.44 143.69c.4-1.15.7-2.26.91-3.33l17.75 17.75a19.38 19.38 0 0 0-2.4 1.85l-16.26-16.27ZM302.87 156.97c-1.05-.5-2.19-.9-3.41-1.13-2.68-.52-4.59-1.84-5.57-3.58a7.11 7.11 0 0 1-.65-4.93l9.63 9.63ZM322.34 135.25l-9.32-9.32c1.2-.24 2.28-.6 3.23-1.02l6.87 6.87a13.3 13.3 0 0 0-.78 3.47Z"/><circle cx="309" cy="142" r="10" fill="#3D3D3D"/><circle cx="309" cy="142" r="8" fill="#F2F2F2"/></g><defs><clipPath id="clip0_5839_4470"><path fill="#fff" d="M0 0h500v500H0z"/></clipPath></defs></svg>