<?xml version="1.0" encoding="UTF-8"?><svg height="500" viewBox="0 0 500 500" width="500" xmlns="http://www.w3.org/2000/svg"><g fill="none" fill-rule="evenodd"><path d="M0 0h500v500H0z"/><path d="M203.607 109.223h93.432V21.928h-93.432z" fill="#a6112e"/><path d="M203.468 32.228h93.248v-14.2h-93.248z" fill="#393939"/><path d="M87.548 75.26S46.785 148.06 29 203.03c4.445 13.375 45.208 40.86 85.232 37.885 13.34-36.4 24.46-52 24.46-52S141.655 93.83 87.548 75.26M411.473 75.26s40.763 72.8 58.548 127.77c-4.445 13.375-45.208 40.86-85.232 37.885-13.34-36.4-24.46-52-24.46-52S357.366 93.83 411.473 75.26" fill="#c51b33"/><path d="M467.461 195.302a338.826 338.826 0 0 1 2.668 7.9c-4.445 13.375-45.208 40.86-85.232 37.885a426.405 426.405 0 0 0-2.836-7.52c20.795-1.358 37.993-5.637 51.595-12.837 13.428-7.11 24.696-15.585 33.805-25.428zM31.655 195.302c9.103 9.828 20.36 18.291 33.772 25.392 13.611 7.205 30.824 11.485 51.64 12.84a426.42 426.42 0 0 0-2.835 7.516C74.208 244.025 33.445 216.54 29 203.165c.836-2.584 1.723-5.209 2.655-7.863z" fill="#3d3d3d"/><path d="M249.514 57.621c-50.082 0-47.799-39.384-48.743-39.055-7.516 2.613-24.133 14.904-52.439 25.44-31.872 11.86-52.625 19.273-60.782 31.133 11.115 8.895 46.694 28.907 46.694 120.086v270.557s49.658 14.823 114.885 14.823c68.93 0 115.649-14.823 115.649-14.823V195.225c0-91.179 35.58-111.19 46.7-120.086-8.157-11.86-28.91-19.274-60.783-31.133-28.36-10.554-44.982-22.87-52.478-25.456-.928-.318 4.177 39.071-48.703 39.071z" fill="#c51b33"/><path d="M413.584 238.323c-9.287 2.238-19.064 3.316-28.798 2.592-8.197-22.369-15.557-36.883-20.012-44.748v270.577s-21.102 6.71-55.867 11.11l-.544-.059c1.881-54.795 5.722-166.47 8.277-240.705 2.055-59.755 31.084-95.29 60.099-117.44-2.676 6.78-5.072 14.606-7 23.667 7.354 11.852 24.436 42.069 43.831 94.964l.014.042zM190.717 477.795c-34.248-4.401-56.477-11.05-56.477-11.05V196.171c-4.456 7.867-11.813 22.38-20.01 44.743-9.632.716-19.308-.332-28.51-2.523.005-.033.012-.065.02-.097 19.377-52.848 36.305-83.066 43.61-94.944-1.93-9.075-4.328-16.912-7.007-23.701 29.015 22.15 58.044 57.685 60.1 117.44 2.554 74.235 6.395 185.91 8.276 240.705z" fill="#000" fill-opacity=".1"/><path d="M308.22 23.345c-5.76-3.24-9.707-5.345-11.982-5.345 0 0 5.869 32.495-46.23 32.495-48.411 0-46.231-32.495-46.231-32.495-2.275 0-6.222 2.105-11.976 5.345 0 0 7.352 40.38 58.271 40.38 51.363 0 58.147-35.895 58.147-40.38z" fill="#3d3d3d"/><g transform="translate(287 116.955)"><path d="M22 0v51.045c-7.492 0-19-12-22-34l5-6c3.43 1.027 5.787 1.046 7.072.058 1.285-.99 1.285-2.219 0-3.688C10.657 2.472 13.966 0 22 0zm0 0c8.034 0 11.343 2.472 9.928 7.415-1.285 1.47-1.285 2.699 0 3.688 1.285.988 3.642.97 7.072-.058l5 6c-3 22-14.508 34-22 34z" fill="#f5f02b"/><circle cx="27" cy="29.045" fill="#009e63" r="14"/><circle cx="17" cy="29.045" fill="#009e63" r="14"/><circle cx="22" cy="29.045" fill="#da2e2f" r="16"/></g></g></svg>