<?xml version="1.0" encoding="UTF-8"?><svg width="500" height="500" viewBox="0 0 500 500" xmlns="http://www.w3.org/2000/svg"><g fill="none" fill-rule="evenodd"><path d="M0 0h500v500H0z"/><path fill="#D9D9D9" d="M203.0033 109.223h93.6432V21.928h-93.6432z"/><path fill="#E0E0E0" d="M202.8636 32.228h93.4586v-14.2h-93.4586z"/><path d="M87.5475 75.2585s-40.7627 72.8-58.5475 127.77c4.445 13.375 45.2077 40.86 85.2322 37.885 13.3398-36.4 24.4596-52 24.4596-52s2.9633-95.085-51.1443-113.655m323.9252 0s40.7628 72.8 58.5475 127.77c-4.445 13.375-45.2077 40.86-85.2321 37.885-13.3399-36.4-24.4597-52-24.4597-52s-2.9633-95.085 51.1443-113.655" fill="#53A3E2"/><path d="M249.5111 57.7025c-50.0817 0-47.7981-39.469-48.7426-39.14-7.5158 2.6187-24.1326 14.9368-52.4385 25.495-31.8729 11.885-52.626 19.315-60.7825 31.2 11.1149 8.915 46.6944 28.97 46.6944 120.345v271.14s49.6576 14.855 114.885 14.855c68.9291 0 115.6484-14.855 115.6484-14.855v-271.14c0-91.375 35.5795-111.43 46.6994-120.345-8.1566-11.885-28.9096-19.315-60.7825-31.2-28.3599-10.5767-44.9818-22.9194-52.478-25.5106-.9273-.3184 4.1773 39.1556-48.703 39.1556z" fill="#53A3E2"/><path d="M267.5 52v429.246a480.7056 480.7056 0 01-18.373.3515 439.445 439.445 0 01-16.627-.317V52h35zM309 477.8413V31.9106l2.914 1.6823c8.4424 4.8431 19.8 11.0313 34.5045 16.7762l1.5821.6125L348 471.0766l-1.7514.3902c-9.356 2.059-21.9825 4.439-37.2487 6.3745zM191.0011 31.3418L191 477.8295a470.6265 470.6265 0 01-20.2541-3.038l-1.8591-.343c-6.4343-1.2021-12.1046-2.4117-16.8868-3.515l.0007-420.3302c17.406-6.744 30.172-14.135 39.0005-19.2615z" fill="#3D3D3D"/><path d="M234 51.9994l-.001 429.3354a448.437 448.437 0 01-1.499-.0542V52l1.5-.0006zM267.5 52v429.246l-1.5.0534v-429.3l1.5.0006zM309 31.9114l2 1.154.0002 444.5178c-.6613.0868-1.3277.1728-1.9993.258L309 31.9114zm-117.9998-.569L191 477.8295a475.2762 475.2762 0 01-2.0011-.2602l.002-445.0676a1384.84 1384.84 0 001.9993-1.1593zm155.4183 19.0267l1.5821.6125L348 471.0766l-1.7514.3902-.2486.0536-.0004-421.3155c.1393.0548.279.1095.419.1642zm-192.4169-.552l-.0025 421.5719a381.5633 381.5633 0 01-1.9991-.4555l.0007-420.3302a229.2158 229.2158 0 002.001-.7861zM467.3529 195.129c.9359 2.6665 1.8272 5.303 2.6673 7.8995-4.445 13.375-45.2077 40.86-85.2321 37.885a426.4238 426.4238 0 00-2.8354-7.5198c20.795-1.3576 37.9932-5.6366 51.5944-12.8371 13.4282-7.109 24.6968-15.5848 33.8058-25.4277zm-435.6982.036c9.1031 9.8275 20.3606 18.2914 33.7724 25.3916 13.611 7.2056 30.824 11.4856 51.6393 12.84a426.4196 426.4196 0 00-2.8342 7.5169c-40.0245 2.975-80.7873-24.51-85.2322-37.885.8363-2.5849 1.7234-5.2092 2.6547-7.8635z" fill="#F2F2F2"/><path d="M307.8516 23.345c-5.772-3.24-9.728-5.345-12.0078-5.345 0 0 5.8817 32.495-46.3352 32.495-48.5202 0-46.3352-32.495-46.3352-32.495-2.2798 0-6.2358 2.105-12.0028 5.345 0 0 7.3683 40.38 58.4029 40.38 51.4785 0 58.2781-35.895 58.2781-40.38z" fill="#F1F1F1"/><path d="M413.5843 238.3227c-9.2877 2.2382-19.0646 3.3161-28.7978 2.5926-8.1978-22.369-15.5572-36.883-20.0128-44.7484v270.5774s-21.1022 6.7098-55.8664 11.1104c-.1817-.0197-.363-.0396-.544-.0597 1.8808-54.795 5.7221-166.47 8.2763-240.705 2.0554-59.755 31.0847-95.29 60.099-117.44-2.6753 6.7806-5.0714 14.6063-6.9991 23.6673 7.354 11.8514 24.4358 42.0687 43.8307 94.964.005.014.0097.0277.014.0414zM190.7166 477.7953c-34.2478-4.4014-56.4763-11.051-56.4763-11.051V196.1721c-4.4558 7.8668-11.8138 22.3792-20.0097 44.7432-9.633.716-19.3087-.3323-28.5106-2.5238a1.113 1.113 0 01.0199-.0967c19.3773-52.8475 36.3054-83.0661 43.6098-94.9437-1.929-9.0753-4.3277-16.912-7.0064-23.7011 29.0144 22.15 58.0437 57.685 60.099 117.44 2.5543 74.235 6.3956 185.91 8.2763 240.7053h-.002z" fill-opacity=".1" fill="#000"/><g transform="translate(285 115.5)"><circle fill="#3D3D3D" cx="24" cy="31" r="24"/><circle fill="#FFF" cx="24" cy="31" r="22"/><circle fill="#4AA2E6" cx="24" cy="31" r="20"/><rect fill="#FFF" x="18" y="15" width="12" height="32" rx="6"/><path d="M6.9105 20.6047l-.2326.3956C11.4437 24.7578 17.46 27 24 27c6.5403 0 12.5569-2.2424 17.3231-6.0021C43.0256 23.94 44 27.3563 44 31c0 3.6301-.9671 7.0344-2.6578 9.9691l-.0194.0312C36.5568 37.2424 30.5403 35 24 35c-6.5404 0-12.5571 2.2425-17.3232 6.002C4.9742 38.0593 4 34.6434 4 31c0-3.8073 1.0638-7.366 2.9105-10.3953z" fill="#3D3D3D"/><path d="M40.2311 19.312a20.0232 20.0232 0 011.092 1.6859C36.557 24.7576 30.5403 27 24 27c-6.54 0-12.5563-2.2422-17.322-5.9997a19.4194 19.4194 0 011.0909-1.6884C12.2177 22.872 17.8603 25 24 25c6.031 0 11.5823-2.0534 15.993-5.4992l.2381-.1889zM24 35c6.5403 0 12.5569 2.2424 17.3228 6.0003a19.688 19.688 0 01-1.0911 1.687C35.7832 39.1283 30.1401 37 24 37s-11.7832 2.1284-16.2315 5.6877a20.029 20.029 0 01-1.0917-1.6857C11.4429 37.2425 17.4596 35 24 35z" fill="#FFF"/><path fill="#A4ACB2" d="M24 4.5l-1.7634.927.3368-1.9635-1.4266-1.3906 1.9715-.2864L24 0l.8817 1.7865 1.9715.2864-1.4266 1.3906.3368 1.9636z"/><path fill="#F8C401" d="M34 5.5l-1.7634.927.3368-1.9635-1.4266-1.3906 1.9715-.2864L34 1l.8817 1.7865 1.9715.2864-1.4266 1.3906.3368 1.9636z"/><path fill="#95754E" d="M14 5.5l-1.7634.927.3368-1.9635-1.4266-1.3906 1.9715-.2864L14 1l.8817 1.7865 1.9715.2864-1.4266 1.3906.3368 1.9636z"/></g></g></svg>