<?xml version="1.0" encoding="UTF-8"?><svg width="500" height="500" viewBox="0 0 500 500" xmlns="http://www.w3.org/2000/svg"><g fill="none" fill-rule="evenodd"><path d="M0 0h500v500H0z"/><path fill="#D9D9D9" d="M203.0033 109.223h93.6432V21.928h-93.6432z"/><path fill="#393939" d="M202.8636 32.228h93.4586v-14.2h-93.4586z"/><path d="M87.5475 75.2585s-40.7627 72.8-58.5475 127.77c4.445 13.375 45.2077 40.86 85.2322 37.885 13.3398-36.4 24.4596-52 24.4596-52s2.9633-95.085-51.1443-113.655m323.9252 0s40.7628 72.8 58.5475 127.77c-4.445 13.375-45.2077 40.86-85.2321 37.885-13.3399-36.4-24.4597-52-24.4597-52s-2.9633-95.085 51.1443-113.655" fill="#F2F2F2"/><path d="M249.5111 57.7025c-50.0817 0-47.7981-39.469-48.7426-39.14-7.5158 2.6187-24.1326 14.9368-52.4385 25.495-31.8729 11.885-52.626 19.315-60.7825 31.2 11.1149 8.915 46.6944 28.97 46.6944 120.345v271.14s49.6576 14.855 114.885 14.855c68.9291 0 115.6484-14.855 115.6484-14.855v-271.14c0-91.375 35.5795-111.43 46.6994-120.345-8.1566-11.885-28.9096-19.315-60.7825-31.2-28.3599-10.5767-44.9818-22.9194-52.478-25.5106-.9273-.3184 4.1773 39.1556-48.703 39.1556z" fill="#F2F2F2"/><path d="M307.8516 23.345c-5.772-3.24-9.728-5.345-12.0078-5.345 0 0 5.8817 32.495-46.3352 32.495-48.5202 0-46.3352-32.495-46.3352-32.495-2.2798 0-6.2358 2.105-12.0028 5.345 0 0 7.3683 40.38 58.4029 40.38 51.4785 0 58.2781-35.895 58.2781-40.38z" fill="#3D3D3D"/><path d="M413.5843 238.3227c-9.2877 2.2382-19.0646 3.3161-28.7978 2.5926-8.1978-22.369-15.5572-36.883-20.0128-44.7484v270.5774s-21.1022 6.7098-55.8664 11.1104c-.1817-.0197-.363-.0396-.544-.0597 1.8808-54.795 5.7221-166.47 8.2763-240.705 2.0554-59.755 31.0847-95.29 60.099-117.44-2.6753 6.7806-5.0714 14.6063-6.9991 23.6673 7.354 11.8514 24.4358 42.0687 43.8307 94.964.005.014.0097.0277.014.0414zM190.7166 477.7953c-34.2478-4.4014-56.4763-11.051-56.4763-11.051V196.1721c-4.4558 7.8668-11.8138 22.3792-20.0097 44.7432-9.633.716-19.3087-.3323-28.5106-2.5238a1.113 1.113 0 01.0199-.0967c19.3773-52.8475 36.3054-83.0661 43.6098-94.9437-1.929-9.0753-4.3277-16.912-7.0064-23.7011 29.0144 22.15 58.0437 57.685 60.099 117.44 2.5543 74.235 6.3956 185.91 8.2763 240.7053h-.002z" fill-opacity=".06" fill="#000"/><g transform="translate(288.3427 111.5)"><path d="M25.2454 51.2206l3.0247-.3861c.6661-.0901 1.0196-.1504 1.6371-.2634 6.4417-1.1796 10.2398-4.1776 10.6725-10.5795.3626-5.3649-.3499-8.3534-2.4383-12.6548l-.4191-.8492c-.7308-1.4742-1.09-2.2886-1.4069-3.2742-.7532-2.3437.2248-5.0157 3.5322-8.1539.222-.2106.5763-.573 1.063-1.0871L35.6451 8.828l-1.1574.5442c-2.1066.9116-6.7364 2.6894-13.8558 2.6414-7.1194-.048-11.9644-1.789-14.2296-2.8308l-.9728-.5575L0 13.6714l1.3538 1.3881c3.3073 3.1382 4.3987 5.8102 3.6455 8.1539-.2942.9152-.625 1.6828-1.2558 2.9681l-.3638.7348C1.132 31.4478.3607 34.4536.735 39.9916c.425 6.2876 4.0962 9.2918 10.33 10.5145l1.0931.1971c.4636.0764.9316.1403 1.8729.2591l2.038.2583c.4602.0624 4.5883.0732 4.5883 1.7902 0-1.7232 4.1735-1.734 4.5881-1.7902z" fill="#000" fill-rule="nonzero"/><path fill="#F5D586" d="M7.6573 4.5l-1.7633.927.3368-1.9635L4.8042 2.073l1.9715-.2864L7.6573 0l.8817 1.7865 1.9715.2864L9.084 3.4635l.3368 1.9636zm25.5 0l-1.7633.927.3368-1.9635-1.4266-1.3906 1.9715-.2864L33.1573 0l.8817 1.7865 1.9715.2864-1.4266 1.3906.3368 1.9636z"/><path d="M35.748 11l2.8363 2.6087c-3.8094 3.6145-5.2003 7.02-4.173 10.2166 1.5411 4.7949 4.7716 7.1747 4.173 16.0314-.7991 11.8238-15.899 7.5564-17.8912 11.0021l-.0364.0673-.0356-.0681c-1.9943-3.4442-17.0916.8215-17.8907-11.0013C2.1318 31 5.3622 28.6202 6.9034 23.8253c1.0273-3.1965-.3637-6.602-4.173-10.2166L5.5667 11c2.5212 1.1594 7.7177 2.6901 15.0541 2.7391 7.3365.049 12.3093-1.5135 14.6822-2.5405L35.748 11z" fill="#FFF"/><circle fill="#9A9A9A" cx="12.9015" cy="18.4583" r="3.5"/><path d="M22.157 27.2786v22.545c-.6832.243-1.194.5683-1.464 1.0352l-.0363.0673-.0356-.0681c-.3325-.5742-1.0291-.9341-1.963-1.19l-.0012-20.2414 3.5-2.148zm7-4.294l.0002 25.688c-1.2042.2046-2.3992.3391-3.4999.4774l-.0004-24.0184 3.5-2.147zm-14 8.589l.0002 17.5143c-1.1143-.1372-2.3082-.2816-3.4997-.5045l-.0006-14.8618 3.5-2.148zm19.2104-11.786c-.392 1.381-.3773 2.727.044 4.0377.4753 1.479 1.1114 2.7282 1.7462 4.0086l-.0002 17.8584c-.9827.963-2.192 1.6263-3.4995 2.1016l-.001-26.9573 1.7105-1.049zM8.157 35.8686l.0006 11.7324c-1.3424-.5511-2.5586-1.3247-3.5007-2.4495l.0001-7.135 3.5-2.148z" fill="#000"/><path d="M35.748 11l2.8363 2.6087c-2.2473 2.1323-3.653 4.192-4.2169 6.1789L2.6934 39.2223c-.194-3.9886.4167-6.6138 1.2712-8.7792L35.3923 11.158 35.748 11z" fill="#000"/></g></g></svg>