<?xml version="1.0" encoding="UTF-8"?><svg width="500" height="500" viewBox="0 0 500 500" fill="none" xmlns="http://www.w3.org/2000/svg"><path fill-rule="evenodd" clip-rule="evenodd" d="M203.004 109.223h93.643V21.928h-93.643v87.295z" fill="#AC180E"/><path fill-rule="evenodd" clip-rule="evenodd" d="M202.863 32.228h93.459v-14.2h-93.459v14.2z" fill="#BD1C12"/><path fill-rule="evenodd" clip-rule="evenodd" d="M87.5475 75.2585S46.7848 148.059 29 203.029c4.4449 13.375 45.2077 40.86 85.232 37.885 13.34-36.4 24.46-52 24.46-52s2.963-95.0855-51.1445-113.6555zm323.9265 0s40.763 72.8005 58.547 127.7705c-4.444 13.375-45.207 40.86-85.232 37.885-13.339-36.4-24.459-52-24.459-52s-2.964-95.0855 51.144-113.6555z" fill="#C91E13"/><path fill-rule="evenodd" clip-rule="evenodd" d="M249.51 57.7025c-50.081 0-47.798-39.4691-48.742-39.14-7.516 2.6187-24.133 14.9368-52.439 25.495-31.873 11.885-52.6256 19.315-60.7821 31.2 11.1148 8.915 46.6941 28.9695 46.6941 120.3445v271.14s49.658 14.856 114.885 14.856c68.929 0 115.649-14.856 115.649-14.856v-271.14c0-91.375 35.579-111.4295 46.699-120.3445-8.157-11.885-28.91-19.315-60.782-31.2-28.36-10.5767-44.982-22.9195-52.479-25.5087-.927-.3203 4.178 39.1537-48.703 39.1537z" fill="#C91E13"/><path fill-rule="evenodd" clip-rule="evenodd" d="M365.242 178.151c-.301 5.499-.461 11.3-.461 17.422v271.14s-46.719 14.855-115.648 14.855c-65.228 0-114.885-14.855-114.885-14.855v-271.14c0-6.262-.168-12.189-.482-17.8v-72.531c0-28.836 26.598-57.0201 72.416-68.202 5.596 10.1263 17.496 20.6327 43.335 20.6327 27.081 0 38.955-10.353 44.219-20.4119 45.26 11.3355 71.506 39.3368 71.506 67.9812v72.909z" fill="#BB1B11"/><path fill-rule="evenodd" clip-rule="evenodd" d="M130 105.243V146.4c2.035 10.457 3.457 22.488 4 36.357v-77.514c0-17.1293 10.617-34.061 29.847-46.8856 12.154-8.1052 27.184-14.2386 44.393-18.0121a36.6705 36.6705 0 01-2.219-3.5953C157.947 47.7276 130 76.1534 130 105.243zm238.998-.001c0-28.9043-27.594-57.1542-75.109-68.2857-.614 1.2018-1.32 2.4093-2.135 3.6043 16.789 3.7914 31.476 9.8453 43.396 17.7955 19.231 12.8259 29.848 29.7576 29.848 46.8859v78.124c.523-14.074 1.948-26.264 4-36.846v-41.278z" fill="#DEB159"/><path fill-rule="evenodd" clip-rule="evenodd" d="M307.853 23.345c-5.772-3.24-9.728-5.345-12.008-5.345 0 0 5.882 32.495-46.335 32.495-48.52 0-46.335-32.495-46.335-32.495-2.28 0-6.236 2.105-12.003 5.345 0 0 7.368 40.38 58.403 40.38 51.478 0 58.278-35.895 58.278-40.38z" fill="#C91E13"/><path fill-rule="evenodd" clip-rule="evenodd" d="M413.583 238.323c-9.288 2.238-19.065 3.316-28.798 2.592-8.198-22.369-15.557-36.883-20.013-44.748v270.577s-21.102 6.71-55.866 11.111l-.544-.06c1.881-54.795 5.722-166.47 8.276-240.705 2.056-59.755 31.085-95.29 60.099-117.44-2.675 6.781-5.071 14.606-6.999 23.667 7.354 11.852 24.436 42.069 43.831 94.964.005.014.01.028.014.042zM190.715 477.795c-34.247-4.401-56.476-11.051-56.476-11.051V196.172c-4.456 7.867-11.814 22.379-20.01 44.743-9.633.716-19.3084-.332-28.5102-2.524.005-.032.0117-.064.0198-.096 19.3774-52.848 36.3054-83.066 43.6094-94.944-1.928-9.075-4.327-16.912-7.006-23.701 29.014 22.15 58.044 57.685 60.099 117.44 2.554 74.235 6.396 185.91 8.276 240.705h-.002z" fill="#000" fill-opacity=".08"/><path d="M325.42 151.324c0 11.568-14.741 15.676-16.421 15.676-1.679 0-16.421-4.108-16.421-15.676V124h32.842v27.324z" fill="#F2F2F2"/><path fill="#F5958F" d="M294.402 126.035h29.193v6.386h-29.193zm20.442 36.009c4.634-2.191 7.841-6.91 7.841-12.377 0-2.159-.227-3.96-.649-5.461.27-3.823.649-6.399.649-6.399l-4.978.664c-2.366-1.276-5.399-1.576-8.706-1.576-3.308 0-6.341.3-8.707 1.576l-4.978-.664s.328 3.056.591 6.612c-.384 1.457-.591 3.19-.591 5.248 0 5.467 3.207 10.186 7.842 12.377 2.688 1.559 5.264 2.219 5.843 2.219.579 0 3.154-.66 5.843-2.219z"/><path d="M314.064 160.516c4.017-1.9 6.796-5.989 6.796-10.728 0-1.871-.197-3.431-.562-4.732.234-3.313.562-5.546.562-5.546l-4.314.575c-2.051-1.106-4.679-1.366-7.546-1.366-2.866 0-5.495.26-7.545 1.366l-4.314-.575s.284 2.649.512 5.73c-.333 1.263-.512 2.765-.512 4.548 0 4.739 2.779 8.828 6.796 10.728 2.329 1.351 4.561 1.923 5.063 1.923.502 0 2.734-.572 5.064-1.923z" fill="#F2F2F2"/><path d="M312.893 158.222c3.09-1.461 5.228-4.606 5.228-8.251 0-1.439-.152-2.64-.433-3.641.18-2.548.433-4.266.433-4.266l-3.319.443c-1.577-.851-3.599-1.051-5.804-1.051s-4.227.2-5.804 1.051l-3.319-.443s.219 2.038.394 4.408c-.256.972-.394 2.127-.394 3.499 0 3.645 2.138 6.79 5.228 8.252 1.792 1.039 3.509 1.479 3.895 1.479.386 0 2.103-.44 3.895-1.48z" fill="#F5958F"/><path d="M309 115l.987 2.641 2.817.123-2.206 1.755.753 2.717L309 120.68l-2.351 1.556.753-2.717-2.206-1.755 2.817-.123L309 115z" fill="#F2F2F2"/></svg>