<?xml version="1.0" encoding="utf-8"?><svg width="500" height="500" viewBox="0 0 500 500" fill="none" xmlns="http://www.w3.org/2000/svg"><path fill-rule="evenodd" clip-rule="evenodd" d="M203.003 109.223h93.643V21.9282h-93.643v87.2948z" fill="#C8C8C8"/><path fill-rule="evenodd" clip-rule="evenodd" d="M202.863 32.2278h93.459v-14.2h-93.459v14.2z" fill="#B32222"/><path fill-rule="evenodd" clip-rule="evenodd" d="M87.5475 75.2583S46.7848 148.058 29 203.028c4.4449 13.375 45.2077 40.86 85.232 37.885 13.34-36.4 24.46-52 24.46-52s2.963-95.0847-51.1445-113.6547m323.9255 0s40.763 72.7997 58.548 127.7697c-4.445 13.375-45.208 40.86-85.233 37.885-13.339-36.4-24.459-52-24.459-52s-2.964-95.0847 51.144-113.6547" fill="#C22626"/><path fill-rule="evenodd" clip-rule="evenodd" d="M249.511 57.7025c-50.082 0-47.798-39.4691-48.743-39.14-7.516 2.6187-24.132 14.9368-52.438 25.495-31.873 11.885-52.6261 19.315-60.7826 31.2 11.1148 8.915 46.6946 28.9695 46.6946 120.3445v271.14s49.657 14.856 114.885 14.856c68.929 0 115.648-14.856 115.648-14.856v-271.14c0-91.375 35.58-111.4295 46.699-120.3445-8.156-11.885-28.909-19.315-60.782-31.2-28.36-10.5767-44.982-22.9195-52.478-25.5087-.927-.3203 4.177 39.1537-48.703 39.1537z" fill="#C22626"/><path fill-rule="evenodd" clip-rule="evenodd" d="M307.852 23.345C302.08 20.105 298.124 18 295.844 18c0 0 5.882 32.495-46.335 32.495-48.52 0-46.335-32.495-46.335-32.495-2.28 0-6.236 2.105-12.003 5.345 0 0 7.368 40.38 58.403 40.38 51.478 0 58.278-35.895 58.278-40.38z" fill="#C22626"/><path fill-rule="evenodd" clip-rule="evenodd" d="M413.584 238.323c-9.287 2.238-19.064 3.316-28.797 2.592-8.198-22.369-15.558-36.883-20.013-44.748v270.577s-21.102 6.71-55.866 11.111l-.544-.06c1.88-54.795 5.722-166.47 8.276-240.705 2.055-59.755 31.085-95.29 60.099-117.44-2.675 6.781-5.072 14.606-6.999 23.667 7.354 11.852 24.435 42.069 43.83 94.964.005.014.01.028.014.042zM190.717 477.795c-34.248-4.401-56.476-11.051-56.476-11.051V196.172c-4.456 7.867-11.814 22.379-20.01 44.743-9.633.716-19.3089-.332-28.5108-2.524a1.056 1.056 0 01.0199-.096c19.3769-52.848 36.3059-83.066 43.6099-94.944-1.929-9.075-4.328-16.912-7.006-23.701 29.014 22.15 58.043 57.685 60.099 117.44 2.554 74.235 6.395 185.91 8.276 240.705h-.002z" fill="#000" fill-opacity=".1"/><path fill-rule="evenodd" clip-rule="evenodd" d="M309 166c12.703 0 23-10.297 23-23s-10.297-23-23-23-23 10.297-23 23 10.297 23 23 23z" fill="#5FBAE2"/><path fill-rule="evenodd" clip-rule="evenodd" d="M309 157c7.732 0 14-6.268 14-14s-6.268-14-14-14-14 6.268-14 14 6.268 14 14 14z" fill="#F2F2F2"/><path fill-rule="evenodd" clip-rule="evenodd" d="M309 151c4.418 0 8-3.582 8-8s-3.582-8-8-8-8 3.582-8 8 3.582 8 8 8z" fill="#5FBAE1"/><circle cx="290.5" cy="143" r="2.5" fill="#F2F2F2"/><circle cx="327.5" cy="143" r="2.5" fill="#F2F2F2"/><path d="M302.07 147h13.86c.68-1.177 1.07-2.543 1.07-4 0-1.457-.39-2.823-1.07-4h-13.86c-.68 1.177-1.07 2.543-1.07 4 0 1.457.39 2.823 1.07 4z" fill="#5C73A2"/></svg>