<?xml version="1.0" encoding="UTF-8"?><svg width="500" height="500" viewBox="0 0 500 500" fill="none" xmlns="http://www.w3.org/2000/svg"><path fill-rule="evenodd" clip-rule="evenodd" d="M203.003 109.223h93.644V21.928h-93.644v87.295z" fill="#D9D9D9"/><path fill-rule="evenodd" clip-rule="evenodd" d="M202.864 32.2281h93.458v-14.2h-93.458v14.2z" fill="#D6190F"/><path fill-rule="evenodd" clip-rule="evenodd" d="M87.5475 75.2585S46.7848 148.059 29 203.029c4.4449 13.375 45.2077 40.86 85.232 37.885 13.34-36.4 24.46-52 24.46-52s2.963-95.0855-51.1445-113.6555zm323.9255 0s40.763 72.8005 58.547 127.7705c-4.445 13.375-45.207 40.86-85.232 37.885-13.34-36.4-24.46-52-24.46-52s-2.963-95.0855 51.145-113.6555z" fill="#F2F2F2"/><path fill-rule="evenodd" clip-rule="evenodd" d="M249.511 57.7025c-50.082 0-47.798-39.4691-48.742-39.14-7.516 2.6187-24.133 14.9368-52.439 25.495-31.873 11.885-52.6258 19.315-60.7824 31.2 11.1149 8.915 46.6944 28.9695 46.6944 120.3445v271.14s49.658 14.856 114.885 14.856c68.929 0 115.648-14.856 115.648-14.856v-271.14c0-91.375 35.58-111.4295 46.7-120.3445-8.157-11.885-28.91-19.315-60.783-31.2-28.36-10.5767-44.982-22.9195-52.478-25.5087-.927-.3203 4.178 39.1537-48.703 39.1537z" fill="#F2F2F2"/><path fill-rule="evenodd" clip-rule="evenodd" d="M467.353 195.129c.936 2.667 1.827 5.303 2.667 7.899-4.445 13.375-45.208 40.86-85.232 37.885-.958-2.613-1.904-5.119-2.835-7.519 20.795-1.358 37.993-5.637 51.594-12.837 13.428-7.109 24.697-15.585 33.806-25.428zm-435.6983.036c9.1031 9.828 20.3606 18.291 33.7724 25.392 13.6109 7.205 30.8241 11.485 51.6389 12.84-.931 2.399-1.877 4.904-2.834 7.517-40.0243 2.975-80.7871-24.51-85.232-37.885.8363-2.585 1.7234-5.21 2.6547-7.864zM307.852 23.345C302.08 20.105 298.124 18 295.844 18c0 0 5.882 32.495-46.335 32.495-48.521 0-46.336-32.495-46.336-32.495-2.279 0-6.235 2.105-12.002 5.345 0 0 7.368 40.38 58.403 40.38 51.478 0 58.278-35.895 58.278-40.38zM309 165c12.15 0 22-9.85 22-22s-9.85-22-22-22-22 9.85-22 22 9.85 22 22 22z" fill="#E41B10"/><path fill-rule="evenodd" clip-rule="evenodd" d="M328 143c0 10.493-8.507 19-19 19s-19-8.507-19-19 8.507-19 19-19 19 8.507 19 19zm-36 0c0 9.389 7.611 17 17 17s17-7.611 17-17-7.611-17-17-17-17 7.611-17 17z" fill="#fff"/><path fill-rule="evenodd" clip-rule="evenodd" d="M299 135.356h1.134L303.489 122l3.264 13.356 2.268-1.156 2.202 1.156L314.58 122l3.297 13.356H319v21.29S314.58 160 309.021 160c-5.559 0-10.021-3.354-10.021-3.354v-21.29z" fill="#000"/><path fill-rule="evenodd" clip-rule="evenodd" d="M413.584 238.323c-9.287 2.238-19.064 3.316-28.798 2.592-8.197-22.369-15.557-36.883-20.012-44.748v270.577s-21.102 6.71-55.867 11.111l-.544-.06c1.881-54.795 5.722-166.47 8.277-240.705 2.055-59.755 31.084-95.29 60.099-117.44-2.676 6.781-5.072 14.606-7 23.667 7.354 11.852 24.436 42.069 43.831 94.964.005.014.01.028.014.042zM190.717 477.795c-34.248-4.401-56.477-11.051-56.477-11.051V196.172c-4.456 7.867-11.813 22.379-20.009 44.743-9.633.716-19.3091-.332-28.511-2.524a1.056 1.056 0 01.0199-.096c19.3771-52.848 36.3051-83.066 43.6101-94.944-1.929-9.075-4.328-16.912-7.007-23.701 29.015 22.15 58.044 57.685 60.099 117.44 2.555 74.235 6.396 185.91 8.277 240.705h-.002z" fill="#000" fill-opacity=".06"/></svg>