<svg xmlns="http://www.w3.org/2000/svg" width="501" height="501" fill="none"><g clip-path="url(#a)"><path fill="#818181" fill-rule="evenodd" d="M203.53 109.44h93.65v-87.3h-93.65v87.3Z" clip-rule="evenodd"/><path fill="#000529" fill-rule="evenodd" d="M203.4 32.44h93.45v-14.2H203.4v14.2Z" clip-rule="evenodd"/><path fill="#F2F2F2" fill-rule="evenodd" d="M88.07 75.5s-40.76 72.8-58.54 127.77c4.44 13.38 45.2 40.86 85.23 37.89 13.34-36.4 24.46-52 24.46-52s2.96-95.09-51.15-113.66Zm323.93 0s40.76 72.8 58.55 127.77c-4.45 13.38-45.2 40.86-85.23 37.89-13.34-36.4-24.46-52-24.46-52S357.89 94.07 412 75.5Z" clip-rule="evenodd"/><path fill="#F2F2F2" fill-rule="evenodd" d="M250.04 57.95c-50.08 0-47.8-39.47-48.74-39.14-7.52 2.62-24.13 14.94-52.44 25.5C117 56.18 96.23 63.6 88.08 75.5c11.11 8.9 46.7 28.96 46.7 120.34v271.14s49.65 14.85 114.88 14.85c68.93 0 115.65-14.85 115.65-14.85V195.85c0-91.38 35.57-111.43 46.7-120.35-8.16-11.88-28.91-19.31-60.79-31.2-28.36-10.57-44.98-22.92-52.48-25.5-.92-.33 4.18 39.15-48.7 39.15Z" clip-rule="evenodd"/><path fill="#F1F1F1" fill-rule="evenodd" d="m202.17 27.02 1.73 3.21c-9.01 5.07-23.4 13.98-44.26 21.9-29.8 11.3-49.7 18.58-58.47 29.5a49.93 49.93 0 0 0-3.38-1.91c8.52-11.24 28.6-18.57 58.9-30.08 19.27-7.31 33.02-15.47 42.1-20.66v-.05c1.2-.7 2.33-1.33 3.38-1.91ZM91.11 76.84c8-11.88 28.4-19.31 59.7-31.2 19.27-7.31 33.02-15.47 42.1-20.66v-.05l.02-.02 1.73 3.23c-9.08 5.21-22.47 12.99-40.9 19.99-30.4 11.53-50.5 18.87-58.98 30.16-1.19-.53-2.42-1-3.67-1.45Zm207.92-49.39 2.61 1.48v.05c9.08 5.2 22.83 13.35 42.09 20.66 30.32 11.51 50.4 18.84 58.91 30.09a55.7 55.7 0 0 0-3.39 1.9c-8.75-10.92-28.66-18.2-58.46-29.5-19.87-7.55-33.87-15.99-42.94-21.15l-.4-.23 1.58-3.3Zm8.45-2.55.04.03v.05c9.08 5.2 22.83 13.35 42.09 20.66 31 11.77 51.29 19.17 59.47 30.85l.24.35c-1.26.45-2.48.93-3.68 1.45-8.47-11.29-28.57-18.63-58.97-30.16-17.93-6.81-31.1-14.36-40.16-19.56l-.45-.25 1.42-3.42Z" clip-rule="evenodd"/><path fill="#1E36EC" fill-rule="evenodd" d="M250.1 64c51.48 0 58.28-35.9 58.28-40.39-5.77-3.24-9.73-5.34-12-5.34 0 0 5.88 32.5-46.34 32.5-48.52 0-46.34-32.5-46.34-32.5-2.28 0-6.23 2.1-12 5.34 0 0 7.37 40.38 58.4 40.38Zm217.75 131.2c.94 2.67 1.83 5.3 2.67 7.9-4.45 13.38-45.21 40.86-85.23 37.89-.96-2.62-1.9-5.12-2.84-7.52 20.8-1.36 38-5.64 51.6-12.84 13.42-7.1 24.69-15.58 33.8-25.43Zm-435.81 0c9.1 9.83 20.36 18.3 33.77 25.4 13.61 7.2 30.83 11.48 51.64 12.84-.93 2.4-1.87 4.9-2.83 7.51-40.03 2.98-80.79-24.5-85.23-37.88.83-2.59 1.72-5.21 2.65-7.87Z" clip-rule="evenodd"/><path fill="#000" fill-opacity=".1" fill-rule="evenodd" d="M413.97 238.56a93.76 93.76 0 0 1-28.8 2.6c-8.2-22.37-15.56-36.88-20.01-44.75v270.58s-21.1 6.7-55.87 11.1l-.54-.05 8.27-240.7c2.06-59.76 31.09-95.3 60.1-117.45a148.66 148.66 0 0 0-7 23.67c7.36 11.85 24.44 42.07 43.84 94.96l.01.04ZM191.1 478.04c-34.25-4.4-56.47-11.05-56.47-11.05V196.42c-4.46 7.86-11.82 22.37-20.01 44.74a93.6 93.6 0 0 1-28.51-2.53c0-.03 0-.06.02-.1 19.37-52.84 36.3-83.06 43.6-94.94a148.6 148.6 0 0 0-7-23.7c29.01 22.15 58.04 57.69 60.1 117.44 2.55 74.24 6.4 185.91 8.27 240.7Z" clip-rule="evenodd"/><path fill="#F2F2F2" fill-rule="evenodd" d="M309.75 167.21a22 22 0 1 0 0-44 22 22 0 0 0 0 44Z" clip-rule="evenodd"/><path fill="#1E36EC" d="m315.86 140.22 6.58 9.85-9.93 9.98-8.93-9.98-11.38-19.71h29.36l-5.7 9.86Z"/><path fill="#1E36EC" d="M289.02 130.36h19.36v20.57h-19.36z"/><path fill="#F2F2F2" d="M307.08 145.21H296.1v-11.66l10.98 11.66Z"/></g><defs><clipPath id="a"><path fill="#fff" d="M.39.24h500v500H.39z"/></clipPath></defs></svg>