<?xml version="1.0" encoding="UTF-8"?><svg height="500" viewBox="0 0 500 500" width="500" xmlns="http://www.w3.org/2000/svg"><g fill="none" fill-rule="evenodd"><path d="m0 0h500v500h-500z"/><g transform="translate(29 18)"><path d="m174.003327 91.223h93.643138v-87.295h-93.643138z" fill="#2e55b0"/><path d="m173.863643 14.228h93.458556v-14.2h-93.458556z" fill="#d9d9d9"/><g fill="#3e6dde"><path d="m58.5475395 57.2585s-40.7627765 72.8-58.5475395 127.77c4.44494357 13.375 45.2077201 40.86 85.232167 37.885 13.3398195-36.4 24.459661-52 24.459661-52s2.963296-95.085-51.1442885-113.655"/><path d="m382.472677 57.2585s40.762777 72.8 58.54754 127.77c-4.444944 13.375-45.20772 40.86-85.232167 37.885-13.33982-36.4-24.459662-52-24.459662-52s-2.963295-95.085 51.144289-113.655"/><path d="m220.511106 39.7025c-50.081693 0-47.798103-39.4690913-48.742578-39.14001412-7.515856 2.61869932-24.132633 14.93680482-52.438505 25.49501412-31.8728898 11.885-52.6259372 19.315-60.7824835 31.2 11.1148533 8.915 46.6943565 28.97 46.6943565 120.345v271.14s49.657653 14.855 114.885079 14.855c68.929052 0 115.648352-14.855 115.648352-14.855v-271.14c0-91.375 35.579504-111.43 46.699346-120.345-8.156547-11.885-28.909594-19.315-60.782483-31.2-28.359862-10.5766915-44.981767-22.91944581-52.478053-25.51061549-.92727-.31834247 4.17733 39.15561549-48.703031 39.15561549z"/></g><path d="m248 34.6400436c23.413656-10.627625 20.497156-34.37033673 21.217137-34.12507427 6.597884 2.28254273 20.265116 12.11743537 42.782863 21.65352577v432.3834279c-15.280064 3.129433-37.26383 6.653439-64 8.206695zm-54 428.1506764c-26.040294-1.53269-48.290658-5.070704-64-8.21627v-432.8205991c21.892743-9.385861 35.254006-18.9505084 41.771528-21.22341142.73166-.25288105-.473904 23.37584392 22.228472 34.03713202z" fill="#f2f2f2"/><path d="m278.851614 5.345c-5.771941-3.24-9.727991-5.345-12.007833-5.345 0 0 5.881693 32.495-46.335169 32.495-48.520226 0-46.33517-32.495-46.33517-32.495-2.279842 0-6.235891 2.105-12.002844 5.345 0 0 7.36833 40.38 58.402867 40.38 51.478533 0 58.278149-35.895 58.278149-40.38z" fill="#f2f2f2"/></g><path d="m413.584262 238.322716c-9.287652 2.238227-19.064555 3.316093-28.797794 2.592625-8.197787-22.369075-15.557191-36.882961-20.012723-44.748481v270.577481s-21.102202 6.709715-55.866442 11.110324c-.181695-.019644-.363009-.039532-.543932-.059665 1.880745-54.795 5.722054-166.47 8.276275-240.705 2.05535-59.755 31.084673-95.29 60.099029-117.44-2.675385 6.780625-5.071498 14.606324-6.999205 23.667254 7.354 11.851464 24.435794 42.068696 43.830742 94.964134.00496.013823.009643.027599.01405.041328zm-222.867617 239.47254c-34.247876-4.401312-56.476331-11.050915-56.476331-11.050915v-270.572197c-4.455834 7.866735-11.813778 22.379131-20.009729 44.743197-9.632964.716014-19.3086964-.33238-28.510585-2.523818.0050945-.032025.0117169-.064272.0198871-.096743 19.3773569-52.847461 36.3054119-83.066075 43.6098449-94.943632-1.928939-9.07531-4.327692-16.91207-7.006412-23.701148 29.014357 22.15 58.04368 57.685 60.099029 117.44 2.554222 74.235 6.395531 185.91 8.276276 240.705256z" fill="#000" fill-opacity=".1"/><path d="m287 132 8.416667-13h27.166666l8.416667 13v22l-8.416667 13h-27.166666l-8.416667-13z" fill="#12007e"/><path d="m289 132.916667 7.651515-11.916667h24.69697l7.651515 11.916667v20.166666l-7.651515 11.916667h-24.69697l-7.651515-11.916667z" fill="#f8f8f8"/><path d="m291 133.833333 6.886364-10.833333h22.227272l6.886364 10.833333v18.333334l-6.886364 10.833333h-22.227272l-6.886364-10.833333z" fill="#12007e"/><g fill="#f8f8f8" fill-opacity=".65"><path d="m299 125h20v36h-20z"/><path d="m295 130 2-3v32l-2-3z"/><path d="m321 127 2 3v26l-2 3z"/><path d="m292 134 2-3v24l-2-3z"/><path d="m324 131 2 3v18l-2 2z"/></g></g></svg>