<?xml version="1.0" encoding="UTF-8"?><svg height="500" viewBox="0 0 500 500" width="500" xmlns="http://www.w3.org/2000/svg"><g fill="none" fill-rule="evenodd"><path d="m0 0h500v500h-500z"/><g transform="translate(29 18)"><path d="m174.003327 91.223h93.643138v-87.295h-93.643138z" fill="#1756a5"/><path d="m173.863643 14.228h93.458556v-14.2h-93.458556z" fill="#d9d9d9"/><g fill="#1d6dcf"><path d="m58.5475395 57.2585s-40.7627765 72.8-58.5475395 127.77c4.44494357 13.375 45.2077201 40.86 85.232167 37.885 13.3398195-36.4 24.459661-52 24.459661-52s2.963296-95.085-51.1442885-113.655"/><path d="m382.472677 57.2585s40.762777 72.8 58.54754 127.77c-4.444944 13.375-45.20772 40.86-85.232167 37.885-13.33982-36.4-24.459662-52-24.459662-52s-2.963295-95.085 51.144289-113.655"/><path d="m220.511106 39.7025c-50.081693 0-47.798103-39.4690913-48.742578-39.14001412-7.515856 2.61869932-24.132633 14.93680482-52.438505 25.49501412-31.8728898 11.885-52.6259372 19.315-60.7824835 31.2 11.1148533 8.915 46.6943565 28.97 46.6943565 120.345v271.14s49.657653 14.855 114.885079 14.855c68.929052 0 115.648352-14.855 115.648352-14.855v-271.14c0-91.375 35.579504-111.43 46.699346-120.345-8.156547-11.885-28.909594-19.315-60.782483-31.2-28.359862-10.5766915-44.981767-22.91944581-52.478053-25.51061549-.92727-.31834247 4.17733 39.15561549-48.703031 39.15561549z"/></g><g transform="translate(34.224835 5)"><path d="m130.78826 7.55398184c-9.251594 5.20476306-23.087632 12.52487546-42.2850217 19.68558236-31.8728893 11.885-48.793471 18.9676192-56.9479958 30.8543131 0 0-9.333423 20.4316742-22.45850109 47.1600357-1.06162237-.70665-8.08441239-5.4531782-9.09644316-6.2383311 13.17790625-26.8536389 24.32240625-46.7570819 24.32240625-46.7570819 8.1565463-11.886 28.9095937-19.316 60.7824831-31.201 19.6039394-7.3123518 33.6010864-15.46885567 42.8512324-20.66272425-.007558-.03279202-.010657-.04977575-.010657-.04977575z" fill="#414141"/><path d="m244.617832.345s-.003099.01698373-.010657.04977575c9.250147 5.19386858 23.247293 13.35037245 42.851233 20.66272425 31.872889 11.885 52.625937 19.315 60.780462 31.2016938.002021-.0006938 11.146521 19.9027492 24.324427 46.7563881-2.374345 1.8420621-4.882812 3.4708081-7.526114 4.8837691-11.316147-22.2909014-20.65719-38.991907-21.326188-41.8454989l-.006041-.0312794c.116083-.0903068.229884-.1801237.341347-.2695256-8.156547-11.885-37.517921-25.3716667-69.390811-37.2566667l-32.657777-15.2683804z" fill="#414141"/><g fill="#f2f2f2"><path d="m138.98983 1.5768467 1.749093 3.19773843c-9.0268 4.85881524-24.14516 14.36900287-46.6570447 22.76603037-31.8728894 11.885-52.6259368 19.315-60.7804616 31.2016938-.0020215-.0006938-11.0795693 19.7831765-24.20467529 46.5116037-1.06090968-.706313-2.09763956-1.452932-3.10998718-2.238331 13.17782677-26.8534971 24.32240627-46.757082 24.32240627-46.757082l.0020214.0006938c8.1545248-11.8866938 28.9075723-19.3166938 60.7804616-31.2016938 19.6039395-7.3123518 33.6010865-15.46885567 42.8512325-20.66272425-.007558-.03279202-.010657-.04977575-.010657-.04977575 1.875946-1.05394737 3.560271-1.98779455 5.057611-2.7681533z"/><path d="m129.226606 3.84613712c-9.233508 5.20338238-22.705921 12.82177798-41.1311837 19.69447838-31.8728894 11.885-52.6259368 19.315-60.7804616 31.2016938-.0020214-.0006938-11.0795335 19.7831125-24.20461154 46.5114737-1.06162238-.70665-2.09802014-1.4530482-3.11005091-2.2382011 13.17790625-26.8536389 24.32240625-46.7570819 24.32240625-46.7570819 8.1565463-11.886 28.9095937-19.316 60.7824831-31.201 19.6039394-7.3123518 33.6010864-15.46885567 42.8512324-20.66272425-.007558-.03279202-.010657-.04977575-.010657-.04977575z"/><path d="m235.867909 2.80746782c.870097.47713879 1.791037.99119971 2.763467 1.53753218 0 0-.003099.01698373-.010657.04977575 9.250147 5.19386858 23.247293 13.35037245 42.851233 20.66272425 31.872889 11.885 52.625937 19.315 60.780462 31.2016938.000673-.0002313.001347-.0004625.002021-.0006938 0 0 11.1445 19.903443 24.322406 46.757082-1.01203.785153-2.048428 1.531551-3.110051 2.238201-13.125078-26.7283612-24.20259-46.5121675-24.20259-46.5121675-.000673.0002312-.001347.0004625-.002021.0006938-8.154525-11.8866938-28.907572-19.3166938-60.780462-31.2016938-20.711467-7.7254643-35.164732-16.3931558-44.3737-21.51395543z"/><path d="m244.617832.345s-.003099.01698373-.010657.04977575c9.250147 5.19386858 23.247293 13.35037245 42.851233 20.66272425 31.872889 11.885 52.625937 19.315 60.780462 31.2016938.002021-.0006938 11.146521 19.9027492 24.324427 46.7563881-1.01203.7851529-2.048428 1.5315511-3.110051 2.2382011-13.125078-26.7283612-24.20259-46.5121675-24.20259-46.5121675-8.156546-11.886-28.909593-19.316-60.782483-31.201-18.266904-6.813632-31.665728-14.36019631-40.892167-19.55978158z"/></g></g><path d="m278.851614 5.345c-5.771941-3.24-9.727991-5.345-12.007833-5.345 0 0 5.881693 32.495-46.335169 32.495-48.520226 0-46.33517-32.495-46.33517-32.495-2.279842 0-6.235891 2.105-12.002844 5.345 0 0 7.36833 40.38 58.402867 40.38 51.478533 0 58.278149-35.895 58.278149-40.38z" fill="#f2f2f2"/></g><path d="m413.584262 238.322716c-9.287652 2.238227-19.064555 3.316093-28.797794 2.592625-8.197787-22.369075-15.557191-36.882961-20.012723-44.748481v270.577481s-21.102202 6.709715-55.866442 11.110324c-.181695-.019644-.363009-.039532-.543932-.059665 1.880745-54.795 5.722054-166.47 8.276275-240.705 2.05535-59.755 31.084673-95.29 60.099029-117.44-2.675385 6.780625-5.071498 14.606324-6.999205 23.667254 7.354 11.851464 24.435794 42.068696 43.830742 94.964134.00496.013823.009643.027599.01405.041328zm-222.867617 239.47254c-34.247876-4.401312-56.476331-11.050915-56.476331-11.050915v-270.572197c-4.455834 7.866735-11.813778 22.379131-20.009729 44.743197-9.632964.716014-19.3086964-.33238-28.510585-2.523818.0050945-.032025.0117169-.064272.0198871-.096743 19.3773569-52.847461 36.3054119-83.066075 43.6098449-94.943632-1.928939-9.07531-4.327692-16.91207-7.006412-23.701148 29.014357 22.15 58.04368 57.685 60.099029 117.44 2.554222 74.235 6.395531 185.91 8.276276 240.705256z" fill="#000" fill-opacity=".1"/><path d="m293 124.181818c5.333333-1.454545 10.666667-2.181818 16-2.181818s10.666667.727273 16 2.181818v10.090909c0 16.818182-5.333333 26.727273-16 29.727273-10.666667-3-16-12.909091-16-29.727273z" fill="#010102"/><g fill="#f2f2f2"><path d="m308.499317 150.710262v12.139943c-3.078644-.963114-5.665565-2.562638-7.761775-4.804926z"/><path d="m323.79327 139.359905c-.885137 12.976739-5.614359 20.773993-14.292512 23.490249l-.000728-25.248712c9.578328.055432 14.297873 1.690393 14.29324 1.758463z"/><path d="m324.000158 131.298808v3.389504c0 1.157146-.026096 2.279949-.078289 3.368411-4.948495-1.36613-7.461675-1.556723-14.921711-1.556723l-.527312.000341c-7.093153.009508-9.591739.225283-14.473004 1.577581l.078337-.020196c-.052225-1.088775-.078337-2.211913-.078337-3.369414v-3.389504c5.000053.467461 10.000105.701192 15.000158.701192s10.000105-.233731 15.000158-.701192z"/><path d="m309 123c5 0 10 .692641 15.000158 2.077922v5.298796c-5.000053.415521-10.000105.623282-15.000158.623282s-10.000105-.207761-15.000158-.623282v-5.298796c5.000158-1.385281 10.000158-2.077922 15.000158-2.077922z"/></g><path d="m308.499317 137.869669v12.939762l-7.713793 7.28698c-1.880336-1.995474-3.368622-4.504436-4.465583-7.531422z" fill="#e6bc1e"/><path d="m308.499257 137.601432v.376l-12.146694 12.677106c-1.166497-3.185537-1.896646-6.948634-2.191308-11.294633-.00574-.084965 4.758598-1.703528 14.338002-1.758473z" fill="#27328b"/></g></svg>