<?xml version="1.0" encoding="UTF-8"?><svg width="500" height="500" viewBox="0 0 500 500" fill="none" xmlns="http://www.w3.org/2000/svg"><path fill-rule="evenodd" clip-rule="evenodd" d="M203.607 109.223h93.432V21.928h-93.432v87.295z" fill="#005898"/><path fill-rule="evenodd" clip-rule="evenodd" d="M203.468 32.2281h93.248v-14.2h-93.248v14.2z" fill="#E0E0E0"/><path fill-rule="evenodd" clip-rule="evenodd" d="M87.5475 75.2585S46.7848 148.059 29 203.029c4.4449 13.375 45.2077 40.86 85.232 37.885 13.34-36.4 24.46-52 24.46-52s2.963-95.0855-51.1445-113.6555zm323.9255 0s40.762 72.8005 58.547 127.7705c-4.445 13.375-45.207 40.86-85.232 37.885-13.34-36.4-24.46-52-24.46-52s-2.963-95.0855 51.145-113.6555z" fill="#0063AA"/><path fill-rule="evenodd" clip-rule="evenodd" d="M249.511 57.7025c-50.082 0-47.798-39.4691-48.743-39.1401-7.515 2.6187-24.132 14.9368-52.438 25.4951-31.873 11.885-52.626 19.315-60.7825 31.2 11.1148 8.915 46.6945 28.9695 46.6945 120.3445v271.14s49.657 14.855 114.885 14.855c68.929 0 115.648-14.855 115.648-14.855v-271.14c0-91.375 35.58-111.4295 46.7-120.3445-8.157-11.885-28.91-19.315-60.783-31.2-28.36-10.5767-44.982-22.9195-52.478-25.5107-.927-.3183 4.177 39.1557-48.703 39.1557z" fill="#0063AA"/><path fill-rule="evenodd" clip-rule="evenodd" d="M119.982 226.098c-1.849 4.494-3.775 9.427-5.75 14.816-40.0243 2.975-80.7871-24.51-85.232-37.885 1.7572-5.432 3.7388-11.037 5.8832-16.729 10.2695 10.965 22.7409 19.794 37.4143 26.489 14.6578 6.687 30.5525 11.123 47.6845 13.309zm259.223 0c17.132-2.186 33.026-6.622 47.684-13.309 14.673-6.695 27.145-15.524 37.414-26.489 2.145 5.692 4.126 11.297 5.884 16.729-4.445 13.375-45.208 40.86-85.233 37.885-1.974-5.389-3.901-10.322-5.749-14.816z" fill="#F2F2F2"/><path fill-rule="evenodd" clip-rule="evenodd" d="M201.788 27.1167l1.727 3.2146c-9.01 5.064-23.407 13.973-44.263 21.8919-29.799 11.3107-49.704 18.5866-58.463 29.5088a49.8458 49.8458 0 00-3.3802-1.9139c8.5122-11.2394 28.5882-18.5704 58.9052-30.078 19.259-7.3123 33.01-15.4687 42.097-20.6626-.007-.0332-.01-.0499-.01-.0499 1.21-.6919 2.338-1.332 3.387-1.9109zM90.7227 76.9418c8.011-11.8867 28.3983-19.3167 59.7103-31.2017 19.259-7.3123 33.01-15.4687 42.097-20.6626-.007-.0332-.01-.0499-.01-.0499l.023-.0147 1.735 3.2289c-9.082 5.2077-22.471 12.9814-40.907 19.9814-30.393 11.5363-50.494 18.8752-58.9736 30.1667-1.1924-.527-2.4188-1.0093-3.6767-1.4488l.002.0007zM298.645 27.5477c.825.4608 1.695.9555 2.612 1.4798 0 0-.003.0167-.01.0499 9.087 5.1939 22.838 13.3503 42.097 20.6626 30.32 11.5086 50.397 18.8399 58.912 30.0855-1.163.5935-2.291 1.2313-3.388 1.9063-8.756-10.9212-28.661-18.1972-58.462-29.5087-19.867-7.5433-33.873-15.985-42.944-21.1459l-.397-.2256 1.58-3.3039zM307.091 25l.047.0275s-.003.0167-.01.0499c9.087 5.1939 22.838 13.3503 42.097 20.6626 30.998 11.7662 51.29 19.166 59.466 30.8465l.244.3552a53.1774 53.1774 0 00-3.677 1.4463c-8.474-11.2884-28.575-18.6276-58.971-30.1649-17.936-6.8099-31.094-14.3521-40.158-19.5515l-.45-.258L307.091 25z" fill="#F1F1F1"/><path fill-rule="evenodd" clip-rule="evenodd" d="M308.219 23.345C302.46 20.105 298.513 18 296.238 18c0 0 5.869 32.495-46.231 32.495-48.411 0-46.23-32.495-46.23-32.495-2.275 0-6.222 2.105-11.976 5.345 0 0 7.352 40.38 58.271 40.38 51.363 0 58.147-35.895 58.147-40.38z" fill="#F1F1F1"/><path d="M309 167c13.255 0 24-10.745 24-24s-10.745-24-24-24-24 10.745-24 24 10.745 24 24 24z" fill="#fff"/><path d="M309 165c12.15 0 22-9.85 22-22s-9.85-22-22-22-22 9.85-22 22 9.85 22 22 22z" fill="#004C9E"/><path d="M309 159c-8.837 0-16-7.163-16-16s7.163-16 16-16 16 7.163 16 16-7.163 16-16 16z" fill="#fff"/><path d="M327 137h-14v5h14v-5z" fill="#004C9E"/><path fill-rule="evenodd" clip-rule="evenodd" d="M304 129.737c1.667-.491 3.333-.737 5-.737 1.667 0 3.333.246 5 .737v26.526c-1.667.491-3.333.737-5 .737-1.667 0-3.333-.246-5-.737v-26.526z" fill="#004C9E"/><path fill-rule="evenodd" clip-rule="evenodd" d="M413.584 238.323c-9.287 2.238-19.064 3.316-28.798 2.592-8.197-22.369-15.557-36.883-20.012-44.748v270.577s-21.102 6.71-55.867 11.111l-.544-.06c1.881-54.795 5.722-166.47 8.277-240.705 2.055-59.755 31.084-95.29 60.099-117.44-2.676 6.781-5.072 14.606-7 23.667 7.354 11.852 24.436 42.069 43.831 94.964.005.014.01.028.014.042zM190.717 477.795c-34.248-4.401-56.477-11.051-56.477-11.051V196.172c-4.456 7.867-11.813 22.379-20.009 44.743-9.633.716-19.3091-.332-28.511-2.524a1.056 1.056 0 01.0199-.096c19.3771-52.848 36.3051-83.066 43.6101-94.944-1.929-9.075-4.328-16.912-7.007-23.701 29.015 22.15 58.044 57.685 60.099 117.44 2.555 74.235 6.396 185.91 8.277 240.705h-.002z" fill="#000" fill-opacity=".08"/></svg>