<?xml version="1.0" encoding="utf-8"?><svg width="500" height="500" viewBox="0 0 500 500" fill="none" xmlns="http://www.w3.org/2000/svg"><path fill-rule="evenodd" clip-rule="evenodd" d="M203.003 109.223h93.643V21.928h-93.643v87.295z" fill="#17478D"/><path fill-rule="evenodd" clip-rule="evenodd" d="M202.863 32.228h93.459v-14.2h-93.459v14.2z" fill="#1C519F"/><path fill-rule="evenodd" clip-rule="evenodd" d="M87.5475 75.2585S46.7848 148.058 29 203.028c4.4449 13.375 45.2077 40.86 85.232 37.885 13.34-36.4 24.46-52 24.46-52s2.963-95.0845-51.1445-113.6545m323.9255 0s40.763 72.7995 58.548 127.7695c-4.445 13.375-45.208 40.86-85.233 37.885-13.339-36.4-24.459-52-24.459-52s-2.964-95.0845 51.144-113.6545" fill="#1B59B2"/><path fill-rule="evenodd" clip-rule="evenodd" d="M249.511 57.7025c-50.081 0-47.798-39.4691-48.742-39.14-7.516 2.6187-24.133 14.9368-52.439 25.495-31.873 11.885-52.6256 19.315-60.7821 31.2 11.1148 8.915 46.6941 28.9695 46.6941 120.3445v271.14s49.658 14.856 114.885 14.856c68.929 0 115.649-14.856 115.649-14.856v-271.14c0-91.375 35.579-111.4295 46.699-120.3445-8.157-11.885-28.91-19.315-60.782-31.2-28.36-10.5767-44.982-22.9195-52.479-25.5087-.927-.3203 4.178 39.1537-48.703 39.1537z" fill="#1B59B2"/><path fill-rule="evenodd" clip-rule="evenodd" d="M293.399 37.9079V479.552c-8.696.807-18.037 1.431-27.937 1.768V56.2747c15.676-3.0936 23.748-10.752 27.937-18.3668zm58.867 14.8151v417.362c-6.829 1.637-16.283 3.657-27.937 5.546V40.474s13.49 6.7937 27.937 12.249zm-117.734 428.63c-9.8-.327-19.156-.961-27.937-1.79V37.8077c4.477 7.684 12.681 15.4346 27.937 18.512V481.353zm-58.867-5.74c-11.439-1.847-20.935-3.817-27.936-5.43V44.2818c.2-.0746.4-.1494.601-.2243 10.751-4.01 19.815-8.2739 27.335-12.1638V475.613z" fill="#0E2E5D"/><path fill-rule="evenodd" clip-rule="evenodd" d="M94.3528 78.134c8.6722-11.2398 29.1072-18.5704 59.9642-30.0765 19.603-7.3121 33.6-15.4683 42.85-20.6622a1.7712 1.7712 0 01-.01-.0503c1.232-.6917 2.38-1.3317 3.448-1.9105l1.757 3.2146c-9.171 5.0641-23.825 13.9728-45.055 21.8915-30.33 11.3097-50.591 18.5852-59.5095 29.5043a53.2456 53.2456 0 00-3.4447-1.9109zm-6.8049-2.8755c8.1565-11.886 28.9091-19.316 60.7821-31.201 19.604-7.3121 33.6-15.4683 42.851-20.6622-.007-.0333-.01-.0503-.01-.0503l.024-.0137 1.765 3.2282c-9.245 5.2077-22.873 12.9812-41.639 19.9811-30.935 11.535-51.3944 18.8735-60.0296 30.1614l-3.7435-1.4435zm317.1151 2.878a53.4913 53.4913 0 00-3.445 1.9112c-8.917-10.9207-29.179-18.1965-59.511-29.5071-20.52-7.654-34.897-16.2328-44.117-21.3709l1.609-3.304c.839.4606 1.724.9551 2.657 1.4793l-.009.0503c9.25 5.1939 23.247 13.3501 42.85 20.6622 30.859 11.5069 51.294 18.8378 59.966 30.079zm6.804-2.876a53.4562 53.4562 0 00-3.743 1.4437c-8.634-11.2891-29.095-18.6278-60.031-30.1636-18.561-6.9233-32.096-14.6034-41.335-19.8092l1.436-3.414.049.0276s-.003.017-.01.0503c9.25 5.1939 23.247 13.3501 42.85 20.6622 31.873 11.885 52.626 19.315 60.783 31.2v.001s0 .0006.001.002z" fill="#F2F2F2"/><path fill-rule="evenodd" clip-rule="evenodd" d="M307.852 23.345C302.08 20.105 298.124 18 295.844 18c0 0 5.882 32.495-46.335 32.495-48.52 0-46.335-32.495-46.335-32.495-2.28 0-6.236 2.105-12.003 5.345 0 0 7.368 40.38 58.403 40.38 51.478 0 58.278-35.895 58.278-40.38z" fill="#2566C4"/><path fill-rule="evenodd" clip-rule="evenodd" d="M413.584 238.323c-9.288 2.238-19.065 3.316-28.798 2.592-8.198-22.369-15.557-36.883-20.013-44.748v270.577s-21.102 6.71-55.866 11.111l-.544-.06c1.881-54.795 5.722-166.47 8.276-240.705 2.056-59.755 31.085-95.29 60.099-117.44-2.675 6.781-5.071 14.606-6.999 23.667 7.354 11.852 24.436 42.069 43.831 94.964.005.014.01.028.014.042zM190.716 477.795c-34.248-4.401-56.476-11.051-56.476-11.051V196.172c-4.456 7.867-11.814 22.379-20.01 44.743-9.633.716-19.3084-.332-28.5103-2.523.0051-.032.0117-.065.0199-.097 19.3774-52.848 36.3054-83.066 43.6094-94.944-1.928-9.075-4.327-16.912-7.006-23.701 29.014 22.15 58.044 57.685 60.099 117.44 2.554 74.235 6.396 185.91 8.276 240.705h-.002z" fill="#000" fill-opacity=".08"/><path d="M287.5 149.558c0-.501.024-1.011.07-1.535.148-1.695 2.244-6.767 3.179-10.155 1.761-6.376 1.761-6.448-1.12-12.396l8.045-5.447c4.907 2.262 7.603 2.517 11.326 2.517 3.723 0 6.231-.169 11.326-2.517l8.045 5.447c-2.881 5.948-2.881 6.02-1.12 12.396.935 3.388 3.031 8.46 3.179 10.155.046.524.07 1.034.07 1.535 0 5.162-4.293 7.536-11.524 9.75-.269.082-.543.165-.906.274.069-.021-.686.205-.887.266-5.052 1.52-6.782 2.532-8.183 6.66-1.233-4.128-3.131-5.14-8.183-6.66-.201-.061-.956-.287-.887-.266-.363-.109-.637-.192-.906-.274-7.231-2.214-11.524-4.588-11.524-9.75z" fill="#0E2E5D"/><path d="M289 148.951c0-.453.022-.913.065-1.387.138-1.531 2.088-6.114 2.958-9.175 1.637-5.761 1.637-5.827-1.043-11.2l7.484-4.922c4.565 2.043 7.073 2.274 10.536 2.274 3.463 0 5.796-.153 10.536-2.274l7.484 4.922c-2.68 5.373-2.68 5.439-1.043 11.2.87 3.061 2.82 7.644 2.958 9.175.043.474.065.934.065 1.387 0 4.664-3.993 6.809-10.72 8.81-.25.074-.505.149-.842.247.063-.019-.639.186-.826.24-4.699 1.374-6.309 2.288-7.612 6.019-1.147-3.731-2.913-4.645-7.612-6.019-.187-.054-.889-.259-.826-.24-.337-.098-.592-.173-.842-.247-6.727-2.001-10.72-4.146-10.72-8.81z" fill="#DED32D"/><path d="M319.096 124.267l5.121 3.453c-2.275 3.644-1.514 5.683-.183 10.279L311 138l-.001-11.713c2.373-.107 4.761-.519 8.097-2.02z" fill="#2263C0"/><path d="M298.839 124.267c3.224 1.451 5.726 1.891 8.161 2.014V138l-13.035-.001.552-1.91c.939-3.334 1.199-5.272-.735-8.369l5.057-3.453z" fill="#3D3D3D"/><path fill-rule="evenodd" clip-rule="evenodd" d="M314.25 141.999v15.295l-.079.024c-.742.226-1.374.437-1.92.67l-.001-15.989h2zm-8.5 0l.001 15.975c-.569-.236-1.229-.45-2-.681l-.001-15.294h2zm-8.5 0v13.235c-.725-.283-1.393-.578-2.001-.892l.001-12.343h2zm25.5 0l.001 12.343c-.607.314-1.275.609-2 .892l-.001-13.235h2z" fill="#3D3D3D"/><path fill-rule="evenodd" clip-rule="evenodd" d="M310 141.999v17.694c-.38.531-.699 1.196-1 2.062-.279-.911-.598-1.6-.999-2.143L308 141.999h2zm8.5 0l.001 14.026-.394.125-.926.281-.681.2v-14.632h2zm-17 0v14.631l-.852-.25-.7-.213c-.151-.047-.3-.094-.448-.142v-14.026h2zm-8.5 0v10.848c-1.301-1.159-2-2.576-2-4.437 0-.41.02-.827.058-1.255.082-.914.873-3.027 1.627-5.155l.315-.001zm32.315.001l.61 1.714.371 1.067c.345 1.02.601 1.876.646 2.374.038.428.058.845.058 1.255 0 1.86-.699 3.278-1.999 4.436L325 141.999l.315.001z" fill="#2263C0"/><rect x="298" y="128" width="6" height="8" rx="3" fill="#DED32D"/><rect x="314" y="128" width="6" height="8" rx="3" fill="#DED32D"/></svg>