<?xml version="1.0" encoding="UTF-8"?><svg height="500" viewBox="0 0 500 500" width="500" xmlns="http://www.w3.org/2000/svg"><g fill="none" fill-rule="evenodd"><path d="m0 0h500v500h-500z"/><g transform="translate(28.003 17.998)"><path d="m175.003327 91.195h93.643138v-87.295h-93.643138z" fill="#8f1a1f"/><path d="m174.863643 14.2h93.458556v-14.2h-93.458556z" fill="#d9d9d9"/><g fill="#c63036"><path d="m59.5475395 57.262s-40.7627765 72.8-58.5475395 127.77c4.44494357 13.375 45.2077201 40.86 85.232167 37.885 13.3398195-36.4 24.459661-52 24.459661-52s2.963296-95.085-51.1442885-113.655"/><path d="m383.472677 57.262s40.762777 72.8 58.54754 127.77c-4.444944 13.375-45.20772 40.86-85.232167 37.885-13.33982-36.4-24.459662-52-24.459662-52s-2.963295-95.085 51.144289-113.655"/><path d="m221.511106 39.7076155c-50.081693 0-47.798103-39.46909131-48.742578-39.14001413-7.515856 2.61869932-24.132633 14.93680473-52.438505 25.49501413-31.8728898 11.885-52.6259372 19.315-60.7824835 31.2 11.1148533 8.915 46.6943565 28.97 46.6943565 120.3449995v271.14s49.657653 14.855 114.885079 14.855c68.929052 0 115.648352-14.855 115.648352-14.855v-271.14c0-91.3749995 35.579504-111.4299995 46.699346-120.3449995-8.156547-11.885-28.909594-19.315-60.782483-31.2-28.359862-10.5766915-44.981767-22.91944582-52.478053-25.5106155-.92727-.31834247 4.17733 39.1556155-48.703031 39.1556155z"/></g><path d="m439.349855 177.130935c.935913 2.666604 1.827272 5.302976 2.667362 7.899565-4.444944 13.375-45.20772 40.86-85.232167 37.885-.957672-2.613172-1.903902-5.119143-2.835397-7.519839 20.795122-1.357576 37.993275-5.636603 51.594459-12.83708 13.428196-7.108897 24.696777-15.584779 33.805743-25.427646z" fill="#f2f2f2"/><path d="m3.651704 177.167004c9.1031084 9.827506 20.3605579 18.291365 33.7723485 25.391577 13.6109756 7.20566 30.8241009 11.485663 51.6393758 12.840008-.931129 2.399805-1.876979 4.904801-2.8342613 7.516911-40.0244469 2.975-80.78722343-24.51-85.232167-37.885.8363014-2.584881 1.72341196-5.209187 2.654704-7.863496z" fill="#f2f2f2"/><path d="m265.730214 19.262647c45.260077 11.3355446 71.50607 39.3367749 71.50607 67.9812312v72.9090678c-.301288 5.499186-.460957 11.30034-.460957 17.421554v271.14s-46.7193 14.855-115.648352 14.855c-65.227426 0-114.885079-14.855-114.885079-14.855v-271.14c0-6.26161-.167077-12.188309-.48191-17.799463v-72.5311588c0-28.8359913 26.598162-57.0201258 72.416526-68.2019932 5.59572 10.1262604 17.495549 20.632615 43.334594 20.632615 27.081446 0 38.954957-10.3529838 44.219108-20.411853z" fill="#b6272d"/></g><path d="m413.584262 238.322716c-9.287652 2.238227-19.064555 3.316093-28.797794 2.592625-8.197787-22.369075-15.557191-36.882961-20.012723-44.748481v270.577481s-21.102202 6.709715-55.866442 11.110324c-.181695-.019644-.363009-.039532-.543932-.059665 1.880745-54.795 5.722054-166.47 8.276275-240.705 2.05535-59.755 31.084673-95.29 60.099029-117.44-2.675385 6.780625-5.071498 14.606324-6.999205 23.667254 7.354 11.851464 24.435794 42.068696 43.830742 94.964134.00496.013823.009643.027599.01405.041328zm-222.867617 239.47254c-34.247876-4.401312-56.476331-11.050915-56.476331-11.050915v-270.572197c-4.455834 7.866735-11.813778 22.379131-20.009729 44.743197-9.632964.716014-19.3086964-.33238-28.510585-2.523818.0050945-.032025.0117169-.064272.0198871-.096743 19.3773569-52.847461 36.3054119-83.066075 43.6098449-94.943632-1.928939-9.07531-4.327692-16.91207-7.006412-23.701148 29.014357 22.15 58.04368 57.685 60.099029 117.44 2.554222 74.235 6.395531 185.91 8.276276 240.705256z" fill="#000" fill-opacity=".1"/><path d="m307.851614 23.345c-5.771941-3.24-9.727991-5.345-12.007833-5.345 0 0 5.881693 32.495-46.335169 32.495-48.520226 0-46.33517-32.495-46.33517-32.495-2.279842 0-6.235891 2.105-12.002844 5.345 0 0 7.36833 40.38 58.402867 40.38 51.478533 0 58.278149-35.895 58.278149-40.38z" fill="#f2f2f2"/><path d="m292 126c6.531193-.942809 12.486699-1.414214 17.866517-1.414214s10.757645.471405 16.133483 1.414214c.942809 5.018271 1.414214 10.468329 1.414214 16.350172 0 5.881844-.471405 11.76512-1.414214 17.649828-4.909982.942809-10.323883 1.414214-16.241705 1.414214-5.917821 0-11.837253-.471405-17.758295-1.414214-.942809-6.032026-1.414214-11.820758-1.414214-17.366198s.471405-11.090041 1.414214-16.633802z" fill="#fff" transform="matrix(.70710678 .70710678 -.70710678 .70710678 191.620274 -176.612265)"/><path d="m296.039164 130.039164c4.93574-2.026109 9.464807-3.039164 13.587202-3.039164s8.233885 1.013055 12.33447 3.039164c2.026109 3.858718 3.039164 8.022419 3.039164 12.491105 0 4.468685-1.013055 8.945541-3.039164 13.430567-3.781679 2.026109-7.919245 3.039164-12.412698 3.039164s-8.996445-1.013055-13.508974-3.039164c-2.026109-4.580386-3.039164-8.988901-3.039164-13.225544s1.013055-8.468686 3.039164-12.696128z" fill="#e51415" transform="matrix(.70710678 .70710678 -.70710678 .70710678 191.620274 -176.612265)"/><circle cx="309" cy="152" fill="#fbe0e0" r="5"/><path d="m309 133c4 0 8 1.333333 12 4v4h3v2h-3v6c-4-4.666667-8-7-12-7s-8 2.333333-12 7v-6h-3v-2h3v-4c4-2.666667 8-4 12-4z" fill="#f49a9b"/></g></svg>