<?xml version="1.0" encoding="UTF-8"?><svg height="500" viewBox="0 0 500 500" width="500" xmlns="http://www.w3.org/2000/svg"><g fill="none" fill-rule="evenodd"><path d="m0 0h500v500h-500z"/><g transform="translate(29 18)"><path d="m174.003327 91.223h93.643138v-87.295h-93.643138z" fill="#c13425"/><path d="m173.863643 14.228h93.458556v-14.2h-93.458556z" fill="#e0e0e0"/><path d="m58.5475395 57.2585s-40.7627765 72.8-58.5475395 127.77c4.44494357 13.375 45.2077201 40.86 85.232167 37.885 13.3398195-36.4 24.459661-52 24.459661-52s2.963296-95.085-51.1442885-113.655" fill="#d83a2a"/><path d="m382.472677 57.2585s40.762777 72.8 58.54754 127.77c-4.444944 13.375-45.20772 40.86-85.232167 37.885-13.33982-36.4-24.459662-52-24.459662-52s-2.963295-95.085 51.144289-113.655" fill="#d83a2a"/><path d="m220.511106 39.7025c-50.081693 0-47.798103-39.4690913-48.742578-39.14001412-7.515856 2.61869932-24.132633 14.93680482-52.438505 25.49501412-31.8728898 11.885-52.6259372 19.315-60.7824835 31.2 11.1148533 8.915 46.6943565 28.97 46.6943565 120.345v271.14s49.657653 14.855 114.885079 14.855c68.929052 0 115.648352-14.855 115.648352-14.855v-271.14c0-91.375 35.579504-111.43 46.699346-120.345-8.156547-11.885-28.909594-19.315-60.782483-31.2-28.359862-10.5766915-44.981767-22.91944581-52.478053-25.51061549-.92727-.31834247 4.17733 39.15561549-48.703031 39.15561549z" fill="#d83a2a"/><g fill="#f2f2f2"><path d="m438.352855 177.128935c.935913 2.666604 1.827272 5.302976 2.667362 7.899565-4.444944 13.375-45.20772 40.86-85.232167 37.885-.957672-2.613172-1.903902-5.119143-2.835397-7.519839 20.795122-1.357576 37.993275-5.636603 51.594459-12.83708 13.428196-7.108897 24.696777-15.584779 33.805743-25.427646z"/><path d="m2.654704 177.165004c9.1031084 9.827506 20.3605579 18.291365 33.7723485 25.391577 13.6109756 7.20566 30.8241009 11.485663 51.6393758 12.840008-.931129 2.399805-1.876979 4.904801-2.8342613 7.516911-40.0244469 2.975-80.78722343-24.51-85.232167-37.885.83630141-2.584881 1.72341196-5.209187 2.654704-7.863496z"/><path d="m65.3525256 60.1340107c8.6726493-11.2398174 29.1072599-18.5704375 59.9639534-30.0765107 19.603213-7.3120811 33.600049-15.4682517 42.850205-20.66214733-.006525-.03333556-.00963-.05035267-.00963-.05035267 1.231173-.69170002 2.379811-1.33167017 3.447224-1.91047223l1.757385 3.21457493c-9.171045 5.064128-23.825391 13.9727983-45.05495 21.8915128-30.3299349 11.3096518-50.5905834 18.5851929-59.5095253 29.5042653-1.1175145-.6749906-2.2654598-1.3127343-3.4446621-1.9108701zm-6.8049861-2.8755107c8.1565463-11.886 28.9095937-19.316 60.7824835-31.201 19.603213-7.3120811 33.600049-15.4682517 42.850205-20.66214733-.006525-.03333556-.00963-.05035267-.00963-.05035267l.024373-.01369227 1.764845 3.22822024c-9.244738 5.20764953-22.87318 12.98114933-41.639559 19.98108753-30.9342781 11.5350038-51.3939981 18.8735308-60.0291529 30.1613742z"/><path d="m375.662695 60.1365451c-1.179086.5982334-2.326917 1.2360696-3.444321 1.9111475-8.91776-10.9206352-29.179283-18.1964546-59.511822-29.5070771-20.519783-7.6539655-34.896668-16.2327985-44.116666-21.3708695l1.608974-3.30404244c.838767.46065359 1.72436.95512153 2.657351 1.47929644 0 0-.003105.01701711-.009629.05035267 9.250155 5.19389563 23.246991 13.35006623 42.850205 20.66214733 30.859007 11.506936 51.294368 18.8377928 59.965908 30.0790451zm6.804151-2.8760436c-1.279298.4392249-2.526688.9212263-3.742965 1.4437355-8.634159-11.2891167-29.094541-18.6278522-60.030873-30.1636215-18.561023-6.9233396-32.09594-14.6034035-41.334493-19.809212l1.435141-3.41393655.049011.02753305s-.003105.01701711-.009629.05035267c9.250155 5.19389563 23.246991 13.35006623 42.850205 20.66214733 31.872889 11.885 52.625937 19.315 60.782483 31.2v.001s.00112.0006678.00112.0020009z"/><path d="m278.851614 5.345c-5.771941-3.24-9.727991-5.345-12.007833-5.345 0 0 5.881693 32.495-46.335169 32.495-48.520226 0-46.33517-32.495-46.33517-32.495-2.279842 0-6.235891 2.105-12.002844 5.345 0 0 7.36833 40.38 58.402867 40.38 51.478533 0 58.278149-35.895 58.278149-40.38z"/></g></g><path d="m413.584262 238.322716c-9.287652 2.238227-19.064555 3.316093-28.797794 2.592625-8.197787-22.369075-15.557191-36.882961-20.012723-44.748481v270.577481s-21.102202 6.709715-55.866442 11.110324c-.181695-.019644-.363009-.039532-.543932-.059665 1.880745-54.795 5.722054-166.47 8.276275-240.705 2.05535-59.755 31.084673-95.29 60.099029-117.44-2.675385 6.780625-5.071498 14.606324-6.999205 23.667254 7.354 11.851464 24.435794 42.068696 43.830742 94.964134.00496.013823.009643.027599.01405.041328zm-222.867617 239.47254c-34.247876-4.401312-56.476331-11.050915-56.476331-11.050915v-270.572197c-4.455834 7.866735-11.813778 22.379131-20.009729 44.743197-9.632964.716014-19.3086964-.33238-28.510585-2.523818.0050945-.032025.0117169-.064272.0198871-.096743 19.3773569-52.847461 36.3054119-83.066075 43.6098449-94.943632-1.928939-9.07531-4.327692-16.91207-7.006412-23.701148 29.014357 22.15 58.04368 57.685 60.099029 117.44 2.554222 74.235 6.395531 185.91 8.276276 240.705256z" fill="#000" fill-opacity=".1"/><path d="m289 155c0-8.252021 1.862698-10.581781 3.40527-18.891382.688099-3.706686-.113658-6.742892-2.40527-9.108618l2-4c7.333333 0 13-.666667 17-2l.379883.123047c3.975911 1.251302 9.51595 1.876953 16.620117 1.876953l2 4c-2.291612 2.365726-3.093369 5.401932-2.40527 9.108618 1.542572 8.309601 3.40527 10.639361 3.40527 18.891382 0 6.877554-17.807358 10-20 10s-20-3.122446-20-10z" fill="#fff"/><g transform="translate(291 123)"><path d="m0 30.9090909c0-7.5018373 1.676428-9.6198012 3.06474275-17.1739836.61928924-3.3697142.37159134-7.32031551-1.69085973-9.47097585l1.32611698-2.44594963c6.6 0 11.7-.60606061 15.3-1.81818182l.3418945.1118608c3.5783203 1.13754734 8.5643555 1.70632102 14.9581055 1.70632102l1.3153951 2.44594963c-2.0624511 2.15066034-2.2994271 6.10126165-1.6801378 9.47097585 1.3883147 7.5541824 3.0647427 9.6721463 3.0647427 17.1739836 0 6.2523217-16.0266221 9.0909091-18 9.0909091s-18-2.8385874-18-9.0909091z" fill="#d11313"/><path d="m0 31.0007766 32.9352573-17.0007766c1.3883147 7.4779953 3.0647427 9.5745986 3.0647427 17.0007766 0 6.1892644-16.0266221 8.9992234-18 8.9992234s-18-2.809959-18-8.9992234z" fill="#194c9f"/></g></g></svg>