<?xml version="1.0" encoding="UTF-8"?><svg height="500" viewBox="0 0 500 500" width="500" xmlns="http://www.w3.org/2000/svg"><g fill="none" fill-rule="evenodd"><path d="m0 0h500v500h-500z"/><g transform="translate(29 18)"><path d="m174.003327 91.223h93.643138v-87.295h-93.643138z" fill="#1b99c5"/><path d="m173.863643 14.228h93.458556v-14.2h-93.458556z" fill="#d9d9d9"/><g fill="#24b9ee"><path d="m58.5475395 57.2585s-40.7627765 72.8-58.5475395 127.77c4.44494357 13.375 45.2077201 40.86 85.232167 37.885 13.3398195-36.4 24.459661-52 24.459661-52s2.963296-95.085-51.1442885-113.655"/><path d="m382.472677 57.2585s40.762777 72.8 58.54754 127.77c-4.444944 13.375-45.20772 40.86-85.232167 37.885-13.33982-36.4-24.459662-52-24.459662-52s-2.963295-95.085 51.144289-113.655"/><path d="m220.511106 39.7025c-50.081693 0-47.798103-39.4690913-48.742578-39.14001412-7.515856 2.61869932-24.132633 14.93680482-52.438505 25.49501412-31.8728898 11.885-52.6259372 19.315-60.7824835 31.2 11.1148533 8.915 46.6943565 28.97 46.6943565 120.345v271.14s49.657653 14.855 114.885079 14.855c68.929052 0 115.648352-14.855 115.648352-14.855v-271.14c0-91.375 35.579504-111.43 46.699346-120.345-8.156547-11.885-28.909594-19.315-60.782483-31.2-28.359862-10.5766915-44.981767-22.91944581-52.478053-25.51061549-.92727-.31834247 4.17733 39.15561549-48.703031 39.15561549z"/></g><path d="m278.851614 5.345c-5.771941-3.24-9.727991-5.345-12.007833-5.345 0 0 5.881693 32.495-46.335169 32.495-48.520226 0-46.33517-32.495-46.33517-32.495-2.279842 0-6.235891 2.105-12.002844 5.345 0 0 7.36833 40.38 58.402867 40.38 51.478533 0 58.278149-35.895 58.278149-40.38z" fill="#f2f2f2"/></g><path d="m413.584262 238.322716c-9.287652 2.238227-19.064555 3.316093-28.797794 2.592625-8.197787-22.369075-15.557191-36.882961-20.012723-44.748481v270.577481s-21.102202 6.709715-55.866442 11.110324c-.181695-.019644-.363009-.039532-.543932-.059665 1.880745-54.795 5.722054-166.47 8.276275-240.705 2.05535-59.755 31.084673-95.29 60.099029-117.44-2.675385 6.780625-5.071498 14.606324-6.999205 23.667254 7.354 11.851464 24.435794 42.068696 43.830742 94.964134.00496.013823.009643.027599.01405.041328zm-222.867617 239.47254c-34.247876-4.401312-56.476331-11.050915-56.476331-11.050915v-270.572197c-4.455834 7.866735-11.813778 22.379131-20.009729 44.743197-9.632964.716014-19.3086964-.33238-28.510585-2.523818.0050945-.032025.0117169-.064272.0198871-.096743 19.3773569-52.847461 36.3054119-83.066075 43.6098449-94.943632-1.928939-9.07531-4.327692-16.91207-7.006412-23.701148 29.014357 22.15 58.04368 57.685 60.099029 117.44 2.554222 74.235 6.395531 185.91 8.276276 240.705256z" fill="#000" fill-opacity=".08"/><path d="m288.5 151c0-.54747.023554-1.104216.06952-1.67642.148684-1.850872.362501-2.98081 1.179785-6.720284 1.760242-8.053963 1.760242-12.50098-1.120458-18.995069l-.356783-.804312 4.281036-5.708049 1.121196.564237c4.906779 2.469311 9.821521 3.743808 14.743234 3.834474l.58247.005423c5.127159 0 10.23079-1.275908 15.325704-3.839897l1.121196-.564237 4.281036 5.708049-.356783.804312c-2.8807 6.494089-2.8807 10.941106-1.120458 18.995069.817284 3.739474 1.031101 4.869412 1.179785 6.720284.045966.572204.06952 1.12895.06952 1.67642 0 5.63589-3.292968 8.228394-10.524432 10.645808-.268569.089781-.54216.180035-.905197.298922.068693-.022496-.686854.224623-.887768.290663-5.051493 1.660395-6.781906 2.764607-8.182603 7.272931-1.233392-4.508324-3.13111-5.612536-8.182603-7.272931-.200914-.06604-.956461-.313159-.887768-.290663-.363037-.118887-.636628-.209141-.905197-.298922-7.231464-2.417414-10.524432-5.009918-10.524432-10.645808z" fill="#2e2e2e" fill-rule="nonzero"/><path d="m290 151c0-8 5.466215-15.677267 0-28l3-4c5.102687 2.567901 10.237263 3.899406 15.403728 3.994513l.596272.005487c5.367723 0 10.701056-1.333333 16-4l3 4c-5.466215 12.322733 0 20 0 28 0 11.279391-19 7.982457-19 16 0-8.017543-19-4.720609-19-16z" fill="#fff"/><path d="m325 119 3 4c-4.103577 9.250877-2.04591 15.883685-.765018 22.000395l-18.234982-.000395v-22c5.367723 0 10.701056-1.333333 16-4z" fill="#ffe800"/><rect fill="#6b6421" height="14" rx="2" width="8" x="314" y="126"/><path d="m328 151c0 11.279391-19 7.982457-19 16v-16z" fill="#009a33"/><path d="m328 151c0 1.603111-.383804 2.911776-1.042313 4.00033h-35.915374c-.658509-1.088554-1.042313-2.397219-1.042313-4.00033 0-2.642017.596181-5.248834 1.197872-7.999404h35.604256c.601691 2.75057 1.197872 5.357387 1.197872 7.999404z" fill="#0088c9"/><path d="m299 121.44505v26.55495h-4l-.000145-28.057605c1.331208.584761 2.664581 1.085646 4.000145 1.502655zm8.000206 1.493163-.000206 25.061787h-4l.000052-25.557973c1.331249.248198 2.664633.413593 4.000154.496186z" fill="#008cd0"/></g></svg>