<svg xmlns="http://www.w3.org/2000/svg" width="500" height="500" fill="none" viewBox="0 0 500 500"><g clip-path="url(#clip0_5839_4458)"><path fill="#9A1010" fill-rule="evenodd" d="M203 109.22h93.65v-87.3H203v87.3Z" clip-rule="evenodd"/><path fill="#DCDCDC" fill-rule="evenodd" d="M202.86 32.23h93.46v-14.2h-93.46v14.2Z" clip-rule="evenodd"/><path fill="#F2F2F2" fill-rule="evenodd" d="M87.55 75.26S46.78 148.06 29 203.03c4.44 13.37 45.2 40.86 85.23 37.88 13.34-36.4 24.46-52 24.46-52s2.97-95.08-51.14-113.65M411.47 75.26s40.76 72.8 58.55 127.77c-4.44 13.37-45.2 40.86-85.23 37.88-13.34-36.4-24.46-52-24.46-52s-2.96-95.08 51.14-113.65" clip-rule="evenodd"/><path fill="#DF3737" fill-rule="evenodd" d="M249.51 57.7c-50.08 0-47.8-39.47-48.74-39.14-7.52 2.62-24.13 14.94-52.44 25.5-31.87 11.88-52.63 19.31-60.78 31.2 11.11 8.91 46.7 28.97 46.7 120.34v271.14s49.65 14.86 114.88 14.86c68.93 0 115.64-14.86 115.64-14.86V195.6c0-91.37 35.59-111.43 46.7-120.34-8.15-11.89-28.9-19.32-60.78-31.2-28.36-10.58-44.98-22.92-52.48-25.51-.92-.32 4.18 39.15-48.7 39.15Z" clip-rule="evenodd"/><path fill="#DF3737" fill-rule="evenodd" d="M467.46 195.3a338 338 0 0 1 2.67 7.9c-4.45 13.38-45.2 40.86-85.23 37.89-.96-2.62-1.9-5.12-2.84-7.52 20.8-1.36 38-5.64 51.6-12.84 13.42-7.1 24.7-15.58 33.8-25.43ZM31.65 195.3c9.1 9.83 20.37 18.3 33.78 25.4 13.6 7.2 30.82 11.48 51.64 12.83-.93 2.4-1.88 4.9-2.84 7.52-40.02 2.97-80.79-24.51-85.23-37.89.84-2.58 1.72-5.2 2.65-7.86Z" clip-rule="evenodd"/><path fill="#E7E7E7" fill-rule="evenodd" d="M307.85 23.34c-5.77-3.23-9.73-5.34-12-5.34 0 0 5.88 32.5-46.34 32.5-48.52 0-46.34-32.5-46.34-32.5-2.28 0-6.23 2.1-12 5.34 0 0 7.37 40.39 58.4 40.39 51.48 0 58.28-35.9 58.28-40.38Z" clip-rule="evenodd"/><path fill="#000" fill-opacity=".1" fill-rule="evenodd" d="M413.58 238.32a93.79 93.79 0 0 1-28.8 2.6c-8.2-22.37-15.55-36.89-20-44.75v270.57s-21.1 6.71-55.87 11.12c-.18-.03-.37-.04-.55-.06l8.28-240.71c2.06-59.75 31.09-95.29 60.1-117.44a148.6 148.6 0 0 0-7 23.67c7.35 11.85 24.44 42.07 43.83 94.96l.01.04ZM190.72 477.8c-34.25-4.4-56.48-11.06-56.48-11.06V196.18c-4.46 7.87-11.81 22.38-20 44.75-9.64.71-19.32-.34-28.52-2.53l.02-.1c19.38-52.84 36.3-83.06 43.61-94.94a148.72 148.72 0 0 0-7-23.7c29 22.15 58.04 57.69 60.1 117.44l8.27 240.7Z" clip-rule="evenodd"/><path fill="#C9A142" fill-rule="evenodd" d="M289.62 127.1h.03l.09.04.34.1c.28.09.63.2 1.02.3v-4.5l1.4-.45.6 1.91v5.5c-.43 0-1.22-.18-2-.38l-.08-.02c-1.04-.28-2.02-.6-2.02-.6.02.72.06 1.43.11 2.13 1.37 16.53 13.82 28.9 19.89 33.37 6.07-4.48 18.52-16.84 19.89-33.37.06-.7.1-1.41.11-2.13 0 0-.98.32-2.02.6l-.08.02c-.78.2-1.57.38-2 .38v-5.5l.6-1.9 1.4.44v4.5c.39-.1.75-.21 1.02-.3l.34-.1.1-.03.02-.01 2.69-.87-.07 2.82c-.43 18.53-14.31 32.26-20.81 37.06l-1.19.88-1.19-.88c-6.5-4.8-20.38-18.53-20.81-37.06l-.06-2.82 2.68.87ZM309 122c8 0 15.9 2.5 15.9 2.5l.6-1.9v-.01h-.03l-.08-.03-.28-.09-1.05-.3c-.9-.23-2.17-.56-3.7-.88A56.82 56.82 0 0 0 309 120c-4.19 0-8.31.65-11.36 1.3a65.81 65.81 0 0 0-4.75 1.17l-.28.09-.08.02-.02.01h-.01l.6 1.91S301 122 309 122Z" clip-rule="evenodd"/><path fill="#fff" d="M309 164.5c-6.32-4.67-19.59-17.9-20-35.5 0 0 3.08 1 4.1 1v-5.5S301 122 309 122s15.9 2.5 15.9 2.5v5.5c1.02 0 4.1-1 4.1-1-.41 17.6-13.68 30.83-20 35.5Z"/><mask id="path-12-outside-1_5839_4458" width="30" height="28" x="294" y="131" fill="#000" maskUnits="userSpaceOnUse"><path fill="#fff" d="M294 131h30v28h-30z"/><path fill-rule="evenodd" d="M304.19 152.6A33.99 33.99 0 0 0 309 157c2.6-1.9 6.98-6.02 9.93-11.66l-14.74 7.25Zm17.8-18.57.01-.03c-4.09 1.32-13 1.5-13 1.5s-8.91-.18-13-1.5a25.7 25.7 0 0 0 3.06 11.32L322 134.03Z" clip-rule="evenodd"/></mask><path fill="#DF3737" fill-rule="evenodd" d="M304.19 152.6A33.99 33.99 0 0 0 309 157c2.6-1.9 6.98-6.02 9.93-11.66l-14.74 7.25Zm17.8-18.57.01-.03c-4.09 1.32-13 1.5-13 1.5s-8.91-.18-13-1.5a25.7 25.7 0 0 0 3.06 11.32L322 134.03Z" clip-rule="evenodd"/><path fill="#C9A142" d="m309 157-.95 1.29.95.7.95-.7L309 157Zm-4.81-4.4-.7-1.44-1.91.94 1.43 1.57 1.18-1.08Zm14.74-7.26 1.42.74 2.27-4.34-4.4 2.16.71 1.44ZM322 134l1.6.04.05-2.26-2.14.7.49 1.52Zm0 .03.7 1.44.88-.43.02-.97-1.6-.04Zm-13 1.48-.03 1.6h.06l-.03-1.6ZM296 134l.5-1.52-2.15-.7.05 2.26 1.6-.04Zm3.06 11.32-1.42.74.72 1.38 1.4-.69-.7-1.43Zm10.89 10.4a32.34 32.34 0 0 1-4.58-4.2l-2.36 2.15a35.5 35.5 0 0 0 5.04 4.62l1.9-2.58Zm7.57-11.12a34.46 34.46 0 0 1-9.47 11.11l1.9 2.58a37.64 37.64 0 0 0 10.4-12.2l-2.83-1.5Zm.7-.7-14.74 7.26 1.42 2.87 14.74-7.26-1.41-2.87Zm2.18-9.94v.03l3.2.08v-.03l-3.2-.08Zm-11.4 1.55.03 1.6h.11l.3-.01a82.72 82.72 0 0 0 4.65-.25c2.73-.22 6.16-.6 8.4-1.33l-.98-3.04c-1.84.6-4.92.96-7.67 1.18a99.7 99.7 0 0 1-4.5.24H308.97l.03 1.6Zm-13.5.01c2.25.73 5.68 1.11 8.41 1.33a104.03 104.03 0 0 0 4.95.25h.1l.04-1.6.03-1.6H308.66a98 98 0 0 1-4.5-.25c-2.75-.2-5.83-.58-7.67-1.17l-.98 3.04Zm4.97 9.06a24.09 24.09 0 0 1-2.87-10.62l-3.2.08a27.3 27.3 0 0 0 3.24 12.02l2.83-1.48Zm-.7 2.17 22.94-11.28-1.42-2.88-22.94 11.3 1.41 2.87Z" mask="url(#path-12-outside-1_5839_4458)"/></g><defs><clipPath id="clip0_5839_4458"><path fill="#fff" d="M0 0h500v500H0z"/></clipPath></defs></svg>