<svg xmlns="http://www.w3.org/2000/svg" width="501" height="501" fill="none"><path fill="#7A0C0B" fill-rule="evenodd" d="M203.85 109.9h93.65V22.6h-93.65v87.3Z" clip-rule="evenodd"/><path fill="#540908" fill-rule="evenodd" d="M203.71 32.9h93.46V18.7H203.7v14.2Z" clip-rule="evenodd"/><path fill="#ED2428" fill-rule="evenodd" d="M88.4 75.93s-40.77 72.8-58.55 127.77c4.44 13.38 45.2 40.86 85.23 37.89 13.34-36.4 24.46-52 24.46-52S142.5 94.5 88.4 75.93Zm323.92 0s40.76 72.8 58.55 127.77c-4.45 13.38-45.21 40.86-85.24 37.89-13.33-36.4-24.45-52-24.45-52S358.2 94.5 412.31 75.93Z" clip-rule="evenodd"/><path fill="#ED2428" fill-rule="evenodd" d="M250.36 58.38c-50.08 0-47.8-39.47-48.74-39.14-7.52 2.61-24.14 14.93-52.44 25.49-31.88 11.89-52.63 19.32-60.79 31.2 11.12 8.92 46.7 28.97 46.7 120.34v271.14s49.66 14.86 114.88 14.86c68.93 0 115.65-14.85 115.65-14.85V196.28c0-91.38 35.58-111.43 46.7-120.35-8.15-11.88-28.9-19.31-60.78-31.2-28.36-10.58-44.98-22.92-52.48-25.5-.93-.33 4.18 39.15-48.7 39.15Z" clip-rule="evenodd"/><path fill="#ED2428" fill-rule="evenodd" d="M468.2 195.8c.94 2.67 1.83 5.3 2.67 7.9-4.45 13.38-45.2 40.86-85.23 37.89-.96-2.62-1.9-5.12-2.84-7.52 20.8-1.36 38-5.64 51.6-12.84 13.42-7.1 24.7-15.58 33.8-25.43Zm-435.7.04c9.1 9.82 20.36 18.29 33.77 25.39 13.62 7.2 30.83 11.49 51.64 12.84-.93 2.4-1.87 4.9-2.83 7.52-40.02 2.97-80.79-24.51-85.23-37.89.83-2.58 1.72-5.2 2.65-7.86Z" clip-rule="evenodd"/><path fill="#F5F5F5" fill-rule="evenodd" d="M308.7 24.02c-5.77-3.24-9.73-5.35-12-5.35 0 0 5.87 32.5-46.34 32.5-48.53 0-46.34-32.5-46.34-32.5-2.28 0-6.24 2.1-12 5.35 0 0 7.37 40.38 58.4 40.38 51.48 0 58.28-35.9 58.28-40.38Zm159.4 171.76c.94 2.67 1.83 5.3 2.67 7.9-4.45 13.38-45.21 40.86-85.23 37.89-.96-2.61-1.9-5.12-2.84-7.52 20.8-1.36 38-5.64 51.6-12.84 13.42-7.1 24.69-15.58 33.8-25.43Zm-435.8 0c9.1 9.83 20.35 18.3 33.76 25.4 13.61 7.2 30.83 11.48 51.64 12.84-.93 2.4-1.87 4.9-2.83 7.51-40.03 2.98-80.79-24.5-85.23-37.88.83-2.59 1.72-5.21 2.65-7.87Z" clip-rule="evenodd"/><path fill="#000" fill-opacity=".1" fill-rule="evenodd" d="M414.43 239a93.8 93.8 0 0 1-28.8 2.59c-8.2-22.37-15.55-36.88-20.01-44.75v270.58s-21.1 6.7-55.87 11.1l-.54-.05 8.28-240.7c2.05-59.76 31.08-95.3 60.1-117.45a148.7 148.7 0 0 0-7 23.67c7.35 11.85 24.43 42.07 43.83 94.96l.01.05ZM191.56 478.47c-34.25-4.4-56.47-11.05-56.47-11.05V196.84c-4.46 7.87-11.82 22.38-20.01 44.75a93.82 93.82 0 0 1-28.51-2.53c0-.03 0-.06.02-.1 19.37-52.84 36.3-83.06 43.6-94.94a148.74 148.74 0 0 0-7-23.7c29.01 22.15 58.04 57.69 60.1 117.44l8.28 240.7Z" clip-rule="evenodd"/><path fill="#F5F5F5" fill-rule="evenodd" d="M299.46 155.1c-.02 4.18 8.74 3.64 10.54 6.12 1.82-2.46 10.54-1.95 10.54-6.13v-21.53h-21.08v21.53Z" clip-rule="evenodd"/><path fill="#ED2428" fill-rule="evenodd" d="M300.78 154.3c-.02 3.78 7.65 3.36 9.22 5.6 1.59-2.22 9.22-1.83 9.22-5.6v-19.42h-18.44v19.42Z" clip-rule="evenodd"/><path fill="#F5F5F5" fill-rule="evenodd" d="M311.34 127.18a2.3 2.3 0 1 0-2.68 0h-3.48a2.3 2.3 0 1 0-.76.95v2.8h11.17v-2.8a2.3 2.3 0 1 0-.77-.95h-3.48Zm-19.35 17.5c.04 2.3.38 4.41.64 6.1.4 2.48.65 4.07-.36 4.07-1.02 0-3.12-1.65-4.67-4.21-.48 1.6-.77 3.1-1.02 4.36-.43 2.2-.7 3.62-1.55 3.3-1.46-.52-4.07-6.03-2.27-10.98a11.02 11.02 0 0 1 3.01-4.35c.6-5.3 4.9-9.41 6.5-9.41 1 0 .75 1.59.36 4.06-.1.6-.2 1.25-.29 1.94.44-.54.82-1.07 1.15-1.53.84-1.15 1.38-1.9 1.79-1.5.7.7.73 4.58-1.64 6.96-.5.5-1.06.88-1.65 1.19Zm36.02 0c-.04 2.3-.38 4.41-.64 6.1-.4 2.48-.65 4.07.36 4.07 1.02 0 3.12-1.65 4.67-4.21.48 1.6.77 3.1 1.02 4.36.43 2.2.7 3.62 1.55 3.3 1.46-.52 4.07-6.03 2.27-10.98a11.02 11.02 0 0 0-3.01-4.35c-.6-5.3-4.9-9.41-6.5-9.41-1 0-.75 1.59-.36 4.06.1.6.2 1.25.29 1.94-.44-.54-.82-1.07-1.15-1.53-.84-1.15-1.38-1.9-1.79-1.5-.7.7-.73 4.58 1.64 6.96.5.5 1.06.88 1.65 1.19Z" clip-rule="evenodd"/></svg>