<svg xmlns="http://www.w3.org/2000/svg" width="500" height="500" fill="none" viewBox="0 0 500 500"><g clip-path="url(#clip0_5839_4459)"><path fill="#B22637" fill-rule="evenodd" d="M203 109.22h93.65v-87.3H203v87.3Z" clip-rule="evenodd"/><path fill="#453063" fill-rule="evenodd" d="M202.86 32.23h93.46v-14.2h-93.46v14.2Z" clip-rule="evenodd"/><path fill="#D12F42" fill-rule="evenodd" d="M87.55 75.26S46.78 148.06 29 203.03c4.44 13.37 45.2 40.86 85.23 37.88 13.34-36.4 24.46-52 24.46-52s2.97-95.08-51.14-113.65M411.47 75.26s40.76 72.8 58.55 127.77c-4.44 13.37-45.2 40.86-85.23 37.88-13.34-36.4-24.46-52-24.46-52s-2.96-95.08 51.14-113.65" clip-rule="evenodd"/><path fill="#D12F42" fill-rule="evenodd" d="M249.51 57.7c-50.08 0-47.8-39.47-48.74-39.14-7.52 2.62-24.13 14.94-52.44 25.5-31.87 11.88-52.63 19.31-60.78 31.2 11.11 8.91 46.7 28.97 46.7 120.34v271.14s49.65 14.86 114.88 14.86c68.93 0 115.64-14.86 115.64-14.86V195.6c0-91.37 35.59-111.43 46.7-120.34-8.15-11.89-28.9-19.32-60.78-31.2-28.36-10.58-44.98-22.92-52.48-25.51-.92-.32 4.18 39.15-48.7 39.15Z" clip-rule="evenodd"/><path fill="#2D3A7C" fill-rule="evenodd" d="M293.4 37.9c-4.19 7.62-12.26 15.28-27.94 18.37v425.05a478.8 478.8 0 0 0-16.33.28c-64.9 0-114.4-14.7-114.88-14.85V105.46c0-12.12 4.67-24.12 13.48-34.8v399.52c7 1.62 16.5 3.59 27.94 5.43V48.62a133.7 133.7 0 0 1 28.8-10.97l5.22-1.33c6.04 7.38 17.62 14.18 39.82 14.18 23.73 0 35.46-6.71 41.2-14.04l3.19.84a134.35 134.35 0 0 1 30.43 11.47v426.86a459.6 459.6 0 0 1-30.93 3.92V37.9Zm58.87 432.18c8.08-1.94 12.48-3.33 12.48-3.33V195.6c0-7.58.25-14.66.7-21.29v-68.86c0-11.98-4.57-23.86-13.18-34.45v399.07Zm-145.67 9.48c8.78.83 18.13 1.47 27.93 1.8V56.31c-15.25-3.08-23.46-10.83-27.94-18.51v441.75Z" clip-rule="evenodd" opacity=".8"/><path fill="#4D356E" fill-rule="evenodd" d="M307.85 23.34c-5.77-3.23-9.73-5.34-12-5.34 0 0 5.88 32.5-46.34 32.5-48.52 0-46.34-32.5-46.34-32.5-2.28 0-6.23 2.1-12 5.34 0 0 7.37 40.39 58.4 40.39 51.48 0 58.28-35.9 58.28-40.38Z" clip-rule="evenodd"/><path fill="#D12F42" fill-rule="evenodd" d="M302.1 39.6a151 151 0 0 0-8.2-2.3l-3.2-.84c-5.73 7.33-17.46 14.04-41.2 14.04-22.19 0-33.77-6.8-39.8-14.18l-5.23 1.33c-2.13.55-4.22 1.14-6.26 1.77 7.46 11.26 22.36 24.3 51.36 24.3 30.8 0 45.6-12.84 52.53-24.12Z" clip-rule="evenodd"/><path fill="#000" fill-opacity=".12" fill-rule="evenodd" d="M413.58 238.32a93.79 93.79 0 0 1-28.8 2.6c-8.2-22.37-15.55-36.89-20-44.75v270.57s-21.1 6.71-55.87 11.12c-.18-.03-.37-.04-.55-.06l8.28-240.71c2.06-59.75 31.09-95.29 60.1-117.44a148.6 148.6 0 0 0-7 23.67c7.35 11.85 24.44 42.07 43.83 94.96l.01.04ZM190.72 477.8c-34.25-4.4-56.48-11.06-56.48-11.06V196.18c-4.46 7.87-11.81 22.38-20 44.75-9.64.71-19.32-.34-28.52-2.53l.02-.1c19.38-52.84 36.3-83.06 43.61-94.94a148.72 148.72 0 0 0-7-23.7c29 22.15 58.04 57.69 60.1 117.44l8.27 240.7Z" clip-rule="evenodd"/><path fill="#F2F2F2" fill-rule="evenodd" d="M309 169c11.05 0 20-8.73 20-19.5V117h-40v32.5c0 10.77 8.95 19.5 20 19.5Z" clip-rule="evenodd"/><path fill="#4E3870" fill-rule="evenodd" d="M300 164.6V119h9v48c-3.28 0-6.35-.88-9-2.4Zm27-15.6a18 18 0 0 1-9 15.6V119h9v30Z" clip-rule="evenodd"/><path fill="#D12F42" fill-rule="evenodd" d="M291 149v-30h9v21h9v-21h9v45.6a17.92 17.92 0 0 1-9 2.4v-11h-9v8.6a18 18 0 0 1-9-15.6Z" clip-rule="evenodd"/><path fill="#F2F2F2" d="M291 125h36v7h-36zM302 144h2.5v2h3v-3l1.5-1 1.5 1v3h3v-2h2.5v10h-5.5v-2s0-1.5-1.5-1.5-1.5 1.5-1.5 1.5v2H302v-10Z"/></g><defs><clipPath id="clip0_5839_4459"><path fill="#fff" d="M0 0h500v500H0z"/></clipPath></defs></svg>