<svg xmlns="http://www.w3.org/2000/svg" width="500" height="500" fill="none" viewBox="0 0 500 500"><g clip-path="url(#clip0_5839_4464)"><path fill="#C8C8C8" fill-rule="evenodd" d="M203 109.22h93.65v-87.3H203v87.3Z" clip-rule="evenodd"/><path fill="#303030" fill-rule="evenodd" d="M202.86 32.23h93.46v-14.2h-93.46v14.2Z" clip-rule="evenodd"/><path fill="#5916AE" fill-rule="evenodd" d="M87.55 75.26S46.78 148.06 29 203.03c4.44 13.37 45.2 40.86 85.23 37.88 13.34-36.4 24.46-52 24.46-52s2.97-95.08-51.14-113.65M411.47 75.26s40.77 72.8 58.55 127.77c-4.44 13.37-45.2 40.86-85.23 37.88-13.34-36.4-24.46-52-24.46-52s-2.96-95.08 51.14-113.65" clip-rule="evenodd"/><path fill="#5916AE" fill-rule="evenodd" d="M249.51 57.7c-50.08 0-47.8-39.47-48.74-39.14-7.52 2.62-24.13 14.94-52.44 25.5-31.87 11.88-52.63 19.31-60.78 31.2 11.11 8.91 46.7 28.97 46.7 120.34v271.14s49.65 14.86 114.88 14.86c68.93 0 115.65-14.86 115.65-14.86V195.6c0-91.37 35.58-111.43 46.7-120.34-8.16-11.89-28.92-19.32-60.79-31.2-28.36-10.58-44.98-22.92-52.48-25.51-.92-.32 4.18 39.15-48.7 39.15Z" clip-rule="evenodd"/><path fill="#F2F2F2" fill-rule="evenodd" d="M167 36.15V474.1a408.97 408.97 0 0 1-22-4.59V45.27l3.33-1.24c6.9-2.58 13.12-5.26 18.67-7.88Zm46 9.7v434.24a473.72 473.72 0 0 1-22-2.3V23.48c4.2-2.36 7.43-4.12 9.77-4.94.6-.2-.1 15.72 12.23 27.31Zm48 11.12v424.45a484.36 484.36 0 0 1-22 .03V57.03c3.22.42 6.72.64 10.51.64a89 89 0 0 0 11.49-.7Zm48-32.96v453.8c-6.83.87-14.18 1.64-22 2.26V46.1c12.5-11.62 10.62-27.78 11.22-27.57 2.52.87 6.08 2.85 10.78 5.5Zm46 21.62V469.4a359.56 359.56 0 0 1-22 4.72V36.6c5.3 2.47 11.19 5 17.7 7.42l4.3 1.6Z" clip-rule="evenodd"/><path fill="#3D3D3D" fill-rule="evenodd" d="M467.46 195.3c.94 2.67 1.83 5.3 2.67 7.9-4.45 13.38-45.2 40.86-85.23 37.89a434.6 434.6 0 0 0-2.84-7.52c20.8-1.36 38-5.64 51.6-12.84 13.42-7.1 24.7-15.58 33.8-25.43ZM31.65 195.3c9.1 9.83 20.37 18.3 33.78 25.4 13.6 7.2 30.82 11.48 51.64 12.83-.93 2.4-1.88 4.9-2.84 7.52-40.02 2.97-80.79-24.51-85.23-37.89.84-2.58 1.72-5.2 2.65-7.86ZM307.85 23.34c-5.77-3.23-9.73-5.34-12-5.34 0 0 5.88 32.5-46.34 32.5-48.52 0-46.34-32.5-46.34-32.5-2.28 0-6.23 2.1-12 5.34 0 0 7.37 40.39 58.4 40.39 51.48 0 58.28-35.9 58.28-40.38Z" clip-rule="evenodd"/><path fill="#000" fill-opacity=".1" fill-rule="evenodd" d="M413.58 238.32a93.8 93.8 0 0 1-28.8 2.6c-8.2-22.37-15.55-36.89-20-44.75v270.57s-21.1 6.71-55.87 11.12l-.55-.06 8.28-240.71c2.06-59.75 31.08-95.29 60.1-117.44a148.7 148.7 0 0 0-7 23.67c7.35 11.85 24.44 42.07 43.83 94.96l.01.04ZM190.72 477.8c-34.25-4.4-56.48-11.06-56.48-11.06V196.18c-4.46 7.87-11.81 22.38-20.01 44.75-9.63.71-19.3-.34-28.51-2.53l.02-.1c19.38-52.84 36.3-83.06 43.6-94.94a148.52 148.52 0 0 0-7-23.7c29.02 22.15 58.05 57.69 60.1 117.44l8.28 240.7Z" clip-rule="evenodd"/><path fill="#F2F2F2" fill-rule="evenodd" d="M309 165a22 22 0 1 0 0-44 22 22 0 0 0 0 44Z" clip-rule="evenodd"/><path fill="#CCB563" fill-rule="evenodd" d="M309 163.09a20.09 20.09 0 1 0 0-40.18 20.09 20.09 0 0 0 0 40.18Z" clip-rule="evenodd"/><path fill="#F2F2F2" fill-rule="evenodd" d="M309 161.17a18.17 18.17 0 1 0 0-36.34 18.17 18.17 0 0 0 0 36.34Z" clip-rule="evenodd"/><path fill="#CCB563" fill-rule="evenodd" d="M291.23 146.83h35.54a18.27 18.27 0 0 0 0-7.66h-35.54a18.2 18.2 0 0 0 0 7.66Z" clip-rule="evenodd"/><path fill="#5916AE" fill-rule="evenodd" d="M291.05 145.87h35.9a18.34 18.34 0 0 0 0-5.74h-35.9a18.34 18.34 0 0 0 0 5.74Z" clip-rule="evenodd"/><ellipse cx="309" cy="132.48" fill="#CCB563" rx="4.78" ry="3.83" transform="rotate(90 309 132.48)"/><rect width="13.39" height="9.57" x="302.31" y="148.74" fill="#CCB563" rx="3.83"/></g><defs><clipPath id="clip0_5839_4464"><path fill="#fff" d="M0 0h500v500H0z"/></clipPath></defs></svg>