<svg xmlns="http://www.w3.org/2000/svg" width="501" height="501" fill="none"><path fill="#7A0C0B" fill-rule="evenodd" d="M203.24 109.48h93.64v-87.3h-93.64v87.3Z" clip-rule="evenodd"/><path fill="#540908" fill-rule="evenodd" d="M203.1 32.48h93.46v-14.2H203.1v14.2Z" clip-rule="evenodd"/><path fill="#C51412" fill-rule="evenodd" d="M87.79 75.51s-40.77 72.8-58.55 127.77c4.44 13.38 45.2 40.86 85.23 37.89 13.34-36.4 24.46-52 24.46-52s2.96-95.09-51.14-113.66Zm323.92 0s40.76 72.8 58.55 127.77c-4.45 13.38-45.21 40.86-85.23 37.89-13.34-36.4-24.46-52-24.46-52S357.6 94.08 411.7 75.5Z" clip-rule="evenodd"/><path fill="#C51412" fill-rule="evenodd" d="M249.75 57.96c-50.08 0-47.8-39.47-48.74-39.14-7.52 2.62-24.14 14.93-52.44 25.5-31.88 11.88-52.63 19.3-60.78 31.2 11.11 8.9 46.69 28.96 46.69 120.34V467s49.66 14.85 114.89 14.85C318.29 481.85 365 467 365 467V195.86c0-91.38 35.58-111.43 46.7-120.35-8.15-11.88-28.9-19.31-60.78-31.2-28.36-10.57-44.98-22.92-52.48-25.5-.93-.33 4.18 39.15-48.7 39.15Z" clip-rule="evenodd"/><path fill="#C51412" fill-rule="evenodd" d="M467.6 195.38c.93 2.67 1.82 5.3 2.66 7.9-4.45 13.38-45.2 40.86-85.23 37.89-.96-2.61-1.9-5.12-2.84-7.52 20.8-1.36 38-5.64 51.6-12.84 13.42-7.1 24.7-15.58 33.8-25.43Zm-435.7.04c9.1 9.83 20.35 18.3 33.77 25.4 13.6 7.2 30.82 11.48 51.64 12.83-.94 2.4-1.88 4.9-2.84 7.52-40.02 2.97-80.79-24.51-85.23-37.89.83-2.58 1.72-5.2 2.65-7.86ZM308.09 23.6c-5.77-3.24-9.73-5.35-12-5.35 0 0 5.87 32.5-46.34 32.5-48.52 0-46.34-32.5-46.34-32.5-2.28 0-6.23 2.11-12 5.35 0 0 7.37 40.38 58.4 40.38 51.48 0 58.28-35.9 58.28-40.38Z" clip-rule="evenodd"/><path fill="#000" fill-opacity=".1" fill-rule="evenodd" d="M413.82 238.58a93.79 93.79 0 0 1-28.8 2.59c-8.2-22.37-15.55-36.88-20-44.75V467s-21.11 6.7-55.88 11.1l-.54-.05 8.28-240.7c2.05-59.76 31.08-95.3 60.1-117.45a148.5 148.5 0 0 0-7 23.67c7.35 11.85 24.43 42.07 43.83 94.97l.01.04ZM190.95 478.05c-34.24-4.4-56.47-11.05-56.47-11.05V196.43c-4.46 7.86-11.82 22.38-20.01 44.74a93.5 93.5 0 0 1-28.51-2.52c0-.04 0-.07.02-.1 19.37-52.85 36.3-83.07 43.6-94.95a148.63 148.63 0 0 0-7-23.7c29.02 22.15 58.04 57.69 60.1 117.44l8.28 240.7v.01Z" clip-rule="evenodd"/><path fill="#C51412" fill-rule="evenodd" d="M317.67 125.83h-16.63l-11.77 11.76v16.64L301.04 166h16.63l11.77-11.77v-16.64l-11.77-11.76Zm12.34 11.53-12.1-12.1h-17.1l-12.1 12.1v17.1l12.1 12.1h17.1l12.1-12.1v-17.1Z" clip-rule="evenodd"/><path fill="#222" fill-rule="evenodd" d="M309.6 167.56a22 22 0 1 0 0-44 22 22 0 0 0 0 44Z" clip-rule="evenodd"/><path fill="#F0F0F0" fill-rule="evenodd" d="M309.6 165.7a20.14 20.14 0 1 0 0-40.27 20.14 20.14 0 0 0 0 40.27Z" clip-rule="evenodd"/><path fill="#222" fill-rule="evenodd" d="M309.6 161.63a16.06 16.06 0 1 0 0-32.13 16.06 16.06 0 0 0 0 32.13Z" clip-rule="evenodd"/><path fill="#F0F0F0" fill-rule="evenodd" d="M309.6 159.22a13.65 13.65 0 1 0 0-27.3 13.65 13.65 0 0 0 0 27.3Z" clip-rule="evenodd"/><path fill="#C51412" fill-rule="evenodd" d="m301.39 138.9 1.55-1.56 6.67 6.68v-4.9h6.45v6.44h-4.9l6.67 6.67-1.56 1.55-6.66-6.66v4.9h-6.45v-6.46h4.9l-6.67-6.66Z" clip-rule="evenodd"/></svg>