<?xml version="1.0" encoding="UTF-8"?><svg width="500" height="500" viewBox="0 0 500 500" fill="none" xmlns="http://www.w3.org/2000/svg"><path fill-rule="evenodd" clip-rule="evenodd" d="M203.003 109.223h93.643V21.9277h-93.643v87.2953z" fill="#5A8AC0"/><path fill-rule="evenodd" clip-rule="evenodd" d="M202.864 32.2283h93.458v-14.2h-93.458v14.2z" fill="#D9D9D9"/><path fill-rule="evenodd" clip-rule="evenodd" d="M87.5475 75.2588S46.7848 148.059 29 203.029c4.4449 13.375 45.2077 40.86 85.232 37.885 13.34-36.4 24.46-52 24.46-52s2.963-95.0852-51.1445-113.6552zm323.9255 0s40.763 72.8002 58.547 127.7702c-4.445 13.375-45.207 40.86-85.232 37.885-13.34-36.4-24.46-52-24.46-52s-2.963-95.0852 51.145-113.6552z" fill="#75ADEC"/><path fill-rule="evenodd" clip-rule="evenodd" d="M249.511 57.7025c-50.082 0-47.798-39.4691-48.743-39.14-7.515 2.6187-24.132 14.9368-52.438 25.495-31.873 11.885-52.626 19.315-60.7825 31.2 11.1148 8.915 46.6945 28.9695 46.6945 120.3445v271.14s49.657 14.856 114.885 14.856c68.929 0 115.648-14.856 115.648-14.856v-271.14c0-91.375 35.58-111.4295 46.7-120.3445-8.157-11.885-28.91-19.315-60.783-31.2-28.36-10.5767-44.982-22.9195-52.478-25.5087-.927-.3203 4.177 39.1537-48.703 39.1537z" fill="#75ADEC"/><path fill-rule="evenodd" clip-rule="evenodd" d="M467.353 195.129c.936 2.667 1.827 5.303 2.667 7.899-4.445 13.375-45.208 40.86-85.232 37.885-.958-2.613-1.904-5.119-2.835-7.519 20.795-1.358 37.993-5.637 51.594-12.837 13.428-7.109 24.697-15.585 33.806-25.428zm-435.6983.036c9.1031 9.828 20.3606 18.291 33.7724 25.392 13.6109 7.205 30.8241 11.485 51.6389 12.84-.931 2.399-1.877 4.904-2.834 7.517-40.0243 2.975-80.7871-24.51-85.232-37.885.8363-2.585 1.7234-5.21 2.6547-7.864zM307.852 23.345C302.08 20.105 298.124 18 295.844 18c0 0 5.882 32.495-46.335 32.495-48.521 0-46.336-32.495-46.336-32.495-2.279 0-6.235 2.105-12.002 5.345 0 0 7.368 40.38 58.403 40.38 51.478 0 58.278-35.895 58.278-40.38z" fill="#F2F2F2"/><path fill-rule="evenodd" clip-rule="evenodd" d="M413.584 238.323c-9.287 2.238-19.064 3.316-28.798 2.593-8.197-22.369-15.557-36.883-20.012-44.749v270.578s-21.102 6.709-55.867 11.11c-.181-.02-.363-.039-.544-.06 1.881-54.795 5.722-166.47 8.277-240.705 2.055-59.755 31.084-95.29 60.099-117.44-2.676 6.781-5.072 14.607-7 23.668 7.354 11.851 24.436 42.068 43.831 94.964.005.014.01.027.014.041zM190.717 477.796c-34.248-4.402-56.477-11.051-56.477-11.051V196.173c-4.456 7.866-11.813 22.379-20.009 44.743-9.633.716-19.3091-.333-28.511-2.524.0051-.032.0117-.064.0199-.097 19.3771-52.847 36.3051-83.066 43.6101-94.943-1.929-9.076-4.328-16.913-7.007-23.702 29.015 22.15 58.044 57.685 60.099 117.44 2.555 74.235 6.396 185.91 8.277 240.705l-.002.001z" fill="#000" fill-opacity=".08"/><path fill-rule="evenodd" clip-rule="evenodd" d="M293 125l4-4h24l4 4v36l-4 4h-24l-4-4v-36z" fill="#000"/><path fill-rule="evenodd" clip-rule="evenodd" d="M294 125.818l3.75-3.818h22.5l3.75 3.818v34.364L320.25 164h-22.5l-3.75-3.818v-34.364z" fill="#fff"/><path fill="#6F6F6F" d="M299 127h20v32h-20z"/></svg>