<?xml version="1.0" encoding="UTF-8"?><svg height="500" viewBox="0 0 500 500" width="500" xmlns="http://www.w3.org/2000/svg"><g fill="none" fill-rule="evenodd"><path d="M0 0h500v500H0z"/><path d="M203.006 109.193h93.643V21.898h-93.643z" fill="#053e7e"/><path d="M202.867 32.198h93.458v-14.2h-93.458z" fill="#094c97"/><g fill="#0a5bb6"><path d="M87.55 75.26s-40.762 72.8-58.547 127.77c4.445 13.375 45.208 40.86 85.232 37.885 13.34-36.4 24.46-52 24.46-52S141.658 93.83 87.55 75.26M411.476 75.26s40.762 72.8 58.547 127.77c-4.445 13.375-45.208 40.86-85.232 37.885-13.34-36.4-24.46-52-24.46-52S357.368 93.83 411.476 75.26"/><path d="M249.514 57.706c-50.082 0-47.798-39.47-48.742-39.14-7.516 2.618-24.133 14.936-52.439 25.495-31.873 11.885-52.626 19.315-60.782 31.2 11.114 8.915 46.694 28.97 46.694 120.345v271.14S183.903 481.6 249.13 481.6c68.929 0 115.648-14.855 115.648-14.855v-271.14c0-91.375 35.58-111.43 46.7-120.345-8.157-11.885-28.91-19.315-60.783-31.2-28.36-10.577-44.982-22.92-52.478-25.511-.927-.318 4.177 39.156-48.703 39.156z"/></g><path d="M293.733 37.26c45.26 11.336 71.506 39.337 71.506 67.982v72.909c-.301 5.5-.46 11.3-.46 17.421v271.14s-46.72 14.855-115.649 14.855c-65.227 0-114.885-14.855-114.885-14.855v-271.14c0-6.261-.167-12.188-.482-17.799v-72.531c0-28.836 26.598-57.02 72.417-68.202 5.595 10.126 17.495 20.632 43.334 20.632 27.082 0 38.955-10.352 44.22-20.411z" fill="#0b55a9"/><path d="M249.576 63.752c51.479 0 58.279-35.895 58.279-40.38-5.772-3.24-9.728-5.345-12.008-5.345 0 0 5.881 32.495-46.335 32.495-48.52 0-46.336-32.495-46.336-32.495-2.28 0-6.235 2.105-12.002 5.345 0 0 7.368 40.38 58.402 40.38" fill="#0b55a9"/><path d="M198.082 39.25c-5.557-8.47-6.908-15.878-6.908-15.878 5.767-3.24 9.723-5.345 12.002-5.345 0 0-.638 9.492 6.436 18.215-3.983.88-7.828 1.886-11.53 3.009zm92.597-2.722c6.924-8.801 5.168-18.502 5.168-18.502 2.28 0 6.236 2.105 12.008 5.345 0 1.802-1.097 8.669-5.744 16.243a153.294 153.294 0 0 0-11.432-3.086z" fill="#084080"/><path d="M209.734 36.392c-2.281.5-4.517 1.04-6.706 1.62-3.4-4.758-6.046-10.36-7.938-16.804 3.69-1.982 6.365-3.181 8.086-3.181 0 0-.645 9.6 6.558 18.365zm80.827.284c7.061-8.84 5.286-18.65 5.286-18.65 1.785 0 4.597 1.29 8.504 3.406-1.878 6.407-4.509 11.975-7.893 16.705a157.865 157.865 0 0 0-5.897-1.461z" fill="#f2f2f2"/><g><path d="M302 116.5l-2.939 1.545.561-3.272-2.377-2.318 3.286-.478L302 109l1.47 2.977 3.285.478-2.377 2.318.56 3.272zM316 116.5l-2.939 1.545.561-3.272-2.377-2.318 3.286-.478L316 109l1.47 2.977 3.285.478-2.377 2.318.56 3.272z" fill="#dac979"/><path d="M295.34 161.988c-.777-.323-9.567-.522-8.368-4.409 1.199-3.887 6.536-.248 7.199-1.044 15.424-18.504 6.633-20.494 8.004-25.743.826-3.163 3.462-4.945 6.193-4.206 2.731.738 2.44 3.053 3.119 3.362 9.308 4.232 13.608 19.475 8.212 28.345-5.396 8.87-15.445 7.397-24.358 3.695zm1.678-2.219c7.926 2.14 12.205 1.647 16.677-1.917 7.638-8.243 3.944-21.322-3.739-23.056 2.694 5.952-2.085 17.155-12.938 24.973z" fill="#fff" fill-rule="nonzero"/></g><path d="M413.584 238.323c-9.287 2.238-19.064 3.316-28.798 2.592-8.197-22.369-15.557-36.883-20.012-44.748v270.577s-21.102 6.71-55.867 11.11l-.544-.059c1.881-54.795 5.722-166.47 8.277-240.705 2.055-59.755 31.084-95.29 60.099-117.44-2.676 6.78-5.072 14.606-7 23.667 7.354 11.852 24.436 42.069 43.831 94.964l.014.042zM190.717 477.795c-34.248-4.401-56.477-11.05-56.477-11.05V196.171c-4.456 7.867-11.813 22.38-20.01 44.743-9.632.716-19.308-.332-28.51-2.523.005-.033.012-.065.02-.097 19.377-52.848 36.305-83.066 43.61-94.944-1.93-9.075-4.328-16.912-7.007-23.701 29.015 22.15 58.044 57.685 60.1 117.44 2.554 74.235 6.395 185.91 8.276 240.705z" fill="#000" fill-opacity=".1"/></g></svg>