<?xml version="1.0" encoding="UTF-8"?><svg width="500" height="500" viewBox="0 0 500 500" fill="none" xmlns="http://www.w3.org/2000/svg"><path fill-rule="evenodd" clip-rule="evenodd" d="M203.003 109.223h93.643V21.928h-93.643v87.295Z" fill="#9F2424"/><path fill-rule="evenodd" clip-rule="evenodd" d="M202.864 32.228h93.458v-14.2h-93.458v14.2Z" fill="#BB2D2D"/><path fill-rule="evenodd" clip-rule="evenodd" d="M87.547 75.258S46.785 148.06 29 203.03c4.445 13.375 45.208 40.86 85.232 37.885 13.34-36.4 24.46-52 24.46-52S141.655 93.83 87.547 75.26Zm323.926 0s40.762 72.801 58.547 127.771c-4.445 13.375-45.208 40.86-85.232 37.885-13.34-36.4-24.46-52-24.46-52s-2.963-95.085 51.145-113.655Z" fill="#EB3E3E"/><path fill-rule="evenodd" clip-rule="evenodd" d="M249.511 57.703c-50.082 0-47.798-39.47-48.742-39.14-7.516 2.618-24.133 14.936-52.439 25.494-31.873 11.886-52.626 19.316-60.783 31.2 11.115 8.915 46.695 28.97 46.695 120.345v271.14s49.658 14.856 114.885 14.856c68.929 0 115.648-14.856 115.648-14.856v-271.14c0-91.375 35.58-111.43 46.7-120.345-8.157-11.885-28.91-19.315-60.783-31.2-28.36-10.576-44.982-22.919-52.478-25.508-.927-.32 4.177 39.154-48.703 39.154Z" fill="#EB3E3E"/><path fill-rule="evenodd" clip-rule="evenodd" d="M467.353 195.129a339.495 339.495 0 0 1 2.667 7.899c-4.445 13.375-45.208 40.86-85.232 37.885a431.342 431.342 0 0 0-2.835-7.519c20.795-1.358 37.993-5.637 51.594-12.837 13.428-7.109 24.697-15.585 33.806-25.428Zm-435.698.036c9.103 9.828 20.36 18.291 33.772 25.392 13.611 7.205 30.824 11.485 51.639 12.84a420.297 420.297 0 0 0-2.834 7.517c-40.024 2.975-80.787-24.51-85.232-37.885.836-2.585 1.723-5.21 2.655-7.864Zm276.197-171.82C302.08 20.105 298.124 18 295.844 18c0 0 5.881 32.495-46.335 32.495-48.521 0-46.336-32.495-46.336-32.495-2.279 0-6.235 2.105-12.002 5.345 0 0 7.368 40.38 58.402 40.38 51.479 0 58.279-35.895 58.279-40.38Z" fill="#CD3131"/><path fill-rule="evenodd" clip-rule="evenodd" d="M413.584 238.323c-9.287 2.238-19.064 3.316-28.798 2.592-8.197-22.369-15.557-36.883-20.012-44.748v270.577s-21.102 6.71-55.867 11.111l-.544-.06c1.881-54.795 5.722-166.47 8.277-240.705 2.055-59.755 31.084-95.29 60.099-117.44-2.676 6.781-5.072 14.606-7 23.667 7.354 11.852 24.436 42.069 43.831 94.964l.014.042ZM190.717 477.795c-34.248-4.401-56.477-11.051-56.477-11.051V196.172c-4.456 7.867-11.813 22.379-20.009 44.743-9.633.716-19.31-.332-28.511-2.523.005-.032.012-.065.02-.097 19.377-52.848 36.305-83.066 43.61-94.944-1.929-9.075-4.328-16.912-7.007-23.701 29.015 22.15 58.044 57.685 60.099 117.44 2.555 74.235 6.396 185.91 8.277 240.705h-.002Z" fill="#000" fill-opacity=".1"/><path fill-rule="evenodd" clip-rule="evenodd" d="M292.259 122c7.241 1 14.241 0 16.741-1.5 3.118 1.5 10 3 16.741 1.5l5.028 8.799-1.698 1.621c-.723.69-2.478 3.474-.414 7.415l.821 1.567S322 155 309 170.448c-12.5-15.448-20.478-29.046-20.478-29.046l.82-1.567c2.065-3.941.31-6.725-.413-7.415l-1.698-1.621 5.028-8.799Zm18.321 4.76c-.731.314-1.284.679-1.58 1.104-.296-.425-.849-.79-1.58-1.104-3.216-1.38-9.889-1.76-13.42-1.76l-3 5.25c1.5 1.432 3.8 5.632 1 10.977L309 165l17-23.773c-2.8-5.345-.5-9.545 1-10.977l-3-5.25c-3.531 0-10.204.38-13.42 1.76Z" fill="#F2F2F2"/><path d="M298 134c2.232 5.034 7.557 15.882 11 19 3.443-3.118 8.768-13.966 11-19h-6.696L309 143.256 304.696 134H298Z" fill="#F2F2F2"/></svg>