<?xml version="1.0" encoding="UTF-8"?><svg width="500" height="500" viewBox="0 0 500 500" fill="none" xmlns="http://www.w3.org/2000/svg"><path fill-rule="evenodd" clip-rule="evenodd" d="M203.003 109.223h93.644V21.928h-93.644v87.295z" fill="#253045"/><path fill-rule="evenodd" clip-rule="evenodd" d="M202.864 32.228h93.458v-14.2h-93.458v14.2z" fill="#2D3A53"/><path fill-rule="evenodd" clip-rule="evenodd" d="M87.5475 75.2585S46.7848 148.058 29 203.028c4.4449 13.375 45.2077 40.861 85.232 37.885 13.34-36.399 24.46-52 24.46-52s2.963-95.0845-51.1445-113.6545zm323.9255 0s40.763 72.7995 58.547 127.7695c-4.445 13.375-45.207 40.861-85.232 37.885-13.34-36.399-24.46-52-24.46-52s-2.963-95.0845 51.145-113.6545z" fill="#364460"/><path fill-rule="evenodd" clip-rule="evenodd" d="M249.511 57.7025c-50.082 0-47.798-39.4691-48.742-39.14-7.516 2.6187-24.133 14.9368-52.439 25.495-31.873 11.885-52.6258 19.315-60.7824 31.2 11.1149 8.915 46.6944 28.9705 46.6944 120.3455v271.14s49.658 14.855 114.885 14.855c68.929 0 115.648-14.855 115.648-14.855v-271.14c0-91.375 35.58-111.4305 46.7-120.3455-8.157-11.885-28.91-19.315-60.783-31.2-28.36-10.5767-44.982-22.9194-52.478-25.5087-.927-.3203 4.178 39.1537-48.703 39.1537z" fill="#364460"/><path d="M167.823 474.247c-4.309-.816-8.263-1.632-11.823-2.414V61.5576c-14.434 12.6382-22.237 28.0657-22.237 43.6844v72.531c.315 5.611.482 11.538.482 17.8v271.14s12.654 3.785 33.578 7.534zm23.098 3.542c12.443 1.594 26.465 2.889 41.579 3.462V55.8422c-14.427-3.4453-22.136-11.23-26.321-18.8022-5.352 1.3062-10.442 2.8445-15.258 4.5886V477.789zm76.5-421.9626V481.219c15.345-.584 29.314-1.852 41.579-3.407V41.9623c-4.814-1.7831-9.907-3.3592-15.267-4.7015-3.921 7.4915-11.507 15.1461-26.312 18.5656zm76.5 6.5473V471.942c13.382-2.853 20.857-5.229 20.857-5.229v-271.14c0-6.122.16-11.923.461-17.422v-72.909c0-15.2838-7.472-30.3846-21.318-42.8683z" fill="#F0C24D"/><path fill-rule="evenodd" clip-rule="evenodd" d="M307.852 23.345C302.08 20.105 298.124 18 295.844 18c0 0 5.882 32.495-46.335 32.495-48.521 0-46.336-32.495-46.336-32.495-2.279 0-6.235 2.105-12.002 5.345 0 0 7.368 40.38 58.403 40.38 51.478 0 58.278-35.895 58.278-40.38z" fill="#364460"/><path fill-rule="evenodd" clip-rule="evenodd" d="M413.584 238.323c-9.287 2.238-19.064 3.316-28.798 2.592-8.197-22.369-15.557-36.883-20.012-44.748v270.577s-21.102 6.71-55.867 11.111l-.544-.06c1.881-54.795 5.722-166.47 8.277-240.705 2.055-59.755 31.084-95.29 60.099-117.44-2.676 6.781-5.072 14.606-7 23.667 7.354 11.852 24.436 42.069 43.831 94.964.005.014.01.028.014.042zM190.717 477.795c-34.248-4.401-56.477-11.051-56.477-11.051V196.172c-4.456 7.867-11.813 22.379-20.009 44.743-9.633.716-19.3091-.332-28.511-2.523a1.01 1.01 0 01.0199-.097c19.3771-52.848 36.3051-83.066 43.6101-94.944-1.929-9.075-4.328-16.912-7.007-23.701 29.015 22.15 58.044 57.685 60.099 117.44 2.555 74.235 6.396 185.91 8.277 240.705h-.002z" fill="#000" fill-opacity=".1"/><ellipse cx="309" cy="143" rx="23.8846" ry="27" fill="#364460"/><path d="M324 143c0 10.493-3.492 19-14.5 19-8.008 0-14.5-8.507-14.5-19s6.492-19 14.5-19c11.008 0 14.5 8.507 14.5 19z" fill="#F1CB43"/><path fill-rule="evenodd" clip-rule="evenodd" d="M320.254 122.256c-3.373-1.947-7.446-2.995-11.254-2.995-11.598 0-21 10.628-21 23.739s9.402 23.739 21 23.739c3.784 0 7.829-1.227 11.188-3.264.23.901.283 1.525.283 1.525H324v-44h-3.529s-.043.502-.217 1.256zM324 143c0-10.493-3.492-19-14.5-19-8.008 0-14.5 8.507-14.5 19s6.492 19 14.5 19c11.008 0 14.5-8.507 14.5-19z" fill="#3660B3"/><path opacity=".5" d="M301 134.704c3-.204 9-2.704 9-2.704s6 2.5 9 2.704v17.037L310 156l-9-4.259v-17.037z" fill="#3660B3"/><path d="M319 138h-18v-3.296c2 0 9-2.704 9-2.704s6 2.5 9 2.704V138z" fill="#647B97"/><path fill="#93967B" d="M324 121h2v44h-2z"/></svg>