<?xml version="1.0" encoding="UTF-8"?><svg width="500" height="500" viewBox="0 0 500 500" fill="none" xmlns="http://www.w3.org/2000/svg"><path fill-rule="evenodd" clip-rule="evenodd" d="M203.003 109.223h93.644V21.928h-93.644v87.295z" fill="#60A5CB"/><path fill-rule="evenodd" clip-rule="evenodd" d="M202.864 32.228h93.458v-14.2h-93.458v14.2z" fill="#CF4343"/><path fill-rule="evenodd" clip-rule="evenodd" d="M87.5475 75.2585S46.7848 148.058 29 203.028c4.4449 13.375 45.2077 40.86 85.232 37.885 13.34-36.4 24.46-52 24.46-52s2.963-95.0845-51.1445-113.6545zm323.9255 0s40.763 72.7995 58.547 127.7695c-4.445 13.375-45.207 40.86-85.232 37.885-13.34-36.4-24.46-52-24.46-52s-2.963-95.0845 51.145-113.6545z" fill="#71C0EC"/><path fill-rule="evenodd" clip-rule="evenodd" d="M249.511 57.7025c-50.082 0-47.798-39.4691-48.742-39.14-7.516 2.6187-24.133 14.9368-52.439 25.495-31.873 11.885-52.6258 19.315-60.7824 31.2 11.1149 8.915 46.6944 28.9695 46.6944 120.3445v271.14s49.658 14.856 114.885 14.856c68.929 0 115.648-14.856 115.648-14.856v-271.14c0-91.375 35.58-111.4295 46.7-120.3445-8.157-11.885-28.91-19.315-60.783-31.2-28.36-10.5767-44.982-22.9195-52.478-25.5087-.927-.3203 4.178 39.1537-48.703 39.1537z" fill="#71C0EC"/><path fill-rule="evenodd" clip-rule="evenodd" d="M379.08 87.914l-244.84 377.36V357.699L330.117 56.9299c21.761 6.9769 38.406 18.0212 48.963 30.9841zm88.27 107.216c.936 2.666 1.828 5.303 2.668 7.899-4.445 13.375-45.208 40.86-85.232 37.885-.958-2.613-1.904-5.119-2.836-7.519 20.795-1.358 37.993-5.637 51.595-12.837 13.428-7.109 24.696-15.585 33.805-25.428zm-435.6953.04c9.1031 9.827 20.3606 18.291 33.7724 25.391 13.6109 7.206 30.8241 11.486 51.6389 12.841-.931 2.399-1.877 4.904-2.834 7.516-40.0243 2.975-80.7871-24.51-85.232-37.885.8363-2.584 1.7234-5.209 2.6547-7.863zM307.852 23.345C302.08 20.105 298.124 18 295.844 18c0 0 5.882 32.495-46.335 32.495-48.521 0-46.336-32.495-46.336-32.495-2.279 0-6.235 2.105-12.002 5.345 0 0 7.368 40.38 58.403 40.38 51.478 0 58.278-35.895 58.278-40.38z" fill="#DE4848"/><path fill-rule="evenodd" clip-rule="evenodd" d="M413.584 238.323c-9.287 2.238-19.064 3.316-28.798 2.592-8.197-22.369-15.557-36.883-20.012-44.748v270.577s-21.102 6.71-55.867 11.111l-.544-.06c1.881-54.795 5.722-166.47 8.277-240.705 2.055-59.755 31.084-95.29 60.099-117.44-2.676 6.781-5.072 14.606-7 23.667 7.354 11.852 24.436 42.069 43.831 94.964.005.014.01.028.014.042zM190.717 477.795c-34.248-4.401-56.477-11.051-56.477-11.051V196.172c-4.456 7.867-11.813 22.379-20.009 44.743-9.633.716-19.3091-.332-28.511-2.523a1.01 1.01 0 01.0199-.097c19.3771-52.848 36.3051-83.066 43.6101-94.944-1.929-9.075-4.328-16.912-7.007-23.701 29.015 22.15 58.044 57.685 60.099 117.44 2.555 74.235 6.396 185.91 8.277 240.705h-.002z" fill="#000" fill-opacity=".06"/><path d="M308.989 116h.022L326 125.865l-4.052 5.269c1.228 1.111 2.242 2.594 2.631 4.269.498 2.153-.037 3.886-.556 5.567-.357 1.157-.707 2.29-.707 3.517 0 1.514.396 2.761.83 4.132.609 1.92 1.294 4.082 1.076 7.556-.491 7.848-6.92 9.382-12.903 10.2-.046.007-.127.013-.235.021-.761.056-2.841.211-3.074 1.384l.001.22c0-.054-.004-.107-.011-.157-.007.05-.011.103-.011.157v-.22c-.232-1.173-2.312-1.328-3.073-1.384-.108-.008-.189-.014-.235-.021-5.983-.818-12.412-2.352-12.903-10.2-.218-3.474.467-5.636 1.076-7.556.434-1.371.83-2.618.83-4.132 0-1.227-.35-2.36-.707-3.517-.519-1.681-1.054-3.414-.556-5.567.388-1.675 1.403-3.158 2.631-4.269L292 125.865 308.989 116z" fill="#2D4980"/><path d="M308.99 125.531h.019l6.777 3.251-3.765 1.954v2.032h4.518v-2.032c2.258 0 5.647 2.439 6.4 5.69.446 1.926-.033 3.476-.498 4.981-.319 1.035-.632 2.048-.632 3.147 0 1.354.354 2.47.743 3.697.544 1.718 1.157 3.652.963 6.76-.44 7.022-6.193 8.394-11.546 9.127-.041.005-.114.011-.21.018-.68.051-2.542.189-2.75 1.239v.196c0-.048-.003-.095-.009-.14-.006.045-.01.092-.01.14v-.196c-.207-1.05-2.069-1.188-2.749-1.239-.097-.007-.17-.013-.21-.018-5.354-.733-11.106-2.105-11.546-9.127-.194-3.108.419-5.042.963-6.76.389-1.227.742-2.343.742-3.697 0-1.099-.312-2.112-.632-3.147-.464-1.505-.943-3.055-.497-4.981.753-3.251 4.141-5.69 6.4-5.69v2.032h4.518v-2.032l-3.765-1.954 6.776-3.251z" fill="#8ECCEF"/><path d="M309 118.671l.663 1.722 1.779.123-1.37 1.188.437 1.798-1.509-.988-1.509.988.437-1.798-1.37-1.188 1.779-.123.663-1.722zm-5.136 1.78l.662 1.723 1.78.123-1.37 1.187.437 1.799-1.509-.988-1.51.988.438-1.799-1.37-1.187 1.779-.123.663-1.723zm10.272 0l-.662 1.723-1.78.123 1.37 1.187-.437 1.799 1.509-.988 1.51.988-.438-1.799 1.37-1.187-1.779-.123-.663-1.723zm-15.407 2.671l.662 1.722 1.78.123-1.37 1.188.437 1.798-1.509-.988-1.51.988.437-1.798-1.37-1.188 1.78-.123.663-1.722zm20.542 0l-.662 1.722-1.78.123 1.37 1.188-.437 1.798 1.509-.988 1.51.988-.437-1.798 1.37-1.188-1.78-.123-.663-1.722z" fill="#C4C4C4"/><path d="M295.411 140.927c-.408-1.357-.749-2.779-.35-4.501.067-.287.154-.568.259-.841h27.36c.105.273.192.554.259.841.446 1.926-.033 3.476-.497 4.981-.251.812-.498 1.611-.592 2.448l-25.141 16.725c-1.127-1.174-1.912-2.752-2.164-4.901l22.176-14.752h-21.31z" fill="#D54343"/></svg>