<?xml version="1.0" encoding="UTF-8"?><svg width="500" height="500" viewBox="0 0 500 500" fill="none" xmlns="http://www.w3.org/2000/svg"><path fill-rule="evenodd" clip-rule="evenodd" d="M204.003 109.223h93.644V21.928h-93.644v87.295z" fill="#D9D9D9"/><path fill-rule="evenodd" clip-rule="evenodd" d="M203.864 32.228h93.458v-14.2h-93.458v14.2z" fill="#E0E0E0"/><path fill-rule="evenodd" clip-rule="evenodd" d="M88.5475 75.2585S47.7848 148.058 30 203.028c4.4449 13.375 45.2077 40.861 85.232 37.885 13.34-36.399 24.46-52 24.46-52s2.963-95.0845-51.1445-113.6545zm323.9255 0s40.763 72.7995 58.547 127.7695c-4.445 13.375-45.207 40.861-85.232 37.885-13.34-36.399-24.46-52-24.46-52s-2.963-95.0845 51.145-113.6545z" fill="#F2F2F2"/><path fill-rule="evenodd" clip-rule="evenodd" d="M250.511 57.7025c-50.082 0-47.798-39.4691-48.742-39.14-7.516 2.6187-24.133 14.9368-52.439 25.495-31.873 11.885-52.6258 19.315-60.7824 31.2 11.1149 8.915 46.6944 28.9705 46.6944 120.3455v271.14s49.658 14.855 114.885 14.855c68.929 0 115.648-14.855 115.648-14.855v-271.14c0-91.375 35.58-111.4305 46.7-120.3455-8.157-11.885-28.91-19.315-60.783-31.2-28.36-10.5767-44.982-22.9194-52.478-25.5087-.927-.3203 4.178 39.1537-48.703 39.1537z" fill="#F2F2F2"/><path fill-rule="evenodd" clip-rule="evenodd" d="M468.35 195.13c.936 2.667 1.828 5.303 2.668 7.9-4.445 13.375-45.208 40.86-85.232 37.885-.958-2.614-1.904-5.12-2.836-7.52 20.795-1.358 37.993-5.637 51.595-12.837 13.428-7.109 24.696-15.585 33.805-25.428zm-435.6953.04c9.1031 9.828 20.3606 18.291 33.7724 25.392 13.6109 7.205 30.8241 11.485 51.6389 12.84-.931 2.399-1.877 4.904-2.834 7.517-40.0243 2.975-80.7871-24.51-85.232-37.885.8363-2.585 1.7234-5.21 2.6547-7.864z" fill="#233061"/><path fill-rule="evenodd" clip-rule="evenodd" d="M250.593 171c38.564 0 77.131 2.054 115.702 6.161-.313 5.354-.491 10.998-.516 16.948l-.004 1.494v57.503c-38.386-4.071-76.703-6.106-114.95-6.106-38.529 0-77.057 2.066-115.584 6.197l.001-57.594c0-6.475-.179-12.591-.514-18.371 38.455-4.154 77.077-6.232 115.865-6.232z" fill="#2A3B76"/><path fill-rule="evenodd" clip-rule="evenodd" d="M308.852 23.345C303.08 20.105 299.124 18 296.844 18c0 0 5.882 32.495-46.335 32.495-48.521 0-46.336-32.495-46.336-32.495-2.279 0-6.235 2.105-12.002 5.345 0 0 7.368 40.38 58.403 40.38 51.478 0 58.278-35.895 58.278-40.38z" fill="#F2F2F2"/><path fill-rule="evenodd" clip-rule="evenodd" d="M414.584 238.323c-9.287 2.238-19.064 3.316-28.798 2.592-8.197-22.369-15.557-36.883-20.012-44.748v270.577s-21.102 6.71-55.867 11.111l-.544-.06c1.881-54.795 5.722-166.47 8.277-240.705 2.055-59.755 31.084-95.29 60.099-117.44-2.676 6.781-5.072 14.606-7 23.667 7.354 11.852 24.436 42.069 43.831 94.964.005.014.01.028.014.042zM191.717 477.795c-34.248-4.401-56.477-11.051-56.477-11.051V196.172c-4.456 7.867-11.813 22.379-20.009 44.743-9.633.716-19.3091-.332-28.511-2.523a1.01 1.01 0 01.0199-.097c19.3771-52.848 36.3051-83.066 43.6101-94.944-1.929-9.075-4.328-16.912-7.007-23.701 29.015 22.15 58.044 57.685 60.099 117.44 2.555 74.235 6.396 185.91 8.277 240.705h-.002z" fill="#000" fill-opacity=".06"/><circle cx="309" cy="142.672" r="17.3771" fill="#4AA46E"/><circle cx="309" cy="122.689" r="8.6885" fill="#CDC893"/><path d="M292.492 127.902l6.082-.869 2.606 6.082s4.543-.869 8.037-.869c3.495 0 8.037.869 8.037.869l2.607-6.082 5.647.869s-3.14 7.719-3.475 13.901c-.331 6.108 1.738 13.902 1.738 13.902s-6.085 2.372-9.123 4.779C311.802 162.738 309 167 309 167s-2.802-4.262-5.647-6.516c-3.039-2.407-9.123-4.779-9.123-4.779s2.068-7.794 1.737-13.902c-.335-6.182-3.475-13.901-3.475-13.901z" fill="#2A3B76"/><path d="M303.523 125.265c-.324-3.24 2.221-6.052 5.477-6.052 3.256 0 5.801 2.812 5.477 6.052l-.701 7.002c-.245 2.454-2.31 4.323-4.776 4.323-2.466 0-4.531-1.869-4.777-4.323l-.7-7.002z" fill="#2A3B76"/><path d="M294.23 129.091l3.704-.778 2.332 6.219s5.802-.777 8.929-.777c3.126 0 8.928.777 8.928.777l2.332-6.219 3.316.778s-2.81 7.683-3.11 13.215c-.296 5.465 1.555 12.439 1.555 12.439s-5.444 2.122-8.163 4.275c-2.546 2.018-5.053 5.831-5.053 5.831s-2.507-3.813-5.053-5.831c-2.718-2.153-8.162-4.275-8.162-4.275s1.851-6.974 1.554-12.439c-.3-5.532-3.109-13.215-3.109-13.215z" fill="#F2F2F2"/><path fill-rule="evenodd" clip-rule="evenodd" d="M309 154.836c4.798 0 8.688-3.89 8.688-8.688 0-4.799-3.89-8.689-8.688-8.689-4.799 0-8.689 3.89-8.689 8.689 0 4.798 3.89 8.688 8.689 8.688zm0-1.738c3.839 0 6.951-3.112 6.951-6.95 0-3.839-3.112-6.951-6.951-6.951-3.839 0-6.951 3.112-6.951 6.951 0 3.838 3.112 6.95 6.951 6.95z" fill="#2A3B76"/><path d="M315.445 148.754c.326-.805.506-1.685.506-2.606a6.93 6.93 0 00-.506-2.607h-12.891a6.949 6.949 0 00-.505 2.607c0 .921.18 1.801.505 2.606h12.891z" fill="#2A3B76"/><path fill-rule="evenodd" clip-rule="evenodd" d="M303.5 124.932c.004.111.012.222.023.333l.487 4.865 4.99 1.247 4.99-1.247.487-4.865c.011-.111.019-.222.023-.333l-5.5-1.375-5.5 1.375zm5.5 1.232l5.213 1.303-5.213 1.304-5.213-1.304 5.213-1.303z" fill="#F2F2F2"/></svg>