<?xml version="1.0" encoding="UTF-8"?><svg width="500" height="500" viewBox="0 0 500 500" fill="none" xmlns="http://www.w3.org/2000/svg"><path fill-rule="evenodd" clip-rule="evenodd" d="M203.003 109.223h93.643V21.9282h-93.643v87.2948z" fill="#D9D9D9"/><path fill-rule="evenodd" clip-rule="evenodd" d="M202.864 32.2278h93.458v-14.2h-93.458v14.2z" fill="#E0E0E0"/><path fill-rule="evenodd" clip-rule="evenodd" d="M87.5475 75.2583S46.7848 148.058 29 203.028c4.4449 13.375 45.2077 40.86 85.232 37.885 13.34-36.4 24.46-52 24.46-52s2.963-95.0847-51.1445-113.6547m323.9255 0s40.763 72.7997 58.547 127.7697c-4.445 13.375-45.207 40.86-85.232 37.885-13.34-36.4-24.46-52-24.46-52s-2.963-95.0847 51.145-113.6547" fill="#F2F2F2"/><path fill-rule="evenodd" clip-rule="evenodd" d="M249.511 57.7025c-50.082 0-47.798-39.4691-48.743-39.14-7.515 2.6187-24.132 14.9368-52.438 25.495-31.873 11.885-52.626 19.315-60.7825 31.2 11.1148 8.915 46.6945 28.9695 46.6945 120.3445v271.14s49.657 14.856 114.885 14.856c68.929 0 115.648-14.856 115.648-14.856v-271.14c0-91.375 35.58-111.4295 46.7-120.3445-8.157-11.885-28.91-19.315-60.783-31.2-28.36-10.5767-44.982-22.9195-52.478-25.5087-.927-.3203 4.177 39.1537-48.703 39.1537z" fill="#F2F2F2"/><path fill-rule="evenodd" clip-rule="evenodd" d="M360.543 75.187c3.094 6.7563 4.696 13.7935 4.696 20.8699V137.94L249.514 214l-115.751-76.309V96.0569c0-7.1418 1.631-14.2435 4.782-21.0569l110.956 73.813 111.042-73.626z" fill="#3254AB"/><path fill-rule="evenodd" clip-rule="evenodd" d="M307.852 23.345C302.08 20.105 298.124 18 295.844 18c0 0 5.882 32.495-46.335 32.495-48.521 0-46.336-32.495-46.336-32.495-2.279 0-6.235 2.105-12.002 5.345 0 0 7.368 40.38 58.403 40.38 51.478 0 58.278-35.895 58.278-40.38z" fill="#F2F2F2"/><path fill-rule="evenodd" clip-rule="evenodd" d="M413.584 238.323c-9.287 2.238-19.064 3.316-28.798 2.592-8.197-22.369-15.557-36.883-20.012-44.748v270.577s-21.102 6.71-55.867 11.111l-.544-.06c1.881-54.795 5.722-166.47 8.277-240.705 2.055-59.755 31.084-95.29 60.099-117.44-2.676 6.781-5.072 14.606-7 23.667 7.354 11.852 24.436 42.069 43.831 94.964.005.014.01.028.014.042zM190.717 477.795c-34.248-4.401-56.477-11.051-56.477-11.051V196.172c-4.456 7.867-11.813 22.379-20.009 44.743-9.633.716-19.3091-.332-28.511-2.524a1.056 1.056 0 01.0199-.096c19.3771-52.848 36.3051-83.066 43.6101-94.944-1.929-9.075-4.328-16.912-7.007-23.701 29.015 22.15 58.044 57.685 60.099 117.44 2.555 74.235 6.396 185.91 8.277 240.705h-.002z" fill="#000" fill-opacity=".1"/><path fill-rule="evenodd" clip-rule="evenodd" d="M290.352 128.024s8.445 2.559 11.26 0c2.815 2.559 12.198 2.559 15.013 0 2.815 2.559 11.26 0 11.26 0 1.706 28.619-16.032 35.374-18.767 37.533-2.959-2.159-20.472-8.914-18.766-37.533z" fill="#F2F2F2"/><path fill-rule="evenodd" clip-rule="evenodd" d="M292.253 129.924s6.64 2.3 9.17 0c2.53 2.3 12.861 2.3 15.391 0 2.529 2.3 9.17 0 9.17 0 1.533 25.721-14.408 31.792-16.866 33.732-2.659-1.94-18.399-8.011-16.865-33.732z" fill="#2D3D94"/><path fill-rule="evenodd" clip-rule="evenodd" d="M293.916 131.606s4.993 2.071 7.256 0c2.264 2.071 13.405 2.071 15.669.001 2.263 2.07 7.256-.001 7.256-.001 1.372 23.156-12.892 28.621-15.09 30.368-2.38-1.747-16.463-7.212-15.091-30.368z" fill="#D8DCEC"/><path d="M292.873 130.658l16.133 15.183 16.133-15.183v3.796l-16.133 15.183-16.133-15.183v-3.796z" fill="#2D3D94"/><path d="M309.006 120.219l.964 2.469 2.646.154-2.05 1.679.671 2.565-2.231-1.431-2.231 1.431.671-2.565-2.05-1.679 2.646-.154.964-2.469z" fill="#D5BA5A"/></svg>