<?xml version="1.0" encoding="UTF-8"?><svg width="500" height="500" viewBox="0 0 500 500" fill="none" xmlns="http://www.w3.org/2000/svg"><path fill-rule="evenodd" clip-rule="evenodd" d="M202.003 110.223h93.644V22.928h-93.644v87.295z" fill="#D9D9D9"/><path fill-rule="evenodd" clip-rule="evenodd" d="M201.864 33.228h93.458v-14.2h-93.458v14.2z" fill="#393939"/><path fill-rule="evenodd" clip-rule="evenodd" d="M86.5475 76.2585S45.7848 149.058 28 204.028c4.4449 13.375 45.2077 40.86 85.232 37.885 13.34-36.4 24.46-52 24.46-52s2.963-95.0845-51.1445-113.6545zm323.9255 0s40.763 72.7995 58.547 127.7695c-4.445 13.375-45.207 40.86-85.232 37.885-13.34-36.4-24.46-52-24.46-52s-2.963-95.0845 51.145-113.6545z" fill="#DC4040"/><path fill-rule="evenodd" clip-rule="evenodd" d="M248.511 58.7025c-50.082 0-47.798-39.4691-48.742-39.14-7.516 2.6187-24.133 14.9368-52.439 25.495-31.873 11.885-52.6258 19.315-60.7824 31.2 11.1149 8.915 46.6944 28.9695 46.6944 120.3445v271.14s49.658 14.856 114.885 14.856c68.929 0 115.648-14.856 115.648-14.856v-271.14c0-91.375 35.58-111.4295 46.7-120.3445-8.157-11.885-28.91-19.315-60.783-31.2-28.36-10.5767-44.982-22.9195-52.478-25.5087-.927-.3203 4.178 39.1537-48.703 39.1537z" fill="#DC4040"/><path fill-rule="evenodd" clip-rule="evenodd" d="M264.462 57.271c15.676-3.0936 23.748-10.7519 27.937-18.3667V480.549c-8.697.806-18.037 1.43-27.937 1.767V57.271zm58.867-23.8796c7.325 3.753 16.071 7.824 26.363 11.6624.528.1968 1.052.3922 1.574.5866V471.082c-6.829 1.636-16.283 3.656-27.937 5.545V33.3914zM233.532 482.349c-9.8-.326-19.156-.961-27.937-1.79V38.8041c4.477 7.6839 12.681 15.4345 27.937 18.5119v425.033zm-58.867-5.74c-11.439-1.846-20.935-3.816-27.936-5.43V45.2782l.601-.2244c10.751-4.01 19.815-8.2739 27.335-12.1638v443.719zM112.823 95.44c7.056 8.939 12.121 19.735 15.753 30.786L77.3779 237.38c-9.335-2.896-17.9963-6.863-25.3896-11.185L112.823 95.4399v.0001zm271.468 0v-.0001l60.834 130.7551c-7.391 4.321-16.049 8.286-25.38 11.182l-51.192-111.198c3.631-11.035 8.691-21.813 15.738-30.739z" fill="#F2F2F2"/><path fill-rule="evenodd" clip-rule="evenodd" d="M466.35 196.13c.936 2.667 1.828 5.303 2.668 7.9-4.445 13.375-45.208 40.86-85.232 37.885-.958-2.614-1.904-5.12-2.836-7.52 20.795-1.358 37.993-5.637 51.595-12.837 13.428-7.109 24.696-15.585 33.805-25.428zm-435.6953.04c9.1031 9.828 20.3606 18.291 33.7724 25.392 13.6109 7.205 30.8241 11.485 51.6389 12.84-.931 2.399-1.877 4.904-2.834 7.517-40.0243 2.975-80.7871-24.51-85.232-37.885.8363-2.585 1.7234-5.21 2.6547-7.864zM306.852 24.345C301.08 21.105 297.124 19 294.844 19c0 0 5.882 32.495-46.335 32.495-48.521 0-46.336-32.495-46.336-32.495-2.279 0-6.235 2.105-12.002 5.345 0 0 7.368 40.38 58.403 40.38 51.478 0 58.278-35.895 58.278-40.38z" fill="#3D3D3D"/><path fill-rule="evenodd" clip-rule="evenodd" d="M412.584 239.323c-9.287 2.238-19.064 3.316-28.798 2.592-8.197-22.369-15.557-36.883-20.012-44.748v270.577s-21.102 6.71-55.867 11.111l-.544-.06c1.881-54.795 5.722-166.47 8.277-240.705 2.055-59.755 31.084-95.29 60.099-117.44-2.676 6.781-5.072 14.606-7 23.667 7.354 11.852 24.436 42.069 43.831 94.964.005.014.01.028.014.042zM189.717 478.795c-34.248-4.401-56.477-11.051-56.477-11.051V197.172c-4.456 7.867-11.813 22.379-20.009 44.743-9.633.716-19.3091-.332-28.511-2.523.0051-.032.0117-.065.0199-.097 19.3771-52.848 36.3051-83.066 43.6101-94.944-1.929-9.075-4.328-16.912-7.007-23.701 29.015 22.15 58.044 57.685 60.099 117.44 2.555 74.235 6.396 185.91 8.277 240.705h-.002z" fill="#000" fill-opacity=".1"/><path fill-rule="evenodd" clip-rule="evenodd" d="M286.808 128.265h5.008l40.992 14-40.992 14h-5.008v-28z" fill="#652C2C"/><path d="M291.533 142.265h36.751l-36.751 12.445v-12.445z" fill="#F2F2F2"/><path d="M291.533 129.821l36.751 12.444h-36.751v-12.444zm-3.15 12.444h3.15v12.445h-3.15v-12.445z" fill="#C83232"/><path d="M288.383 129.821h3.15v12.444h-3.15v-12.444z" fill="#F2F2F2"/></svg>