<?xml version="1.0" encoding="UTF-8"?><svg width="500" height="500" viewBox="0 0 500 500" fill="none" xmlns="http://www.w3.org/2000/svg"><path fill-rule="evenodd" clip-rule="evenodd" d="M203.003 109.223h93.643V21.9282h-93.643v87.2948z" fill="#D9D9D9"/><path fill-rule="evenodd" clip-rule="evenodd" d="M202.864 32.2278h93.458v-14.2h-93.458v14.2z" fill="#CD3C3C"/><path fill-rule="evenodd" clip-rule="evenodd" d="M87.5475 75.2583S46.7848 148.058 29 203.028c4.4449 13.375 45.2077 40.86 85.232 37.885 13.34-36.4 24.46-52 24.46-52s2.963-95.0847-51.1445-113.6547m323.9255 0s40.763 72.7997 58.547 127.7697c-4.445 13.375-45.207 40.86-85.232 37.885-13.34-36.4-24.46-52-24.46-52s-2.963-95.0847 51.145-113.6547" fill="#E54040"/><path fill-rule="evenodd" clip-rule="evenodd" d="M249.511 57.7025c-50.082 0-47.798-39.4691-48.743-39.14-7.515 2.6187-24.132 14.9368-52.438 25.495-31.873 11.885-52.626 19.315-60.7825 31.2 11.1148 8.915 46.6945 28.9695 46.6945 120.3445v271.14s49.657 14.856 114.885 14.856c68.929 0 115.648-14.856 115.648-14.856v-271.14c0-91.375 35.58-111.4295 46.7-120.3445-8.157-11.885-28.91-19.315-60.783-31.2-28.36-10.5767-44.982-22.9195-52.478-25.5087-.927-.3203 4.177 39.1537-48.703 39.1537z" fill="#E54040"/><path d="M364.775 423.428L182.24 39c-7.751 4.2435-17.388 9.072-29.123 13.6009l-2.991 1.1532c-7.77 2.9945-14.82 5.7118-21.126 8.3048L325.199 475.488c24.954-4.096 39.576-8.746 39.576-8.746v-43.314z" fill="#F2F2F2"/><path fill-rule="evenodd" clip-rule="evenodd" d="M307.852 23.345C302.08 20.105 298.124 18 295.844 18c0 0 5.882 32.495-46.335 32.495-48.521 0-46.336-32.495-46.336-32.495-2.279 0-6.235 2.105-12.002 5.345 0 0 7.368 40.38 58.403 40.38 51.478 0 58.278-35.895 58.278-40.38z" fill="#E54040"/><path fill-rule="evenodd" clip-rule="evenodd" d="M413.584 238.323c-9.287 2.238-19.064 3.316-28.798 2.592-8.197-22.369-15.557-36.883-20.012-44.748v270.577s-21.102 6.71-55.867 11.111l-.544-.06c1.881-54.795 5.722-166.47 8.277-240.705 2.055-59.755 31.084-95.29 60.099-117.44-2.676 6.781-5.072 14.606-7 23.667 7.354 11.852 24.436 42.069 43.831 94.964.005.014.01.028.014.042zM190.717 477.795c-34.248-4.401-56.477-11.051-56.477-11.051V196.172c-4.456 7.867-11.813 22.379-20.009 44.743-9.633.716-19.3091-.332-28.511-2.524a1.056 1.056 0 01.0199-.096c19.3771-52.848 36.3051-83.066 43.6101-94.944-1.929-9.075-4.328-16.912-7.007-23.701 29.015 22.15 58.044 57.685 60.099 117.44 2.555 74.235 6.396 185.91 8.277 240.705h-.002z" fill="#000" fill-opacity=".1"/><circle cx="309" cy="143" r="23" fill="#4058AF"/><circle cx="309" cy="143" r="17" fill="#F2F2F2"/><path d="M297 137.531V151h21.139L297 137.531zm24 11.433V135h-21.915L321 148.964z" fill="#DA2727"/></svg>