<?xml version="1.0" encoding="UTF-8"?><svg width="500" height="500" viewBox="0 0 500 500" fill="none" xmlns="http://www.w3.org/2000/svg"><path fill-rule="evenodd" clip-rule="evenodd" d="M203.607 109.223h93.432V21.928h-93.432v87.295z" fill="#1A1A1A"/><path fill-rule="evenodd" clip-rule="evenodd" d="M203.468 32.228h93.248v-14.2h-93.248v14.2z" fill="#393939"/><path fill-rule="evenodd" clip-rule="evenodd" d="M411.473 75.2585s40.763 72.8005 58.547 127.7705c-4.445 13.375-45.207 40.86-85.232 37.885-13.34-36.4-24.46-52-24.46-52s-2.963-95.0855 51.145-113.6555z" fill="#C52E37"/><path fill-rule="evenodd" clip-rule="evenodd" d="M249.511 57.7025c-50.082 0-47.798-39.4691-48.742-39.14-7.516 2.6187-24.133 14.9368-52.439 25.495-31.873 11.885-52.6258 19.315-60.7824 31.2 11.1149 8.915 46.6944 28.9695 46.6944 120.3445v271.14s49.658 14.856 114.885 14.856c68.929 0 115.648-14.856 115.648-14.856v-271.14c0-91.375 35.58-111.4295 46.7-120.3445-8.157-11.885-28.91-19.315-60.783-31.2-28.36-10.5767-44.982-22.9195-52.478-25.5087-.927-.3203 4.178 39.1537-48.703 39.1537z" fill="#3D3D3D"/><path fill-rule="evenodd" clip-rule="evenodd" d="M250 57.7014V481.597h-.873c-65.227 0-114.885-14.855-114.885-14.855V196.17c-4.456 7.867-11.814 22.379-20.01 44.743-40.0243 2.975-80.7871-24.51-85.232-37.885 17.7848-54.97 58.5475-127.7695 58.5475-127.7695v-.001c8.1566-11.885 28.9095-19.315 60.7825-31.2 28.306-10.5582 44.923-22.8763 52.439-25.495.944-.3291-1.34 39.14 48.742 39.14.164 0 .327-.0004.489-.0011z" fill="#C52E37"/><path d="M87.5527 75.2618c.7731.6199 1.6643 1.2936 2.6536 2.0415C103.447 87.3129 134.242 110.593 134.242 195.602v.57c-4.456 7.867-11.814 22.379-20.01 44.743C74.2077 243.89 33.4449 216.405 29 203.03 46.7848 148.06 87.5475 75.26 87.5475 75.26l.0052.0018z" fill="#3D3D3D"/><path fill-rule="evenodd" clip-rule="evenodd" d="M31.6547 195.165c9.1031 9.828 20.3606 18.291 33.7724 25.392 13.6109 7.205 30.8241 11.485 51.6389 12.84-.931 2.399-1.877 4.904-2.834 7.517-40.0243 2.975-80.7871-24.51-85.232-37.885.8363-2.585 1.7234-5.21 2.6547-7.864z" fill="#C52E37"/><path fill-rule="evenodd" clip-rule="evenodd" d="M308.219 23.345C302.46 20.105 298.513 18 296.238 18c0 0 5.869 32.495-46.231 32.495-48.411 0-46.23-32.495-46.23-32.495-2.275 0-6.222 2.105-11.976 5.345 0 0 7.352 40.38 58.271 40.38 51.363 0 58.147-35.895 58.147-40.38z" fill="#3D3D3D"/><path fill-rule="evenodd" clip-rule="evenodd" d="M413.584 238.323c-9.287 2.238-19.064 3.316-28.797 2.592-8.198-22.369-15.558-36.883-20.013-44.748v270.577s-21.102 6.71-55.866 11.111l-.544-.06c1.88-54.795 5.722-166.47 8.276-240.705 2.055-59.755 31.085-95.29 60.099-117.44-2.675 6.781-5.072 14.606-6.999 23.667 7.354 11.852 24.435 42.069 43.83 94.964.005.014.01.028.014.042zM190.717 477.795c-34.248-4.401-56.476-11.051-56.476-11.051V196.172c-4.456 7.867-11.814 22.379-20.01 44.743-9.633.716-19.3089-.332-28.5108-2.523.0051-.032.0117-.065.0199-.097 19.3769-52.848 36.3059-83.066 43.6099-94.944-1.929-9.075-4.328-16.912-7.006-23.701 29.014 22.15 58.043 57.685 60.099 117.44 2.554 74.235 6.395 185.91 8.276 240.705h-.002z" fill="#000" fill-opacity=".1"/><path fill-rule="evenodd" clip-rule="evenodd" d="M321.432 121.676l.001-.001.99-.528 5.529 5.662.109.234c3.62 7.82 3.018 15.029-.53 21.345-3.502 6.234-9.812 11.494-17.446 15.722l-.007.004-1.085.593-.717-.387c-7.778-4.193-14.185-9.465-17.746-15.741-3.606-6.357-4.225-13.636-.594-21.533l.107-.234 5.507-5.667.993.53.001.001.004.002.034.018c.033.016.085.043.157.077.144.07.365.173.657.299.584.251 1.451.592 2.553.934 2.209.685 5.344 1.371 9.039 1.371 3.695 0 6.83-.686 9.038-1.371 1.103-.342 1.97-.683 2.554-.934.292-.126.513-.229.656-.299.072-.034.125-.061.158-.077l.033-.018.003-.001.002-.001z" fill="#252525"/><path fill-rule="evenodd" clip-rule="evenodd" d="M295.839 123s5.392 2.877 13.149 2.877c7.756 0 13.148-2.877 13.148-2.877l4.563 4.673c6.835 14.763-2.323 26.809-17.341 35.125l-.37.202c-15.297-8.246-24.548-20.408-17.69-35.327l4.541-4.673z" fill="#F2F2F2"/><path d="M309 132c-6.386 0-12.423-1.497-17.779-4.158-6.711 14.842 2.528 26.943 17.766 35.158l.013-.007V132z" fill="#C52E37"/><path d="M309 162.993V132c6.386 0 12.422-1.496 17.777-4.157 6.686 14.686-2.459 26.671-17.419 34.955l-.358.195z" fill="#4A4A4A"/></svg>