<?xml version="1.0" encoding="UTF-8"?><svg height="500" viewBox="0 0 500 500" width="500" xmlns="http://www.w3.org/2000/svg"><g fill="none" fill-rule="evenodd"><path d="m0 0h500v500h-500z"/><g transform="translate(29.003 17.998)"><path d="m174.003327 91.195h93.643138v-87.295h-93.643138z" fill="#8e1116"/><path d="m173.863643 14.2h93.458556v-14.2h-93.458556z" fill="#9f151a"/><g fill="#be272d"><path d="m58.5475395 57.262s-40.7627765 72.8-58.5475395 127.77c4.44494357 13.375 45.2077201 40.86 85.232167 37.885 13.3398195-36.4 24.459661-52 24.459661-52s2.963296-95.085-51.1442885-113.655"/><path d="m382.472677 57.262s40.762777 72.8 58.54754 127.77c-4.444944 13.375-45.20772 40.86-85.232167 37.885-13.33982-36.4-24.459662-52-24.459662-52s-2.963295-95.085 51.144289-113.655"/><path d="m220.511106 39.7076155c-50.081693 0-47.798103-39.46909131-48.742578-39.14001413-7.515856 2.61869932-24.132633 14.93680473-52.438505 25.49501413-31.8728898 11.885-52.6259372 19.315-60.7824835 31.2 11.1148533 8.915 46.6943565 28.97 46.6943565 120.3449995v271.14s49.657653 14.855 114.885079 14.855c68.929052 0 115.648352-14.855 115.648352-14.855v-271.14c0-91.3749995 35.579504-111.4299995 46.699346-120.3449995-8.156547-11.885-28.909594-19.315-60.782483-31.2-28.359862-10.5766915-44.981767-22.91944582-52.478053-25.5106155-.92727-.31834247 4.17733 39.1556155-48.703031 39.1556155z"/></g><path d="m39.7143907 92.8664548c10.6398298-21.0923053 18.8301488-35.7197491 18.8301488-35.7197491v-.001c8.1565463-11.885 28.9095937-19.315 60.7824835-31.2 19.112199-7.1289307 32.895357-15.0601956 42.146174-20.2663472 4.342039-2.39798904 7.672241-4.19130224 10.066958-5.02567759.257589-.08975.266596 2.7619416 1.159442 6.95729788-7.500656 3.01109971-23.328673 14.84459681-49.986236 25.13222691-30.8102933 11.885-50.8649208 19.315-58.7470879 31.2 0 0-7.812325 14.495-17.9444018 35.245z" fill="#f2f2f2"/><path d="m401.30079 92.8664548-6.307481 6.3217509c-10.132077-20.75-17.944402-35.245-17.944402-35.245-7.882167-11.885-27.936795-19.315-58.747088-31.2-18.705019-7.2186013-32.078093-15.1983128-40.983657-20.3571871-3.774292-2.1863966-6.746142-3.86612224-8.981354-4.76650453.892713-4.18589365.903643-7.03004708 1.16098-6.94038463.864267.30113079 1.862323.68933428 2.987773 1.17883024 8.599374 4.25180606 24.421326 14.84422812 49.202597 24.08774602 31.872889 11.885 52.625936 19.315 60.782483 31.2v.001s8.190319 14.6274438 18.830149 35.7197491z" fill="#f2f2f2"/><path d="m278.851614 5.3735c-5.771941-3.24-9.727991-5.345-12.007833-5.345 0 0 18.526326 36.495-46.335169 36.495-58.338014 0-46.33517-36.495-46.33517-36.495-2.279842 0-6.235891 2.105-12.002844 5.345 0 0 7.36833 40.38 58.402867 40.38 51.478533 0 58.278149-35.895 58.278149-40.38z" fill="#f2f2f2"/><path d="m265.867605 30.5767272-.268377-19.1864309c-3.289264 9.3711701-13.675136 21.1332037-45.090616 21.1332037-28.52221 0-39.522814-11.2289011-43.745598-20.4850717l-2.724935 15.6219481c8.495001 9.3497357 22.787722 18.0931236 46.535386 18.0931236 22.708108 0 36.722365-6.9846324 45.29414-15.1767728z" fill="#be272d"/><path d="m264.730214 19.262647c45.260077 11.3355446 71.50607 39.3367749 71.50607 67.9812312v72.9090678c-.301288 5.499186-.460957 11.30034-.460957 17.421554v271.14s-46.7193 14.855-115.648352 14.855c-65.227426 0-114.885079-14.855-114.885079-14.855v-271.14c0-6.26161-.167077-12.188309-.48191-17.799463v-72.5311588c0-28.8359913 26.598162-57.0201258 72.416526-68.2019932 5.59572 10.1262604 17.495549 20.632615 43.334594 20.632615 27.081446 0 38.954957-10.3529838 44.219108-20.411853z" fill="#be272d"/><path d="m180.730841 18.3939046c-2.280892.4996468-4.516572 1.0405103-6.706187 1.6207189-3.40019-4.7584395-6.046025-10.36008145-7.937504-16.80492587 3.689198-1.98171968 6.365316-3.18119763 8.086292-3.18119763 0 0-.645593 9.60092928 6.557399 18.3654046zm80.827432.2841314c7.061107-8.83976038 5.285508-18.649536 5.285508-18.649536 1.784958 0 4.597399 1.29032377 8.504359 3.40544779-1.877679 6.40690042-4.508796 11.97540891-7.89335 16.70552551-1.929643-.5182058-3.895336-1.00578-5.896517-1.4614299z" fill="#be272d"/></g><path d="m413.584262 238.322716c-9.287652 2.238227-19.064555 3.316093-28.797794 2.592625-8.197787-22.369075-15.557191-36.882961-20.012723-44.748481v270.577481s-21.102202 6.709715-55.866442 11.110324c-.181695-.019644-.363009-.039532-.543932-.059665 1.880745-54.795 5.722054-166.47 8.276275-240.705 2.05535-59.755 31.084673-95.29 60.099029-117.44-2.675385 6.780625-5.071498 14.606324-6.999205 23.667254 7.354 11.851464 24.435794 42.068696 43.830742 94.964134.00496.013823.009643.027599.01405.041328zm-222.867617 239.47254c-34.247876-4.401312-56.476331-11.050915-56.476331-11.050915v-270.572197c-4.455834 7.866735-11.813778 22.379131-20.009729 44.743197-9.632964.716014-19.3086964-.33238-28.510585-2.523818.0050945-.032025.0117169-.064272.0198871-.096743 19.3773569-52.847461 36.3054119-83.066075 43.6098449-94.943632-1.928939-9.07531-4.327692-16.91207-7.006412-23.701148 29.014357 22.15 58.04368 57.685 60.099029 117.44 2.554222 74.235 6.395531 185.91 8.276276 240.705256z" fill="#000" fill-opacity=".1"/><path d="m309 168c9.388841 0 17-7.63151 17-17.045455 0-3.327846 0-14.312695 0-32.954545h-34v32.954545c0 9.413945 7.611159 17.045455 17 17.045455z" fill="#000"/><circle cx="309" cy="152" fill="#fbe101" fill-opacity=".8" r="12"/><circle cx="309" cy="152" fill="#000" r="6"/><circle cx="309" cy="152" fill="#e30014" r="5"/><path d="m309 148c2.209139 0 3.5 1.790861 3.5 4 0 1.863565-.774398 3.429479-2.499239 3.873786l-.000761 8.089498-1 .036716-1-.036716.000243-8.089239c-1.72535-.443958-2.500243-2.010118-2.500243-3.874045 0-2.209139 1.290861-4 3.5-4z" fill="#fff"/><path d="m293 119h32v10h-32z" fill="#e30014"/></g></svg>