<?xml version="1.0" encoding="UTF-8"?><svg width="500" height="500" viewBox="0 0 500 500" fill="none" xmlns="http://www.w3.org/2000/svg"><path fill-rule="evenodd" clip-rule="evenodd" d="M203.003 109.223h93.643V21.928h-93.643v87.295z" fill="#D9D9D9"/><path fill-rule="evenodd" clip-rule="evenodd" d="M202.864 32.228h93.458v-14.2h-93.458v14.2z" fill="#164F37"/><path fill-rule="evenodd" clip-rule="evenodd" d="M87.5475 75.2585S46.7848 148.058 29 203.028c4.4449 13.375 45.2077 40.86 85.232 37.885 13.34-36.4 24.46-52 24.46-52s2.963-95.0845-51.1445-113.6545zm323.9255 0s40.763 72.7995 58.547 127.7695c-4.445 13.375-45.207 40.86-85.232 37.885-13.34-36.4-24.46-52-24.46-52s-2.963-95.0845 51.145-113.6545z" fill="#19593E"/><path fill-rule="evenodd" clip-rule="evenodd" d="M249.511 57.7025c-50.082 0-47.798-39.4691-48.743-39.14-7.515 2.6187-24.132 14.9368-52.438 25.495-31.873 11.885-52.626 19.315-60.7825 31.2 11.1148 8.915 46.6945 28.9695 46.6945 120.3445v271.14s49.657 14.856 114.885 14.856c68.929 0 115.648-14.856 115.648-14.856v-271.14c0-91.375 35.58-111.4295 46.7-120.3445-8.157-11.885-28.91-19.315-60.783-31.2-28.36-10.5767-44.982-22.9195-52.478-25.5087-.927-.3203 4.177 39.1537-48.703 39.1537z" fill="#19593E"/><path fill-rule="evenodd" clip-rule="evenodd" d="M277 52.6402c23.414-10.6276 20.497-34.3703 21.217-34.1231 6.598 2.2806 20.265 12.1155 42.783 21.6516V472.552c-15.28 3.13-37.264 6.654-64 8.207V52.6402zM223 480.791c-26.04-1.533-48.291-5.071-64-8.216V39.754c21.893-9.3858 35.254-18.9505 41.772-21.2213.731-.255-.474 23.3737 22.228 34.035V480.791z" fill="#F2F2F2"/><path fill-rule="evenodd" clip-rule="evenodd" d="M307.852 23.345C302.08 20.105 298.124 18 295.844 18c0 0 5.882 32.495-46.335 32.495-48.521 0-46.336-32.495-46.336-32.495-2.279 0-6.235 2.105-12.002 5.345 0 0 7.368 40.38 58.403 40.38 51.478 0 58.278-35.895 58.278-40.38z" fill="#19593E"/><path fill-rule="evenodd" clip-rule="evenodd" d="M413.584 238.323c-9.287 2.238-19.064 3.316-28.798 2.592-8.197-22.369-15.557-36.883-20.012-44.748v270.577s-21.102 6.71-55.867 11.111l-.544-.06c1.881-54.795 5.722-166.47 8.277-240.705 2.055-59.755 31.084-95.29 60.099-117.44-2.676 6.781-5.072 14.606-7 23.667 7.354 11.852 24.436 42.069 43.831 94.964.005.014.01.028.014.042zM190.717 477.795c-34.248-4.401-56.477-11.051-56.477-11.051V196.172c-4.456 7.867-11.813 22.379-20.009 44.743-9.633.716-19.3091-.332-28.511-2.523.0051-.032.0117-.065.0199-.097 19.3771-52.848 36.3051-83.066 43.6101-94.944-1.929-9.075-4.328-16.912-7.007-23.701 29.015 22.15 58.044 57.685 60.099 117.44 2.555 74.235 6.396 185.91 8.277 240.705h-.002z" fill="#000" fill-opacity=".1"/><path d="M290 122.359S301.493 120 309 120s19 2.359 19 2.359v24.769C328 157.154 310.982 166 309 166c-1.982 0-19-8.846-19-18.872v-24.769z" fill="#BDA759"/><path d="M292 124.154S302.283 122 309 122c6.717 0 17 2.154 17 2.154v22.615c0 9.154-15.226 17.231-17 17.231-1.774 0-17-8.077-17-17.231v-22.615z" fill="#F2F2F2"/><path d="M297 129.538S304.259 128 309 128s12 1.538 12 1.538v16.154c0 6.539-10.748 12.308-12 12.308-1.252 0-12-5.769-12-12.308v-16.154z" fill="#BDA759"/><path d="M298 130.436v15.077c0 3.808 3.836 7.072 7 9.187v-25.425c-3.553.417-7 1.161-7 1.161zm15-1.161V154.7c3.164-2.115 7-5.379 7-9.187v-15.077s-3.447-.744-7-1.161z" fill="#19593E"/><path d="M305 129.275v25.432s3 2.036 4 2.036 4-2.036 4-2.036v-25.432c-1.383-.162-2.782-.275-4-.275s-2.617.113-4 .275z" fill="#F2F2F2"/></svg>