<?xml version="1.0" encoding="UTF-8"?><svg height="500" viewBox="0 0 500 500" width="500" xmlns="http://www.w3.org/2000/svg"><g fill="none" fill-rule="evenodd"><path d="M0 0h500v500H0z"/><path d="M203.003 109.223h93.643V21.928h-93.643z" fill="#d9d9d9"/><path d="M202.864 32.228h93.458v-14.2h-93.458z" fill="#008544"/><path d="M87.548 75.258S46.785 148.058 29 203.029c4.445 13.376 45.208 40.86 85.232 37.886 13.34-36.4 24.46-52 24.46-52s2.963-95.085-51.144-113.655M411.473 75.258s40.762 72.8 58.547 127.77c-4.445 13.376-45.208 40.86-85.232 37.886-13.34-36.4-24.46-52-24.46-52s-2.963-95.085 51.145-113.655" fill="#f2f2f2"/><path d="M249.511 57.703c-50.082 0-47.798-39.47-48.742-39.14-7.516 2.618-24.133 14.936-52.439 25.495-31.873 11.885-52.626 19.315-60.782 31.2 11.114 8.915 46.694 28.97 46.694 120.345v271.14s49.658 14.855 114.885 14.855c68.929 0 115.648-14.855 115.648-14.855v-271.14c0-91.375 35.58-111.43 46.7-120.345-8.157-11.885-28.91-19.315-60.783-31.2-28.36-10.577-44.982-22.92-52.478-25.511-.927-.318 4.177 39.156-48.703 39.156z" fill="#f2f2f2"/><g fill="#009b4f"><path d="M111.173 98.42c45.82-6.28 91.931-9.42 138.336-9.42 46.123 0 92.262 3.102 138.416 9.305-7.33 10.493-14.449 25.53-18.813 47.658C329.028 141.32 289.16 139 249.509 139c-39.874 0-79.737 2.347-119.588 7.041-4.347-22.09-11.438-37.122-18.748-47.622zm23.069 102.106c38.22-4.35 76.642-6.526 115.267-6.526 38.412 0 76.834 2.151 115.266 6.454v50.015C326.152 246.156 287.73 244 249.51 244c-38.433 0-76.855 2.18-115.267 6.541zm0 105c38.22-4.35 76.642-6.526 115.267-6.526 38.412 0 76.834 2.151 115.266 6.454v50.015C326.152 351.156 287.73 349 249.51 349c-38.433 0-76.855 2.18-115.267 6.541zm0 105.004a1020.012 1020.012 0 0 1 115.35-6.53c38.386 0 76.78 2.15 115.183 6.452v50.017C326.152 456.156 287.73 454 249.51 454c-38.433 0-76.855 2.18-115.267 6.541zM467.353 195.129a338.826 338.826 0 0 1 2.667 7.9c-4.445 13.375-45.208 40.86-85.232 37.885a426.424 426.424 0 0 0-2.835-7.52c20.795-1.358 37.993-5.637 51.594-12.837 13.428-7.11 24.697-15.585 33.806-25.428zM31.655 195.165c9.103 9.828 20.36 18.291 33.772 25.392 13.611 7.205 30.824 11.485 51.64 12.84a426.42 426.42 0 0 0-2.835 7.517c-40.024 2.975-80.787-24.51-85.232-37.885.836-2.585 1.723-5.21 2.655-7.864zM307.852 23.345C302.08 20.105 298.124 18 295.844 18c0 0 5.881 32.495-46.335 32.495-48.52 0-46.336-32.495-46.336-32.495-2.28 0-6.235 2.105-12.002 5.345 0 0 7.368 40.38 58.402 40.38 51.479 0 58.279-35.895 58.279-40.38z"/></g><circle cx="309" cy="143" fill="#f2f2f2" r="22"/><circle cx="309" cy="143" fill="#009a2e" r="20"/><circle cx="309" cy="143" fill="#fff" r="16"/><g fill="#009a2e"><path d="M306.838 140.694c-.366-.592-3.082-2.939-4.135-5.646-.535-1.374.009-2.728 1.374-2.911 4.052-.544 2.754.707 4.815.707 2.062 0 .78-1.042 4.523-.707 1.528.137 2.2 1.853 1.528 3.322-.975 2.131-3.978 4.32-4.62 5.235 0 1.177.134 2.306-1.58 2.306s-1.77-.554-1.905-2.306z"/><path d="M311.158 141.338c.592-.366 2.938-3.082 5.646-4.135 1.374-.535 2.727.009 2.91 1.374.544 4.052-.706 2.754-.706 4.815 0 2.062 1.042.78.707 4.523-.137 1.528-1.854 2.2-3.322 1.528-2.132-.975-4.321-3.978-5.235-4.62-1.178 0-2.306.134-2.306-1.58s.553-1.77 2.306-1.905zM306.546 141.338c-.592-.366-2.94-3.082-5.646-4.135-1.375-.535-2.728.009-2.911 1.374-.544 4.052.706 2.754.706 4.815s-1.042.78-.706 4.523c.136 1.528 1.853 2.2 3.322 1.528 2.131-.975 4.32-3.978 5.235-4.62 1.177 0 2.306.134 2.306-1.58s-.554-1.77-2.306-1.905z"/><path d="M307.217 144.673c1.137 1.52 1.239 3.196.305 5.03-.935 1.834-2.009 3.289-3.223 4.363h4.043c1.485-4.616 1.976-7.914 1.473-9.892-.504-1.979-1.37-1.812-2.598.5z"/></g><path d="M413.584 238.323c-9.287 2.238-19.064 3.316-28.798 2.592-8.197-22.369-15.557-36.883-20.012-44.748v270.577s-21.102 6.71-55.867 11.11l-.544-.059c1.881-54.795 5.722-166.47 8.277-240.705 2.055-59.755 31.084-95.29 60.099-117.44-2.676 6.78-5.072 14.606-7 23.667 7.354 11.852 24.436 42.069 43.831 94.964l.014.042zM190.717 477.795c-34.248-4.401-56.477-11.05-56.477-11.05V196.171c-4.456 7.867-11.813 22.38-20.01 44.743-9.632.716-19.308-.332-28.51-2.523.005-.033.012-.065.02-.097 19.377-52.848 36.305-83.066 43.61-94.944-1.93-9.075-4.328-16.912-7.007-23.701 29.015 22.15 58.044 57.685 60.1 117.44 2.554 74.235 6.395 185.91 8.276 240.705z" fill="#000" fill-opacity=".08"/></g></svg>