<?xml version="1.0" encoding="UTF-8"?><svg height="500" viewBox="0 0 500 500" width="500" xmlns="http://www.w3.org/2000/svg"><g fill="none" fill-rule="evenodd"><path d="M203.006 109.193h93.643V21.898h-93.643z" fill="silver"/><path d="M202.867 32.198h93.458v-14.2h-93.458z" fill="#e3e3e3"/><g fill="#f2f2f2"><path d="M87.55 75.26s-40.762 72.8-58.547 127.77c4.445 13.375 45.208 40.86 85.232 37.885 13.34-36.4 24.46-52 24.46-52S141.658 93.83 87.55 75.26M411.476 75.26s40.762 72.8 58.547 127.77c-4.445 13.375-45.208 40.86-85.232 37.885-13.34-36.4-24.46-52-24.46-52S357.368 93.83 411.476 75.26"/><path d="M249.514 57.706c-50.082 0-47.798-39.47-48.742-39.14-7.516 2.618-24.133 14.936-52.439 25.495-31.873 11.885-52.626 19.315-60.782 31.2 11.114 8.915 46.694 28.97 46.694 120.345v271.14S183.903 481.6 249.13 481.6c68.929 0 115.648-14.855 115.648-14.855v-271.14c0-91.375 35.58-111.43 46.7-120.345-8.157-11.885-28.91-19.315-60.783-31.2-28.36-10.577-44.982-22.92-52.478-25.511-.927-.318 4.177 39.156-48.703 39.156z"/></g><path d="M265.462 56.275c15.676-3.094 23.748-10.752 27.937-18.367v441.644a478.696 478.696 0 0 1-27.937 1.768zm58.867-23.88c7.325 3.753 16.071 7.824 26.363 11.662l1.574.587v425.441c-6.829 1.637-16.283 3.657-27.937 5.546zm-89.797 448.958c-9.8-.327-19.156-.961-27.937-1.79V37.808c4.477 7.684 12.68 15.434 27.937 18.512zm-58.867-5.74c-11.44-1.847-20.935-3.817-27.937-5.43V44.282l.602-.224c10.75-4.01 19.815-8.274 27.335-12.164z" fill="#3d3d3d"/><path d="M249.576 63.752c51.479 0 58.279-35.895 58.279-40.38-5.772-3.24-9.728-5.345-12.008-5.345 0 0 5.881 32.495-46.335 32.495-48.52 0-46.336-32.495-46.336-32.495-2.28 0-6.235 2.105-12.002 5.345 0 0 7.368 40.38 58.402 40.38" fill="#f2f2f2"/><path d="M289 117h40v36.801a10 10 0 0 1-5.939 9.138L309 169.19l-14.061-6.25a10 10 0 0 1-5.939-9.138zm4 36.801a6 6 0 0 0 3.563 5.483L309 164.81l12.437-5.527A6 6 0 0 0 325 153.8V121h-32z" fill="#000" fill-rule="nonzero"/><path d="M291 119h36v34.801a8 8 0 0 1-4.75 7.31L309 167l-13.25-5.888A8 8 0 0 1 291 153.8z" fill="#fff"/><g fill="#000"><path d="M325 142.923v9.55a8 8 0 0 1-4.676 7.276l-.324.148v-16.966zm-9 18.802l-5 2.284v-21.064l5-.008zm-9 2.284l-5-2.284V142.96l5-.008zm-9-4.112l-.324-.148a8 8 0 0 1-4.676-7.277v-9.497l5-.008z"/><path d="M413.584 238.323c-9.287 2.238-19.064 3.316-28.798 2.592-8.197-22.369-15.557-36.883-20.012-44.748v270.577s-21.102 6.71-55.867 11.11l-.544-.059c1.881-54.795 5.722-166.47 8.277-240.705 2.055-59.755 31.084-95.29 60.099-117.44-2.676 6.78-5.072 14.606-7 23.667 7.354 11.852 24.436 42.069 43.831 94.964l.014.042zM190.717 477.795c-34.248-4.401-56.477-11.05-56.477-11.05V196.171c-4.456 7.867-11.813 22.38-20.01 44.743-9.632.716-19.308-.332-28.51-2.523.005-.033.012-.065.02-.097 19.377-52.848 36.305-83.066 43.61-94.944-1.93-9.075-4.328-16.912-7.007-23.701 29.015 22.15 58.044 57.685 60.1 117.44 2.554 74.235 6.395 185.91 8.276 240.705z" fill-opacity=".1"/></g></g></svg>