<?xml version="1.0" encoding="UTF-8"?><svg height="500" viewBox="0 0 500 500" width="500" xmlns="http://www.w3.org/2000/svg"><g fill="none" fill-rule="evenodd"><path d="M0 0h500v500H0z"/><path d="M203.003 109.223h93.643V21.928h-93.643z" fill="#18437c"/><path d="M202.864 32.228h93.458v-14.2h-93.458z" fill="#1a4b8b"/><g fill="#245eaa"><path d="M87.548 75.258S46.785 148.058 29 203.029c4.445 13.376 45.208 40.86 85.232 37.886 13.34-36.4 24.46-52 24.46-52s2.963-95.085-51.144-113.655M411.473 75.258s40.762 72.8 58.547 127.77c-4.445 13.376-45.208 40.86-85.232 37.886-13.34-36.4-24.46-52-24.46-52s-2.963-95.085 51.145-113.655"/><path d="M249.511 57.703c-50.082 0-47.798-39.47-48.742-39.14-7.516 2.618-24.133 14.936-52.439 25.495-31.873 11.885-52.626 19.315-60.782 31.2 11.114 8.915 46.694 28.97 46.694 120.345v271.14s49.658 14.855 114.885 14.855c68.929 0 115.648-14.855 115.648-14.855v-271.14c0-91.375 35.58-111.43 46.7-120.345-8.157-11.885-28.91-19.315-60.783-31.2-28.36-10.577-44.982-22.92-52.478-25.511-.927-.318 4.177 39.156-48.703 39.156z"/></g><path d="M470.02 203.029c-4.445 13.375-45.208 40.86-85.232 37.885a426.42 426.42 0 0 0-2.835-7.52c20.794-1.358 37.993-5.637 51.594-12.837 13.428-7.11 24.697-15.585 33.806-25.428a337.728 337.728 0 0 1 2.667 7.9zM65.427 220.557c13.611 7.205 30.824 11.485 51.64 12.84-.932 2.4-1.878 4.904-2.835 7.516-40.024 2.975-80.787-24.51-85.232-37.885a338.673 338.673 0 0 1 2.654-7.862c9.104 9.827 20.361 18.29 33.773 25.39zM307.852 23.345C302.08 20.105 298.124 18 295.844 18c0 0 5.881 32.495-46.335 32.495-48.52 0-46.336-32.495-46.336-32.495-2.28 0-6.235 2.105-12.002 5.345 0 0 7.368 40.38 58.402 40.38 51.479 0 58.279-35.895 58.279-40.38z" fill="#1e549b"/><circle cx="309" cy="143" fill="#0a4f9a" r="22"/><circle cx="309" cy="143" fill="#fff" r="19"/><circle cx="309" cy="143" fill="#0a4f9a" r="12"/><path d="M300.046 135c2.993-.667 5.985-1 8.977-1s5.985.333 8.977 1c-.005 8-3.005 14.667-9 20-5.97-5.333-8.954-12-8.954-20z" fill="#f20027"/><path d="M303 136.762c2-.508 4-.762 6-.762s4 .254 6 .762c-.004 6.095-2.009 11.175-6.015 15.238-3.99-4.063-5.985-9.143-5.985-15.238z" fill="#fff"/><path d="M413.584 238.323c-9.287 2.238-19.064 3.316-28.798 2.592-8.197-22.369-15.557-36.883-20.012-44.748v270.577s-21.102 6.71-55.867 11.11l-.544-.059c1.881-54.795 5.722-166.47 8.277-240.705 2.055-59.755 31.084-95.29 60.099-117.44-2.676 6.78-5.072 14.606-7 23.667 7.354 11.852 24.436 42.069 43.831 94.964l.014.042zM190.717 477.795c-34.248-4.401-56.477-11.05-56.477-11.05V196.171c-4.456 7.867-11.813 22.38-20.01 44.743-9.632.716-19.308-.332-28.51-2.523.005-.033.012-.065.02-.097 19.377-52.848 36.305-83.066 43.61-94.944-1.93-9.075-4.328-16.912-7.007-23.701 29.015 22.15 58.044 57.685 60.1 117.44 2.554 74.235 6.395 185.91 8.276 240.705z" fill="#000" fill-opacity=".1"/></g></svg>