<?xml version="1.0" encoding="UTF-8"?><svg height="500" viewBox="0 0 500 500" width="500" xmlns="http://www.w3.org/2000/svg"><g fill="none" fill-rule="evenodd"><path d="M0 0h500v500H0z"/><path d="M203.003 109.223h93.643V21.928h-93.643z" fill="#d9d9d9"/><path d="M202.864 32.228h93.458v-14.2h-93.458z" fill="#e0e0e0"/><g fill="#1041aa"><path d="M87.548 75.258S46.785 148.058 29 203.029c4.445 13.376 45.208 40.86 85.232 37.886 13.34-36.4 24.46-52 24.46-52s2.963-95.085-51.144-113.655M411.473 75.258s40.762 72.8 58.547 127.77c-4.445 13.376-45.208 40.86-85.232 37.886-13.34-36.4-24.46-52-24.46-52s-2.963-95.085 51.145-113.655"/><path d="M249.511 57.703c-50.082 0-47.798-39.47-48.742-39.14-7.516 2.618-24.133 14.936-52.439 25.495-31.873 11.885-52.626 19.315-60.782 31.2 11.114 8.915 46.694 28.97 46.694 120.345v271.14s49.658 14.855 114.885 14.855c68.929 0 115.648-14.855 115.648-14.855v-271.14c0-91.375 35.58-111.43 46.7-120.345-8.157-11.885-28.91-19.315-60.783-31.2-28.36-10.577-44.982-22.92-52.478-25.511-.927-.318 4.177 39.156-48.703 39.156z"/></g><path d="M61.087 229.516C43.88 221.14 31.353 210.108 29 203.03c1.74-5.38 3.701-10.93 5.822-16.567 7.01 11.834 17.903 21.799 32.676 29.895l-6.411 13.16zM437.897 229.512l-6.41-13.16c14.773-8.096 25.665-18.061 32.675-29.895 2.121 5.637 4.082 11.187 5.822 16.567-2.352 7.08-14.88 18.111-32.087 26.488zM307.852 23.345C302.08 20.105 298.124 18 295.844 18c0 0 5.881 32.495-46.335 32.495-48.52 0-46.336-32.495-46.336-32.495-2.28 0-6.235 2.105-12.002 5.345 0 0 7.368 40.38 58.402 40.38 51.479 0 58.279-35.895 58.279-40.38z" fill="#f2f2f2"/><g fill="#fff" transform="translate(282.212 121.992)"><path d="M21.696 34.633c3.481-2.72 2.858-9.335-1.392-14.775s-10.518-7.645-14-4.925-2.858 9.335 1.392 14.775c1.477 1.891-1.36-6.28 2.265-8.982 3.494-2.605 8.269 1.052 10.343 5.67.906 2.017.945 5.374-2.297 6.363-.954.291.869 3.94 3.689 1.874zM32.092 34.633c-3.481-2.72-2.858-9.335 1.392-14.775s10.518-7.645 14-4.925 2.858 9.335-1.392 14.775c-1.477 1.891 1.36-6.28-2.265-8.982-3.494-2.605-8.269 1.052-10.343 5.67-.906 2.017-.945 5.374 2.297 6.363.954.291-.869 3.94-3.689 1.874z"/><path d="M26.788 0c1.585 3.535 7.939 9.132 6.889 12.382-.935 2.894-4.9 11.942-4.9 18.494 0 .563 2.084 3.905 2.084 5.132s-3.92 5.447-4.073 5.447c-.153-.003-4-4.22-4-5.447s2.084-4.569 2.084-5.132c0-6.552-3.964-15.6-4.9-18.494-1.05-3.25 5.232-8.847 6.816-12.382z"/><rect height="4" rx="2" width="16" x="18.788" y="27.008"/></g><path d="M413.584 238.323c-9.287 2.238-19.064 3.316-28.798 2.592-8.197-22.369-15.557-36.883-20.012-44.748v270.577s-21.102 6.71-55.867 11.11l-.544-.059c1.881-54.795 5.722-166.47 8.277-240.705 2.055-59.755 31.084-95.29 60.099-117.44-2.676 6.78-5.072 14.606-7 23.667 7.354 11.852 24.436 42.069 43.831 94.964l.014.042zM190.717 477.795c-34.248-4.401-56.477-11.05-56.477-11.05V196.171c-4.456 7.867-11.813 22.38-20.01 44.743-9.632.716-19.308-.332-28.51-2.523.005-.033.012-.065.02-.097 19.377-52.848 36.305-83.066 43.61-94.944-1.93-9.075-4.328-16.912-7.007-23.701 29.015 22.15 58.044 57.685 60.1 117.44 2.554 74.235 6.395 185.91 8.276 240.705z" fill="#000" fill-opacity=".1"/></g></svg>