<svg xmlns="http://www.w3.org/2000/svg" width="501" height="501" fill="none"><path fill="#560613" fill-rule="evenodd" d="M203.53 110.1h93.65V22.8h-93.65v87.3Z" clip-rule="evenodd"/><path fill="#030B3D" fill-rule="evenodd" d="M203.4 33.1h93.46V18.9H203.4v14.2Z" clip-rule="evenodd"/><path fill="#81091C" fill-rule="evenodd" d="M88.08 76.16s-40.77 72.8-58.55 127.77c4.44 13.38 45.2 40.86 85.23 37.89 13.34-36.4 24.46-52 24.46-52s2.96-95.1-51.14-113.66Zm323.92 0s40.76 72.8 58.55 127.77c-4.44 13.38-45.2 40.86-85.23 37.89-13.34-36.4-24.46-52-24.46-52S357.9 94.72 412 76.16Z" clip-rule="evenodd"/><path fill="#001CF6" fill-rule="evenodd" d="M250.04 58.6c-50.08 0-47.8-39.46-48.74-39.14-7.52 2.62-24.13 14.94-52.44 25.5C117 56.84 96.24 64.27 88.08 76.16c11.11 8.91 46.7 28.97 46.7 120.34v271.14s49.65 14.86 114.88 14.86c68.93 0 115.65-14.86 115.65-14.86V196.51c0-91.38 35.58-111.44 46.7-120.35-8.16-11.89-28.91-19.32-60.78-31.2-28.37-10.58-44.99-22.92-52.48-25.5-.93-.33 4.17 39.14-48.7 39.14Z" clip-rule="evenodd"/><path fill="#81091C" fill-rule="evenodd" d="M294.26 38.16c45.26 11.34 71.5 39.34 71.5 67.98v72.91c-.3 5.5-.45 11.3-.45 17.42v271.14s-46.72 14.86-115.65 14.86c-65.23 0-114.88-14.86-114.88-14.86V196.47c0-6.26-.17-12.19-.49-17.8v-72.53c0-28.83 26.6-57.02 72.42-68.2 5.6 10.13 17.5 20.63 43.33 20.63 27.09 0 38.96-10.35 44.22-20.41Z" clip-rule="evenodd"/><path fill="#F1F1F1" fill-rule="evenodd" d="m202.18 27.68 1.72 3.21c-9 5.06-23.4 13.97-44.26 21.9-29.8 11.3-49.7 18.58-58.46 29.5a49.92 49.92 0 0 0-3.38-1.91c8.5-11.24 28.58-18.57 58.9-30.08 19.26-7.31 33.01-15.47 42.1-20.66l-.01-.05c1.2-.7 2.34-1.34 3.39-1.91ZM91.1 77.5c8.01-11.89 28.4-19.32 59.71-31.2 19.26-7.31 33-15.47 42.1-20.66l-.01-.05.02-.02 1.73 3.23c-9.08 5.2-22.47 12.98-40.9 19.98-30.4 11.54-50.5 18.88-58.98 30.17a47.45 47.45 0 0 0-3.67-1.45Zm207.93-49.4 2.61 1.49v.05c9.08 5.19 22.83 13.35 42.09 20.66 30.32 11.5 50.4 18.84 58.91 30.08-1.16.6-2.29 1.24-3.39 1.91-8.75-10.92-28.66-18.2-58.46-29.5-19.87-7.55-33.87-16-42.94-21.15l-.4-.23 1.58-3.3Zm8.45-2.54.04.03v.05c9.08 5.19 22.83 13.35 42.1 20.66 30.99 11.76 51.28 19.16 59.46 30.85l.24.35c-1.25.44-2.48.92-3.68 1.45-8.47-11.3-28.57-18.63-58.97-30.17-17.93-6.8-31.1-14.35-40.15-19.55l-.45-.26 1.4-3.41Z" clip-rule="evenodd"/><path fill="#001CF6" fill-rule="evenodd" d="M250.1 64.65c51.48 0 58.28-35.9 58.28-40.38-5.77-3.24-9.72-5.34-12-5.34 0 0 5.88 32.5-46.34 32.5-48.52 0-46.33-32.5-46.33-32.5-2.28 0-6.24 2.1-12 5.34 0 0 7.36 40.38 58.4 40.38Z" clip-rule="evenodd"/><path fill="#001CF6" fill-rule="evenodd" d="M200.67 43.07c3.4-1.76 6.88-3.36 10.47-4.76 6.27 6.95 17.78 13.11 38.9 13.11 22.55 0 34.27-6.06 40.3-12.95 3.58 1.43 7.07 3.03 10.45 4.82-7.58 10.51-22.38 21.36-50.68 21.36-26.7 0-41.44-11.04-49.44-21.58Z" clip-rule="evenodd"/><path fill="#000" fill-opacity=".1" fill-rule="evenodd" d="M413.97 239.22a93.76 93.76 0 0 1-28.8 2.6c-8.2-22.37-15.55-36.89-20-44.75v270.57s-21.11 6.71-55.88 11.11l-.54-.06 8.28-240.7c2.05-59.75 31.08-95.29 60.1-117.44a148.66 148.66 0 0 0-7 23.67c7.35 11.85 24.43 42.07 43.83 94.96l.01.04ZM191.1 478.7c-34.24-4.4-56.47-11.05-56.47-11.05V197.07c-4.46 7.87-11.82 22.38-20.01 44.75a93.6 93.6 0 0 1-28.51-2.53c0-.03 0-.06.02-.1 19.38-52.84 36.3-83.06 43.6-94.94a148.74 148.74 0 0 0-7-23.7c29.02 22.15 58.04 57.69 60.1 117.44l8.28 240.7Z" clip-rule="evenodd"/><path fill="#F2F2F2" fill-rule="evenodd" d="M309.75 167.87a22 22 0 1 0 0-44 22 22 0 0 0 0 44Z" clip-rule="evenodd"/><path fill="#81091C" fill-rule="evenodd" d="M309.75 166a20.14 20.14 0 1 0 0-40.27 20.14 20.14 0 0 0 0 40.27Z" clip-rule="evenodd"/><path fill="#F2F2F2" fill-rule="evenodd" d="M309.75 161.93a16.06 16.06 0 1 0 0-32.13 16.06 16.06 0 0 0 0 32.13Z" clip-rule="evenodd"/><path fill="#81091C" fill-rule="evenodd" d="M309.76 159.52a13.65 13.65 0 1 0 0-27.3 13.65 13.65 0 0 0 0 27.3Z" clip-rule="evenodd"/><path fill="#F8CE45" d="m309.75 108.13 1.4 4.29h4.51l-3.65 2.65 1.4 4.3-3.66-2.66-3.65 2.65 1.4-4.29-3.65-2.65h4.5l1.4-4.3Z"/></svg>