<?xml version="1.0" encoding="UTF-8"?><svg height="500" viewBox="0 0 500 500" width="500" xmlns="http://www.w3.org/2000/svg"><g fill="none" fill-rule="evenodd"><path d="M0 0h500v500H0z"/><path d="M203.003 109.223h93.643V21.928h-93.643z" fill="#702b34"/><path d="M202.864 32.228h93.458v-14.2h-93.458z" fill="#d9d9d9"/><path d="M87.548 75.258S46.785 148.058 29 203.029c4.445 13.376 45.208 40.86 85.232 37.886 13.34-36.4 24.46-52 24.46-52s2.963-95.085-51.144-113.655M411.473 75.258s40.762 72.8 58.547 127.77c-4.445 13.376-45.208 40.86-85.232 37.886-13.34-36.4-24.46-52-24.46-52s-2.963-95.085 51.145-113.655" fill="#993b47"/><path d="M249.511 57.703c-50.082 0-47.798-39.47-48.742-39.14-7.516 2.618-24.133 14.936-52.439 25.495-31.873 11.885-52.626 19.315-60.782 31.2 11.114 8.915 46.694 28.97 46.694 120.345v271.14s49.658 14.855 114.885 14.855c68.929 0 115.648-14.855 115.648-14.855v-271.14c0-91.375 35.58-111.43 46.7-120.345-8.157-11.885-28.91-19.315-60.783-31.2-28.36-10.577-44.982-22.92-52.478-25.511-.927-.318 4.177 39.156-48.703 39.156z" fill="#993b47"/><g fill="#f2f2f2"><path d="M467.461 195.302a338.826 338.826 0 0 1 2.668 7.9c-4.445 13.375-45.208 40.86-85.232 37.885a426.405 426.405 0 0 0-2.836-7.52c20.795-1.358 37.993-5.637 51.595-12.837 13.428-7.11 24.696-15.585 33.805-25.428zM31.655 195.302c9.103 9.828 20.36 18.291 33.772 25.392 13.611 7.205 30.824 11.485 51.64 12.84a426.42 426.42 0 0 0-2.835 7.516C74.208 244.025 33.445 216.54 29 203.165c.836-2.584 1.723-5.209 2.655-7.863zM174.404 32.4c6.756-3.393 12.314-6.526 16.77-9.028l2.137 6.63c-8.9 5.143-22.457 13.326-41.595 20.711-28.211 10.883-47.405 18.03-56.493 28.283l-7.61-3.976c8.202-11.83 28.93-19.251 60.717-31.104 10.156-3.789 18.808-7.803 26.074-11.516zM324.506 32.344c7.29 3.728 15.977 7.764 26.185 11.572C382.48 55.769 403.207 63.19 411.41 75.02l-7.494 4.107c-9.04-10.324-28.278-17.486-56.61-28.415-18.71-7.22-32.085-15.202-40.991-20.361l1.54-6.98c4.433 2.488 9.949 5.6 16.652 8.972z"/><path d="M307.852 23.345C302.08 20.105 298.124 18 295.844 18c0 0 5.881 32.495-46.335 32.495-48.52 0-46.336-32.495-46.336-32.495-2.28 0-6.235 2.105-12.002 5.345 0 0 7.368 40.38 58.402 40.38 51.479 0 58.279-35.895 58.279-40.38z"/></g><path d="M413.584 238.323c-9.287 2.238-19.064 3.316-28.798 2.592-8.197-22.369-15.557-36.883-20.012-44.748v270.577s-21.102 6.71-55.867 11.11l-.544-.059c1.881-54.795 5.722-166.47 8.277-240.705 2.055-59.755 31.084-95.29 60.099-117.44-2.676 6.78-5.072 14.606-7 23.667 7.354 11.852 24.436 42.069 43.831 94.964l.014.042zM190.717 477.795c-34.248-4.401-56.477-11.05-56.477-11.05V196.171c-4.456 7.867-11.813 22.38-20.01 44.743-9.632.716-19.308-.332-28.51-2.523.005-.033.012-.065.02-.097 19.377-52.848 36.305-83.066 43.61-94.944-1.93-9.075-4.328-16.912-7.007-23.701 29.015 22.15 58.044 57.685 60.1 117.44 2.554 74.235 6.395 185.91 8.276 240.705z" fill="#000" fill-opacity=".1"/><path d="M294.711 122.617l.157-.505.505-.155C299.618 120.652 304.162 120 309 120s9.382.652 13.627 1.957l.495.152.162.493c1.81 5.525 2.716 11.37 2.716 17.528 0 6.184-1.227 12.367-3.678 18.543l-.162.409-.411.157c-4.92 1.879-8.964 4.064-12.132 6.548l-.617.484-.617-.484c-3.168-2.484-7.212-4.67-12.132-6.548l-.42-.16-.159-.422C293.226 152.175 292 146 292 140.13c0-5.843.904-11.682 2.711-17.513z" fill="#fff" fill-rule="nonzero"/><path d="M295.667 122.913C299.815 121.638 304.259 121 309 121s9.185.638 13.333 1.913c1.778 5.423 2.667 11.162 2.667 17.217s-1.203 12.113-3.608 18.174c-5.009 1.913-9.14 4.145-12.392 6.696-3.253-2.55-7.383-4.783-12.392-6.696-2.405-6.373-3.608-12.431-3.608-18.174 0-5.742.889-11.48 2.667-17.217z" fill="#2c2c2c"/><path d="M296.5 123.826c3.889-1.217 8.056-1.826 12.5-1.826s8.611.609 12.5 1.826c1.667 5.177 2.5 10.655 2.5 16.435 0 5.78-1.127 11.562-3.382 17.348-4.696 1.16-8.569 2.956-11.618 5.391-3.05-2.435-6.922-4.232-11.618-5.391-2.255-6.084-3.382-11.867-3.382-17.348 0-5.481.833-10.96 2.5-16.435z" fill="#97263e"/><path d="M319.365 123.226l.587.151.103.398c1.297 5.175 1.945 10.634 1.945 16.377 0 5.564-1.666 11.131-4.998 16.7L317 156h-1.66c2.773-5.285 4.66-10.568 4.66-15.848 0-5.926-.34-11.8-1.498-17.131.312.07.6.14.863.205zm-19.532-.31A82.588 82.588 0 0 0 298 140.151c0 5.04 1.902 10.322 4.71 15.848h-2.151c-3.04-5.526-4.559-10.809-4.559-15.848 0-5.595.684-11.186 2.052-16.775.586-.157 1.177-.3 1.774-.429z" fill="#fff"/><path d="M315 149l3.803 7.818c-4.33 1.162-6.932 1.89-9.803 4.182-2.871-2.293-5.473-3.02-9.804-4.182L303 149z" fill="#e0c7cc"/><path d="M309 153c-1.595-1.783-3.072-2.62-5.105-3.45a1 1 0 1 1-1.244-.488l-.651-.244v-3.88l2.32-2.51A1.5 1.5 0 0 1 305.5 140h7a1.5 1.5 0 0 1 1.18 2.426l2.32 2.51v3.881l-.651.246a1 1 0 1 1-1.242.486c-2.034.83-3.512 1.667-5.107 3.45z" fill="#2c2c2c"/><circle cx="309" cy="124" fill="#2c2c2c" r="3"/><circle cx="309" cy="124" fill="#fff" r="2"/><path d="M309 143a9 9 0 1 0 0-18 9 9 0 0 0 0 18z" fill="#2c2c2c" fill-rule="nonzero"/><circle cx="309" cy="134" fill="#fff" r="8"/><path d="M309 140a6 6 0 1 0 0-12 6 6 0 0 0 0 12z" fill="#2c2c2c" fill-rule="nonzero"/><circle cx="309" cy="134" fill="#fff" r="5"/><path d="M309 136c1.44 0 2.879.173 4.318.518a4.998 4.998 0 0 1-8.637.002A18.35 18.35 0 0 1 309 136z" fill="#97263e"/></g></svg>