<svg xmlns="http://www.w3.org/2000/svg" width="500" height="500" fill="none" viewBox="0 0 500 500"><g clip-path="url(#clip0_6058_450)"><path fill="#DABC20" fill-rule="evenodd" d="M203.09 109.2h93.64V21.9h-93.64v87.3Z" clip-rule="evenodd"/><path fill="#B60303" fill-rule="evenodd" d="M202.95 32.2h93.45V18h-93.45v14.2Z" clip-rule="evenodd"/><path fill="#F7DA41" fill-rule="evenodd" d="M87.55 75.26S46.78 148.06 29 203.03c4.44 13.38 45.2 40.86 85.23 37.88 13.34-36.4 24.46-52 24.46-52s2.97-95.08-51.14-113.65M411.47 75.26s40.77 72.8 58.55 127.77c-4.44 13.38-45.2 40.86-85.23 37.88-13.34-36.4-24.46-52-24.46-52s-2.96-95.08 51.14-113.65" clip-rule="evenodd"/><path fill="#F7DA41" fill-rule="evenodd" d="M249.51 57.7c-50.08 0-47.8-39.46-48.74-39.13-7.52 2.61-24.13 14.93-52.44 25.5-31.87 11.88-52.62 19.3-60.78 31.2 11.11 8.9 46.7 28.96 46.7 120.34v271.14s49.65 14.85 114.88 14.85c68.93 0 115.65-14.85 115.65-14.85V195.6c0-91.38 35.58-111.43 46.7-120.35-8.16-11.88-28.91-19.31-60.79-31.2-28.36-10.58-44.98-22.92-52.47-25.5-.93-.33 4.17 39.15-48.7 39.15Z" clip-rule="evenodd"/><path fill="#D9292D" fill-rule="evenodd" d="M470.13 203.2c-4.45 13.38-45.2 40.86-85.23 37.89a413.1 413.1 0 0 0-2.84-7.52c20.8-1.36 38-5.64 51.6-12.84 13.42-7.1 24.7-15.58 33.8-25.43.94 2.67 1.83 5.3 2.67 7.9ZM65.43 220.7c13.6 7.2 30.82 11.48 51.64 12.83-.93 2.4-1.88 4.9-2.84 7.52-40.02 2.98-80.79-24.5-85.23-37.88.84-2.59 1.72-5.21 2.65-7.87 9.1 9.83 20.37 18.3 33.78 25.4ZM317.8 45.59a139.62 139.62 0 0 0-24.07-8.33c-1.3 2.49-3 5-5.24 7.35 9.92.28 19.89.62 29.3.98Zm-87.77 9.6c5.4 1.56 11.83 2.48 19.48 2.48 8.08 0 14.8-.92 20.4-2.48 22.93.4 48.36 1.36 67.98 2.22a83.61 83.61 0 0 1 11.62 10.52C324.1 66.75 281.26 65 250 65c-31.7 0-75.27 1.8-100.56 2.98a83.55 83.55 0 0 1 11.61-10.52c19.74-.87 45.66-1.86 68.98-2.27Zm-18.28-10.58a35.91 35.91 0 0 1-5.57-7.57 140.16 140.16 0 0 0-25.06 8.59c9.8-.38 20.25-.74 30.63-1.02Zm-75.37 45a56.22 56.22 0 0 1 4.66-10.22C163.9 78.26 214.43 76 250 76c35.05 0 84.62 2.2 107.93 3.34a56.21 56.21 0 0 1 4.68 10.23C341.96 88.53 287.6 86 250 86c-38.25 0-93.8 2.62-113.62 3.62Zm-2.62 21.14v-5.5c0-1.51.08-3.01.22-4.51C151.3 99.85 210.08 97 250 97c39.18 0 96.53 2.75 115.02 3.69.15 1.51.22 3.03.22 4.55v5.46c-18.25-.93-75.9-3.7-115.24-3.7-40.09 0-99.19 2.88-116.24 3.75Zm.37 76.12c-.08-3.12-.2-6.15-.37-9.1v-.9c17.05-.43 76.15-1.87 116.24-1.87 39.34 0 96.99 1.38 115.24 1.85v1.3c-.16 2.82-.27 5.71-.35 8.7-18.63-.48-75.8-1.85-114.89-1.85-39.8 0-98.35 1.42-115.87 1.87Zm.12 19v-10C151.9 195.4 210.28 194 250 194c39.01 0 96.04 1.36 114.78 1.84v10C346.04 205.36 289.02 204 250 204c-39.72 0-98.1 1.41-115.75 1.86Zm0 19v-10C151.9 214.4 210.28 213 250 213c39.01 0 96.04 1.36 114.78 1.84v10C346.04 224.36 289.02 223 250 223c-39.72 0-98.1 1.41-115.75 1.86Zm0 19v-10C151.9 233.4 210.28 232 250 232c39.01 0 96.04 1.36 114.78 1.84v10C346.04 243.36 289.02 242 250 242c-39.72 0-98.1 1.41-115.75 1.86Z" clip-rule="evenodd"/><path fill="#D9292D" fill-rule="evenodd" d="M249.66 63.75c51.47 0 58.27-35.9 58.27-40.38-5.77-3.24-9.72-5.34-12-5.34 0 0 5.88 32.5-46.34 32.5-48.52 0-46.33-32.5-46.33-32.5-2.28 0-6.24 2.1-12 5.34 0 0 7.36 40.38 58.4 40.38" clip-rule="evenodd"/><path fill="#3D3D3D" fill-rule="evenodd" d="m295.61 121.91 1.18-1.03c2-1.74 4.56-2.67 6.66-3.18 2.15-.52 4.21-.7 5.55-.7 1.34 0 3.4.18 5.55.7 2.1.51 4.67 1.44 6.66 3.18l1.18 1.03v1.57c0 .94.11 2 .5 2.77.16.32.34.55.57.71.24.17.65.36 1.37.42l3.17.26v18.72c0 5.29-3.45 10.1-11.29 14.26a28.03 28.03 0 0 0-3.36 2.22 7.57 7.57 0 0 0-1.48 1.42l-2.87 4.3-2.87-4.3a7.57 7.57 0 0 0-1.48-1.41 28.03 28.03 0 0 0-3.36-2.23c-7.84-4.16-11.29-8.97-11.29-14.26v-18.72l3.17-.26a2.72 2.72 0 0 0 1.37-.42c.23-.16.41-.39.57-.7.39-.78.5-1.84.5-2.78v-1.57Zm6.51 37.2c2.98 1.7 4.82 3.25 5.44 4.19l1.44 2.16 1.44-2.16c.62-.94 2.46-2.5 5.44-4.2 7.59-4.02 10.4-8.37 10.4-12.74v-17.13l-1.6-.13c-1.94-.16-2.83-1.06-3.34-2.08a8.2 8.2 0 0 1-.68-3.54v-.79l-.6-.51c-1.68-1.48-3.93-2.32-5.91-2.8a23.14 23.14 0 0 0-5.15-.65c-1.2 0-3.14.16-5.15.65-1.98.48-4.23 1.32-5.92 2.8l-.59.51v.79c0 1-.1 2.4-.68 3.54-.5 1.02-1.4 1.92-3.35 2.08l-1.58.13v17.13c0 4.37 2.8 8.72 10.4 12.74Z" clip-rule="evenodd"/><path fill="#F2F2F2" fill-rule="evenodd" d="m297.34 122.7.6-.52c1.68-1.48 3.93-2.32 5.91-2.8 2.01-.49 3.94-.65 5.15-.65 1.2 0 3.14.16 5.15.65 1.98.48 4.23 1.32 5.92 2.8l.59.51v.79c0 1 .1 2.4.68 3.54.5 1.02 1.4 1.92 3.35 2.08l1.58.13v17.13c0 4.37-2.8 8.72-10.4 12.74-2.97 1.7-4.8 3.26-5.43 4.2l-1.44 2.16-1.44-2.16c-.62-.94-2.46-2.5-5.44-4.2-7.59-4.02-10.4-8.37-10.4-12.74v-17.13l1.6-.13c1.94-.16 2.83-1.06 3.34-2.08a8.2 8.2 0 0 0 .68-3.54v-.79Z" clip-rule="evenodd"/><path fill="#3D3D3D" d="M309 120.45c-2.16 0-7.17.6-9.93 3.03 0 2.16-.43 6.9-5.62 7.34v15.54c0 3.46 2.16 7.34 9.5 11.23 3.03 1.73 5.19 3.45 6.05 4.75.86-1.3 3.02-3.02 6.05-4.75 7.34-3.88 9.5-7.77 9.5-11.23v-15.54c-5.19-.43-5.62-5.18-5.62-7.34-2.76-2.42-7.77-3.03-9.93-3.03Z"/><path fill="#D9292D" d="M299.43 129.15 319 152.97a28 28 0 0 1-4.76 3.1h-.03l-.02.02a28.5 28.5 0 0 0-5.19 3.66 28.5 28.5 0 0 0-5.19-3.66l-.02-.01-.03-.02c-7.07-3.74-8.58-7.16-8.58-9.7v-14.09a6.9 6.9 0 0 0 4.25-3.12Z"/><path fill="#FAEE51" d="M309 159.75a28.5 28.5 0 0 1 5.19-3.66l.02-.01.03-.02a28 28 0 0 0 4.76-3.09l-19.57-23.82.32-.58c.74-1.48.96-3.06 1.02-4.23a12.07 12.07 0 0 1 3.9-1.6c1.72-.42 3.38-.56 4.33-.56.95 0 2.6.14 4.33.56 1.47.35 2.85.88 3.9 1.6.06 1.17.28 2.75 1.02 4.23a6.93 6.93 0 0 0 4.57 3.7v14.1c0 2.53-1.5 5.95-8.58 9.7h-.03l-.02.02a28.5 28.5 0 0 0-5.19 3.66Z"/><path fill="#000" fill-opacity=".07" fill-rule="evenodd" d="M413.58 238.32a93.76 93.76 0 0 1-28.8 2.6c-8.2-22.37-15.55-36.89-20-44.75v270.57s-21.1 6.71-55.87 11.12c-.18-.03-.37-.05-.55-.06l8.28-240.71c2.06-59.75 31.08-95.29 60.1-117.44a148.59 148.59 0 0 0-7 23.67c7.35 11.85 24.44 42.07 43.83 94.96l.01.04ZM190.72 477.8c-34.25-4.4-56.48-11.06-56.48-11.06V196.17c-4.46 7.87-11.81 22.38-20 44.75a93.6 93.6 0 0 1-28.52-2.53l.02-.1c19.38-52.84 36.3-83.06 43.61-94.94a148.63 148.63 0 0 0-7-23.7c29 22.15 58.04 57.69 60.1 117.44l8.27 240.7Z" clip-rule="evenodd"/></g><defs><clipPath id="clip0_6058_450"><path fill="#fff" d="M0 0h500v500H0z"/></clipPath></defs></svg>