<svg xmlns="http://www.w3.org/2000/svg" width="500" height="500" fill="none"><path fill="#044E19" d="M203 109.22h93.65v-87.3H203v87.3Z"/><path fill="#E0E0E0" d="M202.86 32.23h93.46v-14.2h-93.46v14.2Z"/><path fill="#0A7027" d="M87.55 75.26S46.78 148.06 29 203.03c4.44 13.37 45.2 40.86 85.23 37.88 13.34-36.4 24.46-52 24.46-52s2.97-95.08-51.14-113.65Zm323.92 0s40.77 72.8 58.55 127.77c-4.44 13.37-45.2 40.86-85.23 37.88-13.34-36.4-24.46-52-24.46-52s-2.96-95.08 51.14-113.65Z"/><path fill="#F2F2F2" fill-rule="evenodd" d="M467.35 195.13c.94 2.67 1.83 5.3 2.67 7.9-4.44 13.37-45.2 40.86-85.23 37.88-.96-2.61-1.9-5.12-2.84-7.52 20.8-1.35 38-5.63 51.6-12.83 13.43-7.11 24.7-15.59 33.8-25.43Zm-435.7.03c9.1 9.83 20.37 18.3 33.78 25.4 13.6 7.2 30.82 11.48 51.64 12.84-.93 2.4-1.88 4.9-2.84 7.51-40.02 2.98-80.79-24.5-85.23-37.88a365.1 365.1 0 0 1 2.65-7.87Z" clip-rule="evenodd"/><path fill="#0A7027" d="M249.51 57.7c-50.08 0-47.8-39.47-48.74-39.14-7.52 2.62-24.13 14.94-52.44 25.5-31.87 11.88-52.63 19.31-60.78 31.2 11.11 8.91 46.7 28.97 46.7 120.34v271.14s49.65 14.86 114.88 14.86c68.93 0 115.64-14.86 115.64-14.86V195.6c0-91.37 35.59-111.43 46.7-120.34-8.15-11.89-28.9-19.32-60.78-31.2-28.36-10.58-44.98-22.92-52.48-25.51-.92-.32 4.18 39.15-48.7 39.15Z"/><path fill="#F2F2F2" d="M307.85 23.34c-5.77-3.23-9.73-5.34-12-5.34 0 0 5.88 32.5-46.34 32.5-48.52 0-46.34-32.5-46.34-32.5-2.28 0-6.23 2.1-12 5.34 0 0 7.37 40.39 58.4 40.39 51.48 0 58.28-35.9 58.28-40.38Z"/><path fill="#F2F2F2" fill-rule="evenodd" d="M283.75 480.34c-2.6.2-5.27.36-7.98.5V53.23a37.45 37.45 0 0 0 7.98-4.55v431.67ZM164.28 51.03a239.96 239.96 0 0 1-7.56 3.1v417.92a433 433 0 0 0 7.98 1.57V51.03h-.42Zm180 3.51a227.72 227.72 0 0 1-7.98-3.19v422.2c2.85-.55 5.52-1.09 7.98-1.62V54.54ZM217.24 480.4c2.62.19 5.28.35 7.99.5V53.32a38.16 38.16 0 0 1-7.99-4.57V480.4Z" clip-rule="evenodd"/><path fill="#fff" d="M309 163a20 20 0 1 0 0-40 20 20 0 0 0 0 40Z"/><path fill="#000" fill-opacity=".1" fill-rule="evenodd" d="M413.58 238.32a93.79 93.79 0 0 1-28.8 2.6c-8.2-22.37-15.55-36.89-20-44.75v270.57s-21.1 6.71-55.87 11.12c-.18-.03-.37-.04-.55-.06l8.28-240.71c2.06-59.75 31.08-95.29 60.1-117.44a148.6 148.6 0 0 0-7 23.67c7.35 11.85 24.44 42.07 43.83 94.96l.01.04ZM190.72 477.8c-34.25-4.4-56.48-11.06-56.48-11.06V196.18c-4.46 7.87-11.81 22.38-20 44.75a93.89 93.89 0 0 1-28.52-2.53l.02-.1c19.38-52.84 36.3-83.06 43.61-94.94a148.62 148.62 0 0 0-7-23.7c29 22.15 58.04 57.69 60.1 117.44l8.27 240.7Z" clip-rule="evenodd"/><path fill="#fff" fill-rule="evenodd" d="M294.86 157.14a20 20 0 1 0 28.28-28.28 20 20 0 0 0-28.28 28.28Z" clip-rule="evenodd"/><path fill="#0A6F2B" d="m323.3 129.02-28.28 28.28-.16-.16a20 20 0 1 1 28.28-28.28l.16.16Z"/><path fill="#2F2F2F" fill-rule="evenodd" d="M309 161a18 18 0 1 0 0-36 18 18 0 0 0 0 36Zm20-18a20 20 0 1 1-40 0 20 20 0 0 1 40 0Z" clip-rule="evenodd"/></svg>