<?xml version="1.0" encoding="utf-8"?><svg width="500" height="500" viewBox="0 0 500 500" fill="none" xmlns="http://www.w3.org/2000/svg"><path fill-rule="evenodd" clip-rule="evenodd" d="M203.003 109.223h93.644V21.928h-93.644v87.295Z" fill="#C8C8C8"/><path fill-rule="evenodd" clip-rule="evenodd" d="M202.864 32.228h93.458v-14.2h-93.458v14.2Z" fill="#393939"/><path fill-rule="evenodd" clip-rule="evenodd" d="M87.547 75.258S46.785 148.058 29 203.028c4.445 13.375 45.208 40.86 85.232 37.885 13.34-36.4 24.46-52 24.46-52s2.963-95.085-51.145-113.655M411.472 75.258s40.763 72.8 58.548 127.77c-4.445 13.375-45.208 40.86-85.232 37.885-13.34-36.4-24.46-52-24.46-52s-2.963-95.085 51.144-113.655" fill="#F2F2F2"/><path fill-rule="evenodd" clip-rule="evenodd" d="M249.964 58.156c-50.082 0-47.799-39.47-48.743-39.14-7.516 2.618-24.133 14.936-52.439 25.495C116.91 56.396 96.156 63.826 88 75.71c11.115 8.915 46.694 28.97 46.694 120.345v271.14s49.658 14.855 114.885 14.855c68.929 0 115.649-14.855 115.649-14.855v-271.14c0-91.375 35.579-111.43 46.699-120.345-8.156-11.885-28.909-19.315-60.782-31.2-28.36-10.577-44.982-22.92-52.478-25.51-.928-.32 4.177 39.155-48.703 39.155Z" fill="#F2F2F2"/><path fill-rule="evenodd" clip-rule="evenodd" d="M467.463 195.302a337.912 337.912 0 0 1 2.667 7.899c-4.445 13.375-45.208 40.86-85.232 37.885a426.372 426.372 0 0 0-2.836-7.52c20.796-1.357 37.994-5.636 51.595-12.837 13.428-7.108 24.697-15.584 33.806-25.427ZM31.655 195.302c9.103 9.827 20.36 18.291 33.772 25.391 13.611 7.206 30.824 11.486 51.639 12.84-.931 2.4-1.877 4.905-2.834 7.517-40.024 2.975-80.787-24.51-85.232-37.885a337.92 337.92 0 0 1 2.655-7.863ZM96.646 80.788c8.539-11.24 28.659-18.57 59.041-30.076 19.302-7.312 33.083-15.468 42.191-20.662a18.71 18.71 0 0 1-.009-.05 260.093 260.093 0 0 1 3.394-1.91l1.73 3.214c-9.03 5.064-23.459 13.972-44.362 21.891-29.863 11.31-49.812 18.585-58.594 29.504a52.142 52.142 0 0 0-3.391-1.91Zm-6.7-2.875c8.03-11.886 28.464-19.316 59.847-31.201 19.301-7.312 33.083-15.468 42.191-20.662a1.809 1.809 0 0 1-.01-.05l.024-.014 1.738 3.228c-9.103 5.208-22.521 12.981-40.999 19.981-30.458 11.535-50.603 18.874-59.106 30.161l-3.686-1.443ZM402.183 80.791a52.162 52.162 0 0 0-3.391 1.911c-8.781-10.92-28.73-18.196-58.596-29.507-20.204-7.654-34.36-16.233-43.438-21.37l1.584-3.305c.826.461 1.698.956 2.617 1.48l-.01.05c9.108 5.194 22.889 13.35 42.191 20.662 30.384 11.507 50.505 18.838 59.043 30.08Zm6.7-2.876c-1.26.44-2.488.921-3.686 1.444-8.501-11.29-28.646-18.628-59.107-30.164-18.275-6.923-31.602-14.603-40.698-19.809l1.413-3.414.048.028-.01.05c9.108 5.194 22.89 13.35 42.191 20.662 31.383 11.885 51.817 19.315 59.848 31.2v.001l.001.002Z" fill="#3D3D3D"/><path fill-rule="evenodd" clip-rule="evenodd" d="M307.851 23.345c-5.772-3.24-9.728-5.345-12.007-5.345 0 0 5.881 32.495-46.336 32.495-48.52 0-46.335-32.495-46.335-32.495-2.28 0-6.236 2.105-12.003 5.345 0 0 7.369 40.38 58.403 40.38 51.479 0 58.278-35.895 58.278-40.38Z" fill="#3D3D3D"/><path fill-rule="evenodd" clip-rule="evenodd" d="M413.584 238.323c-9.287 2.238-19.064 3.316-28.797 2.592-8.198-22.369-15.558-36.883-20.013-44.748v270.577s-21.102 6.71-55.866 11.111l-.544-.06c1.88-54.795 5.722-166.47 8.276-240.705 2.055-59.755 31.085-95.29 60.099-117.44-2.675 6.781-5.072 14.606-6.999 23.667 7.354 11.852 24.435 42.069 43.83 94.964l.014.042ZM190.717 477.795c-34.248-4.401-56.476-11.051-56.476-11.051V196.172c-4.456 7.867-11.814 22.379-20.01 44.743-9.633.716-19.309-.332-28.51-2.524.004-.032.01-.064.02-.096 19.376-52.848 36.305-83.066 43.609-94.944-1.929-9.075-4.328-16.912-7.006-23.701 29.014 22.15 58.043 57.685 60.099 117.44 2.554 74.235 6.395 185.91 8.276 240.705h-.002Z" fill="#000" fill-opacity=".06"/><circle cx="308" cy="144" r="23" fill="#3D3D3D"/><circle cx="308" cy="144" r="21" fill="#F2F2F2"/><path d="M305 131h-5v26h18v-5h-13v-21Z" fill="#3D3D3D"/></svg>