<svg xmlns="http://www.w3.org/2000/svg" width="501" height="501" fill="none"><path fill="#D9D9D9" fill-rule="evenodd" d="M203.16 109.9h93.64V22.62h-93.64v87.3Z" clip-rule="evenodd"/><path fill="#008544" fill-rule="evenodd" d="M203.02 32.91h93.46v-14.2h-93.46v14.2Z" clip-rule="evenodd"/><path fill="#009B4F" fill-rule="evenodd" d="M87.7 75.94s-40.76 72.8-58.55 127.77c4.45 13.38 45.21 40.86 85.24 37.89 13.34-36.4 24.46-52 24.46-52S141.8 94.5 87.7 75.94Zm323.93 0s40.76 72.8 58.54 127.77c-4.44 13.38-45.2 40.86-85.23 37.89-13.34-36.4-24.46-52-24.46-52s-2.96-95.09 51.15-113.66Z" clip-rule="evenodd"/><path fill="#009B4F" fill-rule="evenodd" d="M249.66 58.39c-50.08 0-47.8-39.47-48.74-39.14-7.51 2.61-24.13 14.93-52.44 25.5-31.87 11.88-52.62 19.3-60.78 31.2 11.12 8.9 46.7 28.96 46.7 120.34v271.14s49.65 14.85 114.88 14.85c68.93 0 115.65-14.85 115.65-14.85V196.29c0-91.38 35.58-111.43 46.7-120.35-8.16-11.88-28.91-19.31-60.78-31.2-28.36-10.58-44.99-22.92-52.48-25.5-.93-.33 4.18 39.15-48.7 39.15Z" clip-rule="evenodd"/><path fill="#F2F2F2" fill-rule="evenodd" d="M111.33 99.1c45.82-6.28 91.93-9.42 138.33-9.42 46.13 0 92.27 3.1 138.42 9.3-7.33 10.5-14.45 25.54-18.81 47.67a1038.9 1038.9 0 0 0-119.6-6.97c-39.88 0-79.74 2.35-119.6 7.04-4.34-22.09-11.43-37.12-18.74-47.62Zm23.07 102.1c38.22-4.34 76.64-6.52 115.26-6.52 38.42 0 76.84 2.16 115.27 6.46v50.01a1037.93 1037.93 0 0 0-115.27-6.47 1021 1021 0 0 0-115.26 6.54v-50.01Zm0 105c38.22-4.34 76.64-6.52 115.26-6.52 38.42 0 76.84 2.15 115.27 6.46v50.01a1037.93 1037.93 0 0 0-115.27-6.47 1021 1021 0 0 0-115.26 6.55V306.2Zm0 105.01a1020.8 1020.8 0 0 1 115.35-6.53c38.38 0 76.78 2.15 115.18 6.45v50.02a1037.93 1037.93 0 0 0-115.27-6.47 1021 1021 0 0 0-115.26 6.55V411.2Zm333.1-215.4c.94 2.67 1.83 5.3 2.68 7.9-4.45 13.38-45.21 40.86-85.24 37.89-.95-2.62-1.9-5.12-2.83-7.52 20.8-1.36 38-5.64 51.6-12.84 13.42-7.1 24.69-15.59 33.8-25.43Zm-435.7.04c9.11 9.83 20.37 18.29 33.78 25.39 13.61 7.2 30.83 11.49 51.64 12.84-.93 2.4-1.88 4.9-2.83 7.52-40.03 2.97-80.8-24.51-85.24-37.89.84-2.58 1.73-5.2 2.66-7.86Z" clip-rule="evenodd"/><path fill="#009B4F" fill-rule="evenodd" d="M308 24.03c-5.77-3.24-9.72-5.35-12-5.35 0 0 5.88 32.5-46.34 32.5-48.52 0-46.33-32.5-46.33-32.5-2.28 0-6.24 2.1-12 5.35 0 0 7.36 40.38 58.4 40.38C301.2 64.4 308 28.5 308 24.03Z" clip-rule="evenodd"/><path fill="#F2F2F2" fill-rule="evenodd" d="M68.87 111.52C79.51 90.42 87.7 75.8 87.7 75.8c8.16-11.89 28.91-19.32 60.78-31.2 28.01-10.45 44.58-22.62 52.2-25.41.19.63.31 3.35 1.13 7.1-7.52 3.03-23.34 14.84-49.94 25.1C121.06 63.3 101 70.72 93.12 82.6c0 0-7.8 14.5-17.94 35.25l-6.3-6.32Zm361.59 0-6.3 6.32A1094.09 1094.09 0 0 0 406.2 82.6c-7.89-11.89-27.94-19.32-58.75-31.2-26.6-10.27-42.42-22.08-49.94-25.12.82-3.74.94-6.46 1.13-7.09 7.63 2.8 24.19 14.96 52.2 25.4 31.87 11.9 52.62 19.32 60.78 31.2v.01s8.19 14.63 18.83 35.72Zm-121.31 54.16a22 22 0 1 0 0-44 22 22 0 0 0 0 44Z" clip-rule="evenodd"/><path fill="#009A2E" fill-rule="evenodd" d="M309.15 163.68a20 20 0 1 0 0-40 20 20 0 0 0 0 40Z" clip-rule="evenodd"/><path fill="#fff" fill-rule="evenodd" d="M309.15 159.68a16 16 0 1 0 0-32 16 16 0 0 0 0 32Z" clip-rule="evenodd"/><path fill="#000" fill-opacity=".08" fill-rule="evenodd" d="M413.74 239a93.75 93.75 0 0 1-28.8 2.6c-8.2-22.37-15.56-36.88-20.01-44.75v270.58s-21.1 6.7-55.87 11.1l-.54-.05 8.27-240.7c2.06-59.76 31.09-95.3 60.1-117.45a148.49 148.49 0 0 0-7 23.67c7.36 11.85 24.44 42.07 43.83 94.97l.02.04ZM190.87 478.49c-34.25-4.4-56.48-11.05-56.48-11.05V196.86c-4.45 7.86-11.81 22.38-20 44.74a93.57 93.57 0 0 1-28.52-2.52l.02-.1c19.38-52.85 36.3-83.07 43.61-94.94a148.63 148.63 0 0 0-7-23.7c29.01 22.14 58.04 57.68 60.1 117.43 2.55 74.24 6.4 185.91 8.27 240.7Z" clip-rule="evenodd"/><path fill="#009A2E" d="M305.9 139.65a2.38 2.38 0 0 1 0-3.37l1.1-1.09a3.05 3.05 0 0 1 4.31 0l1.1 1.09a2.4 2.4 0 0 1 0 3.37 2.38 2.38 0 0 0 0 3.36l1.87 1.88a3.05 3.05 0 0 1 0 4.32l-2.97 2.97a3.05 3.05 0 0 1-4.31 0l-2.97-2.97a3.05 3.05 0 0 1 0-4.32l1.88-1.88c.93-.93.93-2.44 0-3.36Z"/></svg>