<?xml version="1.0" encoding="UTF-8"?><svg width="500" height="500" viewBox="0 0 500 500" fill="none" xmlns="http://www.w3.org/2000/svg"><path fill-rule="evenodd" clip-rule="evenodd" d="M203.004 109.223h93.643V21.9282h-93.643v87.2948z" fill="#2D58AD"/><path fill-rule="evenodd" clip-rule="evenodd" d="M202.863 32.2278h93.459v-14.2h-93.459v14.2z" fill="#3565C1"/><path fill-rule="evenodd" clip-rule="evenodd" d="M87.5475 75.2583S46.7848 148.058 29 203.028c4.4449 13.375 45.2077 40.86 85.232 37.885 13.34-36.4 24.46-52 24.46-52s2.963-95.0847-51.1445-113.6547zm323.9265 0s40.763 72.7997 58.547 127.7697c-4.444 13.375-45.207 40.86-85.232 37.885-13.339-36.4-24.459-52-24.459-52s-2.964-95.0847 51.144-113.6547z" fill="#3364C4"/><path fill-rule="evenodd" clip-rule="evenodd" d="M249.51 57.7025c-50.081 0-47.798-39.4691-48.742-39.14-7.516 2.6187-24.133 14.9368-52.439 25.495-31.873 11.885-52.6256 19.315-60.7821 31.2 11.1148 8.915 46.6941 28.9695 46.6941 120.3445v271.14s49.658 14.856 114.885 14.856c68.929 0 115.649-14.856 115.649-14.856v-271.14c0-91.375 35.579-111.4295 46.699-120.3445-8.157-11.885-28.91-19.315-60.782-31.2-28.36-10.5767-44.982-22.9195-52.479-25.5087-.927-.3203 4.178 39.1537-48.703 39.1537z" fill="#3364C4"/><path fill-rule="evenodd" clip-rule="evenodd" d="M307.853 23.345c-5.772-3.24-9.728-5.345-12.008-5.345 0 0 5.882 32.495-46.335 32.495-48.52 0-46.335-32.495-46.335-32.495-2.28 0-6.236 2.105-12.003 5.345 0 0 7.368 40.38 58.403 40.38 51.478 0 58.278-35.895 58.278-40.38z" fill="#3C6ECE"/><path fill-rule="evenodd" clip-rule="evenodd" d="M413.583 238.323c-9.288 2.238-19.065 3.316-28.798 2.592-8.198-22.369-15.557-36.883-20.013-44.748v270.577s-21.102 6.71-55.866 11.111l-.544-.06c1.881-54.795 5.722-166.47 8.276-240.705 2.056-59.755 31.085-95.29 60.099-117.44-2.675 6.781-5.071 14.606-6.999 23.667 7.354 11.852 24.436 42.069 43.831 94.964.005.014.01.028.014.042zM190.715 477.795c-34.247-4.401-56.476-11.051-56.476-11.051V196.172c-4.456 7.867-11.814 22.379-20.01 44.743-9.633.716-19.3084-.332-28.5102-2.524.005-.032.0117-.064.0198-.096 19.3774-52.848 36.3054-83.066 43.6094-94.944-1.928-9.075-4.327-16.912-7.006-23.701 29.014 22.15 58.044 57.685 60.099 117.44 2.554 74.235 6.396 185.91 8.276 240.705h-.002z" fill="#000" fill-opacity=".06"/><path fill-rule="evenodd" clip-rule="evenodd" d="M309 160c13.255 0 24-8.82 24-13s-10.745-13-24-13-24 8.82-24 13 10.745 13 24 13z" fill="#fff"/><path d="M330.785 148c-1.507 3.774-10.685 10-21.783 10s-20.276-6.226-21.783-10h43.566zm0-2h-43.566c1.507-3.774 10.685-10 21.783-10s20.276 6.226 21.783 10z" fill="#43AAE4"/><path d="M300 146v-8.65c1.875-.566 3.89-.989 6-1.2l3.002 2.85 3.002-2.85c2.108.211 4.122.633 5.996 1.199V146h-2.5l-1-8-5.498 4.5-5.502-4.5-1 8H300zm3 2h12l.004 9.4c-1.908.381-3.921.6-6.002.6s-4.094-.219-6.002-.6V148z" fill="#82CBF4"/></svg>