<?xml version="1.0" encoding="UTF-8"?><svg width="500" height="500" viewBox="0 0 500 500" fill="none" xmlns="http://www.w3.org/2000/svg"><path fill-rule="evenodd" clip-rule="evenodd" d="M203.004 109.223h93.643V21.928h-93.643v87.295z" fill="#0F5F95"/><path fill-rule="evenodd" clip-rule="evenodd" d="M202.863 32.2281h93.459v-14.2h-93.459v14.2z" fill="#146AA5"/><path fill-rule="evenodd" clip-rule="evenodd" d="M87.5475 75.2585S46.7848 148.059 29 203.029c4.4449 13.375 45.2077 40.86 85.232 37.885 13.34-36.4 24.46-52 24.46-52s2.963-95.0855-51.1445-113.6555zM411.474 75.2585s40.763 72.8005 58.547 127.7705c-4.444 13.375-45.207 40.86-85.232 37.885-13.339-36.4-24.459-52-24.459-52s-2.964-95.0855 51.144-113.6555z" fill="#1778BA"/><path fill-rule="evenodd" clip-rule="evenodd" d="M249.51 57.7025c-50.081 0-47.798-39.4691-48.742-39.14-7.516 2.6187-24.133 14.9368-52.439 25.495-31.873 11.885-52.6256 19.315-60.7821 31.2 11.1148 8.915 46.6941 28.9695 46.6941 120.3445v271.14s49.658 14.856 114.885 14.856c68.929 0 115.649-14.856 115.649-14.856v-271.14c0-91.375 35.579-111.4295 46.699-120.3445-8.157-11.885-28.91-19.315-60.782-31.2-28.36-10.5767-44.982-22.9195-52.479-25.5087-.927-.3203 4.178 39.1537-48.703 39.1537z" fill="#1778BA"/><path fill-rule="evenodd" clip-rule="evenodd" d="M467.353 195.129c.936 2.667 1.828 5.303 2.668 7.899-4.445 13.375-45.208 40.86-85.232 37.885-.958-2.613-1.904-5.119-2.836-7.519 20.795-1.358 37.993-5.637 51.595-12.837 13.428-7.109 24.696-15.585 33.805-25.428zM31.6547 195.165c9.1031 9.828 20.3606 18.291 33.7724 25.392 13.6109 7.205 30.8241 11.485 51.6389 12.84-.931 2.399-1.877 4.904-2.834 7.517-40.0243 2.975-80.7871-24.51-85.232-37.885.8363-2.585 1.7234-5.21 2.6547-7.864z" fill="#F2F2F2"/><path fill-rule="evenodd" clip-rule="evenodd" d="M467.353 195.129c.936 2.667 1.828 5.303 2.668 7.899-4.445 13.375-45.208 40.86-85.232 37.885-.958-2.613-1.904-5.119-2.836-7.519 20.795-1.358 37.993-5.637 51.595-12.837 13.428-7.109 24.696-15.585 33.805-25.428zM31.6547 195.165c9.1031 9.828 20.3606 18.291 33.7724 25.392 13.6109 7.205 30.8241 11.485 51.6389 12.84-.931 2.399-1.877 4.904-2.834 7.517-40.0243 2.975-80.7871-24.51-85.232-37.885.8363-2.585 1.7234-5.21 2.6547-7.864zM307.853 23.345c-5.772-3.24-9.728-5.345-12.008-5.345 0 0 5.882 32.495-46.335 32.495-48.52 0-46.335-32.495-46.335-32.495-2.28 0-6.236 2.105-12.003 5.345 0 0 7.368 40.38 58.403 40.38 51.478 0 58.278-35.895 58.278-40.38z" fill="#156FAD"/><path fill-rule="evenodd" clip-rule="evenodd" d="M413.583 238.323c-9.288 2.238-19.065 3.316-28.798 2.592-8.198-22.369-15.557-36.883-20.013-44.748v270.577s-21.102 6.71-55.866 11.111l-.544-.06c1.881-54.795 5.722-166.47 8.276-240.705 2.056-59.755 31.085-95.29 60.099-117.44-2.675 6.781-5.071 14.606-6.999 23.667 7.354 11.852 24.436 42.069 43.831 94.964.005.014.01.028.014.042zM190.715 477.795c-34.247-4.401-56.476-11.051-56.476-11.051V196.172c-4.456 7.867-11.814 22.379-20.01 44.743-9.633.716-19.3084-.332-28.5102-2.524.005-.032.0117-.064.0198-.096 19.3774-52.848 36.3054-83.066 43.6094-94.944-1.928-9.075-4.327-16.912-7.006-23.701 29.014 22.15 58.044 57.685 60.099 117.44 2.554 74.235 6.396 185.91 8.276 240.705h-.002z" fill="#000" fill-opacity=".1"/><path fill-rule="evenodd" clip-rule="evenodd" d="M309 165c12.15 0 22-9.85 22-22s-9.85-22-22-22-22 9.85-22 22 9.85 22 22 22z" fill="#F2F2F2"/><path fill-rule="evenodd" clip-rule="evenodd" d="M309.001 163.087c11.094 0 20.087-8.993 20.087-20.087s-8.993-20.087-20.087-20.087-20.087 8.993-20.087 20.087 8.993 20.087 20.087 20.087z" fill="#1778BA"/><path fill-rule="evenodd" clip-rule="evenodd" d="M309 158.304c8.452 0 15.304-6.852 15.304-15.304s-6.852-15.304-15.304-15.304c-8.453 0-15.305 6.852-15.305 15.304s6.852 15.304 15.305 15.304z" fill="#F2F2F2"/><path fill-rule="evenodd" clip-rule="evenodd" d="M309.001 156.391c7.395 0 13.391-5.995 13.391-13.391s-5.996-13.391-13.391-13.391c-7.396 0-13.392 5.995-13.392 13.391s5.996 13.391 13.392 13.391z" fill="#1778BA"/><path d="M309.001 129.609c0 9.565-20.087 12.434-20.087 12.434h6.729c-.022.316-.033.635-.033.957 0 3.649 1.459 6.957 3.826 9.372v-10.329h3.826v13.06c1.189.565 2.475.959 3.826 1.153v-14.213h3.826v14.213c1.351-.194 2.637-.588 3.826-1.153v-13.06h3.826v10.329c2.367-2.415 3.826-5.723 3.826-9.372 0-.322-.011-.641-.033-.957h6.729s-20.087-2.869-20.087-12.434z" fill="#F2F2F2"/></svg>