<?xml version="1.0" encoding="UTF-8"?><svg width="500" height="500" viewBox="0 0 500 500" xmlns="http://www.w3.org/2000/svg"><g fill="none" fill-rule="evenodd"><path d="M0 0h500v500H0z"/><path fill="#BF1A30" d="M203.0033 109.223h93.6432V21.928h-93.6432z"/><path fill="#D9D9D9" d="M202.8636 32.228h93.4586v-14.2h-93.4586z"/><path d="M87.5475 75.2585s-40.7627 72.8-58.5475 127.77c4.445 13.375 45.2077 40.86 85.2322 37.885 13.3398-36.4 24.4596-52 24.4596-52s2.9633-95.085-51.1443-113.655m323.9252 0s40.7628 72.8 58.5475 127.77c-4.445 13.375-45.2077 40.86-85.2321 37.885-13.3399-36.4-24.4597-52-24.4597-52s-2.9633-95.085 51.1443-113.655" fill="#F2F2F2"/><path d="M249.5111 57.7025c-50.0817 0-47.7981-39.469-48.7426-39.14-7.5158 2.6187-24.1326 14.9368-52.4385 25.495-31.8729 11.885-52.626 19.315-60.7825 31.2 11.1149 8.915 46.6944 28.97 46.6944 120.345v271.14s49.6576 14.855 114.885 14.855c68.9291 0 115.6484-14.855 115.6484-14.855v-271.14c0-91.375 35.5795-111.43 46.6994-120.345-8.1566-11.885-28.9096-19.315-60.7825-31.2-28.3599-10.5767-44.9818-22.9194-52.478-25.5106-.9273-.3184 4.1773 39.1556-48.703 39.1556z" fill="#DA1E37"/><path d="M222.998 480.8208l-.0018-428.2236c6.6034 3.1012 15.2297 5.1053 26.515 5.1053 11.8243 0 20.7495-1.9737 27.4911-5.0349l-.0012 428.1208a480.7438 480.7438 0 01-27.8741.8091c-9.039 0-17.7789-.2853-26.129-.7767l-.0018-428.2236.0017 428.2236z" fill="#F2F2F2"/><path d="M307.8516 23.345c-5.772-3.24-9.728-5.345-12.0078-5.345 0 0 5.8817 32.495-46.3352 32.495-48.5202 0-46.3352-32.495-46.3352-32.495-2.2798 0-6.2358 2.105-12.0028 5.345 0 0 7.3683 40.38 58.4029 40.38 51.4785 0 58.2781-35.895 58.2781-40.38z" fill="#F2F2F2"/><path d="M413.5843 238.3227c-9.2877 2.2382-19.0646 3.3161-28.7978 2.5926-8.1978-22.369-15.5572-36.883-20.0128-44.7484v270.5774s-21.1022 6.7098-55.8664 11.1104c-.1817-.0197-.363-.0396-.544-.0597 1.8808-54.795 5.7221-166.47 8.2763-240.705 2.0554-59.755 31.0847-95.29 60.099-117.44-2.6753 6.7806-5.0714 14.6063-6.9991 23.6673 7.354 11.8514 24.4358 42.0687 43.8307 94.964.005.014.0097.0277.014.0414zM190.7166 477.7953c-34.2478-4.4014-56.4763-11.051-56.4763-11.051V196.1721c-4.4558 7.8668-11.8138 22.3792-20.0097 44.7432-9.633.716-19.3087-.3323-28.5106-2.5238a1.113 1.113 0 01.0199-.0967c19.3773-52.8475 36.3054-83.0661 43.6098-94.9437-1.929-9.0753-4.3277-16.912-7.0064-23.7011 29.0144 22.15 58.0437 57.685 60.099 117.44 2.5543 74.235 6.3956 185.91 8.2763 240.7053h-.002z" fill-opacity=".1" fill="#000"/><path d="M328.5 134.8425c0 8.1597-2.7442 15.1122-7.4852 20.8489-3.331 4.0306-7.3605 7.1022-10.9558 8.9555l-1.0626.533-1.2202-.6188c-3.621-1.9014-7.6179-4.9864-10.9151-9.0215-4.6661-5.7103-7.3611-12.612-7.3611-20.6971v-5.5h39v5.5z" fill="#F2F2F2" fill-rule="nonzero"/><path d="M291 134.8425v-4h36v4c0 17.3867-13.1726 26.1743-17.6136 28.4637L309 163.5l-.5265-.267C303.9024 160.8328 291 152.05 291 134.8426z" fill="#F0E853"/><path d="M296 120.5h26v9.6377c0 13.5749-4.3333 22.6956-13 27.3623-8.6667-4.6667-13-13.7874-13-27.3623V120.5z" fill="#F2F2F2"/><path d="M298 125.5h22v5.8568c0 11.9778-3.6667 20.0256-11 24.1432-7.3333-4.1176-11-12.1654-11-24.1432V125.5z" fill="#FF2528"/><path d="M299.8179 125.4995l16.224 23.1699a20.1 20.1 0 01-1.2032 1.7693L298 126.3895V125.5l1.818-.0005zm6.1 0l12.4867 17.8322a26.4481 26.4481 0 01-.8308 2.3004l-14.0969-20.1326h2.441z" fill="#F2F2F2"/></g></svg>