<?xml version="1.0" encoding="UTF-8"?><svg width="500" height="500" xmlns="http://www.w3.org/2000/svg"><g fill="none" fill-rule="evenodd"><path d="M0 0h500v500H0z"/><path fill="#0B449E" d="M203.003 109.223h93.643V21.928h-93.643z"/><path fill="#E3E3E3" d="M202.864 32.228h93.458v-14.2h-93.458z"/><path d="M87.548 75.258S46.785 148.058 29 203.029c4.445 13.376 45.208 40.86 85.232 37.886 13.34-36.4 24.46-52 24.46-52s2.963-95.085-51.144-113.655M411.473 75.258s40.762 72.8 58.547 127.77c-4.445 13.376-45.208 40.86-85.232 37.886-13.34-36.4-24.46-52-24.46-52s-2.963-95.085 51.145-113.655" fill="#135CCE"/><path d="M249.511 57.703c-50.082 0-47.798-39.47-48.742-39.14-7.516 2.618-24.133 14.936-52.439 25.495-31.873 11.885-52.626 19.315-60.782 31.2 11.114 8.915 46.694 28.97 46.694 120.345v271.14s49.658 14.855 114.885 14.855c68.929 0 115.648-14.855 115.648-14.855v-271.14c0-91.375 35.58-111.43 46.7-120.345-8.157-11.885-28.91-19.315-60.783-31.2-28.36-10.577-44.982-22.92-52.478-25.511-.927-.318 4.177 39.156-48.703 39.156z" fill="#135CCE"/><path d="M174.404 32.4c6.756-3.393 12.314-6.526 16.77-9.029l2.137 6.631c-8.9 5.143-22.457 13.326-41.595 20.711-28.211 10.883-47.405 18.03-56.493 28.283l-7.61-3.976c8.202-11.83 28.93-19.251 60.717-31.104 10.156-3.789 18.808-7.803 26.074-11.516zM324.506 32.344c7.29 3.728 15.977 7.764 26.185 11.572C382.48 55.769 403.207 63.19 411.41 75.02l-7.494 4.107c-9.04-10.324-28.278-17.486-56.61-28.415-18.71-7.22-32.085-15.202-40.991-20.361l1.54-6.98c4.433 2.488 9.949 5.6 16.652 8.972z" fill="#F2F2F2"/><path d="M307.852 23.345C302.08 20.105 298.124 18 295.844 18c0 0 5.881 32.495-46.335 32.495-48.52 0-46.336-32.495-46.336-32.495-2.28 0-6.235 2.105-12.002 5.345 0 0 7.368 40.38 58.402 40.38 51.479 0 58.279-35.895 58.279-40.38z" fill="#F2F2F2"/><path d="M413.584 238.323c-9.287 2.238-19.064 3.316-28.798 2.592-8.197-22.369-15.557-36.883-20.012-44.748v270.577s-21.102 6.71-55.867 11.11l-.544-.059c1.881-54.795 5.722-166.47 8.277-240.705 2.055-59.755 31.084-95.29 60.099-117.44-2.676 6.78-5.072 14.606-7 23.667 7.354 11.852 24.436 42.069 43.831 94.964l.014.042zM190.717 477.795c-34.248-4.401-56.477-11.05-56.477-11.05V196.171c-4.456 7.867-11.813 22.38-20.01 44.743-9.632.716-19.308-.332-28.51-2.523.005-.033.012-.065.02-.097 19.377-52.848 36.305-83.066 43.61-94.944-1.93-9.075-4.328-16.912-7.007-23.701 29.015 22.15 58.044 57.685 60.1 117.44 2.554 74.235 6.395 185.91 8.276 240.705h-.002z" fill-opacity=".1" fill="#000"/><circle fill="#ECB400" cx="309" cy="143" r="22"/><circle fill="#FFF" cx="309" cy="143" r="20"/><path d="M302 157v4.74a19.986 19.986 0 0 1-6-3.541V157h6zm6-6v6h-6v-6h6zm-12 0v6h-1.282a20.033 20.033 0 0 1-4.053-5.999L296 151zm6-6v6h-6v-6h6zm12 0v6h-6v-6h6zm-24 0v4.262a19.897 19.897 0 0 1-.901-4.261L290 145zm6-6v6h-6v-6h6zm12 0v6h-6v-6h6zm12 0v6h-6v-6h6zm-18-6v6h-6v-6h6zm18-5v6h-6v5h-6v-6h6v-5h6zm-30 8.738V139h-.6c.157-.771.358-1.526.6-2.262zM308 127v6h-6v-6h6zm-12 .801V133h-4.325a20.094 20.094 0 0 1 4.325-5.199zm24-1.506a20.08 20.08 0 0 1 2.23 1.705H320v-1.705zM309 123c1.727 0 3.402.219 5 .63V127h-6v-3.975c.332-.017.665-.025 1-.025zm-7 1.26V127h-5.002a19.96 19.96 0 0 1 5.002-2.74z" fill="#E61D00"/><path d="M321.593 127.462c4.52 3.667 7.407 9.265 7.407 15.538 0 11.046-8.954 20-20 20-3.41 0-6.621-.854-9.43-2.359l22.023-33.179z" fill="#1B378F"/></g></svg>