<?xml version="1.0" encoding="UTF-8"?><svg height="500" viewBox="0 0 500 500" width="500" xmlns="http://www.w3.org/2000/svg"><g fill="none" fill-rule="evenodd"><path d="M0 0h500v500H0z"/><path d="M203.006 109.193h93.643V21.898h-93.643z" fill="#d2bf1d"/><path d="M202.867 32.198h93.458v-14.2h-93.458z" fill="#e2cd0f"/><g fill="#ffe925"><path d="M87.55 75.26s-40.762 72.8-58.547 127.77c4.445 13.375 45.208 40.86 85.232 37.885 13.34-36.4 24.46-52 24.46-52S141.658 93.83 87.55 75.26M411.476 75.26s40.762 72.8 58.547 127.77c-4.445 13.375-45.208 40.86-85.232 37.885-13.34-36.4-24.46-52-24.46-52S357.368 93.83 411.476 75.26"/><path d="M249.514 57.706c-50.082 0-47.798-39.47-48.742-39.14-7.516 2.618-24.133 14.936-52.439 25.495-31.873 11.885-52.626 19.315-60.782 31.2 11.114 8.915 46.694 28.97 46.694 120.345v271.14S183.903 481.6 249.13 481.6c68.929 0 115.648-14.855 115.648-14.855v-271.14c0-91.375 35.58-111.43 46.7-120.345-8.157-11.885-28.91-19.315-60.783-31.2-28.36-10.577-44.982-22.92-52.478-25.511-.927-.318 4.177 39.156-48.703 39.156z"/></g><path d="M467.461 195.302a338.826 338.826 0 0 1 2.668 7.9c-4.445 13.375-45.208 40.86-85.232 37.885a426.405 426.405 0 0 0-2.836-7.52c20.795-1.358 37.993-5.637 51.595-12.837 13.428-7.11 24.696-15.585 33.805-25.428zM31.655 195.302c9.103 9.828 20.36 18.291 33.772 25.392 13.611 7.205 30.824 11.485 51.64 12.84a426.42 426.42 0 0 0-2.835 7.516C74.208 244.025 33.445 216.54 29 203.165c.836-2.584 1.723-5.209 2.655-7.863z" fill="#266bba"/><path d="M249.576 63.752c51.479 0 58.279-35.895 58.279-40.38-5.772-3.24-9.728-5.345-12.008-5.345 0 0 5.881 32.495-46.335 32.495-48.52 0-46.336-32.495-46.336-32.495-2.28 0-6.235 2.105-12.002 5.345 0 0 7.368 40.38 58.402 40.38" fill="#ffe925"/><path d="M249.576 63.752c51.479 0 58.279-35.895 58.279-40.38-5.772-3.24-9.728-5.345-12.008-5.345 0 0 5.881 32.495-46.335 32.495-48.52 0-46.336-32.495-46.336-32.495-2.28 0-6.235 2.105-12.002 5.345 0 0 7.368 40.38 58.402 40.38" fill="#ffe925"/><path d="M209.64 36.278c6.023 7.404 17.611 14.244 39.872 14.244 23.622 0 35.354-6.65 41.12-13.934l.06-.077 5.857 1.498c-9.54 13.429-25.113 20.144-46.721 20.144-21.63 0-37.24-6.728-46.832-20.184l6.645-1.69z" fill="#266bba"/><path d="M209.734 36.392c-2.281.5-4.517 1.04-6.706 1.62-3.4-4.758-6.046-10.36-7.938-16.804 3.69-1.982 6.365-3.181 8.086-3.181 0 0-.645 9.6 6.558 18.365zm80.827.284c7.061-8.84 5.286-18.65 5.286-18.65 1.785 0 4.597 1.29 8.504 3.406-1.878 6.407-4.509 11.975-7.893 16.705a157.865 157.865 0 0 0-5.897-1.461z" fill="#f5de13"/><path d="M286.158 118.98c10.91 5.858 22.813 1.961 22.813-.98 0 2.941 11.902 6.863 22.813.98-2.642 7.523-3.964 12.425-3.964 14.706 0 3.422 10.606 23.138 6.037 26.47-4.57 3.334-24.886 3.922-24.886 7.844 0-3.922-20.16-4.51-24.797-7.843s5.951-23.051 5.951-26.47c0-2.28-1.322-7.182-3.967-14.707z" fill="#244598"/><path d="M287.54 120.469c8.765 4.506 21.46 1.973 21.46-.85 0 2.823 13.275 5.888 21.428.85-2.24 6.87-3.36 11.4-3.36 13.59 0 3.285 10.181 22.212 5.795 25.412-4.387 3.2-23.863 3.47-23.863 7.235 0-3.765-19.382-4.035-23.833-7.235s5.713-22.13 5.713-25.412c0-2.189-1.113-6.719-3.34-13.59z" fill="#ffef00"/><path d="M297 124.616v36.166c-4.198-.713-8.293-1.466-10.001-2.683-4.101-2.923 5.264-20.208 5.264-23.206 0-1.998-1.026-6.135-3.078-12.41 2.417 1.232 5.16 1.887 7.815 2.133zm24 .227c2.687-.243 5.415-.958 7.705-2.36-2.064 6.274-3.096 10.41-3.096 12.41 0 3 9.382 20.283 5.34 23.206-1.679 1.213-5.755 1.965-9.949 2.676z" fill="#244598"/><path d="M413.584 238.323c-9.287 2.238-19.064 3.316-28.798 2.592-8.197-22.369-15.557-36.883-20.012-44.748v270.577s-21.102 6.71-55.867 11.11l-.544-.059c1.881-54.795 5.722-166.47 8.277-240.705 2.055-59.755 31.084-95.29 60.099-117.44-2.676 6.78-5.072 14.606-7 23.667 7.354 11.852 24.436 42.069 43.831 94.964l.014.042zM190.717 477.795c-34.248-4.401-56.477-11.05-56.477-11.05V196.171c-4.456 7.867-11.813 22.38-20.01 44.743-9.632.716-19.308-.332-28.51-2.523.005-.033.012-.065.02-.097 19.377-52.848 36.305-83.066 43.61-94.944-1.93-9.075-4.328-16.912-7.007-23.701 29.015 22.15 58.044 57.685 60.1 117.44 2.554 74.235 6.395 185.91 8.276 240.705z" fill="#000" fill-opacity=".06"/></g></svg>