<?xml version="1.0" encoding="UTF-8"?><svg width="500" height="500" viewBox="0 0 500 500" fill="none" xmlns="http://www.w3.org/2000/svg"><path fill-rule="evenodd" clip-rule="evenodd" d="M203.003 109.223h93.644V21.928h-93.644v87.295z" fill="#D9D9D9"/><path fill-rule="evenodd" clip-rule="evenodd" d="M202.864 32.228h93.458v-14.2h-93.458v14.2z" fill="#2B4264"/><path fill-rule="evenodd" clip-rule="evenodd" d="M87.5475 75.2585S46.7848 148.059 29 203.029c4.4449 13.375 45.2077 40.86 85.232 37.885 13.34-36.4 24.46-52 24.46-52s2.963-95.0855-51.1445-113.6555zm323.9245 0s40.763 72.8005 58.548 127.7705c-4.445 13.375-45.208 40.86-85.232 37.885-13.34-36.4-24.46-52-24.46-52s-2.963-95.0855 51.144-113.6555z" fill="#F2F2F2"/><path fill-rule="evenodd" clip-rule="evenodd" d="M249.511 57.7025c-50.082 0-47.798-39.4691-48.743-39.14-7.516 2.6187-24.132 14.9368-52.438 25.495-31.873 11.885-52.6261 19.315-60.7826 31.2 11.1148 8.915 46.6946 28.9695 46.6946 120.3445v271.14s49.657 14.856 114.885 14.856c68.929 0 115.648-14.856 115.648-14.856v-271.14c0-91.375 35.58-111.4295 46.699-120.3445-8.156-11.885-28.909-19.315-60.782-31.2-28.36-10.5767-44.982-22.9195-52.478-25.5087-.927-.3203 4.177 39.1537-48.703 39.1537z" fill="#F2F2F2"/><path fill-rule="evenodd" clip-rule="evenodd" d="M119.982 226.098c-1.849 4.494-3.775 9.427-5.75 14.815-40.0243 2.975-80.7871-24.51-85.232-37.885 1.7572-5.431 3.7388-11.036 5.8832-16.728 10.2695 10.965 22.7409 19.794 37.4143 26.489 14.6578 6.687 30.5525 11.123 47.6845 13.309zm259.223 0c17.131-2.186 33.026-6.622 47.684-13.309 14.673-6.695 27.145-15.524 37.414-26.489 2.145 5.692 4.126 11.297 5.883 16.728-4.444 13.375-45.207 40.86-85.232 37.885-1.975-5.388-3.901-10.321-5.749-14.815z" fill="#DA4B4B"/><path fill-rule="evenodd" clip-rule="evenodd" d="M467.353 195.129c.936 2.667 1.827 5.303 2.667 7.899-4.445 13.375-45.208 40.86-85.232 37.885-.958-2.613-1.904-5.119-2.835-7.519 20.795-1.358 37.993-5.637 51.594-12.837 13.428-7.109 24.697-15.585 33.806-25.428zm-435.6983.036c9.1031 9.828 20.3606 18.291 33.7724 25.392 13.6109 7.205 30.8241 11.485 51.6389 12.84-.931 2.399-1.877 4.904-2.834 7.517-40.0243 2.975-80.7871-24.51-85.232-37.885.8363-2.585 1.7234-5.21 2.6547-7.864zM307.851 23.345c-5.772-3.24-9.728-5.345-12.007-5.345 0 0 5.881 32.495-46.336 32.495-48.52 0-46.335-32.495-46.335-32.495-2.28 0-6.236 2.105-12.003 5.345 0 0 7.369 40.38 58.403 40.38 51.479 0 58.278-35.895 58.278-40.38z" fill="#334F79"/><path fill-rule="evenodd" clip-rule="evenodd" d="M413.584 238.323c-9.287 2.238-19.064 3.316-28.797 2.592-8.198-22.369-15.558-36.883-20.013-44.748v270.577s-21.102 6.71-55.866 11.111l-.544-.06c1.88-54.795 5.722-166.47 8.276-240.705 2.055-59.755 31.085-95.29 60.099-117.44-2.675 6.781-5.072 14.606-6.999 23.667 7.354 11.852 24.435 42.069 43.83 94.964.005.014.01.028.014.042zM190.717 477.795c-34.248-4.401-56.476-11.051-56.476-11.051V196.172c-4.456 7.867-11.814 22.379-20.01 44.743-9.633.716-19.3089-.332-28.5108-2.523.0051-.032.0117-.065.0199-.097 19.3769-52.848 36.3059-83.066 43.6099-94.944-1.929-9.075-4.328-16.912-7.006-23.701 29.014 22.15 58.043 57.685 60.099 117.44 2.554 74.235 6.395 185.91 8.276 240.705h-.002z" fill="#000" fill-opacity=".08"/><path d="M327 121.663c0-1.105-.895-2-2-2h-33c-1.105 0-2 .895-2 2v27.674c.024 2.133.092 4.159 1.858 5.421l15.528 12.442 1.114.8 1.115-.8 15.532-12.445c1.785-1.275 1.853-3.309 1.853-5.437v-27.655z" fill="#2D4363"/><path d="M325 123.282c0-.552-.448-1-1-1h-31c-.552 0-1 .448-1 1v25.578c.022 1.96.082 3.82 1.657 4.979L307.5 165l.993.735.995-.735 13.86-11.164c1.591-1.171 1.652-3.039 1.652-4.993v-25.561z" fill="#F2F2F2"/><path opacity=".5" d="M294 130.644V124.5c0-.276.224-.5.5-.5h28c.276 0 .5.224.5.5v6.144c0 .213-.135.403-.337.472L308.5 136l-14.163-4.884a.4985.4985 0 01-.337-.472z" fill="#212B60"/><path d="M296.12 133.667l-2.12-.742v15.609c.019 1.796.073 3.501 1.457 4.563l.663.558v-19.988zm4.5 23.772l-2.25-1.892v-21.093l2.25.788v22.197zm4.5 3.784l-2.25-1.892v-23.302l2.25.788v24.406zm3.374 2.777l-.873-.673-.251-.212v-25.51l1.13.395 1.12-.392v25.507l-.252.212-.874.673zm5.626-4.665l-2.25 1.89V136.82l2.25-.787v23.302zm4.5-3.781l-2.25 1.891v-22.2l2.25-.787v21.096zm2.25-21.884l2.13-.745v15.593c0 1.792-.054 3.503-1.452 4.577l-.678.569V133.67z" fill="#DA4B4B"/></svg>