<?xml version="1.0" encoding="UTF-8"?><svg width="500" height="500" viewBox="0 0 500 500" fill="none" xmlns="http://www.w3.org/2000/svg"><path fill-rule="evenodd" clip-rule="evenodd" d="M203.003 109.223h93.644V21.928h-93.644v87.295z" fill="#AA2D2D"/><path fill-rule="evenodd" clip-rule="evenodd" d="M202.864 32.228h93.458v-14.2h-93.458v14.2z" fill="#D3D0CF"/><path fill-rule="evenodd" clip-rule="evenodd" d="M87.5475 75.2585S46.7848 148.059 29 203.029c4.4449 13.375 45.2077 40.86 85.232 37.885 13.34-36.4 24.46-52 24.46-52s2.963-95.0855-51.1445-113.6555zm323.9245 0s40.763 72.8005 58.548 127.7705c-4.445 13.375-45.208 40.86-85.232 37.885-13.34-36.4-24.46-52-24.46-52s-2.963-95.0855 51.144-113.6555z" fill="#B33"/><path fill-rule="evenodd" clip-rule="evenodd" d="M249.511 57.7025c-50.082 0-47.798-39.4691-48.743-39.14-7.516 2.6187-24.132 14.9368-52.438 25.495-31.873 11.885-52.6261 19.315-60.7826 31.2 11.1148 8.915 46.6946 28.9695 46.6946 120.3445v271.14s49.657 14.856 114.885 14.856c68.929 0 115.648-14.856 115.648-14.856v-271.14c0-91.375 35.58-111.4295 46.699-120.3445-8.156-11.885-28.909-19.315-60.782-31.2-28.36-10.5767-44.982-22.9195-52.478-25.5087-.927-.3203 4.177 39.1537-48.703 39.1537z" fill="#B33"/><path fill-rule="evenodd" clip-rule="evenodd" d="M307.851 23.345c-5.772-3.24-9.728-5.345-12.007-5.345 0 0 5.881 32.495-46.336 32.495-48.52 0-46.335-32.495-46.335-32.495-2.28 0-6.236 2.105-12.003 5.345 0 0 7.369 40.38 58.403 40.38 51.479 0 58.278-35.895 58.278-40.38z" fill="#F2F2F2"/><path fill-rule="evenodd" clip-rule="evenodd" d="M413.584 238.323c-9.287 2.238-19.064 3.316-28.797 2.592-8.198-22.369-15.558-36.883-20.013-44.748v270.577s-21.102 6.71-55.866 11.111l-.544-.06c1.88-54.795 5.722-166.47 8.276-240.705 2.055-59.755 31.085-95.29 60.099-117.44-2.675 6.781-5.072 14.606-6.999 23.667 7.354 11.852 24.435 42.069 43.83 94.964.005.014.01.028.014.042zM190.717 477.795c-34.248-4.401-56.476-11.051-56.476-11.051V196.172c-4.456 7.867-11.814 22.379-20.01 44.743-9.633.716-19.3089-.332-28.5108-2.523.0051-.032.0117-.065.0199-.097 19.3769-52.848 36.3059-83.066 43.6099-94.944-1.929-9.075-4.328-16.912-7.006-23.701 29.014 22.15 58.043 57.685 60.099 117.44 2.554 74.235 6.395 185.91 8.276 240.705h-.002z" fill="#000" fill-opacity=".08"/><path fill-rule="evenodd" clip-rule="evenodd" d="M309 165c12.15 0 22-9.85 22-22s-9.85-22-22-22-22 9.85-22 22 9.85 22 22 22z" fill="#D9AF44"/><path fill-rule="evenodd" clip-rule="evenodd" d="M309 163.087c11.094 0 20.087-8.993 20.087-20.087s-8.993-20.087-20.087-20.087-20.087 8.993-20.087 20.087 8.993 20.087 20.087 20.087z" fill="#F2F2F2"/><path d="M319.512 157.827c-2.968 2.108-6.595 3.347-10.512 3.347-10.037 0-18.174-8.137-18.174-18.174 0-10.037 8.137-18.174 18.174-18.174 3.917 0 7.544 1.239 10.512 3.347-2.04-.921-4.303-1.434-6.686-1.434-8.98 0-16.261 7.28-16.261 16.261 0 8.981 7.281 16.261 16.261 16.261 2.383 0 4.646-.513 6.686-1.434z" fill="#273F6F"/><path d="M327.212 147.337c-.848 2.496-2.371 4.797-4.542 6.611-6.301 5.264-15.677 4.424-20.941-1.877-5.265-6.302-4.424-15.677 1.877-20.942 2.924-2.443 6.51-3.571 10.04-3.449-2.319.352-4.573 1.323-6.505 2.936-5.626 4.701-6.376 13.072-1.676 18.699 4.701 5.626 13.072 6.376 18.699 1.675 1.264-1.056 2.282-2.298 3.048-3.653z" fill="#CB3F3F"/><path d="M327.114 141.86c-.17 1.335-.584 2.661-1.259 3.917-2.955 5.499-9.81 7.562-15.309 4.606-5.5-2.955-7.562-9.81-4.607-15.309 1.687-3.139 4.645-5.159 7.895-5.764-2.431.804-4.571 2.504-5.879 4.938-2.712 5.047-.82 11.338 4.228 14.051 5.047 2.712 11.338.819 14.05-4.228.385-.717.677-1.458.881-2.211z" fill="#273F6F"/><path d="M324.776 136.11c.292.94.419 1.949.348 2.99-.307 4.519-4.219 7.934-8.738 7.627-4.519-.307-7.934-4.22-7.627-8.739.202-2.97 1.961-5.463 4.426-6.736-1.783 1.245-3.006 3.257-3.165 5.596-.278 4.098 2.819 7.646 6.917 7.924 4.098.279 7.646-2.818 7.925-6.916.04-.597.009-1.181-.086-1.746z" fill="#CB3F3F"/><circle cx="317.609" cy="135.348" r="5.7391" fill="#273F6F"/><path d="M311.371 121.126c-.023.059-.045.119-.066.18l-13.336 38.768c-.209.606-.28 1.227-.232 1.828a21.8529 21.8529 0 007.706 2.812 4.499 4.499 0 001.057-1.706l13.336-38.768c.038-.11.072-.222.101-.333a21.8728 21.8728 0 00-8.566-2.781z" fill="#D9AF44"/></svg>