<?xml version="1.0" encoding="UTF-8"?><svg height="500" viewBox="0 0 500 500" width="500" xmlns="http://www.w3.org/2000/svg"><g fill="none" fill-rule="evenodd"><path d="M0 0h500v500H0z"/><path d="M203.003 109.223h93.643V21.928h-93.643z" fill="#d9d9d9"/><path d="M202.864 32.228h93.458v-14.2h-93.458z" fill="#005498"/><path d="M87.548 75.258S46.785 148.058 29 203.029c4.445 13.376 45.208 40.86 85.232 37.886 13.34-36.4 24.46-52 24.46-52s2.963-95.085-51.144-113.655M411.473 75.258s40.762 72.8 58.547 127.77c-4.445 13.376-45.208 40.86-85.232 37.886-13.34-36.4-24.46-52-24.46-52s-2.963-95.085 51.145-113.655" fill="#005eaa"/><path d="M249.511 57.703c-50.082 0-47.798-39.47-48.742-39.14-7.516 2.618-24.133 14.936-52.439 25.495-31.873 11.885-52.626 19.315-60.782 31.2 11.114 8.915 46.694 28.97 46.694 120.345v271.14s49.658 14.855 114.885 14.855c68.929 0 115.648-14.855 115.648-14.855v-271.14c0-91.375 35.58-111.43 46.7-120.345-8.157-11.885-28.91-19.315-60.783-31.2-28.36-10.577-44.982-22.92-52.478-25.511-.927-.318 4.177 39.156-48.703 39.156z" fill="#f2f2f2"/><path d="M307.852 23.345C302.08 20.105 298.124 18 295.844 18c0 0 5.881 32.495-46.335 32.495-48.52 0-46.336-32.495-46.336-32.495-2.28 0-6.235 2.105-12.002 5.345 0 0 7.368 40.38 58.402 40.38 51.479 0 58.279-35.895 58.279-40.38z" fill="#f1f1f1"/><path d="M170.746 474.792a422.212 422.212 0 0 1-14.038-2.803V40.75c15.284-6.366 26.598-12.934 34.472-17.356a4.492 4.492 0 0 1-.01-.05l.46-.257V477.91a470.817 470.817 0 0 1-20.884-3.118zm96.712-425.878v432.334c-5.913.225-12.029.35-18.331.35-5.655 0-11.192-.112-16.59-.316V48.886c4.824 1.02 10.438 1.609 16.972 1.609 6.966 0 12.898-.578 17.949-1.58zm75.828-7.76v430.952c-9.134 1.93-20.934 4.062-34.921 5.815V23.69c8.018 4.512 19.481 11.114 34.92 17.465z" fill="#005eaa"/><circle cx="309" cy="143" fill="#f7f7f7" r="24"/><g fill-rule="nonzero"><path d="M309 165c12.15 0 22-9.85 22-22s-9.85-22-22-22-22 9.85-22 22 9.85 22 22 22z" fill="#0057a6"/><path d="M309 160c-9.389 0-17-7.611-17-17s7.611-17 17-17 17 7.611 17 17-7.611 17-17 17z" fill="#fff"/><path d="M309 158c8.284 0 15-6.716 15-15s-6.716-15-15-15-15 6.716-15 15 6.716 15 15 15z" fill="#000"/><path d="M309 157c-7.732 0-14-6.268-14-14s6.268-14 14-14 14 6.268 14 14-6.268 14-14 14z" fill="#fff"/></g><g><path d="M319.924 134.498l1.762 13.422-1.323-.21c-1.282-.205-2.978-.095-5.073.345-1.167.244-1.884.454-3.38.95a51.85 51.85 0 0 1-.84.273c-1.159.363-2.112.576-3.298.701-.86.09-1.632.125-2.595.131-.25.002-1.071.001-1.187.002-1.45.005-2.39.079-3.584.33l-1.185.25-.02-1.212c-.036-2.087-.847-5.827-2.437-11.157l-.16-.54.378-.418c.436-.48 1.338-.66 3.442-.88.99-.104 1.79-.122 3.524-.11l.364.002c1.739.009 2.702-.033 3.709-.202.946-.158 1.544-.328 2.808-.754l.084-.028c1.568-.527 2.47-.756 3.91-.907 2.087-.22 3.523-.263 4.377-.114zm-.558 11.118l-1.224-9.33c-.715-.014-1.76.047-3.11.189-1.266.133-2.04.33-3.48.814l-.084.028c-1.358.457-2.04.65-3.117.83-1.151.194-2.202.24-4.05.23l-.366-.003c-1.66-.01-2.41.006-3.302.1a25.63 25.63 0 0 0-1.674.22c1.222 4.195 1.945 7.381 2.168 9.59.884-.125 1.743-.169 2.856-.172.123 0 .94 0 1.181-.002a23.26 23.26 0 0 0 2.399-.12c1.042-.11 1.869-.294 2.908-.62.225-.07.423-.135.81-.264 1.562-.517 2.34-.745 3.598-1.009 1.703-.357 3.197-.52 4.487-.481z" fill="#000" fill-rule="nonzero"/><path d="M318.892 135.388c-.735-.128-2.102-.087-4.1.123-3 .316-4.034 1.228-6.742 1.682-2.492.418-5.116.05-7.658.318-1.694.178-2.63.364-2.805.557 1.614 5.413 2.44 9.222 2.477 11.427 2.887-.607 4.537-.171 7.467-.48s4.11-1.215 7.418-1.908c2.205-.462 4.017-.58 5.435-.354z" fill="#fff"/><path d="M318.892 135.388c-.735-.128-2.102-.087-4.1.123-3 .316-4.034 1.228-6.742 1.682-2.492.418-5.116.05-7.658.318-1.694.178-2.63.364-2.805.557.78 2.73 1.302 4.648 1.565 5.753 1.224-.45 7.069-.457 9.94-.759 2.87-.302 7.904-1.807 10.63-1.403-.16-1.532-.437-3.622-.83-6.27z" fill="#005aab"/></g><path d="M296 137.208l.978-.208 3.743 17.607-.979.208z" fill="#000"/><path d="M413.584 238.323c-9.287 2.238-19.064 3.316-28.798 2.592-8.197-22.369-15.557-36.883-20.012-44.748v270.577s-21.102 6.71-55.867 11.11l-.544-.059c1.881-54.795 5.722-166.47 8.277-240.705 2.055-59.755 31.084-95.29 60.099-117.44-2.676 6.78-5.072 14.606-7 23.667 7.354 11.852 24.436 42.069 43.831 94.964l.014.042zM190.717 477.795c-34.248-4.401-56.477-11.05-56.477-11.05V196.171c-4.456 7.867-11.813 22.38-20.01 44.743-9.632.716-19.308-.332-28.51-2.523.005-.033.012-.065.02-.097 19.377-52.848 36.305-83.066 43.61-94.944-1.93-9.075-4.328-16.912-7.007-23.701 29.015 22.15 58.044 57.685 60.1 117.44 2.554 74.235 6.395 185.91 8.276 240.705z" fill="#000" fill-opacity=".1"/></g></svg>