<svg xmlns="http://www.w3.org/2000/svg" width="500" height="500" fill="none" viewBox="0 0 500 500"><g fill-rule="evenodd" clip-path="url(#clip0_5839_4461)" clip-rule="evenodd"><path fill="#076146" d="M203 109.22h93.65v-87.3H203v87.3Z"/><path fill="#DCDCDC" d="M202.86 32.23h93.46v-14.2h-93.46v14.2Z"/><path fill="#097957" d="M87.55 75.26S46.78 148.06 29 203.03c4.44 13.37 45.2 40.86 85.23 37.88 13.34-36.4 24.46-52 24.46-52s2.97-95.08-51.14-113.65M411.47 75.26s40.76 72.8 58.55 127.77c-4.44 13.37-45.2 40.86-85.23 37.88-13.34-36.4-24.46-52-24.46-52s-2.96-95.08 51.14-113.65"/><path fill="#097957" d="M249.51 57.7c-50.08 0-47.8-39.47-48.74-39.14-7.52 2.62-24.13 14.94-52.44 25.5-31.87 11.88-52.63 19.31-60.78 31.2 11.11 8.91 46.7 28.97 46.7 120.34v271.14s49.65 14.86 114.88 14.86c68.93 0 115.64-14.86 115.64-14.86V195.6c0-91.37 35.59-111.43 46.7-120.34-8.15-11.89-28.9-19.32-60.78-31.2-28.36-10.58-44.98-22.92-52.48-25.51-.92-.32 4.18 39.15-48.7 39.15Z"/><path fill="#F2F2F2" d="M467.46 195.3c.94 2.67 1.83 5.3 2.67 7.9-4.45 13.38-45.2 40.86-85.23 37.89a434.6 434.6 0 0 0-2.84-7.52c20.8-1.36 38-5.64 51.6-12.84 13.42-7.1 24.7-15.58 33.8-25.43ZM31.65 195.3c9.1 9.83 20.37 18.3 33.78 25.4 13.6 7.2 30.82 11.48 51.64 12.83-.93 2.4-1.88 4.9-2.84 7.52-40.02 2.97-80.79-24.51-85.23-37.89.84-2.58 1.72-5.2 2.65-7.86Z"/><path fill="#E7E7E7" d="M307.85 23.34c-5.77-3.23-9.73-5.34-12-5.34 0 0 5.88 32.5-46.34 32.5-48.52 0-46.34-32.5-46.34-32.5-2.28 0-6.23 2.1-12 5.34 0 0 7.37 40.39 58.4 40.39 51.48 0 58.28-35.9 58.28-40.38Z"/><path fill="#000" fill-opacity=".1" d="M413.58 238.32a93.79 93.79 0 0 1-28.8 2.6c-8.2-22.37-15.55-36.89-20-44.75v270.57s-21.1 6.71-55.87 11.12c-.18-.03-.37-.04-.55-.06l8.28-240.71c2.06-59.75 31.09-95.29 60.1-117.44a148.6 148.6 0 0 0-7 23.67c7.35 11.85 24.44 42.07 43.83 94.96l.01.04ZM190.72 477.8c-34.25-4.4-56.48-11.06-56.48-11.06V196.18c-4.46 7.87-11.81 22.38-20 44.75-9.64.71-19.32-.34-28.52-2.53l.02-.1c19.38-52.84 36.3-83.06 43.61-94.94a148.72 148.72 0 0 0-7-23.7c29 22.15 58.04 57.69 60.1 117.44l8.27 240.7Z"/><path fill="#F2F2F2" d="M299 121c3.22.93 6.23 2.03 10 2.03 3.99 0 6.68-1.04 10-2.03v2.53c0 .88.34 1.44.81 1.82.53.42 1.31.68 2.19.68h2v10.5c0 4.73-1.8 9.6-4.38 13.64-2.57 4.03-6.09 7.47-9.78 9.18l-.84.39-.84-.4c-3.7-1.7-7.2-5.14-9.78-9.17-2.59-4.04-4.38-8.9-4.38-13.64v-10.5h2c.88 0 1.66-.27 2.19-.68.47-.38.81-.94.81-1.82V121Zm2 2.53c0 .78-.17 1.45-.46 2.03-.83 1.65-2.69 2.47-4.54 2.47v8.5c0 8.5 6.5 18 13 21 6.5-3 13-12.5 13-21v-8.5c-1.86 0-3.71-.82-4.54-2.47a4.44 4.44 0 0 1-.46-2.03c-.53.32-1.2.57-1.96.78a26.02 26.02 0 0 1-12.08 0 7.88 7.88 0 0 1-1.96-.78Z"/><path fill="#F2F2F2" d="m299.4 148 20.38-20.39c.69.28 1.46.42 2.22.42v8.5c0 8.5-6.5 18-13 21-3.56-1.64-7.12-5.23-9.6-9.53Z"/><path fill="#D2B47C" d="M292.22 126.53c-.4 3.6 1.19 10.17 2.03 13 1.1 5.79 6.03 12.18 10 15.73a6.13 6.13 0 0 1 4.75-2.23c1.92 0 3.63.87 4.75 2.23 3.97-3.55 8.9-9.94 10-15.73.84-2.83 2.44-9.4 2.03-13 3.05 2.5 5.6 18-.5 24.5-3.16 3.36-7 6.06-10.18 7.87v.13c0 3.32-2.73 6-6.1 6a6.05 6.05 0 0 1-6.1-6v-.13a44.72 44.72 0 0 1-10.17-7.87c-6.1-6.5-3.56-22-.51-24.5Z"/></g><defs><clipPath id="clip0_5839_4461"><path fill="#fff" d="M0 0h500v500H0z"/></clipPath></defs></svg>