<svg xmlns="http://www.w3.org/2000/svg" width="500" height="500" fill="none" viewBox="0 0 500 500"><g clip-path="url(#clip0_5839_4462)"><path fill="#192669" fill-rule="evenodd" d="M203 109.22h93.65v-87.3H203v87.3Z" clip-rule="evenodd"/><path fill="#213188" fill-rule="evenodd" d="M202.86 32.23h93.46v-14.2h-93.46v14.2Z" clip-rule="evenodd"/><path fill="#293CA0" fill-rule="evenodd" d="M87.55 75.26S46.78 148.06 29 203.03c4.44 13.37 45.2 40.86 85.23 37.88 13.34-36.4 24.46-52 24.46-52s2.97-95.08-51.14-113.65M411.47 75.26s40.76 72.8 58.55 127.77c-4.44 13.37-45.2 40.86-85.23 37.88-13.34-36.4-24.46-52-24.46-52s-2.96-95.08 51.14-113.65" clip-rule="evenodd"/><path fill="#293CA0" fill-rule="evenodd" d="M249.51 57.7c-50.08 0-47.8-39.47-48.74-39.14-7.52 2.62-24.13 14.94-52.44 25.5-31.87 11.88-52.63 19.31-60.78 31.2 11.11 8.91 46.7 28.97 46.7 120.34v271.14s49.65 14.86 114.88 14.86c68.93 0 115.64-14.86 115.64-14.86V195.6c0-91.37 35.59-111.43 46.7-120.34-8.15-11.89-28.9-19.32-60.78-31.2-28.36-10.58-44.98-22.92-52.48-25.51-.92-.32 4.18 39.15-48.7 39.15Z" clip-rule="evenodd"/><path fill="#E33E3E" fill-rule="evenodd" d="M265.46 56.27c15.68-3.1 23.75-10.75 27.94-18.37v441.65c-8.7.8-18.04 1.43-27.94 1.77V56.27Zm58.87-23.88a245.77 245.77 0 0 0 26.36 11.66l1.58.59v425.44a384.6 384.6 0 0 1-27.94 5.55V32.39Zm-89.8 448.96c-9.8-.33-19.15-.96-27.94-1.8V37.8c4.48 7.69 12.69 15.44 27.94 18.52v425.03Zm-58.87-5.74a431.73 431.73 0 0 1-27.93-5.43V44.28l.6-.23a246.67 246.67 0 0 0 27.33-12.16v443.72Z" clip-rule="evenodd"/><path fill="#293CA0" fill-rule="evenodd" d="M75.02 117.3c10.14-20.75 17.95-35.25 17.95-35.25 7.88-11.88 27.94-19.31 58.75-31.2 19.13-7.38 32.8-15.6 41.77-20.78l-2.14-6.84c-9.25 5.17-23.3 13.34-43.03 20.7-31.86 11.89-52.62 19.31-60.77 31.2 0 0-8.23 14.76-18.86 35.82 0 0-28.7 57.34-39.69 92.08 0 0 .45 1.58 2.12 4.05 1.68 2.47 2.81 3.4 2.81 3.4 12.58-35.53 41.1-93.18 41.1-93.18ZM423.96 117.32c-10.13-20.75-17.95-35.27-17.95-35.27-7.88-11.88-27.94-19.31-58.75-31.2-19.04-7.34-32.37-15.46-41.14-20.6l1.66-6.91C317 28.48 331 36.6 350.65 43.93c31.87 11.89 52.62 19.31 60.78 31.2 0 0 8.23 14.76 18.85 35.82 0 0 27.59 54.46 39.74 92.08 0 0-.74 1.97-1.46 3.09-.72 1.1-2.38 3.18-2.38 3.18-27.64-65.99-42.22-91.98-42.22-91.98Z" clip-rule="evenodd"/><path fill="#293CA0" fill-rule="evenodd" d="M307.85 23.34c-5.77-3.23-9.73-5.34-12-5.34 0 0 5.88 32.5-46.34 32.5-48.52 0-46.34-32.5-46.34-32.5-2.28 0-6.23 2.1-12 5.34 0 0 7.37 40.39 58.4 40.39 51.48 0 58.28-35.9 58.28-40.38Z" clip-rule="evenodd"/><path fill="#000" fill-opacity=".12" fill-rule="evenodd" d="M413.58 238.32a93.79 93.79 0 0 1-28.8 2.6c-8.2-22.37-15.55-36.89-20-44.75v270.57s-21.1 6.71-55.87 11.12c-.18-.03-.37-.04-.55-.06l8.28-240.71c2.06-59.75 31.09-95.29 60.1-117.44a148.6 148.6 0 0 0-7 23.67c7.35 11.85 24.44 42.07 43.83 94.96l.01.04ZM190.72 477.8c-34.25-4.4-56.48-11.06-56.48-11.06V196.18c-4.46 7.87-11.81 22.38-20 44.75-9.64.71-19.32-.34-28.52-2.53l.02-.1c19.38-52.84 36.3-83.06 43.61-94.94a148.72 148.72 0 0 0-7-23.7c29 22.15 58.04 57.69 60.1 117.44l8.27 240.7Z" clip-rule="evenodd"/><path fill="#F2F2F2" fill-rule="evenodd" d="M311.16 140.84v-19.68L309 119l-2.16 2.16v19.68h-19.68L285 143l2.16 2.16h19.68v19.25L309 167l2.16-2.6v-19.24h19.24L333 143l-2.6-2.16h-19.24Z" clip-rule="evenodd"/><path fill="#007DBF" fill-rule="evenodd" d="M309 157.34a14.34 14.34 0 1 0 0-28.68 14.34 14.34 0 0 0 0 28.68Zm0 5.37a19.72 19.72 0 1 0 0-39.43 19.72 19.72 0 0 0 0 39.43Z" clip-rule="evenodd"/><path fill="#E23E3E" fill-rule="evenodd" d="M297 126.29s5.57-4.43 12-4.43 12 4.43 12 4.43l-2.45 6.14s-4.34-2.57-9.55-2.57c-5.2 0-9.55 2.57-9.55 2.57l-2.45-6.14Z" clip-rule="evenodd"/><path fill="#F2F2F2" d="M300.14 131.32h17.3v13.84c-1.62 6.17-8.44 12.41-8.44 12.41s-7.25-6.24-8.86-12.4v-13.85Z"/><path fill="#E23E3E" d="M301.62 133.21h14.33v11.47c-1.33 5.11-6.99 10.29-6.99 10.29s-6-5.18-7.34-10.29v-11.47Z"/><path fill="#293CA0" fill-rule="evenodd" d="M308.96 154.97s-6-5.18-7.34-10.29v-1.79h7.34v12.08Zm7-12.08h-7v-9.68h7v9.68Z" clip-rule="evenodd"/></g><defs><clipPath id="clip0_5839_4462"><path fill="#fff" d="M0 0h500v500H0z"/></clipPath></defs></svg>