<svg xmlns="http://www.w3.org/2000/svg" width="500" height="500" fill="none" viewBox="0 0 500 500"><g clip-path="url(#clip0_5839_4465)"><path fill="#CAD9F7" fill-rule="evenodd" d="M203 109.22h93.65v-87.3H203v87.3Z" clip-rule="evenodd"/><path fill="#16449D" fill-rule="evenodd" d="M202.86 32.23h93.46v-14.2h-93.46v14.2Z" clip-rule="evenodd"/><path fill="#215DD2" fill-rule="evenodd" d="M87.55 75.26S46.78 148.06 29 203.03c4.44 13.37 45.2 40.86 85.23 37.88 13.34-36.4 24.46-52 24.46-52s2.97-95.08-51.14-113.65M411.47 75.26s40.77 72.8 58.55 127.77c-4.44 13.37-45.2 40.86-85.23 37.88-13.34-36.4-24.46-52-24.46-52s-2.96-95.08 51.14-113.65" clip-rule="evenodd"/><path fill="#215DD2" fill-rule="evenodd" d="M249.51 57.7c-50.08 0-47.8-39.47-48.74-39.14-7.52 2.62-24.13 14.94-52.44 25.5-31.87 11.88-52.63 19.31-60.78 31.2 11.11 8.91 46.7 28.97 46.7 120.34v271.14s49.65 14.86 114.88 14.86c68.93 0 115.65-14.86 115.65-14.86V195.6c0-91.37 35.58-111.43 46.7-120.34-8.16-11.89-28.92-19.32-60.79-31.2-28.36-10.58-44.98-22.92-52.48-25.51-.92-.32 4.18 39.15-48.7 39.15Z" clip-rule="evenodd"/><path fill="#F2F2F2" fill-rule="evenodd" d="M326.6 33.54 134.23 424.05v42.7s17.6 5.26 45.6 9.52L385.99 57.83c-8.84-3.92-19.6-7.93-32.17-12.61l-3.12-1.16a244.23 244.23 0 0 1-24.1-10.52Z" clip-rule="evenodd"/><path fill="#1B50B8" fill-rule="evenodd" d="M307.85 23.34c-5.77-3.23-9.73-5.34-12-5.34 0 0 5.88 32.5-46.34 32.5-48.52 0-46.34-32.5-46.34-32.5-2.28 0-6.23 2.1-12 5.34 0 0 7.37 40.39 58.4 40.39 51.48 0 58.28-35.9 58.28-40.38Z" clip-rule="evenodd"/><path fill="#000" fill-opacity=".1" fill-rule="evenodd" d="M413.58 238.32a93.8 93.8 0 0 1-28.8 2.6c-8.2-22.37-15.55-36.89-20-44.75v270.57s-21.1 6.71-55.87 11.12l-.55-.06 8.28-240.71c2.06-59.75 31.08-95.29 60.1-117.44a148.7 148.7 0 0 0-7 23.67c7.35 11.85 24.44 42.07 43.83 94.96l.01.04ZM190.72 477.8c-34.25-4.4-56.48-11.06-56.48-11.06V196.18c-4.46 7.87-11.81 22.38-20.01 44.75-9.63.71-19.3-.34-28.51-2.53l.02-.1c19.38-52.84 36.3-83.06 43.6-94.94a148.52 148.52 0 0 0-7-23.7c29.02 22.15 58.05 57.69 60.1 117.44l8.28 240.7Z" clip-rule="evenodd"/><path fill="#CCBF83" fill-rule="evenodd" d="m321.14 129.5 4.51 2 1-4.5-2 2.5h-3.51Zm.99 2.76 4.72 2.6 1.5-4.8-2.4 2.53-3.82-.33Zm4.47 6.33-4.47-4.16 4.1 1.41 3.37-2.11-3 4.86Zm-5.03-1.31 4.49 5.84 4.54-5.2-4.43 1.86-4.6-2.5Zm2.94 10.36-3.02-7.66 4.18 4.1 5.33-.62-6.5 4.18Zm-4.06-3.63 1.35 7.22 6.38-2.57-4.77-.35-2.96-4.3Zm-1.1 10.53.18-6.5 1.76 4.28 4.07 1.18-6.01 1.04ZM294.86 129.5l-4.51 2-1-4.5 2 2.5h3.51Zm-.99 2.76-4.72 2.6-1.5-4.8 2.4 2.53 3.82-.33Zm-4.47 6.33 4.47-4.16-4.1 1.41-3.37-2.11 3 4.86Zm5.03-1.31-4.49 5.84-4.53-5.2 4.42 1.86 4.6-2.5Zm-2.94 10.36 3.02-7.66-4.18 4.1-5.33-.62 6.5 4.18Zm4.06-3.63-1.34 7.22-6.4-2.57 4.78-.35 2.96-4.3Zm1.1 10.53-.18-6.5-1.76 4.28-4.07 1.18 6.01 1.04Z" clip-rule="evenodd"/><path fill="#199CD3" d="M299.34 152v3h-2.3v-3h2.3ZM316.79 152v3h2.3v-3h-2.3Z"/><path fill="#163C6A" d="m292.02 152 2.43 2.38-2.43 2.86h5.83v1.9c.81.96 3.99 2.86 10.21 2.86 6.23 0 9.4-1.9 10.21-2.86v-1.9h5.84l-2.44-2.86 2.44-2.38h-7.3l1.46.48c-1.55 3.43-7.7 3.8-10.2 3.8-2.51 0-8.66-.38-10.22-3.8l1.46-.48h-7.3Z"/><path fill="#163C6A" fill-rule="evenodd" d="M296.03 138.82V123h24.07v15.82c0 10.8-12.04 16.72-12.04 16.72s-12.03-5.93-12.03-16.72Z" clip-rule="evenodd"/><path fill="#F2F2F2" fill-rule="evenodd" d="M297.37 138.28v-6.94h21.39v6.94c0 9.85-10.7 15.27-10.7 15.27s-10.7-5.42-10.7-15.27Z" clip-rule="evenodd"/><path fill="#199CD3" d="M302.15 147.1c2.6 3.2 5.91 4.9 5.91 4.9s9.03-6 9.03-13.06v-.45l-14.94 8.6ZM316.6 133h-17.56v5.94c0 1.37.24 2.64.64 3.8L316.6 133Z"/></g><defs><clipPath id="clip0_5839_4465"><path fill="#fff" d="M0 0h500v500H0z"/></clipPath></defs></svg>