<?xml version="1.0" encoding="UTF-8"?><svg width="500" height="500" viewBox="0 0 500 500" fill="none" xmlns="http://www.w3.org/2000/svg"><path fill-rule="evenodd" clip-rule="evenodd" d="M203.003 109.223h93.644V21.928h-93.644v87.295z" fill="#A90D19"/><path fill-rule="evenodd" clip-rule="evenodd" d="M202.864 32.228h93.458v-14.2h-93.458v14.2z" fill="#C1111F"/><path fill-rule="evenodd" clip-rule="evenodd" d="M87.5475 75.2585S46.7848 148.059 29 203.029c4.4449 13.375 45.2077 40.86 85.232 37.885 13.34-36.4 24.46-52 24.46-52s2.963-95.0855-51.1445-113.6555zm323.9255 0s40.763 72.8005 58.547 127.7705c-4.445 13.375-45.207 40.86-85.232 37.885-13.34-36.4-24.46-52-24.46-52s-2.963-95.0855 51.145-113.6555z" fill="#D21322"/><path fill-rule="evenodd" clip-rule="evenodd" d="M249.511 57.7025c-50.082 0-47.798-39.4691-48.742-39.14-7.516 2.6187-24.133 14.9368-52.439 25.495-31.873 11.885-52.6258 19.315-60.7824 31.2 11.1149 8.915 46.6944 28.9695 46.6944 120.3445v271.14s49.658 14.856 114.885 14.856c68.929 0 115.648-14.856 115.648-14.856v-271.14c0-91.375 35.58-111.4295 46.7-120.3445-8.157-11.885-28.91-19.315-60.783-31.2-28.36-10.5767-44.982-22.9195-52.478-25.5087-.927-.3203 4.178 39.1537-48.703 39.1537z" fill="#D21322"/><path fill-rule="evenodd" clip-rule="evenodd" d="M249.509 50.495c23.731 0 35.462-6.7117 41.199-14.0345l3.191.8392c45.286 11.3389 71.551 39.4268 71.551 68.1603v68.857c-.455 6.628-.7 13.712-.7 21.286v271.142s-43.162 13.709-107.735 14.788c-2.595.042-5.225.064-7.888.064-64.901 0-114.388-14.706-114.881-14.853l.004-361.284c0-28.4512 25.751-56.2695 70.222-67.8171l5.219-1.3266c6.037 7.3786 17.622 14.1787 39.818 14.1787z" fill="#C80F1D"/><path fill-rule="evenodd" clip-rule="evenodd" d="M364.783 196.151v270.564s-2.615.831-7.521 2.101V198.029c1.662-.659 3.103-1.134 4.325-1.427.789-.189 1.855-.339 3.196-.451zM141.75 468.719c-4.861-1.215-7.5-2.004-7.5-2.004V196.153c1.332.111 2.39.261 3.175.449 1.222.293 2.664.768 4.325 1.427v270.69z" fill="#356DCF"/><path fill-rule="evenodd" clip-rule="evenodd" d="M307.852 23.345C302.08 20.105 298.124 18 295.844 18c0 0 5.882 32.495-46.335 32.495-48.521 0-46.336-32.495-46.336-32.495-2.279 0-6.235 2.105-12.002 5.345 0 0 7.368 40.38 58.403 40.38 51.478 0 58.278-35.895 58.278-40.38z" fill="#D21322"/><path fill-rule="evenodd" clip-rule="evenodd" d="M413.584 238.323c-9.287 2.238-19.064 3.316-28.798 2.592-8.197-22.369-15.557-36.883-20.012-44.748v270.577s-21.102 6.71-55.867 11.111l-.544-.06c1.881-54.795 5.722-166.47 8.277-240.705 2.055-59.755 31.084-95.29 60.099-117.44-2.676 6.781-5.072 14.606-7 23.667 7.354 11.852 24.436 42.069 43.831 94.964.005.014.01.028.014.042zM190.717 477.795c-34.248-4.401-56.477-11.051-56.477-11.051V196.172c-4.456 7.867-11.813 22.379-20.009 44.743-9.633.716-19.3091-.332-28.511-2.523.0051-.032.0117-.065.0199-.097 19.3771-52.848 36.3051-83.066 43.6101-94.944-1.929-9.075-4.328-16.912-7.007-23.701 29.015 22.15 58.044 57.685 60.099 117.44 2.555 74.235 6.396 185.91 8.277 240.705h-.002z" fill="#000" fill-opacity=".08"/><path fill-rule="evenodd" clip-rule="evenodd" d="M292 124.635c7-3.609 17-5.635 17-5.635s10 2.026 17 5.635v19.831c0 14.422-11.055 19.83-17 22.534-5.945-2.704-17-8.112-17-22.534v-19.831z" fill="#0650A1"/><path fill-rule="evenodd" clip-rule="evenodd" d="M293.417 126.166C299.833 122.857 309 121 309 121s9.167 1.857 15.583 5.166v18.178c0 13.22-10.133 18.177-15.583 20.656-5.45-2.479-15.583-7.436-15.583-20.656v-18.178z" fill="#fff"/><path fill-rule="evenodd" clip-rule="evenodd" d="M294.833 127.696C300.667 124.688 309 123 309 123s8.333 1.688 14.167 4.696v16.525c0 12.019-9.213 16.526-14.167 18.779-4.955-2.253-14.167-6.76-14.167-18.779v-16.525z" fill="#0650A1"/><path fill-rule="evenodd" clip-rule="evenodd" d="M309 147c5.187 0 9.496 3.762 10.347 8.706-3.114 3.896-7.456 5.979-10.347 7.294l-.941-.434c-2.835-1.331-6.613-3.366-9.405-6.858.849-4.946 5.158-8.708 10.346-8.708z" fill="#F2F2F2"/><path fill-rule="evenodd" clip-rule="evenodd" d="M309 127c4.056 0 7.415 3.151 7.674 7.199.217 3.4.326 7.074.326 11.024 0 4.424-.136 8.85-.409 13.279-2.611 2.176-5.486 3.54-7.591 4.498l-.686-.315c-2.009-.933-4.542-2.222-6.868-4.153l-.1-1.705c-.231-4.16-.346-8.028-.346-11.604 0-3.697.123-7.392.37-11.085.268-4.017 3.604-7.138 7.63-7.138z" fill="#F2F2F2"/></svg>