<?xml version="1.0" encoding="UTF-8"?><svg width="500" height="500" viewBox="0 0 500 500" fill="none" xmlns="http://www.w3.org/2000/svg"><path fill-rule="evenodd" clip-rule="evenodd" d="M203.003 109.223h93.643V21.928h-93.643v87.295z" fill="#273293"/><path fill-rule="evenodd" clip-rule="evenodd" d="M202.864 32.228h93.458v-14.2h-93.458v14.2z" fill="#0D123E"/><path fill-rule="evenodd" clip-rule="evenodd" d="M87.5475 75.2585S46.7848 148.058 29 203.028c4.4449 13.375 45.2077 40.86 85.232 37.885 13.34-36.4 24.46-52 24.46-52s2.963-95.0845-51.1445-113.6545zm323.9255 0s40.763 72.7995 58.547 127.7695c-4.445 13.375-45.207 40.86-85.232 37.885-13.34-36.4-24.46-52-24.46-52s-2.963-95.0845 51.145-113.6545z" fill="#3B49CA"/><path fill-rule="evenodd" clip-rule="evenodd" d="M249.511 57.7025c-50.082 0-47.798-39.4691-48.743-39.14-7.515 2.6187-24.132 14.9368-52.438 25.495-31.873 11.885-52.626 19.315-60.7825 31.2 11.1148 8.915 46.6945 28.9695 46.6945 120.3445v271.14s49.657 14.856 114.885 14.856c68.929 0 115.648-14.856 115.648-14.856v-271.14c0-91.375 35.58-111.4295 46.7-120.3445-8.157-11.885-28.91-19.315-60.783-31.2-28.36-10.5767-44.982-22.9195-52.478-25.5087-.927-.3203 4.177 39.1537-48.703 39.1537z" fill="#3B49CA"/><path fill-rule="evenodd" clip-rule="evenodd" d="M249.509 50.495c23.731 0 35.462-6.7117 41.199-14.0345l3.191.8393c45.286 11.3389 71.551 39.4268 71.551 68.1602v68.857c-.455 6.628-.7 13.712-.7 21.286v271.142s-43.162 13.709-107.735 14.788c-2.595.042-5.225.065-7.888.065-64.901 0-114.388-14.707-114.881-14.854l.004-361.284c0-28.4511 25.751-56.2695 70.222-67.8171l5.219-1.3266c6.037 7.3787 17.622 14.1787 39.818 14.1787z" fill="#3844B7"/><path fill-rule="evenodd" clip-rule="evenodd" d="M467.353 195.129c.936 2.667 1.827 5.303 2.667 7.899-4.445 13.375-45.208 40.86-85.232 37.885-.958-2.613-1.904-5.119-2.835-7.519 20.795-1.358 37.993-5.637 51.594-12.837 13.428-7.109 24.697-15.585 33.806-25.428zm-435.6983.036c9.1031 9.828 20.3606 18.291 33.7724 25.392 13.6109 7.205 30.8241 11.485 51.6389 12.84-.931 2.399-1.877 4.904-2.834 7.517-40.0243 2.975-80.7871-24.51-85.232-37.885.8363-2.585 1.7234-5.21 2.6547-7.864z" fill="#DA3636"/><path fill-rule="evenodd" clip-rule="evenodd" d="M202.215 24.5768l1.749 3.1978c-9.027 4.8588-24.145 14.369-46.657 22.766-31.873 11.885-52.626 19.315-60.7808 31.2017-.002-.0007-11.0796 19.7827-24.2047 46.5117a52.9485 52.9485 0 01-3.11-2.238C82.3894 99.1621 93.534 79.2585 93.534 79.2585l.002.0007c8.155-11.8867 28.908-19.3167 60.78-31.2017 19.604-7.3124 33.602-15.4689 42.852-20.6627-.008-.0328-.011-.0498-.011-.0498 1.876-1.054 3.56-1.9878 5.058-2.7682z" fill="#F9F5F4"/><path fill-rule="evenodd" clip-rule="evenodd" d="M192.449 26.8472c-9.233 5.2034-22.705 12.8212-41.129 19.6934-31.873 11.885-52.6257 19.315-60.7802 31.2017-.0021-.0007-11.0796 19.7831-24.2047 46.5117a53.0455 53.0455 0 01-3.11-2.238C76.403 95.1619 87.5475 75.2585 87.5475 75.2585c8.1566-11.886 28.9095-19.316 60.7825-31.201 19.604-7.3124 33.601-15.4689 42.851-20.6628-.007-.0327-.01-.0497-.01-.0497l1.278 3.5022zm106.644-1.0397c.87.4771 1.791.9912 2.763 1.5375 0 0-.003.017-.01.0498 9.25 5.1939 23.247 13.3504 42.851 20.6627 31.873 11.885 52.626 19.315 60.78 31.2017.001-.0002.002-.0004.002-.0007 0 0 11.145 19.9035 24.323 46.7575a53.2476 53.2476 0 01-3.11 2.238c-13.125-26.729-24.203-46.5124-24.203-46.5124-.001.0003-.001.0005-.002.0007-8.154-11.8867-28.908-19.3167-60.78-31.2017-20.712-7.7254-35.165-16.3931-44.374-21.5139l1.76-3.2192z" fill="#F9F5F4"/><path fill-rule="evenodd" clip-rule="evenodd" d="M307.843 23.345s-.003.017-.011.0497c9.25 5.1939 23.247 13.3504 42.851 20.6628 31.873 11.885 52.626 19.315 60.781 31.2017.002-.0007 11.146 19.9027 24.324 46.7568a52.9116 52.9116 0 01-3.11 2.238c-13.125-26.7286-24.203-46.5124-24.203-46.5124-8.156-11.886-28.909-19.316-60.782-31.201-18.28-6.8185-31.685-14.371-40.912-19.571l1.062-3.6246z" fill="#F9F5F4"/><path fill-rule="evenodd" clip-rule="evenodd" d="M307.852 23.345C302.08 20.105 298.124 18 295.844 18c0 0 5.882 32.495-46.335 32.495-48.521 0-46.336-32.495-46.336-32.495-2.279 0-6.235 2.105-12.002 5.345 0 0 7.368 40.38 58.403 40.38 51.478 0 58.278-35.895 58.278-40.38z" fill="#141A52"/><path fill-rule="evenodd" clip-rule="evenodd" d="M413.584 238.323c-9.287 2.238-19.064 3.316-28.798 2.592-8.197-22.369-15.557-36.883-20.012-44.748v270.577s-21.102 6.71-55.867 11.111l-.544-.06c1.881-54.795 5.722-166.47 8.277-240.705 2.055-59.755 31.084-95.29 60.099-117.44-2.676 6.781-5.072 14.606-7 23.667 7.354 11.852 24.436 42.069 43.831 94.964.005.014.01.028.014.042zM190.717 477.795c-34.248-4.401-56.477-11.051-56.477-11.051V196.172c-4.456 7.867-11.813 22.379-20.009 44.743-9.633.716-19.3091-.332-28.511-2.523.0051-.032.0117-.065.0199-.097 19.3771-52.848 36.3051-83.066 43.6101-94.944-1.929-9.075-4.328-16.912-7.007-23.701 29.015 22.15 58.044 57.685 60.099 117.44 2.555 74.235 6.396 185.91 8.277 240.705h-.002z" fill="#000" fill-opacity=".1"/><path fill-rule="evenodd" clip-rule="evenodd" d="M293 121h32v30.551c0 1.503-.84 2.878-2.161 3.595-4.01 2.176-12.332 6.951-13.839 9.854-1.507-2.917-9.823-7.682-13.835-9.855-1.323-.716-2.165-2.092-2.165-3.597V121z" fill="#000"/><path fill-rule="evenodd" clip-rule="evenodd" d="M295 126h28v24.924c0 1.122-.622 2.148-1.606 2.686-3.383 1.847-11.038 6.245-12.394 8.89-1.355-2.658-9.007-7.046-12.391-8.891-.986-.537-1.609-1.564-1.609-2.687V126z" fill="#B29536"/><path fill-rule="evenodd" clip-rule="evenodd" d="M296 127h26v23.704c0 .746-.411 1.428-1.067 1.783-2.715 1.47-9.824 5.458-11.933 8.013-2.108-2.568-9.214-6.546-11.931-8.014-.657-.354-1.069-1.037-1.069-1.783V127z" fill="#fff"/><path fill-rule="evenodd" clip-rule="evenodd" d="M313 128l-.001 28.142c-1.869 1.273-3.202 2.142-3.999 3.108-.797-.971-2.13-1.843-4-3.117V128h8z" fill="#E4000E"/><path fill="#000" d="M304 150h10v5h-10z"/><path fill="#000" d="M304 150h10v5h-10z"/><path fill-rule="evenodd" clip-rule="evenodd" d="M303.007 131.114L305 130l1.426.732 2.574-.571 1.293.178-4.654 2.731 3.086 3.824 2.657-4.971a.9982.9982 0 01.882-.529H317l-3 9.051 4 4.949h-4.931L311 142.919l-.707.258.704 4.217h-1.277l-.72-4h-1.088l-.186 4h-1.461l.57-4-4.003 1.25-.832-.283 2.158-3.02-1.492-4.227.341-1.077v-4.923z" fill="#000"/><path fill-rule="evenodd" clip-rule="evenodd" d="M317 138.45v1h-5.5l-.5-1h6zm-1-2v1h-6l.5-1h5.5zm1-2v1h-6l.5-1h5.5zm1-2v1h-6l.5-1h5.5zM301.5 149c1.933 0 3.5-1.567 3.5-3.5s-1.567-3.5-3.5-3.5-3.5 1.567-3.5 3.5 1.567 3.5 3.5 3.5z" fill="#fff"/><path fill-rule="evenodd" clip-rule="evenodd" d="M301.5 148c1.381 0 2.5-1.119 2.5-2.5s-1.119-2.5-2.5-2.5-2.5 1.119-2.5 2.5 1.119 2.5 2.5 2.5z" fill="#E4000E"/></svg>