<?xml version="1.0" encoding="UTF-8"?><svg width="500" height="500" viewBox="0 0 500 500" xmlns="http://www.w3.org/2000/svg"><g fill="none" fill-rule="evenodd"><path d="M0 0h500v500H0z"/><path fill="#273293" d="M203.0033 109.223h93.6432V21.928h-93.6432z"/><path fill="#0D123E" d="M202.8636 32.228h93.4586v-14.2h-93.4586z"/><path d="M87.5475 75.2585s-40.7627 72.8-58.5475 127.77c4.445 13.375 45.2077 40.86 85.2322 37.885 13.3398-36.4 24.4596-52 24.4596-52s2.9633-95.085-51.1443-113.655m323.9252 0s40.7628 72.8 58.5475 127.77c-4.445 13.375-45.2077 40.86-85.2321 37.885-13.3399-36.4-24.4597-52-24.4597-52s-2.9633-95.085 51.1443-113.655" fill="#3B49CA"/><path d="M249.5111 57.7025c-50.0817 0-47.7981-39.469-48.7426-39.14-7.5158 2.6187-24.1326 14.9368-52.4385 25.495-31.8729 11.885-52.626 19.315-60.7825 31.2 11.1149 8.915 46.6944 28.97 46.6944 120.345v271.14s49.6576 14.855 114.885 14.855c68.9291 0 115.6484-14.855 115.6484-14.855v-271.14c0-91.375 35.5795-111.43 46.6994-120.345-8.1566-11.885-28.9096-19.315-60.7825-31.2-28.3599-10.5767-44.9818-22.9194-52.478-25.5106-.9273-.3184 4.1773 39.1556-48.703 39.1556z" fill="#3B49CA"/><path d="M249.5086 50.495c23.7311 0 35.4623-6.7117 41.1992-14.0345l3.1917.8393c45.2857 11.3388 71.5505 39.4268 71.5505 68.1606v68.8566c-.4552 6.6283-.7 13.7123-.7 21.2863v271.1413s-43.1625 13.7096-107.7345 14.788a478.517 478.517 0 01-7.8885.0649c-64.9013 0-114.3881-14.7068-114.8814-14.8539l.0044-361.2832c0-28.4516 25.7514-56.2699 70.2216-67.8175l5.219-1.3266c6.0373 7.3787 17.6223 14.1787 39.818 14.1787z" fill="#3844B7"/><path d="M467.3529 195.129c.9359 2.6665 1.8272 5.303 2.6673 7.8995-4.445 13.375-45.2077 40.86-85.2321 37.885a426.4238 426.4238 0 00-2.8354-7.5198c20.795-1.3576 37.9932-5.6366 51.5944-12.8371 13.4282-7.109 24.6968-15.5848 33.8058-25.4277zm-435.6982.036c9.1031 9.8275 20.3606 18.2914 33.7724 25.3916 13.611 7.2056 30.824 11.4856 51.6393 12.84a426.4196 426.4196 0 00-2.8342 7.5169c-40.0245 2.975-80.7873-24.51-85.2322-37.885.8363-2.5849 1.7234-5.2092 2.6547-7.8635z" fill="#DA3636"/><path d="M202.2147 24.5768l1.749 3.1978c-9.0267 4.8588-24.1451 14.369-46.657 22.766-31.8729 11.885-52.626 19.315-60.7804 31.2017-.002-.0007-11.0796 19.7832-24.2047 46.5116a52.8932 52.8932 0 01-3.11-2.2383C82.3894 99.162 93.534 79.2585 93.534 79.2585l.002.0007c8.1545-11.8867 28.9076-19.3167 60.7805-31.2017 19.604-7.3124 33.601-15.4689 42.8512-20.6627-.0075-.0328-.0106-.0498-.0106-.0498 1.8759-1.054 3.5602-1.9878 5.0576-2.7682z" fill="#F9F5F4"/><path d="M192.4495 26.8472c-9.2335 5.2034-22.7053 12.8212-41.1292 19.6934-31.873 11.885-52.626 19.315-60.7805 31.2017-.002-.0007-11.0795 19.7831-24.2046 46.5115a52.8192 52.8192 0 01-3.11-2.2382C76.403 95.1619 87.5474 75.2585 87.5474 75.2585c8.1566-11.886 28.9096-19.316 60.7825-31.201 19.604-7.3124 33.6011-15.4689 42.8513-20.6627a1.2403 1.2403 0 01-.0107-.0498l1.2789 3.5022zm106.6432-1.0397c.8701.4771 1.791.9912 2.7635 1.5375 0 0-.003.017-.0106.0498 9.2501 5.1938 23.2472 13.3503 42.8512 20.6627 31.8729 11.885 52.626 19.315 60.7804 31.2017l.002-.0007s11.1446 19.9034 24.3225 46.757a52.8188 52.8188 0 01-3.11 2.2383c-13.1252-26.7284-24.2027-46.5122-24.2027-46.5122l-.002.0007c-8.1545-11.8867-28.9076-19.3167-60.7804-31.2017-20.7115-7.7254-35.1648-16.3931-44.3737-21.514l1.7598-3.2191z" fill="#F9F5F4"/><path d="M307.8427 23.345s-.0031.017-.0107.0498c9.2502 5.1938 23.2473 13.3503 42.8512 20.6627 31.873 11.885 52.626 19.315 60.7805 31.2017.002-.0007 11.1465 19.9027 24.3244 46.7564a52.8188 52.8188 0 01-3.11 2.2382c-13.1251-26.7284-24.2026-46.5122-24.2026-46.5122-8.1566-11.886-28.9096-19.316-60.7825-31.201-18.28-6.8185-31.6849-14.371-40.912-19.571l1.0617-3.6246z" fill="#F9F5F4"/><path d="M307.8516 23.345c-5.772-3.24-9.728-5.345-12.0078-5.345 0 0 5.8817 32.495-46.3352 32.495-48.5202 0-46.3352-32.495-46.3352-32.495-2.2798 0-6.2358 2.105-12.0028 5.345 0 0 7.3683 40.38 58.4029 40.38 51.4785 0 58.2781-35.895 58.2781-40.38z" fill="#141A52"/><path d="M413.5843 238.3227c-9.2877 2.2382-19.0646 3.3161-28.7978 2.5926-8.1978-22.369-15.5572-36.883-20.0128-44.7484v270.5774s-21.1022 6.7098-55.8664 11.1104c-.1817-.0197-.363-.0396-.544-.0597 1.8808-54.795 5.7221-166.47 8.2763-240.705 2.0554-59.755 31.0847-95.29 60.099-117.44-2.6753 6.7806-5.0714 14.6063-6.9991 23.6673 7.354 11.8514 24.4358 42.0687 43.8307 94.964.005.014.0097.0277.014.0414zM190.7166 477.7953c-34.2478-4.4014-56.4763-11.051-56.4763-11.051V196.1721c-4.4558 7.8668-11.8138 22.3792-20.0097 44.7432-9.633.716-19.3087-.3323-28.5106-2.5238a1.113 1.113 0 01.0199-.0967c19.3773-52.8475 36.3054-83.0661 43.6098-94.9437-1.929-9.0753-4.3277-16.912-7.0064-23.7011 29.0144 22.15 58.0437 57.685 60.099 117.44 2.5543 74.235 6.3956 185.91 8.2763 240.7053h-.002z" fill-opacity=".1" fill="#000"/><path d="M293 121h32v30.569a4 4 0 01-2.1334 3.5378C314.8504 159.3364 310.2282 162.634 309 165c-1.228-2.3778-5.849-5.6759-13.8632-9.8943A4 4 0 01293 151.566V121z" fill="#000"/><path d="M295 126h28v24.9355a3 3 0 01-1.5916 2.6488c-7.1836 3.8195-11.3198 6.7914-12.4084 8.9157-1.0885-2.135-5.2237-5.1072-12.4057-8.9164A3 3 0 01295 150.9333V126z" fill="#B29536"/><path d="M296 127h26v23.7093a2 2 0 01-1.0633 1.767c-6.2992 3.3394-10.2782 6.014-11.9367 8.0237-1.6584-2.02-5.6366-4.6947-11.9347-8.0243A2 2 0 01296 150.7076V127z" fill="#FFF"/><path d="M313 128l-.0006 28.1415c-1.8692 1.273-3.2023 2.1426-3.9994 3.1085-.7971-.971-2.1303-1.8432-3.9995-3.1168L305 128h8z" fill="#E4000E"/><path fill="#000" d="M304 150h10v5h-10z"/><path fill="#000" d="M304 150h10v5h-10zm-.9928-18.8865L305 130l1.4257.7322 2.5743-.571 1.2928.1777-4.6536 2.7309 3.086 3.824 2.6564-4.9712a1 1 0 01.882-.5287H317l-3 9.051 4 4.949h-4.9312L311 142.9187l-.7072.2578.7037 4.2174h-1.2762l-.7203-4h-1.0881l-.1863 4h-1.461l.5706-4-4.0034 1.25-.8318-.2832 2.158-3.0194-1.492-4.2275.3412-1.077v-4.9233z"/><path d="M317 138.45v1h-5.5l-.5-1h6zm-1-2v1h-6l.5-1h5.5zm1-2v1h-6l.5-1h5.5zm1-2v1h-6l.5-1h5.5z" fill="#FFF"/><circle fill="#FFF" cx="301.5" cy="145.5" r="3.5"/><circle fill="#E4000E" cx="301.5" cy="145.5" r="2.5"/></g></svg>