<?xml version="1.0" encoding="UTF-8"?><svg width="500" height="500" viewBox="0 0 500 500" xmlns="http://www.w3.org/2000/svg"><g fill="none" fill-rule="evenodd"><path d="M0 0h500v500H0z"/><path fill="#DBA600" d="M203.0033 109.223h93.6432V21.928h-93.6432z"/><path fill="#116E39" d="M202.8636 32.228h93.4586v-14.2h-93.4586z"/><path d="M87.5475 75.2585s-40.7627 72.8-58.5475 127.77c4.445 13.375 45.2077 40.86 85.2322 37.885 13.3398-36.4 24.4596-52 24.4596-52s2.9633-95.085-51.1443-113.655m323.9252 0s40.7628 72.8 58.5475 127.77c-4.445 13.375-45.2077 40.86-85.2321 37.885-13.3399-36.4-24.4597-52-24.4597-52s-2.9633-95.085 51.1443-113.655" fill="#FBC002"/><path d="M249.5111 57.7025c-50.0817 0-47.7981-39.469-48.7426-39.14-7.5158 2.6187-24.1326 14.9368-52.4385 25.495-31.8729 11.885-52.626 19.315-60.7825 31.2 11.1149 8.915 46.6944 28.97 46.6944 120.345v271.14s49.6576 14.855 114.885 14.855c68.9291 0 115.6484-14.855 115.6484-14.855v-271.14c0-91.375 35.5795-111.43 46.6994-120.345-8.1566-11.885-28.9096-19.315-60.7825-31.2-28.3599-10.5767-44.9818-22.9194-52.478-25.5106-.9273-.3184 4.1773 39.1556-48.703 39.1556z" fill="#FBC002"/><path d="M467.3529 195.129c.9359 2.6665 1.8272 5.303 2.6673 7.8995-4.445 13.375-45.2077 40.86-85.2321 37.885a426.4238 426.4238 0 00-2.8354-7.5198c20.795-1.3576 37.9932-5.6366 51.5944-12.8371 13.4282-7.109 24.6968-15.5848 33.8058-25.4277zm-435.6982.036c9.1031 9.8275 20.3606 18.2914 33.7724 25.3916 13.611 7.2056 30.824 11.4856 51.6393 12.84a426.4196 426.4196 0 00-2.8342 7.5169c-40.0245 2.975-80.7873-24.51-85.2322-37.885.8363-2.5849 1.7234-5.2092 2.6547-7.8635zm276.1969-171.82c-5.772-3.24-9.728-5.345-12.0078-5.345 0 0 5.8817 32.495-46.3352 32.495-48.5202 0-46.3352-32.495-46.3352-32.495-2.2798 0-6.2358 2.105-12.0028 5.345 0 0 7.3683 40.38 58.4029 40.38 51.4785 0 58.2781-35.895 58.2781-40.38z" fill="#148B47"/><path d="M413.5843 238.3227c-9.2877 2.2382-19.0646 3.3161-28.7978 2.5926-8.1978-22.369-15.5572-36.883-20.0128-44.7484v270.5774s-21.1022 6.7098-55.8664 11.1104c-.1817-.0197-.363-.0396-.544-.0597 1.8808-54.795 5.7221-166.47 8.2763-240.705 2.0554-59.755 31.0847-95.29 60.099-117.44-2.6753 6.7806-5.0714 14.6063-6.9991 23.6673 7.354 11.8514 24.4358 42.0687 43.8307 94.964.005.014.0097.0277.014.0414zM190.7166 477.7953c-34.2478-4.4014-56.4763-11.051-56.4763-11.051V196.1721c-4.4558 7.8668-11.8138 22.3792-20.0097 44.7432-9.633.716-19.3087-.3323-28.5106-2.5238a1.113 1.113 0 01.0199-.0967c19.3773-52.8475 36.3054-83.0661 43.6098-94.9437-1.929-9.0753-4.3277-16.912-7.0064-23.7011 29.0144 22.15 58.0437 57.685 60.099 117.44 2.5543 74.235 6.3956 185.91 8.2763 240.7053h-.002z" fill-opacity=".06" fill="#000"/><path d="M309.552 120.0074c10.7476.2908 10.5642 9.0126 20.448 9.0126-1.4512 0-1.9703 6.4674-1.981 10.2317l-.0004 15.8136c0 16.7564-18.5946 11.1655-19.0154 17.9347-.4272-6.7692-19.0218-1.1783-19.0218-17.9347l-.0005-15.8136c-.0106-3.7643-.5297-10.2317-1.9809-10.2317 9.8838 0 9.7004-8.7218 20.448-9.0126l.548-.0074.556.0074z" fill="#1A4E8E"/><path d="M309.4362 122.0068c9.816.2664 9.5367 8.0766 18.5638 8.0766-1.3254 0-1.6876 6.106-1.6973 9.5547l-.0005 14.4881c0 15.3519-16.9146 10.18-17.3022 15.8738-.5012-5.4912-17.438-.522-17.438-15.8738l-.0005-14.4881c-.0097-3.4488-.236-9.5547-1.5615-9.5547 9.0271 0 8.6118-7.8102 18.428-8.0766l.5003-.0068.5079.0068z" fill="#FFD74C"/><path d="M294.314 145.9995L305.5 146l.0009 18.9995c-4.3466-1.179-11.1856-1.9458-11.1856-11.1404l-.0013-7.8596zm29.256 0l.0003 7.905c0 9.188-6.7576 9.9154-11.0704 11.095L312.5 146l11.07-.0005zm1.43-13.5897c-.7925 0-1.1761 4.822-1.3348 7.5902H312.5l.0011-14.4865c5.2313 1.6789 6.0095 6.8963 12.4989 6.8963zm-19.501-6.9303L305.5 140h-11.2563c-.1253-2.7682-.4512-7.5902-1.2437-7.5902 6.534 0 7.1934-5.2893 12.499-6.9303z" fill="#1A4E8E"/><path d="M308.9397 125l.4276.0062c.397.0118.7743.0394 1.134.0815L310.5 141.5l13.0994.0005a59.1607 59.1607 0 00-.0287 1.6677L323.57 144.5H310.5l-.0009 20.8528c-.9994.4597-1.4991.7805-1.4991.9626 0-.1818-.5-.4716-1.5-.8693V144.499h-13.186l.001-1.3308a82.808 82.808 0 00-.021-1.6687l13.206-.0005-.002-16.424c.325-.035.6647-.0583 1.0203-.0688l.4214-.0062z" fill="#008657"/><path fill="#F0F0F0" d="M301 135h16v16h-16z"/><path fill="#008657" d="M309 116.75l-1.4695.7725.2807-1.6362-1.1888-1.1588 1.6429-.2388L309 113l.7347 1.4887 1.643.2388-1.1889 1.1588.2807 1.6362zm16.5 6l-1.4695.7725.2807-1.6362-1.1888-1.1588 1.6429-.2388L325.5 119l.7347 1.4887 1.643.2388-1.1889 1.1588.2807 1.6362zm-33 0l-1.4695.7725.2807-1.6362-1.1888-1.1588 1.6429-.2388L292.5 119l.7347 1.4887 1.643.2388-1.1889 1.1588.2807 1.6362zm8.25-4l-1.4695.7725.2807-1.6362-1.1888-1.1588 1.6429-.2388L300.75 115l.7347 1.4887 1.643.2388-1.1889 1.1588.2807 1.6362zm16.5 0l-1.4695.7725.2807-1.6362-1.1888-1.1588 1.6429-.2388L317.25 115l.7347 1.4887 1.643.2388-1.1889 1.1588.2807 1.6362z"/></g></svg>