<?xml version="1.0" encoding="UTF-8"?><svg width="500" height="500" viewBox="0 0 500 500" xmlns="http://www.w3.org/2000/svg"><g fill="none" fill-rule="evenodd"><path d="M0 0h500v500H0z"/><path fill="#B11628" d="M203.0033 109.223h93.6432V21.928h-93.6432z"/><path fill="#393939" d="M202.8636 32.228h93.4586v-14.2h-93.4586z"/><path d="M87.5475 75.2585s-40.7627 72.8-58.5475 127.77c4.445 13.375 45.2077 40.86 85.2322 37.885 13.3398-36.4 24.4596-52 24.4596-52s2.9633-95.085-51.1443-113.655m323.9252 0s40.7628 72.8 58.5475 127.77c-4.445 13.375-45.2077 40.86-85.2321 37.885-13.3399-36.4-24.4597-52-24.4597-52s-2.9633-95.085 51.1443-113.655" fill="#C81B2F"/><path d="M249.5111 57.7025c-50.0817 0-47.7981-39.469-48.7426-39.14-7.5158 2.6187-24.1326 14.9368-52.4385 25.495-31.8729 11.885-52.626 19.315-60.7825 31.2 11.1149 8.915 46.6944 28.97 46.6944 120.345v271.14s49.6576 14.855 114.885 14.855c68.9291 0 115.6484-14.855 115.6484-14.855v-271.14c0-91.375 35.5795-111.43 46.6994-120.345-8.1566-11.885-28.9096-19.315-60.7825-31.2-28.3599-10.5767-44.9818-22.9194-52.478-25.5106-.9273-.3184 4.1773 39.1556-48.703 39.1556z" fill="#C81B2F"/><path d="M307.8516 23.345c-5.772-3.24-9.728-5.345-12.0078-5.345 0 0 5.8817 32.495-46.3352 32.495-48.5202 0-46.3352-32.495-46.3352-32.495-2.2798 0-6.2358 2.105-12.0028 5.345 0 0 7.3683 40.38 58.4029 40.38 51.4785 0 58.2781-35.895 58.2781-40.38z" fill="#3D3D3D"/><path d="M413.5843 238.3227c-9.2877 2.2382-19.0646 3.3161-28.7978 2.5926-8.1978-22.369-15.5572-36.883-20.0128-44.7484v270.5774s-21.1022 6.7098-55.8664 11.1104c-.1817-.0197-.363-.0396-.544-.0597 1.8808-54.795 5.7221-166.47 8.2763-240.705 2.0554-59.755 31.0847-95.29 60.099-117.44-2.6753 6.7806-5.0714 14.6063-6.9991 23.6673 7.354 11.8514 24.4358 42.0687 43.8307 94.964.005.014.0097.0277.014.0414zM190.7166 477.7953c-34.2478-4.4014-56.4763-11.051-56.4763-11.051V196.1721c-4.4558 7.8668-11.8138 22.3792-20.0097 44.7432-9.633.716-19.3087-.3323-28.5106-2.5238a1.113 1.113 0 01.0199-.0967c19.3773-52.8475 36.3054-83.0661 43.6098-94.9437-1.929-9.0753-4.3277-16.912-7.0064-23.7011 29.0144 22.15 58.0437 57.685 60.099 117.44 2.5543 74.235 6.3956 185.91 8.2763 240.7053h-.002z" fill-opacity=".1" fill="#000"/><path d="M308.031 168.0572L307 169.5c-2-4-14.3446-.1375-16-10.4625-1.6554-10.325 5.416-14.9656 4.036-19.9591-.92-3.329-2.2653-5.5219-4.036-6.5784l2-2c2.864.6667 5.864.3333 9-1 2.3041 1.3333 4.6375 2 7 2l.4166-.007c2.2203-.0737 4.4148-.7381 6.5834-1.993 2.9997 1.2754 5.8749 1.6358 8.6257 1.0813L325 130.5l2 2c-1.7707 1.0565-3.116 3.2493-4.036 6.5784-1.38 4.9935 5.6914 9.634 4.036 19.959-1.636 10.2037-13.711 6.5515-15.9252 10.3247L311 169.5l-1.031-1.4428-.969 1.9643-.969-1.9643z" fill="#253869"/><path d="M308.1505 166.0156l-.9037 1.2818c-1.7531-3.5536-12.5741-.122-14.0253-9.295-1.4511-9.173 4.4213-13.1628 3.7026-17.732-.4737-3.012-1.3605-5.6086-2.9508-7.0307l1.015-.8822c2.5106.5922 4.1467.2961 6.8957-.8885 2.0198 1.1846 4.8964 1.7769 6.9673 1.7769l.3652-.0062c1.9463-.0656 4.956-.6558 6.857-1.7707 2.6295 1.133 4.2465 1.381 6.6577.8885l1.2934.8884c-1.3225 1.3859-2.186 3.8607-2.784 7.0244-.858 4.539 4.989 8.5591 3.5379 17.732-1.4341 9.065-12.0189 5.8205-13.9597 9.1726l-.0656.1225-.9037-1.2818-.8495 1.7452-.8495-1.7452z" fill="#E41E25"/><rect fill="#FFF200" opacity=".8" x="304.5" y="138.5" width="14" height="24" rx="4"/><circle fill="#CFCFCF" cx="303.5" cy="155.5" r="6"/><path d="M309 116.5c7.5984 0 14.4066 3.4524 19 8.9038l-3.7852 3.0962c-3.7026-4.3229-9.1462-7.0536-15.2148-7.0536-6.0682 0-11.5115 2.7304-15.214 7.0528L290 125.4038c4.5934-5.4514 11.4016-8.9038 19-8.9038z" fill="#000" opacity=".5"/></g></svg>