<?xml version="1.0" encoding="UTF-8"?><svg width="500" height="500" viewBox="0 0 500 500" xmlns="http://www.w3.org/2000/svg"><g fill="none" fill-rule="evenodd"><path d="M0 0h500v500H0z"/><path fill="#D9D9D9" d="M203.0033 109.223h93.6432V21.928h-93.6432z"/><path fill="#202144" d="M202.8636 32.228h93.4586v-14.2h-93.4586z"/><path d="M87.5475 75.2585s-40.7627 72.8-58.5475 127.77c4.445 13.375 45.2077 40.86 85.2322 37.885 13.3398-36.4 24.4596-52 24.4596-52s2.9633-95.085-51.1443-113.655m323.9252 0s40.7628 72.8 58.5475 127.77c-4.445 13.375-45.2077 40.86-85.2321 37.885-13.3399-36.4-24.4597-52-24.4597-52s-2.9633-95.085 51.1443-113.655" fill="#E62C22"/><path d="M249.5111 57.7025c-50.0817 0-47.7981-39.469-48.7426-39.14-7.5158 2.6187-24.1326 14.9368-52.4385 25.495-31.8729 11.885-52.626 19.315-60.7825 31.2 11.1149 8.915 46.6944 28.97 46.6944 120.345v271.14s49.6576 14.855 114.885 14.855c68.9291 0 115.6484-14.855 115.6484-14.855v-271.14c0-91.375 35.5795-111.43 46.6994-120.345-8.1566-11.885-28.9096-19.315-60.7825-31.2-28.3599-10.5767-44.9818-22.9194-52.478-25.5106-.9273-.3184 4.1773 39.1556-48.703 39.1556z" fill="#E62C22"/><path d="M467.4614 195.302c.936 2.6666 1.8273 5.303 2.6674 7.8996-4.445 13.375-45.2077 40.86-85.2322 37.885a426.405 426.405 0 00-2.8354-7.5199c20.7951-1.3576 37.9933-5.6366 51.5945-12.837 13.4282-7.109 24.6968-15.5848 33.8057-25.4277zm-435.8067 0c9.1031 9.8275 20.3606 18.2914 33.7724 25.3916 13.611 7.2056 30.824 11.4856 51.6393 12.84a426.4198 426.4198 0 00-2.8342 7.5169c-40.0245 2.975-80.7873-24.51-85.2322-37.885.8363-2.5849 1.7234-5.2092 2.6547-7.8635z" fill="#35365F"/><path d="M307.8516 23.345c-5.772-3.24-9.728-5.345-12.0078-5.345 0 0 5.8817 32.495-46.3352 32.495-48.5202 0-46.3352-32.495-46.3352-32.495-2.2798 0-6.2358 2.105-12.0028 5.345 0 0 7.3683 40.38 58.4029 40.38 51.4785 0 58.2781-35.895 58.2781-40.38z" fill="#D0231A"/><path d="M413.5843 238.3227c-9.2877 2.2382-19.0646 3.3161-28.7978 2.5926-8.1978-22.369-15.5572-36.883-20.0128-44.7484v270.5774s-21.1022 6.7098-55.8664 11.1104c-.1817-.0197-.363-.0396-.544-.0597 1.8808-54.795 5.7221-166.47 8.2763-240.705 2.0554-59.755 31.0847-95.29 60.099-117.44-2.6753 6.7806-5.0714 14.6063-6.9991 23.6673 7.354 11.8514 24.4358 42.0687 43.8307 94.964.005.014.0097.0277.014.0414zM190.7166 477.7953c-34.2478-4.4014-56.4763-11.051-56.4763-11.051V196.1721c-4.4558 7.8668-11.8138 22.3792-20.0097 44.7432-9.633.716-19.3087-.3323-28.5106-2.5238a1.113 1.113 0 01.0199-.0967c19.3773-52.8475 36.3054-83.0661 43.6098-94.9437-1.929-9.0753-4.3277-16.912-7.0064-23.7011 29.0144 22.15 58.0437 57.685 60.099 117.44 2.5543 74.235 6.3956 185.91 8.2763 240.7053h-.002z" fill-opacity=".1" fill="#000"/><path fill="#B2221A" d="M202.8666 32.298h93.4586v-7.1h-93.4586z"/><path d="M295.8468 18.0265c1.7847 0 4.5968 1.29 8.503 3.4048-7.1737 24.4814-25.348 36.7213-54.5219 36.7213-29.263 0-47.5089-12.3148-54.7376-36.9443 3.6898-1.9827 6.3654-3.1818 8.0861-3.1818 0 0-2.185 32.495 46.3352 32.495 52.2169 0 46.3352-32.495 46.3352-32.495z" fill="#35365F"/><path d="M290.3722 155.635c-3.5783-9.8698 6.0887-15.8007 5.2588-20.6556-.5533-3.2367-2.097-6.2298-4.631-8.9794l4-5c1.7593.9655 3.901 1.4483 6.4251 1.4483 2.5242 0 5.0491-.4828 7.5749-1.4483l.5051.1867c2.3573.841 4.714 1.2616 7.0698 1.2616 2.3663 0 4.3966-.4243 6.0908-1.273L323 121l4 5c-2.534 2.7496-4.0777 5.7427-4.631 8.9794-.83 4.855 8.8371 10.7858 5.2588 20.6556-3.5403 9.7647-18.3089 6.438-18.6227 9.2714L309 165c0-3-15.0494.5047-18.6278-9.365z" fill="#3B4176"/><path d="M291.7393 154.7077c-3.3158-9.1454 6.1282-14.641 5.3591-19.1397-.769-4.4987-1.8025-6.7726-4.1506-9.3204l2.679-3.4467c1.6301.8947 4.0153 1.1556 6.3542 1.1556 2.339 0 4.6786-.4473 7.019-1.342 2.5487.9683 4.6505 1.342 7.019 1.342s4.9063-.3297 6.2932-1.1556l2.6717 3.4467c-2.348 2.5478-3.34 4.8217-4.109 9.3204-.769 4.4986 8.7016 9.9943 5.3858 19.1397-3.2804 9.0482-16.9652 5.9656-17.256 8.5911l-.0047.0867c0-2.7798-13.945.4677-17.2607-8.6778z" fill="#FFF"/><path d="M324.3699 153.912c-2.9211 8.4332-15.1069 5.5602-15.3658 8.0072l-.0042.0808c0-2.4372-10.9875.0965-14.749-6.689l25.2379-17.9072c1.2254 3.969 7.4467 9.1015 4.881 16.5082zM308.9999 124c2.2695.9025 4.2304 1.5661 6.3394 1.5661 2.0036 0 4.3614-.2488 5.651-.9337l.1945-.1118 1.6148 2.2718c-2.0909 2.3747-2.7923 4.6982-3.4771 8.891l-25.6926 18.2286c-2.9525-8.5239 5.6936-14.0356 5.0088-18.2285-.6848-4.193-1.4126-6.5164-3.5034-8.891l1.4942-2.2719c1.4516.8339 4.0238 1.0455 6.1065 1.0455 1.9438 0 3.9003-.6379 5.847-1.4009L309 124z" fill="#474E87"/><path d="M293.63 153.912c-2.9526-8.5239 5.6935-14.0356 5.0087-18.2285-.6848-4.193-1.4126-6.5164-3.5034-8.891l1.4942-2.2719c1.4516.8339 4.0238 1.0455 6.1065 1.0455S306.9159 124.834 309 124c2.2694.9025 4.2303 1.5661 6.3393 1.5661s4.6105-.2757 5.8455-1.0455l1.6148 2.2718c-2.0909 2.3747-2.7923 4.6982-3.4771 8.891l-25.6926 18.2286z" fill="#E70009"/></g></svg>