<?xml version="1.0" encoding="UTF-8"?><svg width="500" height="500" viewBox="0 0 500 500" fill="none" xmlns="http://www.w3.org/2000/svg"><path fill-rule="evenodd" clip-rule="evenodd" d="M203.003 109.223h93.643V21.928h-93.643v87.295z" fill="#D3B72C"/><path fill-rule="evenodd" clip-rule="evenodd" d="M202.864 32.2281h93.458v-14.2h-93.458v14.2z" fill="#EED34A"/><path fill-rule="evenodd" clip-rule="evenodd" d="M87.5475 75.2585S46.7848 148.059 29 203.029c4.4449 13.375 45.2077 40.86 85.232 37.885 13.34-36.4 24.46-52 24.46-52s2.963-95.0855-51.1445-113.6555zM411.473 75.2585s40.762 72.8005 58.547 127.7705c-4.445 13.375-45.208 40.86-85.232 37.885-13.34-36.4-24.46-52-24.46-52s-2.963-95.0855 51.145-113.6555z" fill="#F2D43B"/><path fill-rule="evenodd" clip-rule="evenodd" d="M249.511 57.7025c-50.082 0-47.798-39.4691-48.742-39.14-7.516 2.6187-24.133 14.9368-52.439 25.495-31.873 11.885-52.6259 19.315-60.7825 31.2 11.1149 8.915 46.6945 28.9695 46.6945 120.3445v271.14s49.658 14.856 114.885 14.856c68.929 0 115.648-14.856 115.648-14.856v-271.14c0-91.375 35.58-111.4295 46.7-120.3445-8.157-11.885-28.91-19.315-60.783-31.2-28.36-10.5767-44.982-22.9195-52.478-25.5087-.927-.3203 4.177 39.1537-48.703 39.1537z" fill="#F2D43B"/><path fill-rule="evenodd" clip-rule="evenodd" d="M75.0249 117.298c10.132-20.7497 17.9444-35.2448 17.9444-35.2448 7.8817-11.885 27.9367-19.315 58.7467-31.2001 22.869-8.8256 37.922-18.8494 46.498-23.4309l-1.152-7.2677c-8.7 4.3731-24.398 14.6974-48.738 23.7736-31.868 11.89-52.6209 19.3151-60.7725 31.2001 0 0-8.2313 14.7601-18.8573 35.8248 0 0-28.7057 57.334-39.6942 92.074 0 0 .4501 1.588 2.123 4.056 1.6729 2.468 2.8066 3.396 2.8066 3.396 12.5793-35.527 41.0953-93.181 41.0953-93.181zM423.964 117.322c-10.132-20.7498-17.958-35.2688-17.958-35.2688-7.882-11.8851-27.936-19.3151-58.747-31.2002-22.095-8.5271-36.506-18.0948-45.025-22.8311l2.17-6.5385c9.046 4.8685 24.029 14.1596 46.248 22.4446 31.867 11.8901 52.621 19.3151 60.772 31.2002 0 0 8.231 14.76 18.857 35.8248 18.389 36.305 31.635 66.996 39.738 92.074-.491 1.317-.977 2.346-1.457 3.088-.481.742-1.276 1.804-2.385 3.188-18.427-43.992-32.498-74.652-42.213-91.981z" fill="#3D3D3D"/><path fill-rule="evenodd" clip-rule="evenodd" d="M206.161 37.04c5.59 10.1343 17.488 20.6585 43.349 20.6585 27.106 0 38.976-10.3715 44.233-20.4391l-.011-.0027c45.26 11.3355 71.506 39.3368 71.506 67.9813v72.909l-.093 1.761-.032.688-.032.741c-.031.657-.058 1.322-.083 1.991l-.029.863c-.111 3.147-.175 6.39-.191 9.73l-.004 1.678v271.11l-.664.204c-5.925 1.786-50.836 14.651-114.981 14.651-65.228 0-114.885-14.855-114.885-14.855v-271.14c0-6.262-.167-12.189-.482-17.8v-72.531c0-28.5477 26.069-56.4565 71.047-67.8615l1.352-.3365z" fill="#E5C837"/><path d="M190.921 477.785c-8.684-1.112-16.598-2.37-23.578-3.628-4.123-.786-7.915-1.571-11.343-2.323V61.5525c9.102-7.9691 20.84-14.829 34.921-19.9285v436.161zM267.458 481.214c-5.912.225-12.028.349-18.329.349-5.655 0-11.194-.111-16.592-.315V55.8776c4.856 1.1561 10.474 1.8208 16.973 1.8208 6.93 0 12.865-.678 17.948-1.8557V481.214zM343.921 471.937c-9.083 1.936-20.887 4.091-34.921 5.87V41.9585c14.149 5.2404 25.89 12.2695 34.921 20.4119V471.937z" fill="#3D3D3D"/><path fill-rule="evenodd" clip-rule="evenodd" d="M467.353 195.129c.936 2.667 1.827 5.303 2.667 7.899-4.445 13.375-45.207 40.86-85.232 37.885-.958-2.613-1.904-5.119-2.835-7.519 20.795-1.358 37.993-5.637 51.594-12.837 13.428-7.109 24.697-15.585 33.806-25.428zM31.6547 195.165c9.1031 9.828 20.3606 18.291 33.7724 25.392 13.6109 7.205 30.8241 11.485 51.6389 12.84-.931 2.399-1.877 4.904-2.834 7.517-40.0243 2.975-80.7871-24.51-85.232-37.885.8363-2.585 1.7234-5.21 2.6547-7.864z" fill="#3D3D3D"/><path fill-rule="evenodd" clip-rule="evenodd" d="M307.852 23.345C302.08 20.105 298.124 18 295.844 18c0 0 5.881 32.495-46.335 32.495-48.521 0-46.336-32.495-46.336-32.495-2.279 0-6.235 2.105-12.002 5.345 0 0 7.368 40.38 58.402 40.38 51.479 0 58.279-35.895 58.279-40.38z" fill="#F8DC50"/><path fill-rule="evenodd" clip-rule="evenodd" d="M413.584 238.323c-9.287 2.238-19.064 3.316-28.798 2.592-8.197-22.369-15.557-36.883-20.012-44.748v270.577s-21.102 6.71-55.867 11.111l-.544-.06c1.881-54.795 5.722-166.47 8.277-240.705 2.055-59.755 31.084-95.29 60.099-117.44-2.676 6.781-5.072 14.606-7 23.667 7.354 11.852 24.436 42.069 43.831 94.964.005.014.01.028.014.042zM190.717 477.795c-34.248-4.401-56.477-11.051-56.477-11.051V196.172c-4.456 7.867-11.813 22.379-20.009 44.743-9.633.716-19.3091-.332-28.511-2.524a1.056 1.056 0 01.0199-.096c19.3771-52.848 36.3051-83.066 43.6101-94.944-1.929-9.075-4.328-16.912-7.007-23.701 29.015 22.15 58.044 57.685 60.099 117.44 2.555 74.235 6.396 185.91 8.277 240.705h-.002z" fill="#000" fill-opacity=".08"/><path fill-rule="evenodd" clip-rule="evenodd" d="M291.261 139.696v-6.261s6.261-5.218 17.739-5.218c11.479 0 17.739 5.218 17.739 5.218v6.261C326.739 164.739 309 171 309 171s-17.739-6.261-17.739-31.304z" fill="#3D3D3D"/><path fill-rule="evenodd" clip-rule="evenodd" d="M293.348 140.663v-5.65s5.524-4.709 15.652-4.709 15.652 4.709 15.652 4.709v5.65c0 22.6-15.652 28.25-15.652 28.25s-15.652-5.65-15.652-28.25z" fill="#F2F2F2"/><path d="M322.177 147.289C319.962 162.754 309 166.826 309 166.826s-10.962-4.072-13.178-19.537c3.221-.927 8.936-2.376 13.178-2.376 4.241 0 9.957 1.449 13.177 2.376z" fill="#C3A22F"/><path d="M295.435 136.591v5.039c0 2.037.139 3.92.388 5.659 3.22-.927 8.936-2.376 13.177-2.376s9.957 1.449 13.177 2.376c-2.21 15.425-13.121 19.516-13.177 19.537 0 0 13.565-5.039 13.565-25.196v-5.039s-4.787-4.2-13.565-4.2c-8.777 0-13.565 4.2-13.565 4.2z" fill="#E5BE37"/><path d="M297.522 137.42v3.529c0 1.427.118 2.746.328 3.964 2.725-.649 7.562-1.878 11.15-1.878 3.589 0 8.426 1.229 11.15 1.878 0 0 .268-2.412.328-3.964.054-1.377 0-3.529 0-3.529s-4.051-2.942-11.478-2.942-11.478 2.942-11.478 2.942z" fill="#F2F2F2"/><path fill-rule="evenodd" clip-rule="evenodd" d="M309.326 140.347c4.79 0 8.673-3.883 8.673-8.674 0-4.79-3.883-8.673-8.673-8.673s-8.674 3.883-8.674 8.673c0 4.791 3.884 8.674 8.674 8.674z" fill="#F2F2F2"/><path d="M309.316 129.505l-2.158 1.41.867 2.927h2.602l.867-2.927-2.178-1.41z" fill="#282828"/><path fill-rule="evenodd" clip-rule="evenodd" d="M309.326 140.347c4.79 0 8.673-3.883 8.673-8.674 0-4.79-3.883-8.673-8.673-8.673s-8.674 3.883-8.674 8.673c0 4.791 3.884 8.674 8.674 8.674zm7.71-8.674c0 1.623-.502 3.128-1.358 4.37l-.42-1.172-1.846.881-.891 1.856 1.196.404c-1.246.864-2.759 1.371-4.391 1.371-1.63 0-3.141-.505-4.386-1.368l1.19-.407-.891-1.856-1.845-.881-.41 1.187c-.863-1.245-1.368-2.756-1.368-4.385 0-.589.066-1.163.191-1.714l.671 1.012 1.555-1.328.38-2.024-1.5-.226c1.148-1.717 2.967-2.947 5.082-3.315l-.597 1.435 1.943.682 1.927-.682-.58-1.429c2.102.374 3.909 1.601 5.052 3.31l-1.719.225.38 2.024 1.555 1.328.892-.995c.123.546.188 1.114.188 1.697z" fill="#282828"/></svg>