<?xml version="1.0" encoding="UTF-8"?><svg height="500" viewBox="0 0 500 500" width="500" xmlns="http://www.w3.org/2000/svg"><g fill="none" fill-rule="evenodd"><path d="M0 0h500v500H0z"/><path d="M203.003 109.223h93.643V21.928h-93.643z" fill="#252525"/><path d="M202.864 32.228h93.458v-14.2h-93.458z" fill="#393939"/><g fill="#3d3d3d"><path d="M87.548 75.258S46.785 148.058 29 203.029c4.445 13.376 45.208 40.86 85.232 37.886 13.34-36.4 24.46-52 24.46-52s2.963-95.085-51.144-113.655M411.473 75.258s40.762 72.8 58.547 127.77c-4.445 13.376-45.208 40.86-85.232 37.886-13.34-36.4-24.46-52-24.46-52s-2.963-95.085 51.145-113.655"/><path d="M249.511 57.703c-50.082 0-47.798-39.47-48.742-39.14-7.516 2.618-24.133 14.936-52.439 25.495-31.873 11.885-52.626 19.315-60.782 31.2 11.114 8.915 46.694 28.97 46.694 120.345v271.14s49.658 14.855 114.885 14.855c68.929 0 115.648-14.855 115.648-14.855v-271.14c0-91.375 35.58-111.43 46.7-120.345-8.157-11.885-28.91-19.315-60.783-31.2-28.36-10.577-44.982-22.92-52.478-25.511-.927-.318 4.177 39.156-48.703 39.156z"/></g><path d="M365.24 178.15c-.302 5.5-.462 11.301-.462 17.422v271.14s-46.719 14.855-115.648 14.855c-65.227 0-114.885-14.855-114.885-14.855v-271.14c0-6.261-.167-12.188-.482-17.799v-72.531c0-28.836 26.598-57.02 72.417-68.202 5.595 10.126 17.495 20.632 43.334 20.632 27.082 0 38.955-10.352 44.22-20.411 45.26 11.335 71.505 39.336 71.505 67.98z" fill="#f66e3d"/><path d="M267.506 50.989l-.002 429.657c-5.914.228-12.033.354-18.338.354-5.657 0-11.197-.113-16.597-.319V51.041c4.848 1.172 10.455 1.846 16.944 1.846 6.954 0 12.902-.694 17.993-1.898zm76.493 6.908L344 471.27c-9.086 1.956-20.895 4.135-34.936 5.933l.001-440.15c14.178 5.352 25.926 12.532 34.934 20.844zM190.935 36.684v440.497a466.291 466.291 0 0 1-20.183-3.06A417.437 417.437 0 0 1 156 471.13V56.99c9.086-8.12 20.83-15.112 34.935-20.307z" fill="#3d3d3d"/><path d="M307.852 23.345C302.08 20.105 298.124 18 295.844 18c0 0 5.881 32.495-46.335 32.495-48.52 0-46.336-32.495-46.336-32.495-2.28 0-6.235 2.105-12.002 5.345 0 0 7.368 40.38 58.402 40.38 51.479 0 58.279-35.895 58.279-40.38z" fill="#3d3d3d"/><path d="M413.584 238.323c-9.287 2.238-19.064 3.316-28.798 2.592-8.197-22.369-15.557-36.883-20.012-44.748v270.577s-21.102 6.71-55.867 11.11l-.544-.059c1.881-54.795 5.722-166.47 8.277-240.705 2.055-59.755 31.084-95.29 60.099-117.44-2.676 6.78-5.072 14.606-7 23.667 7.354 11.852 24.436 42.069 43.831 94.964l.014.042zM190.717 477.795c-34.248-4.401-56.477-11.05-56.477-11.05V196.171c-4.456 7.867-11.813 22.38-20.01 44.743-9.632.716-19.308-.332-28.51-2.523.005-.033.012-.065.02-.097 19.377-52.848 36.305-83.066 43.61-94.944-1.93-9.075-4.328-16.912-7.007-23.701 29.015 22.15 58.044 57.685 60.1 117.44 2.554 74.235 6.395 185.91 8.276 240.705z" fill="#000" fill-opacity=".12"/><path d="M309.09 112c11.94 7.515 17.91 17.848 17.91 31s-5.97 23.485-17.91 31c-12.06-7.515-18.09-17.848-18.09-31s6.03-23.485 18.09-31z" fill="#3d3d3d"/><path d="M309.08 118c10.613 6.06 15.92 14.394 15.92 25s-5.307 18.94-15.92 25c-10.72-6.06-16.08-14.394-16.08-25s5.36-18.94 16.08-25z" fill="#fff"/><path d="M309.07 166c-6.654-3.955-10.948-8.963-12.882-15.022 4.027.526 8.055.789 12.083.789 4.324 0 8.853-.303 13.588-.908-1.895 6.112-6.158 11.16-12.79 15.141z" fill="#3d3d3d"/><path d="M309.07 120c8.881 5.333 13.516 12.577 13.903 21.735-5.137.844-10.006 1.265-14.61 1.265-4.448 0-8.894-.393-13.34-1.18.367-9.198 5.049-16.471 14.046-21.82z" fill="#ed6a00"/></g></svg>