<?xml version="1.0" encoding="UTF-8"?><svg width="500" height="500" viewBox="0 0 500 500" xmlns="http://www.w3.org/2000/svg"><g fill="none" fill-rule="evenodd"><path d="M0 0h500v500H0z"/><path fill="#D9D9D9" d="M203.0033 109.223h93.6432V21.928h-93.6432z"/><path fill="#33354A" d="M202.8636 32.228h93.4586v-14.2h-93.4586z"/><path d="M87.5475 75.2585s-40.7627 72.8-58.5475 127.77c4.445 13.375 45.2077 40.86 85.2322 37.885 13.3398-36.4 24.4596-52 24.4596-52s2.9633-95.085-51.1443-113.655m323.9252 0s40.7628 72.8 58.5475 127.77c-4.445 13.375-45.2077 40.86-85.2321 37.885-13.3399-36.4-24.4597-52-24.4597-52s-2.9633-95.085 51.1443-113.655" fill="#3E415A"/><path d="M249.5111 57.7025c-50.0817 0-47.7981-39.469-48.7426-39.14-7.5158 2.6187-24.1326 14.9368-52.4385 25.495-31.8729 11.885-52.626 19.315-60.7825 31.2 11.1149 8.915 46.6944 28.97 46.6944 120.345v271.14s49.6576 14.855 114.885 14.855c68.9291 0 115.6484-14.855 115.6484-14.855v-271.14c0-91.375 35.5795-111.43 46.6994-120.345-8.1566-11.885-28.9096-19.315-60.7825-31.2-28.3599-10.5767-44.9818-22.9194-52.478-25.5106-.9273-.3184 4.1773 39.1556-48.703 39.1556z" fill="#3E415A"/><path d="M113.8229 94.4353c7.2584 9.1944 12.4088 20.3528 16.0609 31.7331L78.5802 236.4382c-9.412-2.9013-18.145-6.8942-25.5916-11.2482L113.823 94.4353zm271.4682 0L446.1254 225.19c-7.4466 4.354-16.1796 8.3469-25.5916 11.2482l-51.3036-110.2698c3.652-11.3803 8.8025-22.5387 16.061-31.733zM219 50.4151v430.1227c-22.2137-1.5015-41.4765-4.4151-56-7.182V37.9961c19.534-8.7936 31.6608-17.3345 37.7715-19.4657.6857-.2368-.3301 20.5028 18.2285 31.8847zm118-11.9833v434.9174c-14.1897 2.7515-33.278 5.6494-56 7.1603V50.5558c19.0712-11.3525 16.5411-32.271 17.2171-32.0408 6.1977 2.1442 18.6333 10.9522 38.7829 19.9168z" fill="#F2F2F2"/><path d="M307.8516 23.345c-5.772-3.24-9.728-5.345-12.0078-5.345 0 0 5.8817 32.495-46.3352 32.495-48.5202 0-46.3352-32.495-46.3352-32.495-2.2798 0-6.2358 2.105-12.0028 5.345 0 0 7.3683 40.38 58.4029 40.38 51.4785 0 58.2781-35.895 58.2781-40.38z" fill="#3E415A"/><path d="M413.5843 238.3227c-9.2877 2.2382-19.0646 3.3161-28.7978 2.5926-8.1978-22.369-15.5572-36.883-20.0128-44.7484v270.5774s-21.1022 6.7098-55.8664 11.1104c-.1817-.0197-.363-.0396-.544-.0597 1.8808-54.795 5.7221-166.47 8.2763-240.705 2.0554-59.755 31.0847-95.29 60.099-117.44-2.6753 6.7806-5.0714 14.6063-6.9991 23.6673 7.354 11.8514 24.4358 42.0687 43.8307 94.964.005.014.0097.0277.014.0414zM190.7166 477.7953c-34.2478-4.4014-56.4763-11.051-56.4763-11.051V196.1721c-4.4558 7.8668-11.8138 22.3792-20.0097 44.7432-9.633.716-19.3087-.3323-28.5106-2.5238a1.113 1.113 0 01.0199-.0967c19.3773-52.8475 36.3054-83.0661 43.6098-94.9437-1.929-9.0753-4.3277-16.912-7.0064-23.7011 29.0144 22.15 58.0437 57.685 60.099 117.44 2.5543 74.235 6.3956 185.91 8.2763 240.7053h-.002z" fill-opacity=".1" fill="#000"/><g transform="translate(290 117)"><path d="M0 0h38v44c0 4.4183-3.5817 8-8 8H8c-4.4183 0-8-3.5817-8-8V0z" fill="#112548"/><path d="M2 2h34v42c0 3.3137-2.6863 6-6 6H8c-3.3137 0-6-2.6863-6-6V2z" fill="#FFF"/><path fill="#112548" opacity=".5" d="M14 46h10v3H14zM5 3h28v3H5zm27 28V16h3v15zM3 31V16h3v15z"/><path d="M7 7h24v34c0 2.2091-1.7909 4-4 4H11c-2.2091 0-4-1.7909-4-4V7z" fill="#112548"/><path d="M9 9h20v32c0 1.1046-.8954 2-2 2H11c-1.1046 0-2-.8954-2-2V9z" fill="#FFF"/><path fill="#112548" d="M25.5 43H23V19h-2.75v24h-2.5V19H15v24h-2.5V19H8v-2h22v2h-4.5z"/><circle fill="#112548" cx="19" cy="11.5" r="1.5"/><circle fill="#112548" cx="19" cy="15" r="1.5"/><circle fill="#112548" cx="13" cy="12.25" r="1.5"/><circle fill="#112548" cx="25" cy="12.25" r="1.5"/></g></g></svg>