<?xml version="1.0" encoding="utf-8"?><svg width="500" height="500" viewBox="0 0 500 500" fill="none" xmlns="http://www.w3.org/2000/svg"><path fill-rule="evenodd" clip-rule="evenodd" d="M203.003 109.223h93.644V21.928h-93.644v87.295z" fill="#D9D9D9"/><path fill-rule="evenodd" clip-rule="evenodd" d="M202.864 32.228h93.458v-14.2h-93.458v14.2z" fill="#393939"/><path fill-rule="evenodd" clip-rule="evenodd" d="M87.547 75.258S46.785 148.058 29 203.029c4.445 13.375 45.208 40.861 85.232 37.885 13.34-36.399 24.46-52 24.46-52s2.963-95.085-51.145-113.655z" fill="#F2F2F2"/><path fill-rule="evenodd" clip-rule="evenodd" d="M411.473 75.258s40.763 72.8 58.548 127.77c-4.445 13.375-45.208 40.86-85.233 37.885-13.339-36.4-24.459-52-24.459-52s-2.964-95.085 51.144-113.655z" fill="#3D3D3D"/><path fill-rule="evenodd" clip-rule="evenodd" d="M249.511 57.703c-50.082 0-47.798-39.47-48.743-39.14-7.516 2.618-24.132 14.936-52.438 25.494-31.873 11.886-52.626 19.316-60.783 31.2 11.115 8.915 46.695 28.971 46.695 120.346v271.14s49.657 14.855 114.885 14.855c68.929 0 115.648-14.855 115.648-14.855v-271.14c0-91.375 35.58-111.43 46.699-120.346-8.156-11.885-28.909-19.315-60.782-31.2-28.36-10.576-44.982-22.919-52.478-25.508-.927-.32 4.177 39.154-48.703 39.154z" fill="#3D3D3D"/><path fill-rule="evenodd" clip-rule="evenodd" d="M250 57.701v423.896h-.873c-65.227 0-114.885-14.854-114.885-14.854V196.17c-4.456 7.867-11.814 22.379-20.01 44.743-40.024 2.976-80.787-24.509-85.232-37.884 17.785-54.97 58.547-127.77 58.547-127.77v-.002c8.157-11.885 28.91-19.315 60.783-31.2 28.306-10.558 44.923-22.876 52.439-25.495.944-.329-1.34 39.14 48.742 39.14H250z" fill="#D94448"/><path fill-rule="evenodd" clip-rule="evenodd" d="M307.851 23.345c-5.772-3.24-9.728-5.345-12.007-5.345 0 0 5.881 32.495-46.336 32.495-48.52 0-46.335-32.495-46.335-32.495-2.28 0-6.236 2.105-12.003 5.345 0 0 7.369 40.38 58.403 40.38 51.479 0 58.278-35.895 58.278-40.38z" fill="#3D3D3D"/><path fill-rule="evenodd" clip-rule="evenodd" d="M413.584 238.323c-9.287 2.238-19.064 3.316-28.797 2.592-8.198-22.369-15.558-36.883-20.013-44.748v270.577s-21.102 6.71-55.866 11.111l-.544-.06c1.88-54.795 5.722-166.47 8.276-240.705 2.055-59.755 31.085-95.29 60.099-117.44-2.675 6.781-5.072 14.606-6.999 23.667 7.354 11.852 24.435 42.069 43.83 94.964l.014.042zM190.717 477.795c-34.248-4.401-56.476-11.051-56.476-11.051V196.172c-4.456 7.867-11.814 22.379-20.01 44.743-9.633.716-19.309-.332-28.51-2.523a1.01 1.01 0 01.02-.097c19.376-52.848 36.305-83.066 43.609-94.944-1.929-9.075-4.328-16.912-7.006-23.701 29.014 22.15 58.043 57.685 60.099 117.44 2.554 74.235 6.395 185.91 8.276 240.705h-.002z" fill="#000" fill-opacity=".1"/><path d="M291 125h36v36.333c0 2.859-2.417 5.178-5.397 5.304-5.113.216-12.089.798-12.603 2.363-.514-1.565-7.49-2.147-12.603-2.363-2.98-.126-5.397-2.445-5.397-5.304V125z" fill="#272727"/><path d="M303 116l.898 2.764h2.906l-2.351 1.708.898 2.764-2.351-1.708-2.351 1.708.898-2.764-2.351-1.708h2.906L303 116zm12 0l.898 2.764h2.906l-2.351 1.708.898 2.764-2.351-1.708-2.351 1.708.898-2.764-2.351-1.708h2.906L315 116z" fill="#EACE3B"/><path d="M320.854 166.671L291 130.524V125h9.182L327 157.472v3.861c0 2.859-2.417 5.178-5.397 5.304l-.749.034z" fill="#A03434"/><path opacity=".4" d="M301.637 141.351c.095-.771.778-1.351 1.589-1.351h11.548c.811 0 1.494.58 1.589 1.351l.592 4.817c.448 3.636-2.524 6.832-6.353 6.832h-3.204c-3.829 0-6.801-3.196-6.353-6.832l.592-4.817z" fill="#E4B641"/><path fill-rule="evenodd" clip-rule="evenodd" d="M301.778 138a2 2 0 00-1.986 1.766l-.741 6.299c-.56 4.756 3.156 8.935 7.945 8.935h4.007c4.789 0 8.505-4.179 7.946-8.935l-.741-6.299a2 2 0 00-1.987-1.766h-14.443zm1.448 2c-.811 0-1.494.58-1.589 1.351l-.592 4.817c-.448 3.636 2.524 6.832 6.353 6.832h3.204c3.829 0 6.801-3.196 6.353-6.832l-.592-4.817c-.095-.771-.778-1.351-1.589-1.351h-11.548z" fill="#E4B641"/><path opacity=".4" fill="#F2F2F2" d="M293 127h32v5h-32z"/></svg>