<svg xmlns="http://www.w3.org/2000/svg" width="500" height="500" fill="none" viewBox="0 0 500 500"><path fill="#D9D9D9" fill-rule="evenodd" d="M203 109.22h93.65v-87.3H203v87.3Z" clip-rule="evenodd"/><path fill="#9F3434" fill-rule="evenodd" d="M202.86 32.23h93.46v-14.2h-93.46v14.2Z" clip-rule="evenodd"/><path fill="#133E7D" fill-rule="evenodd" d="M202.87 32.3h93.46v-7.1h-93.46v7.1Z" clip-rule="evenodd"/><path fill="#EEE" fill-rule="evenodd" d="M87.55 75.26S46.78 148.06 29 203.03c4.44 13.37 45.2 40.86 85.23 37.88 13.34-36.4 24.46-52 24.46-52s2.97-95.08-51.14-113.65ZM411.47 75.26s40.76 72.8 58.55 127.77c-4.44 13.37-45.2 40.86-85.23 37.88-13.34-36.4-24.46-52-24.46-52s-2.97-95.08 51.14-113.65Z" clip-rule="evenodd"/><path fill="#EEE" fill-rule="evenodd" d="M249.51 57.7c-50.08 0-47.8-39.47-48.74-39.14-7.52 2.62-24.14 14.94-52.44 25.5-31.87 11.88-52.63 19.31-60.78 31.2 11.11 8.91 46.7 28.97 46.7 120.34v271.14s49.65 14.86 114.88 14.86c68.93 0 115.64-14.86 115.64-14.86V195.6c0-91.37 35.58-111.43 46.7-120.34-8.15-11.89-28.9-19.32-60.78-31.2-28.36-10.58-44.98-22.92-52.48-25.51-.92-.32 4.18 39.15-48.7 39.15Z" clip-rule="evenodd"/><path fill="#1B4B94" fill-rule="evenodd" d="M467.35 195.13c.94 2.67 1.83 5.3 2.67 7.9-4.44 13.37-45.2 40.86-85.23 37.88-.96-2.61-1.9-5.12-2.84-7.52 20.8-1.35 38-5.63 51.6-12.83 13.43-7.11 24.7-15.59 33.8-25.43ZM31.65 195.16c9.1 9.83 20.37 18.3 33.78 25.4 13.6 7.2 30.82 11.48 51.64 12.84-.93 2.4-1.88 4.9-2.84 7.51-40.02 2.98-80.79-24.5-85.23-37.88.84-2.59 1.72-5.21 2.65-7.87Z" clip-rule="evenodd"/><path fill="#C64545" fill-rule="evenodd" d="m468.54 198.57-.13.14c-11.32 12.1-23.95 21.25-37.89 27.46-14.45 6.44-30.3 9.7-47.58 9.8a401.9 401.9 0 0 0-2.13-5.48c17.15-.14 32.9-3.4 47.27-9.8 14.15-6.3 26.95-15.64 38.4-28.01.71 1.98 1.4 3.94 2.06 5.9ZM71.15 220.7c14.3 6.36 30 9.63 47.06 9.79l-.85 2.15-1.28 3.33c-17.19-.12-32.98-3.4-47.37-9.8-14.06-6.26-26.78-15.51-38.17-27.77.66-1.95 1.35-3.91 2.06-5.89 11.49 12.46 24.34 21.85 38.55 28.18Z" clip-rule="evenodd"/><path fill="#1B4B94" fill-rule="evenodd" d="M307.85 23.34c-5.77-3.23-9.73-5.34-12-5.34 0 0 5.88 32.5-46.34 32.5-48.52 0-46.34-32.5-46.34-32.5-2.28 0-6.23 2.1-12 5.34 0 0 7.37 40.39 58.4 40.39 51.48 0 58.28-35.9 58.28-40.38Z" clip-rule="evenodd"/><path fill="#C64545" fill-rule="evenodd" d="M295.85 18.03c1.78 0 4.6 1.29 8.5 3.4-7.17 24.48-25.35 36.72-54.52 36.72-29.27 0-47.51-12.31-54.74-36.94 3.69-1.98 6.37-3.18 8.09-3.18 0 0-2.19 32.5 46.33 32.5 52.22 0 46.34-32.5 46.34-32.5Z" clip-rule="evenodd"/><path fill="#000" fill-opacity=".08" fill-rule="evenodd" d="M413.58 238.32a93.76 93.76 0 0 1-28.8 2.6c-8.2-22.37-15.55-36.89-20-44.75v270.57s-21.1 6.71-55.87 11.12c-.18-.03-.37-.05-.55-.06l8.28-240.71c2.06-59.75 31.09-95.29 60.1-117.44a148.7 148.7 0 0 0-7 23.67c7.35 11.85 24.44 42.07 43.83 94.96l.01.04ZM190.72 477.8c-34.25-4.4-56.48-11.06-56.48-11.06V196.17c-4.46 7.87-11.81 22.38-20 44.75-9.64.71-19.32-.34-28.52-2.53l.02-.1c19.38-52.84 36.3-83.06 43.61-94.94a148.64 148.64 0 0 0-7-23.7c29 22.15 58.04 57.69 60.1 117.44l8.27 240.7Z" clip-rule="evenodd"/><path fill="#1B4B93" d="M321.53 122.98A23.8 23.8 0 0 1 309 119s-9.55 7.1-21.6 2.36c-.92 8.04-.2 14.79 1.51 20.45l32.62-18.83ZM329.84 138.97l-32.1 18.53A56.91 56.91 0 0 0 309 167c6.1-4.06 17.22-12.17 20.84-28.03Z"/><path fill="#F4A0A0" d="M296.01 155.44a41.04 41.04 0 0 1-6.23-11.06l38.51-22.24c.76-.22 1.53-.47 2.3-.78.61 5.26.51 9.97-.11 14.18L296 155.44Z"/></svg>