<svg xmlns="http://www.w3.org/2000/svg" width="501" height="501" fill="none"><path fill="#C8C8C8" fill-rule="evenodd" d="M203.66 110.12h93.64v-87.3h-93.64v87.3Z" clip-rule="evenodd"/><path fill="#E3E3E3" fill-rule="evenodd" d="M203.52 33.13h93.46v-14.2h-93.46v14.2Z" clip-rule="evenodd"/><path fill="#282828" fill-rule="evenodd" d="M88.2 76.16s-40.76 72.8-58.55 127.77c4.45 13.37 45.21 40.86 85.24 37.88 13.34-36.4 24.46-52 24.46-52S142.3 94.73 88.2 76.16Zm323.93 0s40.76 72.8 58.54 127.77c-4.44 13.37-45.2 40.86-85.23 37.88-13.34-36.4-24.46-52-24.46-52s-2.96-95.08 51.15-113.65Z" clip-rule="evenodd"/><path fill="#282828" fill-rule="evenodd" d="M250.16 58.6c-50.08 0-47.8-39.47-48.74-39.14-7.51 2.62-24.13 14.94-52.44 25.5-31.87 11.88-52.62 19.31-60.78 31.2 11.12 8.91 46.7 28.97 46.7 120.34v271.14s49.65 14.86 114.88 14.86c68.93 0 115.65-14.86 115.65-14.86V196.5c0-91.37 35.58-111.43 46.7-120.34-8.16-11.89-28.91-19.32-60.78-31.2-28.36-10.58-44.99-22.92-52.48-25.51-.93-.32 4.18 39.15-48.7 39.15Z" clip-rule="evenodd"/><path fill="#545454" fill-rule="evenodd" d="M266.11 57.17c15.68-3.1 23.75-10.75 27.94-18.37v441.65a488 488 0 0 1-27.94 1.77V57.17Zm58.87-23.88a245.79 245.79 0 0 0 26.37 11.66l1.57.59v425.44a385.04 385.04 0 0 1-27.94 5.55V33.29Zm-89.8 448.96c-9.8-.33-19.15-.96-27.93-1.8V38.7c4.47 7.69 12.68 15.44 27.93 18.52v425.03Zm-58.86-5.74a430.28 430.28 0 0 1-27.94-5.43V45.18l.6-.23a246.7 246.7 0 0 0 27.34-12.16v443.72Z" clip-rule="evenodd"/><path fill="#3D3D3D" fill-rule="evenodd" d="M468.12 196.2c.93 2.67 1.82 5.3 2.66 7.9-4.44 13.38-45.2 40.86-85.23 37.89-.96-2.62-1.9-5.12-2.84-7.52 20.8-1.36 38-5.64 51.6-12.84 13.43-7.1 24.7-15.59 33.8-25.43Zm-435.82 0c9.11 9.83 20.37 18.3 33.78 25.4 13.61 7.2 30.83 11.48 51.64 12.83-.93 2.4-1.88 4.9-2.83 7.52-40.03 2.98-80.8-24.5-85.24-37.88.84-2.59 1.73-5.21 2.66-7.87Z" clip-rule="evenodd"/><path fill="#545454" fill-rule="evenodd" d="M308.5 24.25c-5.77-3.24-9.72-5.35-12-5.35 0 0 5.88 32.5-46.34 32.5-48.52 0-46.33-32.5-46.33-32.5-2.28 0-6.24 2.1-12 5.35 0 0 7.36 40.38 58.4 40.38 51.48 0 58.28-35.9 58.28-40.38Z" clip-rule="evenodd"/><path fill="#000" fill-opacity=".1" fill-rule="evenodd" d="M414.24 239.22a93.73 93.73 0 0 1-28.8 2.6c-8.2-22.37-15.56-36.89-20.01-44.75v270.58s-21.1 6.7-55.87 11.1l-.54-.05L317.3 238c2.05-59.76 31.08-95.3 60.1-117.45a148.55 148.55 0 0 0-7 23.67c7.35 11.85 24.43 42.07 43.83 94.96v.04ZM191.37 478.7c-34.25-4.4-56.47-11.06-56.47-11.06V197.07c-4.46 7.87-11.82 22.38-20.01 44.75a93.6 93.6 0 0 1-28.52-2.53l.02-.1c19.38-52.84 36.31-83.06 43.61-94.94a148.63 148.63 0 0 0-7-23.7c29 22.15 58.04 57.69 60.1 117.45 2.55 74.24 6.4 185.91 8.27 240.7Z" clip-rule="evenodd"/><path fill="#282828" fill-rule="evenodd" d="M310.65 164.9a22 22 0 1 0 0-44 22 22 0 0 0 0 44Z" clip-rule="evenodd"/><path fill="#3D3D3D" fill-rule="evenodd" d="M310.65 162.9a20 20 0 1 0 0-40 20 20 0 0 0 0 40Z" clip-rule="evenodd"/><path fill="#C1C1C1" fill-rule="evenodd" d="M310.65 158.9a16 16 0 1 0 0-32 16 16 0 0 0 0 32Z" clip-rule="evenodd"/><path fill="#fff" fill-rule="evenodd" d="M310.65 155.9a13 13 0 1 0 0-26 13 13 0 0 0 0 26Z" clip-rule="evenodd"/></svg>