<?xml version="1.0" encoding="UTF-8"?><svg width="500" height="500" viewBox="0 0 500 500" xmlns="http://www.w3.org/2000/svg"><g fill="none" fill-rule="evenodd"><path d="M0 0h500v500H0z"/><path fill="#0E4584" d="M203.0033 109.223h93.6432V21.928h-93.6432z"/><path fill="#BD1D2D" d="M202.8636 32.228h93.4586v-14.2h-93.4586z"/><path d="M87.5475 75.2585s-40.7627 72.8-58.5475 127.77c4.445 13.375 45.2077 40.86 85.2322 37.885 13.3398-36.4 24.4596-52 24.4596-52s2.9633-95.085-51.1443-113.655m323.9252 0s40.7628 72.8 58.5475 127.77c-4.445 13.375-45.2077 40.86-85.2321 37.885-13.3399-36.4-24.4597-52-24.4597-52s-2.9633-95.085 51.1443-113.655" fill="#DC2537"/><path d="M249.5111 57.7025c-50.0817 0-47.7981-39.469-48.7426-39.14-7.5158 2.6187-24.1326 14.9368-52.4385 25.495-31.8729 11.885-52.626 19.315-60.7825 31.2 11.1149 8.915 46.6944 28.97 46.6944 120.345v271.14s49.6576 14.855 114.885 14.855c68.9291 0 115.6484-14.855 115.6484-14.855v-271.14c0-91.375 35.5795-111.43 46.6994-120.345-8.1566-11.885-28.9096-19.315-60.7825-31.2-28.3599-10.5767-44.9818-22.9194-52.478-25.5106-.9273-.3184 4.1773 39.1556-48.703 39.1556z" fill="#1862B9"/><path d="M267.4586 55.8469l-.0011 425.3728a480.7024 480.7024 0 01-18.3305.3498c-5.6546 0-11.1921-.1116-16.5905-.3156l-.0008-425.3727c4.8574 1.1564 10.4754 1.8213 16.9754 1.8213 6.9305 0 12.865-.678 17.9475-1.8556zm41.9064 421.92l-.0009-453.5147 3.8386 2.158c7.7844 4.3507 18.0421 9.8564 31.0827 15.1522l.0005 430.3026-1.3443.2853c-8.865 1.8645-20.2 3.9097-33.5766 5.6166zM190.629 23.705v454.049a470.5072 470.5072 0 01-19.8831-2.9903l-2.0666-.382c-4.762-.892-9.1026-1.7875-12.9712-2.64l-.0006-430.5763c15.4349-6.3478 26.8993-12.9472 34.9216-17.4602z" fill="#DC2537"/><path d="M467.3529 195.129c.9359 2.6665 1.8272 5.303 2.6673 7.8995-4.445 13.375-45.2077 40.86-85.2321 37.885a426.4238 426.4238 0 00-2.8354-7.5198c20.795-1.3576 37.9932-5.6366 51.5944-12.8371 13.4282-7.109 24.6968-15.5848 33.8058-25.4277zm-435.6982.036c9.1031 9.8275 20.3606 18.2914 33.7724 25.3916 13.611 7.2056 30.824 11.4856 51.6393 12.84a426.4196 426.4196 0 00-2.8342 7.5169c-40.0245 2.975-80.7873-24.51-85.2322-37.885.8363-2.5849 1.7234-5.2092 2.6547-7.8635z" fill="#F2F2F2"/><path d="M75.0249 117.2983c10.132-20.75 17.9444-35.2452 17.9444-35.2452 7.8821-11.885 27.9368-19.315 58.747-31.2001 29.3586-11.33 45.8346-24.6347 52.265-25.8647-.6784-4.5-.7982-6.8825-.8046-6.9706-5.9266 0-22.9798 14.0252-54.8527 25.9103-31.8679 11.89-52.621 19.315-60.7725 31.2001 0 0-8.2313 14.76-18.8573 35.8252C49.557 149.1759 36.3257 179.8672 29 203.0272c.3 1.0583 1.0077 2.41 2.123 4.0553 1.1153 1.6453 2.0508 2.7774 2.8066 3.3964 8.3862-23.6844 22.0846-54.7446 41.0953-93.1806zm348.9401.0239c-10.1321-20.75-17.9577-35.269-17.9577-35.269-7.8822-11.8851-27.9368-19.3151-58.747-31.2002-29.3587-11.33-45.149-24.4971-51.5795-25.7271.6785-4.5.3247-6.5048.1889-7.0384 5.9266 0 22.91 13.9554 54.7828 25.8405 31.868 11.89 52.621 19.315 60.7725 31.2001 0 0 8.2314 14.76 18.8574 35.8252 18.3887 36.3044 31.6346 66.9957 39.7378 92.0739-.4912 1.317-.9771 2.3461-1.4577 3.0877s-1.2755 1.8042-2.3847 3.1878c-18.4273-43.992-32.4983-74.652-42.2128-91.9805z" fill="#DC2537"/><path d="M467.3529 195.129c.9359 2.6665 1.8272 5.303 2.6673 7.8995-4.445 13.375-45.2077 40.86-85.2321 37.885a426.4238 426.4238 0 00-2.8354-7.5198c20.795-1.3576 37.9932-5.6366 51.5944-12.8371 13.4282-7.109 24.6968-15.5848 33.8058-25.4277zm-435.6982.036c9.1031 9.8275 20.3606 18.2914 33.7724 25.3916 13.611 7.2056 30.824 11.4856 51.6393 12.84a426.4196 426.4196 0 00-2.8342 7.5169c-40.0245 2.975-80.7873-24.51-85.2322-37.885.8363-2.5849 1.7234-5.2092 2.6547-7.8635z" fill="#152261"/><path d="M307.8516 23.345c-5.772-3.24-9.728-5.345-12.0078-5.345 0 0 5.8817 32.495-46.3352 32.495-48.5202 0-46.3352-32.495-46.3352-32.495-2.2798 0-6.2358 2.105-12.0028 5.345 0 0 7.3683 40.38 58.4029 40.38 51.4785 0 58.2781-35.895 58.2781-40.38z" fill="#DC2537"/><path d="M413.5843 238.3227c-9.2877 2.2382-19.0646 3.3161-28.7978 2.5926-8.1978-22.369-15.5572-36.883-20.0128-44.7484v270.5774s-21.1022 6.7098-55.8664 11.1104c-.1817-.0197-.363-.0396-.544-.0597 1.8808-54.795 5.7221-166.47 8.2763-240.705 2.0554-59.755 31.0847-95.29 60.099-117.44-2.6753 6.7806-5.0714 14.6063-6.9991 23.6673 7.354 11.8514 24.4358 42.0687 43.8307 94.964.005.014.0097.0277.014.0414zM190.7166 477.7953c-34.2478-4.4014-56.4763-11.051-56.4763-11.051V196.1721c-4.4558 7.8668-11.8138 22.3792-20.0097 44.7432-9.633.716-19.3087-.3323-28.5106-2.5238a1.113 1.113 0 01.0199-.0967c19.3773-52.8475 36.3054-83.0661 43.6098-94.9437-1.929-9.0753-4.3277-16.912-7.0064-23.7011 29.0144 22.15 58.0437 57.685 60.099 117.44 2.5543 74.235 6.3956 185.91 8.2763 240.7053h-.002z" fill-opacity=".1" fill="#000"/><g transform="translate(294.9955 120.9998)"><path d="M.0096 5.0002c1.4144 0 2.506-.9868 3.2747-2.9603C6.8256.675 10.3975-.005 14 0c3.6025.005 7.2048.695 10.807 2.0696.7535 1.9537 1.8179 2.9306 3.193 2.9306v18c0 12.48-8.6109 17.0908-13.9952 21-5.3843-3.9595-14.3388-8.5181-13.9952-21v-18z" fill="#161616"/><path d="M1.0134 5.773c1.3134 0 2.327-.9419 3.0408-2.8257 3.2883-1.3027 6.6051-1.9518 9.9503-1.9471 3.3451.0048 6.6901.6633 10.035 1.9755.6997 1.8649 1.688 2.7973 2.965 2.7973v17.1818c0 11.9127-7.9959 16.3139-12.9956 20.0454C9.0092 39.2207.6943 34.8693 1.0134 22.9548V5.773z" fill="#FFF"/><path d="M1.0134 5.773c4.3274-1.024 8.6576-1.536 12.991-1.536 4.3334 0 8.6667.512 13 1.5361v17.1818c0 11.9127-7.9958 16.3139-12.9955 20.0453C9.0092 39.2207.6943 34.8693 1.0134 22.9548V5.773z" fill="#0062AA"/><path d="M14.0045 4.2369c.6667 0 1.3334.0121 2.0002.0364L16.0045 41h-4V4.2733a55.0222 55.0222 0 012-.0364zm-6.0047.328l-.0001 33.9108c-1.4499-1.2525-2.8443-2.6917-4.0014-4.4239l.0007-28.904a56.6432 56.6432 0 014.0008-.583zm16.0048.581l.0007 28.7292c-1.1556 1.795-2.5487 3.28-4.001 4.5656L20.004 4.564a56.7801 56.7801 0 014.0005.5818z" fill="#E41D11"/><path d="M27.0048 5.773l-.0003 17.1818c0 11.9127-7.9959 16.3139-12.9956 20.0453-3.3573-2.5379-8.2095-5.3337-10.9384-10.5042a24.417 24.417 0 01-.066-1.7957c0-13.1602 10.5753-23.9454 24.0003-24.9272z" fill="#FFF"/><path d="M6.0042 37.7882c.065-14.0838 7.8598-24.5698 20.718-28.3575l1.2826-.3779-9.5703 17.7496L7.4262 38.011l-1.422-.2227z" fill="#161616" fill-rule="nonzero"/><path d="M27.0048 10.3958l-.0003 12.559c0 8.7394-4.3034 13.4362-8.5702 16.7916l.0002-15.3598 8.5703-13.9908z" fill="#E41D11"/><path d="M14.4736 17.8351l.2446-.2522c4.9136 2.4634 8.2863 7.5465 8.2863 13.4173 0 1.9539-.3736 3.8206-1.0533 5.5324-2.543 2.7882-5.5777 4.7028-7.9423 6.4675-2.0512-1.5505-4.6604-3.1974-7.0025-5.4232l-.0022.216c.0379-8.1982 2.7482-15.0113 7.4694-19.9578z" fill="#56AD3F"/><circle fill="#EAEAEA" cx="12.5045" cy="35.5002" r="5.5"/><path d="M27.0038 10.3902l.0007 2.61c0 8.8365-7.1635 16-16 16-.9367 0-1.8545-.0805-2.747-.235 2.6566-9.1408 9.3903-15.6186 18.7463-18.375z" fill="#FE0"/><path d="M14.7182 17.5829c3.093 1.5506 5.5753 4.1393 6.9903 7.309-2.8353 2.5542-6.5882 4.1083-10.704 4.1083-.9367 0-1.8545-.0805-2.747-.235 1.191-4.1 3.2032-7.6645 5.9043-10.5975l.3118-.3326.2446-.2522z" fill="#FFF"/></g></g></svg>