<svg xmlns="http://www.w3.org/2000/svg" width="501" height="501" fill="none"><path fill="#EBB321" fill-rule="evenodd" d="M203.66 110.1h93.64V22.8h-93.64v87.3Z" clip-rule="evenodd"/><path fill="#FFC324" fill-rule="evenodd" d="M203.52 33.1h93.46V18.9h-93.46v14.2Z" clip-rule="evenodd"/><path fill="#FCD81F" fill-rule="evenodd" d="M88.2 76.14s-40.76 72.8-58.55 127.77c4.45 13.37 45.21 40.86 85.24 37.88 13.34-36.4 24.46-52 24.46-52S142.3 94.71 88.2 76.14Zm323.93 0s40.76 72.8 58.54 127.77c-4.44 13.37-45.2 40.86-85.23 37.88-13.34-36.4-24.46-52-24.46-52s-2.96-95.08 51.15-113.65Z" clip-rule="evenodd"/><path fill="#FCD81F" fill-rule="evenodd" d="M250.16 58.58c-50.08 0-47.8-39.47-48.74-39.14-7.51 2.62-24.13 14.94-52.44 25.5-31.87 11.88-52.62 19.31-60.78 31.2 11.12 8.91 46.7 28.97 46.7 120.34v271.14s49.65 14.86 114.88 14.86c68.93 0 115.65-14.86 115.65-14.86V196.48c0-91.37 35.58-111.43 46.7-120.34-8.16-11.89-28.91-19.32-60.78-31.2-28.36-10.58-44.99-22.92-52.48-25.51-.93-.32 4.18 39.15-48.7 39.15Z" clip-rule="evenodd"/><path fill="#FFC324" fill-rule="evenodd" d="M111.83 99.3c45.82-6.28 91.93-9.42 138.33-9.42 46.13 0 92.27 3.1 138.42 9.3-7.33 10.5-14.45 25.53-18.81 47.66a1039.12 1039.12 0 0 0-119.6-6.96c-39.88 0-79.74 2.34-119.6 7.04-4.34-22.1-11.43-37.12-18.74-47.62Zm23.07 102.1c38.22-4.35 76.64-6.52 115.26-6.52 38.42 0 76.84 2.15 115.27 6.45v50.02a1037.93 1037.93 0 0 0-115.27-6.47 1021 1021 0 0 0-115.26 6.54V201.4Zm0 105c38.22-4.35 76.64-6.52 115.26-6.52 38.42 0 76.84 2.15 115.27 6.45v50.02a1037.93 1037.93 0 0 0-115.27-6.47 1021 1021 0 0 0-115.26 6.54V306.4Zm0 105c38.28-4.34 76.73-6.52 115.35-6.52 38.38 0 76.78 2.15 115.18 6.45v50.02a1037.93 1037.93 0 0 0-115.27-6.47 1021 1021 0 0 0-115.26 6.54V411.4Z" clip-rule="evenodd"/><path fill="#FFC324" fill-rule="evenodd" d="M111.83 99.3c45.82-6.28 91.93-9.42 138.33-9.42 46.13 0 92.26 3.1 138.42 9.3-7.33 10.5-14.45 25.53-18.81 47.66a1039.12 1039.12 0 0 0-119.6-6.96c-39.88 0-79.74 2.34-119.6 7.04-4.34-22.1-11.43-37.12-18.74-47.62Zm23.07 102.1c38.22-4.35 76.64-6.52 115.26-6.52 38.41 0 76.84 2.15 115.27 6.45v50.02a1037.93 1037.93 0 0 0-115.27-6.47 1021 1021 0 0 0-115.26 6.54V201.4Zm0 105c38.22-4.35 76.64-6.52 115.26-6.52 38.41 0 76.84 2.15 115.27 6.45v50.02a1037.93 1037.93 0 0 0-115.27-6.47 1021 1021 0 0 0-115.26 6.54V306.4Zm0 105c38.28-4.34 76.73-6.52 115.35-6.52 38.38 0 76.78 2.15 115.18 6.45v50.02a1037.93 1037.93 0 0 0-115.27-6.47 1021 1021 0 0 0-115.26 6.54V411.4Z" clip-rule="evenodd"/><path fill="#FFCB20" d="M376.86 121.66a153 153 0 0 0-7.1 25.18 1039.14 1039.14 0 0 0-119.6-6.96c-39.87 0-79.73 2.34-119.59 7.04-1.9-9.67-4.33-18-7.07-25.17 41.97-5.26 84.2-7.9 126.66-7.9 42.22 0 84.46 2.6 126.7 7.8ZM134.9 225.38v26.04a1021 1021 0 0 1 115.26-6.54c38.22 0 76.65 2.15 115.27 6.47V225.3c-38.43-4.3-76.86-6.45-115.27-6.45-38.62 0-77.04 2.17-115.26 6.52Zm0 105v26.04a1021 1021 0 0 1 115.26-6.54c38.22 0 76.65 2.15 115.27 6.47V330.3c-38.43-4.3-76.86-6.45-115.27-6.45-38.62 0-77.04 2.18-115.26 6.52Zm0 105.01v26.03c38.4-4.36 76.83-6.54 115.26-6.54 38.22 0 76.65 2.15 115.27 6.47V435.3c-38.4-4.3-76.8-6.45-115.18-6.45-38.62 0-77.07 2.18-115.35 6.53Z"/><path fill="#FCD81F" fill-rule="evenodd" d="M308.5 24.22c-5.77-3.24-9.72-5.34-12-5.34 0 0 5.88 32.5-46.34 32.5-48.52 0-46.33-32.5-46.33-32.5-2.28 0-6.24 2.1-12 5.34 0 0 7.36 40.38 58.4 40.38 51.48 0 58.28-35.9 58.28-40.38Z" clip-rule="evenodd"/><path fill="#fff" fill-rule="evenodd" d="M309.65 159.88a16 16 0 1 0 0-32 16 16 0 0 0 0 32Z" clip-rule="evenodd"/><path fill="#000" fill-opacity=".08" fill-rule="evenodd" d="M414.24 239.2a93.79 93.79 0 0 1-28.8 2.6c-8.2-22.38-15.56-36.89-20.01-44.76v270.58s-21.1 6.71-55.87 11.11l-.54-.06 8.27-240.7c2.06-59.76 31.09-95.3 60.1-117.44a148.5 148.5 0 0 0-7 23.66c7.36 11.86 24.44 42.07 43.83 94.97l.02.04ZM191.37 478.67c-34.25-4.4-56.48-11.05-56.48-11.05V197.05c-4.45 7.87-11.81 22.38-20 44.74a93.57 93.57 0 0 1-28.52-2.52l.02-.1c19.38-52.84 36.3-83.06 43.61-94.94a148.63 148.63 0 0 0-7-23.7c29.01 22.15 58.04 57.68 60.1 117.44 2.55 74.23 6.4 185.9 8.27 240.7Z" clip-rule="evenodd"/><path fill="#FDE04C" d="M306.4 139.84a2.38 2.38 0 0 1 0-3.37l1.1-1.09a3.05 3.05 0 0 1 4.31 0l1.1 1.1c.92.92.92 2.43 0 3.36a2.38 2.38 0 0 0 0 3.36l1.87 1.88a3.05 3.05 0 0 1 0 4.32l-2.97 2.97a3.05 3.05 0 0 1-4.31 0l-2.97-2.97a3.05 3.05 0 0 1 0-4.32l1.88-1.88c.93-.92.93-2.43 0-3.36Z"/><path fill="#275F9D" stroke="#275F9D" stroke-width="2" d="m309.8 165.32-.45.9.45.23.46-.23-.46-.9Zm0 0 .46.9.04-.03.1-.05a35.2 35.2 0 0 0 1.86-1.04c1.2-.7 2.8-1.71 4.4-2.92a25.96 25.96 0 0 0 4.47-4.16c1.23-1.52 2.17-3.28 2.17-5.13v-23.36h-1m-12.5 35.8-.45.89h-.01l-.03-.03a8.11 8.11 0 0 1-.52-.27 48.1 48.1 0 0 1-5.84-3.74 25.51 25.51 0 0 1-4.47-4.16c-1.23-1.52-2.18-3.28-2.18-5.13v-23.36h1m25 0h1v-.69l-.63-.25-.37.93Zm0 0 .37-.94h-.03l-.06-.03a38.96 38.96 0 0 0-3.93-1.22 36.18 36.18 0 0 0-8.85-1.26c-3.24 0-6.46.64-8.84 1.26a45.43 45.43 0 0 0-3.72 1.14l-.22.08-.06.02-.01.01h-.01l.36.93m0 0-.36-.93-.64.25v.68h1Z"/><path fill="#275F9D" stroke="#275F9D" stroke-width="2" d="m309.8 168.38-.45.9.45.23.46-.23-.46-.9Zm0 0 .46.9.01-.01.03-.02.06-.03.07-.03a47.15 47.15 0 0 0 2.15-1.2 55.6 55.6 0 0 0 5.07-3.38 29.57 29.57 0 0 0 5.17-4.8c1.41-1.75 2.48-3.75 2.48-5.85v-27.1h-1m-14.5 41.52-.45.9-.01-.01-.04-.02-.13-.06a47.15 47.15 0 0 1-2.14-1.2 55.6 55.6 0 0 1-5.08-3.38 29.5 29.5 0 0 1-5.16-4.8c-1.42-1.75-2.49-3.75-2.49-5.85v-27.1h1m29 0h1v-.69l-.63-.25-.37.94Zm0 0 .37-.94h-.03l-.07-.03a19.16 19.16 0 0 0-1.2-.43c-.8-.27-1.96-.63-3.35-.99a41.79 41.79 0 0 0-10.22-1.45c-3.74 0-7.46.73-10.22 1.45a51.68 51.68 0 0 0-4.3 1.32l-.25.1-.06.02-.02.01h-.01l.36.94m0 0-.36-.94-.64.25v.69h1Z"/><path fill="#FFC324" fill-rule="evenodd" d="m308.9 167.1.9-1.78.91 1.79-.9.46-.92-.46Zm-11.6-37.58v23.37c0 6.07 12.5 12.44 12.5 12.44l-.9 1.78-.02-.01-.03-.02-.12-.06a32.36 32.36 0 0 1-1.9-1.06 49.2 49.2 0 0 1-4.48-2.98 26.62 26.62 0 0 1-4.65-4.33c-1.29-1.6-2.4-3.57-2.4-5.76v-23.36h2Zm0 0-.72-1.86.02-.01.07-.02a15.34 15.34 0 0 1 1.07-.38 46.5 46.5 0 0 1 2.96-.88 37.18 37.18 0 0 1 9.1-1.29c3.36 0 6.67.66 9.1 1.29a46.1 46.1 0 0 1 4.04 1.26l.06.02h.02v.01l-.72 1.86s-6.25-2.44-12.5-2.44-12.5 2.44-12.5 2.44Zm25 0h2v23.37c0 2.19-1.1 4.17-2.4 5.76a26.58 26.58 0 0 1-4.64 4.33 49.07 49.07 0 0 1-6.39 4.04l-.11.06-.03.02h-.02l-.9-1.78s12.5-6.36 12.5-12.43v-23.37Zm0 0 .73-1.86 1.27.5v1.36h-2Zm-25 0h-2v-1.36l1.28-.5.72 1.86Z" clip-rule="evenodd"/><path fill="#E6E6E6" d="M302.49 134.54h2.87v18.73h-2.87zm5.88 0h2.87v18.73h-2.87zm5.87 0h2.87v18.73h-2.87z"/></svg>