<?xml version="1.0" encoding="UTF-8"?><svg height="500" viewBox="0 0 500 500" width="500" xmlns="http://www.w3.org/2000/svg"><g fill="none" fill-rule="evenodd"><path d="M0 0h500v500H0z"/><path d="M203.003 109.223h93.643V21.928h-93.643z" fill="#b01820"/><path d="M202.864 32.228h93.458v-14.2h-93.458z" fill="#e3e3e3"/><path d="M87.548 75.258S46.785 148.058 29 203.029c4.445 13.376 45.208 40.86 85.232 37.886 13.34-36.4 24.46-52 24.46-52s2.963-95.085-51.144-113.655M411.473 75.258s40.762 72.8 58.547 127.77c-4.445 13.376-45.208 40.86-85.232 37.886-13.34-36.4-24.46-52-24.46-52s-2.963-95.085 51.145-113.655" fill="#df212b"/><path d="M249.511 57.703c-50.082 0-47.798-39.47-48.742-39.14-7.516 2.618-24.133 14.936-52.439 25.495-31.873 11.885-52.626 19.315-60.782 31.2 11.114 8.915 46.694 28.97 46.694 120.345v271.14s49.658 14.855 114.885 14.855c68.929 0 115.648-14.855 115.648-14.855v-271.14c0-91.375 35.58-111.43 46.7-120.345-8.157-11.885-28.91-19.315-60.783-31.2-28.36-10.577-44.982-22.92-52.478-25.511-.927-.318 4.177 39.156-48.703 39.156z" fill="#df212b"/><g fill="#f2f2f2"><path d="M467.461 195.302a338.826 338.826 0 0 1 2.668 7.9c-4.445 13.375-45.208 40.86-85.232 37.885a426.405 426.405 0 0 0-2.836-7.52c20.795-1.358 37.993-5.637 51.595-12.837 13.428-7.11 24.696-15.585 33.805-25.428zM31.655 195.302c9.103 9.828 20.36 18.291 33.772 25.392 13.611 7.205 30.824 11.485 51.64 12.84a426.42 426.42 0 0 0-2.835 7.516C74.208 244.025 33.445 216.54 29 203.165c.836-2.584 1.723-5.209 2.655-7.863zM200.772 18.53c.685-.236-.33 20.502 18.226 31.884L219 480.538c-22.215-1.502-41.48-4.416-56.003-7.183L163 37.996c19.534-8.794 31.66-17.334 37.772-19.466zm97.445-.015c6.198 2.144 18.633 10.952 38.783 19.917l.003 434.917c-14.19 2.751-33.278 5.65-56.001 7.16V50.555c19.069-11.353 16.54-32.27 17.215-32.04z"/><path d="M307.852 23.345C302.08 20.105 298.124 18 295.844 18c0 0 5.881 32.495-46.335 32.495-48.52 0-46.336-32.495-46.336-32.495-2.28 0-6.235 2.105-12.002 5.345 0 0 7.368 40.38 58.402 40.38 51.479 0 58.279-35.895 58.279-40.38z"/></g><path d="M413.584 238.323c-9.287 2.238-19.064 3.316-28.798 2.592-8.197-22.369-15.557-36.883-20.012-44.748v270.577s-21.102 6.71-55.867 11.11l-.544-.059c1.881-54.795 5.722-166.47 8.277-240.705 2.055-59.755 31.084-95.29 60.099-117.44-2.676 6.78-5.072 14.606-7 23.667 7.354 11.852 24.436 42.069 43.831 94.964l.014.042zM190.717 477.795c-34.248-4.401-56.477-11.05-56.477-11.05V196.171c-4.456 7.867-11.813 22.38-20.01 44.743-9.632.716-19.308-.332-28.51-2.523.005-.033.012-.065.02-.097 19.377-52.848 36.305-83.066 43.61-94.944-1.93-9.075-4.328-16.912-7.007-23.701 29.015 22.15 58.044 57.685 60.1 117.44 2.554 74.235 6.395 185.91 8.276 240.705z" fill="#000" fill-opacity=".1"/><path d="M291 127h36v13.795c0 11.282-6 21.35-18 30.205-12-8.855-18-18.923-18-30.205z" fill="#ecae2d"/><path d="M293 129h32v12.54c0 10.257-5.333 19.41-16 27.46-10.667-8.05-16-17.203-16-27.46z" fill="#da0008"/><path d="M325 129l-29.235 24.759c-1.843-3.882-2.765-7.955-2.765-12.218V129z" fill="#fff"/><g fill="#f1b12e"><path d="M309 122l-2.351 1.236.449-2.618-1.902-1.854 2.628-.382L309 116l1.176 2.382 2.628.382-1.902 1.854.45 2.618zM317 124l-2.351 1.236.449-2.618-1.902-1.854 2.628-.382L317 118l1.176 2.382 2.628.382-1.902 1.854.45 2.618zM301 124l-2.351 1.236.449-2.618-1.902-1.854 2.628-.382L301 118l1.176 2.382 2.628.382-1.902 1.854.45 2.618z"/></g><path d="M314.323 146.297l3.33 10.703-8.653-6.637-8.652 6.637 3.329-10.703-8.677-6.602 10.71.022L309 129l3.29 10.717 10.71-.022z" fill="#fff" fill-rule="nonzero"/><path d="M312.802 145.555l2.378 7.645-6.18-4.74-6.18 4.74 2.378-7.645-6.198-4.716 7.65.016L309 133.2l2.35 7.655 7.65-.016z" fill="#da0008" fill-rule="nonzero"/></g></svg>