<svg xmlns="http://www.w3.org/2000/svg" width="500" height="500" fill="none" viewBox="0 0 500 500"><path fill="#C8C8C8" fill-rule="evenodd" d="M203 109.22h93.65v-87.3H203v87.3Z" clip-rule="evenodd"/><path fill="#ADADAD" fill-rule="evenodd" d="M202.86 32.23h93.46v-14.2h-93.46v14.2Z" clip-rule="evenodd"/><path fill="#F2F2F2" fill-rule="evenodd" d="M87.55 75.26S46.78 148.06 29 203.03c4.44 13.37 45.2 40.86 85.23 37.88 13.34-36.4 24.46-52 24.46-52s2.97-95.08-51.14-113.65M411.47 75.26s40.76 72.8 58.55 127.77c-4.44 13.37-45.2 40.86-85.23 37.88-13.34-36.4-24.46-52-24.46-52s-2.97-95.08 51.14-113.65" clip-rule="evenodd"/><path fill="#F2F2F2" fill-rule="evenodd" d="M249.51 57.7c-50.08 0-47.8-39.47-48.74-39.14-7.52 2.62-24.14 14.94-52.44 25.5-31.87 11.88-52.63 19.31-60.78 31.2 11.11 8.91 46.7 28.97 46.7 120.34v271.14s49.65 14.86 114.88 14.86c68.93 0 115.64-14.86 115.64-14.86V195.6c0-91.37 35.58-111.43 46.7-120.34-8.15-11.89-28.9-19.32-60.78-31.2-28.36-10.58-44.98-22.92-52.48-25.51-.92-.32 4.18 39.15-48.7 39.15Z" clip-rule="evenodd"/><path fill="#D7D7D7" fill-rule="evenodd" d="M133.76 117.48A221.3 221.3 0 0 1 250 84.72a221.3 221.3 0 0 1 115.24 32.15v-2A221.3 221.3 0 0 0 250 82.72a221.3 221.3 0 0 0-116.24 32.76v2Z" clip-rule="evenodd"/><path fill="#1E1E1E" fill-rule="evenodd" d="M96.65 79.79c8.53-11.24 28.66-18.57 59.04-30.08 19.3-7.31 33.08-15.47 42.19-20.66l-.01-.05c1.21-.7 2.34-1.33 3.4-1.91l1.72 3.21c-9.03 5.07-23.46 13.98-44.36 21.9-29.86 11.3-49.81 18.58-58.6 29.5a52.14 52.14 0 0 0-3.38-1.91Zm-6.7-2.88c8.03-11.88 28.46-19.31 59.84-31.2 19.3-7.31 33.09-15.47 42.2-20.66l-.02-.05.03-.01 1.74 3.22c-9.1 5.21-22.53 12.99-41 19.99-30.46 11.53-50.6 18.87-59.1 30.16l-3.7-1.45ZM402.18 79.8c-1.16.59-2.29 1.23-3.39 1.9-8.78-10.92-28.73-18.2-58.6-29.5-20.2-7.66-34.36-16.24-43.43-21.38l1.58-3.3 2.62 1.48-.01.05c9.1 5.2 22.89 13.35 42.19 20.66 30.38 11.51 50.5 18.84 59.04 30.08Zm6.7-2.88c-1.26.43-2.49.92-3.69 1.44-8.5-11.29-28.64-18.63-59.1-30.16-18.28-6.93-31.6-14.6-40.7-19.81l1.41-3.42.05.03v.05c9.1 5.2 22.88 13.35 42.18 20.66 31.39 11.89 51.82 19.32 59.85 31.2Z" clip-rule="evenodd"/><path fill="#1E1E1E" d="M468.42 198.08c-10.7 15.53-48 39.3-85.45 37.84l-.9-2.35c20.79-1.36 37.99-5.64 51.59-12.84 13.42-7.1 24.7-15.58 33.8-25.43l.96 2.78ZM30.7 198.08c10.71 15.53 48 39.3 85.46 37.84l.9-2.35c-20.79-1.36-37.99-5.64-51.59-12.84-13.43-7.1-24.7-15.58-33.8-25.43l-.97 2.78Z"/><path fill="#E8E8E8" fill-rule="evenodd" d="M307.85 23.34c-5.77-3.23-9.73-5.34-12-5.34 0 0 5.88 32.5-46.34 32.5-48.52 0-46.34-32.5-46.34-32.5-2.28 0-6.23 2.1-12 5.34 0 0 7.37 40.39 58.4 40.39 51.48 0 58.28-35.9 58.28-40.38Z" clip-rule="evenodd"/><path fill="#000" fill-opacity=".1" fill-rule="evenodd" d="M413.58 238.32a93.8 93.8 0 0 1-28.8 2.6c-8.2-22.37-15.55-36.89-20-44.75v270.57s-21.1 6.71-55.87 11.12c-.18-.03-.37-.04-.55-.06l8.28-240.71c2.06-59.75 31.09-95.29 60.1-117.44a148.7 148.7 0 0 0-7 23.67c7.35 11.85 24.44 42.07 43.83 94.96l.01.04ZM190.72 477.8c-34.25-4.4-56.48-11.06-56.48-11.06V196.18c-4.46 7.87-11.81 22.38-20 44.75-9.64.71-19.32-.34-28.52-2.53l.02-.1c19.38-52.84 36.3-83.06 43.61-94.94a148.62 148.62 0 0 0-7-23.7c29 22.15 58.04 57.69 60.1 117.44l8.27 240.7Z" clip-rule="evenodd"/><path fill="#F2F2F2" fill-rule="evenodd" d="M309 119.84c5.24 0 10.36-.95 15.36-2.84l5.74 5.13c-7.08 7.13 5.83 28.9-1.18 36.09-7.02 7.2-19.92 4.64-19.92 10.31 0-5.67-12.85-3.12-19.87-10.31-7.01-7.2 5.9-28.96-1.18-36.1l5.74-5.12a42.72 42.72 0 0 0 15.31 2.84Z" clip-rule="evenodd"/><path fill="#E0B641" fill-rule="evenodd" d="M312.13 165.1c1.2-.44 2.67-.8 4.27-1.17 4.1-.97 9.03-2.14 12.52-5.71 3.5-3.6 2.04-10.82.57-18.04-1.4-6.93-2.8-13.86.18-17.57.13-.17.28-.33.43-.48l-5.74-5.13a42.72 42.72 0 0 1-30.67 0l-5.74 5.13c.16.15.3.31.43.48 2.99 3.71 1.58 10.64.18 17.57-1.46 7.22-2.93 14.45.57 18.04 3.49 3.57 8.42 4.74 12.5 5.7 1.59.39 3.05.73 4.25 1.18 1.9.71 3.12 1.68 3.12 3.43 0-1.75 1.23-2.71 3.13-3.43Zm-3.13-2.96.31-.17c1.77-.9 4.03-1.43 5.88-1.87l.22-.05c4.31-1.02 8.08-2 10.64-4.62.58-.6 1.12-1.9 1.02-4.74-.1-2.77-.75-6.04-1.5-9.75l-.04-.16c-.7-3.49-1.5-7.38-1.61-10.88-.07-2.23.1-4.73 1.02-7.02l-1.49-1.33a46.87 46.87 0 0 1-28.85 0l-1.49 1.33a17.4 17.4 0 0 1 1.02 7.02c-.12 3.5-.9 7.4-1.61 10.88l-.03.16c-.76 3.71-1.41 6.98-1.5 9.75-.11 2.85.43 4.14 1 4.74 2.57 2.63 6.33 3.6 10.63 4.62l.22.06c1.84.43 4.1.96 5.86 1.86.1.06.2.1.3.17Z" clip-rule="evenodd"/><path fill="#1E1E1E" d="m290.13 136.31 37.13-8.48v15.73l-37.13 8.49V136.3Z"/><path fill="#E0B641" fill-rule="evenodd" d="M293.13 138.7v9.58l31.13-7.1v-9.6l-31.13 7.12Zm-3-2.39v15.74l37.13-8.49v-15.73l-37.13 8.48Z" clip-rule="evenodd"/></svg>