<?xml version="1.0" encoding="UTF-8"?><svg height="500" viewBox="0 0 500 500" width="500" xmlns="http://www.w3.org/2000/svg"><g fill="none" fill-rule="evenodd"><path d="M203.006 109.193h93.643V21.898h-93.643z" fill="#13593f"/><path d="M202.867 32.198h93.458v-14.2h-93.458z" fill="#1d7756"/><g fill="#248b65"><path d="M87.55 75.26s-40.762 72.8-58.547 127.77c4.445 13.375 45.208 40.86 85.232 37.885 13.34-36.4 24.46-52 24.46-52S141.658 93.83 87.55 75.26M411.476 75.26s40.762 72.8 58.547 127.77c-4.445 13.375-45.208 40.86-85.232 37.885-13.34-36.4-24.46-52-24.46-52S357.368 93.83 411.476 75.26"/><path d="M249.514 57.706c-50.082 0-47.798-39.47-48.742-39.14-7.516 2.618-24.133 14.936-52.439 25.495-31.873 11.885-52.626 19.315-60.782 31.2 11.114 8.915 46.694 28.97 46.694 120.345v271.14S183.903 481.6 249.13 481.6c68.929 0 115.648-14.855 115.648-14.855v-271.14c0-91.375 35.58-111.43 46.7-120.345-8.157-11.885-28.91-19.315-60.783-31.2-28.36-10.577-44.982-22.92-52.478-25.511-.927-.318 4.177 39.156-48.703 39.156z"/></g><path d="M293.733 37.26c45.26 11.336 71.506 39.337 71.506 67.982v72.909c-.301 5.5-.46 11.3-.46 17.421v271.14s-46.72 14.855-115.649 14.855c-65.227 0-114.885-14.855-114.885-14.855v-271.14c0-6.261-.167-12.188-.482-17.799v-72.531c0-28.836 26.598-57.02 72.417-68.202 5.595 10.126 17.495 20.632 43.334 20.632 27.082 0 38.955-10.352 44.22-20.411z" fill="#218560"/><path d="M352.432 71.35c7.718 9.633 12.092 20.304 12.727 31.141A1196.79 1196.79 0 0 0 250.499 97c-38.87 0-77.757 1.877-116.663 5.63.602-10.831 4.94-21.5 12.62-31.136C181.27 68.498 215.952 67 250.499 67c33.992 0 67.97 1.45 101.933 4.35zm12.807 61.163V162.5A1196.786 1196.786 0 0 0 250.5 157c-38.893 0-77.805 1.88-116.736 5.638v-29.986c39.081-3.768 77.993-5.652 116.736-5.652 38.265 0 76.512 1.838 114.74 5.513zm-.46 89.941A1196.81 1196.81 0 0 0 250.498 217c-38.733 0-77.484 1.864-116.254 5.591v-27.018c0-.998-.004-1.986-.013-2.966C173.156 188.869 211.912 187 250.5 187c38.116 0 76.214 1.824 114.293 5.47-.009 1.025-.014 2.06-.014 3.103zm0 60A1196.81 1196.81 0 0 0 250.498 277c-38.733 0-77.484 1.864-116.254 5.591v-29.985c38.919-3.737 77.67-5.606 116.254-5.606 38.111 0 76.204 1.823 114.28 5.47zm0 60A1196.81 1196.81 0 0 0 250.498 337c-38.733 0-77.484 1.864-116.254 5.591v-29.985c38.919-3.737 77.67-5.606 116.254-5.606 38.111 0 76.204 1.823 114.28 5.47zm0 60A1196.81 1196.81 0 0 0 250.498 397c-38.733 0-77.484 1.864-116.254 5.591v-29.985c38.919-3.737 77.67-5.606 116.254-5.606 38.111 0 76.204 1.823 114.28 5.47zm0 60A1196.81 1196.81 0 0 0 250.498 457c-38.733 0-77.484 1.864-116.254 5.591v-29.985c38.919-3.737 77.67-5.606 116.254-5.606 38.111 0 76.204 1.823 114.28 5.47z" fill="#136849"/><path d="M249.576 63.752c51.479 0 58.279-35.895 58.279-40.38-5.772-3.24-9.728-5.345-12.008-5.345 0 0 5.881 32.495-46.335 32.495-48.52 0-46.336-32.495-46.336-32.495-2.28 0-6.235 2.105-12.002 5.345 0 0 7.368 40.38 58.402 40.38" fill="#218560"/><g transform="translate(288 126)"><path d="M21 34c11.598 0 21-9.402 21-21v-1H0v1c0 11.598 9.402 21 21 21z" fill="#000" fill-rule="nonzero"/><path d="M21 33c11.046 0 20-8.954 20-20H1c0 11.046 8.954 20 20 20z" fill="#fff"/><path d="M21 33V13H1c0 11.046 8.954 20 20 20z" fill="#2f882f"/><circle cx="21" cy="12" fill="#000" r="12"/><circle cx="21" cy="12" fill="#fff" r="11"/></g><path d="M413.584 238.323c-9.287 2.238-19.064 3.316-28.798 2.592-8.197-22.369-15.557-36.883-20.012-44.748v270.577s-21.102 6.71-55.867 11.11l-.544-.059c1.881-54.795 5.722-166.47 8.277-240.705 2.055-59.755 31.084-95.29 60.099-117.44-2.676 6.78-5.072 14.606-7 23.667 7.354 11.852 24.436 42.069 43.831 94.964l.014.042zM190.717 477.795c-34.248-4.401-56.477-11.05-56.477-11.05V196.171c-4.456 7.867-11.813 22.38-20.01 44.743-9.632.716-19.308-.332-28.51-2.523.005-.033.012-.065.02-.097 19.377-52.848 36.305-83.066 43.61-94.944-1.93-9.075-4.328-16.912-7.007-23.701 29.015 22.15 58.044 57.685 60.1 117.44 2.554 74.235 6.395 185.91 8.276 240.705z" fill="#000" fill-opacity=".1"/></g></svg>