<?xml version="1.0" encoding="UTF-8"?><svg width="500" height="500" viewBox="0 0 500 500" xmlns="http://www.w3.org/2000/svg"><g fill="none" fill-rule="evenodd"><path d="M0 0h500v500H0z"/><path fill="#D9D9D9" d="M203.0033 109.223h93.6432V21.928h-93.6432z"/><path fill="#393939" d="M202.8636 32.228h93.4586v-14.2h-93.4586z"/><path d="M87.5475 75.2585s-40.7627 72.8-58.5475 127.77c4.445 13.375 45.2077 40.86 85.2322 37.885 13.3398-36.4 24.4596-52 24.4596-52s2.9633-95.085-51.1443-113.655m323.9252 0s40.7628 72.8 58.5475 127.77c-4.445 13.375-45.2077 40.86-85.2321 37.885-13.3399-36.4-24.4597-52-24.4597-52s-2.9633-95.085 51.1443-113.655" fill="#F2F2F2"/><path d="M249.5111 57.7025c-50.0817 0-47.7981-39.469-48.7426-39.14-7.5158 2.6187-24.1326 14.9368-52.4385 25.495-31.8729 11.885-52.626 19.315-60.7825 31.2 11.1149 8.915 46.6944 28.97 46.6944 120.345v271.14s49.6576 14.855 114.885 14.855c68.9291 0 115.6484-14.855 115.6484-14.855v-271.14c0-91.375 35.5795-111.43 46.6994-120.345-8.1566-11.885-28.9096-19.315-60.7825-31.2-28.3599-10.5767-44.9818-22.9194-52.478-25.5106-.9273-.3184 4.1773 39.1556-48.703 39.1556z" fill="#F2F2F2"/><path d="M467.3529 195.129c.9359 2.6665 1.8272 5.303 2.6673 7.8995-4.445 13.375-45.2077 40.86-85.2321 37.885a426.4238 426.4238 0 00-2.8354-7.5198c20.795-1.3576 37.9932-5.6366 51.5944-12.8371 13.4282-7.109 24.6968-15.5848 33.8058-25.4277zm-435.6982.036c9.1031 9.8275 20.3606 18.2914 33.7724 25.3916 13.611 7.2056 30.824 11.4856 51.6393 12.84a426.4196 426.4196 0 00-2.8342 7.5169c-40.0245 2.975-80.7873-24.51-85.2322-37.885.8363-2.5849 1.7234-5.2092 2.6547-7.8635z" fill="#3D3D3D"/><path d="M206.1795 37.0399l.3434.608c5.7339 9.9343 17.669 20.0246 42.9912 20.0246 27.0815 0 38.955-10.353 44.2191-20.4119 2.831.709 5.5875 1.4833 8.268 2.3188l.0013 439.0653c-15.4504 1.7205-33.2627 2.9228-52.8725 2.9228-18.568 0-35.8741-1.2038-51.1323-2.926l.002-439.3658c2.6537-.8062 5.3809-1.5527 8.1798-2.2358z" fill="#C82828"/><path d="M351.0012 69.6218l.0013 400.734-2.3566.5453c-4.8861 1.1117-10.8035 2.3438-17.6432 3.5641l-.0023-421.7934c8.0051 5.025 14.7084 10.7556 20.0008 16.95zM168.999 52.0552l-.0012 422.4009-2.5797-.463c-6.7666-1.2345-12.6257-2.4636-17.4207-3.5508l.0005-401.9624c5.354-6.01 12.0553-11.5607 20.001-16.4247z" fill="#297043"/><path d="M307.8516 23.345c-5.772-3.24-9.728-5.345-12.0078-5.345 0 0 5.8817 32.495-46.3352 32.495-48.5202 0-46.3352-32.495-46.3352-32.495-2.2798 0-6.2358 2.105-12.0028 5.345 0 0 7.3683 40.38 58.4029 40.38 51.4785 0 58.2781-35.895 58.2781-40.38z" fill="#3D3D3D"/><path d="M413.5843 238.3227c-9.2877 2.2382-19.0646 3.3161-28.7978 2.5926-8.1978-22.369-15.5572-36.883-20.0128-44.7484v270.5774s-21.1022 6.7098-55.8664 11.1104c-.1817-.0197-.363-.0396-.544-.0597 1.8808-54.795 5.7221-166.47 8.2763-240.705 2.0554-59.755 31.0847-95.29 60.099-117.44-2.6753 6.7806-5.0714 14.6063-6.9991 23.6673 7.354 11.8514 24.4358 42.0687 43.8307 94.964.005.014.0097.0277.014.0414zM190.7166 477.7953c-34.2478-4.4014-56.4763-11.051-56.4763-11.051V196.1721c-4.4558 7.8668-11.8138 22.3792-20.0097 44.7432-9.633.716-19.3087-.3323-28.5106-2.5238a1.113 1.113 0 01.0199-.0967c19.3773-52.8475 36.3054-83.0661 43.6098-94.9437-1.929-9.0753-4.3277-16.912-7.0064-23.7011 29.0144 22.15 58.0437 57.685 60.099 117.44 2.5543 74.235 6.3956 185.91 8.2763 240.7053h-.002z" fill-opacity=".06" fill="#000"/><path d="M288.564 120.174c8.6655 2.0967 15.4775 1.372 20.436-2.174l.319.2225c4.9302 3.353 11.6359 4.0036 20.117 1.9514 5.8547 20.5127-5.5907 38.9794-19.9985 47.5688L309 168c-14.6123-8.4739-26.3499-27.1062-20.436-47.826z" fill="#F2F2F2"/><path d="M290.4219 122.249c7.8776 1.9062 14.0704 1.2474 18.5781-1.9763l.29.2023c4.482 3.0483 10.578 3.6396 18.2881 1.774 5.3226 18.6479-5.0824 35.4358-18.1804 43.2444l-.3977.2339c-13.284-7.7036-23.9544-24.642-18.5781-43.4783z" fill="#2E2E2E"/><path d="M292.2797 124.3241c7.0899 1.7155 12.6633 1.1227 16.7203-1.7786l.261.182c4.0338 2.7434 9.5203 3.2756 16.4593 1.5966 4.7903 16.783-4.5741 31.8922-16.3624 38.92l-.3579.2104c-11.9555-6.9331-21.559-22.1778-16.7203-39.1304z" fill="#F2F2F2"/><path d="M309 122.5455l.261.182c1.6653 1.1326 3.5781 1.8883 5.7385 2.2671l.001 34.0876c-1.7772 1.5924-3.6761 2.9895-5.6426 4.1619l-.3579.2104c-2.094-1.2143-4.116-2.6837-6.0008-4.3726l.0005-34.0871c2.2745-.3988 4.2746-1.2152 6.0003-2.4493z" fill="#205D36"/><path d="M325.7203 124.3241c3.9913 13.9836-1.844 26.8052-10.7202 34.7584l-.002-34.0881c3.0731.5392 6.6472.3157 10.7222-.6703z" fill="#B32121"/><path fill="#2E2E2E" d="M290 130h38v6h-38z"/></g></svg>