<svg xmlns="http://www.w3.org/2000/svg" width="500" height="500" fill="none" viewBox="0 0 500 500"><path fill="#AD1E16" fill-rule="evenodd" d="M203 109.22h93.65v-87.3H203v87.3Z" clip-rule="evenodd"/><path fill="#25313B" fill-rule="evenodd" d="M202.86 32.23h93.46v-14.2h-93.46v14.2Z" clip-rule="evenodd"/><path fill="#CD281E" fill-rule="evenodd" d="M87.55 75.26S46.78 148.06 29 203.03c4.44 13.37 45.2 40.86 85.23 37.88 13.34-36.4 24.46-52 24.46-52s2.97-95.08-51.14-113.65M411.47 75.26s40.76 72.8 58.55 127.77c-4.44 13.37-45.2 40.86-85.23 37.88-13.34-36.4-24.46-52-24.46-52s-2.97-95.08 51.14-113.65" clip-rule="evenodd"/><path fill="#CD281E" fill-rule="evenodd" d="M249.51 57.7c-50.08 0-47.8-39.47-48.74-39.14-7.52 2.62-24.14 14.94-52.44 25.5-31.87 11.88-52.63 19.31-60.78 31.2 11.11 8.91 46.7 28.97 46.7 120.34v271.14s49.65 14.86 114.88 14.86c68.93 0 115.64-14.86 115.64-14.86V195.6c0-91.37 35.58-111.43 46.7-120.34-8.15-11.89-28.9-19.32-60.78-31.2-28.36-10.58-44.98-22.92-52.48-25.51-.92-.32 4.18 39.15-48.7 39.15Z" clip-rule="evenodd"/><path fill="#2F3E4B" fill-rule="evenodd" d="M467.35 195.13c.94 2.67 1.83 5.3 2.67 7.9-4.44 13.37-45.2 40.86-85.23 37.88-.96-2.61-1.9-5.12-2.84-7.52 20.8-1.35 38-5.63 51.6-12.83 13.43-7.11 24.7-15.59 33.8-25.43ZM31.65 195.16c9.1 9.83 20.37 18.3 33.78 25.4 13.6 7.2 30.82 11.48 51.64 12.84-.93 2.4-1.88 4.9-2.84 7.51-40.02 2.98-80.79-24.5-85.23-37.88.84-2.59 1.72-5.21 2.65-7.87ZM307.85 23.34c-5.77-3.23-9.73-5.34-12-5.34 0 0 5.88 32.5-46.34 32.5-48.52 0-46.34-32.5-46.34-32.5-2.28 0-6.23 2.1-12 5.34 0 0 7.37 40.39 58.4 40.39 51.48 0 58.28-35.9 58.28-40.38Z" clip-rule="evenodd"/><path fill="#000" fill-opacity=".1" fill-rule="evenodd" d="M413.58 238.32a93.76 93.76 0 0 1-28.8 2.6c-8.2-22.37-15.55-36.89-20-44.75v270.57s-21.1 6.71-55.87 11.12c-.18-.03-.37-.05-.55-.06l8.28-240.71c2.06-59.75 31.09-95.29 60.1-117.44a148.7 148.7 0 0 0-7 23.67c7.35 11.85 24.44 42.07 43.83 94.96l.01.04ZM190.72 477.8c-34.25-4.4-56.48-11.06-56.48-11.06V196.17c-4.46 7.87-11.81 22.38-20 44.75-9.64.71-19.32-.34-28.52-2.53l.02-.1c19.38-52.84 36.3-83.06 43.61-94.94a148.64 148.64 0 0 0-7-23.7c29 22.15 58.04 57.69 60.1 117.44l8.27 240.7Z" clip-rule="evenodd"/><path fill="#F2F2F2" fill-rule="evenodd" d="M291 135.7v-6.26s6.26-5.22 17.74-5.22c11.48 0 17.74 5.22 17.74 5.22v6.26c0 25.04-17.74 31.3-17.74 31.3S291 160.74 291 135.7Z" clip-rule="evenodd"/><path fill="#3D3D3D" fill-rule="evenodd" d="m289.72 127.9 1.28 1.53v6.27c0 25.04 17.74 31.3 17.74 31.3l-.67 1.88h-.03l-.06-.03-.18-.07a24.1 24.1 0 0 1-2.84-1.43 29.95 29.95 0 0 1-6.54-5.24c-4.78-5.05-9.42-13.36-9.42-26.41v-7.2l.72-.6Zm36.76 1.53 1.28-1.53-.02-.01-.02-.02a26.6 26.6 0 0 0-5-2.87 34.93 34.93 0 0 0-13.98-2.78 34.93 34.93 0 0 0-13.97 2.77 26.52 26.52 0 0 0-4.66 2.61l-.27.2-.08.07-.02.02h-.01l1.27 1.55s6.26-5.22 17.74-5.22c11.48 0 17.74 5.22 17.74 5.22Zm0 0v6.27c0 25.04-17.74 31.3-17.74 31.3l-.67 1.89.67.23.66-.23-.66-1.89c.66 1.89.67 1.89.67 1.88h.03l.05-.03.2-.07a23.83 23.83 0 0 0 2.84-1.43 29.96 29.96 0 0 0 6.53-5.24c4.78-5.05 9.42-13.36 9.42-26.41v-7.2l-.72-.6-1.28 1.53Z" clip-rule="evenodd"/><path fill="#FFD600" fill-rule="evenodd" d="M293 136.46v-5.7s5.47-4.76 15.5-4.76c10.03 0 15.5 4.76 15.5 4.76v5.7c0 22.83-15.5 28.54-15.5 28.54s-15.5-5.7-15.5-28.54Z" clip-rule="evenodd"/><path fill="#3D3D3D" fill-rule="evenodd" d="M309 134a9 9 0 1 0 0-18 9 9 0 0 0 0 18Z" clip-rule="evenodd"/><path fill="#FFD600" fill-rule="evenodd" d="M309 132a7 7 0 1 0 0-14 7 7 0 0 0 0 14Z" clip-rule="evenodd"/><path fill="#371677" d="M293 130.76v5.7c0 22.83 15.5 28.54 15.5 28.54v-20L293 130.76Z"/><path fill="#E22429" d="M324 130.76v5.7c0 22.83-15.5 28.54-15.5 28.54v-20l15.5-14.24Z"/></svg>