<svg xmlns="http://www.w3.org/2000/svg" width="501" height="501" fill="none"><path fill="#314B82" fill-rule="evenodd" d="M204.08 110.63h93.64v-87.3h-93.64v87.3Z" clip-rule="evenodd"/><path fill="#CCC" fill-rule="evenodd" d="M203.94 33.63h93.45v-14.2h-93.45v14.2Z" clip-rule="evenodd"/><path fill="#3A8BE4" fill-rule="evenodd" d="M88.62 76.66s-40.76 72.8-58.55 127.77c4.45 13.38 45.21 40.86 85.23 37.89 13.34-36.4 24.46-52 24.46-52s2.97-95.09-51.14-113.66Zm323.92 0s40.77 72.8 58.55 127.77c-4.44 13.38-45.2 40.86-85.23 37.89-13.34-36.4-24.46-52-24.46-52s-2.96-95.09 51.14-113.66Z" clip-rule="evenodd"/><path fill="#3A8BE4" fill-rule="evenodd" d="M250.58 59.1c-50.08 0-47.8-39.46-48.74-39.13-7.52 2.61-24.13 14.93-52.44 25.5-31.87 11.88-52.62 19.3-60.78 31.2 11.11 8.9 46.7 28.96 46.7 120.34v271.14S184.96 483 250.2 483c68.93 0 115.65-14.85 115.65-14.85V197c0-91.38 35.58-111.43 46.7-120.35-8.16-11.88-28.91-19.31-60.79-31.2-28.36-10.58-44.98-22.92-52.47-25.5-.93-.33 4.17 39.15-48.7 39.15Z" clip-rule="evenodd"/><path fill="#F2F2F2" fill-rule="evenodd" d="M294.37 38.46c45.26 11.34 71.5 39.34 71.5 67.99v72.9a320 320 0 0 0-.46 17.43v271.14s-46.72 14.85-115.65 14.85c-65.22 0-114.88-14.85-114.88-14.85V196.78c0-6.27-.17-12.2-.48-17.8v-72.53c0-28.84 26.6-57.02 72.41-68.2 5.6 10.12 17.5 20.63 43.34 20.63 27.08 0 38.96-10.36 44.22-20.42Z" clip-rule="evenodd"/><path fill="#3A8BE4" d="m291.4 143.84-.04-.03c5.77-6.14 6.01-11.26 3.11-15.52a10.98 10.98 0 0 0-1.71-1.95l-.88-.7 3.06-7.55c13.5 3.88 19 3.88 33.02 0l3.06 7.55-.88.7a10.98 10.98 0 0 0-1.71 1.96c-2.89 4.23-2.66 9.32 3.02 15.4.14.1.2.22.33.44.12.29.12.29.15.43l.02.25v.16l-.02.16-.06.35a17.42 17.42 0 0 1-1.69 4.64 13.3 13.3 0 0 1-8.48 6.9 23.79 23.79 0 0 0-5.28 2.01 12.6 12.6 0 0 0-3 2.19c-.24.24-1.97 2.25-1.97 2.25s-1.73-2.01-1.96-2.25c-.7-.72-1.68-1.46-2.97-2.17a23.44 23.44 0 0 0-5.31-2.03c-3.9-1.02-6.67-3.52-8.48-6.9a17.6 17.6 0 0 1-1.75-4.96l-.01-.1-.01-.07v-.38l.07-.26.37-.52Z"/><path fill="#C92A29" d="M301.59 155.57c-7.9-2.06-9.15-10.74-9.14-10.74 11.1-11.8 1.24-19.67 1.24-19.67l1.52-6.28c4.22 2.6 28.05 2.6 32.26 0 0 0-.08 1.81 0 2.01l-25.88 34.68Z"/><path fill="#D5A466" fill-rule="evenodd" d="m312.59 164.46-1.14-.98-1.13.98 1.13 1.31 1.14-1.31Zm19.88-21.86c.33.28.5.6.6.76 0 .01 0 .03.02.04l.04.08.04.08v.03l.14.33.1.36v.11l.03.2.01.22v.3l-.01.02a3.08 3.08 0 0 1-.02.2v.01l-.08.44a18.94 18.94 0 0 1-1.84 5.07 14.8 14.8 0 0 1-9.42 7.63 22.3 22.3 0 0 0-4.94 1.88c-1.2.66-2.06 1.31-2.65 1.92l-.02.03-.08.09-.25.27-.66.76-.62.71-.27.32-1.14-.98-1.13.98-.28-.32a470 470 0 0 0-1.27-1.47l-.25-.27a10.84 10.84 0 0 0-.1-.12c-.58-.6-1.43-1.25-2.61-1.9a22 22 0 0 0-4.98-1.9c-4.36-1.14-7.44-3.94-9.42-7.63a19.1 19.1 0 0 1-1.9-5.44l-.02-.07v-.08l-.01-.04v-.05l-.01-.01v-.06l-.01-.06v-.35a3.92 3.92 0 0 1 .02-.25l.01-.09.05-.2-.3-.28 1.03-1.1c2.76-2.93 4.06-5.48 4.42-7.66a7.98 7.98 0 0 0-1.45-5.97 9.47 9.47 0 0 0-1.31-1.54l-.08-.07a.47.47 0 0 0-.03-.02l-1.75-1.4 4-9.83 1.29.37c6.71 1.93 11.3 2.85 15.9 2.85s9.32-.92 16.3-2.85l1.29-.36 3.98 9.82-1.75 1.4-.03.02-.07.07-.26.25c-.35.36-.71.8-1.05 1.3a7.98 7.98 0 0 0-1.46 5.92c.34 2.15 1.6 4.65 4.26 7.53Zm-21.02 18.59a13.84 13.84 0 0 0-4.2-3.44 24.98 24.98 0 0 0-5.66-2.18 11.7 11.7 0 0 1-7.53-6.14 16.13 16.13 0 0 1-1.6-4.5l.33-.46c2.8-3.07 4.4-6.02 4.86-8.88.5-3.02-.3-5.74-1.94-8.14a12.59 12.59 0 0 0-2.01-2.28l2.13-5.27c6.13 1.71 10.73 2.6 15.43 2.6 4.7 0 9.43-.89 15.81-2.6l2.14 5.27a12.51 12.51 0 0 0-2.02 2.29 10.98 10.98 0 0 0-1.94 8.08c.46 2.96 2.14 6.01 5.1 9.19l.1.1v.1l-.05.28a15.92 15.92 0 0 1-1.54 4.21 11.8 11.8 0 0 1-7.54 6.15c-2.17.58-4.04 1.3-5.6 2.16a14 14 0 0 0-3.37 2.45 44 44 0 0 0-.9 1Zm-19.5-16.17.3.2.2-.28m-.5.07-.96.16.97-.15m0 0-.1-.08-.9.12.89-.12-.05-.03-.84.09.84-.1-.04-.03-.8.05.78-.05-.05-.04-.74-.05" clip-rule="evenodd"/><path fill="#F2F2F2" fill-rule="evenodd" d="M468.43 196.53c.93 2.67 1.82 5.3 2.66 7.9-4.44 13.38-45.2 40.86-85.23 37.89-.96-2.62-1.9-5.12-2.84-7.52 20.8-1.36 38-5.64 51.6-12.84 13.43-7.1 24.7-15.59 33.8-25.43Zm-435.7.04c9.1 9.83 20.36 18.29 33.77 25.39 13.61 7.2 30.82 11.49 51.64 12.84-.93 2.4-1.88 4.9-2.84 7.52-40.02 2.97-80.78-24.51-85.23-37.89.84-2.58 1.73-5.2 2.66-7.86Z" clip-rule="evenodd"/><path fill="#F2F2F2" fill-rule="evenodd" d="M468.43 196.53c.93 2.67 1.82 5.3 2.66 7.9-4.44 13.38-45.2 40.86-85.23 37.89-.96-2.62-1.9-5.12-2.84-7.52 20.8-1.36 38-5.64 51.6-12.84 13.43-7.1 24.7-15.59 33.8-25.43Zm-435.7.04c9.1 9.83 20.36 18.29 33.77 25.39 13.61 7.2 30.82 11.49 51.64 12.84-.93 2.4-1.88 4.9-2.84 7.52-40.02 2.97-80.78-24.51-85.23-37.89.84-2.58 1.73-5.2 2.66-7.86ZM308.92 24.75c-5.77-3.24-9.73-5.35-12-5.35 0 0 5.88 32.5-46.34 32.5-48.52 0-46.34-32.5-46.34-32.5-2.28 0-6.23 2.1-12 5.35 0 0 7.37 40.38 58.4 40.38 51.48 0 58.28-35.9 58.28-40.38Z" clip-rule="evenodd"/><path fill="#000" fill-opacity=".1" fill-rule="evenodd" d="M414.52 238.35a93.76 93.76 0 0 1-28.8 2.6c-8.2-22.37-15.56-36.88-20.01-44.75v270.58s-21.1 6.7-55.87 11.1l-.54-.05 8.27-240.7c2.06-59.76 31.09-95.3 60.1-117.45a148.66 148.66 0 0 0-7 23.67c7.36 11.85 24.44 42.07 43.83 94.96l.02.04ZM191.65 477.83c-34.25-4.4-56.48-11.05-56.48-11.05V196.2c-4.45 7.86-11.81 22.37-20 44.74a93.6 93.6 0 0 1-28.52-2.53l.02-.1c19.38-52.84 36.3-83.06 43.61-94.94a148.71 148.71 0 0 0-7-23.7c29.01 22.15 58.04 57.69 60.1 117.44l8.27 240.7Z" clip-rule="evenodd"/></svg>