<?xml version="1.0" encoding="UTF-8"?><svg width="500" height="500" viewBox="0 0 500 500" fill="none" xmlns="http://www.w3.org/2000/svg"><path fill-rule="evenodd" clip-rule="evenodd" d="M203.004 109.223h93.643V21.928h-93.643v87.295z" fill="#6A1B2F"/><path fill-rule="evenodd" clip-rule="evenodd" d="M202.863 32.2281h93.459v-14.2h-93.459v14.2z" fill="#802339"/><path fill-rule="evenodd" clip-rule="evenodd" d="M87.5475 75.2585S46.7848 148.059 29 203.029c4.4449 13.375 45.2077 40.86 85.232 37.885 13.34-36.4 24.46-52 24.46-52s2.963-95.0855-51.1445-113.6555zm323.9265 0s40.763 72.8005 58.547 127.7705c-4.444 13.375-45.207 40.86-85.232 37.885-13.339-36.4-24.459-52-24.459-52s-2.964-95.0855 51.144-113.6555z" fill="#8D2941"/><path fill-rule="evenodd" clip-rule="evenodd" d="M249.51 57.7025c-50.081 0-47.798-39.4691-48.742-39.14-7.516 2.6187-24.133 14.9368-52.439 25.495-31.873 11.885-52.6256 19.315-60.7821 31.2 11.1148 8.915 46.6941 28.9695 46.6941 120.3445v271.14s49.658 14.856 114.885 14.856c68.929 0 115.649-14.856 115.649-14.856v-271.14c0-91.375 35.579-111.4295 46.699-120.3445-8.157-11.885-28.91-19.315-60.782-31.2-28.36-10.5767-44.982-22.9195-52.479-25.5087-.927-.3203 4.178 39.1537-48.703 39.1537z" fill="#8D2941"/><path fill-rule="evenodd" clip-rule="evenodd" d="M467.353 195.129c.936 2.667 1.828 5.303 2.668 7.899-4.445 13.375-45.208 40.86-85.232 37.885-.958-2.613-1.904-5.119-2.836-7.519 20.795-1.358 37.993-5.637 51.595-12.837 13.428-7.109 24.696-15.585 33.805-25.428zm-435.6983.036c9.1031 9.828 20.3606 18.291 33.7724 25.392 13.6109 7.205 30.8241 11.485 51.6389 12.84-.931 2.399-1.877 4.904-2.834 7.517-40.0243 2.975-80.7871-24.51-85.232-37.885.8363-2.585 1.7234-5.21 2.6547-7.864z" fill="#F2F2F2"/><path fill-rule="evenodd" clip-rule="evenodd" d="M467.353 195.129c.936 2.667 1.828 5.303 2.668 7.899-4.445 13.375-45.208 40.86-85.232 37.885-.958-2.613-1.904-5.119-2.836-7.519 20.795-1.358 37.993-5.637 51.595-12.837 13.428-7.109 24.696-15.585 33.805-25.428zm-435.6983.036c9.1031 9.828 20.3606 18.291 33.7724 25.392 13.6109 7.205 30.8241 11.485 51.6389 12.84-.931 2.399-1.877 4.904-2.834 7.517-40.0243 2.975-80.7871-24.51-85.232-37.885.8363-2.585 1.7234-5.21 2.6547-7.864z" fill="#51303C"/><path fill-rule="evenodd" clip-rule="evenodd" d="M307.853 23.345c-5.772-3.24-9.728-5.345-12.008-5.345 0 0 5.882 32.495-46.335 32.495-48.52 0-46.335-32.495-46.335-32.495-2.28 0-6.236 2.105-12.003 5.345 0 0 7.368 40.38 58.403 40.38 51.478 0 58.278-35.895 58.278-40.38z" fill="#8D2941"/><path fill-rule="evenodd" clip-rule="evenodd" d="M413.583 238.323c-9.288 2.238-19.065 3.316-28.798 2.592-8.198-22.369-15.557-36.883-20.013-44.748v270.577s-21.102 6.71-55.866 11.111l-.544-.06c1.881-54.795 5.722-166.47 8.276-240.705 2.056-59.755 31.085-95.29 60.099-117.44-2.675 6.781-5.071 14.606-6.999 23.667 7.354 11.852 24.436 42.069 43.831 94.964.005.014.01.028.014.042zM190.715 477.795c-34.247-4.401-56.476-11.051-56.476-11.051V196.172c-4.456 7.867-11.814 22.379-20.01 44.743-9.633.716-19.3084-.332-28.5102-2.524.005-.032.0117-.064.0198-.096 19.3774-52.848 36.3054-83.066 43.6094-94.944-1.928-9.075-4.327-16.912-7.006-23.701 29.014 22.15 58.044 57.685 60.099 117.44 2.554 74.235 6.396 185.91 8.276 240.705h-.002z" fill="#000" fill-opacity=".1"/><path fill-rule="evenodd" clip-rule="evenodd" d="M309 163.357c3.375 0 6.587-.697 9.5-1.954l-9.5-15.546-9 15.755c2.779 1.125 5.817 1.745 9 1.745z" fill="#F0D231"/><path d="M303.218 162.655l5.958-17.405-15.543 12.541c2.743 2.29 6.006 3.979 9.585 4.864z" fill="#3683CA"/><path d="M324.367 157.794L308.82 145.25l5.959 17.407c3.58-.885 6.844-2.574 9.588-4.863z" fill="#E24040"/><path fill-rule="evenodd" clip-rule="evenodd" d="M309 158c9.941 0 18-8.059 18-18s-8.059-18-18-18-18 8.059-18 18 8.059 18 18 18z" fill="#F2F2F2"/><path fill-rule="evenodd" clip-rule="evenodd" d="M309 154c7.732 0 14-6.268 14-14s-6.268-14-14-14-14 6.268-14 14 6.268 14 14 14z" fill="#8D2941"/><path fill-rule="evenodd" clip-rule="evenodd" d="M310.068 142.298h-3.432c-1.485 0-2.821-.251-3.815-.942-1.077-.749-1.571-1.882-1.571-3.183v-5.33c0-1.307.515-2.434 1.609-3.17 1.007-.676 2.358-.923 3.868-.923h4.455c1.51 0 2.862.247 3.868.923 1.094.736 1.609 1.863 1.609 3.17v4.222h-6.636v-3.456c-.036 0-.074-.001-.114-.001H308c-.04 0-.078.001-.114.001v3.862c.036.001.074.001.114.001h3.318c1.497 0 2.839.247 3.839.927 1.086.738 1.593 1.864 1.593 3.166v5.814c0 1.313-.523 2.44-1.626 3.173-1.012.674-2.373.92-3.897.92h-4.409c-1.51 0-2.862-.246-3.868-.923-1.094-.736-1.609-1.862-1.609-3.17v-4.221h6.636v3.455c.036.001.074.001.114.001h1.977v-4.316zM307 147.703c-.182-.13-.273-.388-.273-.776v-2.519h-4.136v2.971c0 1.896 1.409 2.843 4.227 2.843h4.409c2.849 0 4.273-.947 4.273-2.843v-5.814c0-1.895-1.394-2.843-4.182-2.843H308c-.545 0-.909-.054-1.091-.161-.182-.13-.273-.388-.273-.776v-4.49c0-.388.091-.635.273-.743.182-.129.546-.194 1.091-.194h1.909c.546 0 .909.065 1.091.194.182.108.273.355.273.743v2.52h4.136v-2.972c0-1.895-1.409-2.843-4.227-2.843h-4.455c-2.818 0-4.227.948-4.227 2.843v5.33c0 1.917 1.379 2.875 4.136 2.875H310c.545 0 .894.065 1.045.194.182.107.273.355.273.743v4.942c0 .388-.091.646-.273.776-.151.107-.5.161-1.045.161h-1.909c-.546 0-.909-.054-1.091-.161z" fill="#F2F2F2"/><path d="M311.318 146.927v-4.942c0-.388-.091-.636-.273-.743-.151-.129-.5-.194-1.045-.194h-3.364c-2.757 0-4.136-.958-4.136-2.875v-5.33c0-1.895 1.409-2.843 4.227-2.843h4.455c2.818 0 4.227.948 4.227 2.843v2.972h-4.136v-2.52c0-.388-.091-.635-.273-.743-.182-.129-.545-.194-1.091-.194H308c-.545 0-.909.065-1.091.194-.182.108-.273.355-.273.743v4.49c0 .388.091.646.273.776.182.107.546.161 1.091.161h3.318c2.788 0 4.182.948 4.182 2.843v5.814c0 1.896-1.424 2.843-4.273 2.843h-4.409c-2.818 0-4.227-.947-4.227-2.843v-2.971h4.136v2.519c0 .388.091.646.273.776.182.107.545.161 1.091.161H310c.545 0 .894-.054 1.045-.161.182-.13.273-.388.273-.776z" fill="#3D3D3D"/></svg>