<?xml version="1.0" encoding="UTF-8"?><svg width="500" height="500" viewBox="0 0 500 500" fill="none" xmlns="http://www.w3.org/2000/svg"><path fill-rule="evenodd" clip-rule="evenodd" d="M203.004 109.223h93.643V21.928h-93.643v87.295z" fill="#C8C8C8"/><path fill-rule="evenodd" clip-rule="evenodd" d="M202.863 32.2281h93.459v-14.2h-93.459v14.2z" fill="#E3E3E3"/><path fill-rule="evenodd" clip-rule="evenodd" d="M87.5475 75.2585S46.7848 148.059 29 203.029c4.4449 13.375 45.2077 40.86 85.232 37.885 13.34-36.4 24.46-52 24.46-52s2.963-95.0855-51.1445-113.6555zm323.9245 0s40.763 72.8005 58.548 127.7705c-4.445 13.375-45.208 40.86-85.233 37.885-13.339-36.4-24.459-52-24.459-52s-2.964-95.0855 51.144-113.6555z" fill="#E7E7E7"/><path fill-rule="evenodd" clip-rule="evenodd" d="M249.51 57.7025c-50.081 0-47.798-39.4691-48.742-39.14-7.516 2.6187-24.133 14.9368-52.439 25.495-31.873 11.885-52.6256 19.315-60.7821 31.2 11.1148 8.915 46.6941 28.9695 46.6941 120.3445v271.14s49.658 14.856 114.885 14.856c68.929 0 115.649-14.856 115.649-14.856v-271.14c0-91.375 35.579-111.4295 46.699-120.3445-8.157-11.885-28.91-19.315-60.782-31.2-28.36-10.5767-44.982-22.9195-52.479-25.5087-.927-.3203 4.178 39.1537-48.703 39.1537z" fill="#E7E7E7"/><path fill-rule="evenodd" clip-rule="evenodd" d="M249.509 50.4987c23.731 0 35.462-6.7116 41.199-14.0344l3.192.8392c45.286 11.3389 71.55 39.4268 71.55 68.1605v68.857c-.455 6.628-.699 13.712-.699 21.286v271.141s-43.163 13.71-107.735 14.788c-2.595.043-5.225.065-7.889.065-64.901 0-114.388-14.707-114.881-14.854l.004-361.283c0-28.4514 25.752-56.2698 70.222-67.8173l5.219-1.3266c6.037 7.3786 17.622 14.1786 39.818 14.1786z" fill="#F2F2F2"/><path fill-rule="evenodd" clip-rule="evenodd" d="M307.851 23.345c-5.772-3.24-9.728-5.345-12.008-5.345 0 0 5.882 32.495-46.335 32.495-48.52 0-46.335-32.495-46.335-32.495-2.28 0-6.236 2.105-12.003 5.345 0 0 7.368 40.38 58.403 40.38 51.478 0 58.278-35.895 58.278-40.38z" fill="#F2F2F2"/><path fill-rule="evenodd" clip-rule="evenodd" d="M302.111 39.5874a150.6896 150.6896 0 00-7.566-2.1474c8.63-7.842 9.216-16.311 9.216-16.311-1.119-.6825.246.0562 4.094 2.2162 0 1.8012-1.097 8.6685-5.744 16.2422zm-104.029-.3629c-5.556-8.4706-6.908-15.8793-6.908-15.8793 3.844-2.16 5.31-2.985 4.398-2.4749-.257 0 1.298 8.4034 10.137 16.259a152.2166 152.2166 0 00-7.627 2.0952z" fill="#3D3D3D"/><path fill-rule="evenodd" clip-rule="evenodd" d="M209.734 36.3654a159.313 159.313 0 00-6.707 1.6207c-3.4-4.7584-6.046-10.3601-7.937-16.8049C198.779 19.1995 201.455 18 203.176 18c0 0-.645 9.6009 6.558 18.3654zm80.827.2841C297.622 27.8098 295.846 18 295.846 18c1.785 0 4.598 1.2903 8.505 3.4054-1.878 6.4069-4.509 11.9755-7.894 16.7056a157.7206 157.7206 0 00-5.896-1.4615z" fill="#F2F2F2"/><path fill-rule="evenodd" clip-rule="evenodd" d="M413.585 238.323c-9.288 2.238-19.065 3.316-28.798 2.592-8.198-22.369-15.557-36.883-20.013-44.748v270.577s-21.102 6.71-55.866 11.111l-.544-.06c1.881-54.795 5.722-166.47 8.276-240.705 2.056-59.755 31.085-95.29 60.099-117.44-2.675 6.781-5.071 14.606-6.999 23.667 7.354 11.852 24.436 42.069 43.831 94.964.005.014.01.028.014.042zM190.717 477.795c-34.248-4.401-56.476-11.051-56.476-11.051V196.172c-4.456 7.867-11.814 22.379-20.01 44.743-9.633.716-19.3084-.332-28.5103-2.524a1.056 1.056 0 01.0199-.096c19.3774-52.848 36.3054-83.066 43.6094-94.944-1.929-9.075-4.327-16.912-7.006-23.701 29.014 22.15 58.044 57.685 60.099 117.44 2.554 74.235 6.396 185.91 8.276 240.705h-.002z" fill="#000" fill-opacity=".06"/><path fill-rule="evenodd" clip-rule="evenodd" d="M309 169c7.732 0 14-11.641 14-26s-6.268-26-14-26-14 11.641-14 26 6.268 26 14 26z" fill="#C74343"/><path fill-rule="evenodd" clip-rule="evenodd" d="M309 167c6.627 0 12-10.745 12-24s-5.373-24-12-24-12 10.745-12 24 5.373 24 12 24z" fill="#F2F2F2"/><path fill-rule="evenodd" clip-rule="evenodd" d="M309 166c6.075 0 11-10.297 11-23s-4.925-23-11-23-11 10.297-11 23 4.925 23 11 23z" fill="#C74343"/><path fill-rule="evenodd" clip-rule="evenodd" d="M309 166c6.075 0 11-10.297 11-23h-22c0 12.703 4.925 23 11 23z" fill="#3D3D3D"/><path fill-rule="evenodd" clip-rule="evenodd" d="M309 156c6.627 0 12-5.82 12-13s-5.373-13-12-13-12 5.82-12 13 5.373 13 12 13z" fill="#F2F2F2"/><path fill-rule="evenodd" clip-rule="evenodd" d="M309 154c6.075 0 11-4.925 11-11s-4.925-11-11-11-11 4.925-11 11 4.925 11 11 11z" fill="#EDC1C1"/><path fill-rule="evenodd" clip-rule="evenodd" d="M309 154c3.866 0 7-3.134 7-7s-3.134-7-7-7-7 3.134-7 7 3.134 7 7 7z" fill="#F2F2F2"/><path d="M308.992 145.25l-1.742 1.137.7 2.363h2.1l.7-2.363-1.758-1.137z" fill="#282828"/><path fill-rule="evenodd" clip-rule="evenodd" d="M309 154c3.866 0 7-3.134 7-7s-3.134-7-7-7-7 3.134-7 7 3.134 7 7 7zm6.222-7c0 1.309-.404 2.524-1.095 3.527l-.34-.946-1.489.71-.719 1.498.965.326c-1.006.698-2.227 1.107-3.544 1.107-1.315 0-2.535-.408-3.54-1.104l.961-.329-.719-1.498-1.489-.71-.332.958a6.2004 6.2004 0 01-1.103-3.539c0-.476.053-.939.154-1.384l.542.817 1.255-1.072.306-1.633-1.211-.183c.927-1.385 2.395-2.378 4.102-2.675l-.482 1.158 1.568.551 1.556-.551-.469-1.153c1.697.302 3.155 1.292 4.077 2.671l-1.387.182.307 1.633 1.255 1.072.72-.803c.099.441.151.899.151 1.37z" fill="#282828"/></svg>