<svg xmlns="http://www.w3.org/2000/svg" width="501" height="501" fill="none"><path fill="#B7B7B7" fill-rule="evenodd" d="M207.75 118.54h93.64v-87.3h-93.64v87.3Z" clip-rule="evenodd"/><path fill="#141414" fill-rule="evenodd" d="M207.6 41.54h93.46v-14.2H207.6v14.2Z" clip-rule="evenodd"/><path fill="#F1F1F1" fill-rule="evenodd" d="M92.29 84.57s-40.76 72.8-58.55 127.77c4.45 13.38 45.21 40.86 85.23 37.89 13.34-36.4 24.46-52 24.46-52s2.97-95.09-51.14-113.66Zm323.92 0s40.77 72.8 58.55 127.77c-4.44 13.38-45.2 40.86-85.23 37.89-13.34-36.4-24.46-52-24.46-52s-2.96-95.09 51.14-113.66Z" clip-rule="evenodd"/><path fill="#F1F1F1" fill-rule="evenodd" d="M254.25 67.02c-50.08 0-47.8-39.47-48.74-39.14-7.52 2.62-24.13 14.94-52.44 25.5-31.87 11.88-52.62 19.3-60.78 31.2 11.11 8.9 46.7 28.96 46.7 120.34v271.14s49.65 14.85 114.88 14.85c68.93 0 115.65-14.85 115.65-14.85V204.92c0-91.38 35.58-111.43 46.7-120.35-8.16-11.88-28.91-19.31-60.79-31.2-28.36-10.57-44.98-22.92-52.47-25.5-.93-.33 4.17 39.15-48.7 39.15Z" clip-rule="evenodd"/><path fill="#222" fill-rule="evenodd" d="M101.66 88.26c8.53-11.24 28.66-18.57 59.04-30.08 19.3-7.3 33.08-15.46 42.19-20.66l-.01-.05c1.21-.7 2.34-1.33 3.4-1.91l1.72 3.21c-9.03 5.07-23.46 13.98-44.36 21.9-29.86 11.3-49.81 18.58-58.6 29.5a52.18 52.18 0 0 0-3.39-1.91Zm-6.7-2.88c8.03-11.88 28.46-19.31 59.84-31.2 19.3-7.3 33.09-15.46 42.2-20.66l-.02-.05.03-.01 1.74 3.23c-9.1 5.2-22.53 12.98-41 19.98-30.46 11.53-50.6 18.87-59.1 30.16l-3.7-1.45Zm312.24 2.88a53.2 53.2 0 0 0-3.4 1.91c-8.78-10.92-28.73-18.2-58.6-29.5C325 53 310.84 44.43 301.77 39.3l1.58-3.3c.83.45 1.7.95 2.62 1.47l-.01.05c9.1 5.2 22.89 13.35 42.19 20.66 30.38 11.51 50.5 18.84 59.04 30.08Zm6.7-2.87c-1.27.44-2.5.92-3.7 1.44-8.5-11.29-28.64-18.63-59.1-30.16-18.28-6.93-31.6-14.6-40.7-19.81l1.41-3.42.05.03v.05c9.1 5.2 22.88 13.35 42.18 20.66 31.38 11.89 51.82 19.32 59.85 31.2Zm58.2 119.05c.93 2.67 1.82 5.3 2.66 7.9-4.44 13.38-45.2 40.87-85.23 37.89a468.8 468.8 0 0 0-2.83-7.52c20.79-1.36 37.99-5.64 51.59-12.84 13.43-7.1 24.7-15.58 33.8-25.43Zm-435.7.04c9.1 9.83 20.36 18.3 33.77 25.4 13.61 7.2 30.82 11.48 51.64 12.83-.93 2.4-1.88 4.9-2.84 7.52-40.02 2.97-80.78-24.51-85.23-37.89.84-2.58 1.73-5.2 2.66-7.86Z" clip-rule="evenodd"/><path fill="#222" fill-rule="evenodd" d="M472.1 204.44c.93 2.67 1.82 5.3 2.66 7.9-4.44 13.38-45.2 40.87-85.23 37.89a468.8 468.8 0 0 0-2.83-7.52c20.79-1.36 37.99-5.64 51.59-12.84 13.43-7.1 24.7-15.58 33.8-25.43Zm-435.7.04c9.1 9.83 20.36 18.3 33.77 25.4 13.61 7.2 30.82 11.48 51.64 12.83-.93 2.4-1.88 4.9-2.84 7.52-40.02 2.97-80.78-24.51-85.23-37.89.84-2.58 1.73-5.2 2.66-7.86ZM312.6 32.66c-5.78-3.24-9.74-5.34-12.02-5.34 0 0 5.89 32.5-46.33 32.5-48.52 0-46.34-32.5-46.34-32.5-2.28 0-6.23 2.1-12 5.34 0 0 7.37 40.38 58.4 40.38 51.48 0 58.28-35.9 58.28-40.38Z" clip-rule="evenodd"/><path fill="#000" fill-opacity=".1" fill-rule="evenodd" d="M418.18 247.78a93.8 93.8 0 0 1-28.8 2.6c-8.2-22.37-15.55-36.89-20-44.75V476.2s-21.11 6.7-55.87 11.1l-.55-.05 8.28-240.7c2.05-59.76 31.08-95.3 60.1-117.45a148.7 148.7 0 0 0-7 23.67c7.35 11.85 24.43 42.07 43.83 94.96l.01.04ZM195.31 487.26c-34.24-4.4-56.47-11.05-56.47-11.05V205.63c-4.46 7.87-11.81 22.38-20.01 44.75a93.85 93.85 0 0 1-28.51-2.53l.02-.1c19.38-52.84 36.3-83.06 43.6-94.94a148.74 148.74 0 0 0-7-23.7c29.02 22.15 58.05 57.69 60.1 117.44l8.28 240.7Z" clip-rule="evenodd"/><path fill="#408F48" d="M295 124.05h27.3v26.2a13.65 13.65 0 1 1-27.3 0v-26.2Z"/><path fill="#F1F1F1" d="M304.44 125.53h8.41v35.63h-8.41z"/><path fill="#F1F1F1" d="M304.44 125.53h8.41v35.63h-8.41z"/><path fill="#F1F1F1" d="M304.44 125.53h8.41v35.63h-8.41z"/><path fill="#F1F1F1" d="M296.21 139.52v-8.4h24.88v8.4z"/><path fill="#F1F1F1" d="M296.21 139.52v-8.4h24.88v8.4z"/><path fill="#F1F1F1" d="M296.21 139.52v-8.4h24.88v8.4z"/><path fill="#408F48" fill-rule="evenodd" d="M304.44 139.52v-8.41h8.41v8.41h-8.41Z" clip-rule="evenodd"/><path fill="#fff" fill-rule="evenodd" d="M308.65 156.9a6.4 6.4 0 1 0 0-12.8 6.4 6.4 0 0 0 0 12.8Z" clip-rule="evenodd"/><circle cx="308.65" cy="150.5" r="1.8" fill="#3D3D3D"/><path fill="#3D3D3D" fill-rule="evenodd" d="M306.04 156.34a1.8 1.8 0 1 0-2.74-2.32 6.43 6.43 0 0 0 2.74 2.32Zm-2.96-9a1.8 1.8 0 1 0 2.3-2.35 6.44 6.44 0 0 0-2.3 2.35Zm10.9 6.68a6.43 6.43 0 0 1-2.73 2.32 1.8 1.8 0 1 1 2.74-2.32Zm.23-6.68a1.8 1.8 0 1 1-2.3-2.35 6.43 6.43 0 0 1 2.3 2.35Z" clip-rule="evenodd"/></svg>