<svg xmlns="http://www.w3.org/2000/svg" width="501" height="501" fill="none"><path fill="#B88F19" fill-rule="evenodd" d="M203.8 110.98h93.64v-87.3H203.8v87.3Z" clip-rule="evenodd"/><path fill="#062C62" fill-rule="evenodd" d="M203.66 33.99h93.46v-14.2h-93.46v14.2Z" clip-rule="evenodd"/><path fill="#FFD047" fill-rule="evenodd" d="M88.34 77.02s-40.76 72.8-58.55 127.77c4.45 13.37 45.21 40.86 85.24 37.88 13.34-36.4 24.46-52 24.46-52s2.96-95.08-51.15-113.65Zm323.93 0s40.76 72.8 58.54 127.77c-4.44 13.37-45.2 40.86-85.23 37.88-13.34-36.4-24.46-52-24.46-52s-2.96-95.08 51.15-113.65Z" clip-rule="evenodd"/><path fill="#FFD047" fill-rule="evenodd" d="M250.3 59.46c-50.08 0-47.8-39.47-48.74-39.14-7.51 2.62-24.13 14.94-52.44 25.5-31.87 11.88-52.62 19.31-60.78 31.2 11.12 8.91 46.7 28.97 46.7 120.34V468.5s49.65 14.86 114.88 14.86c68.93 0 115.65-14.86 115.65-14.86V197.36c0-91.38 35.58-111.43 46.7-120.34-8.16-11.89-28.91-19.32-60.78-31.2C323.13 35.24 306.5 22.9 299 20.3c-.93-.32 4.18 39.15-48.7 39.15Z" clip-rule="evenodd"/><path fill="#0F53B5" fill-rule="evenodd" d="M97.7 80.7c8.55-11.24 28.67-18.57 59.05-30.08 19.3-7.3 33.08-15.46 42.2-20.66l-.02-.05c1.21-.69 2.34-1.33 3.4-1.9l1.73 3.2c-9.03 5.07-23.46 13.98-44.37 21.9-29.86 11.3-49.8 18.58-58.59 29.5a52.29 52.29 0 0 0-3.4-1.9ZM91 77.83c8.04-11.89 28.47-19.32 59.85-31.2 19.3-7.32 33.09-15.47 42.2-20.67l-.01-.05.02-.01 1.74 3.23c-9.1 5.2-22.52 12.98-41 19.98-30.46 11.53-50.6 18.87-59.1 30.16L91 77.83Zm312.24 2.87c-1.16.6-2.29 1.24-3.39 1.91-8.78-10.92-28.73-18.2-58.6-29.5-20.2-7.66-34.35-16.23-43.43-21.37l1.58-3.3c.83.45 1.7.95 2.62 1.47l-.01.05c9.1 5.2 22.89 13.35 42.2 20.66 30.38 11.51 50.5 18.84 59.03 30.08Zm6.7-2.87c-1.26.44-2.48.92-3.68 1.44-8.5-11.29-28.65-18.63-59.1-30.16-18.29-6.93-31.61-14.6-40.7-19.81l1.4-3.42.05.03v.05c9.1 5.2 22.88 13.35 42.19 20.66 31.38 11.89 51.81 19.32 59.84 31.2Zm58.21 119.06a338 338 0 0 1 2.67 7.9c-4.45 13.37-45.21 40.86-85.24 37.88a389.4 389.4 0 0 0-2.83-7.52c20.8-1.36 38-5.64 51.6-12.84 13.42-7.1 24.69-15.58 33.8-25.42Zm-435.7.03c9.1 9.83 20.36 18.3 33.77 25.4 13.61 7.2 30.83 11.48 51.64 12.83-.93 2.4-1.88 4.9-2.83 7.52-40.03 2.98-80.79-24.51-85.24-37.88.84-2.59 1.73-5.21 2.66-7.87Z" clip-rule="evenodd"/><path fill="#0F53B5" fill-rule="evenodd" d="M468.15 196.89a338 338 0 0 1 2.67 7.9c-4.45 13.37-45.21 40.86-85.24 37.88a389.4 389.4 0 0 0-2.83-7.52c20.8-1.36 38-5.64 51.6-12.84 13.42-7.1 24.69-15.58 33.8-25.42Zm-435.7.03c9.1 9.83 20.36 18.3 33.77 25.4 13.61 7.2 30.83 11.48 51.64 12.83-.93 2.4-1.88 4.9-2.83 7.52-40.03 2.98-80.79-24.51-85.24-37.88.84-2.59 1.73-5.21 2.66-7.87ZM308.65 25.1c-5.78-3.24-9.73-5.34-12.01-5.34 0 0 5.88 32.5-46.34 32.5-48.52 0-46.33-32.5-46.33-32.5-2.28 0-6.24 2.1-12 5.34 0 0 7.36 40.38 58.4 40.38 51.48 0 58.28-35.9 58.28-40.38Z" clip-rule="evenodd"/><path fill="#000" fill-opacity=".1" fill-rule="evenodd" d="M414.24 238.71a93.76 93.76 0 0 1-28.8 2.6c-8.2-22.38-15.56-36.9-20.01-44.76v270.58s-21.1 6.71-55.87 11.11l-.54-.06 8.28-240.7c2.05-59.76 31.08-95.3 60.1-117.44a148.59 148.59 0 0 0-7 23.66c7.35 11.86 24.43 42.07 43.83 94.97v.04ZM191.37 478.18c-34.25-4.4-56.47-11.05-56.47-11.05V196.56c-4.46 7.87-11.82 22.38-20.01 44.74a93.6 93.6 0 0 1-28.52-2.52l.02-.1c19.38-52.85 36.31-83.06 43.61-94.94a148.63 148.63 0 0 0-7-23.7c29.01 22.15 58.04 57.68 60.1 117.44 2.55 74.23 6.4 185.9 8.27 240.7Z" clip-rule="evenodd"/><path fill="#FFCF47" fill-rule="evenodd" d="M310.07 162.24a22 22 0 1 0 0-44 22 22 0 0 0 0 44Z" clip-rule="evenodd"/><path fill="#0058AA" fill-rule="evenodd" d="M334.07 140.24a24 24 0 1 1-48 0 24 24 0 0 1 48 0Zm-2 0a22 22 0 1 1-44 0 22 22 0 0 1 44 0Z" clip-rule="evenodd"/><path fill="#FFCF47" fill-rule="evenodd" d="M310.07 156.63a16.4 16.4 0 1 0 0-32.79 16.4 16.4 0 0 0 0 32.8Z" clip-rule="evenodd"/><path fill="#0058AA" fill-rule="evenodd" d="M327.46 140.24a17.4 17.4 0 1 1-34.79 0 17.4 17.4 0 0 1 34.8 0Zm-1 0a16.4 16.4 0 1 1-32.79 0 16.4 16.4 0 0 1 32.8 0Z" clip-rule="evenodd"/><path fill="#0058AA" d="M302.87 134.41a39.8 39.8 0 0 1 14.4 0c0 7.08-2.4 11.92-7.2 14.55-4.8-2.63-7.2-7.47-7.2-14.55Z"/></svg>