<svg xmlns="http://www.w3.org/2000/svg" width="500" height="500" fill="none" viewBox="0 0 500 500"><path fill="#162DDD" fill-rule="evenodd" d="M203 109.22h93.65v-87.3H203v87.3Z" clip-rule="evenodd"/><path fill="#CACDE4" fill-rule="evenodd" d="M202.86 32.23h93.46v-14.2h-93.46v14.2Z" clip-rule="evenodd"/><path fill="#1931ED" fill-rule="evenodd" d="M87.55 75.26S46.78 148.06 29 203.03c4.44 13.37 45.2 40.86 85.23 37.88 13.34-36.4 24.46-52 24.46-52s2.97-95.08-51.14-113.65M411.47 75.26s40.76 72.8 58.55 127.77c-4.44 13.37-45.2 40.86-85.23 37.88-13.34-36.4-24.46-52-24.46-52s-2.96-95.08 51.14-113.65" clip-rule="evenodd"/><path fill="#1931ED" fill-rule="evenodd" d="M249.51 57.7c-50.08 0-47.8-39.47-48.74-39.14-7.52 2.62-24.13 14.94-52.44 25.5-31.87 11.88-52.63 19.31-60.78 31.2 11.11 8.91 46.7 28.97 46.7 120.34v271.14s49.65 14.86 114.88 14.86c68.93 0 115.64-14.86 115.64-14.86V195.6c0-91.37 35.59-111.43 46.7-120.34-8.15-11.89-28.9-19.32-60.78-31.2-28.36-10.58-44.98-22.92-52.48-25.51-.92-.32 4.18 39.15-48.7 39.15Z" clip-rule="evenodd"/><path fill="url(#paint0_linear_2801_7328)" d="m134.13 141.47 93.24 126.03h-48.5l163.1 204.95a330.4 330.4 0 0 0 15-3.45l-84.6-141h43.5l-81.5-141.5h47.5l-98.4-141.74c-31.55 13.77-49.34 36.92-49.34 60.5v36.2Z"/><path fill="#DEE2FB" fill-rule="evenodd" d="M174.4 32.4c6.76-3.4 12.31-6.53 16.77-9.03l2.14 6.63c-8.9 5.14-22.46 13.33-41.6 20.71-28.2 10.88-47.4 18.03-56.49 28.28l-7.61-3.97c8.2-11.83 28.93-19.25 60.72-31.1 10.15-3.8 18.8-7.8 26.07-11.52ZM324.5 32.34a245.73 245.73 0 0 0 26.19 11.57c31.79 11.86 52.51 19.28 60.71 31.11-.4.22-2.9 1.6-7.49 4.1-9.04-10.32-28.28-17.48-56.6-28.4-18.72-7.23-32.1-15.21-41-20.37l1.54-6.98c4.43 2.49 9.95 5.6 16.65 8.97Z" clip-rule="evenodd"/><path fill="#DEE2FB" fill-rule="evenodd" d="M307.85 23.34c-5.77-3.23-9.73-5.34-12-5.34 0 0 5.88 32.5-46.34 32.5-48.52 0-46.34-32.5-46.34-32.5-2.28 0-6.23 2.1-12 5.34 0 0 7.37 40.39 58.4 40.39 51.48 0 58.28-35.9 58.28-40.38Z" clip-rule="evenodd"/><path fill="#000" fill-opacity=".1" fill-rule="evenodd" d="M413.58 238.32a93.75 93.75 0 0 1-28.8 2.6c-8.2-22.37-15.55-36.89-20-44.75v270.57s-21.1 6.71-55.87 11.12c-.18-.03-.37-.05-.55-.06l8.28-240.71c2.06-59.75 31.09-95.29 60.1-117.44a148.59 148.59 0 0 0-7 23.67c7.35 11.85 24.44 42.07 43.83 94.96l.01.04ZM190.72 477.8c-34.25-4.4-56.48-11.06-56.48-11.06V196.17c-4.46 7.87-11.81 22.38-20 44.75a93.6 93.6 0 0 1-28.52-2.53l.02-.1c19.38-52.84 36.3-83.06 43.61-94.94a148.74 148.74 0 0 0-7-23.7c29 22.15 58.04 57.69 60.1 117.44l8.27 240.7Z" clip-rule="evenodd"/><defs><linearGradient id="paint0_linear_2801_7328" x1="245.55" x2="245.55" y1="44.76" y2="472.45" gradientUnits="userSpaceOnUse"><stop stop-color="#DEE2FB"/><stop offset="1" stop-color="#ACAFC6" stop-opacity=".51"/></linearGradient></defs></svg>