<?xml version="1.0" encoding="UTF-8"?><svg width="500" height="500" viewBox="0 0 500 500" fill="none" xmlns="http://www.w3.org/2000/svg"><path fill-rule="evenodd" clip-rule="evenodd" d="M203.003 109.223h93.643V21.928h-93.643v87.295z" fill="#42B0D3"/><path fill-rule="evenodd" clip-rule="evenodd" d="M202.864 32.2281h93.458v-14.2h-93.458v14.2z" fill="#E7EFF3"/><path fill-rule="evenodd" clip-rule="evenodd" d="M87.5475 75.2585S46.7848 148.059 29 203.029c4.4449 13.375 45.2077 40.86 85.232 37.885 13.34-36.4 24.46-52 24.46-52s2.963-95.0855-51.1445-113.6555zM411.473 75.2585s40.762 72.8005 58.547 127.7705c-4.445 13.375-45.208 40.86-85.232 37.885-13.34-36.4-24.46-52-24.46-52s-2.963-95.0855 51.145-113.6555z" fill="#4DC2E7"/><path fill-rule="evenodd" clip-rule="evenodd" d="M249.511 57.7025c-50.082 0-47.798-39.4691-48.743-39.14-7.515 2.6187-24.132 14.9368-52.438 25.495-31.873 11.885-52.626 19.315-60.7825 31.2 11.1148 8.915 46.6945 28.9695 46.6945 120.3445v271.14s49.657 14.856 114.885 14.856c68.929 0 115.648-14.856 115.648-14.856v-271.14c0-91.375 35.58-111.4295 46.7-120.3445-8.157-11.885-28.91-19.315-60.783-31.2-28.36-10.5767-44.982-22.9195-52.478-25.5087-.927-.3203 4.177 39.1537-48.703 39.1537z" fill="#4DC2E7"/><path fill-rule="evenodd" clip-rule="evenodd" d="M201.788 27.1167l1.727 3.2146-1.53.8663c-8.946 5.0961-22.616 13.2987-41.88 20.6997l-11.151 4.2368c-24.118 9.1985-40.457 15.9863-48.165 25.5979a49.8626 49.8626 0 00-3.3803-1.9139c8.5123-11.2394 28.5883-18.5704 58.9053-30.078 19.259-7.3123 33.01-15.4687 42.097-20.6626l-.01-.0499 1.754-.9978c.564-.3189 1.109-.6237 1.633-.9131zm-9.245-2.1038l1.735 3.2289-4.23 2.4199c-8.845 5.0283-20.917 11.5776-36.677 17.5615l-7.955 3.0188c-25.962 9.8705-43.302 16.8726-51.0186 27.1479a48.7793 48.7793 0 00-2.9256-1.1799l-.7491-.2682c8.0109-11.8867 28.3983-19.3167 59.7103-31.2017 19.259-7.3123 33.01-15.4687 42.097-20.6626l-.01-.0499.023-.0147zM297.065 30.8516l1.581-3.3039 1.533.8651c.352.2.712.405 1.078.6147l-.01.0499 5.018 2.873c8.881 5.0574 21.079 11.7148 37.079 17.7896l8.787 3.3354c25.433 9.6786 42.461 16.6291 50.125 26.7501-1.163.5935-2.291 1.2313-3.388 1.9063-8.756-10.9212-28.661-18.1972-58.462-29.5087l-1.763-.6778c-15.149-5.8932-26.783-12.2525-35.337-17.124l-6.241-3.5697zM307.091 25l.047.0275-.01.0499 5.018 2.873c8.881 5.0574 21.079 11.7148 37.079 17.7896l9.839 3.7359c25.477 9.71 42.351 16.7149 49.627 27.1106l.244.3552a53.151 53.151 0 00-3.676 1.4463c-8.475-11.2884-28.576-18.6276-58.972-30.1649-16.441-6.2424-28.868-13.1002-37.806-18.2046l-2.801-1.6049L307.091 25zM467.353 195.129c.936 2.667 1.827 5.303 2.667 7.899-4.445 13.375-45.208 40.86-85.232 37.885-.958-2.613-1.904-5.119-2.835-7.519 20.795-1.358 37.993-5.637 51.594-12.837 13.428-7.109 24.697-15.585 33.806-25.428zM31.6547 195.165c9.1031 9.828 20.3606 18.291 33.7724 25.392 13.6109 7.205 30.8241 11.485 51.6389 12.84-.931 2.399-1.877 4.904-2.834 7.517-40.0243 2.975-80.7871-24.51-85.232-37.885.8363-2.585 1.7234-5.21 2.6547-7.864z" fill="#EDF6FA"/><path fill-rule="evenodd" clip-rule="evenodd" d="M307.852 23.345C302.08 20.105 298.124 18 295.844 18c0 0 5.881 32.495-46.335 32.495-48.521 0-46.336-32.495-46.336-32.495-2.279 0-6.235 2.105-12.002 5.345 0 0 7.368 40.38 58.402 40.38 51.479 0 58.279-35.895 58.279-40.38z" fill="#EDF6FA"/><path fill-rule="evenodd" clip-rule="evenodd" d="M413.584 238.323c-9.287 2.238-19.064 3.316-28.798 2.592-8.197-22.369-15.557-36.883-20.012-44.748v270.577s-21.102 6.71-55.867 11.111l-.544-.06c1.881-54.795 5.722-166.47 8.277-240.705 2.055-59.755 31.084-95.29 60.099-117.44-2.676 6.781-5.072 14.606-7 23.667 7.354 11.852 24.436 42.069 43.831 94.964.005.014.01.028.014.042zM190.717 477.795c-34.248-4.401-56.477-11.051-56.477-11.051V196.172c-4.456 7.867-11.813 22.379-20.009 44.743-9.633.716-19.3091-.332-28.511-2.524a1.056 1.056 0 01.0199-.096c19.3771-52.848 36.3051-83.066 43.6101-94.944-1.929-9.075-4.328-16.912-7.007-23.701 29.015 22.15 58.044 57.685 60.099 117.44 2.555 74.235 6.396 185.91 8.277 240.705h-.002z" fill="#000" fill-opacity=".06"/><path fill-rule="evenodd" clip-rule="evenodd" d="M292.714 126h32.571v32.49L309 164l-16.286-5.51V126z" fill="#E5C659"/><path fill-rule="evenodd" clip-rule="evenodd" d="M294.523 137.762h28.953v19.443L309 162.191l-14.477-4.986v-19.443z" fill="#25C0F1"/><path d="M317.705 159.193l-23.182-16.173v-5.258h7.862l21.091 14.713v4.73l-5.771 1.988zM304.023 127.81h9.9524v8.1429h-9.9524z" fill="#F2F2F2"/><path d="M304.023 127.81h-9.5v8.142h9.5v-8.142zM313.976 127.81v8.142h9.5v-8.142h-9.5z" fill="#D74141"/><path d="M298.999 119l.674 2.073h2.179l-1.763 1.281.674 2.073-1.764-1.281-1.763 1.281.673-2.073-1.763-1.281h2.18l.673-2.073zM308.999 117l.898 2.764h2.906l-2.351 1.708.898 2.764-2.351-1.708-2.351 1.708.898-2.764-2.351-1.708h2.906l.898-2.764zM318.999 119l.674 2.073h2.179l-1.763 1.281.674 2.073-1.764-1.281-1.763 1.281.673-2.073-1.763-1.281h2.18l.673-2.073z" fill="#EBCE68"/></svg>