<?xml version="1.0" encoding="UTF-8"?><svg height="500" viewBox="0 0 500 500" width="500" xmlns="http://www.w3.org/2000/svg"><g fill="none" fill-rule="evenodd"><path d="M0 0h500v500H0z"/><path d="M203.006 109.193h93.643V21.898h-93.643z" fill="#005d42"/><path d="M202.867 32.198h93.458v-14.2h-93.458z" fill="#363636"/><g fill="#3d3d3d"><path d="M87.55 75.26s-40.762 72.8-58.547 127.77c4.445 13.375 45.208 40.86 85.232 37.885 13.34-36.4 24.46-52 24.46-52S141.658 93.83 87.55 75.26M411.476 75.26s40.762 72.8 58.547 127.77c-4.445 13.375-45.208 40.86-85.232 37.885-13.34-36.4-24.46-52-24.46-52S357.368 93.83 411.476 75.26"/><path d="M249.514 57.706c-50.082 0-47.798-39.47-48.742-39.14-7.516 2.618-24.133 14.936-52.439 25.495-31.873 11.885-52.626 19.315-60.782 31.2 11.114 8.915 46.694 28.97 46.694 120.345v271.14S183.903 481.6 249.13 481.6c68.929 0 115.648-14.855 115.648-14.855v-271.14c0-91.375 35.58-111.43 46.7-120.345-8.157-11.885-28.91-19.315-60.783-31.2-28.36-10.577-44.982-22.92-52.478-25.511-.927-.318 4.177 39.156-48.703 39.156z"/></g><path d="M278 52.17c22.33-10.84 19.508-33.897 20.217-33.655 6.5 2.249 19.86 11.826 41.783 21.227v433.013c-15.038 3.038-36.29 6.397-62 7.944zm-56 428.56c-25.064-1.53-46.558-4.903-62-7.957V39.323c21.3-9.246 34.354-18.554 40.772-20.793.72-.249-.439 22.677 21.228 33.552zM433.007 232.003l-2.968-9.468a85.956 85.956 0 0 0 3.617-1.805c13.428-7.11 24.696-15.585 33.805-25.428a338.826 338.826 0 0 1 2.668 7.9c-2.577 7.753-17.357 20.247-37.122 28.801zM31.655 195.302c9.103 9.828 20.36 18.291 33.772 25.392 1.04.55 1.92.926 3.002 1.442l-2.654 9.68c-19.591-8.55-34.214-20.943-36.775-28.65.836-2.585 1.723-5.21 2.655-7.864z" fill="#008e65"/><path d="M430.298 222.413l3.05 9.441c-14.404 6.286-31.494 10.493-48.451 9.233a426.404 426.404 0 0 0-2.836-7.52c19.12-1.248 35.198-4.966 48.237-11.154zM117.067 233.534c-.932 2.4-1.878 4.904-2.835 7.516-17.184 1.278-34.503-3.06-49.027-9.484l3.006-9.464c13.15 6.358 29.435 10.168 48.856 11.432zM249.576 63.752c51.479 0 58.279-35.895 58.279-40.38-5.772-3.24-9.728-5.345-12.008-5.345 0 0 5.881 32.495-46.335 32.495-48.52 0-46.336-32.495-46.336-32.495-2.28 0-6.235 2.105-12.002 5.345 0 0 7.368 40.38 58.402 40.38" fill="#3d3d3d"/><path d="M295.847 18.027c1.785 0 4.597 1.29 8.503 3.404-7.174 24.482-25.348 36.722-54.522 36.722-29.263 0-47.509-12.315-54.738-36.945 3.69-1.982 6.366-3.182 8.086-3.182 0 0-2.185 32.495 46.336 32.495 52.216 0 46.335-32.495 46.335-32.495z" fill="#008e65"/><circle cx="309" cy="143" fill="#fff" r="22"/><circle cx="309" cy="143" fill="#000" r="20"/><circle cx="309" cy="143" fill="#008f34" r="17"/><g fill="#000"><ellipse cx="309" cy="143" rx="14.167" ry="14"/><path d="M413.584 238.323c-9.287 2.238-19.064 3.316-28.798 2.592-8.197-22.369-15.557-36.883-20.012-44.748v270.577s-21.102 6.71-55.867 11.11l-.544-.059c1.881-54.795 5.722-166.47 8.277-240.705 2.055-59.755 31.084-95.29 60.099-117.44-2.676 6.78-5.072 14.606-7 23.667 7.354 11.852 24.436 42.069 43.831 94.964l.014.042zM190.717 477.795c-34.248-4.401-56.477-11.05-56.477-11.05V196.171c-4.456 7.867-11.813 22.38-20.01 44.743-9.632.716-19.308-.332-28.51-2.523.005-.033.012-.065.02-.097 19.377-52.848 36.305-83.066 43.61-94.944-1.93-9.075-4.328-16.912-7.007-23.701 29.015 22.15 58.044 57.685 60.1 117.44 2.554 74.235 6.395 185.91 8.276 240.705z" fill-opacity=".1"/></g></g></svg>