<svg xmlns="http://www.w3.org/2000/svg" width="501" height="501" fill="none"><path fill="#314B82" fill-rule="evenodd" d="M203.8 111.05h93.64v-87.3H203.8v87.3Z" clip-rule="evenodd"/><path fill="#CCC" fill-rule="evenodd" d="M203.66 34.06h93.46v-14.2h-93.46v14.2Z" clip-rule="evenodd"/><path fill="#4C76CF" fill-rule="evenodd" d="M88.34 77.09s-40.76 72.8-58.55 127.77c4.45 13.37 45.21 40.86 85.24 37.88 13.34-36.4 24.46-52 24.46-52s2.96-95.08-51.15-113.65Zm323.93 0s40.76 72.8 58.54 127.77c-4.44 13.37-45.2 40.86-85.23 37.88-13.34-36.4-24.46-52-24.46-52s-2.96-95.08 51.15-113.65Z" clip-rule="evenodd"/><path fill="#4C76CF" fill-rule="evenodd" d="M250.3 59.53c-50.08 0-47.8-39.47-48.74-39.14-7.51 2.62-24.13 14.94-52.44 25.5-31.87 11.88-52.62 19.31-60.78 31.2 11.12 8.91 46.7 28.97 46.7 120.34v271.14s49.65 14.86 114.88 14.86c68.93 0 115.65-14.86 115.65-14.86V197.43c0-91.37 35.58-111.43 46.7-120.34-8.16-11.89-28.91-19.32-60.78-31.2C323.13 35.3 306.5 22.97 299 20.38c-.93-.32 4.18 39.15-48.7 39.15Z" clip-rule="evenodd"/><path fill="#F2F2F2" fill-rule="evenodd" d="M97.7 80.77c8.55-11.24 28.67-18.57 59.05-30.07 19.3-7.32 33.08-15.47 42.2-20.67l-.02-.05c1.21-.69 2.34-1.33 3.4-1.9l1.73 3.2c-9.03 5.07-23.46 13.98-44.37 21.9-29.86 11.31-49.8 18.59-58.59 29.5a52.24 52.24 0 0 0-3.4-1.9ZM91 77.9c8.04-11.89 28.47-19.32 59.85-31.2 19.3-7.32 33.09-15.47 42.2-20.67l-.01-.05h.02l1.74 3.22c-9.1 5.2-22.52 12.98-41 19.98-30.46 11.54-50.6 18.87-59.1 30.16L91 77.9Zm312.24 2.88a55.7 55.7 0 0 0-3.39 1.9c-8.78-10.91-28.73-18.19-58.6-29.5-20.2-7.65-34.35-16.23-43.43-21.37l1.58-3.3 2.62 1.47-.01.05c9.1 5.2 22.89 13.35 42.2 20.67 30.38 11.5 50.5 18.83 59.03 30.08Zm6.7-2.88c-1.26.44-2.48.92-3.68 1.44-8.5-11.29-28.65-18.62-59.1-30.16-18.29-6.92-31.61-14.6-40.7-19.8l1.4-3.42.05.02v.05c9.1 5.2 22.88 13.35 42.19 20.67 31.38 11.88 51.8 19.3 59.84 31.2Zm58.21 119.06c.93 2.67 1.83 5.3 2.67 7.9-4.45 13.37-45.21 40.86-85.24 37.88a413.1 413.1 0 0 0-2.83-7.52c20.8-1.35 38-5.63 51.6-12.83 13.42-7.11 24.69-15.59 33.8-25.43Zm-435.7.04c9.1 9.82 20.36 18.29 33.77 25.39 13.61 7.2 30.83 11.48 51.64 12.84-.93 2.4-1.88 4.9-2.83 7.51-40.03 2.98-80.79-24.5-85.24-37.88.84-2.59 1.73-5.21 2.66-7.87Z" clip-rule="evenodd"/><path fill="#F2F2F2" fill-rule="evenodd" d="M468.15 196.96c.93 2.67 1.83 5.3 2.67 7.9-4.45 13.37-45.21 40.86-85.24 37.88a413.1 413.1 0 0 0-2.83-7.52c20.8-1.35 38-5.63 51.6-12.83 13.42-7.11 24.69-15.59 33.8-25.43Zm-435.7.04c9.1 9.82 20.36 18.29 33.77 25.39 13.61 7.2 30.83 11.48 51.64 12.84-.93 2.4-1.88 4.9-2.83 7.51-40.03 2.98-80.79-24.5-85.24-37.88.84-2.59 1.73-5.21 2.66-7.87Zm276.2-171.82c-5.78-3.24-9.73-5.35-12.01-5.35 0 0 5.88 32.5-46.34 32.5-48.52 0-46.33-32.5-46.33-32.5-2.28 0-6.24 2.1-12 5.35 0 0 7.36 40.38 58.4 40.38 51.48 0 58.28-35.9 58.28-40.38Z" clip-rule="evenodd"/><path fill="#000" fill-opacity=".1" fill-rule="evenodd" d="M414.24 238.78a93.79 93.79 0 0 1-28.8 2.6c-8.2-22.37-15.56-36.89-20.01-44.75V467.2s-21.1 6.71-55.87 11.11l-.54-.06 8.28-240.7c2.05-59.76 31.08-95.3 60.1-117.44a148.6 148.6 0 0 0-7 23.67c7.35 11.85 24.43 42.06 43.83 94.96v.04ZM191.37 478.25c-34.25-4.4-56.47-11.05-56.47-11.05V196.63c-4.46 7.87-11.82 22.38-20.01 44.75a93.92 93.92 0 0 1-28.52-2.53l.02-.1c19.38-52.84 36.31-83.06 43.61-94.94a148.62 148.62 0 0 0-7-23.7c29.01 22.15 58.04 57.68 60.1 117.44 2.55 74.23 6.4 185.9 8.27 240.7Z" clip-rule="evenodd"/><path fill="#F2F2F2" fill-rule="evenodd" d="M312.24 172.46c8.17 0 14.79-9.85 14.79-22s-6.62-22-14.8-22c-8.16 0-14.79 9.85-14.79 22s6.63 22 14.8 22Z" clip-rule="evenodd"/><path fill="#4C76CF" fill-rule="evenodd" d="M312.23 170.54c6.84 0 12.37-8.84 12.37-19.74 0-10.9-5.53-19.74-12.37-19.74-6.83 0-12.37 8.84-12.37 19.74 0 10.9 5.54 19.74 12.37 19.74Z" clip-rule="evenodd"/><path fill="#F2F2F2" d="m304.05 134.13 4.02-3v40.1l-4.02-4.54v-32.56Zm13.14-3 4.02 3v31.66l-4.02 4.73v-39.4Zm-6.57-.07h4.02v40.78h-4.02z"/><path fill="#4C76CF" d="M298.83 146.66h26.65v7.6h-26.65v-7.6Z"/><path fill="#F2F2F2" fill-rule="evenodd" d="M324.48 147.66h-24.65v5.6h24.65v-5.6Zm-25.65-1v7.6h26.65v-7.6h-26.65Z" clip-rule="evenodd"/></svg>