<?xml version="1.0" encoding="utf-8"?><svg width="500" height="500" viewBox="0 0 500 500" fill="none" xmlns="http://www.w3.org/2000/svg"><path fill-rule="evenodd" clip-rule="evenodd" d="M203.003 109.223h93.643V21.928h-93.643v87.295Z" fill="#C8C8C8"/><path fill-rule="evenodd" clip-rule="evenodd" d="M202.863 32.228h93.459v-14.2h-93.459v14.2Z" fill="#125F48"/><path fill-rule="evenodd" clip-rule="evenodd" d="M87.547 75.258S46.785 148.058 29 203.029c4.445 13.375 45.208 40.861 85.232 37.885 13.34-36.399 24.46-52 24.46-52s2.963-95.085-51.145-113.655ZM411.473 75.258s40.763 72.8 58.548 127.77c-4.445 13.375-45.208 40.861-85.233 37.885-13.339-36.399-24.459-52-24.459-52s-2.964-95.085 51.144-113.655Z" fill="#258065"/><path fill-rule="evenodd" clip-rule="evenodd" d="M249.511 57.703c-50.081 0-47.798-39.47-48.742-39.14-7.516 2.618-24.133 14.936-52.439 25.494-31.873 11.886-52.626 19.316-60.782 31.2 11.115 8.915 46.694 28.971 46.694 120.346v271.14s49.658 14.855 114.885 14.855c68.929 0 115.649-14.855 115.649-14.855v-271.14c0-91.375 35.579-111.43 46.699-120.346-8.157-11.885-28.91-19.315-60.782-31.2-28.36-10.576-44.982-22.919-52.479-25.508-.927-.32 4.178 39.154-48.703 39.154Z" fill="#258065"/><path fill-rule="evenodd" clip-rule="evenodd" d="M307.852 23.345C302.08 20.105 298.124 18 295.844 18c0 0 5.882 32.495-46.335 32.495-48.52 0-46.335-32.495-46.335-32.495-2.28 0-6.236 2.105-12.003 5.345 0 0 7.368 40.38 58.403 40.38 51.478 0 58.278-35.895 58.278-40.38Z" fill="#1B7459"/><path fill-rule="evenodd" clip-rule="evenodd" d="M413.584 238.323c-9.288 2.238-19.065 3.316-28.798 2.592-8.198-22.369-15.557-36.883-20.013-44.748v270.577s-21.102 6.71-55.866 11.111l-.544-.06c1.881-54.795 5.722-166.47 8.276-240.705 2.056-59.755 31.085-95.29 60.099-117.44-2.675 6.781-5.071 14.606-6.999 23.667 7.354 11.852 24.436 42.069 43.831 94.964l.014.042ZM190.716 477.795c-34.248-4.401-56.476-11.051-56.476-11.051V196.172c-4.456 7.867-11.814 22.379-20.01 44.743-9.633.716-19.308-.332-28.51-2.523a1.01 1.01 0 0 1 .02-.097c19.377-52.848 36.305-83.066 43.609-94.944-1.928-9.075-4.327-16.912-7.006-23.701 29.014 22.15 58.044 57.685 60.099 117.44 2.554 74.235 6.396 185.91 8.276 240.705h-.002Z" fill="#000" fill-opacity=".06"/><path d="m296 123 13 46 13-46h-26Z" fill="#3D3D3D"/><path d="m298 125 11 40 11-40h-22Z" fill="#19A66B"/><path d="M306 125h-5v10.909l5 18.182V125ZM317 135.909l-5 18.182V125h5v10.909Z" fill="#F2F2F2"/><path fill-rule="evenodd" clip-rule="evenodd" d="M301 143.959c-3.297-.462-4-.959-4-.959v5.083c0 .44.287.827.711.945 1.935.542 7.41 1.972 11.289 1.972 3.879 0 9.354-1.43 11.289-1.972a.975.975 0 0 0 .711-.945V143s-.703.497-4 .959v2.082c-2.434.56-5.538 1.135-8 1.135-2.462 0-5.566-.575-8-1.135v-2.082Z" fill="#DEDEDE"/><path fill-rule="evenodd" clip-rule="evenodd" d="M309 132a7 7 0 1 0 0-14 7 7 0 0 0 0 14Z" fill="#F2F2F2"/><path d="m308.992 123.25-1.742 1.137.7 2.363h2.1l.7-2.363-1.758-1.137Z" fill="#282828"/><path fill-rule="evenodd" clip-rule="evenodd" d="M309 132a7 7 0 1 0 0-14 7 7 0 0 0 0 14Zm6.222-7a6.195 6.195 0 0 1-1.095 3.527l-.34-.946-1.489.71-.719 1.498.965.326a6.195 6.195 0 0 1-3.544 1.107 6.197 6.197 0 0 1-3.54-1.104l.961-.329-.719-1.498-1.489-.71-.332.958a6.246 6.246 0 0 1-.949-4.923l.542.817 1.255-1.072.306-1.633-1.211-.183a6.228 6.228 0 0 1 4.102-2.675l-.482 1.158 1.568.551 1.556-.551-.469-1.153a6.222 6.222 0 0 1 4.077 2.671l-1.387.182.307 1.633 1.255 1.072.72-.803c.099.441.151.899.151 1.37Z" fill="#282828"/></svg>