<?xml version="1.0" encoding="UTF-8"?><svg height="500" viewBox="0 0 500 500" width="500" xmlns="http://www.w3.org/2000/svg"><g fill="none" fill-rule="evenodd"><path d="M0 0h500v500H0z"/><path d="M203.003 109.223h93.643V21.928h-93.643z" fill="#c8c8c8"/><path d="M202.864 32.228h93.458v-14.2h-93.458z" fill="#8ebae7"/><g fill="#97c6f6"><path d="M87.548 75.258S46.785 148.058 29 203.029c4.445 13.376 45.208 40.86 85.232 37.886 13.34-36.4 24.46-52 24.46-52s2.963-95.085-51.144-113.655M411.473 75.258s40.762 72.8 58.547 127.77c-4.445 13.376-45.208 40.86-85.232 37.886-13.34-36.4-24.46-52-24.46-52s-2.963-95.085 51.145-113.655"/><path d="M249.511 57.703c-50.082 0-47.798-39.47-48.742-39.14-7.516 2.618-24.133 14.936-52.439 25.495-31.873 11.885-52.626 19.315-60.782 31.2 11.114 8.915 46.694 28.97 46.694 120.345v271.14s49.658 14.855 114.885 14.855c68.929 0 115.648-14.855 115.648-14.855v-271.14c0-91.375 35.58-111.43 46.7-120.345-8.157-11.885-28.91-19.315-60.783-31.2-28.36-10.577-44.982-22.92-52.478-25.511-.927-.318 4.177 39.156-48.703 39.156z"/></g><path d="M270 55.202l-.001 425.945c-6.695.291-13.66.454-20.869.454-6.546 0-12.935-.15-19.133-.42l-.003-425.967c5.412 1.566 11.852 2.492 19.52 2.492 8.118 0 14.87-.93 20.486-2.504zm39-3.514c16.972 7.01 30.48 16.298 40 25.37l.002 393.795c-9.567 2.188-23.182 4.86-40 6.992zm-118-.41l-.001 426.554c-16.474-2.107-30.184-4.738-40-6.908L151 76.114c9.648-8.947 23.15-18.02 40-24.836z" fill="#f2f2f2"/><path d="M307.852 23.345C302.08 20.105 298.124 18 295.844 18c0 0 5.881 32.495-46.335 32.495-48.52 0-46.336-32.495-46.336-32.495-2.28 0-6.235 2.105-12.002 5.345 0 0 7.368 40.38 58.402 40.38 51.479 0 58.279-35.895 58.279-40.38z" fill="#97c6f6"/><path d="M413.584 238.323c-9.287 2.238-19.064 3.316-28.798 2.592-8.197-22.369-15.557-36.883-20.012-44.748v270.577s-21.102 6.71-55.867 11.11l-.544-.059c1.881-54.795 5.722-166.47 8.277-240.705 2.055-59.755 31.084-95.29 60.099-117.44-2.676 6.78-5.072 14.606-7 23.667 7.354 11.852 24.436 42.069 43.831 94.964l.014.042zM190.717 477.795c-34.248-4.401-56.477-11.05-56.477-11.05V196.171c-4.456 7.867-11.813 22.38-20.01 44.743-9.632.716-19.308-.332-28.51-2.523.005-.033.012-.065.02-.097 19.377-52.848 36.305-83.066 43.61-94.944-1.93-9.075-4.328-16.912-7.007-23.701 29.015 22.15 58.044 57.685 60.1 117.44 2.554 74.235 6.395 185.91 8.276 240.705z" fill="#000" fill-opacity=".08"/><path d="M174.404 32.4c6.756-3.393 12.314-6.526 16.77-9.028l2.137 6.63c-8.9 5.143-22.457 13.326-41.595 20.711-28.211 10.883-47.405 18.03-56.493 28.283l-7.61-3.976c8.202-11.83 28.93-19.251 60.717-31.104 10.156-3.789 18.808-7.803 26.074-11.516zM324.506 32.344c7.29 3.728 15.977 7.764 26.185 11.572C382.48 55.769 403.207 63.19 411.41 75.02l-7.494 4.107c-9.04-10.324-28.278-17.486-56.61-28.415-18.71-7.22-32.085-15.202-40.991-20.361l1.54-6.98c4.433 2.488 9.949 5.6 16.652 8.972z" fill="#f2f2f2"/><path d="M295 166.345c-2.431-2.586-4.393-6.521-5.884-11.805-1.492-5.283-2.197-10.795-2.116-16.535 3.223-3.164 6.644-5.792 10.265-7.883 3.62-2.09 7.532-3.698 11.735-4.822l.785.216c3.906 1.11 7.556 2.646 10.95 4.606 3.62 2.091 7.042 4.719 10.265 7.883.08 5.74-.624 11.252-2.116 16.535-1.491 5.284-3.453 9.219-5.884 11.805-4.667 1.303-9.333 1.955-14 1.955s-9.333-.652-14-1.955z" fill="#046698"/><path d="M296.273 164.527c-2.21-2.346-3.994-5.915-5.35-10.707s-1.996-9.791-1.923-14.997c2.93-2.87 6.04-5.253 9.332-7.15 3.291-1.896 6.847-3.353 10.668-4.373l.713.196c3.551 1.007 6.87 2.4 9.955 4.178 3.292 1.896 6.402 4.28 9.332 7.149.073 5.206-.568 10.205-1.924 14.997s-3.138 8.361-5.349 10.707c-4.242 1.182-8.485 1.773-12.727 1.773s-8.485-.59-12.727-1.773z" fill="#27a5d5"/><circle cx="309" cy="147.8" fill="#fff" r="15.5"/><ellipse cx="309" cy="147.8" fill="#f57871" rx="10.485" ry="10.5"/><g fill="#f79617"><path d="M300 124.8l-1.176.618.225-1.309-.951-.927 1.314-.191.588-1.191.588 1.191 1.314.191-.95.927.224 1.309zM309 122.3l-1.763.927.336-1.963-1.426-1.391 1.971-.287.882-1.786.882 1.786 1.971.287-1.426 1.39.336 1.964zM318 124.8l-1.176.618.225-1.309-.951-.927 1.314-.191.588-1.191.588 1.191 1.314.191-.95.927.224 1.309z"/></g></g></svg>