<svg xmlns="http://www.w3.org/2000/svg" width="501" height="500" fill="none"><path fill="silver" fill-rule="evenodd" d="M203.5 109.2h93.65V21.9H203.5v87.3Z" clip-rule="evenodd"/><path fill="#E3E3E3" fill-rule="evenodd" d="M203.37 32.2h93.45V18h-93.45v14.2Z" clip-rule="evenodd"/><path fill="#ED1C25" fill-rule="evenodd" d="M88.05 75.26S47.3 148.06 29.5 203.03c4.45 13.38 45.21 40.86 85.23 37.88 13.34-36.4 24.46-52 24.46-52s2.97-95.08-51.14-113.65m323.93 0s40.76 72.8 58.54 127.77c-4.44 13.38-45.2 40.86-85.23 37.88-13.34-36.4-24.46-52-24.46-52s-2.96-95.08 51.15-113.65" clip-rule="evenodd"/><path fill="#ED1C25" fill-rule="evenodd" d="M250.01 57.7c-50.08 0-47.8-39.46-48.74-39.13-7.51 2.61-24.13 14.93-52.44 25.5-31.87 11.88-52.62 19.3-60.78 31.2 11.12 8.9 46.7 28.96 46.7 120.34v271.14s49.65 14.85 114.88 14.85c68.93 0 115.65-14.85 115.65-14.85V195.6c0-91.38 35.58-111.43 46.7-120.35-8.16-11.88-28.91-19.31-60.79-31.2-28.35-10.58-44.98-22.92-52.47-25.5-.93-.33 4.17 39.15-48.7 39.15Z" clip-rule="evenodd"/><path fill="#EEE" fill-rule="evenodd" d="M114.32 94.44c7.26 9.19 12.41 20.35 16.06 31.73l-51.3 110.27c-9.41-2.9-18.15-6.9-25.6-11.25l60.84-130.75Zm271.48 0 60.83 130.75a123.09 123.09 0 0 1-25.6 11.25l-51.3-110.27c3.65-11.38 8.8-22.54 16.06-31.73ZM268.39 56.36c15.49-2.94 23.66-10.3 28-17.75V479.6c-8.72.8-18.08 1.42-28 1.75v-425Zm60-23.62c7.18 3.66 15.71 7.6 25.69 11.32l2.3.86V469.9a380.99 380.99 0 0 1-28 5.61V32.74Zm-96.25 448.38a465.58 465.58 0 0 1-28-2.14V18.56h.02c.78-.28-.68 27.2 27.98 36.27v426.28Zm-60-6.68a396.2 396.2 0 0 1-28-5.94V46.88l7.58-2.82a242.16 242.16 0 0 0 20.42-8.71v439.1Z" clip-rule="evenodd"/><path fill="#EEE" fill-rule="evenodd" d="M250.08 63.75c51.47 0 58.28-35.9 58.28-40.38-5.78-3.24-9.73-5.34-12.01-5.34 0 0 5.88 32.5-46.34 32.5-48.52 0-46.33-32.5-46.33-32.5-2.28 0-6.24 2.1-12 5.34 0 0 7.36 40.38 58.4 40.38M468.36 195.3c.93 2.67 1.82 5.3 2.66 7.9-4.44 13.38-45.2 40.86-85.23 37.89-.96-2.62-1.9-5.12-2.83-7.52 20.8-1.36 37.99-5.64 51.6-12.84 13.42-7.1 24.69-15.58 33.8-25.43Zm-435.81 0c9.1 9.83 20.36 18.3 33.77 25.4 13.61 7.2 30.83 11.48 51.64 12.83-.93 2.4-1.88 4.9-2.83 7.52-40.03 2.98-80.79-24.5-85.24-37.88.84-2.59 1.73-5.21 2.66-7.87Z" clip-rule="evenodd"/><path fill="#fff" fill-rule="evenodd" d="M329.5 117h-40v36.8a10 10 0 0 0 5.94 9.14l14.06 6.25 14.06-6.25a10 10 0 0 0 5.94-9.14V117Zm-32.44 42.28a6 6 0 0 1-3.56-5.48V121h32v32.8a6 6 0 0 1-3.56 5.48l-12.44 5.53-12.44-5.53Z" clip-rule="evenodd"/><path fill="#ED1C25" fill-rule="evenodd" d="M291.5 119h36v34.8a8 8 0 0 1-4.75 7.31L309.5 167l-13.25-5.89a8 8 0 0 1-4.75-7.3V119Z" clip-rule="evenodd"/><path fill="#fff" fill-rule="evenodd" d="M325.5 142.92v9.55a8 8 0 0 1-4.68 7.28l-.32.15v-16.97h5Zm-9 18.8-5 2.29v-21.06l5-.01v18.78Zm-9 2.29-5-2.28v-18.77h5V164Zm-9-4.11-.32-.15a8 8 0 0 1-4.68-7.28v-9.5h5v16.93Z" clip-rule="evenodd"/><path fill="#000" fill-opacity=".1" fill-rule="evenodd" d="M414.08 238.32a93.76 93.76 0 0 1-28.8 2.6c-8.2-22.37-15.55-36.89-20-44.75v270.57s-21.1 6.71-55.87 11.12l-.55-.06 8.28-240.71c2.06-59.75 31.08-95.29 60.1-117.44a148.7 148.7 0 0 0-7 23.67c7.35 11.85 24.44 42.07 43.83 94.96l.01.04ZM191.22 477.8c-34.25-4.4-56.48-11.06-56.48-11.06V196.17c-4.46 7.87-11.81 22.38-20.01 44.75a93.6 93.6 0 0 1-28.51-2.53l.02-.1c19.38-52.84 36.3-83.06 43.6-94.94a148.53 148.53 0 0 0-7-23.7c29.02 22.15 58.05 57.69 60.1 117.44l8.28 240.7Z" clip-rule="evenodd"/></svg>