<?xml version="1.0" encoding="utf-8"?><svg width="500" height="500" viewBox="0 0 500 500" fill="none" xmlns="http://www.w3.org/2000/svg"><path fill-rule="evenodd" clip-rule="evenodd" d="M203.003 109.223h93.644V21.928h-93.644v87.295Z" fill="#197237"/><path fill-rule="evenodd" clip-rule="evenodd" d="M202.864 32.228h93.458v-14.2h-93.458v14.2Z" fill="#1A7C3B"/><path fill-rule="evenodd" clip-rule="evenodd" d="M87.547 75.258S46.785 148.06 29 203.03c4.445 13.375 45.208 40.86 85.232 37.885 13.34-36.4 24.46-52 24.46-52S141.655 93.83 87.547 75.26Zm323.925 0s40.763 72.801 58.548 127.771c-4.445 13.375-45.208 40.86-85.232 37.885-13.34-36.4-24.46-52-24.46-52s-2.963-95.085 51.144-113.655Z" fill="#239F4D"/><path fill-rule="evenodd" clip-rule="evenodd" d="M249.511 57.703c-50.082 0-47.798-39.47-48.743-39.14-7.516 2.618-24.132 14.936-52.438 25.494-31.873 11.886-52.626 19.316-60.783 31.2 11.115 8.915 46.695 28.97 46.695 120.345v271.14s49.657 14.856 114.885 14.856c68.929 0 115.648-14.856 115.648-14.856v-271.14c0-91.375 35.58-111.43 46.699-120.345-8.156-11.885-28.909-19.315-60.782-31.2-28.36-10.576-44.982-22.919-52.478-25.508-.927-.32 4.177 39.154-48.703 39.154Z" fill="#239F4D"/><path fill-rule="evenodd" clip-rule="evenodd" d="M307.851 23.345c-5.772-3.24-9.728-5.345-12.007-5.345 0 0 5.881 32.495-46.336 32.495-48.52 0-46.335-32.495-46.335-32.495-2.28 0-6.236 2.105-12.003 5.345 0 0 7.369 40.38 58.403 40.38 51.479 0 58.278-35.895 58.278-40.38Z" fill="#208F45"/><path fill-rule="evenodd" clip-rule="evenodd" d="M413.584 238.323c-9.287 2.238-19.064 3.316-28.797 2.592-8.198-22.369-15.558-36.883-20.013-44.748v270.577s-21.102 6.71-55.866 11.111l-.544-.06c1.88-54.795 5.722-166.47 8.276-240.705 2.055-59.755 31.085-95.29 60.099-117.44-2.675 6.781-5.072 14.606-6.999 23.667 7.354 11.852 24.435 42.069 43.83 94.964l.014.042ZM190.717 477.795c-34.248-4.401-56.476-11.051-56.476-11.051V196.172c-4.456 7.867-11.814 22.379-20.01 44.743-9.633.716-19.309-.332-28.51-2.524a.547.547 0 0 1 .02-.096c19.376-52.848 36.305-83.066 43.609-94.944-1.929-9.075-4.328-16.912-7.006-23.701 29.014 22.15 58.043 57.685 60.099 117.44 2.554 74.235 6.395 185.91 8.276 240.705h-.002Z" fill="#000" fill-opacity=".1"/><path d="M294 121v27c0 7.5 11.146 17 15 17 3.854 0 15-9.5 15-17v-27h-30Z" fill="#F4DA50"/><path d="M296 133v14.545c0 6.819 9.66 15.455 13 15.455s13-8.636 13-15.455V133h-26Z" fill="#fff"/><path d="M299.5 133H296v14.545c0 2.677 1.489 5.634 3.5 8.239V133Zm7.5 29.391c-1.047-.524-2.265-1.362-3.5-2.414V133h3.5v29.391Zm7.5-2.414c-1.235 1.052-2.453 1.89-3.5 2.414V133h3.5v26.977Zm7.5-12.432c0 2.677-1.489 5.634-3.5 8.239V133h3.5v14.545Z" fill="#11C04D"/><path fill="#32363C" d="M296 123h26v8h-26z"/><path fill-rule="evenodd" clip-rule="evenodd" d="m322 144.072-21.797 12.584c-2.357-2.802-4.203-6.13-4.203-9.111v-.009L321.177 133H322v11.072Z" fill="#F4DA50"/><path fill-rule="evenodd" clip-rule="evenodd" d="m322 141.762-23.037 13.301c-1.237-1.728-2.218-3.58-2.678-5.383L322 134.834v6.928Z" fill="#32363C"/></svg>