<?xml version="1.0" encoding="utf-8"?><svg width="500" height="500" viewBox="0 0 500 500" fill="none" xmlns="http://www.w3.org/2000/svg"><path fill-rule="evenodd" clip-rule="evenodd" d="M203.003 109.223h93.644V21.928h-93.644v87.295z" fill="#D9D9D9"/><path fill-rule="evenodd" clip-rule="evenodd" d="M203 30h94V18h-94v12z" fill="#393939"/><path fill-rule="evenodd" clip-rule="evenodd" d="M87.547 75.258S46.785 148.06 29 203.03c4.445 13.375 45.208 40.86 85.232 37.885 13.34-36.4 24.46-52 24.46-52S141.655 93.83 87.547 75.26zm323.925 0s40.763 72.801 58.548 127.771c-4.445 13.375-45.208 40.86-85.232 37.885-13.34-36.4-24.46-52-24.46-52s-2.963-95.085 51.144-113.655z" fill="#8FCAEB"/><path fill-rule="evenodd" clip-rule="evenodd" d="M113.823 94.44c7.056 8.939 12.121 19.735 15.753 30.786L78.378 236.38a123.158 123.158 0 01-25.39-11.185L113.823 94.44zm271.468 0l60.834 130.755a123.16 123.16 0 01-25.38 11.182l-51.192-111.198c3.631-11.035 8.691-21.813 15.738-30.739z" fill="#F2F2F2"/><path fill-rule="evenodd" clip-rule="evenodd" d="M249.513 57.706c-50.081 0-47.798-39.47-48.742-39.14-7.516 2.619-24.133 14.937-52.439 25.495-31.873 11.885-52.626 19.315-60.782 31.2 11.115 8.915 46.694 28.97 46.694 120.345v271.14s49.658 14.855 114.885 14.855c68.929 0 115.649-14.855 115.649-14.855v-271.14c0-91.375 35.579-111.43 46.699-120.345-8.157-11.885-28.91-19.315-60.783-31.2-28.359-10.577-44.981-22.92-52.478-25.509-.927-.32 4.178 39.154-48.703 39.154z" fill="#F2F2F2"/><path fill-rule="evenodd" clip-rule="evenodd" d="M170.746 474.791A422.1 422.1 0 01156 471.833V41.043c15.475-6.387 26.936-13.015 34.921-17.503v454.278a471.389 471.389 0 01-20.175-3.027zm96.675-425.87v432.327c-5.901.225-12.005.349-18.294.349-5.667 0-11.217-.113-16.627-.317V48.877c4.832 1.025 10.458 1.617 17.009 1.617 6.949 0 12.87-.575 17.912-1.574zm76.5-7.508V471.97c-9.083 1.936-20.886 4.091-34.921 5.87V24.046c8.096 4.561 19.566 11.102 34.921 17.367z" fill="#8FCAEB"/><path fill-rule="evenodd" clip-rule="evenodd" d="M467.35 195.13a337.992 337.992 0 012.668 7.899c-4.445 13.375-45.208 40.86-85.232 37.885a423.236 423.236 0 00-2.836-7.519c20.795-1.358 37.993-5.637 51.595-12.837 13.428-7.109 24.696-15.585 33.805-25.428zm-435.695.04c9.103 9.827 20.36 18.291 33.772 25.391 13.611 7.206 30.824 11.486 51.639 12.841a423.042 423.042 0 00-2.834 7.516c-40.024 2.975-80.787-24.51-85.232-37.885a339.518 339.518 0 012.655-7.863zM195.09 21.211c3.689-1.981 6.365-3.181 8.086-3.181 0 0-2.185 32.495 46.335 32.495 52.217 0 46.335-32.495 46.335-32.495 1.785 0 4.598 1.29 8.505 3.405-7.175 24.48-25.349 36.721-54.523 36.721-29.264 0-47.51-12.315-54.738-36.945z" fill="#544B4B"/><path fill-rule="evenodd" clip-rule="evenodd" d="M307.852 23.345C302.08 20.105 298.124 18 295.844 18c0 0 5.882 32.495-46.335 32.495-48.52 0-46.335-32.495-46.335-32.495-2.28 0-6.236 2.105-12.003 5.345 0 0 7.368 40.38 58.403 40.38 51.478 0 58.278-35.895 58.278-40.38z" fill="#3D3D3D"/><path fill-rule="evenodd" clip-rule="evenodd" d="M413.584 238.323c-9.287 2.238-19.064 3.316-28.797 2.592-8.198-22.369-15.558-36.882-20.013-44.748v270.577s-21.102 6.71-55.866 11.111l-.544-.06c1.88-54.795 5.722-166.47 8.276-240.705 2.055-59.755 31.085-95.29 60.099-117.44-2.675 6.781-5.072 14.606-6.999 23.667 7.354 11.852 24.435 42.069 43.83 94.965l.014.041zM190.717 477.795c-34.248-4.401-56.476-11.051-56.476-11.051V196.172c-4.456 7.867-11.814 22.379-20.01 44.743-9.633.717-19.309-.332-28.51-2.523a.557.557 0 01.02-.097c19.376-52.848 36.305-83.066 43.609-94.944-1.929-9.075-4.328-16.912-7.006-23.701 29.014 22.15 58.043 57.685 60.099 117.44 2.554 74.235 6.395 185.91 8.276 240.705h-.002z" fill="#000" fill-opacity=".1"/><path d="M328 125.567L323.107 119c-8.751 3.351-19.467 3.354-28.225 0L290 125.557c1.546 3.471 1.49 7.497 1.554 21.963.115 5.103 3.985 11.102 17.431 19.48 13.496-8.196 17.336-14.504 17.45-19.493.065-14.431-.027-18.521 1.565-21.94z" fill="#3D3D3D"/><path d="M325.5 126.02l-3.5-4.52c-7.83 3.072-18.364 3.074-26.2 0l-3.3 4.511c1.383 3.182.833 7.871.89 21.132.103 4.678 3.566 9.677 15.597 17.357 12.075-7.513 15.51-12.795 15.613-17.369.058-13.228-.524-17.977.9-21.111z" fill="#F2F2F2"/><path d="M324.53 134h-31.079c.003 1.253-.011 2.677-.026 4.311-.02 2.164-.044 4.696-.038 7.689h31.216c.006-3.041-.021-5.61-.044-7.801a403.48 403.48 0 01-.029-4.199z" fill="#8FBFEB"/><path opacity=".7" d="M318.612 130.46A12.941 12.941 0 00311 128c-7.18 0-13 5.82-13 13s5.82 13 13 13c3.017 0 5.794-1.028 8-2.752V141h-5c0-3.728.5-8.5 4.612-10.54z" fill="#5F5F5F"/></svg>