<?xml version="1.0" encoding="utf-8"?><svg width="500" height="500" viewBox="0 0 500 500" fill="none" xmlns="http://www.w3.org/2000/svg"><path fill-rule="evenodd" clip-rule="evenodd" d="M203.003 109.223h93.644V21.928h-93.644v87.295z" fill="#D9D9D9"/><path fill-rule="evenodd" clip-rule="evenodd" d="M202.864 32.228h93.458v-14.2h-93.458v14.2z" fill="#B24444"/><path fill-rule="evenodd" clip-rule="evenodd" d="M87.547 75.258S46.785 148.058 29 203.029c4.445 13.375 45.208 40.861 85.232 37.885 13.34-36.399 24.46-52 24.46-52s2.963-95.085-51.145-113.655zm323.925 0s40.763 72.8 58.548 127.77c-4.445 13.375-45.208 40.861-85.232 37.885-13.34-36.399-24.46-52-24.46-52s-2.963-95.085 51.144-113.655z" fill="#F2F2F2"/><path fill-rule="evenodd" clip-rule="evenodd" d="M249.511 57.703c-50.082 0-47.798-39.47-48.743-39.14-7.516 2.618-24.132 14.936-52.438 25.494-31.873 11.886-52.626 19.316-60.783 31.2 11.115 8.915 46.695 28.971 46.695 120.346v271.14s49.657 14.855 114.885 14.855c68.929 0 115.648-14.855 115.648-14.855v-271.14c0-91.375 35.58-111.43 46.699-120.346-8.156-11.885-28.909-19.315-60.782-31.2-28.36-10.576-44.982-22.919-52.478-25.508-.927-.32 4.177 39.154-48.703 39.154z" fill="#F2F2F2"/><path fill-rule="evenodd" clip-rule="evenodd" d="M167 36.153v437.946c-9.044-1.638-16.499-3.273-22-4.587V45.27l3.333-1.242A241.34 241.34 0 00167 36.153zm45.997 9.69v434.25a473.763 473.763 0 01-22-2.294V23.47c4.197-2.358 7.429-4.12 9.775-4.937.601-.21-.106 15.713 12.225 27.31zm48 11.13V481.42c-3.876.096-7.834.147-11.867.147-3.422 0-6.801-.041-10.133-.119V57.026c3.221.42 6.718.647 10.517.647 4.179 0 7.996-.247 11.483-.7zm48-32.96v453.799a469.758 469.758 0 01-22 2.261V46.089c12.511-11.62 10.626-27.776 11.22-27.572 2.525.873 6.085 2.852 10.78 5.497zm46 21.618v423.757c-5.351 1.336-12.781 3.025-22 4.717V36.608a240.939 240.939 0 0017.698 7.42l4.302 1.603zM113.823 94.44c7.056 8.939 12.121 19.735 15.753 30.786L78.378 236.38a123.158 123.158 0 01-25.39-11.185L113.823 94.44zm271.468 0l60.834 130.755a123.16 123.16 0 01-25.38 11.182l-51.192-111.198c3.631-11.035 8.691-21.813 15.738-30.739z" fill="#C34646"/><path fill-rule="evenodd" clip-rule="evenodd" d="M467.35 195.13a337.992 337.992 0 012.668 7.899c-4.445 13.375-45.208 40.86-85.232 37.885a423.236 423.236 0 00-2.836-7.519c20.795-1.358 37.993-5.637 51.595-12.837 13.428-7.109 24.696-15.585 33.805-25.428zm-435.695.04c9.103 9.827 20.36 18.291 33.772 25.391 13.611 7.206 30.824 11.486 51.639 12.841a423.042 423.042 0 00-2.834 7.516c-40.024 2.975-80.787-24.51-85.232-37.885a339.518 339.518 0 012.655-7.863zM307.851 23.345c-5.772-3.24-9.728-5.345-12.007-5.345 0 0 5.881 32.495-46.336 32.495-48.52 0-46.335-32.495-46.335-32.495-2.28 0-6.236 2.105-12.003 5.345 0 0 7.369 40.38 58.403 40.38 51.479 0 58.278-35.895 58.278-40.38z" fill="#C34646"/><path fill-rule="evenodd" clip-rule="evenodd" d="M413.584 238.323c-9.287 2.238-19.064 3.316-28.797 2.592-8.198-22.369-15.558-36.883-20.013-44.748v270.577s-21.102 6.71-55.866 11.111l-.544-.06c1.88-54.795 5.722-166.47 8.276-240.705 2.055-59.755 31.085-95.29 60.099-117.44-2.675 6.781-5.072 14.606-6.999 23.667 7.354 11.852 24.435 42.069 43.83 94.964l.014.042zM190.717 477.795c-34.248-4.401-56.476-11.051-56.476-11.051V196.172c-4.456 7.867-11.814 22.379-20.01 44.743-9.633.716-19.309-.332-28.51-2.523a1.01 1.01 0 01.02-.097c19.376-52.848 36.305-83.066 43.609-94.944-1.929-9.075-4.328-16.912-7.006-23.701 29.014 22.15 58.043 57.685 60.099 117.44 2.554 74.235 6.395 185.91 8.276 240.705h-.002z" fill="#000" fill-opacity=".1"/><path fill-rule="evenodd" clip-rule="evenodd" d="M287 127.449L302.553 119s2.888 2.816 6.404 2.816 6.405-2.816 6.405-2.816L330 127.449h-4.489a1 1 0 00-1 1v28.796c0 2.209-1.789 4.005-3.994 4.137-4.608.275-11.56 1.108-11.56 3.618 0-2.51-6.951-3.343-11.559-3.618-2.205-.132-3.994-1.928-3.994-4.137v-28.796a1 1 0 00-1-1H287z" fill="#AB3636"/><path d="M298.5 123.087l-3 1.616v32.055c.34 1.403 1.512 2.52 3 2.924v-36.595zm6 37.388a34.784 34.784 0 00-3-.453V121.47l1.1-.592s.689.706 1.9 1.38v38.217zm6 .922c-.92.448-1.5 1.013-1.5 1.726 0-.713-.58-1.278-1.5-1.726v-38.063a8.77 8.77 0 003 0v38.063zm6-1.375a34.784 34.784 0 00-3 .453v-38.217c1.211-.674 1.9-1.38 1.9-1.38l1.1.592v38.552zm6-3.264c-.34 1.403-1.512 2.52-3 2.924v-36.595l3 1.616v32.055z" fill="#F2F2F2"/><path d="M295.4 146.793v-8.747l27.2-6.842v8.747l-27.2 6.842z" fill="#DDACAC"/></svg>