<?xml version="1.0" encoding="UTF-8"?><svg width="500" height="500" viewBox="0 0 500 500" fill="none" xmlns="http://www.w3.org/2000/svg"><path fill-rule="evenodd" clip-rule="evenodd" d="M203.003 109.223h93.643V21.928h-93.643v87.295Z" fill="#C8C8C8"/><path fill-rule="evenodd" clip-rule="evenodd" d="M202.864 32.228h93.458v-14.2h-93.458v14.2Z" fill="#056640"/><path fill-rule="evenodd" clip-rule="evenodd" d="M87.547 75.258S46.785 148.06 29 203.03c4.445 13.375 45.208 40.86 85.232 37.885 13.34-36.4 24.46-52 24.46-52S141.655 93.83 87.547 75.26Zm323.926 0s40.763 72.801 58.547 127.771c-4.445 13.375-45.207 40.86-85.232 37.885-13.34-36.4-24.46-52-24.46-52s-2.963-95.085 51.145-113.655Z" fill="#F2F2F2"/><path fill-rule="evenodd" clip-rule="evenodd" d="M138.431 175.894c.418 7.982.261 13.02.261 13.02s-3.526 4.947-8.99 15.769c-16.942-.807-33.498-4.712-49.668-11.714-15.017-6.504-27.22-15.809-36.608-27.917 4.003-9.422 8.237-18.789 12.437-27.72 10.08 10.488 22.225 18.974 36.434 25.457 14.215 6.485 29.593 10.853 46.134 13.105Zm-32.034-89.436c.62.597 1.249 1.19 1.885 1.778 13.996 13.772 21.578 34.314 25.674 53.258-14.175-5.164-27.416-12.626-39.723-22.386-7.653-6.068-14.078-12.841-19.277-20.319 7.44-14.33 12.591-23.53 12.591-23.53 7.264 2.492 13.498 6.364 18.85 11.199Zm349.363 78.594c-9.388 12.108-21.591 21.413-36.608 27.917-16.169 7.002-32.725 10.907-49.668 11.714-5.463-10.822-8.989-15.769-8.989-15.769s-.157-5.038.261-13.02c16.541-2.252 31.919-6.62 46.133-13.105 14.21-6.483 26.355-14.969 36.435-25.457 4.199 8.931 8.434 18.298 12.436 27.72ZM424.231 98.79c-5.199 7.477-11.625 14.25-19.277 20.318-12.308 9.76-25.549 17.222-39.724 22.386 4.097-18.944 11.679-39.486 25.674-53.258a127.8 127.8 0 0 0 1.886-1.778c5.351-4.835 11.586-8.707 18.849-11.2 0 0 5.152 9.202 12.592 23.531Z" fill="#11814B"/><path fill-rule="evenodd" clip-rule="evenodd" d="M249.511 57.703c-50.082 0-47.798-39.47-48.743-39.14-7.515 2.618-24.132 14.936-52.438 25.494-31.873 11.886-52.626 19.316-60.783 31.2 11.115 8.915 46.695 28.97 46.695 120.345v271.14s49.657 14.856 114.885 14.856c68.929 0 115.648-14.856 115.648-14.856v-271.14c0-91.375 35.58-111.43 46.7-120.345-8.157-11.885-28.91-19.315-60.783-31.2-28.36-10.576-44.982-22.919-52.478-25.508-.927-.32 4.177 39.154-48.703 39.154Z" fill="#F2F2F2"/><path fill-rule="evenodd" clip-rule="evenodd" d="M249.511 434c38.472 0 76.894 1.676 115.264 5.027v27.715s-2.105.67-6.08 1.724C322.704 465.488 286.31 464 249.511 464c-36.382 0-72.808 1.455-109.278 4.365-3.897-.996-5.991-1.623-5.991-1.623v-27.843c38.867-3.266 77.29-4.899 115.269-4.899Zm0-68.2c38.472 0 76.894 1.676 115.264 5.027l.001 29.956c-37.97-3.322-76.392-4.983-115.265-4.983-38.374 0-76.797 1.619-115.269 4.856v-29.957c38.867-3.266 77.29-4.899 115.269-4.899Zm0-68.2c38.472 0 76.894 1.676 115.264 5.027l.001 29.956c-37.97-3.322-76.392-4.983-115.265-4.983-38.374 0-76.797 1.619-115.269 4.856v-29.957c38.867-3.266 77.29-4.899 115.269-4.899Zm0-68.2c38.472 0 76.894 1.676 115.264 5.027l.001 29.956c-37.97-3.322-76.392-4.983-115.265-4.983-38.374 0-76.797 1.619-115.269 4.856v-29.957c38.867-3.266 77.29-4.899 115.269-4.899Zm0-68.2c38.929 0 77.807 1.716 116.632 5.147-.88 8.836-1.368 18.557-1.368 29.255l.001.581c-37.97-3.322-76.392-4.983-115.265-4.983-38.374 0-76.797 1.619-115.269 4.856v-.454c0-10.751-.493-20.515-1.38-29.39 39.337-3.34 78.22-5.012 116.649-5.012Zm0-68.2c45.798 0 91.524 2.374 137.178 7.123-4.815 7.263-9.475 16.568-13.251 28.644-40.785-3.844-82.094-5.767-123.927-5.767-41.27 0-82.597 1.872-123.981 5.616-3.802-12.117-8.494-21.434-13.336-28.697C158.594 95.307 204.366 93 249.511 93Zm-27.243-40.753c-16.409-8.089-19.895-23.051-20.912-29.983-2.793.039-5.587.082-8.383.13-1.153.64-2.391 1.337-3.715 2.083-9.227 5.2-22.637 12.758-40.929 19.58l-3.118 1.163c-9.304 3.466-17.611 6.56-24.881 9.522a2776.632 2776.632 0 0 1 101.938-2.495Zm84.61-29.39c.91.508 1.87 1.049 2.879 1.618 9.227 5.2 22.638 12.759 40.935 19.582l3.118 1.163c10.566 3.936 19.847 7.394 27.783 10.72a2668.312 2668.312 0 0 0-104.148-3.477c16.868-7.89 19.77-22.662 20.411-29.82 3.008.066 6.015.137 9.022.213Z" fill="#11814B"/><path fill-rule="evenodd" clip-rule="evenodd" d="M307.852 23.345C302.08 20.105 298.124 18 295.844 18c0 0 5.882 32.495-46.335 32.495-48.521 0-46.336-32.495-46.336-32.495-2.279 0-6.235 2.105-12.002 5.345 0 0 7.368 40.38 58.403 40.38 51.478 0 58.278-35.895 58.278-40.38Z" fill="#11814B"/><path fill-rule="evenodd" clip-rule="evenodd" d="M413.584 238.323c-9.287 2.238-19.064 3.316-28.798 2.592-8.197-22.369-15.557-36.883-20.012-44.748v270.577s-21.102 6.71-55.867 11.111l-.544-.06c1.881-54.795 5.722-166.47 8.277-240.705 2.055-59.755 31.084-95.29 60.099-117.44-2.676 6.781-5.072 14.606-7 23.667 7.354 11.852 24.436 42.069 43.831 94.964l.014.042ZM190.717 477.795c-34.248-4.401-56.477-11.051-56.477-11.051V196.172c-4.456 7.867-11.813 22.379-20.009 44.743-9.633.716-19.31-.332-28.511-2.523.005-.032.012-.065.02-.097 19.377-52.848 36.305-83.066 43.61-94.944-1.929-9.075-4.328-16.912-7.007-23.701 29.015 22.15 58.044 57.685 60.099 117.44 2.555 74.235 6.396 185.91 8.277 240.705h-.002Z" fill="#000" fill-opacity=".06"/><path fill-rule="evenodd" clip-rule="evenodd" d="M297.246 45.907c8.652-9.732 10.435-20.265 10.435-22.562-5.772-3.24-9.728-5.345-12.008-5.345 0 0 2.273 12.558-8.552 22.06l10.125 5.846Zm-84.176-5.938-10.067 5.812C193.126 34.996 191 23.345 191 23.345c5.767-3.24 9.723-5.345 12.003-5.345 0 0-.839 12.477 10.067 21.969Z" fill="#F2F2F2"/><path fill-rule="evenodd" clip-rule="evenodd" d="m309.5 113.5-4.408 2.163.842-4.581-3.567-3.245 4.929-.669L309.5 103l2.204 4.168 4.929.669-3.567 3.245.842 4.581-4.408-2.163Z" fill="#EBC61A"/><path fill-rule="evenodd" clip-rule="evenodd" d="M284.269 151.449c2.36 11.75 12.738 20.601 25.183 20.601 12.492 0 22.902-8.918 25.209-20.735l-6.52-1.747c-1.522 8.944-9.31 15.754-18.689 15.754-9.331 0-17.088-6.741-18.666-15.619l-6.517 1.746Z" fill="#fff"/><path fill-rule="evenodd" clip-rule="evenodd" d="m283.093 150.72 8.495-2.276.192 1.083c1.494 8.405 8.839 14.787 17.672 14.787 8.878 0 16.252-6.447 17.694-14.915l.186-1.093 8.501 2.278-.181.925c-2.398 12.282-13.216 21.551-26.2 21.551-12.935 0-23.72-9.199-26.173-21.411l-.186-.929Zm51.568.595c-2.307 11.817-12.717 20.735-25.209 20.735-12.445 0-22.823-8.85-25.183-20.6l6.517-1.746c.06.333.127.663.204.99 1.959 8.385 9.481 14.629 18.462 14.629 9.028 0 16.583-6.311 18.493-14.762.074-.328.139-.659.196-.993l6.52 1.747Z" fill="#FFC700"/><path fill-rule="evenodd" clip-rule="evenodd" d="m282.315 150.236 9.803-2.627.319 1.8c1.438 8.092 8.511 14.236 17.015 14.236 8.547 0 15.648-6.207 17.036-14.359l.309-1.815 9.81 2.628-.3 1.536c-2.458 12.59-13.545 22.091-26.855 22.091-13.26 0-24.313-9.429-26.827-21.947l-.31-1.543Zm53.518.347-.181.925c-2.398 12.282-13.216 21.551-26.2 21.551-12.935 0-23.72-9.199-26.173-21.412l-.186-.928 8.495-2.277.192 1.084c1.494 8.404 8.839 14.786 17.672 14.786 8.878 0 16.253-6.447 17.694-14.914l.186-1.093 8.501 2.278Zm-1.954 1.213-5.216-1.398-.067.309c-1.977 8.749-9.797 15.282-19.144 15.282-9.298 0-17.084-6.465-19.112-15.144a28.7 28.7 0 0 1-.071-.313l-5.214 1.397c2.53 11.139 12.493 19.453 24.397 19.453 11.951 0 21.947-8.381 24.427-19.586Zm-49.61-.347c2.36 11.75 12.738 20.6 25.183 20.6 12.492 0 22.902-8.918 25.209-20.735l-6.52-1.747a20.103 20.103 0 0 1-.196.993c-1.91 8.451-9.465 14.762-18.493 14.762-8.981 0-16.503-6.245-18.462-14.629a17.996 17.996 0 0 1-.204-.991l-6.517 1.747Z" fill="#FFC700"/><path fill-rule="evenodd" clip-rule="evenodd" d="m327.648 148.796 7.726 2.07-.11.563c-2.363 12.1-13.021 21.232-25.813 21.232-12.743 0-23.369-9.062-25.785-21.094l-.114-.565 7.722-2.069.117.659c1.526 8.59 9.032 15.113 18.06 15.113 9.074 0 16.61-6.589 18.083-15.244l.114-.665Zm.974 1.534c-1.835 8.907-9.72 15.604-19.171 15.604-9.403 0-17.256-6.63-19.142-15.47l-5.318 1.425c2.517 11.187 12.514 19.543 24.46 19.543 11.994 0 22.022-8.423 24.49-19.677l-5.319-1.425Z" fill="#118528"/><path d="m290.885 144.581-4.198 1-1.798-5.996 2.998 2.398 1.798-1.799 1.2 4.397Z" fill="#fff"/><path fill-rule="evenodd" clip-rule="evenodd" d="m285.998 146.785-3.003-10.009 4.82 3.856 2.39-2.39 1.932 7.082-6.139 1.461Zm1.892-4.8-2.998-2.399 1.799 5.996 4.197-.999-1.199-4.397-1.799 1.799Z" fill="#FFC700"/><path fill-rule="evenodd" clip-rule="evenodd" d="m285.843 147.048-3.265-10.883 5.217 4.173 2.519-2.518 2.091 7.665-6.562 1.563Zm2.044-5.063-2.998-2.398 1.798 5.996 4.198-.999-1.2-4.397-1.798 1.798Z" fill="#118528"/><path fill-rule="evenodd" clip-rule="evenodd" d="m285.149 148.247-4.469-14.896 7.039 5.631 3.11-3.11 2.823 10.351-8.503 2.024Zm2.645-7.912-5.217-4.174 3.265 10.883 6.561-1.562-2.09-7.666-2.519 2.519Z" fill="#FFC700"/><path d="m328.26 144.581 3.918 1 1.679-5.996-2.798 2.398-1.679-1.799-1.12 4.397Z" fill="#fff"/><path fill-rule="evenodd" clip-rule="evenodd" d="m332.886 146.803 2.842-10.15-4.59 3.934-2.279-2.442-1.824 7.166 5.851 1.492Zm-1.826-4.819 2.798-2.399-1.679 5.996-3.917-.999 1.119-4.397 1.679 1.799Z" fill="#FFC700"/><path fill-rule="evenodd" clip-rule="evenodd" d="m333.034 147.069 3.095-11.055-4.98 4.269-2.41-2.582-1.977 7.768 6.272 1.6Zm-1.979-5.086 2.798-2.398-1.679 5.996-3.917-1 1.119-4.397 1.679 1.799Z" fill="#118528"/><path fill-rule="evenodd" clip-rule="evenodd" d="M333.742 148.291 338 133.083l-6.771 5.804-3.011-3.225-2.682 10.536 8.206 2.093Zm-2.591-8.008 4.98-4.268-3.096 11.054-6.271-1.6 1.977-7.768 2.41 2.582Z" fill="#FFC700"/><path fill-rule="evenodd" clip-rule="evenodd" d="M297.672 122.911h23.742l4.791 5.218c-1.43 1.303-2.388 6.425-2.874 7.581.73 3.905 2.603 7.452 2.603 13.116 0 3.68-11.019 7.956-16.288 11.784-5.27-3.828-16.289-8.104-16.289-11.784 0-5.664 1.669-9.211 2.399-13.116-.487-1.156-1.445-6.278-2.875-7.581l4.791-5.218Z" fill="#fff"/><path fill-rule="evenodd" clip-rule="evenodd" d="M296.987 121.359h25.106l6.305 6.868-1.151 1.049c-.103.095-.325.403-.607 1.047-.262.599-.51 1.329-.743 2.1a71.07 71.07 0 0 0-.537 1.906l-.082.3a27.89 27.89 0 0 1-.345 1.2c.224 1.077.525 2.101.855 3.224.198.671.405 1.378.614 2.153.58 2.16 1.081 4.605 1.081 7.62 0 1.655-1.187 3.017-2.333 4.022-1.231 1.08-2.879 2.139-4.601 3.152-1.164.685-2.417 1.379-3.644 2.059-.588.326-1.171.649-1.734.965-1.772.996-3.379 1.942-4.616 2.841l-.912.663-.912-.663c-1.238-.899-2.845-1.845-4.616-2.841-.564-.316-1.146-.639-1.735-.965-1.227-.68-2.48-1.374-3.644-2.059-1.722-1.013-3.37-2.072-4.601-3.152-1.145-1.005-2.332-2.367-2.332-4.022 0-2.995.443-5.427.969-7.585.209-.855.418-1.625.616-2.356.286-1.051.55-2.024.76-3.054a29.03 29.03 0 0 1-.346-1.202l-.082-.3a74.837 74.837 0 0 0-.536-1.906c-.233-.771-.481-1.501-.743-2.1-.282-.644-.504-.952-.608-1.047l-1.151-1.049 6.305-6.868Zm-1.234 14.352c-.231 1.233-.555 2.431-.891 3.671-.727 2.686-1.508 5.57-1.508 9.444 0 2.458 4.918 5.183 9.755 7.862 2.402 1.331 4.785 2.651 6.534 3.922 1.749-1.271 4.131-2.591 6.534-3.922 4.836-2.679 9.754-5.404 9.754-7.862 0-3.775-.832-6.61-1.603-9.236-.386-1.315-.757-2.577-1-3.879.139-.331.317-.987.534-1.785.538-1.984 1.315-4.848 2.33-5.788a.09.09 0 0 0 .01-.009l-4.791-5.218h-23.742l-4.791 5.218a.09.09 0 0 1 .01.009c1.016.939 1.793 3.803 2.331 5.788.217.798.394 1.454.534 1.785Z" fill="#FFC700"/><path fill-rule="evenodd" clip-rule="evenodd" d="M297.398 122.296h24.283l5.39 5.872-.456.415c-.256.234-.542.697-.834 1.364-.284.649-.545 1.42-.782 2.205-.202.67-.383 1.337-.545 1.933l-.081.298a20.524 20.524 0 0 1-.409 1.384c.237 1.211.578 2.373.941 3.61.195.662.396 1.346.591 2.072.568 2.113 1.049 4.472 1.049 7.377 0 1.211-.886 2.328-2.014 3.317-1.161 1.019-2.745 2.042-4.457 3.049a161.111 161.111 0 0 1-3.61 2.039c-.591.327-1.179.653-1.753.976-1.773.996-3.422 1.966-4.708 2.9l-.361.262-.361-.262c-1.286-.934-2.935-1.904-4.708-2.9-.574-.323-1.162-.649-1.754-.976-1.22-.676-2.455-1.36-3.609-2.039-1.713-1.007-3.296-2.03-4.458-3.049-1.127-.989-2.013-2.106-2.013-3.317 0-2.897.427-5.251.943-7.363.195-.801.399-1.552.596-2.279.315-1.162.613-2.264.837-3.416a21.106 21.106 0 0 1-.41-1.385l-.08-.298c-.162-.596-.343-1.263-.545-1.933-.237-.785-.498-1.556-.782-2.205-.292-.667-.578-1.13-.835-1.364l-.455-.415 5.39-5.872Zm.54 1.229-4.236 4.615c.276.378.514.839.722 1.314.313.714.59 1.54.833 2.343.207.688.393 1.373.555 1.969l.08.294c.185.681.324 1.17.426 1.412l.072.17-.034.181c-.234 1.254-.571 2.498-.911 3.757-.194.718-.39 1.441-.569 2.174-.501 2.053-.908 4.304-.908 7.072 0 .628.492 1.425 1.595 2.393 1.069.938 2.57 1.913 4.27 2.913 1.141.671 2.351 1.341 3.563 2.013.595.33 1.19.66 1.779.99 1.62.91 3.181 1.823 4.467 2.72 1.286-.897 2.847-1.81 4.467-2.72.588-.33 1.184-.66 1.779-.99 1.212-.672 2.422-1.342 3.562-2.013 1.701-1 3.201-1.975 4.271-2.913 1.103-.968 1.595-1.765 1.595-2.393 0-2.76-.456-5.006-1.007-7.058-.178-.663-.37-1.316-.561-1.966-.391-1.333-.776-2.647-1.025-3.979l-.034-.181.071-.17c.102-.242.242-.731.427-1.412l.08-.294c.162-.596.348-1.281.555-1.969.242-.803.52-1.629.833-2.343.208-.475.446-.936.722-1.314l-4.236-4.615h-23.203Z" fill="#118528"/><path fill-rule="evenodd" clip-rule="evenodd" d="M310.114 150.924a5.752 5.752 0 1 0 0-11.505 5.752 5.752 0 0 0 0 11.505Z" fill="#118528"/><path d="M313.325 131.519c1.542.081 2.079 2.088.785 2.929a1.592 1.592 0 0 0-.672 1.749c.4 1.492-1.343 2.623-2.543 1.651a1.595 1.595 0 0 0-1.871-.098c-1.295.841-2.909-.466-2.356-1.908a1.591 1.591 0 0 0-.485-1.809c-1.2-.972-.455-2.912 1.087-2.831a1.594 1.594 0 0 0 1.571-1.02c.553-1.442 2.628-1.333 3.028.158a1.592 1.592 0 0 0 1.456 1.179Z" fill="#118528"/><path d="M309.457 136.103h1.328v4.867h-1.328v-4.867Z" fill="#118528"/></svg>