<?xml version="1.0" encoding="UTF-8"?><svg height="500" viewBox="0 0 500 500" width="500" xmlns="http://www.w3.org/2000/svg"><g fill="none" fill-rule="evenodd"><path d="M0 0h500v500H0z"/><path d="M203.003 109.223h93.643V21.928h-93.643z" fill="#c8c8c8"/><path d="M202.864 32.228h93.458v-14.2h-93.458z" fill="#e3e3e3"/><path d="M87.548 75.258S46.785 148.058 29 203.029c4.445 13.376 45.208 40.86 85.232 37.886 13.34-36.4 24.46-52 24.46-52s2.963-95.085-51.144-113.655M411.473 75.258s40.762 72.8 58.547 127.77c-4.445 13.376-45.208 40.86-85.232 37.886-13.34-36.4-24.46-52-24.46-52s-2.963-95.085 51.145-113.655" fill="#f2f2f2"/><path d="M249.511 57.703c-50.082 0-47.798-39.47-48.742-39.14-7.516 2.618-24.133 14.936-52.439 25.495-31.873 11.885-52.626 19.315-60.782 31.2 11.114 8.915 46.694 28.97 46.694 120.345v271.14s49.658 14.855 114.885 14.855c68.929 0 115.648-14.855 115.648-14.855v-271.14c0-91.375 35.58-111.43 46.7-120.345-8.157-11.885-28.91-19.315-60.783-31.2-28.36-10.577-44.982-22.92-52.478-25.511-.927-.318 4.177 39.156-48.703 39.156z" fill="#f2f2f2"/><g fill="#c72221"><path d="M163.695 55.531c9.129-6.406 20.206-11.838 33.035-15.863l1.807 439.034a472.45 472.45 0 0 1-27.788-3.94c-2.459-.449-4.812-.9-7.054-1.347zm172.61.709v417.243c-9.588 1.842-21.354 3.738-34.921 5.23V39.388c13.681 4.199 25.399 9.987 34.92 16.852zm28.934 121.91c-.301 5.5-.46 11.301-.46 17.422v271.14s-2.63.837-7.564 2.113V78.139c5.267 8.603 8.024 17.82 8.024 27.103v72.909zm-231.476-.377v-72.531c0-8.679 2.41-17.298 7.026-25.413v388.648c-4.25-1.078-6.544-1.765-6.544-1.765v-271.14c0-6.261-.167-12.188-.482-17.799zm133.698 303.445c-5.913.225-12.029.35-18.331.35-5.655 0-11.192-.112-16.59-.316V58h34.92z"/><path d="M202.215 24.577l1.749 3.198c-9.027 4.858-24.145 14.369-46.657 22.766-31.873 11.885-52.626 19.315-60.78 31.201-.003 0-11.08 19.783-24.205 46.512a52.893 52.893 0 0 1-3.11-2.238c13.177-26.854 24.322-46.757 24.322-46.757h.002c8.155-11.886 28.908-19.316 60.78-31.201 19.604-7.313 33.602-15.47 42.852-20.663-.008-.033-.01-.05-.01-.05a189.648 189.648 0 0 1 5.057-2.768z"/><path d="M192.451 26.846c-9.233 5.204-22.705 12.822-41.13 19.695-31.874 11.885-52.627 19.315-60.781 31.201-.002 0-11.08 19.783-24.205 46.512a52.82 52.82 0 0 1-3.11-2.238c13.178-26.854 24.323-46.758 24.323-46.758 8.156-11.885 28.91-19.315 60.782-31.2 19.604-7.313 33.601-15.47 42.851-20.663l-.01-.05zM299.093 25.807c.87.478 1.79.992 2.763 1.538l-.01.05c9.25 5.194 23.247 13.35 42.85 20.662 31.874 11.885 52.627 19.315 60.781 31.202h.002s11.145 19.903 24.323 46.757a52.819 52.819 0 0 1-3.11 2.238c-13.125-26.729-24.203-46.512-24.203-46.512h-.002c-8.155-11.886-28.908-19.316-60.78-31.201-20.712-7.726-35.165-16.394-44.374-21.514z"/><path d="M307.843 23.345l-.011.05c9.25 5.194 23.247 13.35 42.851 20.662 31.873 11.885 52.626 19.315 60.78 31.202.003 0 11.147 19.903 24.325 46.757a52.819 52.819 0 0 1-3.11 2.238c-13.125-26.729-24.203-46.512-24.203-46.512-8.156-11.886-28.91-19.316-60.782-31.201-18.267-6.814-31.666-14.36-40.892-19.56zM467.461 195.302a338.826 338.826 0 0 1 2.668 7.9c-4.445 13.375-45.208 40.86-85.232 37.885a426.405 426.405 0 0 0-2.836-7.52c20.795-1.358 37.993-5.637 51.595-12.837 13.428-7.11 24.696-15.585 33.805-25.428zM31.655 195.302c9.103 9.828 20.36 18.291 33.772 25.392 13.611 7.205 30.824 11.485 51.64 12.84a426.42 426.42 0 0 0-2.835 7.516C74.208 244.025 33.445 216.54 29 203.165c.836-2.584 1.723-5.209 2.655-7.863z"/></g><path d="M307.852 23.345C302.08 20.105 298.124 18 295.844 18c0 0 5.881 32.495-46.335 32.495-48.52 0-46.336-32.495-46.336-32.495-2.28 0-6.235 2.105-12.002 5.345 0 0 7.368 40.38 58.402 40.38 51.479 0 58.279-35.895 58.279-40.38z" fill="#f2f2f2"/><path d="M413.584 238.323c-9.287 2.238-19.064 3.316-28.798 2.592-8.197-22.369-15.557-36.883-20.012-44.748v270.577s-21.102 6.71-55.867 11.11l-.544-.059c1.881-54.795 5.722-166.47 8.277-240.705 2.055-59.755 31.084-95.29 60.099-117.44-2.676 6.78-5.072 14.606-7 23.667 7.354 11.852 24.436 42.069 43.831 94.964l.014.042zM190.717 477.795c-34.248-4.401-56.477-11.05-56.477-11.05V196.171c-4.456 7.867-11.813 22.38-20.01 44.743-9.632.716-19.308-.332-28.51-2.523.005-.033.012-.065.02-.097 19.377-52.848 36.305-83.066 43.61-94.944-1.93-9.075-4.328-16.912-7.007-23.701 29.015 22.15 58.044 57.685 60.1 117.44 2.554 74.235 6.395 185.91 8.276 240.705z" fill="#000" fill-opacity=".1"/><circle cx="309" cy="143" fill="#f2f2f2" r="24"/><circle cx="309" cy="143" fill="#e5191b" r="22"/><circle cx="309" cy="143" fill="#f2f2f2" r="16"/><circle cx="309" cy="143" fill="#fca3a4" r="12"/><g fill="#dac979"><path d="M304.93 115.494l-1.675 1.078.164-1.986-1.542-1.26 1.939-.458.723-1.857 1.034 1.703 1.989.114-1.3 1.51.506 1.926zM313.07 115.494l-1.838.77.506-1.927-1.3-1.51 1.99-.113 1.033-1.703.723 1.857 1.94.457-1.543 1.261.164 1.986zM321.487 118.41l-1.974.268.988-1.73-.865-1.795 1.95.405 1.44-1.377.218 1.98 1.754.944-1.816.818-.355 1.96zM295.513 118.41l-1.34 1.474-.355-1.96-1.816-.82 1.754-.943.218-1.98 1.44 1.377 1.95-.405-.865 1.795.988 1.73z"/></g></g></svg>