<?xml version="1.0" encoding="UTF-8"?><svg width="500" height="500" viewBox="0 0 500 500" xmlns="http://www.w3.org/2000/svg"><g fill="none" fill-rule="evenodd"><path d="M0 0h500v500H0z"/><path fill="#D9D9D9" d="M203.0033 109.223h93.6432V21.928h-93.6432z"/><path fill="#1A6849" d="M202.8636 32.228h93.4586v-14.2h-93.4586z"/><path d="M87.5475 75.2585s-40.7627 72.8-58.5475 127.77c4.445 13.375 45.2077 40.86 85.2322 37.885 13.3398-36.4 24.4596-52 24.4596-52s2.9633-95.085-51.1443-113.655m323.9252 0s40.7628 72.8 58.5475 127.77c-4.445 13.375-45.2077 40.86-85.2321 37.885-13.3399-36.4-24.4597-52-24.4597-52s-2.9633-95.085 51.1443-113.655" fill="#DDECE6"/><path d="M249.5111 57.7025c-50.0817 0-47.7981-39.469-48.7426-39.14-7.5158 2.6187-24.1326 14.9368-52.4385 25.495-31.8729 11.885-52.626 19.315-60.7825 31.2 11.1149 8.915 46.6944 28.97 46.6944 120.345v271.14s49.6576 14.855 114.885 14.855c68.9291 0 115.6484-14.855 115.6484-14.855v-271.14c0-91.375 35.5795-111.43 46.6994-120.345-8.1566-11.885-28.9096-19.315-60.7825-31.2-28.3599-10.5767-44.9818-22.9194-52.478-25.5106-.9273-.3184 4.1773 39.1556-48.703 39.1556z" fill="#1D7653"/><path d="M364.7834 196.1508v270.5637s-2.6152.8315-7.521 2.1011l2-270.7868c0-13.4701 3.4924-31.7073 10.477-54.7116.029-.0069-1.623 17.6043-4.956 52.8336zM134.25 466.7145v-270.562l-4.9003-52.8014c6.9336 22.9793 10.4003 41.2052 10.4003 54.6777l2 270.6902c-4.8608-1.215-7.5-2.0045-7.5-2.0045z" fill="#DDECE6"/><path d="M81.7794 85.8477c47.643 23.4466 44.9124 111.0658 44.9124 111.0658l-.5402.7963c-2.1728 3.2843-10.6545 16.869-20.9633 43.373C68.2706 239.8264 33.11 215.3956 29 203.0285c13.246-40.9417 39.2387-91.7741 51.6427-115.0526l1.1367-2.1282zm388.2408 117.1808c-4.1387 12.4536-39.7637 37.14-76.9618 38.0807l-.6942-1.745c-11.2874-28.1775-20.0358-40.4507-20.0358-40.4507l-.014-.6456c-.134-8.0555-.3227-89.1524 45.7757-110.8289l1.9453 3.6621c12.9422 24.4755 37.3042 72.7336 49.9848 111.9274zM307.8516 23.345c-5.772-3.24-9.728-5.345-12.0078-5.345 0 0 5.8817 32.495-46.3352 32.495-48.5202 0-46.3352-32.495-46.3352-32.495-2.2798 0-6.2358 2.105-12.0028 5.345 0 0 7.3683 40.38 58.4029 40.38 51.4785 0 58.2781-35.895 58.2781-40.38z" fill="#1D7653"/><path d="M413.5843 238.3227c-9.2877 2.2382-19.0646 3.3161-28.7978 2.5926-8.1978-22.369-15.5572-36.883-20.0128-44.7484v270.5774s-21.1022 6.7098-55.8664 11.1104c-.1817-.0197-.363-.0396-.544-.0597 1.8808-54.795 5.7221-166.47 8.2763-240.705 2.0554-59.755 31.0847-95.29 60.099-117.44-2.6753 6.7806-5.0714 14.6063-6.9991 23.6673 7.354 11.8514 24.4358 42.0687 43.8307 94.964.005.014.0097.0277.014.0414zM190.7166 477.7953c-34.2478-4.4014-56.4763-11.051-56.4763-11.051V196.1721c-4.4558 7.8668-11.8138 22.3792-20.0097 44.7432-9.633.716-19.3087-.3323-28.5106-2.5238a1.113 1.113 0 01.0199-.0967c19.3773-52.8475 36.3054-83.0661 43.6098-94.9437-1.929-9.0753-4.3277-16.912-7.0064-23.7011 29.0144 22.15 58.0437 57.685 60.099 117.44 2.5543 74.235 6.3956 185.91 8.2763 240.7053h-.002z" fill-opacity=".08" fill="#000"/><g transform="translate(286.9972 120)"><path d="M6.5047 41.7475c-7.6353-4.066-7.6326-14.589-4.653-19.9449l.547-.9467c2.7082-4.7393 3.008-6.7017 2.4904-12.247C4.6772 6.3395 3.3358 4.3899.8649 2.76L4.3909 0c3.4758 1.84 6.5926 2.76 9.3504 2.76 2.7579 0 5.5117-.92 8.2615-2.76l.375.2452C25.003 1.9217 27.6318 2.76 30.2643 2.76c2.638 0 5.6043-.8417 8.8991-2.5252L39.6147 0l3.526 2.76c-2.4709 1.6299-3.8123 3.5795-4.0242 5.8489l-.0713.8057c-.4212 5.0729.0105 7.042 2.7694 11.802l.2168.3718c3.1007 5.2845 3.208 16.0381-4.5305 20.159-7.623 4.0595-15.2665 2.5507-15.493 4.1765L22.003 46c0-1.7489-7.7597-.1316-15.4982-4.2525z" fill="#FFF"/><path d="M22.0028 2l.3409.2239C24.7299 3.7546 27.1194 4.52 29.5123 4.52c2.3978 0 5.5843-.5542 8.5792-2.0913l.4103-.2143L40.2167 3.52c-1.7059 1.1302-2.2427 3.0057-2.4865 4.7502L6.667 39.3348c-5.6806-4.1405-5.5162-12.851-2.981-17.428l.497-.8645c2.4617-4.3271 2.7343-6.1189 2.2638-11.182l-.0629-.6636C6.1872 7.2269 5.8026 4.8542 3.789 3.52l1.8067-1.3056c3.1594 1.68 6.3908 2.3056 8.8976 2.3056 2.5068 0 5.01-.84 7.5095-2.52z" fill="#008F4E"/><rect fill="#FFF" opacity=".5" x="8.0028" y="6" width="28" height="3" rx="1.5"/><path d="M13.7602 11.9792l8.4852 8.4853-4.2426 4.2426-8.4853-8.4853c-1.1715-1.1715-1.1715-3.071 0-4.2426 1.1716-1.1716 3.0711-1.1716 4.2427 0z" fill="#FFF" opacity=".7"/><path d="M25.0739 23.2929l8.4853 8.4853c1.1715 1.1715 1.1715 3.071 0 4.2426-1.1716 1.1716-3.0711 1.1716-4.2427 0l-8.4853-8.4853 4.2427-4.2426z" fill="#008F4E" opacity=".7"/></g></g></svg>