<?xml version="1.0" encoding="UTF-8"?><svg width="500" height="500" viewBox="0 0 500 500" xmlns="http://www.w3.org/2000/svg"><g fill="none" fill-rule="evenodd"><path d="M0 0h500v500H0z"/><path fill="#D9D9D9" d="M203.0033 109.223h93.6432V21.928h-93.6432z"/><path fill="#393939" d="M202.8636 32.228h93.4586v-14.2h-93.4586z"/><path d="M87.5475 75.2585s-40.7627 72.8-58.5475 127.77c4.445 13.375 45.2077 40.86 85.2322 37.885 13.3398-36.4 24.4596-52 24.4596-52s2.9633-95.085-51.1443-113.655m323.9252 0s40.7628 72.8 58.5475 127.77c-4.445 13.375-45.2077 40.86-85.2321 37.885-13.3399-36.4-24.4597-52-24.4597-52s-2.9633-95.085 51.1443-113.655" fill="#344EB0"/><path d="M249.5111 57.7025c-50.0817 0-47.7981-39.469-48.7426-39.14-7.5158 2.6187-24.1326 14.9368-52.4385 25.495-31.8729 11.885-52.626 19.315-60.7825 31.2 11.1149 8.915 46.6944 28.97 46.6944 120.345v271.14s49.6576 14.855 114.885 14.855c68.9291 0 115.6484-14.855 115.6484-14.855v-271.14c0-91.375 35.5795-111.43 46.6994-120.345-8.1566-11.885-28.9096-19.315-60.7825-31.2-28.3599-10.5767-44.9818-22.9194-52.478-25.5106-.9273-.3184 4.1773 39.1556-48.703 39.1556z" fill="#344EB0"/><path d="M170.7459 474.7916c-5.4564-.995-10.3952-2.0025-14.7459-2.9578V41.0448c15.4749-6.3881 26.936-13.016 34.921-17.5038v454.2784a470.6007 470.6007 0 01-20.1751-3.0278zm96.675-425.8702v432.3277a480.705 480.705 0 01-18.294.3484c-5.6672 0-11.217-.1121-16.6269-.317V48.8783c4.8322 1.0246 10.4583 1.6168 17.0086 1.6168 6.9497 0 12.8702-.5756 17.9124-1.5736zm76.5-7.5073V471.971c-9.0824 1.9359-20.8863 4.0909-34.9209 5.8703V24.047c8.096 4.5613 19.566 11.102 34.921 17.3671z" fill="#3D3D3D"/><path d="M307.8516 23.345c-5.772-3.24-9.728-5.345-12.0078-5.345 0 0 5.8817 32.495-46.3352 32.495-48.5202 0-46.3352-32.495-46.3352-32.495-2.2798 0-6.2358 2.105-12.0028 5.345 0 0 7.3683 40.38 58.4029 40.38 51.4785 0 58.2781-35.895 58.2781-40.38z" fill="#3D3D3D"/><path d="M413.5843 238.3227c-9.2877 2.2382-19.0646 3.3161-28.7978 2.5926-8.1978-22.369-15.5572-36.883-20.0128-44.7484v270.5774s-21.1022 6.7098-55.8664 11.1104c-.1817-.0197-.363-.0396-.544-.0597 1.8808-54.795 5.7221-166.47 8.2763-240.705 2.0554-59.755 31.0847-95.29 60.099-117.44-2.6753 6.7806-5.0714 14.6063-6.9991 23.6673 7.354 11.8514 24.4358 42.0687 43.8307 94.964.005.014.0097.0277.014.0414zM190.7166 477.7953c-34.2478-4.4014-56.4763-11.051-56.4763-11.051V196.1721c-4.4558 7.8668-11.8138 22.3792-20.0097 44.7432-9.633.716-19.3087-.3323-28.5106-2.5238a1.113 1.113 0 01.0199-.0967c19.3773-52.8475 36.3054-83.0661 43.6098-94.9437-1.929-9.0753-4.3277-16.912-7.0064-23.7011 29.0144 22.15 58.0437 57.685 60.099 117.44 2.5543 74.235 6.3956 185.91 8.2763 240.7053h-.002z" fill-opacity=".1" fill="#000"/><g transform="translate(290 114)"><path d="M0 20.9V11c7.1338.719 13.4338 1.0786 18.9 1.0786 5.4662 0 11.7662-.3595 18.9-1.0786v9.9c0 17.5399-6.1694 29.7677-18.5083 36.6834L18.9 57.8C6.3 50.9245 0 38.6245 0 20.9z" fill="#F2F2F2"/><path d="M1.8 22.1857v-8.9571c6.4544.6506 12.1544.9758 17.1.9758 4.9456 0 10.6456-.3252 17.1-.9758v8.9571c0 15.8694-5.5819 26.9327-16.7456 33.1897l-.3544.196C7.5 49.3508 1.8 38.2222 1.8 22.1857z" fill="#282828"/><path d="M16.6502 14.183l-.0007 40.0487c-1.2832-.8321-2.4832-1.7359-3.6-2.7112l.001-37.4518c1.238.0545 2.438.0926 3.5997.1143zm8.099-.1143L24.75 51.521c-1.1167.9752-2.3166 1.8789-3.5997 2.711l-.0013-40.049a142.069 142.069 0 003.6004-.1143zm8.0995-.543L32.85 40.122c-.974 2.3535-2.1737 4.5125-3.5993 6.477l-.002-32.789a208.8396 208.8396 0 003.6-.2843zm-24.2974.2842l-.002 32.789c-1.4263-1.9655-2.6265-4.1255-3.6006-6.4802l.0021-26.5931c1.2298.1075 2.43.2023 3.6005.2843z" fill="#3371C1"/><circle fill="#F2F2F2" cx="18.9" cy="30.8" r="12.6"/><path fill="#3371C1" d="M18 34.1816L21.8184 38 18 41.8184 14.1816 38z"/><path fill="#B52626" d="M11.7 26.9816L15.5184 30.8 11.7 34.6184 7.8816 30.8z"/><path fill="#E4CB1F" d="M18 19.7816L21.8184 23.6 18 27.4184 14.1816 23.6z"/><path fill="#242424" d="M19.8 29.9h9.9v1.8h-9.9z"/><path fill="#BAC0C4" d="M11 7.5L8.061 9.045l.5614-3.2725L6.2447 3.455l3.2858-.4774L11 0l1.4695 2.9775 3.2858.4774-2.3777 2.3176.5613 3.2726zm16 0l-2.939 1.545.5614-3.2725-2.3777-2.3176 3.2858-.4774L27 0l1.4695 2.9775 3.2858.4774-2.3777 2.3176.5613 3.2726z"/></g></g></svg>