<?xml version="1.0" encoding="UTF-8"?><svg width="500" height="500" viewBox="0 0 500 500" xmlns="http://www.w3.org/2000/svg"><g fill="none" fill-rule="evenodd"><path d="M0 0h500v500H0z"/><path fill="#D9D9D9" d="M203.0033 109.223h93.6432V21.928h-93.6432z"/><path fill="#E3E3E3" d="M202.8636 32.228h93.4586v-14.2h-93.4586z"/><path d="M87.5475 75.2585s-40.7627 72.8-58.5475 127.77c4.445 13.375 45.2077 40.86 85.2322 37.885 13.3398-36.4 24.4596-52 24.4596-52s2.9633-95.085-51.1443-113.655" fill="#F2F2F2"/><path d="M411.4727 75.2585s40.7628 72.8 58.5475 127.77c-4.445 13.375-45.2077 40.86-85.2321 37.885-13.3399-36.4-24.4597-52-24.4597-52s-2.9633-95.085 51.1443-113.655" fill="#2D53AC"/><path d="M249.5111 57.7025c-50.0817 0-47.7981-39.469-48.7426-39.142-7.5158 2.6207-24.1326 14.9388-52.4385 25.497-31.8729 11.885-52.626 19.315-60.7825 31.2 11.1149 8.915 46.6944 28.97 46.6944 120.345v271.14s49.6576 14.855 114.885 14.855l.3842-423.895z" fill="#F2F2F2"/><path d="M249.5111 57.7025l-.3841 423.895c68.929 0 115.6483-14.855 115.6483-14.855v-271.14c0-91.375 35.5795-111.43 46.6994-120.345-8.1566-11.885-28.9096-19.315-60.7825-31.2-28.3599-10.5767-44.9818-22.9194-52.478-25.5106-.9273-.3184 4.1773 39.1556-48.703 39.1556z" fill="#2D53AC"/><path d="M467.3529 195.129c.9359 2.6665 1.8272 5.303 2.6673 7.8995-4.445 13.375-45.2077 40.86-85.2321 37.885a426.4238 426.4238 0 00-2.8354-7.5198c20.795-1.3576 37.9932-5.6366 51.5944-12.8371 13.4282-7.109 24.6968-15.5848 33.8058-25.4277z" fill="#F2F2F2"/><path d="M31.6547 195.165c9.1031 9.8275 20.3606 18.2914 33.7724 25.3916 13.611 7.2056 30.824 11.4856 51.6393 12.84a426.4196 426.4196 0 00-2.8342 7.5169c-40.0245 2.975-80.7873-24.51-85.2322-37.885.8363-2.5849 1.7234-5.2092 2.6547-7.8635z" fill="#2D53AC"/><path d="M307.8516 23.345c-5.772-3.24-9.728-5.345-12.0078-5.345 0 0 5.8817 32.495-46.3352 32.495-48.5202 0-46.3352-32.495-46.3352-32.495-2.2798 0-6.2358 2.105-12.0028 5.345 0 0 7.3683 40.38 58.4029 40.38 51.4785 0 58.2781-35.895 58.2781-40.38z" fill="#F2F2F2"/><path d="M413.5843 238.3227c-9.2877 2.2382-19.0646 3.3161-28.7978 2.5926-8.1978-22.369-15.5572-36.883-20.0128-44.7484v270.5774s-21.1022 6.7098-55.8664 11.1104c-.1817-.0197-.363-.0396-.544-.0597 1.8808-54.795 5.7221-166.47 8.2763-240.705 2.0554-59.755 31.0847-95.29 60.099-117.44-2.6753 6.7806-5.0714 14.6063-6.9991 23.6673 7.354 11.8514 24.4358 42.0687 43.8307 94.964.005.014.0097.0277.014.0414zM190.7166 477.7953c-34.2478-4.4014-56.4763-11.051-56.4763-11.051V196.1721c-4.4558 7.8668-11.8138 22.3792-20.0097 44.7432-9.633.716-19.3087-.3323-28.5106-2.5238a1.113 1.113 0 01.0199-.0967c19.3773-52.8475 36.3054-83.0661 43.6098-94.9437-1.929-9.0753-4.3277-16.912-7.0064-23.7011 29.0144 22.15 58.0437 57.685 60.099 117.44 2.5543 74.235 6.3956 185.91 8.2763 240.7053h-.002z" fill-opacity=".06" fill="#000"/><g transform="translate(288.5 118.5)"><path fill="#F2BE4D" d="M12.6617 6.36h14.84v2.12h-14.84z"/><circle fill="#F2BE4D" cx="20.0817" cy="4.24" r="4.24"/><circle fill="#132349" cx="20.0817" cy="4.24" r="2.12"/><path d="M38.1494 8.48v7.42c0 16.82-5.888 27.3721-17.664 31.6564l-.357.1266.001.017-.0243-.0085-.0234.0085-.001-.017-.355-.1266C7.9497 43.272 2.0617 32.72 2.0617 15.9V8.48h36.0877z" fill="#132349"/><path d="M36.0056 10.6v6.6178c0 15.0016-5.1884 24.413-15.5653 28.2341l-.3146.113.0009.0151-.0215-.0076-.0205.0076-.001-.0151-.3128-.113C9.394 41.6308 4.2056 32.2194 4.2056 17.2179V10.6h31.8z" fill="#009BFD"/><rect fill="#D8D8D8" x="9.4817" y="13.78" width="21.2" height="23.32" rx="5.3"/><path fill="#BF4444" d="M16.9017 37.1h6.36v8.48h-6.36z"/><path d="M40.2589 32.86l-1.249 6.7205-1.174-.9199c-4.1826 6.6104-9.6882 9.3665-17.1939 9.4818l-.4954.0038c-7.693-.0199-13.3462-2.7644-17.678-9.5216l-1.2196.956L0 32.86l5.4841 3.4008-1.1932.9367c4.349 5.8268 9.0958 7.3946 15.5108 7.5009l.386.0034.3879-.0034c6.3935-.106 11.13-1.6636 15.4672-7.4426l-1.268-.995 5.484-3.4008z" fill="#F2BE4D"/></g></g></svg>