<?xml version="1.0" encoding="UTF-8"?><svg width="500" height="500" viewBox="0 0 500 500" xmlns="http://www.w3.org/2000/svg"><g fill="none" fill-rule="evenodd"><path d="M0 0h500v500H0z"/><path fill="#D9D9D9" d="M203.0033 109.223h93.6432V21.928h-93.6432z"/><path fill="#1A7131" d="M202.8636 32.228h93.4586v-14.2h-93.4586z"/><path d="M87.5475 75.2585s-40.7627 72.8-58.5475 127.77c4.445 13.375 45.2077 40.86 85.2322 37.885 13.3398-36.4 24.4596-52 24.4596-52s2.9633-95.085-51.1443-113.655m323.9252 0s40.7628 72.8 58.5475 127.77c-4.445 13.375-45.2077 40.86-85.2321 37.885-13.3399-36.4-24.4597-52-24.4597-52s-2.9633-95.085 51.1443-113.655" fill="#F2F2F2"/><path d="M249.5111 57.7025c-50.0817 0-47.7981-39.469-48.7426-39.14-7.5158 2.6187-24.1326 14.9368-52.4385 25.495-31.8729 11.885-52.626 19.315-60.7825 31.2 11.1149 8.915 46.6944 28.97 46.6944 120.345v271.14s49.6576 14.855 114.885 14.855c68.9291 0 115.6484-14.855 115.6484-14.855v-271.14c0-91.375 35.5795-111.43 46.6994-120.345-8.1566-11.885-28.9096-19.315-60.7825-31.2-28.3599-10.5767-44.9818-22.9194-52.478-25.5106-.9273-.3184 4.1773 39.1556-48.703 39.1556z" fill="#F2F2F2"/><path d="M467.3529 195.129c.9359 2.6665 1.8272 5.303 2.6673 7.8995-4.445 13.375-45.2077 40.86-85.2321 37.885a426.4238 426.4238 0 00-2.8354-7.5198c20.795-1.3576 37.9932-5.6366 51.5944-12.8371 13.4282-7.109 24.6968-15.5848 33.8058-25.4277zm-435.6982.036c9.1031 9.8275 20.3606 18.2914 33.7724 25.3916 13.611 7.2056 30.824 11.4856 51.6393 12.84a426.4196 426.4196 0 00-2.8342 7.5169c-40.0245 2.975-80.7873-24.51-85.2322-37.885.8363-2.5849 1.7234-5.2092 2.6547-7.8635z" fill="#238A3E"/><path d="M215.9966 48.4028c7.1218 5.3696 17.711 9.2997 33.5145 9.2997 16.4861 0 27.3363-3.8367 34.4905-9.1082L284 480.3303a480.5262 480.5262 0 01-34.8731 1.2672c-11.5991 0-22.7058-.4697-33.1285-1.2422l-.002-431.9525z" fill="#E95F33"/><path d="M307.8516 23.345c-5.772-3.24-9.728-5.345-12.0078-5.345 0 0 5.8817 32.495-46.3352 32.495-48.5202 0-46.3352-32.495-46.3352-32.495-2.2798 0-6.2358 2.105-12.0028 5.345 0 0 7.3683 40.38 58.4029 40.38 51.4785 0 58.2781-35.895 58.2781-40.38z" fill="#238A3E"/><path d="M413.5843 238.3227c-9.2877 2.2382-19.0646 3.3161-28.7978 2.5926-8.1978-22.369-15.5572-36.883-20.0128-44.7484v270.5774s-21.1022 6.7098-55.8664 11.1104c-.1817-.0197-.363-.0396-.544-.0597 1.8808-54.795 5.7221-166.47 8.2763-240.705 2.0554-59.755 31.0847-95.29 60.099-117.44-2.6753 6.7806-5.0714 14.6063-6.9991 23.6673 7.354 11.8514 24.4358 42.0687 43.8307 94.964.005.014.0097.0277.014.0414zM190.7166 477.7953c-34.2478-4.4014-56.4763-11.051-56.4763-11.051V196.1721c-4.4558 7.8668-11.8138 22.3792-20.0097 44.7432-9.633.716-19.3087-.3323-28.5106-2.5238a1.113 1.113 0 01.0199-.0967c19.3773-52.8475 36.3054-83.0661 43.6098-94.9437-1.929-9.0753-4.3277-16.912-7.0064-23.7011 29.0144 22.15 58.0437 57.685 60.099 117.44 2.5543 74.235 6.3956 185.91 8.2763 240.7053h-.002z" fill-opacity=".06" fill="#000"/><g transform="translate(292 116)"><circle fill="#EB7854" cx="17" cy="27" r="17"/><path fill="#E4C967" d="M17 6l-2.3511 1.236.449-2.618-1.9021-1.854 2.6286-.382L17 0l1.1756 2.382 2.6286.382-1.902 1.854.449 2.618z"/><path fill="#EB7854" d="M15 43h4v11h-4z"/><path fill="#EB7854" d="M28 46.5v4H6v-4z"/><ellipse fill="#F2F2F2" cx="17" cy="27" rx="14.3158" ry="14"/><g transform="translate(7 17)"><circle fill="#292929" cx="10.08" cy="10.08" r="10.08"/><circle fill="#F2F2F2" cx="10.08" cy="10.08" r="8.96"/><path fill="#292929" d="M1.9673 9.0609l1.807-1.5433.4418-2.3518-1.6345-.0622L1.0878 7.691zm16.243 0l-1.807-1.5433-.4418-2.3518 1.6346-.0622 1.4937 2.5873zM7.2888 8.7065l2.789-1.9755 2.811 1.9755-.9505 3.6025H8.2185zm5.0488-6.1398l-2.24.7933L7.84 2.5667 8.6034 1.12h2.9876zM3.1297 13.8589l2.1448 1.023L6.31 17.0391l-1.5628.483-2.1125-2.1124zm13.9183 0l-2.145 1.023-1.0353 2.1573 1.5627.483 2.1126-2.1124z"/></g><path d="M15.8524 22.3955c4.001-1.0721 6.575-1.0522 5.3076-5.782-1.2673-4.7299-9.801-9.2561-11.247-7.7016-1.446 1.5545-.8363 4.909-1.446 10.7347-.6098 5.8256 3.3844 3.821 7.3854 2.7489z" fill="#E7D253"/></g></g></svg>