<?xml version="1.0" encoding="UTF-8"?><svg width="500" height="500" viewBox="0 0 500 500" xmlns="http://www.w3.org/2000/svg"><g fill="none" fill-rule="evenodd"><path d="M0 0h500v500H0z"/><path fill="#A22015" d="M203.0033 109.223h93.6432V21.928h-93.6432z"/><path fill="#D3D0CF" d="M202.8636 32.228h93.4586v-14.2h-93.4586z"/><path d="M87.5475 75.2585s-40.7627 72.8-58.5475 127.77c4.445 13.375 45.2077 40.86 85.2322 37.885 13.3398-36.4 24.4596-52 24.4596-52s2.9633-95.085-51.1443-113.655m323.9252 0s40.7628 72.8 58.5475 127.77c-4.445 13.375-45.2077 40.86-85.2321 37.885-13.3399-36.4-24.4597-52-24.4597-52s-2.9633-95.085 51.1443-113.655" fill="#D32D1F"/><path d="M249.5111 57.7025c-50.0817 0-47.7981-39.469-48.7426-39.14-7.5158 2.6187-24.1326 14.9368-52.4385 25.495-31.8729 11.885-52.626 19.315-60.7825 31.2 11.1149 8.915 46.6944 28.97 46.6944 120.345v271.14s49.6576 14.855 114.885 14.855c68.9291 0 115.6484-14.855 115.6484-14.855v-271.14c0-91.375 35.5795-111.43 46.6994-120.345-8.1566-11.885-28.9096-19.315-60.7825-31.2-28.3599-10.5767-44.9818-22.9194-52.478-25.5106-.9273-.3184 4.1773 39.1556-48.703 39.1556z" fill="#D32D1F"/><path d="M61.0869 229.5163C43.8799 221.1401 31.3527 210.1078 29 203.0285c1.7405-5.3797 3.7011-10.9301 5.822-16.5664 7.0105 11.8335 17.9025 21.7985 32.6759 29.8948l-6.411 13.1594zm376.8105-.0047l-6.411-13.1594c14.7734-8.0964 25.6654-18.0613 32.6759-29.8948 2.1209 5.6362 4.0815 11.1867 5.822 16.5663-2.3527 7.0794-14.88 18.1116-32.0869 26.4879z" fill="#F2F2F2"/><path d="M307.8516 23.345c-5.772-3.24-9.728-5.345-12.0078-5.345 0 0 5.8817 32.495-46.3352 32.495-48.5202 0-46.3352-32.495-46.3352-32.495-2.2798 0-6.2358 2.105-12.0028 5.345 0 0 7.3683 40.38 58.4029 40.38 51.4785 0 58.2781-35.895 58.2781-40.38z" fill="#E6AB5D"/><path fill="#C9954F" d="M202.8666 32.198h93.4586v-7h-93.4586z"/><path d="M195.0901 21.2077c3.6892-1.9817 6.3654-3.1812 8.0863-3.1812 0 0-2.185 32.495 46.3352 32.495 52.2169 0 46.3352-32.495 46.3352-32.495 1.785 0 4.5974 1.2903 8.5043 3.4054-7.1745 24.4805-25.3489 36.7207-54.5232 36.7207-29.2633 0-47.5092-12.315-54.7378-36.9449z" fill="#F2F2F2"/><path d="M413.5843 238.3227c-9.2877 2.2382-19.0646 3.3161-28.7978 2.5926-8.1978-22.369-15.5572-36.883-20.0128-44.7484v270.5774s-21.1022 6.7098-55.8664 11.1104c-.1817-.0197-.363-.0396-.544-.0597 1.8808-54.795 5.7221-166.47 8.2763-240.705 2.0554-59.755 31.0847-95.29 60.099-117.44-2.6753 6.7806-5.0714 14.6063-6.9991 23.6673 7.354 11.8514 24.4358 42.0687 43.8307 94.964.005.014.0097.0277.014.0414zM190.7166 477.7953c-34.2478-4.4014-56.4763-11.051-56.4763-11.051V196.1721c-4.4558 7.8668-11.8138 22.3792-20.0097 44.7432-9.633.716-19.3087-.3323-28.5106-2.5238a1.113 1.113 0 01.0199-.0967c19.3773-52.8475 36.3054-83.0661 43.6098-94.9437-1.929-9.0753-4.3277-16.912-7.0064-23.7011 29.0144 22.15 58.0437 57.685 60.099 117.44 2.5543 74.235 6.3956 185.91 8.2763 240.7053h-.002z" fill-opacity=".1" fill="#000"/><g transform="translate(287 121)"><circle fill="#303030" cx="22" cy="22" r="22"/><circle fill="#FFF" cx="22" cy="22" r="21"/><circle fill="#FEA7A3" cx="22" cy="22" r="19"/><circle fill="#FFF" cx="22" cy="22" r="16"/><circle fill="#FDE073" cx="22" cy="22" r="14"/><path fill="#BC9B6C" opacity=".4961" d="M22 29l-8.229 4.3262 1.5716-9.163-6.6574-6.4894 9.2003-1.337L22 8l4.1145 8.3369 9.2003 1.3369-6.6574 6.4893 1.5716 9.1631z"/><circle fill="#62B7F4" cx="22" cy="22" r="8"/><path d="M17.5 16.875c1.6107.649 3.1107.649 4.5 0 1.642.628 3.142.628 4.5 0v3.478c0 3.1506-1.5 5.7413-4.5 7.772-3-2.036-4.5-4.6267-4.5-7.772v-3.478z" fill="#F14B47"/><path d="M17.5 16.875c1.6107.649 3.1107.649 4.5 0 1.642.628 3.142.628 4.5 0v3.478h-9v-3.478z" fill="#FFF"/></g></g></svg>