<?xml version="1.0" encoding="UTF-8"?><svg width="500" height="500" viewBox="0 0 500 500" xmlns="http://www.w3.org/2000/svg"><g fill="none" fill-rule="evenodd"><path d="M0 0h500v500H0z"/><path fill="#CFD5D1" d="M203.0033 109.223h93.6432V21.928h-93.6432z"/><path fill="#276A3B" d="M202.8636 32.228h93.4586v-14.2h-93.4586z"/><path d="M87.5475 75.2585s-40.7627 72.8-58.5475 127.77c4.445 13.375 45.2077 40.86 85.2322 37.885 13.3398-36.4 24.4596-52 24.4596-52s2.9633-95.085-51.1443-113.655m323.9252 0s40.7628 72.8 58.5475 127.77c-4.445 13.375-45.2077 40.86-85.2321 37.885-13.3399-36.4-24.4597-52-24.4597-52s-2.9633-95.085 51.1443-113.655" fill="#EEF4EF"/><path d="M249.5111 57.7025c-50.0817 0-47.7981-39.469-48.7426-39.14-7.5158 2.6187-24.1326 14.9368-52.4385 25.495-31.8729 11.885-52.626 19.315-60.7825 31.2 11.1149 8.915 46.6944 28.97 46.6944 120.345v271.14s49.6576 14.855 114.885 14.855c68.9291 0 115.6484-14.855 115.6484-14.855v-271.14c0-91.375 35.5795-111.43 46.6994-120.345-8.1566-11.885-28.9096-19.315-60.7825-31.2-28.3599-10.5767-44.9818-22.9194-52.478-25.5106-.9273-.3184 4.1773 39.1556-48.703 39.1556z" fill="#EEF4EF"/><path d="M467.3529 195.129c.9359 2.6665 1.8272 5.303 2.6673 7.8995-4.445 13.375-45.2077 40.86-85.2321 37.885a426.4238 426.4238 0 00-2.8354-7.5198c20.795-1.3576 37.9932-5.6366 51.5944-12.8371 13.4282-7.109 24.6968-15.5848 33.8058-25.4277zm-435.6982.036c9.1031 9.8275 20.3606 18.2914 33.7724 25.3916 13.611 7.2056 30.824 11.4856 51.6393 12.84a426.4196 426.4196 0 00-2.8342 7.5169c-40.0245 2.975-80.7873-24.51-85.2322-37.885.8363-2.5849 1.7234-5.2092 2.6547-7.8635zm276.1969-171.82c-5.772-3.24-9.728-5.345-12.0078-5.345 0 0 5.8817 32.495-46.3352 32.495-48.5202 0-46.3352-32.495-46.3352-32.495-2.2798 0-6.2358 2.105-12.0028 5.345 0 0 7.3683 40.38 58.4029 40.38 51.4785 0 58.2781-35.895 58.2781-40.38z" fill="#33844B"/><path d="M413.5843 238.3227c-9.2877 2.2382-19.0646 3.3161-28.7978 2.5926-8.1978-22.369-15.5572-36.883-20.0128-44.7484v270.5774s-21.1022 6.7098-55.8664 11.1104c-.1817-.0197-.363-.0396-.544-.0597 1.8808-54.795 5.7221-166.47 8.2763-240.705 2.0554-59.755 31.0847-95.29 60.099-117.44-2.6753 6.7806-5.0714 14.6063-6.9991 23.6673 7.354 11.8514 24.4358 42.0687 43.8307 94.964.005.014.0097.0277.014.0414zM190.7166 477.7953c-34.2478-4.4014-56.4763-11.051-56.4763-11.051V196.1721c-4.4558 7.8668-11.8138 22.3792-20.0097 44.7432-9.633.716-19.3087-.3323-28.5106-2.5238a1.113 1.113 0 01.0199-.0967c19.3773-52.8475 36.3054-83.0661 43.6098-94.9437-1.929-9.0753-4.3277-16.912-7.0064-23.7011 29.0144 22.15 58.0437 57.685 60.099 117.44 2.5543 74.235 6.3956 185.91 8.2763 240.7053h-.002z" fill-opacity=".07" fill="#000"/><circle fill="#13572C" cx="309" cy="143" r="22"/><circle fill="#D5D5D5" cx="309" cy="143" r="20"/><circle fill="#13572C" cx="309" cy="143" r="18"/><path d="M306 129c1.9293 0 4.4708.0841 5.9328.5923 1.7916.6228 2.1162 1.3844 2.7497 3.3343.8446 1.5535.9479 1.6615 2.3004 2.565.4683.3128.881 2.3813.2321 3.0186-.1015-.5656-.8398-1.069-2.215-1.5102-6.0751 0-11 4.9249-11 11s4.9249 11 11 11c.7587 0 1.4995-.0768 2.215-.2231-.23.202-.4654.3978-.706.5873C314.223 160.4143 311.68 161 309 161c-9.9411 0-18-8.0589-18-18 0-2.68.5857-5.2231 1.636-7.5085C295.7491 131.5382 300.5782 129 306 129z" fill="#D8D8D8" opacity=".5"/><path d="M309.5502 132.0503c.8955.1419 1.6323-.6162.7015-.7636l-3.1615-.5007c.197.3892.5696.6272 1.1177.714.8221.1302.8894.4786 1.3423.5503z" fill="#13572C"/></g></svg>