<svg xmlns="http://www.w3.org/2000/svg" width="500" height="500" fill="none" viewBox="0 0 500 500"><g clip-path="url(#clip0_6058_447)"><path fill="#003266" fill-rule="evenodd" d="M203.09 109.2h93.64V21.9h-93.64v87.3Z" clip-rule="evenodd"/><path fill="#004791" fill-rule="evenodd" d="M202.95 32.2h93.45V18h-93.45v14.2Z" clip-rule="evenodd"/><path fill="#0050A2" fill-rule="evenodd" d="M87.55 75.26S46.78 148.06 29 203.03c4.44 13.38 45.2 40.86 85.23 37.88 13.34-36.4 24.46-52 24.46-52s2.97-95.08-51.14-113.65M411.47 75.26s40.77 72.8 58.55 127.77c-4.44 13.38-45.2 40.86-85.23 37.88-13.34-36.4-24.46-52-24.46-52s-2.96-95.08 51.14-113.65" clip-rule="evenodd"/><path fill="#0050A2" fill-rule="evenodd" d="M249.51 57.7c-50.08 0-47.8-39.46-48.74-39.13-7.52 2.61-24.13 14.93-52.44 25.5-31.87 11.88-52.62 19.3-60.78 31.2 11.11 8.9 46.7 28.96 46.7 120.34v271.14s49.65 14.85 114.88 14.85c68.93 0 115.65-14.85 115.65-14.85V195.6c0-91.38 35.58-111.43 46.7-120.35-8.16-11.88-28.91-19.31-60.79-31.2-28.36-10.58-44.98-22.92-52.47-25.5-.93-.33 4.17 39.15-48.7 39.15Z" clip-rule="evenodd"/><path fill="#CC0B0B" fill-rule="evenodd" d="M277 52.64c23.41-10.63 20.5-34.37 21.22-34.12 6.6 2.28 20.26 12.11 42.78 21.65v432.38a452.19 452.19 0 0 1-64 8.2V52.65Zm-54 428.15a470.29 470.29 0 0 1-64-8.22V39.75c21.9-9.38 35.25-18.95 41.77-21.22.73-.25-.47 23.38 22.23 34.04v428.22Z" clip-rule="evenodd"/><path fill="#0050A2" fill-rule="evenodd" d="M249.66 63.75c51.47 0 58.27-35.9 58.27-40.38-5.77-3.24-9.72-5.34-12-5.34 0 0 5.88 32.5-46.34 32.5-48.52 0-46.33-32.5-46.33-32.5-2.28 0-6.24 2.1-12 5.34 0 0 7.36 40.38 58.4 40.38" clip-rule="evenodd"/><path fill="#DFC773" fill-rule="evenodd" d="m309 167.2-.84-.38c-7.07-3.26-21.3-15.2-24.14-37.57l-.16-1.25 1.06-.69c4-2.55 13.17-7.78 23.98-8.3l.1-.01h.1c10.8.53 19.98 5.76 23.98 8.31l1.06.69-.16 1.25c-2.83 22.36-17.07 34.31-24.15 37.57l-.83.38ZM286 129c2.74 21.6 16.48 33 23 36 6.52-3 20.26-14.4 23-36-3.92-2.5-12.72-7.5-23-8-10.28.5-19.08 5.5-23 8Z" clip-rule="evenodd"/><path fill="#F2F2F2" d="M309 165c-6.52-3-20.26-14.4-23-36 3.92-2.5 12.72-7.5 23-8 10.28.5 19.08 5.5 23 8-2.74 21.6-16.48 33-23 36Z"/><path fill="#0050A2" fill-rule="evenodd" d="m326.19 139.09-24.73 16.26c-4.92-5-10.02-13.08-11.46-24.62 3.23-2.1 10.51-6.31 19-6.73 8.49.42 15.77 4.63 19 6.73-.38 3.02-1 5.8-1.81 8.36Z" clip-rule="evenodd"/><path fill="#CC0B0B" fill-rule="evenodd" d="m317.19 125.53-24.48 16.1a45.86 45.86 0 0 1-2.71-10.9c3.23-2.1 10.51-6.31 19-6.73 2.9.14 5.68.73 8.19 1.53Z" clip-rule="evenodd"/><path fill="#000" fill-opacity=".1" fill-rule="evenodd" d="M413.58 238.32a93.76 93.76 0 0 1-28.8 2.6c-8.2-22.37-15.55-36.89-20-44.75v270.57s-21.1 6.71-55.87 11.12c-.18-.03-.37-.05-.55-.06l8.28-240.71c2.06-59.75 31.08-95.29 60.1-117.44a148.59 148.59 0 0 0-7 23.67c7.35 11.85 24.44 42.07 43.83 94.96l.01.04ZM190.72 477.8c-34.25-4.4-56.48-11.06-56.48-11.06V196.17c-4.46 7.87-11.81 22.38-20 44.75a93.6 93.6 0 0 1-28.52-2.53l.02-.1c19.38-52.84 36.3-83.06 43.61-94.94a148.63 148.63 0 0 0-7-23.7c29 22.15 58.04 57.69 60.1 117.44l8.27 240.7Z" clip-rule="evenodd"/></g><defs><clipPath id="clip0_6058_447"><path fill="#fff" d="M0 0h500v500H0z"/></clipPath></defs></svg>