<?xml version="1.0" encoding="UTF-8"?><svg width="500" height="500" viewBox="0 0 500 500" fill="none" xmlns="http://www.w3.org/2000/svg"><path fill-rule="evenodd" clip-rule="evenodd" d="M203.003 109.223h93.643V21.928h-93.643v87.295z" fill="#256FB4"/><path fill-rule="evenodd" clip-rule="evenodd" d="M202.864 32.2281h93.458v-14.2h-93.458v14.2z" fill="#E0E0E0"/><path fill-rule="evenodd" clip-rule="evenodd" d="M87.5475 75.2585S46.7848 148.059 29 203.029c4.4449 13.375 45.2077 40.86 85.232 37.885 13.34-36.4 24.46-52 24.46-52s2.963-95.0855-51.1445-113.6555zM411.473 75.2585s40.763 72.8005 58.547 127.7705c-4.445 13.375-45.207 40.86-85.232 37.885-13.34-36.4-24.46-52-24.46-52s-2.963-95.0855 51.145-113.6555z" fill="#2D87DA"/><path fill-rule="evenodd" clip-rule="evenodd" d="M249.511 57.7025c-50.082 0-47.798-39.4691-48.743-39.14-7.515 2.6187-24.132 14.9368-52.438 25.495-31.873 11.885-52.626 19.315-60.7825 31.2 11.1148 8.915 46.6945 28.9695 46.6945 120.3445v271.14s49.657 14.856 114.885 14.856c68.929 0 115.648-14.856 115.648-14.856v-271.14c0-91.375 35.58-111.4295 46.7-120.3445-8.157-11.885-28.91-19.315-60.783-31.2-28.36-10.5767-44.982-22.9195-52.478-25.5087-.927-.3203 4.177 39.1537-48.703 39.1537z" fill="#2D87DA"/><path fill-rule="evenodd" clip-rule="evenodd" d="M307.852 23.345C302.08 20.105 298.124 18 295.844 18c0 0 5.882 32.495-46.335 32.495-48.521 0-46.336-32.495-46.336-32.495-2.279 0-6.235 2.105-12.002 5.345 0 0 7.368 40.38 58.403 40.38 51.478 0 58.278-35.895 58.278-40.38z" fill="#F2F2F2"/><path fill-rule="evenodd" clip-rule="evenodd" d="M413.584 238.323c-9.287 2.238-19.064 3.316-28.798 2.592-8.197-22.369-15.557-36.883-20.012-44.748v270.577s-21.102 6.71-55.867 11.111l-.544-.06c1.881-54.795 5.722-166.47 8.277-240.705 2.055-59.755 31.084-95.29 60.099-117.44-2.676 6.781-5.072 14.606-7 23.667 7.354 11.852 24.436 42.069 43.831 94.964.005.014.01.028.014.042zM190.717 477.795c-34.248-4.401-56.477-11.051-56.477-11.051V196.172c-4.456 7.867-11.813 22.379-20.009 44.743-9.633.716-19.3091-.332-28.511-2.524a1.056 1.056 0 01.0199-.096c19.3771-52.848 36.3051-83.066 43.6101-94.944-1.929-9.075-4.328-16.912-7.007-23.701 29.015 22.15 58.044 57.685 60.099 117.44 2.555 74.235 6.396 185.91 8.277 240.705h-.002z" fill="#000" fill-opacity=".06"/><path fill-rule="evenodd" clip-rule="evenodd" d="M291 122h15.558v7.933h-2.374v18.219c0 1.986.515 3.142 1.237 3.814.778.708 2.008 1.18 3.937 1.18 2.054 0 3.286-.497 4.01-1.197.715-.69 1.215-1.849 1.215-3.797v-18.219h-2.347V122h15.557v7.933h-2.373v18.219c0 3.112-.734 5.877-2.28 8.215l-.003.006c-1.525 2.287-3.639 4.016-6.283 5.195l-.005.003c-1.167.515-2.189.963-3.341 1.264-1.176.306-2.425.445-4.098.445-1.704 0-2.977-.136-4.173-.435-1.175-.294-2.215-.732-3.404-1.241l-.013-.006c-2.651-1.163-4.757-2.89-6.251-5.191-1.511-2.326-2.221-5.106-2.221-8.255v-18.219H291V122z" fill="#174672"/><path d="M309.41 161.618c-3.221 0-4.524-.514-6.922-1.542-2.382-1.045-4.223-2.569-5.525-4.574-1.302-2.004-1.953-4.454-1.953-7.35v-19.881h-2.348v-4.609h12.234v4.609h-2.373v19.881c0 2.262.591 3.941 1.773 5.037 1.182 1.08 2.869 1.619 5.062 1.619 4.592 0 6.887-2.218 6.887-6.656v-19.881h-2.347v-4.609h12.233v4.609h-2.373v19.881c0 2.844-.668 5.277-2.004 7.299-1.337 2.004-3.195 3.537-5.577 4.6-2.364 1.045-3.615 1.567-6.767 1.567z" fill="#F2F2F2"/><path d="M293.348 148.175v-10l34.445-12.102v3.86h-2.373v6.974l-32.072 11.268z" fill="#174672"/></svg>