<?xml version="1.0" encoding="UTF-8"?><svg width="500" height="500" viewBox="0 0 500 500" xmlns="http://www.w3.org/2000/svg"><g fill="none" fill-rule="evenodd"><path d="M0 0h500v500H0z"/><path fill="#A2050E" d="M203.0033 109.223h93.6432V21.928h-93.6432z"/><path fill="#E0E0E0" d="M202.8636 32.228h93.4586v-14.2h-93.4586z"/><path d="M87.5475 75.2585s-40.7627 72.8-58.5475 127.77c4.445 13.375 45.2077 40.86 85.2322 37.885 13.3398-36.4 24.4596-52 24.4596-52s2.9633-95.085-51.1443-113.655m323.9252 0s40.7628 72.8 58.5475 127.77c-4.445 13.375-45.2077 40.86-85.2321 37.885-13.3399-36.4-24.4597-52-24.4597-52s-2.9633-95.085 51.1443-113.655" fill="#D0101A"/><path d="M249.5111 57.7025c-50.0817 0-47.7981-39.469-48.7426-39.14-7.5158 2.6187-24.1326 14.9368-52.4385 25.495-31.8729 11.885-52.626 19.315-60.7825 31.2 11.1149 8.915 46.6944 28.97 46.6944 120.345v271.14s49.6576 14.855 114.885 14.855c68.9291 0 115.6484-14.855 115.6484-14.855v-271.14c0-91.375 35.5795-111.43 46.6994-120.345-8.1566-11.885-28.9096-19.315-60.7825-31.2-28.3599-10.5767-44.9818-22.9194-52.478-25.5106-.9273-.3184 4.1773 39.1556-48.703 39.1556z" fill="#D0101A"/><path d="M174.4037 32.4004c6.7562-3.393 12.314-6.5264 16.7699-9.0289l2.1376 6.6309c-8.9005 5.1427-22.4569 13.3251-41.5948 20.7108-28.2116 10.8825-47.4053 18.03-56.4937 28.2824l-7.6098-3.9754C95.8152 63.191 116.5424 55.769 148.33 43.9157c10.1562-3.7883 18.8076-7.8032 26.0737-11.5153zm150.1027-.0568c7.289 3.728 15.9767 7.7645 26.1848 11.5721 31.7886 11.8536 52.5161 19.2757 60.7179 31.1057l-7.4944 4.1061c-9.0402-10.3232-28.2774-17.4851-56.6099-28.4143-18.71-7.2205-32.0852-15.2026-40.9908-20.3613l1.5406-6.9804c4.4326 2.489 9.9481 5.6005 16.6518 8.9721z" fill="#F1F1F1"/><path d="M307.8516 23.345c-5.772-3.24-9.728-5.345-12.0078-5.345 0 0 5.8817 32.495-46.3352 32.495-48.5202 0-46.3352-32.495-46.3352-32.495-2.2798 0-6.2358 2.105-12.0028 5.345 0 0 7.3683 40.38 58.4029 40.38 51.4785 0 58.2781-35.895 58.2781-40.38z" fill="#F1F1F1"/><path d="M413.5843 238.3227c-9.2877 2.2382-19.0646 3.3161-28.7978 2.5926-8.1978-22.369-15.5572-36.883-20.0128-44.7484v270.5774s-21.1022 6.7098-55.8664 11.1104c-.1817-.0197-.363-.0396-.544-.0597 1.8808-54.795 5.7221-166.47 8.2763-240.705 2.0554-59.755 31.0847-95.29 60.099-117.44-2.6753 6.7806-5.0714 14.6063-6.9991 23.6673 7.354 11.8514 24.4358 42.0687 43.8307 94.964.005.014.0097.0277.014.0414zM190.7166 477.7953c-34.2478-4.4014-56.4763-11.051-56.4763-11.051V196.1721c-4.4558 7.8668-11.8138 22.3792-20.0097 44.7432-9.633.716-19.3087-.3323-28.5106-2.5238a1.113 1.113 0 01.0199-.0967c19.3773-52.8475 36.3054-83.0661 43.6098-94.9437-1.929-9.0753-4.3277-16.912-7.0064-23.7011 29.0144 22.15 58.0437 57.685 60.099 117.44 2.5543 74.235 6.3956 185.91 8.2763 240.7053h-.002z" fill-opacity=".1" fill="#000"/><g transform="translate(291 120)"><path d="M18 46l-.0437-.1404C16.588 42.162 0 45.925 0 39.8478V0c7.836 2.4418 13.7533 2.4919 17.7516.15L18 0c3.9193 2.442 9.7566 2.4917 17.5127.1495L36 0v39.8478C36 46 19 42.0676 18 46z" fill="#740001"/><path d="M18 43.4444l-.0388-.1247C16.7448 40.0329 2 43.3777 2 37.9759V2.5556c6.9654 2.1705 12.2252 2.215 15.7792.1334L18 2.5556c3.4839 2.1706 8.6725 2.2148 15.5669.1328L34 2.5556v35.4203c0 5.4685-15.1111 1.9731-16 5.4685z" fill="#FFF"/><rect fill="#D06666" x="14" y="18" width="8" height="20" rx="3"/><path d="M24.5886 22.6745l-1.3797-2.4638 3.748-1.2758-2.3683 1.78.6215 1.0984 4.679-1.73-3.7929 3.1833.8606.9854 2.8487-1.4643-3.0963 2.8774-1.499-2.0077-16.4415 9.693a.6274.6274 0 01-.8638-.23.6428.6428 0 01.2353-.8737l16.4484-9.5722z" fill="#D06666"/><path fill="#B10000" opacity=".6" d="M5 8h26v6H5z"/></g></g></svg>