<svg xmlns="http://www.w3.org/2000/svg" width="501" height="501" fill="none"><path fill="#D3D0CF" fill-rule="evenodd" d="M203.56 109.64h93.64v-87.3h-93.64v87.3Z" clip-rule="evenodd"/><path fill="#E0E0E0" fill-rule="evenodd" d="M203.42 32.64h93.46v-14.2h-93.46v14.2Z" clip-rule="evenodd"/><path fill="#F2F2F2" fill-rule="evenodd" d="M88.1 75.67s-40.76 72.8-58.55 127.77c4.45 13.38 45.21 40.86 85.24 37.89 13.34-36.4 24.46-52 24.46-52S142.2 94.24 88.1 75.67Zm323.93 0s40.76 72.8 58.54 127.77c-4.44 13.38-45.2 40.86-85.23 37.89-13.34-36.4-24.46-52-24.46-52s-2.96-95.09 51.15-113.66Z" clip-rule="evenodd"/><path fill="#F2F2F2" fill-rule="evenodd" d="M250.06 58.12c-50.08 0-47.8-39.47-48.74-39.14-7.51 2.62-24.13 14.93-52.44 25.5-31.87 11.88-52.62 19.3-60.78 31.2 11.12 8.9 46.7 28.96 46.7 120.34v271.14S184.45 482 249.68 482c68.93 0 115.65-14.85 115.65-14.85V196.02c0-91.38 35.58-111.43 46.7-120.35-8.16-11.88-28.91-19.31-60.78-31.2-28.36-10.57-44.99-22.92-52.48-25.5-.93-.33 4.18 39.15-48.7 39.15Z" clip-rule="evenodd"/><path fill="#242424" d="M133.44 101.11V50.62c3.9-1.47 8-3.37 12.33-4.99l3.11-1.16c18.3-6.82 31.7-14.38 40.93-19.58 5.06-2.85 8.85-4.99 11.51-5.91.12-.04.19.52.3 1.53.88 7.25 4.52 37.6 48.44 37.6 46.66 0 48.18-30.71 48.53-37.73.04-.94.07-1.45.18-1.42 2.66.92 6.47 3.07 11.54 5.93 9.23 5.2 22.64 12.76 40.94 19.58l3.12 1.16c4.68 1.75 9.12 3.4 13.3 5v50.48c-35.62 2.1-81.58 4.3-117.12 4.3-35.54 0-81.5-2.2-117.1-4.3Z"/><path fill="#F2F2F2" fill-rule="evenodd" d="M308.4 23.76c-5.77-3.24-9.72-5.35-12-5.35 0 0 5.88 32.5-46.34 32.5-48.52 0-46.33-32.5-46.33-32.5-2.28 0-6.24 2.11-12 5.35 0 0 7.36 40.38 58.4 40.38 51.48 0 58.28-35.9 58.28-40.38Z" clip-rule="evenodd"/><path fill="#000" fill-opacity=".06" fill-rule="evenodd" d="M414.14 238.74a93.79 93.79 0 0 1-28.8 2.6c-8.2-22.38-15.56-36.9-20.01-44.76v270.58s-21.1 6.7-55.87 11.11l-.54-.06 8.27-240.7c2.06-59.76 31.09-95.3 60.1-117.44a148.5 148.5 0 0 0-7 23.66c7.36 11.85 24.44 42.07 43.83 94.97l.02.04ZM191.27 478.2c-34.25-4.4-56.48-11.05-56.48-11.05V196.59c-4.45 7.86-11.8 22.38-20 44.74a93.6 93.6 0 0 1-28.52-2.52l.02-.1c19.38-52.85 36.3-83.07 43.61-94.94a148.65 148.65 0 0 0-7-23.7c29.01 22.15 58.04 57.68 60.1 117.44 2.55 74.23 6.4 185.9 8.27 240.7Z" clip-rule="evenodd"/><path fill="#242424" fill-rule="evenodd" d="M120.37 226.51c-1.85 4.5-3.78 9.43-5.75 14.82-40.02 2.97-80.79-24.51-85.23-37.89a375.65 375.65 0 0 1 5.88-16.72c10.27 10.96 22.74 19.79 37.41 26.49 14.66 6.68 30.56 11.12 47.69 13.3Zm259.23 0c17.12-2.18 33.02-6.62 47.68-13.3 14.67-6.7 27.14-15.53 37.41-26.5 2.15 5.7 4.13 11.3 5.88 16.73-4.44 13.38-45.2 40.87-85.23 37.89a409.28 409.28 0 0 0-5.75-14.82Z" clip-rule="evenodd"/><path fill="#242424" d="M296.02 124.04h27.3v26.2a13.65 13.65 0 0 1-27.3 0v-26.2Z"/><path fill="#F2F2F2" fill-rule="evenodd" d="M300.2 150.17a9.47 9.47 0 1 0 18.94 0h-4.39a5.08 5.08 0 1 1-10.17 0h-4.39Z" clip-rule="evenodd"/><path fill="#F2F2F2" fill-rule="evenodd" d="M300.2 150.17a9.47 9.47 0 1 0 18.94 0h-4.39a5.08 5.08 0 1 1-10.17 0h-4.39Z" clip-rule="evenodd"/><path fill="#F2F2F2" fill-rule="evenodd" d="M300.2 150.17a9.47 9.47 0 1 0 18.94 0h-4.39a5.08 5.08 0 1 1-10.17 0h-4.39Z" clip-rule="evenodd"/><path fill="#F2F2F2" d="M300.19 128.47h18.95v5.03h-18.95zm0 8.91h5.97v8.9h-5.97zm8.35 0h10.6v8.9h-10.6z"/></svg>