<?xml version="1.0" encoding="utf-8"?><svg width="500" height="500" viewBox="0 0 500 500" fill="none" xmlns="http://www.w3.org/2000/svg"><path fill-rule="evenodd" clip-rule="evenodd" d="M203.003 109.223h93.644V21.928h-93.644v87.295Z" fill="#163F8D"/><path fill-rule="evenodd" clip-rule="evenodd" d="M202.864 32.228h93.458v-14.2h-93.458v14.2Z" fill="#D9D9D9"/><path fill-rule="evenodd" clip-rule="evenodd" d="M87.547 75.258S46.785 148.06 29 203.03c4.445 13.375 45.208 40.86 85.232 37.885 13.34-36.4 24.46-52 24.46-52S141.655 93.83 87.547 75.26Zm323.925 0s40.763 72.801 58.548 127.771c-4.445 13.375-45.208 40.86-85.232 37.885-13.34-36.4-24.46-52-24.46-52s-2.963-95.085 51.144-113.655Z" fill="#2353AF"/><path fill-rule="evenodd" clip-rule="evenodd" d="M249.511 57.703c-50.082 0-47.798-39.47-48.743-39.14-7.516 2.618-24.132 14.936-52.438 25.494-31.873 11.886-52.626 19.316-60.783 31.2 11.115 8.915 46.695 28.97 46.695 120.345v271.14s49.657 14.856 114.885 14.856c68.929 0 115.648-14.856 115.648-14.856v-271.14c0-91.375 35.58-111.43 46.699-120.345-8.156-11.885-28.909-19.315-60.782-31.2-28.36-10.576-44.982-22.919-52.478-25.508-.927-.32 4.177 39.154-48.703 39.154Z" fill="#2353AF"/><path fill-rule="evenodd" clip-rule="evenodd" d="m191.173 23.372 2.137 6.63c-8.9 5.143-22.456 13.326-41.594 20.711-28.212 10.883-47.406 18.03-56.494 28.283l-7.608-3.975-.065.097c8.154-11.887 28.907-19.317 60.78-31.202 10.135-3.78 18.771-7.786 26.028-11.492 6.777-3.402 12.35-6.544 16.816-9.052Zm116.682 0c4.426 2.485 9.932 5.591 16.623 8.957 7.295 3.732 15.992 7.774 26.214 11.587 31.873 11.885 52.626 19.315 60.78 31.202l-.066-.094c-.422.23-2.918 1.598-7.491 4.104-9.04-10.324-28.277-17.486-56.61-28.415-18.71-7.22-32.085-15.202-40.991-20.361l1.541-6.98Zm159.498 171.757a339.495 339.495 0 0 1 2.667 7.899c-4.445 13.375-45.208 40.86-85.232 37.885a431.342 431.342 0 0 0-2.835-7.519c20.795-1.358 37.993-5.637 51.594-12.837 13.428-7.109 24.697-15.585 33.806-25.428Zm-435.698.036c9.103 9.828 20.36 18.291 33.772 25.392 13.611 7.205 30.824 11.485 51.639 12.84a420.297 420.297 0 0 0-2.834 7.517c-40.024 2.975-80.787-24.51-85.232-37.885.836-2.585 1.723-5.21 2.655-7.864Z" fill="#F2F2F2"/><path fill-rule="evenodd" clip-rule="evenodd" d="M307.851 23.345c-5.772-3.24-9.728-5.345-12.007-5.345 0 0 5.881 32.495-46.336 32.495-48.52 0-46.335-32.495-46.335-32.495-2.28 0-6.236 2.105-12.003 5.345 0 0 7.369 40.38 58.403 40.38 51.479 0 58.278-35.895 58.278-40.38Z" fill="#2353AF"/><path fill-rule="evenodd" clip-rule="evenodd" d="M413.584 238.323c-9.287 2.238-19.064 3.316-28.797 2.592-8.198-22.369-15.558-36.883-20.013-44.748v270.577s-21.102 6.71-55.866 11.111l-.544-.06c1.88-54.795 5.722-166.47 8.276-240.705 2.055-59.755 31.085-95.29 60.099-117.44-2.675 6.781-5.072 14.606-6.999 23.667 7.354 11.852 24.435 42.069 43.83 94.964l.014.042ZM190.717 477.795c-34.248-4.401-56.476-11.051-56.476-11.051V196.172c-4.456 7.867-11.814 22.379-20.01 44.743-9.633.716-19.309-.332-28.51-2.523a.557.557 0 0 1 .02-.097c19.376-52.848 36.305-83.066 43.609-94.944-1.929-9.075-4.328-16.912-7.006-23.701 29.014 22.15 58.043 57.685 60.099 117.44 2.554 74.235 6.395 185.91 8.276 240.705h-.002Z" fill="#000" fill-opacity=".1"/><path d="M289.588 137.331C294.802 132.852 300.449 128 309 128c8.551 0 14.198 4.852 19.412 9.331 2.857 2.454 5.584 4.797 8.588 6.169-3.004 1.372-5.731 3.715-8.588 6.169C323.198 154.148 317.551 159 309 159c-8.551 0-14.198-4.852-19.412-9.331-2.857-2.454-5.584-4.797-8.588-6.169 3.004-1.372 5.731-3.715 8.588-6.169Z" fill="#F2F2F2"/><path d="M291.668 138.127C296.323 134.226 301.365 130 309 130c7.635 0 12.677 4.226 17.332 8.127 2.551 2.138 4.986 4.178 7.668 5.373-2.682 1.195-5.117 3.235-7.668 5.373C321.677 152.774 316.635 157 309 157c-7.635 0-12.677-4.226-17.332-8.127-2.551-2.138-4.986-4.178-7.668-5.373 2.682-1.195 5.117-3.235 7.668-5.373Z" fill="#2353AF"/><path opacity=".6" fill="#F2F2F2" d="M302 150h14v4h-14z"/><rect opacity=".6" x="298" y="135" width="22" height="12" rx="2" fill="#F2F2F2"/></svg>