<svg xmlns="http://www.w3.org/2000/svg" width="500" height="500" fill="none" viewBox="0 0 500 500"><path fill="#D9D9D9" fill-rule="evenodd" d="M203.09 109.2h93.64V21.9h-93.64v87.3Z" clip-rule="evenodd"/><path fill="#AEAEAE" fill-rule="evenodd" d="M202.95 32.2h93.46V18h-93.46v14.2Z" clip-rule="evenodd"/><path fill="#F2F2F2" fill-rule="evenodd" d="M87.55 75.26S46.78 148.06 29 203.03c4.44 13.38 45.2 40.86 85.23 37.88 13.34-36.4 24.46-52 24.46-52s2.97-95.08-51.14-113.65M411.47 75.26s40.77 72.8 58.55 127.77c-4.44 13.38-45.2 40.86-85.23 37.88-13.34-36.4-24.46-52-24.46-52s-2.96-95.08 51.14-113.65" clip-rule="evenodd"/><path fill="#F2F2F2" fill-rule="evenodd" d="M249.51 57.7c-50.08 0-47.8-39.46-48.74-39.13-7.51 2.62-24.13 14.93-52.44 25.5-31.87 11.88-52.62 19.3-60.78 31.2 11.12 8.9 46.7 28.96 46.7 120.34v271.14s49.65 14.85 114.88 14.85c68.93 0 115.65-14.85 115.65-14.85V195.6c0-91.38 35.58-111.43 46.7-120.35-8.16-11.88-28.91-19.31-60.79-31.2-28.35-10.58-44.98-22.92-52.47-25.5-.93-.33 4.17 39.15-48.7 39.15Z" clip-rule="evenodd"/><path fill="#D32228" d="M134.33 316.45v117.6L394.4 61.78c-10.07-5.25-23.65-10.3-40.5-16.59l-3.12-1.16a242.02 242.02 0 0 1-20.14-8.57l-196.31 281ZM326.35 33.35 134.33 308.22v-16.6L317.86 28.91c2.6 1.41 5.43 2.9 8.5 4.44ZM398.55 64.08 134.33 442.29v16.7L406.39 69.57a53.93 53.93 0 0 0-7.84-5.49Z"/><path fill="#D32228" fill-rule="evenodd" d="M467.46 195.3c.94 2.67 1.83 5.3 2.67 7.9-4.45 13.38-45.21 40.86-85.23 37.89a434.6 434.6 0 0 0-2.84-7.52c20.8-1.36 38-5.64 51.6-12.84 13.42-7.1 24.7-15.58 33.8-25.43ZM31.65 195.3c9.1 9.83 20.37 18.3 33.78 25.4 13.6 7.2 30.82 11.48 51.64 12.83-.93 2.4-1.88 4.9-2.84 7.52-40.02 2.98-80.79-24.5-85.23-37.88.84-2.59 1.72-5.21 2.65-7.87Z" clip-rule="evenodd"/><path fill="#E8E8E8" fill-rule="evenodd" d="M249.66 63.75c51.47 0 58.28-35.9 58.28-40.38-5.78-3.24-9.73-5.34-12.01-5.34 0 0 5.88 32.5-46.34 32.5-48.52 0-46.33-32.5-46.33-32.5-2.28 0-6.24 2.1-12 5.34 0 0 7.36 40.38 58.4 40.38" clip-rule="evenodd"/><path fill="#fff" d="M323.54 125.09a10.68 10.68 0 0 1-4.45 1.8c-3.5.62-7.07-.18-10.3-1.54a19.06 19.06 0 0 1-7.73 1.72c-2.22 0-4.52-.6-6.24-2.07-2.33 3.82-3.96 8.22-3.81 12.75 0 4.44 1.84 9.01 5.4 11.73 2.9 2.34 6.5 3.53 9.46 5.76a9.32 9.32 0 0 1 2.95 3.76 8.62 8.62 0 0 1 3.72-4.26c3.05-1.9 6.54-3.08 9.25-5.5 3.38-3.05 5.12-7.67 5.2-12.18.15-4.23-1.2-8.42-3.45-11.97Z"/><circle cx="309.25" cy="137.29" r="21.71" fill="#F2F2F2"/><circle cx="309.25" cy="137.29" r="13.7" fill="#0259A6"/><path fill="#ABD5FB" fill-rule="evenodd" d="M309.25 144.59a10.46 10.46 0 0 0 10.38-11.82 11.42 11.42 0 1 1-20.76 0 10.46 10.46 0 0 0 10.38 11.81Z" clip-rule="evenodd"/><path fill="#D32228" fill-rule="evenodd" d="M309.25 156.67a19.38 19.38 0 1 0 0-38.76 19.38 19.38 0 0 0 0 38.76Zm0-1.5a17.89 17.89 0 1 0 0-35.77 17.89 17.89 0 0 0 0 35.78Z" clip-rule="evenodd"/><path fill="#FFC6C6" d="M302.67 126.05h13.16v7.9l-6.58 3.34-6.58-3.34v-7.9Z"/><path fill="#000" fill-opacity=".06" fill-rule="evenodd" d="M413.58 238.32a93.8 93.8 0 0 1-28.8 2.6c-8.2-22.37-15.55-36.89-20-44.75v270.57s-21.1 6.71-55.87 11.12c-.18-.03-.37-.04-.55-.06l8.28-240.71c2.06-59.75 31.09-95.29 60.1-117.44a148.7 148.7 0 0 0-7 23.67c7.35 11.85 24.44 42.07 43.83 94.96l.01.04ZM190.72 477.8c-34.25-4.4-56.48-11.06-56.48-11.06V196.18c-4.46 7.87-11.81 22.38-20 44.75-9.64.71-19.32-.34-28.52-2.53l.02-.1c19.38-52.84 36.3-83.06 43.61-94.94a148.62 148.62 0 0 0-7-23.7c29 22.15 58.04 57.69 60.1 117.44l8.27 240.7Z" clip-rule="evenodd"/><path fill="#D32228" d="M238.44 49.88a103.53 103.53 0 0 0 23.12 0L250 75.25l-11.56-25.38Z"/></svg>