<svg xmlns="http://www.w3.org/2000/svg" width="500" height="500" fill="none" viewBox="0 0 500 500"><path fill="#811211" fill-rule="evenodd" d="M203 109.22h93.65v-87.3H203v87.3Z" clip-rule="evenodd"/><path fill="#CACACA" fill-rule="evenodd" d="M202.86 32.23h93.46v-14.2h-93.46v14.2Z" clip-rule="evenodd"/><path fill="#BA1C1A" fill-rule="evenodd" d="M87.55 75.26S46.78 148.06 29 203.03c4.44 13.37 45.2 40.86 85.23 37.88 13.34-36.4 24.46-52 24.46-52s2.97-95.08-51.14-113.65M411.47 75.26s40.76 72.8 58.55 127.77c-4.44 13.37-45.2 40.86-85.23 37.88-13.34-36.4-24.46-52-24.46-52s-2.97-95.08 51.14-113.65" clip-rule="evenodd"/><path fill="#BA1C1A" fill-rule="evenodd" d="M249.51 57.7c-50.08 0-47.8-39.47-48.74-39.14-7.52 2.62-24.14 14.94-52.44 25.5-31.87 11.88-52.63 19.31-60.78 31.2 11.11 8.91 46.7 28.97 46.7 120.34v271.14s49.65 14.86 114.88 14.86c68.93 0 115.64-14.86 115.64-14.86V195.6c0-91.37 35.58-111.43 46.7-120.34-8.15-11.89-28.9-19.32-60.78-31.2-28.36-10.58-44.98-22.92-52.48-25.51-.92-.32 4.18 39.15-48.7 39.15Z" clip-rule="evenodd"/><path fill="#383838" fill-rule="evenodd" d="M270 55.2v425.95c-6.7.29-13.66.45-20.87.45-6.54 0-12.93-.15-19.13-.42V55.21c5.4 1.57 11.85 2.5 19.51 2.5 8.12 0 14.87-.93 20.5-2.5Zm39-25.94c16.97 7 30.48 10.83 40 19.9v421.7a414.81 414.81 0 0 1-40 6.99V29.25Zm-118-1.33v449.9a453.38 453.38 0 0 1-40-6.9V47.42c9.65-8.94 23.15-12.69 40-19.5Z" clip-rule="evenodd"/><path fill="#383838" fill-rule="evenodd" d="M174.4 32.4c6.76-3.4 12.32-6.53 16.77-9.03L197.31 36c-8.9 5.14-22.46 13.33-41.6 20.71-28.2 10.89-47.4 18.03-56.49 28.29l-11.6-9.98c8.2-11.83 28.92-19.25 60.71-31.1 10.16-3.8 18.8-7.8 26.07-11.52ZM324.5 32.34a245.75 245.75 0 0 0 26.19 11.58c31.79 11.85 52.52 19.27 60.72 31.1-.41.23-6.91 7.6-11.5 10.1-9.04-10.32-28.27-17.48-56.6-28.4-18.72-7.23-32.1-15.21-41-20.37l5.54-12.98c4.44 2.49 9.95 5.6 16.65 8.97Z" clip-rule="evenodd"/><path fill="#F0F0F0" fill-rule="evenodd" d="M307.85 23.34c-5.77-3.23-9.73-5.34-12-5.34 0 0 5.88 32.5-46.34 32.5-48.52 0-46.34-32.5-46.34-32.5-2.28 0-6.23 2.1-12 5.34 0 0 7.37 40.39 58.4 40.39 51.48 0 58.28-35.9 58.28-40.38Z" clip-rule="evenodd"/><path fill="#000" fill-opacity=".08" fill-rule="evenodd" d="M413.58 238.32a93.8 93.8 0 0 1-28.8 2.6c-8.2-22.37-15.55-36.89-20-44.75v270.57s-21.1 6.71-55.87 11.12c-.18-.03-.37-.04-.55-.06l8.28-240.71c2.06-59.75 31.09-95.29 60.1-117.44a148.7 148.7 0 0 0-7 23.67c7.35 11.85 24.44 42.07 43.83 94.96l.01.04ZM190.72 477.8c-34.25-4.4-56.48-11.06-56.48-11.06V196.18c-4.46 7.87-11.81 22.38-20 44.75-9.64.71-19.32-.34-28.52-2.53l.02-.1c19.38-52.84 36.3-83.06 43.61-94.94a148.62 148.62 0 0 0-7-23.7c29 22.15 58.04 57.69 60.1 117.44l8.27 240.7Z" clip-rule="evenodd"/><path fill="#F2F2F2" fill-rule="evenodd" d="M392.3 241.13a98.03 98.03 0 0 0 21.28-2.8v-.03l-.01-.02c-2.32-6.31-4.6-12.3-6.83-17.97 6.92-2.07 13.6-4.58 20.05-7.52 14.67-6.7 27.14-15.52 37.41-26.49 2.15 5.7 4.13 11.3 5.89 16.73-4.17 12.54-40.3 37.5-77.78 38.1ZM92.55 220.39a155.73 155.73 0 0 1-20.34-7.6c-14.68-6.7-27.15-15.52-37.42-26.49-2.14 5.7-4.12 11.3-5.88 16.73 4.18 12.6 40.56 37.7 78.2 38.1a97.7 97.7 0 0 1-21.38-2.74l.02-.1c2.3-6.28 4.57-12.25 6.8-17.9Z" clip-rule="evenodd"/><path fill="#3D3D3D" fill-rule="evenodd" d="M288.98 123.9s12.65.88 20.02-3.53c7.37 4.41 20.01 3.53 20.01 3.53v16.39c0 17.33-20.01 25.93-20.01 25.93s-20.02-8.6-20.02-25.93v-16.4Z" clip-rule="evenodd"/><path fill="#BA1C1A" fill-rule="evenodd" d="M294.7 123.89c-3.32.17-5.72 0-5.72 0v16.4c0 6.11 2.5 11.14 5.72 15.09v-31.5Zm11.44 40.87a45.66 45.66 0 0 1-5.72-3.83v-37.67a30.6 30.6 0 0 0 5.72-1.52v43.02Zm11.44-3.83a45.66 45.66 0 0 1-5.72 3.83v-43.02c1.82.7 3.78 1.19 5.72 1.52v37.67Zm5.72-37.04c3.31.17 5.71 0 5.71 0v16.4c0 6.11-2.49 11.14-5.71 15.09v-31.5Z" clip-rule="evenodd"/><path fill="#F0F0F0" stroke="#3D3D3D" d="M330.42 139.35a46.3 46.3 0 0 0-4.55-.94c-3.57-.57-9.07-1.13-16.87-1.13-7.8 0-13.3.56-16.87 1.13a46.38 46.38 0 0 0-4.55.94v-5.38l.71-.22c.73-.2 1.9-.48 3.57-.76 3.37-.55 8.82-1.11 17.14-1.11s13.77.56 17.14 1.11a34.05 34.05 0 0 1 4.28.98v5.38Z"/><path fill="#FFE76B" fill-rule="evenodd" d="M289.12 122H289.24l.38.02a54.83 54.83 0 0 0 6.45-.13c4.01-.33 8.65-1.18 11.95-3.16l.98-.58.98.58c3.3 1.98 7.94 2.83 11.95 3.16a54.83 54.83 0 0 0 6.93.1h.02l2.04-.13v18.43c0 9.46-5.47 16.42-10.67 20.9a46.74 46.74 0 0 1-10.23 6.67l-.19.08-.05.03h-.02l-.76-1.75s20.01-8.6 20.01-25.93v-16.4s-.71.06-1.9.08c-3.81.05-12.5-.24-18.11-3.6-5.62 3.36-14.3 3.65-18.1 3.6-1.2-.02-1.92-.07-1.92-.07v16.39c0 17.32 20.02 25.93 20.02 25.93l-.75 1.75h-.03l-.05-.03-.19-.08a31.62 31.62 0 0 1-3.06-1.6 46.74 46.74 0 0 1-7.17-5.06c-5.2-4.5-10.67-11.46-10.67-20.91v-18.43l2.04.14ZM309 166.22l.75 1.75-.75.33-.75-.33.75-1.75Z" clip-rule="evenodd"/><circle cx="309" cy="149.34" r="8.49" fill="#F0F0F0"/><path fill="#3D3D3D" d="M311.83 141.33a8.51 8.51 0 0 1 5.18 5.18h-5.18v-5.18ZM300.99 146.5a8.52 8.52 0 0 1 5.18-5.17v5.18h-5.18Z"/><path fill="#3D3D3D" d="M306.17 146.5h5.66v5.67h-5.66v-5.66ZM306.17 157.35v-5.18h-5.18a8.51 8.51 0 0 0 5.18 5.18ZM311.83 157.35v-5.18h5.18a8.51 8.51 0 0 1-5.18 5.18Z"/></svg>