<?xml version="1.0" encoding="UTF-8"?><svg width="500" height="500" viewBox="0 0 500 500" xmlns="http://www.w3.org/2000/svg"><g fill="none" fill-rule="evenodd"><path d="M0 0h500v500H0z"/><path fill="#ADADAD" d="M203.0033 109.223h93.6432V21.928h-93.6432z"/><path fill="#CDCDCD" d="M202.8636 32.228h93.4586v-14.2h-93.4586z"/><path d="M87.5475 75.2585s-40.7627 72.8-58.5475 127.77c4.445 13.375 45.2077 40.86 85.2322 37.885 13.3398-36.4 24.4596-52 24.4596-52s2.9633-95.085-51.1443-113.655m323.9252 0s40.7628 72.8 58.5475 127.77c-4.445 13.375-45.2077 40.86-85.2321 37.885-13.3399-36.4-24.4597-52-24.4597-52s-2.9633-95.085 51.1443-113.655" fill="#F2F2F2"/><path d="M249.5111 57.7025c-50.0817 0-47.7981-39.469-48.7426-39.14-7.5158 2.6187-24.1326 14.9368-52.4385 25.495-31.8729 11.885-52.626 19.315-60.7825 31.2 11.1149 8.915 46.6944 28.97 46.6944 120.345v271.14s49.6576 14.855 114.885 14.855c68.9291 0 115.6484-14.855 115.6484-14.855v-271.14c0-91.375 35.5795-111.43 46.6994-120.345-8.1566-11.885-28.9096-19.315-60.7825-31.2-28.3599-10.5767-44.9818-22.9194-52.478-25.5106-.9273-.3184 4.1773 39.1556-48.703 39.1556z" fill="#F2F2F2"/><path d="M225 467.998v12.906c-18.9549-1.0324-35.9675-3.1439-50-5.4296v-7.4764h50zm100 0v7.4937l-1.8552.2995-1.8918.297c-13.0526 2.0203-28.651 3.8335-46.253 4.7824V467.998h50zm-150-50v50h-36.0703l-2.1364-.5689-2.5484-.7166V417.998H175zm189.7745-.0005v48.716l-1.206.3656-1.6503.4764c-.4739.134-1.005.282-1.5924.4425H325v-50l39.7745-.0005zM275 417.998v50h-50v-50h50zm-50-50v50h-50v-50h50zm100 0v50h-50v-50h50zm-150-50v50h-40.7551v-50H175zm189.7745-.0005v50L325 367.998v-50l39.7745-.0005zM275 317.998v50h-50v-50h50zm-50-50v50h-50v-50h50zm100 0v50h-50v-50h50zm-150-50v50h-40.7551v-50H175zm189.7745-.0005v50L325 267.998v-50l39.7745-.0005zM275 217.998v50h-50v-50h50zm-50-50v50h-50v-50h50zm100 0v50h-50v-50h50zm50-50l-.001 6.0708c-4.0857 11.5928-7.3502 25.9757-9.0157 43.9285L325 167.998v-50h50zm-100 0v50h-50v-50h50zm-100 0v50l-41.966-.0007c-1.5297-16.4888-4.4082-29.9661-8.0328-41.0362L125 117.998h50zm229.3234-49.9985c2.977 2.2685 5.3659 4.6565 7.1513 7.258l-.4194.3326c-7.026 5.5182-22.5931 15.3122-33.7322 42.3815L375 117.998l-.0005-49.9985h29.324zm-168.2027-11.381l.5007.0856.658.1062.5584.0849.6751.0962.5506.0734.7782.0962.574.0654.6956.0731.6068.0584.7339.064.6028.0474.7962.0555.6177.0375.7482.0393.6537.0289.7812.028.672.0184.7758.015c.4658.007.9363.0106 1.4115.0106l.785-.003.8073-.0091.7236-.0137.9182-.025.704-.025.6966-.03.6846-.0346.836-.0493.6592-.0444.7433-.0562.665-.0559.7176-.0663.654-.066.7114-.0782.6212-.0736.7364-.094.6157-.0843.6534-.0954.5656-.0876.7916-.1306c1.7487-.2989 3.4078-.653 4.9815-1.0562l.913-.242.4649-.1297.672-.1952.4271-.129.6162-.1932.9394-.3109.5411-.1885.4775-.1722.4373-.1628.7317-.2833L275 67.998h50l-.0004-35.2605.0532.0271c.9433.4798 1.9097.9645 2.8995 1.453l.9979.4897 1.8714.9043 1.3312.6318 2.125.9887.7645.3498c.5598.255 1.1256.51 1.6976.7653l1.074.4762.849.372 1.244.5383c.7435.3192 1.4966.638 2.2596.9564l2.028.8354c.5803.236 1.1664.4716 1.7583.7068l1.656.651 2.2361.8564.8473.3178 9.4704 3.5319 3.6197 1.3583c3.957 1.4905 7.6977 2.9204 11.218 4.3132v14.7386L325 68v49.998h-50V68h-50v49.998h-50V68l-50.0005-.0005L125 117.998l-3.3096-.0363C110.3246 90.3476 94.3518 80.715 87.5475 75.2575c1.7854-2.6015 4.1743-4.9895 7.1513-7.2576l30.3007-.0004L125 52.8752c3.4184-1.3438 7.0395-2.7238 10.8598-4.1607l5.3111-1.9886 7.8375-2.9226 1.5456-.588.9864-.3816 1.598-.629.9282-.3715 1.2437-.5049.7233-.2973 1.1864-.4937 1.4196-.6005.8767-.3763 1.2438-.5408a243.8134 243.8134 0 004.393-1.9767 251.56 251.56 0 003.9552-1.8686l1.4143-.6885a263.881 263.881 0 002.1407-1.0623l.9337-.4709 1.4035-.7162L175 67.998h50l-.0027-14.5212.5586.2252.813.3127.4111.1516.4873.1743.4538.157.6042.2015.4333.1392.6131.1898.4546.1354.5564.1596.4984.1375.5578.1479.517.1314.648.1575c.4736.1121.954.2195 1.4417.322l.7812.159.5486.1053.7453.1349z" fill="#82CF59"/><path d="M413.5843 238.3227c-9.2877 2.2382-19.0646 3.3161-28.7978 2.5926-8.1978-22.369-15.5572-36.883-20.0128-44.7484v270.5774s-21.1022 6.7098-55.8664 11.1104c-.1817-.0197-.363-.0396-.544-.0597 1.8808-54.795 5.7221-166.47 8.2763-240.705 2.0554-59.755 31.0847-95.29 60.099-117.44-2.6753 6.7806-5.0714 14.6063-6.9991 23.6673 7.354 11.8514 24.4358 42.0687 43.8307 94.964.005.014.0097.0277.014.0414zM190.7166 477.7953c-34.2478-4.4014-56.4763-11.051-56.4763-11.051V196.1721c-4.4558 7.8668-11.8138 22.3792-20.0097 44.7432-9.633.716-19.3087-.3323-28.5106-2.5238a1.113 1.113 0 01.0199-.0967c19.3773-52.8475 36.3054-83.0661 43.6098-94.9437-1.929-9.0753-4.3277-16.912-7.0064-23.7011 29.0144 22.15 58.0437 57.685 60.099 117.44 2.5543 74.235 6.3956 185.91 8.2763 240.7053h-.002z" fill-opacity=".07" fill="#000"/><path d="M209.7338 36.3919a159.0736 159.0736 0 00-6.7061 1.6207c-3.4002-4.7584-6.046-10.36-7.9376-16.8049 3.6892-1.9817 6.3654-3.1812 8.0863-3.1812 0 0-.6456 9.601 6.5574 18.3654zm80.8275.2841c7.061-8.8397 5.2855-18.6495 5.2855-18.6495 1.785 0 4.5974 1.2903 8.5043 3.4054-1.8776 6.407-4.5088 11.9755-7.8933 16.7056a157.8645 157.8645 0 00-5.8965-1.4615z" fill="#3D3D3D"/><path d="M209.6408 36.2782c6.0225 7.4035 17.6102 14.2433 39.8708 14.2433 23.622 0 35.354-6.65 41.1197-13.9335l.0609-.0772 5.8572 1.4982c-9.5397 13.429-25.1135 20.1436-46.7215 20.1436-21.6295 0-37.24-6.728-46.8315-20.1838l6.6444-1.6906z" fill="#DEDEDE"/><path d="M291 131h36v22.7781c0 4.1846-3.2248 7.6622-7.3975 7.9773C312.5342 162.2893 309 163.7041 309 166c0-2.2959-3.5342-3.7107-10.6025-4.2446-4.1727-.3151-7.3975-3.7927-7.3975-7.9773V131z" fill="#292462"/><path d="M291 139h18v27c0-2.2959-3.5342-3.7107-10.6025-4.2446-4.1727-.3151-7.3975-3.7927-7.3975-7.9773V139zm2-6h32v4h-32z" fill="#F36F16"/><path d="M298 139h22v13.4752c0 2.6133-2.0125 4.7859-4.6182 4.9854C311.1273 157.7864 309 158.6329 309 160c0-1.3671-2.1273-2.2136-6.3818-2.5394-2.6057-.1995-4.6182-2.372-4.6182-4.9854V139z" fill="#FEFEFE"/><path d="M300 141h18v11.0141c0 1.601-1.2572 2.9199-2.8563 2.9966C311.0479 155.207 309 155.87 309 157c0-1.1299-2.0479-1.793-6.1437-1.9893-1.5991-.0767-2.8563-1.3956-2.8563-2.9966V141z" fill="#8C89AB"/><path fill="#292462" d="M309 127.5l-2.939 1.545.5614-3.2725-2.3777-2.3176 3.2858-.4774L309 120l1.4695 2.9775 3.2858.4774-2.3777 2.3176.5613 3.2726z"/><path fill="#F36F16" d="M309 127l-2.3511 1.236.449-2.618-1.9021-1.854 2.6286-.382L309 121l1.1756 2.382 2.6286.382-1.902 1.854.449 2.618z"/></g></svg>