<?xml version="1.0" encoding="UTF-8"?><svg width="500" height="500" viewBox="0 0 500 500" xmlns="http://www.w3.org/2000/svg"><g fill="none" fill-rule="evenodd"><path d="M0 0h500v500H0z"/><path fill="#C9C9C9" d="M203.0033 109.223h93.6432V21.928h-93.6432z"/><path fill="#2D2D2D" d="M202.8636 32.228h93.4586v-14.2h-93.4586z"/><path d="M87.5475 75.2585s-40.7627 72.8-58.5475 127.77c4.445 13.375 45.2077 40.86 85.2322 37.885 13.3398-36.4 24.4596-52 24.4596-52s2.9633-95.085-51.1443-113.655m323.9252 0s40.7628 72.8 58.5475 127.77c-4.445 13.375-45.2077 40.86-85.2321 37.885-13.3399-36.4-24.4597-52-24.4597-52s-2.9633-95.085 51.1443-113.655" fill="#F2F2F2"/><path d="M249.5111 57.7025c-50.0817 0-47.7981-39.469-48.7426-39.14-7.5158 2.6187-24.1326 14.9368-52.4385 25.495-31.8729 11.885-52.626 19.315-60.7825 31.2 11.1149 8.915 46.6944 28.97 46.6944 120.345v271.14s49.6576 14.855 114.885 14.855c68.9291 0 115.6484-14.855 115.6484-14.855v-271.14c0-91.375 35.5795-111.43 46.6994-120.345-8.1566-11.885-28.9096-19.315-60.7825-31.2-28.3599-10.5767-44.9818-22.9194-52.478-25.5106-.9273-.3184 4.1773 39.1556-48.703 39.1556z" fill="#F2F2F2"/><path d="M467.3529 195.129c.9359 2.6665 1.8272 5.303 2.6673 7.8995-4.445 13.375-45.2077 40.86-85.2321 37.885a426.4238 426.4238 0 00-2.8354-7.5198c20.795-1.3576 37.9932-5.6366 51.5944-12.8371 13.4282-7.109 24.6968-15.5848 33.8058-25.4277zm-435.6982.036c9.1031 9.8275 20.3606 18.2914 33.7724 25.3916 13.611 7.2056 30.824 11.4856 51.6393 12.84a426.4196 426.4196 0 00-2.8342 7.5169c-40.0245 2.975-80.7873-24.51-85.2322-37.885.8363-2.5849 1.7234-5.2092 2.6547-7.8635z" fill="#F2F2F2"/><path d="M68.7174 110.8365C79.3572 89.744 87.5475 75.1167 87.5475 75.1167v-.001c8.1566-11.885 28.9096-19.315 60.7825-31.2 28.0076-10.447 44.5711-22.6168 52.1978-25.409.1857.63.3103 3.3537 1.1305 7.0921-7.5185 3.0397-23.3367 14.847-49.942 25.1144-30.8102 11.885-50.8649 19.315-58.747 31.2 0 0-7.8124 14.495-17.9444 35.245l-6.3075-6.3217zm361.5864 0l-6.3075 6.3217c-10.132-20.75-17.9444-35.245-17.9444-35.245-7.8822-11.885-27.9368-19.315-58.747-31.2-26.6053-10.2674-42.4235-22.0747-49.942-25.1144.8202-3.7384.9447-6.4621 1.1304-7.092 7.6268 2.792 24.1903 14.962 52.1979 25.409 31.8728 11.885 52.6259 19.315 60.7824 31.2v.001s8.1904 14.6273 18.8302 35.7197z" fill="#393939"/><path d="M307.8516 23.345c-5.772-3.24-9.728-5.345-12.0078-5.345 0 0 5.8817 32.495-46.3352 32.495-48.5202 0-46.3352-32.495-46.3352-32.495-2.2798 0-6.2358 2.105-12.0028 5.345 0 0 7.3683 40.38 58.4029 40.38 51.4785 0 58.2781-35.895 58.2781-40.38z" fill="#393939"/><path d="M261 56.9716c10.919-1.4223 18.5954-4.8792 24-9.1685v432.4235a480.113 480.113 0 01-24 1.1942V56.9716zm48-32.9563c6.0467 3.4067 13.9756 7.9178 24 12.5938v437.4947c-7.0082 1.286-15.0506 2.5732-24 3.7079V24.0153zm-72 457.3829c-8.335-.2315-16.3611-.6893-24-1.305V45.8461c5.2587 4.9449 12.888 9.1032 24 10.8894v424.6626zm-48-3.8592c-8.9066-1.1777-16.9686-2.5007-24-3.807V37.085c9.945-4.5841 17.8787-9.041 24-12.4905V477.539z" fill="#3D3D3D"/><path d="M413.5843 238.3227c-9.2877 2.2382-19.0646 3.3161-28.7978 2.5926-8.1978-22.369-15.5572-36.883-20.0128-44.7484v270.5774s-21.1022 6.7098-55.8664 11.1104c-.1817-.0197-.363-.0396-.544-.0597 1.8808-54.795 5.7221-166.47 8.2763-240.705 2.0554-59.755 31.0847-95.29 60.099-117.44-2.6753 6.7806-5.0714 14.6063-6.9991 23.6673 7.354 11.8514 24.4358 42.0687 43.8307 94.964.005.014.0097.0277.014.0414zM190.7166 477.7953c-34.2478-4.4014-56.4763-11.051-56.4763-11.051V196.1721c-4.4558 7.8668-11.8138 22.3792-20.0097 44.7432-9.633.716-19.3087-.3323-28.5106-2.5238a1.113 1.113 0 01.0199-.0967c19.3773-52.8475 36.3054-83.0661 43.6098-94.9437-1.929-9.0753-4.3277-16.912-7.0064-23.7011 29.0144 22.15 58.0437 57.685 60.099 117.44 2.5543 74.235 6.3956 185.91 8.2763 240.7053h-.002z" fill-opacity=".08" fill="#000"/><g transform="translate(282 116)"><path d="M27 5.2338c5.8458 2.4432 10.4995 5.3956 13.961 8.8571 3.4615 3.4616 6.0632 7.7646 7.8052 12.9091-1.5389 4.9414-4.1844 9.2883-7.9367 13.0406C37.077 43.7929 32.4673 46.7014 27 48.7662c-4.8767-1.4742-9.2017-4.0978-12.9748-7.871-3.773-3.773-6.7035-8.4048-8.7914-13.8952 2.1448-5.5474 4.996-10.0998 8.5534-13.6573C17.3447 9.7852 21.749 7.0823 27 5.2338z" fill="#F2F2F2"/><path d="M27 7.525c5.2304 2.186 9.3942 4.8276 12.4914 7.9248C42.5886 18.5469 44.9164 22.397 46.475 27c-1.3769 4.4213-3.744 8.3106-7.1013 11.668-3.3573 3.3572-7.4819 5.9596-12.3737 7.807-4.3634-1.319-8.233-3.6664-11.609-7.0424C12.015 36.0567 9.393 31.9125 7.525 27c1.919-4.9635 4.47-9.0367 7.653-12.2197S22.3018 9.179 27 7.525z" fill="#000"/><circle fill="#F2F2F2" cx="27" cy="27" r="12"/><circle fill="#949494" cx="27" cy="27" r="10"/></g></g></svg>