<svg xmlns="http://www.w3.org/2000/svg" width="500" height="500" fill="none" viewBox="0 0 500 500"><path fill="#D9D9D9" fill-rule="evenodd" d="M203.37 109.22h93.64v-87.3h-93.64v87.3Z" clip-rule="evenodd"/><path fill="#101010" fill-rule="evenodd" d="M203.23 32.23h93.46v-14.2h-93.46v14.2Z" clip-rule="evenodd"/><path fill="#F2F2F2" fill-rule="evenodd" d="M87.91 75.26s-40.76 72.8-58.54 127.77c4.44 13.37 45.2 40.86 85.23 37.88 13.34-36.4 24.46-52 24.46-52s2.96-95.08-51.15-113.65M411.84 75.26s40.76 72.8 58.55 127.77c-4.45 13.37-45.21 40.86-85.24 37.88-13.33-36.4-24.45-52-24.45-52s-2.97-95.08 51.14-113.65" clip-rule="evenodd"/><path fill="#F2F2F2" fill-rule="evenodd" d="M249.88 57.7c-50.08 0-47.8-39.47-48.74-39.14-7.52 2.62-24.14 14.94-52.44 25.5-31.88 11.88-52.63 19.31-60.79 31.2 11.12 8.91 46.7 28.97 46.7 120.34v271.14s49.66 14.86 114.88 14.86c68.93 0 115.65-14.86 115.65-14.86V195.6c0-91.37 35.58-111.43 46.7-120.34-8.15-11.89-28.9-19.32-60.78-31.2-28.36-10.58-44.98-22.92-52.48-25.51-.93-.32 4.18 39.15-48.7 39.15Z" clip-rule="evenodd"/><path fill="#414141" fill-rule="evenodd" d="M369.45 97.92 134.6 450.28V342.7L320.49 66.93c21.76 6.98 38.4 18.02 48.96 30.99ZM467.83 195.3c.93 2.67 1.83 5.3 2.67 7.9-4.45 13.38-45.21 40.86-85.24 37.89a420.5 420.5 0 0 0-2.83-7.52c20.8-1.36 38-5.64 51.6-12.84 13.42-7.1 24.69-15.58 33.8-25.43ZM32.02 195.3c9.1 9.83 20.36 18.3 33.77 25.4 13.62 7.2 30.83 11.48 51.64 12.83-.93 2.4-1.87 4.9-2.83 7.52-40.03 2.97-80.79-24.51-85.23-37.89.83-2.58 1.72-5.2 2.65-7.86ZM308.22 23.34c-5.77-3.23-9.73-5.34-12-5.34 0 0 5.87 32.5-46.34 32.5-48.53 0-46.34-32.5-46.34-32.5-2.28 0-6.23 2.1-12 5.34 0 0 7.37 40.39 58.4 40.39 51.48 0 58.28-35.9 58.28-40.38Z" clip-rule="evenodd"/><path fill="#000" fill-opacity=".06" fill-rule="evenodd" d="M413.95 238.32a93.76 93.76 0 0 1-28.8 2.6c-8.2-22.37-15.55-36.89-20-44.75v270.57s-21.11 6.71-55.88 11.12l-.54-.06 8.28-240.71c2.05-59.75 31.08-95.29 60.1-117.44a148.7 148.7 0 0 0-7 23.67c7.35 11.85 24.43 42.07 43.83 94.96l.01.04ZM191.08 477.8c-34.24-4.4-56.47-11.06-56.47-11.06V196.17c-4.46 7.87-11.82 22.38-20.01 44.75a93.6 93.6 0 0 1-28.51-2.53c0-.03 0-.06.02-.1 19.38-52.84 36.3-83.06 43.6-94.94a148.74 148.74 0 0 0-7-23.7c29.02 22.15 58.04 57.69 60.1 117.44l8.28 240.7Z" clip-rule="evenodd"/></svg>