<svg xmlns="http://www.w3.org/2000/svg" width="500" height="500" fill="none" viewBox="0 0 500 500"><g clip-path="url(#clip0_6058_451)"><path fill="#05376A" fill-rule="evenodd" d="M203.09 109.2h93.64V21.9h-93.64v87.3Z" clip-rule="evenodd"/><path fill="#145395" fill-rule="evenodd" d="M202.95 32.2h93.45V18h-93.45v14.2Z" clip-rule="evenodd"/><path fill="#1760AC" fill-rule="evenodd" d="M87.55 75.26S46.78 148.06 29 203.03c4.44 13.38 45.2 40.86 85.23 37.88 13.34-36.4 24.46-52 24.46-52s2.97-95.08-51.14-113.65M411.47 75.26s40.77 72.8 58.55 127.77c-4.44 13.38-45.2 40.86-85.23 37.88-13.34-36.4-24.46-52-24.46-52s-2.96-95.08 51.14-113.65" clip-rule="evenodd"/><path fill="#1760AC" fill-rule="evenodd" d="M249.51 57.7c-50.08 0-47.8-39.46-48.74-39.13-7.52 2.61-24.13 14.93-52.44 25.5-31.87 11.88-52.62 19.3-60.78 31.2 11.11 8.9 46.7 28.96 46.7 120.34v271.14s49.65 14.85 114.88 14.85c68.93 0 115.65-14.85 115.65-14.85V195.6c0-91.38 35.58-111.43 46.7-120.35-8.16-11.88-28.91-19.31-60.79-31.2-28.36-10.58-44.98-22.92-52.47-25.5-.93-.33 4.17 39.15-48.7 39.15Z" clip-rule="evenodd"/><path fill="#083F78" fill-rule="evenodd" d="M293.73 37.26c45.26 11.34 71.5 39.34 71.5 67.98v72.91c-.3 5.5-.45 11.3-.45 17.42v271.14s-46.72 14.86-115.65 14.86c-65.23 0-114.88-14.86-114.88-14.86V195.57c0-6.26-.17-12.19-.49-17.8v-72.53c0-28.83 26.6-57.02 72.42-68.2 5.6 10.13 17.5 20.63 43.33 20.63 27.09 0 38.96-10.35 44.22-20.4Z" clip-rule="evenodd"/><path fill="#0C65C0" fill-rule="evenodd" d="M249.66 63.75c51.47 0 58.27-35.9 58.27-40.38-5.77-3.24-9.72-5.34-12-5.34 0 0 5.88 32.5-46.34 32.5-48.52 0-46.33-32.5-46.33-32.5-2.28 0-6.24 2.1-12 5.34 0 0 7.36 40.38 58.4 40.38" clip-rule="evenodd"/><path fill="#F4D73E" fill-rule="evenodd" d="M309 166a23 23 0 1 0 0-46 23 23 0 0 0 0 46Z" clip-rule="evenodd"/><path fill="#073F78" fill-rule="evenodd" d="m309.88 134.86 3.93-2.86.42.2c1.1.59 2.1 1.35 2.96 2.26l-1.5 4.62-.05.17a1.4 1.4 0 0 0 .56 1.38l3.93 2.86-.07.47c-.21 1.23-.63 2.41-1.22 3.5h-4.86l-.17.01a1.4 1.4 0 0 0-1.16.95l-1.5 4.63-.5.08c-1.23.17-2.47.14-3.67-.09l-1.5-4.62-.07-.15a1.4 1.4 0 0 0-1.26-.8h-4.86l-.21-.41c-.55-1.1-.92-2.3-1.08-3.57l3.93-2.86.14-.11a1.4 1.4 0 0 0 .37-1.44l-1.5-4.62.32-.34c.9-.87 1.92-1.59 3.05-2.12l3.93 2.86.15.1a1.4 1.4 0 0 0 1.5-.1Zm-.9 1.66c-.27.01-.52.1-.74.26l-3.97 2.9-.14.1a1.4 1.4 0 0 0-.37 1.45l1.52 4.67.06.16a1.4 1.4 0 0 0 1.27.8h5.07a1.38 1.38 0 0 0 1.17-.96l1.51-4.67.05-.17a1.39 1.39 0 0 0-.55-1.39l-3.98-2.89-.15-.1a1.4 1.4 0 0 0-.76-.16Z" clip-rule="evenodd"/><path fill="#073F78" d="M289.34 139.87a.96.96 0 0 0-1.21.81 21 21 0 1 0 41.75 0 .96.96 0 0 0-1.22-.8l-2.4.62c-.24.06-.4.3-.37.55a17 17 0 1 1-33.78 0 .51.51 0 0 0-.37-.55l-2.4-.63Z"/><path fill="#000" fill-opacity=".1" fill-rule="evenodd" d="M413.58 238.32a93.76 93.76 0 0 1-28.8 2.6c-8.2-22.37-15.55-36.89-20-44.75v270.57s-21.1 6.71-55.87 11.12c-.18-.03-.37-.05-.55-.06l8.28-240.71c2.06-59.75 31.08-95.29 60.1-117.44a148.59 148.59 0 0 0-7 23.67c7.35 11.85 24.44 42.07 43.83 94.96l.01.04ZM190.72 477.8c-34.25-4.4-56.48-11.06-56.48-11.06V196.17c-4.46 7.87-11.81 22.38-20 44.75a93.6 93.6 0 0 1-28.52-2.53l.02-.1c19.38-52.84 36.3-83.06 43.61-94.94a148.63 148.63 0 0 0-7-23.7c29 22.15 58.04 57.69 60.1 117.44l8.27 240.7Z" clip-rule="evenodd"/></g><defs><clipPath id="clip0_6058_451"><path fill="#fff" d="M0 0h500v500H0z"/></clipPath></defs></svg>