<svg xmlns="http://www.w3.org/2000/svg" width="500" height="500" fill="none" viewBox="0 0 500 500"><path fill="#CA2F2F" fill-rule="evenodd" d="M203 109.22h93.65v-87.3H203v87.3Z" clip-rule="evenodd"/><path fill="#292929" fill-rule="evenodd" d="M202.86 32.23h93.46v-14.2h-93.46v14.2Z" clip-rule="evenodd"/><path fill="#FFCB38" fill-rule="evenodd" d="M202.87 32.3h93.46v-7.1h-93.46v7.1Z" clip-rule="evenodd"/><path fill="#DF3636" fill-rule="evenodd" d="M87.55 75.26S46.78 148.06 29 203.03c4.44 13.37 45.2 40.86 85.23 37.88 13.34-36.4 24.46-52 24.46-52s2.97-95.08-51.14-113.65M411.47 75.26s40.76 72.8 58.55 127.77c-4.44 13.37-45.2 40.86-85.23 37.88-13.34-36.4-24.46-52-24.46-52s-2.96-95.08 51.14-113.65" clip-rule="evenodd"/><path fill="#DF3636" fill-rule="evenodd" d="M249.51 57.7c-50.08 0-47.8-39.47-48.74-39.14-7.52 2.62-24.13 14.94-52.44 25.5-31.87 11.88-52.63 19.31-60.78 31.2 11.11 8.91 46.7 28.97 46.7 120.34v271.14s49.65 14.86 114.88 14.86c68.93 0 115.64-14.86 115.64-14.86V195.6c0-91.37 35.59-111.43 46.7-120.34-8.15-11.89-28.9-19.32-60.78-31.2-28.36-10.58-44.98-22.92-52.48-25.51-.92-.32 4.18 39.15-48.7 39.15Z" clip-rule="evenodd"/><path fill="#3D3D3D" fill-rule="evenodd" d="M467.35 195.13c.94 2.67 1.83 5.3 2.67 7.9-4.44 13.37-45.2 40.86-85.23 37.88-.96-2.61-1.9-5.12-2.84-7.52 20.8-1.35 38-5.63 51.6-12.83 13.43-7.11 24.7-15.59 33.8-25.43ZM31.65 195.16c9.1 9.83 20.37 18.3 33.78 25.4 13.6 7.2 30.82 11.48 51.64 12.84-.93 2.4-1.88 4.9-2.84 7.51-40.02 2.98-80.79-24.5-85.23-37.88.84-2.59 1.72-5.21 2.65-7.87Z" clip-rule="evenodd"/><path fill="#FFCB38" fill-rule="evenodd" d="M380.81 230.5c-.75-1.9-1.5-3.73-2.22-5.5 17.06-.16 32.75-3.42 47.05-9.79 14.28-6.36 27.18-15.8 38.7-28.35a381.09 381.09 0 0 1 4.2 11.7l-.13.15c-11.32 12.1-23.95 21.25-37.89 27.46-14.45 6.44-30.3 9.7-47.57 9.8-.72-1.88-1.44-3.71-2.14-5.48Zm85.53-37.67-.37.4a134.84 134.84 0 0 1 .37-.4Zm-38.26 27.86Z" clip-rule="evenodd"/><path fill="#FFCB38" d="M120.43 225c-16.98-.18-32.6-3.45-46.83-9.79-14.35-6.39-27.3-15.89-38.87-28.51-.73 1.95-1.44 3.89-2.13 5.8 11.49 12.47 24.34 21.86 38.55 28.2 14.3 6.36 30 9.63 47.06 9.79.75-1.9 1.5-3.73 2.22-5.48Z"/><path fill="#FFCB38" d="M118.2 230.5c-17.06-.17-32.74-3.44-47.05-9.8-14.21-6.34-27.06-15.73-38.55-28.19-.71 1.98-1.4 3.94-2.06 5.9 11.39 12.25 24.11 21.5 38.17 27.76 14.4 6.4 30.18 9.68 47.37 9.8l1.28-3.33.85-2.15Z"/><path fill="#FFCB38" fill-rule="evenodd" d="M307.85 23.34c-5.77-3.23-9.73-5.34-12-5.34 0 0 5.88 32.5-46.34 32.5-48.52 0-46.34-32.5-46.34-32.5-2.28 0-6.23 2.1-12 5.34 0 0 7.37 40.39 58.4 40.39 51.48 0 58.28-35.9 58.28-40.38Z" clip-rule="evenodd"/><path fill="#3D3D3D" fill-rule="evenodd" d="M195.09 21.2c3.69-1.97 6.37-3.17 8.09-3.17 0 0-2.19 32.5 46.33 32.5 52.22 0 46.34-32.5 46.34-32.5 1.78 0 4.6 1.29 8.5 3.4-7.17 24.48-25.35 36.72-54.52 36.72-29.27 0-47.51-12.31-54.74-36.94Z" clip-rule="evenodd"/><path fill="#000" fill-opacity=".08" fill-rule="evenodd" d="M413.58 238.32a93.75 93.75 0 0 1-28.8 2.6c-8.2-22.37-15.55-36.89-20-44.75v270.57s-21.1 6.71-55.87 11.12c-.18-.03-.37-.05-.55-.06l8.28-240.71c2.06-59.75 31.09-95.29 60.1-117.44a148.59 148.59 0 0 0-7 23.67c7.35 11.85 24.44 42.07 43.83 94.96l.01.04ZM190.72 477.8c-34.25-4.4-56.48-11.06-56.48-11.06V196.17c-4.46 7.87-11.81 22.38-20 44.75a93.6 93.6 0 0 1-28.52-2.53l.02-.1c19.38-52.84 36.3-83.06 43.61-94.94a148.74 148.74 0 0 0-7-23.7c29 22.15 58.04 57.69 60.1 117.44l8.27 240.7Z" clip-rule="evenodd"/></svg>