<?xml version="1.0" encoding="UTF-8"?><svg width="500" height="500" viewBox="0 0 500 500" xmlns="http://www.w3.org/2000/svg"><g fill="none" fill-rule="evenodd"><path d="M0 0h500v500H0z"/><path fill="#BC141D" d="M203.0033 109.223h93.6432V21.928h-93.6432z"/><path fill="#D3D0CF" d="M202.8636 32.028h93.4586v-14h-93.4586z"/><path d="M87.5475 75.2585s-40.7627 72.8-58.5475 127.77c4.445 13.375 45.2077 40.86 85.2322 37.885 13.3398-36.4 24.4596-52 24.4596-52s2.9633-95.085-51.1443-113.655m323.9252 0s40.7628 72.8 58.5475 127.77c-4.445 13.375-45.2077 40.86-85.2321 37.885-13.3399-36.4-24.4597-52-24.4597-52s-2.9633-95.085 51.1443-113.655" fill="#DA222C"/><path d="M249.5111 57.7025c-50.0817 0-47.7981-39.469-48.7426-39.14-7.5158 2.6187-24.1326 14.9368-52.4385 25.495-31.8729 11.885-52.626 19.315-60.7825 31.2 11.1149 8.915 46.6944 28.97 46.6944 120.345v271.14s49.6576 14.855 114.885 14.855c68.9291 0 115.6484-14.855 115.6484-14.855v-271.14c0-91.375 35.5795-111.43 46.6994-120.345-8.1566-11.885-28.9096-19.315-60.7825-31.2-28.3599-10.5767-44.9818-22.9194-52.478-25.5106-.9273-.3184 4.1773 39.1556-48.703 39.1556z" fill="#DA222C"/><path d="M467.3529 195.129c.9359 2.6665 1.8272 5.303 2.6673 7.8995-4.445 13.375-45.2077 40.86-85.2321 37.885a426.4238 426.4238 0 00-2.8354-7.5198c20.795-1.3576 37.9932-5.6366 51.5944-12.8371 13.4282-7.109 24.6968-15.5848 33.8058-25.4277zm-435.6982.036c9.1031 9.8275 20.3606 18.2914 33.7724 25.3916 13.611 7.2056 30.824 11.4856 51.6393 12.84a426.4196 426.4196 0 00-2.8342 7.5169c-40.0245 2.975-80.7873-24.51-85.2322-37.885.8363-2.5849 1.7234-5.2092 2.6547-7.8635zm276.1969-171.82c-5.772-3.24-9.728-5.345-12.0078-5.345 0 0 5.8817 32.495-46.3352 32.495-48.5202 0-46.3352-32.495-46.3352-32.495-2.2798 0-6.2358 2.105-12.0028 5.345 0 0 7.3683 40.38 58.4029 40.38 51.4785 0 58.2781-35.895 58.2781-40.38z" fill="#2F7343"/><path d="M195.0901 21.2077c3.6892-1.9817 6.3654-3.1812 8.0863-3.1812 0 0-2.185 32.495 46.3352 32.495 52.2169 0 46.3352-32.495 46.3352-32.495 1.785 0 4.5974 1.2903 8.5043 3.4054-7.1745 24.4805-25.3489 36.7207-54.5232 36.7207-29.2633 0-47.5092-12.315-54.7378-36.9449z" fill="#F2F2F2"/><path d="M413.5843 238.3227c-9.2877 2.2382-19.0646 3.3161-28.7978 2.5926-8.1978-22.369-15.5572-36.883-20.0128-44.7484v270.5774s-21.1022 6.7098-55.8664 11.1104c-.1817-.0197-.363-.0396-.544-.0597 1.8808-54.795 5.7221-166.47 8.2763-240.705 2.0554-59.755 31.0847-95.29 60.099-117.44-2.6753 6.7806-5.0714 14.6063-6.9991 23.6673 7.354 11.8514 24.4358 42.0687 43.8307 94.964.005.014.0097.0277.014.0414zM190.7166 477.7953c-34.2478-4.4014-56.4763-11.051-56.4763-11.051V196.1721c-4.4558 7.8668-11.8138 22.3792-20.0097 44.7432-9.633.716-19.3087-.3323-28.5106-2.5238a1.113 1.113 0 01.0199-.0967c19.3773-52.8475 36.3054-83.0661 43.6098-94.9437-1.929-9.0753-4.3277-16.912-7.0064-23.7011 29.0144 22.15 58.0437 57.685 60.099 117.44 2.5543 74.235 6.3956 185.91 8.2763 240.7053h-.002z" fill-opacity=".1" fill="#000"/><path d="M295.302 125.6383C299.868 124.5461 304.434 124 309 124c4.566 0 9.132.5461 13.698 1.6383 1.3499.323 2.302 1.5297 2.302 2.9177v6.6205c0 9.6862-5.3333 18.6274-16 26.8235-10.6667-8.196-16-17.1373-16-26.8235v-6.6205c0-1.388.9521-2.5947 2.302-2.9177z" fill="#EFB03B"/><path d="M297.3189 129.7366c3.8937-.9077 7.7874-1.3616 11.6811-1.3616 3.8937 0 7.7874.4539 11.6811 1.3616 1.358.3166 2.3189 1.5272 2.3189 2.9217v3.4961c0 8.4755-4.6667 16.299-14 23.4706-9.3333-7.1716-14-14.9951-14-23.4706v-3.4961c0-1.3945.9608-2.605 2.3189-2.9217z" fill="#FFF"/><path d="M308.5216 149.1116c2.2822.472 4.6053 1.4182 6.9693 2.8385-4.0806-1.4562-7.2194-1.9123-9.4163-1.368-.731.2482-.7676.766-.1097 1.5533l.1097.1266.1114.0904a11.482 11.482 0 01-3.4625-1.9467l.0472-.1057c.7273-1.5343 2.3277-1.8964 5.751-1.1884zm-9.3454-4.2452c2.9603-2.0554 5.4993-1.4542 10.818.7647 2.2218.9977 3.8493 1.775 4.8825 2.332-3.7125-.6172-6.733-.9259-9.0617-.9259-3.4929 0-4.5717 1.3481-3.6686 2.8628-1.3763-1.2863-2.4364-2.9084-3.0501-4.7353l-.0244-.077.1043-.2213z" fill="#006543" opacity=".8"/><path d="M303.888 131.758c6.8264.4387 11.114 3.6919 12.324 4.903-2.3358-1.1474-2.903-1.4186-4.4993-1.9275-5.7338-1.8278-7.1597-1.5462-10.0345-.9488l-.257.0573.0678-.076a11.5584 11.5584 0 012.2972-1.9444l.1018-.0636zm8.4521-.4895c2.394.8288 4.2645 2.3282 5.6114 4.498-2.5382-2.0355-4.6601-3.3437-6.3657-3.9246-1.7056-.5809-3.986-.772-6.8412-.5734 2.6697-.8288 5.2015-.8288 7.5955 0z" fill="#7A7F7D" opacity=".7"/><path d="M310.6132 141.909c2.799 1.32 5.1364 2.7302 8.0913 5.182-4.7452-2.3853-7.593-3.749-8.5436-4.091-6.8585-2.3728-9.1559-1.4222-11.2266 1.6392a11.4754 11.4754 0 01-.4335-3.0046l.1075-.084c2.9791-2.2589 6.6979-2.1445 12.0049.3584zm.5577-3.028c2.8364 1.3033 5.293 2.5716 7.3696 3.8051-3.5422-1.5318-5.6699-2.3803-6.3831-2.5457-6.9513-2.4287-11.4647-2.0904-13.5405 1.0147l-.1141.1758.003-.2022a11.484 11.484 0 01.4434-2.822l.0826-.056c2.9477-1.9436 6.9941-1.7335 12.139.6304zm-10.1959-4.5092l.1562-.0147c3.9367-.3596 9.944 1.5357 13.0225 3.8882-1.8616-.8539-3.2308-1.4244-4.1073-1.7117-5.101-1.532-8.4745-1.523-10.7722.8117a11.4608 11.4608 0 011.7008-2.9735z" fill="#BD0000" opacity=".8"/></g></svg>