<svg xmlns="http://www.w3.org/2000/svg" width="500" height="500" fill="none" viewBox="0 0 500 500"><g clip-path="url(#clip0_6058_444)"><path fill="#4073A8" fill-rule="evenodd" d="M203.09 109.2h93.64V21.9h-93.64v87.3Z" clip-rule="evenodd"/><path fill="#E3E3E3" fill-rule="evenodd" d="M202.95 32.2h93.45V18h-93.45v14.2Z" clip-rule="evenodd"/><path fill="#245990" fill-rule="evenodd" d="M87.55 75.26S46.78 148.06 29 203.03c4.44 13.38 45.2 40.86 85.23 37.88 13.34-36.4 24.46-52 24.46-52s2.97-95.08-51.14-113.65M411.47 75.26s40.77 72.8 58.55 127.77c-4.44 13.38-45.2 40.86-85.23 37.88-13.34-36.4-24.46-52-24.46-52s-2.96-95.08 51.14-113.65" clip-rule="evenodd"/><path fill="#245990" fill-rule="evenodd" d="M249.51 57.7c-50.08 0-47.8-39.46-48.74-39.13-7.52 2.61-24.13 14.93-52.44 25.5-31.87 11.88-52.62 19.3-60.78 31.2 11.11 8.9 46.7 28.96 46.7 120.34v271.14s49.65 14.85 114.88 14.85c68.93 0 115.65-14.85 115.65-14.85V195.6c0-91.38 35.58-111.43 46.7-120.35-8.16-11.88-28.91-19.31-60.79-31.2-28.36-10.58-44.98-22.92-52.47-25.5-.93-.33 4.17 39.15-48.7 39.15Z" clip-rule="evenodd"/><path fill="#F2F2F2" fill-rule="evenodd" d="M470.13 203.2c-4.45 13.38-45.2 40.86-85.23 37.89a413.1 413.1 0 0 0-2.84-7.52c20.8-1.36 38-5.64 51.6-12.84 13.42-7.1 24.7-15.58 33.8-25.43.94 2.67 1.83 5.3 2.67 7.9ZM65.43 220.7c13.6 7.2 30.82 11.48 51.64 12.83-.93 2.4-1.88 4.9-2.84 7.52-40.02 2.98-80.79-24.5-85.23-37.88.84-2.59 1.72-5.21 2.65-7.87 9.1 9.83 20.37 18.3 33.78 25.4ZM249.66 63.75c51.47 0 58.27-35.9 58.27-40.38-5.77-3.24-9.72-5.34-12-5.34 0 0 5.88 32.5-46.34 32.5-48.52 0-46.33-32.5-46.33-32.5-2.28 0-6.24 2.1-12 5.34 0 0 7.36 40.38 58.4 40.38" clip-rule="evenodd"/><path fill="#fff" fill-rule="evenodd" d="M301.85 150.69c.35.04.6.08.69.11 5.21 2.17 11.09 3.03 14.25-2.16 3.15-5.19.64-14.1-4.8-16.58-.14-.06-.2-.24-.3-.47-.18-.49-.45-1.2-1.53-1.5-1.6-.43-3.14.62-3.62 2.47-.22.84 0 1.54.26 2.34.7 2.1 1.6 4.87-4.94 12.71-.13.15-.55.03-1.08-.13-1.1-.32-2.66-.79-3.13.74-.57 1.84 2.7 2.27 4.2 2.47Zm11.42-2.3c-2.61 2.08-5.11 2.37-9.75 1.11 6.35-4.57 9.14-11.12 7.57-14.6 4.49 1.01 6.65 8.66 2.18 13.48Z" clip-rule="evenodd"/><path fill="#fff" fill-rule="evenodd" d="M326.32 156.57a22 22 0 1 0-34.63 0c1.4-.87 2.95-1.63 4.6-2.28a17 17 0 1 1 25.42 0c1.65.65 3.2 1.41 4.6 2.28Z" clip-rule="evenodd"/><path fill="#7395B8" d="M325.02 158.52c-4.14-2.8-9.8-4.52-16.02-4.52-6.18 0-11.78 1.7-15.91 4.45l3.47 4.63c2.93-2.49 7.42-4.08 12.44-4.08 5.15 0 9.74 1.68 12.67 4.28l3.35-4.76Z"/><path fill="#000" fill-opacity=".1" fill-rule="evenodd" d="M413.58 238.32a93.76 93.76 0 0 1-28.8 2.6c-8.2-22.37-15.55-36.89-20-44.75v270.57s-21.1 6.71-55.87 11.12c-.18-.03-.37-.05-.55-.06l8.28-240.71c2.06-59.75 31.08-95.29 60.1-117.44a148.59 148.59 0 0 0-7 23.67c7.35 11.85 24.44 42.07 43.83 94.96l.01.04ZM190.72 477.8c-34.25-4.4-56.48-11.06-56.48-11.06V196.17c-4.46 7.87-11.81 22.38-20 44.75-9.64.71-19.32-.34-28.52-2.53l.02-.1c19.38-52.84 36.3-83.06 43.61-94.94a148.63 148.63 0 0 0-7-23.7c29 22.15 58.04 57.69 60.1 117.44l8.27 240.7Z" clip-rule="evenodd"/></g><defs><clipPath id="clip0_6058_444"><path fill="#fff" d="M0 0h500v500H0z"/></clipPath></defs></svg>