<svg xmlns="http://www.w3.org/2000/svg" width="501" height="501" fill="none"><path fill="#94390F" fill-rule="evenodd" d="M203.06 109.6h93.64V22.3h-93.64v87.3Z" clip-rule="evenodd"/><path fill="#000229" fill-rule="evenodd" d="M202.91 32.6h93.46V18.4h-93.46v14.2Z" clip-rule="evenodd"/><path fill="#FF6925" fill-rule="evenodd" d="M249.56 58.11c-50.08 0-47.8-39.47-48.74-39.14-7.51 2.62-24.13 14.94-52.44 25.5-31.87 11.88-52.62 19.31-60.78 31.2 11.11 8.91 46.7 28.97 46.7 120.34v271.14s49.65 14.86 114.88 14.86c68.93 0 115.65-14.86 115.65-14.86V196.01c0-91.37 35.58-111.43 46.7-120.34-8.16-11.89-28.91-19.32-60.79-31.2-28.36-10.58-44.98-22.92-52.47-25.51-.93-.32 4.17 39.15-48.7 39.15Z" clip-rule="evenodd"/><path fill="#FF7638" d="M285.48 48.14a33.13 33.13 0 0 0 3.41-3.23l76.39 76.38v6.65l-79.8-79.8Zm-16.11 7.91a51.57 51.57 0 0 0 5.03-1.62l90.88 90.88v6.65l-95.91-95.91Zm-21.73 2.3a92.22 92.22 0 0 0 6.57-.1l111.07 111.08v6.65L247.64 58.35Zm-43.98-19.97 2.56-.65c3.58 6.49 9.75 13.13 20.5 17.06L364.83 192.9a373.1 373.1 0 0 0-.01 3.37v3.27L203.66 38.38Zm-18.02 6a108.3 108.3 0 0 1 4.79-1.86L364.82 216.9v6.65L185.64 44.38Zm-16.01 8.01a95.25 95.25 0 0 1 4.23-2.42l190.96 190.96v6.65l-195.2-195.2Zm-13.89 10.13a86.87 86.87 0 0 1 3.62-3.03l205.46 205.45v6.66L155.74 62.52ZM144.3 75.1a68.6 68.6 0 0 1 2.88-3.77l217.64 217.64v6.65L144.3 75.1ZM136.19 91a53.37 53.37 0 0 1 1.81-4.83l226.82 226.81v6.65L136.19 91Zm-2.39 21.64v-6.65L364.82 337v6.65L133.8 112.64Zm0 24.02V130l231.02 231.01v6.65l-231.02-231Zm0 24.02v-6.66l231.02 231.02v6.65L133.8 160.68Zm.3 24.31c-.08-2.22-.18-4.4-.3-6.52v-.43l231.02 231.02v6.65L134.09 184.99Zm.18 24.21v-6.65l230.54 230.53v6.65L134.28 209.2Zm0 24.01v-6.65L364.82 457.1v6.65L134.28 233.2Zm0 24.03v-6.65l219.75 219.74c-1.62.4-3.42.83-5.38 1.27L134.28 257.24Zm0 24.01v-6.65l199.97 199.97c-1.8.34-3.69.68-5.63 1.01L134.28 281.25Zm0 24.02v-6.65l179.29 179.29c-1.92.26-3.88.52-5.88.76l-173.4-173.4Zm0 24.03v-6.66l157.7 157.7c-2 .19-4.05.36-6.13.52L134.28 329.29Zm0 24v-6.64l135.18 135.17c-2.12.1-4.26.17-6.42.23L134.28 353.31Zm0 24.03v-6.65l111.57 111.57a496.6 496.6 0 0 1-6.75-.1L134.28 377.32Zm0 24.02v-6.65l86.66 86.66c-2.42-.16-4.8-.33-7.16-.51l-79.5-79.5Zm0 24.02v-6.65l60.2 60.2c-2.6-.31-5.15-.64-7.63-.98l-52.57-52.57Zm0 24.02v-6.65l31.9 31.9a432 432 0 0 1-8.24-1.6l-23.66-23.65Zm230.95-345.51-63.79-63.8c3.54 1.1 6.95 2.29 10.22 3.58l52.62 52.62c.52 2.52.84 5.05.95 7.6Z"/><path fill="#FF6925" fill-rule="evenodd" d="M87.6 75.67s-40.76 72.8-58.55 127.77c4.45 13.37 45.21 40.85 85.23 37.88 13.34-36.4 24.46-52 24.46-52s2.97-95.08-51.14-113.65Zm323.92 0s40.77 72.8 58.55 127.77c-4.44 13.37-45.2 40.85-85.23 37.88-13.34-36.4-24.46-52-24.46-52s-2.96-95.08 51.14-113.65Z" clip-rule="evenodd"/><path fill="#232323" fill-rule="evenodd" d="M467.51 195.7c.94 2.67 1.83 5.3 2.67 7.9-4.45 13.38-45.21 40.87-85.23 37.89a420.5 420.5 0 0 0-2.84-7.52c20.8-1.36 38-5.64 51.6-12.84 13.42-7.1 24.7-15.58 33.8-25.42Zm-435.81 0c9.1 9.83 20.36 18.3 33.78 25.4 13.6 7.2 30.82 11.48 51.63 12.84-.93 2.4-1.87 4.9-2.83 7.51-40.02 2.98-80.79-24.5-85.23-37.88.84-2.59 1.72-5.21 2.65-7.86ZM249.63 64.16c51.47 0 58.27-35.9 58.27-40.38-5.77-3.24-9.72-5.35-12-5.35 0 0 5.88 32.5-46.34 32.5-48.52 0-46.33-32.5-46.33-32.5-2.28 0-6.24 2.1-12 5.35 0 0 7.36 40.38 58.4 40.38Z" clip-rule="evenodd"/><path fill="#EE1D04" d="M288.02 126.98c-1.88 41.48 19.88 52 19.88 52s21.77-10.52 19.89-52h-39.77Z"/><path fill="#F5F5F5" stroke="#232323" d="m283.7 122.95.02-.47h48.37l.02.47.17 3.82c.98 21.6-4.2 35.56-9.98 44.26a41.11 41.11 0 0 1-8.19 9.15 28.66 28.66 0 0 1-3.8 2.61v.02l-.43.21h-.01l-1.75.85-.22.1-.21-.1-1.75-.84-.44-.22v-.01c-.23-.13-.54-.3-.9-.54a28.55 28.55 0 0 1-2.9-2.08 41.05 41.05 0 0 1-8.19-9.15c-5.8-8.7-10.96-22.67-9.99-44.26l.18-3.82Zm25.5 59.84-1.3.63-1.29-.62h2.59Zm-1.96-4.77.44.27.22-.46.23.46.44-.27c.57-.36 1.4-.92 2.39-1.72 1.98-1.6 4.6-4.18 7.17-8.05 5.1-7.65 10.02-20.4 9.18-40.77H288.5c-.84 20.36 4.07 33.12 9.17 40.77a36.1 36.1 0 0 0 7.18 8.05c.98.8 1.81 1.36 2.39 1.72Z"/><path fill="#FF6925" d="M288.02 126.98c-1.88 41.48 19.88 52 19.88 52s21.77-10.52 19.89-52h-39.77Z"/><path fill="#232323" fill-rule="evenodd" d="m321.9 162.78-33.9-35.8c-1.7 41.46 20 52 20 52s8-3.88 13.9-16.2Z" clip-rule="evenodd"/><path fill="#000" fill-opacity=".09" fill-rule="evenodd" d="M413.63 238.73a93.76 93.76 0 0 1-28.8 2.6c-8.2-22.38-15.55-36.9-20-44.76v270.58s-21.11 6.71-55.87 11.11l-.55-.06 8.28-240.7c2.05-59.76 31.08-95.3 60.1-117.44a148.66 148.66 0 0 0-7 23.66c7.35 11.85 24.43 42.07 43.83 94.97l.01.04ZM190.76 478.2c-34.24-4.4-56.47-11.05-56.47-11.05V196.58c-4.46 7.86-11.81 22.38-20.01 44.74a93.6 93.6 0 0 1-28.51-2.52l.02-.1c19.38-52.85 36.3-83.07 43.6-94.94a148.64 148.64 0 0 0-7-23.7c29.02 22.15 58.05 57.68 60.1 117.44l8.28 240.7Z" clip-rule="evenodd"/></svg>