<?xml version="1.0" encoding="UTF-8"?><svg height="500" viewBox="0 0 500 500" width="500" xmlns="http://www.w3.org/2000/svg"><g fill="none" fill-rule="evenodd"><path d="M0 0h500v500H0z"/><path d="M203.006 109.193h93.643V21.898h-93.643z" fill="#ae0018"/><path d="M202.867 32.198h93.458v-14.2h-93.458z" fill="#363636"/><path d="M87.547 75.26S46.785 148.06 29 203.031c4.445 13.375 45.207 40.86 85.232 37.886 13.34-36.4 24.46-52 24.46-52S141.653 93.83 87.546 75.26M411.473 75.26s40.762 72.8 58.547 127.771c-4.445 13.375-45.207 40.86-85.232 37.886-13.34-36.4-24.46-52-24.46-52S357.367 93.83 411.474 75.26" fill="#c2001b"/><path d="M249.514 57.706c-50.082 0-47.799-39.47-48.743-39.14-7.516 2.618-24.133 14.936-52.439 25.495-31.872 11.885-52.625 19.315-60.782 31.2 11.115 8.915 46.694 28.97 46.694 120.345v271.14S183.902 481.6 249.13 481.6c68.93 0 115.649-14.855 115.649-14.855v-271.14c0-91.375 35.58-111.43 46.7-120.345-8.157-11.885-28.91-19.315-60.783-31.2-28.36-10.577-44.982-22.92-52.478-25.511-.928-.318 4.177 39.156-48.703 39.156z" fill="#f2f2f2"/><g fill="#c2001b"><path d="M75.025 117.298c10.132-20.75 17.944-35.245 17.944-35.245 7.882-11.885 27.937-19.315 58.747-31.2 29.359-11.33 45.835-24.635 52.265-25.865-.678-4.5-.798-6.882-.804-6.97-5.927 0-22.98 14.025-54.853 25.91-31.868 11.89-52.62 19.315-60.772 31.2 0 0-8.232 14.76-18.858 35.825C49.557 149.176 36.326 179.867 29 203.027c.3 1.058 1.008 2.41 2.123 4.056s2.05 2.777 2.807 3.396c8.386-23.684 22.084-54.745 41.095-93.18zM423.965 117.322c-10.132-20.75-17.958-35.269-17.958-35.269-7.882-11.885-27.936-19.315-58.747-31.2-29.358-11.33-45.149-24.497-51.58-25.727.68-4.5.326-6.505.19-7.038 5.926 0 22.91 13.955 54.783 25.84 31.867 11.89 52.62 19.315 60.772 31.2 0 0 8.231 14.76 18.857 35.825 18.39 36.305 31.635 66.996 39.738 92.074-.491 1.317-.977 2.346-1.458 3.088-.48.741-1.275 1.804-2.384 3.188-18.428-43.992-32.498-74.652-42.213-91.98z"/><path d="M170.746 474.792A421.073 421.073 0 0 1 156 471.834V41.044c15.475-6.387 26.936-13.015 34.921-17.503v454.278a470.6 470.6 0 0 1-20.175-3.027zm96.675-425.87v432.327c-5.9.225-12.005.348-18.294.348-5.667 0-11.217-.112-16.627-.316V48.878c4.832 1.025 10.458 1.617 17.009 1.617 6.95 0 12.87-.576 17.912-1.574zm76.5-7.508v430.557c-9.083 1.936-20.886 4.09-34.921 5.87V24.047c8.096 4.561 19.566 11.102 34.921 17.367z"/></g><path d="M249.576 63.752c51.479 0 58.279-35.895 58.279-40.38-5.772-3.24-9.728-5.345-12.008-5.345 0 0 5.881 32.495-46.335 32.495-48.52 0-46.336-32.495-46.336-32.495-2.28 0-6.235 2.105-12.002 5.345 0 0 7.368 40.38 58.402 40.38" fill="#3d3d3d"/><g transform="translate(284.5 119.5)"><path d="M41.41 31c-4.115 5.025-10.28 8.221-17.174 8.221-6.827 0-12.932-3.129-17.05-8.07L2.31 37.176C7.786 43.216 15.598 47 24.267 47c8.721 0 16.568-3.824 22.043-9.93z" fill="#211e1f" fill-rule="nonzero"/><path d="M11.31 6h26v31c0 1.408-12.287 6.5-13 6.5-.712 0-13-5.092-13-6.5z" fill="#211e1f" fill-rule="nonzero"/><path d="M12.31 10h24v27c0 1.5-10.99 5.5-12 5.5-1.009 0-12-4.001-12-5.5z" fill="#fff"/><path d="M36.31 28v9c0 1.5-10.99 5.5-12 5.5-1.009 0-12-4.001-12-5.5v-9zM24.31 5h5c0-4 2.784-1.165 7-2.493 4.217-1.328 6.547 2.797 12.31 4.347l-3.633 5.806c-3.481-1.773-6.04-2.993-7.677-3.66-5.554-1.527-11.012 3.364-13 3.364-1.987 0-7.445-4.891-13-3.364-1.636.667-4.195 1.887-7.676 3.66L0 6.854c5.764-1.55 8.094-5.675 12.31-4.347 4.217 1.328 7-1.507 7 2.493z" fill="#ee1338"/><circle cx="24.31" cy="5" fill="#1b1819" r="5"/></g><path d="M413.584 238.323c-9.287 2.238-19.064 3.316-28.798 2.592-8.197-22.369-15.557-36.883-20.012-44.748v270.577s-21.102 6.71-55.867 11.11l-.544-.059c1.881-54.795 5.722-166.47 8.277-240.705 2.055-59.755 31.084-95.29 60.099-117.44-2.676 6.78-5.072 14.606-7 23.667 7.354 11.852 24.436 42.069 43.831 94.964l.014.042zM190.717 477.795c-34.248-4.401-56.477-11.05-56.477-11.05V196.171c-4.456 7.867-11.813 22.38-20.01 44.743-9.632.716-19.308-.332-28.51-2.523.005-.033.012-.065.02-.097 19.377-52.848 36.305-83.066 43.61-94.944-1.93-9.075-4.328-16.912-7.007-23.701 29.015 22.15 58.044 57.685 60.1 117.44 2.554 74.235 6.395 185.91 8.276 240.705z" fill="#000" fill-opacity=".1"/></g></svg>