<svg xmlns="http://www.w3.org/2000/svg" width="501" height="501" fill="none"><path fill="#786E0E" fill-rule="evenodd" d="M203.95 109.74h93.65v-87.3h-93.65v87.3Z" clip-rule="evenodd"/><path fill="#030B3D" fill-rule="evenodd" d="M203.81 32.74h93.46v-14.2h-93.46v14.2Z" clip-rule="evenodd"/><path fill="#00138C" fill-rule="evenodd" d="M88.5 75.8s-40.77 72.8-58.55 127.78c4.44 13.37 45.2 40.86 85.23 37.88 13.34-36.4 24.46-52 24.46-52S142.6 94.37 88.49 75.8Zm323.92 0s40.76 72.8 58.55 127.78c-4.45 13.37-45.21 40.86-85.24 37.88-13.33-36.4-24.45-52-24.45-52S358.3 94.37 412.42 75.8Z" clip-rule="evenodd"/><path fill="#00138C" fill-rule="evenodd" d="M250.46 58.25c-50.08 0-47.8-39.47-48.74-39.14-7.52 2.62-24.13 14.94-52.44 25.5-31.87 11.88-52.63 19.31-60.78 31.2 11.11 8.91 46.7 28.97 46.7 120.34v271.14s49.65 14.85 114.88 14.85c68.93 0 115.65-14.85 115.65-14.85V196.15c0-91.38 35.57-111.43 46.7-120.34-8.16-11.89-28.92-19.32-60.79-31.2-28.36-10.58-44.98-22.92-52.48-25.51-.92-.32 4.18 39.15-48.7 39.15Z" clip-rule="evenodd"/><path fill="#FFEF49" fill-rule="evenodd" d="M294.68 37.8c45.26 11.34 71.5 39.34 71.5 67.99v72.9c-.3 5.5-.45 11.3-.45 17.43v271.14S319 482.1 250.08 482.1c-65.23 0-114.89-14.85-114.89-14.85V196.12c0-6.26-.16-12.2-.48-17.8v-72.53c0-28.84 26.6-57.02 72.42-68.2 5.6 10.12 17.5 20.63 43.33 20.63 27.08 0 38.96-10.36 44.22-20.41Z" clip-rule="evenodd"/><path fill="#FFEF49" fill-rule="evenodd" d="M250.52 64.3c51.48 0 58.28-35.9 58.28-40.38-5.77-3.24-9.73-5.35-12-5.35 0 0 5.88 32.5-46.34 32.5-48.52 0-46.34-32.5-46.34-32.5-2.28 0-6.23 2.1-12 5.35 0 0 7.37 40.38 58.4 40.38Z" clip-rule="evenodd"/><path fill="#000" fill-opacity=".1" fill-rule="evenodd" d="M414.39 238.87a93.8 93.8 0 0 1-28.8 2.6c-8.2-22.38-15.56-36.9-20.01-44.76V467.3s-21.1 6.7-55.87 11.11l-.54-.06 8.27-240.7c2.06-59.76 31.09-95.3 60.1-117.44a148.7 148.7 0 0 0-7 23.66c7.36 11.85 24.44 42.07 43.83 94.97l.02.04ZM191.52 478.34c-34.25-4.4-56.48-11.05-56.48-11.05V196.72c-4.45 7.86-11.8 22.38-20 44.74a93.6 93.6 0 0 1-28.52-2.52l.02-.1c19.38-52.85 36.31-83.07 43.61-94.94a148.74 148.74 0 0 0-7-23.7c29.01 22.14 58.04 57.68 60.1 117.43 2.55 74.24 6.4 185.92 8.27 240.71Z" clip-rule="evenodd"/><path fill="#F1F1F1" fill-rule="evenodd" d="M294.39 131.06s6.05-5.24 16.02-5.24c9.98 0 16.03 5.24 16.03 5.24 7.75 27.25-16.03 39.49-16.03 39.49s-23.77-12.24-16.02-39.49Z" clip-rule="evenodd"/><path fill="#00138C" fill-rule="evenodd" d="m293.5 130.04.89 1.03c-7.75 27.25 16.02 39.48 16.02 39.48l-.62 1.2h-.03l-.06-.04a16.13 16.13 0 0 1-1-.58 39.3 39.3 0 0 1-10.28-9.27c-5.2-6.75-9.35-17.06-5.34-31.17l.11-.39.3-.26Zm32.94 1.03.89-1.03-.01-.01-.02-.02a2.72 2.72 0 0 0-.3-.25 25.34 25.34 0 0 0-4.24-2.55 28.72 28.72 0 0 0-12.35-2.75c-5.23 0-9.43 1.38-12.33 2.76a25.34 25.34 0 0 0-4.48 2.74l-.07.05-.02.02h-.01l.89 1.03s6.05-5.24 16.02-5.24c9.98 0 16.03 5.25 16.03 5.25Zm0 0c7.75 27.25-16.03 39.48-16.03 39.48l-.62 1.2.62.33.63-.32-.63-1.21.63 1.2h.02a39.32 39.32 0 0 0 11.35-9.89c5.2-6.75 9.35-17.06 5.34-31.17l-.12-.39-.3-.26-.9 1.03Z" clip-rule="evenodd"/><path fill="#00138C" fill-rule="evenodd" d="M297.79 134.02s4.76-4.13 12.62-4.13c7.86 0 12.63 4.13 12.63 4.13 6.1 21.47-12.63 31.1-12.63 31.1s-18.73-9.63-12.62-31.1Z" clip-rule="evenodd"/><path fill="#FFFD4E" d="M299.91 136.47h21.01V142h-21.01z"/><ellipse cx="310.41" cy="151.5" fill="#FFFD4E" rx="7.06" ry="7.14" transform="rotate(-90.33 310.41 151.5)"/></svg>