<svg xmlns="http://www.w3.org/2000/svg" width="501" height="500" fill="none"><path fill="#BE3029" fill-rule="evenodd" d="M203.9 109.2h93.64V21.9H203.9v87.3Z" clip-rule="evenodd"/><path fill="#A8A8A8" fill-rule="evenodd" d="M203.76 32.2h93.46V18h-93.46v14.2Z" clip-rule="evenodd"/><path fill="#CA332C" fill-rule="evenodd" d="M88.44 75.26s-40.76 72.8-58.54 127.77c4.44 13.38 45.2 40.86 85.23 37.88 13.34-36.4 24.46-52 24.46-52s2.96-95.08-51.15-113.65m323.93 0s40.76 72.8 58.55 127.77c-4.45 13.38-45.21 40.86-85.23 37.88-13.34-36.4-24.46-52-24.46-52s-2.97-95.08 51.14-113.65" clip-rule="evenodd"/><path fill="#CA332C" fill-rule="evenodd" d="M250.4 57.7c-50.07 0-47.79-39.46-48.73-39.13-7.52 2.61-24.14 14.93-52.44 25.5-31.87 11.88-52.63 19.3-60.78 31.2 11.11 8.9 46.69 28.96 46.69 120.34v271.14s49.66 14.85 114.89 14.85c68.92 0 115.64-14.85 115.64-14.85V195.6c0-91.38 35.58-111.43 46.7-120.35-8.15-11.88-28.9-19.31-60.78-31.2-28.36-10.58-44.98-22.92-52.48-25.5-.93-.33 4.18 39.15-48.7 39.15Z" clip-rule="evenodd"/><path fill="#F2F2F2" fill-rule="evenodd" d="M468.36 195.3c.93 2.67 1.82 5.3 2.66 7.9-4.44 13.38-45.2 40.86-85.23 37.89a413.1 413.1 0 0 0-2.83-7.52c20.8-1.36 37.99-5.64 51.6-12.84 13.42-7.1 24.69-15.58 33.8-25.43Zm-435.81 0c9.1 9.83 20.36 18.3 33.77 25.4 13.61 7.2 30.83 11.48 51.64 12.83-.93 2.4-1.88 4.9-2.83 7.52-40.03 2.97-80.79-24.51-85.24-37.89.84-2.58 1.73-5.2 2.66-7.86ZM250.47 63.75c51.48 0 58.28-35.9 58.28-40.38-5.77-3.24-9.73-5.34-12-5.34 0 0 5.87 32.5-46.34 32.5-48.52 0-46.34-32.5-46.34-32.5-2.28 0-6.23 2.1-12 5.34 0 0 7.37 40.38 58.4 40.38" clip-rule="evenodd"/><path fill="#000" fill-opacity=".06" fill-rule="evenodd" d="M414.67 237.84a93.8 93.8 0 0 1-28.8 2.6c-8.2-22.38-15.55-36.9-20-44.76v270.58s-21.11 6.7-55.87 11.11l-.55-.06 8.28-240.7c2.05-59.76 31.08-95.3 60.1-117.45a148.7 148.7 0 0 0-7 23.67c7.35 11.85 24.43 42.07 43.83 94.97l.01.04ZM191.8 477.3c-34.24-4.4-56.47-11.05-56.47-11.05V195.69c-4.46 7.86-11.82 22.38-20.01 44.74-9.63.72-19.3-.33-28.51-2.52l.02-.1c19.38-52.85 36.3-83.07 43.6-94.94a148.64 148.64 0 0 0-7-23.7c29.02 22.14 58.05 57.68 60.1 117.43l8.28 240.71Z" clip-rule="evenodd"/><path fill="#F2F2F2" fill-rule="evenodd" d="M309.5 165a22 22 0 1 0 0-44 22 22 0 0 0 0 44Z" clip-rule="evenodd"/><path fill="#CA332C" fill-rule="evenodd" d="M309.5 164.01a21.01 21.01 0 1 0 0-42.02 21.01 21.01 0 0 0 0 42.02Z" clip-rule="evenodd"/><path fill="#F2F2F2" fill-rule="evenodd" d="M309.5 160a17 17 0 1 0 0-34 17 17 0 0 0 0 34Z" clip-rule="evenodd"/><path fill="#CA332C" fill-rule="evenodd" d="M309.5 158.88c8.88 0 16.07-7.11 16.07-15.88s-7.2-15.88-16.07-15.88A15.98 15.98 0 0 0 293.43 143c0 8.77 7.2 15.88 16.07 15.88Z" clip-rule="evenodd"/><path fill="#CA332C" d="m309.5 129.21-4.01 6.84-7.93.06 3.92 6.89-3.92 6.9 7.93.05 4.01 6.84 4.01-6.84 7.93-.06-3.92-6.89 3.92-6.9-7.93-.05-4.01-6.84Z"/><path fill="#F2F2F2" fill-rule="evenodd" d="m306.64 138.04-5.66.04 2.8 4.92-2.8 4.92 5.66.04 2.86 4.87 2.86-4.87 5.66-.04-2.8-4.92 2.8-4.92-5.66-.04-2.86-4.87-2.86 4.87Zm-1.15-1.99-7.93.06 3.92 6.89-3.92 6.9 7.93.05 4.01 6.84 4.01-6.84 7.93-.06-3.92-6.89 3.92-6.9-7.93-.05-4.01-6.84-4.01 6.84Z" clip-rule="evenodd"/></svg>