<?xml version="1.0" encoding="utf-8"?><svg width="500" height="500" viewBox="0 0 500 500" fill="none" xmlns="http://www.w3.org/2000/svg">
<path fill-rule="evenodd" clip-rule="evenodd" d="M203.003 109.223H296.646V21.928H203.003V109.223Z" fill="#C8C8C8"/>
<path fill-rule="evenodd" clip-rule="evenodd" d="M202.864 32.228H296.322V18.028H202.864V32.228Z" fill="#D52B2B"/>
<path fill-rule="evenodd" clip-rule="evenodd" d="M29 203.028C33.4449 216.403 74.2077 243.889 114.232 240.913C127.572 204.514 138.692 188.913 138.692 188.913C138.692 188.913 141.655 93.8285 87.5475 75.2585C87.5475 75.2585 46.7848 148.058 29 203.028Z" fill="#C52E3C"/>
<path fill-rule="evenodd" clip-rule="evenodd" d="M42.9467 166.184L43.4264 165.052C52.8145 177.16 65.0172 186.465 80.0343 192.969C95.8597 199.822 112.055 203.708 128.621 204.627L129.702 204.683L129.029 206.026C124.899 214.335 119.756 225.841 114.232 240.913C74.2077 243.888 33.4449 216.403 29 203.028C32.8051 191.267 37.6621 178.69 42.9467 166.184Z" fill="#3D3D3D"/>
<path fill-rule="evenodd" clip-rule="evenodd" d="M411.473 75.2585C411.473 75.2585 452.235 148.058 470.02 203.028C465.575 216.403 424.812 243.889 384.788 240.913C371.448 204.514 360.328 188.913 360.328 188.913C360.328 188.913 357.365 93.8285 411.473 75.2585Z" fill="#C52E3C"/>
<path fill-rule="evenodd" clip-rule="evenodd" d="M369.484 204.683C386.427 203.876 402.983 199.971 419.152 192.969C433.896 186.584 445.927 177.497 455.245 165.71L455.652 165.189C461.1 178.022 466.114 190.955 470.02 203.029C465.575 216.404 424.813 243.889 384.788 240.914L383.99 238.754C371.008 203.896 369.484 204.683 369.484 204.683Z" fill="#3D3D3D"/>
<path fill-rule="evenodd" clip-rule="evenodd" d="M87.5476 75.2585C104.59 81.1077 115.971 94.5481 123.566 110.217C113.259 105.48 103.482 99.443 94.2326 92.108C90.3863 89.0578 86.8498 85.8295 83.6233 82.4233L86.8939 76.4356C87.3209 75.6634 87.5476 75.2585 87.5476 75.2585Z" fill="#3D3D3D"/>
<path fill-rule="evenodd" clip-rule="evenodd" d="M411.473 75.2585L414.193 80.2046C414.578 80.9121 415.001 81.6898 415.457 82.5338C412.26 85.8997 408.758 89.091 404.954 92.108C395.641 99.4933 385.794 105.563 375.412 110.316C383.003 94.603 394.395 81.1196 411.473 75.2585Z" fill="#3D3D3D"/>
<path fill-rule="evenodd" clip-rule="evenodd" d="M249.511 57.7025C199.429 57.7025 201.713 18.2334 200.769 18.5625C193.253 21.1812 176.636 33.4993 148.33 44.0575C116.457 55.9425 95.7041 63.3725 87.5475 75.2575C98.6624 84.1725 134.242 104.228 134.242 195.603V466.743C134.242 466.743 183.9 481.598 249.127 481.598C318.056 481.598 364.775 466.743 364.775 466.743V195.603C364.775 104.228 400.355 84.1725 411.475 75.2575C403.318 63.3725 382.565 55.9425 350.692 44.0575C322.332 33.4808 305.71 21.1381 298.214 18.5488C297.287 18.2285 302.391 57.7025 249.511 57.7025Z" fill="#C52E3C"/>
<path fill-rule="evenodd" clip-rule="evenodd" d="M249.511 333C287.932 333 326.353 332.143 364.775 330.428L364.775 404.43C326.517 406.143 288.259 407 250 407C211.414 407 172.828 406.129 134.242 404.386L134.242 330.39C172.382 332.13 210.805 333 249.511 333ZM249.511 180C288.029 180 326.547 180.574 365.066 181.723C364.896 185.663 364.798 189.754 364.779 194.002L364.775 195.602L364.775 255.713C326.517 254.571 288.259 254 250 254C211.414 254 172.828 254.581 134.242 255.743L134.242 195.602C134.242 190.789 134.143 186.173 133.954 181.747C172.188 180.583 210.707 180 249.511 180ZM327.512 33.9999C334.151 37.2915 341.851 40.7603 350.692 44.0575L360.805 47.8297C386.978 57.631 404.215 64.6798 411.475 75.2575L410.716 75.8552C404.705 80.517 393.034 88.2224 382.959 106.247C338.276 104.334 293.793 103.376 249.511 103.376C205.03 103.376 160.551 104.343 116.073 106.276C105.553 87.437 93.2878 79.8616 87.5475 75.2575C95.7041 63.3725 116.457 55.9425 148.33 44.0575C157.169 40.7604 164.869 37.2916 171.507 34.0003L204.655 33.9988C209.493 44.9467 221.04 57.7025 249.511 57.7025C279.569 57.7025 290.892 44.9489 295.238 33.9987L327.512 33.9999Z" fill="#3D3D3D"/>
<path fill-rule="evenodd" clip-rule="evenodd" d="M193.687 21.9995L201.318 21.9984L201.438 22.799C202.149 27.3431 203.912 34.8346 209.222 41.7145C166.184 50.247 128.824 67.7349 103.308 83.7098C98.0916 78.721 90.4725 77.6035 87.5475 75.2575C95.7041 63.3725 116.457 55.9425 148.33 44.0575C169.794 36.0512 184.537 27.033 193.687 21.9995ZM297.91 21.9982L305.336 21.9996L307.639 23.2818C316.752 28.3953 330.537 36.4545 349.837 43.7367L360.805 47.8297C386.978 57.631 404.215 64.6798 411.475 75.2575L410.93 75.688C408.026 77.9577 400.685 79.0493 396.877 83.5461C373.955 68.4268 335.108 50.0628 291.136 41.4627C296.42 34.2339 297.574 26.3784 297.91 21.9982Z" fill="#F13434"/>
<path fill-rule="evenodd" clip-rule="evenodd" d="M201.788 27.1166L203.515 30.3312L201.985 31.1975C193.04 36.2936 179.369 44.4962 160.105 51.8972L148.954 56.134C124.837 65.3325 108.497 72.1203 100.789 81.7319C99.695 81.0541 98.5673 80.4163 97.4088 79.818C105.921 68.5786 125.997 61.2476 156.314 49.74C175.573 42.4277 189.324 34.2713 198.411 29.0774L198.401 29.0275L200.155 28.0297C200.719 27.7108 201.264 27.406 201.788 27.1166ZM192.543 25.0128L194.278 28.2417L190.049 30.6616C181.203 35.6899 169.131 42.2392 153.371 48.2231L145.416 51.2419C119.454 61.1124 102.114 68.1145 94.3975 78.3898C93.4441 77.9684 92.4683 77.5753 91.4719 77.2099L90.7228 76.9417C98.7337 65.055 119.121 57.625 150.433 45.74C169.692 38.4277 183.443 30.2713 192.53 25.0774L192.52 25.0275L192.543 25.0128Z" fill="#3D3D3D"/>
<path fill-rule="evenodd" clip-rule="evenodd" d="M297.065 30.8516L298.645 27.5477L300.179 28.4128C300.531 28.6128 300.89 28.8178 301.257 29.0275L301.247 29.0774L306.265 31.9504C315.146 37.0078 327.344 43.6652 343.344 49.74L352.131 53.0754C377.563 62.754 394.592 69.7045 402.256 79.8255C401.093 80.419 399.965 81.0568 398.868 81.7318C390.112 70.8106 370.207 63.5346 340.406 52.2231L338.642 51.5453C323.494 45.6521 311.86 39.2928 303.306 34.4213L297.065 30.8516ZM307.091 25L307.138 25.0275L307.128 25.0774L312.146 27.9504C321.027 33.0078 333.225 39.6652 349.225 45.74L359.064 49.4759C384.541 59.1859 401.415 66.1908 408.691 76.5865L408.935 76.9417C407.679 77.3832 406.453 77.8653 405.258 78.388C396.784 67.0996 376.683 59.7604 346.287 48.2231C329.846 41.9807 317.419 35.1229 308.481 30.0185L305.679 28.4136L307.091 25Z" fill="#3D3D3D"/>
<path fill-rule="evenodd" clip-rule="evenodd" d="M467.353 195.129C468.289 197.796 469.18 200.432 470.02 203.029C465.575 216.404 424.812 243.889 384.788 240.914C383.83 238.3 382.884 235.794 381.953 233.394C402.748 232.036 419.946 227.757 433.547 220.557C446.975 213.448 458.244 204.972 467.353 195.129V195.129Z" fill="#C52E3C"/>
<path fill-rule="evenodd" clip-rule="evenodd" d="M31.6547 195.165C40.7578 204.993 52.0153 213.456 65.4271 220.557C79.038 227.762 96.2512 232.042 117.066 233.397C116.135 235.796 115.189 238.301 114.232 240.914C74.2077 243.889 33.4449 216.404 29 203.029C29.8363 200.444 30.7234 197.819 31.6547 195.165V195.165Z" fill="#C52E3C"/>
<path fill-rule="evenodd" clip-rule="evenodd" d="M307.852 23.345C302.08 20.105 298.124 18 295.844 18C295.844 18 301.725 50.495 249.509 50.495C200.988 50.495 203.173 18 203.173 18C200.894 18 196.938 20.105 191.171 23.345C191.171 23.345 198.539 63.725 249.573 63.725C301.052 63.725 307.852 27.83 307.852 23.345Z" fill="#F13434"/>
<path fill-rule="evenodd" clip-rule="evenodd" d="M413.584 238.323C404.297 240.561 394.52 241.639 384.786 240.915C376.589 218.546 369.229 204.032 364.774 196.167V466.744C364.774 466.744 343.672 473.454 308.907 477.855C308.726 477.835 308.544 477.815 308.363 477.795C310.244 423 314.085 311.325 316.64 237.09C318.695 177.335 347.724 141.8 376.739 119.65C374.063 126.431 371.667 134.256 369.739 143.317C377.093 155.169 394.175 185.386 413.57 238.281C413.575 238.295 413.58 238.309 413.584 238.323ZM190.717 477.795C156.469 473.394 134.24 466.744 134.24 466.744V196.172C129.784 204.039 122.427 218.551 114.231 240.915C104.598 241.631 94.9219 240.583 85.72 238.392C85.7251 238.359 85.7317 238.327 85.7399 238.295C105.117 185.447 122.045 155.229 129.35 143.351C127.421 134.276 125.022 126.439 122.343 119.65C151.358 141.8 180.387 177.335 182.442 237.09C184.997 311.325 188.838 423 190.719 477.795L190.717 477.795Z" fill="black" fill-opacity="0.1"/>
<path fill-rule="evenodd" clip-rule="evenodd" d="M289 128V117H329V128C329 147.489 322.472 161.075 309.414 168.759L309 169C295.667 161.361 289 147.694 289 128Z" fill="black"/>
<path fill-rule="evenodd" clip-rule="evenodd" d="M309.373 166.778L309 167C306.136 165.317 303.614 163.317 301.433 161L316.566 161C314.481 163.216 312.083 165.142 309.373 166.778ZM320.436 156.001L297.564 156.001C296.211 153.862 295.067 151.528 294.133 149.001L323.867 149.001C322.933 151.528 321.789 153.861 320.436 156.001ZM325.383 144.001L292.617 144.001C292.082 141.791 291.679 139.457 291.41 137.001L326.59 137.001C326.321 139.457 325.918 141.791 325.383 144.001ZM327 124V129.154C327 129.776 326.993 130.391 326.979 131L291.021 131.001C291.007 130.392 291 129.776 291 129.154V124H327Z" fill="#C22209"/>
<path fill-rule="evenodd" clip-rule="evenodd" d="M308 119V136L291.308 136.001C291.103 133.814 291 131.531 291 129.154V119H308Z" fill="#C22209"/>
<rect opacity="0.7" x="293" y="121" width="13" height="13" fill="white"/>
</svg>
