<?xml version="1.0" encoding="UTF-8"?><svg width="500" height="500" viewBox="0 0 500 500" xmlns="http://www.w3.org/2000/svg"><g fill="none" fill-rule="evenodd"><path d="M0 0h500v500H0z"/><path fill="#B42626" d="M203.0033 109.223h93.6432V21.928h-93.6432z"/><path fill="#E0E0E0" d="M202.8636 32.228h93.4586v-14.2h-93.4586z"/><path d="M87.5475 75.2585s-40.7627 72.8-58.5475 127.77c4.445 13.375 45.2077 40.86 85.2322 37.885 13.3398-36.4 24.4596-52 24.4596-52s2.9633-95.085-51.1443-113.655m323.9252 0s40.7628 72.8 58.5475 127.77c-4.445 13.375-45.2077 40.86-85.2321 37.885-13.3399-36.4-24.4597-52-24.4597-52s-2.9633-95.085 51.1443-113.655" fill="#F2F2F2"/><path d="M249.5111 57.7025c-50.0817 0-47.7981-39.469-48.7426-39.14-7.5158 2.6187-24.1326 14.9368-52.4385 25.495-31.8729 11.885-52.626 19.315-60.7825 31.2 11.1149 8.915 46.6944 28.97 46.6944 120.345v271.14s49.6576 14.855 114.885 14.855c68.9291 0 115.6484-14.855 115.6484-14.855v-271.14c0-91.375 35.5795-111.43 46.6994-120.345-8.1566-11.885-28.9096-19.315-60.7825-31.2-28.3599-10.5767-44.9818-22.9194-52.478-25.5106-.9273-.3184 4.1773 39.1556-48.703 39.1556z" fill="#E23232"/><path d="M467.4614 195.302c.936 2.6666 1.8273 5.303 2.6674 7.8996-4.445 13.375-45.2077 40.86-85.2322 37.885a426.405 426.405 0 00-2.8354-7.5199c20.7951-1.3576 37.9933-5.6366 51.5945-12.837 13.4282-7.109 24.6968-15.5848 33.8057-25.4277zm-435.8067 0c9.1031 9.8275 20.3606 18.2914 33.7724 25.3916 13.611 7.2056 30.824 11.4856 51.6393 12.84a426.4198 426.4198 0 00-2.8342 7.5169c-40.0245 2.975-80.7873-24.51-85.2322-37.885.8363-2.5849 1.7234-5.2092 2.6547-7.8635zM307.8516 23.345c-1.456-.8173-2.7963-1.5623-4.0234-2.2196-1.4002 22.3731-19.5059 33.5596-54.317 33.5596-32.347 0-50.4369-11.1954-54.27-33.5864-1.24.6638-2.596 1.418-4.0706 2.2464 0 0 7.3683 40.38 58.4029 40.38 51.4785 0 58.2781-35.895 58.2781-40.38z" fill="#E23232"/><path d="M209.6408 36.2782c6.0225 7.4035 17.6102 14.2433 39.8708 14.2433 23.622 0 35.354-6.65 41.1197-13.9335l.0609-.0772 5.8572 1.4982c-9.5397 13.429-25.1135 20.1436-46.7215 20.1436-21.6295 0-37.24-6.728-46.8315-20.1838l6.6444-1.6906z" fill="#EAD14D"/><path d="M209.7338 36.3919a159.0736 159.0736 0 00-6.7061 1.6207c-3.4002-4.7584-6.046-10.36-7.9376-16.8049 3.6892-1.9817 6.3654-3.1812 8.0863-3.1812 0 0-.6456 9.601 6.5574 18.3654zm80.8275.2841c7.061-8.8397 5.2855-18.6495 5.2855-18.6495 1.785 0 4.5974 1.2903 8.5043 3.4054-1.8776 6.407-4.5088 11.9755-7.8933 16.7056a157.8645 157.8645 0 00-5.8965-1.4615z" fill="#F2F2F2"/><path d="M413.5843 238.3227c-9.2877 2.2382-19.0646 3.3161-28.7978 2.5926-8.1978-22.369-15.5572-36.883-20.0128-44.7484v270.5774s-21.1022 6.7098-55.8664 11.1104c-.1817-.0197-.363-.0396-.544-.0597 1.8808-54.795 5.7221-166.47 8.2763-240.705 2.0554-59.755 31.0847-95.29 60.099-117.44-2.6753 6.7806-5.0714 14.6063-6.9991 23.6673 7.354 11.8514 24.4358 42.0687 43.8307 94.964.005.014.0097.0277.014.0414zM190.7166 477.7953c-34.2478-4.4014-56.4763-11.051-56.4763-11.051V196.1721c-4.4558 7.8668-11.8138 22.3792-20.0097 44.7432-9.633.716-19.3087-.3323-28.5106-2.5238a1.113 1.113 0 01.0199-.0967c19.3773-52.8475 36.3054-83.0661 43.6098-94.9437-1.929-9.0753-4.3277-16.912-7.0064-23.7011 29.0144 22.15 58.0437 57.685 60.099 117.44 2.5543 74.235 6.3956 185.91 8.2763 240.7053h-.002z" fill-opacity=".1" fill="#000"/><g transform="translate(291 119)"><path d="M18 49c9.9411 0 18-8.0589 18-18V0H0v31c0 9.9411 8.0589 18 18 18z" fill="#F2F2F2"/><path d="M18 47c8.8366 0 16-7.2365 16-16.1633V2H2v28.8367C2 39.7635 9.1634 47 18 47z" fill="#E23232"/><path fill="#FFF" opacity=".6096" d="M4 4h28v5H4z"/><path d="M18 44.9475c7.732 0 14-6.9173 14-14.8296V11.0205H4v19.0974c0 7.9123 6.268 14.8296 14 14.8296z" fill="#F2F2F2"/><circle fill="#E23232" cx="24" cy="32" r="6"/></g></g></svg>