<svg xmlns="http://www.w3.org/2000/svg" width="500" height="500" fill="none" viewBox="0 0 500 500"><g clip-path="url(#clip0_6058_441)"><path fill="#CCB122" fill-rule="evenodd" d="M203.09 109.2h93.64V21.9h-93.64v87.3Z" clip-rule="evenodd"/><path fill="#393939" fill-rule="evenodd" d="M202.95 32.2h93.45V18h-93.45v14.2Z" clip-rule="evenodd"/><path fill="#FFDE2F" fill-rule="evenodd" d="M87.55 75.26S46.78 148.06 29 203.03c4.44 13.38 45.2 40.86 85.23 37.88 13.34-36.4 24.46-52 24.46-52s2.97-95.08-51.14-113.65M411.47 75.26s40.77 72.8 58.55 127.77c-4.44 13.38-45.2 40.86-85.23 37.88-13.34-36.4-24.46-52-24.46-52s-2.96-95.08 51.14-113.65" clip-rule="evenodd"/><path fill="#FFDE2F" fill-rule="evenodd" d="M249.51 57.7c-50.08 0-47.8-39.46-48.74-39.13-7.52 2.61-24.13 14.93-52.44 25.5-31.87 11.88-52.62 19.3-60.78 31.2 11.11 8.9 46.7 28.96 46.7 120.34v271.14s49.65 14.85 114.88 14.85c68.93 0 115.65-14.85 115.65-14.85V195.6c0-91.38 35.58-111.43 46.7-120.35-8.16-11.88-28.91-19.31-60.79-31.2-28.36-10.58-44.98-22.92-52.47-25.5-.93-.33 4.17 39.15-48.7 39.15Z" clip-rule="evenodd"/><path fill="#3D3D3D" fill-rule="evenodd" d="M470.13 203.2c-4.45 13.38-45.2 40.86-85.23 37.89a420.5 420.5 0 0 0-2.84-7.52c20.8-1.36 38-5.64 51.6-12.84 13.42-7.1 24.7-15.58 33.8-25.43.94 2.67 1.83 5.3 2.67 7.9ZM65.43 220.7c13.6 7.2 30.82 11.48 51.64 12.83-.93 2.4-1.88 4.9-2.84 7.52-40.02 2.97-80.79-24.51-85.23-37.89.84-2.58 1.72-5.2 2.65-7.86 9.1 9.83 20.37 18.3 33.78 25.4ZM249.66 63.75c51.47 0 58.27-35.9 58.27-40.38-5.77-3.24-9.72-5.34-12-5.34 0 0 5.88 32.5-46.34 32.5-48.52 0-46.33-32.5-46.33-32.5-2.28 0-6.24 2.1-12 5.34 0 0 7.36 40.38 58.4 40.38" clip-rule="evenodd"/><path fill="#000" fill-opacity=".08" fill-rule="evenodd" d="M413.58 238.32a93.76 93.76 0 0 1-28.8 2.6c-8.2-22.37-15.55-36.89-20-44.75v270.57s-21.1 6.71-55.87 11.12c-.18-.03-.37-.05-.55-.06l8.28-240.71c2.06-59.75 31.08-95.29 60.1-117.44a148.59 148.59 0 0 0-7 23.67c7.35 11.85 24.44 42.07 43.83 94.96l.01.04ZM190.72 477.8c-34.25-4.4-56.48-11.06-56.48-11.06V196.17c-4.46 7.87-11.81 22.38-20 44.75-9.64.71-19.32-.34-28.52-2.53l.02-.1c19.38-52.84 36.3-83.06 43.61-94.94a148.63 148.63 0 0 0-7-23.7c29 22.15 58.04 57.69 60.1 117.44l8.27 240.7Z" clip-rule="evenodd"/><path fill="#000" fill-rule="evenodd" d="M326.4 156.84c-4.63 3.25-10.95 5.22-17.86 5.22s-13.23-1.97-17.86-5.22c-4.63-3.26-7.68-7.9-7.68-13.18 0-5.3 3.05-9.93 7.68-13.18 4.63-3.26 10.95-5.23 17.86-5.23 6.9 0 13.23 1.97 17.86 5.23 4.63 3.25 7.68 7.89 7.68 13.18 0 5.28-3.05 9.92-7.68 13.18Zm-17.86 3.72c13.27 0 24.03-7.57 24.03-16.9 0-9.34-10.76-16.9-24.03-16.9-13.28 0-24.04 7.56-24.04 16.9 0 9.33 10.76 16.9 24.04 16.9Z" clip-rule="evenodd"/><ellipse cx="308.54" cy="143.66" fill="#FFDE2F" rx="24.04" ry="16.9"/><ellipse cx="308.54" cy="143.66" fill="#000" rx="18.78" ry="13.14"/><path fill="#FFDE2F" fill-rule="evenodd" d="M305.53 138.02a7.51 7.51 0 1 0 0-15.02 7.51 7.51 0 0 0 0 15.02Z" clip-rule="evenodd"/><path fill="#000" d="m305.52 128.63-1.86 1.22.75 2.54h2.25l.75-2.54-1.89-1.22Z"/><path fill="#000" fill-rule="evenodd" d="M305.53 138.02a7.51 7.51 0 1 0 0-15.02 7.51 7.51 0 0 0 0 15.02Zm6.68-7.5c0 1.4-.43 2.7-1.17 3.78l-.37-1.02-1.6.76-.77 1.61 1.04.35a6.65 6.65 0 0 1-7.6 0l1.03-.35-.77-1.6-1.6-.77-.36 1.03a6.65 6.65 0 0 1-1.02-5.28l.58.87 1.35-1.15.33-1.75-1.3-.2a6.68 6.68 0 0 1 4.4-2.87l-.51 1.25 1.68.59 1.67-.6-.5-1.23a6.68 6.68 0 0 1 4.37 2.87l-1.49.19.33 1.75 1.35 1.15.77-.86c.1.47.16.97.16 1.47Z" clip-rule="evenodd"/></g><defs><clipPath id="clip0_6058_441"><path fill="#fff" d="M0 0h500v500H0z"/></clipPath></defs></svg>