<?xml version="1.0" encoding="UTF-8"?><svg width="500" height="500" viewBox="0 0 500 500" xmlns="http://www.w3.org/2000/svg"><g fill="none" fill-rule="evenodd"><path d="M0 0h500v500H0z"/><path fill="#D2B235" d="M203.0033 109.223h93.6432V21.928h-93.6432z"/><path fill="#393939" d="M202.8636 32.228h93.4586v-14.2h-93.4586z"/><path d="M87.5475 75.2585s-40.7627 72.8-58.5475 127.77c4.445 13.375 45.2077 40.86 85.2322 37.885 13.3398-36.4 24.4596-52 24.4596-52s2.9633-95.085-51.1443-113.655m323.9252 0s40.7628 72.8 58.5475 127.77c-4.445 13.375-45.2077 40.86-85.2321 37.885-13.3399-36.4-24.4597-52-24.4597-52s-2.9633-95.085 51.1443-113.655" fill="#3D3D3D"/><path d="M249.5111 57.7025c-50.0817 0-47.7981-39.469-48.7426-39.14-7.5158 2.6187-24.1326 14.9368-52.4385 25.495-31.8729 11.885-52.626 19.315-60.7825 31.2 11.1149 8.915 46.6944 28.97 46.6944 120.345v271.14s49.6576 14.855 114.885 14.855c68.9291 0 115.6484-14.855 115.6484-14.855v-271.14c0-91.375 35.5795-111.43 46.6994-120.345-8.1566-11.885-28.9096-19.315-60.7825-31.2-28.3599-10.5767-44.9818-22.9194-52.478-25.5106-.9273-.3184 4.1773 39.1556-48.703 39.1556z" fill="#3D3D3D"/><path d="M113.8229 94.4353c7.2584 9.1944 12.4088 20.3528 16.0609 31.7331L78.5802 236.4382c-9.412-2.9013-18.145-6.8942-25.5916-11.2482L113.823 94.4353zm271.4682 0L446.1254 225.19c-7.4466 4.354-16.1796 8.3469-25.5916 11.2482l-51.3036-110.2698c3.652-11.3803 8.8025-22.5387 16.061-31.733z" fill="#F2CD3F"/><path d="M467.3529 195.129c.9359 2.6665 1.8272 5.303 2.6673 7.8995-4.445 13.375-45.2077 40.86-85.2321 37.885a426.4238 426.4238 0 00-2.8354-7.5198c20.795-1.3576 37.9932-5.6366 51.5944-12.8371 13.4282-7.109 24.6968-15.5848 33.8058-25.4277zm-435.6982.036c9.1031 9.8275 20.3606 18.2914 33.7724 25.3916 13.611 7.2056 30.824 11.4856 51.6393 12.84a426.4196 426.4196 0 00-2.8342 7.5169c-40.0245 2.975-80.7873-24.51-85.2322-37.885.8363-2.5849 1.7234-5.2092 2.6547-7.8635z" fill="#3D3D3D"/><path d="M170.7459 474.7916c-5.4564-.995-10.3952-2.0025-14.7459-2.9578V41.0448c15.4749-6.3881 26.936-13.016 34.921-17.5038v454.2784a470.6007 470.6007 0 01-20.1751-3.0278zm96.7116-425.8774v432.3335a480.7024 480.7024 0 01-18.3305.3498c-5.6546 0-11.1921-.1116-16.5905-.3156V48.886c4.824 1.0198 10.4383 1.6091 16.9721 1.6091 6.9664 0 12.8988-.5784 17.9489-1.5808zm76.4635-7.5V471.971c-9.0825 1.9359-20.8864 4.0909-34.921 5.8703V24.047c8.096 4.5613 19.566 11.102 34.921 17.3671z" fill="#F2CD3F"/><path d="M307.8516 23.345c-5.772-3.24-9.728-5.345-12.0078-5.345 0 0 5.8817 32.495-46.3352 32.495-48.5202 0-46.3352-32.495-46.3352-32.495-2.2798 0-6.2358 2.105-12.0028 5.345 0 0 7.3683 40.38 58.4029 40.38 51.4785 0 58.2781-35.895 58.2781-40.38z" fill="#3D3D3D"/><path d="M413.5843 238.3227c-9.2877 2.2382-19.0646 3.3161-28.7978 2.5926-8.1978-22.369-15.5572-36.883-20.0128-44.7484v270.5774s-21.1022 6.7098-55.8664 11.1104c-.1817-.0197-.363-.0396-.544-.0597 1.8808-54.795 5.7221-166.47 8.2763-240.705 2.0554-59.755 31.0847-95.29 60.099-117.44-2.6753 6.7806-5.0714 14.6063-6.9991 23.6673 7.354 11.8514 24.4358 42.0687 43.8307 94.964.005.014.0097.0277.014.0414zM190.7166 477.7953c-34.2478-4.4014-56.4763-11.051-56.4763-11.051V196.1721c-4.4558 7.8668-11.8138 22.3792-20.0097 44.7432-9.633.716-19.3087-.3323-28.5106-2.5238a1.113 1.113 0 01.0199-.0967c19.3773-52.8475 36.3054-83.0661 43.6098-94.9437-1.929-9.0753-4.3277-16.912-7.0064-23.7011 29.0144 22.15 58.0437 57.685 60.099 117.44 2.5543 74.235 6.3956 185.91 8.2763 240.7053h-.002z" fill-opacity=".1" fill="#000"/><path d="M304.837 166.1866l-.3027-.0722C295.4445 164.0322 289 155.9446 289 146.6194V119.5c5.5456 1.3333 9.9177 1.6667 13.1164 1 3.1986-.6667 5.4932-2 6.8836-4l.1785.2465c1.4047 1.8635 3.6397 3.1146 6.7051 3.7535 3.0884.6437 7.2707.3551 12.5469-.8656L329 119.5v27.1193c0 9.2026-6.276 17.1999-15.1769 19.4098l-.3574.0853c-2.8745.6585-4.3613 1.7332-4.4604 3.2243L309 169.5c0-1.5208-1.3877-2.6253-4.163-3.3134z" fill="#1B1B1B"/><g transform="translate(292.5 124)" fill="#F2DD16"><circle cx="1.5" cy="5.5" r="1.5"/><circle cx="7" cy="5.5" r="1.5"/><circle cx="5" cy="1.5" r="1.5"/><circle cx="10.5" cy="1.5" r="1.5"/><circle cx="13" cy="5.5" r="1.5"/><circle cx="16.5" cy="1.5" r="1.5"/><circle cx="19" cy="5.5" r="1.5"/><circle cx="22.5" cy="1.5" r="1.5"/><circle cx="25" cy="5.5" r="1.5"/><circle cx="31" cy="5.5" r="1.5"/><circle cx="28.5" cy="1.5" r="1.5"/></g><path d="M307 133.5l.0013 31.5352c-.4918-.2275-1.0745-.427-1.748-.5986l-.2724-.0667a17.7229 17.7229 0 01-1.9812-.5898L303 133.5h4zm8 0l.001 30.2798a17.7367 17.7367 0 01-1.6602.5113l-.3217.0788c-.7895.1858-1.4627.4074-2.0196.665L311 133.5h4zm-16 0l-.0004 28.2226c-1.5175-1.0421-2.8644-2.3111-4-3.7549L295 133.5h4zm24 0l.0004 24.4677c-1.1355 1.4436-2.4822 2.7125-3.9996 3.7546L319 133.5h4z" fill="#F2DD16"/></g></svg>