<?xml version="1.0" encoding="UTF-8"?><svg width="500" height="500" viewBox="0 0 500 500" xmlns="http://www.w3.org/2000/svg"><g fill="none" fill-rule="evenodd"><path d="M0 0h500v500H0z"/><path fill="#D3D0CF" d="M203.0033 109.223h93.6432V21.928h-93.6432z"/><path fill="#22539D" d="M202.8636 32.228h93.4586v-14.2h-93.4586z"/><path d="M87.5475 75.2585s-40.7627 72.8-58.5475 127.77c4.445 13.375 45.2077 40.86 85.2322 37.885 13.3398-36.4 24.4596-52 24.4596-52s2.9633-95.085-51.1443-113.655m323.9252 0s40.7628 72.8 58.5475 127.77c-4.445 13.375-45.2077 40.86-85.2321 37.885-13.3399-36.4-24.4597-52-24.4597-52s-2.9633-95.085 51.1443-113.655" fill="#2C66BC"/><path d="M249.5111 57.7025c-50.0817 0-47.7981-39.469-48.7426-39.14-7.5158 2.6187-24.1326 14.9368-52.4385 25.495-31.8729 11.885-52.626 19.315-60.7825 31.2 11.1149 8.915 46.6944 28.97 46.6944 120.345v271.14s49.6576 14.855 114.885 14.855c68.9291 0 115.6484-14.855 115.6484-14.855v-271.14c0-91.375 35.5795-111.43 46.6994-120.345-8.1566-11.885-28.9096-19.315-60.7825-31.2-28.3599-10.5767-44.9818-22.9194-52.478-25.5106-.9273-.3184 4.1773 39.1556-48.703 39.1556z" fill="#2C66BC"/><path d="M293.8907 36.9557C341.4061 48.0872 369 76.3371 369 105.242v41.277c-2.0522 10.5821-3.4767 22.7728-4 36.846v-78.123c0-17.1288-10.617-34.0605-29.8476-46.8864-11.9204-7.9502-26.607-14.004-43.3966-17.7955a33.1668 33.1668 0 002.1349-3.6043zM130 146.3992v-41.1573c0-29.0891 27.947-57.5149 76.0206-68.4925a36.813 36.813 0 002.2191 3.5953c-17.2092 3.7735-32.2384 9.9068-44.3922 18.012C144.617 71.1815 134 88.113 134 105.242v77.5148c-.5434-13.8695-1.965-25.9003-4-36.3575z" fill="#F2F2F2" fill-rule="nonzero"/><path d="M291.266 35.7207c-5.5205 7.6041-17.229 14.7743-41.7574 14.7743-23.176 0-34.7832-7.4139-40.5858-15.159-6.3455-8.47-16.4684-4.9556-11.2611 3.2418 7.268 11.4416 22.1794 25.1472 51.9118 25.1472 31.5925 0 46.3575-13.5192 53.0505-25.0006 4.213-7.2271-5.1264-11.5876-11.358-3.0037z" fill="#5187D6"/><path d="M413.5843 238.3227c-9.2877 2.2382-19.0646 3.3161-28.7978 2.5926-8.1978-22.369-15.5572-36.883-20.0128-44.7484v270.5774s-21.1022 6.7098-55.8664 11.1104c-.1817-.0197-.363-.0396-.544-.0597 1.8808-54.795 5.7221-166.47 8.2763-240.705 2.0554-59.755 31.0847-95.29 60.099-117.44-2.6753 6.7806-5.0714 14.6063-6.9991 23.6673 7.354 11.8514 24.4358 42.0687 43.8307 94.964.005.014.0097.0277.014.0414zM190.7166 477.7953c-34.2478-4.4014-56.4763-11.051-56.4763-11.051V196.1721c-4.4558 7.8668-11.8138 22.3792-20.0097 44.7432-9.633.716-19.3087-.3323-28.5106-2.5238a1.113 1.113 0 01.0199-.0967c19.3773-52.8475 36.3054-83.0661 43.6098-94.9437-1.929-9.0753-4.3277-16.912-7.0064-23.7011 29.0144 22.15 58.0437 57.685 60.099 117.44 2.5543 74.235 6.3956 185.91 8.2763 240.7053h-.002z" fill-opacity=".1" fill="#000"/><path d="M197.818 38.8443c-5.3355-8.2997-6.6444-15.4728-6.6444-15.4728 5.767-3.24 9.723-5.345 12.0028-5.345 0 0-.6112 9.0897 5.9913 17.6542l-11.3497 3.1636zm93.242-2.8135c6.4772-8.665 4.7868-18.0043 4.7868-18.0043 2.2798 0 6.2359 2.105 12.0078 5.345 0 1.7675-1.056 8.413-5.4862 15.8173l-11.3084-3.158z" fill="#2C66BC"/><path d="M309 120l20 6.9c0 20.7-10.7647 34.5-20 39.1-9.2353-4.6-20-18.4-20-39.1l20-6.9z" fill="#0099B7"/><path d="M309 123l17.2727 6c0 18-10.1604 30-17.2727 34-7.1123-4-17.2727-16-17.2727-34L309 123z" fill="#FFF"/><path d="M309 125l15 5.4c-1 16.2-7.8235 26-15 30.6-7.1765-4.6-14-14.4-15-30.6l15-5.4z" fill="#C4000E"/><path d="M309 125l15 5.4c-1 16.2-7.8235 26-15 30.6-7.1765-4.6-14-14.4-15-30.6l15-5.4z" fill="#C4000E"/><path d="M309 126l14 5.1c-.9333 15.3-7.302 24.5556-14 28.9-6.698-4.3444-13.0667-13.6-14-28.9l14-5.1z" fill="#08B731"/><path fill="#DAF4E0" d="M300 132h18v10h-18z"/><circle fill="#FFF" cx="309" cy="150" r="5"/><circle fill="#D2D2D2" cx="309" cy="150" r="4"/></g></svg>