<?xml version="1.0" encoding="UTF-8"?><svg width="500" height="500" viewBox="0 0 500 500" fill="none" xmlns="http://www.w3.org/2000/svg"><path fill-rule="evenodd" clip-rule="evenodd" d="M203.008 109.193h93.643V21.898h-93.643v87.295Z" fill="silver"/><path fill-rule="evenodd" clip-rule="evenodd" d="M202.867 32.198h93.459v-14.2h-93.459v14.2Z" fill="#D9D9D9"/><path fill-rule="evenodd" clip-rule="evenodd" d="M87.547 75.26S46.785 148.06 29 203.03c4.445 13.375 45.207 40.86 85.232 37.885 13.339-36.4 24.459-52 24.459-52S141.654 93.83 87.547 75.26Zm323.927 0s40.762 72.8 58.547 127.771c-4.445 13.375-45.208 40.86-85.232 37.885-13.34-36.4-24.459-52-24.459-52S357.366 93.83 411.474 75.26Z" fill="#F2F2F2"/><path fill-rule="evenodd" clip-rule="evenodd" d="M249.514 57.706c-50.081 0-47.798-39.469-48.742-39.14-7.516 2.62-24.133 14.937-52.439 25.495-31.873 11.885-52.626 19.315-60.782 31.2 11.115 8.915 46.694 28.97 46.694 120.345v271.14s49.658 14.855 114.885 14.855c68.929 0 115.649-14.855 115.649-14.855v-271.14c0-91.375 35.579-111.43 46.699-120.345-8.157-11.885-28.91-19.315-60.783-31.2-28.359-10.576-44.981-22.919-52.478-25.508-.927-.32 4.178 39.153-48.703 39.153Z" fill="#008052"/><path d="M90.5 81 134 196.5l9-14.5 10-107.5 22-11 34.5-9.5 31.5 7.5h19.5l21-7.5 21.5 2 37.5 12.5 13.5 108 11 20 19-22L411 81l-14.5-12.5-93-43L286 49l-36 9.5-38-9.5-19.5-23.5L161 41 98.5 68.5l-8 12.5Z" fill="#F2F2F2"/><path fill-rule="evenodd" clip-rule="evenodd" d="M260.779 57h.971v424.402a481.16 481.16 0 0 1-12.62.166c-4.367 0-8.663-.067-12.88-.191V57h2.551c3.275.436 6.837.672 10.713.672 4.092 0 7.838-.236 11.265-.672ZM358.5 468.489c-5.138 1.358-13.299 3.332-24 5.337V70h15.376c3.433 3.36 6.316 6.679 8.624 9.831V468.49Zm-49.5 9.323a471.304 471.304 0 0 1-25.5 2.525V50H309v427.812Zm-94.5 2.4a473.327 473.327 0 0 1-25.5-2.673V50h25.5v430.212Zm-51-6.761c-10.824-2.049-19.065-4.028-24-5.305V81.242c2.455-3.565 5.677-7.377 9.626-11.242H163.5v403.451Z" fill="#F2F2F2"/><path fill-rule="evenodd" clip-rule="evenodd" d="M295.954 36.948a41.56 41.56 0 0 1-.272 2.178c6.43 1.23 22.221 14.397 51.579 25.727 17.238 6.65 35.731 21.517 40.167 34.147-5.142 7.517-10.15 17.305-14.144 30.247-8.064-8.264-18.909-16.83-32.263-24.403l.001-28c-18.451-10.463-41.691-19.03-69-22.284 12.27-3.97 18.7-11.149 22.099-18.06.613.146 1.224.296 1.833.448Zm-184.309 62.12c2.536-6.371 5.868-11.522 9.781-15.794a137.383 137.383 0 0 1 3.357-3.334c7.684-6.95 17.098-11.292 26.934-15.087 29.359-11.33 45.835-24.634 52.265-25.864-.118-.788-.22-1.51-.307-2.167.701-.173 1.406-.343 2.114-.51 3.63 6.924 10.136 14.148 21.975 18.17-28.728 3.324-52.982 12.53-71.928 23.67v28c-12.359 7.266-22.46 15.355-30.071 23.171-3.986-12.94-8.985-22.732-14.12-30.255Z" fill="#F2F2F2"/><path fill-rule="evenodd" clip-rule="evenodd" d="M75.025 117.298c10.132-20.75 17.944-35.245 17.944-35.245 7.882-11.885 27.937-19.315 58.747-31.2 29.359-11.33 45.835-24.635 52.265-25.865-.678-4.5-.798-6.882-.804-6.97-5.927 0-22.98 14.025-54.853 25.91-31.868 11.89-52.62 19.315-60.773 31.2 0 0-8.23 14.76-18.857 35.825 0 0-28.706 57.334-39.694 92.074 0 0 .45 1.587 2.123 4.055 1.673 2.468 2.807 3.397 2.807 3.397 12.579-35.527 41.095-93.181 41.095-93.181Zm348.939.025c-10.132-20.75-17.957-35.27-17.957-35.27-7.883-11.885-27.937-19.315-58.747-31.2-29.359-11.33-45.149-24.497-51.58-25.727.679-4.5.325-6.505.189-7.038 5.927 0 22.91 13.955 54.783 25.84 31.868 11.89 52.621 19.315 60.772 31.2 0 0 8.232 14.76 18.858 35.826 0 0 27.583 54.456 39.738 92.074 0 0-.737 1.975-1.458 3.087-.721 1.113-2.385 3.188-2.385 3.188-27.641-65.988-42.213-91.98-42.213-91.98Z" fill="#F2F2F2"/><path fill-rule="evenodd" clip-rule="evenodd" d="M467.463 195.303a337.912 337.912 0 0 1 2.667 7.899c-4.445 13.375-45.208 40.86-85.232 37.885a426.372 426.372 0 0 0-2.836-7.52c20.796-1.357 37.994-5.636 51.595-12.837 13.428-7.109 24.697-15.584 33.806-25.427Zm-435.808 0c9.103 9.827 20.36 18.291 33.772 25.391 13.611 7.206 30.824 11.486 51.639 12.84-.931 2.4-1.877 4.905-2.834 7.517-40.024 2.975-80.787-24.51-85.232-37.885a337.92 337.92 0 0 1 2.655-7.863Z" fill="#F2F2F2"/><path d="M200.5 53.5c-8-8-13-18-15-27l5.5-3L214.5 50l-14 3.5Zm99.5.5c9-9 12.5-16.5 14.5-27l-11-6L286 50.5l14 3.5Z" fill="#008052"/><path fill-rule="evenodd" clip-rule="evenodd" d="M249.575 63.752c51.478 0 58.278-35.895 58.278-40.38-5.772-3.24-9.728-5.345-12.008-5.345 0 0 5.882 32.495-46.335 32.495-48.52 0-46.335-32.495-46.335-32.495-2.28 0-6.236 2.105-12.003 5.345 0 0 7.368 40.38 58.403 40.38Z" fill="#F2F2F2"/><path fill-rule="evenodd" clip-rule="evenodd" d="M413.584 238.323c-9.287 2.238-19.064 3.316-28.798 2.592-8.197-22.369-15.557-36.883-20.012-44.748v270.577s-21.102 6.71-55.867 11.111l-.544-.06c1.881-54.795 5.722-166.47 8.277-240.705 2.055-59.755 31.084-95.29 60.099-117.44-2.676 6.781-5.072 14.606-7 23.667 7.354 11.852 24.436 42.069 43.831 94.964l.014.042ZM190.717 477.795c-34.248-4.401-56.477-11.051-56.477-11.051V196.172c-4.456 7.867-11.813 22.379-20.009 44.743-9.633.716-19.31-.332-28.511-2.524.005-.032.012-.064.02-.096 19.377-52.848 36.305-83.066 43.61-94.944-1.929-9.075-4.328-16.912-7.007-23.701 29.015 22.15 58.044 57.685 60.099 117.44 2.555 74.235 6.396 185.91 8.277 240.705h-.002Z" fill="#000" fill-opacity=".1"/><path fill-rule="evenodd" clip-rule="evenodd" d="M295.054 126.37s10.771-.808 13.946-.808c3.175 0 13.946.808 13.946.808 2.145 2.424 5.364 4.04 5.364 4.04C328.31 156.491 309 170 309 170s-19.31-13.509-19.31-39.59c0 0 3.218-1.616 5.364-4.04Z" fill="#fff"/><path fill-rule="evenodd" clip-rule="evenodd" d="M297.843 129.633s8.617-.653 11.157-.653c2.54 0 11.157.653 11.157.653 1.716 1.958 4.291 3.263 4.291 3.263 0 21.066-15.448 31.976-15.448 31.976s-15.448-10.911-15.448-31.976c0 0 2.575-1.305 4.291-3.263Z" fill="#008052"/><path d="m297.414 136.671 2.186-3.496 9.181-.777 9.619.777 2.186 3.496-11.805-.777-11.367.777Z" fill="#fff"/><path fill-rule="evenodd" clip-rule="evenodd" d="M298.378 140.063c2.122 13.026 10.656 19.743 10.656 19.743s8.532-6.715 10.656-19.737l-10.896-.835-10.416.829Z" fill="#fff"/><path d="M302.724 138.382h3.862v20.082l-3.862-2.136v-17.946Zm12.552 0h-3.862v20.082l3.862-2.136v-17.946Z" fill="#008052"/><path d="m293.72 158.364-2.962-7.49h36.484l-2.962 7.49h-30.56Zm26.866-29.71h2.322l-1.107-2.041-2.317-4.273-.392-.723h-20.184l-.392.723-2.317 4.273-1.107 2.041h25.494Z" fill="#008052" stroke="#fff" stroke-width="2.765"/></svg>