<?xml version="1.0" encoding="UTF-8"?><svg width="500" height="500" viewBox="0 0 500 500" xmlns="http://www.w3.org/2000/svg"><g fill="none" fill-rule="evenodd"><path d="M0 0h500v500H0z"/><path fill="#6A1E2E" d="M203.0033 109.223h93.6432V21.928h-93.6432z"/><path fill="#E3E3E3" d="M202.8636 32.228h93.4586v-14.2h-93.4586z"/><path d="M87.5475 75.2585s-40.7627 72.8-58.5475 127.77c4.445 13.375 45.2077 40.86 85.2322 37.885 13.3398-36.4 24.4596-52 24.4596-52s2.9633-95.085-51.1443-113.655m323.9252 0s40.7628 72.8 58.5475 127.77c-4.445 13.375-45.2077 40.86-85.2321 37.885-13.3399-36.4-24.4597-52-24.4597-52s-2.9633-95.085 51.1443-113.655" fill="#882B3E"/><path d="M249.5111 57.7025c-50.0817 0-47.7981-39.469-48.7426-39.14-7.5158 2.6187-24.1326 14.9368-52.4385 25.495-31.8729 11.885-52.626 19.315-60.7825 31.2 11.1149 8.915 46.6944 28.97 46.6944 120.345v271.14s49.6576 14.855 114.885 14.855c68.9291 0 115.6484-14.855 115.6484-14.855v-271.14c0-91.375 35.5795-111.43 46.6994-120.345-8.1566-11.885-28.9096-19.315-60.7825-31.2-28.3599-10.5767-44.9818-22.9194-52.478-25.5106-.9273-.3184 4.1773 39.1556-48.703 39.1556z" fill="#882B3E"/><path d="M467.3529 195.129c.9359 2.6665 1.8272 5.303 2.6673 7.8995-4.445 13.375-45.2077 40.86-85.2321 37.885a426.4238 426.4238 0 00-2.8354-7.5198c20.795-1.3576 37.9932-5.6366 51.5944-12.8371 13.4282-7.109 24.6968-15.5848 33.8058-25.4277zm-435.6982.036c9.1031 9.8275 20.3606 18.2914 33.7724 25.3916 13.611 7.2056 30.824 11.4856 51.6393 12.84a426.4196 426.4196 0 00-2.8342 7.5169c-40.0245 2.975-80.7873-24.51-85.2322-37.885.8363-2.5849 1.7234-5.2092 2.6547-7.8635zm276.1969-171.82c-5.772-3.24-9.728-5.345-12.0078-5.345 0 0 5.8817 32.495-46.3352 32.495-48.5202 0-46.3352-32.495-46.3352-32.495-2.2798 0-6.2358 2.105-12.0028 5.345 0 0 7.3683 40.38 58.4029 40.38 51.4785 0 58.2781-35.895 58.2781-40.38z" fill="#F2F2F2"/><path d="M413.5843 238.3227c-9.2877 2.2382-19.0646 3.3161-28.7978 2.5926-8.1978-22.369-15.5572-36.883-20.0128-44.7484v270.5774s-21.1022 6.7098-55.8664 11.1104c-.1817-.0197-.363-.0396-.544-.0597 1.8808-54.795 5.7221-166.47 8.2763-240.705 2.0554-59.755 31.0847-95.29 60.099-117.44-2.6753 6.7806-5.0714 14.6063-6.9991 23.6673 7.354 11.8514 24.4358 42.0687 43.8307 94.964.005.014.0097.0277.014.0414zM190.7166 477.7953c-34.2478-4.4014-56.4763-11.051-56.4763-11.051V196.1721c-4.4558 7.8668-11.8138 22.3792-20.0097 44.7432-9.633.716-19.3087-.3323-28.5106-2.5238a1.113 1.113 0 01.0199-.0967c19.3773-52.8475 36.3054-83.0661 43.6098-94.9437-1.929-9.0753-4.3277-16.912-7.0064-23.7011 29.0144 22.15 58.0437 57.685 60.099 117.44 2.5543 74.235 6.3956 185.91 8.2763 240.7053h-.002z" fill-opacity=".08" fill="#000"/><g transform="translate(289 114)"><path d="M20 58c11.0457 0 20-8.9974 20-20.0962V9H0v28.9038C0 49.0026 8.9543 58 20 58z" fill="#F2F2F2"/><path d="M20 16c4.9706 0 9-2.0294 9-7s-4.0294-9-9-9-9 4.0294-9 9 4.0294 7 9 7z" fill="#F2F2F2"/><rect fill="#DFBD58" x="13" y="2" width="14" height="18.6667" rx="7"/><rect fill="#57A25D" x="13" y="2" width="11" height="18.6667" rx="5.5"/><path d="M35 17.8243v18.9786c0 8.324-6.7157 15.0721-15 15.0721-4.4303 0-8.412-1.9299-11.1578-4.9986L35 17.8243zm-5.643-2.7L5.7073 41.3898a15.1017 15.1017 0 01-.6982-4.056L5 36.8028V15.125l24.357-.0007z" fill="#DFBD58"/><path d="M35 17.8243V25h-2.8776c.6667 3.7597 1 7.7183 1 11.876 0 5.8722-5.8442 6.2152-11.9787 6.2352l-1.7196.001c-2.4209-.002-4.8073-.0292-6.8316-.4008L35 17.8243zm-5.643-2.7L7.4756 39.4275C7.1674 38.7211 7 37.8792 7 36.876c0-2.9537.3037-6.695.9112-11.2237L8 25H5v-9.875l24.357-.0007z" fill="#BB3434"/><rect fill="#4E55AE" x="17" y="25" width="6" height="12" rx="3"/></g></g></svg>