<?xml version="1.0" encoding="utf-8"?><svg width="500" height="500" viewBox="0 0 500 500" fill="none" xmlns="http://www.w3.org/2000/svg"><path fill-rule="evenodd" clip-rule="evenodd" d="M203.003 109.223h93.644V21.928h-93.644v87.295z" fill="#C7471F"/><path fill-rule="evenodd" clip-rule="evenodd" d="M202.864 32.228h93.458v-14.2h-93.458v14.2z" fill="#1C3964"/><path fill-rule="evenodd" clip-rule="evenodd" d="M87.547 75.258S46.785 148.058 29 203.029c4.445 13.375 45.208 40.86 85.232 37.885 13.34-36.4 24.46-52 24.46-52s2.963-95.085-51.145-113.655zm323.925 0s40.763 72.8 58.548 127.77c-4.445 13.375-45.208 40.86-85.232 37.885-13.34-36.4-24.46-52-24.46-52s-2.963-95.085 51.144-113.655z" fill="#E05427"/><path fill-rule="evenodd" clip-rule="evenodd" d="M249.511 57.703c-50.082 0-47.798-39.47-48.743-39.14-7.516 2.618-24.132 14.936-52.438 25.494-31.873 11.886-52.626 19.316-60.783 31.2 11.115 8.915 46.695 28.97 46.695 120.345v271.14s49.657 14.856 114.885 14.856c68.929 0 115.648-14.856 115.648-14.856v-271.14c0-91.375 35.58-111.43 46.699-120.345-8.156-11.885-28.909-19.315-60.782-31.2-28.36-10.576-44.982-22.919-52.478-25.508-.927-.32 4.177 39.154-48.703 39.154z" fill="#E05427"/><path fill-rule="evenodd" clip-rule="evenodd" d="M467.461 195.302a338.05 338.05 0 012.668 7.9c-4.445 13.375-45.208 40.86-85.233 37.885a413.1 413.1 0 00-2.835-7.52c20.795-1.358 37.993-5.637 51.594-12.837 13.429-7.109 24.697-15.585 33.806-25.428zm-435.806 0c9.103 9.828 20.36 18.291 33.772 25.392 13.611 7.205 30.824 11.485 51.639 12.84a423.042 423.042 0 00-2.834 7.516C74.208 244.025 33.445 216.54 29 203.165a339.518 339.518 0 012.655-7.863zM307.851 23.345c-5.772-3.24-9.728-5.345-12.007-5.345 0 0 5.881 32.495-46.336 32.495-48.52 0-46.335-32.495-46.335-32.495-2.28 0-6.236 2.105-12.003 5.345 0 0 7.369 40.38 58.403 40.38 51.479 0 58.278-35.895 58.278-40.38z" fill="#274776"/><path fill-rule="evenodd" clip-rule="evenodd" d="M413.584 238.323c-9.287 2.238-19.064 3.316-28.797 2.592-8.198-22.369-15.558-36.883-20.013-44.748v270.577s-21.102 6.71-55.866 11.111l-.544-.06c1.88-54.795 5.722-166.47 8.276-240.705 2.055-59.755 31.085-95.29 60.099-117.44-2.675 6.781-5.072 14.606-6.999 23.667 7.354 11.852 24.435 42.069 43.83 94.964l.014.042zM190.717 477.795c-34.248-4.401-56.476-11.051-56.476-11.051V196.172c-4.456 7.867-11.814 22.379-20.01 44.743-9.633.716-19.309-.332-28.51-2.523a.557.557 0 01.02-.097c19.376-52.848 36.305-83.066 43.609-94.944-1.929-9.075-4.328-16.912-7.006-23.701 29.014 22.15 58.043 57.685 60.099 117.44 2.554 74.235 6.395 185.91 8.276 240.705h-.002z" fill="#000" fill-opacity=".07"/><path d="M292 121h34v29.44c0 6.44-17 16.56-17 16.56s-17-10.12-17-16.56V121z" fill="#F2F2F2"/><path d="M294 123h30v26.88c0 5.88-15 15.12-15 15.12s-15-9.24-15-15.12V123z" fill="#1E4682"/><path fill="#F2F2F2" d="M297 130h24v10h-24z"/><path d="M303.521 159c-3.552-2.873-7.521-6.74-7.521-9.68V147h26v2.32c0 2.94-3.969 6.807-7.521 9.68h-10.958z" fill="#5B88CB"/><path fill="#F2F2F2" d="M302 120h14v6h-14z"/><path fill="#E03227" d="M303 121h12v4h-12z"/></svg>