<?xml version="1.0" encoding="utf-8"?><svg width="500" height="500" viewBox="0 0 500 500" fill="none" xmlns="http://www.w3.org/2000/svg"><path fill-rule="evenodd" clip-rule="evenodd" d="M203.003 109.223h93.644V21.928h-93.644v87.295z" fill="#D9D9D9"/><path fill-rule="evenodd" clip-rule="evenodd" d="M202.864 32.228h93.458v-14.2h-93.458v14.2z" fill="#DCDCDC"/><path fill-rule="evenodd" clip-rule="evenodd" d="M87.547 75.258S46.785 148.06 29 203.03c4.445 13.375 45.208 40.86 85.232 37.885 13.34-36.4 24.46-52 24.46-52S141.655 93.83 87.547 75.26zm323.925 0s40.763 72.801 58.548 127.771c-4.445 13.375-45.208 40.86-85.232 37.885-13.34-36.4-24.46-52-24.46-52s-2.963-95.085 51.144-113.655z" fill="#F2F2F2"/><path fill-rule="evenodd" clip-rule="evenodd" d="M249.511 57.703c-50.082 0-47.798-39.47-48.743-39.14-7.516 2.618-24.132 14.936-52.438 25.494-31.873 11.886-52.626 19.316-60.783 31.2 11.115 8.915 46.695 28.97 46.695 120.345v271.14s49.657 14.856 114.885 14.856c68.929 0 115.648-14.856 115.648-14.856v-271.14c0-91.375 35.58-111.43 46.699-120.345-8.156-11.885-28.909-19.315-60.782-31.2-28.36-10.576-44.982-22.919-52.478-25.508-.927-.32 4.177 39.154-48.703 39.154z" fill="#F2F2F2"/><path fill-rule="evenodd" clip-rule="evenodd" d="M467.461 195.302a338.05 338.05 0 012.668 7.9c-4.445 13.375-45.208 40.86-85.233 37.885a413.1 413.1 0 00-2.835-7.52c20.795-1.358 37.993-5.637 51.594-12.837 13.429-7.109 24.697-15.585 33.806-25.428zm-435.806 0c9.103 9.828 20.36 18.291 33.772 25.392 13.611 7.205 30.824 11.485 51.639 12.84a423.042 423.042 0 00-2.834 7.516C74.208 244.025 33.445 216.54 29 203.165a339.518 339.518 0 012.655-7.863z" fill="#F6533C"/><path fill-rule="evenodd" clip-rule="evenodd" d="M468.542 198.572l-.129.135c-11.319 12.102-23.949 21.258-37.892 27.465-14.449 6.434-30.308 9.701-47.576 9.804a391.998 391.998 0 00-2.132-5.485c17.149-.138 32.905-3.405 47.267-9.8 14.153-6.301 26.954-15.64 38.403-28.015.71 1.982 1.398 3.948 2.059 5.896zM71.155 220.691c14.303 6.368 29.987 9.635 47.052 9.8l-.846 2.148c-.425 1.089-.853 2.2-1.284 3.333-17.186-.126-32.973-3.393-47.363-9.8-14.06-6.26-26.786-15.517-38.177-27.771.662-1.947 1.35-3.911 2.06-5.891 11.489 12.457 24.341 21.851 38.558 28.181z" fill="#425373"/><path fill-rule="evenodd" clip-rule="evenodd" d="M307.851 23.345c-5.772-3.24-9.728-5.345-12.007-5.345 0 0 5.881 32.495-46.336 32.495-48.52 0-46.335-32.495-46.335-32.495-2.28 0-6.236 2.105-12.003 5.345 0 0 7.369 40.38 58.403 40.38 51.479 0 58.278-35.895 58.278-40.38z" fill="#F2F2F2"/><path fill-rule="evenodd" clip-rule="evenodd" d="M413.584 238.323c-9.287 2.238-19.064 3.316-28.797 2.592-8.198-22.369-15.558-36.883-20.013-44.748v270.577s-21.102 6.71-55.866 11.111l-.544-.06c1.88-54.795 5.722-166.47 8.276-240.705 2.055-59.755 31.085-95.29 60.099-117.44-2.675 6.781-5.072 14.606-6.999 23.667 7.354 11.852 24.435 42.069 43.83 94.964l.014.042zM190.717 477.795c-34.248-4.401-56.476-11.051-56.476-11.051V196.172c-4.456 7.867-11.814 22.379-20.01 44.743-9.633.716-19.309-.332-28.51-2.523a.557.557 0 01.02-.097c19.376-52.848 36.305-83.066 43.609-94.944-1.929-9.075-4.328-16.912-7.006-23.701 29.014 22.15 58.043 57.685 60.099 117.44 2.554 74.235 6.395 185.91 8.276 240.705h-.002z" fill="#000" fill-opacity=".06"/><path d="M309 173s-21-12.5-21-27.5v-21.137c11.712 2.738 21-1.363 21-1.363s9.288 4.101 21 1.363V145.5c0 15-21 27.5-21 27.5z" fill="#425373"/><path d="M308.908 171s-18.963-11.5-18.963-25.3v-19.446c10.576 2.519 18.963-1.254 18.963-1.254s8.388 3.773 18.964 1.254V145.7c0 13.8-18.964 25.3-18.964 25.3z" fill="#F2F2F2"/><path d="M309.323 158c-5.323-1-11.598-4.487-11.598-11.667V132h22.367v14.333c0 7.18-5.799 10.667-10.769 11.667z" fill="#425373"/><path d="M309.333 156c-4.283-.846-9.333-3.797-9.333-9.872V134h18v12.128c0 6.075-4.667 9.026-8.667 9.872z" fill="#ADBBD4"/><path d="M309 114l1.2 2.104 2.336-.64-.64 2.336L314 119l-2.104 1.2.64 2.336-2.336-.64L309 124l-1.2-2.104-2.336.64.64-2.336L304 119l2.104-1.2-.64-2.336 2.336.64L309 114z" fill="#425373"/><path d="M309 116l.72 1.262 1.401-.383-.383 1.401L312 119l-1.262.72.383 1.401-1.401-.383L309 122l-.72-1.262-1.401.383.383-1.401L306 119l1.262-.72-.383-1.401 1.401.383L309 116z" fill="#F2F2F2"/></svg>