<?xml version="1.0" encoding="UTF-8"?><svg width="500" height="500" viewBox="0 0 500 500" xmlns="http://www.w3.org/2000/svg"><g fill="none" fill-rule="evenodd"><path d="M0 0h500v500H0z"/><path fill="#036B54" d="M203.0033 109.223h93.6432V21.928h-93.6432z"/><path fill="#D6E3E0" d="M202.8636 32.228h93.4586v-14.2h-93.4586z"/><path d="M87.5475 75.2585s-40.7627 72.8-58.5475 127.77c4.445 13.375 45.2077 40.86 85.2322 37.885 13.3398-36.4 24.4596-52 24.4596-52s2.9633-95.085-51.1443-113.655m323.9252 0s40.7628 72.8 58.5475 127.77c-4.445 13.375-45.2077 40.86-85.2321 37.885-13.3399-36.4-24.4597-52-24.4597-52s-2.9633-95.085 51.1443-113.655" fill="#058367"/><path d="M249.5111 57.7025c-50.0817 0-47.7981-39.469-48.7426-39.14-7.5158 2.6187-24.1326 14.9368-52.4385 25.495-31.8729 11.885-52.626 19.315-60.7825 31.2 11.1149 8.915 46.6944 28.97 46.6944 120.345v271.14s49.6576 14.855 114.885 14.855c68.9291 0 115.6484-14.855 115.6484-14.855v-271.14c0-91.375 35.5795-111.43 46.6994-120.345-8.1566-11.885-28.9096-19.315-60.7825-31.2-28.3599-10.5767-44.9818-22.9194-52.478-25.5106-.9273-.3184 4.1773 39.1556-48.703 39.1556z" fill="#058367"/><path d="M307.8516 23.345c-5.772-3.24-9.728-5.345-12.0078-5.345 0 0 5.8817 32.495-46.3352 32.495-48.5202 0-46.3352-32.495-46.3352-32.495-2.2798 0-6.2358 2.105-12.0028 5.345 0 0 7.3683 40.38 58.4029 40.38 51.4785 0 58.2781-35.895 58.2781-40.38z" fill="#E4F3EF"/><path d="M468.5418 198.5716l-.1294.1355c-11.3183 12.1024-23.9489 21.2575-37.8917 27.4653-14.4493 6.4332-30.308 9.7011-47.576 9.8036a408.3274 408.3274 0 00-2.1314-5.4853c17.1487-.1377 32.9041-3.4048 47.267-9.7996 14.153-6.3013 26.954-15.6396 38.4028-28.0148a374.0064 374.0064 0 012.0587 5.8953z" fill="#FFE200"/><path d="M466.483 192.6774l-.511.5484c-11.3183 12.1025-23.9489 21.2576-37.8917 27.4653-14.363 6.3948-30.1186 9.662-47.2668 9.8014a373.7146 373.7146 0 00-2.2254-5.484c17.0648-.164 32.7488-3.4306 47.0518-9.7987 14.2789-6.3573 27.1815-15.8059 38.7078-28.3455a403.0307 403.0307 0 012.1353 5.813zM73.5954 215.2098c14.243 6.3414 29.8553 9.6072 46.837 9.7973a383.3382 383.3382 0 00-2.2247 5.4816c-17.0658-.163-32.7497-3.4295-47.0527-9.7976-14.2167-6.3297-27.069-15.7236-38.557-28.1818a418.8399 418.8399 0 012.1358-5.8124c11.5658 12.6232 24.5194 22.1274 38.8616 28.513z" fill="#D7290F"/><path d="M71.155 220.6911c14.303 6.3681 29.987 9.6346 47.0518 9.7995l-.8455 2.1482a413.6233 413.6233 0 00-1.2844 3.3337c-17.1855-.126-32.9728-3.3935-47.3623-9.8001-14.0603-6.26-26.786-15.5173-38.1774-27.7717a363.3654 363.3654 0 012.06-5.8904c11.4888 12.4572 24.3411 21.8511 38.5578 28.1808z" fill="#FFE200"/><path d="M413.5843 238.3227c-9.2877 2.2382-19.0646 3.3161-28.7978 2.5926-8.1978-22.369-15.5572-36.883-20.0128-44.7484v270.5774s-21.1022 6.7098-55.8664 11.1104c-.1817-.0197-.363-.0396-.544-.0597 1.8808-54.795 5.7221-166.47 8.2763-240.705 2.0554-59.755 31.0847-95.29 60.099-117.44-2.6753 6.7806-5.0714 14.6063-6.9991 23.6673 7.354 11.8514 24.4358 42.0687 43.8307 94.964.005.014.0097.0277.014.0414zM190.7166 477.7953c-34.2478-4.4014-56.4763-11.051-56.4763-11.051V196.1721c-4.4558 7.8668-11.8138 22.3792-20.0097 44.7432-9.633.716-19.3087-.3323-28.5106-2.5238a1.113 1.113 0 01.0199-.0967c19.3773-52.8475 36.3054-83.0661 43.6098-94.9437-1.929-9.0753-4.3277-16.912-7.0064-23.7011 29.0144 22.15 58.0437 57.685 60.099 117.44 2.5543 74.235 6.3956 185.91 8.2763 240.7053h-.002z" fill-opacity=".06" fill="#000"/><g transform="translate(289.3142 121)"><path d="M19.6858 40c-6.9817-1.25-16-6.8813-16-15.8958 0-9.0145 5.9132-13.6687 0-21.6042L7.3781 0c4.5189 1.6071 8.495 1.6645 11.9284.1722L19.6858 0l.3793.1722c3.3062 1.437 7.1158 1.437 11.4285 0L31.9935 0l3.6923 2.5c-5.9132 7.9355 0 12.5897 0 21.6042 0 8.8736-8.7386 14.469-15.6713 15.834L19.6858 40z" fill="#997D32"/><path d="M19.6858 37.5667c-5.8715-2-13.5-6.179-13.5-14.0667 0-7.8877 5.3045-12.8005.5-19.744l2-1.756c3.6716 1.4063 7.9022 1.4565 10.6919.1507L19.6858 2l.3082.1507c2.6863 1.2574 6.7815 1.2574 10.2857 0L30.6858 2l2 1.756c-4.8045 6.9435.5 11.8563.5 19.744 0 7.7644-7.6285 12.0667-13.5 14.0667z" fill="#FFE200"/><path d="M30.6858 2l2 1.756c-.4674.6754-.8391 1.3317-1.1293 1.9734L7.406 16.3374l.4754-1.6825c.989-3.5951 1.5629-6.9123-1.1956-10.899l2-1.7559c3.6716 1.4063 7.9022 1.4565 10.6919.1507L19.6858 2l.3082.1507c2.6863 1.2574 6.7815 1.2574 10.2857 0L30.6858 2z" fill="#D7290F"/><path d="M33.1858 23.5c0 7.7644-7.6285 12.0667-13.5 14.0667-4.1728-1.4214-9.233-3.9434-11.8118-8.115l24.6904-10.8445c.3571 1.5198.6214 3.1322.6214 4.8928z" fill="#007A30"/><circle fill="#EEE" cx="19.6858" cy="35.5" r="8.5"/><path d="M0 11.6272c9.1403.1854 15.4824 2.6978 19.0262 7.5371 4.2486-5.2438 10.0076-7.257 17.2767-6.0402l-2.1128.8264-.8187.3264c-4.0025 1.6139-6.706 3.0082-11.019 6.855 4.3401.4399 8.3753 1.8457 9.2537 2.3979.705.443-6.9601 1.4702-11.9203 3.4702-4.9602-2-12.527-3.089-11.9203-3.4702l.1736-.0989c1.0747-.5653 4.4845-1.7172 8.271-2.2048C11.4313 17.3102 4.346 13.4017 0 11.6271z" fill="#2A2A2A"/></g></g></svg>