<?xml version="1.0" encoding="UTF-8"?><svg width="500" height="500" viewBox="0 0 500 500" fill="none" xmlns="http://www.w3.org/2000/svg"><path fill-rule="evenodd" clip-rule="evenodd" d="M203.003 109.223h93.643V21.9282h-93.643v87.2948z" fill="#C8C8C8"/><path fill-rule="evenodd" clip-rule="evenodd" d="M202.863 32.2278h93.459v-14.2h-93.459v14.2z" fill="#393939"/><path fill-rule="evenodd" clip-rule="evenodd" d="M87.5475 75.2583S46.7848 148.058 29 203.028c4.4449 13.375 45.2077 40.86 85.232 37.885 13.34-36.4 24.46-52 24.46-52s2.963-95.0847-51.1445-113.6547zm323.9255 0s40.763 72.7997 58.548 127.7697c-4.445 13.375-45.208 40.86-85.233 37.885-13.339-36.4-24.459-52-24.459-52s-2.964-95.0847 51.144-113.6547z" fill="#CE4646"/><path fill-rule="evenodd" clip-rule="evenodd" d="M249.511 57.7025c-50.081 0-47.798-39.4691-48.742-39.14-7.516 2.6187-24.133 14.9368-52.439 25.495-31.873 11.885-52.6256 19.315-60.7821 31.2 11.1148 8.915 46.6941 28.9695 46.6941 120.3445v271.14s49.658 14.856 114.885 14.856c68.929 0 115.649-14.856 115.649-14.856v-271.14c0-91.375 35.579-111.4295 46.699-120.3445-8.157-11.885-28.91-19.315-60.782-31.2-28.36-10.5767-44.982-22.9195-52.479-25.5087-.927-.3203 4.178 39.1537-48.703 39.1537z" fill="#CE4646"/><path fill-rule="evenodd" clip-rule="evenodd" d="M170.746 474.795c-7.205-1.314-13.508-2.65-18.746-3.858V42.6575c17.571-6.8855 30.34-14.2918 39-19.1575v454.333c-7.332-.938-14.117-1.979-20.254-3.038zm96.754 6.454c-5.925.227-12.056.352-18.373.352-5.667 0-11.217-.112-16.627-.317V52.0034h35V481.249zM348 43.0383V471.08c-9.506 2.144-22.76 4.706-39 6.765V24.0505c8.798 4.9564 21.579 12.2501 39 18.9878zM467.462 195.302c.936 2.666 1.827 5.303 2.667 7.899-4.445 13.375-45.208 40.86-85.232 37.885-.958-2.613-1.904-5.119-2.835-7.52 20.795-1.357 37.993-5.636 51.594-12.837 13.428-7.108 24.697-15.584 33.806-25.427zm-435.8073 0c9.1031 9.827 20.3606 18.291 33.7724 25.391 13.6109 7.206 30.8241 11.486 51.6389 12.84-.931 2.4-1.877 4.905-2.834 7.517-40.0243 2.975-80.7871-24.51-85.232-37.885.8363-2.585 1.7234-5.209 2.6547-7.863z" fill="#3D3D3D"/><path fill-rule="evenodd" clip-rule="evenodd" d="M307.852 23.345C302.08 20.105 298.124 18 295.844 18c0 0 5.882 32.495-46.335 32.495-48.52 0-46.335-32.495-46.335-32.495-2.28 0-6.236 2.105-12.003 5.345 0 0 7.368 40.38 58.403 40.38 51.478 0 58.278-35.895 58.278-40.38z" fill="#3D3D3D"/><path fill-rule="evenodd" clip-rule="evenodd" d="M413.584 238.323c-9.288 2.238-19.065 3.316-28.798 2.592-8.198-22.369-15.557-36.883-20.013-44.748v270.577s-21.102 6.71-55.866 11.111l-.544-.06c1.881-54.795 5.722-166.47 8.276-240.705 2.056-59.755 31.085-95.29 60.099-117.44-2.675 6.781-5.071 14.606-6.999 23.667 7.354 11.852 24.436 42.069 43.831 94.964.005.014.01.028.014.042zM190.716 477.795c-34.248-4.401-56.476-11.051-56.476-11.051V196.172c-4.456 7.867-11.814 22.379-20.01 44.743-9.633.716-19.3084-.332-28.5103-2.524a1.056 1.056 0 01.0199-.096c19.3774-52.848 36.3054-83.066 43.6094-94.944-1.928-9.075-4.327-16.912-7.006-23.701 29.014 22.15 58.044 57.685 60.099 117.44 2.554 74.235 6.396 185.91 8.276 240.705h-.002z" fill="#000" fill-opacity=".06"/><path fill-rule="evenodd" clip-rule="evenodd" d="M288 137.792V122s10.716-3 21-3 21 3 21 3v15.792C330 161.25 309 169 309 169s-21-7.75-21-31.208z" fill="#3D3D3D"/><path d="M327.757 142.423C324.785 141.108 316.924 138 309 138c-7.924 0-15.785 3.108-18.757 4.423-.158-1.315-.243-2.693-.243-4.135V123.76s9.695-2.76 19-2.76 19 2.76 19 2.76v14.528c0 1.442-.085 2.82-.243 4.135z" fill="#EA4F4F"/><path d="M290.004 138.797C290.299 159.982 309 167 309 167s16.7-6.267 18.787-24.833l-.03.256C324.785 141.108 316.924 138 309 138c-7.924 0-15.785 3.108-18.756 4.423-.14-1.16-.223-2.368-.24-3.626z" fill="#F2F2F2"/><path d="M297 142.061v13.666c1.878 2.509 4.034 4.434 6 5.864v-21.016c-2.189.39-4.239.934-6 1.486zm9-1.904V161h6v-20.861c-.96-.089-1.932-.139-2.906-.139-1.037 0-2.073.057-3.094.157zm9 .385v21.185c1.951-1.396 4.106-3.284 6-5.751v-13.973c-1.769-.548-3.818-1.083-6-1.461z" fill="#3D3D3D"/><path fill="#F2F2F2" d="M305 118h8v9h-8z"/><path fill="#3D3D3D" d="M306 119h6v7h-6z"/></svg>