<svg xmlns="http://www.w3.org/2000/svg" width="501" height="501" fill="none"><path fill="#D0D0D0" fill-rule="evenodd" d="M203.16 110.17h93.64v-87.3h-93.64v87.3Z" clip-rule="evenodd"/><path fill="#E1E1E1" fill-rule="evenodd" d="M203.02 33.17h93.46v-14.2h-93.46v14.2Z" clip-rule="evenodd"/><path fill="#F2F2F2" fill-rule="evenodd" d="M87.7 76.2S46.94 149 29.15 203.98c4.45 13.38 45.21 40.87 85.24 37.89 13.34-36.4 24.46-52 24.46-52S141.8 94.78 87.7 76.21Zm323.93 0s40.76 72.8 58.54 127.77c-4.44 13.38-45.2 40.87-85.23 37.89-13.34-36.4-24.46-52-24.46-52s-2.96-95.08 51.15-113.65Z" clip-rule="evenodd"/><path fill="#F2F2F2" fill-rule="evenodd" d="M249.66 58.65c-50.08 0-47.8-39.47-48.74-39.14-7.51 2.62-24.13 14.94-52.44 25.5-31.87 11.88-52.62 19.3-60.78 31.2 11.12 8.9 46.7 28.96 46.7 120.34v271.14s49.65 14.85 114.88 14.85c68.93 0 115.65-14.85 115.65-14.85V196.55c0-91.38 35.58-111.43 46.7-120.35-8.16-11.88-28.91-19.31-60.78-31.2-28.36-10.57-44.99-22.92-52.48-25.5-.93-.33 4.18 39.15-48.7 39.15Z" clip-rule="evenodd"/><path fill="#232323" d="M411.1 76.62c-43.71-3.1-98.33-5.6-160.94-5.6-63.05 0-117.99 2.53-161.85 5.66l-.6-.48c7.88-11.49 27.55-18.82 57.66-30.03l3.11-1.17c18.3-6.82 31.7-14.38 40.93-19.58 5.06-2.84 8.85-4.98 11.51-5.91.12-.04.19.52.3 1.53.88 7.25 4.52 37.6 48.44 37.6 46.66 0 48.18-30.71 48.53-37.73.04-.94.07-1.45.18-1.41 2.66.91 6.47 3.06 11.54 5.92 9.23 5.2 22.64 12.76 40.94 19.58l3.11 1.17c30.11 11.21 49.78 18.54 57.67 30.03l-.53.42Z"/><path fill="#E1E1E1" fill-rule="evenodd" d="M467.5 196.07c.94 2.67 1.83 5.3 2.68 7.9-4.45 13.38-45.21 40.87-85.24 37.89a389.4 389.4 0 0 0-2.83-7.52c20.8-1.36 38-5.64 51.6-12.84 13.42-7.1 24.69-15.58 33.8-25.43Zm-435.7.04c9.11 9.83 20.37 18.3 33.78 25.4 13.61 7.2 30.83 11.48 51.64 12.83-.93 2.4-1.88 4.9-2.83 7.52-40.03 2.97-80.8-24.51-85.24-37.89.84-2.58 1.73-5.2 2.66-7.86Z" clip-rule="evenodd"/><path fill="#F2F2F2" fill-rule="evenodd" d="M308 24.3c-5.77-3.25-9.72-5.35-12-5.35 0 0 5.88 32.5-46.34 32.5-48.52 0-46.33-32.5-46.33-32.5-2.28 0-6.24 2.1-12 5.34 0 0 7.36 40.38 58.4 40.38 51.48 0 58.28-35.9 58.28-40.38Z" clip-rule="evenodd"/><path fill="#000" fill-opacity=".06" fill-rule="evenodd" d="M413.74 239.27a93.76 93.76 0 0 1-28.8 2.6c-8.2-22.38-15.56-36.9-20.01-44.76V467.7s-21.1 6.71-55.87 11.11l-.54-.06 8.28-240.7c2.05-59.76 31.08-95.3 60.1-117.44a148.55 148.55 0 0 0-7 23.66c7.35 11.86 24.43 42.07 43.83 94.97a1 1 0 0 1 0 .04ZM190.87 478.74c-34.25-4.4-56.47-11.05-56.47-11.05V197.12c-4.46 7.87-11.82 22.38-20.01 44.74a93.6 93.6 0 0 1-28.52-2.52l.02-.1c19.38-52.85 36.31-83.06 43.61-94.94a148.63 148.63 0 0 0-7-23.7c29.01 22.15 58.04 57.68 60.1 117.44 2.55 74.23 6.4 185.9 8.27 240.7Z" clip-rule="evenodd"/><path fill="#232323" fill-rule="evenodd" d="M309.65 166.2a22 22 0 1 0 0-43.99 22 22 0 0 0 0 44Z" clip-rule="evenodd"/><path fill="#F2F2F2" fill-rule="evenodd" d="M309.65 164.3a20.09 20.09 0 1 0 0-40.18 20.09 20.09 0 0 0 0 40.18Z" clip-rule="evenodd"/><path fill="#232323" fill-rule="evenodd" d="M309.65 159.51a15.3 15.3 0 1 0 0-30.6 15.3 15.3 0 0 0 0 30.6Z" clip-rule="evenodd"/><path fill="#F2F2F2" fill-rule="evenodd" d="M309.65 157.6a13.4 13.4 0 1 0 0-26.78 13.4 13.4 0 0 0 0 26.78Z" clip-rule="evenodd"/><path fill="#232323" fill-rule="evenodd" d="M303.85 132.14a13.4 13.4 0 0 0-3.34 2.28V154c.99.92 2.11 1.7 3.34 2.28v-24.14Zm7.47 25.36a13.52 13.52 0 0 1-3.34 0v-26.58a13.36 13.36 0 0 1 3.34 0v26.58Zm7.47-3.5c-.99.92-2.11 1.7-3.34 2.28v-24.15a13.4 13.4 0 0 1 3.34 2.29V154Z" clip-rule="evenodd"/></svg>