<?xml version="1.0" encoding="UTF-8"?><svg width="500" height="500" viewBox="0 0 500 500" fill="none" xmlns="http://www.w3.org/2000/svg"><path fill-rule="evenodd" clip-rule="evenodd" d="M203.003 109.223h93.644V21.928h-93.644v87.295z" fill="#D3D0CF"/><path fill-rule="evenodd" clip-rule="evenodd" d="M202.864 32.228h93.458v-14.2h-93.458v14.2z" fill="#227CAF"/><path fill-rule="evenodd" clip-rule="evenodd" d="M87.5475 75.2585S46.7848 148.058 29 203.028c4.4449 13.375 45.2077 40.861 85.232 37.885 13.34-36.399 24.46-52 24.46-52s2.963-95.0845-51.1445-113.6545zm323.9245 0s40.763 72.7995 58.548 127.7695c-4.445 13.375-45.208 40.861-85.232 37.885-13.34-36.399-24.46-52-24.46-52s-2.963-95.0845 51.144-113.6545z" fill="#F0F8FA"/><path fill-rule="evenodd" clip-rule="evenodd" d="M249.511 57.7025c-50.082 0-47.798-39.4691-48.743-39.14-7.516 2.6187-24.132 14.9368-52.438 25.495-31.873 11.885-52.6261 19.315-60.7826 31.2 11.1148 8.915 46.6946 28.9705 46.6946 120.3455v271.14s49.657 14.855 114.885 14.855c68.929 0 115.648-14.855 115.648-14.855v-271.14c0-91.375 35.58-111.4305 46.699-120.3455-8.156-11.885-28.909-19.315-60.782-31.2-28.36-10.5767-44.982-22.9194-52.478-25.5087-.927-.3203 4.177 39.1537-48.703 39.1537z" fill="#F0F8FA"/><path fill-rule="evenodd" clip-rule="evenodd" d="M470.129 203.202c-4.445 13.375-45.208 40.86-85.233 37.885-.957-2.614-1.903-5.12-2.835-7.52 20.795-1.358 37.993-5.637 51.594-12.837 13.429-7.109 24.697-15.585 33.806-25.428.936 2.667 1.828 5.303 2.668 7.9zm-438.4743-7.9c9.1031 9.828 20.3606 18.291 33.7724 25.392 13.6109 7.205 30.8241 11.485 51.6389 12.84-.931 2.399-1.877 4.904-2.834 7.516-40.0243 2.975-80.7871-24.51-85.232-37.885.8363-2.584 1.7234-5.209 2.6547-7.863z" fill="#64BEDA"/><path d="M185.482 477.091L372 82c-7.514-15.45-10.607-19.1193-26.777-24.842-1.034-.3658-2.08-.7358-3.138-1.1106-9.144-3.2395-17.086-6.6804-23.904-9.9419L134.242 435.745v30.997s19.98 5.977 51.24 10.349z" fill="#64BEDA"/><path fill-rule="evenodd" clip-rule="evenodd" d="M307.851 23.345c-5.772-3.24-9.728-5.345-12.007-5.345 0 0 5.881 32.495-46.336 32.495-48.52 0-46.335-32.495-46.335-32.495-2.28 0-6.236 2.105-12.003 5.345 0 0 7.369 40.38 58.403 40.38 51.479 0 58.278-35.895 58.278-40.38z" fill="#2D90C7"/><path fill-rule="evenodd" clip-rule="evenodd" d="M413.584 238.323c-9.287 2.238-19.064 3.316-28.797 2.592-8.198-22.369-15.558-36.883-20.013-44.748v270.577s-21.102 6.71-55.866 11.111l-.544-.06c1.88-54.795 5.722-166.47 8.276-240.705 2.055-59.755 31.085-95.29 60.099-117.44-2.675 6.781-5.072 14.606-6.999 23.667 7.354 11.852 24.435 42.069 43.83 94.964.005.014.01.028.014.042zM190.717 477.795c-34.248-4.401-56.476-11.051-56.476-11.051V196.172c-4.456 7.867-11.814 22.379-20.01 44.743-9.633.716-19.3089-.332-28.5108-2.523a1.01 1.01 0 01.0199-.097c19.3769-52.848 36.3059-83.066 43.6099-94.944-1.929-9.075-4.328-16.912-7.006-23.701 29.014 22.15 58.043 57.685 60.099 117.44 2.554 74.235 6.395 185.91 8.276 240.705h-.002z" fill="#000" fill-opacity=".07"/><path d="M291 133.06V122h36v11.06c0 17.308-7.2 27.273-18 32.75-10.8-5.477-18-15.442-18-32.75z" fill="#3D3D3D"/><path d="M293 133.772v-9.985h32v9.985c0 14.682-6.4 25.094-16 30.038-9.6-4.944-16-15.356-16-30.038z" fill="#B9B9B9"/><path d="M296 135.233V127h26v8.233c0 12.106-5.2 20.691-13 24.767-7.8-4.076-13-12.661-13-24.767z" fill="#1C81AC"/><path fill="#58A4C6" d="M298 129h22v4h-22z"/></svg>