<?xml version="1.0" encoding="UTF-8"?><svg width="500" height="500" viewBox="0 0 500 500" fill="none" xmlns="http://www.w3.org/2000/svg"><path fill-rule="evenodd" clip-rule="evenodd" d="M203.006 109.193h93.643V21.898h-93.643v87.295z" fill="#143048"/><path fill-rule="evenodd" clip-rule="evenodd" d="M202.867 32.198h93.458v-14.2h-93.458v14.2z" fill="#C1DBE3"/><path fill-rule="evenodd" clip-rule="evenodd" d="M249.514 57.7056c-50.082 0-47.798-39.4691-48.742-39.14-7.516 2.6187-24.133 14.9368-52.439 25.495-31.873 11.885-52.6259 19.315-60.7825 31.2 11.1149 8.915 46.6945 28.9704 46.6945 120.3454v271.14s49.658 14.855 114.885 14.855c68.929 0 115.648-14.855 115.648-14.855v-271.14c0-91.375 35.58-111.4304 46.7-120.3454-8.157-11.885-28.91-19.315-60.783-31.2-28.36-10.5767-44.982-22.9194-52.478-25.5087-.927-.3203 4.177 39.1537-48.703 39.1537z" fill="#193854"/><path fill-rule="evenodd" clip-rule="evenodd" d="M87.5505 75.26s-40.7627 72.8-58.5475 127.77c4.4449 13.375 45.2077 40.86 85.232 37.885 13.34-36.4 24.46-52 24.46-52S141.658 93.83 87.5505 75.26zm323.9255 0s40.762 72.8 58.547 127.77c-4.445 13.375-45.208 40.86-85.232 37.885-13.34-36.4-24.46-52-24.46-52S357.368 93.83 411.476 75.26z" fill="#193854"/><path fill-rule="evenodd" clip-rule="evenodd" d="M249.509 50.4987c23.731 0 35.462-6.7117 41.199-14.0345l3.192.8392c45.286 11.3389 71.55 39.4269 71.55 68.1606v68.857c-.455 6.628-.699 13.712-.699 21.286v271.141s-43.163 13.71-107.735 14.788c-2.595.043-5.225.065-7.889.065-64.901 0-114.388-14.707-114.881-14.854l.004-361.283c0-28.4515 25.752-56.2698 70.222-67.8174l5.219-1.3266c6.037 7.3787 17.622 14.1787 39.818 14.1787z" fill="#234462"/><path fill-rule="evenodd" clip-rule="evenodd" d="M96.6456 80.8164c8.5394-11.2398 28.6594-18.5705 59.0414-30.0765 19.302-7.3121 33.083-15.4683 42.191-20.6622l-.009-.0503c1.212-.6917 2.343-1.3317 3.394-1.9105l1.73 3.2146c-9.03 5.0641-23.459 13.9728-44.362 21.8915-29.863 11.3096-49.812 18.5852-58.594 29.5042a52.1412 52.1412 0 00-3.3914-1.9108zm-6.7003-2.8755c8.0311-11.886 28.4647-19.316 59.8477-31.201 19.301-7.3121 33.083-15.4683 42.191-20.6622-.007-.0333-.01-.0503-.01-.0503l.024-.0137 1.738 3.2282c-9.103 5.2076-22.521 12.9811-40.999 19.9811-30.458 11.535-50.603 18.8735-59.1057 30.1614l-3.686-1.4435zm312.2357 2.8782a52.1144 52.1144 0 00-3.391 1.9111c-8.781-10.9206-28.73-18.1964-58.596-29.5071-20.204-7.6539-34.36-16.2328-43.438-21.3708l1.584-3.3041c.826.4607 1.698.9552 2.617 1.4793 0 0-.004.0171-.01.0504 9.108 5.1939 22.889 13.3501 42.191 20.6621 30.384 11.507 50.505 18.8378 59.043 30.0791zm6.7-2.8761a52.212 52.212 0 00-3.686 1.4438c-8.501-11.2891-28.646-18.6279-59.107-30.1637-18.275-6.9233-31.602-14.6034-40.698-19.8092L306.803 26l.048.0275s-.003.0171-.01.0504c9.108 5.1939 22.89 13.3501 42.191 20.6621 31.383 11.885 51.817 19.315 59.848 31.2v.001s0 .0007.001.002z" fill="#D1EAF2"/><path fill-rule="evenodd" clip-rule="evenodd" d="M116.991 233.591c-.494 1.276-26.7289 0-48.9793-9.14-17.7376-7.285-37.3351-26.492-36.4308-29.075 1.0476-2.991 2.1515-6.021 3.3024-9.076 10.2695 10.965 22.741 19.794 37.4143 26.489 14.6578 6.687 30.5524 11.124 47.6844 13.309-.977 2.375-1.975 4.871-2.991 7.493zm309.898-20.802c14.674-6.695 27.145-15.524 37.415-26.489 1.136 3.017 2.122 6.047 3.158 9.002.082.236-15.161 18.626-32.848 27.054-15.138 7.213-51.407 13.853-52.264 11.635a393.5885 393.5885 0 00-3.145-7.893c17.132-2.185 33.027-6.622 47.684-13.309z" fill="#F2F2F2"/><path fill-rule="evenodd" clip-rule="evenodd" d="M467.462 195.3c.936 2.666 1.827 5.303 2.667 7.899-4.445 13.375-45.208 40.86-85.232 37.885-.958-2.613-1.904-5.119-2.835-7.52 20.795-1.357 37.993-5.636 51.594-12.837 13.428-7.109 24.697-15.584 33.806-25.427zm-435.8072 0c9.1031 9.827 20.3605 18.291 33.7723 25.391 13.611 7.206 30.8241 11.486 51.6389 12.84-.931 2.4-1.876 4.905-2.834 7.517-40.0242 2.975-80.787-24.51-85.2319-37.885.8363-2.585 1.7234-5.209 2.6547-7.863z" fill="#193854"/><path fill-rule="evenodd" clip-rule="evenodd" d="M249.576 63.7515c51.479 0 58.279-35.895 58.279-40.38-5.772-3.24-9.728-5.345-12.008-5.345 0 0 5.881 32.495-46.335 32.495-48.521 0-46.336-32.495-46.336-32.495-2.279 0-6.235 2.105-12.002 5.345 0 0 7.368 40.38 58.402 40.38z" fill="#D1EAF2"/><path fill-rule="evenodd" clip-rule="evenodd" d="M413.584 238.323c-9.287 2.238-19.064 3.316-28.798 2.592-8.197-22.369-15.557-36.883-20.012-44.748v270.577s-21.102 6.71-55.867 11.111l-.544-.06c1.881-54.795 5.722-166.47 8.277-240.705 2.055-59.755 31.084-95.29 60.099-117.44-2.676 6.781-5.072 14.606-7 23.667 7.354 11.852 24.436 42.069 43.831 94.964.005.014.01.028.014.042zM190.717 477.795c-34.248-4.401-56.477-11.051-56.477-11.051V196.172c-4.456 7.867-11.813 22.379-20.009 44.743-9.633.716-19.3091-.332-28.511-2.523a1.01 1.01 0 01.0199-.097c19.3771-52.848 36.3051-83.066 43.6101-94.944-1.929-9.075-4.328-16.912-7.007-23.701 29.015 22.15 58.044 57.685 60.099 117.44 2.555 74.235 6.396 185.91 8.277 240.705h-.002z" fill="#000" fill-opacity=".09"/><path d="M292.382 134.254s13.252-1.749 20.117-1.749c6.866 0 14.87 1.749 14.87 1.749s2.79 7.358 2.624 12.245c-.143 4.223-2.624 10.497-2.624 10.497s-8.004-1.75-14.87-1.75c-6.865 0-13.049 2.832-18.368 1.312-3.061-.874-4.373-4.627-4.373-10.933 0-6.307 2.624-11.371 2.624-11.371z" fill="#F2F2F2"/><path d="M326.483 137.505c-.365-1.067-.641-1.752-.641-1.752s-7.307-1.499-13.575-1.499c-6.267 0-18.365 1.499-18.365 1.499s-.364.66-.808 1.785c4.807-.29 13.811-.761 20.28-.66 4.075.063 9.574.391 13.109.627zm-34.661 4.512c.184-1.039.431-1.992.689-2.824 4.629-.228 14.123-.638 20.863-.555 4.287.054 10.149.34 13.644.529.261.869.524 1.839.739 2.831-3.352-.186-9.777-.512-14.383-.569-7.095-.089-17.241.371-21.552.588zm-.293 4.389c-.014-.298-.022-.601-.022-.906 0-.647.034-1.278.095-1.888 6.028.701 14.553-.69 21.772-.6 4.745.059 11.422.404 14.679.585.139.924.214 1.829.184 2.653-.002.049-.004.098-.007.147-3.186-.178-10.023-.535-14.856-.595-7.261-.09-16.182 1.135-21.845.604zm.679 4.339c-.219-.841-.412-1.771-.539-2.763 5.523.704 14.524-.686 21.705-.597 4.743.059 11.417.404 14.675.586-.153.91-.383 1.857-.638 2.754-3.434-.187-9.585-.494-14.037-.55-6.891-.085-15.744 1.135-21.166.57zm33.494 4.438c-.715-.315-6.205-1.249-9.704-1.249-2.781 0-5.505-.093-8.536.291-5.459.69-6.683 1.459-10.707 1.459-4.024 0-4.024-3.207-4.024-3.207 5.773 1.02 14.007-.626 20.643-.543 4.229.052 9.992.332 13.501.521-.471 1.413-.907 2.486-1.011 2.736a8.3669 8.3669 0 00-.162-.008z" fill="#B74343"/><circle cx="295.006" cy="136.003" r="6.9974" fill="#F2F2F2"/><path d="M294.953 134.634l-1.317.86.53 1.787h1.588l.529-1.787-1.33-.86z" fill="#282828"/><path fill-rule="evenodd" clip-rule="evenodd" d="M294.96 141.251c2.924 0 5.294-2.37 5.294-5.294 0-2.924-2.37-5.294-5.294-5.294-2.924 0-5.294 2.37-5.294 5.294 0 2.924 2.37 5.294 5.294 5.294zm4.706-5.294c0 .991-.306 1.91-.829 2.668l-.257-.716-1.126.538-.544 1.133.73.246c-.761.528-1.684.837-2.68.837-.995 0-1.918-.308-2.678-.835l.727-.248-.544-1.133-1.126-.538-.25.725c-.527-.76-.835-1.682-.835-2.677 0-.359.04-.71.117-1.046l.409.617.949-.81.232-1.235-.916-.138c.701-1.048 1.811-1.799 3.102-2.024l-.364.876 1.186.417 1.176-.417-.354-.872c1.283.228 2.386.977 3.083 2.02l-1.048.138.232 1.235.949.81.544-.607c.075.334.115.68.115 1.036z" fill="#282828"/></svg>