<?xml version="1.0" encoding="UTF-8"?><svg width="500" height="500" viewBox="0 0 500 500" fill="none" xmlns="http://www.w3.org/2000/svg"><path fill-rule="evenodd" clip-rule="evenodd" d="M203.006 109.193h93.643V21.8979h-93.643v87.2951z" fill="#B0C3C7"/><path fill-rule="evenodd" clip-rule="evenodd" d="M202.867 32.198h93.458v-14.2h-93.458v14.2z" fill="#D16E26"/><path fill-rule="evenodd" clip-rule="evenodd" d="M249.514 57.7057c-50.082 0-47.798-39.4691-48.742-39.14-7.516 2.6186-24.133 14.9368-52.439 25.495-31.873 11.885-52.6259 19.315-60.7825 31.2 11.1149 8.915 46.6945 28.9703 46.6945 120.3453v271.14s49.658 14.855 114.885 14.855c68.929 0 115.648-14.855 115.648-14.855v-271.14c0-91.375 35.58-111.4303 46.7-120.3453-8.157-11.885-28.91-19.315-60.783-31.2-28.36-10.5767-44.982-22.9195-52.478-25.5087-.927-.3203 4.177 39.1537-48.703 39.1537z" fill="#E87C2D"/><path fill-rule="evenodd" clip-rule="evenodd" d="M87.5506 75.26s-40.7628 72.8-58.5475 127.77c4.4449 13.375 45.2077 40.86 85.2319 37.885 13.34-36.4 24.46-52 24.46-52S141.658 93.83 87.5506 75.26zm323.9254 0s40.762 72.8 58.547 127.77c-4.445 13.375-45.208 40.86-85.232 37.885-13.34-36.4-24.46-52-24.46-52S357.368 93.83 411.476 75.26z" fill="#E87C2D"/><path fill-rule="evenodd" clip-rule="evenodd" d="M467.462 195.3c.936 2.666 1.827 5.303 2.667 7.899-4.445 13.375-45.208 40.86-85.232 37.885-.958-2.613-1.904-5.119-2.835-7.519 20.795-1.358 37.993-5.637 51.594-12.838 13.428-7.108 24.697-15.584 33.806-25.427zm-435.8072 0c9.1031 9.827 20.3606 18.291 33.7724 25.391 13.6109 7.206 30.8241 11.486 51.6398 12.84a426.01 426.01 0 00-2.835 7.517c-40.0242 2.975-80.7869-24.51-85.2319-37.885.8363-2.585 1.7234-5.209 2.6547-7.863zM249.576 63.7516c51.479 0 58.279-35.895 58.279-40.38-5.772-3.24-9.728-5.345-12.008-5.345 0 0 5.881 32.495-46.335 32.495-48.521 0-46.336-32.495-46.336-32.495-2.279 0-6.235 2.105-12.002 5.345 0 0 7.368 40.38 58.402 40.38z" fill="#DD7529"/><path fill-rule="evenodd" clip-rule="evenodd" d="M413.584 238.323c-9.287 2.238-19.064 3.316-28.798 2.592-8.197-22.369-15.557-36.883-20.012-44.748v270.577s-21.102 6.71-55.867 11.111l-.544-.06c1.881-54.795 5.722-166.47 8.277-240.705 2.055-59.755 31.084-95.29 60.099-117.44-2.676 6.781-5.072 14.606-7 23.667 7.354 11.852 24.436 42.069 43.831 94.964.005.014.01.028.014.042zM190.717 477.795c-34.248-4.401-56.477-11.051-56.477-11.051V196.172c-4.456 7.867-11.813 22.379-20.009 44.743-9.633.716-19.3091-.332-28.511-2.524a1.056 1.056 0 01.0199-.096c19.3771-52.848 36.3051-83.066 43.6101-94.944-1.929-9.075-4.328-16.912-7.007-23.701 29.015 22.15 58.044 57.685 60.099 117.44 2.555 74.235 6.396 185.91 8.277 240.705h-.002z" fill="#000" fill-opacity=".06"/><path d="M286.714 128.881v5.262c0 .401.006.798.016 1.19-2.29.118-3.73.203-3.73.203v13.928s2.725-.16 6.64-.347c5.047 11.678 15.244 16.861 19.36 18.919 4.073-2.037 14.103-7.59 19.202-18.926 4 .19 6.798.354 6.798.354v-13.928s-1.44-.085-3.731-.203c.011-.392.017-.789.017-1.19v-5.262s-8.88-2.631-22.286-2.631-22.286 2.631-22.286 2.631z" fill="#F2F2F2"/><path d="M288.571 130.504v4.794c0 .471.008.935.024 1.392-2.554.136-4.202.239-4.202.239v11.142s2.614-.162 6.361-.35c4.417 11.502 14.332 16.512 18.246 18.458 3.878-1.928 13.646-7.311 18.123-18.465 3.812.192 6.484.357 6.484.357v-11.142s-1.649-.103-4.204-.239c.017-.458.026-.921.026-1.392v-4.794s-8.14-2.397-20.429-2.397c-12.289 0-20.429 2.397-20.429 2.397z" fill="#F4B557"/><path d="M290.429 132.128v4.326c0 .539.011 1.069.034 1.589-2.811.156-4.677.278-4.677.278v8.358s2.534-.167 6.146-.359c3.727 11.339 13.36 16.172 17.068 18.001 3.679-1.814 13.189-7.025 16.978-18.006 3.66.194 6.236.364 6.236.364v-8.358s-1.867-.122-4.68-.278c.025-.521.037-1.05.037-1.589v-4.326s-7.399-2.164-18.571-2.164-18.571 2.164-18.571 2.164z" fill="#F2F2F2"/><path d="M291.357 132.939v4.093c0 .657.019 1.3.055 1.927-2.815.162-4.698.291-4.698.291v6.5s2.373-.163 5.773-.352c3.294 11.42 12.886 16.213 16.513 17.995 3.602-1.769 13.085-6.95 16.443-17.998 3.437.19 5.843.355 5.843.355v-6.5s-1.885-.129-4.702-.291c.039-.628.059-1.27.059-1.927v-4.093s-7.03-2.046-17.643-2.046-17.643 2.046-17.643 2.046z" fill="#3D3D3D"/><path d="M292.487 145.398c3.294 11.42 12.886 16.213 16.513 17.995 3.602-1.769 13.085-6.95 16.443-17.998l-32.956.003z" fill="url(#paint0_radial)"/><path d="M292.487 145.398c3.294 11.42 12.886 16.213 16.513 17.995 3.602-1.769 13.085-6.95 16.443-17.998l-32.956.003z" fill="url(#paint1_radial)"/><path d="M303.429 116.964l.901 2.474 2.631.093-2.074 1.622.725 2.531-2.183-1.471-2.184 1.471.725-2.531-2.074-1.622 2.631-.093.902-2.474zm11.142 0l.902 2.474 2.631.093-2.074 1.622.725 2.531-2.184-1.471-2.183 1.471.725-2.531-2.074-1.622 2.631-.093.901-2.474z" fill="#F2F2F2"/><path opacity=".7" d="M288 140.1s12.79-1 21-1 21 1 21 1v4.65s-12.79-.85-21-.85-21 .85-21 .85v-4.65z" fill="#fff"/><circle cx="309" cy="138" r="3" fill="#EDEDED"/><defs><radialGradient id="paint0_radial" cx="0" cy="0" r="1" gradientUnits="userSpaceOnUse" gradientTransform="matrix(0 10 -12.2517 0 309 155)"><stop stop-color="#D99B22"/><stop offset="1" stop-color="#3D3D3D"/></radialGradient><radialGradient id="paint1_radial" cx="0" cy="0" r="1" gradientUnits="userSpaceOnUse" gradientTransform="matrix(0 10 -12.2517 0 309 155)"><stop stop-color="#D99B22"/><stop offset="1" stop-color="#3D3D3D"/></radialGradient></defs></svg>