<?xml version="1.0" encoding="UTF-8"?><svg width="500" height="500" viewBox="0 0 500 500" fill="none" xmlns="http://www.w3.org/2000/svg"><path fill-rule="evenodd" clip-rule="evenodd" d="M203.006 109.193h93.643V21.8979h-93.643v87.2951z" fill="#C7C7C7"/><path fill-rule="evenodd" clip-rule="evenodd" d="M202.867 32.198h93.458v-14.2h-93.458v14.2z" fill="#DFC156"/><path fill-rule="evenodd" clip-rule="evenodd" d="M202.866 32.2h93.459v-7h-93.459v7z" fill="#2E3E56"/><path fill-rule="evenodd" clip-rule="evenodd" d="M249.514 57.7057c-50.082 0-47.798-39.4691-48.742-39.14-7.516 2.6186-24.133 14.9368-52.439 25.495-31.873 11.885-52.6259 19.315-60.7825 31.2 11.1149 8.915 46.6945 28.9703 46.6945 120.3453v271.14s49.658 14.855 114.885 14.855c68.929 0 115.648-14.855 115.648-14.855v-271.14c0-91.375 35.58-111.4303 46.7-120.3453-8.157-11.885-28.91-19.315-60.783-31.2-28.36-10.5767-44.982-22.9195-52.478-25.5087-.927-.3203 4.177 39.1537-48.703 39.1537z" fill="#F2F2F2"/><path d="M406.72 75.1749c-8.874-9.9633-27.418-16.9809-54.617-27.2727l-.254-.096c-.929-.3514-1.868-.7068-2.817-1.0662-18.009-6.8226-31.213-14.3802-40.299-19.5805l-.029-.0167-.005-.0029c-.639-.3661-1.259-.7204-1.858-1.062.007-.0333.01-.0504.01-.0504L306.803 26l-1.413 3.4139.399.2286c9.086 5.2004 22.289 12.758 40.299 19.5806.99.375 1.969.7455 2.938 1.1119l.133.0504c27.065 10.2411 45.56 17.2393 54.485 27.1248.657-.5048 1.284-.9781 1.874-1.4245.419-.3166.82-.6197 1.202-.9108z" fill="#21314F"/><path d="M401.112 79.5012c-8.757-10.1377-27.407-17.1949-54.903-27.5989l-.022-.0082c-1.004-.3801-2.021-.7647-3.049-1.1541-18.01-6.8226-31.214-14.3802-40.299-19.5806l-.004-.002a977.482 977.482 0 00-1.888-1.0795c.007-.0333.01-.0504.01-.0504-.919-.5241-1.791-1.0186-2.617-1.4793l-1.584 3.3041c.985.5578 2.031 1.1561 3.137 1.7894l.002.0009c9.085 5.2003 22.289 12.7579 40.299 19.5805 1.035.3922 2.059.7795 3.07 1.1623 27.494 10.4033 46.145 17.4605 54.903 27.5972a92.7295 92.7295 0 012.945-2.4814zm-300.367 2.3814c8.794-10.0834 27.412-17.1281 54.816-27.4974 1.011-.3828 2.035-.7701 3.07-1.1622 18.01-6.8227 31.214-14.3803 40.299-19.5806 1.46-.8354 2.813-1.61 4.063-2.3109l-1.73-3.2146c-1.051.5788-2.182 1.2188-3.394 1.9105l.003.0181.006.0322c-.603.3439-1.227.7008-1.871 1.0696l-.021.012c-9.085 5.2003-22.289 12.7579-40.299 19.5806-1.031.3905-2.05.7762-3.058 1.1574l-.013.0048c-27.409 10.3713-46.029 17.4169-54.8205 27.5035a94.166 94.166 0 012.9495 2.477z" fill="#21314F"/><path d="M95.264 77.4189c8.956-9.8374 27.42-16.8241 54.402-27.0337l.009-.0032c1.009-.3818 2.029-.768 3.062-1.159 18.01-6.8227 31.214-14.3803 40.299-19.5806l.7-.4005-1.738-3.2282-.024.0137s.003.017.01.0503c-.61.3476-1.24.7085-1.892 1.0816-9.086 5.2003-22.29 12.7579-40.299 19.5806-1.036.3921-2.059.7793-3.071 1.1621-27.115 10.2601-45.629 17.2654-54.5345 27.1808.4181.3199.8605.6543 1.3249 1.0054.5537.4186 1.1388.8609 1.7516 1.3307z" fill="#21314F"/><path fill-rule="evenodd" clip-rule="evenodd" d="M371.08 100.914L134.24 466.275V358.7L321.117 68.9302c21.761 6.9768 39.406 19.0211 49.963 31.9838z" fill="#344661"/><path fill-rule="evenodd" clip-rule="evenodd" d="M87.5505 75.26s-40.7627 72.8-58.5475 127.77c4.4449 13.375 45.2077 40.86 85.232 37.885 13.34-36.4 24.46-52 24.46-52S141.658 93.83 87.5505 75.26zm323.9255 0s40.762 72.8 58.547 127.77c-4.445 13.375-45.208 40.86-85.232 37.885-13.34-36.4-24.46-52-24.46-52S357.368 93.83 411.476 75.26z" fill="#F2F2F2"/><path fill-rule="evenodd" clip-rule="evenodd" d="M116.991 233.591c-.494 1.276-26.7289 0-48.9793-9.14-17.7376-7.285-37.3351-26.492-36.4308-29.075 1.0476-2.991 2.1515-6.021 3.3024-9.076 10.2695 10.965 22.741 19.794 37.4143 26.489 14.6578 6.687 30.5524 11.124 47.6844 13.309-.977 2.375-1.975 4.871-2.991 7.493zm309.898-20.802c14.674-6.695 27.145-15.524 37.415-26.489 1.136 3.017 2.122 6.048 3.158 9.002.082.236-15.161 18.627-32.848 27.054-15.138 7.213-51.407 13.853-52.264 11.635a393.5885 393.5885 0 00-3.145-7.893c17.132-2.185 33.027-6.622 47.684-13.309z" fill="#F0CC4A"/><path fill-rule="evenodd" clip-rule="evenodd" d="M467.462 195.3c.936 2.666 1.827 5.303 2.667 7.899-4.445 13.375-45.208 40.86-85.232 37.885-.958-2.613-1.904-5.119-2.835-7.519 20.795-1.358 37.993-5.637 51.594-12.838 13.428-7.108 24.697-15.584 33.806-25.427zm-435.8072 0c9.1031 9.827 20.3606 18.291 33.7724 25.391 13.6109 7.206 30.8241 11.486 51.6398 12.84a426.01 426.01 0 00-2.835 7.517c-40.0242 2.975-80.7869-24.51-85.2319-37.885.8363-2.585 1.7234-5.209 2.6547-7.863zM249.576 63.7516c51.479 0 58.279-35.895 58.279-40.38-5.772-3.24-9.728-5.345-12.008-5.345 0 0 5.881 32.495-46.335 32.495-48.521 0-46.336-32.495-46.336-32.495-2.279 0-6.235 2.105-12.002 5.345 0 0 7.368 40.38 58.402 40.38z" fill="#344661"/><path fill-rule="evenodd" clip-rule="evenodd" d="M195.09 21.2112c3.689-1.9817 6.365-3.1812 8.086-3.1812 0 0-2.185 32.495 46.335 32.495 52.217 0 46.335-32.495 46.335-32.495 1.785 0 4.598 1.2904 8.505 3.4055-7.175 24.4804-25.349 36.7206-54.523 36.7206-29.264 0-47.51-12.315-54.738-36.9449z" fill="#F0CC4A"/><path fill-rule="evenodd" clip-rule="evenodd" d="M413.584 238.323c-9.287 2.238-19.064 3.316-28.798 2.592-8.197-22.369-15.557-36.883-20.012-44.748v270.577s-21.102 6.71-55.867 11.111l-.544-.06c1.881-54.795 5.722-166.47 8.277-240.705 2.055-59.755 31.084-95.29 60.099-117.44-2.676 6.781-5.072 14.606-7 23.667 7.354 11.852 24.436 42.069 43.831 94.964.005.014.01.028.014.042zM190.717 477.795c-34.248-4.401-56.477-11.051-56.477-11.051V196.172c-4.456 7.867-11.813 22.379-20.009 44.743-9.633.716-19.3091-.332-28.511-2.524a1.056 1.056 0 01.0199-.096c19.3771-52.848 36.3051-83.066 43.6101-94.944-1.929-9.075-4.328-16.912-7.007-23.701 29.015 22.15 58.044 57.685 60.099 117.44 2.555 74.235 6.396 185.91 8.277 240.705h-.002z" fill="#000" fill-opacity=".06"/><path fill-rule="evenodd" clip-rule="evenodd" d="M289 131.908s13.037-.048 20.13-7.908c7.094 7.86 20.131 7.908 20.131 7.908 0 28.183-20.131 38.392-20.131 38.392S289 160.091 289 131.908z" fill="#F0CC4A"/><path fill-rule="evenodd" clip-rule="evenodd" d="M291 133.832s11.657-.041 18-6.832c6.343 6.791 18 6.832 18 6.832C326 158.18 309 167 309 167s-17-8.82-18-33.168z" fill="#294B7D"/><path fill="#526C95" d="M299 140h20v10h-20z"/><path d="M293 155s9.709-2 16-2 16 2 16 2v5s-9.709-2-16-2-16 2-16 2v-5z" fill="#F0C24A"/><path d="M309 131l1.199 2.801L313 135l-2.801 1.199L309 139l-1.199-2.801L305 135l2.801-1.199L309 131z" fill="#F9E0A0"/><path d="M309.13 115l.898 2.764h2.907l-2.351 1.708.898 2.764-2.352-1.708-2.351 1.708.898-2.764-2.351-1.708h2.906l.898-2.764z" fill="#F4D278"/></svg>