<?xml version="1.0" encoding="UTF-8"?><svg width="500" height="500" viewBox="0 0 500 500" fill="none" xmlns="http://www.w3.org/2000/svg"><path fill-rule="evenodd" clip-rule="evenodd" d="M203.006 109.193h93.643V21.8981h-93.643v87.2949z" fill="#33323C"/><path fill-rule="evenodd" clip-rule="evenodd" d="M202.867 32.198h93.458v-14.2h-93.458v14.2z" fill="#952D2D"/><path fill-rule="evenodd" clip-rule="evenodd" d="M87.5505 75.26s-40.7627 72.8-58.5475 127.77c4.4449 13.375 45.2077 40.86 85.232 37.885 13.34-36.4 24.46-52 24.46-52S141.658 93.83 87.5505 75.26zm323.9255 0s40.762 72.8 58.547 127.77c-4.445 13.375-45.208 40.86-85.232 37.885-13.34-36.4-24.46-52-24.46-52S357.368 93.83 411.476 75.26z" fill="#3A3940"/><path fill-rule="evenodd" clip-rule="evenodd" d="M249.514 57.7057c-50.082 0-47.798-39.4691-48.742-39.14-7.516 2.6186-24.133 14.9368-52.439 25.495-31.873 11.885-52.6259 19.315-60.7825 31.2 11.1149 8.915 46.6945 28.9703 46.6945 120.3453v271.14s49.658 14.855 114.885 14.855c68.929 0 115.648-14.855 115.648-14.855v-271.14c0-91.375 35.58-111.4303 46.7-120.3453-8.157-11.885-28.91-19.315-60.783-31.2-28.36-10.5767-44.982-22.9195-52.478-25.5087-.927-.3203 4.177 39.1537-48.703 39.1537z" fill="#3A3940"/><path fill-rule="evenodd" clip-rule="evenodd" d="M249.509 50.4986c23.731 0 35.462-6.7116 41.199-14.0345l3.192.8393c45.286 11.3389 71.55 39.4268 71.55 68.1606v68.857c-.455 6.628-.699 13.712-.699 21.286v271.141s-43.163 13.71-107.735 14.788c-2.595.043-5.225.065-7.889.065-64.901 0-114.388-14.707-114.881-14.854l.004-361.283c0-28.4515 25.752-56.2699 70.222-67.8175l5.219-1.3266c6.037 7.3787 17.622 14.1787 39.818 14.1787z" fill="#403E46"/><path fill-rule="evenodd" clip-rule="evenodd" d="M119.982 226.098c-1.849 4.494-3.775 9.427-5.75 14.816-40.0243 2.975-80.7871-24.51-85.232-37.885 1.7572-5.431 3.7388-11.037 5.8832-16.729 10.2695 10.965 22.7409 19.794 37.4143 26.489 14.6578 6.687 30.5525 11.124 47.6845 13.309zm259.223 0c17.132-2.185 33.027-6.622 47.684-13.309 14.674-6.695 27.145-15.524 37.415-26.489 2.144 5.692 4.126 11.298 5.883 16.729-4.445 13.375-45.208 40.86-85.232 37.885-1.975-5.389-3.901-10.322-5.75-14.816zM249.576 63.7515c51.479 0 58.279-35.895 58.279-40.38-5.772-3.24-9.728-5.345-12.008-5.345 0 0 5.881 32.495-46.335 32.495-48.521 0-46.336-32.495-46.336-32.495-2.279 0-6.235 2.105-12.002 5.345 0 0 7.368 40.38 58.402 40.38z" fill="#A93333"/><path fill-rule="evenodd" clip-rule="evenodd" d="M413.584 238.323c-9.287 2.238-19.064 3.316-28.798 2.592-8.197-22.369-15.557-36.883-20.012-44.748v270.577s-21.102 6.71-55.867 11.111l-.544-.06c1.881-54.795 5.722-166.47 8.277-240.705 2.055-59.755 31.084-95.29 60.099-117.44-2.676 6.781-5.072 14.606-7 23.667 7.354 11.852 24.436 42.069 43.831 94.964.005.014.01.028.014.042zM190.717 477.795c-34.248-4.401-56.477-11.051-56.477-11.051V196.172c-4.456 7.867-11.813 22.379-20.009 44.743-9.633.716-19.3091-.332-28.511-2.523.0051-.032.0117-.065.0199-.097 19.3771-52.848 36.3051-83.066 43.6101-94.944-1.929-9.075-4.328-16.912-7.007-23.701 29.015 22.15 58.044 57.685 60.099 117.44 2.555 74.235 6.396 185.91 8.277 240.705h-.002z" fill="#000" fill-opacity=".1"/><path fill-rule="evenodd" clip-rule="evenodd" d="M296.149 125.837s6.422-1.421 12.849-1.421c6.426 0 12.853 1.421 12.853 1.421v21.091c0 7.813-12.853 14.205-12.853 14.205s-12.849-6.392-12.849-14.205v-21.091z" fill="#F2F2F2"/><path fill-rule="evenodd" clip-rule="evenodd" d="M297.985 127.522s5.504-1.27 11.013-1.27c5.508 0 11.017 1.27 11.017 1.27v19.292c0 6.987-11.017 12.483-11.017 12.483s-11.013-5.496-11.013-12.483v-19.292z" fill="#333139"/><path fill-rule="evenodd" clip-rule="evenodd" d="M294.044 125.603l-.9-.901-.57 1.139c-.11.222-.182.486-.233.731-.055.26-.1.563-.138.895-.077.666-.13 1.498-.162 2.432-.066 1.87-.051 4.202.035 6.541.087 2.339.246 4.703.472 6.635.297 2.537 1.556 5.617 3.858 6.89 1.116.617 2.381 1.095 3.556 1.538l.033.012c1.404.531 2.665 1.011 3.643 1.638.954.613 1.529 1.296 1.708 2.193.226 1.13.061 1.887-.239 2.448l-.402.751.719.457c.901.573 1.69 1.023 2.255 1.331.282.154.51.272.667.353.079.04.141.071.183.092l.05.024.017.009.002.001.4.193.4-.194h.001l.004-.002.013-.007.05-.024c.043-.021.104-.052.183-.093.158-.08.386-.199.669-.353.565-.307 1.355-.758 2.257-1.332l.718-.456-.401-.751c-.3-.561-.464-1.318-.238-2.447.179-.897.754-1.58 1.708-2.193.978-.627 2.238-1.107 3.643-1.638l.033-.012c1.175-.443 2.44-.921 3.556-1.538 2.302-1.273 3.561-4.353 3.858-6.89.226-1.932.385-4.296.471-6.635.087-2.339.102-4.671.036-6.541-.032-.934-.086-1.766-.162-2.432-.038-.332-.084-.635-.138-.895-.052-.245-.123-.509-.234-.731l-.569-1.139-.901.901c-2.141 2.141-3.286 3.225-5.659 4.149l-.021.008c-.891.347-1.756.684-2.493 1.032-.731.344-1.427.74-1.924 1.236-.445.445-.588 1.024-.609 1.537-.02.513.075 1.061.21 1.583.269 1.031.757 2.182 1.166 3.146l.015.036c.258.607.008 1.487-.802 2.191-.787.686-1.791.915-2.592.514-.024-.012-.048-.023-.071-.035h-4.738a1.437 1.437 0 01-.014.075c-.026.14-.054.254-.076.334-.009.032-.016.054-.02.067-.042.074-.075.087-.082.091-.021.009-.092.031-.246.005-.329-.056-.811-.297-1.313-.729-.49-.421-.911-.949-1.155-1.454-.255-.526-.25-.875-.171-1.059l.015-.036c.367-.865.798-1.882 1.077-2.826l.26-1.173c.033-.247.048-.492.038-.73-.02-.513-.163-1.092-.609-1.537-.496-.496-1.192-.892-1.923-1.236-.738-.348-1.602-.685-2.493-1.032l-.021-.008c-2.373-.924-3.518-2.008-5.66-4.149zm15.354 35.208s-.001.001-.4-.826l.4.826zm-.4-.826l-.4.827.4-.827z" fill="#F2F2F2"/><ellipse cx="309" cy="137.5" rx="4" ry="4.5" fill="#F2F2F2"/><path d="M312.083 158.226c-1.764 1.121-3.085 1.759-3.085 1.759s-1.32-.637-3.082-1.758c.414-.773.592-1.751.33-3.061-.491-2.457-3.167-3.467-5.927-4.509-2.395-.905-4.854-2.751-6.006-4.67-.464-.773-.823-3.058-1.061-5.818l6.845 1.495c.248.054.492-.103.547-.35a.4596.4596 0 00-.351-.547l-7.118-1.554c-.109-1.491-.185-3.079-.225-4.617l7.147 1.56a.4586.4586 0 10.196-.896l-7.174-1.567a.4587.4587 0 00-.188-.002c-.06-3.559.084-6.679.464-7.439 2.151 2.151 3.411 3.357 5.976 4.355 1.813.707 3.361 1.31 4.121 2.07.891.891-.139 3.318-.977 5.294-.907 2.137 3.55 6.083 4.649 3.885.053-.105.098-.202.136-.292.029-.161.093-.324.151-.473.099-.255.182-.47.049-.559-.897-.605-1.5-1.737-1.5-3.032 0-1.933 1.343-3.5 3-3.5s3 1.567 3 3.5c0 1.295-.603 2.427-1.5 3.032-.117.079-.074.253-.003.468h.003v.009c.01.028.02.057.03.086.057.166.12.349.137.527.044.081.099.161.169.234 2.468 1.235 5.596-1.653 4.649-3.885-.838-1.976-1.868-4.403-.978-5.294.761-.76 2.309-1.363 4.122-2.07 2.565-.998 3.825-2.204 5.976-4.355.38.76.524 3.88.464 7.439a.4443.4443 0 00-.185.002l-7.174 1.567a.4586.4586 0 00-.351.546c.054.248.299.405.546.35l7.145-1.56c-.04 1.539-.116 3.127-.226 4.618l-7.114 1.553a.4596.4596 0 00-.351.547c.054.247.299.404.546.35l6.843-1.494c-.238 2.759-.597 5.044-1.061 5.817-1.152 1.919-3.611 3.765-6.006 4.67-2.76 1.042-5.436 2.052-5.927 4.509-.262 1.309-.084 2.287.329 3.06z" fill="#333139"/><path d="M308.998 159.985s1.321-.638 3.085-1.759c-.413-.773-.591-1.751-.329-3.06.432-2.16 2.552-3.202 4.934-4.13h-15.376c2.382.928 4.502 1.97 4.934 4.13.262 1.31.084 2.288-.33 3.061 1.762 1.121 3.082 1.758 3.082 1.758z" fill="#AB3838"/><path d="M295.231 120.744s8.344-1.377 13.769-1.377c5.425 0 13.769 1.377 13.769 1.377v7.344s-8.344-1.377-13.769-1.377c-5.425 0-13.769 1.377-13.769 1.377v-7.344z" fill="#F2F2F2"/><path d="M297.067 122.06s7.232-1.193 11.933-1.193 11.933 1.193 11.933 1.193v4.528s-7.232-1.193-11.933-1.193-11.933 1.193-11.933 1.193v-4.528z" fill="#7D7D7D"/></svg>