<?xml version="1.0" encoding="UTF-8"?><svg width="500" height="500" viewBox="0 0 500 500" fill="none" xmlns="http://www.w3.org/2000/svg"><path fill-rule="evenodd" clip-rule="evenodd" d="M203.006 109.193h93.643V21.8979h-93.643v87.2951z" fill="#B9CBDC"/><path fill-rule="evenodd" clip-rule="evenodd" d="M202.867 32.198h93.458v-14.2h-93.458v14.2z" fill="#383838"/><path fill-rule="evenodd" clip-rule="evenodd" d="M249.514 57.7057c-50.082 0-47.798-39.4691-48.742-39.14-7.516 2.6186-24.133 14.9368-52.439 25.495-31.873 11.885-52.6259 19.315-60.7825 31.2 11.1149 8.915 46.6945 28.9703 46.6945 120.3453v271.14s49.658 14.855 114.885 14.855c68.929 0 115.648-14.855 115.648-14.855v-271.14c0-91.375 35.58-111.4303 46.7-120.3453-8.157-11.885-28.91-19.315-60.783-31.2-28.36-10.5767-44.982-22.9195-52.478-25.5087-.927-.3203 4.177 39.1537-48.703 39.1537z" fill="#B8D0E7"/><path fill-rule="evenodd" clip-rule="evenodd" d="M87.5505 75.26s-40.7627 72.8-58.5475 127.77c4.4449 13.375 45.2077 40.86 85.232 37.885 13.34-36.4 24.46-52 24.46-52S141.658 93.83 87.5505 75.26zm323.9255 0s40.762 72.8 58.547 127.77c-4.445 13.375-45.208 40.86-85.232 37.885-13.34-36.4-24.46-52-24.46-52S357.368 93.83 411.476 75.26z" fill="#B8D0E7"/><path fill-rule="evenodd" clip-rule="evenodd" d="M467.462 195.3c.936 2.666 1.827 5.303 2.667 7.899-4.445 13.375-45.208 40.86-85.232 37.885-.958-2.613-1.904-5.119-2.835-7.519 20.795-1.358 37.993-5.637 51.594-12.838 13.428-7.108 24.697-15.584 33.806-25.427zm-435.8072 0c9.1031 9.827 20.3605 18.291 33.7723 25.391 13.611 7.206 30.8241 11.486 51.6399 12.84a426.01 426.01 0 00-2.835 7.517c-40.0242 2.975-80.787-24.51-85.2319-37.885.8363-2.585 1.7234-5.209 2.6547-7.863z" fill="#F2F2F2"/><path fill-rule="evenodd" clip-rule="evenodd" d="M249.576 63.7516c51.479 0 58.279-35.895 58.279-40.38-5.772-3.24-9.728-5.345-12.008-5.345 0 0 5.881 32.495-46.335 32.495-48.521 0-46.336-32.495-46.336-32.495-2.279 0-6.235 2.105-12.002 5.345 0 0 7.368 40.38 58.402 40.38z" fill="#3D3D3D"/><path fill-rule="evenodd" clip-rule="evenodd" d="M413.584 238.323c-9.287 2.238-19.064 3.316-28.798 2.592-8.197-22.369-15.557-36.883-20.012-44.748v270.577s-21.102 6.71-55.867 11.111l-.544-.06c1.881-54.795 5.722-166.47 8.277-240.705 2.055-59.755 31.084-95.29 60.099-117.44-2.676 6.781-5.072 14.606-7 23.667 7.354 11.852 24.436 42.069 43.831 94.964.005.014.01.028.014.042zM190.717 477.795c-34.248-4.401-56.477-11.051-56.477-11.051V196.172c-4.456 7.867-11.813 22.379-20.009 44.743-9.633.716-19.3091-.332-28.511-2.524a1.056 1.056 0 01.0199-.096c19.3771-52.848 36.3051-83.066 43.6101-94.944-1.929-9.075-4.328-16.912-7.007-23.701 29.015 22.15 58.044 57.685 60.099 117.44 2.555 74.235 6.396 185.91 8.277 240.705h-.002z" fill="#000" fill-opacity=".06"/><path fill-rule="evenodd" clip-rule="evenodd" d="M288.76 134.197c0-4.251 1.76-8.633 1.76-8.633S298.233 123 309 123s18.48 2.564 18.48 2.564 1.76 4.382 1.76 8.633C329.24 160.35 309 167 309 167s-20.24-5.807-20.24-32.803z" fill="#F2F2F2"/><path fill-rule="evenodd" clip-rule="evenodd" d="M290.447 135.061c0-1.53.247-3.079.547-4.398 0 0 6.727-2.53 18.006-2.53s18.006 2.53 18.006 2.53c.3 1.319.547 2.868.547 4.398 0 24.061-18.553 30.179-18.553 30.179s-18.553-5.342-18.553-30.179z" fill="#21384D"/><path d="M291.29 132.966c1.573-.499 7.942-2.305 17.71-2.305s16.137 1.806 17.71 2.305c-.097-.81-.243-.749-.405-1.462 0 0-6.465-2.431-17.305-2.431s-17.305 2.431-17.305 2.431c-.162.713-.308.652-.405 1.462z" fill="#87939D"/><path d="M291.29 127.893c1.573-.499 7.942-2.305 17.71-2.305s16.137 1.806 17.71 2.305c-.097-.81-.243-.749-.405-1.461 0 0-6.465-2.432-17.305-2.432s-17.305 2.432-17.305 2.432c-.162.712-.308.651-.405 1.461z" fill="#BEB7AF"/><path opacity=".6" d="M291.376 133.983c-.054.53-.086 1.069-.086 1.607 0 23.707 17.71 28.807 17.71 28.807v-22.77l-7.168-9.277c-3.009 0-7.09.798-10.456 1.633z" fill="#809EB8"/><rect x="312.373" y="134.88" width="8.4334" height="17.7101" rx="4.2167" fill="#B3BCC4"/><path d="M303 112l1.164 3.398 3.591.057-2.872 2.157 1.056 3.433L303 118.98l-2.939 2.065 1.056-3.433-2.872-2.157 3.591-.057L303 112zm12 0l1.164 3.398 3.591.057-2.872 2.157 1.056 3.433L315 118.98l-2.939 2.065 1.056-3.433-2.872-2.157 3.591-.057L315 112z" fill="#BEB7AF"/></svg>