<?xml version="1.0" encoding="UTF-8"?><svg width="500" height="500" viewBox="0 0 500 500" fill="none" xmlns="http://www.w3.org/2000/svg"><path fill-rule="evenodd" clip-rule="evenodd" d="M203.006 109.193h93.643V21.8979h-93.643v87.2951z" fill="#BB3030"/><path fill-rule="evenodd" clip-rule="evenodd" d="M202.867 32.198h93.458v-14.2h-93.458v14.2z" fill="#D1D1D1"/><path fill-rule="evenodd" clip-rule="evenodd" d="M249.514 57.7057c-50.082 0-47.798-39.4691-48.742-39.14-7.516 2.6186-24.133 14.9368-52.439 25.495-31.873 11.885-52.6259 19.315-60.7825 31.2 11.1149 8.915 46.6945 28.9703 46.6945 120.3453v271.14s49.658 14.855 114.885 14.855c68.929 0 115.648-14.855 115.648-14.855v-271.14c0-91.375 35.58-111.4303 46.7-120.3453-8.157-11.885-28.91-19.315-60.783-31.2-28.36-10.5767-44.982-22.9195-52.478-25.5087-.927-.3203 4.177 39.1537-48.703 39.1537z" fill="#DD4D4D"/><path fill-rule="evenodd" clip-rule="evenodd" d="M87.5506 75.26s-40.7628 72.8-58.5475 127.77c4.4449 13.375 45.2077 40.86 85.2319 37.885 13.34-36.4 24.46-52 24.46-52S141.658 93.83 87.5506 75.26zm323.9254 0s40.762 72.8 58.547 127.77c-4.445 13.375-45.208 40.86-85.232 37.885-13.34-36.4-24.46-52-24.46-52S357.368 93.83 411.476 75.26z" fill="#DD4D4D"/><path d="M364.778 241.045C340.389 239.351 287.399 236 250 236c-37.906 0-91.83 3.443-115.755 5.113v30C158.17 269.443 212.094 266 250 266c37.399 0 90.389 3.351 114.778 5.045v-30zm0 62C340.389 301.351 287.399 298 250 298c-37.906 0-91.83 3.443-115.755 5.113v30C158.17 331.443 212.094 328 250 328c37.399 0 90.389 3.351 114.778 5.045v-30zm0 62C340.389 363.351 287.399 360 250 360c-37.906 0-91.83 3.443-115.755 5.113v30C158.17 393.443 212.094 390 250 390c37.399 0 90.389 3.351 114.778 5.045v-30zm0 62C340.389 425.351 287.399 422 250 422c-37.906 0-91.83 3.443-115.755 5.113v30C158.17 455.443 212.094 452 250 452c37.399 0 90.389 3.351 114.778 5.045v-30z" fill="#205088"/><path fill-rule="evenodd" clip-rule="evenodd" d="M249.576 63.7516c51.479 0 58.279-35.895 58.279-40.38-5.772-3.24-9.728-5.345-12.008-5.345 0 0 5.881 32.495-46.335 32.495-48.521 0-46.336-32.495-46.336-32.495-2.279 0-6.235 2.105-12.002 5.345 0 0 7.368 40.38 58.402 40.38z" fill="#F2F2F2"/><path fill-rule="evenodd" clip-rule="evenodd" d="M413.584 238.323c-9.287 2.238-19.064 3.316-28.798 2.592-8.197-22.369-15.557-36.883-20.012-44.748v270.577s-21.102 6.71-55.867 11.111l-.544-.06c1.881-54.795 5.722-166.47 8.277-240.705 2.055-59.755 31.084-95.29 60.099-117.44-2.676 6.781-5.072 14.606-7 23.667 7.354 11.852 24.436 42.069 43.831 94.964.005.014.01.028.014.042zM190.717 477.795c-34.248-4.401-56.477-11.051-56.477-11.051V196.172c-4.456 7.867-11.813 22.379-20.009 44.743-9.633.716-19.3091-.332-28.511-2.524a1.056 1.056 0 01.0199-.096c19.3771-52.848 36.3051-83.066 43.6101-94.944-1.929-9.075-4.328-16.912-7.007-23.701 29.015 22.15 58.044 57.685 60.099 117.44 2.555 74.235 6.396 185.91 8.277 240.705h-.002z" fill="#000" fill-opacity=".06"/><path fill-rule="evenodd" clip-rule="evenodd" d="M285 128.5v-5.667S294.562 120 309 120s24 2.833 24 2.833v5.667c0 23.417-18 33.5-24 36.5-6-3-24-12.167-24-36.5z" fill="#F2F2F2"/><path fill-rule="evenodd" clip-rule="evenodd" d="M287 129.744v-5.163S295.765 122 309 122s22 2.581 22 2.581v5.163c0 19.336-16.5 30.523-22 33.256-5.5-2.733-22-13.085-22-33.256z" fill="#304C82"/><path d="M292.48 148.362c-2.334-3.61-4.198-7.9-5.022-12.914 2.838-.293 8.271-.34 10.542 1.552l6.5 1-12.02 10.362z" fill="#E95E5E"/><path d="M289 126s12.151-2 20-2 20 2 20 2v6s-12.151-2-20-2-20 2-20 2v-6z" fill="#ADB6CA"/><path d="M330.417 135.939c-1.835 9.578-7.688 16.707-13.052 21.335-4.897-.974-7.222-4.442-5.865-10.774 1.457-2.906 1.5-7 1.5-7s6.139-2.584 8.5-3c.734-.129 1.63-.309 2.546-.493l6.391-.178c-.006.037-.013.073-.02.11z" fill="#E95E5E"/><path d="M313 137.325c8.276.535 9.379-3.135 16-2.065-5.517.535-6.069 3.135-9.931 3.67-3.862.535-6.069 1.07-6.069 1.07v-2.675zm-6-.034c-9.31.542-10.552-3.115-18-2.031 6.207.542 6.828 3.114 11.172 3.656.809.101 1.554.202 2.23.299.389.057 1.098.285 1.098 1.285 2.26.35 3.5-1.5 3.5-1.5v-1.709z" fill="#304C82"/><path d="M300.084 156.998c-2.946-2.538-5.991-5.828-8.402-9.929l11.086-8.791c-.77-.112-1.638-.23-2.596-.348-1.904-.235-3.093-.675-4.35-1.14-1.612-.596-4.886-1.04-8.372-1.34 3.79-.544 7.523-.314 9.98.164 2.03.396 4.248.828 7.715.779l.04-.032c2.608-2.068 8.173-2.331 9.567.033 3.023.038 4.97-.389 6.755-.78 2.184-.478 5.624-.308 8.993.236-3.099.3-6.131.344-7.564.94-1.118.465-2.174.905-3.867 1.14-1.521.211-2.785.421-3.759.599.422 1.481 1.154 2.924 1.811 4.22 1.098 2.165 1.988 3.919.879 4.751-3 0-6.889-.431-7.5-1.5-1.032-1.807-1.132-1.463-1.469-.305-.315 1.086-.838 2.887-2.531 4.305-3.5 2.931-6.416 6.998-6.416 6.998z" fill="#F2F2F2"/><path d="M301.679 139.141l1.089-.863c-.066-.01-.133-.019-.2-.029 1.737-.138 3.279-.4 4.432-.958V139s-2.5 1.5-4.5.5a8.9056 8.9056 0 00-.821-.359z" fill="#304C82"/><path d="M308 152l.898 2.764h2.906l-2.351 1.708.898 2.764-2.351-1.708-2.351 1.708.898-2.764-2.351-1.708h2.906L308 152z" fill="#F2F2F2"/></svg>