<svg xmlns="http://www.w3.org/2000/svg" width="501" height="501" fill="none"><g clip-path="url(#a)"><path fill="#818181" fill-rule="evenodd" d="M203.6 109.93h93.65v-87.3H203.6v87.3Z" clip-rule="evenodd"/><path fill="#979797" fill-rule="evenodd" d="M203.47 32.93h93.45v-14.2h-93.46v14.2Z" clip-rule="evenodd"/><path fill="#F2F2F2" fill-rule="evenodd" d="M88.14 76S47.38 148.8 29.6 203.77c4.44 13.37 45.2 40.86 85.23 37.88 13.34-36.4 24.46-52 24.46-52S142.25 94.57 88.14 76Zm323.93 0s40.76 72.8 58.55 127.77c-4.45 13.37-45.2 40.86-85.23 37.88-13.34-36.4-24.46-52-24.46-52S357.96 94.57 412.07 76Z" clip-rule="evenodd"/><path fill="#F2F2F2" fill-rule="evenodd" d="M250.11 58.44c-50.08 0-47.8-39.47-48.74-39.14-7.52 2.62-24.13 14.94-52.44 25.5C117.06 56.68 96.3 64.1 88.15 76c11.11 8.91 46.7 28.97 46.7 120.34v271.14s49.65 14.86 114.88 14.86c68.93 0 115.65-14.86 115.65-14.86V196.34c0-91.37 35.58-111.43 46.7-120.34-8.16-11.89-28.91-19.32-60.79-31.2-28.36-10.58-44.98-22.92-52.48-25.51-.92-.32 4.18 39.15-48.7 39.15Z" clip-rule="evenodd"/><path fill="#0D812E" fill-rule="evenodd" d="M365.95 196.63V467.2s-2.61.84-7.52 2.1V198.52a33.7 33.7 0 0 1 4.32-1.43c.8-.19 1.86-.34 3.2-.45ZM142.92 469.2c-4.86-1.22-7.5-2-7.5-2V196.63c1.33.11 2.39.26 3.17.45 1.22.3 2.67.77 4.33 1.43V469.2Z" clip-rule="evenodd"/><path fill="#F1F1F1" fill-rule="evenodd" d="m202.24 27.51 1.73 3.22c-9.01 5.06-23.4 13.97-44.26 21.89-29.8 11.3-49.7 18.58-58.47 29.5a49.9 49.9 0 0 0-3.38-1.9c8.52-11.25 28.6-18.58 58.9-30.09 19.27-7.3 33.02-15.46 42.1-20.66v-.05c1.2-.69 2.33-1.33 3.38-1.9ZM91.18 77.34c8-11.9 28.4-19.32 59.7-31.2 19.27-7.32 33.02-15.47 42.1-20.67v-.05l.02-.01 1.73 3.23c-9.08 5.2-22.47 12.98-40.9 19.98-30.4 11.53-50.5 18.87-58.98 30.16-1.19-.52-2.42-1-3.67-1.44Zm207.92-49.4 2.61 1.48v.05c9.08 5.2 22.83 13.35 42.09 20.66 30.32 11.51 50.4 18.84 58.91 30.09a55.7 55.7 0 0 0-3.39 1.9c-8.75-10.91-28.66-18.2-58.46-29.5C321 45.07 307 36.63 297.92 31.47l-.4-.22 1.58-3.3Zm8.45-2.55.04.03v.05c9.08 5.2 22.83 13.35 42.09 20.66 31 11.77 51.29 19.17 59.47 30.85l.24.36c-1.26.44-2.48.92-3.68 1.44-8.47-11.29-28.57-18.63-58.97-30.16-17.93-6.81-31.1-14.35-40.16-19.55l-.45-.26 1.42-3.42Z" clip-rule="evenodd"/><path fill="#D9D9D9" fill-rule="evenodd" d="M250.17 64.49c51.48 0 58.28-35.9 58.28-40.38-5.77-3.24-9.72-5.35-12-5.35 0 0 5.88 32.5-46.34 32.5-48.52 0-46.34-32.5-46.34-32.5-2.28 0-6.23 2.1-12 5.35 0 0 7.37 40.38 58.4 40.38Z" clip-rule="evenodd"/><path fill="#0D812E" fill-rule="evenodd" d="M467.92 195.7c.94 2.66 1.83 5.3 2.67 7.9-4.45 13.37-45.21 40.86-85.23 37.88a434.6 434.6 0 0 0-2.84-7.52c20.8-1.36 38-5.64 51.6-12.84 13.42-7.1 24.7-15.58 33.8-25.42Zm-435.81 0c9.1 9.82 20.36 18.29 33.77 25.39 13.62 7.2 30.83 11.48 51.64 12.84-.93 2.4-1.87 4.9-2.83 7.51-40.03 2.98-80.79-24.5-85.23-37.88.83-2.59 1.72-5.2 2.65-7.86Z" clip-rule="evenodd"/><path fill="#000" fill-opacity=".1" fill-rule="evenodd" d="M414.04 239.06a93.73 93.73 0 0 1-28.8 2.59c-8.2-22.37-15.56-36.88-20.01-44.75v270.58s-21.1 6.7-55.87 11.1l-.54-.05 8.28-240.7c2.05-59.76 31.08-95.3 60.1-117.45a148.66 148.66 0 0 0-7 23.67c7.35 11.85 24.43 42.07 43.83 94.97a1 1 0 0 1 .01.04ZM191.17 478.53c-34.24-4.4-56.47-11.05-56.47-11.05V196.9c-4.46 7.86-11.82 22.38-20.01 44.74a93.6 93.6 0 0 1-28.51-2.52c0-.04 0-.07.02-.1 19.37-52.85 36.3-83.07 43.6-94.94a148.63 148.63 0 0 0-7-23.7c29.01 22.14 58.04 57.68 60.1 117.43 2.55 74.24 6.4 185.92 8.27 240.71Z" clip-rule="evenodd"/><path fill="#F2F2F2" fill-rule="evenodd" d="M309.82 167.7a22 22 0 1 0 0-44 22 22 0 0 0 0 44Z" clip-rule="evenodd"/><path fill="#0D812E" fill-rule="evenodd" d="M309.82 165.84a20.14 20.14 0 1 0 0-40.27 20.14 20.14 0 0 0 0 40.27Z" clip-rule="evenodd"/><path fill="#F2F2F2" fill-rule="evenodd" d="M309.82 162.9a17.2 17.2 0 1 0 0-34.4 17.2 17.2 0 0 0 0 34.4Z" clip-rule="evenodd"/><path fill="#0D812E" fill-rule="evenodd" d="M309.82 158.59a12.88 12.88 0 1 0 0-25.77 12.88 12.88 0 0 0 0 25.77Z" clip-rule="evenodd"/><path fill="#0D812E" fill-rule="evenodd" d="M309.82 158.59a12.88 12.88 0 1 0 0-25.77 12.88 12.88 0 0 0 0 25.77Z" clip-rule="evenodd"/><path fill="#0D812E" fill-rule="evenodd" d="M309.82 158.59a12.88 12.88 0 1 0 0-25.77 12.88 12.88 0 0 0 0 25.77Z" clip-rule="evenodd"/><path fill="#0D812E" fill-rule="evenodd" d="M309.82 158.59a12.88 12.88 0 1 0 0-25.77 12.88 12.88 0 0 0 0 25.77Z" clip-rule="evenodd"/><path fill="#F2F2F2" fill-rule="evenodd" d="M309.82 157.1a11.4 11.4 0 1 0 0-22.8 11.4 11.4 0 0 0 0 22.8Z" clip-rule="evenodd"/><path fill="#0D812E" d="m312.22 143.74 4.5 7.79h-11.59l2.26-3.92-4.47-7.75h11.54l-2.24 3.88Z"/></g><defs><clipPath id="a"><path fill="#fff" d="M.46.74h500v500H.46z"/></clipPath></defs></svg>