<?xml version="1.0" encoding="UTF-8"?><svg width="500" height="500" xmlns="http://www.w3.org/2000/svg"><g fill="none" fill-rule="evenodd"><path d="M0 0h500v500H0z"/><path fill="#CF4B00" d="M203.003 109.223h93.643V21.928h-93.643z"/><path fill="#EA5704" d="M202.864 32.228h93.458v-14.2h-93.458z"/><path d="M87.548 75.258S46.785 148.058 29 203.029c4.445 13.376 45.208 40.86 85.232 37.886 13.34-36.4 24.46-52 24.46-52S141.655 93.83 87.548 75.26m323.925-.002s40.762 72.8 58.547 127.77c-4.445 13.376-45.208 40.86-85.232 37.886-13.34-36.4-24.46-52-24.46-52s-2.963-95.085 51.145-113.655" fill="#FF5C00"/><path d="M249.511 57.703c-50.082 0-47.798-39.47-48.742-39.14-7.516 2.618-24.133 14.936-52.439 25.495-31.873 11.885-52.626 19.315-60.782 31.2 11.114 8.915 46.694 28.97 46.694 120.345v271.14s49.658 14.855 114.885 14.855c68.929 0 115.648-14.855 115.648-14.855v-271.14c0-91.375 35.58-111.43 46.7-120.345-8.157-11.885-28.91-19.315-60.783-31.2-28.36-10.577-44.982-22.92-52.478-25.511-.927-.318 4.177 39.156-48.703 39.156z" fill="#FF5C00"/><path d="M307.852 23.345C302.08 20.105 298.124 18 295.844 18c0 0 5.881 32.495-46.335 32.495-48.52 0-46.336-32.495-46.336-32.495-2.28 0-6.235 2.105-12.002 5.345 0 0 7.368 40.38 58.402 40.38 51.479 0 58.279-35.895 58.279-40.38z" fill="#EA5704"/><path d="M413.584 238.323c-9.287 2.238-19.064 3.316-28.798 2.592-8.197-22.369-15.557-36.883-20.012-44.748v270.577s-21.102 6.71-55.867 11.11l-.544-.059c1.881-54.795 5.722-166.47 8.277-240.705 2.055-59.755 31.084-95.29 60.099-117.44-2.676 6.78-5.072 14.606-7 23.667 7.354 11.852 24.436 42.069 43.831 94.964l.014.042zM190.717 477.795c-34.248-4.401-56.477-11.05-56.477-11.05V196.171c-4.456 7.867-11.813 22.38-20.01 44.743-9.632.716-19.308-.332-28.51-2.523.005-.033.012-.065.02-.097 19.377-52.848 36.305-83.066 43.61-94.944-1.93-9.075-4.328-16.912-7.007-23.701 29.015 22.15 58.044 57.685 60.1 117.44 2.554 74.235 6.395 185.91 8.276 240.705h-.002z" fill-opacity=".08" fill="#000"/><path d="M327.325 126.41c-1.267-1.846-3.483-2.752-5.47-1.714-1.705.889-7.443 6.8-5.516 13.125.004.022-.013.026-.004.056 2.437 9.863-.192 9.94-2.042 10.42.013-.272.034-.548.013-.833a5.6 5.6 0 00-4.024-4.926c1.195-1.195 1.897-2.866 1.748-4.683a5.874 5.874 0 00-1.454-3.415c4.032-.583 6.98-4.177 6.647-8.294a7.777 7.777 0 00-8.383-7.12 7.77 7.77 0 00-7.12 8.38 7.745 7.745 0 002.654 5.23 5.924 5.924 0 00-2.186 1.238c-1.433-1.399-2.743-3.904-2.463-8.549.137-2.233-2.135-3.892-4.368-3.709a4.05 4.05 0 00-3.713 4.368c.149 1.82 3.041 8.775 8.975 10.06-.06.131-.111.272-.154.408-5.193-.404-5.21-3.041-7.209-2.88a4.629 4.629 0 00-4.24 4.99c.208 2.551 2.51 4.852 4.993 4.244 2.5-.616 4.713-1.42 6.58-2.254a6.12 6.12 0 001.131 1.79 3.69 3.69 0 00-2.586-.782 3.722 3.722 0 00-3.407 4.01c.081.958.523 1.796 1.174 2.408-1.033.383-2.024.732-2.739.791a4.303 4.303 0 00-3.943 4.636 4.309 4.309 0 004.64 3.939c2.195-.179 6.653-6.337 7.133-9.123.838-.268 1.583-.243 2.008 1.076.715 2.229-1.582 2.977-1.433 4.849a3.062 3.062 0 003.296 2.802c.14-.012.26-.085.391-.114-.846 1.54-2.577 3.564-6.303 5.988-2.106 1.37 2.399 4.368 4.904 4.168 2.505-.204 3.203-2.05 4.912-3.887 2.544-2.722 6.38-6.66-1.118-9.319 0-.047.021-.085.017-.136-.004-.047-.034-.085-.038-.132.178.004.353.026.531.009 1.378-.111 2.582-.732 3.492-1.638a4.635 4.635 0 002.73 3.407c2.357 1.004 4.39-.527 6.083-2.446 4.538-5.146-.902-9.761-1.025-13.687-.128-4.087.753-11.182 5.818-3.96 1.29 1.834 5.445-2.433 1.068-8.791" fill="#F9F5F4"/></g></svg>