<?xml version="1.0" encoding="UTF-8"?><svg width="500" height="500" viewBox="0 0 500 500" xmlns="http://www.w3.org/2000/svg"><g fill="none" fill-rule="evenodd"><path d="M0 0h500v500H0z"/><path fill="#E0CB00" d="M203.0033 109.223h93.6432V21.928h-93.6432z"/><path fill="#30385D" d="M202.8636 32.228h93.4586v-14.2h-93.4586z"/><path d="M87.5475 75.2585s-40.7627 72.8-58.5475 127.77c4.445 13.375 45.2077 40.86 85.2322 37.885 13.3398-36.4 24.4596-52 24.4596-52s2.9633-95.085-51.1443-113.655m323.9252 0s40.7628 72.8 58.5475 127.77c-4.445 13.375-45.2077 40.86-85.2321 37.885-13.3399-36.4-24.4597-52-24.4597-52s-2.9633-95.085 51.1443-113.655" fill="#FBE400"/><path d="M249.5111 57.7025c-50.0817 0-47.7981-39.469-48.7426-39.14-7.5158 2.6187-24.1326 14.9368-52.4385 25.495-31.8729 11.885-52.626 19.315-60.7825 31.2 11.1149 8.915 46.6944 28.97 46.6944 120.345v271.14s49.6576 14.855 114.885 14.855c68.9291 0 115.6484-14.855 115.6484-14.855v-271.14c0-91.375 35.5795-111.43 46.6994-120.345-8.1566-11.885-28.9096-19.315-60.7825-31.2-28.3599-10.5767-44.9818-22.9194-52.478-25.5106-.9273-.3184 4.1773 39.1556-48.703 39.1556z" fill="#FBE400"/><path d="M249.5111 468.2c38.3757 0 76.797-5.0099 115.2642-15.0296v13.5721l-.8844.27c-6.7328 2.0117-51.3492 14.585-114.764 14.585-58.7046 0-104.7978-12.0326-113.4294-14.439l-1.4557-.416v-13.75c38.244 10.1383 76.667 15.2075 115.2693 15.2075z" fill="#CE3232"/><path d="M249.5111 454.25c38.3757 0 76.797-5.0099 115.2646-15.0296v13.9784C326.1769 463.2329 287.7553 468.25 249.511 468.25c-38.4693 0-76.8923-5.0763-115.2693-15.2289v-13.9787c38.244 10.1384 76.667 15.2076 115.2693 15.2076z" fill="#3E4877"/><path d="M470.1288 203.2016c-4.445 13.375-45.2077 40.86-85.2322 37.885a426.405 426.405 0 00-2.8354-7.5199c20.7951-1.3576 37.9933-5.6366 51.5945-12.837 13.4282-7.109 24.6968-15.5848 33.8057-25.4277.936 2.6666 1.8273 5.303 2.6674 7.8996zM31.6547 195.302c9.1031 9.8275 20.3606 18.2914 33.7724 25.3916 13.611 7.2056 30.824 11.4856 51.6393 12.84a426.4198 426.4198 0 00-2.8342 7.5169c-40.0245 2.975-80.7873-24.51-85.2322-37.885.8363-2.5849 1.7234-5.2092 2.6547-7.8635z" fill="#CE3232"/><path d="M307.8516 23.345c-5.772-3.24-9.728-5.345-12.0078-5.345 0 0 10.485 35.3976-46.3352 35.3976S203.1734 18 203.1734 18c-2.2798 0-6.2358 2.105-12.0028 5.345 0 0 7.3683 40.38 58.4029 40.38 51.4785 0 58.2781-35.895 58.2781-40.38z" fill="#FBE400"/><path d="M413.5843 238.3227c-9.2877 2.2382-19.0646 3.3161-28.7978 2.5926-8.1978-22.369-15.5572-36.883-20.0128-44.7484v270.5774s-21.1022 6.7098-55.8664 11.1104c-.1817-.0197-.363-.0396-.544-.0597 1.8808-54.795 5.7221-166.47 8.2763-240.705 2.0554-59.755 31.0847-95.29 60.099-117.44-2.6753 6.7806-5.0714 14.6063-6.9991 23.6673 7.354 11.8514 24.4358 42.0687 43.8307 94.964.005.014.0097.0277.014.0414zM190.7166 477.7953c-34.2478-4.4014-56.4763-11.051-56.4763-11.051V196.1721c-4.4558 7.8668-11.8138 22.3792-20.0097 44.7432-9.633.716-19.3087-.3323-28.5106-2.5238a1.113 1.113 0 01.0199-.0967c19.3773-52.8475 36.3054-83.0661 43.6098-94.9437-1.929-9.0753-4.3277-16.912-7.0064-23.7011 29.0144 22.15 58.0437 57.685 60.099 117.44 2.5543 74.235 6.3956 185.91 8.2763 240.7053h-.002z" fill-opacity=".06" fill="#000"/><path d="M209.6408 36.2782c6.0225 7.4035 17.6102 14.2433 39.8708 14.2433 23.622 0 35.354-6.65 41.1197-13.9335l.0609-.0772 5.8572 1.4982c-9.5397 13.429-25.1135 20.1436-46.7215 20.1436-21.6295 0-37.24-6.728-46.8315-20.1838l6.6444-1.6906z" fill="#CE3232"/><path d="M209.7338 36.3919a159.0736 159.0736 0 00-6.7061 1.6207c-3.4002-4.7584-6.046-10.36-7.9376-16.8049 3.6892-1.9817 6.3654-3.1812 8.0863-3.1812 0 0-.6456 9.601 6.5574 18.3654zm80.8275.2841c7.061-8.8397 5.2855-18.6495 5.2855-18.6495 1.785 0 4.5974 1.2903 8.5043 3.4054-1.8776 6.407-4.5088 11.9755-7.8933 16.7056a157.8645 157.8645 0 00-5.8965-1.4615z" fill="#3E4877"/><g transform="translate(285.73 121)"><circle fill="#2A2A2A" cx="23.27" cy="8" r="5"/><path d="M21.1728 7.5575C19.9381 4.3004 23 0 21.1728 0H0c8.7073 5.0383 15.7649 7.5575 21.1728 7.5575zm4.195 0C26.6025 4.3004 23.5406 0 25.3678 0h21.1728c-8.7073 5.0383-15.765 7.5575-21.1728 7.5575zM8.27 15c5-1.3333 10-2 15-2s10 .6667 15 2c0 8-5 17.6667-15 29-10-11.3333-15-21-15-29z" fill="#2A2A2A"/><path d="M10.27 16.492c4.3333-1.1614 8.6667-1.742 13-1.742 4.3333 0 8.6667.5806 13 1.742 0 6.9677-4.3333 15.387-13 25.258-8.6667-9.871-13-18.2903-13-25.258z" fill="#FF0"/><path d="M23.27 41.75c-2.3631-2.6915-4.4041-5.2751-6.1229-7.7508H29.393c-1.719 2.4758-3.76 5.0593-6.123 7.7508z" fill="#D60000"/><path d="M29.3929 33.9992H17.147c-1.9478-2.8055-3.4818-5.4724-4.6021-8.0008h21.45c-1.1203 2.5284-2.6543 5.1953-4.6021 8.0008z" fill="#001C82"/></g></g></svg>