<?xml version="1.0" encoding="UTF-8"?><svg width="500" height="500" viewBox="0 0 500 500" fill="none" xmlns="http://www.w3.org/2000/svg"><path fill-rule="evenodd" clip-rule="evenodd" d="M203.006 109.193h93.643V21.898h-93.643v87.295z" fill="#DBB738"/><path fill-rule="evenodd" clip-rule="evenodd" d="M202.867 32.198h93.458v-14.2h-93.458v14.2z" fill="#323232"/><path fill-rule="evenodd" clip-rule="evenodd" d="M249.514 57.7056c-50.082 0-47.798-39.4691-48.742-39.14-7.516 2.6187-24.133 14.9368-52.439 25.495-31.873 11.885-52.6259 19.315-60.7825 31.2 11.1149 8.915 46.6945 28.9704 46.6945 120.3454v271.14s49.658 14.855 114.885 14.855c68.929 0 115.648-14.855 115.648-14.855v-271.14c0-91.375 35.58-111.4304 46.7-120.3454-8.157-11.885-28.91-19.315-60.783-31.2-28.36-10.5767-44.982-22.9194-52.478-25.5087-.927-.3202 4.177 39.1537-48.703 39.1537z" fill="#F8D042"/><path fill-rule="evenodd" clip-rule="evenodd" d="M87.5505 75.26s-40.7627 72.8-58.5475 127.77c4.4449 13.375 45.2077 40.86 85.232 37.885 13.34-36.4 24.46-52 24.46-52S141.658 93.83 87.5505 75.26zm323.9255 0s40.762 72.8 58.547 127.77c-4.445 13.375-45.208 40.86-85.232 37.885-13.34-36.4-24.46-52-24.46-52S357.368 93.83 411.476 75.26z" fill="#F8D042"/><path fill-rule="evenodd" clip-rule="evenodd" d="M467.462 195.3c.936 2.666 1.827 5.303 2.667 7.899-4.445 13.375-45.208 40.86-85.232 37.885-.958-2.613-1.904-5.119-2.835-7.52 20.795-1.357 37.993-5.636 51.594-12.837 13.428-7.108 24.697-15.584 33.806-25.427zm-435.8072 0c9.1031 9.827 20.3605 18.291 33.7723 25.391 13.611 7.206 30.8241 11.486 51.6399 12.84a426.01 426.01 0 00-2.835 7.517c-40.0242 2.975-80.787-24.51-85.2319-37.885.8363-2.585 1.7234-5.209 2.6547-7.863zM96.6456 80.8164c8.5394-11.2398 28.6594-18.5705 59.0414-30.0765 19.302-7.3121 33.083-15.4683 42.191-20.6622l-.009-.0503c1.212-.6917 2.343-1.3317 3.394-1.9105l1.73 3.2146c-9.03 5.0641-23.459 13.9728-44.362 21.8915-29.863 11.3096-49.812 18.5852-58.594 29.5042a52.1412 52.1412 0 00-3.3914-1.9108zm-6.7003-2.8755c8.0311-11.886 28.4647-19.316 59.8477-31.201 19.301-7.3121 33.083-15.4683 42.191-20.6622-.007-.0333-.01-.0503-.01-.0503l.024-.0137 1.738 3.2282c-9.103 5.2076-22.521 12.9811-40.999 19.9811-30.458 11.535-50.603 18.8735-59.1057 30.1614l-3.686-1.4435zm312.2357 2.8782a52.1144 52.1144 0 00-3.391 1.9111c-8.78-10.9206-28.73-18.1964-58.596-29.5071-20.204-7.6539-34.36-16.2328-43.438-21.3708l1.584-3.3041c.826.4607 1.698.9552 2.617 1.4793 0 0-.003.0171-.01.0504 9.108 5.1939 22.889 13.3501 42.191 20.6621 30.384 11.507 50.505 18.8378 59.043 30.0791zm6.7-2.8761c-1.26.4393-2.488.9213-3.685 1.4438-8.502-11.2891-28.647-18.6279-59.108-30.1637-18.275-6.9233-31.602-14.6034-40.698-19.8092L306.803 26l.048.0275s-.003.0171-.01.0504c9.108 5.1939 22.89 13.3501 42.191 20.6621 31.383 11.885 51.817 19.315 59.848 31.2v.001s0 .0007.001.002z" fill="#3D3D3D"/><path fill-rule="evenodd" clip-rule="evenodd" d="M249.576 63.7515c51.479 0 58.279-35.895 58.279-40.38-5.772-3.24-9.728-5.345-12.008-5.345 0 0 5.881 32.495-46.335 32.495-48.521 0-46.336-32.495-46.336-32.495-2.279 0-6.235 2.105-12.002 5.345 0 0 7.368 40.38 58.402 40.38z" fill="#3D3D3D"/><path fill-rule="evenodd" clip-rule="evenodd" d="M413.584 238.323c-9.287 2.238-19.064 3.316-28.798 2.592-8.197-22.369-15.557-36.883-20.012-44.748v270.577s-21.102 6.71-55.867 11.111l-.544-.06c1.881-54.795 5.722-166.47 8.277-240.705 2.055-59.755 31.084-95.29 60.099-117.44-2.676 6.781-5.072 14.606-7 23.667 7.354 11.852 24.436 42.069 43.831 94.964.005.014.01.028.014.042zM190.717 477.795c-34.248-4.401-56.477-11.051-56.477-11.051V196.172c-4.456 7.867-11.813 22.379-20.009 44.743-9.633.716-19.3091-.332-28.511-2.523a1.01 1.01 0 01.0199-.097c19.3771-52.848 36.3051-83.066 43.6101-94.944-1.929-9.075-4.328-16.912-7.007-23.701 29.015 22.15 58.044 57.685 60.099 117.44 2.555 74.235 6.396 185.91 8.277 240.705h-.002z" fill="#000" fill-opacity=".06"/><path fill-rule="evenodd" clip-rule="evenodd" d="M309 167c13.255 0 24-10.745 24-24s-10.745-24-24-24-24 10.745-24 24 10.745 24 24 24z" fill="#F2F2F2"/><path fill-rule="evenodd" clip-rule="evenodd" d="M309 165c12.15 0 22-9.85 22-22s-9.85-22-22-22-22 9.85-22 22 9.85 22 22 22z" fill="#3D3D3D"/><path fill-rule="evenodd" clip-rule="evenodd" d="M309 157c7.732 0 14-6.268 14-14s-6.268-14-14-14-14 6.268-14 14 6.268 14 14 14z" fill="#F8D042"/><path fill-rule="evenodd" clip-rule="evenodd" d="M309 157c7.732 0 14-6.268 14-14s-6.268-14-14-14-14 6.268-14 14 6.268 14 14 14z" fill="#F8D042"/><path fill-rule="evenodd" clip-rule="evenodd" d="M309 155c6.627 0 12-5.373 12-12s-5.373-12-12-12-12 5.373-12 12 5.373 12 12 12z" fill="#BC9E35"/><path fill-rule="evenodd" clip-rule="evenodd" d="M319.392 149c3.314-5.74 1.348-13.079-4.392-16.392l-12 20.784c5.74 3.314 13.079 1.348 16.392-4.392z" fill="#9B8229"/></svg>