<?xml version="1.0" encoding="UTF-8"?><svg width="500" height="500" xmlns="http://www.w3.org/2000/svg"><g fill="none" fill-rule="evenodd"><path d="M0 0h500v500H0z"/><path fill="#D9D9D9" d="M203.003 109.223h93.643V21.928h-93.643z"/><path d="M87.548 75.258S46.785 148.058 29 203.029c4.445 13.376 45.208 40.86 85.232 37.886 13.34-36.4 24.46-52 24.46-52S141.655 93.83 87.548 75.26m323.925-.002s40.762 72.8 58.547 127.77c-4.445 13.376-45.208 40.86-85.232 37.886-13.34-36.4-24.46-52-24.46-52s-2.963-95.085 51.145-113.655" fill="#F2F2F2"/><path d="M249.511 57.703c-50.082 0-47.798-39.47-48.742-39.14-7.516 2.618-24.133 14.936-52.439 25.495-31.873 11.885-52.626 19.315-60.782 31.2 11.114 8.915 46.694 28.97 46.694 120.345v271.14s49.658 14.855 114.885 14.855c68.929 0 115.648-14.855 115.648-14.855v-271.14c0-91.375 35.58-111.43 46.7-120.345-8.157-11.885-28.91-19.315-60.783-31.2-28.36-10.577-44.982-22.92-52.478-25.511-.927-.318 4.177 39.156-48.703 39.156z" fill="#F2F2F2"/><path d="M249.509 50.495c23.73 0 35.462-6.712 41.199-14.034l3.191.839c45.286 11.339 71.551 39.427 71.551 68.16v68.857c-.455 6.628-.7 13.712-.7 21.286v271.142s-43.162 13.71-107.735 14.788c-2.595.042-5.225.065-7.888.065-64.901 0-114.388-14.707-114.881-14.854l.004-361.284c0-28.451 25.751-56.27 70.222-67.817l5.219-1.327c6.037 7.379 17.622 14.179 39.818 14.179z" fill="#EBEBEB"/><path fill="#B52B34" d="M202.867 31.198h93.458v-13.2h-93.458z"/><path d="M307.852 23.345C302.08 20.105 298.124 18 295.844 18c0 0 5.881 32.495-46.335 32.495-48.52 0-46.336-32.495-46.336-32.495-2.28 0-6.235 2.105-12.002 5.345 0 0 7.368 40.38 58.402 40.38 51.479 0 58.279-35.895 58.279-40.38z" fill="#D53641"/><path d="M413.584 238.323c-9.287 2.238-19.064 3.316-28.798 2.592-8.197-22.369-15.557-36.883-20.012-44.748v270.577s-21.102 6.71-55.867 11.11l-.544-.059c1.881-54.795 5.722-166.47 8.277-240.705 2.055-59.755 31.084-95.29 60.099-117.44-2.676 6.78-5.072 14.606-7 23.667 7.354 11.852 24.436 42.069 43.831 94.964l.014.042zM190.717 477.795c-34.248-4.401-56.477-11.05-56.477-11.05V196.171c-4.456 7.867-11.813 22.38-20.01 44.743-9.632.716-19.308-.332-28.51-2.523.005-.033.012-.065.02-.097 19.377-52.848 36.305-83.066 43.61-94.944-1.93-9.075-4.328-16.912-7.007-23.701 29.015 22.15 58.044 57.685 60.1 117.44 2.554 74.235 6.395 185.91 8.276 240.705h-.002z" fill-opacity=".06" fill="#000"/><path d="M291 121h36v34a6 6 0 01-6 6h-7c-3.333 0-5 1.333-5 4 0-2.667-1.667-4-5-4h-7a6 6 0 01-6-6v-34z" fill="#DC0D3A"/><path d="M310.241 130.027c.426 3.302 1.154 4.06.8 5.61l-.041.163c1.184-.162 1.907-.374 2.17-.638.538-.537-2.445.17-.684-2.104 1.174-1.517 2.685-2.61 4.533-3.278 2.426 2.028 4.75 4.888 4.75 9.105 0 2.244-.548 4.936-1.432 6.318-.884 1.383-2.896 2.86-5.138 3.586-2.102-1.685-3.91-5.597-4.199-6.989h-.4c.251.334.4.75.4 1.2v1.768l4.616 7.995c.256.444.078 1.11-.366 1.366a1 1 0 01-1.302-.268c-.199-.268-1.39-2.327-3.574-6.177l1.356 6.1a1 1 0 01-.977 1.216h-3.506c-.553 0-1-.54-1-1 0-.307.46-2.412 1.379-6.316l-3.51 6.08a1 1 0 01-1.732-1l4.616-7.996V143c0-.45.149-.866.4-1.2h-.4c-.602 2.898-2.002 5.228-4.199 6.989-2.242-.726-4.254-2.203-5.138-3.586-.884-1.382-1.431-4.074-1.431-6.318 0-4.473 1.716-6.542 4.749-9.105 1.848.669 3.359 1.761 4.533 3.278 1.761 2.275-1.222 1.567-.685 2.104.264.264.987.476 2.171.638-.424-1.646 2-2.863 1.363-3.992-.36-.638-1.31-.947-2.849-.927l.306-1.1c2.654-2.114 4.127-2.032 4.421.246z" fill="#F3F2F4"/><path fill="#F2C84C" d="M306.5 127l1.3 1 .7-1 .7 1 1.3-1-.5 2h-3z"/></g></svg>