<?xml version="1.0" encoding="UTF-8"?><svg width="500" height="500" viewBox="0 0 500 500" xmlns="http://www.w3.org/2000/svg"><g fill="none" fill-rule="evenodd"><path d="M0 0h500v500H0z"/><path fill="#D3D0CF" d="M203.0033 109.223h93.6432V21.928h-93.6432z"/><path fill="#AF1817" d="M202.8636 32.228h93.4586v-14.2h-93.4586z"/><path d="M87.5475 75.2585s-40.7627 72.8-58.5475 127.77c4.445 13.375 45.2077 40.86 85.2322 37.885 13.3398-36.4 24.4596-52 24.4596-52s2.9633-95.085-51.1443-113.655m323.9252 0s40.7628 72.8 58.5475 127.77c-4.445 13.375-45.2077 40.86-85.2321 37.885-13.3399-36.4-24.4597-52-24.4597-52s-2.9633-95.085 51.1443-113.655" fill="#F2F2F2"/><path d="M249.5111 57.7025c-50.0817 0-47.7981-39.469-48.7426-39.14-7.5158 2.6187-24.1326 14.9368-52.4385 25.495-31.8729 11.885-52.626 19.315-60.7825 31.2 11.1149 8.915 46.6944 28.97 46.6944 120.345v271.14s49.6576 14.855 114.885 14.855c68.9291 0 115.6484-14.855 115.6484-14.855v-271.14c0-91.375 35.5795-111.43 46.6994-120.345-8.1566-11.885-28.9096-19.315-60.7825-31.2-28.3599-10.5767-44.9818-22.9194-52.478-25.5106-.9273-.3184 4.1773 39.1556-48.703 39.1556z" fill="#F2F2F2"/><path d="M163.6953 55.5314c9.1287-6.4062 20.2055-11.8384 33.0352-15.8638l1.8064 439.0345c-10.2571-1.1458-19.5986-2.528-27.788-3.9405a431.5823 431.5823 0 01-7.0536-1.3466V55.5314zm172.6094.7086v417.2433c-9.588 1.8416-21.3541 3.7374-34.921 5.2298V39.3885c13.6813 4.1982 25.399 9.987 34.921 16.8515zm28.9346 121.911c-.3013 5.4991-.461 11.3003-.461 17.4215v271.14s-2.6302.8363-7.5632 2.112V78.1396c5.2674 8.603 8.0242 17.8189 8.0242 27.1024v72.909zm-231.4763-.378v-72.531c0-8.6785 2.4092-17.298 7.0265-25.4127v388.6473c-4.2502-1.0776-6.5446-1.764-6.5446-1.764v-271.14c0-6.2616-.167-12.1883-.482-17.7995zm133.6975 303.4447a480.7024 480.7024 0 01-18.3305.3498c-5.6546 0-11.1921-.1116-16.5905-.3156V58h34.921v423.2177z" fill="#C72221"/><path d="M202.2147 24.5768l1.749 3.1978c-9.0267 4.8588-24.1451 14.369-46.657 22.766-31.8729 11.885-52.626 19.315-60.7804 31.2017-.002-.0007-11.0796 19.7832-24.2047 46.5116a52.8932 52.8932 0 01-3.11-2.2383C82.3894 99.162 93.534 79.2585 93.534 79.2585l.002.0007c8.1545-11.8867 28.9076-19.3167 60.7805-31.2017 19.604-7.3124 33.601-15.4689 42.8512-20.6627-.0075-.0328-.0106-.0498-.0106-.0498 1.8759-1.054 3.5602-1.9878 5.0576-2.7682z" fill="#C72221"/><path d="M192.4495 26.8472c-9.2335 5.2034-22.7053 12.8212-41.1292 19.6934-31.873 11.885-52.626 19.315-60.7805 31.2017-.002-.0007-11.0795 19.7831-24.2046 46.5115a52.8192 52.8192 0 01-3.11-2.2382C76.403 95.1619 87.5474 75.2585 87.5474 75.2585c8.1566-11.886 28.9096-19.316 60.7825-31.201 19.604-7.3124 33.6011-15.4689 42.8513-20.6627a1.2403 1.2403 0 01-.0107-.0498l1.2789 3.5022zm106.6432-1.0397c.8701.4771 1.791.9912 2.7635 1.5375 0 0-.003.017-.0106.0498 9.2501 5.1938 23.2472 13.3503 42.8512 20.6627 31.8729 11.885 52.626 19.315 60.7804 31.2017l.002-.0007s11.1446 19.9034 24.3225 46.757a52.8188 52.8188 0 01-3.11 2.2383c-13.1252-26.7284-24.2027-46.5122-24.2027-46.5122l-.002.0007c-8.1545-11.8867-28.9076-19.3167-60.7804-31.2017-20.7115-7.7254-35.1648-16.3931-44.3737-21.514l1.7598-3.2191z" fill="#C72221"/><path d="M307.8427 23.345s-.0031.017-.0107.0498c9.2502 5.1938 23.2473 13.3503 42.8512 20.6627 31.873 11.885 52.626 19.315 60.7805 31.2017.002-.0007 11.1465 19.9027 24.3244 46.7564a52.8188 52.8188 0 01-3.11 2.2382c-13.1251-26.7284-24.2026-46.5122-24.2026-46.5122-8.1566-11.886-28.9096-19.316-60.7825-31.201-18.28-6.8185-31.6849-14.371-40.912-19.571l1.0617-3.6246zm162.2861 179.8566c-4.445 13.375-45.2077 40.86-85.2322 37.885a426.405 426.405 0 00-2.8354-7.5199c20.7951-1.3576 37.9933-5.6366 51.5945-12.837 13.4282-7.109 24.6968-15.5848 33.8057-25.4277.936 2.6666 1.8273 5.303 2.6674 7.8996zM31.6547 195.302c9.1031 9.8275 20.3606 18.2914 33.7724 25.3916 13.611 7.2056 30.824 11.4856 51.6393 12.84a426.4198 426.4198 0 00-2.8342 7.5169c-40.0245 2.975-80.7873-24.51-85.2322-37.885.8363-2.5849 1.7234-5.2092 2.6547-7.8635z" fill="#C72221"/><path d="M293.8907 36.9557C341.4061 48.0872 369 76.3371 369 105.242v41.277c-2.0522 10.5821-3.4767 22.7728-4 36.846v-78.123c0-17.1288-10.617-34.0605-29.8476-46.8864-11.9204-7.9502-26.607-14.004-43.3966-17.7955a33.1668 33.1668 0 002.1349-3.6043zM130 146.3992v-41.1573c0-29.0891 27.947-57.5149 76.0206-68.4925a36.813 36.813 0 002.2191 3.5953c-17.2092 3.7735-32.2384 9.9068-44.3922 18.012C144.617 71.1815 134 88.113 134 105.242v77.5148c-.5434-13.8695-1.965-25.9003-4-36.3575z" fill="#354DA5" fill-rule="nonzero"/><path d="M307.8516 23.345c-5.772-3.24-9.728-5.345-12.0078-5.345 0 0 5.8817 32.495-46.3352 32.495-48.5202 0-46.3352-32.495-46.3352-32.495-2.2798 0-6.2358 2.105-12.0028 5.345 0 0 7.3683 40.38 58.4029 40.38 51.4785 0 58.2781-35.895 58.2781-40.38z" fill="#C72221"/><path d="M413.5843 238.3227c-9.2877 2.2382-19.0646 3.3161-28.7978 2.5926-8.1978-22.369-15.5572-36.883-20.0128-44.7484v270.5774s-21.1022 6.7098-55.8664 11.1104c-.1817-.0197-.363-.0396-.544-.0597 1.8808-54.795 5.7221-166.47 8.2763-240.705 2.0554-59.755 31.0847-95.29 60.099-117.44-2.6753 6.7806-5.0714 14.6063-6.9991 23.6673 7.354 11.8514 24.4358 42.0687 43.8307 94.964.005.014.0097.0277.014.0414zM190.7166 477.7953c-34.2478-4.4014-56.4763-11.051-56.4763-11.051V196.1721c-4.4558 7.8668-11.8138 22.3792-20.0097 44.7432-9.633.716-19.3087-.3323-28.5106-2.5238a1.113 1.113 0 01.0199-.0967c19.3773-52.8475 36.3054-83.0661 43.6098-94.9437-1.929-9.0753-4.3277-16.912-7.0064-23.7011 29.0144 22.15 58.0437 57.685 60.099 117.44 2.5543 74.235 6.3956 185.91 8.2763 240.7053h-.002z" fill-opacity=".09" fill="#000"/><g transform="translate(285 119)"><circle fill="#00619F" cx="24" cy="24" r="24"/><circle fill="#FFF" cx="24" cy="24" r="21"/><path fill="#FFCD01" fill-rule="nonzero" d="M26.2815 24.913l1.4267 4.587L24 26.6557 20.2918 29.5l1.4268-4.587L18 22.0835l4.59.0092L24 17.5l1.41 4.5928 4.59-.0092z"/><path d="M15.0344 24.7923a8.9434 8.9434 0 00.8371 3.0762L7.6253 33.643a18.9214 18.9214 0 01-1.3293-2.732l8.7384-6.1188zm17.9311.001l8.7385 6.1178a18.9214 18.9214 0 01-1.3293 2.7318l-8.2462-5.7744a8.9434 8.9434 0 00.837-3.0752zM11.455 9.73l8.7325 6.115a9.0222 9.0222 0 00-2.6014 1.8414l-8.2457-5.7742A19.1162 19.1162 0 0111.455 9.73zm16.3567 6.1145L36.5452 9.73a19.1162 19.1162 0 012.1146 2.1822l-8.2457 5.7742a9.0222 9.0222 0 00-2.6024-1.8419L36.5452 9.73l-8.7335 6.1145z" fill="#CD0016"/><path d="M17.5733 30.3006a9.0229 9.0229 0 002.5937 1.8447l-8.727 6.1114a19.1161 19.1161 0 01-2.1112-2.183l8.2445-5.7731zm12.8534 0l8.2445 5.7731a19.1161 19.1161 0 01-2.1111 2.183l-8.7275-6.1112a9.0229 9.0229 0 002.5941-1.845zM7.6356 14.3398l8.2445 5.7738a8.943 8.943 0 00-.8438 3.072L6.3031 17.071a18.909 18.909 0 011.3325-2.731zm24.4843 5.7738l8.2451-5.7728c.5135.868.9598 1.7804 1.332 2.73l-8.7333 6.1148a8.943 8.943 0 00-.8438-3.072l8.2451-5.7728-8.245 5.7728z" fill="#00619F"/></g></g></svg>