<?xml version="1.0" encoding="UTF-8"?><svg height="500" viewBox="0 0 500 500" width="500" xmlns="http://www.w3.org/2000/svg"><g fill="none" fill-rule="evenodd"><path d="M0 0h500v500H0z"/><path d="M203.006 109.193h93.643V21.898h-93.643z" fill="#bababa"/><path d="M202.867 32.198h93.458v-14.2h-93.458z" fill="#d9d9d9"/><path d="M87.55 75.26s-40.762 72.8-58.547 127.77c4.445 13.375 45.208 40.86 85.232 37.885 13.34-36.4 24.46-52 24.46-52S141.658 93.83 87.55 75.26M411.476 75.26s40.762 72.8 58.547 127.77c-4.445 13.375-45.208 40.86-85.232 37.885-13.34-36.4-24.46-52-24.46-52S357.368 93.83 411.476 75.26" fill="#3f65d2"/><path d="M249.514 57.706c-50.082 0-47.798-39.47-48.742-39.14-7.516 2.618-24.133 14.936-52.439 25.495-31.873 11.885-52.626 19.315-60.782 31.2 11.114 8.915 46.694 28.97 46.694 120.345v271.14S183.903 481.6 249.13 481.6c68.929 0 115.648-14.855 115.648-14.855v-271.14c0-91.375 35.58-111.43 46.7-120.345-8.157-11.885-28.91-19.315-60.783-31.2-28.36-10.577-44.982-22.92-52.478-25.511-.927-.318 4.177 39.156-48.703 39.156z" fill="#3f65d2"/><g fill="#f2f2f2"><path d="M134.245 392.167a1596.76 1596.76 0 0 1 115.258-4.169c38.425 0 76.85 1.39 115.275 4.17v45c-38.425-2.78-76.85-4.17-115.275-4.17-38.42 0-76.839 1.39-115.258 4.17zm0-90a1596.76 1596.76 0 0 1 115.258-4.169c38.425 0 76.85 1.39 115.275 4.17v45c-38.418-2.78-76.84-4.17-115.264-4.17-38.423 0-76.846 1.39-115.27 4.17zM108.128 94.275a1600.855 1600.855 0 0 1 141.468-6.277c47.103 0 94.205 2.091 141.304 6.273-7.372 9.352-14.876 22.938-19.938 43.339a1591.15 1591.15 0 0 0-121.134-4.612 1602.99 1602.99 0 0 0-121.76 4.637c-5.062-20.412-12.567-34.004-19.94-43.36zm25.85 87.912a1596.966 1596.966 0 0 1 115.536-4.189c38.51 0 77.021 1.397 115.532 4.19a326.305 326.305 0 0 0-.268 13.385v61.596c-38.425-2.78-76.85-4.171-115.275-4.171-38.42 0-76.839 1.39-115.258 4.17v-61.596c0-4.643-.092-9.102-.268-13.385zM467.461 195.302a338.826 338.826 0 0 1 2.668 7.9c-4.445 13.375-45.208 40.86-85.232 37.885a426.405 426.405 0 0 0-2.836-7.52c20.795-1.358 37.993-5.637 51.595-12.837 13.428-7.11 24.696-15.585 33.805-25.428zM31.655 195.302c9.103 9.828 20.36 18.291 33.772 25.392 13.611 7.205 30.824 11.485 51.64 12.84a426.42 426.42 0 0 0-2.835 7.516C74.208 244.025 33.445 216.54 29 203.165c.836-2.584 1.723-5.209 2.655-7.863zM249.576 63.752c51.479 0 58.279-35.895 58.279-40.38-5.772-3.24-9.728-5.345-12.008-5.345 0 0 5.881 32.495-46.335 32.495-48.52 0-46.336-32.495-46.336-32.495-2.28 0-6.235 2.105-12.002 5.345 0 0 7.368 40.38 58.402 40.38"/></g><path d="M309 171c11.598 0 21-8.395 21-18.75V121h-42v31.25c0 10.355 9.402 18.75 21 18.75z" fill="#f2f2f2"/><path d="M309 169c10.493 0 19-7.723 19-17.25V123h-38v28.75c0 9.527 8.507 17.25 19 17.25z" fill="#6ac3ee"/><path d="M309 169c10.493 0 19-7.723 19-17.25V123h-38v28.75c0 9.527 8.507 17.25 19 17.25z" fill="#6ac3ee"/><g fill="#427cc9"><path d="M306 151c0 3.314-2.558 6-5.714 6h-9.381c-.62-1.895-.905-3.116-.905-6v-6h10.286c3.156 0 5.714 2.686 5.714 6z"/><path d="M309 149c3.314 0 6-2.558 6-5.714V133h-12v10.286c0 3.156 2.686 5.714 6 5.714zM309 153c3.314 0 6 2.558 6 5.714v9.407c-2.017.586-4.017.879-6 .879s-3.983-.293-6-.879v-9.407c0-3.156 2.686-5.714 6-5.714z"/><path d="M306 151c0 3.314-2.558 6-5.714 6h-9.381c-.62-1.895-.905-3.116-.905-6v-6h10.286c3.156 0 5.714 2.686 5.714 6zM312 151c0 3.314 2.558 6 5.714 6h9.381c.62-1.895.905-3.116.905-6v-6h-10.286c-3.156 0-5.714 2.686-5.714 6z"/></g><path d="M290 123h38v10h-38z" fill="#f0272c"/><path d="M413.584 238.323c-9.287 2.238-19.064 3.316-28.798 2.592-8.197-22.369-15.557-36.883-20.012-44.748v270.577s-21.102 6.71-55.867 11.11l-.544-.059c1.881-54.795 5.722-166.47 8.277-240.705 2.055-59.755 31.084-95.29 60.099-117.44-2.676 6.78-5.072 14.606-7 23.667 7.354 11.852 24.436 42.069 43.831 94.964l.014.042zM190.717 477.795c-34.248-4.401-56.477-11.05-56.477-11.05V196.171c-4.456 7.867-11.813 22.38-20.01 44.743-9.632.716-19.308-.332-28.51-2.523.005-.033.012-.065.02-.097 19.377-52.848 36.305-83.066 43.61-94.944-1.93-9.075-4.328-16.912-7.007-23.701 29.015 22.15 58.044 57.685 60.1 117.44 2.554 74.235 6.395 185.91 8.276 240.705z" fill="#000" fill-opacity=".1"/></g></svg>