<?xml version="1.0" encoding="UTF-8"?><svg width="500" height="500" viewBox="0 0 500 500" fill="none" xmlns="http://www.w3.org/2000/svg"><path fill-rule="evenodd" clip-rule="evenodd" d="M203.003 109.223h93.644V21.928h-93.644v87.295z" fill="#D3D0CF"/><path fill-rule="evenodd" clip-rule="evenodd" d="M202.864 32.228h93.458v-14.2h-93.458v14.2z" fill="#318944"/><path fill-rule="evenodd" clip-rule="evenodd" d="M87.5475 75.2585S46.7848 148.058 29 203.028c4.4449 13.375 45.2077 40.861 85.232 37.885 13.34-36.399 24.46-52 24.46-52s2.963-95.0845-51.1445-113.6545zm323.9245 0s40.763 72.7995 58.548 127.7695c-4.445 13.375-45.208 40.861-85.232 37.885-13.34-36.399-24.46-52-24.46-52s-2.963-95.0845 51.144-113.6545z" fill="#E98B34"/><path fill-rule="evenodd" clip-rule="evenodd" d="M249.511 57.7025c-50.082 0-47.798-39.4691-48.743-39.14-7.516 2.6187-24.132 14.9368-52.438 25.495-31.873 11.885-52.6261 19.315-60.7826 31.2 11.1148 8.915 46.6946 28.9705 46.6946 120.3455v271.14s49.657 14.855 114.885 14.855c68.929 0 115.648-14.855 115.648-14.855v-271.14c0-91.375 35.58-111.4305 46.699-120.3455-8.156-11.885-28.909-19.315-60.782-31.2-28.36-10.5767-44.982-22.9194-52.478-25.5087-.927-.3203 4.177 39.1537-48.703 39.1537z" fill="#E98B34"/><path fill-rule="evenodd" clip-rule="evenodd" d="M249.509 50.4987c23.731 0 35.462-6.7117 41.199-14.0345l3.191.8392c45.286 11.3389 71.551 39.4269 71.551 68.1606v68.857c-.455 6.628-.7 13.712-.7 21.286v271.141s-43.162 13.71-107.735 14.788c-2.595.043-5.225.065-7.888.065-64.901 0-114.388-14.707-114.881-14.854l.004-361.283c0-28.4515 25.751-56.2698 70.222-67.8174l5.219-1.3266c6.037 7.3787 17.622 14.1787 39.818 14.1787z" fill="#EF9542"/><path fill-rule="evenodd" clip-rule="evenodd" d="M307.851 23.345c-5.772-3.24-9.728-5.345-12.007-5.345 0 0 5.881 32.495-46.336 32.495-48.52 0-46.335-32.495-46.335-32.495-2.28 0-6.236 2.105-12.003 5.345 0 0 7.369 40.38 58.403 40.38 51.479 0 58.278-35.895 58.278-40.38z" fill="#35934A"/><path fill-rule="evenodd" clip-rule="evenodd" d="M413.584 238.323c-9.287 2.238-19.064 3.316-28.797 2.592-8.198-22.369-15.558-36.883-20.013-44.748v270.577s-21.102 6.71-55.866 11.111l-.544-.06c1.88-54.795 5.722-166.47 8.276-240.705 2.055-59.755 31.085-95.29 60.099-117.44-2.675 6.781-5.072 14.606-6.999 23.667 7.354 11.852 24.435 42.069 43.83 94.964.005.014.01.028.014.042zM190.717 477.795c-34.248-4.401-56.476-11.051-56.476-11.051V196.172c-4.456 7.867-11.814 22.379-20.01 44.743-9.633.716-19.3089-.332-28.5108-2.523a1.01 1.01 0 01.0199-.097c19.3769-52.848 36.3059-83.066 43.6099-94.944-1.929-9.075-4.328-16.912-7.006-23.701 29.014 22.15 58.043 57.685 60.099 117.44 2.554 74.235 6.395 185.91 8.276 240.705h-.002z" fill="#000" fill-opacity=".06"/><path fill-rule="evenodd" clip-rule="evenodd" d="M308.536 129.92c.312-.468.993-.567 1.758-.439 1.5.249 3.321 1.369 3.321 2.286 1.771.759 2.433 1.102 3.125 1.181.572.066 1.164-.049 2.416-.257 1.898-.317 4.082 1.793 4.618 3.62.156.533.172 1.042 0 1.459.206 0 .376.077.516.213.801.779.595 3.479.247 4.523-.264.791-1.057 1.377-1.712 1.86-.156.115-.305.225-.436.33 0 .954-.867 3.964-1.847 4.618 0 1.226 0 3.232.923 4.155 1.177 1.178.658 4.156-1.385 4.156-.628.209-.855.325-1.083.327-.216.001-.434-.102-.998-.327-1.138-.455-4.494-.818-8.172-.818-1.805 0-4.373.553-6.685 1.051-2.399.516-4.521.973-5.226.691-1.359-.544-1.589-2.463-.599-4.8.105-.249.225-.503.358-.761.076-.146.156-.294.241-.442l-1.847-2.771c-.545.273-1.385-.461-2.309-1.385-1.166-1.166-.578-1.884.189-2.82.252-.309.524-.641.76-1.021a8.165 8.165 0 01-.048-.094c-.544-1.082-1.284-2.555 1.407-3.453h.001c-.462-1.385-.217-3.481 1.091-3.808l.756-2.195c-.681-.817-1.512-3.583-.756-4.528.756-.944 2.709-1.936 3.526-1.936.472 0 1.42.578 2.117 1.003.27.165.502.306.654.382.047-.052.104-.12.171-.2.409-.488 1.178-1.406 2.197-1.607.13-.026.264-.04.402-.04 1.547 0 1.847 0 2.309 1.847zm-5.647-5.055c-.213-.09-.471-.189-.759-.273-.307-.089-.821-.213-1.444-.213-.896 0-1.689.239-2.154.4-.547.191-1.091.438-1.591.705-.892.476-2.137 1.28-3.026 2.391-.992 1.24-1.169 2.634-1.203 3.405-.038.871.078 1.705.226 2.386.084.385.2.819.351 1.268-.817.966-1.218 2.083-1.391 2.85a8.06 8.06 0 00-.161 1.007c-.901.85-1.579 1.996-1.728 3.519-.053.549-.021 1.056.05 1.502-.141.204-.285.43-.413.667-.443.815-.897 2.083-.612 3.628.268 1.449 1.075 2.509 1.788 3.222.453.453 1.148 1.135 1.914 1.65.072.048.191.128.352.223-.343 1.052-.541 2.134-.535 3.204.011 2.06.899 4.833 3.82 6.001 1.003.402 1.98.393 2.425.38.571-.017 1.155-.089 1.677-.169 1.041-.16 2.273-.424 3.411-.669 2.539-.547 4.652-.986 5.941-.986 1.713 0 3.329.085 4.615.217 1.246.127 1.858.268 1.989.299.022.005.031.007.026.005.033.013.074.03.121.048.191.078.476.193.692.269.35.122 1.017.33 1.869.304.763-.023 1.373-.231 1.589-.305l.013-.005c.065-.022.139-.048.205-.071 2.98-.399 4.558-2.826 5.049-4.663.459-1.718.373-4.215-1.221-6.125-.002-.014-.005-.03-.007-.047a3.7251 3.7251 0 01-.024-.189c.045-.076.086-.146.122-.21.371-.659.663-1.361.883-1.98.159-.446.322-.968.458-1.51.038-.032.076-.064.114-.097.599-.52 1.642-1.531 2.16-3.083.403-1.211.593-2.947.495-4.418-.049-.726-.19-1.822-.699-2.874a5.3974 5.3974 0 00-.325-.577c-.076-.435-.187-.83-.304-1.169-.408-1.179-1.08-2.245-1.834-3.117-1.293-1.494-3.971-3.635-7.34-3.074-.12.021-.23.039-.33.056-.466.078-.725.121-.919.146-.048-.019-.109-.043-.184-.074-.137-.057-.275-.115-.428-.182-.364-.465-.729-.798-.956-.993-.817-.7-1.781-1.234-2.691-1.598-.641-.257-1.414-.492-2.247-.604-.16-.149-.335-.293-.529-.43-.961-.68-1.937-.87-2.542-.939-.499-.057-1.031-.056-1.346-.056h-.074c-1.371 0-2.496.445-3.338.948z" fill="#F2F2F2"/><path fill-rule="evenodd" clip-rule="evenodd" d="M308.536 129.92c.312-.468.993-.567 1.759-.439 1.499.249 3.321 1.369 3.321 2.286 1.77.759 2.432 1.102 3.125 1.181.571.066 1.163-.049 2.416-.257 1.897-.317 4.081 1.793 4.617 3.62.156.533.173 1.042 0 1.459.206 0 .376.077.516.213.802.779.595 3.479.247 4.523-.263.791-1.057 1.377-1.712 1.86-.156.115-.305.225-.436.33 0 .954-.867 3.964-1.847 4.618 0 1.226 0 3.232.923 4.155 1.178 1.178.658 4.156-1.385 4.156-.628.209-.855.325-1.083.327-.216.001-.433-.102-.997-.327-1.139-.455-4.495-.818-8.173-.818-1.805 0-4.373.553-6.685 1.051-2.398.516-4.52.973-5.226.691-1.586-.635-1.634-3.143 0-6.003l-1.847-2.771c-.545.273-1.385-.461-2.309-1.385-1.166-1.166-.578-1.884.189-2.82.253-.309.525-.641.76-1.021-.016-.031-.031-.062-.047-.094-.544-1.082-1.285-2.556 1.407-3.453-.462-1.385-.216-3.481 1.091-3.808l.756-2.195c-.681-.817-1.511-3.583-.756-4.528.756-.944 2.709-1.936 3.527-1.936.471 0 1.419.578 2.116 1.003.27.165.502.306.654.382.047-.052.104-.12.171-.2.461-.55 1.381-1.647 2.6-1.647h.233c1.345.005 1.638.097 2.075 1.847zm-5.53-3.465a9.2883 9.2883 0 00-.575-.28c-.288-.126-.963-.411-1.744-.411-.666 0-1.287.18-1.7.324-.468.163-.945.378-1.392.617-.824.44-1.879 1.137-2.598 2.036-.724.905-.873 1.951-.901 2.6-.032.715.064 1.425.196 2.031.127.584.329 1.253.604 1.889l-.016.045c-.988.81-1.447 1.97-1.631 2.783-.101.445-.154.907-.164 1.369-.903.699-1.568 1.668-1.697 2.987-.063.647.031 1.227.157 1.69-.212.267-.473.621-.682 1.005-.347.639-.676 1.581-.466 2.715.198 1.071.8 1.89 1.404 2.494.457.456 1.067 1.049 1.709 1.481.16.107.489.322.932.499l.286.43c-.504 1.215-.797 2.456-.79 3.639.01 1.728.738 3.839 2.949 4.723.727.291 1.464.293 1.87.281.49-.014 1.011-.077 1.508-.153.992-.153 2.18-.407 3.33-.655 2.474-.532 4.76-1.016 6.232-1.016 1.755 0 3.419.087 4.757.224.669.068 1.234.147 1.674.228.22.04.393.078.525.112.124.032.181.053.188.055.001 0 .001.001.001 0 .046.019.097.04.151.062.193.077.424.171.604.234.284.099.765.246 1.371.227.553-.016 1.002-.169 1.193-.234l.004-.002c.169-.057.239-.083.305-.107.01-.004.02-.008.03-.011 2.349-.257 3.621-2.141 4.027-3.663.399-1.493.268-3.607-1.141-5.099-.035-.091-.081-.255-.119-.51-.035-.237-.056-.489-.068-.752.133-.194.242-.377.329-.532.321-.569.582-1.192.785-1.764.198-.556.388-1.199.523-1.824.142-.11.294-.233.446-.365.537-.466 1.354-1.277 1.754-2.475.337-1.011.515-2.564.427-3.888-.044-.656-.168-1.545-.564-2.363a4.1547 4.1547 0 00-.401-.661c-.056-.455-.165-.874-.29-1.236-.34-.983-.912-1.9-1.572-2.663-1.177-1.359-3.41-3.056-6.065-2.613-.117.019-.225.037-.324.054-.544.091-.851.143-1.101.17-.125.013-.185.015-.208.014h-.013c.001 0 .002 0 0 0-.019-.004-.131-.026-.543-.196-.236-.097-.483-.205-.798-.343-.329-.489-.709-.846-.959-1.061-.679-.582-1.505-1.044-2.304-1.364-.692-.276-1.521-.51-2.377-.562a3.6906 3.6906 0 00-.685-.627c-.695-.492-1.411-.638-1.899-.694-.415-.047-.869-.047-1.195-.046h-.067c-1.405 0-2.5.603-3.222 1.152zm20.529 25.195s0-.001-.002-.004c.002.003.002.004.002.004z" fill="#EE883E"/><path fill-rule="evenodd" clip-rule="evenodd" d="M308.536 129.92c.249-.373.732-.512 1.305-.488 1.556.064 3.774 1.323 3.774 2.335 1.771.759 2.433 1.102 3.125 1.181.572.066 1.164-.049 2.416-.257 1.924-.321 4.141 1.851 4.639 3.694.136.506.143.987-.021 1.385.206 0 .376.077.516.213.801.779.595 3.479.247 4.523-.264.791-1.057 1.377-1.712 1.86-.156.115-.305.225-.436.33 0 .954-.867 3.964-1.847 4.618 0 1.226 0 3.232.923 4.155 1.177 1.178.658 4.156-1.385 4.156-.628.209-.855.325-1.083.327-.216.001-.434-.102-.998-.327-1.138-.455-4.494-.818-8.172-.818-1.805 0-4.373.553-6.685 1.051-2.399.516-4.521.973-5.226.691-1.586-.635-1.634-3.143 0-6.003l-1.847-2.771c-.545.273-1.385-.461-2.309-1.385-1.166-1.166-.578-1.884.189-2.82.252-.309.524-.641.76-1.021a8.165 8.165 0 01-.048-.094c-.544-1.082-1.284-2.555 1.407-3.453h.001c-.462-1.385-.217-3.481 1.091-3.808l.756-2.195c-.681-.817-1.512-3.583-.756-4.528.756-.944 2.709-1.936 3.526-1.936.472 0 1.42.578 2.117 1.003.27.165.502.306.654.382.047-.052.104-.12.171-.2.461-.55 1.38-1.647 2.599-1.647.964 0 1.444 0 1.78.447.204.27.355.704.529 1.4zm-5.356-1.773a17.962 17.962 0 00-.377-.222c-.287-.166-.613-.342-.929-.481-.267-.117-.715-.294-1.188-.294-.435 0-.883.121-1.244.246-.389.136-.8.32-1.195.531-.754.403-1.62.994-2.169 1.679-.456.571-.575 1.269-.598 1.796-.025.56.05 1.145.165 1.676.153.701.414 1.473.745 2.099l-.345.999c-.858.532-1.275 1.466-1.445 2.219-.13.572-.161 1.189-.105 1.786-.984.552-1.625 1.334-1.728 2.398-.06.609.084 1.156.234 1.564.033.09.069.179.106.265-.075.094-.153.19-.237.292-.01.012-.02.025-.03.037-.23.28-.539.658-.76 1.065-.252.463-.455 1.078-.321 1.801.128.692.526 1.271 1.022 1.767.459.459.984.962 1.502 1.311.216.145.589.374 1.045.481l.978 1.466c-.638 1.308-.989 2.605-.983 3.762.008 1.396.576 2.844 2.078 3.445.45.18.948.194 1.315.183.408-.013.866-.066 1.338-.138.944-.145 2.088-.39 3.249-.64 2.41-.518 4.869-1.047 6.524-1.047 1.797 0 3.508.088 4.897.231 1.446.147 2.392.34 2.761.487l.186.075c.187.075.368.149.513.199.218.076.513.162.872.151.333-.01.615-.103.791-.163.113-.038.188-.065.264-.093.066-.024.132-.047.223-.079 1.703-.121 2.663-1.45 2.984-2.655.323-1.208.169-2.814-.873-3.856-.137-.136-.314-.494-.418-1.19-.068-.456-.09-.939-.097-1.402.213-.254.385-.527.521-.768.27-.479.5-1.024.687-1.548.249-.702.462-1.489.567-2.144.028-.02.056-.041.086-.064.214-.158.466-.349.713-.563.474-.412 1.066-1.023 1.347-1.867.271-.812.438-2.18.359-3.358-.039-.586-.146-1.269-.428-1.852-.114-.235-.279-.491-.5-.716-.012-.471-.114-.927-.254-1.331-.272-.789-.744-1.555-1.31-2.209-1.06-1.225-2.849-2.477-4.789-2.154-1.514.252-1.787.296-2.122.235-.169-.031-.39-.1-.823-.279-.251-.103-.528-.224-.871-.373-.113-.05-.233-.102-.362-.158-.241-.482-.61-.855-.898-1.101-.542-.465-1.228-.854-1.917-1.129-.682-.273-1.467-.475-2.217-.475-.115 0-.239.005-.367.018-.172-.322-.411-.639-.763-.889-.429-.303-.886-.405-1.256-.447-.333-.038-.712-.038-1.057-.038h-.049c-1.183 0-2.099.606-2.679 1.111-.126.11-.25.229-.368.348z" fill="#F2F2F2"/><path d="M308.536 129.92c-.462-1.847-.763-1.847-2.309-1.847-1.396 0-2.399 1.439-2.77 1.847-.545-.272-2.117-1.385-2.771-1.385-.817 0-2.77.992-3.526 1.936-.756.945.074 3.711.756 4.528l-.756 2.195c-1.308.327-1.553 2.423-1.091 3.808-2.771.924-1.906 2.457-1.361 3.547-.948 1.532-2.499 2.291-.948 3.841.923.924 1.764 1.658 2.309 1.385l1.847 2.771c-1.635 2.86-1.586 5.368 0 6.003 1.385.554 8.233-1.742 11.911-1.742 3.677 0 7.034.363 8.172.818 1.157.462.855.408 2.081 0 2.043 0 2.562-2.978 1.385-4.156-.924-.923-.924-2.929-.924-4.155.981-.654 1.847-3.664 1.847-4.618.681-.545 1.822-1.209 2.149-2.19.409-1.226.622-4.736-.763-4.736.763-1.847-2.166-5.488-4.618-5.079-2.77.461-2.309.461-5.541-.924 0-1.385-4.156-3.232-5.079-1.847z" fill="#26AD90"/><path d="M304.649 157.014c.236-1.611.444-3.232.444-3.881 0-.83.654-.772 1.187-.724.365.032.674.06.674-.209 0-.933 0-2.333-.931-2.8-.93-.467-.952-1.997 1.396-2.333C310.675 146.6 314 144.8 314 141.5c0-2.969-2.617-4.318-4.953-4.267-.26.006-1.675 0-1.861 0-2.326 0-3.721-.933-4.186-1.866-.372-.747.465-1.245.93-1.4 0-.156-.186-.467-.93-.467-1.395 1.4-.93 3.267.93 4.2 1.105.554 2.841.582 4.507.608 2.788 0 4.063 1.692 4.063 3.192 0 2.868-3.5 3.5-4.5 3.5 0 0-1.26-.308-1.962-.632-.595-.274-1.235-.568-1.875-.568-.824 0-1.234-.134-1.64-.266-.539-.176-1.069-.349-2.546-.201-2.488.25-4.421 2.46-5.661 4.595.084.112.185.229.306.351.873.876 1.163.979 1.678.721l2.25 3.409c-1.545 2.714-1.499 4.907 0 5.509.667.268 2.672-.166 4.939-.655.381-.083.77-.167 1.16-.249z" fill="#F2F2F2"/><circle cx="309.5" cy="141.5" r="2.5" fill="#EC7644"/></svg>