<?xml version="1.0" encoding="UTF-8"?><svg width="500" height="500" viewBox="0 0 500 500" xmlns="http://www.w3.org/2000/svg"><g fill="none" fill-rule="evenodd"><path d="M0 0h500v500H0z"/><path fill="#C1A704" d="M203.0033 109.223h93.6432V21.928h-93.6432z"/><path fill="#2D2D2D" d="M202.8636 32.228h93.4586v-14.2h-93.4586z"/><path d="M87.5475 75.2585s-40.7627 72.8-58.5475 127.77c4.445 13.375 45.2077 40.86 85.2322 37.885 13.3398-36.4 24.4596-52 24.4596-52s2.9633-95.085-51.1443-113.655m323.9252 0s40.7628 72.8 58.5475 127.77c-4.445 13.375-45.2077 40.86-85.2321 37.885-13.3399-36.4-24.4597-52-24.4597-52s-2.9633-95.085 51.1443-113.655" fill="#F6D60D"/><path d="M249.5111 57.7025c-50.0817 0-47.7981-39.469-48.7426-39.14-7.5158 2.6187-24.1326 14.9368-52.4385 25.495-31.8729 11.885-52.626 19.315-60.7825 31.2 11.1149 8.915 46.6944 28.97 46.6944 120.345v271.14s49.6576 14.855 114.885 14.855c68.9291 0 115.6484-14.855 115.6484-14.855v-271.14c0-91.375 35.5795-111.43 46.6994-120.345-8.1566-11.885-28.9096-19.315-60.7825-31.2-28.3599-10.5767-44.9818-22.9194-52.478-25.5106-.9273-.3184 4.1773 39.1556-48.703 39.1556z" fill="#F6D60D"/><path d="M467.3529 195.129c.9359 2.6665 1.8272 5.303 2.6673 7.8995-4.445 13.375-45.2077 40.86-85.2321 37.885a426.4238 426.4238 0 00-2.8354-7.5198c20.795-1.3576 37.9932-5.6366 51.5944-12.8371 13.4282-7.109 24.6968-15.5848 33.8058-25.4277zm-435.6982.036c9.1031 9.8275 20.3606 18.2914 33.7724 25.3916 13.611 7.2056 30.824 11.4856 51.6393 12.84a426.4196 426.4196 0 00-2.8342 7.5169c-40.0245 2.975-80.7873-24.51-85.2322-37.885.8363-2.5849 1.7234-5.2092 2.6547-7.8635z" fill="#3D3D3D"/><path d="M170.7459 474.7916c-7.2053-1.3139-13.5083-2.6497-18.7459-3.8581V42.654c17.571-6.8855 30.3404-14.2918 39-19.1575v454.333a470.6265 470.6265 0 01-20.2541-3.038zM267.5 481.246a480.7056 480.7056 0 01-18.373.3514 439.445 439.445 0 01-16.627-.317V52h35v429.246zM348 43.0349v428.0418c-9.5061 2.1435-22.7595 4.7055-39 6.7646V24.047c8.7976 4.9565 21.5788 12.2502 39 18.988z" fill-opacity=".4548" fill="#3D3D3D"/><path d="M307.8516 23.345c-5.772-3.24-9.728-5.345-12.0078-5.345 0 0 5.8817 32.495-46.3352 32.495-48.5202 0-46.3352-32.495-46.3352-32.495-2.2798 0-6.2358 2.105-12.0028 5.345 0 0 7.3683 40.38 58.4029 40.38 51.4785 0 58.2781-35.895 58.2781-40.38z" fill="#3D3D3D"/><path d="M413.5843 238.3227c-9.2877 2.2382-19.0646 3.3161-28.7978 2.5926-8.1978-22.369-15.5572-36.883-20.0128-44.7484v270.5774s-21.1022 6.7098-55.8664 11.1104c-.1817-.0197-.363-.0396-.544-.0597 1.8808-54.795 5.7221-166.47 8.2763-240.705 2.0554-59.755 31.0847-95.29 60.099-117.44-2.6753 6.7806-5.0714 14.6063-6.9991 23.6673 7.354 11.8514 24.4358 42.0687 43.8307 94.964.005.014.0097.0277.014.0414zM190.7166 477.7953c-34.2478-4.4014-56.4763-11.051-56.4763-11.051V196.1721c-4.4558 7.8668-11.8138 22.3792-20.0097 44.7432-9.633.716-19.3087-.3323-28.5106-2.5238a1.113 1.113 0 01.0199-.0967c19.3773-52.8475 36.3054-83.0661 43.6098-94.9437-1.929-9.0753-4.3277-16.912-7.0064-23.7011 29.0144 22.15 58.0437 57.685 60.099 117.44 2.5543 74.235 6.3956 185.91 8.2763 240.7053h-.002z" fill-opacity=".1" fill="#000"/><g transform="translate(285.5 115.5)"><path d="M23.5 0C10.5213 0 0 10.5213 0 23.5l.0053.504c.0991 4.6954 1.5816 9.1643 4.2113 12.931l.0624.088-2.5214 2.4225.7951 1.062.3525.46a26.2944 26.2944 0 005.4126 5.1768l.3122.2177-3.1157 3.073 1.6435.9993C12.044 53.4051 17.6568 55 23.5 55c5.8435 0 11.4564-1.595 16.3429-4.566l1.6432-.9992L38.37 46.361l.313-.2173a26.2938 26.2938 0 005.7643-5.6362l.7951-1.062L42.72 37.023l.0634-.088C45.507 33.0338 47 28.3793 47 23.5 47 10.5213 36.4787 0 23.5 0z" fill="#DEC319" fill-rule="nonzero"/><path d="M23.5 1.5c12.1503 0 22 9.8497 22 22 0 5.1737-1.786 9.9303-4.7749 13.687l2.5215 2.4214a24.7782 24.7782 0 01-7.2658 6.5033l3.0828 3.0405C34.526 51.9112 29.1986 53.5 23.5 53.5c-5.6983 0-11.0256-1.5887-15.563-4.3474l3.0832-3.0403a24.7782 24.7782 0 01-7.2668-6.5039L6.275 37.187C3.2859 33.4303 1.5 28.6737 1.5 23.5c0-12.1503 9.8497-22 22-22z" fill="#3D3D3D"/><circle fill="#DEC319" cx="23.5" cy="23.5" r="19"/><circle fill="#3D3D3D" cx="23.5" cy="23.5" r="16"/><circle fill="#DEC319" cx="23.5" cy="36.5" r="5"/><path d="M25.9349 31.1783c1.6918 0 4.618 1.375 8.7788 4.1247l2.1344-.7464c-.5922-1.9459-1.0153-3.3045-1.2694-4.0759-.381-1.157 1.8535-5.5987-1.7796-8.6983-3.633-3.0995-9.1546.794-11.6444 1.2558-1.8917.3509-5.188.983-6.945 2.1404-.1345.0886-.886-1.6786 3.2903-2.449.9825-.1812 3.4123-1.3322 3.2078-3.0686-.2045-1.7365-1.7729 1.0416-3.2078 1.3954-1.4674.3618-2.7878.6864-3.838 1.6733-1.3752 1.2923-.357 3.7993-.5024 4.7703-.3037 2.0287-1.9513 7.8294-2.3832 8.232l1.1257 1.6345c2.2747-2.272 3.9785-3.995 5.1112-5.169 1.699-1.7608 5.3839-1.0192 7.9216-1.0192z" fill="#DEC319"/></g></g></svg>