<?xml version="1.0" encoding="UTF-8"?><svg width="500" height="500" viewBox="0 0 500 500" xmlns="http://www.w3.org/2000/svg"><g fill="none" fill-rule="evenodd"><path d="M0 0h500v500H0z"/><path fill="#9F1A25" d="M203.0033 109.223h93.6432V21.928h-93.6432z"/><path fill="#D3D0CF" d="M202.8636 32.228h93.4586v-14.2h-93.4586z"/><path d="M87.5475 75.2585s-40.7627 72.8-58.5475 127.77c4.445 13.375 45.2077 40.86 85.2322 37.885 13.3398-36.4 24.4596-52 24.4596-52s2.9633-95.085-51.1443-113.655m323.9252 0s40.7628 72.8 58.5475 127.77c-4.445 13.375-45.2077 40.86-85.2321 37.885-13.3399-36.4-24.4597-52-24.4597-52s-2.9633-95.085 51.1443-113.655" fill="#D32828"/><path d="M249.5111 57.7025c-50.0817 0-47.7981-39.469-48.7426-39.14-7.5158 2.6187-24.1326 14.9368-52.4385 25.495-31.8729 11.885-52.626 19.315-60.7825 31.2 11.1149 8.915 46.6944 28.97 46.6944 120.345v271.14s49.6576 14.855 114.885 14.855c68.9291 0 115.6484-14.855 115.6484-14.855v-271.14c0-91.375 35.5795-111.43 46.6994-120.345-8.1566-11.885-28.9096-19.315-60.7825-31.2-28.3599-10.5767-44.9818-22.9194-52.478-25.5106-.9273-.3184 4.1773 39.1556-48.703 39.1556z" fill="#D32828"/><path d="M72.2975 212.7885c14.658 6.6874 30.553 11.124 47.685 13.3097-1.849 4.493-3.7753 9.4262-5.7503 14.8153-40.0245 2.975-80.7873-24.51-85.2322-37.885 1.7573-5.4317 3.739-11.0374 5.8836-16.7298 10.2689 10.9656 22.7404 19.7954 37.4139 26.4898zm354.5915 0c14.6736-6.6944 27.145-15.5242 37.414-26.4898 2.1445 5.6924 4.1262 11.2981 5.8835 16.7298-4.4449 13.375-45.2077 40.86-85.2321 37.885-1.975-5.3891-3.9013-10.3223-5.7504-14.8153 17.132-2.1857 33.027-6.6223 47.685-13.3097z" fill="#309154"/><path d="M307.8516 23.345c-5.772-3.24-9.728-5.345-12.0078-5.345 0 0 5.8817 32.495-46.3352 32.495-48.5202 0-46.3352-32.495-46.3352-32.495-2.2798 0-6.2358 2.105-12.0028 5.345 0 0 7.3683 40.38 58.4029 40.38 51.4785 0 58.2781-35.895 58.2781-40.38z" fill="#FFF"/><path d="M413.5843 238.3227c-9.2877 2.2382-19.0646 3.3161-28.7978 2.5926-8.1978-22.369-15.5572-36.883-20.0128-44.7484v270.5774s-21.1022 6.7098-55.8664 11.1104c-.1817-.0197-.363-.0396-.544-.0597 1.8808-54.795 5.7221-166.47 8.2763-240.705 2.0554-59.755 31.0847-95.29 60.099-117.44-2.6753 6.7806-5.0714 14.6063-6.9991 23.6673 7.354 11.8514 24.4358 42.0687 43.8307 94.964.005.014.0097.0277.014.0414zM190.7166 477.7953c-34.2478-4.4014-56.4763-11.051-56.4763-11.051V196.1721c-4.4558 7.8668-11.8138 22.3792-20.0097 44.7432-9.633.716-19.3087-.3323-28.5106-2.5238a1.113 1.113 0 01.0199-.0967c19.3773-52.8475 36.3054-83.0661 43.6098-94.9437-1.929-9.0753-4.3277-16.912-7.0064-23.7011 29.0144 22.15 58.0437 57.685 60.099 117.44 2.5543 74.235 6.3956 185.91 8.2763 240.7053h-.002z" fill-opacity=".1" fill="#000"/><path d="M324.1216 130c1.296 6.2749 2.4955 9.5407.2796 14.5205-2.3408 5.2606-9.69 6.8785-12.7515 4.1738-.3089-.2729-.6095.062-.3203.3512.2846.2846.759 1.3032 2.0392 2.6122.8535.8726 1.7537 1.615 2.7006 2.2272.3906.3906.3906 1.0237 0 1.4143-.3905.3905-1.0237.3905-1.4142 0-.8562-.9227-1.6573-1.7569-2.4032-2.5026-.4163-.4163-1.1116-.7548-2.0858-1.0155-.2774.3955-.2774.5083 0 1.2444 1.56.3501 3.8817 2.787 3.8817 3.4235 0 .3232-2.0435 1.574-5.0477 1.5803-3.0042.0059-5-1.2417-5-1.5803 0-.6365 2.3216-3.0734 3.8817-3.4235.3414-.906.1098-1.0888 0-1.2444-.9742.2607-1.6695.5992-2.0858 1.0155l-.7643.7752a101.9223 101.9223 0 00-1.6389 1.7274c-.3905.3905-1.0237.3905-1.4142 0-.3905-.3906-.3905-1.0237 0-1.4143 1.047-.8628 1.6234-1.247 2.6037-2.2272.9804-.9803 1.4879-1.964 2.1361-2.6122.2892-.2892-.0114-.624-.3202-.3512-3.0616 2.7047-9.5358.806-11.7516-4.1738-2.2159-4.9798-1.0164-8.2456.2796-14.5205 3.1141 5.727 5.6626 6.8888 8.8648 7.1524.7384.0928 1.6515.8306 2.739 2.2135.4817-1.3779 2.1974-2.5826.693-3.0432-.48-.147-1.336-.5245-2.1913-.3448.0743-.2984.0067-.7751.4684-.9928s.5815-.832.898-.868c.3105-.0352 1.118-.2499 2.154-.2375 1.0362.0123 1.2866-.4029 1.4503 1.3485.1092 1.1675.5515 2.6933 1.3271 4.5772.7804-1.6703 1.788-2.5546 3.023-2.6529 3.4579 0 6.655-1.4253 9.7692-7.1524z" fill="#FBDB79"/><path d="M304.5 139.0911h9v7.1551c0 1.25-1.423 3.592-4.4722 3.592-3.0491 0-4.5278-2.342-4.5278-3.592v-7.1551z" fill="#FFF"/><path fill="#00B246" d="M308.9863 140.6882H312v3.3323l-2.9961.0239z"/><path d="M304.5 139.0911h4.5239l.004 4.9236L313.5 144v2.2462c0 1.25-1.423 3.592-4.4722 3.592l-.004-5.8235L304.5 144v-4.9089z" fill="#D81414"/><path d="M307 142.0764h4v3.18c0 .5556-.6325 1.5966-1.9876 1.5966-1.3552 0-2.0124-1.041-2.0124-1.5965v-3.18z" fill="#161616"/><path d="M309.0239 156.2171c3.0581-.0497 6.0497-1.1621 8.9746-3.3372l-.7735-1.1121c-2.9952 1.9827-5.7369 2.9741-8.225 2.9741-2.4881 0-5.1436-.9914-7.9665-2.9741l-.7962 1.1121c2.7996 2.2745 5.7284 3.387 8.7866 3.3372z" fill="#FFF"/></g></svg>