<?xml version="1.0" encoding="UTF-8"?><svg width="500" height="500" viewBox="0 0 500 500" fill="none" xmlns="http://www.w3.org/2000/svg"><path fill-rule="evenodd" clip-rule="evenodd" d="M203.003 109.223h93.644V21.928h-93.644v87.295z" fill="#23684B"/><path fill-rule="evenodd" clip-rule="evenodd" d="M202.864 32.228h93.458v-14.2h-93.458v14.2z" fill="#BECEC7"/><path fill-rule="evenodd" clip-rule="evenodd" d="M87.5475 75.2585S46.7848 148.059 29 203.029c4.4449 13.375 45.2077 40.86 85.232 37.885 13.34-36.4 24.46-52 24.46-52s2.963-95.0855-51.1445-113.6555zM411.472 75.2585s40.763 72.8005 58.548 127.7705c-4.445 13.375-45.208 40.86-85.232 37.885-13.34-36.4-24.46-52-24.46-52s-2.963-95.0855 51.144-113.6555z" fill="#358362"/><path fill-rule="evenodd" clip-rule="evenodd" d="M249.511 57.7025c-50.082 0-47.798-39.4691-48.743-39.14-7.516 2.6187-24.132 14.9368-52.438 25.495-31.873 11.885-52.6261 19.315-60.7826 31.2 11.1148 8.915 46.6946 28.9695 46.6946 120.3445v271.14s49.657 14.856 114.885 14.856c68.929 0 115.648-14.856 115.648-14.856v-271.14c0-91.375 35.58-111.4295 46.699-120.3445-8.156-11.885-28.909-19.315-60.782-31.2-28.36-10.5767-44.982-22.9195-52.478-25.5087-.927-.3203 4.177 39.1537-48.703 39.1537z" fill="#358362"/><path fill-rule="evenodd" clip-rule="evenodd" d="M365.482 174.134s.539 14.562-.699 22.139v270.442s-2.615.831-7.521 2.101V176.121c1.662-.658 3.103-1.134 4.325-1.426.789-.19 2.553-.449 3.895-.561zM134.25 466.715V196.189c-.876-6.967-.653-21.017-.653-21.017 1.332.111 6.492 1.092 8.153 1.75v291.797c-4.861-1.215-7.5-2.004-7.5-2.004zM470.129 203.202c-4.445 13.375-45.208 40.86-85.233 37.885-.957-2.614-1.903-5.12-2.835-7.52 20.795-1.358 37.993-5.637 51.594-12.837 13.429-7.109 24.697-15.585 33.806-25.428.936 2.667 1.828 5.303 2.668 7.9zM31.6547 195.302c9.1031 9.828 20.3606 18.291 33.7724 25.392 13.6109 7.205 30.8241 11.485 51.6389 12.84-.931 2.399-1.877 4.904-2.834 7.516-40.0243 2.975-80.7871-24.51-85.232-37.885.8363-2.584 1.7234-5.209 2.6547-7.863zM96.6456 79.7885c8.5394-11.2398 28.6594-18.5704 59.0414-30.0765 19.302-7.312 33.083-15.4682 42.191-20.6621a18.7098 18.7098 0 01-.009-.0504c1.212-.6917 2.343-1.3316 3.394-1.9104l1.73 3.2145c-9.03 5.0642-23.459 13.9728-44.362 21.8915-29.863 11.3097-49.812 18.5852-58.594 29.5043a52.1423 52.1423 0 00-3.3914-1.9109zm-6.7003-2.8755c8.0311-11.886 28.4647-19.316 59.8477-31.201 19.301-7.312 33.083-15.4682 42.191-20.6621a1.8087 1.8087 0 01-.01-.0504l.024-.0137 1.738 3.2283c-9.103 5.2076-22.521 12.9811-40.999 19.981-30.458 11.5351-50.603 18.8736-59.1057 30.1614l-3.686-1.4435zM402.181 79.7911a52.1624 52.1624 0 00-3.391 1.9112c-8.781-10.9207-28.73-18.1965-58.596-29.5071-20.204-7.654-34.36-16.2328-43.438-21.3709l1.584-3.304c.826.4606 1.698.9551 2.617 1.4793 0 0-.004.017-.01.0503 9.108 5.1939 22.889 13.3501 42.191 20.6622 30.384 11.5069 50.505 18.8378 59.043 30.079zm6.7-2.876c-1.26.4392-2.488.9212-3.686 1.4437-8.501-11.2891-28.646-18.6278-59.107-30.1636-18.275-6.9233-31.602-14.6034-40.698-19.8092l1.413-3.414.048.0276s-.003.017-.01.0503c9.108 5.1939 22.89 13.3501 42.191 20.6622 31.383 11.885 51.817 19.315 59.848 31.2v.001s0 .0006.001.002z" fill="#DCEAE4"/><path fill-rule="evenodd" clip-rule="evenodd" d="M307.851 23.345c-5.772-3.24-9.728-5.345-12.007-5.345 0 0 5.881 32.495-46.336 32.495-48.52 0-46.335-32.495-46.335-32.495-2.28 0-6.236 2.105-12.003 5.345 0 0 7.369 40.38 58.403 40.38 51.479 0 58.278-35.895 58.278-40.38z" fill="#DCEAE4"/><path fill-rule="evenodd" clip-rule="evenodd" d="M413.584 238.323c-9.287 2.238-19.064 3.316-28.797 2.592-8.198-22.369-15.558-36.883-20.013-44.748v270.577s-21.102 6.71-55.866 11.111l-.544-.06c1.88-54.795 5.722-166.47 8.276-240.705 2.055-59.755 31.085-95.29 60.099-117.44-2.675 6.781-5.072 14.606-6.999 23.667 7.354 11.852 24.435 42.069 43.83 94.964.005.014.01.028.014.042zM190.717 477.795c-34.248-4.401-56.476-11.051-56.476-11.051V196.172c-4.456 7.867-11.814 22.379-20.01 44.743-9.633.716-19.3089-.332-28.5108-2.523.0051-.032.0117-.065.0199-.097 19.3769-52.848 36.3059-83.066 43.6099-94.944-1.929-9.075-4.328-16.912-7.006-23.701 29.014 22.15 58.043 57.685 60.099 117.44 2.554 74.235 6.395 185.91 8.276 240.705h-.002z" fill="#000" fill-opacity=".1"/><path d="M309.391 115.756l-.391-.006c-5.597 0-12.046 2.553-16.507 6.444l-.754.658 2.029 3.749-.017.012c-4.662 3.37-7.375 8.342-7.537 14.258l-.01.476c-.05 3.773.569 6.646 2.107 9.605l.119.223-4.016 3.643.503.873c4.287 7.447 12.936 13.559 24.083 13.559l.521-.005c10.669-.186 18.962-5.963 23.342-13.182l.732-1.236-4.025-3.652.119-.224c1.601-3.083 2.207-6.069 2.097-10.08l-.015-.402c-.265-5.603-2.839-10.333-7.2-13.618l-.34-.25 2.036-3.761-1.117-.948c-4.432-3.663-10.333-6.005-15.759-6.136z" fill="#810000"/><path fill-rule="evenodd" clip-rule="evenodd" d="M286 155.068l4.007-3.636c-1.95-3.299-2.66-6.28-2.544-10.527.168-6.109 3.214-10.884 7.942-13.905l-2.091-3.864C297.477 119.506 303.621 117 309 117l.361.005c5.28.128 10.895 2.463 14.981 5.84l.344.291-2.091 3.864c4.728 3.021 7.774 7.796 7.942 13.905.112 4.09-.543 7.006-2.333 10.162l-.211.365 4.007 3.636-.205.347c-2.629 4.332-9.936 12.364-22.285 12.581L309 168c-13 0-20.53-8.643-23-12.932z" fill="#fff"/><path fill-rule="evenodd" clip-rule="evenodd" d="M309 125c3.123 0 6.061.796 8.621 2.195L309 143l-8.621-15.805c2.56-1.4 5.498-2.195 8.621-2.195z" fill="#AF9358"/><path fill-rule="evenodd" clip-rule="evenodd" d="M309 159c8.837 0 16-7.163 16-16s-7.163-16-16-16-16 7.163-16 16 7.163 16 16 16z" fill="#AF9358"/><path fill-rule="evenodd" clip-rule="evenodd" d="M309 159c6.005-.994 5.636.03 7.811-5.607C319.962 151.021 322 147.248 322 143c0-5.167-3.015-9.63-7.381-11.726 0 0 .525-4.71-5.619-4.71s-5.694 4.746-5.694 4.746C298.98 133.421 296 137.862 296 143c0 4.248 2.037 8.02 5.188 10.392 2.175 5.637 1.814 4.619 7.812 5.608z" fill="#fff"/><path fill-rule="evenodd" clip-rule="evenodd" d="M309 159c4.971 0 9-1.791 9-4h-18c0 2.209 4.029 4 9 4z" fill="#fff"/><path fill-rule="evenodd" clip-rule="evenodd" d="M322.626 151.2l2.778 3.055c-3.616 5.173-9.615 8.556-16.404 8.556-6.79 0-12.789-3.383-16.404-8.556l2.777-3.055c2.817 4.567 7.867 7.611 13.627 7.611 5.76 0 10.809-3.044 13.626-7.611z" fill="#AF9358"/><path fill-rule="evenodd" clip-rule="evenodd" d="M301.188 132.608l7.813 6.392-.001 8-7.812 6.392C298.037 151.02 296 147.248 296 143c0-4.248 2.037-8.02 5.188-10.392z" fill="#1E9E41"/><path fill-rule="evenodd" clip-rule="evenodd" d="M316.813 132.609c3.15 2.372 5.187 6.144 5.187 10.391 0 4.248-2.037 8.02-5.188 10.392L309.001 147l-.001-8 7.813-6.391z" fill="#EE151F"/><path fill-rule="evenodd" clip-rule="evenodd" d="M309 154c6.075 0 11-4.925 11-11s-4.925-11-11-11-11 4.925-11 11 4.925 11 11 11z" fill="#DFDFDF"/><path fill-rule="evenodd" clip-rule="evenodd" d="M309 150c3.866 0 7-3.134 7-7s-3.134-7-7-7-7 3.134-7 7 3.134 7 7 7z" fill="#CACACA"/><path fill-rule="evenodd" clip-rule="evenodd" d="M309 147c2.209 0 4-1.791 4-4s-1.791-4-4-4-4 1.791-4 4 1.791 4 4 4z" fill="#AAA"/><path fill-rule="evenodd" clip-rule="evenodd" d="M309 159c3.866 0 7-3.134 7-7s-3.134-7-7-7-7 3.134-7 7 3.134 7 7 7z" fill="#1A1A1A"/><path fill-rule="evenodd" clip-rule="evenodd" d="M309 158.176c3.411 0 6.177-2.765 6.177-6.176s-2.766-6.177-6.177-6.177c-3.411 0-6.176 2.766-6.176 6.177 0 3.411 2.765 6.176 6.176 6.176z" fill="#fff"/><path fill-rule="evenodd" clip-rule="evenodd" d="M306.941 152.59l2.051 1.453 2.067-1.453-.699-2.649h-2.735l-.684 2.649zM309 145.823c.526 0 1.036.066 1.523.19l-.163.618h-2.735l-.16-.615a6.1663 6.1663 0 011.535-.193zM304.83 155.552l2.32 1.45-.25.808a6.1802 6.1802 0 01-2.577-1.776l.507-.482zM313.225 155.552l.477.453a6.194 6.194 0 01-2.552 1.787l-.245-.79 2.32-1.45zM314.069 148.47c.583.836.964 1.822 1.074 2.889l-.666.073-.98-2.553.572-.409zM303.934 148.465l.536.383-.98 2.554-.631-.069a6.1475 6.1475 0 011.075-2.868z" fill="#000"/><path fill-rule="evenodd" clip-rule="evenodd" d="M311.381 129.807c-.269.08-.578.138-.913.172-.11.011-.225.532-.313 1.195s.828 1.454.321 1.436c-.506-.018-3.484.018-3.723 0-.218-.017.76-.865.989-1.536.228-.671.211-1.185 0-1.292-.989-.504-3.193-2.851-2.921-4.823.301-2.19-.072-3.235-1.166-3.235-.72 0-1.088-.476-1.493 0-.158-.489.6-.967 1.328-1.161.499-.134.665.126.862.119.338-.012.79-.024 1.076-.244.215-.165.304-.689.75-.774.575-.11 1.09 0 1.684 0 2.64 0 5.467 1.138 6.138 5.051.257 1.584.138 3.133-.153 3.758-.35.754-1.139.942-2.466 1.334z" fill="#DFDFDF"/></svg>