<?xml version="1.0" encoding="UTF-8"?><svg width="500" height="500" viewBox="0 0 500 500" xmlns="http://www.w3.org/2000/svg"><g fill="none" fill-rule="evenodd"><path d="M0 0h500v500H0z"/><path fill="#D3D0CF" d="M203.0033 109.223h93.6432V21.928h-93.6432z"/><path fill="#E0E0E0" d="M202.8636 32.228h93.4586v-14.2h-93.4586z"/><path d="M87.5475 75.2585s-40.7627 72.8-58.5475 127.77c4.445 13.375 45.2077 40.86 85.2322 37.885 13.3398-36.4 24.4596-52 24.4596-52s2.9633-95.085-51.1443-113.655m323.9252 0s40.7628 72.8 58.5475 127.77c-4.445 13.375-45.2077 40.86-85.2321 37.885-13.3399-36.4-24.4597-52-24.4597-52s-2.9633-95.085 51.1443-113.655" fill="#F2F2F2"/><path d="M249.5111 57.7025c-50.0817 0-47.7981-39.469-48.7426-39.14-7.5158 2.6187-24.1326 14.9368-52.4385 25.495-31.8729 11.885-52.626 19.315-60.7825 31.2 11.1149 8.915 46.6944 28.97 46.6944 120.345v271.14s49.6576 14.855 114.885 14.855c68.9291 0 115.6484-14.855 115.6484-14.855v-271.14c0-91.375 35.5795-111.43 46.6994-120.345-8.1566-11.885-28.9096-19.315-60.7825-31.2-28.3599-10.5767-44.9818-22.9194-52.478-25.5106-.9273-.3184 4.1773 39.1556-48.703 39.1556z" fill="#F2F2F2"/><path d="M134.2415 337.948L337.9514 47.0187a224.4336 224.4336 0 009.3088 3.8343l11.3519 4.384c14.1157 5.4842 25.4555 10.1287 33.8383 15.0726L134.2415 439.069V337.948L337.9514 47.0187 134.2415 337.948z" fill="#E0C748"/><path d="M134.2415 344.922L341.7091 48.6254a224.4477 224.4477 0 004.4136 1.785l11.5349 4.456c12.662 4.9105 23.1324 9.1368 31.284 13.4798l-254.7 363.7488v-87.173L341.709 48.6254 134.2415 344.922zm335.8873-141.7204c-4.445 13.375-45.2077 40.86-85.2322 37.885a426.405 426.405 0 00-2.8354-7.5199c20.7951-1.3576 37.9933-5.6366 51.5945-12.837 13.4282-7.109 24.6968-15.5848 33.8057-25.4277.936 2.6666 1.8273 5.303 2.6674 7.8996zM31.6547 195.302c9.1031 9.8275 20.3606 18.2914 33.7724 25.3916 13.611 7.2056 30.824 11.4856 51.6393 12.84a426.4198 426.4198 0 00-2.8342 7.5169c-40.0245 2.975-80.7873-24.51-85.2322-37.885.8363-2.5849 1.7234-5.2092 2.6547-7.8635z" fill="#CB311D"/><path d="M307.8516 23.345c-5.772-3.24-9.728-5.345-12.0078-5.345 0 0 5.8817 32.495-46.3352 32.495-48.5202 0-46.3352-32.495-46.3352-32.495-2.2798 0-6.2358 2.105-12.0028 5.345 0 0 7.3683 40.38 58.4029 40.38 51.4785 0 58.2781-35.895 58.2781-40.38z" fill="#F2F2F2"/><path d="M413.5843 238.3227c-9.2877 2.2382-19.0646 3.3161-28.7978 2.5926-8.1978-22.369-15.5572-36.883-20.0128-44.7484v270.5774s-21.1022 6.7098-55.8664 11.1104c-.1817-.0197-.363-.0396-.544-.0597 1.8808-54.795 5.7221-166.47 8.2763-240.705 2.0554-59.755 31.0847-95.29 60.099-117.44-2.6753 6.7806-5.0714 14.6063-6.9991 23.6673 7.354 11.8514 24.4358 42.0687 43.8307 94.964.005.014.0097.0277.014.0414zM190.7166 477.7953c-34.2478-4.4014-56.4763-11.051-56.4763-11.051V196.1721c-4.4558 7.8668-11.8138 22.3792-20.0097 44.7432-9.633.716-19.3087-.3323-28.5106-2.5238a1.113 1.113 0 01.0199-.0967c19.3773-52.8475 36.3054-83.0661 43.6098-94.9437-1.929-9.0753-4.3277-16.912-7.0064-23.7011 29.0144 22.15 58.0437 57.685 60.099 117.44 2.5543 74.235 6.3956 185.91 8.2763 240.7053h-.002z" fill-opacity=".06" fill="#000"/><path d="M293 124.8444A152.3178 152.3178 0 01309 124c5.3333 0 10.6667.2815 16 .8444v26.1589a1.7 1.7 0 01-.7008 1.3753C318.9417 156.2708 313.842 159.478 309 162c-4.8427-2.5073-9.9432-5.7144-15.3015-9.6212a1.7 1.7 0 01-.6985-1.3736v-26.1608z" fill="#E3B44A"/><path d="M295 126.7556A130.367 130.367 0 01309 126c4.6667 0 9.3333.2519 14 .7556v23.3254a1.7 1.7 0 01-.6871 1.3653C317.652 154.904 313.2144 157.7553 309 160c-4.2151-2.2316-8.6535-5.0828-13.3152-8.5536A1.7 1.7 0 01295 150.083v-23.3273z" fill="#FFF"/><path d="M305.001 128.074v27.5727c-2.3683-1.493-4.813-3.204-7.334-5.1327a1.7 1.7 0 01-.667-1.3501v-20.4972a108.861 108.861 0 018.001-.5927zm15.999.5927v20.4953a1.7 1.7 0 01-.6693 1.3519c-2.5198 1.921-4.9634 3.629-7.3307 5.1237V128.074c2.6667.0987 5.3333.2963 8 .5926z" fill="#FB403A"/></g></svg>