<?xml version="1.0" encoding="UTF-8"?><svg width="500" height="500" viewBox="0 0 500 500" xmlns="http://www.w3.org/2000/svg"><g fill="none" fill-rule="evenodd"><path d="M0 0h500v500H0z"/><path fill="#BE2828" d="M203.0033 109.223h93.6432V21.928h-93.6432z"/><path fill="#1E3A9D" d="M202.8636 32.228h93.4586v-14.2h-93.4586z"/><path d="M87.5475 75.2585s-40.7627 72.8-58.5475 127.77c4.445 13.375 45.2077 40.86 85.2322 37.885 13.3398-36.4 24.4596-52 24.4596-52s2.9633-95.085-51.1443-113.655m323.9252 0s40.7628 72.8 58.5475 127.77c-4.445 13.375-45.2077 40.86-85.2321 37.885-13.3399-36.4-24.4597-52-24.4597-52s-2.9633-95.085 51.1443-113.655" fill="#E63131"/><path d="M249.5111 57.7025c-50.0817 0-47.7981-39.469-48.7426-39.14-7.5158 2.6187-24.1326 14.9368-52.4385 25.495-31.8729 11.885-52.626 19.315-60.7825 31.2 11.1149 8.915 46.6944 28.97 46.6944 120.345v271.14s49.6576 14.855 114.885 14.855c68.9291 0 115.6484-14.855 115.6484-14.855v-271.14c0-91.375 35.5795-111.43 46.6994-120.345-8.1566-11.885-28.9096-19.315-60.7825-31.2-28.3599-10.5767-44.9818-22.9194-52.478-25.5106-.9273-.3184 4.1773 39.1556-48.703 39.1556z" fill="#E63131"/><path d="M307.8516 23.345l-15.237 10.3105c-4.8595 8.3162-16.3633 16.8395-43.106 16.8395-25.365 0-36.8728-8.8806-42.0796-17.3568l-16.2584-9.7932s7.3683 40.38 58.4029 40.38c51.4785 0 58.2781-35.895 58.2781-40.38z" fill="#F2F2F2"/><path d="M119.9819 226.098c-1.8487 4.494-3.7749 9.4268-5.7497 14.8155-40.0245 2.975-80.7873-24.51-85.2322-37.885 1.7572-5.4313 3.7388-11.0368 5.8832-16.7288 10.2695 10.9648 22.741 19.7944 37.4143 26.4888 14.6578 6.6873 30.5526 11.1238 47.6844 13.3096zm306.9071-13.3095c14.6734-6.6944 27.1448-15.524 37.4144-26.4888 2.1444 5.692 4.126 11.2975 5.8831 16.7288-4.4449 13.375-45.2077 40.86-85.2321 37.885-1.9749-5.3887-3.901-10.3216-5.7497-14.8154 17.1318-2.1858 33.0266-6.6223 47.6843-13.3096z" fill="#2A4BBE"/><path d="M467.4614 195.302c.936 2.6666 1.8273 5.303 2.6674 7.8996-4.445 13.375-45.2077 40.86-85.2322 37.885a426.405 426.405 0 00-2.8354-7.5199c20.7951-1.3576 37.9933-5.6366 51.5945-12.837 13.4282-7.109 24.6968-15.5848 33.8057-25.4277zm-435.8067 0c9.1031 9.8275 20.3606 18.2914 33.7724 25.3916 13.611 7.2056 30.824 11.4856 51.6393 12.84a426.4198 426.4198 0 00-2.8342 7.5169c-40.0245 2.975-80.7873-24.51-85.2322-37.885.8363-2.5849 1.7234-5.2092 2.6547-7.8635z" fill="#F2F2F2"/><path d="M290.641 36.5094C297.609 27.7148 295.8469 18 295.8469 18c2.2798 0 6.2359 2.1005 12.0078 5.3336 0 1.066-5.749 5.4553-17.2469 13.1682l.0334.0076zm-81.0024-.2822l-18.465-12.8936c5.767-3.2331 9.723-5.3336 12.0028-5.3336 0 0-.6406 9.5064 6.4742 18.2245l-.012.0027z" fill="#2A4BBE"/><path d="M413.5843 238.3227c-9.2877 2.2382-19.0646 3.3161-28.7978 2.5926-8.1978-22.369-15.5572-36.883-20.0128-44.7484v270.5774s-21.1022 6.7098-55.8664 11.1104c-.1817-.0197-.363-.0396-.544-.0597 1.8808-54.795 5.7221-166.47 8.2763-240.705 2.0554-59.755 31.0847-95.29 60.099-117.44-2.6753 6.7806-5.0714 14.6063-6.9991 23.6673 7.354 11.8514 24.4358 42.0687 43.8307 94.964.005.014.0097.0277.014.0414zM190.7166 477.7953c-34.2478-4.4014-56.4763-11.051-56.4763-11.051V196.1721c-4.4558 7.8668-11.8138 22.3792-20.0097 44.7432-9.633.716-19.3087-.3323-28.5106-2.5238a1.113 1.113 0 01.0199-.0967c19.3773-52.8475 36.3054-83.0661 43.6098-94.9437-1.929-9.0753-4.3277-16.912-7.0064-23.7011 29.0144 22.15 58.0437 57.685 60.099 117.44 2.5543 74.235 6.3956 185.91 8.2763 240.7053h-.002z" fill-opacity=".08" fill="#000"/><g transform="translate(287 121)"><circle fill="#0034A9" cx="22" cy="22" r="22"/><circle fill="#FFF" cx="22" cy="22" r="16"/><path d="M32 25.7675c0 4.1402-10 5.983-10 8.2325 0-2.2457-10-3.9888-10-8.2325 0-.904.2884-2.0698.6061-3.2665H31.394c.3177 1.1967.6061 2.3625.6061 3.2665z" fill="#E10500"/><path d="M29.1429 12L32 14.129c-.9524 1.4653-1.4286 2.8846-1.4286 4.2581 0 .877.2589 1.98.5562 3.113H12.8724l.1901-.7488c.2095-.8633.366-1.6821.366-2.3642 0-1.3735-.4761-2.7928-1.4285-4.258L14.8571 12c.7672.4731 1.7196.7097 2.8572.7097C19.4207 12.7097 20.5714 12 22 12l.421.0199c1.2433.115 2.329.6898 3.8647.6898 1.0112 0 1.876-.187 2.5946-.5608L29.1429 12z" fill="#0034A9"/><path fill="#FFF" fill-rule="nonzero" d="M24.2815 22.913l1.4267 4.587L22 24.6557 18.2918 27.5l1.4268-4.587L16 20.0835l4.59.0092L22 15.5l1.41 4.5928 4.59-.0092z"/></g></g></svg>