<?xml version="1.0" encoding="UTF-8"?><svg width="500" height="500" xmlns="http://www.w3.org/2000/svg"><g fill="none" fill-rule="evenodd"><path d="M0 0h500v500H0z"/><path fill="#2058AB" d="M203.003 109.223h93.643V21.928h-93.643z"/><path fill="#E0E0E0" d="M202.864 32.228h93.458v-14.2h-93.458z"/><path d="M87.548 75.258S46.785 148.058 29 203.029c4.445 13.376 45.208 40.86 85.232 37.886 13.34-36.4 24.46-52 24.46-52S141.655 93.83 87.548 75.26m323.925-.002s40.762 72.8 58.547 127.77c-4.445 13.376-45.208 40.86-85.232 37.886-13.34-36.4-24.46-52-24.46-52s-2.963-95.085 51.145-113.655" fill="#2F70D1"/><path d="M249.511 57.703c-50.082 0-47.798-39.47-48.742-39.14-7.516 2.618-24.133 14.936-52.439 25.495-31.873 11.885-52.626 19.315-60.782 31.2 11.114 8.915 46.694 28.97 46.694 120.345v271.14s49.658 14.855 114.885 14.855c68.929 0 115.648-14.855 115.648-14.855v-271.14c0-91.375 35.58-111.43 46.7-120.345-8.157-11.885-28.91-19.315-60.783-31.2-28.36-10.577-44.982-22.92-52.478-25.511-.927-.318 4.177 39.156-48.703 39.156z" fill="#2F70D1"/><path d="M467.353 195.129a338.826 338.826 0 012.667 7.9c-4.445 13.375-45.208 40.86-85.232 37.885a426.424 426.424 0 00-2.835-7.52c20.795-1.358 37.993-5.637 51.594-12.837 13.428-7.11 24.697-15.585 33.806-25.428zm-435.698.036c9.103 9.828 20.36 18.291 33.772 25.392 13.611 7.205 30.824 11.485 51.64 12.84a426.42 426.42 0 00-2.835 7.517c-40.024 2.975-80.787-24.51-85.232-37.885.836-2.585 1.723-5.21 2.655-7.864z" fill="#2664BF"/><path d="M307.852 23.345C302.08 20.105 298.124 18 295.844 18c0 0 5.881 32.495-46.335 32.495-48.52 0-46.336-32.495-46.336-32.495-2.28 0-6.235 2.105-12.002 5.345 0 0 7.368 40.38 58.402 40.38 51.479 0 58.279-35.895 58.279-40.38z" fill="#F1F1F1"/><path d="M413.584 238.323c-9.287 2.238-19.064 3.316-28.798 2.592-8.197-22.369-15.557-36.883-20.012-44.748v270.577s-21.102 6.71-55.867 11.11l-.544-.059c1.881-54.795 5.722-166.47 8.277-240.705 2.055-59.755 31.084-95.29 60.099-117.44-2.676 6.78-5.072 14.606-7 23.667 7.354 11.852 24.436 42.069 43.831 94.964l.014.042zM190.717 477.795c-34.248-4.401-56.477-11.05-56.477-11.05V196.171c-4.456 7.867-11.813 22.38-20.01 44.743-9.632.716-19.308-.332-28.51-2.523.005-.033.012-.065.02-.097 19.377-52.848 36.305-83.066 43.61-94.944-1.93-9.075-4.328-16.912-7.007-23.701 29.015 22.15 58.044 57.685 60.1 117.44 2.554 74.235 6.395 185.91 8.276 240.705h-.002z" fill-opacity=".1" fill="#000"/><path d="M292.5 121h1.5c7.035 0 11.76-.945 14.1-2.7l.9-.675.9.675c2.34 1.755 7.065 2.7 14.1 2.7h1.5v27.5c0 8.138-5.394 14.61-15.88 19.366l-.62.281-.62-.28c-10.486-4.756-15.88-11.23-15.88-19.367V121z" fill="#CAB880" fill-rule="nonzero"/><path d="M294 122.5c7.333 0 12.333-1 15-3 2.667 2 7.667 3 15 3v26c0 7.465-5 13.465-15 18-10-4.535-15-10.535-15-18v-26z" fill="#0064AB"/><path d="M309 131.5c1.333 0 2.667.068 4 .205v28.703a36.7 36.7 0 01-4 2.092 36.698 36.698 0 01-4.001-2.093l.001-28.702a39.242 39.242 0 014-.205z" fill="#FFF"/><path d="M321.5 133.5v14.064c0 5.108-2.833 9.39-8.5 12.844v-28.703c2.833.29 5.667.888 8.5 1.795z" fill="#E4011B"/><path d="M305 131.705v28.703c-5.666-3.454-8.5-7.736-8.5-12.844V133.5a41.813 41.813 0 018.5-1.795z" fill="#009D3B"/><path d="M296.5 125.5c4.167-1.333 8.333-2 12.5-2s8.333.667 12.5 2v6c-4.167-1.333-8.333-2-12.5-2s-8.333.667-12.5 2v-6z" fill="#98A38A"/><path fill="#CAB880" d="M313.167 114.75l-1.47.773.28-1.637-1.188-1.159 1.643-.238.735-1.489.734 1.489 1.643.238-1.189 1.16.281 1.636zm-16.667 2l-1.47.773.281-1.637-1.189-1.159 1.643-.238.735-1.489.735 1.489 1.643.238-1.19 1.16.281 1.636zm25 0l-1.47.773.281-1.637-1.189-1.159 1.643-.238.735-1.489.735 1.489 1.643.238-1.19 1.16.281 1.636zm-16.667-2l-1.47.773.282-1.637-1.19-1.159 1.644-.238.734-1.489.735 1.489 1.643.238-1.189 1.16.28 1.636z"/></g></svg>