<?xml version="1.0" encoding="UTF-8"?><svg width="500" height="500" viewBox="0 0 500 500" xmlns="http://www.w3.org/2000/svg"><g fill="none" fill-rule="evenodd"><path d="M0 0h500v500H0z"/><path fill="#D3D0CF" d="M203.0033 109.223h93.6432V21.928h-93.6432z"/><path fill="#2E3944" d="M202.8636 32.228h93.4586v-14.2h-93.4586z"/><path d="M87.5475 75.2585s-40.7627 72.8-58.5475 127.77c4.445 13.375 45.2077 40.86 85.2322 37.885 13.3398-36.4 24.4596-52 24.4596-52s2.9633-95.085-51.1443-113.655m323.9252 0s40.7628 72.8 58.5475 127.77c-4.445 13.375-45.2077 40.86-85.2321 37.885-13.3399-36.4-24.4597-52-24.4597-52s-2.9633-95.085 51.1443-113.655" fill="#F2F2F2"/><path d="M249.5111 57.7025c-50.0817 0-47.7981-39.469-48.7426-39.14-7.5158 2.6187-24.1326 14.9368-52.4385 25.495-31.8729 11.885-52.626 19.315-60.7825 31.2 11.1149 8.915 46.6944 28.97 46.6944 120.345v271.14s49.6576 14.855 114.885 14.855c68.9291 0 115.6484-14.855 115.6484-14.855v-271.14c0-91.375 35.5795-111.43 46.6994-120.345-8.1566-11.885-28.9096-19.315-60.7825-31.2-28.3599-10.5767-44.9818-22.9194-52.478-25.5106-.9273-.3184 4.1773 39.1556-48.703 39.1556z" fill="#F2F2F2"/><path d="M270.0038 55.1965l-.0021 425.9473a480.7485 480.7485 0 01-20.8747.4537c-6.544 0-12.9312-.1495-19.1272-.4185l-.0024-425.9657c5.411 1.5648 11.849 2.4892 19.5137 2.4892 8.1212 0 14.8748-.931 20.4927-2.506zm34.996-33.3813c8.3027 4.5474 21.3407 12.5284 40.0002 20.0361l.0011 429.8877c-10.0484 2.1738-23.6198 4.6598-39.9995 6.5915L305 21.8152zm-109.9988-.5313l-.0025 457.0399c-16.073-1.9176-29.7298-4.3795-40-6.54l.0013-430.3287c18.8786-7.6938 31.8977-15.8106 40.0012-20.1712z" fill="#70A8D9"/><path d="M467.3529 195.129c.9359 2.6665 1.8272 5.303 2.6673 7.8995-4.445 13.375-45.2077 40.86-85.2321 37.885a426.4238 426.4238 0 00-2.8354-7.5198c20.795-1.3576 37.9932-5.6366 51.5944-12.8371 13.4282-7.109 24.6968-15.5848 33.8058-25.4277zm-435.6982.036c9.1031 9.8275 20.3606 18.2914 33.7724 25.3916 13.611 7.2056 30.824 11.4856 51.6393 12.84a426.4196 426.4196 0 00-2.8342 7.5169c-40.0245 2.975-80.7873-24.51-85.2322-37.885.8363-2.5849 1.7234-5.2092 2.6547-7.8635zm276.1969-171.82c-5.772-3.24-9.728-5.345-12.0078-5.345 0 0 5.8817 32.495-46.3352 32.495-48.5202 0-46.3352-32.495-46.3352-32.495-2.2798 0-6.2358 2.105-12.0028 5.345 0 0 7.3683 40.38 58.4029 40.38 51.4785 0 58.2781-35.895 58.2781-40.38z" fill="#394754"/><path d="M413.5843 238.3227c-9.2877 2.2382-19.0646 3.3161-28.7978 2.5926-8.1978-22.369-15.5572-36.883-20.0128-44.7484v270.5774s-21.1022 6.7098-55.8664 11.1104c-.1817-.0197-.363-.0396-.544-.0597 1.8808-54.795 5.7221-166.47 8.2763-240.705 2.0554-59.755 31.0847-95.29 60.099-117.44-2.6753 6.7806-5.0714 14.6063-6.9991 23.6673 7.354 11.8514 24.4358 42.0687 43.8307 94.964.005.014.0097.0277.014.0414zM190.7166 477.7953c-34.2478-4.4014-56.4763-11.051-56.4763-11.051V196.1721c-4.4558 7.8668-11.8138 22.3792-20.0097 44.7432-9.633.716-19.3087-.3323-28.5106-2.5238a1.113 1.113 0 01.0199-.0967c19.3773-52.8475 36.3054-83.0661 43.6098-94.9437-1.929-9.0753-4.3277-16.912-7.0064-23.7011 29.0144 22.15 58.0437 57.685 60.099 117.44 2.5543 74.235 6.3956 185.91 8.2763 240.7053h-.002z" fill-opacity=".07" fill="#000"/><path d="M297 126.5h24v32.9055c0 1.4538-1.0423 2.6983-2.4735 2.9534-6.351 1.1323-9.5265 2.5126-9.5265 4.1411 0-1.657-3.1722-3.0399-9.5166-4.1489-1.4358-.251-2.4834-1.4976-2.4834-2.9552V126.5z" fill="#DFCC96"/><path fill="#DFCC96" d="M292 128.5h34v10h-34z"/><path fill="#76C6F0" d="M293 129.5h32v2.5h-32z"/><path fill="#FFF" d="M293 132h32v3h-32z"/><path fill="#76C6F0" d="M293 135h32v2.5h-32z"/><path fill="#DFCC96" d="M316 122.5l-2.3511 1.236.449-2.618-1.9021-1.854 2.6286-.382L316 116.5l1.1756 2.382 2.6286.382-1.902 1.854.449 2.618zm-14 0l-2.3511 1.236.449-2.618-1.9021-1.854 2.6286-.382L302 116.5l1.1756 2.382 2.6286.382-1.902 1.854.449 2.618z"/><path d="M326 140.5v19c0 5.5228-4.2284 10-9.4444 10h-15.1112c-5.216 0-9.4444-4.4772-9.4444-10v-19h1.8889v19c0 4.4183 3.3827 8 7.5555 8h15.1112c4.1728 0 7.5555-3.5817 7.5555-8v-19H326z" fill-opacity=".75" fill="#DFCC96" fill-rule="nonzero"/></g></svg>