<?xml version="1.0" encoding="UTF-8"?><svg width="500" height="500" viewBox="0 0 500 500" xmlns="http://www.w3.org/2000/svg"><g fill="none" fill-rule="evenodd"><path d="M0 0h500v500H0z"/><path fill="#7494C1" d="M203.0033 109.223h93.6432V21.928h-93.6432z"/><path fill="#B0C5DF" d="M202.8636 32.228h93.4586v-14.2h-93.4586z"/><path d="M87.5475 75.2585s-40.7627 72.8-58.5475 127.77c4.445 13.375 45.2077 40.86 85.2322 37.885 13.3398-36.4 24.4596-52 24.4596-52s2.9633-95.085-51.1443-113.655m323.9252 0s40.7628 72.8 58.5475 127.77c-4.445 13.375-45.2077 40.86-85.2321 37.885-13.3399-36.4-24.4597-52-24.4597-52s-2.9633-95.085 51.1443-113.655" fill="#92B0E2"/><path d="M249.5111 57.7025c-50.0817 0-47.7981-39.469-48.7426-39.14-7.5158 2.6187-24.1326 14.9368-52.4385 25.495-31.8729 11.885-52.626 19.315-60.7825 31.2 11.1149 8.915 46.6944 28.97 46.6944 120.345v271.14s49.6576 14.855 114.885 14.855c68.9291 0 115.6484-14.855 115.6484-14.855v-271.14c0-91.375 35.5795-111.43 46.6994-120.345-8.1566-11.885-28.9096-19.315-60.7825-31.2-28.3599-10.5767-44.9818-22.9194-52.478-25.5106-.9273-.3184 4.1773 39.1556-48.703 39.1556z" fill="#92B0E2"/><path d="M467.3529 195.129c.9359 2.6665 1.8272 5.303 2.6673 7.8995-4.445 13.375-45.2077 40.86-85.2321 37.885a426.4238 426.4238 0 00-2.8354-7.5198c20.795-1.3576 37.9932-5.6366 51.5944-12.8371 13.4282-7.109 24.6968-15.5848 33.8058-25.4277zm-435.6982.036c9.1031 9.8275 20.3606 18.2914 33.7724 25.3916 13.611 7.2056 30.824 11.4856 51.6393 12.84a426.4196 426.4196 0 00-2.8342 7.5169c-40.0245 2.975-80.7873-24.51-85.2322-37.885.8363-2.5849 1.7234-5.2092 2.6547-7.8635z" fill="#C1D8F4"/><path d="M307.8488 23.3693C302.077 20.1293 298.1236 18 295.8438 18c0 0 5.8817 32.495-46.3352 32.495-48.5202 0-46.3352-32.495-46.3352-32.495-2.2798 0-6.2267 2.1293-11.9936 5.3693 0 0 7.3591 40.3557 58.3937 40.3557 51.4785 0 58.2753-35.8707 58.2753-40.3557z" fill="#92B0E2"/><path d="M209.6408 36.2782c6.0225 7.4035 17.6102 14.2433 39.8708 14.2433 23.622 0 35.354-6.65 41.1197-13.9335l.0609-.0772 5.8572 1.4982c-9.5397 13.429-25.1135 20.1436-46.7215 20.1436-21.6295 0-37.24-6.728-46.8315-20.1838l6.6444-1.6906z" fill="#3D3D3D"/><path d="M209.7338 36.3919a159.0736 159.0736 0 00-6.7061 1.6207c-3.4002-4.7584-6.046-10.36-7.9376-16.8049 3.6892-1.9817 6.3654-3.1812 8.0863-3.1812 0 0-.6456 9.601 6.5574 18.3654zm80.8275.2841c7.061-8.8397 5.2855-18.6495 5.2855-18.6495 1.785 0 4.5974 1.2903 8.5043 3.4054-1.8776 6.407-4.5088 11.9755-7.8933 16.7056a157.8645 157.8645 0 00-5.8965-1.4615z" fill="#C1D8F4"/><path d="M75.0249 117.2983c10.132-20.75 17.9444-35.2452 17.9444-35.2452 7.8821-11.885 27.9368-19.315 58.747-31.2001 19.1361-7.385 36.787-17.6611 45.7624-22.8334l-2.3886-6.8437c-9.2486 5.163-27.0413 15.3969-46.766 22.752-31.868 11.8901-52.621 19.3152-60.7726 31.2002 0 0-8.2313 14.76-18.8573 35.8252C49.557 149.1759 36.3257 179.8672 29 203.0272c.3 1.0583 1.0077 2.41 2.123 4.0553 1.1153 1.6453 2.0508 2.7774 2.8066 3.3964 8.3862-23.6844 22.0846-54.7446 41.0953-93.1806zm348.9401.0239c-10.1321-20.75-17.9577-35.269-17.9577-35.269-7.8822-11.8851-27.9368-19.3151-58.747-31.2002-19.0367-7.3466-36.5434-17.6348-45.3179-22.771l2.4087-6.6765c9.2295 5.1456 26.6467 15.1934 46.3014 22.5225 31.868 11.89 52.621 19.315 60.7725 31.2001 0 0 8.2314 14.76 18.8574 35.8252 18.3887 36.3044 31.6346 66.9957 39.7378 92.0739-.4912 1.317-.9771 2.3461-1.4577 3.0877s-1.2755 1.8042-2.3847 3.1878c-18.4273-43.992-32.4983-74.652-42.2128-91.9805z" fill="#C1D8F4"/><path d="M413.5843 238.3227c-9.2877 2.2382-19.0646 3.3161-28.7978 2.5926-8.1978-22.369-15.5572-36.883-20.0128-44.7484v270.5774s-21.1022 6.7098-55.8664 11.1104c-.1817-.0197-.363-.0396-.544-.0597 1.8808-54.795 5.7221-166.47 8.2763-240.705 2.0554-59.755 31.0847-95.29 60.099-117.44-2.6753 6.7806-5.0714 14.6063-6.9991 23.6673 7.354 11.8514 24.4358 42.0687 43.8307 94.964.005.014.0097.0277.014.0414zM190.7166 477.7953c-34.2478-4.4014-56.4763-11.051-56.4763-11.051V196.1721c-4.4558 7.8668-11.8138 22.3792-20.0097 44.7432-9.633.716-19.3087-.3323-28.5106-2.5238a1.113 1.113 0 01.0199-.0967c19.3773-52.8475 36.3054-83.0661 43.6098-94.9437-1.929-9.0753-4.3277-16.912-7.0064-23.7011 29.0144 22.15 58.0437 57.685 60.099 117.44 2.5543 74.235 6.3956 185.91 8.2763 240.7053h-.002z" fill-opacity=".06" fill="#000"/><g transform="translate(296.5 127.5)"><path d="M25 25.833c0 1.5337-4.1667 5.4227-12.5 11.667C4.1667 31.1844 0 27.2955 0 25.833V0h25v25.833z" fill="#FEC900" fill-rule="nonzero"/><path d="M24 25.2152c0 1.6171-3.8333 5.212-11.5 10.7848C4.8333 30.4273 1 26.8323 1 25.2152V1h23v24.2152z" fill="#FFF" fill-rule="nonzero"/><path fill="#FFCA00" d="M9.5 5l3 1.5 3-1.5v24l-3-1.5-3 1.5z"/><path fill="#EE6D03" d="M10.5 8h4v11h-4z"/><path fill="#54B6E6" d="M5.5 21h14v4h-14z"/><circle fill="#FFF" cx="12.5" cy="23" r="3"/><circle fill="#EBEBEB" cx="12.5" cy="23" r="2"/></g><path fill="#FEC900" d="M298.5 125.25l-1.4695.7725.2807-1.6362-1.1888-1.1588 1.6429-.2388.7347-1.4887.7347 1.4887 1.643.2388-1.1889 1.1588.2807 1.6362zm7 0l-1.4695.7725.2807-1.6362-1.1888-1.1588 1.6429-.2388.7347-1.4887.7347 1.4887 1.643.2388-1.1889 1.1588.2807 1.6362zm7 0l-1.4695.7725.2807-1.6362-1.1888-1.1588 1.6429-.2388.7347-1.4887.7347 1.4887 1.643.2388-1.1889 1.1588.2807 1.6362zm7 0l-1.4695.7725.2807-1.6362-1.1888-1.1588 1.6429-.2388.7347-1.4887.7347 1.4887 1.643.2388-1.1889 1.1588.2807 1.6362z"/></g></svg>