<?xml version="1.0" encoding="UTF-8"?><svg width="500" height="500" viewBox="0 0 500 500" fill="none" xmlns="http://www.w3.org/2000/svg"><path fill-rule="evenodd" clip-rule="evenodd" d="M203.003 109.223h93.644V21.928h-93.644v87.295z" fill="#D3D0CF"/><path fill-rule="evenodd" clip-rule="evenodd" d="M202.864 32.228h93.458v-14.2h-93.458v14.2z" fill="#B62E2E"/><path fill-rule="evenodd" clip-rule="evenodd" d="M87.5475 75.2585S46.7848 148.058 29 203.028c4.4449 13.375 45.2077 40.86 85.232 37.885 13.34-36.4 24.46-52 24.46-52s2.963-95.0845-51.1445-113.6545zm323.9245 0s40.763 72.7995 58.548 127.7695c-4.445 13.375-45.208 40.86-85.232 37.885-13.34-36.4-24.46-52-24.46-52s-2.963-95.0845 51.144-113.6545z" fill="#F2F2F2"/><path fill-rule="evenodd" clip-rule="evenodd" d="M249.511 57.7025c-50.082 0-47.798-39.4691-48.743-39.14-7.516 2.6187-24.132 14.9368-52.438 25.495-31.873 11.885-52.6261 19.315-60.7826 31.2 11.1148 8.915 46.6946 28.9695 46.6946 120.3445v271.14s49.657 14.856 114.885 14.856c68.929 0 115.648-14.856 115.648-14.856v-271.14c0-91.375 35.58-111.4295 46.699-120.3445-8.156-11.885-28.909-19.315-60.782-31.2-28.36-10.5767-44.982-22.9195-52.478-25.5087-.927-.3203 4.177 39.1537-48.703 39.1537z" fill="#F2F2F2"/><path fill-rule="evenodd" clip-rule="evenodd" d="M116.991 233.591c-.494 1.276-26.7289 0-48.9793-9.14-17.7376-7.285-37.3351-26.492-36.4308-29.075 1.0476-2.991 2.1515-6.021 3.3024-9.076 10.2695 10.965 22.741 19.794 37.4143 26.489 14.6578 6.687 30.5524 11.124 47.6844 13.309-.977 2.375-1.975 4.871-2.991 7.493zm309.898-20.802c14.673-6.695 27.145-15.524 37.414-26.489 1.137 3.017 2.123 6.047 3.158 9.002.083.236-15.161 18.626-32.848 27.054-15.137 7.213-51.406 13.853-52.263 11.635a393.5885 393.5885 0 00-3.145-7.893c17.131-2.185 33.026-6.622 47.684-13.309z" fill="#3D3D3D"/><path fill-rule="evenodd" clip-rule="evenodd" d="M467.353 195.129c.936 2.667 1.827 5.303 2.667 7.899-4.445 13.375-45.208 40.86-85.232 37.885-.958-2.613-1.904-5.119-2.835-7.519 20.795-1.358 37.993-5.637 51.594-12.837 13.428-7.109 24.697-15.585 33.806-25.428zm-435.6983.036c9.1031 9.828 20.3606 18.291 33.7724 25.392 13.6109 7.205 30.8241 11.485 51.6389 12.84-.931 2.399-1.877 4.904-2.834 7.517-40.0243 2.975-80.7871-24.51-85.232-37.885.8363-2.585 1.7234-5.21 2.6547-7.864z" fill="#BDA654"/><path fill-rule="evenodd" clip-rule="evenodd" d="M203 33h93v-5h-93v5z" fill="#177336"/><path fill-rule="evenodd" clip-rule="evenodd" d="M203 28h93v-5h-93v5z" fill="#D5C540"/><path fill-rule="evenodd" clip-rule="evenodd" d="M307.681 23.345c-5.772-3.24-9.728-5.345-12.008-5.345 0 0 5.882 32.495-46.335 32.495-48.52 0-46.335-32.495-46.335-32.495-2.28 0-6.236 2.105-12.003 5.345 0 0 7.368 40.38 58.403 40.38 51.478 0 58.278-35.895 58.278-40.38z" fill="#E6E6E6"/><path d="M196.273 36.5623l8.313-9.0608c3.343 9.5903 13.59 22.9935 44.752 22.9935 33.946 0 43.338-13.7334 45.755-23.344l8.575 9.3468c-6.045 11.8781-20.602 27.2272-54.265 27.2272-31.502 0-46.367-15.3856-53.13-27.1627z" fill="#ECDC4F"/><path d="M201.268 31.1177l3.318-3.6162c3.343 9.5903 13.59 22.9936 44.752 22.9936h.17c33.233 0 42.834-13.1622 45.423-22.7327.057-.2055.111-.4094.162-.6114l3.032 3.3055c-7.084 16.3624-26.004 24.5436-48.524 24.5436-22.215 0-40.937-7.9608-48.333-23.8824z" fill="#CA3434"/><path d="M196.378 36.448l1.942-2.1173c6.133 10.894 20.045 25.0622 50.929 25.0622 33.829 0 47.064-14.3503 52.239-25.2711l2.18 2.376c-6.039 11.8678-20.577 27.2004-54.177 27.2272-31.548-.0269-46.386-15.4957-53.113-27.277z" fill="#1F9447"/><path fill-rule="evenodd" clip-rule="evenodd" d="M413.584 238.323c-9.287 2.238-19.064 3.316-28.797 2.592-8.198-22.369-15.558-36.883-20.013-44.748v270.577s-21.102 6.71-55.866 11.111l-.544-.06c1.88-54.795 5.722-166.47 8.276-240.705 2.055-59.755 31.085-95.29 60.099-117.44-2.675 6.781-5.072 14.606-6.999 23.667 7.354 11.852 24.435 42.069 43.83 94.964.005.014.01.028.014.042zM190.717 477.795c-34.248-4.401-56.476-11.051-56.476-11.051V196.172c-4.456 7.867-11.814 22.379-20.01 44.743-9.633.716-19.3089-.332-28.5108-2.523.0051-.032.0117-.065.0199-.097 19.3769-52.848 36.3059-83.066 43.6099-94.944-1.929-9.075-4.328-16.912-7.006-23.701 29.014 22.15 58.043 57.685 60.099 117.44 2.554 74.235 6.395 185.91 8.276 240.705h-.002z" fill="#000" fill-opacity=".06"/><path fill-rule="evenodd" clip-rule="evenodd" d="M309 164c8.284 0 15-6.716 15-15 0-8.284-6.716-15-15-15-8.284 0-15 6.716-15 15 0 8.284 6.716 15 15 15z" fill="#CA3434"/><path fill-rule="evenodd" clip-rule="evenodd" d="M309 162c7.18 0 13-5.82 13-13s-5.82-13-13-13-13 5.82-13 13 5.82 13 13 13z" fill="#ECDC4F"/><path d="M308 122h9.5v3l-2.5 14-8.36-2.5 1.86-12.5-.5-1v-1z" fill="#ECDC4F"/><path d="M314.5 125h3s0 15-5 15l-3.5-1c5.5 0 5.5-14 5.5-14z" fill="#1F9446"/><path fill-rule="evenodd" clip-rule="evenodd" d="M309 160c6.075 0 11-4.925 11-11s-4.925-11-11-11-11 4.925-11 11 4.925 11 11 11z" fill="#1F9446"/><path fill-rule="evenodd" clip-rule="evenodd" d="M309 158c4.971 0 9-4.029 9-9s-4.029-9-9-9-9 4.029-9 9 4.029 9 9 9z" fill="#F2F2F2"/><path d="M308.989 146.75l-2.239 1.462.9 3.038h2.7l.9-3.038-2.261-1.462z" fill="#282828"/><path fill-rule="evenodd" clip-rule="evenodd" d="M309 158c4.971 0 9-4.029 9-9s-4.029-9-9-9-9 4.029-9 9 4.029 9 9 9zm8-9c0 1.684-.52 3.246-1.408 4.534l-.437-1.216-1.915.914-.924 1.926 1.24.419c-1.293.897-2.863 1.423-4.556 1.423-1.691 0-3.259-.525-4.551-1.42l1.235-.422-.924-1.926-1.915-.914-.426 1.232c-.895-1.292-1.419-2.86-1.419-4.55 0-.611.069-1.207.199-1.779l.696 1.05 1.613-1.378.395-2.1-1.558-.235c1.192-1.781 3.079-3.057 5.274-3.439l-.619 1.488 2.016.709 2-.709-.603-1.483c2.181.389 4.057 1.662 5.242 3.435l-1.783.234.394 2.1 1.614 1.378.926-1.032c.127.567.194 1.156.194 1.761z" fill="#282828"/><path d="M308 123h3s0 13.2-4.5 13.2L304 135c4 0 4-12 4-12z" fill="#CA3434"/><path d="M312.75 122.5l.337 1.036h1.09l-.882.641.337 1.037-.882-.641-.882.641.337-1.037-.882-.641h1.09l.337-1.036z" fill="#3D3D3D"/></svg>