<?xml version="1.0" encoding="UTF-8"?><svg width="500" height="500" viewBox="0 0 500 500" fill="none" xmlns="http://www.w3.org/2000/svg"><path fill-rule="evenodd" clip-rule="evenodd" d="M203.003 109.223h93.644V21.928h-93.644v87.295z" fill="#1F9259"/><path fill-rule="evenodd" clip-rule="evenodd" d="M202.864 32.2281h93.458v-14.2h-93.458v14.2z" fill="#22A766"/><path fill-rule="evenodd" clip-rule="evenodd" d="M87.5475 75.2585S46.7848 148.059 29 203.029c4.4449 13.375 45.2077 40.86 85.232 37.885 13.34-36.4 24.46-52 24.46-52s2.963-95.0855-51.1445-113.6555zm323.9245 0s40.763 72.8005 58.548 127.7705c-4.445 13.375-45.208 40.86-85.232 37.885-13.34-36.4-24.46-52-24.46-52s-2.963-95.0855 51.144-113.6555z" fill="#23A263"/><path fill-rule="evenodd" clip-rule="evenodd" d="M249.511 57.7025c-50.082 0-47.798-39.4691-48.743-39.14-7.516 2.6187-24.132 14.9368-52.438 25.495-31.873 11.885-52.6261 19.315-60.7826 31.2 11.1148 8.915 46.6946 28.9695 46.6946 120.3445v271.14s49.657 14.856 114.885 14.856c68.929 0 115.648-14.856 115.648-14.856v-271.14c0-91.375 35.58-111.4295 46.699-120.3445-8.156-11.885-28.909-19.315-60.782-31.2-28.36-10.5767-44.982-22.9195-52.478-25.5087-.927-.3203 4.177 39.1537-48.703 39.1537z" fill="#23A263"/><path fill-rule="evenodd" clip-rule="evenodd" d="M467.353 195.129c.936 2.667 1.827 5.303 2.667 7.899-4.445 13.375-45.208 40.86-85.232 37.885-.958-2.613-1.904-5.119-2.835-7.519 20.795-1.358 37.993-5.637 51.594-12.837 13.428-7.109 24.697-15.585 33.806-25.428zm-435.6983.036c9.1031 9.828 20.3606 18.291 33.7724 25.392 13.6109 7.205 30.8241 11.485 51.6389 12.84-.931 2.399-1.877 4.904-2.834 7.517-40.0243 2.975-80.7871-24.51-85.232-37.885.8363-2.585 1.7234-5.21 2.6547-7.864z" fill="#EFA83D"/><path d="M318 173.605v303.004c6.628-.976 12.649-2.014 18-3.038V173.813c-5.674-.052-11.75-.12-18-.208zm0-59.725c6.25.088 12.326.156 18 .209V38.0153c-6.906-3.1096-12.885-6.1872-18-8.9606V113.88z" fill="#EFA83D"/><path d="M300 173.303v305.59c6.404-.685 12.417-1.462 18-2.284V173.605c-5.909-.082-11.973-.182-18-.302zm0-59.725c6.027.12 12.091.22 18 .302V29.0547c-3.051-1.6542-5.793-3.2001-8.242-4.5801-4.032-2.2726-7.265-4.0951-9.758-5.2087v94.3121z" fill="#3D3D3D"/><path d="M282 172.869v307.603c6.292-.432 12.301-.969 18-1.579v-305.59c-6.106-.122-12.173-.266-18-.434zm0-59.725c5.827.168 11.894.312 18 .434V19.2659c-.644-.2878-1.239-.5284-1.786-.7171-.109-.0377-.134.4769-.181 1.4142-.236 4.7594-1.012 20.4172-16.033 30.0047v63.1763z" fill="#E13939"/><path fill-rule="evenodd" clip-rule="evenodd" d="M307.851 23.345c-5.772-3.24-9.728-5.345-12.007-5.345 0 0 5.881 32.495-46.336 32.495-48.52 0-46.335-32.495-46.335-32.495-2.28 0-6.236 2.105-12.003 5.345 0 0 7.369 40.38 58.403 40.38 51.479 0 58.278-35.895 58.278-40.38z" fill="#26B16D"/><path fill-rule="evenodd" clip-rule="evenodd" d="M413.584 238.323c-9.287 2.238-19.064 3.316-28.797 2.592-8.198-22.369-15.558-36.883-20.013-44.748v270.577s-21.102 6.71-55.866 11.111l-.544-.06c1.88-54.795 5.722-166.47 8.276-240.705 2.055-59.755 31.085-95.29 60.099-117.44-2.675 6.781-5.072 14.606-6.999 23.667 7.354 11.852 24.435 42.069 43.83 94.964.005.014.01.028.014.042zM190.717 477.795c-34.248-4.401-56.476-11.051-56.476-11.051V196.172c-4.456 7.867-11.814 22.379-20.01 44.743-9.633.716-19.3089-.332-28.5108-2.524a1.056 1.056 0 01.0199-.096c19.3769-52.848 36.3059-83.066 43.6099-94.944-1.929-9.075-4.328-16.912-7.006-23.701 29.014 22.15 58.043 57.685 60.099 117.44 2.554 74.235 6.395 185.91 8.276 240.705h-.002z" fill="#000" fill-opacity=".07"/><path fill-rule="evenodd" clip-rule="evenodd" d="M309.5 166c10.217 0 18.5-8.283 18.5-18.5s-8.283-18.5-18.5-18.5-18.5 8.283-18.5 18.5 8.283 18.5 18.5 18.5z" fill="#F2F2F2"/><path d="M321.279 163.372H333l-3.349-4.186L333 155h-11.721v8.372z" fill="#fff"/><path fill-rule="evenodd" clip-rule="evenodd" d="M329.651 159.186l3.349 4.186h-11.721V155H333l-3.349 4.186zM330.92 156l-2.549 3.186 2.549 3.186h-8.641V156h8.641z" fill="#37B973"/><path fill-rule="evenodd" clip-rule="evenodd" d="M327.186 157.036l-5-2-.372.928 5 2 .372-.928z" fill="#37B973"/><path d="M296.721 163.372H285l3.349-4.186L285 155h11.721v8.372z" fill="#fff"/><path fill-rule="evenodd" clip-rule="evenodd" d="M288.349 159.186L285 163.372h11.721V155H285l3.349 4.186zM287.08 156l2.549 3.186-2.549 3.186h8.641V156h-8.641z" fill="#37B973"/><path fill-rule="evenodd" clip-rule="evenodd" d="M290.83 157.03l5.627-2.036.34.941-5.627 2.035-.34-.94z" fill="#37B973"/><path fill-rule="evenodd" clip-rule="evenodd" d="M309.5 164c9.113 0 16.5-7.387 16.5-16.5s-7.387-16.5-16.5-16.5-16.5 7.387-16.5 16.5 7.387 16.5 16.5 16.5z" fill="#37B973"/><path fill-rule="evenodd" clip-rule="evenodd" d="M309.5 162c8.008 0 14.5-6.492 14.5-14.5s-6.492-14.5-14.5-14.5-14.5 6.492-14.5 14.5 6.492 14.5 14.5 14.5z" fill="#F2F2F2"/><path fill-rule="evenodd" clip-rule="evenodd" d="M309.312 157.624c5.695 0 10.312-4.617 10.312-10.312 0-5.695-4.617-10.312-10.312-10.312-5.695 0-10.312 4.617-10.312 10.312 0 5.695 4.617 10.312 10.312 10.312z" fill="#F2F2F2"/><path d="M309.3 144.734l-2.566 1.676 1.031 3.48h3.094l1.031-3.48-2.59-1.676z" fill="#282828"/><path fill-rule="evenodd" clip-rule="evenodd" d="M309.312 157.624c5.695 0 10.312-4.617 10.312-10.312 0-5.695-4.617-10.312-10.312-10.312-5.695 0-10.312 4.617-10.312 10.312 0 5.695 4.617 10.312 10.312 10.312zm9.166-10.312c0 1.929-.595 3.719-1.613 5.196l-.5-1.394-2.194 1.047-1.06 2.207 1.422.48c-1.482 1.028-3.281 1.63-5.221 1.63-1.937 0-3.735-.601-5.215-1.627l1.416-.483-1.059-2.207-2.195-1.047-.487 1.411c-1.026-1.48-1.626-3.276-1.626-5.213 0-.7.078-1.383.227-2.038l.798 1.203 1.849-1.579.452-2.406-1.785-.269c1.365-2.041 3.528-3.503 6.043-3.941l-.71 1.706 2.31.811 2.292-.811-.691-1.7c2.499.446 4.648 1.904 6.006 3.936l-2.043.268.452 2.406 1.849 1.579 1.061-1.183c.145.65.222 1.325.222 2.018z" fill="#282828"/><path d="M291.419 166.163h35.163v-8.372h-35.163v8.372z" fill="#fff"/><path d="M293 165h32v-6h-32v6z" fill="#FAD1D1"/><path fill-rule="evenodd" clip-rule="evenodd" d="M290.419 167.163h37.163v-10.372h-37.163v10.372zm1-1v-8.372h35.163v8.372h-35.163z" fill="#37B973"/><path d="M313.999 119.858c-.816-1.332-2.839-2.459-6.364-1.5-2.135.581-2.961 2.142-2.961 4.179-5.452-.64-11.365-2.047-13.267-2.52-.362-.091-.79.007-.907.483l-.386 1.08c-.371 1.514.195 3.108 1.229 3.679.147.081.301.148.455.215.152.066.305.132.45.212 1.616.888 7.599 3.866 15.67 4.15.113.629.368 1.164 1.082 1.164h2.062c.716 0 .903-.564.854-1.276 6.661-.63 12.35-3.308 13.74-4.006.114-.057.23-.11.346-.163.105-.049.211-.097.316-.149 1.397-.691 2.682-2.481 2.682-4.716v-.832s-10.575 2.715-18.322 2.981C310 120 312.5 120 313.999 119.858z" fill="#E9994F"/></svg>