<?xml version="1.0" encoding="UTF-8"?><svg width="500" height="500" viewBox="0 0 500 500" xmlns="http://www.w3.org/2000/svg"><g fill="none" fill-rule="evenodd"><path d="M0 0h500v500H0z"/><path fill="#1F2C5B" d="M203.0033 109.223h93.6432V21.928h-93.6432z"/><path fill="#771F22" d="M202.8636 32.228h93.4586v-14.2h-93.4586z"/><path d="M87.5475 75.2585s-40.7627 72.8-58.5475 127.77c4.445 13.375 45.2077 40.86 85.2322 37.885 13.3398-36.4 24.4596-52 24.4596-52s2.9633-95.085-51.1443-113.655m323.9252 0s40.7628 72.8 58.5475 127.77c-4.445 13.375-45.2077 40.86-85.2321 37.885-13.3399-36.4-24.4597-52-24.4597-52s-2.9633-95.085 51.1443-113.655" fill="#2E4181"/><path d="M249.5111 57.7025c-50.0817 0-47.7981-39.469-48.7426-39.14-7.5158 2.6187-24.1326 14.9368-52.4385 25.495-31.8729 11.885-52.626 19.315-60.7825 31.2 11.1149 8.915 46.6944 28.97 46.6944 120.345v271.14s49.6576 14.855 114.885 14.855c68.9291 0 115.6484-14.855 115.6484-14.855v-271.14c0-91.375 35.5795-111.43 46.6994-120.345-8.1566-11.885-28.9096-19.315-60.7825-31.2-28.3599-10.5767-44.9818-22.9194-52.478-25.5106-.9273-.3184 4.1773 39.1556-48.703 39.1556z" fill="#2E4181"/><path d="M307.8516 23.345c-5.772-3.24-9.728-5.345-12.0078-5.345 0 0 5.8817 32.495-46.3352 32.495-48.5202 0-46.3352-32.495-46.3352-32.495-2.2798 0-6.2358 2.105-12.0028 5.345 0 0 7.3683 40.38 58.4029 40.38 51.4785 0 58.2781-35.895 58.2781-40.38z" fill="#9A2B2F"/><path d="M413.5843 238.3227c-9.2877 2.2382-19.0646 3.3161-28.7978 2.5926-8.1978-22.369-15.5572-36.883-20.0128-44.7484v270.5774s-21.1022 6.7098-55.8664 11.1104c-.1817-.0197-.363-.0396-.544-.0597 1.8808-54.795 5.7221-166.47 8.2763-240.705 2.0554-59.755 31.0847-95.29 60.099-117.44-2.6753 6.7806-5.0714 14.6063-6.9991 23.6673 7.354 11.8514 24.4358 42.0687 43.8307 94.964.005.014.0097.0277.014.0414zM190.7166 477.7953c-34.2478-4.4014-56.4763-11.051-56.4763-11.051V196.1721c-4.4558 7.8668-11.8138 22.3792-20.0097 44.7432-9.633.716-19.3087-.3323-28.5106-2.5238a1.113 1.113 0 01.0199-.0967c19.3773-52.8475 36.3054-83.0661 43.6098-94.9437-1.929-9.0753-4.3277-16.912-7.0064-23.7011 29.0144 22.15 58.0437 57.685 60.099 117.44 2.5543 74.235 6.3956 185.91 8.2763 240.7053h-.002z" fill-opacity=".1" fill="#000"/><g transform="translate(292 121)"><path d="M0 0h34v18.3959C34 29.7235 28.3333 38.2582 17 44 5.6667 38.259 0 29.7243 0 18.3959V0z" fill="#FFF"/><path d="M1.5455 7h30.909v11.7235C32.4545 29.0214 27.303 36.7802 17 42 6.697 36.781 1.5455 29.0221 1.5455 18.7235V7z" fill="#082851"/><ellipse fill="#FFF" transform="rotate(44 9.3333 24)" cx="9.3333" cy="24" rx="1.3333" ry="2"/><path fill="#526885" opacity=".7" d="M1.55 1.5h30.91v4H1.55z"/><path d="M15.1071 7.0003c-.3841 4.138-1.666 7.293-3.8458 9.4645-2.1675 2.1594-5.3884 3.5115-9.6625 4.056a30.041 30.041 0 01-.0533-1.7973V7l13.5616.0003z" fill="#FFF"/><path d="M12.9572 7.0006c-.3343 3.4856-1.4192 6.1461-3.2546 7.9816-1.8318 1.8318-4.5506 2.9811-8.1565 3.448L1.5455 7l11.4117.0006z" fill="#E21735"/><path d="M32.4545 7l-.0005 7.6593c-6.8623-.2826-8.5877 4.3456-8.8594 8.5502-2.8683-5.6472-2.8098-11.0506.1756-16.2104L32.4545 7z" fill="#FFF"/><path d="M32.4545 7l-.0009 6.2643c-5.5983-.4143-8.7122 2.1828-9.1147 6.0052-.8498-4.746.5643-9.7718 2.9655-12.2704L32.4545 7z" fill="#E21735"/><path d="M21.3717 28.1031c2.3933-2.6433 5.582-2.795 9.5664-.455a22.1 22.1 0 01-1.3755 3.014c-2.3871-2.0116-5.0087-1.4818-7.865 1.5887 1.7832.5466 1.3937 1.6298-1.1684 3.2494C16.6859 37.9296 12 33.7258 12 30.7362c.8503 1.1315 2.894 1.9097 6.1312 2.3346.3725-1.2156 1.4527-2.8715 3.2405-4.9677z" fill="#FFF"/></g></g></svg>