<?xml version="1.0" encoding="UTF-8"?><svg width="500" height="500" xmlns="http://www.w3.org/2000/svg"><g fill="none" fill-rule="evenodd"><path d="M0 0h500v500H0z"/><path fill="#9A2D2E" d="M203.003 109.223h93.643V21.928h-93.643z"/><path d="M87.548 75.258S46.785 148.058 29 203.029c4.445 13.376 45.208 40.86 85.232 37.886 13.34-36.4 24.46-52 24.46-52S141.655 93.83 87.548 75.26m323.925-.002s40.762 72.8 58.547 127.77c-4.445 13.376-45.208 40.86-85.232 37.886-13.34-36.4-24.46-52-24.46-52s-2.963-95.085 51.145-113.655" fill="#D32930"/><path d="M249.511 57.703c-50.082 0-47.798-39.47-48.742-39.14-7.516 2.618-24.133 14.936-52.439 25.495-31.873 11.885-52.626 19.315-60.782 31.2 11.114 8.915 46.694 28.97 46.694 120.345v271.14s49.658 14.855 114.885 14.855c68.929 0 115.648-14.855 115.648-14.855v-271.14c0-91.375 35.58-111.43 46.7-120.345-8.157-11.885-28.91-19.315-60.783-31.2-28.36-10.577-44.982-22.92-52.478-25.511-.927-.318 4.177 39.156-48.703 39.156z" fill="#D32930"/><path d="M293.733 37.26c45.26 11.336 71.506 39.337 71.506 67.982v72.909c-.301 5.5-.46 11.3-.46 17.421v271.14s-46.72 14.856-115.649 14.856c-65.227 0-114.885-14.856-114.885-14.856v-271.14c0-6.261-.167-12.188-.482-17.799v-72.531c0-28.836 26.598-57.02 72.417-68.202 5.595 10.126 17.495 20.633 43.334 20.633 27.082 0 38.955-10.353 44.22-20.412z" fill="#F2F2F2"/><path d="M345.5 431l.003 40.6c-14.52 3.164-36.6 7.025-64 8.876L281.5 431h64zm-128 0v49.434c-26.813-1.9-49.215-5.83-64.002-9L153.5 431h64zm147.278-64v64H345.5v-64h19.278zm-83.278 0v64h-64v-64h64zm-128 0v64h-19.256v-64H153.5zm64-64v64h-64v-64h64zm128 0v64h-64v-64h64zm-64-64v64h-64v-64h64zm83.278 0v64H345.5v-64h19.278zM153.5 239v64h-19.256v-64H153.5zm64-64v64h-64v-64h64zm128 0v64h-64v-64h64zm-64-64v64h-64v-64h64zm83.739 0v64H345.5v-64h19.739zM153.5 111v64h-19.738v-64H153.5zm64-61.553V111h-64V63.837c10.366-9.847 24.6-18.173 42.187-23.838h12.314c2.293 3.358 5.366 6.641 9.5 9.448zm128.002 14.39L345.5 111h-64V50.253c4.827-2.975 8.228-6.569 10.63-10.254h11.192c17.584 5.666 31.816 13.991 42.18 23.837z" fill="#D32930"/><path d="M370 105.242v36.465c-1.72 7.74-4.094 18.404-5 28.113v-64.578c0-17.633-9.663-34.06-28.977-46.886-12.112-8.044-27.068-14.146-44.177-17.928a33.219 33.219 0 002.117-3.614C342.053 47.845 370 76.214 370 105.242zm-240 0c0-29.032 27.954-57.404 76.056-68.428.65 1.197 1.388 2.4 2.227 3.592-17.168 3.778-32.166 9.89-44.306 17.95C144.663 71.182 134 88.114 134 105.243v77.515c-.543-13.87-1.965-25.9-4-36.358v-41.157z" fill="#D32930" fill-rule="nonzero"/><path fill="#E3E3E3" d="M202.867 31.198h93.458v-13.2h-93.458z"/><path d="M307.852 23.345C302.08 20.105 298.124 18 295.844 18c0 0 5.881 32.495-46.335 32.495-48.52 0-46.336-32.495-46.336-32.495-2.28 0-6.235 2.105-12.002 5.345 0 0 7.368 40.38 58.402 40.38 51.479 0 58.279-35.895 58.279-40.38z" fill="#F2F2F2"/><path d="M413.584 238.323c-9.287 2.238-19.064 3.316-28.798 2.592-8.197-22.369-15.557-36.883-20.012-44.748v270.577s-21.102 6.71-55.867 11.11l-.544-.059c1.881-54.795 5.722-166.47 8.277-240.705 2.055-59.755 31.084-95.29 60.099-117.44-2.676 6.78-5.072 14.606-7 23.667 7.354 11.852 24.436 42.069 43.831 94.964l.014.042zM190.717 477.795c-34.248-4.401-56.477-11.05-56.477-11.05V196.171c-4.456 7.867-11.813 22.38-20.01 44.743-9.632.716-19.308-.332-28.51-2.523.005-.033.012-.065.02-.097 19.377-52.848 36.305-83.066 43.61-94.944-1.93-9.075-4.328-16.912-7.007-23.701 29.015 22.15 58.044 57.685 60.1 117.44 2.554 74.235 6.395 185.91 8.276 240.705h-.002z" fill-opacity=".06" fill="#000"/><g transform="translate(293 121.8)"><path d="M0 7c3 0 10-3 12-7h8c2 4 9 7 12 7 0 12-5.333 23.333-16 34C5.333 30.333 0 19 0 7z" fill="#E0B974"/><path d="M1.5 7.988c2.719 0 9.063-2.78 10.875-6.488h7.25c1.813 3.707 8.156 6.488 10.875 6.488C30.5 19.11 25.667 29.614 16 39.5 6.333 29.614 1.5 19.11 1.5 7.988z" fill="#FFF"/><path d="M19.606 35.517l-.126.222c1.547-2.718 2.582-5.201 3.108-7.45a45.356 45.356 0 002.714-.985c-1.553 2.781-3.451 5.52-5.696 8.213zM9.407 28.288c.511 2.184 1.502 4.589 2.975 7.214-2.24-2.688-4.134-5.42-5.682-8.198a43.81 43.81 0 002.707.984zM23 22.75l-.412 5.538A47.426 47.426 0 0116 28.75c-2.196 0-4.392-.154-6.588-.462L9 22.75c2.333.308 4.667.462 7 .462s4.667-.154 7-.462zm4.873-.897l-.26.064c-1.392.33-2.93.607-4.613.833.425-1.833.759-3.75 1-5.75a30.612 30.612 0 005.855-2.058 38.889 38.889 0 01-1.982 6.911zM24.5 11l-.5 6c-2.667.333-5.333.5-8 .5-2.664 0-5.329-.166-7.993-.5.24 2 .574 3.917 1 5.75-1.793-.24-3.42-.54-4.882-.898a39.002 39.002 0 01-1.981-6.915 30.517 30.517 0 005.855 2.061L7.5 11c2.833.333 5.667.5 8.5.5s5.667-.167 8.5-.5zm6-3.012c0 .564-.012 1.126-.037 1.687-1.793.554-3.78.995-5.963 1.325.295-1.77.475-3.337.54-4.7 2.055 1.06 4.167 1.688 5.46 1.688zM7.506 11c-2.185-.33-4.175-.772-5.97-1.327A39.516 39.516 0 011.5 7.988c1.294 0 3.41-.63 5.466-1.69.065 1.362.245 2.93.54 4.702zm12.119-9.5c.76 1.554 2.316 2.945 4.068 4.037L24 5.5a64.405 64.405 0 01-15.694.038c1.753-1.093 3.31-2.484 4.069-4.038h7.25z" fill="#E41D11"/><path fill="#E0B974" d="M12 .5h8l-2 38h-4z"/><path fill="#005EA9" d="M13 1.5h6l-2 37h-2z"/><circle fill="#E0B974" cx="16" cy="37" r="5.5"/></g></g></svg>