<?xml version="1.0" encoding="UTF-8"?><svg width="500" height="500" xmlns="http://www.w3.org/2000/svg"><g fill="none" fill-rule="evenodd"><path d="M0 0h500v500H0z"/><path fill="#C6C6C6" d="M203.003 109.223h93.643V21.928h-93.643z"/><path fill="#D1122C" d="M202.864 32.228h93.458v-14.2h-93.458z"/><path d="M87.548 75.258S46.785 148.058 29 203.029c4.445 13.376 45.208 40.86 85.232 37.886 13.34-36.4 24.46-52 24.46-52S141.655 93.83 87.548 75.26m323.925-.002s40.762 72.8 58.547 127.77c-4.445 13.376-45.208 40.86-85.232 37.886-13.34-36.4-24.46-52-24.46-52s-2.963-95.085 51.145-113.655" fill="#E81431"/><path d="M249.511 57.703c-50.082 0-47.798-39.47-48.742-39.14-7.516 2.618-24.133 14.936-52.439 25.495-31.873 11.885-52.626 19.315-60.782 31.2 11.114 8.915 46.694 28.97 46.694 120.345v271.14s49.658 14.855 114.885 14.855c68.929 0 115.648-14.855 115.648-14.855v-271.14c0-91.375 35.58-111.43 46.7-120.345-8.157-11.885-28.91-19.315-60.783-31.2-28.36-10.577-44.982-22.92-52.478-25.511-.927-.318 4.177 39.156-48.703 39.156z" fill="#E81431"/><path d="M75.025 117.298c10.132-20.75 17.944-35.245 17.944-35.245 7.882-11.885 27.937-19.315 58.747-31.2 19.136-7.385 32.8-15.609 41.775-20.781l-2.144-6.837c-9.25 5.163-23.298 13.338-43.023 20.693-31.868 11.89-52.62 19.315-60.772 31.2 0 0-8.232 14.76-18.858 35.825C49.557 149.176 36.326 179.867 29 203.027c.3 1.058 1.008 2.41 2.123 4.056 1.115 1.645 2.05 2.777 2.807 3.396 8.386-23.684 22.084-54.745 41.095-93.18zm349.023.024c-10.132-20.75-17.958-35.269-17.958-35.269-7.882-11.885-27.937-19.315-58.747-31.2-19.037-7.347-32.368-15.466-41.143-20.602l1.658-6.914c9.23 5.146 23.223 13.262 42.877 20.591 31.868 11.89 52.621 19.315 60.773 31.2 0 0 8.231 14.76 18.857 35.825 18.389 36.305 31.635 66.996 39.738 92.074-.491 1.317-.977 2.346-1.458 3.088-.48.741-1.275 1.804-2.384 3.188-18.428-43.992-32.499-74.652-42.213-91.98z" fill="#F2F2F2"/><path d="M467.353 195.129a338.826 338.826 0 012.667 7.9c-4.445 13.375-45.208 40.86-85.232 37.885a426.424 426.424 0 00-2.835-7.52c20.795-1.358 37.993-5.637 51.594-12.837 13.428-7.11 24.697-15.585 33.806-25.428zm-435.698.036c9.103 9.828 20.36 18.291 33.772 25.392 13.611 7.205 30.824 11.485 51.64 12.84a426.42 426.42 0 00-2.835 7.517c-40.024 2.975-80.787-24.51-85.232-37.885.836-2.585 1.723-5.21 2.655-7.864z" fill="#F2F2F2"/><path d="M307.852 23.345C302.08 20.105 298.124 18 295.844 18c0 0 5.881 32.495-46.335 32.495-48.52 0-46.336-32.495-46.336-32.495-2.28 0-6.235 2.105-12.002 5.345 0 0 7.368 40.38 58.402 40.38 51.479 0 58.279-35.895 58.279-40.38z" fill="#E81431"/><path d="M249.509 50.495c23.73 0 35.462-6.712 41.199-14.034l3.191.839c45.286 11.339 71.551 39.427 71.551 68.16v68.857c-.455 6.628-.7 13.712-.7 21.286v271.142s-43.162 13.71-107.735 14.788c-2.595.042-5.225.065-7.888.065-64.901 0-114.388-14.707-114.881-14.854l.004-361.284c0-28.451 25.751-56.27 70.222-67.817l5.219-1.327c6.037 7.379 17.622 14.179 39.818 14.179z" fill="#D8132E"/><path d="M209.407 35.85c5.954 7.514 17.552 14.535 40.105 14.535 23.7 0 35.431-6.694 41.176-14.006l5.834 1.532c-9.542 13.403-25.107 20.105-46.694 20.105-21.72 0-37.37-6.784-46.95-20.352l6.529-1.814z" fill="#F2F2F2"/><path d="M413.584 238.323c-9.287 2.238-19.064 3.316-28.798 2.592-8.197-22.369-15.557-36.883-20.012-44.748v270.577s-21.102 6.71-55.867 11.11l-.544-.059c1.881-54.795 5.722-166.47 8.277-240.705 2.055-59.755 31.084-95.29 60.099-117.44-2.676 6.78-5.072 14.606-7 23.667 7.354 11.852 24.436 42.069 43.831 94.964l.014.042zM190.717 477.795c-34.248-4.401-56.477-11.05-56.477-11.05V196.171c-4.456 7.867-11.813 22.38-20.01 44.743-9.632.716-19.308-.332-28.51-2.523.005-.033.012-.065.02-.097 19.377-52.848 36.305-83.066 43.61-94.944-1.93-9.075-4.328-16.912-7.007-23.701 29.015 22.15 58.044 57.685 60.1 117.44 2.554 74.235 6.395 185.91 8.276 240.705h-.002z" fill-opacity=".1" fill="#000"/><path fill="#FFF" d="M287 121h44v44h-44z"/><path fill="#D8132E" d="M289 123h40v40h-40z"/><path fill="#FFF" d="M313 128v11h11v8h-11v11h-8v-11h-11v-8h11v-11z"/></g></svg>