<?xml version="1.0" encoding="UTF-8"?><svg width="500" height="500" xmlns="http://www.w3.org/2000/svg"><g fill="none" fill-rule="evenodd"><path d="M0 0h500v500H0z"/><path fill="#99071C" d="M203.003 109.223h93.643V21.928h-93.643z"/><path fill="#AB0B22" d="M202.864 32.228h93.458v-14.2h-93.458z"/><path d="M87.548 75.258S46.785 148.058 29 203.029c4.445 13.376 45.208 40.86 85.232 37.886 13.34-36.4 24.46-52 24.46-52S141.655 93.83 87.548 75.26m323.925-.002s40.762 72.8 58.547 127.77c-4.445 13.376-45.208 40.86-85.232 37.886-13.34-36.4-24.46-52-24.46-52s-2.963-95.085 51.145-113.655" fill="#C40E28"/><path d="M249.511 57.703c-50.082 0-47.798-39.47-48.742-39.14-7.516 2.618-24.133 14.936-52.439 25.495-31.873 11.885-52.626 19.315-60.782 31.2 11.114 8.915 46.694 28.97 46.694 120.345v271.14s49.658 14.855 114.885 14.855c68.929 0 115.648-14.855 115.648-14.855v-271.14c0-91.375 35.58-111.43 46.7-120.345-8.157-11.885-28.91-19.315-60.783-31.2-28.36-10.577-44.982-22.92-52.478-25.511-.927-.318 4.177 39.156-48.703 39.156z" fill="#C40E28"/><path d="M174.404 32.4c6.756-3.393 12.314-6.526 16.77-9.029l2.137 6.631c-8.9 5.143-22.457 13.326-41.595 20.711-30.81 11.885-50.865 19.315-58.747 31.2 0 0-7.812 14.495-17.944 35.245l-6.308-6.322c10.64-21.092 18.83-35.72 18.83-35.72 8.157-11.885 28.91-19.315 60.783-31.2 10.156-3.789 18.808-7.803 26.074-11.516zm150.102-.056c7.29 3.728 15.977 7.764 26.185 11.572 31.873 11.885 52.626 19.315 60.783 31.2 0 0 8.19 14.628 18.83 35.72l-6.308 6.322c-10.132-20.75-17.944-35.245-17.944-35.245-7.882-11.885-27.937-19.315-58.747-31.2-18.71-7.22-32.085-15.202-40.991-20.361l1.54-6.98c4.433 2.488 9.949 5.6 16.652 8.972z" fill="#F2F2F2"/><path d="M307.852 23.345C302.08 20.105 298.124 18 295.844 18c0 0 5.881 32.495-46.335 32.495-48.52 0-46.336-32.495-46.336-32.495-2.28 0-6.235 2.105-12.002 5.345 0 0 7.368 40.38 58.402 40.38 51.479 0 58.279-35.895 58.279-40.38z" fill="#C40E28"/><path d="M249.509 50.495c23.73 0 35.462-6.712 41.199-14.034l3.191.839c45.286 11.339 71.551 39.427 71.551 68.16v68.857c-.455 6.628-.7 13.712-.7 21.286v271.142s-43.162 13.71-107.735 14.788c-2.595.042-5.225.065-7.888.065-64.901 0-114.388-14.707-114.881-14.854l.004-361.284c0-28.451 25.751-56.27 70.222-67.817l5.219-1.327c6.037 7.379 17.622 14.179 39.818 14.179z" fill="#D91427"/><path d="M413.584 238.323c-9.287 2.238-19.064 3.316-28.798 2.592-8.197-22.369-15.557-36.883-20.012-44.748v270.577s-21.102 6.71-55.867 11.11l-.544-.059c1.881-54.795 5.722-166.47 8.277-240.705 2.055-59.755 31.084-95.29 60.099-117.44-2.676 6.78-5.072 14.606-7 23.667 7.354 11.852 24.436 42.069 43.831 94.964l.014.042zM190.717 477.795c-34.248-4.401-56.477-11.05-56.477-11.05V196.171c-4.456 7.867-11.813 22.38-20.01 44.743-9.632.716-19.308-.332-28.51-2.523.005-.033.012-.065.02-.097 19.377-52.848 36.305-83.066 43.61-94.944-1.93-9.075-4.328-16.912-7.007-23.701 29.015 22.15 58.044 57.685 60.1 117.44 2.554 74.235 6.395 185.91 8.276 240.705h-.002z" fill-opacity=".1" fill="#000"/><path d="M308.726 161.583c-3.945 0-6.734-.344-7.891-1.069-.8-.5-.075-1.954 2.173-4.362-1.218.987-2.19 1.362-2.917 1.125-1.12-.365-1.173-1.925-1.162-2.066-.548.887-1.065 1.576-1.55 2.066-.73.735-1.416 1.192-2.052.957-.726-.268-1.016-.84-1.075-1.462-.017-.174.193-1.151.629-2.931-.554.596-1.053 1.053-1.498 1.37-.667.476-1.174.686-1.68.357-.424-.276-.687-.761-.566-1.559.08-.532.606-2.243 1.579-5.134-1.169 1.23-2.187 1.95-2.712 2.064-.524.113-.958.149-1.394-.237-.482-.426-.57-1.06-.317-1.767.252-.707 1.29-2.618 3.001-5.764-1.718.834-2.639 1.262-2.761 1.283-1 .172-2.307-.332-1.996-1.733.208-.933 1.878-2.745 5.01-5.435-1.651.018-2.63.018-2.937 0-.922-.052-1.527-.836-.922-1.861.403-.683 2.188-1.727 5.355-3.133-.494-.156-.81-.283-.948-.38-.865-.609-.946-1.857-.075-2.548.87-.692 5.017-3.244 10.285-2.957 1.01.078 1.753.545 2.11 1.36-.16-2.424.376-3.679 1.604-3.763l5.25-.004c1.324 0 1.904 1.256 1.739 3.768.357-.816 1.099-1.283 2.11-1.361 5.636-.307 9.622 2.43 10.285 2.957.87.691.79 1.94-.075 2.548-.138.097-.454.224-.949.38 3.17 1.588 4.954 2.632 5.356 3.133.602.752 0 1.809-.922 1.861-.921.053-1.818.03-2.938 0l3.756 3.293c.912.814 1.178 1.185 1.254 2.142.108 1.34-.995 1.905-1.995 1.733-.219-.038-1.14-.465-2.761-1.283 1.84 3.35 2.841 5.271 3 5.764.232.713.165 1.341-.316 1.767-.516.456-1.027.323-1.69.17-.442-.102-1.248-.768-2.416-1.997.973 2.898 1.5 4.61 1.579 5.134.12.787-.142 1.283-.567 1.56-.506.328-1.012.118-1.68-.358-.445-.317-.944-.774-1.497-1.37.517 1.406.726 2.384.629 2.931-.146.822-.349 1.194-1.075 1.462-.637.235-1.323-.222-2.052-.957-.485-.49-1.002-1.179-1.55-2.066-.099 1.157-.486 1.846-1.162 2.066-.727.237-1.7-.138-2.917-1.125 2.097 2.474 2.821 3.928 2.173 4.362-1.09.729-3.916 1.069-7.862 1.069z" fill="#FFF" fill-rule="nonzero"/><path d="M308.45 125.935h.242c2.029-.525 2.969 0 2.821 1.578 0 1.772-.982 3.47-1.197 5.401-.25 2.248.896 4.274 2.098 5.005 2.42.364 7.253-1.98 4.389-6.15-1.338-1.946-2.533-1.505-2.533-2.743 0-.874.365-1.078.937-1.122 2.571-.044 5.693.567 7.369 1.42.685.348 1.316.755 1.894 1.214.615.489-5.095.632-4.595 1.232s8.211 3.555 8.462 4.2c.34.872-6.968-1.77-6.76-.809.206.958 7.731 6.655 7.813 7.68.079.983-5.991-3.43-6.33-2.676-.44.977 5.375 8.869 4.76 9.413-.615.544-6.216-7.17-6.714-6.737-.498.434 4.284 11.152 3.796 11.47-.488.317-6.729-10.65-7.108-10.304-.74.678 4.7 12.481 3.783 12.82-.918.339-6.39-11.781-6.756-11.436-.946-.368 3.133 10.661 1.982 10.661-1.152 0-3.286-9.25-5.059-9.883-.854-.305-.891 5.17.334 9.142.088.286 3.641 4.438 3.743 4.694-3.271-1.964-4.895-2.86-4.87-2.687.074.548 1.58 1.448 1.463 1.687-.05.1-2.28-.895-2.35-.806-.153.191 1.873 1.632 1.622 1.77-.337.186-1.367.095-1.881.186-.49.087-.457.36-1.109.36-.577 0-.66-.292-1.113-.36-.468-.07-1.3.08-1.633-.063-.218-.094 1.72-1.768 1.56-1.893-.178-.14-2.383.985-2.489.806-.162-.27 1.326-1.012 1.416-1.687.02-.15-1.48.746-4.497 2.687.118-.284 3.266-4.467 3.367-4.786 1.27-4.006 1.207-9.359.341-9.05-1.772.634-3.906 9.883-5.058 9.883-1.152 0 2.928-11.03 1.982-10.661-.366-.345-5.838 11.775-6.756 11.436-.918-.339 4.523-12.142 3.782-12.82-.378-.347-6.619 10.621-7.107 10.303-.489-.317 4.294-11.035 3.796-11.469-.499-.434-6.099 7.28-6.714 6.737-.615-.544 5.2-8.436 4.76-9.413-.34-.754-6.41 3.659-6.33 2.676.082-1.025 7.607-6.722 7.813-7.68.207-.962-7.1 1.681-6.76.808.25-.644 7.962-3.6 8.462-4.2.5-.6-5.21-.742-4.595-1.23.578-.46 1.209-.867 1.894-1.215 1.675-.853 4.625-1.454 7.26-1.426.633.028 1.045.2 1.045 1.128 0 1.238-1.195.797-2.532 2.744-2.864 4.17 1.968 6.513 4.389 6.149 1.202-.73 2.046-2.136 2.531-4.218.388-1.663-.05-4.675-1.862-4.675-.67-.698 2.266.086 2.266-.58 0-.505-1.12-.94-1.709-.94-.587 0-.854.396-.557-.137.813-.23 2.224-1.434 2.802-1.434h.242-.242z" fill="#1E1E1E"/><path d="M308.692 149.935a4.405 4.405 0 004.405-4.405v-7.595h-8.81v7.595a4.405 4.405 0 004.405 4.405z" fill="#1E1E1E"/><path d="M308.692 148.935a3.671 3.671 0 003.67-3.67v-6.33h-7.341v6.33a3.671 3.671 0 003.67 3.67z" fill="#FF2C2C"/><path fill="#FFF" d="M312.362 141.635v3.5h-7.341v-3.5z"/><path d="M309.861 124.635v.658h.692v-.658h.96c-.095.311-.148.782-.159 1.414l-.001.244h-4c0-.756-.054-1.308-.161-1.658h.96v.658h.692v-.658h1.017z" fill="#F2C84C"/></g></svg>