<?xml version="1.0" encoding="UTF-8"?><svg width="500" height="500" viewBox="0 0 500 500" fill="none" xmlns="http://www.w3.org/2000/svg"><path fill-rule="evenodd" clip-rule="evenodd" d="M203.003 109.223h93.643V21.928h-93.643v87.295z" fill="#DBA600"/><path fill-rule="evenodd" clip-rule="evenodd" d="M202.864 32.228h93.458v-14.2h-93.458v14.2z" fill="#116E39"/><path fill-rule="evenodd" clip-rule="evenodd" d="M87.5475 75.2585S46.7848 148.059 29 203.029c4.4449 13.375 45.2077 40.86 85.232 37.885 13.34-36.4 24.46-52 24.46-52s2.963-95.0855-51.1445-113.6555zm323.9255 0s40.762 72.8005 58.547 127.7705c-4.445 13.375-45.208 40.86-85.232 37.885-13.34-36.4-24.46-52-24.46-52s-2.963-95.0855 51.145-113.6555z" fill="#FBC002"/><path fill-rule="evenodd" clip-rule="evenodd" d="M249.511 57.7025c-50.082 0-47.798-39.4691-48.742-39.14-7.516 2.6187-24.133 14.9368-52.439 25.495-31.873 11.885-52.6259 19.315-60.7825 31.2 11.1149 8.915 46.6945 28.9695 46.6945 120.3445v271.14s49.658 14.856 114.885 14.856c68.929 0 115.648-14.856 115.648-14.856v-271.14c0-91.375 35.58-111.4295 46.7-120.3445-8.157-11.885-28.91-19.315-60.783-31.2-28.36-10.5767-44.982-22.9195-52.478-25.5087-.927-.3203 4.177 39.1537-48.703 39.1537z" fill="#FBC002"/><path fill-rule="evenodd" clip-rule="evenodd" d="M467.353 195.129c.936 2.667 1.827 5.303 2.667 7.899-4.445 13.375-45.207 40.86-85.232 37.885-.958-2.613-1.904-5.119-2.835-7.519 20.795-1.358 37.993-5.637 51.594-12.837 13.428-7.109 24.697-15.585 33.806-25.428zm-435.6983.036c9.1031 9.828 20.3606 18.291 33.7724 25.392 13.6109 7.205 30.8241 11.485 51.6389 12.84-.931 2.399-1.877 4.904-2.834 7.517-40.0243 2.975-80.7871-24.51-85.232-37.885.8363-2.585 1.7234-5.21 2.6547-7.864zM307.852 23.345C302.08 20.105 298.124 18 295.844 18c0 0 5.881 32.495-46.335 32.495-48.521 0-46.336-32.495-46.336-32.495-2.279 0-6.235 2.105-12.002 5.345 0 0 7.368 40.38 58.402 40.38 51.479 0 58.279-35.895 58.279-40.38z" fill="#148B47"/><path fill-rule="evenodd" clip-rule="evenodd" d="M413.584 238.323c-9.287 2.238-19.064 3.316-28.798 2.592-8.197-22.369-15.557-36.883-20.012-44.748v270.577s-21.102 6.71-55.867 11.111l-.544-.06c1.881-54.795 5.722-166.47 8.277-240.705 2.055-59.755 31.084-95.29 60.099-117.44-2.676 6.781-5.072 14.606-7 23.667 7.354 11.852 24.436 42.069 43.831 94.964.005.014.01.028.014.042zM190.717 477.795c-34.248-4.401-56.477-11.051-56.477-11.051V196.172c-4.456 7.867-11.813 22.379-20.009 44.743-9.633.716-19.3091-.332-28.511-2.523.0051-.032.0117-.065.0199-.097 19.3771-52.848 36.3051-83.066 43.6101-94.944-1.929-9.075-4.328-16.912-7.007-23.701 29.015 22.15 58.044 57.685 60.099 117.44 2.555 74.235 6.396 185.91 8.277 240.705h-.002z" fill="#000" fill-opacity=".06"/><path fill-rule="evenodd" clip-rule="evenodd" d="M309.552 120.007c10.748.291 10.564 9.013 20.448 9.013-1.451 0-1.97 6.467-1.981 10.232v15.813c0 16.757-18.595 11.166-19.016 17.935-.427-6.769-19.022-1.178-19.022-17.935v-15.813c-.011-3.765-.53-10.232-1.981-10.232 9.884 0 9.7-8.722 20.448-9.013l.548-.007.556.007z" fill="#1A4E8E"/><path fill-rule="evenodd" clip-rule="evenodd" d="M309.436 122.007c9.816.266 9.537 8.076 18.564 8.076-1.325 0-1.688 6.106-1.697 9.555l-.001 14.488c0 15.352-16.914 10.18-17.302 15.874-.501-5.491-17.438-.522-17.438-15.874l-.001-14.488c-.009-3.449-.236-9.555-1.561-9.555 9.027 0 8.612-7.81 18.428-8.076l.5-.007.508.007z" fill="#FFD74C"/><path fill-rule="evenodd" clip-rule="evenodd" d="M294.314 145.999L305.5 146l.001 18.999c-4.347-1.179-11.186-1.945-11.186-11.14l-.001-7.86zm29.256 0v7.906c0 9.187-6.757 9.915-11.07 11.094V146l11.07-.001zM325 132.41c-.793 0-1.176 4.822-1.335 7.59H312.5l.001-14.486c5.231 1.678 6.01 6.896 12.499 6.896zm-19.501-6.931L305.5 140h-11.256c-.126-2.768-.451-7.59-1.244-7.59 6.534 0 7.193-5.29 12.499-6.931z" fill="#1A4E8E"/><path fill-rule="evenodd" clip-rule="evenodd" d="M308.94 125l.427.006c.397.012.775.04 1.134.082L310.5 141.5h13.099c-.018.597-.027 1.163-.028 1.668l-.001 1.332H310.5l-.001 20.853s-1.499.689-1.499.962c0-.272-1.5-.869-1.5-.869v-20.947h-13.186l.001-1.331c-.001-.505-.007-1.072-.021-1.669H307.5l-.002-16.424c.325-.035.665-.058 1.02-.069l.422-.006z" fill="#008657"/><path fill="#F0F0F0" d="M301 135h16v16h-16z"/><path fill-rule="evenodd" clip-rule="evenodd" d="M309 116.75l-1.469.773.28-1.637-1.189-1.159 1.643-.238L309 113l.735 1.489 1.643.238-1.189 1.159.28 1.637-1.469-.773zm16.5 6l-1.469.773.28-1.637-1.189-1.159 1.643-.238.735-1.489.735 1.489 1.643.238-1.189 1.159.28 1.637-1.469-.773zm-33 0l-1.469.773.28-1.637-1.189-1.159 1.643-.238.735-1.489.735 1.489 1.643.238-1.189 1.159.28 1.637-1.469-.773zm8.25-4l-1.469.773.28-1.637-1.189-1.159 1.643-.238.735-1.489.735 1.489 1.643.238-1.189 1.159.28 1.637-1.469-.773zm16.5 0l-1.469.773.28-1.637-1.189-1.159 1.643-.238.735-1.489.735 1.489 1.643.238-1.189 1.159.28 1.637-1.469-.773z" fill="#008657"/></svg>