<?xml version="1.0" encoding="UTF-8"?><svg width="500" height="500" viewBox="0 0 500 500" fill="none" xmlns="http://www.w3.org/2000/svg"><path fill-rule="evenodd" clip-rule="evenodd" d="M203.003 109.223h93.644V21.9282h-93.644v87.2948z" fill="#DACB49"/><path fill-rule="evenodd" clip-rule="evenodd" d="M202.864 32.2278h93.458v-14.2h-93.458v14.2z" fill="#26874D"/><path fill-rule="evenodd" clip-rule="evenodd" d="M87.5475 75.2583S46.7848 148.058 29 203.028c4.4449 13.375 45.2077 40.86 85.232 37.885 13.34-36.4 24.46-52 24.46-52s2.963-95.0847-51.1445-113.6547zm323.9245 0s40.763 72.7997 58.548 127.7697c-4.445 13.375-45.208 40.86-85.232 37.885-13.34-36.4-24.46-52-24.46-52s-2.963-95.0847 51.144-113.6547z" fill="#ECDC4C"/><path fill-rule="evenodd" clip-rule="evenodd" d="M249.511 57.7025c-50.082 0-47.798-39.4691-48.743-39.14-7.516 2.6187-24.132 14.9368-52.438 25.495-31.873 11.885-52.6261 19.315-60.7826 31.2 11.1148 8.915 46.6946 28.9695 46.6946 120.3445v271.14s49.657 14.856 114.885 14.856c68.929 0 115.648-14.856 115.648-14.856v-271.14c0-91.375 35.58-111.4295 46.699-120.3445-8.156-11.885-28.909-19.315-60.782-31.2-28.36-10.5767-44.982-22.9195-52.478-25.5087-.927-.3203 4.177 39.1537-48.703 39.1537z" fill="#ECDC4C"/><path fill-rule="evenodd" clip-rule="evenodd" d="M307.851 23.345c-5.772-3.24-9.728-5.345-12.007-5.345 0 0 5.881 32.495-46.336 32.495-48.52 0-46.335-32.495-46.335-32.495-2.28 0-6.236 2.105-12.003 5.345 0 0 7.369 40.38 58.403 40.38 51.479 0 58.278-35.895 58.278-40.38z" fill="#2B9957"/><path fill-rule="evenodd" clip-rule="evenodd" d="M413.584 238.323c-9.287 2.238-19.064 3.316-28.797 2.592-8.198-22.369-15.558-36.883-20.013-44.748v270.577s-21.102 6.71-55.866 11.111l-.544-.06c1.88-54.795 5.722-166.47 8.276-240.705 2.055-59.755 31.085-95.29 60.099-117.44-2.675 6.781-5.072 14.606-6.999 23.667 7.354 11.852 24.435 42.069 43.83 94.964.005.014.01.028.014.042zM190.717 477.795c-34.248-4.401-56.476-11.051-56.476-11.051V196.172c-4.456 7.867-11.814 22.379-20.01 44.743-9.633.716-19.3089-.332-28.5108-2.524a1.056 1.056 0 01.0199-.096c19.3769-52.848 36.3059-83.066 43.6099-94.944-1.929-9.075-4.328-16.912-7.006-23.701 29.014 22.15 58.043 57.685 60.099 117.44 2.554 74.235 6.395 185.91 8.276 240.705h-.002z" fill="#000" fill-opacity=".06"/><path d="M308.645 166s-30.434-25.454-19.738-44.5h39.475c10.696 19.046-19.737 44.5-19.737 44.5z" fill="#3D3D3D"/><path d="M308.645 163s-27.015-23.926-18.408-39.057h36.815C335.659 139.074 308.645 163 308.645 163z" fill="#3AA758"/><path d="M328.74 131c-.065 2.611-.757 5.317-1.847 8h-36.497c-1.09-2.683-1.781-5.389-1.847-8h40.191zm-12.32 24h-15.552c-2.035-2.347-4.201-5.076-6.141-8h27.835c-1.94 2.924-4.106 5.653-6.142 8z" fill="#F3E24E"/><path d="M309 123.943V147h-14.273c-4.941-7.449-8.41-16.165-4.49-23.057H309z" fill="#C84343"/><path fill-rule="evenodd" clip-rule="evenodd" d="M309.083 150.167c5.569 0 10.084-4.515 10.084-10.084S314.652 130 309.083 130 299 134.514 299 140.083s4.514 10.084 10.083 10.084z" fill="#F2F2F2"/><path d="M309.071 137.562l-2.509 1.639 1.009 3.403h3.025l1.008-3.403-2.533-1.639z" fill="#282828"/><path fill-rule="evenodd" clip-rule="evenodd" d="M309.083 150.167c5.569 0 10.084-4.515 10.084-10.084S314.652 130 309.083 130 299 134.514 299 140.083s4.514 10.084 10.083 10.084zm8.963-10.084c0 1.887-.582 3.637-1.578 5.081l-.488-1.363-2.146 1.023-1.036 2.158 1.39.47c-1.449 1.005-3.208 1.594-5.105 1.594-1.894 0-3.651-.587-5.099-1.591l1.384-.473-1.035-2.158-2.146-1.023-.477 1.38c-1.002-1.447-1.59-3.204-1.59-5.098 0-.685.077-1.352.223-1.993l.78 1.176 1.807-1.543.442-2.353-1.744-.263c1.334-1.996 3.449-3.426 5.908-3.854l-.694 1.668 2.259.794 2.241-.794-.675-1.661c2.443.435 4.544 1.861 5.872 3.848l-1.997.262.442 2.353 1.807 1.543 1.037-1.156c.143.635.218 1.295.218 1.973z" fill="#282828"/></svg>