<?xml version="1.0" encoding="UTF-8"?><svg width="500" height="500" xmlns="http://www.w3.org/2000/svg"><g fill="none" fill-rule="evenodd"><path d="M0 0h500v500H0z"/><path fill="#BDC6C7" d="M203.003 109.223h93.643V21.928h-93.643z"/><path fill="#DBE8E9" d="M202.864 32.228h93.458v-14.2h-93.458z"/><path d="M87.548 75.258S46.785 148.058 29 203.029c4.445 13.376 45.208 40.86 85.232 37.886 13.34-36.4 24.46-52 24.46-52S141.655 93.83 87.548 75.26m323.925-.002s40.762 72.8 58.547 127.77c-4.445 13.376-45.208 40.86-85.232 37.886-13.34-36.4-24.46-52-24.46-52s-2.963-95.085 51.145-113.655" fill="#1770C6"/><path d="M249.511 57.703c-50.082 0-47.798-39.47-48.742-39.14-7.516 2.618-24.133 14.936-52.439 25.495-31.873 11.885-52.626 19.315-60.782 31.2 11.114 8.915 46.694 28.97 46.694 120.345v271.14s49.658 14.855 114.885 14.855c68.929 0 115.648-14.855 115.648-14.855v-271.14c0-91.375 35.58-111.43 46.7-120.345-8.157-11.885-28.91-19.315-60.783-31.2-28.36-10.577-44.982-22.92-52.478-25.511-.927-.318 4.177 39.156-48.703 39.156z" fill="#1770C6"/><path d="M307.852 23.345C302.08 20.105 298.124 18 295.844 18c0 0 5.881 32.495-46.335 32.495-48.52 0-46.336-32.495-46.336-32.495-2.28 0-6.235 2.105-12.002 5.345 0 0 7.368 40.38 58.402 40.38 51.479 0 58.279-35.895 58.279-40.38z" fill="#1770C6"/><path d="M249.509 50.495c23.73 0 35.462-6.712 41.199-14.034l3.191.839c45.286 11.339 71.551 39.427 71.551 68.16v68.857c-.455 6.628-.7 13.712-.7 21.286v271.142s-43.162 13.71-107.735 14.788c-2.595.042-5.225.065-7.888.065-64.901 0-114.388-14.707-114.881-14.854l.004-361.284c0-28.451 25.751-56.27 70.222-67.817l5.219-1.327c6.037 7.379 17.622 14.179 39.818 14.179z" fill="#434E7B"/><path d="M413.584 238.323c-9.287 2.238-19.064 3.316-28.798 2.592-8.197-22.369-15.557-36.883-20.012-44.748v270.577s-21.102 6.71-55.867 11.11l-.544-.059c1.881-54.795 5.722-166.47 8.277-240.705 2.055-59.755 31.084-95.29 60.099-117.44-2.676 6.78-5.072 14.606-7 23.667 7.354 11.852 24.436 42.069 43.831 94.964l.014.042zM190.717 477.795c-34.248-4.401-56.477-11.05-56.477-11.05V196.171c-4.456 7.867-11.813 22.38-20.01 44.743-9.632.716-19.308-.332-28.51-2.523.005-.033.012-.065.02-.097 19.377-52.848 36.305-83.066 43.61-94.944-1.93-9.075-4.328-16.912-7.007-23.701 29.015 22.15 58.044 57.685 60.1 117.44 2.554 74.235 6.395 185.91 8.276 240.705h-.002z" fill-opacity=".1" fill="#000"/><path d="M310.164 159.158h-3.788v-2.572a19.49 19.49 0 003.788.462v2.11zm12.65-11.194a8.931 8.931 0 00-8.93-8.93c-3.417 0-6.35 1.942-7.849 4.758-1.778-.461-3.129-1.48-2.6-3.6a4.732 4.732 0 001.37-3.321c0-2.61-2.115-4.72-4.72-4.72-2.61 0-4.72 2.11-4.72 4.72 0 0-2.206 14.4 8.3 18.87v3.417h-5.409a1.353 1.353 0 100 2.706h17.865a1.353 1.353 0 000-2.706h-3.251v-2.22c.35-.03.649-.006 1.014-.044a8.931 8.931 0 008.93-8.93zm-9.647-19.214l-1.47.773.28-1.637-1.188-1.159 1.643-.238.735-1.489.734 1.489 1.643.238-1.189 1.16.281 1.636zm-8.334 0l-1.47.773.282-1.637-1.19-1.159 1.644-.238.734-1.489.735 1.489 1.643.238-1.189 1.16.28 1.636z" fill="#EDF8F9"/></g></svg>