<?xml version="1.0" encoding="UTF-8"?><svg width="500" height="500" xmlns="http://www.w3.org/2000/svg"><g fill="none" fill-rule="evenodd"><path d="M0 0h500v500H0z"/><path fill="#750E14" d="M203.003 109.223h93.643V21.928h-93.643z"/><path fill="#D6A05A" d="M202.864 32.228h93.458v-14.2h-93.458z"/><path d="M87.548 75.258S46.785 148.058 29 203.029c4.445 13.376 45.208 40.86 85.232 37.886 13.34-36.4 24.46-52 24.46-52S141.655 93.83 87.548 75.26m323.925-.002s40.762 72.8 58.547 127.77c-4.445 13.376-45.208 40.86-85.232 37.886-13.34-36.4-24.46-52-24.46-52s-2.963-95.085 51.145-113.655" fill="#B51821"/><path d="M249.511 57.703c-50.082 0-47.798-39.47-48.742-39.14-7.516 2.618-24.133 14.936-52.439 25.495-31.873 11.885-52.626 19.315-60.782 31.2 11.114 8.915 46.694 28.97 46.694 120.345v271.14s49.658 14.855 114.885 14.855c68.929 0 115.648-14.855 115.648-14.855v-271.14c0-91.375 35.58-111.43 46.7-120.345-8.157-11.885-28.91-19.315-60.783-31.2-28.36-10.577-44.982-22.92-52.478-25.511-.927-.318 4.177 39.156-48.703 39.156z" fill="#B51821"/><path d="M202.215 24.577l1.749 3.198c-9.027 4.858-24.145 14.369-46.657 22.766-31.873 11.885-52.626 19.315-60.78 31.201-.003 0-11.08 19.783-24.205 46.512a52.893 52.893 0 01-3.11-2.238c13.177-26.854 24.322-46.757 24.322-46.757h.002c8.155-11.886 28.908-19.316 60.78-31.201 19.604-7.313 33.602-15.47 42.852-20.663-.008-.033-.01-.05-.01-.05a189.648 189.648 0 015.057-2.768z" fill="#F7BA6B"/><path d="M203.173 18s-.082 1.229.141 3.208c-7.716 2.93-24.233 14.978-51.994 25.333-31.873 11.885-52.626 19.315-60.78 31.201h-.002S79.46 97.525 66.335 124.254a52.82 52.82 0 01-3.11-2.238c13.178-26.854 24.323-46.758 24.323-46.758l.002.001c8.154-11.887 28.907-19.317 60.78-31.202 19.604-7.312 33.601-15.468 42.851-20.662a1.24 1.24 0 01-.01-.05c5.767-3.24 9.723-5.345 12.002-5.345zm95.92 7.807c.87.478 1.79.992 2.763 1.538l-.01.05c9.25 5.194 23.247 13.35 42.85 20.663 31.874 11.885 52.627 19.315 60.781 31.201h.002s11.145 19.903 24.323 46.757a52.819 52.819 0 01-3.11 2.238c-13.125-26.729-24.203-46.512-24.203-46.512h-.002c-8.155-11.886-28.908-19.316-60.78-31.201-20.712-7.726-35.165-16.394-44.374-21.514l1.76-3.22z" fill="#F7BA6B"/><path d="M307.843 23.345l-.011.05c9.25 5.194 23.247 13.35 42.851 20.663 31.873 11.885 52.626 19.315 60.78 31.201.003 0 11.147 19.903 24.325 46.757a52.819 52.819 0 01-3.11 2.238c-13.125-26.729-24.203-46.512-24.203-46.512-8.156-11.886-28.91-19.316-60.782-31.201-18.28-6.819-31.685-14.371-40.912-19.571l1.062-3.625z" fill="#F7BA6B"/><path d="M307.852 23.345C302.08 20.105 298.124 18 295.844 18c0 0 5.881 32.495-46.335 32.495-48.52 0-46.336-32.495-46.336-32.495-2.28 0-6.235 2.105-12.002 5.345 0 0 7.368 40.38 58.402 40.38 51.479 0 58.279-35.895 58.279-40.38z" fill="#F7BA6B"/><path d="M413.584 238.323c-9.287 2.238-19.064 3.316-28.798 2.592-8.197-22.369-15.557-36.883-20.012-44.748v270.577s-21.102 6.71-55.867 11.11l-.544-.059c1.881-54.795 5.722-166.47 8.277-240.705 2.055-59.755 31.084-95.29 60.099-117.44-2.676 6.78-5.072 14.606-7 23.667 7.354 11.852 24.436 42.069 43.831 94.964l.014.042zM190.717 477.795c-34.248-4.401-56.477-11.05-56.477-11.05V196.171c-4.456 7.867-11.813 22.38-20.01 44.743-9.632.716-19.308-.332-28.51-2.523.005-.033.012-.065.02-.097 19.377-52.848 36.305-83.066 43.61-94.944-1.93-9.075-4.328-16.912-7.007-23.701 29.015 22.15 58.044 57.685 60.1 117.44 2.554 74.235 6.395 185.91 8.276 240.705h-.002z" fill-opacity=".1" fill="#000"/><path d="M287.2 155.4v-.137l.02-.136c1.695-11.036.872-24.197-2.122-28.736l-1.037-1.57 1.616-.966c4.368-2.61 11.841-3.855 22.528-3.855l.708.002c10.3.055 17.538 1.301 21.81 3.853l1.616.965-1.037 1.571c-2.994 4.539-3.817 17.7-2.123 28.736l.021.136v.137c0 14.447-4.593 20.73-20.708 23.376l-.292.048-.292-.048c-16.115-2.646-20.708-8.929-20.708-23.376z" fill="#FCB601" fill-rule="nonzero"/><path d="M289 155.4c1.57-10.23 1.2-24.544-2.4-30 4.018-2.4 11.218-3.6 21.6-3.6l.703.002c10.005.053 16.97 1.253 20.897 3.598-3.6 5.456-3.97 19.77-2.4 30 0 11.284-2.077 18.789-19.2 21.6-17.123-2.811-19.2-10.316-19.2-21.6z" fill="#B51821"/><path d="M308 170c7.18 0 13-5.427 13-12.121V138h-26v19.879c0 6.694 5.82 12.121 13 12.121z" fill="#FCB601"/><path fill="#FCB601" fill-rule="nonzero" d="M310.032 114.577l1.115 3.623-2.955-2.217-2.956 2.217 1.117-3.623-3.181-2.281 3.883.007 1.137-3.703 1.137 3.703 3.88-.007z"/><g transform="translate(300 124)"><path d="M.6 8.619C-.47 6.566 1.063 3.92 8.4 3.92v5.723c-4.486.686-7.086.344-7.8-1.024zm7.8 1.024V3.92c7.34 0 8.871 2.646 7.8 4.699-.712 1.368-3.312 1.71-7.8 1.024z" fill="#A7191E"/><path d="M.6 8.619c1.95-.757 4.55-1.135 7.8-1.135s5.85.378 7.8 1.135l-1.667 3.183c-1.92-.815-3.964-1.222-6.131-1.222-2.167 0-4.207.407-6.122 1.222L.6 8.62z" fill="#FEBF06"/><path d="M8.4 9.643c2.173-.004 4.36.443 6.561 1.34l-.428.82c-1.92-.816-3.964-1.223-6.131-1.223-2.167 0-4.207.407-6.122 1.222l-.417-.79c2.187-.908 4.366-1.364 6.538-1.369z" fill="#E9AE03"/><path d="M1.057 8.192C.35 5.237 1.332 3.622 4.08 3.15c.094-.016.412-.032.953-.048.294-.373.436-.586.425-.64-.041-.216-1.3-.13-1.528-.09-3.244.556-4.5 2.62-3.694 5.994a.421.421 0 00.503.3.396.396 0 00.317-.474zm14.639 0c.74-2.955-.288-4.57-3.162-5.042a58.005 58.005 0 00-.723-.1c-.332-.295-.488-.49-.468-.586.043-.215 1.11-.132 1.348-.093 3.392.557 4.706 2.621 3.862 5.995-.054.213-.289.347-.525.3-.237-.049-.385-.26-.332-.474z" fill="#FEBF06" fill-rule="nonzero"/><path d="M12.167 8.461c.873-3.708-.34-5.735-3.73-6.327a.499.499 0 01-.418-.578.517.517 0 01.603-.4c4.002.7 5.552 3.29 4.556 7.524a.519.519 0 01-.62.376.497.497 0 01-.39-.595z" fill="#FEBF06" fill-rule="nonzero"/><path d="M4.635 8.461c-.873-3.708.34-5.735 3.73-6.327a.499.499 0 00.417-.578.517.517 0 00-.602-.4c-4.002.7-5.552 3.29-4.556 7.524.063.268.34.436.62.376a.497.497 0 00.39-.595z" fill="#FEBF06" fill-rule="nonzero"/><path d="M8.986 8.369V2c0-.368.065-.92.195-1.658C9.18.153 8.724 0 8.4 0s-.78.154-.78.343c.13.757.195 1.325.195 1.704v6.322c0 .19.262.343.585.343.323 0 .585-.154.585-.343z" fill="#FEBF06" fill-rule="nonzero"/><circle fill="#D8D8D8" cx=".609" cy="8.326" r="1"/><circle fill="#D8D8D8" cx="8.401" cy="7.496" r="1"/><circle fill="#D8D8D8" cx="3.991" cy="7.726" r="1"/><circle fill="#D8D8D8" cx="12.827" cy="7.726" r="1"/><circle fill="#D8D8D8" cx="16.201" cy="8.326" r="1"/></g></g></svg>