<?xml version="1.0" encoding="UTF-8"?><svg width="500" height="500" xmlns="http://www.w3.org/2000/svg"><g fill="none" fill-rule="evenodd"><path d="M0 0h500v500H0z"/><path fill="#CCB200" d="M203.003 109.223h93.643V21.928h-93.643z"/><path fill="#254F8F" d="M202.864 32.228h93.458v-14.2h-93.458z"/><path d="M87.548 75.258S46.785 148.058 29 203.029c4.445 13.376 45.208 40.86 85.232 37.886 13.34-36.4 24.46-52 24.46-52S141.655 93.83 87.548 75.26m323.925-.002s40.762 72.8 58.547 127.77c-4.445 13.376-45.208 40.86-85.232 37.886-13.34-36.4-24.46-52-24.46-52s-2.963-95.085 51.145-113.655" fill="#F8D800"/><path d="M249.511 57.703c-50.082 0-47.798-39.47-48.742-39.14-7.516 2.618-24.133 14.936-52.439 25.495-31.873 11.885-52.626 19.315-60.782 31.2 11.114 8.915 46.694 28.97 46.694 120.345v271.14s49.658 14.855 114.885 14.855c68.929 0 115.648-14.855 115.648-14.855v-271.14c0-91.375 35.58-111.43 46.7-120.345-8.157-11.885-28.91-19.315-60.783-31.2-28.36-10.577-44.982-22.92-52.478-25.511-.927-.318 4.177 39.156-48.703 39.156z" fill="#F8D800"/><path fill="#2F5DA5" d="M305 55v423h-9V55z"/><path d="M323 55l.003 420.843c-2.874.457-5.877.905-9.002 1.336L314 55h9z" fill="#D62E2F"/><path d="M467.353 195.129a338.826 338.826 0 012.667 7.9c-4.445 13.375-45.208 40.86-85.232 37.885a426.424 426.424 0 00-2.835-7.52c20.795-1.358 37.993-5.637 51.594-12.837 13.428-7.11 24.697-15.585 33.806-25.428zm-435.698.036c9.103 9.828 20.36 18.291 33.772 25.392 13.611 7.205 30.824 11.485 51.64 12.84a426.42 426.42 0 00-2.835 7.517c-40.024 2.975-80.787-24.51-85.232-37.885.836-2.585 1.723-5.21 2.655-7.864zm276.197-171.82C302.08 20.105 298.124 18 295.844 18c0 0 5.881 32.495-46.335 32.495-48.52 0-46.336-32.495-46.336-32.495-2.28 0-6.235 2.105-12.002 5.345 0 0 7.368 40.38 58.402 40.38 51.479 0 58.279-35.895 58.279-40.38z" fill="#F8D800"/><path d="M413.584 238.323c-9.287 2.238-19.064 3.316-28.798 2.592-8.197-22.369-15.557-36.883-20.012-44.748v270.577s-21.102 6.71-55.867 11.11l-.544-.059c1.881-54.795 5.722-166.47 8.277-240.705 2.055-59.755 31.084-95.29 60.099-117.44-2.676 6.78-5.072 14.606-7 23.667 7.354 11.852 24.436 42.069 43.831 94.964l.014.042zM190.717 477.795c-34.248-4.401-56.477-11.05-56.477-11.05V196.171c-4.456 7.867-11.813 22.38-20.01 44.743-9.632.716-19.308-.332-28.51-2.523.005-.033.012-.065.02-.097 19.377-52.848 36.305-83.066 43.61-94.944-1.93-9.075-4.328-16.912-7.007-23.701 29.015 22.15 58.044 57.685 60.1 117.44 2.554 74.235 6.395 185.91 8.276 240.705h-.002z" fill-opacity=".06" fill="#000"/><path d="M289 118a101.75 101.75 0 0120-2c6.667 0 13.333.667 20 2l-.039 15.128c.026 14.626-6.628 26.916-19.961 36.872-13.333-9.953-20-22.287-20-37v-15z" fill="#FFF"/><path d="M292 131.03a84.534 84.534 0 0117-1.741c5.667 0 11.333.58 17 1.74l-.033 2.879c.022 12.73-5.634 23.427-16.967 32.092-11.333-8.663-17-19.398-17-32.204v-2.766z" fill="#FFF" opacity=".4"/><path d="M309 119c5.667 0 11.333.58 17 1.74l-.02 7.997A84.53 84.53 0 00309 127a84.35 84.35 0 00-15.938 1.53l-1.062.21v-8a84.534 84.534 0 0117-1.74z" fill="gray" opacity=".4"/><path d="M310 142v-12.705l1.125.021c4.958.127 9.917.698 14.875 1.714l-.033 2.878a39.163 39.163 0 01-.807 8.093L310 142z" fill="#EF161E"/><path d="M313 139.647v-8l.703.014c3.1.08 6.198.44 9.297 1.08l-.02 1.811a24.834 24.834 0 01-.505 5.096H313z" fill="#FA9409"/><path d="M307.989 129.295V142h-15.155a39.615 39.615 0 01-.834-8.204v-2.766a84.67 84.67 0 0115.989-1.735z" fill="#044CA2"/><path d="M304.994 131.648v8h-9.478a25.107 25.107 0 01-.522-5.166v-1.742a52.615 52.615 0 0110-1.092z" fill="#B4A431"/><path d="M309 146l7.011 13.596c-2.027 2.246-4.364 4.38-7.011 6.404-2.647-2.023-4.985-4.16-7.014-6.41L309 146z" fill="#044CA2"/><path d="M309 151.296l3.999 7.755a29.532 29.532 0 01-4 3.653 29.44 29.44 0 01-4-3.656l4-7.752z" fill="#B4A431"/><path d="M307.989 144l-7.6 13.717c-3.379-4.2-5.737-8.772-7.074-13.718l14.674.001z" fill="#EF161E"/><path d="M317.606 157.73L310 144h14.683c-1.328 4.945-3.687 9.522-7.077 13.73z" fill="#044CA2"/><path d="M317.894 154l-4.144-8h8c-.724 2.882-2.01 5.548-3.856 8z" fill="#B4A431"/><path d="M300.106 154l4.144-8h-8c.724 2.882 2.01 5.548 3.856 8z" fill="#FA9409"/><path fill="#FFF" fill-rule="nonzero" d="M313.682 142.195l-1.989 5.305h-5.386l-1.989-5.303 4.675-4.014z"/><path fill="#1D191A" d="M305.5 142.5l3.494-3 3.506 3-1.5 4h-4z"/></g></svg>