<?xml version="1.0" encoding="UTF-8"?><svg width="500" height="500" viewBox="0 0 500 500" fill="none" xmlns="http://www.w3.org/2000/svg"><path fill-rule="evenodd" clip-rule="evenodd" d="M203.003 109.223h93.644V21.928h-93.644v87.295z" fill="#C03B3B"/><path fill-rule="evenodd" clip-rule="evenodd" d="M202.864 32.228h93.458v-14.2h-93.458v14.2z" fill="#E0E0E0"/><path fill-rule="evenodd" clip-rule="evenodd" d="M87.5475 75.2585S46.7848 148.058 29 203.028c4.4449 13.375 45.2077 40.861 85.232 37.885 13.34-36.399 24.46-52 24.46-52s2.963-95.0845-51.1445-113.6545zm323.9245 0s40.763 72.7995 58.548 127.7695c-4.445 13.375-45.208 40.861-85.232 37.885-13.34-36.399-24.46-52-24.46-52s-2.963-95.0845 51.144-113.6545z" fill="#D54B4B"/><path fill-rule="evenodd" clip-rule="evenodd" d="M249.511 57.7025c-50.082 0-47.798-39.4691-48.743-39.14-7.516 2.6187-24.132 14.9368-52.438 25.495-31.873 11.885-52.6261 19.315-60.7826 31.2 11.1148 8.915 46.6946 28.9705 46.6946 120.3455v271.14s49.657 14.855 114.885 14.855c68.929 0 115.648-14.855 115.648-14.855v-271.14c0-91.375 35.58-111.4305 46.699-120.3455-8.156-11.885-28.909-19.315-60.782-31.2-28.36-10.5767-44.982-22.9194-52.478-25.5087-.927-.3203 4.177 39.1537-48.703 39.1537z" fill="#D54B4B"/><path fill-rule="evenodd" clip-rule="evenodd" d="M307.851 23.345c-5.772-3.24-9.728-5.345-12.007-5.345 0 0 5.881 32.495-46.336 32.495-48.52 0-46.335-32.495-46.335-32.495-2.28 0-6.236 2.105-12.003 5.345 0 0 7.369 40.38 58.403 40.38 51.479 0 58.278-35.895 58.278-40.38z" fill="#F2F2F2"/><path fill-rule="evenodd" clip-rule="evenodd" d="M413.584 238.323c-9.287 2.238-19.064 3.316-28.797 2.592-8.198-22.369-15.558-36.883-20.013-44.748v270.577s-21.102 6.71-55.866 11.111l-.544-.06c1.88-54.795 5.722-166.47 8.276-240.705 2.055-59.755 31.085-95.29 60.099-117.44-2.675 6.781-5.072 14.606-6.999 23.667 7.354 11.852 24.435 42.069 43.83 94.964.005.014.01.028.014.042zM190.717 477.795c-34.248-4.401-56.476-11.051-56.476-11.051V196.172c-4.456 7.867-11.814 22.379-20.01 44.743-9.633.716-19.3089-.332-28.5108-2.523a1.01 1.01 0 01.0199-.097c19.3769-52.848 36.3059-83.066 43.6099-94.944-1.929-9.075-4.328-16.912-7.006-23.701 29.014 22.15 58.043 57.685 60.099 117.44 2.554 74.235 6.395 185.91 8.276 240.705h-.002z" fill="#000" fill-opacity=".07"/><path fill-rule="evenodd" clip-rule="evenodd" d="M290.208 121.182C296.84 119.727 303.104 119 309 119l.986.007c5.607.076 11.542.801 17.806 2.175 7.66 20.844-6.107 41.046-18.419 45.682L309 167c-12.405-4.364-26.53-24.763-18.792-45.818z" fill="#F1B358"/><path fill-rule="evenodd" clip-rule="evenodd" d="M292.893 123.909C298.578 122.636 303.947 122 309 122l.845.006c4.806.067 9.893.701 15.262 1.903 6.567 18.239-5.234 35.916-15.788 39.972L309 164c-10.633-3.818-22.74-21.668-16.107-40.091z" fill="#3D3D3D"/><path d="M309 123.5c-4.632 0-9.554.591-14.765 1.773-3.275 8.725-1.575 17.457 2.216 24.452 3.424-.944 7.717-1.725 12.549-1.725s9.125.781 12.55 1.725c3.786-6.995 5.485-15.794 2.215-24.452-4.922-1.116-9.585-1.706-13.99-1.768L309 123.5z" fill="#F2F2F2"/><path d="M325.499 135c-3.742 1.392-9.565 3-16.499 3-6.934 0-12.757-1.608-16.499-3-.023-3.193.504-6.47 1.734-9.727 5.211-1.182 10.133-1.773 14.765-1.773l.775.005c4.405.062 9.068.652 13.99 1.768 1.23 3.257 1.757 6.534 1.734 9.727z" fill="#EB5945"/><path d="M319.86 149.292c.415-1.187.64-2.463.64-3.792 0-6.351-5.149-11.5-11.5-11.5s-11.5 5.149-11.5 11.5c0 1.329.225 2.605.64 3.792 3.107-.739 6.792-1.292 10.86-1.292s7.753.553 10.86 1.292z" fill="#A4A4A4"/><rect x="298" y="127" width="24" height="6" rx="2" fill="#EFA49A"/></svg>