<?xml version="1.0" encoding="UTF-8"?><svg width="500" height="500" xmlns="http://www.w3.org/2000/svg"><g fill="none" fill-rule="evenodd"><path d="M0 0h500v500H0z"/><path fill="#D9D9D9" d="M203.003 109.223h93.643V21.928h-93.643z"/><path fill="#E0E0E0" d="M202.864 32.228h93.458v-14.2h-93.458z"/><path d="M87.548 75.258S46.785 148.058 29 203.029c4.445 13.376 45.208 40.86 85.232 37.886 13.34-36.4 24.46-52 24.46-52S141.655 93.83 87.548 75.26m323.925-.002s40.762 72.8 58.547 127.77c-4.445 13.376-45.208 40.86-85.232 37.886-13.34-36.4-24.46-52-24.46-52s-2.963-95.085 51.145-113.655" fill="#F9F5F4"/><path d="M249.511 57.703c-50.082 0-47.798-39.47-48.742-39.14-7.516 2.618-24.133 14.936-52.439 25.495-31.873 11.885-52.626 19.315-60.782 31.2 11.114 8.915 46.694 28.97 46.694 120.345v271.14s49.658 14.855 114.885 14.855c68.929 0 115.648-14.855 115.648-14.855v-271.14c0-91.375 35.58-111.43 46.7-120.345-8.157-11.885-28.91-19.315-60.783-31.2-28.36-10.577-44.982-22.92-52.478-25.511-.927-.318 4.177 39.156-48.703 39.156z" fill="#F9F5F4"/><path d="M293.89 36.956C341.407 48.087 369 76.337 369 105.242v41.277c-2.052 10.582-3.477 22.773-4 36.846v-78.123c0-17.129-10.617-34.06-29.848-46.886-11.92-7.95-26.607-14.005-43.396-17.796a33.167 33.167 0 002.135-3.604zM130 146.399v-41.157c0-29.09 27.947-57.515 76.02-68.493a36.813 36.813 0 002.22 3.596c-17.21 3.773-32.239 9.907-44.393 18.012C144.617 71.18 134 88.113 134 105.242v77.515c-.543-13.87-1.965-25.9-4-36.358z" fill="#1D48A9" fill-rule="nonzero"/><path d="M202.215 24.577l1.749 3.198c-9.027 4.858-24.145 14.369-46.657 22.766-31.873 11.885-52.626 19.315-60.78 31.201-.003 0-11.08 19.783-24.205 46.512a52.893 52.893 0 01-3.11-2.238c13.177-26.854 24.322-46.757 24.322-46.757h.002c8.155-11.886 28.908-19.316 60.78-31.201 19.604-7.313 33.602-15.47 42.852-20.663-.008-.033-.01-.05-.01-.05a189.648 189.648 0 015.057-2.768z" fill="#1D48A9"/><path d="M192.45 26.847c-9.234 5.204-22.706 12.821-41.13 19.694-31.873 11.885-52.626 19.315-60.78 31.201-.002 0-11.08 19.783-24.205 46.512a52.82 52.82 0 01-3.11-2.238c13.178-26.854 24.323-46.758 24.323-46.758 8.156-11.885 28.91-19.315 60.782-31.2 19.604-7.313 33.601-15.47 42.851-20.663a1.24 1.24 0 01-.01-.05l1.278 3.502zm106.643-1.04c.87.478 1.79.992 2.763 1.538l-.01.05c9.25 5.194 23.247 13.35 42.85 20.663 31.874 11.885 52.627 19.315 60.781 31.201h.002s11.145 19.903 24.323 46.757a52.819 52.819 0 01-3.11 2.238c-13.125-26.729-24.203-46.512-24.203-46.512h-.002c-8.155-11.886-28.908-19.316-60.78-31.201-20.712-7.726-35.165-16.394-44.374-21.514l1.76-3.22z" fill="#1D48A9"/><path d="M307.843 23.345l-.011.05c9.25 5.194 23.247 13.35 42.851 20.663 31.873 11.885 52.626 19.315 60.78 31.201.003 0 11.147 19.903 24.325 46.757a52.819 52.819 0 01-3.11 2.238c-13.125-26.729-24.203-46.512-24.203-46.512-8.156-11.886-28.91-19.316-60.782-31.201-18.28-6.819-31.685-14.371-40.912-19.571l1.062-3.625z" fill="#1D48A9"/><path d="M307.852 23.345C302.08 20.105 298.124 18 295.844 18c0 0 5.881 32.495-46.335 32.495-48.52 0-46.336-32.495-46.336-32.495-2.28 0-6.235 2.105-12.002 5.345 0 0 7.368 40.38 58.402 40.38 51.479 0 58.279-35.895 58.279-40.38z" fill="#F9F5F4"/><path d="M413.584 238.323c-9.287 2.238-19.064 3.316-28.798 2.592-8.197-22.369-15.557-36.883-20.012-44.748v270.577s-21.102 6.71-55.867 11.11l-.544-.059c1.881-54.795 5.722-166.47 8.277-240.705 2.055-59.755 31.084-95.29 60.099-117.44-2.676 6.78-5.072 14.606-7 23.667 7.354 11.852 24.436 42.069 43.831 94.964l.014.042zM190.717 477.795c-34.248-4.401-56.477-11.05-56.477-11.05V196.171c-4.456 7.867-11.813 22.38-20.01 44.743-9.632.716-19.308-.332-28.51-2.523.005-.033.012-.065.02-.097 19.377-52.848 36.305-83.066 43.61-94.944-1.93-9.075-4.328-16.912-7.007-23.701 29.015 22.15 58.044 57.685 60.1 117.44 2.554 74.235 6.395 185.91 8.276 240.705h-.002z" fill-opacity=".06" fill="#000"/><g transform="translate(295 117)"><rect fill="#10428D" width="28" height="52" rx="1"/><path d="M6.5 20v29h-3V20h3zm6 0v29h-3V20h3zm6 0v29h-3V20h3zm6 0v29h-3V20h3zm-9-12v4.5h9v3h-9V20h-3v-4.501l-9 .001v-3l9-.001V8h3z" fill="#FFF"/></g></g></svg>