<?xml version="1.0" encoding="UTF-8"?><svg width="500" height="500" xmlns="http://www.w3.org/2000/svg"><g fill="none" fill-rule="evenodd"><path d="M0 0h500v500H0z"/><path fill="#BF1E2F" d="M203.003 109.223h93.643V21.928h-93.643z"/><path fill="#E3E3E3" d="M202.864 32.228h93.458v-14.2h-93.458z"/><path d="M87.548 75.258S46.785 148.058 29 203.029c4.445 13.376 45.208 40.86 85.232 37.886 13.34-36.4 24.46-52 24.46-52S141.655 93.83 87.548 75.26m323.925-.002s40.762 72.8 58.547 127.77c-4.445 13.376-45.208 40.86-85.232 37.886-13.34-36.4-24.46-52-24.46-52s-2.963-95.085 51.145-113.655" fill="#E4273B"/><path d="M249.511 57.703c-50.082 0-47.798-39.47-48.742-39.14-7.516 2.618-24.133 14.936-52.439 25.495-31.873 11.885-52.626 19.315-60.782 31.2 11.114 8.915 46.694 28.97 46.694 120.345v271.14s49.658 14.855 114.885 14.855c68.929 0 115.648-14.855 115.648-14.855v-271.14c0-91.375 35.58-111.43 46.7-120.345-8.157-11.885-28.91-19.315-60.783-31.2-28.36-10.577-44.982-22.92-52.478-25.511-.927-.318 4.177 39.156-48.703 39.156z" fill="#E4273B"/><path d="M364.783 196.15v270.564s-2.615.832-7.52 2.102V198.029c1.66-.659 3.102-1.134 4.324-1.427.79-.19 1.855-.34 3.196-.451zM141.75 468.72c-4.86-1.215-7.5-2.005-7.5-2.005V196.154c1.332.111 2.39.26 3.175.449 1.222.293 2.664.768 4.325 1.427v270.69z" fill="#F9F5F4"/><path d="M467.353 195.129a338.826 338.826 0 012.667 7.9c-4.445 13.375-45.208 40.86-85.232 37.885a426.424 426.424 0 00-2.835-7.52c20.795-1.358 37.993-5.637 51.594-12.837 13.428-7.11 24.697-15.585 33.806-25.428zm-435.698.036c9.103 9.828 20.36 18.291 33.772 25.392 13.611 7.205 30.824 11.485 51.64 12.84a426.42 426.42 0 00-2.835 7.517c-40.024 2.975-80.787-24.51-85.232-37.885.836-2.585 1.723-5.21 2.655-7.864zm276.197-171.82C302.08 20.105 298.124 18 295.844 18c0 0 5.881 32.495-46.335 32.495-48.52 0-46.336-32.495-46.336-32.495-2.28 0-6.235 2.105-12.002 5.345 0 0 7.368 40.38 58.402 40.38 51.479 0 58.279-35.895 58.279-40.38z" fill="#F2F2F2"/><path d="M413.584 238.323c-9.287 2.238-19.064 3.316-28.798 2.592-8.197-22.369-15.557-36.883-20.012-44.748v270.577s-21.102 6.71-55.867 11.11l-.544-.059c1.881-54.795 5.722-166.47 8.277-240.705 2.055-59.755 31.084-95.29 60.099-117.44-2.676 6.78-5.072 14.606-7 23.667 7.354 11.852 24.436 42.069 43.831 94.964l.014.042zM190.717 477.795c-34.248-4.401-56.477-11.05-56.477-11.05V196.171c-4.456 7.867-11.813 22.38-20.01 44.743-9.632.716-19.308-.332-28.51-2.523.005-.033.012-.065.02-.097 19.377-52.848 36.305-83.066 43.61-94.944-1.93-9.075-4.328-16.912-7.007-23.701 29.015 22.15 58.044 57.685 60.1 117.44 2.554 74.235 6.395 185.91 8.276 240.705h-.002z" fill-opacity=".1" fill="#000"/><g transform="translate(292 116)"><path d="M34 33.116C34 42.444 26.385 50 17 50S0 42.444 0 33.116V0h34v33.116z" fill="#B69F59" fill-rule="nonzero"/><path fill="#E1D7BB" d="M2 2h30v4H2z"/><path d="M33 33.116C33 41.89 25.835 49 17 49S1 41.89 1 33.116V8h32v25.116z" fill="#FFF" fill-rule="nonzero"/><path d="M17 48c8.284 0 15-6.664 15-14.884V9H2v24.116C2 41.336 8.716 48 17 48z" fill="#B82A3B"/><rect fill="#FFF" x="24" y="13" width="4" height="6" rx="2"/><rect fill="#FFF" x="24" y="34" width="4" height="6" rx="2"/><rect fill="#FFF" x="6" y="34" width="4" height="6" rx="2"/><rect fill="#FFF" x="6" y="13" width="4" height="6" rx="2"/><path d="M19 8l.001 11.29a7.015 7.015 0 014.71 4.71H33v4l-9.29.001A7.015 7.015 0 0119 32.71v16.159a15.255 15.255 0 01-4 0V32.71A7.015 7.015 0 0110.29 28H1v-4.001h9.29a7.015 7.015 0 014.71-4.71V8h4z" fill="#FFF"/><circle fill="#D1C398" cx="17" cy="26" r="5"/></g></g></svg>