<?xml version="1.0" encoding="UTF-8"?><svg width="500" height="500" xmlns="http://www.w3.org/2000/svg"><g fill="none" fill-rule="evenodd"><path d="M0 0h500v500H0z"/><path fill="#C7B408" d="M203.003 109.223h93.643V21.928h-93.643z"/><path fill="#055FC8" d="M202.864 30.028h93.458v-12h-93.458z"/><path d="M87.548 75.258S46.785 148.058 29 203.029c4.445 13.376 45.208 40.86 85.232 37.886 13.34-36.4 24.46-52 24.46-52S141.655 93.83 87.548 75.26m323.925-.002s40.762 72.8 58.547 127.77c-4.445 13.376-45.208 40.86-85.232 37.886-13.34-36.4-24.46-52-24.46-52s-2.963-95.085 51.145-113.655" fill="#F4DE0F"/><path d="M249.511 57.703c-50.082 0-47.798-39.47-48.742-39.14-7.516 2.618-24.133 14.936-52.439 25.495-31.873 11.885-52.626 19.315-60.782 31.2 11.114 8.915 46.694 28.97 46.694 120.345v271.14s49.658 14.855 114.885 14.855c68.929 0 115.648-14.855 115.648-14.855v-271.14c0-91.375 35.58-111.43 46.7-120.345-8.157-11.885-28.91-19.315-60.783-31.2-28.36-10.577-44.982-22.92-52.478-25.511-.927-.318 4.177 39.156-48.703 39.156z" fill="#F4DE0F"/><path d="M467.353 195.129a338.826 338.826 0 012.667 7.9c-4.445 13.375-45.208 40.86-85.232 37.885a426.424 426.424 0 00-2.835-7.52c20.795-1.358 37.993-5.637 51.594-12.837 13.428-7.11 24.697-15.585 33.806-25.428zm-435.698.036c9.103 9.828 20.36 18.291 33.772 25.392 13.611 7.205 30.824 11.485 51.64 12.84a426.42 426.42 0 00-2.835 7.517c-40.024 2.975-80.787-24.51-85.232-37.885.836-2.585 1.723-5.21 2.655-7.864zm170.56-170.588l1.749 3.198c-9.027 4.858-24.145 14.369-46.657 22.766-31.873 11.885-52.626 19.315-60.78 31.201-.003 0-11.08 19.783-24.205 46.512a52.893 52.893 0 01-3.11-2.238c13.177-26.854 24.322-46.757 24.322-46.757h.002c8.155-11.886 28.908-19.316 60.78-31.201 19.604-7.313 33.602-15.47 42.852-20.663-.008-.033-.01-.05-.01-.05a189.648 189.648 0 015.057-2.768z" fill="#006AE5"/><path d="M192.45 26.847c-9.234 5.204-22.706 12.821-41.13 19.694-31.873 11.885-52.626 19.315-60.78 31.201-.002 0-11.08 19.783-24.205 46.512a52.82 52.82 0 01-3.11-2.238c13.178-26.854 24.323-46.758 24.323-46.758 8.156-11.885 28.91-19.315 60.782-31.2 19.604-7.313 33.601-15.47 42.851-20.663a1.24 1.24 0 01-.01-.05l1.278 3.502zm106.643-1.04c.87.478 1.79.992 2.763 1.538l-.01.05c9.25 5.194 23.247 13.35 42.85 20.663 31.874 11.885 52.627 19.315 60.781 31.201h.002s11.145 19.903 24.323 46.757a52.819 52.819 0 01-3.11 2.238c-13.125-26.729-24.203-46.512-24.203-46.512h-.002c-8.155-11.886-28.908-19.316-60.78-31.201-20.712-7.726-35.165-16.394-44.374-21.514l1.76-3.22z" fill="#006AE5"/><path d="M307.843 23.345l-.011.05c9.25 5.194 23.247 13.35 42.851 20.663 31.873 11.885 52.626 19.315 60.78 31.201.003 0 11.147 19.903 24.325 46.757a52.819 52.819 0 01-3.11 2.238c-13.125-26.729-24.203-46.512-24.203-46.512-8.156-11.886-28.91-19.316-60.782-31.201-18.28-6.819-31.685-14.371-40.912-19.571l1.062-3.625z" fill="#006AE5"/><path fill="#DBC70A" d="M202.867 32.198h93.458v-7h-93.458z"/><path d="M293.963 36.814C342.053 47.845 370 76.214 370 105.242v36.465c-1.72 7.74-3.094 16.404-4 26.113v-62.578c0-17.129-10.663-34.06-29.977-46.886-12.112-8.044-27.068-14.146-44.177-17.928a33.219 33.219 0 002.117-3.614zM130 146.399v-41.157c0-29.032 27.954-57.404 76.056-68.428.65 1.197 1.388 2.4 2.227 3.592-17.168 3.778-32.166 9.89-44.306 17.95C144.663 71.182 134 88.114 134 105.243v77.515c-.543-13.87-1.965-25.9-4-36.358z" fill="#6D9E84" fill-rule="nonzero"/><path d="M307.852 23.345C302.08 20.105 298.124 18 295.844 18c0 0 5.881 32.495-46.335 32.495-48.52 0-46.336-32.495-46.336-32.495-2.28 0-6.235 2.105-12.002 5.345 0 0 7.368 40.38 58.402 40.38 51.479 0 58.279-35.895 58.279-40.38z" fill="#006AE5"/><path d="M413.584 238.323c-9.287 2.238-19.064 3.316-28.798 2.592-8.197-22.369-15.557-36.883-20.012-44.748v270.577s-21.102 6.71-55.867 11.11l-.544-.059c1.881-54.795 5.722-166.47 8.277-240.705 2.055-59.755 31.084-95.29 60.099-117.44-2.676 6.78-5.072 14.606-7 23.667 7.354 11.852 24.436 42.069 43.831 94.964l.014.042zM190.717 477.795c-34.248-4.401-56.477-11.05-56.477-11.05V196.171c-4.456 7.867-11.813 22.38-20.01 44.743-9.632.716-19.308-.332-28.51-2.523.005-.033.012-.065.02-.097 19.377-52.848 36.305-83.066 43.61-94.944-1.93-9.075-4.328-16.912-7.007-23.701 29.015 22.15 58.044 57.685 60.1 117.44 2.554 74.235 6.395 185.91 8.276 240.705h-.002z" fill-opacity=".06" fill="#000"/><g transform="translate(296 121.02)"><path d="M11 20.48c0-1.167-.144-3.392-.438-7.134l-.059-.741c-.477-6-.503-6.35-.503-7.124 0-1.5.776-3.052 2.262-4.676L13 0l.738.804C15.224 2.425 16 3.977 16 5.481c0 .777-.03 1.191-.503 7.138l-.057.715c-.296 3.767-.44 5.99-.44 7.147 0 1.304.396 3.315 1.193 5.999h3.773c-.138-1.958-.7-3.361-1.649-4.249L18 21.935V21.5c0-11.54 2.107-18.22 6.643-19.955L26 1.028v19.288l-.02.2c-.358 1.752-.712 2.948-1.21 3.633.817 1.89 1.204 5.142 1.229 9.854l.004 1.477H17c-.93 1.242-2.4 2-4 2s-3.07-.758-4-2H0v-1c0-4.969.386-8.378 1.23-10.33-.498-.686-.852-1.882-1.21-3.633l-.02-.2V1.026l1.357.52C5.893 3.28 8 9.96 8 21.5v.434l-.317.296c-.95.888-1.51 2.291-1.65 4.25l3.775-.002C10.605 23.81 11 21.798 11 20.481z" fill="#FFF" fill-rule="nonzero"/><path d="M13 1.48c1.333 1.454 2 2.787 2 4 0 1.82-1 12.005-1 15 0 1.54.484 3.873 1.45 7H21c0-2.74-.667-4.734-2-5.98 0-11.15 2-17.49 6-19.02v17.836c-.482 2.357-.99 3.536-1.522 3.536.986 1.443 1.493 4.827 1.52 10.154l.002.475h-8.535a3.998 3.998 0 01-3.465 2 3.998 3.998 0 01-3.465-2H1c0-5.601.507-9.144 1.522-10.63-.533 0-1.04-1.178-1.522-3.535V2.481C5 4.01 7 10.35 7 21.5c-1.333 1.245-2 3.239-2 5.98l5.549-.002C11.516 24.367 12 22.034 12 20.481c0-3.028-1-13.185-1-15 0-1.21.667-2.544 2-4z" fill="#105AC3"/><path fill-opacity=".604" fill="#105AC3" d="M1 39.981h24v4H1z"/><circle fill="#FFF" cx="13" cy="31.481" r="3"/></g></g></svg>