<?xml version="1.0" encoding="UTF-8"?><svg width="500" height="500" viewBox="0 0 500 500" fill="none" xmlns="http://www.w3.org/2000/svg"><path fill-rule="evenodd" clip-rule="evenodd" d="M203.003 109.223h93.644V21.928h-93.644v87.295z" fill="#D3D0CF"/><path fill-rule="evenodd" clip-rule="evenodd" d="M202.864 32.2281h93.458v-14.2h-93.458v14.2z" fill="#E0E0E0"/><path fill-rule="evenodd" clip-rule="evenodd" d="M87.5475 75.2585S46.7848 148.059 29 203.029c4.4449 13.375 45.2077 40.86 85.232 37.885 13.34-36.4 24.46-52 24.46-52s2.963-95.0855-51.1445-113.6555zm323.9255 0s40.763 72.8005 58.548 127.7705c-4.445 13.375-45.208 40.86-85.233 37.885-13.339-36.4-24.459-52-24.459-52s-2.964-95.0855 51.144-113.6555z" fill="#CA3232"/><path fill-rule="evenodd" clip-rule="evenodd" d="M249.511 57.7025c-50.082 0-47.798-39.4691-48.743-39.14-7.516 2.6187-24.132 14.9368-52.438 25.495-31.873 11.885-52.6261 19.315-60.7826 31.2 11.1148 8.915 46.6946 28.9695 46.6946 120.3445v271.14s49.657 14.856 114.885 14.856c68.929 0 115.648-14.856 115.648-14.856v-271.14c0-91.375 35.58-111.4295 46.699-120.3445-8.156-11.885-28.909-19.315-60.782-31.2-28.36-10.5767-44.982-22.9195-52.478-25.5087-.927-.3203 4.177 39.1537-48.703 39.1537z" fill="#CA3232"/><path fill-rule="evenodd" clip-rule="evenodd" d="M174.404 32.399c6.756-3.393 12.314-6.5264 16.77-9.0289l2.137 6.6309c-8.9 5.1427-22.457 13.3251-41.595 20.7108-28.211 10.8826-47.405 18.0299-56.4933 28.2824l-7.6099-3.9753c8.2023-11.8293 28.9292-19.2514 60.7172-31.1046 10.156-3.7883 18.808-7.8032 26.074-11.5153zm150.102-.0568c7.289 3.728 15.977 7.7645 26.185 11.5721C382.48 55.7679 403.207 63.19 411.409 75.02c-.41.2249-2.909 1.5936-7.494 4.1062-9.041-10.3233-28.278-17.4852-56.61-28.4144-18.71-7.2205-32.085-15.2026-40.991-20.3613l1.541-6.9804c4.432 2.489 9.948 5.6005 16.651 8.9721zM467.353 195.129c.936 2.667 1.828 5.303 2.668 7.899-4.445 13.375-45.208 40.86-85.232 37.885-.958-2.613-1.904-5.119-2.836-7.519 20.795-1.358 37.993-5.637 51.595-12.837 13.428-7.109 24.696-15.585 33.805-25.428zm-435.6983.036c9.1031 9.828 20.3606 18.291 33.7724 25.392 13.6109 7.205 30.8241 11.485 51.6389 12.84-.931 2.399-1.877 4.904-2.834 7.517-40.0243 2.975-80.7871-24.51-85.232-37.885.8363-2.585 1.7234-5.21 2.6547-7.864z" fill="#F2F2F2"/><path fill-rule="evenodd" clip-rule="evenodd" d="M307.851 23.345c-5.772-3.24-9.728-5.345-12.007-5.345 0 0 5.881 32.495-46.336 32.495-48.52 0-46.335-32.495-46.335-32.495-2.28 0-6.236 2.105-12.003 5.345 0 0 7.369 40.38 58.403 40.38 51.479 0 58.278-35.895 58.278-40.38z" fill="#F2F2F2"/><path fill-rule="evenodd" clip-rule="evenodd" d="M413.584 238.323c-9.287 2.238-19.064 3.316-28.797 2.592-8.198-22.369-15.558-36.883-20.013-44.748v270.577s-21.102 6.71-55.866 11.111l-.544-.06c1.88-54.795 5.722-166.47 8.276-240.705 2.055-59.755 31.085-95.29 60.099-117.44-2.675 6.781-5.072 14.606-6.999 23.667 7.354 11.852 24.435 42.069 43.83 94.964.005.014.01.028.014.042zM190.717 477.795c-34.248-4.401-56.476-11.051-56.476-11.051V196.172c-4.456 7.867-11.814 22.379-20.01 44.743-9.633.716-19.3089-.332-28.5108-2.524a1.056 1.056 0 01.0199-.096c19.3769-52.848 36.3059-83.066 43.6099-94.944-1.929-9.075-4.328-16.912-7.006-23.701 29.014 22.15 58.043 57.685 60.099 117.44 2.554 74.235 6.395 185.91 8.276 240.705h-.002z" fill="#000" fill-opacity=".08"/><path fill-rule="evenodd" clip-rule="evenodd" d="M309 164.917c12.15 0 22-9.85 22-22 0-12.151-9.85-22-22-22s-22 9.849-22 22c0 12.15 9.85 22 22 22z" fill="#3D3D3D"/><path fill-rule="evenodd" clip-rule="evenodd" d="M309 163.084c11.137 0 20.166-9.029 20.166-20.167 0-11.138-9.029-20.167-20.166-20.167-11.138 0-20.167 9.029-20.167 20.167 0 11.138 9.029 20.167 20.167 20.167z" fill="#F2F2F2"/><path fill-rule="evenodd" clip-rule="evenodd" d="M309 159.417c9.113 0 16.5-7.388 16.5-16.5 0-9.113-7.387-16.5-16.5-16.5s-16.5 7.387-16.5 16.5c0 9.112 7.387 16.5 16.5 16.5z" fill="#3D3D3D"/><path fill-rule="evenodd" clip-rule="evenodd" d="M291.125 119.083l4.584 5.959c.916 8.99 10.498 14.133 10.498 19.599h1.501c.5-1.48 2.22-3.692 3.5-5.429 1.72-2.334 3.7-5.898 7.876-7.754 4.125-1.833 8.97-2.291 11.916-3.666-5.041 3.666-10.043 10.683-12.417 12.657-2.375 1.974-5.374 3.699-9.023 5.184 4.341.434 5.526.245 6.026 1.233 0 1.48-5.165 3.455-7.166 8.884l-1-.493c0-1.975-2.712-4.526-5.001-5.43-2.289-.903-7.001 0-7.001 0 1.5-2.468 3.077-5.777 7.288-5.186-6.711-4.54-14.789-14.558-11.581-25.558z" fill="#F2F2F2"/><path d="M291.67 118.664a.6862.6862 0 00-.672-.256.6883.6883 0 00-.533.483c-1.668 5.72-.392 11.164 2.129 15.726 2.111 3.82 5.108 7.051 8.046 9.363-1.254.225-2.251.826-3.07 1.611-1.008.966-1.757 2.228-2.399 3.309-.117.197-.23.388-.341.57a.6876.6876 0 00.023.749c.155.224.427.334.694.283h.002l.009-.002.036-.006c.033-.007.083-.015.147-.026.129-.023.316-.053.549-.088.467-.069 1.111-.151 1.823-.206 1.466-.113 3.072-.095 4.054.293 1.041.411 2.211 1.214 3.116 2.151.931.963 1.45 1.928 1.45 2.639 0 .261.148.5.383.616l1 .494c.175.086.378.094.559.022a.6881.6881 0 00.39-.401c.942-2.557 2.634-4.316 4.143-5.645.345-.304.678-.583.992-.847.03-.024.059-.049.088-.073.336-.282.655-.551.927-.804.27-.25.521-.508.707-.774.185-.261.351-.593.351-.979 0-.108-.025-.215-.074-.311-.188-.372-.458-.653-.841-.849-.353-.181-.775-.276-1.246-.344-.463-.067-1.067-.118-1.824-.179 2.616-1.248 4.859-2.646 6.734-4.205.639-.532 1.429-1.378 2.308-2.368.437-.492.904-1.029 1.393-1.591l.021-.024c.498-.573 1.02-1.172 1.562-1.784 2.176-2.458 4.644-5.078 7.099-6.863a.6876.6876 0 00-.695-1.179c-1.325.618-3.072 1.047-5.061 1.536-.109.027-.219.054-.329.081-2.091.514-4.39 1.1-6.515 2.044-3.739 1.662-5.821 4.65-7.381 6.89-.27.387-.525.752-.769 1.084-.144.195-.294.398-.449.606-.525.706-1.097 1.477-1.608 2.225-.536.785-1.039 1.592-1.359 2.319h-.388c-.164-1.315-.78-2.573-1.58-3.794-.769-1.172-1.755-2.375-2.767-3.611-.222-.271-.446-.544-.668-.819-2.512-3.095-5.008-6.487-5.443-10.758a.685.685 0 00-.139-.349l-4.584-5.959z" stroke="#3D3D3D" stroke-width="1.375" stroke-linejoin="round"/></svg>