<?xml version="1.0" encoding="UTF-8"?><svg width="500" height="500" viewBox="0 0 500 500" fill="none" xmlns="http://www.w3.org/2000/svg"><path fill-rule="evenodd" clip-rule="evenodd" d="M203.003 109.223h93.644V21.928h-93.644v87.295z" fill="#D3D0CF"/><path fill-rule="evenodd" clip-rule="evenodd" d="M202.864 32.228h93.458v-14.2h-93.458v14.2z" fill="#2F2F2F"/><path fill-rule="evenodd" clip-rule="evenodd" d="M87.5475 75.2585S46.7848 148.059 29 203.029c4.4449 13.375 45.2077 40.86 85.232 37.885 13.34-36.4 24.46-52 24.46-52s2.963-95.0855-51.1445-113.6555zm323.9255 0s40.763 72.8005 58.548 127.7705c-4.445 13.375-45.208 40.86-85.233 37.885-13.339-36.4-24.459-52-24.459-52s-2.964-95.0855 51.144-113.6555z" fill="#218058"/><path fill-rule="evenodd" clip-rule="evenodd" d="M249.511 57.7025c-50.082 0-47.798-39.4691-48.743-39.14-7.516 2.6187-24.132 14.9368-52.438 25.495-31.873 11.885-52.6261 19.315-60.7826 31.2 11.1148 8.915 46.6946 28.9695 46.6946 120.3445v271.14s49.657 14.856 114.885 14.856c68.929 0 115.648-14.856 115.648-14.856v-271.14c0-91.375 35.58-111.4295 46.699-120.3445-8.156-11.885-28.909-19.315-60.782-31.2-28.36-10.5767-44.982-22.9195-52.478-25.5087-.927-.3203 4.177 39.1537-48.703 39.1537z" fill="#218058"/><path fill-rule="evenodd" clip-rule="evenodd" d="M467.353 195.129c.936 2.667 1.828 5.303 2.668 7.899-4.445 13.375-45.208 40.86-85.232 37.885-.958-2.613-1.904-5.119-2.836-7.519 20.795-1.358 37.993-5.637 51.595-12.837 13.428-7.109 24.696-15.585 33.805-25.428zm-435.6983.036c9.1031 9.828 20.3606 18.291 33.7724 25.392 13.6109 7.205 30.8241 11.485 51.6389 12.84-.931 2.399-1.877 4.904-2.834 7.517-40.0243 2.975-80.7871-24.51-85.232-37.885.8363-2.585 1.7234-5.21 2.6547-7.864zM307.851 23.345c-5.772-3.24-9.728-5.345-12.007-5.345 0 0 5.881 32.495-46.336 32.495-48.52 0-46.335-32.495-46.335-32.495-2.28 0-6.236 2.105-12.003 5.345 0 0 7.369 40.38 58.403 40.38 51.479 0 58.278-35.895 58.278-40.38z" fill="#3D3D3D"/><path fill-rule="evenodd" clip-rule="evenodd" d="M413.584 238.323c-9.287 2.238-19.064 3.316-28.797 2.592-8.198-22.369-15.558-36.883-20.013-44.748v270.577s-21.102 6.71-55.866 11.111l-.544-.06c1.88-54.795 5.722-166.47 8.276-240.705 2.055-59.755 31.085-95.29 60.099-117.44-2.675 6.781-5.072 14.606-6.999 23.667 7.354 11.852 24.435 42.069 43.83 94.964.005.014.01.028.014.042zM190.717 477.795c-34.248-4.401-56.476-11.051-56.476-11.051V196.172c-4.456 7.867-11.814 22.379-20.01 44.743-9.633.716-19.3089-.332-28.5108-2.523.0051-.032.0117-.065.0199-.097 19.3769-52.848 36.3059-83.066 43.6099-94.944-1.929-9.075-4.328-16.912-7.006-23.701 29.014 22.15 58.043 57.685 60.099 117.44 2.554 74.235 6.395 185.91 8.276 240.705h-.002z" fill="#000" fill-opacity=".07"/><path fill-rule="evenodd" clip-rule="evenodd" d="M309 166c12.703 0 23-10.297 23-23s-10.297-23-23-23-23 10.297-23 23 10.297 23 23 23z" fill="#3D3D3D"/><path fill-rule="evenodd" clip-rule="evenodd" d="M309 161c9.941 0 18-8.059 18-18s-8.059-18-18-18-18 8.059-18 18 8.059 18 18 18z" fill="#F2F2F2"/><path fill-rule="evenodd" clip-rule="evenodd" d="M309 159c8.837 0 16-7.163 16-16s-7.163-16-16-16-16 7.163-16 16 7.163 16 16 16z" fill="#196445"/><path fill-rule="evenodd" clip-rule="evenodd" d="M305.516 132.932c.318-1.602 1.675-2.932 3.484-2.932s3.166 1.33 3.484 2.932a29.077 29.077 0 001.628-.629c1.962-.824 3.888.731 3.888 2.632v6.467c0 1.952-2.002 3.483-3.955 2.621l.808-1.83c.534.236 1.147-.176 1.147-.791v-6.467c0-.601-.587-1.009-1.113-.788-.62.261-1.445.585-2.331.871-.653.21-1.339.4-2 .529v-1.895c0-.05-.003-.099-.007-.148-.07-.843-.737-1.504-1.549-1.504-.812 0-1.479.661-1.549 1.504-.004.049-.007.098-.007.148v1.895c-.661-.129-1.347-.319-2-.529-.886-.286-1.711-.61-2.331-.871-.526-.221-1.113.187-1.113.788v6.467c0 .615.613 1.027 1.147.791.424-.187.944-.402 1.52-.61.491-.177 1.022-.35 1.571-.496.143-.038.286-.074.431-.108-.002.036-.002.072-.002.108v7.435c0 1.368 1.044 2.478 2.333 2.478 1.289 0 2.333-1.11 2.333-2.478v-7.435c0-.036 0-.072-.002-.108.145.034.288.07.431.108.549.146 1.08.319 1.571.496.576.208 1.096.423 1.52.61l-.808 1.83c-.215-.095-.455-.197-.712-.3v4.799c0 2.358-1.828 4.478-4.333 4.478s-4.333-2.12-4.333-4.478v-4.799c-.257.103-.497.205-.712.3-1.953.862-3.955-.669-3.955-2.621v-6.467c0-1.901 1.926-3.456 3.888-2.632.464.195 1.026.418 1.628.629z" fill="#E2E2E2"/><path d="M309 132c-.859 0-1.556.74-1.556 1.652v1.895c-1.56-.303-3.254-.947-4.331-1.4-.526-.221-1.113.187-1.113.788v6.467c0 .615.613 1.027 1.147.791.88-.388 2.17-.895 3.522-1.214-.002.036-.002.072-.002.108v7.435c0 1.368 1.044 2.478 2.333 2.478 1.289 0 2.333-1.11 2.333-2.478v-7.435c0-.036 0-.072-.002-.108 1.352.319 2.642.826 3.522 1.214.534.236 1.147-.176 1.147-.791v-6.467c0-.601-.587-1.009-1.113-.788-1.077.453-2.771 1.097-4.331 1.4v-1.895c0-.912-.697-1.652-1.556-1.652z" fill="#196445"/><circle cx="309" cy="153" r="4" fill="#949494"/><circle cx="309" cy="153" r="3" fill="#CBCBCB"/></svg>