<?xml version="1.0" encoding="UTF-8"?><svg width="500" height="500" xmlns="http://www.w3.org/2000/svg"><g fill="none" fill-rule="evenodd"><path d="M0 0h500v500H0z"/><path fill="#890B1D" d="M203.003 109.223h93.643V21.928h-93.643z"/><path fill="#A31024" d="M202.864 32.228h93.458v-14.2h-93.458z"/><path d="M87.548 75.258S46.785 148.058 29 203.029c4.445 13.376 45.208 40.86 85.232 37.886 13.34-36.4 24.46-52 24.46-52S141.655 93.83 87.548 75.26m323.925-.002s40.762 72.8 58.547 127.77c-4.445 13.376-45.208 40.86-85.232 37.886-13.34-36.4-24.46-52-24.46-52s-2.963-95.085 51.145-113.655" fill="#B6162C"/><path d="M249.511 57.703c-50.082 0-47.798-39.47-48.742-39.14-7.516 2.618-24.133 14.936-52.439 25.495-31.873 11.885-52.626 19.315-60.782 31.2 11.114 8.915 46.694 28.97 46.694 120.345v271.14s49.658 14.855 114.885 14.855c68.929 0 115.648-14.855 115.648-14.855v-271.14c0-91.375 35.58-111.43 46.7-120.345-8.157-11.885-28.91-19.315-60.783-31.2-28.36-10.577-44.982-22.92-52.478-25.511-.927-.318 4.177 39.156-48.703 39.156z" fill="#B6162C"/><path d="M467.353 195.129a338.826 338.826 0 012.667 7.9c-4.445 13.375-45.208 40.86-85.232 37.885a426.424 426.424 0 00-2.835-7.52c20.795-1.358 37.993-5.637 51.594-12.837 13.428-7.11 24.697-15.585 33.806-25.428zm-435.698.036c9.103 9.828 20.36 18.291 33.772 25.392 13.611 7.205 30.824 11.485 51.64 12.84a426.42 426.42 0 00-2.835 7.517c-40.024 2.975-80.787-24.51-85.232-37.885.836-2.585 1.723-5.21 2.655-7.864zm276.197-171.82C302.08 20.105 298.124 18 295.844 18c0 0 1.787 9.871-5.352 18.733-5.814 7.216-17.546 15.647-40.983 15.647-21.8 0-33.363-8.444-39.49-15.668C202.512 27.856 203.174 18 203.174 18c-2.28 0-6.235 2.105-12.002 5.345 0 0 7.368 40.38 58.402 40.38 51.479 0 58.279-35.895 58.279-40.38z" fill="#2F6EC3"/><path d="M249.509 50.495c23.73 0 35.462-6.712 41.199-14.034l3.191.839c45.286 11.339 71.551 39.427 71.551 68.16v68.857c-.455 6.628-.7 13.712-.7 21.286v271.142s-43.162 13.71-107.735 14.788c-2.595.042-5.225.065-7.888.065-64.901 0-114.388-14.707-114.881-14.854l.004-361.284c0-28.451 25.751-56.27 70.222-67.817l5.219-1.327c6.037 7.379 17.622 14.179 39.818 14.179z" fill="#C40E28"/><path d="M413.584 238.323c-9.287 2.238-19.064 3.316-28.798 2.592-8.197-22.369-15.557-36.883-20.012-44.748v270.577s-21.102 6.71-55.867 11.11l-.544-.059c1.881-54.795 5.722-166.47 8.277-240.705 2.055-59.755 31.084-95.29 60.099-117.44-2.676 6.78-5.072 14.606-7 23.667 7.354 11.852 24.436 42.069 43.831 94.964l.014.042zM190.717 477.795c-34.248-4.401-56.477-11.05-56.477-11.05V196.171c-4.456 7.867-11.813 22.38-20.01 44.743-9.632.716-19.308-.332-28.51-2.523.005-.033.012-.065.02-.097 19.377-52.848 36.305-83.066 43.61-94.944-1.93-9.075-4.328-16.912-7.007-23.701 29.015 22.15 58.044 57.685 60.1 117.44 2.554 74.235 6.395 185.91 8.276 240.705h-.002z" fill-opacity=".1" fill="#000"/><path d="M327 120.9V145c0 7.582-6 15.582-18 24-12-8.42-18-16.42-18-24v-24.1a5.006 5.006 0 003.9-3.9h28.2a5.006 5.006 0 003.9 3.9z" fill="#FFF"/><path d="M309 166c-9.407-6.997-14.666-13.687-15.777-20.069 2.225 4.833 7.484 9.856 15.777 15.069 8.294-5.212 13.553-10.235 15.777-15.069-1.11 6.383-6.37 13.073-15.777 20.069z" fill="#0060B1"/><path d="M325 122.659v17.88c0 5.832-5.333 11.986-16 18.461-10.667-6.477-16-12.63-16-18.462v-17.88a6.017 6.017 0 003.659-3.658h24.682a6.017 6.017 0 003.66 3.659z" fill="#EE1527"/><path d="M317.7 127.25c-.958.5-4.18 3.819-3.098 7.37.003.011-.007.014-.002.03 1.368 5.538-.108 5.58-1.146 5.85.007-.152.019-.308.007-.468a3.144 3.144 0 00-2.259-2.765 3.322 3.322 0 00.981-2.628 3.298 3.298 0 00-.816-1.918c.816-1.358 1.851-.998 2.354-4.194.254-1.616.015-2.788-.595-3.526-.397-.482-.288-1.149.328-2.001h-5.779c.755.983.993 1.563.716 1.741a4.364 4.364 0 00-1.996 4.03 4.348 4.348 0 001.49 2.938c-.463.14-.873.384-1.227.695-.805-.786-1.54-2.192-1.382-4.8.076-1.253-1.199-2.185-2.453-2.082a2.273 2.273 0 00-2.084 2.452c.083 1.022 1.707 4.926 5.038 5.647a2.044 2.044 0 00-.086.23c-2.915-.227-2.925-1.708-4.047-1.617a2.598 2.598 0 00-2.38 2.8c.116 1.434 1.408 2.725 2.802 2.384a22.019 22.019 0 003.694-1.266c.156.373.843 1.439 1.11 1.73a2.31 2.31 0 00-1.535-.466 2.09 2.09 0 00-1.912 2.251c.045.538.293 1.008.659 1.352-.58.215-1.137.41-1.538.444-1.33.108-2.712.575-2.605 1.905a2.419 2.419 0 002.605 2.211c1.232-.1 3.734-3.558 4.004-5.122.47-.15.889-.136 1.127.605.401 1.25-.888 1.671-.804 2.722.076.945.907 1.65 1.85 1.573.079-.007.146-.048.22-.064-.475.864-1.447 2-3.539 3.362-1.182.769 1.347 2.452 2.753 2.34 1.407-.115 1.798-1.151 2.758-2.183 1.428-1.528 3.582-3.739-.628-5.231 0-.027.012-.048.01-.077-.003-.026-.02-.047-.022-.074.1.003.198.015.299.005a3.126 3.126 0 001.96-.92c1.547.401 2.562-.08 3.714-.754 2.23-1.304 1.79-3.839 2.23-5.609.464-1.871 1.295-1.825 1.627-3.748.207-1.2-.874-1.75-1.31-.532-.657 1.837-1.424 6.586-1.543 6.299-1.016-2.45-2.397-4.993-.772-6.462 2.85-2.578 2.336-5.04 1.221-4.458z" fill="#F9F5F4"/></g></svg>