<?xml version="1.0" encoding="UTF-8"?><svg width="500" height="500" viewBox="0 0 500 500" fill="none" xmlns="http://www.w3.org/2000/svg"><path fill-rule="evenodd" clip-rule="evenodd" d="M203.003 109.223h93.644V21.928h-93.644v87.295z" fill="#0B644F"/><path fill-rule="evenodd" clip-rule="evenodd" d="M202.864 32.228h93.458v-14.2h-93.458v14.2z" fill="#DCBB47"/><path fill-rule="evenodd" clip-rule="evenodd" d="M87.5475 75.2585S46.7848 148.058 29 203.028c4.4449 13.375 45.2077 40.861 85.232 37.885 13.34-36.399 24.46-52 24.46-52s2.963-95.0845-51.1445-113.6545zm323.9255 0s40.763 72.7995 58.548 127.7695c-4.445 13.375-45.208 40.861-85.233 37.885-13.339-36.399-24.459-52-24.459-52s-2.964-95.0845 51.144-113.6545z" fill="#0C7058"/><path fill-rule="evenodd" clip-rule="evenodd" d="M249.511 57.7025c-50.082 0-47.798-39.4691-48.743-39.14-7.516 2.6187-24.132 14.9368-52.438 25.495-31.873 11.885-52.6261 19.315-60.7826 31.2 11.1148 8.915 46.6946 28.9705 46.6946 120.3455v271.14s49.657 14.855 114.885 14.855c68.929 0 115.648-14.855 115.648-14.855v-271.14c0-91.375 35.58-111.4305 46.699-120.3455-8.156-11.885-28.909-19.315-60.782-31.2-28.36-10.5767-44.982-22.9194-52.478-25.5087-.927-.3203 4.177 39.1537-48.703 39.1537z" fill="#0C7058"/><path fill-rule="evenodd" clip-rule="evenodd" d="M307.851 23.345c-5.772-3.24-9.728-5.345-12.007-5.345 0 0 5.881 32.495-46.336 32.495-48.52 0-46.335-32.495-46.335-32.495-2.28 0-6.236 2.105-12.003 5.345 0 0 7.369 40.38 58.403 40.38 51.479 0 58.278-35.895 58.278-40.38z" fill="#F3CF4F"/><path fill-rule="evenodd" clip-rule="evenodd" d="M413.584 238.323c-9.287 2.238-19.064 3.316-28.797 2.592-8.198-22.369-15.558-36.883-20.013-44.748v270.577s-21.102 6.71-55.866 11.111l-.544-.06c1.88-54.795 5.722-166.47 8.276-240.705 2.055-59.755 31.085-95.29 60.099-117.44-2.675 6.781-5.072 14.606-6.999 23.667 7.354 11.852 24.435 42.069 43.83 94.964.005.014.01.028.014.042zM190.717 477.795c-34.248-4.401-56.476-11.051-56.476-11.051V196.172c-4.456 7.867-11.814 22.379-20.01 44.743-9.633.716-19.3089-.332-28.5108-2.523a1.01 1.01 0 01.0199-.097c19.3769-52.848 36.3059-83.066 43.6099-94.944-1.929-9.075-4.328-16.912-7.006-23.701 29.014 22.15 58.043 57.685 60.099 117.44 2.554 74.235 6.395 185.91 8.276 240.705h-.002z" fill="#000" fill-opacity=".06"/><path fill-rule="evenodd" clip-rule="evenodd" d="M309 166c12.703 0 23-10.297 23-23s-10.297-23-23-23-23 10.297-23 23 10.297 23 23 23z" fill="#F3C82E"/><path fill-rule="evenodd" clip-rule="evenodd" d="M309 164c11.598 0 21-9.402 21-21s-9.402-21-21-21-21 9.402-21 21 9.402 21 21 21z" fill="#0C7058"/><path opacity=".5" fill-rule="evenodd" clip-rule="evenodd" d="M309 162c10.493 0 19-8.507 19-19s-8.507-19-19-19-19 8.507-19 19 8.507 19 19 19z" fill="#F3C82E"/><path d="M315.11 148.425c1.503-1.753 3.284-4.15 3.284-6.794 0-5.371-1.576-10.631-9.394-10.631-7.987 0-9.394 5.26-9.394 10.631 0 2.544 1.712 4.859 3.115 6.592.083.376.183.769.288 1.178.309 1.209.991 2.553.991 3.968 0 5.29 4 5.631 5 5.631s5-.341 5-5.631c0-1.362.621-2.658.877-3.831.084-.385.165-.756.233-1.113z" fill="#F3C82E"/><path d="M309.433 147.013l-.175.987-.258 1.5-.257-1.5-.175-.987-3.325-1.952 3.757.976 3.758-.976-3.325 1.952zm-2.781-7.665c0 .182 0 .26-.03.273-.021.01-.059-.014-.124-.057-.201-.132-.663-.435-1.725-.435-1.879 0-2.818-.22-2.818-.659 0-.44 1.521-.44 2.818-.44 1.297 0 1.879.59 1.879 1.318zm4.61-.219c0 .372.023.364.295.267.261-.093.752-.267 1.671-.267 1.879 0 2.818-.22 2.818-.659 0-.44-1.521-.44-2.818-.44-1.297 0-1.966.371-1.966 1.099z" fill="#0C7058"/></svg>