<?xml version="1.0" encoding="UTF-8"?><svg width="500" height="500" viewBox="0 0 500 500" fill="none" xmlns="http://www.w3.org/2000/svg"><path fill-rule="evenodd" clip-rule="evenodd" d="M203.003 109.223h93.644V21.928h-93.644v87.295z" fill="#C0A931"/><path fill-rule="evenodd" clip-rule="evenodd" d="M202.864 32.228h93.458v-14.2h-93.458v14.2z" fill="#E0C63B"/><path fill-rule="evenodd" clip-rule="evenodd" d="M87.5475 75.2585S46.7848 148.058 29 203.028c4.4449 13.375 45.2077 40.86 85.232 37.885 13.34-36.4 24.46-52 24.46-52s2.963-95.0845-51.1445-113.6545zm323.9255 0s40.763 72.7995 58.548 127.7695c-4.445 13.375-45.208 40.86-85.233 37.885-13.339-36.4-24.459-52-24.459-52s-2.964-95.0845 51.144-113.6545z" fill="#DAC037"/><path fill-rule="evenodd" clip-rule="evenodd" d="M249.511 57.7025c-50.082 0-47.798-39.4691-48.743-39.14-7.516 2.6187-24.132 14.9368-52.438 25.495-31.873 11.885-52.6261 19.315-60.7826 31.2 11.1148 8.915 46.6946 28.9695 46.6946 120.3445v271.14s49.657 14.856 114.885 14.856c68.929 0 115.648-14.856 115.648-14.856v-271.14c0-91.375 35.58-111.4295 46.699-120.3445-8.156-11.885-28.909-19.315-60.782-31.2-28.36-10.5767-44.982-22.9195-52.478-25.5087-.927-.3203 4.177 39.1537-48.703 39.1537z" fill="#DAC037"/><path fill-rule="evenodd" clip-rule="evenodd" d="M249.509 50.4987c23.731 0 35.462-6.7117 41.199-14.0345l3.191.8392c45.286 11.3389 71.551 39.4269 71.551 68.1606v68.857c-.455 6.628-.7 13.712-.7 21.286v271.141s-43.162 13.71-107.735 14.788c-2.595.043-5.225.065-7.888.065-64.901 0-114.388-14.707-114.881-14.854l.004-361.283c0-28.4515 25.751-56.2698 70.222-67.8174l5.219-1.3266c6.037 7.3787 17.622 14.1787 39.818 14.1787z" fill="#EED240"/><path fill-rule="evenodd" clip-rule="evenodd" d="M467.353 195.129c.936 2.667 1.828 5.303 2.668 7.899-4.445 13.375-45.208 40.86-85.232 37.885-.958-2.613-1.904-5.119-2.836-7.519 20.795-1.358 37.993-5.637 51.595-12.837 13.428-7.109 24.696-15.585 33.805-25.428zm-435.6983.036c9.1031 9.828 20.3606 18.291 33.7724 25.392 13.6109 7.205 30.8241 11.485 51.6389 12.84-.931 2.399-1.877 4.904-2.834 7.517-40.0243 2.975-80.7871-24.51-85.232-37.885.8363-2.585 1.7234-5.21 2.6547-7.864z" fill="#26A843"/><path fill-rule="evenodd" clip-rule="evenodd" d="M307.851 23.345c-5.772-3.24-9.728-5.345-12.007-5.345 0 0 5.881 32.495-46.336 32.495-48.52 0-46.335-32.495-46.335-32.495-2.28 0-6.236 2.105-12.003 5.345 0 0 7.369 40.38 58.403 40.38 51.479 0 58.278-35.895 58.278-40.38z" fill="#EED240"/><path fill-rule="evenodd" clip-rule="evenodd" d="M413.584 238.323c-9.287 2.238-19.064 3.316-28.797 2.592-8.198-22.369-15.558-36.883-20.013-44.748v270.577s-21.102 6.71-55.866 11.111l-.544-.06c1.88-54.795 5.722-166.47 8.276-240.705 2.055-59.755 31.085-95.29 60.099-117.44-2.675 6.781-5.072 14.606-6.999 23.667 7.354 11.852 24.435 42.069 43.83 94.964.005.014.01.028.014.042zM190.717 477.795c-34.248-4.401-56.476-11.051-56.476-11.051V196.172c-4.456 7.867-11.814 22.379-20.01 44.743-9.633.716-19.3089-.332-28.5108-2.523.0051-.032.0117-.065.0199-.097 19.3769-52.848 36.3059-83.066 43.6099-94.944-1.929-9.075-4.328-16.912-7.006-23.701 29.014 22.15 58.043 57.685 60.099 117.44 2.554 74.235 6.395 185.91 8.276 240.705h-.002z" fill="#000" fill-opacity=".06"/><path fill-rule="evenodd" clip-rule="evenodd" d="M294.434 122h30v9.154c0 13.077-15 24.846-15 24.846s-15-11.769-15-24.846V122z" fill="#D1B833"/><path fill-rule="evenodd" clip-rule="evenodd" d="M301.434 130.615l-.031-2h5.028l.069-2h6v2h4.934v2h5c0 12.308-13 23.385-13 23.385s-13-11.077-13-23.385h5z" fill="#158822"/><rect x="305.434" y="130" width="8" height="9" rx="4" fill="#EAEAEA"/><path fill-rule="evenodd" clip-rule="evenodd" d="M296.434 153.186s-5.829-1.501-9-7.186l-.639 2.852L282 147.09s5.32 8.792 10.865 10.279l3.569-4.183zm26 0s5.829-1.501 9-7.186l.638 2.852 4.795-1.762s-5.32 8.792-10.864 10.279l-3.569-4.183z" fill="#D1B833"/><path fill-rule="evenodd" clip-rule="evenodd" d="M295.297 153.392s-4.698-.708-7.449-5.301l-.414 1.826-3.508-1.281s3.397 5.899 8.941 7.387l2.43-2.631zm28.385 0s4.699-.708 7.45-5.301l.414 1.826 3.508-1.281s-3.457 5.899-9.002 7.387l-2.37-2.631z" fill="#158822"/><path fill-rule="evenodd" clip-rule="evenodd" d="M288.635 152.519l7.798.667-2 2.836-5.798-3.503zm41.597 0l-7.798.667 2 2.836 5.798-3.503z" fill="#D1B833"/><path fill-rule="evenodd" clip-rule="evenodd" d="M330.226 152.519v5.96c-8 3.334-12.833 5.214-20.853 5.214-8.02 0-12.738-1.777-20.738-5.11v-6.064c2.798 1 12.31 5.4 20.798 5.4 8.489 0 17.94-4.4 20.793-5.4z" fill="#D1B833"/><path fill-rule="evenodd" clip-rule="evenodd" d="M329.373 153.939v4c-8 3.334-11.98 4.754-20 4.754s-11.939-1.42-19.939-4.754v-4c7.771 3.238 11.478 4.918 20 4.979 8.521.062 11.559-1.551 19.257-4.697l.682-.282z" fill="#158822"/><path d="M315.434 134v3.2c0 2.378-2.73 4.353-5 4.734V142h-.004v4h.004v3h-2v-4h-.004v-2h.004v-1.066c-2.27-.381-5-2.355-5-4.734V134h12z" fill="#FCDB28"/><path d="M311.43 145h2.004c1.104 0 2-.895 2-2h-4.004v2zm-4-2v2h-1.996c-1.055 0-1.919-.816-1.995-1.851l-.005-.149h3.996z" fill="#FCDB28"/></svg>