<?xml version="1.0" encoding="UTF-8"?><svg width="500" height="500" xmlns="http://www.w3.org/2000/svg"><g fill="none" fill-rule="evenodd"><path d="M0 0h500v500H0z"/><path fill="#840D23" d="M203.003 109.223h93.643V21.928h-93.643z"/><path fill="#12411D" d="M202.864 32.228h93.458v-14.2h-93.458z"/><path d="M87.548 75.258S46.785 148.058 29 203.029c4.445 13.376 45.208 40.86 85.232 37.886 13.34-36.4 24.46-52 24.46-52S141.655 93.83 87.548 75.26m323.925-.002s40.762 72.8 58.547 127.77c-4.445 13.376-45.208 40.86-85.232 37.886-13.34-36.4-24.46-52-24.46-52s-2.963-95.085 51.145-113.655" fill="#B9233E"/><path d="M249.511 57.703c-50.082 0-47.798-39.47-48.742-39.14-7.516 2.618-24.133 14.936-52.439 25.495-31.873 11.885-52.626 19.315-60.782 31.2 11.114 8.915 46.694 28.97 46.694 120.345v271.14s49.658 14.855 114.885 14.855c68.929 0 115.648-14.855 115.648-14.855v-271.14c0-91.375 35.58-111.43 46.7-120.345-8.157-11.885-28.91-19.315-60.783-31.2-28.36-10.577-44.982-22.92-52.478-25.511-.927-.318 4.177 39.156-48.703 39.156z" fill="#B9233E"/><path d="M467.353 195.129a338.826 338.826 0 012.667 7.9c-4.445 13.375-45.208 40.86-85.232 37.885a426.424 426.424 0 00-2.835-7.52c20.795-1.358 37.993-5.637 51.594-12.837 13.428-7.11 24.697-15.585 33.806-25.428zm-435.698.036c9.103 9.828 20.36 18.291 33.772 25.392 13.611 7.205 30.824 11.485 51.64 12.84a426.42 426.42 0 00-2.835 7.517c-40.024 2.975-80.787-24.51-85.232-37.885.836-2.585 1.723-5.21 2.655-7.864zm276.197-171.82C302.08 20.105 298.124 18 295.844 18c0 0 5.881 32.495-46.335 32.495-48.52 0-46.336-32.495-46.336-32.495-2.28 0-6.235 2.105-12.002 5.345 0 0 7.368 40.38 58.402 40.38 51.479 0 58.279-35.895 58.279-40.38z" fill="#439360"/><path d="M413.584 238.323c-9.287 2.238-19.064 3.316-28.798 2.592-8.197-22.369-15.557-36.883-20.012-44.748v270.577s-21.102 6.71-55.867 11.11l-.544-.059c1.881-54.795 5.722-166.47 8.277-240.705 2.055-59.755 31.084-95.29 60.099-117.44-2.676 6.78-5.072 14.606-7 23.667 7.354 11.852 24.436 42.069 43.831 94.964l.014.042zM190.717 477.795c-34.248-4.401-56.477-11.05-56.477-11.05V196.171c-4.456 7.867-11.813 22.38-20.01 44.743-9.632.716-19.308-.332-28.51-2.523.005-.033.012-.065.02-.097 19.377-52.848 36.305-83.066 43.61-94.944-1.93-9.075-4.328-16.912-7.007-23.701 29.015 22.15 58.044 57.685 60.1 117.44 2.554 74.235 6.395 185.91 8.276 240.705h-.002z" fill-opacity=".1" fill="#000"/><path fill="#F7BA6B" fill-rule="nonzero" d="M320.568 121.093l-7.29 7.285v5.663h5.697l7.27-7.27v23.648l-7.203-7.203h-5.764v13.964l7.29 7.289h-23.649l7.185-7.189v-14.064h-5.66l-7.207 7.203V126.77l7.274 7.27h5.593v-5.76l-7.185-7.188z"/><path fill="#A31C3A" d="M319.491 142.124l5.66 5.663v-18.381l-5.727 5.726h-7.237v-7.203l5.745-5.745h-18.38l5.644 5.644v7.304h-7.14l-5.727-5.726v18.38l5.664-5.662h7.203v15.608l-5.644 5.645h18.38l-5.745-5.745v-15.508z"/><path d="M308.769 125.98c5.472 0 10.87 2.614 11.349 4.49l.122.48-.478.128a1.57 1.57 0 01-.408.046c-.326 0-.596.122-.795.356-.748.879-.65 2.763.195 8.04.752 4.677.928 6.53.508 7.86-.77 2.447-5.412 5.602-10.278 7.922l-.215.112-.217-.113c-4.843-2.325-9.488-5.49-10.282-7.923-.384-1.172-.276-3.128.2-6.53.044-.316.091-.643.151-1.054l.08-.543c.771-5.253.833-7.032.154-7.823a.85.85 0 00-.672-.304c-.203 0-.367-.023-.497-.066l-.424-.142.094-.437c.052-.247.243-.565.568-.924 1.78-1.918 5.905-3.576 10.845-3.576z" fill="#F7BA6B" fill-rule="nonzero"/><path d="M308.769 154.194c-3.502-1.715-8.74-4.933-9.462-7.155-.447-1.369.063-4.84.472-7.627.689-4.681 1.02-7.394-.1-8.7a1.978 1.978 0 00-.811-.558c1.18-1.146 4.55-3.084 9.9-3.084 5.009 0 8.559 1.987 9.812 3.103a2.062 2.062 0 00-.852.599c-1.246 1.462-.718 4.751-.048 8.919.45 2.827.96 6.035.543 7.363-.7 2.225-5.942 5.436-9.454 7.14" fill="#A31C3A"/><path d="M308.772 151.215c-3.937-2.072-6.556-4.208-6.943-5.016-.223-.948.32-4.628.58-6.4.57-3.888.998-6.775.317-8.94 1.313-.573 3.3-1.132 6.042-1.132 2.486 0 4.506.57 5.924 1.187-.737 2.333-.238 5.463.357 9.195.294 1.819.833 5.186.64 6.135-.41.826-3.13 2.984-6.917 4.971" fill="#F7BA6B"/><path d="M302.96 145.783c-.052-.71.153-2.66.618-5.812.52-3.538.908-6.165.532-8.375 1.05-.343 2.608-.685 4.658-.685 1.905 0 3.46.365 4.536.733-.42 2.411.045 5.317.58 8.647.201 1.254.715 4.476.666 5.54-.502.618-2.552 2.289-5.778 4.045-3.512-1.916-5.395-3.576-5.812-4.093z" fill="#FFF"/></g></svg>