<?xml version="1.0" encoding="UTF-8"?><svg width="500" height="500" viewBox="0 0 500 500" fill="none" xmlns="http://www.w3.org/2000/svg"><path fill-rule="evenodd" clip-rule="evenodd" d="M203.003 109.223h93.643V21.928h-93.643v87.295z" fill="#D3D0CF"/><path fill-rule="evenodd" clip-rule="evenodd" d="M202.863 32.228h93.459v-14.2h-93.459v14.2z" fill="#348F79"/><path fill-rule="evenodd" clip-rule="evenodd" d="M87.5475 75.2585S46.7848 148.059 29 203.029c4.4449 13.375 45.2077 40.86 85.232 37.885 13.34-36.4 24.46-52 24.46-52s2.963-95.0855-51.1445-113.6555zm323.9255 0s40.763 72.8005 58.548 127.7705c-4.445 13.375-45.208 40.86-85.233 37.885-13.339-36.4-24.459-52-24.459-52s-2.964-95.0855 51.144-113.6555z" fill="#F2F2F2"/><path fill-rule="evenodd" clip-rule="evenodd" d="M249.511 57.7025c-50.081 0-47.798-39.4691-48.742-39.14-7.516 2.6187-24.133 14.9368-52.439 25.495-31.873 11.885-52.6256 19.315-60.7821 31.2 11.1148 8.915 46.6941 28.9695 46.6941 120.3445v271.14s49.658 14.856 114.885 14.856c68.929 0 115.649-14.856 115.649-14.856v-271.14c0-91.375 35.579-111.4295 46.699-120.3445-8.157-11.885-28.91-19.315-60.782-31.2-28.36-10.5767-44.982-22.9195-52.479-25.5087-.927-.3203 4.178 39.1537-48.703 39.1537z" fill="#F2F2F2"/><path d="M137.095 48.1251c-25.543 9.5869-42.3919 16.581-49.5432 27.0071 0 0-8.2315 14.7601-18.8575 35.8248 0 0-28.706 57.334-39.6943 92.074 0 0 .4502 1.588 2.123 4.056 1.6729 2.468 2.8067 3.396 2.8067 3.396 12.5791-35.527 41.0947-93.181 41.0947-93.181 10.1328-20.7496 17.9453-35.2447 17.9453-35.2447 4.4639-6.7316 12.8343-12.0341 24.8503-17.5263 6.995-5.4788 13.436-10.9613 19.275-16.4059zm244.166 16.4534c-7.007-5.4855-13.459-10.9747-19.307-16.426 25.503 9.5728 42.326 16.5634 49.472 26.9798 0 0 8.23 14.76 18.856 35.8257 0 0 27.583 54.456 39.739 92.073 0 0-.738 1.976-1.459 3.088-.72 1.112-2.384 3.188-2.384 3.188-27.641-65.988-42.213-91.981-42.213-91.981-10.132-20.7497-17.957-35.2686-17.957-35.2686-4.452-6.7123-12.786-12.0036-24.747-17.4789z" fill="#379E86"/><path fill-rule="evenodd" clip-rule="evenodd" d="M467.353 195.129c.936 2.667 1.828 5.303 2.668 7.899-4.445 13.375-45.208 40.86-85.232 37.885-.958-2.613-1.904-5.119-2.836-7.519 20.795-1.358 37.993-5.637 51.595-12.837 13.428-7.109 24.696-15.585 33.805-25.428zm-435.6983.036c9.1031 9.828 20.3606 18.291 33.7724 25.392 13.6109 7.205 30.8241 11.485 51.6389 12.84-.931 2.399-1.877 4.904-2.834 7.517-40.0243 2.975-80.7871-24.51-85.232-37.885.8363-2.585 1.7234-5.21 2.6547-7.864zM307.852 23.345C302.08 20.105 298.124 18 295.844 18c0 0 5.882 32.495-46.335 32.495-48.52 0-46.335-32.495-46.335-32.495-2.28 0-6.236 2.105-12.003 5.345 0 0 7.368 40.38 58.403 40.38 51.478 0 58.278-35.895 58.278-40.38z" fill="#379E86"/><path fill-rule="evenodd" clip-rule="evenodd" d="M413.584 238.323c-9.288 2.238-19.065 3.316-28.798 2.592-8.198-22.369-15.557-36.883-20.013-44.748v270.577s-21.102 6.71-55.866 11.111l-.544-.06c1.881-54.795 5.722-166.47 8.276-240.705 2.056-59.755 31.085-95.29 60.099-117.44-2.675 6.781-5.071 14.606-6.999 23.667 7.354 11.852 24.436 42.069 43.831 94.964.005.014.01.028.014.042zM190.716 477.795c-34.248-4.401-56.476-11.051-56.476-11.051V196.172c-4.456 7.867-11.814 22.379-20.01 44.743-9.633.716-19.3084-.332-28.5103-2.523.0051-.032.0117-.065.0199-.097 19.3774-52.848 36.3054-83.066 43.6094-94.944-1.928-9.075-4.327-16.912-7.006-23.701 29.014 22.15 58.044 57.685 60.099 117.44 2.554 74.235 6.396 185.91 8.276 240.705h-.002z" fill="#000" fill-opacity=".06"/><path fill-rule="evenodd" clip-rule="evenodd" d="M309 166c12.703 0 23-10.297 23-23s-10.297-23-23-23-23 10.297-23 23 10.297 23 23 23z" fill="#379E86"/><path fill-rule="evenodd" clip-rule="evenodd" d="M309 164c11.598 0 21-9.402 21-21s-9.402-21-21-21-21 9.402-21 21 9.402 21 21 21z" fill="#F2F2F2"/><path d="M300.741 131.695l-2.511-4.35c-4.972 3.427-8.23 9.161-8.23 15.655 0 6.133 2.906 11.588 7.417 15.062l2.53-4.382c-3.026-2.568-4.947-6.4-4.947-10.68 0-4.643 2.26-8.758 5.741-11.305z" fill="#379E86"/><path d="M322.984 143.676l4.913 1.317c.068-.655.103-1.32.103-1.993 0-10.493-8.506-19-19-19-2.569 0-5.019.51-7.255 1.434l2.531 4.383c1.476-.529 3.066-.817 4.724-.817 7.732 0 14 6.268 14 14 0 .227-.005.452-.016.676z" fill="#E8D319"/><path d="M322.222 147.613C320.315 153.079 315.116 157 309 157c-2.015 0-3.931-.426-5.663-1.193l-2.511 4.35c2.476 1.181 5.248 1.843 8.174 1.843 8.43 0 15.578-5.49 18.063-13.09l-4.841-1.297z" fill="#DC6565"/><path fill-rule="evenodd" clip-rule="evenodd" d="M309 154c3.071 0 5.5-3 5.5-5.5 0-3.5 4-5 4-7 0-1.305-1.149-2.504-3-4.5-.937-1.011-1.15-2.321-2-3.347-.786-.948-1.691-1.653-3-1.653-2.987 0-5.726.665-8 3.5-1.556 1.939-3.5 4.71-3.5 7.5s.444 4.061 2 6c1.832 2.284 3 5 8 5z" fill="#D9D9D9"/><path d="M310.945 153.589c-.603.261-1.258.411-1.945.411-4.278 0-5.751-1.989-7.235-3.994-.25-.338-.5-.677-.765-1.006-1.359-1.694-2-3-1.977-5.11l10.018-7.284 1.904 16.983z" fill="#D8CD6A"/><path d="M317.698 143.161L311.5 141.5l-2.163-2 .232 14.466c2.797-.339 4.931-3.122 4.931-5.466 0-1.993 1.298-3.338 2.415-4.496.28-.29.549-.569.783-.843z" fill="#69A496"/><path d="M313.408 133.544l-14.389 10.364c-.013-.285-.019-.586-.019-.908 0-2.79 1.944-5.561 3.5-7.5 2.274-2.835 5.013-3.5 8-3.5 1.258 0 2.143.651 2.908 1.544z" fill="#D98484"/></svg>