<?xml version="1.0" encoding="UTF-8"?><svg width="500" height="500" viewBox="0 0 500 500" fill="none" xmlns="http://www.w3.org/2000/svg"><path fill-rule="evenodd" clip-rule="evenodd" d="M203.003 109.223h93.643V21.928h-93.643v87.295z" fill="#DEBA3A"/><path fill-rule="evenodd" clip-rule="evenodd" d="M202.863 32.2281h93.459v-14.2h-93.459v14.2z" fill="#A53B34"/><path fill-rule="evenodd" clip-rule="evenodd" d="M87.5475 75.2585S46.7848 148.059 29 203.029c4.4449 13.375 45.2077 40.86 85.232 37.885 13.34-36.4 24.46-52 24.46-52s2.963-95.0855-51.1445-113.6555zm323.9255 0s40.763 72.8005 58.548 127.7705c-4.445 13.375-45.208 40.86-85.233 37.885-13.339-36.4-24.459-52-24.459-52s-2.964-95.0855 51.144-113.6555z" fill="#F0CD4F"/><path fill-rule="evenodd" clip-rule="evenodd" d="M249.511 57.7025c-50.081 0-47.798-39.4691-48.742-39.14-7.516 2.6187-24.133 14.9368-52.439 25.495-31.873 11.885-52.6256 19.315-60.7821 31.2 11.1148 8.915 46.6941 28.9695 46.6941 120.3445v271.14s49.658 14.856 114.885 14.856c68.929 0 115.649-14.856 115.649-14.856v-271.14c0-91.375 35.579-111.4295 46.699-120.3445-8.157-11.885-28.91-19.315-60.782-31.2-28.36-10.5767-44.982-22.9195-52.479-25.5087-.927-.3203 4.178 39.1537-48.703 39.1537z" fill="#F0CD4F"/><path fill-rule="evenodd" clip-rule="evenodd" d="M307.852 23.345C302.08 20.105 298.124 18 295.844 18c0 0 5.882 32.495-46.335 32.495-48.52 0-46.335-32.495-46.335-32.495-2.28 0-6.236 2.105-12.003 5.345 0 0 7.368 40.38 58.403 40.38 51.478 0 58.278-35.895 58.278-40.38z" fill="#BA423A"/><path d="M384.455 103.665C332.363 105.441 256.205 108 250 108c-6.244 0-83.346-2.592-135.457-4.369 4.18 6.964 8.154 15.595 11.423 26.393C177.111 131.766 243.899 134 250 134c6.063 0 72.029-2.205 123.041-3.942 3.266-10.796 7.236-19.428 11.414-26.393z" fill="#207E34"/><path d="M367.983 152.225C317.654 153.933 255.576 156 250 156c-5.613 0-68.47-2.094-118.972-3.808 1.286 7.847 2.237 16.514 2.759 26.098C183.671 179.985 244.205 182 250 182c5.757 0 65.536-1.989 115.228-3.676.521-9.584 1.471-18.251 2.755-26.099z" fill="#C94138"/><path fill-rule="evenodd" clip-rule="evenodd" d="M413.584 238.323c-9.288 2.238-19.065 3.316-28.798 2.592-8.198-22.369-15.557-36.883-20.013-44.748v270.577s-21.102 6.71-55.866 11.111l-.544-.06c1.881-54.795 5.722-166.47 8.276-240.705 2.056-59.755 31.085-95.29 60.099-117.44-2.675 6.781-5.071 14.606-6.999 23.667 7.354 11.852 24.436 42.069 43.831 94.964.005.014.01.028.014.042zM190.716 477.795c-34.248-4.401-56.476-11.051-56.476-11.051V196.172c-4.456 7.867-11.814 22.379-20.01 44.743-9.633.716-19.3084-.332-28.5103-2.524a1.056 1.056 0 01.0199-.096c19.3774-52.848 36.3054-83.066 43.6094-94.944-1.928-9.075-4.327-16.912-7.006-23.701 29.014 22.15 58.044 57.685 60.099 117.44 2.554 74.235 6.396 185.91 8.276 240.705h-.002z" fill="#000" fill-opacity=".06"/><path d="M308.716 166c-4.537 0-18.716-2.211-18.716-12.158s3.403-14.368 3.403-19.342c0-4.974-1.134-10.5-1.134-10.5h32.895s-1.134 5.526-1.134 10.5 3.97 10.058 3.97 19.342c0 9.284-14.746 12.158-19.284 12.158z" fill="#EFC840"/><path d="M303 126.701v35.829c-4.757-1.185-10.264-3.963-10.264-9.825 0-5.078.992-8.503 1.813-11.34.581-2.007 1.077-3.719 1.077-5.514 0-4.334-.964-9.15-.964-9.15H303z" fill="#207E34"/><path d="M314 162.505v-35.804h8.592s-.963 4.816-.963 9.15c0 1.831.602 3.68 1.297 5.815.95 2.917 2.074 6.368 2.074 11.039 0 5.611-6.023 8.535-11 9.8z" fill="#C94138"/></svg>