<?xml version="1.0" encoding="utf-8"?><svg width="500" height="500" viewBox="0 0 500 500" fill="none" xmlns="http://www.w3.org/2000/svg"><path fill-rule="evenodd" clip-rule="evenodd" d="M203.003 109.223h93.644V21.928h-93.644v87.295z" fill="#125E3A"/><path fill-rule="evenodd" clip-rule="evenodd" d="M202.864 32.228h93.458v-14.2h-93.458v14.2z" fill="#BCB627"/><path fill-rule="evenodd" clip-rule="evenodd" d="M87.5475 75.2585S46.7848 148.058 29 203.028c4.4449 13.375 45.2077 40.861 85.232 37.885 13.34-36.399 24.46-52 24.46-52s2.963-95.0845-51.1445-113.6545zm323.9245 0s40.763 72.7995 58.548 127.7695c-4.445 13.375-45.208 40.861-85.232 37.885-13.34-36.399-24.46-52-24.46-52s-2.963-95.0845 51.144-113.6545z" fill="#207E51"/><path fill-rule="evenodd" clip-rule="evenodd" d="M249.511 57.7025c-50.082 0-47.798-39.4691-48.743-39.14-7.516 2.6187-24.132 14.9368-52.438 25.495-31.873 11.885-52.6261 19.315-60.7826 31.2 11.1148 8.915 46.6946 28.9705 46.6946 120.3455v271.14s49.657 14.855 114.885 14.855c68.929 0 115.648-14.855 115.648-14.855v-271.14c0-91.375 35.58-111.4305 46.699-120.3455-8.156-11.885-28.909-19.315-60.782-31.2-28.36-10.5767-44.982-22.9194-52.478-25.5087-.927-.3203 4.177 39.1537-48.703 39.1537z" fill="#207E51"/><path fill-rule="evenodd" clip-rule="evenodd" d="M467.461 195.302c.936 2.667 1.828 5.303 2.668 7.9-4.445 13.375-45.208 40.86-85.233 37.885-.957-2.614-1.903-5.12-2.835-7.52 20.795-1.358 37.993-5.637 51.594-12.837 13.429-7.109 24.697-15.585 33.806-25.428zm-435.8063 0c9.1031 9.828 20.3606 18.291 33.7724 25.392 13.6109 7.205 30.8241 11.485 51.6389 12.84-.931 2.399-1.877 4.904-2.834 7.516-40.0243 2.975-80.7871-24.51-85.232-37.885.8363-2.584 1.7234-5.209 2.6547-7.863z" fill="#D3CC39"/><path fill-rule="evenodd" clip-rule="evenodd" d="M307.851 23.345c-5.772-3.24-9.728-5.345-12.007-5.345 0 0 5.881 32.495-46.336 32.495-48.52 0-46.335-32.495-46.335-32.495-2.28 0-6.236 2.105-12.003 5.345 0 0 7.369 40.38 58.403 40.38 51.479 0 58.278-35.895 58.278-40.38z" fill="#D3CD39"/><path fill-rule="evenodd" clip-rule="evenodd" d="M413.584 238.323c-9.287 2.238-19.064 3.316-28.797 2.592-8.198-22.369-15.558-36.883-20.013-44.748v270.577s-21.102 6.71-55.866 11.111l-.544-.06c1.88-54.795 5.722-166.47 8.276-240.705 2.055-59.755 31.085-95.29 60.099-117.44-2.675 6.781-5.072 14.606-6.999 23.667 7.354 11.852 24.435 42.069 43.83 94.964.005.014.01.028.014.042zM190.717 477.795c-34.248-4.401-56.476-11.051-56.476-11.051V196.172c-4.456 7.867-11.814 22.379-20.01 44.743-9.633.716-19.3089-.332-28.5108-2.523a1.01 1.01 0 01.0199-.097c19.3769-52.848 36.3059-83.066 43.6099-94.944-1.929-9.075-4.328-16.912-7.006-23.701 29.014 22.15 58.043 57.685 60.099 117.44 2.554 74.235 6.395 185.91 8.276 240.705h-.002z" fill="#000" fill-opacity=".1"/><path d="M314.55 163.729l2.872-.357c.633-.083.968-.139 1.555-.244 6.118-1.091 9.725-3.864 10.136-9.786.344-4.963-.333-7.728-2.316-11.707l-.398-.785c-.694-1.364-1.035-2.118-1.336-3.029-.716-2.168.213-4.64 3.354-7.543.317-.293 1.01-1.006 1.01-1.006l-5.001-4.759-1.099.504c-2.001.843-3.998 1.264-5.986 1.264-1.988 0-7.173-1.609-7.173-1.609s-5.011 1.609-7.124 1.609c-2.114 0-4.239-.476-6.39-1.44l-.924-.515-5.156 4.668 1.285 1.284c3.141 2.903 4.178 5.375 3.463 7.543-.28.846-.594 1.556-1.193 2.745l-.346.68c-2.134 4.192-2.867 6.973-2.511 12.096.403 5.816 3.89 8.595 9.81 9.726l1.038.183c.441.07.885.129 1.779.239l1.936.239c.437.058 4.357.068 4.357 1.656 0-1.594 3.964-1.604 4.358-1.656z" fill="#fff"/><path fill-rule="evenodd" clip-rule="evenodd" d="M324.524 126.522l2.693 2.413c-3.617 3.344-4.939 6.495-3.963 9.452 1.464 4.435 4.532 6.637 3.963 14.83-.759 10.938-15.099 6.99-16.991 10.178l-.035.062-.033-.063c-1.895-3.186-16.233.76-16.991-10.177-.569-8.193 2.499-10.395 3.963-14.83.975-2.957-.346-6.108-3.963-9.452l2.693-2.413c2.395 1.073 4.789 1.609 7.183 1.609 2.371 0 4.743-.526 7.114-1.578v-.031l.035.016.035-.016v.031c2.371 1.052 4.742 1.578 7.113 1.578 2.254 0 4.507-.475 6.761-1.425l.423-.184z" fill="#3D3D3D"/><path fill-rule="evenodd" clip-rule="evenodd" d="M324.13 128.026l1.108.925c-3.316 3.015-4.568 7.047-3.674 9.713 1.342 4 4.607 6.044 4.085 13.432-.695 9.862-13.841 6.302-15.575 9.176l-.032.057-.031-.057c-1.736-2.873-14.879.685-15.575-9.176-.521-7.388 3.584-9.432 4.001-13.432.894-2.666-.273-6.698-3.589-9.713l1.108-.925c2.195.967 5.339 1.451 7.534 1.451 2.174 0 4.347-.475 6.52-1.423l.001-.028.032.014.032-.014v.028c2.174.948 4.347 1.423 6.521 1.423 2.289 0 5.448-.559 7.534-1.451z" fill="#F2F2F2"/><rect x="315.551" y="138.202" width="5.5504" height="13.8761" rx="2.3127" fill="#7E303A"/><rect x="310.925" y="136.352" width="5.5504" height="13.8761" rx="2.3127" fill="#EADB52"/><circle cx="307.225" cy="144.677" r="7.4006" fill="#F2F2F2"/><path d="M307.216 142.827l-1.841 1.203.74 2.497h2.22l.74-2.497-1.859-1.203z" fill="#3D3D3D"/><path fill-rule="evenodd" clip-rule="evenodd" d="M307.225 152.078c4.087 0 7.4-3.313 7.4-7.401 0-4.087-3.313-7.4-7.4-7.4s-7.401 3.313-7.401 7.4c0 4.088 3.314 7.401 7.401 7.401zm6.578-7.401c0 1.385-.428 2.669-1.158 3.729l-.359-1-1.574.751-.761 1.584 1.02.344c-1.063.738-2.354 1.171-3.746 1.171-1.391 0-2.68-.432-3.743-1.168l1.016-.347-.76-1.584-1.575-.751-.35 1.013c-.735-1.063-1.166-2.352-1.166-3.742 0-.503.056-.992.163-1.463l.572.864 1.327-1.133.324-1.727-1.28-.193c.979-1.465 2.531-2.514 4.336-2.828l-.509 1.224 1.658.582 1.644-.582-.495-1.22c1.793.32 3.335 1.367 4.31 2.824l-1.466.193.324 1.727 1.327 1.133.761-.849c.105.466.16.951.16 1.448z" fill="#3D3D3D"/><path d="M310 116l1.335 2.788 3.064.408-2.239 2.131.559 3.04-2.719-1.471-2.718 1.471.558-3.04-2.239-2.131 3.064-.408L310 116z" fill="#EC5151"/></svg>