<?xml version="1.0" encoding="UTF-8"?><svg width="500" height="500" viewBox="0 0 500 500" fill="none" xmlns="http://www.w3.org/2000/svg"><path fill-rule="evenodd" clip-rule="evenodd" d="M203.003 109.223h93.644V21.928h-93.644v87.295z" fill="#A32828"/><path fill-rule="evenodd" clip-rule="evenodd" d="M202.864 32.228h93.458v-14.2h-93.458v14.2z" fill="#AD2B2B"/><path fill-rule="evenodd" clip-rule="evenodd" d="M87.5475 75.2585S46.7848 148.058 29 203.028c4.4449 13.375 45.2077 40.86 85.232 37.885 13.34-36.4 24.46-52 24.46-52s2.963-95.0845-51.1445-113.6545zm323.9245 0s40.763 72.7995 58.548 127.7695c-4.445 13.375-45.208 40.86-85.232 37.885-13.34-36.4-24.46-52-24.46-52s-2.963-95.0845 51.144-113.6545z" fill="#CF3636"/><path fill-rule="evenodd" clip-rule="evenodd" d="M249.511 57.7025c-50.082 0-47.798-39.4691-48.743-39.14-7.516 2.6187-24.132 14.9368-52.438 25.495-31.873 11.885-52.6261 19.315-60.7826 31.2 11.1148 8.915 46.6946 28.9695 46.6946 120.3445v271.14s49.657 14.856 114.885 14.856c68.929 0 115.648-14.856 115.648-14.856v-271.14c0-91.375 35.58-111.4295 46.699-120.3445-8.156-11.885-28.909-19.315-60.782-31.2-28.36-10.5767-44.982-22.9195-52.478-25.5087-.927-.3203 4.177 39.1537-48.703 39.1537z" fill="#CF3636"/><path fill-rule="evenodd" clip-rule="evenodd" d="M467.353 195.129c.936 2.667 1.827 5.303 2.667 7.899-4.445 13.375-45.208 40.86-85.232 37.885-.958-2.613-1.904-5.119-2.835-7.519 20.795-1.358 37.993-5.637 51.594-12.837 13.428-7.109 24.697-15.585 33.806-25.428zm-435.6983.036c9.1031 9.828 20.3606 18.291 33.7724 25.392 13.6109 7.205 30.8241 11.485 51.6389 12.84-.931 2.399-1.877 4.904-2.834 7.517-40.0243 2.975-80.7871-24.51-85.232-37.885.8363-2.585 1.7234-5.21 2.6547-7.864zM307.851 23.345c-5.772-3.24-9.728-5.345-12.007-5.345 0 0 5.881 32.495-46.336 32.495-48.52 0-46.335-32.495-46.335-32.495-2.28 0-6.236 2.105-12.003 5.345 0 0 7.369 40.38 58.403 40.38 51.479 0 58.278-35.895 58.278-40.38z" fill="#C33232"/><path fill-rule="evenodd" clip-rule="evenodd" d="M413.584 238.323c-9.287 2.238-19.064 3.316-28.797 2.592-8.198-22.369-15.558-36.883-20.013-44.748v270.577s-21.102 6.71-55.866 11.111l-.544-.06c1.88-54.795 5.722-166.47 8.276-240.705 2.055-59.755 31.085-95.29 60.099-117.44-2.675 6.781-5.072 14.606-6.999 23.667 7.354 11.852 24.435 42.069 43.83 94.964.005.014.01.028.014.042zM190.717 477.795c-34.248-4.401-56.476-11.051-56.476-11.051V196.172c-4.456 7.867-11.814 22.379-20.01 44.743-9.633.716-19.3089-.332-28.5108-2.523.0051-.032.0117-.065.0199-.097 19.3769-52.848 36.3059-83.066 43.6099-94.944-1.929-9.075-4.328-16.912-7.006-23.701 29.014 22.15 58.043 57.685 60.099 117.44 2.554 74.235 6.395 185.91 8.276 240.705h-.002z" fill="#000" fill-opacity=".07"/><path d="M309 123c-.79.585-2.843.878-4.738.878-1.896 0-3.949-.293-4.739-.878l-4.738 3.512c1.579 1.025 1.777 2.81 1.777 5.268 0 1.202-.453 2.47-1.004 4.015-.859 2.408-1.958 5.488-1.958 10.034 0 5.269 9.872 10.537 15.4 13.171 5.528-2.634 15.4-7.902 15.4-13.171 0-4.546-1.099-7.626-1.958-10.034-.551-1.545-1.003-2.813-1.003-4.015 0-2.458.197-4.243 1.776-5.268L318.477 123c-.79.585-2.843.878-4.738.878-1.896 0-3.949-.293-4.739-.878z" fill="#F7E481"/><path d="M309 124.5c-.705.537-2.538.805-4.231.805-1.692 0-4.139-.268-4.844-.805l-3.245 2.5c1.41.939 1.214 3.295 1.214 5.549 0 1.101-.404 2.263-.896 3.68-.767 2.207-1.748 5.03-1.748 9.198 0 4.829 8.814 9.658 13.75 12.073 4.936-2.415 13.75-7.244 13.75-12.073 0-4.168-.981-6.991-1.748-9.198-.492-1.417-.896-2.579-.896-3.68 0-2.254-.086-4.61 1.324-5.549l-3.41-2.5c-.705.537-3.097.805-4.789.805-1.693 0-3.526-.268-4.231-.805z" fill="#F2F2F2"/><path d="M309 124.5c-.705.537-2.538.805-4.231.805-1.692 0-4.139-.268-4.844-.805l-3.245 2.5c1.41.939 1.214 3.295 1.214 5.549 0 1.101-.404 2.263-.896 3.68-.767 2.207-1.748 5.03-1.748 9.198 0 4.829 8.814 9.658 13.75 12.073 4.936-2.415 13.75-7.244 13.75-12.073 0-4.168-.981-6.991-1.748-9.198-.492-1.417-.896-2.579-.896-3.68 0-2.254-.086-4.61 1.324-5.549l-3.41-2.5c-.705.537-3.097.805-4.789.805-1.693 0-3.526-.268-4.231-.805z" fill="#F2F2F2"/><path d="M320.156 130h-22.277c-.07-1.302-.329-2.421-1.199-3l3.245-2.5c.705.537 3.152.805 4.844.805 1.692 0 3.526-.268 4.231-.805.705.537 2.538.805 4.23.805 1.693 0 4.085-.268 4.79-.805l3.41 2.5c-.871.579-1.171 1.698-1.274 3z" fill="#3D3D3D"/><path d="M320.157 130H309v13h13.634c-.282-2.886-1.024-5.022-1.632-6.771-.492-1.417-.896-2.579-.896-3.68 0-.123 0-.245-.001-.368-.001-.743-.003-1.488.052-2.181z" fill="#BC2828"/><path d="M309 157.5V143h-13.634c-.074.755-.116 1.562-.116 2.427 0 4.829 8.814 9.658 13.75 12.073z" fill="#375389"/><circle cx="309" cy="142" r="6" fill="#898989"/><path d="M287.185 139.801c-.122.914-.185 1.846-.185 2.793 0 11.822 9.85 21.406 22 21.406s22-9.584 22-21.406c0-.947-.063-1.879-.185-2.793 0 0-.436-1.988-1.728-1.792-1.292.196-1.17 1.792-1.17 1.792.14.911.213 1.844.213 2.793 0 10.28-8.565 18.614-19.13 18.614s-19.13-8.334-19.13-18.614c0-.949.073-1.882.213-2.793 0 0 .122-1.596-1.17-1.792-1.292-.196-1.728 1.792-1.728 1.792z" fill="#3F6B5E"/></svg>