<?xml version="1.0" encoding="UTF-8"?><svg width="500" height="500" xmlns="http://www.w3.org/2000/svg"><g fill="none" fill-rule="evenodd"><path d="M0 0h500v500H0z"/><path fill="#D3D0CF" d="M203.003 109.223h93.643V21.928h-93.643z"/><path fill="#333" d="M202.864 32.228h93.458v-14.2h-93.458z"/><path d="M87.548 75.258S46.785 148.058 29 203.029c4.445 13.376 45.208 40.86 85.232 37.886 13.34-36.4 24.46-52 24.46-52S141.655 93.83 87.548 75.26m323.925-.002s40.762 72.8 58.547 127.77c-4.445 13.376-45.208 40.86-85.232 37.886-13.34-36.4-24.46-52-24.46-52s-2.963-95.085 51.145-113.655" fill="#F9F5F4"/><path d="M249.511 57.703c-50.082 0-47.798-39.47-48.742-39.14-7.516 2.618-24.133 14.936-52.439 25.495-31.873 11.885-52.626 19.315-60.782 31.2 11.114 8.915 46.694 28.97 46.694 120.345v271.14s49.658 14.855 114.885 14.855c68.929 0 115.648-14.855 115.648-14.855v-271.14c0-91.375 35.58-111.43 46.7-120.345-8.157-11.885-28.91-19.315-60.783-31.2-28.36-10.577-44.982-22.92-52.478-25.511-.927-.318 4.177 39.156-48.703 39.156z" fill="#F9F5F4"/><path d="M467.353 195.129a338.826 338.826 0 012.667 7.9c-4.445 13.375-45.208 40.86-85.232 37.885a426.424 426.424 0 00-2.835-7.52c20.795-1.358 37.993-5.637 51.594-12.837 13.428-7.11 24.697-15.585 33.806-25.428zm-435.698.036c9.103 9.828 20.36 18.291 33.772 25.392 13.611 7.205 30.824 11.485 51.64 12.84a426.42 426.42 0 00-2.835 7.517c-40.024 2.975-80.787-24.51-85.232-37.885.836-2.585 1.723-5.21 2.655-7.864zm170.56-170.588l1.749 3.198c-9.027 4.858-24.145 14.369-46.657 22.766-31.873 11.885-52.626 19.315-60.78 31.201-.003 0-11.08 19.783-24.205 46.512a52.893 52.893 0 01-3.11-2.238c13.177-26.854 24.322-46.757 24.322-46.757h.002c8.155-11.886 28.908-19.316 60.78-31.201 19.604-7.313 33.602-15.47 42.852-20.663-.008-.033-.01-.05-.01-.05a189.648 189.648 0 015.057-2.768z" fill="#3D3D3D"/><path d="M192.45 26.847c-9.234 5.204-22.706 12.821-41.13 19.694-31.873 11.885-52.626 19.315-60.78 31.201-.002 0-11.08 19.783-24.205 46.512a52.82 52.82 0 01-3.11-2.238c13.178-26.854 24.323-46.758 24.323-46.758 8.156-11.885 28.91-19.315 60.782-31.2 19.604-7.313 33.601-15.47 42.851-20.663a1.24 1.24 0 01-.01-.05l1.278 3.502zm106.643-1.04c.87.478 1.79.992 2.763 1.538l-.01.05c9.25 5.194 23.247 13.35 42.85 20.663 31.874 11.885 52.627 19.315 60.781 31.201h.002s11.145 19.903 24.323 46.757a52.819 52.819 0 01-3.11 2.238c-13.125-26.729-24.203-46.512-24.203-46.512h-.002c-8.155-11.886-28.908-19.316-60.78-31.201-20.712-7.726-35.165-16.394-44.374-21.514l1.76-3.22z" fill="#3D3D3D"/><path d="M307.843 23.345l-.011.05c9.25 5.194 23.247 13.35 42.851 20.663 31.873 11.885 52.626 19.315 60.78 31.201.003 0 11.147 19.903 24.325 46.757a52.819 52.819 0 01-3.11 2.238c-13.125-26.729-24.203-46.512-24.203-46.512-8.156-11.886-28.91-19.316-60.782-31.201-18.28-6.819-31.685-14.371-40.912-19.571l1.062-3.625z" fill="#3D3D3D"/><path d="M388.82 86.522c-4.25 5.766-5.802 13.16-7.35 22.493-5.593 10.773-10.56 24.955-13.592 43.859-1.365 3.533-2.393 7.232-2.663 11.126l-117.118 31.437-114.977-30.864-.495-.628c-3.82-34.905-13.826-55.703-23.751-68.676L110 87.225l138.097 37.065L388.82 86.522z" fill="#90343F"/><path d="M370.495 139.559c-1.69 7.174-3.082 15.167-4.07 24.083l-1.214.359L248.1 195.433l-114.977-30.859-.438-.076c-.939-8.768-2.267-16.652-3.886-23.75l1.55.352 117.576 31.557 120.146-32.246 2.425-.852z" fill="#B00223"/><path d="M401.517 83.142c-7.178 6.272-16.032 16.032-23.249 32.598l-4.495 1.064-125.944 33.807-123.05-33.033-3.668-.999c-6.872-16.117-15.302-25.915-22.362-32.327l149.35 40.041 153.418-41.151z" fill="#492B35"/><path d="M307.852 23.345C302.08 20.105 298.124 18 295.844 18c0 0 5.881 32.495-46.335 32.495-48.52 0-46.336-32.495-46.336-32.495-2.28 0-6.235 2.105-12.002 5.345 0 0 7.368 40.38 58.402 40.38 51.479 0 58.279-35.895 58.279-40.38z" fill="#3D3D3D"/><path d="M413.584 238.323c-9.287 2.238-19.064 3.316-28.798 2.592-8.197-22.369-15.557-36.883-20.012-44.748v270.577s-21.102 6.71-55.867 11.11l-.544-.059c1.881-54.795 5.722-166.47 8.277-240.705 2.055-59.755 31.084-95.29 60.099-117.44-2.676 6.78-5.072 14.606-7 23.667 7.354 11.852 24.436 42.069 43.831 94.964l.014.042zM190.717 477.795c-34.248-4.401-56.477-11.05-56.477-11.05V196.171c-4.456 7.867-11.813 22.38-20.01 44.743-9.632.716-19.308-.332-28.51-2.523.005-.033.012-.065.02-.097 19.377-52.848 36.305-83.066 43.61-94.944-1.93-9.075-4.328-16.912-7.007-23.701 29.015 22.15 58.044 57.685 60.1 117.44 2.554 74.235 6.395 185.91 8.276 240.705h-.002z" fill-opacity=".06" fill="#000"/><g transform="translate(285 115.5)"><circle fill="#F9F5F4" cx="24" cy="31" r="24"/><path d="M24 9c12.15 0 22 9.85 22 22a21.908 21.908 0 01-4.881 13.82L38.73 41H9.13l-2.328 3.722A21.907 21.907 0 012 31C2 18.85 11.85 9 24 9z" fill="#666"/><path d="M27.73 41l1.517 11.37c-1.681.412-3.439.63-5.247.63-1.856 0-3.658-.23-5.38-.663L20.13 41h7.6z" fill="#D8131A"/><path d="M34.395 38.268l5.188 8.262a22.005 22.005 0 01-8.482 5.299l-2.752-10.714 6.046-2.847z" fill="#FFCC01"/><path d="M13.466 38.268l6.047 2.847-2.74 10.67a22.01 22.01 0 01-8.441-5.341l5.134-8.176z" fill="#000"/><circle fill="#F9F5F4" cx="24" cy="31" r="19"/><path d="M33.821 37.897l3.274 2.298C34.2 44.311 29.415 47 24 47c-5.414 0-10.2-2.69-13.095-6.805l3.274-2.298A11.986 11.986 0 0024 43c4.06 0 7.65-2.017 9.821-5.103zM24 15c5.415 0 10.201 2.69 13.096 6.806l-3.274 2.298A11.986 11.986 0 0024 19c-4.06 0-7.65 2.017-9.822 5.104l-3.273-2.3C13.8 17.69 18.585 15 24 15z" fill="#AFADAC"/><circle fill="#000" cx="24" cy="31" r="9"/><path fill="#FFCC01" d="M28.167 3.75l-1.47.773.28-1.637-1.188-1.159 1.643-.238L28.167 0l.734 1.489 1.643.238-1.189 1.16.281 1.636zm-16.667 2l-1.47.773.281-1.637-1.189-1.159 1.643-.238L11.5 2l.735 1.489 1.643.238-1.19 1.16.281 1.636zm25 0l-1.47.773.281-1.637-1.189-1.159 1.643-.238L36.5 2l.735 1.489 1.643.238-1.19 1.16.281 1.636zm-16.667-2l-1.47.773.282-1.637-1.19-1.159L19.1 1.49 19.833 0l.735 1.489 1.643.238-1.189 1.16.28 1.636z"/></g></g></svg>