<?xml version="1.0" encoding="UTF-8"?><svg width="500" height="500" viewBox="0 0 500 500" xmlns="http://www.w3.org/2000/svg"><g fill="none" fill-rule="evenodd"><path d="M0 0h500v500H0z"/><path fill="#D3D0CF" d="M203.0033 109.223h93.6432V21.928h-93.6432z"/><path fill="#771F22" d="M202.8636 32.228h93.4586v-14.2h-93.4586z"/><path d="M87.5475 75.2585s-40.7627 72.8-58.5475 127.77c4.445 13.375 45.2077 40.86 85.2322 37.885 13.3398-36.4 24.4596-52 24.4596-52s2.9633-95.085-51.1443-113.655m323.9252 0s40.7628 72.8 58.5475 127.77c-4.445 13.375-45.2077 40.86-85.2321 37.885-13.3399-36.4-24.4597-52-24.4597-52s-2.9633-95.085 51.1443-113.655" fill="#F2F2F2"/><path d="M249.5111 57.7025c-50.0817 0-47.7981-39.469-48.7426-39.14-7.5158 2.6187-24.1326 14.9368-52.4385 25.495-31.8729 11.885-52.626 19.315-60.7825 31.2 11.1149 8.915 46.6944 28.97 46.6944 120.345v271.14s49.6576 14.855 114.885 14.855c68.9291 0 115.6484-14.855 115.6484-14.855v-271.14c0-91.375 35.5795-111.43 46.6994-120.345-8.1566-11.885-28.9096-19.315-60.7825-31.2-28.3599-10.5767-44.9818-22.9194-52.478-25.5106-.9273-.3184 4.1773 39.1556-48.703 39.1556z" fill="#F2F2F2"/><path d="M467.3529 195.129c.9359 2.6665 1.8272 5.303 2.6673 7.8995-4.445 13.375-45.2077 40.86-85.2321 37.885a426.4238 426.4238 0 00-2.8354-7.5198c20.795-1.3576 37.9932-5.6366 51.5944-12.8371 13.4282-7.109 24.6968-15.5848 33.8058-25.4277zm-435.6982.036c9.1031 9.8275 20.3606 18.2914 33.7724 25.3916 13.611 7.2056 30.824 11.4856 51.6393 12.84a426.4196 426.4196 0 00-2.8342 7.5169c-40.0245 2.975-80.7873-24.51-85.2322-37.885.8363-2.5849 1.7234-5.2092 2.6547-7.8635z" fill="#DA0001"/><path d="M96.6454 79.7885c8.5392-11.2398 28.6595-18.5704 59.0414-30.0765 19.3017-7.312 33.0832-15.4682 42.191-20.662a4.556 4.556 0 01-.0095-.0504c1.2123-.6917 2.3432-1.3316 3.3942-1.9104l1.7304 3.2145c-9.03 5.0642-23.4589 13.9728-44.3618 21.8915-29.8633 11.3097-49.8123 18.5852-58.594 29.5043a52.2183 52.2183 0 00-3.3917-1.9109zm-6.7003-2.8755c8.031-11.886 28.4648-19.316 59.8474-31.201 19.3016-7.312 33.0831-15.4682 42.191-20.6621-.0065-.0333-.0095-.0504-.0095-.0504l.024-.0137 1.7377 3.2283c-9.1025 5.2076-22.5213 12.9811-40.999 19.981-30.4584 11.535-50.6033 18.8736-59.1056 30.1614l-3.686-1.4435zm312.2365 2.878a52.2193 52.2193 0 00-3.3914 1.9112c-8.7805-10.9206-28.7303-18.1964-58.5962-29.507-20.2041-7.654-34.3598-16.2329-43.438-21.371l1.5843-3.304c.8258.4607 1.6978.9552 2.6164 1.4793 0 0-.003.017-.0095.0504 9.1079 5.1939 22.8894 13.35 42.191 20.6621 30.3843 11.507 50.5052 18.8378 59.0434 30.079zm6.6994-2.876a52.1448 52.1448 0 00-3.6853 1.4438c-8.5014-11.2891-28.647-18.6279-59.1074-30.1637-18.2754-6.9233-31.6021-14.6034-40.6985-19.8092l1.413-3.4139.0483.0275s-.003.017-.0095.0504c9.1079 5.1939 22.8894 13.35 42.191 20.6621 31.3825 11.885 51.8163 19.315 59.8473 31.2v.001s.0011.0007.0011.002z" fill="#9A2B2F"/><path d="M468.5418 198.5716l-.1294.1355c-11.3183 12.1024-23.9489 21.2575-37.8917 27.4653-14.4493 6.4332-30.308 9.7011-47.576 9.8036a408.3274 408.3274 0 00-2.1314-5.4853c17.1487-.1377 32.9041-3.4048 47.267-9.7996 14.153-6.3013 26.954-15.6396 38.4028-28.0148a374.0064 374.0064 0 012.0587 5.8953z" fill="#F2F2F2"/><path d="M466.483 192.6774l-.511.5484c-11.3183 12.1025-23.9489 21.2576-37.8917 27.4653-14.363 6.3948-30.1186 9.662-47.2668 9.8014a373.7146 373.7146 0 00-2.2254-5.484c17.0648-.164 32.7488-3.4306 47.0518-9.7987 14.2789-6.3573 27.1815-15.8059 38.7078-28.3455a403.0307 403.0307 0 012.1353 5.813zM73.5954 215.2098c14.243 6.3414 29.8553 9.6072 46.837 9.7973a383.3336 383.3336 0 00-2.2247 5.4816c-17.0658-.163-32.7497-3.4295-47.0527-9.7976-14.2167-6.3297-27.069-15.7236-38.557-28.1818a418.841 418.841 0 012.1358-5.8124c11.5658 12.6232 24.5194 22.1274 38.8616 28.513z" fill="#1DA03E"/><path d="M71.155 220.6911c14.303 6.3681 29.987 9.6346 47.0518 9.7995l-.8455 2.1482a413.642 413.642 0 00-1.2844 3.3337c-17.1855-.126-32.9728-3.3935-47.3623-9.8001-14.0603-6.26-26.786-15.5173-38.1774-27.7717a363.3655 363.3655 0 012.06-5.8904c11.4888 12.4572 24.3411 21.8511 38.5578 28.1808z" fill="#F2F2F2"/><path d="M307.8516 23.345c-5.772-3.24-9.728-5.345-12.0078-5.345 0 0 5.8817 32.495-46.3352 32.495-48.5202 0-46.3352-32.495-46.3352-32.495-2.2798 0-6.2358 2.105-12.0028 5.345 0 0 7.3683 40.38 58.4029 40.38 51.4785 0 58.2781-35.895 58.2781-40.38z" fill="#9A2B2F"/><path d="M413.5843 238.3227c-9.2877 2.2382-19.0646 3.3161-28.7978 2.5926-8.1978-22.369-15.5572-36.883-20.0128-44.7484v270.5774s-21.1022 6.7098-55.8664 11.1104c-.1817-.0197-.363-.0396-.544-.0597 1.8808-54.795 5.7221-166.47 8.2763-240.705 2.0554-59.755 31.0847-95.29 60.099-117.44-2.6753 6.7806-5.0714 14.6063-6.9991 23.6673 7.354 11.8514 24.4358 42.0687 43.8307 94.964.005.014.0097.0277.014.0414zM190.7166 477.7953c-34.2478-4.4014-56.4763-11.051-56.4763-11.051V196.1721c-4.4558 7.8668-11.8138 22.3792-20.0097 44.7432-9.633.716-19.3087-.3323-28.5106-2.5238a1.113 1.113 0 01.0199-.0967c19.3773-52.8475 36.3054-83.0661 43.6098-94.9437-1.929-9.0753-4.3277-16.912-7.0064-23.7011 29.0144 22.15 58.0437 57.685 60.099 117.44 2.5543 74.235 6.3956 185.91 8.2763 240.7053h-.002z" fill-opacity=".07" fill="#000"/><path d="M309 167c8.2843 0 15-6.7157 15-15v-33h-30v33c0 8.2843 6.7157 15 15 15z" fill="#101010"/><path d="M309 166c7.732 0 14-6.296 14-14.0625V120h-28v31.9375C295 159.704 301.268 166 309 166z" fill="#F2F2F2"/><path fill="#101010" d="M295 135h28v1h-28z"/><circle fill="#A4A4A4" cx="309" cy="152.5" r="10.5"/><path fill="#1DA03E" d="M297 121.5h24v4h-24z"/><path fill="#FFF" d="M297 125.5h24v4h-24z"/><path fill="#DA0001" d="M297 129.5h24v4h-24z"/><circle fill="#DA0001" opacity=".6" cx="309" cy="127.5" r="1.5"/></g></svg>