<?xml version="1.0" encoding="UTF-8"?><svg width="500" height="500" viewBox="0 0 500 500" xmlns="http://www.w3.org/2000/svg"><g fill="none" fill-rule="evenodd"><path d="M0 0h500v500H0z"/><path fill="#E0CB00" d="M203.0033 109.223h93.6432V21.928h-93.6432z"/><path fill="#252C48" d="M202.8636 32.228h93.4586v-14.2h-93.4586z"/><path d="M87.5475 75.2585s-40.7627 72.8-58.5475 127.77c4.445 13.375 45.2077 40.86 85.2322 37.885 13.3398-36.4 24.4596-52 24.4596-52s2.9633-95.085-51.1443-113.655m323.9252 0s40.7628 72.8 58.5475 127.77c-4.445 13.375-45.2077 40.86-85.2321 37.885-13.3399-36.4-24.4597-52-24.4597-52s-2.9633-95.085 51.1443-113.655" fill="#FBE300"/><path d="M249.5111 57.7025c-50.0817 0-47.7981-39.469-48.7426-39.14-7.5158 2.6187-24.1326 14.9368-52.4385 25.495-31.8729 11.885-52.626 19.315-60.7825 31.2 11.1149 8.915 46.6944 28.97 46.6944 120.345v271.14s49.6576 14.855 114.885 14.855c68.9291 0 115.6484-14.855 115.6484-14.855v-271.14c0-91.375 35.5795-111.43 46.6994-120.345-8.1566-11.885-28.9096-19.315-60.7825-31.2-28.3599-10.5767-44.9818-22.9194-52.478-25.5106-.9273-.3184 4.1773 39.1556-48.703 39.1556z" fill="#FBE300"/><path d="M202.2147 24.5768l1.749 3.1978c-9.0267 4.8588-24.1451 14.369-46.657 22.766-31.8729 11.885-52.626 19.315-60.7804 31.2017-.002-.0007-11.0796 19.7832-24.2047 46.5116a52.8932 52.8932 0 01-3.11-2.2383C82.3894 99.162 93.534 79.2585 93.534 79.2585l.002.0007c8.1545-11.8867 28.9076-19.3167 60.7805-31.2017 19.604-7.3124 33.601-15.4689 42.8512-20.6627-.0075-.0328-.0106-.0498-.0106-.0498 1.8759-1.054 3.5602-1.9878 5.0576-2.7682z" fill="#31395D"/><path d="M192.4495 26.8472c-9.2335 5.2034-22.7053 12.8212-41.1292 19.6934-31.873 11.885-52.626 19.315-60.7805 31.2017-.002-.0007-11.0795 19.7831-24.2046 46.5115a52.8192 52.8192 0 01-3.11-2.2382C76.403 95.1619 87.5474 75.2585 87.5474 75.2585c8.1566-11.886 28.9096-19.316 60.7825-31.201 19.604-7.3124 33.6011-15.4689 42.8513-20.6627a1.2403 1.2403 0 01-.0107-.0498l1.2789 3.5022zm106.6432-1.0397c.8701.4771 1.791.9912 2.7635 1.5375 0 0-.003.017-.0106.0498 9.2501 5.1938 23.2472 13.3503 42.8512 20.6627 31.8729 11.885 52.626 19.315 60.7804 31.2017l.002-.0007s11.1446 19.9034 24.3225 46.757a52.8188 52.8188 0 01-3.11 2.2383c-13.1252-26.7284-24.2027-46.5122-24.2027-46.5122l-.002.0007c-8.1545-11.8867-28.9076-19.3167-60.7804-31.2017-20.7115-7.7254-35.1648-16.3931-44.3737-21.514l1.7598-3.2191z" fill="#31395D"/><path d="M307.8427 23.345s-.0031.017-.0107.0498c9.2502 5.1938 23.2473 13.3503 42.8512 20.6627 31.873 11.885 52.626 19.315 60.7805 31.2017.002-.0007 11.1465 19.9027 24.3244 46.7564a52.8188 52.8188 0 01-3.11 2.2382c-13.1251-26.7284-24.2026-46.5122-24.2026-46.5122-8.1566-11.886-28.9096-19.316-60.7825-31.201-18.28-6.8185-31.6849-14.371-40.912-19.571l1.0617-3.6246zM119.9819 226.098c-1.8487 4.494-3.7749 9.4268-5.7497 14.8155-40.0245 2.975-80.7873-24.51-85.2322-37.885 1.7572-5.4313 3.7388-11.0368 5.8832-16.7288 10.2695 10.9648 22.741 19.7944 37.4143 26.4888 14.6578 6.6873 30.5526 11.1238 47.6844 13.3096zm259.2228 0c17.1318-2.1857 33.0266-6.6222 47.6843-13.3095 14.6734-6.6944 27.1448-15.524 37.4144-26.4888 2.1444 5.692 4.126 11.2975 5.8831 16.7288-4.4449 13.375-45.2077 40.86-85.2321 37.885-1.9749-5.3887-3.901-10.3216-5.7497-14.8154z" fill="#31395D"/><path d="M467.4614 195.302c.936 2.6666 1.8273 5.303 2.6674 7.8996-4.445 13.375-45.2077 40.86-85.2322 37.885a426.405 426.405 0 00-2.8354-7.5199c20.7951-1.3576 37.9933-5.6366 51.5945-12.837 13.4282-7.109 24.6968-15.5848 33.8057-25.4277zm-435.8067 0c9.1031 9.8275 20.3606 18.2914 33.7724 25.3916 13.611 7.2056 30.824 11.4856 51.6393 12.84a426.4198 426.4198 0 00-2.8342 7.5169c-40.0245 2.975-80.7873-24.51-85.2322-37.885.8363-2.5849 1.7234-5.2092 2.6547-7.8635z" fill="#DB293B"/><path d="M307.8516 23.345c-5.772-3.24-9.728-5.345-12.0078-5.345 0 0 5.8817 32.495-46.3352 32.495-48.5202 0-46.3352-32.495-46.3352-32.495-2.2798 0-6.2358 2.105-12.0028 5.345 0 0 7.3683 40.38 58.4029 40.38 51.4785 0 58.2781-35.895 58.2781-40.38z" fill="#31395D"/><path d="M413.5843 238.3227c-9.2877 2.2382-19.0646 3.3161-28.7978 2.5926-8.1978-22.369-15.5572-36.883-20.0128-44.7484v270.5774s-21.1022 6.7098-55.8664 11.1104c-.1817-.0197-.363-.0396-.544-.0597 1.8808-54.795 5.7221-166.47 8.2763-240.705 2.0554-59.755 31.0847-95.29 60.099-117.44-2.6753 6.7806-5.0714 14.6063-6.9991 23.6673 7.354 11.8514 24.4358 42.0687 43.8307 94.964.005.014.0097.0277.014.0414zM190.7166 477.7953c-34.2478-4.4014-56.4763-11.051-56.4763-11.051V196.1721c-4.4558 7.8668-11.8138 22.3792-20.0097 44.7432-9.633.716-19.3087-.3323-28.5106-2.5238a1.113 1.113 0 01.0199-.0967c19.3773-52.8475 36.3054-83.0661 43.6098-94.9437-1.929-9.0753-4.3277-16.912-7.0064-23.7011 29.0144 22.15 58.0437 57.685 60.099 117.44 2.5543 74.235 6.3956 185.91 8.2763 240.7053h-.002z" fill-opacity=".06" fill="#000"/><g transform="translate(286 120)"><circle fill="#FFF" cx="23" cy="23" r="23"/><circle fill="#DDAC00" cx="23" cy="23" r="22"/><circle fill="#FFF" cx="23" cy="23" r="21"/><path d="M23 5c9.1524 0 16.7094 6.8308 17.8509 15.6724l-2.9751.3881C36.9246 13.6925 30.627 8 23 8S9.0754 13.6924 8.1242 21.0605l-2.9751-.388C6.2906 11.8307 13.8476 5 23 5z" fill="#A0A0A0"/><circle fill="#E51720" cx="23" cy="23" r="11"/><path d="M9 23c0 7.732 6.268 14 14 14v5C12.5066 42 4 33.4934 4 23h5z" fill="#FFCD00"/><path d="M32.8995 32.8995l3.5355 3.5355C32.9967 39.8734 28.2467 42 23 42v-5c3.866 0 7.366-1.567 9.8995-4.1005z" fill="#263487"/><path d="M42 23c0 5.2467-2.1266 9.9967-5.565 13.435l-3.5355-3.5355C35.433 30.366 37 26.866 37 23h5z" fill="#E01620"/></g></g></svg>