<?xml version="1.0" encoding="utf-8"?><svg width="500" height="500" viewBox="0 0 500 500" fill="none" xmlns="http://www.w3.org/2000/svg"><path fill-rule="evenodd" clip-rule="evenodd" d="M203.003 109.223h93.644V21.928h-93.644v87.295z" fill="#952626"/><path fill-rule="evenodd" clip-rule="evenodd" d="M202.864 32.228h93.458v-14.2h-93.458v14.2z" fill="#A93030"/><path fill-rule="evenodd" clip-rule="evenodd" d="M87.547 75.258S46.785 148.058 29 203.029c4.445 13.375 45.208 40.861 85.232 37.885 13.34-36.399 24.46-52 24.46-52s2.963-95.085-51.145-113.655zm323.925 0s40.763 72.8 58.548 127.77c-4.445 13.375-45.208 40.861-85.232 37.885-13.34-36.399-24.46-52-24.46-52s-2.963-95.085 51.144-113.655z" fill="#C93A3A"/><path fill-rule="evenodd" clip-rule="evenodd" d="M249.511 57.703c-50.082 0-47.798-39.47-48.743-39.14-7.516 2.618-24.132 14.936-52.438 25.494-31.873 11.886-52.626 19.316-60.783 31.2 11.115 8.915 46.695 28.971 46.695 120.346v271.14s49.657 14.855 114.885 14.855c68.929 0 115.648-14.855 115.648-14.855v-271.14c0-91.375 35.58-111.43 46.699-120.346-8.156-11.885-28.909-19.315-60.782-31.2-28.36-10.576-44.982-22.919-52.478-25.508-.927-.32 4.177 39.154-48.703 39.154z" fill="#C93A3A"/><path fill-rule="evenodd" clip-rule="evenodd" d="M467.461 195.302a338.05 338.05 0 012.668 7.9c-4.445 13.375-45.208 40.86-85.233 37.885a413.1 413.1 0 00-2.835-7.52c20.795-1.358 37.993-5.637 51.594-12.837 13.429-7.109 24.697-15.585 33.806-25.428zm-435.806 0c9.103 9.828 20.36 18.291 33.772 25.392 13.611 7.205 30.824 11.485 51.639 12.84a423.042 423.042 0 00-2.834 7.516C74.208 244.025 33.445 216.54 29 203.165a339.518 339.518 0 012.655-7.863z" fill="#E18787"/><path fill-rule="evenodd" clip-rule="evenodd" d="M307.851 23.345c-5.772-3.24-9.728-5.345-12.007-5.345 0 0 5.881 32.495-46.336 32.495-48.52 0-46.335-32.495-46.335-32.495-2.28 0-6.236 2.105-12.003 5.345 0 0 7.369 40.38 58.403 40.38 51.479 0 58.278-35.895 58.278-40.38z" fill="#C93A3A"/><path fill-rule="evenodd" clip-rule="evenodd" d="M413.584 238.323c-9.287 2.238-19.064 3.316-28.797 2.592-8.198-22.369-15.558-36.883-20.013-44.748v270.577s-21.102 6.71-55.866 11.111l-.544-.06c1.88-54.795 5.722-166.47 8.276-240.705 2.055-59.755 31.085-95.29 60.099-117.44-2.675 6.781-5.072 14.606-6.999 23.667 7.354 11.852 24.435 42.069 43.83 94.964l.014.042zM190.717 477.795c-34.248-4.401-56.476-11.051-56.476-11.051V196.172c-4.456 7.867-11.814 22.379-20.01 44.743-9.633.716-19.309-.332-28.51-2.523a1.01 1.01 0 01.02-.097c19.376-52.848 36.305-83.066 43.609-94.944-1.929-9.075-4.328-16.912-7.006-23.701 29.014 22.15 58.043 57.685 60.099 117.44 2.554 74.235 6.395 185.91 8.276 240.705h-.002z" fill="#000" fill-opacity=".06"/><path d="M309.139 170c-8.705-5.337-23.822-18.581-19.319-42.574 13.058 1.771 19.319-3.426 19.319-3.426s6.261 5.197 19.319 3.426c3.481 23.993-10.614 37.237-19.319 42.574z" fill="#272C45"/><path d="M309.267 168.083c-8.006-4.892-21.908-18.949-17.767-39.025 12.009 1.622 17.767-3.141 17.767-3.141s5.758 4.763 17.767 3.141c3.201 20.076-9.762 34.133-17.767 39.025z" fill="#F2F2F2"/><path d="M309.252 166.167c-7.116-4.448-18.451-17.401-15.792-35.478 10.674 1.475 15.792-2.856 15.792-2.856s5.119 4.331 15.793 2.856c1.824 18.077-8.676 31.03-15.793 35.478z" fill="#272C45"/><path fill-rule="evenodd" clip-rule="evenodd" d="M319.492 147.882c-1.845 3.455-5.655 5.826-10.056 5.826-6.207 0-11.24-4.719-11.24-10.541s5.033-10.542 11.24-10.542c4.193 0 7.849 2.153 9.781 5.344l-5.335 2.835c-.878-1.451-2.54-2.429-4.446-2.429-2.821 0-5.109 2.145-5.109 4.792 0 2.646 2.288 4.791 5.109 4.791 2.001 0 3.732-1.078 4.571-2.648l5.485 2.572z" fill="#F2F2F2"/><path d="M298 115l1.296 3.216 3.459.239-2.658 2.226.842 3.364-2.939-1.84-2.939 1.84.842-3.364-2.658-2.226 3.459-.239L298 115zm22 0l1.296 3.216 3.459.239-2.658 2.226.842 3.364-2.939-1.84-2.939 1.84.842-3.364-2.658-2.226 3.459-.239L320 115z" fill="#EDCC54"/></svg>